<svg width="16" height="16" viewBox="0 0 16 16" fill="none" xmlns="http://www.w3.org/2000/svg">
<path d="M14.4 9.40005L12.7 11L14.4 12.6L13.6 13.3L12 11.7L10.4 13.3L9.70002 12.6L11.3 11L9.70002 9.40005L10.4 8.60005L12 10.3L13.6 8.60005L14.4 9.40005Z" fill="white"/>
<path d="M1 7L14 7L14 5L1 5L1 7Z" fill="white"/>
<path d="M1 4L14 4L14 2L1 2L1 4Z" fill="white"/>
<path d="M8.3 9.4L9 8.6L9 8L1 8L1 10L8.9 10L8.3 9.4Z" fill="white"/>
<path d="M8.7 13L8.3 12.6L9 11.9L9 11L1 11L1 13L8.7 13Z" fill="white"/>
</svg>
