<svg width="16" height="16" viewBox="0 0 16 16" fill="none" xmlns="http://www.w3.org/2000/svg">
<path d="M9.01509 12.072V7H8.02123V12.122L6.99145 11.085L6.28796 11.792L7.79073 13.304L8.54211 14.06L9.2446 13.353L10.7484 11.84L9.99698 11.084L9.01509 12.072Z" fill="white"/>
<path d="M12.0064 6H11.9566C11.8485 5.24923 11.4993 4.55418 10.9618 4.02014C10.4242 3.4861 9.72768 3.14217 8.9776 3.04044C8.22753 2.9387 7.4648 3.08472 6.80496 3.45635C6.14511 3.82799 5.6241 4.40501 5.32083 5.1C4.83984 4.98232 4.33938 4.96847 3.85264 5.05937C3.36591 5.15027 2.90402 5.34385 2.49762 5.62727C2.09121 5.91068 1.74959 6.27745 1.4954 6.70326C1.24121 7.12906 1.08026 7.60415 1.02324 8.09704C0.966217 8.58992 1.01442 9.08932 1.16465 9.56211C1.31488 10.0349 1.5637 10.4703 1.89461 10.8394C2.22553 11.2084 2.63096 11.5028 3.08403 11.7029C3.5371 11.903 4.02745 12.0043 4.52255 12H5.02148V11H4.52255C3.86093 11 3.22641 10.7366 2.75858 10.2678C2.29075 9.79893 2.02792 9.16304 2.02792 8.5C2.02792 7.83696 2.29075 7.20108 2.75858 6.73224C3.22641 6.2634 3.86093 6 4.52255 6C4.71364 6.0025 4.90382 6.02699 5.08933 6.073L5.89759 6.262L6.23087 5.5C6.44573 5.00173 6.81728 4.58754 7.28889 4.3206C7.7605 4.05365 8.30629 3.94859 8.84303 4.02143C9.37977 4.09427 9.87801 4.34103 10.2618 4.72407C10.6456 5.10711 10.8938 5.60541 10.9687 6.143L11.0924 7H12.0064C12.5357 7 13.0434 7.21072 13.4176 7.58579C13.7919 7.96086 14.0021 8.46957 14.0021 9C14.0021 9.53044 13.7919 10.0391 13.4176 10.4142C13.0434 10.7893 12.5357 11 12.0064 11V12C12.8004 12 13.5618 11.6839 14.1232 11.1213C14.6846 10.5587 15 9.79565 15 9C15 8.20435 14.6846 7.44129 14.1232 6.87868C13.5618 6.31607 12.8004 6 12.0064 6Z" fill="white"/>
</svg>
