<svg width="16" height="16" viewBox="0 0 16 16" fill="none" xmlns="http://www.w3.org/2000/svg">
<path d="M12.0064 5.97519H11.9566C11.8491 5.22756 11.5045 4.53488 10.9741 4.00037C10.4436 3.46586 9.7557 3.11814 9.01289 3.00904V9.0036L9.99876 8.01253L10.7531 8.77164L9.24439 10.2929L8.53891 10.9958L7.78453 10.2366L6.27578 8.72244L6.98126 8.01253L8.01503 9.0538V3C7.42809 3.08661 6.87274 3.32224 6.40136 3.68467C5.92998 4.0471 5.55812 4.52437 5.32083 5.07149C4.83984 4.95332 4.33938 4.93941 3.85264 5.03069C3.36591 5.12196 2.90402 5.31634 2.49762 5.60092C2.09121 5.8855 1.74959 6.25378 1.4954 6.68133C1.24121 7.10889 1.08026 7.58594 1.02324 8.08085C0.966217 8.57576 1.01442 9.07721 1.16465 9.55195C1.31488 10.0267 1.5637 10.4639 1.89461 10.8345C2.22553 11.2051 2.63096 11.5006 3.08403 11.7015C3.5371 11.9025 4.02745 12.0042 4.52255 11.9999H12.0064C12.8004 11.9999 13.5618 11.6825 14.1232 11.1176C14.6846 10.5527 15 9.78645 15 8.98753C15 8.18861 14.6846 7.42241 14.1232 6.85748C13.5618 6.29256 12.8004 5.97519 12.0064 5.97519Z" fill="white"/>
</svg>
