<svg width="16" height="16" viewBox="0 0 16 16" fill="none" xmlns="http://www.w3.org/2000/svg">
<path fill-rule="evenodd" clip-rule="evenodd" d="M7.99999 2.50708L9.27955 6.7217H13.652L10.1146 9.47221L11.4215 13.7769L7.99999 11.1165L4.57847 13.7769L5.88537 9.47221L2.34802 6.7217H6.72043L7.99999 2.50708ZM7.26844 7.6229H4.9011L6.81632 9.1121L6.08477 11.5217L7.99999 10.0325L9.9152 11.5217L9.18366 9.1121L11.0989 7.6229H8.73153L7.99999 5.21332L7.26844 7.6229Z" fill="white"/>
<path fill-rule="evenodd" clip-rule="evenodd" d="M8 1L9.59454 6.25211H15L10.6269 9.65247L12.2504 15L8 11.695L3.7496 15L5.37311 9.65247L1 6.25211H6.40546L8 1ZM6.72044 6.72168H2.34804L5.88539 9.4722L4.57848 13.7769L8 11.1164L11.4215 13.7769L10.1146 9.4722L13.652 6.72168H9.27956L8 2.50706L6.72044 6.72168Z" fill="white"/>
</svg>
