<svg xmlns="http://www.w3.org/2000/svg" xmlns:xlink="http://www.w3.org/1999/xlink" id="Layer_1" x="0" y="0" version="1.1" viewBox="0 0 16 16" xml:space="preserve" style="enable-background:new 0 0 16 16"><style type="text/css">.st0{fill-rule:evenodd;clip-rule:evenodd;fill:#c5c5c5}</style><g><path d="M2,14.1l-1.1-1L0.9,3l1-1.1l12.1,0l1.1,1l0,10.1L14,14.1H2z M13.9,12.9V3.1H2.1v9.8H13.9z M8.9,12.1V7.9h4.2 v4.2H8.9z M11.9,10.9V9.1h-1.8v1.8H11.9z M2.9,12.1v-1.2h4.2v1.2H2.9z M2.9,9.1V7.9h4.2v1.2H2.9z M2.9,7.1V3.9h10.2v3.2H2.9z M11.9,5.9V5.1H4.1v0.8H11.9z" class="st0"/><path d="M14,2l1,1v10l-1,1H2l-1-1V3l1-1H14 M2,13h12V3H2V13 M13,4v3H3V4H13 M4,6h8V5H4V6 M13,8v4H9V8H13 M10,11h2V9h-2V11 M7,8v1H3 V8H7 M7,11v1H3v-1H7 M14.1,1.8L14.1,1.8H2H1.9L1.9,1.9l-1,1L0.8,2.9V3v10v0.1l0.1,0.1l1,1l0.1,0.1H2h12h0.1l0.1-0.1l1-1l0.1-0.1V13 V3V2.9l-0.1-0.1L14.1,1.8L14.1,1.8L14.1,1.8z M2.2,3.2h11.6v9.6H2.2V3.2L2.2,3.2z M13.2,3.8H13H3H2.8V4v3v0.2H3h10h0.2V7V4V3.8 L13.2,3.8z M4.2,5.2h7.6v0.6H4.2V5.2L4.2,5.2z M13.2,7.8H13H9H8.8V8v4v0.2H9h4h0.2V12V8V7.8L13.2,7.8z M10.2,9.2h1.6v1.6h-1.6V9.2 L10.2,9.2z M7.2,7.8H7H3H2.8V8v1v0.2H3h4h0.2V9V8V7.8L7.2,7.8z M7.2,10.8H7H3H2.8V11v1v0.2H3h4h0.2V12v-1V10.8L7.2,10.8z"/></g></svg>