<?xml version="1.0" encoding="UTF-8" standalone="no"?>
<svg
   xmlns:dc="http://purl.org/dc/elements/1.1/"
   xmlns:cc="http://creativecommons.org/ns#"
   xmlns:rdf="http://www.w3.org/1999/02/22-rdf-syntax-ns#"
   xmlns:svg="http://www.w3.org/2000/svg"
   xmlns="http://www.w3.org/2000/svg"
   xmlns:sodipodi="http://sodipodi.sourceforge.net/DTD/sodipodi-0.dtd"
   xmlns:inkscape="http://www.inkscape.org/namespaces/inkscape"
   viewBox="0 -256 1792 1792"
   id="svg3888"
   version="1.1"
   inkscape:version="0.48.3.1 r9886"
   width="100%"
   height="100%"
   sodipodi:docname="thumbs_up_font_awesome.svg">
  <metadata
     id="metadata3898">
    <rdf:RDF>
      <cc:Work
         rdf:about="">
        <dc:format>image/svg+xml</dc:format>
        <dc:type
           rdf:resource="http://purl.org/dc/dcmitype/StillImage" />
      </cc:Work>
    </rdf:RDF>
  </metadata>
  <defs
     id="defs3896" />
  <sodipodi:namedview
     pagecolor="#ffffff"
     bordercolor="#666666"
     borderopacity="1"
     objecttolerance="10"
     gridtolerance="10"
     guidetolerance="10"
     inkscape:pageopacity="0"
     inkscape:pageshadow="2"
     inkscape:window-width="640"
     inkscape:window-height="480"
     id="namedview3894"
     showgrid="false"
     inkscape:zoom="0.13169643"
     inkscape:cx="896"
     inkscape:cy="896"
     inkscape:window-x="0"
     inkscape:window-y="25"
     inkscape:window-maximized="0"
     inkscape:current-layer="svg3888" />
  <g
     transform="matrix(1,0,0,-1,129.08475,1346.1695)"
     id="g3890">
    <path
       d="m 256,192 q 0,26 -19,45 -19,19 -45,19 -26,0 -45,-19 -19,-19 -19,-45 0,-26 19,-45 19,-19 45,-19 26,0 45,19 19,19 19,45 z m 1152,576 q 0,51 -39,89.5 -39,38.5 -89,38.5 H 928 q 0,58 48,159.5 48,101.5 48,160.5 0,98 -32,145 -32,47 -128,47 -26,-26 -38,-85 -12,-59 -30.5,-125.5 Q 777,1131 736,1088 714,1065 659,997 655,992 636,967 617,942 604.5,926 592,910 570,883.5 548,857 530,839.5 512,822 491.5,804 471,786 451.5,777 432,768 416,768 H 384 V 128 h 32 q 13,0 31.5,-3 18.5,-3 33,-6.5 14.5,-3.5 38,-11 Q 542,100 553.5,96 565,92 589,83.5 613,75 618,73 829,0 960,0 h 121 q 192,0 192,167 0,26 -5,56 30,16 47.5,52.5 17.5,36.5 17.5,73.5 0,37 -18,69 53,50 53,119 0,25 -10,55.5 -10,30.5 -25,47.5 32,1 53.5,47 21.5,46 21.5,81 z m 128,1 q 0,-89 -49,-163 9,-33 9,-69 0,-77 -38,-144 3,-21 3,-43 0,-101 -60,-178 1,-139 -85,-219.5 -86,-80.5 -227,-80.5 h -36 -93 q -96,0 -189.5,22.5 Q 677,-83 554,-40 438,0 416,0 H 128 Q 75,0 37.5,37.5 0,75 0,128 V 768 Q 0,821 37.5,858.5 75,896 128,896 h 274 q 36,24 137,155 58,75 107,128 24,25 35.5,85.5 11.5,60.5 30.5,126.5 19,66 62,108 39,37 90,37 84,0 151,-32.5 67,-32.5 102,-101.5 35,-69 35,-186 0,-93 -48,-192 h 176 q 104,0 180,-76 76,-76 76,-179 z"
       id="path3892"
       inkscape:connector-curvature="0"
       style="fill:currentColor" />
  </g>
</svg>
