<svg xmlns="http://www.w3.org/2000/svg" viewBox="0 0 16 16"><style>.icon-canvas-transparent{opacity:0;fill:#2d2d30}.icon-vs-out{fill:#2d2d30}.icon-vs-bg{fill:#c5c5c5}.icon-vs-fg{fill:#2b282e}</style><path class="icon-canvas-transparent" d="M16 16H0V0h16v16z" id="canvas"/><path class="icon-vs-bg" d="M14.898 6.925a1.281 1.281 0 0 0-.284-.417 1.338 1.338 0 0 0-.926-.383h-3.035c.023-.219.066-.43.13-.632.064-.203.142-.402.232-.598.159-.328.28-.66.362-.995.082-.335.123-.687.123-1.056 0-.15-.028-.292-.086-.424a1.112 1.112 0 0 0-.584-.585 1.06 1.06 0 0 0-.424-.085.84.84 0 0 0-.417.096 1.646 1.646 0 0 0-.342.266L5.396 6.357c-.21.21-.446.37-.708.479A2.157 2.157 0 0 1 3.851 7H1v6.125h3.063c.355 0 .698.034 1.029.102.331.068.66.169.988.301A6.072 6.072 0 0 0 8.438 14h3.5c.142 0 .277-.021.406-.064a1.283 1.283 0 0 0 .646-.465c.082-.112.146-.234.191-.366l1.75-5.25c.046-.133.069-.272.069-.417a1.29 1.29 0 0 0-.102-.513zm-.915.613l-1.75 5.25a.398.398 0 0 1-.051.093c-.088.079-.118.094-.157.106l-.087.013h-3.5a5.11 5.11 0 0 1-1.975-.396 6.953 6.953 0 0 0-1.169-.356 6.083 6.083 0 0 0-1.231-.123H2V8h1.851a3.152 3.152 0 0 0 2.252-.936s4.047-4.435 4.36-4.338c.153.048.005.68-.057.936a4.01 4.01 0 0 1-.29.796 5.7 5.7 0 0 0-.288.736 4.297 4.297 0 0 0-.171.829l-.113 1.102h4.144c.042 0 .077.007.111.021.045.02.082.043.111.073a.292.292 0 0 1 .09.219l-.017.1z" id="iconBg"/></svg>