<svg xmlns="http://www.w3.org/2000/svg" viewBox="0 0 16 16"><style>.icon-canvas-transparent{opacity:0;fill:#2d2d30}.icon-vs-out{fill:#2d2d30}.icon-vs-bg{fill:#c5c5c5}.icon-vs-fg{fill:#2b282e}</style><path class="icon-canvas-transparent" d="M16 16H0V0h16v16z" id="canvas"/><path class="icon-vs-bg" d="M1.102 9.075c.068.16.163.298.284.417a1.338 1.338 0 0 0 .926.383h3.035c-.023.219-.067.43-.13.632a4.955 4.955 0 0 1-.232.598c-.159.328-.28.66-.362.995a4.427 4.427 0 0 0-.123 1.056c0 .15.028.292.086.424.057.132.135.248.235.349.101.1.217.179.349.236.132.057.273.085.424.085a.84.84 0 0 0 .417-.096c.114-.064.228-.153.342-.267l4.252-4.245c.21-.209.445-.369.708-.479.261-.108.54-.163.836-.163H15V2.875h-3.063c-.356 0-.698-.034-1.029-.103s-.66-.169-.988-.301A6.088 6.088 0 0 0 7.563 2h-3.5a1.28 1.28 0 0 0-.407.064 1.283 1.283 0 0 0-.646.465 1.412 1.412 0 0 0-.192.367l-1.75 5.25A1.284 1.284 0 0 0 1 8.563c0 .182.034.353.102.512zm.915-.613l1.75-5.25a.38.38 0 0 1 .051-.093c.087-.079.117-.094.157-.106L4.063 3h3.5a5.11 5.11 0 0 1 1.975.396c.394.158.784.276 1.169.356.395.082.81.123 1.231.123H14V8h-1.851a3.152 3.152 0 0 0-2.252.935s-4.047 4.435-4.36 4.338c-.153-.048-.005-.68.057-.936.065-.264.162-.531.29-.796.117-.252.211-.492.287-.736.084-.269.142-.547.171-.829l.113-1.102H2.313a.323.323 0 0 1-.291-.192A.294.294 0 0 1 2 8.563l.017-.101z" id="iconBg"/></svg>