<svg width="16" height="16" viewBox="0 0 16 16" fill="none" xmlns="http://www.w3.org/2000/svg">
<path fill-rule="evenodd" clip-rule="evenodd" d="M5.2946 13.4869L8.5178 10.2637L8.50187 10.2478L10.4359 8.31378C11.6294 7.12029 11.6174 5.25267 10.5065 4.1418C9.39566 3.03092 7.52804 3.01896 6.33455 4.21245L5.547 5H8V7H4H3H2V1H4V3.71857L4.92034 2.79824C6.86543 0.853142 9.99971 0.80654 11.9207 2.72758C13.8418 4.64862 13.7952 7.7829 11.8501 9.728L6.69288 14.8852L6.33933 14.5317L11.4965 9.37444C13.2539 7.61708 13.2855 4.79947 11.5672 3.08114C10.6134 2.12731 9.32084 1.71269 8.05895 1.83312C9.32081 1.71271 10.6133 2.12734 11.5671 3.08115C13.2855 4.79948 13.2538 7.61709 11.4965 9.37445L6.33929 14.5316L5.2946 13.4869ZM4.83983 5H4.83989L5.981 3.8589C6.42922 3.41067 6.96187 3.10765 7.52181 2.9476C6.96184 3.10764 6.42917 3.41066 5.98092 3.85891L4.83983 5Z" fill="white"/>
</svg>
