<svg width="16" height="16" viewBox="0 0 16 16" fill="none" xmlns="http://www.w3.org/2000/svg">
<path d="M8.4375 1.02734C8.875 1.02734 9.29655 1.08431 9.70215 1.19824C10.1077 1.31217 10.4883 1.47396 10.8438 1.68359C11.1992 1.89323 11.5228 2.14388 11.8145 2.43555C12.1061 2.72721 12.3568 3.05078 12.5664 3.40625C12.776 3.76172 12.9378 4.14225 13.0518 4.54785C13.1657 4.95345 13.2227 5.375 13.2227 5.8125C13.2227 6.43685 13.1019 7.04069 12.8604 7.62402C12.6234 8.2028 12.2839 8.71322 11.8418 9.15527L6.12012 14.8701L5.50488 14.2549L11.2197 8.5332C11.5798 8.17318 11.8577 7.75846 12.0537 7.28906C12.2497 6.8151 12.3477 6.32292 12.3477 5.8125C12.3477 5.2793 12.2428 4.77572 12.0332 4.30176C11.8281 3.8278 11.5479 3.41309 11.1924 3.05762C10.8369 2.70215 10.4222 2.42188 9.94824 2.2168C9.47428 2.00716 8.9707 1.90234 8.4375 1.90234C7.94531 1.90234 7.51009 1.97754 7.13184 2.12793C6.75814 2.27376 6.41178 2.46973 6.09277 2.71582C5.77376 2.95736 5.46615 3.23307 5.16992 3.54297C4.87826 3.85286 4.57064 4.17188 4.24707 4.5H7.125V5.375H2.75V1H3.625V3.87793C3.87565 3.62272 4.11491 3.37663 4.34277 3.13965C4.5752 2.89811 4.80534 2.67253 5.0332 2.46289C5.26562 2.2487 5.50033 2.05501 5.7373 1.88184C5.97884 1.7041 6.23405 1.55371 6.50293 1.43066C6.77637 1.30306 7.07031 1.20508 7.38477 1.13672C7.70378 1.0638 8.05469 1.02734 8.4375 1.02734Z" fill="white"/>
</svg>
