<svg width="16" height="16" viewBox="0 0 16 16" fill="none" xmlns="http://www.w3.org/2000/svg">
<path d="M1 5.6C1 4.93696 1.26339 4.30107 1.73223 3.83223C2.20107 3.36339 2.83696 3.1 3.5 3.1H6.625L5.243 1.711L5.931 1L5.942 1.012L8.542 3.612L5.9 6.25L5.891 6.241L5.2 5.55L6.64 4.1H3.5C3.10218 4.1 2.72064 4.25803 2.43934 4.53934C2.15804 4.82064 2 5.20218 2 5.6C2 5.99782 2.15804 6.37936 2.43934 6.66066C2.72064 6.94196 3.10218 7.1 3.5 7.1H4V8.1H3.5C2.83696 8.1 2.20107 7.83661 1.73223 7.36777C1.26339 6.89893 1 6.26304 1 5.6V5.6Z" fill="white"/>
<path d="M1 5.6C1 4.93696 1.26339 4.30107 1.73223 3.83223C2.20107 3.36339 2.83696 3.1 3.5 3.1H6.625L5.243 1.711L5.931 1L5.942 1.012L8.542 3.612L5.9 6.25L5.891 6.241L5.2 5.55L6.64 4.1H3.5C3.10218 4.1 2.72064 4.25803 2.43934 4.53934C2.15804 4.82064 2 5.20218 2 5.6C2 5.99782 2.15804 6.37936 2.43934 6.66066C2.72064 6.94196 3.10218 7.1 3.5 7.1H4V8.1H3.5C2.83696 8.1 2.20107 7.83661 1.73223 7.36777C1.26339 6.89893 1 6.26304 1 5.6V5.6Z" fill="white"/>
<path fill-rule="evenodd" clip-rule="evenodd" d="M9.34423 3L8.34423 2H10.688L11.688 3H11.682L13.975 5.296V5.29L15 6.29V15H5V9.09998V6.76419L5.89946 7.66366L6 7.56327V14H14V7H10.025L10 3H9.34423ZM13.268 6L11 3.707V6H13.268Z" fill="white"/>
</svg>
