<svg width="16" height="16" viewBox="0 0 16 16" fill="none" xmlns="http://www.w3.org/2000/svg">
<path fill-rule="evenodd" clip-rule="evenodd" d="M15 6L12 9L15 12V6ZM14.532 7.12947L14.5323 7.12916V10.8708L14.532 10.8705V7.12947Z" fill="white"/>
<rect x="9" y="2" width="3" height="1" fill="white"/>
<path fill-rule="evenodd" clip-rule="evenodd" d="M12 3V1.07692L5.23077 1C2.89418 1 1 2.89418 1 5.23077C1 7.56736 2.89418 9.46154 5.23077 9.46154H6V13.0769H5.69231H5V15H12V13.0769H11V2.96154L12 3ZM9 2.92308H8.00008L8 13.0769H8.99992L9 2.92308ZM5.23077 3H6V7.46154H5.23077C3.99875 7.46154 3 6.46279 3 5.23077C3 3.99875 3.99875 3 5.23077 3Z" fill="white"/>
</svg>
