<svg xmlns="http://www.w3.org/2000/svg" viewBox="0 0 16 16"><style>.icon-canvas-transparent{opacity:0;fill:#f6f6f6}.icon-vs-out{fill:#f6f6f6}.icon-vs-bg{fill:#424242}.icon-vs-red{fill:#e51400}.icon-vs-yellow{fill:#ffcc00}.icon-vs-green{fill:#339933}.icon-vs-blue{fill:#1ba1e2}.icon-vs-action-purple{fill:#652d90}.icon-white{fill:#ffffff}</style><path class="icon-canvas-transparent" d="M16 16H0V0h16v16z" id="canvas"/><path class="icon-vs-out" d="M16 8c0 4.411-3.589 8-8 8a2.803 2.803 0 0 1-2.8-2.8c0-.833.272-1.629.766-2.241a.596.596 0 0 0 .101-.359.667.667 0 0 0-.667-.666.58.58 0 0 0-.358.102A3.584 3.584 0 0 1 2.8 10.8 2.803 2.803 0 0 1 0 8c0-4.411 3.589-8 8-8s8 3.589 8 8z" id="outline"/><path class="icon-white" d="M5.4 7.933a2.67 2.67 0 0 1 2.667 2.666c0 .606-.193 1.179-.544 1.614a1.599 1.599 0 0 0-.323.987.8.8 0 0 0 .8.8c3.309 0 6-2.691 6-6s-2.691-6-6-6-6 2.691-6 6c0 .441.359.8.8.8.378 0 .729-.114.986-.322A2.568 2.568 0 0 1 5.4 7.933z" id="iconFg"/><g id="iconBg"><path class="icon-vs-bg" d="M8 15c-.992 0-1.8-.808-1.8-1.8 0-.606.193-1.179.544-1.613.208-.259.323-.609.323-.987 0-.919-.748-1.666-1.667-1.666-.377 0-.728.115-.986.323A2.58 2.58 0 0 1 2.8 9.8C1.808 9.8 1 8.992 1 8c0-3.86 3.14-7 7-7 3.859 0 7 3.14 7 7 0 3.859-3.141 7-7 7zM5.4 7.933a2.67 2.67 0 0 1 2.667 2.666c0 .606-.193 1.179-.544 1.614a1.599 1.599 0 0 0-.323.987.8.8 0 0 0 .8.8c3.309 0 6-2.691 6-6s-2.691-6-6-6-6 2.691-6 6c0 .441.359.8.8.8.378 0 .729-.114.986-.322A2.568 2.568 0 0 1 5.4 7.933z"/><path class="icon-vs-action-purple" d="M4.5 5.375a.875.875 0 1 0 0 1.75.875.875 0 0 0 0-1.75z"/><path class="icon-vs-blue" d="M7.125 3.625a.875.875 0 1 0 0 1.75.875.875 0 0 0 0-1.75z"/><path class="icon-vs-green" d="M10.625 4.5a.875.875 0 1 0 0 1.75.875.875 0 0 0 0-1.75z"/><path class="icon-vs-yellow" d="M11.5 8a.875.875 0 1 0 0 1.75.875.875 0 0 0 0-1.75z"/><path class="icon-vs-red" d="M9.75 10.625a.875.875 0 1 0 0 1.75.875.875 0 0 0 0-1.75z"/></g></svg>