<svg xmlns="http://www.w3.org/2000/svg" viewBox="0 0 16 16"><style>.icon-canvas-transparent{opacity:0;fill:#f6f6f6}.icon-vs-out{fill:#f6f6f6}.icon-vs-bg{fill:#424242}.icon-vs-fg{fill:#f0eff1}.icon-vs-action-blue{fill:#00539c}</style><path class="icon-canvas-transparent" d="M16 16H0V0h16v16z" id="canvas"/><path class="icon-vs-out" d="M2.879 14L1 12.121V3.879L2.879 2h10.242L15 3.879v8.242L13.121 14H2.879z" id="outline"/><path class="icon-vs-fg" d="M12.293 4H3.707L3 4.707v6.586l.707.707h8.586l.707-.707V4.707L12.293 4zM11 10H5V9h6v1zm0-3H5V6h6v1z" id="iconFg"/><g id="iconBg"><path class="icon-vs-bg" d="M12.707 13H3.293L2 11.707V4.293L3.293 3h9.414L14 4.293v7.414L12.707 13zm-9-1h8.586l.707-.707V4.707L12.293 4H3.707L3 4.707v6.586l.707.707z"/><path class="icon-vs-action-blue" d="M11 7H5V6h6v1zm0 2H5v1h6V9z"/></g></svg>