<svg xmlns="http://www.w3.org/2000/svg" viewBox="0 0 16 16"><style>.icon-canvas-transparent{opacity:0;fill:#2d2d30}.icon-vs-out{fill:#2d2d30}.icon-vs-fg{fill:#2b282e}.icon-vs-action-blue{fill:#75beff}</style><path class="icon-canvas-transparent" d="M16 16H0V0h16v16z" id="canvas"/><path class="icon-vs-out" d="M11.5 12c-1.915 0-3.602-1.241-4.228-3h-1.41a3.11 3.11 0 0 1-2.737 1.625C1.402 10.625 0 9.223 0 7.5s1.402-3.125 3.125-3.125c1.165 0 2.201.639 2.737 1.625h1.41c.626-1.759 2.313-3 4.228-3C13.981 3 16 5.019 16 7.5S13.981 12 11.5 12z" id="outline"/><path class="icon-vs-fg" d="M11.5 9A1.501 1.501 0 1 1 13 7.5c0 .826-.673 1.5-1.5 1.5z" id="iconFg"/><path class="icon-vs-action-blue" d="M11.5 4a3.49 3.49 0 0 0-3.45 3H5.185A2.122 2.122 0 0 0 1 7.5a2.123 2.123 0 1 0 4.185.5H8.05a3.49 3.49 0 0 0 3.45 3 3.5 3.5 0 1 0 0-7zm0 5c-.827 0-1.5-.673-1.5-1.5S10.673 6 11.5 6s1.5.673 1.5 1.5S12.327 9 11.5 9z" id="iconBg"/></svg>