<svg xmlns="http://www.w3.org/2000/svg" viewBox="0 0 16 16"><defs><style>.icon-canvas-transparent,.icon-vs-out{fill:#f6f6f6;}.icon-canvas-transparent{opacity:0;}.icon-vs-fg{fill:#f0eff1;}.icon-vs-action-purple{fill:#652d90;}</style></defs><title>Method_16x</title><g id="canvas"><path class="icon-canvas-transparent" d="M16,16H0V0H16Z"/></g><g id="outline"><path class="icon-vs-out" d="M15,3.349v8.4L8.975,16h-.9L1,11.582V3.327L7.6,0H8.713Z"/></g><g id="iconFg"><path class="icon-vs-fg" d="M12.715,4.4,8.487,7.02,3.565,4.272,8.144,1.963ZM3,5.1,8,7.894v5.7L3,10.473Zm6,8.434V7.878L13,5.4v5.318Z"/></g><g id="iconBg"><path class="icon-vs-action-purple" d="M8.156.837,2,3.942v7.085L8.517,15.1,14,11.233V3.95ZM12.715,4.4,8.487,7.02,3.565,4.272,8.144,1.963ZM3,5.1,8,7.894v5.7L3,10.473Zm6,8.434V7.878L13,5.4v5.318Z"/></g></svg>