<svg xmlns="http://www.w3.org/2000/svg" viewBox="0 0 16 16"><defs><style>.icon-canvas-transparent,.icon-vs-out{fill:#252526;}.icon-canvas-transparent{opacity:0;}.icon-vs-bg{fill:#c5c5c5;}</style></defs><title>Property_16x</title><g id="canvas"><path class="icon-canvas-transparent" d="M16,16H0V0H16Z"/></g><g id="outline"><path class="icon-vs-out" d="M16,5.5a5.46,5.46,0,0,1-6.307,5.434l-.078-.012a5.439,5.439,0,0,1-.811-.191L4.268,15.268A2.5,2.5,0,0,1,.732,11.732L5.269,7.2a5.452,5.452,0,0,1-.191-.812c0-.025-.008-.051-.012-.077A5.5,5.5,0,1,1,16,5.5Z"/></g><g id="iconBg"><path class="icon-vs-bg" d="M15,5.5A4.474,4.474,0,0,1,8.571,9.55l-5.01,5.01a1.5,1.5,0,0,1-2.122-2.12L6.45,7.429A4.474,4.474,0,0,1,12.429,1.45L9.636,4.243l2.121,2.121L14.55,3.571A4.462,4.462,0,0,1,15,5.5Z"/></g></svg>