<svg xmlns="http://www.w3.org/2000/svg" viewBox="0 0 16 16"><style>.icon-canvas-transparent{opacity:0;fill:#252526}.icon-vs-out{fill:#252526}.icon-vs-bg{fill:#c5c5c5}</style><path class="icon-canvas-transparent" d="M0 0h16v16H0z" id="canvas"/><path class="icon-vs-out" d="M15.256 5.539a3.579 3.579 0 0 0-1.501-.306c-1.014 0-1.85.328-2.482.974-.084.086-.149.185-.222.278-.057-.091-.109-.186-.175-.27-.512-.642-1.243-.982-2.117-.982-.189 0-.372.016-.547.048V3.176h-3.02v2.736c-.463-.438-1.123-.68-1.949-.68-.8 0-1.524.189-2.153.562l-.49.291v2.081c-.288.393-.44.887-.44 1.464 0 .667.236 1.246.684 1.676.442.423 1.024.638 1.731.638.265 0 .517-.036.753-.105H7.8c.237.07.49.105.755.105.928 0 1.709-.365 2.258-1.055.052-.066.091-.142.138-.212.087.117.171.236.275.342.604.614 1.388.925 2.33.925.668 0 1.267-.15 1.779-.446l.5-.289V9.39l.004.003V5.806l-.583-.267zm-6.88 3.59l-.123-.013c-.024-.026-.051-.055-.051-.159v-.558c0-.21.063-.284.09-.315.021-.024.033-.038.119-.038l.033-.003c.02.025.084.128.084.418-.001.418-.091.587-.152.668zm5.834-.165c-.191.154-.326.171-.411.171-.229 0-.293-.066-.322-.097-.073-.076-.11-.214-.11-.411 0-.31.103-.418.14-.458.057-.061.134-.125.332-.125.086 0 .221.016.403.152l.479.358-.511.41z" id="outline"/><g id="iconBg"><path class="icon-vs-bg" d="M3.243 6.233c-.621 0-1.169.141-1.644.422v.892c.431-.369.914-.554 1.45-.554.609 0 .914.321.914.962l-1.336.189c-.978.141-1.467.636-1.467 1.486 0 .396.125.713.375.954.251.24.597.36 1.04.36.601 0 1.056-.27 1.367-.809h.018v.703h.989V7.911c-.001-1.119-.57-1.678-1.706-1.678zm.72 2.786c0 .331-.102.606-.305.824a1.011 1.011 0 0 1-.771.327c-.229 0-.411-.061-.547-.183a.595.595 0 0 1-.205-.467c0-.261.074-.443.222-.547.147-.104.368-.175.661-.213l.945-.132v.391zM8.758 6.233c-.671 0-1.181.299-1.529.896h-.018V4.176h-1.02v6.662h1.02v-.65h.018c.299.504.741.756 1.327.756.624 0 1.116-.227 1.476-.679.361-.453.541-1.056.541-1.809 0-.677-.16-1.216-.48-1.619s-.767-.604-1.335-.604zm.445 3.46c-.214.294-.511.441-.889.441-.322 0-.588-.114-.798-.343s-.314-.506-.314-.834v-.558c0-.387.11-.709.332-.967s.514-.387.877-.387c.343 0 .615.125.816.375.199.251.301.597.301 1.04-.001.528-.108.939-.325 1.233zM13.838 7.046c.354 0 .688.117 1.002.352v-.95a2.572 2.572 0 0 0-1.085-.215c-.738 0-1.328.225-1.769.675-.441.45-.662 1.045-.662 1.786 0 .665.205 1.206.615 1.624.41.417.949.626 1.617.626.492 0 .919-.104 1.279-.312v-.888c-.325.261-.671.391-1.037.391-.437 0-.784-.135-1.044-.404-.259-.27-.389-.637-.389-1.103 0-.472.138-.853.413-1.145.277-.291.63-.437 1.06-.437z"/></g></svg>