<svg xmlns="http://www.w3.org/2000/svg" width="360" height="40"><rect x="342" y="24" fill="#2D2D30" width="16" height="12"/><polygon fill="#C5C5C5" points="353,27 356,30 353,33 351,33 353,31 350,31 350,29 353,29 351,27"/><rect x="343" y="25" fill="#C5C5C5" width="14" height="10"/><polygon fill="#C5C5C5" points="356,26 350,26 350,29 349.999,29 347,29 349,27 347,27 344,30 347,33 349,33 347,31 349.999,31 350,31 350,34 356,34 356,30"/><polygon fill="#2B282E" points="350,31 347,31 349,33 347,33 344,30 347,27 349,27 347,29 350,29"/><polygon fill="#2B282E" points="351,33 353,31 350,31 350,34 356,34 356,30 353,33"/><polygon fill="#2B282E" points="356,26 356,30 353,27 351,27 353,29 350,29 350,26"/><rect x="349.999" y="29" fill="#2B282E" width=".001" height="2"/><path fill="#F6F6F6" d="M358 16h-16v-12h16v12z"/><path fill="#424242" d="M353 7l3 3-3 3h-2l2-2h-3v-2h3l-2-2h2zm4-2v10h-14v-10h14zm-1 1h-6v3h-3l2-2h-2l-3 3 3 3h2l-2-2h3v3h6v-8z"/><path fill="#F0EFF1" d="M350 11h-3l2 2h-2l-3-3 3-3h2l-2 2h3v2zm1 2l2-2h-3v3h6v-4l-3 3h-2zm5-7v4l-3-3h-2l2 2h-3v-3h6zm-6 3v2h-.001l.001-2z"/><polygon fill="#2D2D30" points="333,27 333,25 330,25 327,25 327,27 325,27 325,33 327,33 327,35 333,35 333,33 335,33 335,30 335,27"/><polygon fill="#F6F6F6" points="333,7 333,5 330,5 327,5 327,7 325,7 325,13 327,13 327,15 333,15 333,13 335,13 335,10 335,7"/><path fill="#424242" d="M334 9v-1h-2v-2h-1v2h-2v-2h-1v2h-2v1h2v2h-2v1h2v2h1v-2h2v2h1v-2h2v-1h-2v-2h2zm-3 2h-2v-2h2v2z"/><g fill="#C5C5C5"><polygon points="304,26 304,34.016 306,34.016 306,35.006 303,35.006 303,35 303,34.016 303,26 303,25 304,25 304,25 306,25 306,26"/><polygon points="312,26 312,34.016 310,34.016 310,35.006 313,35.006 313,35 313,34.016 313,26 313,25 312,25 312,25 310,25 310,26"/></g><path fill="#424242" d="M304 6v8.016h2v.99h-3v-10.006h3v1h-2zm8 0v8.016h-2v.99h3v-10.006h-3v1h2z"/><polygon fill="#2D2D30" points="292.414,24 287.586,24 286,25.586 286,28 283.586,28 282,29.586 282,33.414 283.586,35 288.414,35 290,33.414 290,31 292.414,31 294,29.414 294,25.586"/><polygon fill="#E8AB53" points="288,29 284,29 283,30 283,33 284,34 288,34 289,33 289,30"/><rect x="284" y="32" fill="#E8AB53" width="4" height="1"/><rect x="284" y="30" fill="#E8AB53" width="4" height="1"/><polygon fill="#E8AB53" points="292,25 288,25 287,26 287,28 292,28 292,29 289.414,29 290,29.586 290,30 292,30 293,29 293,26"/><rect x="288" y="26" fill="#E8AB53" width="4" height="1"/><polygon fill="#2B282E" points="292,28 292,29 289.414,29 288.414,28"/><rect x="288" y="26" fill="#2B282E" width="4" height="1"/><rect x="284" y="32" fill="#2B282E" width="4" height="1"/><rect x="284" y="30" fill="#2B282E" width="4" height="1"/><polygon fill="#F6F6F6" points="292.414,4 287.586,4 286,5.586 286,8 283.586,8 282,9.586 282,13.414 283.586,15 288.414,15 290,13.414 290,11 292.414,11 294,9.414 294,5.586"/><path fill="#C27D1A" d="M288 9h-4l-1 1v3l1 1h4l1-1v-3l-1-1zm0 4h-4v-1h4v1zm0-2h-4v-1h4v1z"/><path fill="#C27D1A" d="M292 5h-4l-1 1v2h5v1h-2.586l.586.586v.414h2l1-1v-3l-1-1zm0 2h-4v-1h4v1z"/><path fill="#F0EFF1" d="M292 8v1h-2.586l-1-1h3.586zm0-2h-4v1h4v-1zm-4 6h-4v1h4v-1zm0-2h-4v1h4v-1z"/><polygon fill="#2D2D30" points="265,35 265,24 271.414,24 275,27.586 275,35"/><polygon fill="#C5C5C5" points="271,25 266,25 266,34 274,34 274,28"/><polygon fill="#C5C5C5" points="273,29 273,33 267,33 267,26 270,26 271,26 271,28 273,28"/><polygon fill="#2B282E" points="273,29 273,33 267,33 267,26 270,26 271,26 271,28 273,28"/><path fill="#F6F6F6" d="M265 15v-11h6.414l3.586 3.586v7.414h-10z"/><path fill="#424242" d="M271 5h-5v9h8v-6l-3-3zm2 4v4h-6v-7h4v2h2v1z"/><polygon fill="#F0EFF1" points="273,9 273,13 267,13 267,6 270,6 271,6 271,8 273,8"/><polygon fill="#2D2D30" points="247,34 247,30 245,30 245,26 255,26 255,34"/><rect x="246" y="27" fill="#C5C5C5" width="8" height="2"/><rect x="248" y="30" fill="#C5C5C5" width="6" height="1"/><rect x="248" y="32" fill="#C5C5C5" width="6" height="1"/><polygon fill="#F6F6F6" points="247,14 247,10 245,10 245,6 255,6 255,14"/><path fill="#424242" d="M254 9h-8v-2h8v2zm0 1h-6v1h6v-1zm0 2h-6v1h6v-1z"/><path fill="#2D2D30" d="M230.701 35.992c-3.336 0-6.701-1.703-6.701-5.51 0-4.174 4.968-6.482 8.402-6.482 1.07 0 1.867.244 2.369.725.658.631.791 1.299.785 1.746-.013 1.176-.904 2.146-1.822 3.008 1.408.194 2.088 1.144 2.254 2.037.297 1.604-.805 3.371-2.508 4.021-.761.293-1.75.455-2.779.455z"/><path fill="#C5C5C5" d="M232.646 30.482s-1.91.459-.478-.916c1.217-1.166 3.345-2.746 1.91-4.119-1.435-1.375-9.079.455-9.079 5.035s5.734 5.037 8.124 4.121c2.391-.914 2.867-4.578-.477-4.121z"/><circle fill="#C5C5C5" cx="227.375" cy="31.343" r="1.042"/><circle fill="#C5C5C5" cx="228.416" cy="28.343" r="1.041"/><circle fill="#C5C5C5" cx="231.402" cy="27.135" r="1.041"/><circle fill="#2B282E" cx="231.402" cy="27.135" r="1.041"/><circle fill="#2B282E" cx="228.416" cy="28.343" r="1.041"/><circle fill="#2B282E" cx="227.375" cy="31.344" r="1.041"/><path fill="#F6F6F6" d="M230.701 15.992c-3.336 0-6.701-1.703-6.701-5.509 0-4.174 4.968-6.483 8.402-6.483 1.07 0 1.867.244 2.369.725.658.631.791 1.298.785 1.746-.013 1.174-.904 2.146-1.822 3.008 1.408.194 2.088 1.142 2.254 2.036.297 1.604-.805 3.371-2.508 4.022-.761.294-1.75.455-2.779.455z"/><path fill="#424242" d="M232.646 10.482s-1.91.458-.478-.916c1.217-1.167 3.345-2.747 1.91-4.12-1.433-1.375-9.078.456-9.078 5.036 0 4.581 5.734 5.038 8.124 4.122 2.39-.915 2.866-4.578-.478-4.122zm-5.271 1.902c-.574 0-1.041-.467-1.041-1.041 0-.575.467-1.042 1.041-1.042s1.041.466 1.041 1.042c0 .574-.467 1.041-1.041 1.041zm1.041-3c-.574 0-1.041-.466-1.041-1.041s.467-1.041 1.041-1.041 1.041.466 1.041 1.041-.467 1.041-1.041 1.041zm1.945-2.25c0-.575.467-1.041 1.041-1.041s1.041.466 1.041 1.041-.467 1.041-1.041 1.041-1.041-.466-1.041-1.041z"/><g fill="#F0EFF1"><circle cx="231.402" cy="7.134" r="1.041"/><circle cx="228.416" cy="8.343" r="1.041"/><circle cx="227.375" cy="11.343" r="1.041"/></g><rect x="202" y="23" fill="#2D2D30" width="16" height="14"/><rect x="203" y="24" fill="#C5C5C5" width="14" height="12"/><rect x="210" y="29" fill="#C5C5C5" width="1" height="2"/><rect x="204" y="25" fill="#2B282E" width="12" height="10"/><polygon fill="#C5C5C5" points="210,28 210,27 209,27 209,32 212,32 212,28"/><rect x="210" y="29" fill="#2B282E" width="1" height="2"/><polygon fill="#C5C5C5" points="214,29 214,31 215,31 215,32 213,32 213,28 215,28 215,29"/><polygon fill="#C5C5C5" points="208,28 208,32 205,32 205,30 206,30 206,31 207,31 207,30 206,30 206,29 205,29 205,28"/><rect x="202" y="3" fill="#F6F6F6" width="16" height="14"/><path fill="#424242" d="M203 4v12h14v-12h-14zm13 11h-12v-10h12v10zm-6-7v-1h-1v5h3v-4h-2zm1 3h-1v-2h1v2zm3-2v2h1v1h-2v-4h2v1h-1zm-6-1v4h-3v-2h1v1h1v-1h-1v-1h-1v-1h3z"/><path fill="#F0EFF1" d="M210 9h1v2h-1v-2zm-3 2v-1h-1v1h1zm9-6v10h-12v-10h12zm-8 3h-3v1h1v1h-1v2h3v-4zm4 0h-2v-1h-1v5h3v-4zm3 0h-2v4h2v-1h-1v-2h1v-1z"/><rect x="185" y="24" fill="#2D2D30" width="11" height="12"/><polygon fill="#C5C5C5" points="194,33 194,26 187,26 187,33 186,33 186,25 195,25 195,33"/><rect x="186" y="34" fill="#C5C5C5" width="1" height="1"/><rect x="188" y="34" fill="#C5C5C5" width="1" height="1"/><rect x="190" y="34" fill="#C5C5C5" width="1" height="1"/><rect x="192" y="34" fill="#C5C5C5" width="1" height="1"/><rect x="194" y="34" fill="#C5C5C5" width="1" height="1"/><rect x="187" y="26" fill="#2B282E" width="7" height="7"/><rect x="185" y="4" fill="#F6F6F6" width="11" height="12"/><path fill="#424242" d="M194 13v-7h-7v7h-1v-8h9v8h-1zm-7 2h-1v-1h1v1zm2-1h-1v1h1v-1zm2 0h-1v1h1v-1zm2 1h-1v-1h1v1zm2-1h-1v1h1v-1z"/><path fill="#F0EFF1" d="M187 13v-7h7v7h-7z"/><polygon fill="#2D2D30" points="164,35 164,24 171,24 171,25 176,25 176,28 171,28 171,29 176,29 176,35"/><rect x="171" y="26" fill="#C5C5C5" width="4" height="1"/><rect x="173" y="30" fill="#C5C5C5" width="2" height="1"/><rect x="165" y="30" fill="#C5C5C5" width="6" height="1"/><rect x="165" y="33" fill="#C5C5C5" width="4" height="1"/><rect x="171" y="33" fill="#C5C5C5" width="4" height="1"/><rect x="165" y="25" fill="#C5C5C5" width="5" height="3"/><rect x="166" y="26" fill="#C5C5C5" width="3" height="1"/><rect x="166" y="26" fill="#2B282E" width="3" height="1"/><polygon fill="#F6F6F6" points="164,15 164,4 171,4 171,5 176,5 176,8 171,8 171,9 176,9 176,15"/><path fill="#424242" d="M175 7h-4v-1h4v1zm0 3h-2v1h2v-1zm-4 0h-6v1h6v-1zm-2 3h-4v1h4v-1zm6 0h-4v1h4v-1zm-5-8v3h-5v-3h5zm-1 1h-3v1h3v-1z"/><rect x="166" y="6" fill="#F0EFF1" width="3" height="1"/><polygon fill="#2D2D30" points="154.414,24 149.586,24 148,25.586 148,28 144,28 144,35 152,35 152,31 154.414,31 156,29.414 156,25.586"/><polygon fill="#75BEFF" points="154,25 150,25 149,26 149,28 154,28 154,29 152,29 152,30 154,30 155,29 155,26"/><rect x="150" y="26" fill="#00539C" width="4" height="1"/><rect x="145" y="29" fill="#75BEFF" width="6" height="5"/><rect x="146" y="31" fill="#00539C" width="4" height="1"/><rect x="146" y="31" fill="#2B282E" width="4" height="1"/><rect x="150" y="26" fill="#2B282E" width="4" height="1"/><rect x="152" y="28" fill="#2B282E" width="2" height="1"/><polygon fill="#F6F6F6" points="154.414,4 149.586,4 148,5.586 148,8 144,8 144,15 152,15 152,11 154.414,11 156,9.414 156,5.586"/><path fill="#00539C" d="M154 5h-4l-1 1v2h5v1h-2v1h2l1-1v-3l-1-1zm0 2h-4v-1h4v1zm-9 7h6v-5h-6v5zm1-3h4v1h-4v-1z"/><g fill="#F0EFF1"><rect x="146" y="11" width="4" height="1"/><rect x="150" y="6" width="4" height="1"/><rect x="152" y="8" width="2" height="1"/></g><rect x="125" y="27" fill="#2D2D30" width="11" height="6"/><rect x="126" y="28" fill="#C5C5C5" width="9" height="4"/><rect x="127" y="30" fill="#2B282E" width="1" height="1"/><rect x="129" y="30" fill="#2B282E" width="1" height="1"/><rect x="131" y="30" fill="#2B282E" width="1" height="1"/><rect x="133" y="30" fill="#2B282E" width="1" height="1"/><rect x="127" y="29" fill="#2B282E" width="3" height="1"/><rect x="131" y="29" fill="#2B282E" width="3" height="1"/><rect x="125" y="7" fill="#F6F6F6" width="11" height="6"/><rect x="126" y="8" fill="#424242" width="9" height="4"/><rect x="127" y="10" fill="#F0EFF1" width="1" height="1"/><rect x="129" y="10" fill="#F0EFF1" width="1" height="1"/><rect x="131" y="10" fill="#F0EFF1" width="1" height="1"/><rect x="133" y="10" fill="#F0EFF1" width="1" height="1"/><rect x="127" y="9" fill="#F0EFF1" width="3" height="1"/><rect x="131" y="9" fill="#F0EFF1" width="3" height="1"/><path fill="#2D2D30" d="M110.449 23c-1.637 0-3.075.797-3.987 2.012l.001.002c-.628.836-1.014 1.863-1.014 2.986 0 .469.067.934.2 1.385l-2.907 2.908c-.687.686-1.253 2.161 0 3.414.609.609 1.244.736 1.67.736.958 0 1.621-.613 1.744-.736l2.907-2.908c.453.133.917.201 1.386.201 1.123 0 2.149-.387 2.985-1.014h.002c1.216-.911 2.013-2.352 2.013-3.986 0-2.762-2.238-5-5-5z"/><path fill="#C5C5C5" d="M114.09 26.359l-2.641 2.641-2-2 2.641-2.641c-.502-.228-1.055-.359-1.641-.359-2.209 0-4 1.791-4 4 0 .586.133 1.139.359 1.641l-3.359 3.359s-1 1 0 2h2l3.359-3.359c.502.227 1.055.359 1.641.359 2.209 0 4-1.791 4-4 0-.586-.133-1.139-.359-1.641z"/><path fill="#F6F6F6" d="M110.449 3c-1.637 0-3.075.797-3.987 2.012l.001.002c-.628.836-1.014 1.863-1.014 2.986 0 .469.067.933.2 1.385l-2.907 2.908c-.687.686-1.253 2.161 0 3.414.609.609 1.244.736 1.67.736.958 0 1.621-.613 1.744-.736l2.907-2.908c.453.133.917.201 1.386.201 1.123 0 2.149-.387 2.985-1.014l.002.001c1.216-.912 2.013-2.352 2.013-3.987 0-2.762-2.238-5-5-5z"/><path fill="#424242" d="M114.09 6.359l-2.641 2.641-2-2 2.641-2.641c-.502-.226-1.055-.359-1.641-.359-2.209 0-4 1.791-4 4 0 .586.133 1.139.359 1.64l-3.359 3.36s-1 1 0 2h2l3.359-3.36c.502.227 1.055.36 1.641.36 2.209 0 4-1.791 4-4 0-.586-.133-1.139-.359-1.641z"/><path fill="#2D2D30" d="M89 33h1v-1c0-.537.741-1.613 1-2-.259-.389-1-1.467-1-2v-1h-1v-3h1c1.969.021 3 1.277 3 3v1l1 1v2l-1 1v1c0 1.709-1.031 2.979-3 3h-1v-3z"/><path fill="#2D2D30" d="M87 33h-1v-1c0-.537-.741-1.613-1-2 .259-.389 1-1.467 1-2v-1h1v-3h-1c-1.969.021-3 1.277-3 3v1l-1 1v2l1 1v1c0 1.709 1.317 2.979 3.286 3h.714v-3z"/><path fill="#C5C5C5" d="M91 33v-1c0-.834.496-1.738 1-2-.504-.27-1-1.168-1-2v-1c0-.84-.584-1-1-1v-1c2.083 0 2 1.166 2 2v1c0 .969.703.98 1 1v2c-.322.02-1 .053-1 1v1c0 .834.083 2-2 2v-1c.833 0 1-1 1-1z"/><path fill="#C5C5C5" d="M85 33v-1c0-.834-.496-1.738-1-2 .504-.27 1-1.168 1-2v-1c0-.84.584-1 1-1v-1c-2.083 0-2 1.166-2 2v1c0 .969-.703.98-1 1v2c.322.02 1 .053 1 1v1c0 .834-.083 2 2 2v-1c-.833 0-1-1-1-1z"/><path fill="#F6F6F6" d="M89 13h1v-1c0-.537.741-1.613 1-2-.259-.389-1-1.467-1-2v-1h-1v-3h1c1.969.021 3 1.277 3 3v1l1 1v2l-1 1v1c0 1.709-1.031 2.979-3 3h-1v-3zm-2 0h-1v-1c0-.537-.741-1.613-1-2 .259-.389 1-1.467 1-2v-1h1v-3h-1c-1.969.021-3 1.277-3 3v1l-1 1v2l1 1v1c0 1.709 1.317 2.979 3.286 3h.714v-3z"/><path fill="#424242" d="M91 13v-1c0-.834.496-1.738 1-2-.504-.27-1-1.168-1-2v-1c0-.84-.584-1-1-1v-1c2.083 0 2 1.166 2 2v1c0 .969.703.98 1 1v2c-.322.02-1 .053-1 1v1c0 .834.083 2-2 2v-1c.833 0 1-1 1-1zm-6 0v-1c0-.834-.496-1.738-1-2 .504-.27 1-1.168 1-2v-1c0-.84.584-1 1-1v-1c-2.083 0-2 1.166-2 2v1c0 .969-.703.98-1 1v2c.322.02 1 .053 1 1v1c0 .834-.083 2 2 2v-1c-.833 0-1-1-1-1z"/><path fill="#2D2D30" d="M73.5 34c-1.914 0-3.601-1.242-4.227-3h-1.683c-.524.91-1.503 1.5-2.591 1.5-1.654 0-3-1.346-3-3s1.346-3 3-3c1.088 0 2.066.588 2.591 1.5h1.683c.626-1.76 2.313-3 4.227-3 2.481 0 4.5 2.018 4.5 4.5 0 2.48-2.019 4.5-4.5 4.5z"/><path fill="#75BEFF" d="M73.5 26c-1.759 0-3.204 1.309-3.449 3h-3.122c-.223-.861-.998-1.5-1.929-1.5-1.104 0-2 .895-2 2 0 1.104.896 2 2 2 .931 0 1.706-.639 1.929-1.5h3.122c.245 1.691 1.69 3 3.449 3 1.93 0 3.5-1.57 3.5-3.5 0-1.932-1.57-3.5-3.5-3.5z"/><circle fill="#75BEFF" cx="73.5" cy="29.5" r="1.5"/><circle fill="#2B282E" cx="73.5" cy="29.5" r="1.5"/><path fill="#F6F6F6" d="M73.5 14c-1.914 0-3.601-1.242-4.227-3h-1.683c-.524.91-1.503 1.5-2.591 1.5-1.654 0-3-1.346-3-3s1.346-3 3-3c1.088 0 2.066.588 2.591 1.5h1.683c.626-1.76 2.313-3 4.227-3 2.481 0 4.5 2.018 4.5 4.5 0 2.48-2.019 4.5-4.5 4.5z"/><path fill="#00539C" d="M73.5 6c-1.759 0-3.204 1.308-3.449 3h-3.122c-.223-.861-.998-1.5-1.929-1.5-1.104 0-2 .895-2 2 0 1.104.896 2 2 2 .931 0 1.706-.639 1.929-1.5h3.122c.245 1.691 1.69 3 3.449 3 1.93 0 3.5-1.57 3.5-3.5 0-1.931-1.57-3.5-3.5-3.5zm0 5c-.827 0-1.5-.674-1.5-1.5 0-.828.673-1.5 1.5-1.5s1.5.672 1.5 1.5c0 .826-.673 1.5-1.5 1.5z"/><circle fill="#F0EFF1" cx="73.5" cy="9.5" r="1.5"/><polygon fill="#2D2D30" points="58,28.586 55,25.586 53.586,27 51.414,27 52.414,26 48.414,22 47.586,22 42,27.586 42,28.414 46,32.414 48.414,30 49,30 49,35 50.586,35 53.586,38 54.414,38 58,34.414 58,33.586 55.914,31.5 58,29.414"/><polygon fill="#E8AB53" points="53.998,33.002 51,33 51,29 53,29 52,30 54,32 57,29 55,27 54,28 49,28 51,26 48,23 43,28 46,31 48,29 50,29 50,34 53,34 52,35 54,37 57,34 55,32"/><path fill="#F6F6F6" d="M58 8.586l-3-3-1.414 1.414h-2.172l1-1-4-4h-.828l-5.586 5.586v.828l4 4 2.414-2.414h.586v5h1.586l3 3h.828l3.586-3.586v-.828l-2.086-2.086 2.086-2.086v-.828z"/><polygon fill="#C27D1A" points="53.998,13.002 51,13 51,9 53,9 52,10 54,12 57,9 55,7 54,8 49,8 51,6 48,3 43,8 46,11 48,9 50,9 50,14 53,14 52,15 54,17 57,14 55,12"/><polygon fill="#2D2D30" points="29.263,24 34,26.369 34,31.605 27.209,35 26.789,35 22,32.605 22,27.369 28.739,24"/><polygon fill="#75BEFF" points="23,28 23,32 27,34 33,31 33,27 29,25"/><polygon fill="#75BEFF" points="27,29 25,28 29,26 31,27"/><polygon fill="#2B282E" points="29,26 31,27 27,29 25,28"/><path fill="#F6F6F6" d="M29.263 4l4.737 2.369v5.236l-6.791 3.395h-.42l-4.789-2.395v-5.236l6.739-3.369h.524z"/><path fill="#00539C" d="M23 8v4l4 2 6-3v-4l-4-2-6 3zm4 1l-2-1 4-2 2 1-4 2z"/><path fill="#F0EFF1" d="M29 6l2 1-4 2-2-1 4-2z"/><polygon fill="#2D2D30" points="2,27.309 2,32.691 7.209,36 7.791,36 13,32.691 13,27.309 7.791,24 7.209,24"/><polygon fill="#B180D7" points="7.5,25 3,27.857 3,32.143 7.5,35 12,32.143 12,27.857"/><polygon fill="#B180D7" points="7,33.498 4,31.593 4,28.777 7,30.684"/><polygon fill="#B180D7" points="4.642,28 7.5,26.186 10.358,28 7.5,29.814"/><polygon fill="#B180D7" points="11,31.593 8,33.498 8,30.684 11,28.777"/><polygon fill="#2B282E" points="10.358,28 7.5,29.814 4.642,28 7.5,26.186"/><polygon fill="#2B282E" points="4,28.777 7,30.684 7,33.498 4,31.593"/><polygon fill="#2B282E" points="8,33.498 8,30.684 11,28.777 11,31.593"/><polygon fill="#F6F6F6" points="2,7.308 2,12.692 7.209,16 7.791,16 13,12.692 13,7.308 7.791,4 7.209,4"/><path fill="#652D90" d="M7.5 5l-4.5 2.857v4.285l4.5 2.858 4.5-2.857v-4.286l-4.5-2.857zm-.5 8.498l-3-1.905v-2.816l3 1.905v2.816zm-2.358-5.498l2.858-1.815 2.858 1.815-2.858 1.815-2.858-1.815zm6.358 3.593l-3 1.905v-2.815l3-1.905v2.815z"/><polygon fill="#F0EFF1" points="10.358,8 7.5,9.815 4.642,8 7.5,6.185"/><polygon fill="#F0EFF1" points="4,8.777 7,10.683 7,13.498 4,11.593"/><polygon fill="#F0EFF1" points="8,13.498 8,10.683 11,8.777 11,11.593"/><path fill="#C5C5C5" d="M334 29v-1h-2v-2h-1v2h-2v-2h-1v2h-2v1h2v2h-2v1h2v2h1v-2h2v2h1v-2h2v-1h-2v-2h2zm-3 2h-2v-2h2v2z"/></svg>