<svg width="16" height="16" viewBox="0 0 16 16" fill="none" xmlns="http://www.w3.org/2000/svg">
<path fill-rule="evenodd" clip-rule="evenodd" d="M1.5 4L1 4.5V12.5L1.5 13H4V12H2V5H4V4H1.5ZM14.5 13L15 12.5L15 4.5L14.5 4H12V5L14 5L14 12H12V13H14.5ZM8.79693 5L4.29693 7L4 7.45691V9.95691L4.24275 10.3857L6.74275 11.8857L7.20307 11.9138L11.7031 9.91381L12 9.45691V6.95691L11.7572 6.52816L9.25725 5.02816L8.79693 5ZM5 8.34V9.67381L6.5 10.5738V9.24L5 8.34ZM7.5 9.28184V10.6875L11 9.13197V7.72629L7.5 9.28184ZM10.4178 6.89071L8.96559 6.01936L5.58216 7.52311L7.03441 8.39445L10.4178 6.89071Z" fill="#007ACC"/>
</svg>
