<svg xmlns="http://www.w3.org/2000/svg" width="16" height="16"><path fill="#fff" d="M13.707 6.925l-5.66-5.66c-.161-.157-.364-.244-.591-.244-.225 0-.429.087-.589.245l-1.125 1.125 1.431 1.443c.097-.029.191-.065.298-.065.599 0 1.085.487 1.085 1.086 0 .11-.036.208-.067.307l1.206 1.216c.133-.055.278-.087.431-.087.492 0 .898.32 1.052.76.072.146.121.304.121.476 0 .601-.484 1.068-1.085 1.068-.315 0-.596-.119-.797-.324-.249-.206-.417-.505-.417-.854 0-.136.037-.26.085-.378l-1.085-1.085v3.19c.453.194.771.644.771 1.168 0 .702-.569 1.271-1.271 1.271s-1.271-.569-1.271-1.271c0-.524.318-.974.771-1.168v-3.329c-.359-.175-.613-.533-.613-.96 0-.151.032-.296.087-.428l-1.385-1.385-3.856 3.856c-.325.326-.326.854.001 1.181l5.659 5.701c.16.157.364.243.591.243.225 0 .431-.088.589-.243l5.634-5.675c.325-.325.322-.855 0-1.18z"/></svg>