<svg width="16" height="16" viewBox="0 0 16 16" fill="none" xmlns="http://www.w3.org/2000/svg">
<path d="M3.01996 8.50166L3.01725 8.46085C3.01812 8.47446 3.01903 8.48807 3.01996 8.50166Z" fill="#C5C5C5"/>
<path d="M7.2577 8.90466L5.4876 7.12558L6.07922 6.53397L7.95097 8.41518L9.79605 6.57011L10.3877 7.16171L8.61769 8.93167L10.3878 10.7108L9.79619 11.3024L7.92445 9.42114L6.07936 11.2662L5.48775 10.6746L7.2577 8.90466Z" fill="#C5C5C5"/>
<path fill-rule="evenodd" clip-rule="evenodd" d="M10.8775 3.91833V4.5H11.6624L13.3203 2.8421L13.9119 3.43371L12.3421 5.00354L12.361 5.05303C12.6914 5.91515 12.8775 6.88815 12.8775 7.91833C12.8775 8.11403 12.8708 8.30766 12.8576 8.49886L12.8546 8.5425H14.92V9.37916H12.7495L12.7434 9.41265C12.567 10.3771 12.2239 11.2564 11.7565 11.9964L11.7218 12.0515L13.7182 14.058L13.1251 14.6481L11.2153 12.7287L11.1576 12.7932C10.2949 13.7582 9.17697 14.3367 7.95917 14.3367C6.72251 14.3367 5.58881 13.7401 4.72075 12.748L4.66326 12.6823L2.79157 14.554L2.19995 13.9624L4.16317 11.9992L4.12918 11.9442C3.6785 11.2152 3.34718 10.3545 3.17494 9.41265L3.16882 9.37916H1V8.5425H3.0637L3.0607 8.49886C3.04755 8.30766 3.04084 8.11403 3.04084 7.91833C3.04084 6.90159 3.22212 5.94055 3.54446 5.08683L3.56303 5.03764L1.95216 3.41862L2.54527 2.8285L4.20835 4.5H5.04084V3.91833C5.04084 2.30658 6.34742 1 7.95917 1C9.57092 1 10.8775 2.30658 10.8775 3.91833ZM5.87751 3.91833V4.5H10.0408V3.91833C10.0408 2.76866 9.10884 1.83667 7.95917 1.83667C6.8095 1.83667 5.87751 2.76866 5.87751 3.91833ZM11.5938 5.38957L11.5739 5.33667H4.34441L4.32451 5.38957C4.0411 6.1427 3.8775 7.00011 3.8775 7.91833C3.8775 9.52826 4.38048 10.9522 5.15153 11.9546C5.9219 12.9561 6.9225 13.5 7.95917 13.5C8.99584 13.5 9.99644 12.9561 10.7668 11.9546C11.5379 10.9522 12.0408 9.52826 12.0408 7.91833C12.0408 7.00011 11.8772 6.14269 11.5938 5.38957Z" fill="#C5C5C5"/>
</svg>
