<svg xmlns="http://www.w3.org/2000/svg" viewBox="0 0 32 32"><style>.icon-canvas-transparent{opacity:0;fill:#f6f6f6}.icon-white{fill:#ffffff}</style><path class="icon-canvas-transparent" d="M32 32H0V0h32v32z" id="canvas"/><g id="iconBg"><path class="icon-white" d="M16 2C8.28 2 2 8.28 2 16s6.28 14 14 14 14-6.28 14-14S23.72 2 16 2zm0 25.979C9.383 27.979 4 22.605 4 16 4 9.395 9.383 4.021 16 4.021S28 9.395 28 16c0 6.605-5.383 11.979-12 11.979zM12 11v9h7v1h-8V10h8v1h-7zm8 2h-6v-1h6v1zm2 3h-6v-1h6v1zm-3 3h-4v-1h4v1z"/></g></svg>