<svg xmlns="http://www.w3.org/2000/svg" viewBox="0 0 16 16"><style>.icon-canvas-transparent{opacity:0;fill:#2d2d30}.icon-vs-out{fill:#2d2d30}.icon-vs-bg{fill:#c5c5c5}.icon-vs-fg{fill:#2b282e}</style><path class="icon-canvas-transparent" d="M16 16H0V0h16v16z" id="canvas"/><path class="icon-vs-out" d="M13 5v-.25C13 2.513 11.513.636 9.483 0H6.517C4.487.636 3 2.513 3 4.75V5H1v11h14V5h-2z" id="outline" style="display: none;"/><path class="icon-vs-fg" d="M13 7v7H3V7h10zM9.25 9.25a1.25 1.25 0 0 0-2.5 0c0 .512.309.95.75 1.143V13h1v-2.607c.441-.193.75-.631.75-1.143z" id="iconFg" style="display: none;"/><g id="iconBg"><path class="icon-vs-bg" d="M12 6V4.75c0-2.206-1.794-4-4-4s-4 1.794-4 4V6H2v9h12V6h-2zM5 4.75c0-1.654 1.346-3 3-3s3 1.346 3 3V6H5V4.75zM13 14H3V7h10v7zM6.75 9.25a1.25 1.25 0 0 1 2.5 0c0 .512-.309.95-.75 1.143V13h-1v-2.607a1.248 1.248 0 0 1-.75-1.143z"/></g></svg>