<svg xmlns="http://www.w3.org/2000/svg" viewBox="0 0 16 16"><style>.icon-canvas-transparent{opacity:0;fill:#2d2d30}.icon-vs-out{fill:#2d2d30}.icon-vs-bg{fill:#c5c5c5}.icon-vs-fg{fill:#2b282e}</style><path class="icon-canvas-transparent" d="M16 0v16H0V0h16z" id="canvas"/><path class="icon-vs-out" d="M1 16V6h7V4c0-2.393 1.607-4 4-4s4 1.607 4 4v4h-3v8H1z" id="outline" style="display: none;"/><path class="icon-vs-fg" d="M3 8v6h8V8H3zm4.501 2.846L7.502 13h-1l-.001-2.153A.986.986 0 0 1 6 10a1 1 0 0 1 2 0 .984.984 0 0 1-.499.846z" id="iconFg" style="display: none;"/><path class="icon-vs-bg" d="M12 1c-1.822 0-3 1.178-3 3v3H2v8h10V7h-2V4c0-1.271.729-2 2-2s2 .729 2 2v3h1V4c0-1.822-1.178-3-3-3zm-1 7v6H3V8h8zm-3.499 2.846L7.502 13h-1l-.001-2.153A.986.986 0 0 1 6 10a1 1 0 0 1 2 0 .984.984 0 0 1-.499.846z" id="iconBg"/></svg>