<svg xmlns="http://www.w3.org/2000/svg" viewBox="0 0 16 16"><defs><style>.icon-canvas-transparent,.icon-vs-out{fill:#f6f6f6}.icon-canvas-transparent{opacity:0}.icon-vs-bg{fill:#424242}</style></defs><title>ScrollLock</title><path class="icon-canvas-transparent" d="M16 16H0V0h16z" id="canvas"/><path class="icon-vs-out" d="M15 9a3 3 0 0 0-6 0h-.836l-.018-.018L8.129 9H8v.129l-1 1V5.871l1.146 1.147L10.268 4.9 5.5.129.732 4.9l2.122 2.118L4 5.871v4.258L2.854 8.982.732 11.1 5.5 15.871l2.5-2.5V16h8V9z" id="outline" style="display: none;"/><path class="icon-vs-bg" d="M5.5 1.543L8.854 4.9l-.708.7L6 3.457v9.086l2-2v1.414l-2.5 2.5L2.146 11.1l.707-.707L5 12.543V3.457L2.854 5.6l-.708-.7zM15 10v5H9v-5h1V9a2 2 0 0 1 4 0v1zm-4 0h2V9a1 1 0 0 0-2 0zm3 1h-4v3h4z" id="iconBg"/></svg>