<svg xmlns="http://www.w3.org/2000/svg" viewBox="0 0 16 16"><style>.icon-canvas-transparent{opacity:0;fill:#2d2d30}.icon-vs-out{fill:#2d2d30}.icon-vs-bg{fill:#c5c5c5}</style><path class="icon-canvas-transparent" d="M16 0v16H0V0h16z" id="canvas"/><path class="icon-vs-out" d="M15 8c0-1.93-1.57-3.5-3.5-3.5a3.48 3.48 0 0 0-1.293.254L5.453 0h-.906L0 4.547v.742l2.457 2.457L3 7.203v1.594l-.543-.543L0 10.711v.742L4.547 16h.906L7 14.453V16h9V8h-1z" id="outline" style="display: none;"/><g id="iconBg"><path class="icon-vs-bg" d="M6 4.789v6.422l1-1v2.828l-2 2-3.957-3.957 1.414-1.414L4 11.211V4.789L2.457 6.332 1.043 4.918 5 .961l3.957 3.957-1.414 1.414L6 4.789zM15 9v6H8V9h1V8c0-1.379 1.121-2.5 2.5-2.5S14 6.621 14 8v1h1zm-2-1c0-.827-.673-1.5-1.5-1.5S10 7.173 10 8v1h3V8z"/></g></svg>