<svg width="96" height="96" viewBox="0 0 96 96" fill="none" xmlns="http://www.w3.org/2000/svg">
<g filter="url(#filter0_d_1844_64)">
<mask id="mask0_1844_64" style="mask-type:alpha" maskUnits="userSpaceOnUse" x="6" y="6" width="84" height="84">
<path fill-rule="evenodd" clip-rule="evenodd" d="M65.566 89.4264C66.889 89.9418 68.3976 89.9087 69.7329 89.2662L87.0271 80.9446C88.8444 80.0701 90 78.231 90 76.2132V19.7872C90 17.7695 88.8444 15.9303 87.0271 15.0559L69.7329 6.73395C67.9804 5.89069 65.9295 6.09724 64.3914 7.21543C64.1716 7.37517 63.9624 7.55352 63.7659 7.75007L30.6583 37.9548L16.2372 27.0081C14.8948 25.9891 13.0171 26.0726 11.7702 27.2067L7.14495 31.4141C5.61986 32.8014 5.61811 35.2007 7.14117 36.5902L19.6476 48.0001L7.14117 59.4099C5.61811 60.7995 5.61986 63.1988 7.14495 64.5861L11.7702 68.7934C13.0171 69.9276 14.8948 70.0111 16.2372 68.9921L30.6583 58.0453L63.7659 88.2501C64.2897 88.7741 64.9046 89.1688 65.566 89.4264ZM69.0128 28.9311L43.8917 48.0001L69.0128 67.069V28.9311Z" fill="white"/>
</mask>
<g mask="url(#mask0_1844_64)">
<path d="M87.0275 15.0688L69.7198 6.73546C67.7164 5.77087 65.3223 6.17776 63.75 7.75L7.09081 59.4099C5.56682 60.7994 5.56857 63.1987 7.09459 64.586L11.7227 68.7934C12.9703 69.9275 14.8491 70.011 16.1924 68.992L84.4232 17.2307C86.7122 15.4942 90 17.1268 90 20V19.7991C90 17.7823 88.8447 15.9437 87.0275 15.0688Z" fill="#0065A9"/>
<g filter="url(#filter1_d_1844_64)">
<path d="M87.0275 80.9312L69.7198 89.2646C67.7164 90.2292 65.3223 89.8223 63.75 88.25L7.09081 36.5902C5.56682 35.2007 5.56857 32.8013 7.09459 31.414L11.7227 27.2067C12.9703 26.0725 14.8491 25.989 16.1924 27.008L84.4232 78.7693C86.7122 80.5058 90 78.8732 90 76V76.201C90 78.2178 88.8447 80.0563 87.0275 80.9312Z" fill="#007ACC"/>
</g>
<g filter="url(#filter2_d_1844_64)">
<path d="M69.7206 89.2661C67.7166 90.2298 65.3224 89.8223 63.75 88.25C65.6874 90.1873 69 88.8152 69 86.0753V9.92459C69 7.18472 65.6874 5.81259 63.75 7.74996C65.3224 6.17757 67.7166 5.77012 69.7206 6.73385L87.0253 15.0558C88.8437 15.9302 90 17.7694 90 19.7871V76.2131C90 78.2309 88.8436 80.07 87.0253 80.9445L69.7206 89.2661Z" fill="#1F9CF0"/>
</g>
<g opacity="0.25" style="mix-blend-mode:overlay">
<path fill-rule="evenodd" clip-rule="evenodd" d="M65.5149 89.4264C66.8379 89.9417 68.3465 89.9087 69.6818 89.2662L86.976 80.9445C88.7933 80.0701 89.9489 78.2309 89.9489 76.2132V19.7871C89.9489 17.7694 88.7933 15.9303 86.9761 15.0558L69.6818 6.7339C67.9294 5.89064 65.8784 6.09718 64.3403 7.21538C64.1206 7.37512 63.9113 7.55347 63.7149 7.75001L30.6072 37.9548L16.1862 27.008C14.8437 25.989 12.966 26.0725 11.7192 27.2067L7.09389 31.4141C5.5688 32.8013 5.56705 35.2007 7.09011 36.5902L19.5965 48L7.09011 59.4099C5.56705 60.7994 5.5688 63.1987 7.09389 64.586L11.7192 68.7934C12.966 69.9275 14.8437 70.011 16.1862 68.992L30.6072 58.0453L63.7149 88.25C64.2386 88.7741 64.8536 89.1687 65.5149 89.4264ZM68.9617 28.9311L43.8406 48L68.9617 67.069V28.9311Z" fill="url(#paint0_linear_1844_64)"/>
</g>
</g>
</g>
<defs>
<filter id="filter0_d_1844_64" x="3" y="4" width="90" height="90" filterUnits="userSpaceOnUse" color-interpolation-filters="sRGB">
<feFlood flood-opacity="0" result="BackgroundImageFix"/>
<feColorMatrix in="SourceAlpha" type="matrix" values="0 0 0 0 0 0 0 0 0 0 0 0 0 0 0 0 0 0 127 0" result="hardAlpha"/>
<feOffset dy="1"/>
<feGaussianBlur stdDeviation="1.5"/>
<feColorMatrix type="matrix" values="0 0 0 0 0 0 0 0 0 0 0 0 0 0 0 0 0 0 0.25 0"/>
<feBlend mode="normal" in2="BackgroundImageFix" result="effect1_dropShadow_1844_64"/>
<feBlend mode="normal" in="SourceGraphic" in2="effect1_dropShadow_1844_64" result="shape"/>
</filter>
<filter id="filter1_d_1844_64" x="-1.05106" y="19.2964" width="98.0511" height="77.4863" filterUnits="userSpaceOnUse" color-interpolation-filters="sRGB">
<feFlood flood-opacity="0" result="BackgroundImageFix"/>
<feColorMatrix in="SourceAlpha" type="matrix" values="0 0 0 0 0 0 0 0 0 0 0 0 0 0 0 0 0 0 127 0" result="hardAlpha"/>
<feOffset/>
<feGaussianBlur stdDeviation="3.5"/>
<feColorMatrix type="matrix" values="0 0 0 0 0 0 0 0 0 0 0 0 0 0 0 0 0 0 0.25 0"/>
<feBlend mode="overlay" in2="BackgroundImageFix" result="effect1_dropShadow_1844_64"/>
<feBlend mode="normal" in="SourceGraphic" in2="effect1_dropShadow_1844_64" result="shape"/>
</filter>
<filter id="filter2_d_1844_64" x="56.75" y="-0.783493" width="40.25" height="97.5669" filterUnits="userSpaceOnUse" color-interpolation-filters="sRGB">
<feFlood flood-opacity="0" result="BackgroundImageFix"/>
<feColorMatrix in="SourceAlpha" type="matrix" values="0 0 0 0 0 0 0 0 0 0 0 0 0 0 0 0 0 0 127 0" result="hardAlpha"/>
<feOffset/>
<feGaussianBlur stdDeviation="3.5"/>
<feColorMatrix type="matrix" values="0 0 0 0 0 0 0 0 0 0 0 0 0 0 0 0 0 0 0.25 0"/>
<feBlend mode="overlay" in2="BackgroundImageFix" result="effect1_dropShadow_1844_64"/>
<feBlend mode="normal" in="SourceGraphic" in2="effect1_dropShadow_1844_64" result="shape"/>
</filter>
<linearGradient id="paint0_linear_1844_64" x1="47.9489" y1="6.21656" x2="47.9489" y2="89.7835" gradientUnits="userSpaceOnUse">
<stop stop-color="white"/>
<stop offset="1" stop-color="white" stop-opacity="0"/>
</linearGradient>
</defs>
</svg>
