<svg width="520" height="346" viewBox="0 0 520 346" fill="none" xmlns="http://www.w3.org/2000/svg">
<rect width="520" height="345.246" fill="white"/>
<rect width="520" height="15.9836" fill="#272822"/>
<rect y="46.8853" width="33.0328" height="267.459" fill="#272822"/>
<rect x="32.6685" y="46.7753" width="487.057" height="267.287" fill="#1E1F1C"/>
<rect x="8.5246" y="54.3442" width="15.9836" height="15.9836" fill="#454545"/>
<rect x="8.5246" y="87.3771" width="15.9836" height="15.9836" fill="#454545"/>
<rect x="8.5246" y="120.41" width="15.9836" height="15.9836" fill="#454545"/>
<rect x="8.5246" y="153.443" width="15.9836" height="15.9836" fill="#454545"/>
<rect x="8.5246" y="286.639" width="15.9836" height="15.9836" fill="#454545"/>
<rect x="8.5246" y="251.475" width="15.9836" height="15.9836" fill="#454545"/>
<rect y="314.062" width="519.725" height="31.1835" fill="#3794FF"/>
<rect width="159.63" height="31.1835" transform="translate(24.5013 314.062)" fill="#264F78"/>
<path d="M40.7407 337.157C40.1951 336.828 39.6553 336.487 39.121 336.134C38.5982 335.771 38.0924 335.379 37.6037 334.958C37.1149 334.538 36.6546 334.083 36.2227 333.594C35.8021 333.105 35.4327 332.583 35.1145 332.026C34.7962 331.457 34.5462 330.861 34.3643 330.235C34.1825 329.565 34.0915 328.883 34.0915 328.19V324.78L34.6201 324.234C34.9951 324.234 35.3418 324.223 35.6601 324.2C35.9783 324.177 36.2852 324.132 36.5807 324.064C36.8876 323.995 37.1888 323.905 37.4843 323.791C37.7912 323.666 38.081 323.518 38.3538 323.348C38.7516 323.086 39.1722 322.882 39.6155 322.734C40.3202 322.529 41.0306 322.478 41.7466 322.58C42.2126 322.649 42.6502 322.785 43.0594 322.99C43.2754 323.092 43.4856 323.206 43.6902 323.331C43.963 323.512 44.2472 323.666 44.5427 323.791C44.8382 323.905 45.1394 323.995 45.4463 324.064C45.7645 324.132 46.0771 324.177 46.384 324.2C46.7022 324.223 47.0489 324.234 47.424 324.234L47.9525 324.78V328.19C47.9525 328.883 47.8616 329.565 47.6797 330.235C47.4979 330.861 47.2478 331.457 46.9296 332.026C46.6113 332.594 46.2362 333.122 45.8043 333.611C45.3724 334.1 44.9121 334.555 44.4233 334.975C43.946 335.384 43.4402 335.771 42.906 336.134C42.3718 336.487 41.8319 336.828 41.2863 337.157H40.7407ZM35.1656 325.291V328.19C35.1543 328.781 35.2281 329.36 35.3873 329.929C35.5464 330.486 35.7624 331.014 36.0351 331.514C36.3193 332.003 36.6546 332.463 37.041 332.895C37.4389 333.35 37.8594 333.77 38.3027 334.157C38.7573 334.543 39.2347 334.907 39.7348 335.248C40.1554 335.532 40.5816 335.805 41.0135 336.066C41.4454 335.805 41.8716 335.532 42.2922 335.248C42.8037 334.907 43.281 334.543 43.7243 334.157C44.179 333.77 44.5995 333.361 44.986 332.929C45.3724 332.486 45.7077 332.014 45.9919 331.514C46.276 331.014 46.492 330.486 46.6397 329.929C46.7989 329.36 46.8784 328.781 46.8784 328.19V325.291C46.7761 325.291 46.6227 325.286 46.4181 325.274H46.2987C45.935 325.24 45.5713 325.183 45.2076 325.104C44.4574 324.945 43.7584 324.655 43.1106 324.234C42.9401 324.132 42.7696 324.041 42.5991 323.961C42.2808 323.802 41.9455 323.694 41.5932 323.637C41.0249 323.558 40.4679 323.598 39.9224 323.757C39.57 323.87 39.2404 324.03 38.9335 324.234C38.5925 324.45 38.2459 324.632 37.8935 324.78C37.5412 324.927 37.1831 325.041 36.8194 325.121C36.4557 325.189 36.092 325.24 35.7283 325.274L35.1656 325.291ZM41.6273 329.877C41.9796 329.73 42.2467 329.491 42.4286 329.161C42.6104 328.82 42.6616 328.462 42.582 328.087C42.5138 327.712 42.332 327.405 42.0365 327.167C41.7409 326.928 41.4 326.809 41.0135 326.809C40.6384 326.809 40.3031 326.928 40.0076 327.167C39.7121 327.405 39.5245 327.712 39.445 328.087C39.3768 328.462 39.4336 328.82 39.6155 329.161C39.7973 329.491 40.0644 329.73 40.4168 329.877L39.9565 332.656H42.0876L41.6273 329.877Z" fill="white"/>
<path d="M62.4046 330.767H64.542L66.5306 334.521H68.2824L66.0909 330.531C67.2814 330.132 67.9848 329.063 67.9848 327.744C67.9848 325.924 66.72 324.761 64.7517 324.761H60.8895V334.521H62.4046V330.767ZM62.4046 326.033H64.542C65.7121 326.033 66.4291 326.689 66.4291 327.778C66.4291 328.894 65.7527 329.523 64.5826 329.523H62.4046V326.033ZM74.5864 332.553C74.3158 333.148 73.7138 333.473 72.8345 333.473C71.6711 333.473 70.9203 332.634 70.873 331.302V331.234H76.0744V330.734C76.0744 328.434 74.8366 327.034 72.7872 327.034C70.7107 327.034 69.3917 328.529 69.3917 330.862C69.3917 333.209 70.6836 334.663 72.7939 334.663C74.4782 334.663 75.6686 333.852 75.9865 332.553H74.5864ZM72.7804 328.217C73.8559 328.217 74.5593 328.995 74.5931 330.186H70.873C70.9542 329.002 71.705 328.217 72.7804 328.217ZM77.6504 329.232C77.6504 330.321 78.2998 330.943 79.6999 331.268L80.985 331.572C81.7223 331.748 82.0672 332.046 82.0672 332.506C82.0672 333.108 81.4247 333.527 80.5183 333.527C79.639 333.527 79.0979 333.169 78.9153 332.594H77.461C77.5895 333.872 78.7326 334.663 80.4845 334.663C82.2431 334.663 83.535 333.737 83.535 332.37C83.535 331.302 82.8789 330.7 81.4788 330.375L80.2545 330.091C79.4564 329.902 79.0844 329.618 79.0844 329.164C79.0844 328.569 79.6999 328.17 80.5115 328.17C81.3367 328.17 81.8643 328.529 81.9996 329.076H83.393C83.2509 327.805 82.1687 327.034 80.5115 327.034C78.8476 327.034 77.6504 327.954 77.6504 329.232ZM85.7468 325.322V327.196H84.5767V328.359H85.7468V332.587C85.7468 334.001 86.3894 334.569 88.0059 334.569C88.29 334.569 88.5606 334.535 88.7973 334.494V333.338C88.5944 333.358 88.4659 333.371 88.2427 333.371C87.5189 333.371 87.201 333.027 87.201 332.235V328.359H88.7973V327.196H87.201V325.322H85.7468ZM90.5086 334.521H91.9628V330.132C91.9628 329.097 92.7407 328.387 93.8432 328.387C94.1002 328.387 94.5331 328.434 94.6549 328.468V327.101C94.4993 327.068 94.222 327.047 94.0055 327.047C93.045 327.047 92.2266 327.568 92.0169 328.292H91.9087V327.176H90.5086V334.521ZM96.8058 325.864C97.3131 325.864 97.7257 325.451 97.7257 324.95C97.7257 324.443 97.3131 324.031 96.8058 324.031C96.2985 324.031 95.8859 324.443 95.8859 324.95C95.8859 325.451 96.2985 325.864 96.8058 325.864ZM96.082 334.521H97.5295V327.176H96.082V334.521ZM105.903 329.536C105.714 328.109 104.598 327.034 102.751 327.034C100.607 327.034 99.3017 328.488 99.3017 330.822C99.3017 333.202 100.614 334.663 102.758 334.663C104.577 334.663 105.714 333.642 105.903 332.195H104.49C104.3 332.993 103.671 333.426 102.751 333.426C101.541 333.426 100.79 332.445 100.79 330.822C100.79 329.232 101.534 328.272 102.751 328.272C103.725 328.272 104.32 328.819 104.49 329.536H105.903ZM108.189 325.322V327.196H107.019V328.359H108.189V332.587C108.189 334.001 108.832 334.569 110.449 334.569C110.733 334.569 111.003 334.535 111.24 334.494V333.338C111.037 333.358 110.908 333.371 110.685 333.371C109.962 333.371 109.644 333.027 109.644 332.235V328.359H111.24V327.196H109.644V325.322H108.189ZM117.699 332.553C117.429 333.148 116.827 333.473 115.948 333.473C114.784 333.473 114.033 332.634 113.986 331.302V331.234H119.188V330.734C119.188 328.434 117.95 327.034 115.9 327.034C113.824 327.034 112.505 328.529 112.505 330.862C112.505 333.209 113.797 334.663 115.907 334.663C117.591 334.663 118.782 333.852 119.1 332.553H117.699ZM115.893 328.217C116.969 328.217 117.672 328.995 117.706 330.186H113.986C114.067 329.002 114.818 328.217 115.893 328.217ZM123.625 334.643C124.639 334.643 125.498 334.163 125.938 333.358H126.053V334.521H127.446V324.294H125.992V328.339H125.884C125.485 327.534 124.632 327.047 123.625 327.047C121.765 327.047 120.567 328.529 120.567 330.842C120.567 333.169 121.751 334.643 123.625 334.643ZM124.037 328.292C125.255 328.292 126.019 329.279 126.019 330.849C126.019 332.431 125.261 333.399 124.037 333.399C122.806 333.399 122.069 332.445 122.069 330.849C122.069 329.259 122.813 328.292 124.037 328.292ZM143.463 334.521V324.761H141.691L138.58 332.397H138.465L135.36 324.761H133.588V334.521H134.995V327.372H135.089L137.951 334.346H139.1L141.962 327.372H142.056V334.521H143.463ZM148.854 334.663C151.005 334.663 152.324 333.223 152.324 330.849C152.324 328.474 150.998 327.034 148.854 327.034C146.703 327.034 145.377 328.481 145.377 330.849C145.377 333.223 146.696 334.663 148.854 334.663ZM148.854 333.426C147.589 333.426 146.879 332.485 146.879 330.849C146.879 329.212 147.589 328.265 148.854 328.265C150.112 328.265 150.829 329.212 150.829 330.849C150.829 332.479 150.112 333.426 148.854 333.426ZM156.768 334.643C157.782 334.643 158.641 334.163 159.081 333.358H159.196V334.521H160.589V324.294H159.135V328.339H159.027C158.628 327.534 157.776 327.047 156.768 327.047C154.908 327.047 153.71 328.529 153.71 330.842C153.71 333.169 154.894 334.643 156.768 334.643ZM157.18 328.292C158.398 328.292 159.162 329.279 159.162 330.849C159.162 332.431 158.405 333.399 157.18 333.399C155.949 333.399 155.212 332.445 155.212 330.849C155.212 329.259 155.956 328.292 157.18 328.292ZM167.603 332.553C167.333 333.148 166.731 333.473 165.852 333.473C164.688 333.473 163.937 332.634 163.89 331.302V331.234H169.092V330.734C169.092 328.434 167.854 327.034 165.804 327.034C163.728 327.034 162.409 328.529 162.409 330.862C162.409 333.209 163.701 334.663 165.811 334.663C167.495 334.663 168.686 333.852 169.004 332.553H167.603ZM165.798 328.217C166.873 328.217 167.576 328.995 167.61 330.186H163.89C163.971 329.002 164.722 328.217 165.798 328.217Z" fill="white"/>
<rect width="520" height="30.9016" transform="translate(0 15.9836)" fill="#264F78"/>
<path d="M16.2394 38.5459C15.6938 38.2162 15.1539 37.8753 14.6197 37.5229C14.0969 37.1592 13.5911 36.7671 13.1023 36.3465C12.6136 35.926 12.1533 35.4713 11.7213 34.9826C11.3008 34.4938 10.9314 33.971 10.6131 33.4141C10.2949 32.8457 10.0448 32.249 9.86298 31.6239C9.68112 30.9533 9.59019 30.2713 9.59019 29.578V26.1681L10.1187 25.6226C10.4938 25.6226 10.8405 25.6112 11.1587 25.5885C11.477 25.5657 11.7839 25.5203 12.0794 25.4521C12.3863 25.3839 12.6875 25.293 12.983 25.1793C13.2899 25.0543 13.5797 24.9065 13.8525 24.736C14.2503 24.4746 14.6708 24.27 15.1141 24.1222C15.8188 23.9177 16.5292 23.8665 17.2453 23.9688C17.7113 24.037 18.1489 24.1734 18.5581 24.378C18.774 24.4803 18.9843 24.5939 19.1889 24.719C19.4617 24.9008 19.7458 25.0543 20.0413 25.1793C20.3369 25.293 20.6381 25.3839 20.9449 25.4521C21.2632 25.5203 21.5758 25.5657 21.8827 25.5885C22.2009 25.6112 22.5476 25.6226 22.9227 25.6226L23.4512 26.1681V29.578C23.4512 30.2713 23.3602 30.9533 23.1784 31.6239C22.9965 32.249 22.7465 32.8457 22.4282 33.4141C22.11 33.9824 21.7349 34.5109 21.303 34.9996C20.8711 35.4884 20.4107 35.943 19.922 36.3636C19.4446 36.7727 18.9388 37.1592 18.4046 37.5229C17.8704 37.8753 17.3305 38.2162 16.7849 38.5459H16.2394ZM10.6643 26.6796V29.578C10.6529 30.169 10.7268 30.7487 10.8859 31.317C11.0451 31.8739 11.261 32.4025 11.5338 32.9026C11.818 33.3913 12.1533 33.8516 12.5397 34.2836C12.9375 34.7382 13.3581 35.1588 13.8013 35.5452C14.256 35.9316 14.7334 36.2954 15.2335 36.6363C15.654 36.9205 16.0802 37.1933 16.5122 37.4547C16.9441 37.1933 17.3703 36.9205 17.7908 36.6363C18.3023 36.2954 18.7797 35.9316 19.223 35.5452C19.6776 35.1588 20.0982 34.7496 20.4846 34.3177C20.8711 33.8744 21.2064 33.4027 21.4905 32.9026C21.7747 32.4025 21.9906 31.8739 22.1384 31.317C22.2975 30.7487 22.3771 30.169 22.3771 29.578V26.6796C22.2748 26.6796 22.1213 26.6739 21.9168 26.6626H21.7974C21.4337 26.6285 21.07 26.5716 20.7063 26.4921C19.9561 26.333 19.2571 26.0431 18.6092 25.6226C18.4387 25.5203 18.2682 25.4294 18.0977 25.3498C17.7795 25.1907 17.4442 25.0827 17.0918 25.0259C16.5235 24.9463 15.9666 24.9861 15.421 25.1452C15.0687 25.2589 14.739 25.418 14.4322 25.6226C14.0912 25.8385 13.7445 26.0204 13.3922 26.1681C13.0398 26.3159 12.6818 26.4296 12.3181 26.5091C11.9543 26.5773 11.5906 26.6285 11.2269 26.6626L10.6643 26.6796ZM17.1259 31.2659C17.4783 31.1181 17.7454 30.8794 17.9272 30.5498C18.1091 30.2088 18.1602 29.8508 18.0807 29.4757C18.0125 29.1006 17.8306 28.7937 17.5351 28.555C17.2396 28.3163 16.8986 28.197 16.5122 28.197C16.1371 28.197 15.8018 28.3163 15.5063 28.555C15.2107 28.7937 15.0232 29.1006 14.9436 29.4757C14.8754 29.8508 14.9323 30.2088 15.1141 30.5498C15.296 30.8794 15.5631 31.1181 15.9154 31.2659L15.4551 34.0449H17.5863L17.1259 31.2659Z" fill="#75BEFF"/>
<rect x="35.1639" y="29.3033" width="218.443" height="4.2623" rx="2.13115" fill="white" fill-opacity="0.4"/>
<rect x="264.262" y="29.3033" width="55.4098" height="4.2623" rx="2.13115" fill="white" fill-opacity="0.4"/>
<path d="M214.564 88.4214C213.746 87.927 212.936 87.4155 212.134 86.887C211.35 86.3414 210.591 85.7532 209.858 85.1224C209.125 84.4915 208.435 83.8096 207.787 83.0765C207.156 82.3434 206.602 81.5591 206.125 80.7237C205.647 79.8712 205.272 78.9761 204.999 78.0384C204.727 77.0325 204.59 76.0096 204.59 74.9696V69.8548L205.383 69.0365C205.946 69.0365 206.466 69.0194 206.943 68.9853C207.42 68.9512 207.881 68.883 208.324 68.7807C208.784 68.6784 209.236 68.542 209.679 68.3715C210.14 68.184 210.574 67.9624 210.984 67.7066C211.58 67.3145 212.211 67.0076 212.876 66.786C213.933 66.4791 214.999 66.4024 216.073 66.5558C216.772 66.6581 217.428 66.8627 218.042 67.1696C218.366 67.323 218.681 67.4935 218.988 67.6811C219.397 67.9538 219.824 68.184 220.267 68.3715C220.71 68.542 221.162 68.6784 221.622 68.7807C222.1 68.883 222.569 68.9512 223.029 68.9853C223.506 69.0194 224.026 69.0365 224.589 69.0365L225.382 69.8548V74.9696C225.382 76.0096 225.245 77.0325 224.972 78.0384C224.7 78.9761 224.325 79.8712 223.847 80.7237C223.37 81.5761 222.807 82.3689 222.159 83.102C221.511 83.8352 220.821 84.5171 220.088 85.1479C219.372 85.7617 218.613 86.3414 217.812 86.887C217.01 87.4155 216.201 87.927 215.382 88.4214H214.564ZM206.201 70.622V74.9696C206.184 75.8561 206.295 76.7256 206.534 77.5781C206.772 78.4135 207.096 79.2063 207.506 79.9565C207.932 80.6896 208.435 81.3801 209.014 82.0279C209.611 82.7099 210.242 83.3407 210.907 83.9204C211.589 84.5001 212.305 85.0456 213.055 85.5571C213.686 85.9834 214.325 86.3925 214.973 86.7847C215.621 86.3925 216.26 85.9834 216.891 85.5571C217.658 85.0456 218.374 84.5001 219.039 83.9204C219.721 83.3407 220.352 82.727 220.932 82.0791C221.511 81.4142 222.014 80.7066 222.441 79.9565C222.867 79.2063 223.191 78.4135 223.412 77.5781C223.651 76.7256 223.77 75.8561 223.77 74.9696V70.622C223.617 70.622 223.387 70.6135 223.08 70.5965H222.901C222.355 70.5453 221.81 70.4601 221.264 70.3407C220.139 70.102 219.09 69.6673 218.119 69.0365C217.863 68.883 217.607 68.7466 217.351 68.6273C216.874 68.3886 216.371 68.2266 215.843 68.1414C214.99 68.022 214.155 68.0817 213.336 68.3204C212.808 68.4909 212.313 68.7296 211.853 69.0365C211.342 69.3604 210.822 69.6332 210.293 69.8548C209.765 70.0765 209.228 70.247 208.682 70.3663C208.136 70.4686 207.591 70.5453 207.045 70.5965L206.201 70.622ZM215.894 77.5014C216.422 77.2797 216.823 76.9217 217.096 76.4273C217.369 75.9158 217.445 75.3788 217.326 74.8161C217.224 74.2535 216.951 73.7932 216.508 73.4352C216.064 73.0771 215.553 72.8981 214.973 72.8981C214.41 72.8981 213.908 73.0771 213.464 73.4352C213.021 73.7932 212.74 74.2535 212.62 74.8161C212.518 75.3788 212.603 75.9158 212.876 76.4273C213.149 76.9217 213.549 77.2797 214.078 77.5014L213.388 81.6699H216.584L215.894 77.5014Z" fill="#0097FB"/>
<path d="M240.849 78.1582H242.52L244.339 81.7295H246.653L244.597 77.8538C245.719 77.4141 246.369 76.3319 246.369 75.0806C246.369 73.1529 245.05 71.9692 242.906 71.9692H238.807V81.7295H240.849V78.1582ZM240.849 73.5655H242.621C243.636 73.5655 244.272 74.1607 244.272 75.1076C244.272 76.0749 243.67 76.6363 242.642 76.6363H240.849V73.5655ZM252.808 79.6259C252.598 80.1332 252.064 80.4173 251.286 80.4173C250.258 80.4173 249.609 79.7071 249.581 78.5708V78.4693H254.702V77.8808C254.702 75.527 253.403 74.1201 251.205 74.1201C248.986 74.1201 247.62 75.6217 247.62 78.0432C247.62 80.4511 248.959 81.8851 251.232 81.8851C253.058 81.8851 254.35 81.0125 254.641 79.6259H252.808ZM251.212 75.5879C252.131 75.5879 252.727 76.2237 252.767 77.245H249.588C249.656 76.244 250.298 75.5879 251.212 75.5879ZM256.149 76.4537C256.149 77.5968 256.853 78.2799 258.3 78.5978L259.653 78.9022C260.309 79.051 260.593 79.281 260.593 79.6597C260.593 80.1535 260.066 80.4917 259.301 80.4917C258.517 80.4917 258.036 80.1873 257.888 79.6733H255.967C256.102 81.0802 257.292 81.8851 259.261 81.8851C261.215 81.8851 262.548 80.9246 262.548 79.4501C262.548 78.3408 261.899 77.732 260.451 77.4141L259.051 77.1098C258.361 76.9542 258.043 76.7174 258.043 76.3387C258.043 75.8517 258.564 75.5202 259.267 75.5202C259.998 75.5202 260.451 75.8246 260.553 76.3184H262.372C262.264 74.9115 261.148 74.1201 259.254 74.1201C257.394 74.1201 256.149 75.0603 256.149 76.4537ZM264.685 72.5035V74.3501H263.522V75.8449H264.685V79.7206C264.685 81.1681 265.402 81.7565 267.215 81.7565C267.594 81.7565 267.959 81.716 268.202 81.6686V80.2144C268.013 80.2347 267.878 80.2482 267.621 80.2482C266.951 80.2482 266.654 79.9371 266.654 79.2674V75.8449H268.202V74.3501H266.654V72.5035H264.685ZM269.846 81.7295H271.814V77.5629C271.814 76.5145 272.552 75.872 273.627 75.872C273.945 75.872 274.405 75.9261 274.561 75.9802V74.2486C274.391 74.1945 274.06 74.1607 273.789 74.1607C272.843 74.1607 272.071 74.7221 271.875 75.4661H271.754V74.2824H269.846V81.7295ZM276.881 73.1393C277.489 73.1393 277.99 72.6523 277.99 72.0436C277.99 71.4281 277.489 70.9411 276.881 70.9411C276.272 70.9411 275.765 71.4281 275.765 72.0436C275.765 72.6523 276.272 73.1393 276.881 73.1393ZM275.893 81.7295H277.861V74.2824H275.893V81.7295ZM286.458 76.8798C286.296 75.2159 285.112 74.1201 283.137 74.1201C280.804 74.1201 279.491 75.5338 279.491 77.9891C279.491 80.4714 280.81 81.8851 283.137 81.8851C285.078 81.8851 286.296 80.8164 286.458 79.1795H284.618C284.47 79.9235 283.942 80.3226 283.137 80.3226C282.082 80.3226 281.48 79.4906 281.48 77.9891C281.48 76.5078 282.075 75.6893 283.137 75.6893C283.976 75.6893 284.483 76.1628 284.618 76.8798H286.458ZM288.629 72.5035V74.3501H287.466V75.8449H288.629V79.7206C288.629 81.1681 289.346 81.7565 291.159 81.7565C291.538 81.7565 291.903 81.716 292.147 81.6686V80.2144C291.957 80.2347 291.822 80.2482 291.565 80.2482C290.895 80.2482 290.598 79.9371 290.598 79.2674V75.8449H292.147V74.3501H290.598V72.5035H288.629ZM298.559 79.6259C298.349 80.1332 297.815 80.4173 297.037 80.4173C296.009 80.4173 295.36 79.7071 295.332 78.5708V78.4693H300.453V77.8808C300.453 75.527 299.154 74.1201 296.956 74.1201C294.737 74.1201 293.371 75.6217 293.371 78.0432C293.371 80.4511 294.71 81.8851 296.983 81.8851C298.809 81.8851 300.101 81.0125 300.392 79.6259H298.559ZM296.963 75.5879C297.882 75.5879 298.478 76.2237 298.518 77.245H295.339C295.407 76.244 296.049 75.5879 296.963 75.5879ZM304.741 81.8445C305.776 81.8445 306.621 81.3642 307.02 80.5593H307.142V81.7295H309.05V71.4348H307.081V75.4729H306.966C306.581 74.6477 305.749 74.1607 304.741 74.1607C302.867 74.1607 301.704 75.6285 301.704 77.9958C301.704 80.3699 302.861 81.8445 304.741 81.8445ZM305.411 75.757C306.459 75.757 307.102 76.616 307.102 78.0093C307.102 79.4027 306.466 80.255 305.411 80.255C304.356 80.255 303.726 79.4095 303.726 78.0026C303.726 76.6025 304.362 75.757 305.411 75.757ZM325.195 81.7295V71.9692H322.794L320.088 78.6993H319.967L317.268 71.9692H314.86V81.7295H316.754V75.1212H316.862L319.351 81.2493H320.711L323.193 75.1212H323.301V81.7295H325.195ZM330.674 81.8851C332.967 81.8851 334.347 80.4376 334.347 78.0026C334.347 75.5879 332.947 74.1201 330.674 74.1201C328.401 74.1201 327.001 75.5946 327.001 78.0026C327.001 80.4308 328.381 81.8851 330.674 81.8851ZM330.674 80.3294C329.619 80.3294 329.023 79.4771 329.023 78.0026C329.023 76.5416 329.625 75.6826 330.674 75.6826C331.715 75.6826 332.324 76.5416 332.324 78.0026C332.324 79.4771 331.722 80.3294 330.674 80.3294ZM338.628 81.8445C339.663 81.8445 340.509 81.3642 340.908 80.5593H341.029V81.7295H342.937V71.4348H340.968V75.4729H340.854C340.468 74.6477 339.636 74.1607 338.628 74.1607C336.755 74.1607 335.591 75.6285 335.591 77.9958C335.591 80.3699 336.748 81.8445 338.628 81.8445ZM339.298 75.757C340.346 75.757 340.989 76.616 340.989 78.0093C340.989 79.4027 340.353 80.255 339.298 80.255C338.243 80.255 337.614 79.4095 337.614 78.0026C337.614 76.6025 338.249 75.757 339.298 75.757ZM349.802 79.6259C349.592 80.1332 349.058 80.4173 348.28 80.4173C347.252 80.4173 346.603 79.7071 346.576 78.5708V78.4693H351.696V77.8808C351.696 75.527 350.397 74.1201 348.199 74.1201C345.981 74.1201 344.614 75.6217 344.614 78.0432C344.614 80.4511 345.953 81.8851 348.226 81.8851C350.052 81.8851 351.344 81.0125 351.635 79.6259H349.802ZM348.206 75.5879C349.126 75.5879 349.721 76.2237 349.762 77.245H346.583C346.65 76.244 347.293 75.5879 348.206 75.5879Z" fill="white"/>
<path d="M361.838 129.525H363.975L365.964 133.279H367.716L365.524 129.288C366.715 128.889 367.418 127.821 367.418 126.502C367.418 124.682 366.153 123.519 364.185 123.519H360.323V133.279H361.838V129.525ZM361.838 124.79H363.975C365.145 124.79 365.862 125.447 365.862 126.536C365.862 127.652 365.186 128.281 364.016 128.281H361.838V124.79ZM374.02 131.311C373.749 131.906 373.147 132.231 372.268 132.231C371.104 132.231 370.354 131.392 370.306 130.06V129.992H375.508V129.491C375.508 127.192 374.27 125.792 372.22 125.792C370.144 125.792 368.825 127.286 368.825 129.62C368.825 131.967 370.117 133.421 372.227 133.421C373.911 133.421 375.102 132.61 375.42 131.311H374.02ZM372.214 126.975C373.289 126.975 373.992 127.753 374.026 128.944H370.306C370.387 127.76 371.138 126.975 372.214 126.975ZM377.084 127.99C377.084 129.079 377.733 129.701 379.133 130.026L380.418 130.33C381.155 130.506 381.5 130.804 381.5 131.264C381.5 131.866 380.858 132.285 379.951 132.285C379.072 132.285 378.531 131.926 378.348 131.351H376.894C377.023 132.63 378.166 133.421 379.918 133.421C381.676 133.421 382.968 132.495 382.968 131.128C382.968 130.06 382.312 129.458 380.912 129.133L379.688 128.849C378.89 128.659 378.518 128.375 378.518 127.922C378.518 127.327 379.133 126.928 379.945 126.928C380.77 126.928 381.297 127.286 381.433 127.834H382.826C382.684 126.563 381.602 125.792 379.945 125.792C378.281 125.792 377.084 126.711 377.084 127.99ZM385.18 124.08V125.954H384.01V127.117H385.18V131.345C385.18 132.758 385.823 133.327 387.439 133.327C387.723 133.327 387.994 133.293 388.23 133.252V132.095C388.028 132.116 387.899 132.129 387.676 132.129C386.952 132.129 386.634 131.784 386.634 130.993V127.117H388.23V125.954H386.634V124.08H385.18ZM389.942 133.279H391.396V128.889C391.396 127.855 392.174 127.144 393.276 127.144C393.533 127.144 393.966 127.192 394.088 127.225V125.859C393.932 125.825 393.655 125.805 393.439 125.805C392.478 125.805 391.66 126.326 391.45 127.05H391.342V125.934H389.942V133.279ZM396.239 124.621C396.746 124.621 397.159 124.209 397.159 123.708C397.159 123.201 396.746 122.788 396.239 122.788C395.732 122.788 395.319 123.201 395.319 123.708C395.319 124.209 395.732 124.621 396.239 124.621ZM395.515 133.279H396.963V125.934H395.515V133.279ZM405.336 128.294C405.147 126.867 404.031 125.792 402.184 125.792C400.04 125.792 398.735 127.246 398.735 129.579C398.735 131.96 400.047 133.421 402.191 133.421C404.011 133.421 405.147 132.4 405.336 130.952H403.923C403.733 131.751 403.104 132.183 402.184 132.183C400.974 132.183 400.223 131.203 400.223 129.579C400.223 127.99 400.967 127.029 402.184 127.029C403.158 127.029 403.754 127.577 403.923 128.294H405.336ZM407.623 124.08V125.954H406.452V127.117H407.623V131.345C407.623 132.758 408.265 133.327 409.882 133.327C410.166 133.327 410.436 133.293 410.673 133.252V132.095C410.47 132.116 410.342 132.129 410.118 132.129C409.395 132.129 409.077 131.784 409.077 130.993V127.117H410.673V125.954H409.077V124.08H407.623ZM417.133 131.311C416.862 131.906 416.26 132.231 415.381 132.231C414.217 132.231 413.467 131.392 413.419 130.06V129.992H418.621V129.491C418.621 127.192 417.383 125.792 415.333 125.792C413.257 125.792 411.938 127.286 411.938 129.62C411.938 131.967 413.23 133.421 415.34 133.421C417.024 133.421 418.215 132.61 418.533 131.311H417.133ZM415.327 126.975C416.402 126.975 417.106 127.753 417.139 128.944H413.419C413.5 127.76 414.251 126.975 415.327 126.975ZM423.058 133.401C424.072 133.401 424.931 132.921 425.371 132.116H425.486V133.279H426.879V123.052H425.425V127.097H425.317C424.918 126.292 424.066 125.805 423.058 125.805C421.198 125.805 420.001 127.286 420.001 129.6C420.001 131.926 421.184 133.401 423.058 133.401ZM423.47 127.05C424.688 127.05 425.452 128.037 425.452 129.606C425.452 131.189 424.695 132.156 423.47 132.156C422.239 132.156 421.502 131.203 421.502 129.606C421.502 128.017 422.246 127.05 423.47 127.05Z" fill="white"/>
<path d="M137.346 133.279V124.824H140.41V123.519H132.76V124.824H135.831V133.279H137.346ZM141.168 133.279H142.622V128.889C142.622 127.855 143.4 127.144 144.502 127.144C144.759 127.144 145.192 127.192 145.314 127.225V125.859C145.158 125.825 144.881 125.805 144.665 125.805C143.704 125.805 142.886 126.326 142.676 127.05H142.568V125.934H141.168V133.279ZM152.923 125.934H151.469V130.242C151.469 131.426 150.827 132.143 149.65 132.143C148.581 132.143 148.101 131.561 148.101 130.344V125.934H146.646V130.702C146.646 132.427 147.553 133.421 149.183 133.421C150.299 133.421 151.05 132.948 151.408 132.116H151.523V133.279H152.923V125.934ZM154.865 127.99C154.865 129.079 155.514 129.701 156.914 130.026L158.199 130.33C158.936 130.506 159.281 130.804 159.281 131.264C159.281 131.866 158.639 132.285 157.733 132.285C156.853 132.285 156.312 131.926 156.129 131.351H154.675C154.804 132.63 155.947 133.421 157.699 133.421C159.457 133.421 160.749 132.495 160.749 131.128C160.749 130.06 160.093 129.458 158.693 129.133L157.469 128.849C156.671 128.659 156.299 128.375 156.299 127.922C156.299 127.327 156.914 126.928 157.726 126.928C158.551 126.928 159.079 127.286 159.214 127.834H160.607C160.465 126.563 159.383 125.792 157.726 125.792C156.062 125.792 154.865 126.711 154.865 127.99ZM162.961 124.08V125.954H161.791V127.117H162.961V131.345C162.961 132.758 163.604 133.327 165.22 133.327C165.504 133.327 165.775 133.293 166.012 133.252V132.095C165.809 132.116 165.68 132.129 165.457 132.129C164.733 132.129 164.415 131.784 164.415 130.993V127.117H166.012V125.954H164.415V124.08H162.961ZM172.471 131.311C172.2 131.906 171.598 132.231 170.719 132.231C169.556 132.231 168.805 131.392 168.758 130.06V129.992H173.959V129.491C173.959 127.192 172.721 125.792 170.672 125.792C168.595 125.792 167.276 127.286 167.276 129.62C167.276 131.967 168.568 133.421 170.679 133.421C172.363 133.421 173.553 132.61 173.871 131.311H172.471ZM170.665 126.975C171.741 126.975 172.444 127.753 172.478 128.944H168.758C168.839 127.76 169.59 126.975 170.665 126.975ZM178.396 133.401C179.411 133.401 180.27 132.921 180.709 132.116H180.824V133.279H182.218V123.052H180.764V127.097H180.655C180.256 126.292 179.404 125.805 178.396 125.805C176.536 125.805 175.339 127.286 175.339 129.6C175.339 131.926 176.523 133.401 178.396 133.401ZM178.809 127.05C180.026 127.05 180.791 128.037 180.791 129.606C180.791 131.189 180.033 132.156 178.809 132.156C177.578 132.156 176.841 131.203 176.841 129.606C176.841 128.017 177.585 127.05 178.809 127.05Z" fill="white"/>
<rect x="78.8525" y="156.639" width="57.541" height="4.2623" rx="2.13115" fill="#C4C4C4" fill-opacity="0.4"/>
<rect x="327.131" y="156.639" width="77.7869" height="4.2623" rx="2.13115" fill="#C4C4C4" fill-opacity="0.4"/>
<rect x="327.131" y="173.688" width="98.0328" height="4.2623" rx="2.13115" fill="#C4C4C4" fill-opacity="0.4"/>
<rect x="327.131" y="190.738" width="77.7869" height="4.2623" rx="2.13115" fill="#C4C4C4" fill-opacity="0.4"/>
<rect x="78.8525" y="173.688" width="107.623" height="4.2623" rx="2.13115" fill="#C4C4C4" fill-opacity="0.4"/>
<rect x="78.8525" y="190.738" width="117.213" height="4.2623" rx="2.13115" fill="#C4C4C4" fill-opacity="0.4"/>
<rect width="58.4426" height="29.7869" transform="translate(128.934 214.572)" fill="#0E639C"/>
<path d="M146.102 233.966V225.511H149.167V224.205H141.517V225.511H144.587V233.966H146.102ZM149.924 233.966H151.378V229.576C151.378 228.541 152.156 227.831 153.259 227.831C153.516 227.831 153.949 227.878 154.07 227.912V226.546C153.915 226.512 153.637 226.491 153.421 226.491C152.461 226.491 151.642 227.012 151.432 227.736H151.324V226.62H149.924V233.966ZM161.68 226.62H160.226V230.929C160.226 232.112 159.583 232.829 158.406 232.829C157.337 232.829 156.857 232.248 156.857 231.03V226.62H155.403V231.389C155.403 233.113 156.309 234.108 157.939 234.108C159.055 234.108 159.806 233.634 160.165 232.802H160.28V233.966H161.68V226.62ZM163.621 228.676C163.621 229.765 164.27 230.387 165.67 230.712L166.956 231.017C167.693 231.192 168.038 231.49 168.038 231.95C168.038 232.552 167.395 232.971 166.489 232.971C165.61 232.971 165.068 232.613 164.886 232.038H163.432C163.56 233.316 164.703 234.108 166.455 234.108C168.214 234.108 169.506 233.181 169.506 231.815C169.506 230.746 168.849 230.144 167.449 229.819L166.225 229.535C165.427 229.346 165.055 229.062 165.055 228.609C165.055 228.013 165.67 227.614 166.482 227.614C167.307 227.614 167.835 227.973 167.97 228.521H169.364C169.221 227.249 168.139 226.478 166.482 226.478C164.818 226.478 163.621 227.398 163.621 228.676ZM171.717 224.767V226.64H170.547V227.804H171.717V232.031C171.717 233.445 172.36 234.013 173.977 234.013C174.261 234.013 174.531 233.979 174.768 233.939V232.782C174.565 232.802 174.436 232.816 174.213 232.816C173.49 232.816 173.172 232.471 173.172 231.679V227.804H174.768V226.64H173.172V224.767H171.717Z" fill="white"/>
<path d="M315.41 159.584L317.839 162.013L318.308 161.544L315.879 159.115L318.308 156.685L317.839 156.216L315.41 158.646L312.98 156.216L312.511 156.685L314.941 159.115L312.511 161.544L312.98 162.013L315.41 159.584Z" fill="#F14C4C"/>
<path d="M315.41 176.633L317.839 179.062L318.308 178.593L315.879 176.164L318.308 173.734L317.839 173.266L315.41 175.695L312.98 173.266L312.511 173.734L314.941 176.164L312.511 178.593L312.98 179.062L315.41 176.633Z" fill="#F14C4C"/>
<path d="M315.41 193.682L317.839 196.111L318.308 195.643L315.879 193.213L318.308 190.784L317.839 190.315L315.41 192.744L312.98 190.315L312.511 190.784L314.941 193.213L312.511 195.643L312.98 196.111L315.41 193.682Z" fill="#F14C4C"/>
<path d="M69.2836 156.003L63.6467 162.663L63.1139 162.631L60.8869 159.456L61.4303 159.072L63.4123 161.896L68.7721 155.566L69.2836 156.003Z" fill="#73C991"/>
<path d="M69.2836 173.052L63.6467 179.712L63.1139 179.68L60.8869 176.505L61.4303 176.121L63.4123 178.945L68.7721 172.616L69.2836 173.052Z" fill="#73C991"/>
<path d="M69.2836 190.102L63.6467 196.761L63.1139 196.729L60.8869 193.554L61.4303 193.17L63.4123 195.994L68.7721 189.665L69.2836 190.102Z" fill="#73C991"/>
<rect x="47.418" y="109.221" width="222.705" height="149.18" stroke="#606060" stroke-width="1.06557"/>
<rect x="283.975" y="109.221" width="221.639" height="149.18" stroke="#007ACC" stroke-width="1.06557"/>
</svg>
