<svg viewBox="0 0 468 200" fill="none" xmlns="http://www.w3.org/2000/svg">
  <g>
    <g>
      <g>
        <g clip-path="url(#clip0_2738_10289)">
          <rect x="16" y="96" width="385" height="88" rx="4" fill="var(--vscode-input-background, #3c3c3c)" />
          <rect x="16" y="96" width="385" height="88" fill="var(--vscode-input-background, #3c3c3c)" />
          <g>
            <g>
              <rect x="24.5" y="104.5" width="106" height="17" rx="3.5" stroke="var(,
        #FFFFFF)" stroke-opacity="0.0705882" stroke-width="1" />
              <g>
                <path d="M36.252 120H35.752C34.8577 119.964 34.0138 119.576 33.4048 118.92C32.7957 118.264 32.4712 117.394 32.502 116.5V108.682C32.4799 107.995 32.7304 107.327 33.1988 106.825C33.6672 106.322 34.3155 106.026 35.002 106C35.6885 106.026 36.3368 106.322 36.8052 106.825C37.2737 107.327 37.5242 107.995 37.502 108.682V115.849C37.5131 116.258 37.3615 116.655 37.0804 116.954C36.7993 117.252 36.4116 117.426 36.002 117.44C35.5963 117.427 35.2118 117.256 34.9313 116.962C34.6507 116.669 34.4966 116.277 34.502 115.872V112H35.502V115.849C35.4912 115.993 35.5375 116.136 35.631 116.246C35.7246 116.357 35.8578 116.426 36.002 116.44C36.1462 116.426 36.2794 116.357 36.373 116.246C36.4665 116.136 36.5128 115.993 36.502 115.849V108.682C36.5244 108.26 36.3794 107.847 36.0984 107.532C35.8174 107.217 35.4234 107.025 35.002 107C34.5807 107.025 34.1866 107.217 33.9056 107.532C33.6247 107.847 33.4796 108.26 33.502 108.682V116.5C33.4715 117.129 33.6908 117.745 34.1122 118.213C34.5336 118.681 35.123 118.964 35.752 119H36.252C36.881 118.964 37.4704 118.681 37.8918 118.213C38.3132 117.745 38.5326 117.129 38.502 116.5V110H39.502V116.5C39.5328 117.394 39.2083 118.264 38.5993 118.92C37.9902 119.576 37.1463 119.964 36.252 120Z" fill="var(--vscode-descriptionForeground,
        var(--vscode-descriptionForeground, #9d9d9d))" />
              </g>
              <path d="M52.5742 117L51.7246 114.58H48.3613L47.5117 117H46.4043L49.5215 108.545H50.5645L53.6816 117H52.5742ZM49.9961 109.91L48.6719 113.684H51.4141L50.0898 109.91H49.9961ZM57.0215 117.111C55.4043 117.111 54.3672 115.828 54.3672 113.842C54.3672 111.861 55.416 110.572 57.0215 110.572C57.9004 110.572 58.6445 110.988 59.002 111.68H59.0898V108.176H60.0977V117H59.1367V115.992H59.043C58.6445 116.695 57.8945 117.111 57.0215 117.111ZM57.2559 111.48C56.1074 111.48 55.4102 112.371 55.4102 113.842C55.4102 115.318 56.1016 116.203 57.2559 116.203C58.4043 116.203 59.1133 115.301 59.1133 113.842C59.1133 112.395 58.3984 111.48 57.2559 111.48ZM64.3926 117.111C62.7754 117.111 61.7383 115.828 61.7383 113.842C61.7383 111.861 62.7871 110.572 64.3926 110.572C65.2715 110.572 66.0156 110.988 66.373 111.68H66.4609V108.176H67.4688V117H66.5078V115.992H66.4141C66.0156 116.695 65.2656 117.111 64.3926 117.111ZM64.627 111.48C63.4785 111.48 62.7812 112.371 62.7812 113.842C62.7812 115.318 63.4727 116.203 64.627 116.203C65.7754 116.203 66.4844 115.301 66.4844 113.842C66.4844 112.395 65.7695 111.48 64.627 111.48ZM76.3457 117.199C74.0488 117.199 72.6133 115.5 72.6133 112.775C72.6133 110.045 74.043 108.346 76.3398 108.346C78.1211 108.346 79.5098 109.465 79.7617 111.094H78.6895C78.4082 110.004 77.5059 109.318 76.3398 109.318C74.7168 109.318 73.6973 110.654 73.6973 112.775C73.6973 114.896 74.7168 116.227 76.3457 116.227C77.5234 116.227 78.4199 115.623 78.6895 114.645H79.7617C79.4805 116.197 78.1445 117.199 76.3457 117.199ZM83.998 117.111C82.1992 117.111 81.0859 115.869 81.0859 113.842C81.0859 111.809 82.1992 110.572 83.998 110.572C85.7969 110.572 86.9102 111.809 86.9102 113.842C86.9102 115.869 85.7969 117.111 83.998 117.111ZM83.998 116.203C85.1934 116.203 85.8672 115.336 85.8672 113.842C85.8672 112.342 85.1934 111.48 83.998 111.48C82.8027 111.48 82.1289 112.342 82.1289 113.842C82.1289 115.336 82.8027 116.203 83.998 116.203ZM88.4922 117V110.684H89.4531V111.68H89.5469C89.8633 110.982 90.4785 110.572 91.4453 110.572C92.8633 110.572 93.6543 111.41 93.6543 112.91V117H92.6465V113.156C92.6465 112.02 92.166 111.48 91.1582 111.48C90.1504 111.48 89.5 112.154 89.5 113.262V117H88.4922ZM95.9219 109.049H96.9297V110.684H98.3359V111.527H96.9297V115.102C96.9297 115.846 97.2109 116.162 97.8672 116.162C98.0488 116.162 98.1484 116.156 98.3359 116.139V116.988C98.1367 117.023 97.9434 117.047 97.7441 117.047C96.4434 117.047 95.9219 116.566 95.9219 115.359V111.527H94.9023V110.684H95.9219V109.049ZM103.949 115.365H104.957C104.664 116.443 103.68 117.111 102.297 117.111C100.545 117.111 99.4492 115.846 99.4492 113.848C99.4492 111.861 100.562 110.572 102.297 110.572C104.002 110.572 105.039 111.785 105.039 113.748V114.135H100.498V114.182C100.551 115.43 101.248 116.221 102.32 116.221C103.135 116.221 103.686 115.922 103.949 115.365ZM102.285 111.463C101.277 111.463 100.574 112.201 100.498 113.32H103.979C103.955 112.201 103.287 111.463 102.285 111.463ZM108.619 114.633H108.525L107.025 117.018H105.883L108.045 113.859L105.859 110.701H107.061L108.561 113.051H108.654L110.137 110.701H111.279L109.135 113.818L111.309 117.018H110.113L108.619 114.633ZM113.102 109.049H114.109V110.684H115.516V111.527H114.109V115.102C114.109 115.846 114.391 116.162 115.047 116.162C115.229 116.162 115.328 116.156 115.516 116.139V116.988C115.316 117.023 115.123 117.047 114.924 117.047C113.623 117.047 113.102 116.566 113.102 115.359V111.527H112.082V110.684H113.102V109.049ZM117.871 117.059C117.455 117.059 117.109 116.713 117.109 116.297C117.109 115.875 117.455 115.535 117.871 115.535C118.293 115.535 118.633 115.875 118.633 116.297C118.633 116.713 118.293 117.059 117.871 117.059ZM121.434 117.059C121.018 117.059 120.672 116.713 120.672 116.297C120.672 115.875 121.018 115.535 121.434 115.535C121.855 115.535 122.195 115.875 122.195 116.297C122.195 116.713 121.855 117.059 121.434 117.059ZM124.996 117.059C124.58 117.059 124.234 116.713 124.234 116.297C124.234 115.875 124.58 115.535 124.996 115.535C125.418 115.535 125.758 115.875 125.758 116.297C125.758 116.713 125.418 117.059 124.996 117.059Z" fill="var(--vscode-foreground,
        var(--vscode-foreground, #cccccc))" />
            </g>
            <g>
              <rect x="133.5" y="104.5" width="156" height="17" rx="3.5" stroke="var(,
        #FFFFFF)" stroke-opacity="0.0705882" />
              <g>
                <g>
                  <path d="M147.94 107.18V113.38H150.32C149.107 114.62 147.293 116.453 144.88 118.88L139.62 113.44H141.82V107.12L142.06 107.3C142.793 107.807 143.347 108.18 143.72 108.42C144.387 108.847 144.787 109.06 144.92 109.06C145.067 109.06 145.393 108.893 145.9 108.56C146.207 108.373 146.673 108.06 147.3 107.62L147.94 107.18Z" fill="var(--vscode-Seti-Blue,
        var(--vscode-Seti-Blue, #519aba))" />
                </g>
                <path d="M157.949 117V110.684H158.91V111.68H159.004C159.291 110.977 159.924 110.572 160.768 110.572C161.623 110.572 162.221 111.023 162.514 111.68H162.607C162.947 111.012 163.668 110.572 164.541 110.572C165.83 110.572 166.551 111.311 166.551 112.635V117H165.543V112.869C165.543 111.938 165.104 111.48 164.213 111.48C163.334 111.48 162.748 112.137 162.748 112.939V117H161.74V112.711C161.74 111.961 161.219 111.48 160.422 111.48C159.596 111.48 158.957 112.195 158.957 113.086V117H157.949ZM168.695 119.285C168.561 119.285 168.385 119.273 168.244 119.25V118.389C168.367 118.412 168.525 118.418 168.666 118.418C169.246 118.418 169.562 118.143 169.826 117.381L169.943 117.006L167.605 110.684H168.695L170.43 115.881H170.523L172.252 110.684H173.324L170.857 117.387C170.318 118.852 169.814 119.285 168.695 119.285ZM178.357 114.076H174.514V113.121H178.357V114.076ZM180.742 109.465C180.355 109.465 180.039 109.148 180.039 108.762C180.039 108.375 180.355 108.059 180.742 108.059C181.129 108.059 181.445 108.375 181.445 108.762C181.445 109.148 181.129 109.465 180.742 109.465ZM180.238 117V110.684H181.246V117H180.238ZM183.168 117V110.684H184.129V111.68H184.223C184.539 110.982 185.154 110.572 186.121 110.572C187.539 110.572 188.33 111.41 188.33 112.91V117H187.322V113.156C187.322 112.02 186.842 111.48 185.834 111.48C184.826 111.48 184.176 112.154 184.176 113.262V117H183.168ZM190.029 112.412C190.029 111.363 191.043 110.572 192.385 110.572C193.709 110.572 194.629 111.229 194.764 112.266H193.768C193.633 111.762 193.141 111.428 192.379 111.428C191.629 111.428 191.043 111.809 191.043 112.371C191.043 112.805 191.395 113.074 192.139 113.256L193.111 113.49C194.301 113.777 194.875 114.293 194.875 115.201C194.875 116.332 193.779 117.111 192.344 117.111C190.938 117.111 189.971 116.438 189.859 115.389H190.896C191.066 115.922 191.57 116.262 192.379 116.262C193.229 116.262 193.838 115.857 193.838 115.277C193.838 114.844 193.51 114.551 192.836 114.387L191.752 114.123C190.568 113.836 190.029 113.326 190.029 112.412ZM196.82 109.049H197.828V110.684H199.234V111.527H197.828V115.102C197.828 115.846 198.109 116.162 198.766 116.162C198.947 116.162 199.047 116.156 199.234 116.139V116.988C199.035 117.023 198.842 117.047 198.643 117.047C197.342 117.047 196.82 116.566 196.82 115.359V111.527H195.801V110.684H196.82V109.049ZM200.758 117V110.684H201.719V111.621H201.812C202 111.006 202.727 110.572 203.564 110.572C203.729 110.572 203.939 110.584 204.068 110.602V111.609C203.986 111.586 203.623 111.551 203.424 111.551C202.463 111.551 201.766 112.195 201.766 113.086V117H200.758ZM210.438 110.684V117H209.477V116.01H209.383C209.066 116.713 208.393 117.111 207.426 117.111C206.008 117.111 205.27 116.268 205.27 114.773V110.684H206.277V114.527C206.277 115.664 206.699 116.191 207.707 116.191C208.82 116.191 209.43 115.529 209.43 114.422V110.684H210.438ZM217.562 112.617H216.543C216.379 111.99 215.822 111.48 214.914 111.48C213.777 111.48 213.062 112.389 213.062 113.818C213.062 115.277 213.789 116.203 214.914 116.203C215.764 116.203 216.355 115.811 216.543 115.096H217.562C217.381 116.256 216.438 117.111 214.92 117.111C213.15 117.111 212.02 115.828 212.02 113.818C212.02 111.85 213.145 110.572 214.914 110.572C216.449 110.572 217.387 111.492 217.562 112.617ZM219.59 109.049H220.598V110.684H222.004V111.527H220.598V115.102C220.598 115.846 220.879 116.162 221.535 116.162C221.717 116.162 221.816 116.156 222.004 116.139V116.988C221.805 117.023 221.611 117.047 221.412 117.047C220.111 117.047 219.59 116.566 219.59 115.359V111.527H218.57V110.684H219.59V109.049ZM224.055 109.465C223.668 109.465 223.352 109.148 223.352 108.762C223.352 108.375 223.668 108.059 224.055 108.059C224.441 108.059 224.758 108.375 224.758 108.762C224.758 109.148 224.441 109.465 224.055 109.465ZM223.551 117V110.684H224.559V117H223.551ZM229.076 117.111C227.277 117.111 226.164 115.869 226.164 113.842C226.164 111.809 227.277 110.572 229.076 110.572C230.875 110.572 231.988 111.809 231.988 113.842C231.988 115.869 230.875 117.111 229.076 117.111ZM229.076 116.203C230.271 116.203 230.945 115.336 230.945 113.842C230.945 112.342 230.271 111.48 229.076 111.48C227.881 111.48 227.207 112.342 227.207 113.842C227.207 115.336 227.881 116.203 229.076 116.203ZM233.57 117V110.684H234.531V111.68H234.625C234.941 110.982 235.557 110.572 236.523 110.572C237.941 110.572 238.732 111.41 238.732 112.91V117H237.725V113.156C237.725 112.02 237.244 111.48 236.236 111.48C235.229 111.48 234.578 112.154 234.578 113.262V117H233.57ZM240.432 112.412C240.432 111.363 241.445 110.572 242.787 110.572C244.111 110.572 245.031 111.229 245.166 112.266H244.17C244.035 111.762 243.543 111.428 242.781 111.428C242.031 111.428 241.445 111.809 241.445 112.371C241.445 112.805 241.797 113.074 242.541 113.256L243.514 113.49C244.703 113.777 245.277 114.293 245.277 115.201C245.277 116.332 244.182 117.111 242.746 117.111C241.34 117.111 240.373 116.438 240.262 115.389H241.299C241.469 115.922 241.973 116.262 242.781 116.262C243.631 116.262 244.24 115.857 244.24 115.277C244.24 114.844 243.912 114.551 243.238 114.387L242.154 114.123C240.971 113.836 240.432 113.326 240.432 112.412ZM247.691 117.059C247.275 117.059 246.93 116.713 246.93 116.297C246.93 115.875 247.275 115.535 247.691 115.535C248.113 115.535 248.453 115.875 248.453 116.297C248.453 116.713 248.113 117.059 247.691 117.059ZM250.422 117V110.684H251.383V111.68H251.477C251.764 110.977 252.396 110.572 253.24 110.572C254.096 110.572 254.693 111.023 254.986 111.68H255.08C255.42 111.012 256.141 110.572 257.014 110.572C258.303 110.572 259.023 111.311 259.023 112.635V117H258.016V112.869C258.016 111.938 257.576 111.48 256.686 111.48C255.807 111.48 255.221 112.137 255.221 112.939V117H254.213V112.711C254.213 111.961 253.691 111.48 252.895 111.48C252.068 111.48 251.43 112.195 251.43 113.086V117H250.422ZM263.201 117.111C261.584 117.111 260.547 115.828 260.547 113.842C260.547 111.861 261.596 110.572 263.201 110.572C264.08 110.572 264.824 110.988 265.182 111.68H265.27V108.176H266.277V117H265.316V115.992H265.223C264.824 116.695 264.074 117.111 263.201 117.111ZM263.436 111.48C262.287 111.48 261.59 112.371 261.59 113.842C261.59 115.318 262.281 116.203 263.436 116.203C264.584 116.203 265.293 115.301 265.293 113.842C265.293 112.395 264.578 111.48 263.436 111.48Z" fill="var(--vscode-foreground,
        var(--vscode-foreground, #cccccc))" />
              </g>
              <path d="M278 114.107L274.827 117.327L274.173 116.673L277.393 113.5L274.173 110.327L274.827 109.673L278 112.893L281.173 109.673L281.827 110.327L278.607 113.5L281.827 116.673L281.173 117.327L278 114.107Z" fill="var(--vscode-descriptionForeground,
        var(--vscode-descriptionForeground, #9d9d9d))" />
            </g>
          </g>
          <g>
            <g>
              <path d="M35.1221 143L34.2017 140.378H30.5581L29.6377 143H28.438L31.8149 133.84H32.9448L36.3218 143H35.1221ZM32.3291 135.319L30.8945 139.407H33.8652L32.4307 135.319H32.3291ZM37.5024 138.03C37.5024 136.894 38.6006 136.037 40.0542 136.037C41.4888 136.037 42.4854 136.748 42.6313 137.871H41.5522C41.4062 137.325 40.873 136.963 40.0479 136.963C39.2354 136.963 38.6006 137.376 38.6006 137.985C38.6006 138.455 38.9814 138.747 39.7876 138.944L40.8413 139.198C42.1299 139.509 42.752 140.067 42.752 141.051C42.752 142.276 41.5649 143.121 40.0098 143.121C38.4863 143.121 37.439 142.391 37.3184 141.254H38.4419C38.626 141.832 39.1719 142.2 40.0479 142.2C40.9683 142.2 41.6284 141.762 41.6284 141.134C41.6284 140.664 41.2729 140.347 40.543 140.169L39.3687 139.883C38.0864 139.572 37.5024 139.02 37.5024 138.03ZM45.7227 139.147L48.6934 136.157H50.0327L47.0874 139.09L50.2295 143H48.8394L46.2749 139.794L45.6211 140.404V143H44.5293V133.44H45.6211V139.147H45.7227ZM59.1099 143H57.98L54.603 133.84H55.8027L58.4941 141.521H58.5957L61.2871 133.84H62.4868L59.1099 143ZM63.5278 140.607H64.6831C64.8228 141.565 65.7368 142.175 67.0381 142.175C68.2695 142.175 69.1772 141.508 69.1772 140.601C69.1772 139.82 68.606 139.325 67.3428 139.007L66.1685 138.703C64.5117 138.284 63.7944 137.535 63.7944 136.233C63.7944 134.678 65.0957 133.625 67.0317 133.625C68.8027 133.625 70.123 134.678 70.2183 136.157H69.0693C68.9106 135.218 68.1362 134.659 66.9937 134.659C65.7749 134.659 64.9688 135.269 64.9688 136.195C64.9688 136.913 65.4702 137.325 66.7334 137.649L67.6919 137.903C69.5898 138.379 70.3516 139.115 70.3516 140.461C70.3516 142.143 69.0249 143.216 66.9302 143.216C64.9878 143.216 63.6484 142.188 63.5278 140.607ZM79.6128 143.216C77.1245 143.216 75.5693 141.375 75.5693 138.423C75.5693 135.465 77.1182 133.625 79.6064 133.625C81.5361 133.625 83.0405 134.837 83.3135 136.602H82.1519C81.8472 135.421 80.8696 134.678 79.6064 134.678C77.8481 134.678 76.7437 136.125 76.7437 138.423C76.7437 140.721 77.8481 142.162 79.6128 142.162C80.8887 142.162 81.8599 141.508 82.1519 140.448H83.3135C83.0088 142.13 81.5615 143.216 79.6128 143.216ZM87.9028 143.121C85.9541 143.121 84.748 141.775 84.748 139.579C84.748 137.376 85.9541 136.037 87.9028 136.037C89.8516 136.037 91.0576 137.376 91.0576 139.579C91.0576 141.775 89.8516 143.121 87.9028 143.121ZM87.9028 142.137C89.1978 142.137 89.9277 141.197 89.9277 139.579C89.9277 137.954 89.1978 137.021 87.9028 137.021C86.6079 137.021 85.8779 137.954 85.8779 139.579C85.8779 141.197 86.6079 142.137 87.9028 142.137ZM95.3042 143.121C93.5522 143.121 92.4287 141.73 92.4287 139.579C92.4287 137.433 93.5649 136.037 95.3042 136.037C96.2563 136.037 97.0625 136.487 97.4497 137.236H97.5449V133.44H98.6367V143H97.5957V141.908H97.4941C97.0625 142.67 96.25 143.121 95.3042 143.121ZM95.5581 137.021C94.314 137.021 93.5586 137.985 93.5586 139.579C93.5586 141.178 94.3076 142.137 95.5581 142.137C96.8022 142.137 97.5703 141.159 97.5703 139.579C97.5703 138.011 96.7959 137.021 95.5581 137.021ZM105.289 141.229H106.381C106.063 142.397 104.997 143.121 103.499 143.121C101.601 143.121 100.414 141.75 100.414 139.585C100.414 137.433 101.62 136.037 103.499 136.037C105.346 136.037 106.47 137.351 106.47 139.477V139.896H101.55V139.947C101.607 141.299 102.363 142.156 103.524 142.156C104.407 142.156 105.003 141.832 105.289 141.229ZM103.486 137.001C102.395 137.001 101.633 137.801 101.55 139.014H105.321C105.295 137.801 104.572 137.001 103.486 137.001ZM114.665 143.121C112.716 143.121 111.51 141.775 111.51 139.579C111.51 137.376 112.716 136.037 114.665 136.037C116.613 136.037 117.819 137.376 117.819 139.579C117.819 141.775 116.613 143.121 114.665 143.121ZM114.665 142.137C115.959 142.137 116.689 141.197 116.689 139.579C116.689 137.954 115.959 137.021 114.665 137.021C113.37 137.021 112.64 137.954 112.64 139.579C112.64 141.197 113.37 142.137 114.665 142.137ZM119.533 143V136.157H120.574V137.173H120.676C120.879 136.506 121.666 136.037 122.574 136.037C122.751 136.037 122.98 136.049 123.12 136.068V137.16C123.031 137.135 122.637 137.097 122.421 137.097C121.38 137.097 120.625 137.795 120.625 138.76V143H119.533ZM128.61 134.386H129.702V136.157H131.226V137.071H129.702V140.943C129.702 141.75 130.007 142.092 130.718 142.092C130.915 142.092 131.022 142.086 131.226 142.067V142.987C131.01 143.025 130.8 143.051 130.584 143.051C129.175 143.051 128.61 142.53 128.61 141.223V137.071H127.506V136.157H128.61V134.386ZM133.46 145.476C133.314 145.476 133.124 145.463 132.971 145.438V144.504C133.104 144.53 133.276 144.536 133.428 144.536C134.057 144.536 134.399 144.238 134.685 143.413L134.812 143.006L132.279 136.157H133.46L135.339 141.788H135.44L137.313 136.157H138.475L135.802 143.419C135.218 145.006 134.672 145.476 133.46 145.476ZM143.267 136.037C145.013 136.037 146.143 137.427 146.143 139.579C146.143 141.718 145.006 143.121 143.267 143.121C142.29 143.121 141.502 142.695 141.128 141.972H141.026V145.285H139.935V136.157H140.976V137.3H141.077C141.515 136.513 142.334 136.037 143.267 136.037ZM143.007 142.137C144.264 142.137 145.013 141.178 145.013 139.579C145.013 137.979 144.264 137.021 143.013 137.021C141.775 137.021 140.995 138.004 140.995 139.579C140.995 141.146 141.775 142.137 143.007 142.137ZM152.389 141.229H153.48C153.163 142.397 152.097 143.121 150.599 143.121C148.701 143.121 147.514 141.75 147.514 139.585C147.514 137.433 148.72 136.037 150.599 136.037C152.446 136.037 153.569 137.351 153.569 139.477V139.896H148.65V139.947C148.707 141.299 149.462 142.156 150.624 142.156C151.506 142.156 152.103 141.832 152.389 141.229ZM150.586 137.001C149.494 137.001 148.732 137.801 148.65 139.014H152.42C152.395 137.801 151.671 137.001 150.586 137.001ZM158.901 144.949H157.975L161.275 133.44H162.202L158.901 144.949ZM167.407 143V137.071H166.271V136.157H167.407V135.396C167.407 134.031 168.093 133.377 169.394 133.377C169.661 133.377 169.902 133.396 170.13 133.44V134.329C169.997 134.304 169.813 134.297 169.616 134.297C168.829 134.297 168.499 134.678 168.499 135.427V136.157H170.067V137.071H168.499V143H167.407ZM174.18 143.121C172.231 143.121 171.025 141.775 171.025 139.579C171.025 137.376 172.231 136.037 174.18 136.037C176.129 136.037 177.335 137.376 177.335 139.579C177.335 141.775 176.129 143.121 174.18 143.121ZM174.18 142.137C175.475 142.137 176.205 141.197 176.205 139.579C176.205 137.954 175.475 137.021 174.18 137.021C172.885 137.021 172.155 137.954 172.155 139.579C172.155 141.197 172.885 142.137 174.18 142.137ZM179.049 143V136.157H180.09V137.173H180.191C180.395 136.506 181.182 136.037 182.089 136.037C182.267 136.037 182.496 136.049 182.635 136.068V137.16C182.546 137.135 182.153 137.097 181.937 137.097C180.896 137.097 180.141 137.795 180.141 138.76V143H179.049ZM193.331 138.252H192.227C192.049 137.573 191.446 137.021 190.462 137.021C189.23 137.021 188.456 138.004 188.456 139.553C188.456 141.134 189.243 142.137 190.462 142.137C191.382 142.137 192.023 141.711 192.227 140.937H193.331C193.134 142.194 192.112 143.121 190.468 143.121C188.551 143.121 187.326 141.73 187.326 139.553C187.326 137.42 188.545 136.037 190.462 136.037C192.125 136.037 193.141 137.033 193.331 138.252ZM197.755 143.121C195.807 143.121 194.601 141.775 194.601 139.579C194.601 137.376 195.807 136.037 197.755 136.037C199.704 136.037 200.91 137.376 200.91 139.579C200.91 141.775 199.704 143.121 197.755 143.121ZM197.755 142.137C199.05 142.137 199.78 141.197 199.78 139.579C199.78 137.954 199.05 137.021 197.755 137.021C196.46 137.021 195.73 137.954 195.73 139.579C195.73 141.197 196.46 142.137 197.755 142.137ZM202.624 143V136.157H203.665V137.236H203.767C204.078 136.475 204.763 136.037 205.677 136.037C206.604 136.037 207.251 136.525 207.569 137.236H207.67C208.039 136.513 208.819 136.037 209.765 136.037C211.162 136.037 211.942 136.836 211.942 138.271V143H210.851V138.525C210.851 137.516 210.375 137.021 209.41 137.021C208.458 137.021 207.823 137.731 207.823 138.601V143H206.731V138.354C206.731 137.541 206.166 137.021 205.303 137.021C204.408 137.021 203.716 137.795 203.716 138.76V143H202.624ZM213.936 143V136.157H214.977V137.236H215.078C215.389 136.475 216.075 136.037 216.989 136.037C217.916 136.037 218.563 136.525 218.88 137.236H218.982C219.35 136.513 220.131 136.037 221.077 136.037C222.473 136.037 223.254 136.836 223.254 138.271V143H222.162V138.525C222.162 137.516 221.686 137.021 220.721 137.021C219.769 137.021 219.134 137.731 219.134 138.601V143H218.042V138.354C218.042 137.541 217.478 137.021 216.614 137.021C215.719 137.021 215.027 137.795 215.027 138.76V143H213.936ZM227.151 143.121C225.825 143.121 224.841 142.333 224.841 141.083C224.841 139.858 225.742 139.153 227.335 139.058L229.31 138.938V138.315C229.31 137.471 228.783 137.008 227.761 137.008C226.942 137.008 226.371 137.319 226.218 137.858H225.114C225.26 136.76 226.339 136.037 227.799 136.037C229.468 136.037 230.401 136.894 230.401 138.315V143H229.36V141.991H229.259C228.814 142.721 228.065 143.121 227.151 143.121ZM227.354 142.162C228.478 142.162 229.31 141.426 229.31 140.448V139.82L227.469 139.94C226.428 140.01 225.971 140.372 225.971 141.058C225.971 141.756 226.561 142.162 227.354 142.162ZM232.42 143V136.157H233.461V137.236H233.562C233.905 136.481 234.572 136.037 235.619 136.037C237.155 136.037 238.012 136.944 238.012 138.569V143H236.92V138.836C236.92 137.604 236.4 137.021 235.308 137.021C234.216 137.021 233.512 137.75 233.512 138.95V143H232.42ZM242.544 143.121C240.792 143.121 239.669 141.73 239.669 139.579C239.669 137.433 240.805 136.037 242.544 136.037C243.497 136.037 244.303 136.487 244.69 137.236H244.785V133.44H245.877V143H244.836V141.908H244.734C244.303 142.67 243.49 143.121 242.544 143.121ZM242.798 137.021C241.554 137.021 240.799 137.985 240.799 139.579C240.799 141.178 241.548 142.137 242.798 142.137C244.042 142.137 244.811 141.159 244.811 139.579C244.811 138.011 244.036 137.021 242.798 137.021ZM247.838 138.03C247.838 136.894 248.937 136.037 250.39 136.037C251.825 136.037 252.821 136.748 252.967 137.871H251.888C251.742 137.325 251.209 136.963 250.384 136.963C249.571 136.963 248.937 137.376 248.937 137.985C248.937 138.455 249.317 138.747 250.124 138.944L251.177 139.198C252.466 139.509 253.088 140.067 253.088 141.051C253.088 142.276 251.901 143.121 250.346 143.121C248.822 143.121 247.775 142.391 247.654 141.254H248.778C248.962 141.832 249.508 142.2 250.384 142.2C251.304 142.2 251.964 141.762 251.964 141.134C251.964 140.664 251.609 140.347 250.879 140.169L249.705 139.883C248.422 139.572 247.838 139.02 247.838 138.03Z" fill="var(--vscode-colors-input-placeholderForeground,
        var(--vscode-colors-input-placeholderForeground, #989898))" />
            </g>
          </g>
          <g>
            <g>
              <g>
                <g>
                  <path d="M33 167.5C33.663 167.5 34.2989 167.236 34.7678 166.767C35.2366 166.298 35.5 165.663 35.5 165V160.5C35.5 159.836 35.2366 159.201 34.7678 158.732C34.2989 158.263 33.663 158 33 158C32.337 158 31.7011 158.263 31.2322 158.732C30.7634 159.201 30.5 159.836 30.5 160.5V165C30.5 165.663 30.7634 166.298 31.2322 166.767C31.7011 167.236 32.337 167.5 33 167.5ZM31.5 160.5C31.5 160.102 31.658 159.72 31.9393 159.439C32.2206 159.158 32.6022 159 33 159C33.3978 159 33.7794 159.158 34.0607 159.439C34.342 159.72 34.5 160.102 34.5 160.5V165C34.5 165.397 34.342 165.779 34.0607 166.06C33.7794 166.341 33.3978 166.5 33 166.5C32.6022 166.5 32.2206 166.341 31.9393 166.06C31.658 165.779 31.5 165.397 31.5 165V160.5ZM33.5 169.472V171H35.5V172H30.5V171H32.5V169.472C31.4 169.349 30.3839 168.824 29.6459 167.999C28.908 167.174 28.5 166.106 28.5 165H29.5C29.5 165.928 29.8687 166.818 30.5251 167.474C31.1815 168.131 32.0717 168.5 33 168.5C33.9283 168.5 34.8185 168.131 35.4749 167.474C36.1313 166.818 36.5 165.928 36.5 165H37.5C37.5 166.106 37.092 167.174 36.3541 167.999C35.6161 168.824 34.6 169.349 33.5 169.472Z" fill="var(--vscode-icon-foreground,
        #CCCCCC)" />
                </g>
              </g>
              <g>
                <g>
                  <path d="M64.1802 169.528C64.4418 169.803 64.5874 170.168 64.5875 170.547C64.5875 170.927 64.4418 171.292 64.1802 171.567C63.9835 171.769 63.7299 171.907 63.4537 171.963C63.1777 172.019 62.8911 171.991 62.6314 171.882C62.4654 171.809 62.3164 171.701 62.1939 171.567L59.0523 168.365L59.731 167.686L62.8629 170.88C62.905 170.927 62.9577 170.962 63.0162 170.985C63.1311 171.031 63.2596 171.031 63.3746 170.985C63.433 170.962 63.4858 170.927 63.5279 170.88C63.5718 170.837 63.6061 170.784 63.6285 170.727C63.651 170.668 63.663 170.606 63.6636 170.543C63.6626 170.481 63.6505 170.419 63.6285 170.36C63.6061 170.302 63.5719 170.25 63.5279 170.207L60.4 167.017L61.0738 166.343L64.1802 169.528ZM62.2203 158.004C62.6784 158.01 63.1334 158.087 63.5679 158.232L63.7466 159.024L61.691 161.18L62.8853 162.397L64.9937 160.301L65.772 160.485C65.9136 160.93 65.9805 161.396 65.9693 161.863C65.9719 162.883 65.5726 163.865 64.858 164.593C64.5101 164.951 64.0941 165.237 63.6343 165.431C63.1745 165.626 62.6796 165.726 62.1802 165.726C61.6843 165.726 61.1934 165.627 60.7369 165.433C59.0525 167.187 56.0864 170.18 54.5377 171.637C54.3031 171.848 53.9997 171.968 53.6841 171.974C53.4986 171.965 53.3161 171.922 53.1461 171.847C52.9811 171.766 52.8326 171.655 52.7086 171.519C52.5716 171.396 52.4601 171.247 52.3804 171.082C52.3003 170.916 52.254 170.736 52.2447 170.552C52.2181 170.207 52.3201 169.864 52.5298 169.589C53.9606 168.093 56.9134 165.105 58.7027 163.355C58.3161 162.404 58.3162 161.34 58.7027 160.389C58.9035 159.912 59.2015 159.481 59.5777 159.124C59.9156 158.771 60.318 158.486 60.7632 158.285C61.2244 158.092 61.7206 157.996 62.2203 158.004ZM59.2056 164.217C57.4425 165.958 54.6209 168.806 53.2515 170.263C53.1203 170.416 53.2512 170.687 53.3912 170.832C53.4199 170.876 53.4594 170.914 53.5054 170.941C53.5485 170.97 53.5974 170.991 53.649 170.999C53.6982 171.007 53.7492 171.007 53.7984 170.999C53.8487 170.987 53.8955 170.962 53.9341 170.928C55.426 169.498 58.2084 166.684 59.9146 164.934C59.7797 164.83 59.6522 164.716 59.5338 164.593C59.4164 164.475 59.3066 164.35 59.2056 164.217ZM62.2115 158.967C61.8434 158.966 61.4785 159.038 61.1392 159.181C60.7821 159.323 60.459 159.538 60.19 159.812C59.921 160.086 59.7122 160.414 59.5777 160.774C59.3757 161.303 59.3277 161.879 59.44 162.434C59.5523 162.989 59.8197 163.501 60.2115 163.911C60.7464 164.435 61.4661 164.729 62.2154 164.729C62.9647 164.729 63.6844 164.435 64.2193 163.911C64.7545 163.364 65.0529 162.628 65.0504 161.863V161.605L63.2047 163.42H62.5435L60.649 161.535V160.839L62.4654 158.967H62.2115ZM56.3267 160.922L56.5455 161.36L56.4888 163.009V163.053L57.1539 163.731L56.4752 164.405L55.7711 163.687H54.2398L53.816 163.473L51.9781 160.555L52.0435 159.956L52.8746 159.107L53.4654 159.041L56.3267 160.922ZM53.0015 160.34L54.4937 162.703H55.5699L55.6089 161.579L53.2945 160.056L53.0015 160.34Z" fill="var(--vscode-colors-icon-foreground,
        var(--vscode-colors-icon-foreground, #cccccc))" />
                </g>
              </g>
            </g>
            <g>
              <g>
                <g>
                  <g>
                    <g>
                      <path d="M230.939 169.5L230.09 167.08H226.727L225.877 169.5H224.77L227.887 161.045H228.93L232.047 169.5H230.939ZM228.361 162.41L227.037 166.184H229.779L228.455 162.41H228.361ZM235.65 171.926C234.127 171.926 233.154 171.24 233.002 170.197H234.068C234.18 170.713 234.742 171.047 235.65 171.047C236.781 171.047 237.455 170.49 237.455 169.559V168.316H237.361C236.963 169.014 236.248 169.406 235.381 169.406C233.746 169.406 232.732 168.141 232.732 166.248C232.732 164.355 233.758 163.072 235.381 163.072C236.266 163.072 237.045 163.506 237.408 164.186H237.502V163.184H238.463V169.611C238.463 171.023 237.373 171.926 235.65 171.926ZM235.604 168.516C236.775 168.516 237.479 167.625 237.479 166.248C237.479 164.871 236.77 163.98 235.604 163.98C234.432 163.98 233.775 164.871 233.775 166.248C233.775 167.625 234.432 168.516 235.604 168.516ZM244.545 167.865H245.553C245.26 168.943 244.275 169.611 242.893 169.611C241.141 169.611 240.045 168.346 240.045 166.348C240.045 164.361 241.158 163.072 242.893 163.072C244.598 163.072 245.635 164.285 245.635 166.248V166.635H241.094V166.682C241.146 167.93 241.844 168.721 242.916 168.721C243.73 168.721 244.281 168.422 244.545 167.865ZM242.881 163.963C241.873 163.963 241.17 164.701 241.094 165.82H244.574C244.551 164.701 243.883 163.963 242.881 163.963ZM247.217 169.5V163.184H248.178V164.18H248.271C248.588 163.482 249.203 163.072 250.17 163.072C251.588 163.072 252.379 163.91 252.379 165.41V169.5H251.371V165.656C251.371 164.52 250.891 163.98 249.883 163.98C248.875 163.98 248.225 164.654 248.225 165.762V169.5H247.217ZM254.646 161.549H255.654V163.184H257.061V164.027H255.654V167.602C255.654 168.346 255.936 168.662 256.592 168.662C256.773 168.662 256.873 168.656 257.061 168.639V169.488C256.861 169.523 256.668 169.547 256.469 169.547C255.168 169.547 254.646 169.066 254.646 167.859V164.027H253.627V163.184H254.646V161.549Z" fill="var(--vscode-input-foreground,
        #CCCCCC)" />
                    </g>
                    <g>
                      <path d="M268 166.56L271.24 163.28L271.72 163.76L268.2 167.24H267.76L264.24 163.76L264.72 163.28L268 166.56Z" fill="var(--vscode-input-foreground,
        #CCCCCC)" />
                    </g>
                  </g>
                </g>
                <g>
                  <g>
                    <rect x="283" y="154" width="70" height="22" rx="4" fill="var(--vscode-inputOption-hoverBackground,
        #5A5D5E)" fill-opacity="0.313726" />
                    <g>
                      <path d="M297.475 166.23C297.475 168.316 296.045 169.699 293.883 169.699C291.545 169.699 290.051 167.977 290.051 165.27C290.051 162.598 291.568 160.846 293.883 160.846C295.758 160.846 297.117 161.889 297.422 163.564H296.35C295.986 162.422 295.137 161.818 293.883 161.818C292.207 161.818 291.135 163.166 291.135 165.27C291.135 167.402 292.189 168.727 293.889 168.727C295.4 168.727 296.426 167.76 296.426 166.33V166.125H294.047V165.199H297.475V166.23ZM299.344 161.045H302.537C304.137 161.045 305.244 162.17 305.244 163.781C305.244 165.363 304.113 166.482 302.525 166.482H300.398V169.5H299.344V161.045ZM300.398 161.982V165.545H302.262C303.463 165.545 304.16 164.9 304.16 163.781C304.16 162.621 303.486 161.982 302.262 161.982H300.398ZM310.225 169.5H309.17V161.994H306.445V161.045H312.949V161.994H310.225V169.5ZM321.691 169.5V167.748H317.572V166.787C318.715 164.871 320.01 162.809 321.193 161.045H322.723V166.805H323.924V167.748H322.723V169.5H321.691ZM318.65 166.74V166.811H321.697V162.023H321.627C320.678 163.441 319.57 165.188 318.65 166.74ZM328.154 169.611C326.355 169.611 325.242 168.369 325.242 166.342C325.242 164.309 326.355 163.072 328.154 163.072C329.953 163.072 331.066 164.309 331.066 166.342C331.066 168.369 329.953 169.611 328.154 169.611ZM328.154 168.703C329.35 168.703 330.023 167.836 330.023 166.342C330.023 164.842 329.35 163.98 328.154 163.98C326.959 163.98 326.285 164.842 326.285 166.342C326.285 167.836 326.959 168.703 328.154 168.703Z" fill="var(--vscode-input-foreground,
        #CCCCCC)" />
                    </g>
                    <g>
                      <path d="M342 166.56L345.24 163.28L345.72 163.76L342.2 167.24H341.76L338.24 163.76L338.72 163.28L342 166.56Z" fill="var(--vscode-input-foreground,
        #CCCCCC)" />
                    </g>
                  </g>
                </g>
              </g>
              <g>
                <g opacity="0.4">
                  <g>
                    <path d="M360.013 158.92L360.76 158.493L373.987 164.467V165.373L360.76 171.347L360.013 170.92L361.56 165L360.013 158.92ZM362.627 165.48L361.347 170.12L372.493 164.893L361.347 159.827L362.627 164.413L368.013 164.52V165.48H362.627Z" fill="var(--vscode-disabledForeground,
        #CCCCCC)" />
                  </g>
                  <g>
                    <path d="M385 166.56L388.24 163.28L388.72 163.76L385.2 167.24H384.76L381.24 163.76L381.72 163.28L385 166.56Z" fill="var(--vscode-disabledForeground,
        #CCCCCC)" />
                  </g>
                </g>
              </g>
            </g>
          </g>
        </g>
      </g>
    </g>
    <g filter="url(#filter0_ddd_2738_10289)">
      <rect x="283" y="20" width="163" height="129" rx="6" fill="var(--vscode-dropdown-background, #3c3c3c)" shape-rendering="crispEdges" />
      <g>
        <path d="M317.907 41.2222C317.06 41.2222 316.326 41.0275 315.704 40.6382C315.086 40.2489 314.61 39.6966 314.276 38.9814C313.942 38.2663 313.774 37.4157 313.774 36.4297V36.417C313.774 35.4268 313.942 34.5741 314.276 33.8589C314.61 33.1437 315.086 32.5915 315.704 32.2021C316.322 31.8128 317.056 31.6182 317.907 31.6182C318.58 31.6182 319.187 31.7515 319.729 32.0181C320.274 32.2804 320.721 32.6444 321.068 33.1099C321.419 33.5754 321.633 34.1107 321.709 34.7158V34.7539H320.293L320.287 34.7285C320.202 34.3519 320.048 34.026 319.824 33.751C319.599 33.4759 319.324 33.2622 318.999 33.1099C318.673 32.9575 318.309 32.8813 317.907 32.8813C317.361 32.8813 316.887 33.0252 316.485 33.313C316.087 33.6007 315.778 34.0091 315.558 34.5381C315.342 35.0628 315.234 35.6891 315.234 36.417V36.4297C315.234 37.1491 315.342 37.7733 315.558 38.3022C315.778 38.8312 316.087 39.2396 316.485 39.5273C316.887 39.8151 317.363 39.959 317.913 39.959C318.315 39.959 318.679 39.8913 319.005 39.7559C319.335 39.6204 319.61 39.4279 319.83 39.1782C320.05 38.9243 320.2 38.626 320.281 38.2832L320.293 38.2578H321.715L321.709 38.2896C321.62 38.8778 321.404 39.3919 321.062 39.832C320.719 40.2721 320.279 40.6149 319.741 40.8604C319.204 41.1016 318.592 41.2222 317.907 41.2222ZM323.486 41V31.4023H324.864V41H323.486ZM328.806 41.1143C328.37 41.1143 327.978 41.0317 327.631 40.8667C327.289 40.6974 327.018 40.4583 326.819 40.1494C326.62 39.8405 326.521 39.4787 326.521 39.064V39.0513C326.521 38.6366 326.62 38.2832 326.819 37.9912C327.022 37.6992 327.314 37.4707 327.695 37.3057C328.08 37.1364 328.545 37.0348 329.091 37.001L331.637 36.8486V37.8198L329.282 37.9722C328.808 38.0018 328.459 38.1034 328.234 38.2769C328.01 38.4461 327.898 38.6852 327.898 38.9941V39.0068C327.898 39.32 328.019 39.5675 328.26 39.7495C328.501 39.9272 328.806 40.0161 329.174 40.0161C329.517 40.0161 329.821 39.9484 330.088 39.813C330.359 39.6733 330.57 39.4871 330.723 39.2544C330.875 39.0174 330.951 38.7508 330.951 38.4546V36.2837C330.951 35.9028 330.833 35.613 330.596 35.4141C330.363 35.2109 330.016 35.1094 329.555 35.1094C329.17 35.1094 328.854 35.1771 328.609 35.3125C328.368 35.4479 328.207 35.6383 328.126 35.8838L328.114 35.9028H326.787L326.793 35.8584C326.848 35.4775 326.999 35.1475 327.244 34.8682C327.494 34.5846 327.82 34.3646 328.222 34.208C328.628 34.0514 329.091 33.9731 329.612 33.9731C330.192 33.9731 330.682 34.0662 331.084 34.2524C331.491 34.4344 331.798 34.6989 332.005 35.0459C332.216 35.3887 332.322 35.8013 332.322 36.2837V41H330.951V40.0225H330.85C330.714 40.2552 330.545 40.4541 330.342 40.6191C330.139 40.7799 329.908 40.9027 329.65 40.9873C329.392 41.0719 329.11 41.1143 328.806 41.1143ZM336.562 41.1333C336.046 41.1333 335.61 41.0339 335.255 40.835C334.904 40.6318 334.639 40.3398 334.461 39.959C334.288 39.5739 334.201 39.1105 334.201 38.5688V34.1064H335.579V38.2451C335.579 38.8122 335.691 39.2375 335.915 39.521C336.139 39.8045 336.505 39.9463 337.013 39.9463C337.284 39.9463 337.525 39.9061 337.737 39.8257C337.948 39.741 338.126 39.6204 338.27 39.4639C338.414 39.3073 338.52 39.119 338.587 38.8989C338.659 38.6789 338.695 38.4292 338.695 38.1499V34.1064H340.079V41H338.695V39.959H338.594C338.484 40.2044 338.333 40.416 338.143 40.5938C337.953 40.7673 337.724 40.9006 337.458 40.9937C337.195 41.0868 336.897 41.1333 336.562 41.1333ZM344.573 41.1143C343.998 41.1143 343.494 40.9704 343.062 40.6826C342.635 40.3906 342.303 39.978 342.066 39.4448C341.833 38.9116 341.717 38.2832 341.717 37.5596V37.5469C341.717 36.819 341.833 36.1885 342.066 35.6553C342.299 35.1221 342.629 34.7116 343.056 34.4238C343.484 34.1318 343.989 33.9858 344.573 33.9858C344.891 33.9858 345.187 34.0366 345.462 34.1382C345.737 34.2355 345.98 34.3752 346.192 34.5571C346.403 34.7349 346.571 34.9486 346.693 35.1982H346.795V31.4023H348.179V41H346.795V39.9146H346.693C346.558 40.1642 346.387 40.38 346.179 40.562C345.972 40.7397 345.733 40.8773 345.462 40.9746C345.191 41.0677 344.895 41.1143 344.573 41.1143ZM344.967 39.9336C345.348 39.9336 345.678 39.8384 345.957 39.6479C346.236 39.4575 346.45 39.1846 346.598 38.8291C346.746 38.4694 346.82 38.0462 346.82 37.5596V37.5469C346.82 37.056 346.744 36.6328 346.592 36.2773C346.444 35.9219 346.23 35.6489 345.951 35.4585C345.676 35.2638 345.348 35.1665 344.967 35.1665C344.586 35.1665 344.256 35.2638 343.977 35.4585C343.701 35.6489 343.49 35.9219 343.342 36.2773C343.198 36.6286 343.126 37.0518 343.126 37.5469V37.5596C343.126 38.0505 343.198 38.4736 343.342 38.8291C343.49 39.1846 343.701 39.4575 343.977 39.6479C344.256 39.8384 344.586 39.9336 344.967 39.9336ZM353.117 41.1333C352.444 41.1333 351.867 40.9894 351.384 40.7017C350.902 40.4097 350.529 39.9971 350.267 39.4639C350.009 38.9307 349.88 38.3001 349.88 37.5723V37.5659C349.88 36.8465 350.009 36.2181 350.267 35.6807C350.529 35.1432 350.898 34.7243 351.372 34.4238C351.85 34.1234 352.408 33.9731 353.047 33.9731C353.691 33.9731 354.243 34.117 354.704 34.4048C355.17 34.6925 355.527 35.0967 355.777 35.6172C356.027 36.1335 356.151 36.7386 356.151 37.4326V37.915H350.578V36.9312H355.466L354.806 37.8452V37.293C354.806 36.8021 354.729 36.3958 354.577 36.0742C354.429 35.7484 354.224 35.505 353.961 35.3442C353.699 35.1834 353.396 35.103 353.054 35.103C352.711 35.103 352.404 35.1877 352.133 35.3569C351.867 35.522 351.655 35.7674 351.499 36.0933C351.346 36.4191 351.27 36.819 351.27 37.293V37.8452C351.27 38.298 351.346 38.6852 351.499 39.0068C351.651 39.3285 351.867 39.5739 352.146 39.7432C352.43 39.9124 352.764 39.9971 353.149 39.9971C353.445 39.9971 353.699 39.9569 353.911 39.8765C354.126 39.7918 354.302 39.6882 354.438 39.5654C354.577 39.4427 354.672 39.3221 354.723 39.2036L354.749 39.1528H356.082L356.069 39.21C356.01 39.4385 355.906 39.667 355.758 39.8955C355.61 40.1198 355.413 40.325 355.167 40.5112C354.926 40.6974 354.634 40.8477 354.292 40.9619C353.953 41.0762 353.562 41.1333 353.117 41.1333ZM364.556 41.1714C363.904 41.1714 363.335 41.0614 362.848 40.8413C362.361 40.617 361.976 40.3102 361.693 39.9209C361.409 39.5316 361.244 39.0851 361.198 38.5815L361.191 38.499H362.562L362.569 38.5688C362.598 38.8439 362.698 39.0872 362.867 39.2988C363.036 39.5104 363.265 39.6776 363.553 39.8003C363.845 39.9188 364.179 39.978 364.556 39.978C364.932 39.978 365.26 39.9146 365.54 39.7876C365.819 39.6564 366.037 39.4766 366.193 39.248C366.35 39.0153 366.428 38.7508 366.428 38.4546V38.4419C366.428 37.9256 366.253 37.5299 365.901 37.2549C365.55 36.9756 365.07 36.8359 364.46 36.8359H363.35V35.7188H364.416C364.767 35.7188 365.074 35.6574 365.336 35.5347C365.599 35.4077 365.804 35.2342 365.952 35.0142C366.1 34.7941 366.174 34.5423 366.174 34.2588V34.2461C366.174 33.9499 366.111 33.6981 365.984 33.4907C365.857 33.2791 365.671 33.1183 365.425 33.0083C365.184 32.894 364.89 32.8369 364.543 32.8369C364.204 32.8369 363.904 32.894 363.642 33.0083C363.379 33.1226 363.17 33.2855 363.013 33.4971C362.857 33.7044 362.764 33.9541 362.734 34.2461L362.728 34.3032H361.382L361.388 34.2397C361.439 33.7192 361.6 33.2686 361.871 32.8877C362.146 32.5026 362.51 32.2043 362.962 31.9927C363.419 31.7769 363.946 31.6689 364.543 31.6689C365.152 31.6689 365.683 31.7705 366.136 31.9736C366.589 32.1768 366.94 32.4582 367.19 32.8179C367.44 33.1733 367.564 33.5881 367.564 34.062V34.0747C367.564 34.4556 367.48 34.792 367.311 35.084C367.146 35.3717 366.917 35.613 366.625 35.8076C366.337 35.998 366.007 36.1313 365.635 36.2075V36.2393C366.308 36.2943 366.849 36.5164 367.26 36.9058C367.67 37.2951 367.875 37.8114 367.875 38.4546V38.4673C367.875 38.992 367.734 39.4596 367.45 39.8701C367.167 40.2764 366.775 40.5959 366.276 40.8286C365.781 41.0571 365.207 41.1714 364.556 41.1714ZM370.275 41.1016C370.013 41.1016 369.79 41.0106 369.608 40.8286C369.431 40.6466 369.342 40.4287 369.342 40.1748C369.342 39.9124 369.431 39.6924 369.608 39.5146C369.79 39.3369 370.013 39.248 370.275 39.248C370.542 39.248 370.764 39.3369 370.941 39.5146C371.119 39.6924 371.208 39.9124 371.208 40.1748C371.208 40.4287 371.119 40.6466 370.941 40.8286C370.764 41.0106 370.542 41.1016 370.275 41.1016ZM376.083 41.2222C375.486 41.2222 374.957 41.1079 374.496 40.8794C374.035 40.6509 373.667 40.3398 373.392 39.9463C373.117 39.5485 372.956 39.1042 372.909 38.6133L372.903 38.5308H374.242L374.249 38.5815C374.291 38.8481 374.392 39.0915 374.553 39.3115C374.718 39.5316 374.934 39.7051 375.201 39.832C375.467 39.959 375.766 40.0225 376.096 40.0225C376.472 40.0225 376.805 39.9399 377.092 39.7749C377.38 39.6056 377.604 39.375 377.765 39.083C377.93 38.791 378.013 38.4546 378.013 38.0737V38.061C378.013 37.6844 377.93 37.3501 377.765 37.0581C377.6 36.7661 377.376 36.5397 377.092 36.3789C376.809 36.2139 376.481 36.1313 376.108 36.1313C375.833 36.1313 375.577 36.1737 375.34 36.2583C375.108 36.3387 374.9 36.4614 374.718 36.6265C374.638 36.7026 374.562 36.7852 374.49 36.874C374.418 36.9587 374.354 37.0539 374.299 37.1597H373.068L373.525 31.8403H378.857V33.0464H374.648L374.369 35.9663H374.471C374.602 35.759 374.765 35.5833 374.959 35.4395C375.158 35.2956 375.383 35.1855 375.632 35.1094C375.882 35.0332 376.146 34.9951 376.426 34.9951C377.001 34.9951 377.509 35.1263 377.949 35.3887C378.394 35.651 378.743 36.0107 378.997 36.4678C379.25 36.9248 379.377 37.4474 379.377 38.0356V38.0483C379.377 38.6704 379.236 39.2205 378.952 39.6987C378.673 40.1769 378.286 40.5514 377.791 40.8223C377.3 41.0889 376.73 41.2222 376.083 41.2222ZM387.959 41.2222C387.27 41.2222 386.669 41.1143 386.157 40.8984C385.645 40.6784 385.241 40.3737 384.944 39.9844C384.648 39.5951 384.479 39.1444 384.437 38.6323L384.43 38.5498H385.833L385.839 38.6196C385.869 38.8947 385.977 39.1338 386.163 39.3369C386.354 39.54 386.607 39.6987 386.925 39.813C387.246 39.9272 387.612 39.9844 388.023 39.9844C388.408 39.9844 388.751 39.923 389.051 39.8003C389.352 39.6776 389.587 39.5083 389.756 39.2925C389.929 39.0767 390.016 38.8291 390.016 38.5498V38.5435C390.016 38.1922 389.883 37.9002 389.616 37.6675C389.35 37.4347 388.914 37.2528 388.309 37.1216L387.306 36.9121C386.379 36.7132 385.704 36.3979 385.281 35.9663C384.858 35.5304 384.646 34.974 384.646 34.2969V34.2905C384.65 33.7616 384.792 33.2961 385.071 32.894C385.355 32.492 385.746 32.1789 386.246 31.9546C386.745 31.7303 387.318 31.6182 387.966 31.6182C388.613 31.6182 389.178 31.7303 389.661 31.9546C390.147 32.1746 390.53 32.4751 390.81 32.856C391.093 33.2368 391.252 33.6663 391.286 34.1445L391.292 34.2271H389.902L389.889 34.1445C389.851 33.8949 389.747 33.6727 389.578 33.478C389.413 33.2834 389.191 33.131 388.912 33.021C388.637 32.9067 388.315 32.8517 387.947 32.856C387.591 32.856 387.274 32.911 386.995 33.021C386.715 33.1268 386.493 33.2812 386.328 33.4844C386.167 33.6875 386.087 33.9329 386.087 34.2207V34.2271C386.087 34.5656 386.216 34.8491 386.474 35.0776C386.736 35.3019 387.162 35.4775 387.75 35.6045L388.753 35.8267C389.392 35.9621 389.91 36.1419 390.308 36.3662C390.706 36.5905 390.996 36.8677 391.178 37.1978C391.364 37.5236 391.457 37.9129 391.457 38.3657V38.3721C391.457 38.9561 391.313 39.4618 391.025 39.8892C390.742 40.3123 390.338 40.6403 389.813 40.873C389.288 41.1058 388.67 41.2222 387.959 41.2222ZM396.091 41.1333C395.418 41.1333 394.836 40.9894 394.345 40.7017C393.859 40.4139 393.484 40.0034 393.222 39.4702C392.959 38.9328 392.828 38.2959 392.828 37.5596V37.5469C392.828 36.8063 392.959 36.1694 393.222 35.6362C393.488 35.103 393.865 34.6925 394.352 34.4048C394.842 34.117 395.422 33.9731 396.091 33.9731C396.764 33.9731 397.343 34.117 397.83 34.4048C398.317 34.6883 398.691 35.0988 398.954 35.6362C399.22 36.1694 399.354 36.8063 399.354 37.5469V37.5596C399.354 38.2959 399.22 38.9328 398.954 39.4702C398.691 40.0034 398.317 40.4139 397.83 40.7017C397.348 40.9894 396.768 41.1333 396.091 41.1333ZM396.091 39.978C396.484 39.978 396.819 39.8828 397.094 39.6924C397.369 39.4977 397.578 39.2205 397.722 38.8608C397.866 38.5011 397.938 38.0674 397.938 37.5596V37.5469C397.938 37.0348 397.866 36.599 397.722 36.2393C397.578 35.8796 397.369 35.6045 397.094 35.4141C396.819 35.2194 396.484 35.1221 396.091 35.1221C395.697 35.1221 395.363 35.2194 395.088 35.4141C394.813 35.6045 394.601 35.8796 394.453 36.2393C394.309 36.599 394.237 37.0348 394.237 37.5469V37.5596C394.237 38.0674 394.309 38.5011 394.453 38.8608C394.601 39.2205 394.813 39.4977 395.088 39.6924C395.363 39.8828 395.697 39.978 396.091 39.978ZM400.991 41V34.1064H402.369V35.1475H402.477C402.646 34.7793 402.896 34.4915 403.226 34.2842C403.556 34.0768 403.972 33.9731 404.476 33.9731C405.25 33.9731 405.843 34.1953 406.253 34.6396C406.664 35.084 406.869 35.7166 406.869 36.5376V41H405.485V36.8613C405.485 36.2858 405.365 35.8584 405.124 35.5791C404.887 35.2956 404.514 35.1538 404.006 35.1538C403.672 35.1538 403.382 35.2279 403.137 35.376C402.891 35.5199 402.701 35.7272 402.565 35.998C402.434 36.2646 402.369 36.5841 402.369 36.9565V41H400.991ZM408.786 41V34.1064H410.164V35.1475H410.271C410.441 34.7793 410.69 34.4915 411.021 34.2842C411.351 34.0768 411.767 33.9731 412.271 33.9731C413.045 33.9731 413.638 34.1953 414.048 34.6396C414.459 35.084 414.664 35.7166 414.664 36.5376V41H413.28V36.8613C413.28 36.2858 413.16 35.8584 412.918 35.5791C412.681 35.2956 412.309 35.1538 411.801 35.1538C411.467 35.1538 411.177 35.2279 410.932 35.376C410.686 35.5199 410.496 35.7272 410.36 35.998C410.229 36.2646 410.164 36.5841 410.164 36.9565V41H408.786ZM419.476 41.1333C418.803 41.1333 418.225 40.9894 417.743 40.7017C417.26 40.4097 416.888 39.9971 416.625 39.4639C416.367 38.9307 416.238 38.3001 416.238 37.5723V37.5659C416.238 36.8465 416.367 36.2181 416.625 35.6807C416.888 35.1432 417.256 34.7243 417.73 34.4238C418.208 34.1234 418.767 33.9731 419.406 33.9731C420.049 33.9731 420.601 34.117 421.062 34.4048C421.528 34.6925 421.886 35.0967 422.135 35.6172C422.385 36.1335 422.51 36.7386 422.51 37.4326V37.915H416.937V36.9312H421.824L421.164 37.8452V37.293C421.164 36.8021 421.088 36.3958 420.936 36.0742C420.787 35.7484 420.582 35.505 420.32 35.3442C420.057 35.1834 419.755 35.103 419.412 35.103C419.069 35.103 418.763 35.1877 418.492 35.3569C418.225 35.522 418.014 35.7674 417.857 36.0933C417.705 36.4191 417.628 36.819 417.628 37.293V37.8452C417.628 38.298 417.705 38.6852 417.857 39.0068C418.009 39.3285 418.225 39.5739 418.504 39.7432C418.788 39.9124 419.122 39.9971 419.507 39.9971C419.804 39.9971 420.057 39.9569 420.269 39.8765C420.485 39.7918 420.66 39.6882 420.796 39.5654C420.936 39.4427 421.031 39.3221 421.082 39.2036L421.107 39.1528H422.44L422.427 39.21C422.368 39.4385 422.264 39.667 422.116 39.8955C421.968 40.1198 421.771 40.325 421.526 40.5112C421.285 40.6974 420.993 40.8477 420.65 40.9619C420.311 41.0762 419.92 41.1333 419.476 41.1333ZM426.75 41.0444C425.997 41.0444 425.451 40.9006 425.112 40.6128C424.778 40.3208 424.611 39.8447 424.611 39.1846V35.1919H423.532V34.1064H424.611V32.3672H426.02V34.1064H427.499V35.1919H426.02V38.8481C426.02 39.2205 426.094 39.4893 426.242 39.6543C426.39 39.8151 426.636 39.8955 426.979 39.8955C427.08 39.8955 427.167 39.8934 427.239 39.8892C427.315 39.8849 427.402 39.8786 427.499 39.8701V40.9746C427.389 40.9915 427.271 41.0063 427.144 41.019C427.017 41.036 426.885 41.0444 426.75 41.0444Z" fill="var(--vscode-foreground,
        var(--vscode-foreground, #cccccc))" />
      </g>
      <g>
        <path d="M302.108 61.813C301.835 61.813 301.608 61.7046 301.427 61.4878L299.159 58.7412C299.08 58.6504 299.024 58.5625 298.992 58.4775C298.96 58.3926 298.944 58.3047 298.944 58.2139C298.944 58.0059 299.013 57.8345 299.15 57.6997C299.291 57.562 299.467 57.4932 299.678 57.4932C299.912 57.4932 300.107 57.5884 300.262 57.7788L302.09 60.042L305.681 54.3687C305.771 54.231 305.865 54.1343 305.962 54.0786C306.062 54.02 306.183 53.9907 306.327 53.9907C306.538 53.9907 306.712 54.0581 306.85 54.1929C306.987 54.3276 307.056 54.4976 307.056 54.7026C307.056 54.7788 307.043 54.8579 307.017 54.9399C306.99 55.022 306.949 55.1069 306.894 55.1948L302.802 61.457C302.641 61.6943 302.41 61.813 302.108 61.813Z" fill="var(--vscode-menu-foreground,
        #CCCCCC)" />
        <path d="M317.907 63.2222C317.06 63.2222 316.326 63.0275 315.704 62.6382C315.086 62.2489 314.61 61.6966 314.276 60.9814C313.942 60.2663 313.774 59.4157 313.774 58.4297V58.417C313.774 57.4268 313.942 56.5741 314.276 55.8589C314.61 55.1437 315.086 54.5915 315.704 54.2021C316.322 53.8128 317.056 53.6182 317.907 53.6182C318.58 53.6182 319.187 53.7515 319.729 54.0181C320.274 54.2804 320.721 54.6444 321.068 55.1099C321.419 55.5754 321.633 56.1107 321.709 56.7158V56.7539H320.293L320.287 56.7285C320.202 56.3519 320.048 56.026 319.824 55.751C319.599 55.4759 319.324 55.2622 318.999 55.1099C318.673 54.9575 318.309 54.8813 317.907 54.8813C317.361 54.8813 316.887 55.0252 316.485 55.313C316.087 55.6007 315.778 56.0091 315.558 56.5381C315.342 57.0628 315.234 57.6891 315.234 58.417V58.4297C315.234 59.1491 315.342 59.7733 315.558 60.3022C315.778 60.8312 316.087 61.2396 316.485 61.5273C316.887 61.8151 317.363 61.959 317.913 61.959C318.315 61.959 318.679 61.8913 319.005 61.7559C319.335 61.6204 319.61 61.4279 319.83 61.1782C320.05 60.9243 320.2 60.626 320.281 60.2832L320.293 60.2578H321.715L321.709 60.2896C321.62 60.8778 321.404 61.3919 321.062 61.832C320.719 62.2721 320.279 62.6149 319.741 62.8604C319.204 63.1016 318.592 63.2222 317.907 63.2222ZM323.486 63V53.4023H324.864V63H323.486ZM328.806 63.1143C328.37 63.1143 327.978 63.0317 327.631 62.8667C327.289 62.6974 327.018 62.4583 326.819 62.1494C326.62 61.8405 326.521 61.4787 326.521 61.064V61.0513C326.521 60.6366 326.62 60.2832 326.819 59.9912C327.022 59.6992 327.314 59.4707 327.695 59.3057C328.08 59.1364 328.545 59.0348 329.091 59.001L331.637 58.8486V59.8198L329.282 59.9722C328.808 60.0018 328.459 60.1034 328.234 60.2769C328.01 60.4461 327.898 60.6852 327.898 60.9941V61.0068C327.898 61.32 328.019 61.5675 328.26 61.7495C328.501 61.9272 328.806 62.0161 329.174 62.0161C329.517 62.0161 329.821 61.9484 330.088 61.813C330.359 61.6733 330.57 61.4871 330.723 61.2544C330.875 61.0174 330.951 60.7508 330.951 60.4546V58.2837C330.951 57.9028 330.833 57.613 330.596 57.4141C330.363 57.2109 330.016 57.1094 329.555 57.1094C329.17 57.1094 328.854 57.1771 328.609 57.3125C328.368 57.4479 328.207 57.6383 328.126 57.8838L328.114 57.9028H326.787L326.793 57.8584C326.848 57.4775 326.999 57.1475 327.244 56.8682C327.494 56.5846 327.82 56.3646 328.222 56.208C328.628 56.0514 329.091 55.9731 329.612 55.9731C330.192 55.9731 330.682 56.0662 331.084 56.2524C331.491 56.4344 331.798 56.6989 332.005 57.0459C332.216 57.3887 332.322 57.8013 332.322 58.2837V63H330.951V62.0225H330.85C330.714 62.2552 330.545 62.4541 330.342 62.6191C330.139 62.7799 329.908 62.9027 329.65 62.9873C329.392 63.0719 329.11 63.1143 328.806 63.1143ZM336.562 63.1333C336.046 63.1333 335.61 63.0339 335.255 62.835C334.904 62.6318 334.639 62.3398 334.461 61.959C334.288 61.5739 334.201 61.1105 334.201 60.5688V56.1064H335.579V60.2451C335.579 60.8122 335.691 61.2375 335.915 61.521C336.139 61.8045 336.505 61.9463 337.013 61.9463C337.284 61.9463 337.525 61.9061 337.737 61.8257C337.948 61.741 338.126 61.6204 338.27 61.4639C338.414 61.3073 338.52 61.119 338.587 60.8989C338.659 60.6789 338.695 60.4292 338.695 60.1499V56.1064H340.079V63H338.695V61.959H338.594C338.484 62.2044 338.333 62.416 338.143 62.5938C337.953 62.7673 337.724 62.9006 337.458 62.9937C337.195 63.0868 336.897 63.1333 336.562 63.1333ZM344.573 63.1143C343.998 63.1143 343.494 62.9704 343.062 62.6826C342.635 62.3906 342.303 61.978 342.066 61.4448C341.833 60.9116 341.717 60.2832 341.717 59.5596V59.5469C341.717 58.819 341.833 58.1885 342.066 57.6553C342.299 57.1221 342.629 56.7116 343.056 56.4238C343.484 56.1318 343.989 55.9858 344.573 55.9858C344.891 55.9858 345.187 56.0366 345.462 56.1382C345.737 56.2355 345.98 56.3752 346.192 56.5571C346.403 56.7349 346.571 56.9486 346.693 57.1982H346.795V53.4023H348.179V63H346.795V61.9146H346.693C346.558 62.1642 346.387 62.38 346.179 62.562C345.972 62.7397 345.733 62.8773 345.462 62.9746C345.191 63.0677 344.895 63.1143 344.573 63.1143ZM344.967 61.9336C345.348 61.9336 345.678 61.8384 345.957 61.6479C346.236 61.4575 346.45 61.1846 346.598 60.8291C346.746 60.4694 346.82 60.0462 346.82 59.5596V59.5469C346.82 59.056 346.744 58.6328 346.592 58.2773C346.444 57.9219 346.23 57.6489 345.951 57.4585C345.676 57.2638 345.348 57.1665 344.967 57.1665C344.586 57.1665 344.256 57.2638 343.977 57.4585C343.701 57.6489 343.49 57.9219 343.342 58.2773C343.198 58.6286 343.126 59.0518 343.126 59.5469V59.5596C343.126 60.0505 343.198 60.4736 343.342 60.8291C343.49 61.1846 343.701 61.4575 343.977 61.6479C344.256 61.8384 344.586 61.9336 344.967 61.9336ZM353.117 63.1333C352.444 63.1333 351.867 62.9894 351.384 62.7017C350.902 62.4097 350.529 61.9971 350.267 61.4639C350.009 60.9307 349.88 60.3001 349.88 59.5723V59.5659C349.88 58.8465 350.009 58.2181 350.267 57.6807C350.529 57.1432 350.898 56.7243 351.372 56.4238C351.85 56.1234 352.408 55.9731 353.047 55.9731C353.691 55.9731 354.243 56.117 354.704 56.4048C355.17 56.6925 355.527 57.0967 355.777 57.6172C356.027 58.1335 356.151 58.7386 356.151 59.4326V59.915H350.578V58.9312H355.466L354.806 59.8452V59.293C354.806 58.8021 354.729 58.3958 354.577 58.0742C354.429 57.7484 354.224 57.505 353.961 57.3442C353.699 57.1834 353.396 57.103 353.054 57.103C352.711 57.103 352.404 57.1877 352.133 57.3569C351.867 57.522 351.655 57.7674 351.499 58.0933C351.346 58.4191 351.27 58.819 351.27 59.293V59.8452C351.27 60.298 351.346 60.6852 351.499 61.0068C351.651 61.3285 351.867 61.5739 352.146 61.7432C352.43 61.9124 352.764 61.9971 353.149 61.9971C353.445 61.9971 353.699 61.9569 353.911 61.8765C354.126 61.7918 354.302 61.6882 354.438 61.5654C354.577 61.4427 354.672 61.3221 354.723 61.2036L354.749 61.1528H356.082L356.069 61.21C356.01 61.4385 355.906 61.667 355.758 61.8955C355.61 62.1198 355.413 62.325 355.167 62.5112C354.926 62.6974 354.634 62.8477 354.292 62.9619C353.953 63.0762 353.562 63.1333 353.117 63.1333ZM364.556 63.1714C363.904 63.1714 363.335 63.0614 362.848 62.8413C362.361 62.617 361.976 62.3102 361.693 61.9209C361.409 61.5316 361.244 61.0851 361.198 60.5815L361.191 60.499H362.562L362.569 60.5688C362.598 60.8439 362.698 61.0872 362.867 61.2988C363.036 61.5104 363.265 61.6776 363.553 61.8003C363.845 61.9188 364.179 61.978 364.556 61.978C364.932 61.978 365.26 61.9146 365.54 61.7876C365.819 61.6564 366.037 61.4766 366.193 61.248C366.35 61.0153 366.428 60.7508 366.428 60.4546V60.4419C366.428 59.9256 366.253 59.5299 365.901 59.2549C365.55 58.9756 365.07 58.8359 364.46 58.8359H363.35V57.7188H364.416C364.767 57.7188 365.074 57.6574 365.336 57.5347C365.599 57.4077 365.804 57.2342 365.952 57.0142C366.1 56.7941 366.174 56.5423 366.174 56.2588V56.2461C366.174 55.9499 366.111 55.6981 365.984 55.4907C365.857 55.2791 365.671 55.1183 365.425 55.0083C365.184 54.894 364.89 54.8369 364.543 54.8369C364.204 54.8369 363.904 54.894 363.642 55.0083C363.379 55.1226 363.17 55.2855 363.013 55.4971C362.857 55.7044 362.764 55.9541 362.734 56.2461L362.728 56.3032H361.382L361.388 56.2397C361.439 55.7192 361.6 55.2686 361.871 54.8877C362.146 54.5026 362.51 54.2043 362.962 53.9927C363.419 53.7769 363.946 53.6689 364.543 53.6689C365.152 53.6689 365.683 53.7705 366.136 53.9736C366.589 54.1768 366.94 54.4582 367.19 54.8179C367.44 55.1733 367.564 55.5881 367.564 56.062V56.0747C367.564 56.4556 367.48 56.792 367.311 57.084C367.146 57.3717 366.917 57.613 366.625 57.8076C366.337 57.998 366.007 58.1313 365.635 58.2075V58.2393C366.308 58.2943 366.849 58.5164 367.26 58.9058C367.67 59.2951 367.875 59.8114 367.875 60.4546V60.4673C367.875 60.992 367.734 61.4596 367.45 61.8701C367.167 62.2764 366.775 62.5959 366.276 62.8286C365.781 63.0571 365.207 63.1714 364.556 63.1714ZM370.275 63.1016C370.013 63.1016 369.79 63.0106 369.608 62.8286C369.431 62.6466 369.342 62.4287 369.342 62.1748C369.342 61.9124 369.431 61.6924 369.608 61.5146C369.79 61.3369 370.013 61.248 370.275 61.248C370.542 61.248 370.764 61.3369 370.941 61.5146C371.119 61.6924 371.208 61.9124 371.208 62.1748C371.208 62.4287 371.119 62.6466 370.941 62.8286C370.764 63.0106 370.542 63.1016 370.275 63.1016ZM373.258 63L377.295 55.1416V55.0464H372.497V53.8403H378.736V55.0781L374.756 63H373.258ZM387.236 63.2222C386.546 63.2222 385.945 63.1143 385.433 62.8984C384.921 62.6784 384.517 62.3737 384.221 61.9844C383.924 61.5951 383.755 61.1444 383.713 60.6323L383.707 60.5498H385.109L385.116 60.6196C385.145 60.8947 385.253 61.1338 385.439 61.3369C385.63 61.54 385.884 61.6987 386.201 61.813C386.523 61.9272 386.889 61.9844 387.299 61.9844C387.684 61.9844 388.027 61.923 388.328 61.8003C388.628 61.6776 388.863 61.5083 389.032 61.2925C389.206 61.0767 389.292 60.8291 389.292 60.5498V60.5435C389.292 60.1922 389.159 59.9002 388.893 59.6675C388.626 59.4347 388.19 59.2528 387.585 59.1216L386.582 58.9121C385.655 58.7132 384.98 58.3979 384.557 57.9663C384.134 57.5304 383.922 56.974 383.922 56.2969V56.2905C383.927 55.7616 384.068 55.2961 384.348 54.894C384.631 54.492 385.023 54.1789 385.522 53.9546C386.021 53.7303 386.595 53.6182 387.242 53.6182C387.89 53.6182 388.455 53.7303 388.937 53.9546C389.424 54.1746 389.807 54.4751 390.086 54.856C390.369 55.2368 390.528 55.6663 390.562 56.1445L390.568 56.2271H389.178L389.166 56.1445C389.127 55.8949 389.024 55.6727 388.854 55.478C388.689 55.2834 388.467 55.131 388.188 55.021C387.913 54.9067 387.591 54.8517 387.223 54.856C386.868 54.856 386.55 54.911 386.271 55.021C385.992 55.1268 385.77 55.2812 385.604 55.4844C385.444 55.6875 385.363 55.9329 385.363 56.2207V56.2271C385.363 56.5656 385.492 56.8491 385.75 57.0776C386.013 57.3019 386.438 57.4775 387.026 57.6045L388.029 57.8267C388.668 57.9621 389.187 58.1419 389.584 58.3662C389.982 58.5905 390.272 58.8677 390.454 59.1978C390.64 59.5236 390.733 59.9129 390.733 60.3657V60.3721C390.733 60.9561 390.59 61.4618 390.302 61.8892C390.018 62.3123 389.614 62.6403 389.089 62.873C388.565 63.1058 387.947 63.2222 387.236 63.2222ZM395.367 63.1333C394.694 63.1333 394.112 62.9894 393.622 62.7017C393.135 62.4139 392.76 62.0034 392.498 61.4702C392.236 60.9328 392.104 60.2959 392.104 59.5596V59.5469C392.104 58.8063 392.236 58.1694 392.498 57.6362C392.765 57.103 393.141 56.6925 393.628 56.4048C394.119 56.117 394.699 55.9731 395.367 55.9731C396.04 55.9731 396.62 56.117 397.106 56.4048C397.593 56.6883 397.968 57.0988 398.23 57.6362C398.497 58.1694 398.63 58.8063 398.63 59.5469V59.5596C398.63 60.2959 398.497 60.9328 398.23 61.4702C397.968 62.0034 397.593 62.4139 397.106 62.7017C396.624 62.9894 396.044 63.1333 395.367 63.1333ZM395.367 61.978C395.761 61.978 396.095 61.8828 396.37 61.6924C396.645 61.4977 396.855 61.2205 396.999 60.8608C397.142 60.5011 397.214 60.0674 397.214 59.5596V59.5469C397.214 59.0348 397.142 58.599 396.999 58.2393C396.855 57.8796 396.645 57.6045 396.37 57.4141C396.095 57.2194 395.761 57.1221 395.367 57.1221C394.974 57.1221 394.639 57.2194 394.364 57.4141C394.089 57.6045 393.878 57.8796 393.729 58.2393C393.586 58.599 393.514 59.0348 393.514 59.5469V59.5596C393.514 60.0674 393.586 60.5011 393.729 60.8608C393.878 61.2205 394.089 61.4977 394.364 61.6924C394.639 61.8828 394.974 61.978 395.367 61.978ZM400.268 63V56.1064H401.645V57.1475H401.753C401.922 56.7793 402.172 56.4915 402.502 56.2842C402.832 56.0768 403.249 55.9731 403.752 55.9731C404.527 55.9731 405.119 56.1953 405.53 56.6396C405.94 57.084 406.146 57.7166 406.146 58.5376V63H404.762V58.8613C404.762 58.2858 404.641 57.8584 404.4 57.5791C404.163 57.2956 403.791 57.1538 403.283 57.1538C402.948 57.1538 402.659 57.2279 402.413 57.376C402.168 57.5199 401.977 57.7272 401.842 57.998C401.711 58.2646 401.645 58.5841 401.645 58.9565V63H400.268ZM408.062 63V56.1064H409.44V57.1475H409.548C409.717 56.7793 409.967 56.4915 410.297 56.2842C410.627 56.0768 411.044 55.9731 411.547 55.9731C412.322 55.9731 412.914 56.1953 413.325 56.6396C413.735 57.084 413.94 57.7166 413.94 58.5376V63H412.557V58.8613C412.557 58.2858 412.436 57.8584 412.195 57.5791C411.958 57.2956 411.585 57.1538 411.078 57.1538C410.743 57.1538 410.453 57.2279 410.208 57.376C409.963 57.5199 409.772 57.7272 409.637 57.998C409.506 58.2646 409.44 58.5841 409.44 58.9565V63H408.062ZM418.752 63.1333C418.079 63.1333 417.501 62.9894 417.019 62.7017C416.537 62.4097 416.164 61.9971 415.902 61.4639C415.644 60.9307 415.515 60.3001 415.515 59.5723V59.5659C415.515 58.8465 415.644 58.2181 415.902 57.6807C416.164 57.1432 416.532 56.7243 417.006 56.4238C417.485 56.1234 418.043 55.9731 418.682 55.9731C419.325 55.9731 419.878 56.117 420.339 56.4048C420.804 56.6925 421.162 57.0967 421.412 57.6172C421.661 58.1335 421.786 58.7386 421.786 59.4326V59.915H416.213V58.9312H421.101L420.44 59.8452V59.293C420.44 58.8021 420.364 58.3958 420.212 58.0742C420.064 57.7484 419.859 57.505 419.596 57.3442C419.334 57.1834 419.031 57.103 418.688 57.103C418.346 57.103 418.039 57.1877 417.768 57.3569C417.501 57.522 417.29 57.7674 417.133 58.0933C416.981 58.4191 416.905 58.819 416.905 59.293V59.8452C416.905 60.298 416.981 60.6852 417.133 61.0068C417.286 61.3285 417.501 61.5739 417.781 61.7432C418.064 61.9124 418.399 61.9971 418.784 61.9971C419.08 61.9971 419.334 61.9569 419.545 61.8765C419.761 61.7918 419.937 61.6882 420.072 61.5654C420.212 61.4427 420.307 61.3221 420.358 61.2036L420.383 61.1528H421.716L421.704 61.21C421.644 61.4385 421.541 61.667 421.393 61.8955C421.244 62.1198 421.048 62.325 420.802 62.5112C420.561 62.6974 420.269 62.8477 419.926 62.9619C419.588 63.0762 419.196 63.1333 418.752 63.1333ZM426.026 63.0444C425.273 63.0444 424.727 62.9006 424.389 62.6128C424.054 62.3208 423.887 61.8447 423.887 61.1846V57.1919H422.808V56.1064H423.887V54.3672H425.296V56.1064H426.775V57.1919H425.296V60.8481C425.296 61.2205 425.37 61.4893 425.519 61.6543C425.667 61.8151 425.912 61.8955 426.255 61.8955C426.356 61.8955 426.443 61.8934 426.515 61.8892C426.591 61.8849 426.678 61.8786 426.775 61.8701V62.9746C426.665 62.9915 426.547 63.0063 426.42 63.019C426.293 63.036 426.162 63.0444 426.026 63.0444Z" fill="var(--vscode-menu-foreground,
        #CCCCCC)" />
      </g>
      <g>
        <path d="M318.015 85.2222C317.359 85.2222 316.771 85.1121 316.25 84.8921C315.729 84.6678 315.285 84.3462 314.917 83.9272C314.549 83.5083 314.265 83.0047 314.066 82.4165C313.872 81.8241 313.774 81.1597 313.774 80.4233V80.4106C313.774 79.4373 313.948 78.5931 314.295 77.8779C314.642 77.1585 315.133 76.6021 315.768 76.2085C316.402 75.8149 317.145 75.6182 317.996 75.6182C318.69 75.6182 319.31 75.7409 319.855 75.9863C320.401 76.2318 320.85 76.5767 321.201 77.021C321.552 77.4611 321.783 77.9774 321.893 78.5698L321.899 78.6333H320.471L320.452 78.5698C320.291 78.0282 319.997 77.6113 319.57 77.3193C319.147 77.0273 318.622 76.8813 317.996 76.8813C317.433 76.8813 316.944 77.0252 316.529 77.313C316.115 77.6007 315.793 78.0091 315.564 78.5381C315.34 79.0628 315.228 79.6849 315.228 80.4043V80.417C315.228 80.9629 315.292 81.4538 315.418 81.8896C315.55 82.3255 315.738 82.6979 315.983 83.0068C316.229 83.3115 316.523 83.5464 316.866 83.7114C317.208 83.8765 317.596 83.959 318.027 83.959C318.527 83.959 318.965 83.8617 319.341 83.667C319.722 83.4681 320.018 83.193 320.23 82.8418C320.442 82.4906 320.549 82.0801 320.554 81.6104L320.56 81.4072H318.205V80.2583H321.969V81.3945C321.969 81.9743 321.876 82.499 321.69 82.9688C321.504 83.4385 321.237 83.8426 320.89 84.1812C320.543 84.5155 320.126 84.7736 319.64 84.9556C319.153 85.1333 318.611 85.2222 318.015 85.2222ZM324.635 81.8706V80.6772H327.136C327.754 80.6772 328.232 80.5186 328.571 80.2012C328.914 79.8796 329.085 79.4352 329.085 78.8682V78.8555C329.085 78.2799 328.914 77.8335 328.571 77.5161C328.232 77.1987 327.754 77.04 327.136 77.04H324.635V75.8403H327.492C328.093 75.8403 328.619 75.9673 329.072 76.2212C329.529 76.4709 329.887 76.8221 330.145 77.2749C330.403 77.7235 330.532 78.2461 330.532 78.8428V78.8555C330.532 79.4521 330.403 79.979 330.145 80.436C329.887 80.8888 329.529 81.2422 329.072 81.4961C328.619 81.7458 328.093 81.8706 327.492 81.8706H324.635ZM323.924 85V75.8403H325.346V85H323.924ZM334.69 85V77.0718H331.808V75.8403H338.994V77.0718H336.112V85H334.69ZM348.318 85V83.1846H343.85V81.9722C344.091 81.5575 344.336 81.1406 344.586 80.7217C344.84 80.3027 345.094 79.8838 345.348 79.4648C345.606 79.0459 345.864 78.6333 346.122 78.2271C346.38 77.8166 346.638 77.4124 346.896 77.0146C347.155 76.6126 347.409 76.2212 347.658 75.8403H349.696V81.9722H350.959V83.1846H349.696V85H348.318ZM345.221 81.9976H348.337V77.0464H348.255C348.056 77.3426 347.855 77.6494 347.652 77.9668C347.449 78.2799 347.241 78.6016 347.03 78.9316C346.822 79.2617 346.615 79.5939 346.408 79.9282C346.2 80.2625 345.997 80.5968 345.798 80.9312C345.599 81.2612 345.407 81.5871 345.221 81.9087V81.9976ZM353.39 85.1016C353.128 85.1016 352.906 85.0106 352.724 84.8286C352.546 84.6466 352.457 84.4287 352.457 84.1748C352.457 83.9124 352.546 83.6924 352.724 83.5146C352.906 83.3369 353.128 83.248 353.39 83.248C353.657 83.248 353.879 83.3369 354.057 83.5146C354.234 83.6924 354.323 83.9124 354.323 84.1748C354.323 84.4287 354.234 84.6466 354.057 84.8286C353.879 85.0106 353.657 85.1016 353.39 85.1016ZM359.198 85.2222C358.602 85.2222 358.073 85.1079 357.611 84.8794C357.15 84.6509 356.782 84.3398 356.507 83.9463C356.232 83.5485 356.071 83.1042 356.024 82.6133L356.018 82.5308H357.357L357.364 82.5815C357.406 82.8481 357.508 83.0915 357.668 83.3115C357.833 83.5316 358.049 83.7051 358.316 83.832C358.583 83.959 358.881 84.0225 359.211 84.0225C359.588 84.0225 359.92 83.9399 360.208 83.7749C360.495 83.6056 360.72 83.375 360.88 83.083C361.045 82.791 361.128 82.4546 361.128 82.0737V82.061C361.128 81.6844 361.045 81.3501 360.88 81.0581C360.715 80.7661 360.491 80.5397 360.208 80.3789C359.924 80.2139 359.596 80.1313 359.224 80.1313C358.949 80.1313 358.693 80.1737 358.456 80.2583C358.223 80.3387 358.015 80.4614 357.833 80.6265C357.753 80.7026 357.677 80.7852 357.605 80.874C357.533 80.9587 357.47 81.0539 357.415 81.1597H356.183L356.64 75.8403H361.972V77.0464H357.764L357.484 79.9663H357.586C357.717 79.759 357.88 79.5833 358.075 79.4395C358.274 79.2956 358.498 79.1855 358.748 79.1094C358.997 79.0332 359.262 78.9951 359.541 78.9951C360.117 78.9951 360.624 79.1263 361.064 79.3887C361.509 79.651 361.858 80.0107 362.112 80.4678C362.366 80.9248 362.493 81.4474 362.493 82.0356V82.0483C362.493 82.6704 362.351 83.2205 362.067 83.6987C361.788 84.1769 361.401 84.5514 360.906 84.8223C360.415 85.0889 359.846 85.2222 359.198 85.2222Z" fill="var(--vscode-menu-foreground,
        #CCCCCC)" />
      </g>
      <g>
        <path d="M318.015 107.222C317.359 107.222 316.771 107.112 316.25 106.892C315.729 106.668 315.285 106.346 314.917 105.927C314.549 105.508 314.265 105.005 314.066 104.417C313.872 103.824 313.774 103.16 313.774 102.423V102.411C313.774 101.437 313.948 100.593 314.295 99.8779C314.642 99.1585 315.133 98.6021 315.768 98.2085C316.402 97.8149 317.145 97.6182 317.996 97.6182C318.69 97.6182 319.31 97.7409 319.855 97.9863C320.401 98.2318 320.85 98.5767 321.201 99.021C321.552 99.4611 321.783 99.9774 321.893 100.57L321.899 100.633H320.471L320.452 100.57C320.291 100.028 319.997 99.6113 319.57 99.3193C319.147 99.0273 318.622 98.8813 317.996 98.8813C317.433 98.8813 316.944 99.0252 316.529 99.313C316.115 99.6007 315.793 100.009 315.564 100.538C315.34 101.063 315.228 101.685 315.228 102.404V102.417C315.228 102.963 315.292 103.454 315.418 103.89C315.55 104.326 315.738 104.698 315.983 105.007C316.229 105.312 316.523 105.546 316.866 105.711C317.208 105.876 317.596 105.959 318.027 105.959C318.527 105.959 318.965 105.862 319.341 105.667C319.722 105.468 320.018 105.193 320.23 104.842C320.442 104.491 320.549 104.08 320.554 103.61L320.56 103.407H318.205V102.258H321.969V103.395C321.969 103.974 321.876 104.499 321.69 104.969C321.504 105.438 321.237 105.843 320.89 106.181C320.543 106.515 320.126 106.774 319.64 106.956C319.153 107.133 318.611 107.222 318.015 107.222ZM324.635 103.871V102.677H327.136C327.754 102.677 328.232 102.519 328.571 102.201C328.914 101.88 329.085 101.435 329.085 100.868V100.855C329.085 100.28 328.914 99.8335 328.571 99.5161C328.232 99.1987 327.754 99.04 327.136 99.04H324.635V97.8403H327.492C328.093 97.8403 328.619 97.9673 329.072 98.2212C329.529 98.4709 329.887 98.8221 330.145 99.2749C330.403 99.7235 330.532 100.246 330.532 100.843V100.855C330.532 101.452 330.403 101.979 330.145 102.436C329.887 102.889 329.529 103.242 329.072 103.496C328.619 103.746 328.093 103.871 327.492 103.871H324.635ZM323.924 107V97.8403H325.346V107H323.924ZM334.69 107V99.0718H331.808V97.8403H338.994V99.0718H336.112V107H334.69ZM348.318 107V105.185H343.85V103.972C344.091 103.557 344.336 103.141 344.586 102.722C344.84 102.303 345.094 101.884 345.348 101.465C345.606 101.046 345.864 100.633 346.122 100.227C346.38 99.8166 346.638 99.4124 346.896 99.0146C347.155 98.6126 347.409 98.2212 347.658 97.8403H349.696V103.972H350.959V105.185H349.696V107H348.318ZM345.221 103.998H348.337V99.0464H348.255C348.056 99.3426 347.855 99.6494 347.652 99.9668C347.449 100.28 347.241 100.602 347.03 100.932C346.822 101.262 346.615 101.594 346.408 101.928C346.2 102.263 345.997 102.597 345.798 102.931C345.599 103.261 345.407 103.587 345.221 103.909V103.998ZM355.618 107.133C354.945 107.133 354.363 106.989 353.873 106.702C353.386 106.414 353.011 106.003 352.749 105.47C352.487 104.933 352.355 104.296 352.355 103.56V103.547C352.355 102.806 352.487 102.169 352.749 101.636C353.016 101.103 353.392 100.693 353.879 100.405C354.37 100.117 354.95 99.9731 355.618 99.9731C356.291 99.9731 356.871 100.117 357.357 100.405C357.844 100.688 358.219 101.099 358.481 101.636C358.748 102.169 358.881 102.806 358.881 103.547V103.56C358.881 104.296 358.748 104.933 358.481 105.47C358.219 106.003 357.844 106.414 357.357 106.702C356.875 106.989 356.295 107.133 355.618 107.133ZM355.618 105.978C356.012 105.978 356.346 105.883 356.621 105.692C356.896 105.498 357.106 105.221 357.25 104.861C357.393 104.501 357.465 104.067 357.465 103.56V103.547C357.465 103.035 357.393 102.599 357.25 102.239C357.106 101.88 356.896 101.604 356.621 101.414C356.346 101.219 356.012 101.122 355.618 101.122C355.225 101.122 354.89 101.219 354.615 101.414C354.34 101.604 354.129 101.88 353.98 102.239C353.837 102.599 353.765 103.035 353.765 103.547V103.56C353.765 104.067 353.837 104.501 353.98 104.861C354.129 105.221 354.34 105.498 354.615 105.692C354.89 105.883 355.225 105.978 355.618 105.978Z" fill="var(--vscode-menu-foreground,
        #CCCCCC)" />
      </g>
      <g>
        <rect x="297" y="117" width="135" height="1" fill="var(--vscode-editorHoverWidget-border,
        #454545)" />
      </g>
      <g>
        <path d="M314.149 138V128.84H315.793L318.707 136.14H318.814L321.728 128.84H323.372V138H322.071V131.284H321.366L322.852 129.094L319.284 138H318.23L314.669 129.094L316.148 131.284H315.45V138H314.149ZM327.396 138.114C326.961 138.114 326.569 138.032 326.222 137.867C325.879 137.697 325.609 137.458 325.41 137.149C325.211 136.84 325.111 136.479 325.111 136.064V136.051C325.111 135.637 325.211 135.283 325.41 134.991C325.613 134.699 325.905 134.471 326.286 134.306C326.671 134.136 327.136 134.035 327.682 134.001L330.228 133.849V134.82L327.873 134.972C327.399 135.002 327.049 135.103 326.825 135.277C326.601 135.446 326.489 135.685 326.489 135.994V136.007C326.489 136.32 326.609 136.568 326.851 136.75C327.092 136.927 327.396 137.016 327.765 137.016C328.107 137.016 328.412 136.948 328.679 136.813C328.95 136.673 329.161 136.487 329.313 136.254C329.466 136.017 329.542 135.751 329.542 135.455V133.284C329.542 132.903 329.424 132.613 329.187 132.414C328.954 132.211 328.607 132.109 328.146 132.109C327.76 132.109 327.445 132.177 327.2 132.312C326.958 132.448 326.798 132.638 326.717 132.884L326.705 132.903H325.378L325.384 132.858C325.439 132.478 325.59 132.147 325.835 131.868C326.085 131.585 326.41 131.365 326.812 131.208C327.219 131.051 327.682 130.973 328.203 130.973C328.782 130.973 329.273 131.066 329.675 131.252C330.082 131.434 330.388 131.699 330.596 132.046C330.807 132.389 330.913 132.801 330.913 133.284V138H329.542V137.022H329.44C329.305 137.255 329.136 137.454 328.933 137.619C328.729 137.78 328.499 137.903 328.241 137.987C327.983 138.072 327.701 138.114 327.396 138.114ZM332.855 138V131.106H334.233V132.147H334.341C334.51 131.779 334.76 131.492 335.09 131.284C335.42 131.077 335.837 130.973 336.34 130.973C337.115 130.973 337.707 131.195 338.118 131.64C338.528 132.084 338.733 132.717 338.733 133.538V138H337.35V133.861C337.35 133.286 337.229 132.858 336.988 132.579C336.751 132.296 336.378 132.154 335.871 132.154C335.536 132.154 335.246 132.228 335.001 132.376C334.756 132.52 334.565 132.727 334.43 132.998C334.299 133.265 334.233 133.584 334.233 133.957V138H332.855ZM342.542 138.114C342.106 138.114 341.715 138.032 341.368 137.867C341.025 137.697 340.754 137.458 340.555 137.149C340.356 136.84 340.257 136.479 340.257 136.064V136.051C340.257 135.637 340.356 135.283 340.555 134.991C340.758 134.699 341.05 134.471 341.431 134.306C341.816 134.136 342.282 134.035 342.828 134.001L345.373 133.849V134.82L343.018 134.972C342.544 135.002 342.195 135.103 341.971 135.277C341.746 135.446 341.634 135.685 341.634 135.994V136.007C341.634 136.32 341.755 136.568 341.996 136.75C342.237 136.927 342.542 137.016 342.91 137.016C343.253 137.016 343.558 136.948 343.824 136.813C344.095 136.673 344.307 136.487 344.459 136.254C344.611 136.017 344.688 135.751 344.688 135.455V133.284C344.688 132.903 344.569 132.613 344.332 132.414C344.099 132.211 343.752 132.109 343.291 132.109C342.906 132.109 342.591 132.177 342.345 132.312C342.104 132.448 341.943 132.638 341.863 132.884L341.85 132.903H340.523L340.53 132.858C340.585 132.478 340.735 132.147 340.98 131.868C341.23 131.585 341.556 131.365 341.958 131.208C342.364 131.051 342.828 130.973 343.348 130.973C343.928 130.973 344.419 131.066 344.821 131.252C345.227 131.434 345.534 131.699 345.741 132.046C345.953 132.389 346.059 132.801 346.059 133.284V138H344.688V137.022H344.586C344.451 137.255 344.281 137.454 344.078 137.619C343.875 137.78 343.644 137.903 343.386 137.987C343.128 138.072 342.847 138.114 342.542 138.114ZM350.915 140.431C350.331 140.431 349.823 140.351 349.391 140.19C348.964 140.029 348.625 139.805 348.375 139.517C348.126 139.229 347.973 138.895 347.918 138.514L347.925 138.501H349.321L349.328 138.514C349.387 138.751 349.554 138.946 349.829 139.098C350.104 139.25 350.472 139.327 350.934 139.327C351.501 139.327 351.943 139.198 352.26 138.939C352.582 138.681 352.743 138.319 352.743 137.854V136.502H352.635C352.499 136.747 352.326 136.959 352.114 137.137C351.903 137.31 351.661 137.441 351.391 137.53C351.12 137.619 350.826 137.664 350.508 137.664C349.924 137.664 349.417 137.524 348.985 137.245C348.557 136.961 348.227 136.572 347.995 136.077C347.766 135.577 347.652 135.004 347.652 134.356V134.344C347.652 133.688 347.768 133.108 348.001 132.604C348.234 132.097 348.566 131.701 348.998 131.417C349.429 131.13 349.943 130.986 350.54 130.986C350.862 130.986 351.156 131.037 351.422 131.138C351.693 131.24 351.932 131.384 352.14 131.57C352.347 131.756 352.518 131.978 352.654 132.236H352.736V131.106H354.114V137.86C354.114 138.381 353.983 138.834 353.72 139.219C353.462 139.604 353.094 139.902 352.616 140.114C352.138 140.325 351.57 140.431 350.915 140.431ZM350.896 136.521C351.285 136.521 351.619 136.43 351.898 136.248C352.178 136.062 352.391 135.806 352.54 135.48C352.692 135.154 352.768 134.778 352.768 134.35V134.337C352.768 133.914 352.692 133.538 352.54 133.208C352.391 132.877 352.178 132.619 351.898 132.433C351.619 132.247 351.285 132.154 350.896 132.154C350.506 132.154 350.174 132.247 349.899 132.433C349.628 132.619 349.421 132.877 349.277 133.208C349.133 133.533 349.061 133.91 349.061 134.337V134.35C349.061 134.778 349.133 135.154 349.277 135.48C349.421 135.806 349.628 136.062 349.899 136.248C350.174 136.43 350.506 136.521 350.896 136.521ZM358.995 138.133C358.322 138.133 357.745 137.989 357.262 137.702C356.78 137.41 356.407 136.997 356.145 136.464C355.887 135.931 355.758 135.3 355.758 134.572V134.566C355.758 133.847 355.887 133.218 356.145 132.681C356.407 132.143 356.776 131.724 357.25 131.424C357.728 131.123 358.286 130.973 358.925 130.973C359.569 130.973 360.121 131.117 360.582 131.405C361.048 131.693 361.405 132.097 361.655 132.617C361.904 133.133 362.029 133.739 362.029 134.433V134.915H356.456V133.931H361.344L360.684 134.845V134.293C360.684 133.802 360.607 133.396 360.455 133.074C360.307 132.748 360.102 132.505 359.839 132.344C359.577 132.183 359.274 132.103 358.932 132.103C358.589 132.103 358.282 132.188 358.011 132.357C357.745 132.522 357.533 132.767 357.376 133.093C357.224 133.419 357.148 133.819 357.148 134.293V134.845C357.148 135.298 357.224 135.685 357.376 136.007C357.529 136.328 357.745 136.574 358.024 136.743C358.307 136.912 358.642 136.997 359.027 136.997C359.323 136.997 359.577 136.957 359.789 136.876C360.004 136.792 360.18 136.688 360.315 136.565C360.455 136.443 360.55 136.322 360.601 136.204L360.626 136.153H361.959L361.947 136.21C361.888 136.438 361.784 136.667 361.636 136.896C361.488 137.12 361.291 137.325 361.045 137.511C360.804 137.697 360.512 137.848 360.169 137.962C359.831 138.076 359.439 138.133 358.995 138.133ZM367.368 138V128.84H369.012L371.925 136.14H372.033L374.947 128.84H376.591V138H375.29V131.284H374.585L376.07 129.094L372.503 138H371.449L367.888 129.094L369.367 131.284H368.669V138H367.368ZM381.644 138.133C380.971 138.133 380.389 137.989 379.898 137.702C379.411 137.414 379.037 137.003 378.774 136.47C378.512 135.933 378.381 135.296 378.381 134.56V134.547C378.381 133.806 378.512 133.169 378.774 132.636C379.041 132.103 379.418 131.693 379.904 131.405C380.395 131.117 380.975 130.973 381.644 130.973C382.316 130.973 382.896 131.117 383.383 131.405C383.869 131.688 384.244 132.099 384.506 132.636C384.773 133.169 384.906 133.806 384.906 134.547V134.56C384.906 135.296 384.773 135.933 384.506 136.47C384.244 137.003 383.869 137.414 383.383 137.702C382.9 137.989 382.321 138.133 381.644 138.133ZM381.644 136.978C382.037 136.978 382.371 136.883 382.646 136.692C382.922 136.498 383.131 136.221 383.275 135.861C383.419 135.501 383.491 135.067 383.491 134.56V134.547C383.491 134.035 383.419 133.599 383.275 133.239C383.131 132.88 382.922 132.604 382.646 132.414C382.371 132.219 382.037 132.122 381.644 132.122C381.25 132.122 380.916 132.219 380.641 132.414C380.366 132.604 380.154 132.88 380.006 133.239C379.862 133.599 379.79 134.035 379.79 134.547V134.56C379.79 135.067 379.862 135.501 380.006 135.861C380.154 136.221 380.366 136.498 380.641 136.692C380.916 136.883 381.25 136.978 381.644 136.978ZM389.058 138.114C388.482 138.114 387.979 137.97 387.547 137.683C387.119 137.391 386.787 136.978 386.55 136.445C386.318 135.912 386.201 135.283 386.201 134.56V134.547C386.201 133.819 386.318 133.188 386.55 132.655C386.783 132.122 387.113 131.712 387.541 131.424C387.968 131.132 388.474 130.986 389.058 130.986C389.375 130.986 389.671 131.037 389.946 131.138C390.221 131.236 390.465 131.375 390.676 131.557C390.888 131.735 391.055 131.949 391.178 132.198H391.279V128.402H392.663V138H391.279V136.915H391.178C391.042 137.164 390.871 137.38 390.664 137.562C390.456 137.74 390.217 137.877 389.946 137.975C389.675 138.068 389.379 138.114 389.058 138.114ZM389.451 136.934C389.832 136.934 390.162 136.838 390.441 136.648C390.721 136.458 390.934 136.185 391.083 135.829C391.231 135.469 391.305 135.046 391.305 134.56V134.547C391.305 134.056 391.229 133.633 391.076 133.277C390.928 132.922 390.714 132.649 390.435 132.458C390.16 132.264 389.832 132.167 389.451 132.167C389.07 132.167 388.74 132.264 388.461 132.458C388.186 132.649 387.974 132.922 387.826 133.277C387.682 133.629 387.61 134.052 387.61 134.547V134.56C387.61 135.05 387.682 135.474 387.826 135.829C387.974 136.185 388.186 136.458 388.461 136.648C388.74 136.838 389.07 136.934 389.451 136.934ZM397.602 138.133C396.929 138.133 396.351 137.989 395.869 137.702C395.386 137.41 395.014 136.997 394.751 136.464C394.493 135.931 394.364 135.3 394.364 134.572V134.566C394.364 133.847 394.493 133.218 394.751 132.681C395.014 132.143 395.382 131.724 395.856 131.424C396.334 131.123 396.893 130.973 397.532 130.973C398.175 130.973 398.727 131.117 399.188 131.405C399.654 131.693 400.012 132.097 400.261 132.617C400.511 133.133 400.636 133.739 400.636 134.433V134.915H395.062V133.931H399.95L399.29 134.845V134.293C399.29 133.802 399.214 133.396 399.062 133.074C398.913 132.748 398.708 132.505 398.446 132.344C398.183 132.183 397.881 132.103 397.538 132.103C397.195 132.103 396.889 132.188 396.618 132.357C396.351 132.522 396.139 132.767 395.983 133.093C395.831 133.419 395.754 133.819 395.754 134.293V134.845C395.754 135.298 395.831 135.685 395.983 136.007C396.135 136.328 396.351 136.574 396.63 136.743C396.914 136.912 397.248 136.997 397.633 136.997C397.93 136.997 398.183 136.957 398.395 136.876C398.611 136.792 398.786 136.688 398.922 136.565C399.062 136.443 399.157 136.322 399.208 136.204L399.233 136.153H400.566L400.553 136.21C400.494 136.438 400.39 136.667 400.242 136.896C400.094 137.12 399.897 137.325 399.652 137.511C399.411 137.697 399.119 137.848 398.776 137.962C398.437 138.076 398.046 138.133 397.602 138.133ZM402.337 138V128.402H403.714V138H402.337ZM408.272 138.133C407.718 138.133 407.235 138.053 406.825 137.892C406.414 137.727 406.088 137.501 405.847 137.213C405.606 136.921 405.464 136.582 405.422 136.197V136.185H406.806V136.197C406.895 136.455 407.064 136.665 407.313 136.826C407.563 136.986 407.893 137.067 408.304 137.067C408.587 137.067 408.835 137.027 409.046 136.946C409.262 136.866 409.431 136.754 409.554 136.61C409.677 136.466 409.738 136.301 409.738 136.115V136.102C409.738 135.886 409.652 135.704 409.478 135.556C409.305 135.408 409.019 135.287 408.621 135.194L407.517 134.94C407.085 134.843 406.727 134.71 406.444 134.541C406.16 134.371 405.951 134.164 405.815 133.918C405.68 133.669 405.612 133.377 405.612 133.042V133.036C405.612 132.634 405.727 132.279 405.955 131.97C406.184 131.657 406.499 131.413 406.901 131.24C407.307 131.062 407.771 130.973 408.291 130.973C408.816 130.973 409.273 131.056 409.662 131.221C410.056 131.382 410.367 131.606 410.595 131.894C410.824 132.177 410.959 132.507 411.001 132.884V132.89H409.681V132.877C409.618 132.636 409.465 132.435 409.224 132.274C408.987 132.114 408.674 132.033 408.285 132.033C408.035 132.033 407.813 132.073 407.618 132.154C407.424 132.23 407.269 132.338 407.155 132.478C407.045 132.613 406.99 132.774 406.99 132.96V132.973C406.99 133.117 407.026 133.243 407.098 133.354C407.174 133.459 407.292 133.555 407.453 133.639C407.614 133.72 407.821 133.792 408.075 133.855L409.173 134.103C409.833 134.259 410.324 134.486 410.646 134.782C410.972 135.078 411.135 135.476 411.135 135.975V135.988C411.135 136.411 411.01 136.785 410.76 137.111C410.511 137.433 410.17 137.685 409.738 137.867C409.311 138.044 408.822 138.133 408.272 138.133ZM413.833 138.102C413.57 138.102 413.348 138.011 413.166 137.829C412.988 137.647 412.899 137.429 412.899 137.175C412.899 136.912 412.988 136.692 413.166 136.515C413.348 136.337 413.57 136.248 413.833 136.248C414.099 136.248 414.321 136.337 414.499 136.515C414.677 136.692 414.766 136.912 414.766 137.175C414.766 137.429 414.677 137.647 414.499 137.829C414.321 138.011 414.099 138.102 413.833 138.102ZM417.933 138.102C417.671 138.102 417.449 138.011 417.267 137.829C417.089 137.647 417 137.429 417 137.175C417 136.912 417.089 136.692 417.267 136.515C417.449 136.337 417.671 136.248 417.933 136.248C418.2 136.248 418.422 136.337 418.6 136.515C418.777 136.692 418.866 136.912 418.866 137.175C418.866 137.429 418.777 137.647 418.6 137.829C418.422 138.011 418.2 138.102 417.933 138.102ZM422.034 138.102C421.771 138.102 421.549 138.011 421.367 137.829C421.189 137.647 421.101 137.429 421.101 137.175C421.101 136.912 421.189 136.692 421.367 136.515C421.549 136.337 421.771 136.248 422.034 136.248C422.3 136.248 422.522 136.337 422.7 136.515C422.878 136.692 422.967 136.912 422.967 137.175C422.967 137.429 422.878 137.647 422.7 137.829C422.522 138.011 422.3 138.102 422.034 138.102Z" fill="var(--vscode-menu-foreground,
        #CCCCCC)" />
      </g>
    </g>
  </g>
  <defs>
    <filter id="filter0_ddd_2738_10289" x="203" y="-60" width="323" height="289" filterUnits="userSpaceOnUse" color-interpolation-filters="sRGB">
      <feFlood flood-opacity="0" result="BackgroundImageFix" />
      <feColorMatrix in="SourceAlpha" type="matrix" values="0 0 0 0 0 0 0 0 0 0 0 0 0 0 0 0 0 0 127 0" result="hardAlpha" />
      <feOffset dy="2" />
      <feGaussianBlur stdDeviation="11" />
      <feComposite in2="hardAlpha" operator="out" />
      <feColorMatrix type="matrix" values="0 0 0 0 0 0 0 0 0 0 0 0 0 0 0 0 0 0 0.25 0" />
      <feBlend mode="normal" in2="BackgroundImageFix" result="effect1_dropShadow_2738_10289" />
      <feColorMatrix in="SourceAlpha" type="matrix" values="0 0 0 0 0 0 0 0 0 0 0 0 0 0 0 0 0 0 127 0" result="hardAlpha" />
      <feOffset />
      <feGaussianBlur stdDeviation="0.75" />
      <feComposite in2="hardAlpha" operator="out" />
      <feColorMatrix type="matrix" values="0 0 0 0 0 0 0 0 0 0 0 0 0 0 0 0 0 0 0.3 0" />
      <feBlend mode="normal" in2="effect1_dropShadow_2738_10289" result="effect2_dropShadow_2738_10289" />
      <feColorMatrix in="SourceAlpha" type="matrix" values="0 0 0 0 0 0 0 0 0 0 0 0 0 0 0 0 0 0 127 0" result="hardAlpha" />
      <feOffset />
      <feGaussianBlur stdDeviation="0.5" />
      <feComposite in2="hardAlpha" operator="out" />
      <feColorMatrix type="matrix" values="0 0 0 0 0 0 0 0 0 0 0 0 0 0 0 0 0 0 0.4 0" />
      <feBlend mode="normal" in2="effect2_dropShadow_2738_10289" result="effect3_dropShadow_2738_10289" />
      <feBlend mode="normal" in="SourceGraphic" in2="effect3_dropShadow_2738_10289" result="shape" />
    </filter>
    <clipPath id="clip0_2738_10289">
      <rect x="16" y="96" width="385" height="88" rx="4" fill="var(--vscode-activityBarBadge-foreground,
        #FFFFFF)" />
    </clipPath>
  </defs>
</svg>
