<svg viewBox="0 0 539 342" fill="none" xmlns="http://www.w3.org/2000/svg">
<g filter="url(#filter0_d)">
<rect width="192" height="268" transform="translate(8 32)" fill="var(--vscode-quickInput-background)"/>
<path d="M25.8019 58.1377H27.2078L28.5158 60.6069H29.6681L28.2266 57.982C29.0096 57.7195 29.4723 57.0166 29.4723 56.149C29.4723 54.9522 28.6403 54.187 27.3457 54.187H24.8053V60.6069H25.8019V58.1377ZM25.8019 55.0234H27.2078C27.9774 55.0234 28.449 55.4549 28.449 56.1712C28.449 56.9053 28.0041 57.3191 27.2344 57.3191H25.8019V55.0234ZM31.8792 54.187H30.8827V58.3958C30.8827 59.7839 31.8748 60.7626 33.4809 60.7626C35.0959 60.7626 36.0836 59.7839 36.0836 58.3958V54.187H35.087V58.3157C35.087 59.2322 34.5042 59.8773 33.4809 59.8773C32.4621 59.8773 31.8792 59.2322 31.8792 58.3157V54.187ZM38.6596 60.6069V55.9443H38.7308L42.0275 60.6069H42.9262V54.187H41.9563V58.8585H41.8851L38.5884 54.187H37.6897V60.6069H38.6596ZM51.1881 60.6069H52.2469L49.929 54.187H48.8568L46.5388 60.6069H47.5621L48.1538 58.8718H50.6008L51.1881 60.6069ZM49.3417 55.3215H49.4173L50.3472 58.071H48.4074L49.3417 55.3215ZM54.338 60.6069V55.9443H54.4092L57.7059 60.6069H58.6046V54.187H57.6347V58.8585H57.5635L54.2668 54.187H53.3681V60.6069H54.338ZM60.2196 54.187V60.6069H62.5375C64.4506 60.6069 65.5584 59.4235 65.5584 57.3814C65.5584 55.3615 64.4417 54.187 62.5375 54.187H60.2196ZM61.2162 55.0456H62.4263C63.7566 55.0456 64.5441 55.9132 64.5441 57.3947C64.5441 58.8896 63.7699 59.7483 62.4263 59.7483H61.2162V55.0456ZM69.4024 54.187V60.6069H71.7204C73.6334 60.6069 74.7413 59.4235 74.7413 57.3814C74.7413 55.3615 73.6245 54.187 71.7204 54.187H69.4024ZM70.399 55.0456H71.6091C72.9394 55.0456 73.7269 55.9132 73.7269 57.3947C73.7269 58.8896 72.9527 59.7483 71.6091 59.7483H70.399V55.0456ZM80.1691 59.7483H77.0903V57.7507H80.0045V56.9231H77.0903V55.0456H80.1691V54.187H76.0938V60.6069H80.1691V59.7483ZM84.2488 60.6069C85.6191 60.6069 86.4422 59.9218 86.4422 58.7917C86.4422 57.9509 85.8638 57.3369 84.9963 57.2435V57.1678C85.628 57.0611 86.1219 56.4604 86.1219 55.7886C86.1219 54.8009 85.3967 54.187 84.191 54.187H81.6106V60.6069H84.2488ZM82.6071 55.0011H83.9597C84.6982 55.0011 85.1298 55.3526 85.1298 55.9621C85.1298 56.5895 84.6715 56.9187 83.7906 56.9187H82.6071V55.0011ZM82.6071 59.7928V57.6795H83.9908C84.9295 57.6795 85.4234 58.0354 85.4234 58.7294C85.4234 59.4235 84.9473 59.7928 84.0486 59.7928H82.6071ZM88.7112 54.187H87.7146V58.3958C87.7146 59.7839 88.7068 60.7626 90.3129 60.7626C91.9279 60.7626 92.9156 59.7839 92.9156 58.3958V54.187H91.919V58.3157C91.919 59.2322 91.3362 59.8773 90.3129 59.8773C89.2941 59.8773 88.7112 59.2322 88.7112 58.3157V54.187ZM99.9984 58.0799V57.2835H97.3646V58.0888H99.0196V58.2311C99.0107 59.2144 98.29 59.8773 97.24 59.8773C96.0343 59.8773 95.278 58.9296 95.278 57.3903C95.278 55.8732 96.0299 54.9166 97.2178 54.9166C98.0942 54.9166 98.7038 55.3482 98.9529 56.1446H99.9539C99.7359 54.8499 98.6771 54.0313 97.2178 54.0313C95.4204 54.0313 94.2592 55.3526 94.2592 57.3947C94.2592 59.4635 95.407 60.7626 97.2267 60.7626C98.9084 60.7626 99.9984 59.7082 99.9984 58.0799Z" fill="var(--vscode-foreground)"/>
<path d="M29.984 85.064L34.336 80.712L34.96 81.336L30.288 85.992H29.664L25.008 81.336L25.616 80.712L29.984 85.064Z" fill="#808080"/>
<path d="M50.0649 86L52.1787 79.6587H50.7505L49.3354 84.5498H49.2563L47.8149 79.6587H46.3164L48.4609 86H50.0649ZM56.7666 86H58.2036L56.002 79.6587H54.4419L52.2402 86H53.5718L54.0596 84.4619H56.2876L56.7666 86ZM55.1406 80.9463H55.2197L56.0063 83.4688H54.3452L55.1406 80.9463ZM60.6118 83.6797H61.6973L62.8794 86H64.3823L63.0464 83.4819C63.7759 83.1963 64.1978 82.4932 64.1978 81.6802C64.1978 80.4277 63.3408 79.6587 61.9478 79.6587H59.2847V86H60.6118V83.6797ZM60.6118 80.6958H61.7632C62.4224 80.6958 62.8354 81.0825 62.8354 81.6978C62.8354 82.3262 62.4443 82.6909 61.7764 82.6909H60.6118V80.6958ZM66.8608 86V79.6587H65.5337V86H66.8608ZM72.4727 86H73.9097L71.708 79.6587H70.1479L67.9463 86H69.2778L69.7656 84.4619H71.9937L72.4727 86ZM70.8467 80.9463H70.9258L71.7124 83.4688H70.0513L70.8467 80.9463ZM77.8384 86C79.1919 86 80.0312 85.3013 80.0312 84.1851C80.0312 83.3677 79.4204 82.7393 78.5811 82.6733V82.5942C79.2314 82.4976 79.728 81.9131 79.728 81.2407C79.728 80.2607 78.9941 79.6587 77.7637 79.6587H74.9907V86H77.8384ZM76.3179 80.6431H77.4253C78.0581 80.6431 78.4229 80.9507 78.4229 81.4692C78.4229 81.9966 78.0317 82.2954 77.3154 82.2954H76.3179V80.6431ZM76.3179 85.0112V83.1699H77.4692C78.2515 83.1699 78.6777 83.4863 78.6777 84.0796C78.6777 84.686 78.2646 85.0112 77.5 85.0112H76.3179ZM85.3794 84.8838H82.5581V79.6587H81.231V86H85.3794V84.8838ZM90.7847 84.9058H87.9106V83.3018H90.6221V82.2822H87.9106V80.7529H90.7847V79.6587H86.5835V86H90.7847V84.9058ZM91.8965 84.2466C91.9448 85.4199 92.9248 86.1626 94.4365 86.1626C96.0273 86.1626 97.0073 85.3804 97.0073 84.1147C97.0073 83.1348 96.458 82.5854 95.1836 82.313L94.4189 82.1504C93.6763 81.9878 93.373 81.7549 93.373 81.355C93.373 80.8584 93.8125 80.5376 94.4761 80.5376C95.1177 80.5376 95.5835 80.876 95.645 81.3945H96.8931C96.8535 80.2739 95.8647 79.4961 94.4673 79.4961C93.0039 79.4961 92.0415 80.2783 92.0415 81.4604C92.0415 82.4229 92.6084 83.0161 93.7642 83.2622L94.5903 83.4424C95.3682 83.6138 95.6846 83.8555 95.6846 84.2729C95.6846 84.7651 95.1968 85.1123 94.5068 85.1123C93.7598 85.1123 93.2412 84.7739 93.1797 84.2466H91.8965Z" fill="var(--vscode-foreground)"/>
<path d="M32.08 107.016L27.712 102.664L28.336 102.04L33.008 106.712V107.336L28.336 111.992L27.712 111.384L32.08 107.032V107.016Z" fill="#808080"/>
<rect x="46" y="103.5" width="27" height="7" rx="3.5" fill="#B180D7"/>
<rect x="79" y="103.5" width="70" height="7" rx="3.5" fill="var(--vscode-foreground)" fill-opacity="0.25"/>
<path d="M32.08 131.016L27.712 126.664L28.336 126.04L33.008 130.712V131.336L28.336 135.992L27.712 135.384L32.08 131.032V131.016Z" fill="#808080"/>
<rect x="46" y="127.5" width="27" height="7" rx="3.5" fill="#B180D7"/>
<rect x="79" y="127.5" width="61" height="7" rx="3.5" fill="var(--vscode-foreground)" fill-opacity="0.25"/>
<path d="M32.08 155.016L27.712 150.664L28.336 150.04L33.008 154.712V155.336L28.336 159.992L27.712 159.384L32.08 155.032V155.016Z" fill="#808080"/>
<rect x="46" y="151.5" width="40" height="7" rx="3.5" fill="#B180D7"/>
<rect x="92" y="151.5" width="34" height="7" rx="3.5" fill="var(--vscode-foreground)" fill-opacity="0.25"/>
<path d="M32.08 179.016L27.712 174.664L28.336 174.04L33.008 178.712V179.336L28.336 183.992L27.712 183.384L32.08 179.032V179.016Z" fill="#808080"/>
<path d="M50.5044 177.729H50.5747L51.7744 182H53.0181L54.7012 175.659H53.3301L52.3501 180.189H52.2798L51.1021 175.659H49.9814L48.8257 180.189H48.7554L47.7666 175.659H46.3867L48.0654 182H49.3179L50.5044 177.729ZM59.4033 182H60.8403L58.6387 175.659H57.0786L54.877 182H56.2085L56.6963 180.462H58.9243L59.4033 182ZM57.7773 176.946H57.8564L58.6431 179.469H56.9819L57.7773 176.946ZM64.1011 182V176.753H66.0039V175.659H60.8711V176.753H62.7739V182H64.1011ZM69.6514 182.163C71.1807 182.163 72.2969 181.235 72.4067 179.882H71.1147C70.9873 180.581 70.416 181.029 69.6558 181.029C68.6538 181.029 68.0342 180.185 68.0342 178.827C68.0342 177.469 68.6538 176.625 69.6514 176.625C70.4072 176.625 70.9829 177.109 71.1104 177.843H72.4023C72.3057 176.48 71.1543 175.496 69.6514 175.496C67.8101 175.496 66.6763 176.766 66.6763 178.827C66.6763 180.888 67.8145 182.163 69.6514 182.163ZM79.1392 182V175.659H77.812V178.234H74.9556V175.659H73.6284V182H74.9556V179.328H77.812V182H79.1392Z" fill="var(--vscode-foreground)"/>
<path d="M29.984 205.064L34.336 200.712L34.96 201.336L30.288 205.992H29.664L25.008 201.336L25.616 200.712L29.984 205.064Z" fill="#808080"/>
<path d="M49.4629 206.163C50.9922 206.163 52.1084 205.235 52.2183 203.882H50.9263C50.7988 204.581 50.2275 205.029 49.4673 205.029C48.4653 205.029 47.8457 204.185 47.8457 202.827C47.8457 201.469 48.4653 200.625 49.4629 200.625C50.2188 200.625 50.7944 201.109 50.9219 201.843H52.2139C52.1172 200.48 50.9658 199.496 49.4629 199.496C47.6216 199.496 46.4878 200.766 46.4878 202.827C46.4878 204.888 47.626 206.163 49.4629 206.163ZM57.3115 206H58.7485L56.5469 199.659H54.9868L52.7852 206H54.1167L54.6045 204.462H56.8325L57.3115 206ZM55.6855 200.946H55.7646L56.5513 203.469H54.8901L55.6855 200.946ZM63.978 204.884H61.1567V199.659H59.8296V206H63.978V204.884ZM69.3306 204.884H66.5093V199.659H65.1821V206H69.3306V204.884ZM72.5693 204.247C72.6177 205.42 73.5977 206.163 75.1094 206.163C76.7002 206.163 77.6802 205.38 77.6802 204.115C77.6802 203.135 77.1309 202.585 75.8564 202.313L75.0918 202.15C74.3491 201.988 74.0459 201.755 74.0459 201.355C74.0459 200.858 74.4854 200.538 75.1489 200.538C75.7905 200.538 76.2563 200.876 76.3179 201.395H77.5659C77.5264 200.274 76.5376 199.496 75.1401 199.496C73.6768 199.496 72.7144 200.278 72.7144 201.46C72.7144 202.423 73.2812 203.016 74.437 203.262L75.2632 203.442C76.041 203.614 76.3574 203.855 76.3574 204.273C76.3574 204.765 75.8696 205.112 75.1797 205.112C74.4326 205.112 73.9141 204.774 73.8525 204.247H72.5693ZM81.8022 206V200.753H83.7051V199.659H78.5723V200.753H80.4751V206H81.8022ZM88.2666 206H89.7036L87.502 199.659H85.9419L83.7402 206H85.0718L85.5596 204.462H87.7876L88.2666 206ZM86.6406 200.946H86.7197L87.5063 203.469H85.8452L86.6406 200.946ZM93.1885 206.163C94.7178 206.163 95.834 205.235 95.9438 203.882H94.6519C94.5244 204.581 93.9531 205.029 93.1929 205.029C92.1909 205.029 91.5713 204.185 91.5713 202.827C91.5713 201.469 92.1909 200.625 93.1885 200.625C93.9443 200.625 94.52 201.109 94.6475 201.843H95.9395C95.8428 200.48 94.6914 199.496 93.1885 199.496C91.3472 199.496 90.2134 200.766 90.2134 202.827C90.2134 204.888 91.3516 206.163 93.1885 206.163ZM98.4927 206V204.062L99.1211 203.306L100.962 206H102.553L100.079 202.436L102.391 199.659H100.914L98.5718 202.506H98.4927V199.659H97.1655V206H98.4927Z" fill="var(--vscode-foreground)"/>
<path d="M32.08 227.016L27.712 222.664L28.336 222.04L33.008 226.712V227.336L28.336 231.992L27.712 231.384L32.08 227.032V227.016Z" fill="#808080"/>
<rect x="46" y="223.5" width="70" height="7" rx="3.5" fill="var(--vscode-foreground)" fill-opacity="0.25"/>
<path d="M32.08 251.016L27.712 246.664L28.336 246.04L33.008 250.712V251.336L28.336 255.992L27.712 255.384L32.08 251.032V251.016Z" fill="#808080"/>
<rect x="46" y="247.5" width="48" height="7" rx="3.5" fill="var(--vscode-foreground)" fill-opacity="0.25"/>
<path d="M32.08 275.016L27.712 270.664L28.336 270.04L33.008 274.712V275.336L28.336 279.992L27.712 279.384L32.08 275.032V275.016Z" fill="#808080"/>
<rect x="46" y="271.5" width="46" height="7" rx="3.5" fill="var(--vscode-foreground)" fill-opacity="0.25"/>
</g>
<g filter="url(#filter1_d)">
<rect width="379" height="318" transform="translate(131 10)" fill="var(--vscode-quickInput-background)"/>
<rect width="379" height="35" transform="translate(131 10)" fill="var(--vscode-quickInput-background)"/>
<rect width="103" height="35" transform="translate(131 10)" fill="var(--vscode-editor-background)"/>
<rect x="143" y="24" width="79" height="7" rx="3.5" fill="var(--vscode-foreground)" fill-opacity="0.25"/>
<rect x="151" y="69" width="83" height="8" rx="4" fill="#007ACC"/>
<rect x="151" y="89" width="65" height="8" rx="4" fill="#007ACC"/>
<rect x="151" y="109" width="83" height="8" rx="4" fill="#007ACC"/>
<g clip-path="url(#clip0)">
<rect width="379" height="24" transform="translate(131 147)" fill="var(--vscode-editor-stackFrameHighlightBackground)"/>
<path d="M151.496 158.152L147.24 153.416L146.312 153H141.256L140.008 154.248V163.736L141.256 164.984H146.312L147.24 164.552L151.496 159.816V158.152ZM146.312 163.736H141.256V154.248H146.312L150.568 158.984L146.312 163.736Z" fill="#FFFF00"/>
<path d="M175.113 159.701H174.756C174.127 159.701 173.652 159.812 173.332 160.035C173.016 160.254 172.857 160.582 172.857 161.02C172.857 161.414 172.977 161.721 173.215 161.939C173.453 162.158 173.783 162.268 174.205 162.268C174.799 162.268 175.266 162.062 175.605 161.652C175.945 161.238 176.117 160.668 176.121 159.941V159.701H175.113ZM177.205 159.256V163H176.121V162.027C175.891 162.418 175.6 162.707 175.248 162.895C174.9 163.078 174.477 163.17 173.977 163.17C173.309 163.17 172.775 162.982 172.377 162.607C171.979 162.229 171.779 161.723 171.779 161.09C171.779 160.359 172.023 159.805 172.512 159.426C173.004 159.047 173.725 158.857 174.674 158.857H176.121V158.688C176.117 158.164 175.984 157.785 175.723 157.551C175.461 157.312 175.043 157.193 174.469 157.193C174.102 157.193 173.73 157.246 173.355 157.352C172.98 157.457 172.615 157.611 172.26 157.814V156.736C172.658 156.584 173.039 156.471 173.402 156.396C173.77 156.318 174.125 156.279 174.469 156.279C175.012 156.279 175.475 156.359 175.857 156.52C176.244 156.68 176.557 156.92 176.795 157.24C176.943 157.436 177.049 157.678 177.111 157.967C177.174 158.252 177.205 158.682 177.205 159.256ZM183.258 157.275V153.883H184.336V163H183.258V162.174C183.078 162.498 182.838 162.746 182.537 162.918C182.24 163.086 181.896 163.17 181.506 163.17C180.713 163.17 180.088 162.863 179.631 162.25C179.178 161.633 178.951 160.783 178.951 159.701C178.951 158.635 179.18 157.799 179.637 157.193C180.094 156.584 180.717 156.279 181.506 156.279C181.9 156.279 182.248 156.365 182.549 156.537C182.85 156.705 183.086 156.951 183.258 157.275ZM180.088 159.725C180.088 160.561 180.221 161.191 180.486 161.617C180.752 162.043 181.145 162.256 181.664 162.256C182.184 162.256 182.578 162.041 182.848 161.611C183.121 161.182 183.258 160.553 183.258 159.725C183.258 158.893 183.121 158.264 182.848 157.838C182.578 157.408 182.184 157.193 181.664 157.193C181.145 157.193 180.752 157.406 180.486 157.832C180.221 158.258 180.088 158.889 180.088 159.725ZM190.488 157.275V153.883H191.566V163H190.488V162.174C190.309 162.498 190.068 162.746 189.768 162.918C189.471 163.086 189.127 163.17 188.736 163.17C187.943 163.17 187.318 162.863 186.861 162.25C186.408 161.633 186.182 160.783 186.182 159.701C186.182 158.635 186.41 157.799 186.867 157.193C187.324 156.584 187.947 156.279 188.736 156.279C189.131 156.279 189.479 156.365 189.779 156.537C190.08 156.705 190.316 156.951 190.488 157.275ZM187.318 159.725C187.318 160.561 187.451 161.191 187.717 161.617C187.982 162.043 188.375 162.256 188.895 162.256C189.414 162.256 189.809 162.041 190.078 161.611C190.352 161.182 190.488 160.553 190.488 159.725C190.488 158.893 190.352 158.264 190.078 157.838C189.809 157.408 189.414 157.193 188.895 157.193C188.375 157.193 187.982 157.406 187.717 157.832C187.451 158.258 187.318 158.889 187.318 159.725ZM192.967 154.252H199.641V155.248H196.904V163H195.715V155.248H192.967V154.252ZM203.531 157.193C202.984 157.193 202.57 157.406 202.289 157.832C202.008 158.258 201.867 158.889 201.867 159.725C201.867 160.557 202.008 161.188 202.289 161.617C202.57 162.043 202.984 162.256 203.531 162.256C204.082 162.256 204.498 162.043 204.779 161.617C205.061 161.188 205.201 160.557 205.201 159.725C205.201 158.889 205.061 158.258 204.779 157.832C204.498 157.406 204.082 157.193 203.531 157.193ZM203.531 156.279C204.441 156.279 205.137 156.574 205.617 157.164C206.102 157.754 206.344 158.607 206.344 159.725C206.344 160.846 206.104 161.701 205.623 162.291C205.143 162.877 204.445 163.17 203.531 163.17C202.621 163.17 201.926 162.877 201.445 162.291C200.965 161.701 200.725 160.846 200.725 159.725C200.725 158.607 200.965 157.754 201.445 157.164C201.926 156.574 202.621 156.279 203.531 156.279ZM213.439 162.689C213.139 162.85 212.83 162.969 212.514 163.047C212.197 163.129 211.861 163.17 211.506 163.17C210.385 163.17 209.514 162.773 208.893 161.98C208.275 161.188 207.967 160.072 207.967 158.635C207.967 157.205 208.277 156.092 208.898 155.295C209.523 154.494 210.393 154.094 211.506 154.094C211.861 154.094 212.197 154.135 212.514 154.217C212.83 154.295 213.139 154.414 213.439 154.574V155.787C213.15 155.549 212.84 155.367 212.508 155.242C212.176 155.117 211.842 155.055 211.506 155.055C210.736 155.055 210.16 155.352 209.777 155.945C209.395 156.539 209.203 157.436 209.203 158.635C209.203 159.83 209.395 160.725 209.777 161.318C210.16 161.912 210.736 162.209 211.506 162.209C211.85 162.209 212.186 162.146 212.514 162.021C212.846 161.896 213.154 161.715 213.439 161.477V162.689ZM218.496 159.701H218.139C217.51 159.701 217.035 159.812 216.715 160.035C216.398 160.254 216.24 160.582 216.24 161.02C216.24 161.414 216.359 161.721 216.598 161.939C216.836 162.158 217.166 162.268 217.588 162.268C218.182 162.268 218.648 162.062 218.988 161.652C219.328 161.238 219.5 160.668 219.504 159.941V159.701H218.496ZM220.588 159.256V163H219.504V162.027C219.273 162.418 218.982 162.707 218.631 162.895C218.283 163.078 217.859 163.17 217.359 163.17C216.691 163.17 216.158 162.982 215.76 162.607C215.361 162.229 215.162 161.723 215.162 161.09C215.162 160.359 215.406 159.805 215.895 159.426C216.387 159.047 217.107 158.857 218.057 158.857H219.504V158.688C219.5 158.164 219.367 157.785 219.105 157.551C218.844 157.312 218.426 157.193 217.852 157.193C217.484 157.193 217.113 157.246 216.738 157.352C216.363 157.457 215.998 157.611 215.643 157.814V156.736C216.041 156.584 216.422 156.471 216.785 156.396C217.152 156.318 217.508 156.279 217.852 156.279C218.395 156.279 218.857 156.359 219.24 156.52C219.627 156.68 219.939 156.92 220.178 157.24C220.326 157.436 220.432 157.678 220.494 157.967C220.557 158.252 220.588 158.682 220.588 159.256ZM228.381 157.791C228.15 157.611 227.916 157.48 227.678 157.398C227.439 157.316 227.178 157.275 226.893 157.275C226.221 157.275 225.707 157.486 225.352 157.908C224.996 158.33 224.818 158.939 224.818 159.736V163H223.734V156.438H224.818V157.721C224.998 157.256 225.273 156.9 225.645 156.654C226.02 156.404 226.463 156.279 226.975 156.279C227.24 156.279 227.488 156.312 227.719 156.379C227.949 156.445 228.17 156.549 228.381 156.689V157.791ZM232.441 154.574V156.438H234.891V157.275H232.441V160.838C232.441 161.322 232.533 161.66 232.717 161.852C232.9 162.043 233.221 162.139 233.678 162.139H234.891V163H233.572C232.764 163 232.193 162.838 231.861 162.514C231.529 162.189 231.363 161.631 231.363 160.838V157.275H229.611V156.438H231.363V154.574H232.441Z" fill="#D7BA7D"/>
<path d="M241.084 153.309C240.564 154.199 240.176 155.088 239.918 155.975C239.664 156.857 239.537 157.748 239.537 158.646C239.537 159.541 239.664 160.432 239.918 161.318C240.176 162.205 240.564 163.098 241.084 163.996H240.146C239.557 163.066 239.117 162.162 238.828 161.283C238.539 160.4 238.395 159.521 238.395 158.646C238.395 157.775 238.539 156.898 238.828 156.016C239.117 155.133 239.557 154.23 240.146 153.309H241.084ZM303.188 153.309H304.125C304.715 154.23 305.154 155.133 305.443 156.016C305.732 156.898 305.877 157.775 305.877 158.646C305.877 159.525 305.732 160.406 305.443 161.289C305.154 162.172 304.715 163.074 304.125 163.996H303.188C303.707 163.09 304.094 162.193 304.348 161.307C304.605 160.42 304.734 159.533 304.734 158.646C304.734 157.756 304.605 156.867 304.348 155.98C304.094 155.094 303.707 154.203 303.188 153.309ZM310.969 160.885H312.797V162.438L311.643 164.676H310.389L310.969 162.438V160.885ZM310.893 156.443H312.721V158.559H310.893V156.443Z" fill="var(--vscode-foreground)"/>
<path d="M249.521 162.666C249.232 162.834 248.934 162.959 248.625 163.041C248.32 163.127 248.008 163.17 247.688 163.17C246.672 163.17 245.877 162.865 245.303 162.256C244.732 161.646 244.447 160.803 244.447 159.725C244.447 158.646 244.732 157.803 245.303 157.193C245.877 156.584 246.672 156.279 247.688 156.279C248.004 156.279 248.312 156.32 248.613 156.402C248.914 156.484 249.217 156.611 249.521 156.783V157.914C249.236 157.66 248.949 157.477 248.66 157.363C248.375 157.25 248.051 157.193 247.688 157.193C247.012 157.193 246.492 157.412 246.129 157.85C245.766 158.287 245.584 158.912 245.584 159.725C245.584 160.533 245.766 161.158 246.129 161.6C246.496 162.037 247.016 162.256 247.688 162.256C248.062 162.256 248.398 162.199 248.695 162.086C248.992 161.969 249.268 161.789 249.521 161.547V162.666ZM254.648 159.701H254.291C253.662 159.701 253.188 159.812 252.867 160.035C252.551 160.254 252.393 160.582 252.393 161.02C252.393 161.414 252.512 161.721 252.75 161.939C252.988 162.158 253.318 162.268 253.74 162.268C254.334 162.268 254.801 162.062 255.141 161.652C255.48 161.238 255.652 160.668 255.656 159.941V159.701H254.648ZM256.74 159.256V163H255.656V162.027C255.426 162.418 255.135 162.707 254.783 162.895C254.436 163.078 254.012 163.17 253.512 163.17C252.844 163.17 252.311 162.982 251.912 162.607C251.514 162.229 251.314 161.723 251.314 161.09C251.314 160.359 251.559 159.805 252.047 159.426C252.539 159.047 253.26 158.857 254.209 158.857H255.656V158.688C255.652 158.164 255.52 157.785 255.258 157.551C254.996 157.312 254.578 157.193 254.004 157.193C253.637 157.193 253.266 157.246 252.891 157.352C252.516 157.457 252.15 157.611 251.795 157.814V156.736C252.193 156.584 252.574 156.471 252.938 156.396C253.305 156.318 253.66 156.279 254.004 156.279C254.547 156.279 255.01 156.359 255.393 156.52C255.779 156.68 256.092 156.92 256.33 157.24C256.479 157.436 256.584 157.678 256.646 157.967C256.709 158.252 256.74 158.682 256.74 159.256ZM264.533 157.791C264.303 157.611 264.068 157.48 263.83 157.398C263.592 157.316 263.33 157.275 263.045 157.275C262.373 157.275 261.859 157.486 261.504 157.908C261.148 158.33 260.971 158.939 260.971 159.736V163H259.887V156.438H260.971V157.721C261.15 157.256 261.426 156.9 261.797 156.654C262.172 156.404 262.615 156.279 263.127 156.279C263.393 156.279 263.641 156.312 263.871 156.379C264.102 156.445 264.322 156.549 264.533 156.689V157.791ZM268.594 154.574V156.438H271.043V157.275H268.594V160.838C268.594 161.322 268.686 161.66 268.869 161.852C269.053 162.043 269.373 162.139 269.83 162.139H271.043V163H269.725C268.916 163 268.346 162.838 268.014 162.514C267.682 162.189 267.516 161.631 267.516 160.838V157.275H265.764V156.438H267.516V154.574H268.594ZM273.404 154.252H278.262V155.248H276.428V162.004H278.262V163H273.404V162.004H275.238V155.248H273.404V154.252ZM283.055 154.574V156.438H285.504V157.275H283.055V160.838C283.055 161.322 283.146 161.66 283.33 161.852C283.514 162.043 283.834 162.139 284.291 162.139H285.504V163H284.186C283.377 163 282.807 162.838 282.475 162.514C282.143 162.189 281.977 161.631 281.977 160.838V157.275H280.225V156.438H281.977V154.574H283.055ZM293.25 159.18V159.707H288.58V159.742C288.549 160.637 288.719 161.279 289.09 161.67C289.465 162.061 289.992 162.256 290.672 162.256C291.016 162.256 291.375 162.201 291.75 162.092C292.125 161.982 292.525 161.816 292.951 161.594V162.666C292.541 162.834 292.145 162.959 291.762 163.041C291.383 163.127 291.016 163.17 290.66 163.17C289.641 163.17 288.844 162.865 288.27 162.256C287.695 161.643 287.408 160.799 287.408 159.725C287.408 158.678 287.689 157.842 288.252 157.217C288.814 156.592 289.564 156.279 290.502 156.279C291.338 156.279 291.996 156.562 292.477 157.129C292.961 157.695 293.219 158.379 293.25 159.18ZM292.172 158.863C292.125 158.41 291.959 158.02 291.674 157.691C291.393 157.359 290.986 157.193 290.455 157.193C289.936 157.193 289.508 157.365 289.172 157.709C288.836 158.053 288.652 158.439 288.621 158.869L292.172 158.863ZM297.879 157.105C298.012 156.824 298.18 156.617 298.383 156.484C298.59 156.348 298.838 156.279 299.127 156.279C299.654 156.279 300.025 156.484 300.24 156.895C300.459 157.301 300.568 158.068 300.568 159.197V163H299.584V159.244C299.584 158.318 299.531 157.744 299.426 157.521C299.324 157.295 299.137 157.182 298.863 157.182C298.551 157.182 298.336 157.303 298.219 157.545C298.105 157.783 298.049 158.35 298.049 159.244V163H297.064V159.244C297.064 158.307 297.008 157.729 296.895 157.51C296.785 157.291 296.586 157.182 296.297 157.182C296.012 157.182 295.812 157.303 295.699 157.545C295.59 157.783 295.535 158.35 295.535 159.244V163H294.557V156.438H295.535V157C295.664 156.766 295.824 156.588 296.016 156.467C296.211 156.342 296.432 156.279 296.678 156.279C296.975 156.279 297.221 156.348 297.416 156.484C297.615 156.621 297.77 156.828 297.879 157.105Z" fill="#40A6FF"/>
<circle cx="145" cy="159" r="2" fill="#FF0000"/>
</g>
<path fill-rule="evenodd" clip-rule="evenodd" d="M282 178V162L293.6 173.608H286.554L286.402 173.732L282 178Z" fill="var(--vscode-foreground)"/>
<path fill-rule="evenodd" clip-rule="evenodd" d="M283 164.3V175.5L285.969 172.631L286.129 172.492L291.165 172.5L283 164.3Z" fill="black"/>
<rect x="151" y="201" width="65" height="8" rx="4" fill="#007ACC"/>
<rect x="151" y="221" width="65" height="8" rx="4" fill="#007ACC"/>
<rect x="151" y="273" width="31" height="8" rx="4" fill="#007ACC"/>
<rect x="240" y="69" width="42" height="8" rx="4" fill="#D7BA7D"/>
<rect x="222" y="89" width="42" height="8" rx="4" fill="#D7BA7D"/>
<rect x="240" y="109" width="42" height="8" rx="4" fill="#D7BA7D"/>
<rect x="222" y="201" width="108" height="8" rx="4" fill="#D7BA7D"/>
<rect x="222" y="221" width="54" height="8" rx="4" fill="#D7BA7D"/>
<rect x="188" y="273" width="54" height="8" rx="4" fill="#F14C4C"/>
</g>
<rect x="257.5" y="56.5" width="281" height="92" fill="var(--vscode-quickInput-background)"/>
<path d="M268.047 74.2988V75.1426H267.672C266.699 75.1426 266.047 74.998 265.715 74.709C265.387 74.4199 265.223 73.8438 265.223 72.9805V71.8086C265.223 71.3828 265.102 71.0156 264.859 70.707C264.621 70.3984 264.25 70.2441 263.746 70.2441H263.031V69.4062H263.746C264.297 69.4062 264.68 69.2754 264.895 69.0137C265.113 68.752 265.223 68.3672 265.223 67.8594V66.3359C265.223 65.4727 265.387 64.8984 265.715 64.6133C266.047 64.3242 266.699 64.1797 267.672 64.1797H268.047V65.0176H267.637C267.09 65.0176 266.732 65.1035 266.564 65.2754C266.4 65.4434 266.318 65.8047 266.318 66.3594V67.9297C266.318 68.6172 266.184 69.0801 265.914 69.3184C265.645 69.5527 265.119 69.7227 264.338 69.8281C265.096 69.918 265.615 70.0918 265.896 70.3496C266.178 70.6035 266.318 71.0645 266.318 71.7324V72.957C266.318 73.5156 266.4 73.8789 266.564 74.0469C266.732 74.2148 267.09 74.2988 267.637 74.2988H268.047ZM271.082 67.4609H273.842V73.1621H275.98V74H270.625V73.1621H272.764V68.2988H271.082V67.4609ZM272.764 64.9121H273.842V66.2715H272.764V64.9121ZM280.059 65.5742V67.4375H282.508V68.2754H280.059V71.8379C280.059 72.3223 280.15 72.6602 280.334 72.8516C280.518 73.043 280.838 73.1387 281.295 73.1387H282.508V74H281.189C280.381 74 279.811 73.8379 279.479 73.5137C279.146 73.1895 278.98 72.6309 278.98 71.8379V68.2754H277.229V67.4375H278.98V65.5742H280.059ZM290.254 70.1797V70.707H285.584V70.7422C285.553 71.6367 285.723 72.2793 286.094 72.6699C286.469 73.0605 286.996 73.2559 287.676 73.2559C288.02 73.2559 288.379 73.2012 288.754 73.0918C289.129 72.9824 289.529 72.8164 289.955 72.5938V73.666C289.545 73.834 289.148 73.959 288.766 74.041C288.387 74.127 288.02 74.1699 287.664 74.1699C286.645 74.1699 285.848 73.8652 285.273 73.2559C284.699 72.6426 284.412 71.7988 284.412 70.7246C284.412 69.6777 284.693 68.8418 285.256 68.2168C285.818 67.5918 286.568 67.2793 287.506 67.2793C288.342 67.2793 289 67.5625 289.48 68.1289C289.965 68.6953 290.223 69.3789 290.254 70.1797ZM289.176 69.8633C289.129 69.4102 288.963 69.0195 288.678 68.6914C288.396 68.3594 287.99 68.1934 287.459 68.1934C286.939 68.1934 286.512 68.3652 286.176 68.709C285.84 69.0527 285.656 69.4395 285.625 69.8691L289.176 69.8633ZM294.883 68.1055C295.016 67.8242 295.184 67.6172 295.387 67.4844C295.594 67.3477 295.842 67.2793 296.131 67.2793C296.658 67.2793 297.029 67.4844 297.244 67.8945C297.463 68.3008 297.572 69.0684 297.572 70.1973V74H296.588V70.2441C296.588 69.3184 296.535 68.7441 296.43 68.5215C296.328 68.2949 296.141 68.1816 295.867 68.1816C295.555 68.1816 295.34 68.3027 295.223 68.5449C295.109 68.7832 295.053 69.3496 295.053 70.2441V74H294.068V70.2441C294.068 69.3066 294.012 68.7285 293.898 68.5098C293.789 68.291 293.59 68.1816 293.301 68.1816C293.016 68.1816 292.816 68.3027 292.703 68.5449C292.594 68.7832 292.539 69.3496 292.539 70.2441V74H291.561V67.4375H292.539V68C292.668 67.7656 292.828 67.5879 293.02 67.4668C293.215 67.3418 293.436 67.2793 293.682 67.2793C293.979 67.2793 294.225 67.3477 294.42 67.4844C294.619 67.6211 294.773 67.8281 294.883 68.1055ZM298.264 65.2812H299.881L303.303 72.459V65.2812H304.562V74H302.945L299.523 66.8223V74H298.264V65.2812ZM309.496 70.7012H309.139C308.51 70.7012 308.035 70.8125 307.715 71.0352C307.398 71.2539 307.24 71.582 307.24 72.0195C307.24 72.4141 307.359 72.7207 307.598 72.9395C307.836 73.1582 308.166 73.2676 308.588 73.2676C309.182 73.2676 309.648 73.0625 309.988 72.6523C310.328 72.2383 310.5 71.668 310.504 70.9414V70.7012H309.496ZM311.588 70.2559V74H310.504V73.0273C310.273 73.418 309.982 73.707 309.631 73.8945C309.283 74.0781 308.859 74.1699 308.359 74.1699C307.691 74.1699 307.158 73.9824 306.76 73.6074C306.361 73.2285 306.162 72.7227 306.162 72.0898C306.162 71.3594 306.406 70.8047 306.895 70.4258C307.387 70.0469 308.107 69.8574 309.057 69.8574H310.504V69.6875C310.5 69.1641 310.367 68.7852 310.105 68.5508C309.844 68.3125 309.426 68.1934 308.852 68.1934C308.484 68.1934 308.113 68.2461 307.738 68.3516C307.363 68.457 306.998 68.6113 306.643 68.8145V67.7363C307.041 67.584 307.422 67.4707 307.785 67.3965C308.152 67.3184 308.508 67.2793 308.852 67.2793C309.395 67.2793 309.857 67.3594 310.24 67.5195C310.627 67.6797 310.939 67.9199 311.178 68.2402C311.326 68.4355 311.432 68.6777 311.494 68.9668C311.557 69.252 311.588 69.6816 311.588 70.2559ZM316.574 68.1055C316.707 67.8242 316.875 67.6172 317.078 67.4844C317.285 67.3477 317.533 67.2793 317.822 67.2793C318.35 67.2793 318.721 67.4844 318.936 67.8945C319.154 68.3008 319.264 69.0684 319.264 70.1973V74H318.279V70.2441C318.279 69.3184 318.227 68.7441 318.121 68.5215C318.02 68.2949 317.832 68.1816 317.559 68.1816C317.246 68.1816 317.031 68.3027 316.914 68.5449C316.801 68.7832 316.744 69.3496 316.744 70.2441V74H315.76V70.2441C315.76 69.3066 315.703 68.7285 315.59 68.5098C315.48 68.291 315.281 68.1816 314.992 68.1816C314.707 68.1816 314.508 68.3027 314.395 68.5449C314.285 68.7832 314.23 69.3496 314.23 70.2441V74H313.252V67.4375H314.23V68C314.359 67.7656 314.52 67.5879 314.711 67.4668C314.906 67.3418 315.127 67.2793 315.373 67.2793C315.67 67.2793 315.916 67.3477 316.111 67.4844C316.311 67.6211 316.465 67.8281 316.574 68.1055ZM326.406 70.1797V70.707H321.736V70.7422C321.705 71.6367 321.875 72.2793 322.246 72.6699C322.621 73.0605 323.148 73.2559 323.828 73.2559C324.172 73.2559 324.531 73.2012 324.906 73.0918C325.281 72.9824 325.682 72.8164 326.107 72.5938V73.666C325.697 73.834 325.301 73.959 324.918 74.041C324.539 74.127 324.172 74.1699 323.816 74.1699C322.797 74.1699 322 73.8652 321.426 73.2559C320.852 72.6426 320.564 71.7988 320.564 70.7246C320.564 69.6777 320.846 68.8418 321.408 68.2168C321.971 67.5918 322.721 67.2793 323.658 67.2793C324.494 67.2793 325.152 67.5625 325.633 68.1289C326.117 68.6953 326.375 69.3789 326.406 70.1797ZM325.328 69.8633C325.281 69.4102 325.115 69.0195 324.83 68.6914C324.549 68.3594 324.143 68.1934 323.611 68.1934C323.092 68.1934 322.664 68.3652 322.328 68.709C321.992 69.0527 321.809 69.4395 321.777 69.8691L325.328 69.8633ZM329.588 67.4434H331.416V69.5586H329.588V67.4434ZM329.588 71.8672H331.416V74H329.588V71.8672ZM345.725 68.334H344.248V67.1211L345.396 64.8828H346.299L345.725 67.1211V68.334ZM351.32 73.0273C352.316 73.0273 353.012 72.7832 353.406 72.2949C353.801 71.8027 353.998 70.916 353.998 69.6348C353.998 68.3418 353.801 67.4512 353.406 66.9629C353.016 66.4707 352.32 66.2246 351.32 66.2246H350.758V73.0273H351.32ZM351.344 65.252C352.68 65.252 353.664 65.6074 354.297 66.3184C354.93 67.0293 355.246 68.1348 355.246 69.6348C355.246 71.127 354.93 72.2285 354.297 72.9395C353.664 73.6465 352.68 74 351.344 74H349.568V65.252H351.344ZM362.559 70.1797V70.707H357.889V70.7422C357.857 71.6367 358.027 72.2793 358.398 72.6699C358.773 73.0605 359.301 73.2559 359.98 73.2559C360.324 73.2559 360.684 73.2012 361.059 73.0918C361.434 72.9824 361.834 72.8164 362.26 72.5938V73.666C361.85 73.834 361.453 73.959 361.07 74.041C360.691 74.127 360.324 74.1699 359.969 74.1699C358.949 74.1699 358.152 73.8652 357.578 73.2559C357.004 72.6426 356.717 71.7988 356.717 70.7246C356.717 69.6777 356.998 68.8418 357.561 68.2168C358.123 67.5918 358.873 67.2793 359.811 67.2793C360.646 67.2793 361.305 67.5625 361.785 68.1289C362.27 68.6953 362.527 69.3789 362.559 70.1797ZM361.48 69.8633C361.434 69.4102 361.268 69.0195 360.982 68.6914C360.701 68.3594 360.295 68.1934 359.764 68.1934C359.244 68.1934 358.816 68.3652 358.48 68.709C358.145 69.0527 357.961 69.4395 357.93 69.8691L361.48 69.8633ZM368.928 67.666V68.7207C368.619 68.541 368.309 68.4062 367.996 68.3164C367.684 68.2266 367.365 68.1816 367.041 68.1816C366.553 68.1816 366.188 68.2617 365.945 68.4219C365.707 68.5781 365.588 68.8184 365.588 69.1426C365.588 69.4355 365.678 69.6543 365.857 69.7988C366.037 69.9434 366.484 70.084 367.199 70.2207L367.633 70.3027C368.168 70.4043 368.572 70.6074 368.846 70.9121C369.123 71.2168 369.262 71.6133 369.262 72.1016C369.262 72.75 369.031 73.2578 368.57 73.625C368.109 73.9883 367.469 74.1699 366.648 74.1699C366.324 74.1699 365.984 74.1348 365.629 74.0645C365.273 73.998 364.889 73.8965 364.475 73.7598V72.6465C364.877 72.8535 365.262 73.0098 365.629 73.1152C365.996 73.2168 366.344 73.2676 366.672 73.2676C367.148 73.2676 367.518 73.1719 367.779 72.9805C368.041 72.7852 368.172 72.5137 368.172 72.166C368.172 71.666 367.693 71.3203 366.736 71.1289L366.689 71.1172L366.285 71.0352C365.664 70.9141 365.211 70.7109 364.926 70.4258C364.641 70.1367 364.498 69.7441 364.498 69.248C364.498 68.6191 364.711 68.1348 365.137 67.7949C365.562 67.4512 366.17 67.2793 366.959 67.2793C367.311 67.2793 367.648 67.3125 367.973 67.3789C368.297 67.4414 368.615 67.5371 368.928 67.666ZM371.84 64.8828H372.953V70.1621L375.783 67.4375H377.096L374.512 69.9102L377.5 74H376.182L373.756 70.6133L372.953 71.3691V74H371.84V64.8828ZM380.975 64.8828H382.451V66.0898L381.297 68.334H380.4L380.975 66.0898V64.8828ZM387.508 71.8848H389.336V73.4375L388.035 75.9629L386.863 75.9688L387.508 73.4375V71.8848ZM401.576 73.1738V76.4961H400.492V67.4375H401.576V68.2754C401.756 67.9512 401.994 67.7051 402.291 67.5371C402.592 67.3652 402.938 67.2793 403.328 67.2793C404.121 67.2793 404.742 67.5859 405.191 68.1992C405.645 68.8125 405.871 69.6621 405.871 70.748C405.871 71.8145 405.645 72.6523 405.191 73.2617C404.738 73.8672 404.117 74.1699 403.328 74.1699C402.93 74.1699 402.58 74.0859 402.279 73.918C401.982 73.7461 401.748 73.498 401.576 73.1738ZM404.74 70.7246C404.74 69.8887 404.607 69.2578 404.342 68.832C404.08 68.4062 403.689 68.1934 403.17 68.1934C402.646 68.1934 402.25 68.4082 401.98 68.8379C401.711 69.2637 401.576 69.8926 401.576 70.7246C401.576 71.5527 401.711 72.1816 401.98 72.6113C402.25 73.041 402.646 73.2559 403.17 73.2559C403.689 73.2559 404.08 73.043 404.342 72.6172C404.607 72.1914 404.74 71.5605 404.74 70.7246ZM413.377 68.791C413.146 68.6113 412.912 68.4805 412.674 68.3984C412.436 68.3164 412.174 68.2754 411.889 68.2754C411.217 68.2754 410.703 68.4863 410.348 68.9082C409.992 69.3301 409.814 69.9395 409.814 70.7363V74H408.73V67.4375H409.814V68.7207C409.994 68.2559 410.27 67.9004 410.641 67.6543C411.016 67.4043 411.459 67.2793 411.971 67.2793C412.236 67.2793 412.484 67.3125 412.715 67.3789C412.945 67.4453 413.166 67.5488 413.377 67.6895V68.791ZM415.691 67.4609H418.451V73.1621H420.59V74H415.234V73.1621H417.373V68.2988H415.691V67.4609ZM417.373 64.9121H418.451V66.2715H417.373V64.9121ZM427.287 73.666C426.998 73.834 426.699 73.959 426.391 74.041C426.086 74.127 425.773 74.1699 425.453 74.1699C424.438 74.1699 423.643 73.8652 423.068 73.2559C422.498 72.6465 422.213 71.8027 422.213 70.7246C422.213 69.6465 422.498 68.8027 423.068 68.1934C423.643 67.584 424.438 67.2793 425.453 67.2793C425.77 67.2793 426.078 67.3203 426.379 67.4023C426.68 67.4844 426.982 67.6113 427.287 67.7832V68.9141C427.002 68.6602 426.715 68.4766 426.426 68.3633C426.141 68.25 425.816 68.1934 425.453 68.1934C424.777 68.1934 424.258 68.4121 423.895 68.8496C423.531 69.2871 423.35 69.9121 423.35 70.7246C423.35 71.5332 423.531 72.1582 423.895 72.5996C424.262 73.0371 424.781 73.2559 425.453 73.2559C425.828 73.2559 426.164 73.1992 426.461 73.0859C426.758 72.9688 427.033 72.7891 427.287 72.5469V73.666ZM434.863 70.1797V70.707H430.193V70.7422C430.162 71.6367 430.332 72.2793 430.703 72.6699C431.078 73.0605 431.605 73.2559 432.285 73.2559C432.629 73.2559 432.988 73.2012 433.363 73.0918C433.738 72.9824 434.139 72.8164 434.564 72.5938V73.666C434.154 73.834 433.758 73.959 433.375 74.041C432.996 74.127 432.629 74.1699 432.273 74.1699C431.254 74.1699 430.457 73.8652 429.883 73.2559C429.309 72.6426 429.021 71.7988 429.021 70.7246C429.021 69.6777 429.303 68.8418 429.865 68.2168C430.428 67.5918 431.178 67.2793 432.115 67.2793C432.951 67.2793 433.609 67.5625 434.09 68.1289C434.574 68.6953 434.832 69.3789 434.863 70.1797ZM433.785 69.8633C433.738 69.4102 433.572 69.0195 433.287 68.6914C433.006 68.3594 432.6 68.1934 432.068 68.1934C431.549 68.1934 431.121 68.3652 430.785 68.709C430.449 69.0527 430.266 69.4395 430.234 69.8691L433.785 69.8633ZM438.045 67.4434H439.873V69.5586H438.045V67.4434ZM438.045 71.8672H439.873V74H438.045V71.8672ZM452.178 73.0039H456.197V74H450.883V73.0039C451.613 72.2344 452.252 71.5547 452.799 70.9648C453.346 70.375 453.723 69.959 453.93 69.7168C454.32 69.2402 454.584 68.8555 454.721 68.5625C454.857 68.2656 454.926 67.9629 454.926 67.6543C454.926 67.166 454.781 66.7832 454.492 66.5059C454.207 66.2285 453.814 66.0898 453.314 66.0898C452.959 66.0898 452.586 66.1543 452.195 66.2832C451.805 66.4121 451.391 66.6074 450.953 66.8691V65.6738C451.355 65.4824 451.75 65.3379 452.137 65.2402C452.527 65.1426 452.912 65.0938 453.291 65.0938C454.146 65.0938 454.834 65.3223 455.354 65.7793C455.877 66.2324 456.139 66.8281 456.139 67.5664C456.139 67.9414 456.051 68.3164 455.875 68.6914C455.703 69.0664 455.422 69.4805 455.031 69.9336C454.812 70.1875 454.494 70.5391 454.076 70.9883C453.662 71.4375 453.029 72.1094 452.178 73.0039ZM458.436 65.252H462.865V66.248H459.514V68.3984C459.682 68.3359 459.85 68.291 460.018 68.2637C460.189 68.2324 460.361 68.2168 460.533 68.2168C461.439 68.2168 462.158 68.4844 462.689 69.0195C463.221 69.5547 463.486 70.2793 463.486 71.1934C463.486 72.1152 463.207 72.8418 462.648 73.373C462.094 73.9043 461.334 74.1699 460.369 74.1699C459.904 74.1699 459.479 74.1387 459.092 74.0762C458.709 74.0137 458.365 73.9199 458.061 73.7949V72.5938C458.42 72.7891 458.781 72.9355 459.145 73.0332C459.508 73.127 459.879 73.1738 460.258 73.1738C460.91 73.1738 461.412 73.002 461.764 72.6582C462.119 72.3145 462.297 71.8262 462.297 71.1934C462.297 70.5684 462.113 70.082 461.746 69.7344C461.383 69.3867 460.875 69.2129 460.223 69.2129C459.906 69.2129 459.598 69.25 459.297 69.3242C458.996 69.3945 458.709 69.502 458.436 69.6465V65.252ZM468.062 65.123C468.996 65.123 469.701 65.5039 470.178 66.2656C470.658 67.0273 470.898 68.1543 470.898 69.6465C470.898 71.1387 470.658 72.2656 470.178 73.0273C469.701 73.7891 468.996 74.1699 468.062 74.1699C467.129 74.1699 466.424 73.7891 465.947 73.0273C465.471 72.2656 465.232 71.1387 465.232 69.6465C465.232 68.1543 465.471 67.0273 465.947 66.2656C466.424 65.5039 467.129 65.123 468.062 65.123ZM468.062 73.2324C468.617 73.2324 469.029 72.9375 469.299 72.3477C469.572 71.7578 469.709 70.8574 469.709 69.6465C469.709 69.002 469.67 68.4199 469.592 67.9004L466.803 72.2656C467.096 72.9102 467.516 73.2324 468.062 73.2324ZM468.062 66.0605C467.512 66.0605 467.1 66.3555 466.826 66.9453C466.557 67.5352 466.422 68.4355 466.422 69.6465C466.422 70.1973 466.459 70.7129 466.533 71.1934L469.264 66.8398C468.967 66.3203 468.566 66.0605 468.062 66.0605ZM473.963 71.6328H476.025V74H473.963V71.6328ZM480.127 65.252H484.557V66.248H481.205V68.3984C481.373 68.3359 481.541 68.291 481.709 68.2637C481.881 68.2324 482.053 68.2168 482.225 68.2168C483.131 68.2168 483.85 68.4844 484.381 69.0195C484.912 69.5547 485.178 70.2793 485.178 71.1934C485.178 72.1152 484.898 72.8418 484.34 73.373C483.785 73.9043 483.025 74.1699 482.061 74.1699C481.596 74.1699 481.17 74.1387 480.783 74.0762C480.4 74.0137 480.057 73.9199 479.752 73.7949V72.5938C480.111 72.7891 480.473 72.9355 480.836 73.0332C481.199 73.127 481.57 73.1738 481.949 73.1738C482.602 73.1738 483.104 73.002 483.455 72.6582C483.811 72.3145 483.988 71.8262 483.988 71.1934C483.988 70.5684 483.805 70.082 483.438 69.7344C483.074 69.3867 482.566 69.2129 481.914 69.2129C481.598 69.2129 481.289 69.25 480.988 69.3242C480.688 69.3945 480.4 69.502 480.127 69.6465V65.252ZM487.838 74.2988C488.385 74.2988 488.74 74.2148 488.904 74.0469C489.072 73.8789 489.156 73.5156 489.156 72.957V71.7324C489.156 71.0645 489.297 70.6035 489.578 70.3496C489.859 70.0918 490.379 69.918 491.137 69.8281C490.355 69.7227 489.83 69.5527 489.561 69.3184C489.291 69.0801 489.156 68.6172 489.156 67.9297V66.3594C489.156 65.8047 489.072 65.4434 488.904 65.2754C488.74 65.1035 488.385 65.0176 487.838 65.0176H487.428V64.1797H487.803C488.775 64.1797 489.426 64.3242 489.754 64.6133C490.086 64.8984 490.252 65.4727 490.252 66.3359V67.8594C490.252 68.3672 490.359 68.752 490.574 69.0137C490.793 69.2754 491.178 69.4062 491.729 69.4062H492.443V70.2441H491.729C491.225 70.2441 490.852 70.3984 490.609 70.707C490.371 71.0156 490.252 71.3828 490.252 71.8086V72.9805C490.252 73.8438 490.086 74.4199 489.754 74.709C489.426 74.998 488.775 75.1426 487.803 75.1426H487.428V74.2988H487.838Z" fill="var(--vscode-foreground)"/>
<path d="M279.852 94.4609H282.611V100.162H284.75V101H279.395V100.162H281.533V95.2988H279.852V94.4609ZM281.533 91.9121H282.611V93.2715H281.533V91.9121ZM288.828 92.5742V94.4375H291.277V95.2754H288.828V98.8379C288.828 99.3223 288.92 99.6602 289.104 99.8516C289.287 100.043 289.607 100.139 290.064 100.139H291.277V101H289.959C289.15 101 288.58 100.838 288.248 100.514C287.916 100.189 287.75 99.6309 287.75 98.8379V95.2754H285.998V94.4375H287.75V92.5742H288.828ZM299.023 97.1797V97.707H294.354V97.7422C294.322 98.6367 294.492 99.2793 294.863 99.6699C295.238 100.061 295.766 100.256 296.445 100.256C296.789 100.256 297.148 100.201 297.523 100.092C297.898 99.9824 298.299 99.8164 298.725 99.5938V100.666C298.314 100.834 297.918 100.959 297.535 101.041C297.156 101.127 296.789 101.17 296.434 101.17C295.414 101.17 294.617 100.865 294.043 100.256C293.469 99.6426 293.182 98.7988 293.182 97.7246C293.182 96.6777 293.463 95.8418 294.025 95.2168C294.588 94.5918 295.338 94.2793 296.275 94.2793C297.111 94.2793 297.77 94.5625 298.25 95.1289C298.734 95.6953 298.992 96.3789 299.023 97.1797ZM297.945 96.8633C297.898 96.4102 297.732 96.0195 297.447 95.6914C297.166 95.3594 296.76 95.1934 296.229 95.1934C295.709 95.1934 295.281 95.3652 294.945 95.709C294.609 96.0527 294.426 96.4395 294.395 96.8691L297.945 96.8633ZM303.652 95.1055C303.785 94.8242 303.953 94.6172 304.156 94.4844C304.363 94.3477 304.611 94.2793 304.9 94.2793C305.428 94.2793 305.799 94.4844 306.014 94.8945C306.232 95.3008 306.342 96.0684 306.342 97.1973V101H305.357V97.2441C305.357 96.3184 305.305 95.7441 305.199 95.5215C305.098 95.2949 304.91 95.1816 304.637 95.1816C304.324 95.1816 304.109 95.3027 303.992 95.5449C303.879 95.7832 303.822 96.3496 303.822 97.2441V101H302.838V97.2441C302.838 96.3066 302.781 95.7285 302.668 95.5098C302.559 95.291 302.359 95.1816 302.07 95.1816C301.785 95.1816 301.586 95.3027 301.473 95.5449C301.363 95.7832 301.309 96.3496 301.309 97.2441V101H300.33V94.4375H301.309V95C301.438 94.7656 301.598 94.5879 301.789 94.4668C301.984 94.3418 302.205 94.2793 302.451 94.2793C302.748 94.2793 302.994 94.3477 303.189 94.4844C303.389 94.6211 303.543 94.8281 303.652 95.1055ZM307.033 92.2812H308.65L312.072 99.459V92.2812H313.332V101H311.715L308.293 93.8223V101H307.033V92.2812ZM318.266 97.7012H317.908C317.279 97.7012 316.805 97.8125 316.484 98.0352C316.168 98.2539 316.01 98.582 316.01 99.0195C316.01 99.4141 316.129 99.7207 316.367 99.9395C316.605 100.158 316.936 100.268 317.357 100.268C317.951 100.268 318.418 100.062 318.758 99.6523C319.098 99.2383 319.27 98.668 319.273 97.9414V97.7012H318.266ZM320.357 97.2559V101H319.273V100.027C319.043 100.418 318.752 100.707 318.4 100.895C318.053 101.078 317.629 101.17 317.129 101.17C316.461 101.17 315.928 100.982 315.529 100.607C315.131 100.229 314.932 99.7227 314.932 99.0898C314.932 98.3594 315.176 97.8047 315.664 97.4258C316.156 97.0469 316.877 96.8574 317.826 96.8574H319.273V96.6875C319.27 96.1641 319.137 95.7852 318.875 95.5508C318.613 95.3125 318.195 95.1934 317.621 95.1934C317.254 95.1934 316.883 95.2461 316.508 95.3516C316.133 95.457 315.768 95.6113 315.412 95.8145V94.7363C315.811 94.584 316.191 94.4707 316.555 94.3965C316.922 94.3184 317.277 94.2793 317.621 94.2793C318.164 94.2793 318.627 94.3594 319.01 94.5195C319.396 94.6797 319.709 94.9199 319.947 95.2402C320.096 95.4355 320.201 95.6777 320.264 95.9668C320.326 96.252 320.357 96.6816 320.357 97.2559ZM325.344 95.1055C325.477 94.8242 325.645 94.6172 325.848 94.4844C326.055 94.3477 326.303 94.2793 326.592 94.2793C327.119 94.2793 327.49 94.4844 327.705 94.8945C327.924 95.3008 328.033 96.0684 328.033 97.1973V101H327.049V97.2441C327.049 96.3184 326.996 95.7441 326.891 95.5215C326.789 95.2949 326.602 95.1816 326.328 95.1816C326.016 95.1816 325.801 95.3027 325.684 95.5449C325.57 95.7832 325.514 96.3496 325.514 97.2441V101H324.529V97.2441C324.529 96.3066 324.473 95.7285 324.359 95.5098C324.25 95.291 324.051 95.1816 323.762 95.1816C323.477 95.1816 323.277 95.3027 323.164 95.5449C323.055 95.7832 323 96.3496 323 97.2441V101H322.021V94.4375H323V95C323.129 94.7656 323.289 94.5879 323.48 94.4668C323.676 94.3418 323.896 94.2793 324.143 94.2793C324.439 94.2793 324.686 94.3477 324.881 94.4844C325.08 94.6211 325.234 94.8281 325.344 95.1055ZM335.176 97.1797V97.707H330.506V97.7422C330.475 98.6367 330.645 99.2793 331.016 99.6699C331.391 100.061 331.918 100.256 332.598 100.256C332.941 100.256 333.301 100.201 333.676 100.092C334.051 99.9824 334.451 99.8164 334.877 99.5938V100.666C334.467 100.834 334.07 100.959 333.688 101.041C333.309 101.127 332.941 101.17 332.586 101.17C331.566 101.17 330.77 100.865 330.195 100.256C329.621 99.6426 329.334 98.7988 329.334 97.7246C329.334 96.6777 329.615 95.8418 330.178 95.2168C330.74 94.5918 331.49 94.2793 332.428 94.2793C333.264 94.2793 333.922 94.5625 334.402 95.1289C334.887 95.6953 335.145 96.3789 335.176 97.1797ZM334.098 96.8633C334.051 96.4102 333.885 96.0195 333.6 95.6914C333.318 95.3594 332.912 95.1934 332.381 95.1934C331.861 95.1934 331.434 95.3652 331.098 95.709C330.762 96.0527 330.578 96.4395 330.547 96.8691L334.098 96.8633ZM338.357 94.4434H340.186V96.5586H338.357V94.4434ZM338.357 98.8672H340.186V101H338.357V98.8672ZM280.197 118.174V121.496H279.113V112.438H280.197V113.275C280.377 112.951 280.615 112.705 280.912 112.537C281.213 112.365 281.559 112.279 281.949 112.279C282.742 112.279 283.363 112.586 283.812 113.199C284.266 113.812 284.492 114.662 284.492 115.748C284.492 116.814 284.266 117.652 283.812 118.262C283.359 118.867 282.738 119.17 281.949 119.17C281.551 119.17 281.201 119.086 280.9 118.918C280.604 118.746 280.369 118.498 280.197 118.174ZM283.361 115.725C283.361 114.889 283.229 114.258 282.963 113.832C282.701 113.406 282.311 113.193 281.791 113.193C281.268 113.193 280.871 113.408 280.602 113.838C280.332 114.264 280.197 114.893 280.197 115.725C280.197 116.553 280.332 117.182 280.602 117.611C280.871 118.041 281.268 118.256 281.791 118.256C282.311 118.256 282.701 118.043 282.963 117.617C283.229 117.191 283.361 116.561 283.361 115.725ZM291.998 113.791C291.768 113.611 291.533 113.48 291.295 113.398C291.057 113.316 290.795 113.275 290.51 113.275C289.838 113.275 289.324 113.486 288.969 113.908C288.613 114.33 288.436 114.939 288.436 115.736V119H287.352V112.438H288.436V113.721C288.615 113.256 288.891 112.9 289.262 112.654C289.637 112.404 290.08 112.279 290.592 112.279C290.857 112.279 291.105 112.312 291.336 112.379C291.566 112.445 291.787 112.549 291.998 112.689V113.791ZM294.312 112.461H297.072V118.162H299.211V119H293.855V118.162H295.994V113.299H294.312V112.461ZM295.994 109.912H297.072V111.271H295.994V109.912ZM305.908 118.666C305.619 118.834 305.32 118.959 305.012 119.041C304.707 119.127 304.395 119.17 304.074 119.17C303.059 119.17 302.264 118.865 301.689 118.256C301.119 117.646 300.834 116.803 300.834 115.725C300.834 114.646 301.119 113.803 301.689 113.193C302.264 112.584 303.059 112.279 304.074 112.279C304.391 112.279 304.699 112.32 305 112.402C305.301 112.484 305.604 112.611 305.908 112.783V113.914C305.623 113.66 305.336 113.477 305.047 113.363C304.762 113.25 304.438 113.193 304.074 113.193C303.398 113.193 302.879 113.412 302.516 113.85C302.152 114.287 301.971 114.912 301.971 115.725C301.971 116.533 302.152 117.158 302.516 117.6C302.883 118.037 303.402 118.256 304.074 118.256C304.449 118.256 304.785 118.199 305.082 118.086C305.379 117.969 305.654 117.789 305.908 117.547V118.666ZM313.484 115.18V115.707H308.814V115.742C308.783 116.637 308.953 117.279 309.324 117.67C309.699 118.061 310.227 118.256 310.906 118.256C311.25 118.256 311.609 118.201 311.984 118.092C312.359 117.982 312.76 117.816 313.186 117.594V118.666C312.775 118.834 312.379 118.959 311.996 119.041C311.617 119.127 311.25 119.17 310.895 119.17C309.875 119.17 309.078 118.865 308.504 118.256C307.93 117.643 307.643 116.799 307.643 115.725C307.643 114.678 307.924 113.842 308.486 113.217C309.049 112.592 309.799 112.279 310.736 112.279C311.572 112.279 312.23 112.562 312.711 113.129C313.195 113.695 313.453 114.379 313.484 115.18ZM312.406 114.863C312.359 114.41 312.193 114.02 311.908 113.691C311.627 113.359 311.221 113.193 310.689 113.193C310.17 113.193 309.742 113.365 309.406 113.709C309.07 114.053 308.887 114.439 308.855 114.869L312.406 114.863ZM316.666 112.443H318.494V114.559H316.666V112.443ZM316.666 116.867H318.494V119H316.666V116.867ZM285.172 138.113V139.109H278V138.113H285.172ZM292.402 138.113V139.109H285.23V138.113H292.402ZM294.658 136.174V139.496H293.574V130.438H294.658V131.275C294.838 130.951 295.076 130.705 295.373 130.537C295.674 130.365 296.02 130.279 296.41 130.279C297.203 130.279 297.824 130.586 298.273 131.199C298.727 131.812 298.953 132.662 298.953 133.748C298.953 134.814 298.727 135.652 298.273 136.262C297.82 136.867 297.199 137.17 296.41 137.17C296.012 137.17 295.662 137.086 295.361 136.918C295.064 136.746 294.83 136.498 294.658 136.174ZM297.822 133.725C297.822 132.889 297.689 132.258 297.424 131.832C297.162 131.406 296.771 131.193 296.252 131.193C295.729 131.193 295.332 131.408 295.062 131.838C294.793 132.264 294.658 132.893 294.658 133.725C294.658 134.553 294.793 135.182 295.062 135.611C295.332 136.041 295.729 136.256 296.252 136.256C296.771 136.256 297.162 136.043 297.424 135.617C297.689 135.191 297.822 134.561 297.822 133.725ZM306.459 131.791C306.229 131.611 305.994 131.48 305.756 131.398C305.518 131.316 305.256 131.275 304.971 131.275C304.299 131.275 303.785 131.486 303.43 131.908C303.074 132.33 302.896 132.939 302.896 133.736V137H301.812V130.438H302.896V131.721C303.076 131.256 303.352 130.9 303.723 130.654C304.098 130.404 304.541 130.279 305.053 130.279C305.318 130.279 305.566 130.312 305.797 130.379C306.027 130.445 306.248 130.549 306.459 130.689V131.791ZM310.531 131.193C309.984 131.193 309.57 131.406 309.289 131.832C309.008 132.258 308.867 132.889 308.867 133.725C308.867 134.557 309.008 135.188 309.289 135.617C309.57 136.043 309.984 136.256 310.531 136.256C311.082 136.256 311.498 136.043 311.779 135.617C312.061 135.188 312.201 134.557 312.201 133.725C312.201 132.889 312.061 132.258 311.779 131.832C311.498 131.406 311.082 131.193 310.531 131.193ZM310.531 130.279C311.441 130.279 312.137 130.574 312.617 131.164C313.102 131.754 313.344 132.607 313.344 133.725C313.344 134.846 313.104 135.701 312.623 136.291C312.143 136.877 311.445 137.17 310.531 137.17C309.621 137.17 308.926 136.877 308.445 136.291C307.965 135.701 307.725 134.846 307.725 133.725C307.725 132.607 307.965 131.754 308.445 131.164C308.926 130.574 309.621 130.279 310.531 130.279ZM317.75 128.574V130.438H320.199V131.275H317.75V134.838C317.75 135.322 317.842 135.66 318.025 135.852C318.209 136.043 318.529 136.139 318.986 136.139H320.199V137H318.881C318.072 137 317.502 136.838 317.17 136.514C316.838 136.189 316.672 135.631 316.672 134.838V131.275H314.92V130.438H316.672V128.574H317.75ZM324.992 131.193C324.445 131.193 324.031 131.406 323.75 131.832C323.469 132.258 323.328 132.889 323.328 133.725C323.328 134.557 323.469 135.188 323.75 135.617C324.031 136.043 324.445 136.256 324.992 136.256C325.543 136.256 325.959 136.043 326.24 135.617C326.521 135.188 326.662 134.557 326.662 133.725C326.662 132.889 326.521 132.258 326.24 131.832C325.959 131.406 325.543 131.193 324.992 131.193ZM324.992 130.279C325.902 130.279 326.598 130.574 327.078 131.164C327.562 131.754 327.805 132.607 327.805 133.725C327.805 134.846 327.564 135.701 327.084 136.291C326.604 136.877 325.906 137.17 324.992 137.17C324.082 137.17 323.387 136.877 322.906 136.291C322.426 135.701 322.186 134.846 322.186 133.725C322.186 132.607 322.426 131.754 322.906 131.164C323.387 130.574 324.082 130.279 324.992 130.279ZM335.785 138.113V139.109H328.613V138.113H335.785ZM343.016 138.113V139.109H335.844V138.113H343.016ZM345.588 130.443H347.416V132.559H345.588V130.443ZM345.588 134.867H347.416V137H345.588V134.867Z" fill="#D585CE"/>
<path d="M354.494 95.334H353.018V94.1211L354.166 91.8828H355.068L354.494 94.1211V95.334ZM360.09 100.027C361.086 100.027 361.781 99.7832 362.176 99.2949C362.57 98.8027 362.768 97.916 362.768 96.6348C362.768 95.3418 362.57 94.4512 362.176 93.9629C361.785 93.4707 361.09 93.2246 360.09 93.2246H359.527V100.027H360.09ZM360.113 92.252C361.449 92.252 362.434 92.6074 363.066 93.3184C363.699 94.0293 364.016 95.1348 364.016 96.6348C364.016 98.127 363.699 99.2285 363.066 99.9395C362.434 100.646 361.449 101 360.113 101H358.338V92.252H360.113ZM371.328 97.1797V97.707H366.658V97.7422C366.627 98.6367 366.797 99.2793 367.168 99.6699C367.543 100.061 368.07 100.256 368.75 100.256C369.094 100.256 369.453 100.201 369.828 100.092C370.203 99.9824 370.604 99.8164 371.029 99.5938V100.666C370.619 100.834 370.223 100.959 369.84 101.041C369.461 101.127 369.094 101.17 368.738 101.17C367.719 101.17 366.922 100.865 366.348 100.256C365.773 99.6426 365.486 98.7988 365.486 97.7246C365.486 96.6777 365.768 95.8418 366.33 95.2168C366.893 94.5918 367.643 94.2793 368.58 94.2793C369.416 94.2793 370.074 94.5625 370.555 95.1289C371.039 95.6953 371.297 96.3789 371.328 97.1797ZM370.25 96.8633C370.203 96.4102 370.037 96.0195 369.752 95.6914C369.471 95.3594 369.064 95.1934 368.533 95.1934C368.014 95.1934 367.586 95.3652 367.25 95.709C366.914 96.0527 366.73 96.4395 366.699 96.8691L370.25 96.8633ZM377.697 94.666V95.7207C377.389 95.541 377.078 95.4062 376.766 95.3164C376.453 95.2266 376.135 95.1816 375.811 95.1816C375.322 95.1816 374.957 95.2617 374.715 95.4219C374.477 95.5781 374.357 95.8184 374.357 96.1426C374.357 96.4355 374.447 96.6543 374.627 96.7988C374.807 96.9434 375.254 97.084 375.969 97.2207L376.402 97.3027C376.938 97.4043 377.342 97.6074 377.615 97.9121C377.893 98.2168 378.031 98.6133 378.031 99.1016C378.031 99.75 377.801 100.258 377.34 100.625C376.879 100.988 376.238 101.17 375.418 101.17C375.094 101.17 374.754 101.135 374.398 101.064C374.043 100.998 373.658 100.896 373.244 100.76V99.6465C373.646 99.8535 374.031 100.01 374.398 100.115C374.766 100.217 375.113 100.268 375.441 100.268C375.918 100.268 376.287 100.172 376.549 99.9805C376.811 99.7852 376.941 99.5137 376.941 99.166C376.941 98.666 376.463 98.3203 375.506 98.1289L375.459 98.1172L375.055 98.0352C374.434 97.9141 373.98 97.7109 373.695 97.4258C373.41 97.1367 373.268 96.7441 373.268 96.248C373.268 95.6191 373.48 95.1348 373.906 94.7949C374.332 94.4512 374.939 94.2793 375.729 94.2793C376.08 94.2793 376.418 94.3125 376.742 94.3789C377.066 94.4414 377.385 94.5371 377.697 94.666ZM380.609 91.8828H381.723V97.1621L384.553 94.4375H385.865L383.281 96.9102L386.27 101H384.951L382.525 97.6133L381.723 98.3691V101H380.609V91.8828ZM389.744 91.8828H391.221V93.0898L390.066 95.334H389.17L389.744 93.0898V91.8828Z" fill="#CE9178"/>
<path d="M330.799 118.004H334.818V119H329.504V118.004C330.234 117.234 330.873 116.555 331.42 115.965C331.967 115.375 332.344 114.959 332.551 114.717C332.941 114.24 333.205 113.855 333.342 113.562C333.479 113.266 333.547 112.963 333.547 112.654C333.547 112.166 333.402 111.783 333.113 111.506C332.828 111.229 332.436 111.09 331.936 111.09C331.58 111.09 331.207 111.154 330.816 111.283C330.426 111.412 330.012 111.607 329.574 111.869V110.674C329.977 110.482 330.371 110.338 330.758 110.24C331.148 110.143 331.533 110.094 331.912 110.094C332.768 110.094 333.455 110.322 333.975 110.779C334.498 111.232 334.76 111.828 334.76 112.566C334.76 112.941 334.672 113.316 334.496 113.691C334.324 114.066 334.043 114.48 333.652 114.934C333.434 115.188 333.115 115.539 332.697 115.988C332.283 116.438 331.65 117.109 330.799 118.004ZM337.057 110.252H341.486V111.248H338.135V113.398C338.303 113.336 338.471 113.291 338.639 113.264C338.811 113.232 338.982 113.217 339.154 113.217C340.061 113.217 340.779 113.484 341.311 114.02C341.842 114.555 342.107 115.279 342.107 116.193C342.107 117.115 341.828 117.842 341.27 118.373C340.715 118.904 339.955 119.17 338.99 119.17C338.525 119.17 338.1 119.139 337.713 119.076C337.33 119.014 336.986 118.92 336.682 118.795V117.594C337.041 117.789 337.402 117.936 337.766 118.033C338.129 118.127 338.5 118.174 338.879 118.174C339.531 118.174 340.033 118.002 340.385 117.658C340.74 117.314 340.918 116.826 340.918 116.193C340.918 115.568 340.734 115.082 340.367 114.734C340.004 114.387 339.496 114.213 338.844 114.213C338.527 114.213 338.219 114.25 337.918 114.324C337.617 114.395 337.33 114.502 337.057 114.646V110.252ZM346.684 110.123C347.617 110.123 348.322 110.504 348.799 111.266C349.279 112.027 349.52 113.154 349.52 114.646C349.52 116.139 349.279 117.266 348.799 118.027C348.322 118.789 347.617 119.17 346.684 119.17C345.75 119.17 345.045 118.789 344.568 118.027C344.092 117.266 343.854 116.139 343.854 114.646C343.854 113.154 344.092 112.027 344.568 111.266C345.045 110.504 345.75 110.123 346.684 110.123ZM346.684 118.232C347.238 118.232 347.65 117.938 347.92 117.348C348.193 116.758 348.33 115.857 348.33 114.646C348.33 114.002 348.291 113.42 348.213 112.9L345.424 117.266C345.717 117.91 346.137 118.232 346.684 118.232ZM346.684 111.061C346.133 111.061 345.721 111.355 345.447 111.945C345.178 112.535 345.043 113.436 345.043 114.646C345.043 115.197 345.08 115.713 345.154 116.193L347.885 111.84C347.588 111.32 347.188 111.061 346.684 111.061ZM352.584 116.633H354.646V119H352.584V116.633ZM358.748 110.252H363.178V111.248H359.826V113.398C359.994 113.336 360.162 113.291 360.33 113.264C360.502 113.232 360.674 113.217 360.846 113.217C361.752 113.217 362.471 113.484 363.002 114.02C363.533 114.555 363.799 115.279 363.799 116.193C363.799 117.115 363.52 117.842 362.961 118.373C362.406 118.904 361.646 119.17 360.682 119.17C360.217 119.17 359.791 119.139 359.404 119.076C359.021 119.014 358.678 118.92 358.373 118.795V117.594C358.732 117.789 359.094 117.936 359.457 118.033C359.82 118.127 360.191 118.174 360.57 118.174C361.223 118.174 361.725 118.002 362.076 117.658C362.432 117.314 362.609 116.826 362.609 116.193C362.609 115.568 362.426 115.082 362.059 114.734C361.695 114.387 361.188 114.213 360.535 114.213C360.219 114.213 359.91 114.25 359.609 114.324C359.309 114.395 359.021 114.502 358.748 114.646V110.252Z" fill="#B5CEA8"/>
<path d="M362.838 132.635C362.838 131.35 362.705 130.432 362.439 129.881C362.178 129.33 361.746 129.055 361.145 129.055C360.547 129.055 360.115 129.33 359.85 129.881C359.588 130.432 359.457 131.35 359.457 132.635C359.457 133.916 359.588 134.832 359.85 135.383C360.115 135.934 360.547 136.209 361.145 136.209C361.746 136.209 362.178 135.936 362.439 135.389C362.705 134.838 362.838 133.92 362.838 132.635ZM364.074 132.635C364.074 134.158 363.832 135.295 363.348 136.045C362.867 136.795 362.133 137.17 361.145 137.17C360.156 137.17 359.422 136.797 358.941 136.051C358.461 135.305 358.221 134.166 358.221 132.635C358.221 131.107 358.461 129.969 358.941 129.219C359.426 128.469 360.16 128.094 361.145 128.094C362.133 128.094 362.867 128.469 363.348 129.219C363.832 129.969 364.074 131.107 364.074 132.635ZM370.145 133.725C370.145 132.889 370.012 132.258 369.746 131.832C369.48 131.406 369.088 131.193 368.568 131.193C368.045 131.193 367.648 131.408 367.379 131.838C367.109 132.264 366.975 132.893 366.975 133.725C366.975 134.553 367.109 135.182 367.379 135.611C367.648 136.041 368.045 136.256 368.568 136.256C369.088 136.256 369.48 136.043 369.746 135.617C370.012 135.191 370.145 134.561 370.145 133.725ZM366.975 131.275C367.146 130.955 367.383 130.709 367.684 130.537C367.988 130.365 368.34 130.279 368.738 130.279C369.527 130.279 370.148 130.584 370.602 131.193C371.055 131.799 371.281 132.635 371.281 133.701C371.281 134.783 371.053 135.633 370.596 136.25C370.143 136.863 369.52 137.17 368.727 137.17C368.336 137.17 367.99 137.086 367.689 136.918C367.393 136.746 367.154 136.498 366.975 136.174V137H365.896V127.883H366.975V131.275ZM375.512 137.117V131.275H373.654V130.438H376.59V137.117C376.59 137.879 376.414 138.465 376.062 138.875C375.715 139.289 375.219 139.496 374.574 139.496H373.086V138.582H374.457C374.809 138.582 375.072 138.459 375.248 138.213C375.424 137.971 375.512 137.605 375.512 137.117ZM375.512 127.883H376.59V129.248H375.512V127.883ZM385.789 133.18V133.707H381.119V133.742C381.088 134.637 381.258 135.279 381.629 135.67C382.004 136.061 382.531 136.256 383.211 136.256C383.555 136.256 383.914 136.201 384.289 136.092C384.664 135.982 385.064 135.816 385.49 135.594V136.666C385.08 136.834 384.684 136.959 384.301 137.041C383.922 137.127 383.555 137.17 383.199 137.17C382.18 137.17 381.383 136.865 380.809 136.256C380.234 135.643 379.947 134.799 379.947 133.725C379.947 132.678 380.229 131.842 380.791 131.217C381.354 130.592 382.104 130.279 383.041 130.279C383.877 130.279 384.535 130.562 385.016 131.129C385.5 131.695 385.758 132.379 385.789 133.18ZM384.711 132.863C384.664 132.41 384.498 132.02 384.213 131.691C383.932 131.359 383.525 131.193 382.994 131.193C382.475 131.193 382.047 131.365 381.711 131.709C381.375 132.053 381.191 132.439 381.16 132.869L384.711 132.863ZM392.674 136.666C392.385 136.834 392.086 136.959 391.777 137.041C391.473 137.127 391.16 137.17 390.84 137.17C389.824 137.17 389.029 136.865 388.455 136.256C387.885 135.646 387.6 134.803 387.6 133.725C387.6 132.646 387.885 131.803 388.455 131.193C389.029 130.584 389.824 130.279 390.84 130.279C391.156 130.279 391.465 130.32 391.766 130.402C392.066 130.484 392.369 130.611 392.674 130.783V131.914C392.389 131.66 392.102 131.477 391.812 131.363C391.527 131.25 391.203 131.193 390.84 131.193C390.164 131.193 389.645 131.412 389.281 131.85C388.918 132.287 388.736 132.912 388.736 133.725C388.736 134.533 388.918 135.158 389.281 135.6C389.648 136.037 390.168 136.256 390.84 136.256C391.215 136.256 391.551 136.199 391.848 136.086C392.145 135.969 392.42 135.789 392.674 135.547V136.666ZM397.285 128.574V130.438H399.734V131.275H397.285V134.838C397.285 135.322 397.377 135.66 397.561 135.852C397.744 136.043 398.064 136.139 398.521 136.139H399.734V137H398.416C397.607 137 397.037 136.838 396.705 136.514C396.373 136.189 396.207 135.631 396.207 134.838V131.275H394.455V130.438H396.207V128.574H397.285Z" fill="#808080"/>
<rect width="281" height="1" transform="translate(257 83)" fill="var(--vscode-pickerGroup-border)"/>
<path d="M270.08 137.016L265.712 132.664L266.336 132.04L271.008 136.712V137.336L266.336 141.992L265.712 141.384L270.08 137.032V137.016Z" fill="#808080"/>
<rect x="257.5" y="56.5" width="281" height="92" stroke="var(--vscode-pickerGroup-border)"/>
<defs>
<filter id="filter0_d" x="0" y="26" width="208" height="284" filterUnits="userSpaceOnUse" color-interpolation-filters="sRGB">
<feFlood flood-opacity="0" result="BackgroundImageFix"/>
<feColorMatrix in="SourceAlpha" type="matrix" values="0 0 0 0 0 0 0 0 0 0 0 0 0 0 0 0 0 0 127 0"/>
<feOffset dy="2"/>
<feGaussianBlur stdDeviation="4"/>
<feColorMatrix type="matrix" values="0 0 0 0 0 0 0 0 0 0 0 0 0 0 0 0 0 0 0.4 0"/>
<feBlend mode="normal" in2="BackgroundImageFix" result="effect1_dropShadow"/>
<feBlend mode="normal" in="SourceGraphic" in2="effect1_dropShadow" result="shape"/>
</filter>
<filter id="filter1_d" x="119" y="0" width="403" height="342" filterUnits="userSpaceOnUse" color-interpolation-filters="sRGB">
<feFlood flood-opacity="0" result="BackgroundImageFix"/>
<feColorMatrix in="SourceAlpha" type="matrix" values="0 0 0 0 0 0 0 0 0 0 0 0 0 0 0 0 0 0 127 0"/>
<feOffset dy="2"/>
<feGaussianBlur stdDeviation="6"/>
<feColorMatrix type="matrix" values="0 0 0 0 0 0 0 0 0 0 0 0 0 0 0 0 0 0 0.6 0"/>
<feBlend mode="normal" in2="BackgroundImageFix" result="effect1_dropShadow"/>
<feBlend mode="normal" in="SourceGraphic" in2="effect1_dropShadow" result="shape"/>
</filter>
<clipPath id="clip0">
<rect width="379" height="24" fill="var(--vscode-foreground)" transform="translate(131 147)"/>
</clipPath>
</defs>
</svg>
