<svg viewBox="0 0 522 342" fill="none" xmlns="http://www.w3.org/2000/svg">
<g filter="url(#filter0_d)">
<rect width="192" height="268" transform="translate(8 32)" fill="var(--vscode-quickInput-background)"/>
<path d="M24.5027 58.8941C24.5739 60.033 25.5305 60.7626 26.9542 60.7626C28.4757 60.7626 29.4278 59.9974 29.4278 58.7828C29.4278 57.8218 28.885 57.2924 27.5681 56.9765L26.8607 56.803C26.0243 56.5984 25.6862 56.3314 25.6862 55.8643C25.6862 55.2636 26.2112 54.8766 26.9987 54.8766C27.7461 54.8766 28.2622 55.2503 28.3556 55.8598H29.3255C29.2677 54.7876 28.3156 54.0313 27.012 54.0313C25.6106 54.0313 24.6763 54.7876 24.6763 55.9176C24.6763 56.8519 25.2057 57.4036 26.3669 57.6839L27.1944 57.8841C28.0442 58.0888 28.4179 58.4002 28.4179 58.903C28.4179 59.4902 27.8306 59.9129 27.0298 59.9129C26.1711 59.9129 25.575 59.5169 25.4904 58.8941H24.5027ZM33.4764 54.0313C31.6345 54.0313 30.4778 55.3259 30.4778 57.3947C30.4778 59.4591 31.6079 60.7626 33.4764 60.7626C35.3317 60.7626 36.4706 59.4546 36.4706 57.3947C36.4706 55.3304 35.3228 54.0313 33.4764 54.0313ZM33.4764 54.9122C34.691 54.9122 35.4518 55.8732 35.4518 57.3947C35.4518 58.903 34.6955 59.8817 33.4764 59.8817C32.2396 59.8817 31.4966 58.903 31.4966 57.3947C31.4966 55.8732 32.2619 54.9122 33.4764 54.9122ZM38.8108 54.187H37.8143V58.3958C37.8143 59.7839 38.8064 60.7626 40.4125 60.7626C42.0275 60.7626 43.0152 59.7839 43.0152 58.3958V54.187H42.0186V58.3157C42.0186 59.2322 41.4358 59.8773 40.4125 59.8773C39.3937 59.8773 38.8108 59.2322 38.8108 58.3157V54.187ZM45.6179 58.1377H47.0238L48.3318 60.6069H49.4841L48.0426 57.982C48.8256 57.7195 49.2883 57.0166 49.2883 56.149C49.2883 54.9522 48.4564 54.187 47.1617 54.187H44.6213V60.6069H45.6179V58.1377ZM45.6179 55.0234H47.0238C47.7934 55.0234 48.265 55.4549 48.265 56.1712C48.265 56.9053 47.8201 57.3191 47.0505 57.3191H45.6179V55.0234ZM53.3414 60.7626C54.774 60.7626 55.8284 59.9396 56.0064 58.6894H55.0142C54.8363 59.419 54.1912 59.8773 53.3414 59.8773C52.1846 59.8773 51.4639 58.9252 51.4639 57.3992C51.4639 55.8732 52.1846 54.9166 53.3369 54.9166C54.1823 54.9166 54.8274 55.4238 55.0142 56.2202H56.0064C55.8462 54.9344 54.7517 54.0313 53.3369 54.0313C51.5529 54.0313 50.4451 55.3215 50.4451 57.3992C50.4451 59.4724 51.5573 60.7626 53.3414 60.7626ZM61.3941 59.7483H58.3154V57.7507H61.2295V56.9231H58.3154V55.0456H61.3941V54.187H57.3188V60.6069H61.3941V59.7483ZM67.9609 60.7626C69.3935 60.7626 70.4479 59.9396 70.6259 58.6894H69.6338C69.4558 59.419 68.8107 59.8773 67.9609 59.8773C66.8042 59.8773 66.0834 58.9252 66.0834 57.3992C66.0834 55.8732 66.8042 54.9166 67.9565 54.9166C68.8018 54.9166 69.4469 55.4238 69.6338 56.2202H70.6259C70.4657 54.9344 69.3713 54.0313 67.9565 54.0313C66.1724 54.0313 65.0646 55.3215 65.0646 57.3992C65.0646 59.4724 66.1769 60.7626 67.9609 60.7626ZM74.6745 54.0313C72.8326 54.0313 71.6759 55.3259 71.6759 57.3947C71.6759 59.4591 72.8059 60.7626 74.6745 60.7626C76.5298 60.7626 77.6687 59.4546 77.6687 57.3947C77.6687 55.3304 76.5209 54.0313 74.6745 54.0313ZM74.6745 54.9122C75.8891 54.9122 76.6499 55.8732 76.6499 57.3947C76.6499 58.903 75.8936 59.8817 74.6745 59.8817C73.4377 59.8817 72.6947 58.903 72.6947 57.3947C72.6947 55.8732 73.4599 54.9122 74.6745 54.9122ZM79.9911 60.6069V55.9443H80.0623L83.359 60.6069H84.2577V54.187H83.2879V58.8585H83.2167L79.9199 54.187H79.0212V60.6069H79.9911ZM88.4977 60.6069V55.0456H90.5131V54.187H85.4812V55.0456H87.5011V60.6069H88.4977ZM92.7332 58.1377H94.1391L95.4471 60.6069H96.5994L95.1579 57.982C95.9409 57.7195 96.4036 57.0166 96.4036 56.149C96.4036 54.9522 95.5716 54.187 94.277 54.187H91.7366V60.6069H92.7332V58.1377ZM92.7332 55.0234H94.1391C94.9087 55.0234 95.3803 55.4549 95.3803 56.1712C95.3803 56.9053 94.9354 57.3191 94.1657 57.3191H92.7332V55.0234ZM100.559 54.0313C98.7171 54.0313 97.5604 55.3259 97.5604 57.3947C97.5604 59.4591 98.6904 60.7626 100.559 60.7626C102.414 60.7626 103.553 59.4546 103.553 57.3947C103.553 55.3304 102.405 54.0313 100.559 54.0313ZM100.559 54.9122C101.774 54.9122 102.534 55.8732 102.534 57.3947C102.534 58.903 101.778 59.8817 100.559 59.8817C99.3222 59.8817 98.5792 58.903 98.5792 57.3947C98.5792 55.8732 99.3444 54.9122 100.559 54.9122ZM108.91 59.7394H105.902V54.187H104.906V60.6069H108.91V59.7394Z" fill="var(--vscode-foreground)"/>
<rect width="192" height="28" transform="translate(24 79)" fill="var(--vscode-input-background)"/>
<path d="M40.4165 98V88.8403H38.7534L35.8335 96.0068H35.7256L32.812 88.8403H31.1489V98H32.4692V91.2905H32.5581L35.2432 97.835H36.3223L39.0073 91.2905H39.0962V98H40.4165ZM47.0879 96.1528C46.834 96.7114 46.269 97.0161 45.4438 97.0161C44.3521 97.0161 43.6475 96.229 43.603 94.9785V94.915H48.4844V94.4453C48.4844 92.2871 47.3228 90.9731 45.3994 90.9731C43.4507 90.9731 42.2129 92.376 42.2129 94.5659C42.2129 96.7686 43.4253 98.1333 45.4058 98.1333C46.9863 98.1333 48.1035 97.3716 48.4019 96.1528H47.0879ZM45.3931 92.084C46.4023 92.084 47.0625 92.814 47.0942 93.9312H43.603C43.6792 92.8203 44.3838 92.084 45.3931 92.084ZM49.9634 93.0361C49.9634 94.0581 50.5728 94.6421 51.8867 94.9468L53.0928 95.2324C53.7847 95.3975 54.1084 95.6768 54.1084 96.1084C54.1084 96.6733 53.5054 97.0669 52.6548 97.0669C51.8296 97.0669 51.3218 96.7305 51.1504 96.1909H49.7856C49.9062 97.3906 50.979 98.1333 52.623 98.1333C54.2734 98.1333 55.4858 97.2637 55.4858 95.9814C55.4858 94.9785 54.8701 94.4136 53.5562 94.1089L52.4072 93.8423C51.6582 93.6646 51.3091 93.3979 51.3091 92.9727C51.3091 92.4141 51.8867 92.0396 52.6484 92.0396C53.4229 92.0396 53.918 92.376 54.0449 92.8901H55.3525C55.2192 91.6968 54.2036 90.9731 52.6484 90.9731C51.0869 90.9731 49.9634 91.8364 49.9634 93.0361ZM56.8442 93.0361C56.8442 94.0581 57.4536 94.6421 58.7676 94.9468L59.9736 95.2324C60.6655 95.3975 60.9893 95.6768 60.9893 96.1084C60.9893 96.6733 60.3862 97.0669 59.5356 97.0669C58.7104 97.0669 58.2026 96.7305 58.0312 96.1909H56.6665C56.7871 97.3906 57.8599 98.1333 59.5039 98.1333C61.1543 98.1333 62.3667 97.2637 62.3667 95.9814C62.3667 94.9785 61.751 94.4136 60.437 94.1089L59.2881 93.8423C58.5391 93.6646 58.1899 93.3979 58.1899 92.9727C58.1899 92.4141 58.7676 92.0396 59.5293 92.0396C60.3037 92.0396 60.7988 92.376 60.9258 92.8901H62.2334C62.1001 91.6968 61.0845 90.9731 59.5293 90.9731C57.9678 90.9731 56.8442 91.8364 56.8442 93.0361ZM65.9214 98.1143C66.8291 98.1143 67.5845 97.7207 67.9971 97.0225H68.105V98H69.4189V93.2837C69.4189 91.8364 68.4414 90.9731 66.7085 90.9731C65.1406 90.9731 64.0234 91.7285 63.8838 92.8901H65.2041C65.3564 92.3887 65.8833 92.103 66.645 92.103C67.5781 92.103 68.0605 92.5283 68.0605 93.2837V93.8867L66.188 94.001C64.5439 94.1025 63.6172 94.8198 63.6172 96.0576C63.6172 97.3145 64.5884 98.1143 65.9214 98.1143ZM66.2705 97.0161C65.5278 97.0161 64.9883 96.6416 64.9883 96.0005C64.9883 95.3721 65.4199 95.0356 66.3721 94.9722L68.0605 94.8579V95.4546C68.0605 96.3433 67.2988 97.0161 66.2705 97.0161ZM74.2749 100.634C76.23 100.634 77.4678 99.6377 77.4678 98.0698V91.1064H76.1602V92.2046H76.0522C75.665 91.4556 74.8335 90.9858 73.8813 90.9858C72.1167 90.9858 71.0122 92.376 71.0122 94.4644C71.0122 96.5337 72.104 97.8984 73.8687 97.8984C74.8208 97.8984 75.5825 97.4858 76.0015 96.7368H76.103V98.0635C76.103 98.9966 75.4302 99.5552 74.2939 99.5552C73.3735 99.5552 72.7959 99.2251 72.6816 98.7046H71.2852C71.4312 99.8662 72.5483 100.634 74.2749 100.634ZM74.2559 96.7686C73.0815 96.7686 72.4214 95.8735 72.4214 94.4644C72.4214 93.0552 73.0815 92.1538 74.2559 92.1538C75.4175 92.1538 76.1284 93.0552 76.1284 94.4644C76.1284 95.8735 75.4238 96.7686 74.2559 96.7686ZM83.9805 96.1528C83.7266 96.7114 83.1616 97.0161 82.3364 97.0161C81.2446 97.0161 80.54 96.229 80.4956 94.9785V94.915H85.377V94.4453C85.377 92.2871 84.2153 90.9731 82.292 90.9731C80.3433 90.9731 79.1055 92.376 79.1055 94.5659C79.1055 96.7686 80.3179 98.1333 82.2983 98.1333C83.8789 98.1333 84.9961 97.3716 85.2944 96.1528H83.9805ZM82.2856 92.084C83.2949 92.084 83.9551 92.814 83.9868 93.9312H80.4956C80.5718 92.8203 81.2764 92.084 82.2856 92.084ZM91.0708 94.1787C91.0708 96.4829 91.6675 98.3682 92.9053 99.9551H94.1113C93.1909 98.7871 92.48 96.3496 92.48 94.1724C92.48 92.0078 93.1973 89.564 94.1113 88.4023H92.9053C91.6675 89.9829 91.0708 91.8745 91.0708 94.1787ZM98.7896 92.4204V94.4199H97.9199C96.8853 94.4263 96.041 95.2388 96.041 96.2798C96.041 97.3208 96.8789 98.165 97.9199 98.165C98.9546 98.165 99.7988 97.3208 99.7988 96.2798V95.4229H101.773V96.2798C101.773 97.3208 102.617 98.165 103.652 98.165C104.693 98.165 105.537 97.3208 105.537 96.2798C105.537 95.2388 104.693 94.4263 103.652 94.4199H102.789V92.4204H103.652C104.693 92.4204 105.537 91.6016 105.537 90.5605C105.537 89.5195 104.693 88.6753 103.652 88.6753C102.617 88.6753 101.773 89.5195 101.773 90.5605V91.4238H99.7988V90.5605C99.7988 89.5195 98.9546 88.6753 97.9199 88.6753C96.8789 88.6753 96.041 89.5195 96.041 90.5605C96.041 91.6016 96.8853 92.4204 97.9199 92.4204H98.7896ZM97.9326 91.4365C97.4502 91.4365 97.0566 91.043 97.0566 90.5605C97.0566 90.0845 97.4502 89.6909 97.9199 89.6909C98.3896 89.6909 98.7896 90.0845 98.7896 90.5732V91.4365H97.9326ZM103.639 91.4365H102.789V90.5732C102.789 90.0845 103.182 89.6909 103.652 89.6909C104.128 89.6909 104.515 90.0845 104.515 90.5605C104.515 91.043 104.128 91.4365 103.639 91.4365ZM99.7988 94.4326V92.4141H101.773V94.4326H99.7988ZM97.9326 95.4038H98.7896V96.2607C98.7896 96.7495 98.3896 97.1431 97.9199 97.1431C97.4502 97.1431 97.0566 96.7559 97.0566 96.2734C97.0566 95.7974 97.4502 95.4038 97.9326 95.4038ZM103.639 95.4038C104.128 95.4038 104.515 95.7974 104.515 96.2734C104.515 96.7559 104.128 97.1431 103.652 97.1431C103.182 97.1431 102.789 96.7495 102.789 96.2607V95.4038H103.639ZM113.77 96.7749H109.377V93.9248H113.535V92.7441H109.377V90.0654H113.77V88.8403H107.956V98H113.77V96.7749ZM115.668 98H117.033V93.9565C117.033 92.8457 117.674 92.1602 118.683 92.1602C119.692 92.1602 120.175 92.7188 120.175 93.8613V98H121.54V93.5376C121.54 91.8936 120.689 90.9731 119.146 90.9731C118.105 90.9731 117.42 91.4365 117.083 92.1982H116.982V91.1064H115.668V98ZM123.945 89.3672V91.1255H122.847V92.2173H123.945V96.1846C123.945 97.5112 124.548 98.0444 126.065 98.0444C126.332 98.0444 126.586 98.0127 126.808 97.9746V96.8892C126.618 96.9082 126.497 96.9209 126.288 96.9209C125.608 96.9209 125.31 96.5972 125.31 95.8545V92.2173H126.808V91.1255H125.31V89.3672H123.945ZM132.87 96.1528C132.616 96.7114 132.051 97.0161 131.226 97.0161C130.134 97.0161 129.43 96.229 129.385 94.9785V94.915H134.267V94.4453C134.267 92.2871 133.105 90.9731 131.182 90.9731C129.233 90.9731 127.995 92.376 127.995 94.5659C127.995 96.7686 129.208 98.1333 131.188 98.1333C132.769 98.1333 133.886 97.3716 134.184 96.1528H132.87ZM131.175 92.084C132.185 92.084 132.845 92.814 132.876 93.9312H129.385C129.461 92.8203 130.166 92.084 131.175 92.084ZM135.904 98H137.269V93.8804C137.269 92.9092 137.999 92.2427 139.034 92.2427C139.275 92.2427 139.681 92.2871 139.795 92.3188V91.0366C139.649 91.0049 139.389 90.9858 139.186 90.9858C138.285 90.9858 137.517 91.4746 137.32 92.1538H137.218V91.1064H135.904V98ZM145.146 89.3672V91.1255H144.048V92.2173H145.146V96.1846C145.146 97.5112 145.75 98.0444 147.267 98.0444C147.533 98.0444 147.787 98.0127 148.009 97.9746V96.8892C147.819 96.9082 147.698 96.9209 147.489 96.9209C146.81 96.9209 146.511 96.5972 146.511 95.8545V92.2173H148.009V91.1255H146.511V89.3672H145.146ZM152.459 98.1333C154.478 98.1333 155.715 96.7812 155.715 94.5532C155.715 92.3252 154.471 90.9731 152.459 90.9731C150.44 90.9731 149.196 92.3315 149.196 94.5532C149.196 96.7812 150.434 98.1333 152.459 98.1333ZM152.459 96.9717C151.272 96.9717 150.605 96.0894 150.605 94.5532C150.605 93.0171 151.272 92.1284 152.459 92.1284C153.64 92.1284 154.312 93.0171 154.312 94.5532C154.312 96.083 153.64 96.9717 152.459 96.9717Z" fill="var(--vscode-input-foreground)"/>
<path d="M29.984 129.064L34.336 124.712L34.96 125.336L30.288 129.992H29.664L25.008 125.336L25.616 124.712L29.984 129.064Z" fill="#808080"/>
<path d="M50.9067 131.222C52.9507 131.222 54.4551 130.048 54.709 128.264H53.2935C53.0396 129.305 52.1191 129.959 50.9067 129.959C49.2563 129.959 48.228 128.601 48.228 126.423C48.228 124.246 49.2563 122.881 50.9004 122.881C52.1064 122.881 53.0269 123.605 53.2935 124.741H54.709C54.4805 122.907 52.9189 121.618 50.9004 121.618C48.355 121.618 46.7744 123.459 46.7744 126.423C46.7744 129.381 48.3613 131.222 50.9067 131.222ZM56.4863 131H57.8511V126.963C57.8511 125.884 58.4731 125.167 59.5903 125.167C60.5552 125.167 61.0693 125.731 61.0693 126.868V131H62.4341V126.544C62.4341 124.913 61.5264 123.979 60.0537 123.979C59.0127 123.979 58.2827 124.437 57.9463 125.205H57.8384V121.402H56.4863V131ZM66.2681 131.114C67.1758 131.114 67.9312 130.721 68.3438 130.022H68.4517V131H69.7656V126.284C69.7656 124.836 68.7881 123.973 67.0552 123.973C65.4873 123.973 64.3701 124.729 64.2305 125.89H65.5508C65.7031 125.389 66.23 125.103 66.9917 125.103C67.9248 125.103 68.4072 125.528 68.4072 126.284V126.887L66.5347 127.001C64.8906 127.103 63.9639 127.82 63.9639 129.058C63.9639 130.314 64.9351 131.114 66.2681 131.114ZM66.6172 130.016C65.8745 130.016 65.335 129.642 65.335 129C65.335 128.372 65.7666 128.036 66.7188 127.972L68.4072 127.858V128.455C68.4072 129.343 67.6455 130.016 66.6172 130.016ZM71.708 131H73.0728V126.957C73.0728 125.846 73.7139 125.16 74.7231 125.16C75.7324 125.16 76.2148 125.719 76.2148 126.861V131H77.5796V126.538C77.5796 124.894 76.729 123.973 75.1865 123.973C74.1455 123.973 73.46 124.437 73.1235 125.198H73.022V124.106H71.708V131ZM82.4165 133.634C84.3716 133.634 85.6094 132.638 85.6094 131.07V124.106H84.3018V125.205H84.1938C83.8066 124.456 82.9751 123.986 82.0229 123.986C80.2583 123.986 79.1538 125.376 79.1538 127.464C79.1538 129.534 80.2456 130.898 82.0103 130.898C82.9624 130.898 83.7241 130.486 84.1431 129.737H84.2446V131.063C84.2446 131.997 83.5718 132.555 82.4355 132.555C81.5151 132.555 80.9375 132.225 80.8232 131.705H79.4268C79.5728 132.866 80.6899 133.634 82.4165 133.634ZM82.3975 129.769C81.2231 129.769 80.563 128.874 80.563 127.464C80.563 126.055 81.2231 125.154 82.3975 125.154C83.5591 125.154 84.27 126.055 84.27 127.464C84.27 128.874 83.5654 129.769 82.3975 129.769ZM92.1221 129.153C91.8682 129.711 91.3032 130.016 90.478 130.016C89.3862 130.016 88.6816 129.229 88.6372 127.979V127.915H93.5186V127.445C93.5186 125.287 92.3569 123.973 90.4336 123.973C88.4849 123.973 87.2471 125.376 87.2471 127.566C87.2471 129.769 88.4595 131.133 90.4399 131.133C92.0205 131.133 93.1377 130.372 93.436 129.153H92.1221ZM90.4272 125.084C91.4365 125.084 92.0967 125.814 92.1284 126.931H88.6372C88.7134 125.82 89.418 125.084 90.4272 125.084ZM94.9976 126.036C94.9976 127.058 95.6069 127.642 96.9209 127.947L98.127 128.232C98.8188 128.397 99.1426 128.677 99.1426 129.108C99.1426 129.673 98.5396 130.067 97.689 130.067C96.8638 130.067 96.356 129.73 96.1846 129.191H94.8198C94.9404 130.391 96.0132 131.133 97.6572 131.133C99.3076 131.133 100.52 130.264 100.52 128.981C100.52 127.979 99.9043 127.414 98.5903 127.109L97.4414 126.842C96.6924 126.665 96.3433 126.398 96.3433 125.973C96.3433 125.414 96.9209 125.04 97.6826 125.04C98.457 125.04 98.9521 125.376 99.0791 125.89H100.387C100.253 124.697 99.2378 123.973 97.6826 123.973C96.1211 123.973 94.9976 124.836 94.9976 126.036Z" fill="#A0A0A0"/>
<path d="M28 145.976V145H27.904C27.5947 145 27.2907 145.064 26.992 145.192C26.704 145.309 26.448 145.48 26.224 145.704C26.0107 145.928 25.8453 146.184 25.728 146.472C25.632 146.739 25.568 147.016 25.536 147.304C25.504 147.592 25.4933 147.88 25.504 148.168C25.5253 148.456 25.536 148.744 25.536 149.032C25.536 149.235 25.4933 149.427 25.408 149.608C25.2587 149.971 25.0027 150.232 24.64 150.392C24.4693 150.467 24.288 150.504 24.096 150.504H24V151.496H24.096C24.288 151.496 24.4693 151.533 24.64 151.608C24.8213 151.693 24.976 151.8 25.104 151.928C25.232 152.067 25.3333 152.221 25.408 152.392V152.408C25.4933 152.579 25.536 152.765 25.536 152.968C25.536 153.256 25.5253 153.549 25.504 153.848C25.4933 154.136 25.504 154.424 25.536 154.712C25.568 154.989 25.632 155.261 25.728 155.528C25.8347 155.805 26 156.061 26.224 156.296C26.448 156.52 26.704 156.696 26.992 156.824C27.2907 156.941 27.5947 157 27.904 157H28V156.008H27.904C27.712 156.008 27.5253 155.971 27.344 155.896C27.1733 155.821 27.0187 155.715 26.88 155.576C26.752 155.437 26.6507 155.283 26.576 155.112C26.5013 154.931 26.464 154.739 26.464 154.536C26.464 154.291 26.4693 154.067 26.48 153.864C26.4907 153.64 26.4907 153.421 26.48 153.208C26.48 152.995 26.464 152.781 26.432 152.568C26.4 152.355 26.3413 152.152 26.256 151.96C26.096 151.576 25.8507 151.256 25.52 151C25.8507 150.744 26.096 150.424 26.256 150.04C26.3413 149.859 26.4 149.661 26.432 149.448C26.464 149.235 26.48 149.021 26.48 148.808C26.4907 148.584 26.4907 148.36 26.48 148.136C26.4693 147.912 26.464 147.688 26.464 147.464C26.464 147.165 26.544 146.893 26.704 146.648C26.864 146.403 27.0773 146.221 27.344 146.104C27.5253 146.019 27.712 145.976 27.904 145.976H28ZM32 156.008V157H32.096C32.4053 157 32.704 156.941 32.992 156.824C33.2907 156.696 33.552 156.52 33.776 156.296C34 156.061 34.1653 155.805 34.272 155.528C34.368 155.272 34.432 154.995 34.464 154.696C34.496 154.419 34.5013 154.136 34.48 153.848C34.4693 153.549 34.464 153.256 34.464 152.968C34.464 152.765 34.5067 152.573 34.592 152.392C34.7413 152.029 34.9973 151.768 35.36 151.608C35.5307 151.533 35.712 151.496 35.904 151.496H36V150.504H35.904C35.712 150.504 35.5307 150.467 35.36 150.392C35.1787 150.317 35.024 150.211 34.896 150.072C34.7573 149.933 34.656 149.779 34.592 149.608V149.592C34.5067 149.421 34.464 149.235 34.464 149.032C34.464 148.744 34.4693 148.456 34.48 148.168C34.5013 147.88 34.496 147.587 34.464 147.288C34.432 147.011 34.368 146.739 34.272 146.472C34.1547 146.184 33.984 145.928 33.76 145.704C33.5467 145.48 33.2907 145.309 32.992 145.192C32.704 145.064 32.4053 145 32.096 145H32V145.992H32.096C32.288 145.992 32.4693 146.029 32.64 146.104C32.8213 146.179 32.976 146.285 33.104 146.424C33.232 146.552 33.3333 146.707 33.408 146.888C33.4933 147.069 33.536 147.261 33.536 147.464C33.5253 147.709 33.52 147.933 33.52 148.136C33.5093 148.36 33.504 148.584 33.504 148.808C33.5147 149.021 33.536 149.235 33.568 149.448C33.6 149.651 33.6587 149.848 33.744 150.04C33.904 150.424 34.1493 150.744 34.48 151C34.1493 151.256 33.904 151.576 33.744 151.96C33.6587 152.152 33.6 152.355 33.568 152.568C33.536 152.771 33.5147 152.984 33.504 153.208C33.504 153.421 33.5093 153.64 33.52 153.864C33.5307 154.088 33.536 154.312 33.536 154.536C33.536 154.835 33.456 155.107 33.296 155.352C33.136 155.597 32.9227 155.779 32.656 155.896C32.4747 155.981 32.288 156.024 32.096 156.024H32V156.008Z" fill="#CBCB41"/>
<rect x="46" y="147.5" width="46" height="7" rx="3.5" fill="var(--vscode-foreground)" fill-opacity="0.25"/>
<path d="M28 169.976V169H27.904C27.5947 169 27.2907 169.064 26.992 169.192C26.704 169.309 26.448 169.48 26.224 169.704C26.0107 169.928 25.8453 170.184 25.728 170.472C25.632 170.739 25.568 171.016 25.536 171.304C25.504 171.592 25.4933 171.88 25.504 172.168C25.5253 172.456 25.536 172.744 25.536 173.032C25.536 173.235 25.4933 173.427 25.408 173.608C25.2587 173.971 25.0027 174.232 24.64 174.392C24.4693 174.467 24.288 174.504 24.096 174.504H24V175.496H24.096C24.288 175.496 24.4693 175.533 24.64 175.608C24.8213 175.693 24.976 175.8 25.104 175.928C25.232 176.067 25.3333 176.221 25.408 176.392V176.408C25.4933 176.579 25.536 176.765 25.536 176.968C25.536 177.256 25.5253 177.549 25.504 177.848C25.4933 178.136 25.504 178.424 25.536 178.712C25.568 178.989 25.632 179.261 25.728 179.528C25.8347 179.805 26 180.061 26.224 180.296C26.448 180.52 26.704 180.696 26.992 180.824C27.2907 180.941 27.5947 181 27.904 181H28V180.008H27.904C27.712 180.008 27.5253 179.971 27.344 179.896C27.1733 179.821 27.0187 179.715 26.88 179.576C26.752 179.437 26.6507 179.283 26.576 179.112C26.5013 178.931 26.464 178.739 26.464 178.536C26.464 178.291 26.4693 178.067 26.48 177.864C26.4907 177.64 26.4907 177.421 26.48 177.208C26.48 176.995 26.464 176.781 26.432 176.568C26.4 176.355 26.3413 176.152 26.256 175.96C26.096 175.576 25.8507 175.256 25.52 175C25.8507 174.744 26.096 174.424 26.256 174.04C26.3413 173.859 26.4 173.661 26.432 173.448C26.464 173.235 26.48 173.021 26.48 172.808C26.4907 172.584 26.4907 172.36 26.48 172.136C26.4693 171.912 26.464 171.688 26.464 171.464C26.464 171.165 26.544 170.893 26.704 170.648C26.864 170.403 27.0773 170.221 27.344 170.104C27.5253 170.019 27.712 169.976 27.904 169.976H28ZM32 180.008V181H32.096C32.4053 181 32.704 180.941 32.992 180.824C33.2907 180.696 33.552 180.52 33.776 180.296C34 180.061 34.1653 179.805 34.272 179.528C34.368 179.272 34.432 178.995 34.464 178.696C34.496 178.419 34.5013 178.136 34.48 177.848C34.4693 177.549 34.464 177.256 34.464 176.968C34.464 176.765 34.5067 176.573 34.592 176.392C34.7413 176.029 34.9973 175.768 35.36 175.608C35.5307 175.533 35.712 175.496 35.904 175.496H36V174.504H35.904C35.712 174.504 35.5307 174.467 35.36 174.392C35.1787 174.317 35.024 174.211 34.896 174.072C34.7573 173.933 34.656 173.779 34.592 173.608V173.592C34.5067 173.421 34.464 173.235 34.464 173.032C34.464 172.744 34.4693 172.456 34.48 172.168C34.5013 171.88 34.496 171.587 34.464 171.288C34.432 171.011 34.368 170.739 34.272 170.472C34.1547 170.184 33.984 169.928 33.76 169.704C33.5467 169.48 33.2907 169.309 32.992 169.192C32.704 169.064 32.4053 169 32.096 169H32V169.992H32.096C32.288 169.992 32.4693 170.029 32.64 170.104C32.8213 170.179 32.976 170.285 33.104 170.424C33.232 170.552 33.3333 170.707 33.408 170.888C33.4933 171.069 33.536 171.261 33.536 171.464C33.5253 171.709 33.52 171.933 33.52 172.136C33.5093 172.36 33.504 172.584 33.504 172.808C33.5147 173.021 33.536 173.235 33.568 173.448C33.6 173.651 33.6587 173.848 33.744 174.04C33.904 174.424 34.1493 174.744 34.48 175C34.1493 175.256 33.904 175.576 33.744 175.96C33.6587 176.152 33.6 176.355 33.568 176.568C33.536 176.771 33.5147 176.984 33.504 177.208C33.504 177.421 33.5093 177.64 33.52 177.864C33.5307 178.088 33.536 178.312 33.536 178.536C33.536 178.835 33.456 179.107 33.296 179.352C33.136 179.597 32.9227 179.779 32.656 179.896C32.4747 179.981 32.288 180.024 32.096 180.024H32V180.008Z" fill="#CBCB41"/>
<rect x="46" y="171.5" width="70" height="7" rx="3.5" fill="var(--vscode-foreground)" fill-opacity="0.25"/>
<path d="M29.76 196.38H27.62V202.74H26.06V196.38H23.94V195.24H29.68V196.38H29.76ZM34.56 200.82C34.56 200.673 34.5333 200.547 34.48 200.44C34.4267 200.333 34.3533 200.227 34.26 200.12C34.18 200.053 34.06 199.98 33.9 199.9C33.7933 199.86 33.6067 199.787 33.34 199.68L33.18 199.62C32.3133 199.367 31.6267 199.053 31.12 198.68C30.6667 198.293 30.44 197.813 30.44 197.24C30.44 196.613 30.7133 196.113 31.26 195.74C31.7533 195.367 32.4067 195.18 33.22 195.18C34.0467 195.18 34.7267 195.413 35.26 195.88C35.7533 196.32 36 196.86 36 197.5H34.56C34.56 197.313 34.5267 197.153 34.46 197.02C34.4067 196.887 34.3133 196.753 34.18 196.62C33.9133 196.42 33.58 196.32 33.18 196.32C32.78 196.32 32.4733 196.4 32.26 196.56C32.0467 196.72 31.94 196.947 31.94 197.24C31.94 197.48 32.0667 197.693 32.32 197.88C32.4267 197.96 32.5867 198.04 32.8 198.12C32.96 198.187 33.2133 198.273 33.56 198.38C34.3733 198.62 34.9933 198.927 35.42 199.3C35.8467 199.66 36.06 200.167 36.06 200.82C36.06 201.14 35.9933 201.433 35.86 201.7C35.74 201.953 35.56 202.16 35.32 202.32C34.8133 202.693 34.1467 202.88 33.32 202.88C32.44 202.88 31.7267 202.667 31.18 202.24C30.5533 201.747 30.2667 201.147 30.32 200.44H31.82C31.82 200.867 31.9667 201.2 32.26 201.44C32.38 201.533 32.54 201.607 32.74 201.66C32.94 201.713 33.1533 201.74 33.38 201.74C33.8333 201.74 34.1467 201.66 34.32 201.5C34.48 201.247 34.56 201.02 34.56 200.82Z" fill="#519ABA"/>
<rect x="46" y="195.5" width="43" height="7" rx="3.5" fill="var(--vscode-foreground)" fill-opacity="0.25"/>
<path d="M29.76 220.38H27.62V226.74H26.06V220.38H23.94V219.24H29.68V220.38H29.76ZM34.56 224.82C34.56 224.673 34.5333 224.547 34.48 224.44C34.4267 224.333 34.3533 224.227 34.26 224.12C34.18 224.053 34.06 223.98 33.9 223.9C33.7933 223.86 33.6067 223.787 33.34 223.68L33.18 223.62C32.3133 223.367 31.6267 223.053 31.12 222.68C30.6667 222.293 30.44 221.813 30.44 221.24C30.44 220.613 30.7133 220.113 31.26 219.74C31.7533 219.367 32.4067 219.18 33.22 219.18C34.0467 219.18 34.7267 219.413 35.26 219.88C35.7533 220.32 36 220.86 36 221.5H34.56C34.56 221.313 34.5267 221.153 34.46 221.02C34.4067 220.887 34.3133 220.753 34.18 220.62C33.9133 220.42 33.58 220.32 33.18 220.32C32.78 220.32 32.4733 220.4 32.26 220.56C32.0467 220.72 31.94 220.947 31.94 221.24C31.94 221.48 32.0667 221.693 32.32 221.88C32.4267 221.96 32.5867 222.04 32.8 222.12C32.96 222.187 33.2133 222.273 33.56 222.38C34.3733 222.62 34.9933 222.927 35.42 223.3C35.8467 223.66 36.06 224.167 36.06 224.82C36.06 225.14 35.9933 225.433 35.86 225.7C35.74 225.953 35.56 226.16 35.32 226.32C34.8133 226.693 34.1467 226.88 33.32 226.88C32.44 226.88 31.7267 226.667 31.18 226.24C30.5533 225.747 30.2667 225.147 30.32 224.44H31.82C31.82 224.867 31.9667 225.2 32.26 225.44C32.38 225.533 32.54 225.607 32.74 225.66C32.94 225.713 33.1533 225.74 33.38 225.74C33.8333 225.74 34.1467 225.66 34.32 225.5C34.48 225.247 34.56 225.02 34.56 224.82Z" fill="#519ABA"/>
<rect x="46" y="219.5" width="73" height="7" rx="3.5" fill="var(--vscode-foreground)" fill-opacity="0.25"/>
</g>
<g filter="url(#filter1_d)">
<rect width="379" height="318" transform="translate(131 10)" fill="var(--vscode-quickInput-background)"/>
<rect width="379" height="35" transform="translate(131 10)" fill="var(--vscode-quickInput-background)"/>
<rect width="103" height="35" transform="translate(131 10)" fill="var(--vscode-tab-activeBackground)"/>
<rect x="143" y="24" width="79" height="7" rx="3.5" fill="var(--vscode-foreground)" fill-opacity="0.25"/>
<rect x="151" y="69" width="83" height="8" rx="4" fill="#007ACC"/>
<g clip-path="url(#clip0)">
<rect width="379" height="24" transform="translate(131 168)" fill="var(--vscode-diffEditor-insertedTextBackground)"/>
<path d="M159 178.992V180H153V186H152.008V180H146.008V178.992H152.008V172.992H153V178.992H159Z" fill="var(--vscode-foreground)"/>
<path d="M177.217 183.666C176.928 183.834 176.629 183.959 176.32 184.041C176.016 184.127 175.703 184.17 175.383 184.17C174.367 184.17 173.572 183.865 172.998 183.256C172.428 182.646 172.143 181.803 172.143 180.725C172.143 179.646 172.428 178.803 172.998 178.193C173.572 177.584 174.367 177.279 175.383 177.279C175.699 177.279 176.008 177.32 176.309 177.402C176.609 177.484 176.912 177.611 177.217 177.783V178.914C176.932 178.66 176.645 178.477 176.355 178.363C176.07 178.25 175.746 178.193 175.383 178.193C174.707 178.193 174.188 178.412 173.824 178.85C173.461 179.287 173.279 179.912 173.279 180.725C173.279 181.533 173.461 182.158 173.824 182.6C174.191 183.037 174.711 183.256 175.383 183.256C175.758 183.256 176.094 183.199 176.391 183.086C176.688 182.969 176.963 182.789 177.217 182.547V183.666ZM181.84 178.193C181.293 178.193 180.879 178.406 180.598 178.832C180.316 179.258 180.176 179.889 180.176 180.725C180.176 181.557 180.316 182.188 180.598 182.617C180.879 183.043 181.293 183.256 181.84 183.256C182.391 183.256 182.807 183.043 183.088 182.617C183.369 182.188 183.51 181.557 183.51 180.725C183.51 179.889 183.369 179.258 183.088 178.832C182.807 178.406 182.391 178.193 181.84 178.193ZM181.84 177.279C182.75 177.279 183.445 177.574 183.926 178.164C184.41 178.754 184.652 179.607 184.652 180.725C184.652 181.846 184.412 182.701 183.932 183.291C183.451 183.877 182.754 184.17 181.84 184.17C180.93 184.17 180.234 183.877 179.754 183.291C179.273 182.701 179.033 181.846 179.033 180.725C179.033 179.607 179.273 178.754 179.754 178.164C180.234 177.574 180.93 177.279 181.84 177.279ZM191.619 179.934V184H190.535V179.934C190.535 179.344 190.432 178.91 190.225 178.633C190.018 178.355 189.693 178.217 189.252 178.217C188.748 178.217 188.359 178.396 188.086 178.756C187.816 179.111 187.682 179.623 187.682 180.291V184H186.604V177.438H187.682V178.422C187.873 178.047 188.133 177.764 188.461 177.572C188.789 177.377 189.178 177.279 189.627 177.279C190.295 177.279 190.793 177.5 191.121 177.941C191.453 178.379 191.619 179.043 191.619 179.934ZM198.393 177.666V178.721C198.084 178.541 197.773 178.406 197.461 178.316C197.148 178.227 196.83 178.182 196.506 178.182C196.018 178.182 195.652 178.262 195.41 178.422C195.172 178.578 195.053 178.818 195.053 179.143C195.053 179.436 195.143 179.654 195.322 179.799C195.502 179.943 195.949 180.084 196.664 180.221L197.098 180.303C197.633 180.404 198.037 180.607 198.311 180.912C198.588 181.217 198.727 181.613 198.727 182.102C198.727 182.75 198.496 183.258 198.035 183.625C197.574 183.988 196.934 184.17 196.113 184.17C195.789 184.17 195.449 184.135 195.094 184.064C194.738 183.998 194.354 183.896 193.939 183.76V182.646C194.342 182.854 194.727 183.01 195.094 183.115C195.461 183.217 195.809 183.268 196.137 183.268C196.613 183.268 196.982 183.172 197.244 182.98C197.506 182.785 197.637 182.514 197.637 182.166C197.637 181.666 197.158 181.32 196.201 181.129L196.154 181.117L195.75 181.035C195.129 180.914 194.676 180.711 194.391 180.426C194.105 180.137 193.963 179.744 193.963 179.248C193.963 178.619 194.176 178.135 194.602 177.795C195.027 177.451 195.635 177.279 196.424 177.279C196.775 177.279 197.113 177.312 197.438 177.379C197.762 177.441 198.08 177.537 198.393 177.666ZM203.52 175.574V177.438H205.969V178.275H203.52V181.838C203.52 182.322 203.611 182.66 203.795 182.852C203.979 183.043 204.299 183.139 204.756 183.139H205.969V184H204.65C203.842 184 203.271 183.838 202.939 183.514C202.607 183.189 202.441 182.631 202.441 181.838V178.275H200.689V177.438H202.441V175.574H203.52Z" fill="var(--vscode-notificationLink-foreground)"/>
<path d="M217.682 174.297H220.166V175.135H218.76V184.158H220.166V184.996H217.682V174.297ZM289.277 181.885H291.105V183.438L289.805 185.963L288.633 185.969L289.277 183.438V181.885ZM392.133 174.297V184.996H389.648V184.158H391.055V175.135H389.648V174.297H392.133ZM402.891 181.07H409.084V182.061H402.891V181.07ZM402.891 178.311H409.084V179.301H402.891V178.311ZM479.689 174.309C479.17 175.199 478.781 176.088 478.523 176.975C478.27 177.857 478.143 178.748 478.143 179.646C478.143 180.541 478.27 181.432 478.523 182.318C478.781 183.205 479.17 184.098 479.689 184.996H478.752C478.162 184.066 477.723 183.162 477.434 182.283C477.145 181.4 477 180.521 477 179.646C477 178.775 477.145 177.898 477.434 177.016C477.723 176.133 478.162 175.23 478.752 174.309H479.689ZM483.949 174.309H484.887C485.477 175.23 485.916 176.133 486.205 177.016C486.494 177.898 486.639 178.775 486.639 179.646C486.639 180.525 486.494 181.406 486.205 182.289C485.916 183.172 485.477 184.074 484.887 184.996H483.949C484.469 184.09 484.855 183.193 485.109 182.307C485.367 181.42 485.496 180.533 485.496 179.646C485.496 178.756 485.367 177.867 485.109 176.98C484.855 176.094 484.469 175.203 483.949 174.309ZM491.73 181.885H493.559V183.438L492.404 185.676H491.15L491.73 183.438V181.885ZM491.654 177.443H493.482V179.559H491.654V177.443Z" fill="var(--vscode-foreground)"/>
<path d="M227.83 183.666C227.541 183.834 227.242 183.959 226.934 184.041C226.629 184.127 226.316 184.17 225.996 184.17C224.98 184.17 224.186 183.865 223.611 183.256C223.041 182.646 222.756 181.803 222.756 180.725C222.756 179.646 223.041 178.803 223.611 178.193C224.186 177.584 224.98 177.279 225.996 177.279C226.312 177.279 226.621 177.32 226.922 177.402C227.223 177.484 227.525 177.611 227.83 177.783V178.914C227.545 178.66 227.258 178.477 226.969 178.363C226.684 178.25 226.359 178.193 225.996 178.193C225.32 178.193 224.801 178.412 224.438 178.85C224.074 179.287 223.893 179.912 223.893 180.725C223.893 181.533 224.074 182.158 224.438 182.6C224.805 183.037 225.324 183.256 225.996 183.256C226.371 183.256 226.707 183.199 227.004 183.086C227.301 182.969 227.576 182.789 227.83 182.547V183.666ZM232.957 180.701H232.6C231.971 180.701 231.496 180.812 231.176 181.035C230.859 181.254 230.701 181.582 230.701 182.02C230.701 182.414 230.82 182.721 231.059 182.939C231.297 183.158 231.627 183.268 232.049 183.268C232.643 183.268 233.109 183.062 233.449 182.652C233.789 182.238 233.961 181.668 233.965 180.941V180.701H232.957ZM235.049 180.256V184H233.965V183.027C233.734 183.418 233.443 183.707 233.092 183.895C232.744 184.078 232.32 184.17 231.82 184.17C231.152 184.17 230.619 183.982 230.221 183.607C229.822 183.229 229.623 182.723 229.623 182.09C229.623 181.359 229.867 180.805 230.355 180.426C230.848 180.047 231.568 179.857 232.518 179.857H233.965V179.688C233.961 179.164 233.828 178.785 233.566 178.551C233.305 178.312 232.887 178.193 232.312 178.193C231.945 178.193 231.574 178.246 231.199 178.352C230.824 178.457 230.459 178.611 230.104 178.814V177.736C230.502 177.584 230.883 177.471 231.246 177.396C231.613 177.318 231.969 177.279 232.312 177.279C232.855 177.279 233.318 177.359 233.701 177.52C234.088 177.68 234.4 177.92 234.639 178.24C234.787 178.436 234.893 178.678 234.955 178.967C235.018 179.252 235.049 179.682 235.049 180.256ZM242.842 178.791C242.611 178.611 242.377 178.48 242.139 178.398C241.9 178.316 241.639 178.275 241.354 178.275C240.682 178.275 240.168 178.486 239.812 178.908C239.457 179.33 239.279 179.939 239.279 180.736V184H238.195V177.438H239.279V178.721C239.459 178.256 239.734 177.9 240.105 177.654C240.48 177.404 240.924 177.279 241.436 177.279C241.701 177.279 241.949 177.312 242.18 177.379C242.41 177.445 242.631 177.549 242.842 177.689V178.791ZM246.902 175.574V177.438H249.352V178.275H246.902V181.838C246.902 182.322 246.994 182.66 247.178 182.852C247.361 183.043 247.682 183.139 248.139 183.139H249.352V184H248.033C247.225 184 246.654 183.838 246.322 183.514C245.99 183.189 245.824 182.631 245.824 181.838V178.275H244.072V177.438H245.824V175.574H246.902ZM251.713 175.252H256.57V176.248H254.736V183.004H256.57V184H251.713V183.004H253.547V176.248H251.713V175.252ZM261.363 175.574V177.438H263.812V178.275H261.363V181.838C261.363 182.322 261.455 182.66 261.639 182.852C261.822 183.043 262.143 183.139 262.6 183.139H263.812V184H262.494C261.686 184 261.115 183.838 260.783 183.514C260.451 183.189 260.285 182.631 260.285 181.838V178.275H258.533V177.438H260.285V175.574H261.363ZM271.559 180.18V180.707H266.889V180.742C266.857 181.637 267.027 182.279 267.398 182.67C267.773 183.061 268.301 183.256 268.98 183.256C269.324 183.256 269.684 183.201 270.059 183.092C270.434 182.982 270.834 182.816 271.26 182.594V183.666C270.85 183.834 270.453 183.959 270.07 184.041C269.691 184.127 269.324 184.17 268.969 184.17C267.949 184.17 267.152 183.865 266.578 183.256C266.004 182.643 265.717 181.799 265.717 180.725C265.717 179.678 265.998 178.842 266.561 178.217C267.123 177.592 267.873 177.279 268.811 177.279C269.646 177.279 270.305 177.562 270.785 178.129C271.27 178.695 271.527 179.379 271.559 180.18ZM270.48 179.863C270.434 179.41 270.268 179.02 269.982 178.691C269.701 178.359 269.295 178.193 268.764 178.193C268.244 178.193 267.816 178.365 267.48 178.709C267.145 179.053 266.961 179.439 266.93 179.869L270.48 179.863ZM276.188 178.105C276.32 177.824 276.488 177.617 276.691 177.484C276.898 177.348 277.146 177.279 277.436 177.279C277.963 177.279 278.334 177.484 278.549 177.895C278.768 178.301 278.877 179.068 278.877 180.197V184H277.893V180.244C277.893 179.318 277.84 178.744 277.734 178.521C277.633 178.295 277.445 178.182 277.172 178.182C276.859 178.182 276.645 178.303 276.527 178.545C276.414 178.783 276.357 179.35 276.357 180.244V184H275.373V180.244C275.373 179.307 275.316 178.729 275.203 178.51C275.094 178.291 274.895 178.182 274.605 178.182C274.32 178.182 274.121 178.303 274.008 178.545C273.898 178.783 273.844 179.35 273.844 180.244V184H272.865V177.438H273.844V178C273.973 177.766 274.133 177.588 274.324 177.467C274.52 177.342 274.74 177.279 274.986 177.279C275.283 177.279 275.529 177.348 275.725 177.484C275.924 177.621 276.078 177.828 276.188 178.105ZM285.158 177.666V178.721C284.85 178.541 284.539 178.406 284.227 178.316C283.914 178.227 283.596 178.182 283.271 178.182C282.783 178.182 282.418 178.262 282.176 178.422C281.938 178.578 281.818 178.818 281.818 179.143C281.818 179.436 281.908 179.654 282.088 179.799C282.268 179.943 282.715 180.084 283.43 180.221L283.863 180.303C284.398 180.404 284.803 180.607 285.076 180.912C285.354 181.217 285.492 181.613 285.492 182.102C285.492 182.75 285.262 183.258 284.801 183.625C284.34 183.988 283.699 184.17 282.879 184.17C282.555 184.17 282.215 184.135 281.859 184.064C281.504 183.998 281.119 183.896 280.705 183.76V182.646C281.107 182.854 281.492 183.01 281.859 183.115C282.227 183.217 282.574 183.268 282.902 183.268C283.379 183.268 283.748 183.172 284.01 182.98C284.271 182.785 284.402 182.514 284.402 182.166C284.402 181.666 283.924 181.32 282.967 181.129L282.92 181.117L282.516 181.035C281.895 180.914 281.441 180.711 281.156 180.426C280.871 180.137 280.729 179.744 280.729 179.248C280.729 178.619 280.941 178.135 281.367 177.795C281.793 177.451 282.4 177.279 283.189 177.279C283.541 177.279 283.879 177.312 284.203 177.379C284.527 177.441 284.846 177.537 285.158 177.666Z" fill="var(--vscode-notificationLink-foreground)"/>
<path d="M306.85 177.666V178.721C306.541 178.541 306.23 178.406 305.918 178.316C305.605 178.227 305.287 178.182 304.963 178.182C304.475 178.182 304.109 178.262 303.867 178.422C303.629 178.578 303.51 178.818 303.51 179.143C303.51 179.436 303.6 179.654 303.779 179.799C303.959 179.943 304.406 180.084 305.121 180.221L305.555 180.303C306.09 180.404 306.494 180.607 306.768 180.912C307.045 181.217 307.184 181.613 307.184 182.102C307.184 182.75 306.953 183.258 306.492 183.625C306.031 183.988 305.391 184.17 304.57 184.17C304.246 184.17 303.906 184.135 303.551 184.064C303.195 183.998 302.811 183.896 302.396 183.76V182.646C302.799 182.854 303.184 183.01 303.551 183.115C303.918 183.217 304.266 183.268 304.594 183.268C305.07 183.268 305.439 183.172 305.701 182.98C305.963 182.785 306.094 182.514 306.094 182.166C306.094 181.666 305.615 181.32 304.658 181.129L304.611 181.117L304.207 181.035C303.586 180.914 303.133 180.711 302.848 180.426C302.562 180.137 302.42 179.744 302.42 179.248C302.42 178.619 302.633 178.135 303.059 177.795C303.484 177.451 304.092 177.279 304.881 177.279C305.232 177.279 305.57 177.312 305.895 177.379C306.219 177.441 306.537 177.537 306.85 177.666ZM314.941 180.18V180.707H310.271V180.742C310.24 181.637 310.41 182.279 310.781 182.67C311.156 183.061 311.684 183.256 312.363 183.256C312.707 183.256 313.066 183.201 313.441 183.092C313.816 182.982 314.217 182.816 314.643 182.594V183.666C314.232 183.834 313.836 183.959 313.453 184.041C313.074 184.127 312.707 184.17 312.352 184.17C311.332 184.17 310.535 183.865 309.961 183.256C309.387 182.643 309.1 181.799 309.1 180.725C309.1 179.678 309.381 178.842 309.943 178.217C310.506 177.592 311.256 177.279 312.193 177.279C313.029 177.279 313.688 177.562 314.168 178.129C314.652 178.695 314.91 179.379 314.941 180.18ZM313.863 179.863C313.816 179.41 313.65 179.02 313.365 178.691C313.084 178.359 312.678 178.193 312.146 178.193C311.627 178.193 311.199 178.365 310.863 178.709C310.527 179.053 310.344 179.439 310.312 179.869L313.863 179.863ZM319.207 175.574V177.438H321.656V178.275H319.207V181.838C319.207 182.322 319.299 182.66 319.482 182.852C319.666 183.043 319.986 183.139 320.443 183.139H321.656V184H320.338C319.529 184 318.959 183.838 318.627 183.514C318.295 183.189 318.129 182.631 318.129 181.838V178.275H316.377V177.438H318.129V175.574H319.207ZM329.127 183.689C328.826 183.85 328.518 183.969 328.201 184.047C327.885 184.129 327.549 184.17 327.193 184.17C326.072 184.17 325.201 183.773 324.58 182.98C323.963 182.188 323.654 181.072 323.654 179.635C323.654 178.205 323.965 177.092 324.586 176.295C325.211 175.494 326.08 175.094 327.193 175.094C327.549 175.094 327.885 175.135 328.201 175.217C328.518 175.295 328.826 175.414 329.127 175.574V176.787C328.838 176.549 328.527 176.367 328.195 176.242C327.863 176.117 327.529 176.055 327.193 176.055C326.424 176.055 325.848 176.352 325.465 176.945C325.082 177.539 324.891 178.436 324.891 179.635C324.891 180.83 325.082 181.725 325.465 182.318C325.848 182.912 326.424 183.209 327.193 183.209C327.537 183.209 327.873 183.146 328.201 183.021C328.533 182.896 328.842 182.715 329.127 182.477V183.689ZM334.184 180.701H333.826C333.197 180.701 332.723 180.812 332.402 181.035C332.086 181.254 331.928 181.582 331.928 182.02C331.928 182.414 332.047 182.721 332.285 182.939C332.523 183.158 332.854 183.268 333.275 183.268C333.869 183.268 334.336 183.062 334.676 182.652C335.016 182.238 335.188 181.668 335.191 180.941V180.701H334.184ZM336.275 180.256V184H335.191V183.027C334.961 183.418 334.67 183.707 334.318 183.895C333.971 184.078 333.547 184.17 333.047 184.17C332.379 184.17 331.846 183.982 331.447 183.607C331.049 183.229 330.85 182.723 330.85 182.09C330.85 181.359 331.094 180.805 331.582 180.426C332.074 180.047 332.795 179.857 333.744 179.857H335.191V179.688C335.188 179.164 335.055 178.785 334.793 178.551C334.531 178.312 334.113 178.193 333.539 178.193C333.172 178.193 332.801 178.246 332.426 178.352C332.051 178.457 331.686 178.611 331.33 178.814V177.736C331.729 177.584 332.109 177.471 332.473 177.396C332.84 177.318 333.195 177.279 333.539 177.279C334.082 177.279 334.545 177.359 334.928 177.52C335.314 177.68 335.627 177.92 335.865 178.24C336.014 178.436 336.119 178.678 336.182 178.967C336.244 179.252 336.275 179.682 336.275 180.256ZM344.068 178.791C343.838 178.611 343.604 178.48 343.365 178.398C343.127 178.316 342.865 178.275 342.58 178.275C341.908 178.275 341.395 178.486 341.039 178.908C340.684 179.33 340.506 179.939 340.506 180.736V184H339.422V177.438H340.506V178.721C340.686 178.256 340.961 177.9 341.332 177.654C341.707 177.404 342.15 177.279 342.662 177.279C342.928 177.279 343.176 177.312 343.406 177.379C343.637 177.445 343.857 177.549 344.068 177.689V178.791ZM348.129 175.574V177.438H350.578V178.275H348.129V181.838C348.129 182.322 348.221 182.66 348.404 182.852C348.588 183.043 348.908 183.139 349.365 183.139H350.578V184H349.26C348.451 184 347.881 183.838 347.549 183.514C347.217 183.189 347.051 182.631 347.051 181.838V178.275H345.299V177.438H347.051V175.574H348.129ZM352.939 175.252H357.797V176.248H355.963V183.004H357.797V184H352.939V183.004H354.773V176.248H352.939V175.252ZM362.59 175.574V177.438H365.039V178.275H362.59V181.838C362.59 182.322 362.682 182.66 362.865 182.852C363.049 183.043 363.369 183.139 363.826 183.139H365.039V184H363.721C362.912 184 362.342 183.838 362.01 183.514C361.678 183.189 361.512 182.631 361.512 181.838V178.275H359.76V177.438H361.512V175.574H362.59ZM372.785 180.18V180.707H368.115V180.742C368.084 181.637 368.254 182.279 368.625 182.67C369 183.061 369.527 183.256 370.207 183.256C370.551 183.256 370.91 183.201 371.285 183.092C371.66 182.982 372.061 182.816 372.486 182.594V183.666C372.076 183.834 371.68 183.959 371.297 184.041C370.918 184.127 370.551 184.17 370.195 184.17C369.176 184.17 368.379 183.865 367.805 183.256C367.23 182.643 366.943 181.799 366.943 180.725C366.943 179.678 367.225 178.842 367.787 178.217C368.35 177.592 369.1 177.279 370.037 177.279C370.873 177.279 371.531 177.562 372.012 178.129C372.496 178.695 372.754 179.379 372.785 180.18ZM371.707 179.863C371.66 179.41 371.494 179.02 371.209 178.691C370.928 178.359 370.521 178.193 369.99 178.193C369.471 178.193 369.043 178.365 368.707 178.709C368.371 179.053 368.188 179.439 368.156 179.869L371.707 179.863ZM377.414 178.105C377.547 177.824 377.715 177.617 377.918 177.484C378.125 177.348 378.373 177.279 378.662 177.279C379.189 177.279 379.561 177.484 379.775 177.895C379.994 178.301 380.104 179.068 380.104 180.197V184H379.119V180.244C379.119 179.318 379.066 178.744 378.961 178.521C378.859 178.295 378.672 178.182 378.398 178.182C378.086 178.182 377.871 178.303 377.754 178.545C377.641 178.783 377.584 179.35 377.584 180.244V184H376.6V180.244C376.6 179.307 376.543 178.729 376.43 178.51C376.32 178.291 376.121 178.182 375.832 178.182C375.547 178.182 375.348 178.303 375.234 178.545C375.125 178.783 375.07 179.35 375.07 180.244V184H374.092V177.438H375.07V178C375.199 177.766 375.359 177.588 375.551 177.467C375.746 177.342 375.967 177.279 376.213 177.279C376.51 177.279 376.756 177.348 376.951 177.484C377.15 177.621 377.305 177.828 377.414 178.105ZM386.385 177.666V178.721C386.076 178.541 385.766 178.406 385.453 178.316C385.141 178.227 384.822 178.182 384.498 178.182C384.01 178.182 383.645 178.262 383.402 178.422C383.164 178.578 383.045 178.818 383.045 179.143C383.045 179.436 383.135 179.654 383.314 179.799C383.494 179.943 383.941 180.084 384.656 180.221L385.09 180.303C385.625 180.404 386.029 180.607 386.303 180.912C386.58 181.217 386.719 181.613 386.719 182.102C386.719 182.75 386.488 183.258 386.027 183.625C385.566 183.988 384.926 184.17 384.105 184.17C383.781 184.17 383.441 184.135 383.086 184.064C382.73 183.998 382.346 183.896 381.932 183.76V182.646C382.334 182.854 382.719 183.01 383.086 183.115C383.453 183.217 383.801 183.268 384.129 183.268C384.605 183.268 384.975 183.172 385.236 182.98C385.498 182.785 385.629 182.514 385.629 182.166C385.629 181.666 385.15 181.32 384.193 181.129L384.146 181.117L383.742 181.035C383.121 180.914 382.668 180.711 382.383 180.426C382.098 180.137 381.955 179.744 381.955 179.248C381.955 178.619 382.168 178.135 382.594 177.795C383.02 177.451 383.627 177.279 384.416 177.279C384.768 177.279 385.105 177.312 385.43 177.379C385.754 177.441 386.072 177.537 386.385 177.666ZM417.979 181.516V177.449H419.057V181.516C419.057 182.105 419.16 182.539 419.367 182.816C419.578 183.094 419.902 183.232 420.34 183.232C420.848 183.232 421.236 183.055 421.506 182.699C421.775 182.34 421.91 181.826 421.91 181.158V177.449H422.994V184H421.91V183.016C421.719 183.395 421.457 183.682 421.125 183.877C420.797 184.072 420.412 184.17 419.971 184.17C419.299 184.17 418.799 183.951 418.471 183.514C418.143 183.072 417.979 182.406 417.979 181.516ZM429.768 177.666V178.721C429.459 178.541 429.148 178.406 428.836 178.316C428.523 178.227 428.205 178.182 427.881 178.182C427.393 178.182 427.027 178.262 426.785 178.422C426.547 178.578 426.428 178.818 426.428 179.143C426.428 179.436 426.518 179.654 426.697 179.799C426.877 179.943 427.324 180.084 428.039 180.221L428.473 180.303C429.008 180.404 429.412 180.607 429.686 180.912C429.963 181.217 430.102 181.613 430.102 182.102C430.102 182.75 429.871 183.258 429.41 183.625C428.949 183.988 428.309 184.17 427.488 184.17C427.164 184.17 426.824 184.135 426.469 184.064C426.113 183.998 425.729 183.896 425.314 183.76V182.646C425.717 182.854 426.102 183.01 426.469 183.115C426.836 183.217 427.184 183.268 427.512 183.268C427.988 183.268 428.357 183.172 428.619 182.98C428.881 182.785 429.012 182.514 429.012 182.166C429.012 181.666 428.533 181.32 427.576 181.129L427.529 181.117L427.125 181.035C426.504 180.914 426.051 180.711 425.766 180.426C425.48 180.137 425.338 179.744 425.338 179.248C425.338 178.619 425.551 178.135 425.977 177.795C426.402 177.451 427.01 177.279 427.799 177.279C428.15 177.279 428.488 177.312 428.812 177.379C429.137 177.441 429.455 177.537 429.768 177.666ZM437.859 180.18V180.707H433.189V180.742C433.158 181.637 433.328 182.279 433.699 182.67C434.074 183.061 434.602 183.256 435.281 183.256C435.625 183.256 435.984 183.201 436.359 183.092C436.734 182.982 437.135 182.816 437.561 182.594V183.666C437.15 183.834 436.754 183.959 436.371 184.041C435.992 184.127 435.625 184.17 435.27 184.17C434.25 184.17 433.453 183.865 432.879 183.256C432.305 182.643 432.018 181.799 432.018 180.725C432.018 179.678 432.299 178.842 432.861 178.217C433.424 177.592 434.174 177.279 435.111 177.279C435.947 177.279 436.605 177.562 437.086 178.129C437.57 178.695 437.828 179.379 437.859 180.18ZM436.781 179.863C436.734 179.41 436.568 179.02 436.283 178.691C436.002 178.359 435.596 178.193 435.064 178.193C434.545 178.193 434.117 178.365 433.781 178.709C433.445 179.053 433.262 179.439 433.23 179.869L436.781 179.863ZM444.457 175.551V176.752C444.098 176.521 443.736 176.348 443.373 176.23C443.014 176.113 442.65 176.055 442.283 176.055C441.725 176.055 441.283 176.186 440.959 176.447C440.635 176.705 440.473 177.055 440.473 177.496C440.473 177.883 440.578 178.178 440.789 178.381C441.004 178.584 441.402 178.754 441.984 178.891L442.605 179.031C443.426 179.223 444.023 179.523 444.398 179.934C444.773 180.344 444.961 180.902 444.961 181.609C444.961 182.441 444.703 183.076 444.188 183.514C443.672 183.951 442.922 184.17 441.938 184.17C441.527 184.17 441.115 184.125 440.701 184.035C440.287 183.949 439.871 183.818 439.453 183.643V182.383C439.902 182.668 440.326 182.877 440.725 183.01C441.127 183.143 441.531 183.209 441.938 183.209C442.535 183.209 443 183.076 443.332 182.811C443.664 182.541 443.83 182.166 443.83 181.686C443.83 181.248 443.715 180.914 443.484 180.684C443.258 180.453 442.861 180.275 442.295 180.15L441.662 180.004C440.85 179.82 440.26 179.543 439.893 179.172C439.525 178.801 439.342 178.303 439.342 177.678C439.342 176.896 439.604 176.271 440.127 175.803C440.654 175.33 441.354 175.094 442.225 175.094C442.561 175.094 442.914 175.133 443.285 175.211C443.656 175.285 444.047 175.398 444.457 175.551ZM449.355 175.574V177.438H451.805V178.275H449.355V181.838C449.355 182.322 449.447 182.66 449.631 182.852C449.814 183.043 450.135 183.139 450.592 183.139H451.805V184H450.486C449.678 184 449.107 183.838 448.775 183.514C448.443 183.189 448.277 182.631 448.277 181.838V178.275H446.525V177.438H448.277V175.574H449.355ZM457.102 180.701H456.744C456.115 180.701 455.641 180.812 455.32 181.035C455.004 181.254 454.846 181.582 454.846 182.02C454.846 182.414 454.965 182.721 455.203 182.939C455.441 183.158 455.771 183.268 456.193 183.268C456.787 183.268 457.254 183.062 457.594 182.652C457.934 182.238 458.105 181.668 458.109 180.941V180.701H457.102ZM459.193 180.256V184H458.109V183.027C457.879 183.418 457.588 183.707 457.236 183.895C456.889 184.078 456.465 184.17 455.965 184.17C455.297 184.17 454.764 183.982 454.365 183.607C453.967 183.229 453.768 182.723 453.768 182.09C453.768 181.359 454.012 180.805 454.5 180.426C454.992 180.047 455.713 179.857 456.662 179.857H458.109V179.688C458.105 179.164 457.973 178.785 457.711 178.551C457.449 178.312 457.031 178.193 456.457 178.193C456.09 178.193 455.719 178.246 455.344 178.352C454.969 178.457 454.604 178.611 454.248 178.814V177.736C454.646 177.584 455.027 177.471 455.391 177.396C455.758 177.318 456.113 177.279 456.457 177.279C457 177.279 457.463 177.359 457.846 177.52C458.232 177.68 458.545 177.92 458.783 178.24C458.932 178.436 459.037 178.678 459.1 178.967C459.162 179.252 459.193 179.682 459.193 180.256ZM463.816 175.574V177.438H466.266V178.275H463.816V181.838C463.816 182.322 463.908 182.66 464.092 182.852C464.275 183.043 464.596 183.139 465.053 183.139H466.266V184H464.947C464.139 184 463.568 183.838 463.236 183.514C462.904 183.189 462.738 182.631 462.738 181.838V178.275H460.986V177.438H462.738V175.574H463.816ZM474.012 180.18V180.707H469.342V180.742C469.311 181.637 469.48 182.279 469.852 182.67C470.227 183.061 470.754 183.256 471.434 183.256C471.777 183.256 472.137 183.201 472.512 183.092C472.887 182.982 473.287 182.816 473.713 182.594V183.666C473.303 183.834 472.906 183.959 472.523 184.041C472.145 184.127 471.777 184.17 471.422 184.17C470.402 184.17 469.605 183.865 469.031 183.256C468.457 182.643 468.17 181.799 468.17 180.725C468.17 179.678 468.451 178.842 469.014 178.217C469.576 177.592 470.326 177.279 471.264 177.279C472.1 177.279 472.758 177.562 473.238 178.129C473.723 178.695 473.98 179.379 474.012 180.18ZM472.934 179.863C472.887 179.41 472.721 179.02 472.436 178.691C472.154 178.359 471.748 178.193 471.217 178.193C470.697 178.193 470.27 178.365 469.934 178.709C469.598 179.053 469.414 179.439 469.383 179.869L472.934 179.863Z" fill="var(--vscode-editorOverviewRuler-warningForeground)"/>
<g clip-path="url(#clip1)">
<rect width="65" height="24" transform="translate(222 168)" fill="var(--vscode-diffEditor-insertedTextBackground)" fill-opacity="0.75"/>
</g>
<g clip-path="url(#clip2)">
<rect width="87" height="24" transform="translate(301 168)" fill="var(--vscode-diffEditor-insertedTextBackground)" fill-opacity="0.75"/>
</g>
</g>
<rect x="151" y="289" width="65" height="8" rx="4" fill="#007ACC"/>
<rect x="151" y="222" width="115" height="8" rx="4" fill="#B180D7"/>
<rect x="151" y="241" width="74" height="8" rx="4" fill="#B180D7"/>
<rect x="240" y="69" width="42" height="8" rx="4" fill="var(--vscode-editorOverviewRuler-warningForeground)"/>
<rect x="222" y="289" width="108" height="8" rx="4" fill="var(--vscode-editorOverviewRuler-warningForeground)"/>
<rect x="172" y="88" width="74" height="8" rx="4" fill="#007ACC"/>
<rect x="151" y="107" width="75" height="8" rx="4" fill="#007ACC"/>
<rect x="252" y="88" width="58" height="8" rx="4" fill="#D88E73"/>
<g clip-path="url(#clip3)">
<rect width="379" height="24" transform="translate(131 144)" fill="var(--vscode-diffEditor-removedTextBackground)" fill-opacity="0.75"/>
<path d="M177.217 159.666C176.928 159.834 176.629 159.959 176.32 160.041C176.016 160.127 175.703 160.17 175.383 160.17C174.367 160.17 173.572 159.865 172.998 159.256C172.428 158.646 172.143 157.803 172.143 156.725C172.143 155.646 172.428 154.803 172.998 154.193C173.572 153.584 174.367 153.279 175.383 153.279C175.699 153.279 176.008 153.32 176.309 153.402C176.609 153.484 176.912 153.611 177.217 153.783V154.914C176.932 154.66 176.645 154.477 176.355 154.363C176.07 154.25 175.746 154.193 175.383 154.193C174.707 154.193 174.188 154.412 173.824 154.85C173.461 155.287 173.279 155.912 173.279 156.725C173.279 157.533 173.461 158.158 173.824 158.6C174.191 159.037 174.711 159.256 175.383 159.256C175.758 159.256 176.094 159.199 176.391 159.086C176.688 158.969 176.963 158.789 177.217 158.547V159.666ZM181.84 154.193C181.293 154.193 180.879 154.406 180.598 154.832C180.316 155.258 180.176 155.889 180.176 156.725C180.176 157.557 180.316 158.188 180.598 158.617C180.879 159.043 181.293 159.256 181.84 159.256C182.391 159.256 182.807 159.043 183.088 158.617C183.369 158.188 183.51 157.557 183.51 156.725C183.51 155.889 183.369 155.258 183.088 154.832C182.807 154.406 182.391 154.193 181.84 154.193ZM181.84 153.279C182.75 153.279 183.445 153.574 183.926 154.164C184.41 154.754 184.652 155.607 184.652 156.725C184.652 157.846 184.412 158.701 183.932 159.291C183.451 159.877 182.754 160.17 181.84 160.17C180.93 160.17 180.234 159.877 179.754 159.291C179.273 158.701 179.033 157.846 179.033 156.725C179.033 155.607 179.273 154.754 179.754 154.164C180.234 153.574 180.93 153.279 181.84 153.279ZM191.619 155.934V160H190.535V155.934C190.535 155.344 190.432 154.91 190.225 154.633C190.018 154.355 189.693 154.217 189.252 154.217C188.748 154.217 188.359 154.396 188.086 154.756C187.816 155.111 187.682 155.623 187.682 156.291V160H186.604V153.438H187.682V154.422C187.873 154.047 188.133 153.764 188.461 153.572C188.789 153.377 189.178 153.279 189.627 153.279C190.295 153.279 190.793 153.5 191.121 153.941C191.453 154.379 191.619 155.043 191.619 155.934ZM198.393 153.666V154.721C198.084 154.541 197.773 154.406 197.461 154.316C197.148 154.227 196.83 154.182 196.506 154.182C196.018 154.182 195.652 154.262 195.41 154.422C195.172 154.578 195.053 154.818 195.053 155.143C195.053 155.436 195.143 155.654 195.322 155.799C195.502 155.943 195.949 156.084 196.664 156.221L197.098 156.303C197.633 156.404 198.037 156.607 198.311 156.912C198.588 157.217 198.727 157.613 198.727 158.102C198.727 158.75 198.496 159.258 198.035 159.625C197.574 159.988 196.934 160.17 196.113 160.17C195.789 160.17 195.449 160.135 195.094 160.064C194.738 159.998 194.354 159.896 193.939 159.76V158.646C194.342 158.854 194.727 159.01 195.094 159.115C195.461 159.217 195.809 159.268 196.137 159.268C196.613 159.268 196.982 159.172 197.244 158.98C197.506 158.785 197.637 158.514 197.637 158.166C197.637 157.666 197.158 157.32 196.201 157.129L196.154 157.117L195.75 157.035C195.129 156.914 194.676 156.711 194.391 156.426C194.105 156.137 193.963 155.744 193.963 155.248C193.963 154.619 194.176 154.135 194.602 153.795C195.027 153.451 195.635 153.279 196.424 153.279C196.775 153.279 197.113 153.312 197.438 153.379C197.762 153.441 198.08 153.537 198.393 153.666ZM203.52 151.574V153.438H205.969V154.275H203.52V157.838C203.52 158.322 203.611 158.66 203.795 158.852C203.979 159.043 204.299 159.139 204.756 159.139H205.969V160H204.65C203.842 160 203.271 159.838 202.939 159.514C202.607 159.189 202.441 158.631 202.441 157.838V154.275H200.689V153.438H202.441V151.574H203.52Z" fill="var(--vscode-notificationLink-foreground)"/>
<path d="M217.682 150.297H220.166V151.135H218.76V160.158H220.166V160.996H217.682V150.297ZM260.355 157.885H262.184V159.438L260.883 161.963L259.711 161.969L260.355 159.438V157.885ZM334.289 150.297V160.996H331.805V160.158H333.211V151.135H331.805V150.297H334.289ZM345.047 157.07H351.24V158.061H345.047V157.07ZM345.047 154.311H351.24V155.301H345.047V154.311ZM421.846 150.309C421.326 151.199 420.938 152.088 420.68 152.975C420.426 153.857 420.299 154.748 420.299 155.646C420.299 156.541 420.426 157.432 420.68 158.318C420.938 159.205 421.326 160.098 421.846 160.996H420.908C420.318 160.066 419.879 159.162 419.59 158.283C419.301 157.4 419.156 156.521 419.156 155.646C419.156 154.775 419.301 153.898 419.59 153.016C419.879 152.133 420.318 151.23 420.908 150.309H421.846ZM427.676 151.123C428.609 151.123 429.314 151.504 429.791 152.266C430.271 153.027 430.512 154.154 430.512 155.646C430.512 157.139 430.271 158.266 429.791 159.027C429.314 159.789 428.609 160.17 427.676 160.17C426.742 160.17 426.037 159.789 425.561 159.027C425.084 158.266 424.846 157.139 424.846 155.646C424.846 154.154 425.084 153.027 425.561 152.266C426.037 151.504 426.742 151.123 427.676 151.123ZM427.676 159.232C428.23 159.232 428.643 158.938 428.912 158.348C429.186 157.758 429.322 156.857 429.322 155.646C429.322 155.002 429.283 154.42 429.205 153.9L426.416 158.266C426.709 158.91 427.129 159.232 427.676 159.232ZM427.676 152.061C427.125 152.061 426.713 152.355 426.439 152.945C426.17 153.535 426.035 154.436 426.035 155.646C426.035 156.197 426.072 156.713 426.146 157.193L428.877 152.84C428.58 152.32 428.18 152.061 427.676 152.061ZM433.336 150.309H434.273C434.863 151.23 435.303 152.133 435.592 153.016C435.881 153.898 436.025 154.775 436.025 155.646C436.025 156.525 435.881 157.406 435.592 158.289C435.303 159.172 434.863 160.074 434.273 160.996H433.336C433.855 160.09 434.242 159.193 434.496 158.307C434.754 157.42 434.883 156.533 434.883 155.646C434.883 154.756 434.754 153.867 434.496 152.98C434.242 152.094 433.855 151.203 433.336 150.309ZM441.117 157.885H442.945V159.438L441.791 161.676H440.537L441.117 159.438V157.885ZM441.041 153.443H442.869V155.559H441.041V153.443Z" fill="var(--vscode-foreground)"/>
<path d="M227.83 159.666C227.541 159.834 227.242 159.959 226.934 160.041C226.629 160.127 226.316 160.17 225.996 160.17C224.98 160.17 224.186 159.865 223.611 159.256C223.041 158.646 222.756 157.803 222.756 156.725C222.756 155.646 223.041 154.803 223.611 154.193C224.186 153.584 224.98 153.279 225.996 153.279C226.312 153.279 226.621 153.32 226.922 153.402C227.223 153.484 227.525 153.611 227.83 153.783V154.914C227.545 154.66 227.258 154.477 226.969 154.363C226.684 154.25 226.359 154.193 225.996 154.193C225.32 154.193 224.801 154.412 224.438 154.85C224.074 155.287 223.893 155.912 223.893 156.725C223.893 157.533 224.074 158.158 224.438 158.6C224.805 159.037 225.324 159.256 225.996 159.256C226.371 159.256 226.707 159.199 227.004 159.086C227.301 158.969 227.576 158.789 227.83 158.547V159.666ZM232.453 154.193C231.906 154.193 231.492 154.406 231.211 154.832C230.93 155.258 230.789 155.889 230.789 156.725C230.789 157.557 230.93 158.188 231.211 158.617C231.492 159.043 231.906 159.256 232.453 159.256C233.004 159.256 233.42 159.043 233.701 158.617C233.982 158.188 234.123 157.557 234.123 156.725C234.123 155.889 233.982 155.258 233.701 154.832C233.42 154.406 233.004 154.193 232.453 154.193ZM232.453 153.279C233.363 153.279 234.059 153.574 234.539 154.164C235.023 154.754 235.266 155.607 235.266 156.725C235.266 157.846 235.025 158.701 234.545 159.291C234.064 159.877 233.367 160.17 232.453 160.17C231.543 160.17 230.848 159.877 230.367 159.291C229.887 158.701 229.646 157.846 229.646 156.725C229.646 155.607 229.887 154.754 230.367 154.164C230.848 153.574 231.543 153.279 232.453 153.279ZM237.217 157.516V153.449H238.295V157.516C238.295 158.105 238.398 158.539 238.605 158.816C238.816 159.094 239.141 159.232 239.578 159.232C240.086 159.232 240.475 159.055 240.744 158.699C241.014 158.34 241.148 157.826 241.148 157.158V153.449H242.232V160H241.148V159.016C240.957 159.395 240.695 159.682 240.363 159.877C240.035 160.072 239.65 160.17 239.209 160.17C238.537 160.17 238.037 159.951 237.709 159.514C237.381 159.072 237.217 158.406 237.217 157.516ZM249.463 155.934V160H248.379V155.934C248.379 155.344 248.275 154.91 248.068 154.633C247.861 154.355 247.537 154.217 247.096 154.217C246.592 154.217 246.203 154.396 245.93 154.756C245.66 155.111 245.525 155.623 245.525 156.291V160H244.447V153.438H245.525V154.422C245.717 154.047 245.977 153.764 246.305 153.572C246.633 153.377 247.021 153.279 247.471 153.279C248.139 153.279 248.637 153.5 248.965 153.941C249.297 154.379 249.463 155.043 249.463 155.934ZM254.133 151.574V153.438H256.582V154.275H254.133V157.838C254.133 158.322 254.225 158.66 254.408 158.852C254.592 159.043 254.912 159.139 255.369 159.139H256.582V160H255.264C254.455 160 253.885 159.838 253.553 159.514C253.221 159.189 253.055 158.631 253.055 157.838V154.275H251.303V153.438H253.055V151.574H254.133Z" fill="var(--vscode-notificationLink-foreground)"/>
<path d="M277.928 153.666V154.721C277.619 154.541 277.309 154.406 276.996 154.316C276.684 154.227 276.365 154.182 276.041 154.182C275.553 154.182 275.188 154.262 274.945 154.422C274.707 154.578 274.588 154.818 274.588 155.143C274.588 155.436 274.678 155.654 274.857 155.799C275.037 155.943 275.484 156.084 276.199 156.221L276.633 156.303C277.168 156.404 277.572 156.607 277.846 156.912C278.123 157.217 278.262 157.613 278.262 158.102C278.262 158.75 278.031 159.258 277.57 159.625C277.109 159.988 276.469 160.17 275.648 160.17C275.324 160.17 274.984 160.135 274.629 160.064C274.273 159.998 273.889 159.896 273.475 159.76V158.646C273.877 158.854 274.262 159.01 274.629 159.115C274.996 159.217 275.344 159.268 275.672 159.268C276.148 159.268 276.518 159.172 276.779 158.98C277.041 158.785 277.172 158.514 277.172 158.166C277.172 157.666 276.693 157.32 275.736 157.129L275.689 157.117L275.285 157.035C274.664 156.914 274.211 156.711 273.926 156.426C273.641 156.137 273.498 155.744 273.498 155.248C273.498 154.619 273.711 154.135 274.137 153.795C274.562 153.451 275.17 153.279 275.959 153.279C276.311 153.279 276.648 153.312 276.973 153.379C277.297 153.441 277.615 153.537 277.928 153.666ZM286.02 156.18V156.707H281.35V156.742C281.318 157.637 281.488 158.279 281.859 158.67C282.234 159.061 282.762 159.256 283.441 159.256C283.785 159.256 284.145 159.201 284.52 159.092C284.895 158.982 285.295 158.816 285.721 158.594V159.666C285.311 159.834 284.914 159.959 284.531 160.041C284.152 160.127 283.785 160.17 283.43 160.17C282.41 160.17 281.613 159.865 281.039 159.256C280.465 158.643 280.178 157.799 280.178 156.725C280.178 155.678 280.459 154.842 281.021 154.217C281.584 153.592 282.334 153.279 283.271 153.279C284.107 153.279 284.766 153.562 285.246 154.129C285.73 154.695 285.988 155.379 286.02 156.18ZM284.941 155.863C284.895 155.41 284.729 155.02 284.443 154.691C284.162 154.359 283.756 154.193 283.225 154.193C282.705 154.193 282.277 154.365 281.941 154.709C281.605 155.053 281.422 155.439 281.391 155.869L284.941 155.863ZM290.285 151.574V153.438H292.734V154.275H290.285V157.838C290.285 158.322 290.377 158.66 290.561 158.852C290.744 159.043 291.064 159.139 291.521 159.139H292.734V160H291.416C290.607 160 290.037 159.838 289.705 159.514C289.373 159.189 289.207 158.631 289.207 157.838V154.275H287.455V153.438H289.207V151.574H290.285ZM300.205 159.689C299.904 159.85 299.596 159.969 299.279 160.047C298.963 160.129 298.627 160.17 298.271 160.17C297.15 160.17 296.279 159.773 295.658 158.98C295.041 158.188 294.732 157.072 294.732 155.635C294.732 154.205 295.043 153.092 295.664 152.295C296.289 151.494 297.158 151.094 298.271 151.094C298.627 151.094 298.963 151.135 299.279 151.217C299.596 151.295 299.904 151.414 300.205 151.574V152.787C299.916 152.549 299.605 152.367 299.273 152.242C298.941 152.117 298.607 152.055 298.271 152.055C297.502 152.055 296.926 152.352 296.543 152.945C296.16 153.539 295.969 154.436 295.969 155.635C295.969 156.83 296.16 157.725 296.543 158.318C296.926 158.912 297.502 159.209 298.271 159.209C298.615 159.209 298.951 159.146 299.279 159.021C299.611 158.896 299.92 158.715 300.205 158.477V159.689ZM304.758 154.193C304.211 154.193 303.797 154.406 303.516 154.832C303.234 155.258 303.094 155.889 303.094 156.725C303.094 157.557 303.234 158.188 303.516 158.617C303.797 159.043 304.211 159.256 304.758 159.256C305.309 159.256 305.725 159.043 306.006 158.617C306.287 158.188 306.428 157.557 306.428 156.725C306.428 155.889 306.287 155.258 306.006 154.832C305.725 154.406 305.309 154.193 304.758 154.193ZM304.758 153.279C305.668 153.279 306.363 153.574 306.844 154.164C307.328 154.754 307.57 155.607 307.57 156.725C307.57 157.846 307.33 158.701 306.85 159.291C306.369 159.877 305.672 160.17 304.758 160.17C303.848 160.17 303.152 159.877 302.672 159.291C302.191 158.701 301.951 157.846 301.951 156.725C301.951 155.607 302.191 154.754 302.672 154.164C303.152 153.574 303.848 153.279 304.758 153.279ZM309.521 157.516V153.449H310.6V157.516C310.6 158.105 310.703 158.539 310.91 158.816C311.121 159.094 311.445 159.232 311.883 159.232C312.391 159.232 312.779 159.055 313.049 158.699C313.318 158.34 313.453 157.826 313.453 157.158V153.449H314.537V160H313.453V159.016C313.262 159.395 313 159.682 312.668 159.877C312.34 160.072 311.955 160.17 311.514 160.17C310.842 160.17 310.342 159.951 310.014 159.514C309.686 159.072 309.521 158.406 309.521 157.516ZM321.768 155.934V160H320.684V155.934C320.684 155.344 320.58 154.91 320.373 154.633C320.166 154.355 319.842 154.217 319.4 154.217C318.896 154.217 318.508 154.396 318.234 154.756C317.965 155.111 317.83 155.623 317.83 156.291V160H316.752V153.438H317.83V154.422C318.021 154.047 318.281 153.764 318.609 153.572C318.938 153.377 319.326 153.279 319.775 153.279C320.443 153.279 320.941 153.5 321.27 153.941C321.602 154.379 321.768 155.043 321.768 155.934ZM326.438 151.574V153.438H328.887V154.275H326.438V157.838C326.438 158.322 326.529 158.66 326.713 158.852C326.896 159.043 327.217 159.139 327.674 159.139H328.887V160H327.568C326.76 160 326.189 159.838 325.857 159.514C325.525 159.189 325.359 158.631 325.359 157.838V154.275H323.607V153.438H325.359V151.574H326.438ZM360.135 157.516V153.449H361.213V157.516C361.213 158.105 361.316 158.539 361.523 158.816C361.734 159.094 362.059 159.232 362.496 159.232C363.004 159.232 363.393 159.055 363.662 158.699C363.932 158.34 364.066 157.826 364.066 157.158V153.449H365.15V160H364.066V159.016C363.875 159.395 363.613 159.682 363.281 159.877C362.953 160.072 362.568 160.17 362.127 160.17C361.455 160.17 360.955 159.951 360.627 159.514C360.299 159.072 360.135 158.406 360.135 157.516ZM371.924 153.666V154.721C371.615 154.541 371.305 154.406 370.992 154.316C370.68 154.227 370.361 154.182 370.037 154.182C369.549 154.182 369.184 154.262 368.941 154.422C368.703 154.578 368.584 154.818 368.584 155.143C368.584 155.436 368.674 155.654 368.854 155.799C369.033 155.943 369.48 156.084 370.195 156.221L370.629 156.303C371.164 156.404 371.568 156.607 371.842 156.912C372.119 157.217 372.258 157.613 372.258 158.102C372.258 158.75 372.027 159.258 371.566 159.625C371.105 159.988 370.465 160.17 369.645 160.17C369.32 160.17 368.98 160.135 368.625 160.064C368.27 159.998 367.885 159.896 367.471 159.76V158.646C367.873 158.854 368.258 159.01 368.625 159.115C368.992 159.217 369.34 159.268 369.668 159.268C370.145 159.268 370.514 159.172 370.775 158.98C371.037 158.785 371.168 158.514 371.168 158.166C371.168 157.666 370.689 157.32 369.732 157.129L369.686 157.117L369.281 157.035C368.66 156.914 368.207 156.711 367.922 156.426C367.637 156.137 367.494 155.744 367.494 155.248C367.494 154.619 367.707 154.135 368.133 153.795C368.559 153.451 369.166 153.279 369.955 153.279C370.307 153.279 370.645 153.312 370.969 153.379C371.293 153.441 371.611 153.537 371.924 153.666ZM380.016 156.18V156.707H375.346V156.742C375.314 157.637 375.484 158.279 375.855 158.67C376.23 159.061 376.758 159.256 377.438 159.256C377.781 159.256 378.141 159.201 378.516 159.092C378.891 158.982 379.291 158.816 379.717 158.594V159.666C379.307 159.834 378.91 159.959 378.527 160.041C378.148 160.127 377.781 160.17 377.426 160.17C376.406 160.17 375.609 159.865 375.035 159.256C374.461 158.643 374.174 157.799 374.174 156.725C374.174 155.678 374.455 154.842 375.018 154.217C375.58 153.592 376.33 153.279 377.268 153.279C378.104 153.279 378.762 153.562 379.242 154.129C379.727 154.695 379.984 155.379 380.016 156.18ZM378.938 155.863C378.891 155.41 378.725 155.02 378.439 154.691C378.158 154.359 377.752 154.193 377.221 154.193C376.701 154.193 376.273 154.365 375.938 154.709C375.602 155.053 375.418 155.439 375.387 155.869L378.938 155.863ZM386.613 151.551V152.752C386.254 152.521 385.893 152.348 385.529 152.23C385.17 152.113 384.807 152.055 384.439 152.055C383.881 152.055 383.439 152.186 383.115 152.447C382.791 152.705 382.629 153.055 382.629 153.496C382.629 153.883 382.734 154.178 382.945 154.381C383.16 154.584 383.559 154.754 384.141 154.891L384.762 155.031C385.582 155.223 386.18 155.523 386.555 155.934C386.93 156.344 387.117 156.902 387.117 157.609C387.117 158.441 386.859 159.076 386.344 159.514C385.828 159.951 385.078 160.17 384.094 160.17C383.684 160.17 383.271 160.125 382.857 160.035C382.443 159.949 382.027 159.818 381.609 159.643V158.383C382.059 158.668 382.482 158.877 382.881 159.01C383.283 159.143 383.688 159.209 384.094 159.209C384.691 159.209 385.156 159.076 385.488 158.811C385.82 158.541 385.986 158.166 385.986 157.686C385.986 157.248 385.871 156.914 385.641 156.684C385.414 156.453 385.018 156.275 384.451 156.15L383.818 156.004C383.006 155.82 382.416 155.543 382.049 155.172C381.682 154.801 381.498 154.303 381.498 153.678C381.498 152.896 381.76 152.271 382.283 151.803C382.811 151.33 383.51 151.094 384.381 151.094C384.717 151.094 385.07 151.133 385.441 151.211C385.812 151.285 386.203 151.398 386.613 151.551ZM391.512 151.574V153.438H393.961V154.275H391.512V157.838C391.512 158.322 391.604 158.66 391.787 158.852C391.971 159.043 392.291 159.139 392.748 159.139H393.961V160H392.643C391.834 160 391.264 159.838 390.932 159.514C390.6 159.189 390.434 158.631 390.434 157.838V154.275H388.682V153.438H390.434V151.574H391.512ZM399.258 156.701H398.9C398.271 156.701 397.797 156.812 397.477 157.035C397.16 157.254 397.002 157.582 397.002 158.02C397.002 158.414 397.121 158.721 397.359 158.939C397.598 159.158 397.928 159.268 398.35 159.268C398.943 159.268 399.41 159.062 399.75 158.652C400.09 158.238 400.262 157.668 400.266 156.941V156.701H399.258ZM401.35 156.256V160H400.266V159.027C400.035 159.418 399.744 159.707 399.393 159.895C399.045 160.078 398.621 160.17 398.121 160.17C397.453 160.17 396.92 159.982 396.521 159.607C396.123 159.229 395.924 158.723 395.924 158.09C395.924 157.359 396.168 156.805 396.656 156.426C397.148 156.047 397.869 155.857 398.818 155.857H400.266V155.688C400.262 155.164 400.129 154.785 399.867 154.551C399.605 154.312 399.188 154.193 398.613 154.193C398.246 154.193 397.875 154.246 397.5 154.352C397.125 154.457 396.76 154.611 396.404 154.814V153.736C396.803 153.584 397.184 153.471 397.547 153.396C397.914 153.318 398.27 153.279 398.613 153.279C399.156 153.279 399.619 153.359 400.002 153.52C400.389 153.68 400.701 153.92 400.939 154.24C401.088 154.436 401.193 154.678 401.256 154.967C401.318 155.252 401.35 155.682 401.35 156.256ZM405.973 151.574V153.438H408.422V154.275H405.973V157.838C405.973 158.322 406.064 158.66 406.248 158.852C406.432 159.043 406.752 159.139 407.209 159.139H408.422V160H407.104C406.295 160 405.725 159.838 405.393 159.514C405.061 159.189 404.895 158.631 404.895 157.838V154.275H403.143V153.438H404.895V151.574H405.973ZM416.168 156.18V156.707H411.498V156.742C411.467 157.637 411.637 158.279 412.008 158.67C412.383 159.061 412.91 159.256 413.59 159.256C413.934 159.256 414.293 159.201 414.668 159.092C415.043 158.982 415.443 158.816 415.869 158.594V159.666C415.459 159.834 415.062 159.959 414.68 160.041C414.301 160.127 413.934 160.17 413.578 160.17C412.559 160.17 411.762 159.865 411.188 159.256C410.613 158.643 410.326 157.799 410.326 156.725C410.326 155.678 410.607 154.842 411.17 154.217C411.732 153.592 412.482 153.279 413.42 153.279C414.256 153.279 414.914 153.562 415.395 154.129C415.879 154.695 416.137 155.379 416.168 156.18ZM415.09 155.863C415.043 155.41 414.877 155.02 414.592 154.691C414.311 154.359 413.904 154.193 413.373 154.193C412.854 154.193 412.426 154.365 412.09 154.709C411.754 155.053 411.57 155.439 411.539 155.869L415.09 155.863Z" fill="var(--vscode-editorOverviewRuler-warningForeground)"/>
<path d="M158 156.036V157.028H147.008V156.036H158Z" fill="var(--vscode-foreground)"/>
<g clip-path="url(#clip4)">
<rect width="36" height="24" transform="translate(222 144)" fill="var(--vscode-diffEditor-removedTextBackground)" fill-opacity="0.75"/>
</g>
<g clip-path="url(#clip5)">
<rect width="58" height="24" transform="translate(272 144)" fill="var(--vscode-diffEditor-removedTextBackground)" fill-opacity="0.75"/>
</g>
<g clip-path="url(#clip6)">
<rect width="7" height="24" transform="translate(424 144)" fill="var(--vscode-diffEditor-removedTextBackground)" fill-opacity="0.75"/>
</g>
</g>
</g>
<defs>
<filter id="filter0_d" x="0" y="26" width="240" height="284" filterUnits="userSpaceOnUse" color-interpolation-filters="sRGB">
<feFlood flood-opacity="0" result="BackgroundImageFix"/>
<feColorMatrix in="SourceAlpha" type="matrix" values="0 0 0 0 0 0 0 0 0 0 0 0 0 0 0 0 0 0 127 0"/>
<feOffset dy="2"/>
<feGaussianBlur stdDeviation="4"/>
<feColorMatrix type="matrix" values="0 0 0 0 0 0 0 0 0 0 0 0 0 0 0 0 0 0 0.4 0"/>
<feBlend mode="normal" in2="BackgroundImageFix" result="effect1_dropShadow"/>
<feBlend mode="normal" in="SourceGraphic" in2="effect1_dropShadow" result="shape"/>
</filter>
<filter id="filter1_d" x="119" y="0" width="403" height="342" filterUnits="userSpaceOnUse" color-interpolation-filters="sRGB">
<feFlood flood-opacity="0" result="BackgroundImageFix"/>
<feColorMatrix in="SourceAlpha" type="matrix" values="0 0 0 0 0 0 0 0 0 0 0 0 0 0 0 0 0 0 127 0"/>
<feOffset dy="2"/>
<feGaussianBlur stdDeviation="6"/>
<feColorMatrix type="matrix" values="0 0 0 0 0 0 0 0 0 0 0 0 0 0 0 0 0 0 0.6 0"/>
<feBlend mode="normal" in2="BackgroundImageFix" result="effect1_dropShadow"/>
<feBlend mode="normal" in="SourceGraphic" in2="effect1_dropShadow" result="shape"/>
</filter>
<clipPath id="clip0">
<rect width="379" height="24" fill="white" transform="translate(131 168)"/>
</clipPath>
<clipPath id="clip1">
<rect width="65" height="24" fill="white" transform="translate(222 168)"/>
</clipPath>
<clipPath id="clip2">
<rect width="87" height="24" fill="white" transform="translate(301 168)"/>
</clipPath>
<clipPath id="clip3">
<rect width="379" height="24" fill="white" transform="translate(131 144)"/>
</clipPath>
<clipPath id="clip4">
<rect width="36" height="24" fill="white" transform="translate(222 144)"/>
</clipPath>
<clipPath id="clip5">
<rect width="58" height="24" fill="white" transform="translate(272 144)"/>
</clipPath>
<clipPath id="clip6">
<rect width="7" height="24" fill="white" transform="translate(424 144)"/>
</clipPath>
</defs>
</svg>
