<svg viewBox="0 0 566 263" fill="none" xmlns="http://www.w3.org/2000/svg">
<rect width="502" height="39" transform="translate(32)" fill="var(--vscode-editorGroupHeader-tabsBackground, #252526)"/>
<g clip-path="url(#clip0)">
<rect width="115.654" height="39.2998" transform="translate(32)" fill="var(--vscode-tab-activeBackground, #1e1e1e)"/>
<rect x="45.4742" y="15.72" width="88.7052" height="7.85995" rx="3.92998" fill="var(--vscode-tab-unfocusedInactiveForeground, #454545)"/>
</g>
<g filter="url(#filter0_d)">
<rect width="542" height="210" transform="translate(12 39)" fill="var(--vscode-quickInput-background)"/>
<path d="M34.7686 69V59.1357H33.2373V69H34.7686ZM37.0723 69H38.542V64.6455C38.542 63.4492 39.2324 62.7109 40.3193 62.7109C41.4062 62.7109 41.9258 63.3125 41.9258 64.543V69H43.3955V64.1943C43.3955 62.4238 42.4795 61.4326 40.8184 61.4326C39.6973 61.4326 38.959 61.9316 38.5967 62.752H38.4873V61.5762H37.0723V69ZM45.9863 59.7031V61.5967H44.8037V62.7725H45.9863V67.0449C45.9863 68.4736 46.6357 69.0479 48.2695 69.0479C48.5566 69.0479 48.8301 69.0137 49.0693 68.9727V67.8037C48.8643 67.8242 48.7344 67.8379 48.5088 67.8379C47.7773 67.8379 47.4561 67.4893 47.4561 66.6895V62.7725H49.0693V61.5967H47.4561V59.7031H45.9863ZM55.5977 67.0107C55.3242 67.6123 54.7158 67.9404 53.8271 67.9404C52.6514 67.9404 51.8926 67.0928 51.8447 65.7461V65.6777H57.1016V65.1719C57.1016 62.8477 55.8506 61.4326 53.7793 61.4326C51.6807 61.4326 50.3477 62.9434 50.3477 65.3018C50.3477 67.6738 51.6533 69.1436 53.7861 69.1436C55.4883 69.1436 56.6914 68.3232 57.0127 67.0107H55.5977ZM53.7725 62.6289C54.8594 62.6289 55.5703 63.415 55.6045 64.6182H51.8447C51.9268 63.4219 52.6855 62.6289 53.7725 62.6289ZM58.8652 69H60.335V64.5635C60.335 63.5176 61.1211 62.7998 62.2354 62.7998C62.4951 62.7998 62.9326 62.8477 63.0557 62.8818V61.501C62.8984 61.4668 62.6182 61.4463 62.3994 61.4463C61.4287 61.4463 60.6016 61.9727 60.3896 62.7041H60.2803V61.5762H58.8652V69ZM66.4736 69.123C67.4512 69.123 68.2646 68.6992 68.709 67.9473H68.8252V69H70.2402V63.9209C70.2402 62.3623 69.1875 61.4326 67.3213 61.4326C65.6328 61.4326 64.4297 62.2461 64.2793 63.4971H65.7012C65.8652 62.957 66.4326 62.6494 67.2529 62.6494C68.2578 62.6494 68.7773 63.1074 68.7773 63.9209V64.5703L66.7607 64.6934C64.9902 64.8027 63.9922 65.5752 63.9922 66.9082C63.9922 68.2617 65.0381 69.123 66.4736 69.123ZM66.8496 67.9404C66.0498 67.9404 65.4688 67.5371 65.4688 66.8467C65.4688 66.1699 65.9336 65.8076 66.959 65.7393L68.7773 65.6162V66.2588C68.7773 67.2158 67.957 67.9404 66.8496 67.9404ZM78.6348 63.9619C78.4434 62.5195 77.3154 61.4326 75.4492 61.4326C73.2822 61.4326 71.9629 62.9023 71.9629 65.2607C71.9629 67.667 73.2891 69.1436 75.4561 69.1436C77.2949 69.1436 78.4434 68.1113 78.6348 66.6484H77.2061C77.0146 67.4551 76.3789 67.8926 75.4492 67.8926C74.2256 67.8926 73.4668 66.9014 73.4668 65.2607C73.4668 63.6543 74.2188 62.6836 75.4492 62.6836C76.4336 62.6836 77.0352 63.2373 77.2061 63.9619H78.6348ZM80.9453 59.7031V61.5967H79.7627V62.7725H80.9453V67.0449C80.9453 68.4736 81.5947 69.0479 83.2285 69.0479C83.5156 69.0479 83.7891 69.0137 84.0283 68.9727V67.8037C83.8232 67.8242 83.6934 67.8379 83.4678 67.8379C82.7363 67.8379 82.415 67.4893 82.415 66.6895V62.7725H84.0283V61.5967H82.415V59.7031H80.9453ZM86.5166 60.25C87.0293 60.25 87.4463 59.833 87.4463 59.3271C87.4463 58.8145 87.0293 58.3975 86.5166 58.3975C86.0039 58.3975 85.5869 58.8145 85.5869 59.3271C85.5869 59.833 86.0039 60.25 86.5166 60.25ZM85.7852 69H87.248V61.5762H85.7852V69ZM95.7109 61.5762H94.1523L92.3066 67.4961H92.1904L90.3379 61.5762H88.7656L91.4521 69H93.0312L95.7109 61.5762ZM101.795 67.0107C101.521 67.6123 100.913 67.9404 100.024 67.9404C98.8486 67.9404 98.0898 67.0928 98.042 65.7461V65.6777H103.299V65.1719C103.299 62.8477 102.048 61.4326 99.9766 61.4326C97.8779 61.4326 96.5449 62.9434 96.5449 65.3018C96.5449 67.6738 97.8506 69.1436 99.9834 69.1436C101.686 69.1436 102.889 68.3232 103.21 67.0107H101.795ZM99.9697 62.6289C101.057 62.6289 101.768 63.415 101.802 64.6182H98.042C98.124 63.4219 98.8828 62.6289 99.9697 62.6289ZM109.062 59.1357V69H110.593V65.6299H112.876C114.811 65.6299 116.178 64.3037 116.178 62.4033C116.178 60.4619 114.852 59.1357 112.924 59.1357H109.062ZM110.593 60.4277H112.521C113.867 60.4277 114.612 61.125 114.612 62.4033C114.612 63.6406 113.84 64.3447 112.521 64.3447H110.593V60.4277ZM118.051 69H119.521V58.6641H118.051V69ZM123.786 69.123C124.764 69.123 125.577 68.6992 126.021 67.9473H126.138V69H127.553V63.9209C127.553 62.3623 126.5 61.4326 124.634 61.4326C122.945 61.4326 121.742 62.2461 121.592 63.4971H123.014C123.178 62.957 123.745 62.6494 124.565 62.6494C125.57 62.6494 126.09 63.1074 126.09 63.9209V64.5703L124.073 64.6934C122.303 64.8027 121.305 65.5752 121.305 66.9082C121.305 68.2617 122.351 69.123 123.786 69.123ZM124.162 67.9404C123.362 67.9404 122.781 67.5371 122.781 66.8467C122.781 66.1699 123.246 65.8076 124.271 65.7393L126.09 65.6162V66.2588C126.09 67.2158 125.27 67.9404 124.162 67.9404ZM130.137 71.6934C131.654 71.6934 132.358 71.126 132.994 69.3418L135.77 61.5762H134.211L132.352 67.5234H132.235L130.369 61.5762H128.77L131.463 69.0205L131.354 69.4033C131.101 70.1895 130.704 70.4834 130.007 70.4834C129.87 70.4834 129.645 70.4766 129.528 70.4561V71.6592C129.665 71.6797 130.014 71.6934 130.137 71.6934ZM140.124 71.8369C142.229 71.8369 143.562 70.7637 143.562 69.0752V61.5762H142.154V62.7588H142.038C141.621 61.9521 140.726 61.4463 139.7 61.4463C137.8 61.4463 136.61 62.9434 136.61 65.1924C136.61 67.4209 137.786 68.8906 139.687 68.8906C140.712 68.8906 141.532 68.4463 141.983 67.6396H142.093V69.0684C142.093 70.0732 141.368 70.6748 140.145 70.6748C139.153 70.6748 138.531 70.3193 138.408 69.7588H136.904C137.062 71.0098 138.265 71.8369 140.124 71.8369ZM140.104 67.6738C138.839 67.6738 138.128 66.71 138.128 65.1924C138.128 63.6748 138.839 62.7041 140.104 62.7041C141.354 62.7041 142.12 63.6748 142.12 65.1924C142.12 66.71 141.361 67.6738 140.104 67.6738ZM145.695 69H147.165V64.5635C147.165 63.5176 147.951 62.7998 149.065 62.7998C149.325 62.7998 149.763 62.8477 149.886 62.8818V61.501C149.729 61.4668 149.448 61.4463 149.229 61.4463C148.259 61.4463 147.432 61.9727 147.22 62.7041H147.11V61.5762H145.695V69ZM154.254 69.1436C156.428 69.1436 157.761 67.6875 157.761 65.2881C157.761 62.8887 156.421 61.4326 154.254 61.4326C152.08 61.4326 150.74 62.8955 150.74 65.2881C150.74 67.6875 152.073 69.1436 154.254 69.1436ZM154.254 67.8926C152.976 67.8926 152.258 66.9424 152.258 65.2881C152.258 63.6338 152.976 62.6768 154.254 62.6768C155.525 62.6768 156.25 63.6338 156.25 65.2881C156.25 66.9355 155.525 67.8926 154.254 67.8926ZM165.807 61.5762H164.337V65.9307C164.337 67.127 163.688 67.8516 162.498 67.8516C161.418 67.8516 160.933 67.2637 160.933 66.0332V61.5762H159.463V66.3955C159.463 68.1387 160.379 69.1436 162.026 69.1436C163.154 69.1436 163.913 68.665 164.275 67.8242H164.392V69H165.807V61.5762ZM167.939 69H169.409V64.6455C169.409 63.4492 170.1 62.7109 171.187 62.7109C172.273 62.7109 172.793 63.3125 172.793 64.543V69H174.263V64.1943C174.263 62.4238 173.347 61.4326 171.686 61.4326C170.564 61.4326 169.826 61.9316 169.464 62.752H169.354V61.5762H167.939V69ZM179.055 69.123C180.08 69.123 180.948 68.6377 181.393 67.8242H181.509V69H182.917V58.6641H181.447V62.752H181.338C180.935 61.9385 180.073 61.4463 179.055 61.4463C177.175 61.4463 175.965 62.9434 175.965 65.2812C175.965 67.6328 177.161 69.123 179.055 69.123ZM179.472 62.7041C180.702 62.7041 181.475 63.7021 181.475 65.2881C181.475 66.8877 180.709 67.8652 179.472 67.8652C178.228 67.8652 177.482 66.9014 177.482 65.2881C177.482 63.6816 178.234 62.7041 179.472 62.7041Z" fill="var(--vscode-foreground)"/>
<rect x="32" y="109" width="204" height="8" rx="4" fill="var(--vscode-tab-unfocusedInactiveForeground)"/>
<rect x="242" y="109" width="47" height="8" rx="4" fill="var(--vscode-pickerGroup-foreground)"/>
<rect x="32" y="89" width="94" height="8" rx="4" fill="var(--vscode-tab-unfocusedInactiveForeground)"/>
<rect x="32" y="127" width="101" height="8" rx="4" fill="var(--vscode-tab-unfocusedInactiveForeground)"/>
<rect x="139" y="127" width="236" height="8" rx="4" fill="var(--vscode-tab-unfocusedInactiveForeground)"/>
<rect x="381" y="127" width="79" height="8" rx="4" fill="var(--vscode-pickerGroup-foreground)"/>
<rect x="32" y="151" width="506" height="82" rx="4" fill="var(--vscode-editor-background)"/>
<path d="M52.0078 169.416L51.4805 171.49H52.916L53.4492 169.416H54.3867L53.8535 171.49H55.2832V172.387H53.6367L53.0625 174.689H54.5273V175.586H52.834L52.2246 178H51.2871L51.9023 175.586H50.4609L49.8457 178H48.9141L49.5234 175.586H48.0117V174.689H49.752L50.3262 172.387H48.7676V171.49H50.543L51.0703 169.416H52.0078ZM52.6992 172.387H51.2637L50.6895 174.689H52.1309L52.6992 172.387ZM57.4277 177.174V180.496H56.3438V171.438H57.4277V172.275C57.6074 171.951 57.8457 171.705 58.1426 171.537C58.4434 171.365 58.7891 171.279 59.1797 171.279C59.9727 171.279 60.5938 171.586 61.043 172.199C61.4961 172.812 61.7227 173.662 61.7227 174.748C61.7227 175.814 61.4961 176.652 61.043 177.262C60.5898 177.867 59.9688 178.17 59.1797 178.17C58.7812 178.17 58.4316 178.086 58.1309 177.918C57.834 177.746 57.5996 177.498 57.4277 177.174ZM60.5918 174.725C60.5918 173.889 60.459 173.258 60.1934 172.832C59.9316 172.406 59.541 172.193 59.0215 172.193C58.498 172.193 58.1016 172.408 57.832 172.838C57.5625 173.264 57.4277 173.893 57.4277 174.725C57.4277 175.553 57.5625 176.182 57.832 176.611C58.1016 177.041 58.498 177.256 59.0215 177.256C59.541 177.256 59.9316 177.043 60.1934 176.617C60.459 176.191 60.5918 175.561 60.5918 174.725ZM64.043 177.01H65.8828V170.4L63.6797 171.461V170.324L65.8711 169.281H67.0547V177.01H68.8711V178H64.043V177.01Z" fill="#DFD155"/>
<path d="M82.9688 178.299V179.143H82.5938C81.6211 179.143 80.9688 178.998 80.6367 178.709C80.3086 178.42 80.1445 177.844 80.1445 176.98V175.809C80.1445 175.383 80.0234 175.016 79.7812 174.707C79.543 174.398 79.1719 174.244 78.668 174.244H77.9531V173.406H78.668C79.2188 173.406 79.6016 173.275 79.8164 173.014C80.0352 172.752 80.1445 172.367 80.1445 171.859V170.336C80.1445 169.473 80.3086 168.898 80.6367 168.613C80.9688 168.324 81.6211 168.18 82.5938 168.18H82.9688V169.018H82.5586C82.0117 169.018 81.6543 169.104 81.4863 169.275C81.3223 169.443 81.2402 169.805 81.2402 170.359V171.93C81.2402 172.617 81.1055 173.08 80.8359 173.318C80.5664 173.553 80.041 173.723 79.2598 173.828C80.0176 173.918 80.5371 174.092 80.8184 174.35C81.0996 174.604 81.2402 175.064 81.2402 175.732V176.957C81.2402 177.516 81.3223 177.879 81.4863 178.047C81.6543 178.215 82.0117 178.299 82.5586 178.299H82.9688ZM267.504 175.885H269.332V177.438L268.178 179.676H266.924L267.504 177.438V175.885ZM267.428 171.443H269.256V173.559H267.428V171.443ZM273.838 178.299C274.385 178.299 274.74 178.215 274.904 178.047C275.072 177.879 275.156 177.516 275.156 176.957V175.732C275.156 175.064 275.297 174.604 275.578 174.35C275.859 174.092 276.379 173.918 277.137 173.828C276.355 173.723 275.83 173.553 275.561 173.318C275.291 173.08 275.156 172.617 275.156 171.93V170.359C275.156 169.805 275.072 169.443 274.904 169.275C274.74 169.104 274.385 169.018 273.838 169.018H273.428V168.18H273.803C274.775 168.18 275.426 168.324 275.754 168.613C276.086 168.898 276.252 169.473 276.252 170.336V171.859C276.252 172.367 276.359 172.752 276.574 173.014C276.793 173.275 277.178 173.406 277.729 173.406H278.443V174.244H277.729C277.225 174.244 276.852 174.398 276.609 174.707C276.371 175.016 276.252 175.383 276.252 175.809V176.98C276.252 177.844 276.086 178.42 275.754 178.709C275.426 178.998 274.775 179.143 273.803 179.143H273.428V178.299H273.838ZM82.9688 196.299V197.143H82.5938C81.6211 197.143 80.9688 196.998 80.6367 196.709C80.3086 196.42 80.1445 195.844 80.1445 194.98V193.809C80.1445 193.383 80.0234 193.016 79.7812 192.707C79.543 192.398 79.1719 192.244 78.668 192.244H77.9531V191.406H78.668C79.2188 191.406 79.6016 191.275 79.8164 191.014C80.0352 190.752 80.1445 190.367 80.1445 189.859V188.336C80.1445 187.473 80.3086 186.898 80.6367 186.613C80.9688 186.324 81.6211 186.18 82.5938 186.18H82.9688V187.018H82.5586C82.0117 187.018 81.6543 187.104 81.4863 187.275C81.3223 187.443 81.2402 187.805 81.2402 188.359V189.93C81.2402 190.617 81.1055 191.08 80.8359 191.318C80.5664 191.553 80.041 191.723 79.2598 191.828C80.0176 191.918 80.5371 192.092 80.8184 192.35C81.0996 192.604 81.2402 193.064 81.2402 193.732V194.957C81.2402 195.516 81.3223 195.879 81.4863 196.047C81.6543 196.215 82.0117 196.299 82.5586 196.299H82.9688ZM241.002 186.309C240.482 187.199 240.094 188.088 239.836 188.975C239.582 189.857 239.455 190.748 239.455 191.646C239.455 192.541 239.582 193.432 239.836 194.318C240.094 195.205 240.482 196.098 241.002 196.996H240.064C239.475 196.066 239.035 195.162 238.746 194.283C238.457 193.4 238.312 192.521 238.312 191.646C238.312 190.775 238.457 189.898 238.746 189.016C239.035 188.133 239.475 187.23 240.064 186.309H241.002ZM267.504 193.885H269.332V195.438L268.031 197.963L266.859 197.969L267.504 195.438V193.885ZM310.887 193.885H312.715V195.438L311.414 197.963L310.242 197.969L310.887 195.438V193.885ZM346.488 186.309H347.426C348.016 187.23 348.455 188.133 348.744 189.016C349.033 189.898 349.178 190.775 349.178 191.646C349.178 192.525 349.033 193.406 348.744 194.289C348.455 195.172 348.016 196.074 347.426 196.996H346.488C347.008 196.09 347.395 195.193 347.648 194.307C347.906 193.42 348.035 192.533 348.035 191.646C348.035 190.756 347.906 189.867 347.648 188.98C347.395 188.094 347.008 187.203 346.488 186.309ZM354.27 193.885H356.098V195.438L354.943 197.676H353.689L354.27 195.438V193.885ZM354.193 189.443H356.021V191.559H354.193V189.443ZM360.604 196.299C361.15 196.299 361.506 196.215 361.67 196.047C361.838 195.879 361.922 195.516 361.922 194.957V193.732C361.922 193.064 362.062 192.604 362.344 192.35C362.625 192.092 363.145 191.918 363.902 191.828C363.121 191.723 362.596 191.553 362.326 191.318C362.057 191.08 361.922 190.617 361.922 189.93V188.359C361.922 187.805 361.838 187.443 361.67 187.275C361.506 187.104 361.15 187.018 360.604 187.018H360.193V186.18H360.568C361.541 186.18 362.191 186.324 362.52 186.613C362.852 186.898 363.018 187.473 363.018 188.336V189.859C363.018 190.367 363.125 190.752 363.34 191.014C363.559 191.275 363.943 191.406 364.494 191.406H365.209V192.244H364.494C363.99 192.244 363.617 192.398 363.375 192.707C363.137 193.016 363.018 193.383 363.018 193.809V194.98C363.018 195.844 362.852 196.42 362.52 196.709C362.191 196.998 361.541 197.143 360.568 197.143H360.193V196.299H360.604ZM82.9688 214.299V215.143H82.5938C81.6211 215.143 80.9688 214.998 80.6367 214.709C80.3086 214.42 80.1445 213.844 80.1445 212.98V211.809C80.1445 211.383 80.0234 211.016 79.7812 210.707C79.543 210.398 79.1719 210.244 78.668 210.244H77.9531V209.406H78.668C79.2188 209.406 79.6016 209.275 79.8164 209.014C80.0352 208.752 80.1445 208.367 80.1445 207.859V206.336C80.1445 205.473 80.3086 204.898 80.6367 204.613C80.9688 204.324 81.6211 204.18 82.5938 204.18H82.9688V205.018H82.5586C82.0117 205.018 81.6543 205.104 81.4863 205.275C81.3223 205.443 81.2402 205.805 81.2402 206.359V207.93C81.2402 208.617 81.1055 209.08 80.8359 209.318C80.5664 209.553 80.041 209.723 79.2598 209.828C80.0176 209.918 80.5371 210.092 80.8184 210.35C81.0996 210.604 81.2402 211.064 81.2402 211.732V212.957C81.2402 213.516 81.3223 213.879 81.4863 214.047C81.6543 214.215 82.0117 214.299 82.5586 214.299H82.9688ZM89.5312 210.725C89.5312 209.889 89.3984 209.258 89.1328 208.832C88.8672 208.406 88.4746 208.193 87.9551 208.193C87.4316 208.193 87.0352 208.408 86.7656 208.838C86.4961 209.264 86.3613 209.893 86.3613 210.725C86.3613 211.553 86.4961 212.182 86.7656 212.611C87.0352 213.041 87.4316 213.256 87.9551 213.256C88.4746 213.256 88.8672 213.043 89.1328 212.617C89.3984 212.191 89.5312 211.561 89.5312 210.725ZM86.3613 208.275C86.5332 207.955 86.7695 207.709 87.0703 207.537C87.375 207.365 87.7266 207.279 88.125 207.279C88.9141 207.279 89.5352 207.584 89.9883 208.193C90.4414 208.799 90.668 209.635 90.668 210.701C90.668 211.783 90.4395 212.633 89.9824 213.25C89.5293 213.863 88.9062 214.17 88.1133 214.17C87.7227 214.17 87.377 214.086 87.0762 213.918C86.7793 213.746 86.541 213.498 86.3613 213.174V214H85.2832V204.883H86.3613V208.275ZM248.232 204.309C247.713 205.199 247.324 206.088 247.066 206.975C246.812 207.857 246.686 208.748 246.686 209.646C246.686 210.541 246.812 211.432 247.066 212.318C247.324 213.205 247.713 214.098 248.232 214.996H247.295C246.705 214.066 246.266 213.162 245.977 212.283C245.688 211.4 245.543 210.521 245.543 209.646C245.543 208.775 245.688 207.898 245.977 207.016C246.266 206.133 246.705 205.23 247.295 204.309H248.232ZM260.273 211.885H262.102V213.438L260.801 215.963L259.629 215.969L260.273 213.438V211.885ZM281.965 211.885H283.793V213.438L282.492 215.963L281.32 215.969L281.965 213.438V211.885ZM318.117 211.885H319.945V213.438L318.645 215.963L317.473 215.969L318.117 213.438V211.885ZM368.18 204.309H369.117C369.707 205.23 370.146 206.133 370.436 207.016C370.725 207.898 370.869 208.775 370.869 209.646C370.869 210.525 370.725 211.406 370.436 212.289C370.146 213.172 369.707 214.074 369.117 214.996H368.18C368.699 214.09 369.086 213.193 369.34 212.307C369.598 211.42 369.727 210.533 369.727 209.646C369.727 208.756 369.598 207.867 369.34 206.98C369.086 206.094 368.699 205.203 368.18 204.309ZM375.961 211.885H377.789V213.438L376.635 215.676H375.381L375.961 213.438V211.885ZM375.885 207.443H377.713V209.559H375.885V207.443ZM382.295 214.299C382.842 214.299 383.197 214.215 383.361 214.047C383.529 213.879 383.613 213.516 383.613 212.957V211.732C383.613 211.064 383.754 210.604 384.035 210.35C384.316 210.092 384.836 209.918 385.594 209.828C384.812 209.723 384.287 209.553 384.018 209.318C383.748 209.08 383.613 208.617 383.613 207.93V206.359C383.613 205.805 383.529 205.443 383.361 205.275C383.197 205.104 382.842 205.018 382.295 205.018H381.885V204.18H382.26C383.232 204.18 383.883 204.324 384.211 204.613C384.543 204.898 384.709 205.473 384.709 206.336V207.859C384.709 208.367 384.816 208.752 385.031 209.014C385.25 209.275 385.635 209.406 386.186 209.406H386.9V210.244H386.186C385.682 210.244 385.309 210.398 385.066 210.707C384.828 211.016 384.709 211.383 384.709 211.809V212.98C384.709 213.844 384.543 214.42 384.211 214.709C383.883 214.998 383.232 215.143 382.26 215.143H381.885V214.299H382.295Z" fill="var(--vscode-foreground)"/>
<path d="M89.5312 174.725C89.5312 173.889 89.3984 173.258 89.1328 172.832C88.8672 172.406 88.4746 172.193 87.9551 172.193C87.4316 172.193 87.0352 172.408 86.7656 172.838C86.4961 173.264 86.3613 173.893 86.3613 174.725C86.3613 175.553 86.4961 176.182 86.7656 176.611C87.0352 177.041 87.4316 177.256 87.9551 177.256C88.4746 177.256 88.8672 177.043 89.1328 176.617C89.3984 176.191 89.5312 175.561 89.5312 174.725ZM86.3613 172.275C86.5332 171.955 86.7695 171.709 87.0703 171.537C87.375 171.365 87.7266 171.279 88.125 171.279C88.9141 171.279 89.5352 171.584 89.9883 172.193C90.4414 172.799 90.668 173.635 90.668 174.701C90.668 175.783 90.4395 176.633 89.9824 177.25C89.5293 177.863 88.9062 178.17 88.1133 178.17C87.7227 178.17 87.377 178.086 87.0762 177.918C86.7793 177.746 86.541 177.498 86.3613 177.174V178H85.2832V168.883H86.3613V172.275ZM95.4961 174.701H95.1387C94.5098 174.701 94.0352 174.812 93.7148 175.035C93.3984 175.254 93.2402 175.582 93.2402 176.02C93.2402 176.414 93.3594 176.721 93.5977 176.939C93.8359 177.158 94.166 177.268 94.5879 177.268C95.1816 177.268 95.6484 177.062 95.9883 176.652C96.3281 176.238 96.5 175.668 96.5039 174.941V174.701H95.4961ZM97.5879 174.256V178H96.5039V177.027C96.2734 177.418 95.9824 177.707 95.6309 177.895C95.2832 178.078 94.8594 178.17 94.3594 178.17C93.6914 178.17 93.1582 177.982 92.7598 177.607C92.3613 177.229 92.1621 176.723 92.1621 176.09C92.1621 175.359 92.4062 174.805 92.8945 174.426C93.3867 174.047 94.1074 173.857 95.0566 173.857H96.5039V173.688C96.5 173.164 96.3672 172.785 96.1055 172.551C95.8438 172.312 95.4258 172.193 94.8516 172.193C94.4844 172.193 94.1133 172.246 93.7383 172.352C93.3633 172.457 92.998 172.611 92.6426 172.814V171.736C93.041 171.584 93.4219 171.471 93.7852 171.396C94.1523 171.318 94.5078 171.279 94.8516 171.279C95.3945 171.279 95.8574 171.359 96.2402 171.52C96.627 171.68 96.9395 171.92 97.1777 172.24C97.3262 172.436 97.4316 172.678 97.4941 172.967C97.5566 173.252 97.5879 173.682 97.5879 174.256ZM104.83 177.666C104.541 177.834 104.242 177.959 103.934 178.041C103.629 178.127 103.316 178.17 102.996 178.17C101.98 178.17 101.186 177.865 100.611 177.256C100.041 176.646 99.7559 175.803 99.7559 174.725C99.7559 173.646 100.041 172.803 100.611 172.193C101.186 171.584 101.98 171.279 102.996 171.279C103.312 171.279 103.621 171.32 103.922 171.402C104.223 171.484 104.525 171.611 104.83 171.783V172.914C104.545 172.66 104.258 172.477 103.969 172.363C103.684 172.25 103.359 172.193 102.996 172.193C102.32 172.193 101.801 172.412 101.438 172.85C101.074 173.287 100.893 173.912 100.893 174.725C100.893 175.533 101.074 176.158 101.438 176.6C101.805 177.037 102.324 177.256 102.996 177.256C103.371 177.256 103.707 177.199 104.004 177.086C104.301 176.969 104.576 176.789 104.83 176.547V177.666ZM107.227 168.883H108.34V174.162L111.17 171.438H112.482L109.898 173.91L112.887 178H111.568L109.143 174.613L108.34 175.369V178H107.227V168.883ZM118.102 174.666C118.102 173.857 117.969 173.244 117.703 172.826C117.441 172.404 117.059 172.193 116.555 172.193C116.027 172.193 115.625 172.404 115.348 172.826C115.07 173.244 114.932 173.857 114.932 174.666C114.932 175.475 115.07 176.092 115.348 176.518C115.629 176.939 116.035 177.15 116.566 177.15C117.062 177.15 117.441 176.938 117.703 176.512C117.969 176.086 118.102 175.471 118.102 174.666ZM119.18 177.578C119.18 178.562 118.947 179.309 118.482 179.816C118.018 180.324 117.334 180.578 116.432 180.578C116.135 180.578 115.824 180.551 115.5 180.496C115.176 180.441 114.852 180.361 114.527 180.256V179.189C114.91 179.369 115.258 179.502 115.57 179.588C115.883 179.674 116.17 179.717 116.432 179.717C117.014 179.717 117.438 179.559 117.703 179.242C117.969 178.926 118.102 178.424 118.102 177.736V177.689V176.957C117.93 177.324 117.695 177.598 117.398 177.777C117.102 177.957 116.74 178.047 116.314 178.047C115.549 178.047 114.938 177.74 114.48 177.127C114.023 176.514 113.795 175.693 113.795 174.666C113.795 173.635 114.023 172.812 114.48 172.199C114.938 171.586 115.549 171.279 116.314 171.279C116.736 171.279 117.094 171.363 117.387 171.531C117.68 171.699 117.918 171.959 118.102 172.311V171.461H119.18V177.578ZM127.072 172.791C126.842 172.611 126.607 172.48 126.369 172.398C126.131 172.316 125.869 172.275 125.584 172.275C124.912 172.275 124.398 172.486 124.043 172.908C123.688 173.33 123.51 173.939 123.51 174.736V178H122.426V171.438H123.51V172.721C123.689 172.256 123.965 171.9 124.336 171.654C124.711 171.404 125.154 171.279 125.666 171.279C125.932 171.279 126.18 171.312 126.41 171.379C126.641 171.445 126.861 171.549 127.072 171.689V172.791ZM131.145 172.193C130.598 172.193 130.184 172.406 129.902 172.832C129.621 173.258 129.48 173.889 129.48 174.725C129.48 175.557 129.621 176.188 129.902 176.617C130.184 177.043 130.598 177.256 131.145 177.256C131.695 177.256 132.111 177.043 132.393 176.617C132.674 176.188 132.814 175.557 132.814 174.725C132.814 173.889 132.674 173.258 132.393 172.832C132.111 172.406 131.695 172.193 131.145 172.193ZM131.145 171.279C132.055 171.279 132.75 171.574 133.23 172.164C133.715 172.754 133.957 173.607 133.957 174.725C133.957 175.846 133.717 176.701 133.236 177.291C132.756 177.877 132.059 178.17 131.145 178.17C130.234 178.17 129.539 177.877 129.059 177.291C128.578 176.701 128.338 175.846 128.338 174.725C128.338 173.607 128.578 172.754 129.059 172.164C129.539 171.574 130.234 171.279 131.145 171.279ZM135.908 175.516V171.449H136.986V175.516C136.986 176.105 137.09 176.539 137.297 176.816C137.508 177.094 137.832 177.232 138.27 177.232C138.777 177.232 139.166 177.055 139.436 176.699C139.705 176.34 139.84 175.826 139.84 175.158V171.449H140.924V178H139.84V177.016C139.648 177.395 139.387 177.682 139.055 177.877C138.727 178.072 138.342 178.17 137.9 178.17C137.229 178.17 136.729 177.951 136.4 177.514C136.072 177.072 135.908 176.406 135.908 175.516ZM148.154 173.934V178H147.07V173.934C147.07 173.344 146.967 172.91 146.76 172.633C146.553 172.355 146.229 172.217 145.787 172.217C145.283 172.217 144.895 172.396 144.621 172.756C144.352 173.111 144.217 173.623 144.217 174.291V178H143.139V171.438H144.217V172.422C144.408 172.047 144.668 171.764 144.996 171.572C145.324 171.377 145.713 171.279 146.162 171.279C146.83 171.279 147.328 171.5 147.656 171.941C147.988 172.379 148.154 173.043 148.154 173.934ZM154.254 172.275V168.883H155.332V178H154.254V177.174C154.074 177.498 153.834 177.746 153.533 177.918C153.236 178.086 152.893 178.17 152.502 178.17C151.709 178.17 151.084 177.863 150.627 177.25C150.174 176.633 149.947 175.783 149.947 174.701C149.947 173.635 150.176 172.799 150.633 172.193C151.09 171.584 151.713 171.279 152.502 171.279C152.896 171.279 153.244 171.365 153.545 171.537C153.846 171.705 154.082 171.951 154.254 172.275ZM151.084 174.725C151.084 175.561 151.217 176.191 151.482 176.617C151.748 177.043 152.141 177.256 152.66 177.256C153.18 177.256 153.574 177.041 153.844 176.611C154.117 176.182 154.254 175.553 154.254 174.725C154.254 173.893 154.117 173.264 153.844 172.838C153.574 172.408 153.18 172.193 152.66 172.193C152.141 172.193 151.748 172.406 151.482 172.832C151.217 173.258 151.084 173.889 151.084 174.725ZM157.055 173.758H163.266V174.748H157.055V173.758ZM169.904 177.666C169.615 177.834 169.316 177.959 169.008 178.041C168.703 178.127 168.391 178.17 168.07 178.17C167.055 178.17 166.26 177.865 165.686 177.256C165.115 176.646 164.83 175.803 164.83 174.725C164.83 173.646 165.115 172.803 165.686 172.193C166.26 171.584 167.055 171.279 168.07 171.279C168.387 171.279 168.695 171.32 168.996 171.402C169.297 171.484 169.6 171.611 169.904 171.783V172.914C169.619 172.66 169.332 172.477 169.043 172.363C168.758 172.25 168.434 172.193 168.07 172.193C167.395 172.193 166.875 172.412 166.512 172.85C166.148 173.287 165.967 173.912 165.967 174.725C165.967 175.533 166.148 176.158 166.512 176.6C166.879 177.037 167.398 177.256 168.07 177.256C168.445 177.256 168.781 177.199 169.078 177.086C169.375 176.969 169.65 176.789 169.904 176.547V177.666ZM174.527 172.193C173.98 172.193 173.566 172.406 173.285 172.832C173.004 173.258 172.863 173.889 172.863 174.725C172.863 175.557 173.004 176.188 173.285 176.617C173.566 177.043 173.98 177.256 174.527 177.256C175.078 177.256 175.494 177.043 175.775 176.617C176.057 176.188 176.197 175.557 176.197 174.725C176.197 173.889 176.057 173.258 175.775 172.832C175.494 172.406 175.078 172.193 174.527 172.193ZM174.527 171.279C175.438 171.279 176.133 171.574 176.613 172.164C177.098 172.754 177.34 173.607 177.34 174.725C177.34 175.846 177.1 176.701 176.619 177.291C176.139 177.877 175.441 178.17 174.527 178.17C173.617 178.17 172.922 177.877 172.441 177.291C171.961 176.701 171.721 175.846 171.721 174.725C171.721 173.607 171.961 172.754 172.441 172.164C172.922 171.574 173.617 171.279 174.527 171.279ZM182.361 175.627C182.361 176.111 182.449 176.477 182.625 176.723C182.805 176.969 183.068 177.092 183.416 177.092H184.676V178H183.311C182.666 178 182.166 177.795 181.811 177.385C181.459 176.971 181.283 176.385 181.283 175.627V169.691H179.555V168.848H182.361V175.627ZM188.988 172.193C188.441 172.193 188.027 172.406 187.746 172.832C187.465 173.258 187.324 173.889 187.324 174.725C187.324 175.557 187.465 176.188 187.746 176.617C188.027 177.043 188.441 177.256 188.988 177.256C189.539 177.256 189.955 177.043 190.236 176.617C190.518 176.188 190.658 175.557 190.658 174.725C190.658 173.889 190.518 173.258 190.236 172.832C189.955 172.406 189.539 172.193 188.988 172.193ZM188.988 171.279C189.898 171.279 190.594 171.574 191.074 172.164C191.559 172.754 191.801 173.607 191.801 174.725C191.801 175.846 191.561 176.701 191.08 177.291C190.6 177.877 189.902 178.17 188.988 178.17C188.078 178.17 187.383 177.877 186.902 177.291C186.422 176.701 186.182 175.846 186.182 174.725C186.182 173.607 186.422 172.754 186.902 172.164C187.383 171.574 188.078 171.279 188.988 171.279ZM199.377 172.791C199.146 172.611 198.912 172.48 198.674 172.398C198.436 172.316 198.174 172.275 197.889 172.275C197.217 172.275 196.703 172.486 196.348 172.908C195.992 173.33 195.814 173.939 195.814 174.736V178H194.73V171.438H195.814V172.721C195.994 172.256 196.27 171.9 196.641 171.654C197.016 171.404 197.459 171.279 197.971 171.279C198.236 171.279 198.484 171.312 198.715 171.379C198.945 171.445 199.166 171.549 199.377 171.689V172.791ZM202.354 171.443H204.182V173.559H202.354V171.443ZM202.354 175.867H204.182V178H202.354V175.867ZM89.5312 192.725C89.5312 191.889 89.3984 191.258 89.1328 190.832C88.8672 190.406 88.4746 190.193 87.9551 190.193C87.4316 190.193 87.0352 190.408 86.7656 190.838C86.4961 191.264 86.3613 191.893 86.3613 192.725C86.3613 193.553 86.4961 194.182 86.7656 194.611C87.0352 195.041 87.4316 195.256 87.9551 195.256C88.4746 195.256 88.8672 195.043 89.1328 194.617C89.3984 194.191 89.5312 193.561 89.5312 192.725ZM86.3613 190.275C86.5332 189.955 86.7695 189.709 87.0703 189.537C87.375 189.365 87.7266 189.279 88.125 189.279C88.9141 189.279 89.5352 189.584 89.9883 190.193C90.4414 190.799 90.668 191.635 90.668 192.701C90.668 193.783 90.4395 194.633 89.9824 195.25C89.5293 195.863 88.9062 196.17 88.1133 196.17C87.7227 196.17 87.377 196.086 87.0762 195.918C86.7793 195.746 86.541 195.498 86.3613 195.174V196H85.2832V186.883H86.3613V190.275ZM95.4961 192.701H95.1387C94.5098 192.701 94.0352 192.812 93.7148 193.035C93.3984 193.254 93.2402 193.582 93.2402 194.02C93.2402 194.414 93.3594 194.721 93.5977 194.939C93.8359 195.158 94.166 195.268 94.5879 195.268C95.1816 195.268 95.6484 195.062 95.9883 194.652C96.3281 194.238 96.5 193.668 96.5039 192.941V192.701H95.4961ZM97.5879 192.256V196H96.5039V195.027C96.2734 195.418 95.9824 195.707 95.6309 195.895C95.2832 196.078 94.8594 196.17 94.3594 196.17C93.6914 196.17 93.1582 195.982 92.7598 195.607C92.3613 195.229 92.1621 194.723 92.1621 194.09C92.1621 193.359 92.4062 192.805 92.8945 192.426C93.3867 192.047 94.1074 191.857 95.0566 191.857H96.5039V191.688C96.5 191.164 96.3672 190.785 96.1055 190.551C95.8438 190.312 95.4258 190.193 94.8516 190.193C94.4844 190.193 94.1133 190.246 93.7383 190.352C93.3633 190.457 92.998 190.611 92.6426 190.814V189.736C93.041 189.584 93.4219 189.471 93.7852 189.396C94.1523 189.318 94.5078 189.279 94.8516 189.279C95.3945 189.279 95.8574 189.359 96.2402 189.52C96.627 189.68 96.9395 189.92 97.1777 190.24C97.3262 190.436 97.4316 190.678 97.4941 190.967C97.5566 191.252 97.5879 191.682 97.5879 192.256ZM104.83 195.666C104.541 195.834 104.242 195.959 103.934 196.041C103.629 196.127 103.316 196.17 102.996 196.17C101.98 196.17 101.186 195.865 100.611 195.256C100.041 194.646 99.7559 193.803 99.7559 192.725C99.7559 191.646 100.041 190.803 100.611 190.193C101.186 189.584 101.98 189.279 102.996 189.279C103.312 189.279 103.621 189.32 103.922 189.402C104.223 189.484 104.525 189.611 104.83 189.783V190.914C104.545 190.66 104.258 190.477 103.969 190.363C103.684 190.25 103.359 190.193 102.996 190.193C102.32 190.193 101.801 190.412 101.438 190.85C101.074 191.287 100.893 191.912 100.893 192.725C100.893 193.533 101.074 194.158 101.438 194.6C101.805 195.037 102.324 195.256 102.996 195.256C103.371 195.256 103.707 195.199 104.004 195.086C104.301 194.969 104.576 194.789 104.83 194.547V195.666ZM107.227 186.883H108.34V192.162L111.17 189.438H112.482L109.898 191.91L112.887 196H111.568L109.143 192.613L108.34 193.369V196H107.227V186.883ZM118.102 192.666C118.102 191.857 117.969 191.244 117.703 190.826C117.441 190.404 117.059 190.193 116.555 190.193C116.027 190.193 115.625 190.404 115.348 190.826C115.07 191.244 114.932 191.857 114.932 192.666C114.932 193.475 115.07 194.092 115.348 194.518C115.629 194.939 116.035 195.15 116.566 195.15C117.062 195.15 117.441 194.938 117.703 194.512C117.969 194.086 118.102 193.471 118.102 192.666ZM119.18 195.578C119.18 196.562 118.947 197.309 118.482 197.816C118.018 198.324 117.334 198.578 116.432 198.578C116.135 198.578 115.824 198.551 115.5 198.496C115.176 198.441 114.852 198.361 114.527 198.256V197.189C114.91 197.369 115.258 197.502 115.57 197.588C115.883 197.674 116.17 197.717 116.432 197.717C117.014 197.717 117.438 197.559 117.703 197.242C117.969 196.926 118.102 196.424 118.102 195.736V195.689V194.957C117.93 195.324 117.695 195.598 117.398 195.777C117.102 195.957 116.74 196.047 116.314 196.047C115.549 196.047 114.938 195.74 114.48 195.127C114.023 194.514 113.795 193.693 113.795 192.666C113.795 191.635 114.023 190.812 114.48 190.199C114.938 189.586 115.549 189.279 116.314 189.279C116.736 189.279 117.094 189.363 117.387 189.531C117.68 189.699 117.918 189.959 118.102 190.311V189.461H119.18V195.578ZM127.072 190.791C126.842 190.611 126.607 190.48 126.369 190.398C126.131 190.316 125.869 190.275 125.584 190.275C124.912 190.275 124.398 190.486 124.043 190.908C123.688 191.33 123.51 191.939 123.51 192.736V196H122.426V189.438H123.51V190.721C123.689 190.256 123.965 189.9 124.336 189.654C124.711 189.404 125.154 189.279 125.666 189.279C125.932 189.279 126.18 189.312 126.41 189.379C126.641 189.445 126.861 189.549 127.072 189.689V190.791ZM131.145 190.193C130.598 190.193 130.184 190.406 129.902 190.832C129.621 191.258 129.48 191.889 129.48 192.725C129.48 193.557 129.621 194.188 129.902 194.617C130.184 195.043 130.598 195.256 131.145 195.256C131.695 195.256 132.111 195.043 132.393 194.617C132.674 194.188 132.814 193.557 132.814 192.725C132.814 191.889 132.674 191.258 132.393 190.832C132.111 190.406 131.695 190.193 131.145 190.193ZM131.145 189.279C132.055 189.279 132.75 189.574 133.23 190.164C133.715 190.754 133.957 191.607 133.957 192.725C133.957 193.846 133.717 194.701 133.236 195.291C132.756 195.877 132.059 196.17 131.145 196.17C130.234 196.17 129.539 195.877 129.059 195.291C128.578 194.701 128.338 193.846 128.338 192.725C128.338 191.607 128.578 190.754 129.059 190.164C129.539 189.574 130.234 189.279 131.145 189.279ZM135.908 193.516V189.449H136.986V193.516C136.986 194.105 137.09 194.539 137.297 194.816C137.508 195.094 137.832 195.232 138.27 195.232C138.777 195.232 139.166 195.055 139.436 194.699C139.705 194.34 139.84 193.826 139.84 193.158V189.449H140.924V196H139.84V195.016C139.648 195.395 139.387 195.682 139.055 195.877C138.727 196.072 138.342 196.17 137.9 196.17C137.229 196.17 136.729 195.951 136.4 195.514C136.072 195.072 135.908 194.406 135.908 193.516ZM148.154 191.934V196H147.07V191.934C147.07 191.344 146.967 190.91 146.76 190.633C146.553 190.355 146.229 190.217 145.787 190.217C145.283 190.217 144.895 190.396 144.621 190.756C144.352 191.111 144.217 191.623 144.217 192.291V196H143.139V189.438H144.217V190.422C144.408 190.047 144.668 189.764 144.996 189.572C145.324 189.377 145.713 189.279 146.162 189.279C146.83 189.279 147.328 189.5 147.656 189.941C147.988 190.379 148.154 191.043 148.154 191.934ZM154.254 190.275V186.883H155.332V196H154.254V195.174C154.074 195.498 153.834 195.746 153.533 195.918C153.236 196.086 152.893 196.17 152.502 196.17C151.709 196.17 151.084 195.863 150.627 195.25C150.174 194.633 149.947 193.783 149.947 192.701C149.947 191.635 150.176 190.799 150.633 190.193C151.09 189.584 151.713 189.279 152.502 189.279C152.896 189.279 153.244 189.365 153.545 189.537C153.846 189.705 154.082 189.951 154.254 190.275ZM151.084 192.725C151.084 193.561 151.217 194.191 151.482 194.617C151.748 195.043 152.141 195.256 152.66 195.256C153.18 195.256 153.574 195.041 153.844 194.611C154.117 194.182 154.254 193.553 154.254 192.725C154.254 191.893 154.117 191.264 153.844 190.838C153.574 190.408 153.18 190.193 152.66 190.193C152.141 190.193 151.748 190.406 151.482 190.832C151.217 191.258 151.084 191.889 151.084 192.725ZM157.055 191.758H163.266V192.748H157.055V191.758ZM169.904 195.666C169.615 195.834 169.316 195.959 169.008 196.041C168.703 196.127 168.391 196.17 168.07 196.17C167.055 196.17 166.26 195.865 165.686 195.256C165.115 194.646 164.83 193.803 164.83 192.725C164.83 191.646 165.115 190.803 165.686 190.193C166.26 189.584 167.055 189.279 168.07 189.279C168.387 189.279 168.695 189.32 168.996 189.402C169.297 189.484 169.6 189.611 169.904 189.783V190.914C169.619 190.66 169.332 190.477 169.043 190.363C168.758 190.25 168.434 190.193 168.07 190.193C167.395 190.193 166.875 190.412 166.512 190.85C166.148 191.287 165.967 191.912 165.967 192.725C165.967 193.533 166.148 194.158 166.512 194.6C166.879 195.037 167.398 195.256 168.07 195.256C168.445 195.256 168.781 195.199 169.078 195.086C169.375 194.969 169.65 194.789 169.904 194.547V195.666ZM174.527 190.193C173.98 190.193 173.566 190.406 173.285 190.832C173.004 191.258 172.863 191.889 172.863 192.725C172.863 193.557 173.004 194.188 173.285 194.617C173.566 195.043 173.98 195.256 174.527 195.256C175.078 195.256 175.494 195.043 175.775 194.617C176.057 194.188 176.197 193.557 176.197 192.725C176.197 191.889 176.057 191.258 175.775 190.832C175.494 190.406 175.078 190.193 174.527 190.193ZM174.527 189.279C175.438 189.279 176.133 189.574 176.613 190.164C177.098 190.754 177.34 191.607 177.34 192.725C177.34 193.846 177.1 194.701 176.619 195.291C176.139 195.877 175.441 196.17 174.527 196.17C173.617 196.17 172.922 195.877 172.441 195.291C171.961 194.701 171.721 193.846 171.721 192.725C171.721 191.607 171.961 190.754 172.441 190.164C172.922 189.574 173.617 189.279 174.527 189.279ZM182.361 193.627C182.361 194.111 182.449 194.477 182.625 194.723C182.805 194.969 183.068 195.092 183.416 195.092H184.676V196H183.311C182.666 196 182.166 195.795 181.811 195.385C181.459 194.971 181.283 194.385 181.283 193.627V187.691H179.555V186.848H182.361V193.627ZM188.988 190.193C188.441 190.193 188.027 190.406 187.746 190.832C187.465 191.258 187.324 191.889 187.324 192.725C187.324 193.557 187.465 194.188 187.746 194.617C188.027 195.043 188.441 195.256 188.988 195.256C189.539 195.256 189.955 195.043 190.236 194.617C190.518 194.188 190.658 193.557 190.658 192.725C190.658 191.889 190.518 191.258 190.236 190.832C189.955 190.406 189.539 190.193 188.988 190.193ZM188.988 189.279C189.898 189.279 190.594 189.574 191.074 190.164C191.559 190.754 191.801 191.607 191.801 192.725C191.801 193.846 191.561 194.701 191.08 195.291C190.6 195.877 189.902 196.17 188.988 196.17C188.078 196.17 187.383 195.877 186.902 195.291C186.422 194.701 186.182 193.846 186.182 192.725C186.182 191.607 186.422 190.754 186.902 190.164C187.383 189.574 188.078 189.279 188.988 189.279ZM199.377 190.791C199.146 190.611 198.912 190.48 198.674 190.398C198.436 190.316 198.174 190.275 197.889 190.275C197.217 190.275 196.703 190.486 196.348 190.908C195.992 191.33 195.814 191.939 195.814 192.736V196H194.73V189.438H195.814V190.721C195.994 190.256 196.27 189.9 196.641 189.654C197.016 189.404 197.459 189.279 197.971 189.279C198.236 189.279 198.484 189.312 198.715 189.379C198.945 189.445 199.166 189.549 199.377 189.689V190.791ZM202.354 189.443H204.182V191.559H202.354V189.443ZM202.354 193.867H204.182V196H202.354V193.867ZM95.4961 210.701H95.1387C94.5098 210.701 94.0352 210.812 93.7148 211.035C93.3984 211.254 93.2402 211.582 93.2402 212.02C93.2402 212.414 93.3594 212.721 93.5977 212.939C93.8359 213.158 94.166 213.268 94.5879 213.268C95.1816 213.268 95.6484 213.062 95.9883 212.652C96.3281 212.238 96.5 211.668 96.5039 210.941V210.701H95.4961ZM97.5879 210.256V214H96.5039V213.027C96.2734 213.418 95.9824 213.707 95.6309 213.895C95.2832 214.078 94.8594 214.17 94.3594 214.17C93.6914 214.17 93.1582 213.982 92.7598 213.607C92.3613 213.229 92.1621 212.723 92.1621 212.09C92.1621 211.359 92.4062 210.805 92.8945 210.426C93.3867 210.047 94.1074 209.857 95.0566 209.857H96.5039V209.688C96.5 209.164 96.3672 208.785 96.1055 208.551C95.8438 208.312 95.4258 208.193 94.8516 208.193C94.4844 208.193 94.1133 208.246 93.7383 208.352C93.3633 208.457 92.998 208.611 92.6426 208.814V207.736C93.041 207.584 93.4219 207.471 93.7852 207.396C94.1523 207.318 94.5078 207.279 94.8516 207.279C95.3945 207.279 95.8574 207.359 96.2402 207.52C96.627 207.68 96.9395 207.92 97.1777 208.24C97.3262 208.436 97.4316 208.678 97.4941 208.967C97.5566 209.252 97.5879 209.682 97.5879 210.256ZM104.83 213.666C104.541 213.834 104.242 213.959 103.934 214.041C103.629 214.127 103.316 214.17 102.996 214.17C101.98 214.17 101.186 213.865 100.611 213.256C100.041 212.646 99.7559 211.803 99.7559 210.725C99.7559 209.646 100.041 208.803 100.611 208.193C101.186 207.584 101.98 207.279 102.996 207.279C103.312 207.279 103.621 207.32 103.922 207.402C104.223 207.484 104.525 207.611 104.83 207.783V208.914C104.545 208.66 104.258 208.477 103.969 208.363C103.684 208.25 103.359 208.193 102.996 208.193C102.32 208.193 101.801 208.412 101.438 208.85C101.074 209.287 100.893 209.912 100.893 210.725C100.893 211.533 101.074 212.158 101.438 212.6C101.805 213.037 102.324 213.256 102.996 213.256C103.371 213.256 103.707 213.199 104.004 213.086C104.301 212.969 104.576 212.789 104.83 212.547V213.666ZM107.227 204.883H108.34V210.162L111.17 207.438H112.482L109.898 209.91L112.887 214H111.568L109.143 210.613L108.34 211.369V214H107.227V204.883ZM118.102 210.666C118.102 209.857 117.969 209.244 117.703 208.826C117.441 208.404 117.059 208.193 116.555 208.193C116.027 208.193 115.625 208.404 115.348 208.826C115.07 209.244 114.932 209.857 114.932 210.666C114.932 211.475 115.07 212.092 115.348 212.518C115.629 212.939 116.035 213.15 116.566 213.15C117.062 213.15 117.441 212.938 117.703 212.512C117.969 212.086 118.102 211.471 118.102 210.666ZM119.18 213.578C119.18 214.562 118.947 215.309 118.482 215.816C118.018 216.324 117.334 216.578 116.432 216.578C116.135 216.578 115.824 216.551 115.5 216.496C115.176 216.441 114.852 216.361 114.527 216.256V215.189C114.91 215.369 115.258 215.502 115.57 215.588C115.883 215.674 116.17 215.717 116.432 215.717C117.014 215.717 117.438 215.559 117.703 215.242C117.969 214.926 118.102 214.424 118.102 213.736V213.689V212.957C117.93 213.324 117.695 213.598 117.398 213.777C117.102 213.957 116.74 214.047 116.314 214.047C115.549 214.047 114.938 213.74 114.48 213.127C114.023 212.514 113.795 211.693 113.795 210.666C113.795 209.635 114.023 208.812 114.48 208.199C114.938 207.586 115.549 207.279 116.314 207.279C116.736 207.279 117.094 207.363 117.387 207.531C117.68 207.699 117.918 207.959 118.102 208.311V207.461H119.18V213.578ZM127.072 208.791C126.842 208.611 126.607 208.48 126.369 208.398C126.131 208.316 125.869 208.275 125.584 208.275C124.912 208.275 124.398 208.486 124.043 208.908C123.688 209.33 123.51 209.939 123.51 210.736V214H122.426V207.438H123.51V208.721C123.689 208.256 123.965 207.9 124.336 207.654C124.711 207.404 125.154 207.279 125.666 207.279C125.932 207.279 126.18 207.312 126.41 207.379C126.641 207.445 126.861 207.549 127.072 207.689V208.791ZM131.145 208.193C130.598 208.193 130.184 208.406 129.902 208.832C129.621 209.258 129.48 209.889 129.48 210.725C129.48 211.557 129.621 212.188 129.902 212.617C130.184 213.043 130.598 213.256 131.145 213.256C131.695 213.256 132.111 213.043 132.393 212.617C132.674 212.188 132.814 211.557 132.814 210.725C132.814 209.889 132.674 209.258 132.393 208.832C132.111 208.406 131.695 208.193 131.145 208.193ZM131.145 207.279C132.055 207.279 132.75 207.574 133.23 208.164C133.715 208.754 133.957 209.607 133.957 210.725C133.957 211.846 133.717 212.701 133.236 213.291C132.756 213.877 132.059 214.17 131.145 214.17C130.234 214.17 129.539 213.877 129.059 213.291C128.578 212.701 128.338 211.846 128.338 210.725C128.338 209.607 128.578 208.754 129.059 208.164C129.539 207.574 130.234 207.279 131.145 207.279ZM135.908 211.516V207.449H136.986V211.516C136.986 212.105 137.09 212.539 137.297 212.816C137.508 213.094 137.832 213.232 138.27 213.232C138.777 213.232 139.166 213.055 139.436 212.699C139.705 212.34 139.84 211.826 139.84 211.158V207.449H140.924V214H139.84V213.016C139.648 213.395 139.387 213.682 139.055 213.877C138.727 214.072 138.342 214.17 137.9 214.17C137.229 214.17 136.729 213.951 136.4 213.514C136.072 213.072 135.908 212.406 135.908 211.516ZM148.154 209.934V214H147.07V209.934C147.07 209.344 146.967 208.91 146.76 208.633C146.553 208.355 146.229 208.217 145.787 208.217C145.283 208.217 144.895 208.396 144.621 208.756C144.352 209.111 144.217 209.623 144.217 210.291V214H143.139V207.438H144.217V208.422C144.408 208.047 144.668 207.764 144.996 207.572C145.324 207.377 145.713 207.279 146.162 207.279C146.83 207.279 147.328 207.5 147.656 207.941C147.988 208.379 148.154 209.043 148.154 209.934ZM154.254 208.275V204.883H155.332V214H154.254V213.174C154.074 213.498 153.834 213.746 153.533 213.918C153.236 214.086 152.893 214.17 152.502 214.17C151.709 214.17 151.084 213.863 150.627 213.25C150.174 212.633 149.947 211.783 149.947 210.701C149.947 209.635 150.176 208.799 150.633 208.193C151.09 207.584 151.713 207.279 152.502 207.279C152.896 207.279 153.244 207.365 153.545 207.537C153.846 207.705 154.082 207.951 154.254 208.275ZM151.084 210.725C151.084 211.561 151.217 212.191 151.482 212.617C151.748 213.043 152.141 213.256 152.66 213.256C153.18 213.256 153.574 213.041 153.844 212.611C154.117 212.182 154.254 211.553 154.254 210.725C154.254 209.893 154.117 209.264 153.844 208.838C153.574 208.408 153.18 208.193 152.66 208.193C152.141 208.193 151.748 208.406 151.482 208.832C151.217 209.258 151.084 209.889 151.084 210.725ZM157.055 209.758H163.266V210.748H157.055V209.758ZM169.904 213.666C169.615 213.834 169.316 213.959 169.008 214.041C168.703 214.127 168.391 214.17 168.07 214.17C167.055 214.17 166.26 213.865 165.686 213.256C165.115 212.646 164.83 211.803 164.83 210.725C164.83 209.646 165.115 208.803 165.686 208.193C166.26 207.584 167.055 207.279 168.07 207.279C168.387 207.279 168.695 207.32 168.996 207.402C169.297 207.484 169.6 207.611 169.904 207.783V208.914C169.619 208.66 169.332 208.477 169.043 208.363C168.758 208.25 168.434 208.193 168.07 208.193C167.395 208.193 166.875 208.412 166.512 208.85C166.148 209.287 165.967 209.912 165.967 210.725C165.967 211.533 166.148 212.158 166.512 212.6C166.879 213.037 167.398 213.256 168.07 213.256C168.445 213.256 168.781 213.199 169.078 213.086C169.375 212.969 169.65 212.789 169.904 212.547V213.666ZM174.527 208.193C173.98 208.193 173.566 208.406 173.285 208.832C173.004 209.258 172.863 209.889 172.863 210.725C172.863 211.557 173.004 212.188 173.285 212.617C173.566 213.043 173.98 213.256 174.527 213.256C175.078 213.256 175.494 213.043 175.775 212.617C176.057 212.188 176.197 211.557 176.197 210.725C176.197 209.889 176.057 209.258 175.775 208.832C175.494 208.406 175.078 208.193 174.527 208.193ZM174.527 207.279C175.438 207.279 176.133 207.574 176.613 208.164C177.098 208.754 177.34 209.607 177.34 210.725C177.34 211.846 177.1 212.701 176.619 213.291C176.139 213.877 175.441 214.17 174.527 214.17C173.617 214.17 172.922 213.877 172.441 213.291C171.961 212.701 171.721 211.846 171.721 210.725C171.721 209.607 171.961 208.754 172.441 208.164C172.922 207.574 173.617 207.279 174.527 207.279ZM182.361 211.627C182.361 212.111 182.449 212.477 182.625 212.723C182.805 212.969 183.068 213.092 183.416 213.092H184.676V214H183.311C182.666 214 182.166 213.795 181.811 213.385C181.459 212.971 181.283 212.385 181.283 211.627V205.691H179.555V204.848H182.361V211.627ZM188.988 208.193C188.441 208.193 188.027 208.406 187.746 208.832C187.465 209.258 187.324 209.889 187.324 210.725C187.324 211.557 187.465 212.188 187.746 212.617C188.027 213.043 188.441 213.256 188.988 213.256C189.539 213.256 189.955 213.043 190.236 212.617C190.518 212.188 190.658 211.557 190.658 210.725C190.658 209.889 190.518 209.258 190.236 208.832C189.955 208.406 189.539 208.193 188.988 208.193ZM188.988 207.279C189.898 207.279 190.594 207.574 191.074 208.164C191.559 208.754 191.801 209.607 191.801 210.725C191.801 211.846 191.561 212.701 191.08 213.291C190.6 213.877 189.902 214.17 188.988 214.17C188.078 214.17 187.383 213.877 186.902 213.291C186.422 212.701 186.182 211.846 186.182 210.725C186.182 209.607 186.422 208.754 186.902 208.164C187.383 207.574 188.078 207.279 188.988 207.279ZM199.377 208.791C199.146 208.611 198.912 208.48 198.674 208.398C198.436 208.316 198.174 208.275 197.889 208.275C197.217 208.275 196.703 208.486 196.348 208.908C195.992 209.33 195.814 209.939 195.814 210.736V214H194.73V207.438H195.814V208.721C195.994 208.256 196.27 207.9 196.641 207.654C197.016 207.404 197.459 207.279 197.971 207.279C198.236 207.279 198.484 207.312 198.715 207.379C198.945 207.445 199.166 207.549 199.377 207.689V208.791ZM202.354 207.443H204.182V209.559H202.354V207.443ZM202.354 211.867H204.182V214H202.354V211.867Z" fill="#75BEFF"/>
<path d="M218.309 169.416L217.781 171.49H219.217L219.75 169.416H220.688L220.154 171.49H221.584V172.387H219.938L219.363 174.689H220.828V175.586H219.135L218.525 178H217.588L218.203 175.586H216.762L216.146 178H215.215L215.824 175.586H214.312V174.689H216.053L216.627 172.387H215.068V171.49H216.844L217.371 169.416H218.309ZM219 172.387H217.564L216.99 174.689H218.432L219 172.387ZM227.76 168.883V169.779H226.535C226.148 169.779 225.879 169.859 225.727 170.02C225.578 170.176 225.504 170.455 225.504 170.857V171.438H227.76V172.275H225.504V178H224.426V172.275H222.674V171.438H224.426V170.98C224.426 170.262 224.59 169.732 224.918 169.393C225.25 169.053 225.766 168.883 226.465 168.883H227.76ZM234.99 168.883V169.779H233.766C233.379 169.779 233.109 169.859 232.957 170.02C232.809 170.176 232.734 170.455 232.734 170.857V171.438H234.99V172.275H232.734V178H231.656V172.275H229.904V171.438H231.656V170.98C231.656 170.262 231.82 169.732 232.148 169.393C232.48 169.053 232.996 168.883 233.695 168.883H234.99ZM239.602 169.123C240.535 169.123 241.24 169.504 241.717 170.266C242.197 171.027 242.438 172.154 242.438 173.646C242.438 175.139 242.197 176.266 241.717 177.027C241.24 177.789 240.535 178.17 239.602 178.17C238.668 178.17 237.963 177.789 237.486 177.027C237.01 176.266 236.771 175.139 236.771 173.646C236.771 172.154 237.01 171.027 237.486 170.266C237.963 169.504 238.668 169.123 239.602 169.123ZM239.602 177.232C240.156 177.232 240.568 176.938 240.838 176.348C241.111 175.758 241.248 174.857 241.248 173.646C241.248 173.002 241.209 172.42 241.131 171.9L238.342 176.266C238.635 176.91 239.055 177.232 239.602 177.232ZM239.602 170.061C239.051 170.061 238.639 170.355 238.365 170.945C238.096 171.535 237.961 172.436 237.961 173.646C237.961 174.197 237.998 174.713 238.072 175.193L240.803 170.84C240.506 170.32 240.105 170.061 239.602 170.061ZM246.832 169.123C247.766 169.123 248.471 169.504 248.947 170.266C249.428 171.027 249.668 172.154 249.668 173.646C249.668 175.139 249.428 176.266 248.947 177.027C248.471 177.789 247.766 178.17 246.832 178.17C245.898 178.17 245.193 177.789 244.717 177.027C244.24 176.266 244.002 175.139 244.002 173.646C244.002 172.154 244.24 171.027 244.717 170.266C245.193 169.504 245.898 169.123 246.832 169.123ZM246.832 177.232C247.387 177.232 247.799 176.938 248.068 176.348C248.342 175.758 248.479 174.857 248.479 173.646C248.479 173.002 248.439 172.42 248.361 171.9L245.572 176.266C245.865 176.91 246.285 177.232 246.832 177.232ZM246.832 170.061C246.281 170.061 245.869 170.355 245.596 170.945C245.326 171.535 245.191 172.436 245.191 173.646C245.191 174.197 245.229 174.713 245.303 175.193L248.033 170.84C247.736 170.32 247.336 170.061 246.832 170.061ZM254.062 169.123C254.996 169.123 255.701 169.504 256.178 170.266C256.658 171.027 256.898 172.154 256.898 173.646C256.898 175.139 256.658 176.266 256.178 177.027C255.701 177.789 254.996 178.17 254.062 178.17C253.129 178.17 252.424 177.789 251.947 177.027C251.471 176.266 251.232 175.139 251.232 173.646C251.232 172.154 251.471 171.027 251.947 170.266C252.424 169.504 253.129 169.123 254.062 169.123ZM254.062 177.232C254.617 177.232 255.029 176.938 255.299 176.348C255.572 175.758 255.709 174.857 255.709 173.646C255.709 173.002 255.67 172.42 255.592 171.9L252.803 176.266C253.096 176.91 253.516 177.232 254.062 177.232ZM254.062 170.061C253.512 170.061 253.1 170.355 252.826 170.945C252.557 171.535 252.422 172.436 252.422 173.646C252.422 174.197 252.459 174.713 252.533 175.193L255.264 170.84C254.967 170.32 254.566 170.061 254.062 170.061ZM261.293 169.123C262.227 169.123 262.932 169.504 263.408 170.266C263.889 171.027 264.129 172.154 264.129 173.646C264.129 175.139 263.889 176.266 263.408 177.027C262.932 177.789 262.227 178.17 261.293 178.17C260.359 178.17 259.654 177.789 259.178 177.027C258.701 176.266 258.463 175.139 258.463 173.646C258.463 172.154 258.701 171.027 259.178 170.266C259.654 169.504 260.359 169.123 261.293 169.123ZM261.293 177.232C261.848 177.232 262.26 176.938 262.529 176.348C262.803 175.758 262.939 174.857 262.939 173.646C262.939 173.002 262.9 172.42 262.822 171.9L260.033 176.266C260.326 176.91 260.746 177.232 261.293 177.232ZM261.293 170.061C260.742 170.061 260.33 170.355 260.057 170.945C259.787 171.535 259.652 172.436 259.652 173.646C259.652 174.197 259.689 174.713 259.764 175.193L262.494 170.84C262.197 170.32 261.797 170.061 261.293 170.061Z" fill="#EE9D28"/>
<path d="M291.814 169.252H292.928L288.322 179.113H287.203L291.814 169.252ZM300.744 172.896L298.143 174.303L300.744 175.715L300.334 176.43L297.885 174.959V177.689H297.047V174.959L294.598 176.43L294.188 175.715L296.795 174.303L294.188 172.896L294.598 172.176L297.047 173.646V170.916H297.885V173.646L300.334 172.176L300.744 172.896ZM309.475 169.252H314.332V170.248H312.498V177.004H314.332V178H309.475V177.004H311.309V170.248H309.475V169.252ZM318.814 168.883H320.291V170.09L319.137 172.334H318.24L318.814 170.09V168.883ZM326.719 172.105C326.852 171.824 327.02 171.617 327.223 171.484C327.43 171.348 327.678 171.279 327.967 171.279C328.494 171.279 328.865 171.484 329.08 171.895C329.299 172.301 329.408 173.068 329.408 174.197V178H328.424V174.244C328.424 173.318 328.371 172.744 328.266 172.521C328.164 172.295 327.977 172.182 327.703 172.182C327.391 172.182 327.176 172.303 327.059 172.545C326.945 172.783 326.889 173.35 326.889 174.244V178H325.904V174.244C325.904 173.307 325.848 172.729 325.734 172.51C325.625 172.291 325.426 172.182 325.137 172.182C324.852 172.182 324.652 172.303 324.539 172.545C324.43 172.783 324.375 173.35 324.375 174.244V178H323.396V171.438H324.375V172C324.504 171.766 324.664 171.588 324.855 171.467C325.051 171.342 325.271 171.279 325.518 171.279C325.814 171.279 326.061 171.348 326.256 171.484C326.455 171.621 326.609 171.828 326.719 172.105ZM340.828 172.193C340.281 172.193 339.867 172.406 339.586 172.832C339.305 173.258 339.164 173.889 339.164 174.725C339.164 175.557 339.305 176.188 339.586 176.617C339.867 177.043 340.281 177.256 340.828 177.256C341.379 177.256 341.795 177.043 342.076 176.617C342.357 176.188 342.498 175.557 342.498 174.725C342.498 173.889 342.357 173.258 342.076 172.832C341.795 172.406 341.379 172.193 340.828 172.193ZM340.828 171.279C341.738 171.279 342.434 171.574 342.914 172.164C343.398 172.754 343.641 173.607 343.641 174.725C343.641 175.846 343.4 176.701 342.92 177.291C342.439 177.877 341.742 178.17 340.828 178.17C339.918 178.17 339.223 177.877 338.742 177.291C338.262 176.701 338.021 175.846 338.021 174.725C338.021 173.607 338.262 172.754 338.742 172.164C339.223 171.574 339.918 171.279 340.828 171.279ZM350.607 173.934V178H349.523V173.934C349.523 173.344 349.42 172.91 349.213 172.633C349.006 172.355 348.682 172.217 348.24 172.217C347.736 172.217 347.348 172.396 347.074 172.756C346.805 173.111 346.67 173.623 346.67 174.291V178H345.592V171.438H346.67V172.422C346.861 172.047 347.121 171.764 347.449 171.572C347.777 171.377 348.166 171.279 348.615 171.279C349.283 171.279 349.781 171.5 350.109 171.941C350.441 172.379 350.607 173.043 350.607 173.934ZM363.457 173.318C364.031 173.471 364.471 173.742 364.775 174.133C365.08 174.52 365.232 175.004 365.232 175.586C365.232 176.391 364.961 177.023 364.418 177.484C363.879 177.941 363.131 178.17 362.174 178.17C361.771 178.17 361.361 178.133 360.943 178.059C360.525 177.984 360.115 177.877 359.713 177.736V176.559C360.111 176.766 360.504 176.92 360.891 177.021C361.277 177.123 361.662 177.174 362.045 177.174C362.693 177.174 363.191 177.027 363.539 176.734C363.887 176.441 364.061 176.02 364.061 175.469C364.061 174.961 363.887 174.559 363.539 174.262C363.191 173.961 362.721 173.811 362.127 173.811H361.225V172.838H362.127C362.67 172.838 363.094 172.719 363.398 172.48C363.703 172.242 363.855 171.91 363.855 171.484C363.855 171.035 363.713 170.691 363.428 170.453C363.146 170.211 362.744 170.09 362.221 170.09C361.873 170.09 361.514 170.129 361.143 170.207C360.771 170.285 360.383 170.402 359.977 170.559V169.469C360.449 169.344 360.869 169.25 361.236 169.188C361.607 169.125 361.936 169.094 362.221 169.094C363.072 169.094 363.752 169.309 364.26 169.738C364.771 170.164 365.027 170.73 365.027 171.438C365.027 171.918 364.893 172.318 364.623 172.639C364.357 172.959 363.969 173.186 363.457 173.318ZM377.584 175.627C377.584 176.111 377.672 176.477 377.848 176.723C378.027 176.969 378.291 177.092 378.639 177.092H379.898V178H378.533C377.889 178 377.389 177.795 377.033 177.385C376.682 176.971 376.506 176.385 376.506 175.627V169.691H374.777V168.848H377.584V175.627ZM382.453 171.461H385.213V177.162H387.352V178H381.996V177.162H384.135V172.299H382.453V171.461ZM384.135 168.912H385.213V170.271H384.135V168.912ZM393.99 173.934V178H392.906V173.934C392.906 173.344 392.803 172.91 392.596 172.633C392.389 172.355 392.064 172.217 391.623 172.217C391.119 172.217 390.73 172.396 390.457 172.756C390.188 173.111 390.053 173.623 390.053 174.291V178H388.975V171.438H390.053V172.422C390.244 172.047 390.504 171.764 390.832 171.572C391.16 171.377 391.549 171.279 391.998 171.279C392.666 171.279 393.164 171.5 393.492 171.941C393.824 172.379 393.99 173.043 393.99 173.934ZM401.625 174.18V174.707H396.955V174.742C396.924 175.637 397.094 176.279 397.465 176.67C397.84 177.061 398.367 177.256 399.047 177.256C399.391 177.256 399.75 177.201 400.125 177.092C400.5 176.982 400.9 176.816 401.326 176.594V177.666C400.916 177.834 400.52 177.959 400.137 178.041C399.758 178.127 399.391 178.17 399.035 178.17C398.016 178.17 397.219 177.865 396.645 177.256C396.07 176.643 395.783 175.799 395.783 174.725C395.783 173.678 396.064 172.842 396.627 172.217C397.189 171.592 397.939 171.279 398.877 171.279C399.713 171.279 400.371 171.562 400.852 172.129C401.336 172.695 401.594 173.379 401.625 174.18ZM400.547 173.863C400.5 173.41 400.334 173.02 400.049 172.691C399.768 172.359 399.361 172.193 398.83 172.193C398.311 172.193 397.883 172.365 397.547 172.709C397.211 173.053 397.027 173.439 396.996 173.869L400.547 173.863ZM407.994 171.666V172.721C407.686 172.541 407.375 172.406 407.062 172.316C406.75 172.227 406.432 172.182 406.107 172.182C405.619 172.182 405.254 172.262 405.012 172.422C404.773 172.578 404.654 172.818 404.654 173.143C404.654 173.436 404.744 173.654 404.924 173.799C405.104 173.943 405.551 174.084 406.266 174.221L406.699 174.303C407.234 174.404 407.639 174.607 407.912 174.912C408.189 175.217 408.328 175.613 408.328 176.102C408.328 176.75 408.098 177.258 407.637 177.625C407.176 177.988 406.535 178.17 405.715 178.17C405.391 178.17 405.051 178.135 404.695 178.064C404.34 177.998 403.955 177.896 403.541 177.76V176.646C403.943 176.854 404.328 177.01 404.695 177.115C405.062 177.217 405.41 177.268 405.738 177.268C406.215 177.268 406.584 177.172 406.846 176.98C407.107 176.785 407.238 176.514 407.238 176.166C407.238 175.666 406.76 175.32 405.803 175.129L405.756 175.117L405.352 175.035C404.73 174.914 404.277 174.711 403.992 174.426C403.707 174.137 403.564 173.744 403.564 173.248C403.564 172.619 403.777 172.135 404.203 171.795C404.629 171.451 405.236 171.279 406.025 171.279C406.377 171.279 406.715 171.312 407.039 171.379C407.363 171.441 407.682 171.537 407.994 171.666ZM412.723 169.252H413.912V173.09L413.789 174.889H412.846L412.723 173.09V169.252ZM412.547 176.512H414.088V178H412.547V176.512ZM378.58 187.252H379.693L375.088 197.113H373.969L378.58 187.252ZM387.51 190.896L384.908 192.303L387.51 193.715L387.1 194.43L384.65 192.959V195.689H383.812V192.959L381.363 194.43L380.953 193.715L383.561 192.303L380.953 190.896L381.363 190.176L383.812 191.646V188.916H384.65V191.646L387.1 190.176L387.51 190.896ZM396.24 187.252H401.098V188.248H399.264V195.004H401.098V196H396.24V195.004H398.074V188.248H396.24V187.252ZM405.58 186.883H407.057V188.09L405.902 190.334H405.006L405.58 188.09V186.883ZM413.484 190.105C413.617 189.824 413.785 189.617 413.988 189.484C414.195 189.348 414.443 189.279 414.732 189.279C415.26 189.279 415.631 189.484 415.846 189.895C416.064 190.301 416.174 191.068 416.174 192.197V196H415.189V192.244C415.189 191.318 415.137 190.744 415.031 190.521C414.93 190.295 414.742 190.182 414.469 190.182C414.156 190.182 413.941 190.303 413.824 190.545C413.711 190.783 413.654 191.35 413.654 192.244V196H412.67V192.244C412.67 191.307 412.613 190.729 412.5 190.51C412.391 190.291 412.191 190.182 411.902 190.182C411.617 190.182 411.418 190.303 411.305 190.545C411.195 190.783 411.141 191.35 411.141 192.244V196H410.162V189.438H411.141V190C411.27 189.766 411.43 189.588 411.621 189.467C411.816 189.342 412.037 189.279 412.283 189.279C412.58 189.279 412.826 189.348 413.021 189.484C413.221 189.621 413.375 189.828 413.484 190.105ZM427.594 190.193C427.047 190.193 426.633 190.406 426.352 190.832C426.07 191.258 425.93 191.889 425.93 192.725C425.93 193.557 426.07 194.188 426.352 194.617C426.633 195.043 427.047 195.256 427.594 195.256C428.145 195.256 428.561 195.043 428.842 194.617C429.123 194.188 429.264 193.557 429.264 192.725C429.264 191.889 429.123 191.258 428.842 190.832C428.561 190.406 428.145 190.193 427.594 190.193ZM427.594 189.279C428.504 189.279 429.199 189.574 429.68 190.164C430.164 190.754 430.406 191.607 430.406 192.725C430.406 193.846 430.166 194.701 429.686 195.291C429.205 195.877 428.508 196.17 427.594 196.17C426.684 196.17 425.988 195.877 425.508 195.291C425.027 194.701 424.787 193.846 424.787 192.725C424.787 191.607 425.027 190.754 425.508 190.164C425.988 189.574 426.684 189.279 427.594 189.279ZM437.373 191.934V196H436.289V191.934C436.289 191.344 436.186 190.91 435.979 190.633C435.771 190.355 435.447 190.217 435.006 190.217C434.502 190.217 434.113 190.396 433.84 190.756C433.57 191.111 433.436 191.623 433.436 192.291V196H432.357V189.438H433.436V190.422C433.627 190.047 433.887 189.764 434.215 189.572C434.543 189.377 434.932 189.279 435.381 189.279C436.049 189.279 436.547 189.5 436.875 189.941C437.207 190.379 437.373 191.043 437.373 191.934ZM450.223 191.318C450.797 191.471 451.236 191.742 451.541 192.133C451.846 192.52 451.998 193.004 451.998 193.586C451.998 194.391 451.727 195.023 451.184 195.484C450.645 195.941 449.896 196.17 448.939 196.17C448.537 196.17 448.127 196.133 447.709 196.059C447.291 195.984 446.881 195.877 446.479 195.736V194.559C446.877 194.766 447.27 194.92 447.656 195.021C448.043 195.123 448.428 195.174 448.811 195.174C449.459 195.174 449.957 195.027 450.305 194.734C450.652 194.441 450.826 194.02 450.826 193.469C450.826 192.961 450.652 192.559 450.305 192.262C449.957 191.961 449.486 191.811 448.893 191.811H447.99V190.838H448.893C449.436 190.838 449.859 190.719 450.164 190.48C450.469 190.242 450.621 189.91 450.621 189.484C450.621 189.035 450.479 188.691 450.193 188.453C449.912 188.211 449.51 188.09 448.986 188.09C448.639 188.09 448.279 188.129 447.908 188.207C447.537 188.285 447.148 188.402 446.742 188.559V187.469C447.215 187.344 447.635 187.25 448.002 187.188C448.373 187.125 448.701 187.094 448.986 187.094C449.838 187.094 450.518 187.309 451.025 187.738C451.537 188.164 451.793 188.73 451.793 189.438C451.793 189.918 451.658 190.318 451.389 190.639C451.123 190.959 450.734 191.186 450.223 191.318ZM464.35 193.627C464.35 194.111 464.438 194.477 464.613 194.723C464.793 194.969 465.057 195.092 465.404 195.092H466.664V196H465.299C464.654 196 464.154 195.795 463.799 195.385C463.447 194.971 463.271 194.385 463.271 193.627V187.691H461.543V186.848H464.35V193.627ZM469.219 189.461H471.979V195.162H474.117V196H468.762V195.162H470.9V190.299H469.219V189.461ZM470.9 186.912H471.979V188.271H470.9V186.912ZM480.756 191.934V196H479.672V191.934C479.672 191.344 479.568 190.91 479.361 190.633C479.154 190.355 478.83 190.217 478.389 190.217C477.885 190.217 477.496 190.396 477.223 190.756C476.953 191.111 476.818 191.623 476.818 192.291V196H475.74V189.438H476.818V190.422C477.01 190.047 477.27 189.764 477.598 189.572C477.926 189.377 478.314 189.279 478.764 189.279C479.432 189.279 479.93 189.5 480.258 189.941C480.59 190.379 480.756 191.043 480.756 191.934ZM488.391 192.18V192.707H483.721V192.742C483.689 193.637 483.859 194.279 484.23 194.67C484.605 195.061 485.133 195.256 485.812 195.256C486.156 195.256 486.516 195.201 486.891 195.092C487.266 194.982 487.666 194.816 488.092 194.594V195.666C487.682 195.834 487.285 195.959 486.902 196.041C486.523 196.127 486.156 196.17 485.801 196.17C484.781 196.17 483.984 195.865 483.41 195.256C482.836 194.643 482.549 193.799 482.549 192.725C482.549 191.678 482.83 190.842 483.393 190.217C483.955 189.592 484.705 189.279 485.643 189.279C486.479 189.279 487.137 189.562 487.617 190.129C488.102 190.695 488.359 191.379 488.391 192.18ZM487.312 191.863C487.266 191.41 487.1 191.02 486.814 190.691C486.533 190.359 486.127 190.193 485.596 190.193C485.076 190.193 484.648 190.365 484.312 190.709C483.977 191.053 483.793 191.439 483.762 191.869L487.312 191.863ZM494.76 189.666V190.721C494.451 190.541 494.141 190.406 493.828 190.316C493.516 190.227 493.197 190.182 492.873 190.182C492.385 190.182 492.02 190.262 491.777 190.422C491.539 190.578 491.42 190.818 491.42 191.143C491.42 191.436 491.51 191.654 491.689 191.799C491.869 191.943 492.316 192.084 493.031 192.221L493.465 192.303C494 192.404 494.404 192.607 494.678 192.912C494.955 193.217 495.094 193.613 495.094 194.102C495.094 194.75 494.863 195.258 494.402 195.625C493.941 195.988 493.301 196.17 492.48 196.17C492.156 196.17 491.816 196.135 491.461 196.064C491.105 195.998 490.721 195.896 490.307 195.76V194.646C490.709 194.854 491.094 195.01 491.461 195.115C491.828 195.217 492.176 195.268 492.504 195.268C492.98 195.268 493.35 195.172 493.611 194.98C493.873 194.785 494.004 194.514 494.004 194.166C494.004 193.666 493.525 193.32 492.568 193.129L492.521 193.117L492.117 193.035C491.496 192.914 491.043 192.711 490.758 192.426C490.473 192.137 490.33 191.744 490.33 191.248C490.33 190.619 490.543 190.135 490.969 189.795C491.395 189.451 492.002 189.279 492.791 189.279C493.143 189.279 493.48 189.312 493.805 189.379C494.129 189.441 494.447 189.537 494.76 189.666ZM499.488 187.252H500.678V191.09L500.555 192.889H499.611L499.488 191.09V187.252ZM499.312 194.512H500.854V196H499.312V194.512ZM400.271 205.252H401.385L396.779 215.113H395.66L400.271 205.252ZM409.201 208.896L406.6 210.303L409.201 211.715L408.791 212.43L406.342 210.959V213.689H405.504V210.959L403.055 212.43L402.645 211.715L405.252 210.303L402.645 208.896L403.055 208.176L405.504 209.646V206.916H406.342V209.646L408.791 208.176L409.201 208.896ZM417.932 205.252H422.789V206.248H420.955V213.004H422.789V214H417.932V213.004H419.766V206.248H417.932V205.252ZM427.271 204.883H428.748V206.09L427.594 208.334H426.697L427.271 206.09V204.883ZM435.176 208.105C435.309 207.824 435.477 207.617 435.68 207.484C435.887 207.348 436.135 207.279 436.424 207.279C436.951 207.279 437.322 207.484 437.537 207.895C437.756 208.301 437.865 209.068 437.865 210.197V214H436.881V210.244C436.881 209.318 436.828 208.744 436.723 208.521C436.621 208.295 436.434 208.182 436.16 208.182C435.848 208.182 435.633 208.303 435.516 208.545C435.402 208.783 435.346 209.35 435.346 210.244V214H434.361V210.244C434.361 209.307 434.305 208.729 434.191 208.51C434.082 208.291 433.883 208.182 433.594 208.182C433.309 208.182 433.109 208.303 432.996 208.545C432.887 208.783 432.832 209.35 432.832 210.244V214H431.854V207.438H432.832V208C432.961 207.766 433.121 207.588 433.312 207.467C433.508 207.342 433.729 207.279 433.975 207.279C434.271 207.279 434.518 207.348 434.713 207.484C434.912 207.621 435.066 207.828 435.176 208.105ZM449.285 208.193C448.738 208.193 448.324 208.406 448.043 208.832C447.762 209.258 447.621 209.889 447.621 210.725C447.621 211.557 447.762 212.188 448.043 212.617C448.324 213.043 448.738 213.256 449.285 213.256C449.836 213.256 450.252 213.043 450.533 212.617C450.814 212.188 450.955 211.557 450.955 210.725C450.955 209.889 450.814 209.258 450.533 208.832C450.252 208.406 449.836 208.193 449.285 208.193ZM449.285 207.279C450.195 207.279 450.891 207.574 451.371 208.164C451.855 208.754 452.098 209.607 452.098 210.725C452.098 211.846 451.857 212.701 451.377 213.291C450.896 213.877 450.199 214.17 449.285 214.17C448.375 214.17 447.68 213.877 447.199 213.291C446.719 212.701 446.479 211.846 446.479 210.725C446.479 209.607 446.719 208.754 447.199 208.164C447.68 207.574 448.375 207.279 449.285 207.279ZM459.064 209.934V214H457.98V209.934C457.98 209.344 457.877 208.91 457.67 208.633C457.463 208.355 457.139 208.217 456.697 208.217C456.193 208.217 455.805 208.396 455.531 208.756C455.262 209.111 455.127 209.623 455.127 210.291V214H454.049V207.438H455.127V208.422C455.318 208.047 455.578 207.764 455.906 207.572C456.234 207.377 456.623 207.279 457.072 207.279C457.74 207.279 458.238 207.5 458.566 207.941C458.898 208.379 459.064 209.043 459.064 209.934ZM471.914 209.318C472.488 209.471 472.928 209.742 473.232 210.133C473.537 210.52 473.689 211.004 473.689 211.586C473.689 212.391 473.418 213.023 472.875 213.484C472.336 213.941 471.588 214.17 470.631 214.17C470.229 214.17 469.818 214.133 469.4 214.059C468.982 213.984 468.572 213.877 468.17 213.736V212.559C468.568 212.766 468.961 212.92 469.348 213.021C469.734 213.123 470.119 213.174 470.502 213.174C471.15 213.174 471.648 213.027 471.996 212.734C472.344 212.441 472.518 212.02 472.518 211.469C472.518 210.961 472.344 210.559 471.996 210.262C471.648 209.961 471.178 209.811 470.584 209.811H469.682V208.838H470.584C471.127 208.838 471.551 208.719 471.855 208.48C472.16 208.242 472.312 207.91 472.312 207.484C472.312 207.035 472.17 206.691 471.885 206.453C471.604 206.211 471.201 206.09 470.678 206.09C470.33 206.09 469.971 206.129 469.6 206.207C469.229 206.285 468.84 206.402 468.434 206.559V205.469C468.906 205.344 469.326 205.25 469.693 205.188C470.064 205.125 470.393 205.094 470.678 205.094C471.529 205.094 472.209 205.309 472.717 205.738C473.229 206.164 473.484 206.73 473.484 207.438C473.484 207.918 473.35 208.318 473.08 208.639C472.814 208.959 472.426 209.186 471.914 209.318ZM486.041 211.627C486.041 212.111 486.129 212.477 486.305 212.723C486.484 212.969 486.748 213.092 487.096 213.092H488.355V214H486.99C486.346 214 485.846 213.795 485.49 213.385C485.139 212.971 484.963 212.385 484.963 211.627V205.691H483.234V204.848H486.041V211.627ZM490.91 207.461H493.67V213.162H495.809V214H490.453V213.162H492.592V208.299H490.91V207.461ZM492.592 204.912H493.67V206.271H492.592V204.912ZM502.447 209.934V214H501.363V209.934C501.363 209.344 501.26 208.91 501.053 208.633C500.846 208.355 500.521 208.217 500.08 208.217C499.576 208.217 499.188 208.396 498.914 208.756C498.645 209.111 498.51 209.623 498.51 210.291V214H497.432V207.438H498.51V208.422C498.701 208.047 498.961 207.764 499.289 207.572C499.617 207.377 500.006 207.279 500.455 207.279C501.123 207.279 501.621 207.5 501.949 207.941C502.281 208.379 502.447 209.043 502.447 209.934ZM510.082 210.18V210.707H505.412V210.742C505.381 211.637 505.551 212.279 505.922 212.67C506.297 213.061 506.824 213.256 507.504 213.256C507.848 213.256 508.207 213.201 508.582 213.092C508.957 212.982 509.357 212.816 509.783 212.594V213.666C509.373 213.834 508.977 213.959 508.594 214.041C508.215 214.127 507.848 214.17 507.492 214.17C506.473 214.17 505.676 213.865 505.102 213.256C504.527 212.643 504.24 211.799 504.24 210.725C504.24 209.678 504.521 208.842 505.084 208.217C505.646 207.592 506.396 207.279 507.334 207.279C508.17 207.279 508.828 207.562 509.309 208.129C509.793 208.695 510.051 209.379 510.082 210.18ZM509.004 209.863C508.957 209.41 508.791 209.02 508.506 208.691C508.225 208.359 507.818 208.193 507.287 208.193C506.768 208.193 506.34 208.365 506.004 208.709C505.668 209.053 505.484 209.439 505.453 209.869L509.004 209.863ZM516.451 207.666V208.721C516.143 208.541 515.832 208.406 515.52 208.316C515.207 208.227 514.889 208.182 514.564 208.182C514.076 208.182 513.711 208.262 513.469 208.422C513.23 208.578 513.111 208.818 513.111 209.143C513.111 209.436 513.201 209.654 513.381 209.799C513.561 209.943 514.008 210.084 514.723 210.221L515.156 210.303C515.691 210.404 516.096 210.607 516.369 210.912C516.646 211.217 516.785 211.613 516.785 212.102C516.785 212.75 516.555 213.258 516.094 213.625C515.633 213.988 514.992 214.17 514.172 214.17C513.848 214.17 513.508 214.135 513.152 214.064C512.797 213.998 512.412 213.896 511.998 213.76V212.646C512.4 212.854 512.785 213.01 513.152 213.115C513.52 213.217 513.867 213.268 514.195 213.268C514.672 213.268 515.041 213.172 515.303 212.98C515.564 212.785 515.695 212.514 515.695 212.166C515.695 211.666 515.217 211.32 514.26 211.129L514.213 211.117L513.809 211.035C513.188 210.914 512.734 210.711 512.449 210.426C512.164 210.137 512.021 209.744 512.021 209.248C512.021 208.619 512.234 208.135 512.66 207.795C513.086 207.451 513.693 207.279 514.482 207.279C514.834 207.279 515.172 207.312 515.496 207.379C515.82 207.441 516.139 207.537 516.451 207.666ZM521.18 205.252H522.369V209.09L522.246 210.889H521.303L521.18 209.09V205.252ZM521.004 212.512H522.545V214H521.004V212.512Z" fill="#327E36"/>
<path d="M52.0078 187.416L51.4805 189.49H52.916L53.4492 187.416H54.3867L53.8535 189.49H55.2832V190.387H53.6367L53.0625 192.689H54.5273V193.586H52.834L52.2246 196H51.2871L51.9023 193.586H50.4609L49.8457 196H48.9141L49.5234 193.586H48.0117V192.689H49.752L50.3262 190.387H48.7676V189.49H50.543L51.0703 187.416H52.0078ZM52.6992 190.387H51.2637L50.6895 192.689H52.1309L52.6992 190.387ZM57.4277 195.174V198.496H56.3438V189.438H57.4277V190.275C57.6074 189.951 57.8457 189.705 58.1426 189.537C58.4434 189.365 58.7891 189.279 59.1797 189.279C59.9727 189.279 60.5938 189.586 61.043 190.199C61.4961 190.812 61.7227 191.662 61.7227 192.748C61.7227 193.814 61.4961 194.652 61.043 195.262C60.5898 195.867 59.9688 196.17 59.1797 196.17C58.7812 196.17 58.4316 196.086 58.1309 195.918C57.834 195.746 57.5996 195.498 57.4277 195.174ZM60.5918 192.725C60.5918 191.889 60.459 191.258 60.1934 190.832C59.9316 190.406 59.541 190.193 59.0215 190.193C58.498 190.193 58.1016 190.408 57.832 190.838C57.5625 191.264 57.4277 191.893 57.4277 192.725C57.4277 193.553 57.5625 194.182 57.832 194.611C58.1016 195.041 58.498 195.256 59.0215 195.256C59.541 195.256 59.9316 195.043 60.1934 194.617C60.459 194.191 60.5918 193.561 60.5918 192.725ZM64.6465 195.004H68.666V196H63.3516V195.004C64.082 194.234 64.7207 193.555 65.2676 192.965C65.8145 192.375 66.1914 191.959 66.3984 191.717C66.7891 191.24 67.0527 190.855 67.1895 190.562C67.3262 190.266 67.3945 189.963 67.3945 189.654C67.3945 189.166 67.25 188.783 66.9609 188.506C66.6758 188.229 66.2832 188.09 65.7832 188.09C65.4277 188.09 65.0547 188.154 64.6641 188.283C64.2734 188.412 63.8594 188.607 63.4219 188.869V187.674C63.8242 187.482 64.2188 187.338 64.6055 187.24C64.9961 187.143 65.3809 187.094 65.7598 187.094C66.6152 187.094 67.3027 187.322 67.8223 187.779C68.3457 188.232 68.6074 188.828 68.6074 189.566C68.6074 189.941 68.5195 190.316 68.3438 190.691C68.1719 191.066 67.8906 191.48 67.5 191.934C67.2812 192.188 66.9629 192.539 66.5449 192.988C66.1309 193.438 65.498 194.109 64.6465 195.004ZM52.0078 205.416L51.4805 207.49H52.916L53.4492 205.416H54.3867L53.8535 207.49H55.2832V208.387H53.6367L53.0625 210.689H54.5273V211.586H52.834L52.2246 214H51.2871L51.9023 211.586H50.4609L49.8457 214H48.9141L49.5234 211.586H48.0117V210.689H49.752L50.3262 208.387H48.7676V207.49H50.543L51.0703 205.416H52.0078ZM52.6992 208.387H51.2637L50.6895 210.689H52.1309L52.6992 208.387ZM57.4277 213.174V216.496H56.3438V207.438H57.4277V208.275C57.6074 207.951 57.8457 207.705 58.1426 207.537C58.4434 207.365 58.7891 207.279 59.1797 207.279C59.9727 207.279 60.5938 207.586 61.043 208.199C61.4961 208.812 61.7227 209.662 61.7227 210.748C61.7227 211.814 61.4961 212.652 61.043 213.262C60.5898 213.867 59.9688 214.17 59.1797 214.17C58.7812 214.17 58.4316 214.086 58.1309 213.918C57.834 213.746 57.5996 213.498 57.4277 213.174ZM60.5918 210.725C60.5918 209.889 60.459 209.258 60.1934 208.832C59.9316 208.406 59.541 208.193 59.0215 208.193C58.498 208.193 58.1016 208.408 57.832 208.838C57.5625 209.264 57.4277 209.893 57.4277 210.725C57.4277 211.553 57.5625 212.182 57.832 212.611C58.1016 213.041 58.498 213.256 59.0215 213.256C59.541 213.256 59.9316 213.043 60.1934 212.617C60.459 212.191 60.5918 211.561 60.5918 210.725ZM67.0078 209.318C67.582 209.471 68.0215 209.742 68.3262 210.133C68.6309 210.52 68.7832 211.004 68.7832 211.586C68.7832 212.391 68.5117 213.023 67.9688 213.484C67.4297 213.941 66.6816 214.17 65.7246 214.17C65.3223 214.17 64.9121 214.133 64.4941 214.059C64.0762 213.984 63.666 213.877 63.2637 213.736V212.559C63.6621 212.766 64.0547 212.92 64.4414 213.021C64.8281 213.123 65.2129 213.174 65.5957 213.174C66.2441 213.174 66.7422 213.027 67.0898 212.734C67.4375 212.441 67.6113 212.02 67.6113 211.469C67.6113 210.961 67.4375 210.559 67.0898 210.262C66.7422 209.961 66.2715 209.811 65.6777 209.811H64.7754V208.838H65.6777C66.2207 208.838 66.6445 208.719 66.9492 208.48C67.2539 208.242 67.4062 207.91 67.4062 207.484C67.4062 207.035 67.2637 206.691 66.9785 206.453C66.6973 206.211 66.2949 206.09 65.7715 206.09C65.4238 206.09 65.0645 206.129 64.6934 206.207C64.3223 206.285 63.9336 206.402 63.5273 206.559V205.469C64 205.344 64.4199 205.25 64.7871 205.188C65.1582 205.125 65.4863 205.094 65.7715 205.094C66.623 205.094 67.3027 205.309 67.8105 205.738C68.3223 206.164 68.5781 206.73 68.5781 207.438C68.5781 207.918 68.4434 208.318 68.1738 208.639C67.9082 208.959 67.5195 209.186 67.0078 209.318Z" fill="#DFD155"/>
<path d="M220.459 191.934V196H219.375V191.934C219.375 191.344 219.271 190.91 219.064 190.633C218.857 190.355 218.533 190.217 218.092 190.217C217.588 190.217 217.199 190.396 216.926 190.756C216.656 191.111 216.521 191.623 216.521 192.291V196H215.443V186.883H216.521V190.422C216.713 190.047 216.973 189.764 217.301 189.572C217.629 189.377 218.018 189.279 218.467 189.279C219.135 189.279 219.633 189.5 219.961 189.941C220.293 190.379 220.459 191.043 220.459 191.934ZM227.232 189.666V190.721C226.924 190.541 226.613 190.406 226.301 190.316C225.988 190.227 225.67 190.182 225.346 190.182C224.857 190.182 224.492 190.262 224.25 190.422C224.012 190.578 223.893 190.818 223.893 191.143C223.893 191.436 223.982 191.654 224.162 191.799C224.342 191.943 224.789 192.084 225.504 192.221L225.938 192.303C226.473 192.404 226.877 192.607 227.15 192.912C227.428 193.217 227.566 193.613 227.566 194.102C227.566 194.75 227.336 195.258 226.875 195.625C226.414 195.988 225.773 196.17 224.953 196.17C224.629 196.17 224.289 196.135 223.934 196.064C223.578 195.998 223.193 195.896 222.779 195.76V194.646C223.182 194.854 223.566 195.01 223.934 195.115C224.301 195.217 224.648 195.268 224.977 195.268C225.453 195.268 225.822 195.172 226.084 194.98C226.346 194.785 226.477 194.514 226.477 194.166C226.477 193.666 225.998 193.32 225.041 193.129L224.994 193.117L224.59 193.035C223.969 192.914 223.516 192.711 223.23 192.426C222.945 192.137 222.803 191.744 222.803 191.248C222.803 190.619 223.016 190.135 223.441 189.795C223.867 189.451 224.475 189.279 225.264 189.279C225.615 189.279 225.953 189.312 226.277 189.379C226.602 189.441 226.92 189.537 227.232 189.666ZM232.975 193.627C232.975 194.111 233.062 194.477 233.238 194.723C233.418 194.969 233.682 195.092 234.029 195.092H235.289V196H233.924C233.279 196 232.779 195.795 232.424 195.385C232.072 194.971 231.896 194.385 231.896 193.627V187.691H230.168V186.848H232.975V193.627Z" fill="#F5FFBB"/>
<path d="M244.805 195.01H246.645V188.4L244.441 189.461V188.324L246.633 187.281H247.816V195.01H249.633V196H244.805V195.01ZM252.639 195.004H256.658V196H251.344V195.004C252.074 194.234 252.713 193.555 253.26 192.965C253.807 192.375 254.184 191.959 254.391 191.717C254.781 191.24 255.045 190.855 255.182 190.562C255.318 190.266 255.387 189.963 255.387 189.654C255.387 189.166 255.242 188.783 254.953 188.506C254.668 188.229 254.275 188.09 253.775 188.09C253.42 188.09 253.047 188.154 252.656 188.283C252.266 188.412 251.852 188.607 251.414 188.869V187.674C251.816 187.482 252.211 187.338 252.598 187.24C252.988 187.143 253.373 187.094 253.752 187.094C254.607 187.094 255.295 187.322 255.814 187.779C256.338 188.232 256.6 188.828 256.6 189.566C256.6 189.941 256.512 190.316 256.336 190.691C256.164 191.066 255.883 191.48 255.492 191.934C255.273 192.188 254.955 192.539 254.537 192.988C254.123 193.438 253.49 194.109 252.639 195.004ZM261.293 187.123C262.227 187.123 262.932 187.504 263.408 188.266C263.889 189.027 264.129 190.154 264.129 191.646C264.129 193.139 263.889 194.266 263.408 195.027C262.932 195.789 262.227 196.17 261.293 196.17C260.359 196.17 259.654 195.789 259.178 195.027C258.701 194.266 258.463 193.139 258.463 191.646C258.463 190.154 258.701 189.027 259.178 188.266C259.654 187.504 260.359 187.123 261.293 187.123ZM261.293 195.232C261.848 195.232 262.26 194.938 262.529 194.348C262.803 193.758 262.939 192.857 262.939 191.646C262.939 191.002 262.9 190.42 262.822 189.9L260.033 194.266C260.326 194.91 260.746 195.232 261.293 195.232ZM261.293 188.061C260.742 188.061 260.33 188.355 260.057 188.945C259.787 189.535 259.652 190.436 259.652 191.646C259.652 192.197 259.689 192.713 259.764 193.193L262.494 188.84C262.197 188.32 261.797 188.061 261.293 188.061ZM280.957 195.01H282.797V188.4L280.594 189.461V188.324L282.785 187.281H283.969V195.01H285.785V196H280.957V195.01ZM290.215 187.123C291.148 187.123 291.854 187.504 292.33 188.266C292.811 189.027 293.051 190.154 293.051 191.646C293.051 193.139 292.811 194.266 292.33 195.027C291.854 195.789 291.148 196.17 290.215 196.17C289.281 196.17 288.576 195.789 288.1 195.027C287.623 194.266 287.385 193.139 287.385 191.646C287.385 190.154 287.623 189.027 288.1 188.266C288.576 187.504 289.281 187.123 290.215 187.123ZM290.215 195.232C290.77 195.232 291.182 194.938 291.451 194.348C291.725 193.758 291.861 192.857 291.861 191.646C291.861 191.002 291.822 190.42 291.744 189.9L288.955 194.266C289.248 194.91 289.668 195.232 290.215 195.232ZM290.215 188.061C289.664 188.061 289.252 188.355 288.979 188.945C288.709 189.535 288.574 190.436 288.574 191.646C288.574 192.197 288.611 192.713 288.686 193.193L291.416 188.84C291.119 188.32 290.719 188.061 290.215 188.061ZM297.445 187.123C298.379 187.123 299.084 187.504 299.561 188.266C300.041 189.027 300.281 190.154 300.281 191.646C300.281 193.139 300.041 194.266 299.561 195.027C299.084 195.789 298.379 196.17 297.445 196.17C296.512 196.17 295.807 195.789 295.33 195.027C294.854 194.266 294.615 193.139 294.615 191.646C294.615 190.154 294.854 189.027 295.33 188.266C295.807 187.504 296.512 187.123 297.445 187.123ZM297.445 195.232C298 195.232 298.412 194.938 298.682 194.348C298.955 193.758 299.092 192.857 299.092 191.646C299.092 191.002 299.053 190.42 298.975 189.9L296.186 194.266C296.479 194.91 296.898 195.232 297.445 195.232ZM297.445 188.061C296.895 188.061 296.482 188.355 296.209 188.945C295.939 189.535 295.805 190.436 295.805 191.646C295.805 192.197 295.842 192.713 295.916 193.193L298.646 188.84C298.35 188.32 297.949 188.061 297.445 188.061ZM305.145 194.131C305.145 194.436 305.246 194.691 305.449 194.898C305.656 195.105 305.912 195.209 306.217 195.209C306.518 195.209 306.771 195.105 306.979 194.898C307.189 194.688 307.295 194.432 307.295 194.131C307.295 193.83 307.189 193.574 306.979 193.363C306.768 193.152 306.514 193.047 306.217 193.047C305.912 193.047 305.656 193.15 305.449 193.357C305.246 193.564 305.145 193.822 305.145 194.131ZM304.354 194.131C304.354 193.604 304.533 193.16 304.893 192.801C305.252 192.438 305.693 192.256 306.217 192.256C306.467 192.256 306.703 192.303 306.926 192.396C307.152 192.49 307.355 192.627 307.535 192.807C307.715 192.99 307.854 193.195 307.951 193.422C308.049 193.648 308.098 193.885 308.098 194.131C308.098 194.65 307.916 195.092 307.553 195.455C307.189 195.818 306.744 196 306.217 196C305.686 196 305.242 195.822 304.887 195.467C304.531 195.107 304.354 194.662 304.354 194.131ZM301.553 193.422L301.295 192.76L307.828 190.146L308.121 190.809L301.553 193.422ZM302.051 189.484C302.051 189.793 302.152 190.051 302.355 190.258C302.562 190.461 302.82 190.562 303.129 190.562C303.43 190.562 303.686 190.459 303.896 190.252C304.107 190.041 304.213 189.785 304.213 189.484C304.213 189.184 304.107 188.93 303.896 188.723C303.686 188.512 303.43 188.406 303.129 188.406C302.828 188.406 302.572 188.51 302.361 188.717C302.154 188.924 302.051 189.18 302.051 189.484ZM301.26 189.484C301.26 188.957 301.439 188.514 301.799 188.154C302.158 187.791 302.602 187.609 303.129 187.609C303.379 187.609 303.617 187.656 303.844 187.75C304.074 187.844 304.277 187.979 304.453 188.154C304.629 188.33 304.764 188.533 304.857 188.764C304.955 188.99 305.004 189.23 305.004 189.484C305.004 190.008 304.822 190.451 304.459 190.814C304.096 191.174 303.652 191.354 303.129 191.354C302.602 191.354 302.158 191.174 301.799 190.814C301.439 190.455 301.26 190.012 301.26 189.484ZM323.971 187.252H328.4V188.248H325.049V190.398C325.217 190.336 325.385 190.291 325.553 190.264C325.725 190.232 325.896 190.217 326.068 190.217C326.975 190.217 327.693 190.484 328.225 191.02C328.756 191.555 329.021 192.279 329.021 193.193C329.021 194.115 328.742 194.842 328.184 195.373C327.629 195.904 326.869 196.17 325.904 196.17C325.439 196.17 325.014 196.139 324.627 196.076C324.244 196.014 323.9 195.92 323.596 195.795V194.594C323.955 194.789 324.316 194.936 324.68 195.033C325.043 195.127 325.414 195.174 325.793 195.174C326.445 195.174 326.947 195.002 327.299 194.658C327.654 194.314 327.832 193.826 327.832 193.193C327.832 192.568 327.648 192.082 327.281 191.734C326.918 191.387 326.41 191.213 325.758 191.213C325.441 191.213 325.133 191.25 324.832 191.324C324.531 191.395 324.244 191.502 323.971 191.646V187.252ZM333.598 187.123C334.531 187.123 335.236 187.504 335.713 188.266C336.193 189.027 336.434 190.154 336.434 191.646C336.434 193.139 336.193 194.266 335.713 195.027C335.236 195.789 334.531 196.17 333.598 196.17C332.664 196.17 331.959 195.789 331.482 195.027C331.006 194.266 330.768 193.139 330.768 191.646C330.768 190.154 331.006 189.027 331.482 188.266C331.959 187.504 332.664 187.123 333.598 187.123ZM333.598 195.232C334.152 195.232 334.564 194.938 334.834 194.348C335.107 193.758 335.244 192.857 335.244 191.646C335.244 191.002 335.205 190.42 335.127 189.9L332.338 194.266C332.631 194.91 333.051 195.232 333.598 195.232ZM333.598 188.061C333.047 188.061 332.635 188.355 332.361 188.945C332.092 189.535 331.957 190.436 331.957 191.646C331.957 192.197 331.994 192.713 332.068 193.193L334.799 188.84C334.502 188.32 334.102 188.061 333.598 188.061ZM341.297 194.131C341.297 194.436 341.398 194.691 341.602 194.898C341.809 195.105 342.064 195.209 342.369 195.209C342.67 195.209 342.924 195.105 343.131 194.898C343.342 194.688 343.447 194.432 343.447 194.131C343.447 193.83 343.342 193.574 343.131 193.363C342.92 193.152 342.666 193.047 342.369 193.047C342.064 193.047 341.809 193.15 341.602 193.357C341.398 193.564 341.297 193.822 341.297 194.131ZM340.506 194.131C340.506 193.604 340.686 193.16 341.045 192.801C341.404 192.438 341.846 192.256 342.369 192.256C342.619 192.256 342.855 192.303 343.078 192.396C343.305 192.49 343.508 192.627 343.688 192.807C343.867 192.99 344.006 193.195 344.104 193.422C344.201 193.648 344.25 193.885 344.25 194.131C344.25 194.65 344.068 195.092 343.705 195.455C343.342 195.818 342.896 196 342.369 196C341.838 196 341.395 195.822 341.039 195.467C340.684 195.107 340.506 194.662 340.506 194.131ZM337.705 193.422L337.447 192.76L343.98 190.146L344.273 190.809L337.705 193.422ZM338.203 189.484C338.203 189.793 338.305 190.051 338.508 190.258C338.715 190.461 338.973 190.562 339.281 190.562C339.582 190.562 339.838 190.459 340.049 190.252C340.26 190.041 340.365 189.785 340.365 189.484C340.365 189.184 340.26 188.93 340.049 188.723C339.838 188.512 339.582 188.406 339.281 188.406C338.98 188.406 338.725 188.51 338.514 188.717C338.307 188.924 338.203 189.18 338.203 189.484ZM337.412 189.484C337.412 188.957 337.592 188.514 337.951 188.154C338.311 187.791 338.754 187.609 339.281 187.609C339.531 187.609 339.77 187.656 339.996 187.75C340.227 187.844 340.43 187.979 340.605 188.154C340.781 188.33 340.916 188.533 341.01 188.764C341.107 188.99 341.156 189.23 341.156 189.484C341.156 190.008 340.975 190.451 340.611 190.814C340.248 191.174 339.805 191.354 339.281 191.354C338.754 191.354 338.311 191.174 337.951 190.814C337.592 190.455 337.412 190.012 337.412 189.484ZM254.062 205.123C254.996 205.123 255.701 205.504 256.178 206.266C256.658 207.027 256.898 208.154 256.898 209.646C256.898 211.139 256.658 212.266 256.178 213.027C255.701 213.789 254.996 214.17 254.062 214.17C253.129 214.17 252.424 213.789 251.947 213.027C251.471 212.266 251.232 211.139 251.232 209.646C251.232 208.154 251.471 207.027 251.947 206.266C252.424 205.504 253.129 205.123 254.062 205.123ZM254.062 213.232C254.617 213.232 255.029 212.938 255.299 212.348C255.572 211.758 255.709 210.857 255.709 209.646C255.709 209.002 255.67 208.42 255.592 207.9L252.803 212.266C253.096 212.91 253.516 213.232 254.062 213.232ZM254.062 206.061C253.512 206.061 253.1 206.355 252.826 206.945C252.557 207.535 252.422 208.436 252.422 209.646C252.422 210.197 252.459 210.713 252.533 211.193L255.264 206.84C254.967 206.32 254.566 206.061 254.062 206.061ZM276.451 206.33L273.691 210.953H276.451V206.33ZM276.258 205.252H277.629V210.953H278.795V211.914H277.629V214H276.451V211.914H272.742V210.795L276.258 205.252ZM296.021 213.004H300.041V214H294.727V213.004C295.457 212.234 296.096 211.555 296.643 210.965C297.189 210.375 297.566 209.959 297.773 209.717C298.164 209.24 298.428 208.855 298.564 208.562C298.701 208.266 298.77 207.963 298.77 207.654C298.77 207.166 298.625 206.783 298.336 206.506C298.051 206.229 297.658 206.09 297.158 206.09C296.803 206.09 296.43 206.154 296.039 206.283C295.648 206.412 295.234 206.607 294.797 206.869V205.674C295.199 205.482 295.594 205.338 295.98 205.24C296.371 205.143 296.756 205.094 297.135 205.094C297.99 205.094 298.678 205.322 299.197 205.779C299.721 206.232 299.982 206.828 299.982 207.566C299.982 207.941 299.895 208.316 299.719 208.691C299.547 209.066 299.266 209.48 298.875 209.934C298.656 210.188 298.338 210.539 297.92 210.988C297.506 211.438 296.873 212.109 296.021 213.004ZM302.279 205.252H306.709V206.248H303.357V208.398C303.525 208.336 303.693 208.291 303.861 208.264C304.033 208.232 304.205 208.217 304.377 208.217C305.283 208.217 306.002 208.484 306.533 209.02C307.064 209.555 307.33 210.279 307.33 211.193C307.33 212.115 307.051 212.842 306.492 213.373C305.938 213.904 305.178 214.17 304.213 214.17C303.748 214.17 303.322 214.139 302.936 214.076C302.553 214.014 302.209 213.92 301.904 213.795V212.594C302.264 212.789 302.625 212.936 302.988 213.033C303.352 213.127 303.723 213.174 304.102 213.174C304.754 213.174 305.256 213.002 305.607 212.658C305.963 212.314 306.141 211.826 306.141 211.193C306.141 210.568 305.957 210.082 305.59 209.734C305.227 209.387 304.719 209.213 304.066 209.213C303.75 209.213 303.441 209.25 303.141 209.324C302.84 209.395 302.553 209.502 302.279 209.646V205.252ZM309.51 205.252H313.939V206.248H310.588V208.398C310.756 208.336 310.924 208.291 311.092 208.264C311.264 208.232 311.436 208.217 311.607 208.217C312.514 208.217 313.232 208.484 313.764 209.02C314.295 209.555 314.561 210.279 314.561 211.193C314.561 212.115 314.281 212.842 313.723 213.373C313.168 213.904 312.408 214.17 311.443 214.17C310.979 214.17 310.553 214.139 310.166 214.076C309.783 214.014 309.439 213.92 309.135 213.795V212.594C309.494 212.789 309.855 212.936 310.219 213.033C310.582 213.127 310.953 213.174 311.332 213.174C311.984 213.174 312.486 213.002 312.838 212.658C313.193 212.314 313.371 211.826 313.371 211.193C313.371 210.568 313.188 210.082 312.82 209.734C312.457 209.387 311.949 209.213 311.297 209.213C310.98 209.213 310.672 209.25 310.371 209.324C310.07 209.395 309.783 209.502 309.51 209.646V205.252ZM333.598 205.123C334.531 205.123 335.236 205.504 335.713 206.266C336.193 207.027 336.434 208.154 336.434 209.646C336.434 211.139 336.193 212.266 335.713 213.027C335.236 213.789 334.531 214.17 333.598 214.17C332.664 214.17 331.959 213.789 331.482 213.027C331.006 212.266 330.768 211.139 330.768 209.646C330.768 208.154 331.006 207.027 331.482 206.266C331.959 205.504 332.664 205.123 333.598 205.123ZM333.598 213.232C334.152 213.232 334.564 212.938 334.834 212.348C335.107 211.758 335.244 210.857 335.244 209.646C335.244 209.002 335.205 208.42 335.127 207.9L332.338 212.266C332.631 212.91 333.051 213.232 333.598 213.232ZM333.598 206.061C333.047 206.061 332.635 206.355 332.361 206.945C332.092 207.535 331.957 208.436 331.957 209.646C331.957 210.197 331.994 210.713 332.068 211.193L334.799 206.84C334.502 206.32 334.102 206.061 333.598 206.061ZM339.498 211.633H341.561V214H339.498V211.633ZM345.264 205.252H350.771V205.756L347.643 214H346.406L349.453 206.248H345.264V205.252ZM356.227 209.318C356.801 209.471 357.24 209.742 357.545 210.133C357.85 210.52 358.002 211.004 358.002 211.586C358.002 212.391 357.73 213.023 357.188 213.484C356.648 213.941 355.9 214.17 354.943 214.17C354.541 214.17 354.131 214.133 353.713 214.059C353.295 213.984 352.885 213.877 352.482 213.736V212.559C352.881 212.766 353.273 212.92 353.66 213.021C354.047 213.123 354.432 213.174 354.814 213.174C355.463 213.174 355.961 213.027 356.309 212.734C356.656 212.441 356.83 212.02 356.83 211.469C356.83 210.961 356.656 210.559 356.309 210.262C355.961 209.961 355.49 209.811 354.896 209.811H353.994V208.838H354.896C355.439 208.838 355.863 208.719 356.168 208.48C356.473 208.242 356.625 207.91 356.625 207.484C356.625 207.035 356.482 206.691 356.197 206.453C355.916 206.211 355.514 206.09 354.99 206.09C354.643 206.09 354.283 206.129 353.912 206.207C353.541 206.285 353.152 206.402 352.746 206.559V205.469C353.219 205.344 353.639 205.25 354.006 205.188C354.377 205.125 354.705 205.094 354.99 205.094C355.842 205.094 356.521 205.309 357.029 205.738C357.541 206.164 357.797 206.73 357.797 207.438C357.797 207.918 357.662 208.318 357.393 208.639C357.127 208.959 356.738 209.186 356.227 209.318ZM363.457 209.318C364.031 209.471 364.471 209.742 364.775 210.133C365.08 210.52 365.232 211.004 365.232 211.586C365.232 212.391 364.961 213.023 364.418 213.484C363.879 213.941 363.131 214.17 362.174 214.17C361.771 214.17 361.361 214.133 360.943 214.059C360.525 213.984 360.115 213.877 359.713 213.736V212.559C360.111 212.766 360.504 212.92 360.891 213.021C361.277 213.123 361.662 213.174 362.045 213.174C362.693 213.174 363.191 213.027 363.539 212.734C363.887 212.441 364.061 212.02 364.061 211.469C364.061 210.961 363.887 210.559 363.539 210.262C363.191 209.961 362.721 209.811 362.127 209.811H361.225V208.838H362.127C362.67 208.838 363.094 208.719 363.398 208.48C363.703 208.242 363.855 207.91 363.855 207.484C363.855 207.035 363.713 206.691 363.428 206.453C363.146 206.211 362.744 206.09 362.221 206.09C361.873 206.09 361.514 206.129 361.143 206.207C360.771 206.285 360.383 206.402 359.977 206.559V205.469C360.449 205.344 360.869 205.25 361.236 205.188C361.607 205.125 361.936 205.094 362.221 205.094C363.072 205.094 363.752 205.309 364.26 205.738C364.771 206.164 365.027 206.73 365.027 207.438C365.027 207.918 364.893 208.318 364.623 208.639C364.357 208.959 363.969 209.186 363.457 209.318Z" fill="#73C991"/>
<path d="M221.068 208.791C220.838 208.611 220.604 208.48 220.365 208.398C220.127 208.316 219.865 208.275 219.58 208.275C218.908 208.275 218.395 208.486 218.039 208.908C217.684 209.33 217.506 209.939 217.506 210.736V214H216.422V207.438H217.506V208.721C217.686 208.256 217.961 207.9 218.332 207.654C218.707 207.404 219.15 207.279 219.662 207.279C219.928 207.279 220.176 207.312 220.406 207.379C220.637 207.445 220.857 207.549 221.068 207.689V208.791ZM226.559 210.666C226.559 209.857 226.426 209.244 226.16 208.826C225.898 208.404 225.516 208.193 225.012 208.193C224.484 208.193 224.082 208.404 223.805 208.826C223.527 209.244 223.389 209.857 223.389 210.666C223.389 211.475 223.527 212.092 223.805 212.518C224.086 212.939 224.492 213.15 225.023 213.15C225.52 213.15 225.898 212.938 226.16 212.512C226.426 212.086 226.559 211.471 226.559 210.666ZM227.637 213.578C227.637 214.562 227.404 215.309 226.939 215.816C226.475 216.324 225.791 216.578 224.889 216.578C224.592 216.578 224.281 216.551 223.957 216.496C223.633 216.441 223.309 216.361 222.984 216.256V215.189C223.367 215.369 223.715 215.502 224.027 215.588C224.34 215.674 224.627 215.717 224.889 215.717C225.471 215.717 225.895 215.559 226.16 215.242C226.426 214.926 226.559 214.424 226.559 213.736V213.689V212.957C226.387 213.324 226.152 213.598 225.855 213.777C225.559 213.957 225.197 214.047 224.771 214.047C224.006 214.047 223.395 213.74 222.938 213.127C222.48 212.514 222.252 211.693 222.252 210.666C222.252 209.635 222.48 208.812 222.938 208.199C223.395 207.586 224.006 207.279 224.771 207.279C225.193 207.279 225.551 207.363 225.844 207.531C226.137 207.699 226.375 207.959 226.559 208.311V207.461H227.637V213.578ZM234.141 210.725C234.141 209.889 234.008 209.258 233.742 208.832C233.477 208.406 233.084 208.193 232.564 208.193C232.041 208.193 231.645 208.408 231.375 208.838C231.105 209.264 230.971 209.893 230.971 210.725C230.971 211.553 231.105 212.182 231.375 212.611C231.645 213.041 232.041 213.256 232.564 213.256C233.084 213.256 233.477 213.043 233.742 212.617C234.008 212.191 234.141 211.561 234.141 210.725ZM230.971 208.275C231.143 207.955 231.379 207.709 231.68 207.537C231.984 207.365 232.336 207.279 232.734 207.279C233.523 207.279 234.145 207.584 234.598 208.193C235.051 208.799 235.277 209.635 235.277 210.701C235.277 211.783 235.049 212.633 234.592 213.25C234.139 213.863 233.516 214.17 232.723 214.17C232.332 214.17 231.986 214.086 231.686 213.918C231.389 213.746 231.15 213.498 230.971 213.174V214H229.893V204.883H230.971V208.275ZM240.105 210.701H239.748C239.119 210.701 238.645 210.812 238.324 211.035C238.008 211.254 237.85 211.582 237.85 212.02C237.85 212.414 237.969 212.721 238.207 212.939C238.445 213.158 238.775 213.268 239.197 213.268C239.791 213.268 240.258 213.062 240.598 212.652C240.938 212.238 241.109 211.668 241.113 210.941V210.701H240.105ZM242.197 210.256V214H241.113V213.027C240.883 213.418 240.592 213.707 240.24 213.895C239.893 214.078 239.469 214.17 238.969 214.17C238.301 214.17 237.768 213.982 237.369 213.607C236.971 213.229 236.771 212.723 236.771 212.09C236.771 211.359 237.016 210.805 237.504 210.426C237.996 210.047 238.717 209.857 239.666 209.857H241.113V209.688C241.109 209.164 240.977 208.785 240.715 208.551C240.453 208.312 240.035 208.193 239.461 208.193C239.094 208.193 238.723 208.246 238.348 208.352C237.973 208.457 237.607 208.611 237.252 208.814V207.736C237.65 207.584 238.031 207.471 238.395 207.396C238.762 207.318 239.117 207.279 239.461 207.279C240.004 207.279 240.467 207.359 240.85 207.52C241.236 207.68 241.549 207.92 241.787 208.24C241.936 208.436 242.041 208.678 242.104 208.967C242.166 209.252 242.197 209.682 242.197 210.256Z" fill="#F5FFBB"/>
<rect x="417" y="163" width="4" height="22" fill="var(--vscode-editorCursor-foreground)"/>
<rect x="504" y="181" width="4" height="22" fill="var(--vscode-editorCursor-foreground)"/>
<rect x="525" y="199" width="4" height="22" fill="var(--vscode-editorCursor-foreground)"/>
</g>
<defs>
<filter id="filter0_d" x="0" y="29" width="566" height="234" filterUnits="userSpaceOnUse" color-interpolation-filters="sRGB">
<feFlood flood-opacity="0" result="BackgroundImageFix"/>
<feColorMatrix in="SourceAlpha" type="matrix" values="0 0 0 0 0 0 0 0 0 0 0 0 0 0 0 0 0 0 127 0"/>
<feOffset dy="2"/>
<feGaussianBlur stdDeviation="6"/>
<feColorMatrix type="matrix" values="0 0 0 0 0 0 0 0 0 0 0 0 0 0 0 0 0 0 0.6 0"/>
<feBlend mode="normal" in2="BackgroundImageFix" result="effect1_dropShadow"/>
<feBlend mode="normal" in="SourceGraphic" in2="effect1_dropShadow" result="shape"/>
</filter>
<clipPath id="clip0">
<rect width="115.654" height="39.2998" fill="white" transform="translate(32)"/>
</clipPath>
</defs>
</svg>
