<svg xmlns="http://www.w3.org/2000/svg" xmlns:xlink="http://www.w3.org/1999/xlink" fill="none" viewBox="0 0 516 349"><rect width="474" height="35" fill="var(--vscode-editorGroupHeader-tabsBackground, #252526)" transform="translate(21.6238)"/><g clip-path="url(#clip0)"><rect width="123" height="35" fill="var(--vscode-tab-activeBackground, #1e1e1e)" transform="translate(21.6238)"/><path fill="#519ABA" d="M41.3838 14.88H39.2438V21.24H37.6838V14.88H35.5638V13.74H41.3038V14.88H41.3838ZM46.1838 19.32C46.1838 19.1733 46.1571 19.0467 46.1038 18.94C46.0504 18.8333 45.9771 18.7267 45.8838 18.62C45.8038 18.5533 45.6838 18.48 45.5238 18.4C45.4171 18.36 45.2304 18.2867 44.9638 18.18L44.8038 18.12C43.9371 17.8667 43.2504 17.5533 42.7438 17.18C42.2904 16.7933 42.0638 16.3133 42.0638 15.74C42.0638 15.1133 42.3371 14.6133 42.8838 14.24C43.3771 13.8667 44.0304 13.68 44.8438 13.68C45.6704 13.68 46.3504 13.9133 46.8838 14.38C47.3771 14.82 47.6238 15.36 47.6238 16H46.1838C46.1838 15.8133 46.1504 15.6533 46.0838 15.52C46.0304 15.3867 45.9371 15.2533 45.8038 15.12C45.5371 14.92 45.2038 14.82 44.8038 14.82C44.4038 14.82 44.0971 14.9 43.8838 15.06C43.6704 15.22 43.5638 15.4467 43.5638 15.74C43.5638 15.98 43.6904 16.1933 43.9438 16.38C44.0504 16.46 44.2104 16.54 44.4238 16.62C44.5838 16.6867 44.8371 16.7733 45.1838 16.88C45.9971 17.12 46.6171 17.4267 47.0438 17.8C47.4704 18.16 47.6838 18.6667 47.6838 19.32C47.6838 19.64 47.6171 19.9333 47.4838 20.2C47.3638 20.4533 47.1838 20.66 46.9438 20.82C46.4371 21.1933 45.7704 21.38 44.9438 21.38C44.0638 21.38 43.3504 21.1667 42.8038 20.74C42.1771 20.2467 41.8904 19.6467 41.9438 18.94H43.4438C43.4438 19.3667 43.5904 19.7 43.8838 19.94C44.0038 20.0333 44.1638 20.1067 44.3638 20.16C44.5638 20.2133 44.7771 20.24 45.0038 20.24C45.4571 20.24 45.7704 20.16 45.9438 20C46.1038 19.7467 46.1838 19.52 46.1838 19.32Z"/><rect width="79" height="7" x="53.624" y="14" fill="var(--vscode-tab-unfocusedInactiveForeground, #454545)" rx="3.5"/></g><g filter="url(#filter0_d)"><rect width="492" height="165" x="12" y="35" fill="var(--vscode-quickInput-background)" rx="2"/></g><path fill="#B180D7" d="M45.1865 59.8613V60.4326H40.1274V60.4707C40.0936 61.4398 40.2777 62.1359 40.6797 62.5591C41.0859 62.9823 41.6572 63.1938 42.3936 63.1938C42.766 63.1938 43.1553 63.1346 43.5615 63.0161C43.9678 62.8976 44.4015 62.7178 44.8628 62.4766V63.6382C44.4185 63.8201 43.9889 63.9556 43.5742 64.0444C43.1637 64.1375 42.766 64.1841 42.3809 64.1841C41.2764 64.1841 40.4131 63.854 39.791 63.1938C39.1689 62.5295 38.8579 61.6154 38.8579 60.4517C38.8579 59.3175 39.1626 58.4119 39.772 57.7349C40.3813 57.0578 41.1938 56.7192 42.2095 56.7192C43.1151 56.7192 43.8281 57.026 44.3486 57.6396C44.8734 58.2533 45.1527 58.9938 45.1865 59.8613ZM44.0186 59.5186C43.9678 59.0277 43.7879 58.6045 43.479 58.249C43.1743 57.8893 42.7342 57.7095 42.1587 57.7095C41.5959 57.7095 41.1325 57.8957 40.7686 58.2681C40.4046 58.6405 40.2057 59.0594 40.1719 59.5249L44.0186 59.5186ZM53.0068 56.8906L50.4614 60.293L53.2544 64H51.9023L49.8203 61.1499L47.7446 64H46.3926L49.1855 60.293L46.6401 56.8906H47.9351L49.8203 59.4614L51.6929 56.8906H53.0068ZM56.1235 63.105V66.7041H54.9492V56.8906H56.1235V57.7983C56.3182 57.4471 56.5763 57.1805 56.8979 56.9985C57.2238 56.8123 57.5983 56.7192 58.0215 56.7192C58.8805 56.7192 59.5534 57.0514 60.04 57.7158C60.5309 58.3802 60.7764 59.3006 60.7764 60.4771C60.7764 61.6323 60.5309 62.54 60.04 63.2002C59.5492 63.8561 58.8763 64.1841 58.0215 64.1841C57.5898 64.1841 57.2111 64.0931 56.8853 63.9111C56.5636 63.7249 56.3097 63.4562 56.1235 63.105ZM59.5513 60.4517C59.5513 59.5461 59.4074 58.8626 59.1196 58.4014C58.8361 57.9401 58.4129 57.7095 57.8501 57.7095C57.283 57.7095 56.8535 57.9422 56.5615 58.4077C56.2695 58.869 56.1235 59.5503 56.1235 60.4517C56.1235 61.3488 56.2695 62.0301 56.5615 62.4956C56.8535 62.9611 57.283 63.1938 57.8501 63.1938C58.4129 63.1938 58.8361 62.9632 59.1196 62.502C59.4074 62.0407 59.5513 61.3573 59.5513 60.4517ZM65.4863 57.7095C64.8939 57.7095 64.4453 57.9401 64.1406 58.4014C63.8359 58.8626 63.6836 59.5461 63.6836 60.4517C63.6836 61.353 63.8359 62.0365 64.1406 62.502C64.4453 62.9632 64.8939 63.1938 65.4863 63.1938C66.083 63.1938 66.5337 62.9632 66.8384 62.502C67.1431 62.0365 67.2954 61.353 67.2954 60.4517C67.2954 59.5461 67.1431 58.8626 66.8384 58.4014C66.5337 57.9401 66.083 57.7095 65.4863 57.7095ZM65.4863 56.7192C66.4723 56.7192 67.2256 57.0387 67.7461 57.6777C68.2708 58.3167 68.5332 59.2414 68.5332 60.4517C68.5332 61.6662 68.2729 62.5929 67.7524 63.2319C67.2319 63.8667 66.4766 64.1841 65.4863 64.1841C64.5003 64.1841 63.7471 63.8667 63.2266 63.2319C62.7061 62.5929 62.4458 61.6662 62.4458 60.4517C62.4458 59.2414 62.7061 58.3167 63.2266 57.6777C63.7471 57.0387 64.5003 56.7192 65.4863 56.7192ZM76.7407 58.3569C76.491 58.1623 76.2371 58.0205 75.979 57.9316C75.7209 57.8428 75.4373 57.7983 75.1284 57.7983C74.4006 57.7983 73.8441 58.0269 73.459 58.4839C73.0739 58.9409 72.8813 59.6011 72.8813 60.4644V64H71.707V56.8906H72.8813V58.2808C73.076 57.7772 73.3743 57.3921 73.7764 57.1255C74.1826 56.8547 74.6629 56.7192 75.2173 56.7192C75.505 56.7192 75.7738 56.7552 76.0234 56.8271C76.2731 56.8991 76.5122 57.0112 76.7407 57.1636V58.3569ZM81.1396 54.8721V56.8906H83.793V57.7983H81.1396V61.6577C81.1396 62.1825 81.2391 62.5485 81.438 62.7559C81.6369 62.9632 81.9839 63.0669 82.479 63.0669H83.793V64H82.3647C81.4888 64 80.8709 63.8244 80.5112 63.4731C80.1515 63.1219 79.9717 62.5168 79.9717 61.6577V57.7983H78.0737V56.8906H79.9717V54.8721H81.1396Z"/><path fill="#9CDCFE" d="M99.6558 54.123V55.0942H98.3291C97.9102 55.0942 97.6182 55.181 97.4531 55.3545C97.2923 55.5238 97.2119 55.8263 97.2119 56.2622V56.8906H99.6558V57.7983H97.2119V64H96.0439V57.7983H94.146V56.8906H96.0439V56.3955C96.0439 55.6169 96.2217 55.0435 96.5771 54.6753C96.9368 54.3071 97.4954 54.123 98.2529 54.123H99.6558ZM101.979 61.3086V56.9033H103.147V61.3086C103.147 61.9476 103.259 62.4173 103.483 62.7178C103.712 63.0182 104.063 63.1685 104.537 63.1685C105.087 63.1685 105.508 62.9759 105.8 62.5908C106.092 62.2015 106.238 61.645 106.238 60.9214V56.9033H107.413V64H106.238V62.9336C106.031 63.3441 105.747 63.6551 105.388 63.8667C105.032 64.0783 104.615 64.1841 104.137 64.1841C103.409 64.1841 102.868 63.9471 102.512 63.4731C102.157 62.995 101.979 62.2734 101.979 61.3086ZM115.246 59.5947V64H114.071V59.5947C114.071 58.9557 113.959 58.486 113.735 58.1855C113.511 57.8851 113.159 57.7349 112.681 57.7349C112.135 57.7349 111.714 57.9295 111.418 58.3188C111.126 58.7039 110.98 59.2583 110.98 59.9819V64H109.812V56.8906H110.98V57.957C111.187 57.5508 111.469 57.244 111.824 57.0366C112.18 56.825 112.601 56.7192 113.087 56.7192C113.811 56.7192 114.351 56.9583 114.706 57.4365C115.066 57.9105 115.246 58.6299 115.246 59.5947ZM123.142 63.6382C122.829 63.8201 122.505 63.9556 122.171 64.0444C121.841 64.1375 121.502 64.1841 121.155 64.1841C120.055 64.1841 119.194 63.854 118.572 63.1938C117.954 62.5337 117.645 61.6196 117.645 60.4517C117.645 59.2837 117.954 58.3696 118.572 57.7095C119.194 57.0493 120.055 56.7192 121.155 56.7192C121.498 56.7192 121.832 56.7637 122.158 56.8525C122.484 56.9414 122.812 57.0789 123.142 57.2651V58.4902C122.833 58.2152 122.522 58.0163 122.209 57.8936C121.9 57.7708 121.549 57.7095 121.155 57.7095C120.423 57.7095 119.86 57.9465 119.467 58.4204C119.073 58.8944 118.876 59.5715 118.876 60.4517C118.876 61.3276 119.073 62.0047 119.467 62.4829C119.865 62.9569 120.427 63.1938 121.155 63.1938C121.562 63.1938 121.925 63.1325 122.247 63.0098C122.569 62.8828 122.867 62.6882 123.142 62.4258V63.6382Z"/><rect width="4.213" height="22" x="124.717" y="48" fill="var(--vscode-foreground)"/><rect width="65.307" height="8" x="31.757" y="95" fill="#007ACC" rx="4"/><rect width="40.027" height="8" x="103.384" y="95" fill="#D7BA7D" rx="4"/><rect width="66" height="8" x="56.124" y="115" fill="#007ACC" rx="4"/><rect width="71" height="8" x="32.124" y="135" fill="#007ACC" rx="4"/><rect width="61.093" height="8" x="138.144" y="114" fill="#D88E73" rx="4"/><rect width="37" height="8" x="32.124" y="166" fill="#007ACC" rx="4"/><rect width="47" height="8" x="75.124" y="166" fill="#D7BA7D" rx="4"/><g clip-path="url(#clip1)"><rect width="335" height="98" x="130" y="72" fill="var(--vscode-editorSuggestWidget-background)"/><rect width="335" height="26" fill="var(--vscode-list-activeSelectionBackground)" transform="translate(130 72)"/><path fill="var(--vscode-editorSuggestWidget-selectedForeground)" d="M136.496 77.992L136 78.504V89.992H137.008V79H148V89.992H149.008V78.504L148.496 77.992H136.496ZM136 91.992V91H137.008V91.992H136ZM139.008 91H138V91.992H139.008V91ZM140 91H141.008V91.992H140V91ZM143.008 91H142V91.992H143.008V91ZM144 91H145.008V91.992H144V91ZM149.008 91.992V91H148V91.992H149.008ZM146 91H147.008V91.992H146V91Z"/><path fill="var(--vscode-list-focusHighlightForeground)" d="M160.33 81.8633V82.4375H162.346V83.7559H160.33V89H158.613V83.7559H157.02V82.4375H158.613V81.9805C158.613 81.1914 158.777 80.6445 159.105 80.3398C159.434 80.0352 160.043 79.8828 160.934 79.8828H162.346V81.2012H161.004C160.746 81.2012 160.57 81.248 160.477 81.3418C160.387 81.4355 160.338 81.6094 160.33 81.8633ZM164.168 86.709V82.4375H165.885V86.4453C165.885 86.918 165.951 87.2559 166.084 87.459C166.217 87.6621 166.438 87.7637 166.746 87.7637C167.055 87.7637 167.295 87.627 167.467 87.3535C167.643 87.0801 167.73 86.6973 167.73 86.2051V82.4375H169.447V89H167.73V88.0273C167.609 88.3906 167.402 88.6719 167.109 88.8711C166.82 89.0703 166.471 89.1699 166.061 89.1699C165.436 89.1699 164.963 88.9629 164.643 88.5488C164.326 88.1348 164.168 87.5215 164.168 86.709ZM176.736 84.7402V89H175.031V85.0039C175.031 84.5273 174.963 84.1875 174.826 83.9844C174.693 83.7773 174.475 83.6738 174.17 83.6738C173.861 83.6738 173.617 83.8125 173.438 84.0898C173.262 84.3672 173.174 84.752 173.174 85.2441V89H171.469V82.4375H173.174V83.4219C173.295 83.0586 173.502 82.7773 173.795 82.5781C174.088 82.3789 174.441 82.2793 174.855 82.2793C175.477 82.2793 175.945 82.4863 176.262 82.9004C176.578 83.3105 176.736 83.9238 176.736 84.7402ZM183.908 88.666C183.619 88.834 183.309 88.959 182.977 89.041C182.645 89.127 182.287 89.1699 181.904 89.1699C180.893 89.1699 180.102 88.8652 179.531 88.2559C178.961 87.6465 178.676 86.8027 178.676 85.7246C178.676 84.6426 178.963 83.7969 179.537 83.1875C180.111 82.5742 180.904 82.2676 181.916 82.2676C182.268 82.2676 182.605 82.3086 182.93 82.3906C183.258 82.4727 183.584 82.5996 183.908 82.7715V84.3418C183.658 84.127 183.383 83.9629 183.082 83.8496C182.785 83.7324 182.477 83.6738 182.156 83.6738C181.598 83.6738 181.168 83.8516 180.867 84.207C180.566 84.5625 180.416 85.0684 180.416 85.7246C180.416 86.3809 180.566 86.8848 180.867 87.2363C181.168 87.5879 181.598 87.7637 182.156 87.7637C182.488 87.7637 182.799 87.709 183.088 87.5996C183.377 87.4863 183.65 87.3164 183.908 87.0898V88.666Z"/><path fill="var(--vscode-editorSuggestWidget-selectedForeground)" d="M188.52 80.5742V82.4375H190.969V83.2754H188.52V86.8379C188.52 87.3223 188.611 87.6602 188.795 87.8516C188.979 88.043 189.299 88.1387 189.756 88.1387H190.969V89H189.65C188.842 89 188.271 88.8379 187.939 88.5137C187.607 88.1895 187.441 87.6309 187.441 86.8379V83.2754H185.689V82.4375H187.441V80.5742H188.52ZM194.004 82.4609H196.764V88.1621H198.902V89H193.547V88.1621H195.686V83.2988H194.004V82.4609ZM195.686 79.9121H196.764V81.2715H195.686V79.9121ZM202.992 83.1934C202.445 83.1934 202.031 83.4062 201.75 83.832C201.469 84.2578 201.328 84.8887 201.328 85.7246C201.328 86.5566 201.469 87.1875 201.75 87.6172C202.031 88.043 202.445 88.2559 202.992 88.2559C203.543 88.2559 203.959 88.043 204.24 87.6172C204.521 87.1875 204.662 86.5566 204.662 85.7246C204.662 84.8887 204.521 84.2578 204.24 83.832C203.959 83.4062 203.543 83.1934 202.992 83.1934ZM202.992 82.2793C203.902 82.2793 204.598 82.5742 205.078 83.1641C205.562 83.7539 205.805 84.6074 205.805 85.7246C205.805 86.8457 205.564 87.7012 205.084 88.291C204.604 88.877 203.906 89.1699 202.992 89.1699C202.082 89.1699 201.387 88.877 200.906 88.291C200.426 87.7012 200.186 86.8457 200.186 85.7246C200.186 84.6074 200.426 83.7539 200.906 83.1641C201.387 82.5742 202.082 82.2793 202.992 82.2793ZM212.771 84.9336V89H211.688V84.9336C211.688 84.3438 211.584 83.9102 211.377 83.6328C211.17 83.3555 210.846 83.2168 210.404 83.2168C209.9 83.2168 209.512 83.3965 209.238 83.7559C208.969 84.1113 208.834 84.623 208.834 85.291V89H207.756V82.4375H208.834V83.4219C209.025 83.0469 209.285 82.7637 209.613 82.5723C209.941 82.377 210.33 82.2793 210.779 82.2793C211.447 82.2793 211.945 82.5 212.273 82.9414C212.605 83.3789 212.771 84.043 212.771 84.9336Z"/><path fill="#75BEFF" d="M136 106.992H138V106H135.504L135.008 106.496V114.496L135.504 114.992H138V114H136V106.992ZM148.496 106H146V106.992H148V114H146V114.992H148.496L149.008 114.496V106.496L148.496 106ZM145.76 108.576L146 108.992V111.504L145.696 111.952L141.2 113.952H140.736L138.24 112.464L138 112.032V109.536L138.304 109.072L142.8 107.072H143.264L145.76 108.576ZM139.008 111.712L140.496 112.608V111.28L139.008 110.384V111.712ZM139.584 109.552L141.024 110.432L144.416 108.928L142.976 108.064L139.584 109.552ZM141.536 112.736L145.024 111.168V109.776L141.536 111.312V112.736Z"/><rect width="37" height="6" x="156" y="108" fill="var(--vscode-foreground)" fill-opacity=".25" rx="3"/><rect width="169" height="6" x="228" y="108" fill="var(--vscode-foreground)" fill-opacity=".25" rx="3"/><rect width="28" height="6" x="197" y="108" fill="var(--vscode-editorSuggestWidget-highlightForeground)" rx="3"/><path fill="#75BEFF" d="M136 130.992H138V130H135.504L135.008 130.496V138.496L135.504 138.992H138V138H136V130.992ZM148.496 130H146V130.992H148V138H146V138.992H148.496L149.008 138.496V130.496L148.496 130ZM145.76 132.576L146 132.992V135.504L145.696 135.952L141.2 137.952H140.736L138.24 136.464L138 136.032V133.536L138.304 133.072L142.8 131.072H143.264L145.76 132.576ZM139.008 135.712L140.496 136.608V135.28L139.008 134.384V135.712ZM139.584 133.552L141.024 134.432L144.416 132.928L142.976 132.064L139.584 133.552ZM141.536 136.736L145.024 135.168V133.776L141.536 135.312V136.736Z"/><rect width="28" height="6" x="156" y="131" fill="var(--vscode-editorSuggestWidget-highlightForeground)" rx="3"/><rect width="37" height="6" x="189" y="131" fill="var(--vscode-foreground)" fill-opacity=".25" rx="3"/><rect width="211" height="6" x="231" y="131" fill="var(--vscode-foreground)" fill-opacity=".25" rx="3"/><path fill="#75BEFF" d="M136 154.992H138V154H135.504L135.008 154.496V162.496L135.504 162.992H138V162H136V154.992ZM148.496 154H146V154.992H148V162H146V162.992H148.496L149.008 162.496V154.496L148.496 154ZM145.76 156.576L146 156.992V159.504L145.696 159.952L141.2 161.952H140.736L138.24 160.464L138 160.032V157.536L138.304 157.072L142.8 155.072H143.264L145.76 156.576ZM139.008 159.712L140.496 160.608V159.28L139.008 158.384V159.712ZM139.584 157.552L141.024 158.432L144.416 156.928L142.976 156.064L139.584 157.552ZM141.536 160.736L145.024 159.168V157.776L141.536 159.312V160.736Z"/><rect width="21" height="6" x="156" y="155" fill="var(--vscode-foreground)" fill-opacity=".25" rx="3"/><rect width="37" height="6" x="182" y="155" fill="var(--vscode-editorSuggestWidget-highlightForeground)" rx="3"/><rect width="150" height="6" x="224" y="155" fill="var(--vscode-foreground)" fill-opacity=".25" rx="3"/></g><rect width="335" height="98" x="130" y="72" stroke="var(--vscode-editorSuggestWidget-border)" stroke-width="2"/><a xlink:href="command:workbench.extensions.action.showLanguageExtensions"><g><rect width="477" height="112" fill="transparent" transform="translate(15.3119 237)"/><path fill="#CBCB41" d="M35.8559 248.488H37.8959V254.2C37.8959 255.432 37.6079 256.328 37.0319 256.888C36.5039 257.4 35.7119 257.656 34.6559 257.656C34.4159 257.656 34.1519 257.64 33.8639 257.608C33.5759 257.56 33.3439 257.496 33.1679 257.416L33.3839 255.784C33.6879 255.928 34.0399 256 34.4399 256C34.8879 256 35.2239 255.88 35.4479 255.64C35.7199 255.352 35.8559 254.872 35.8559 254.2V248.488ZM39.6959 255.4C39.9839 255.56 40.3199 255.696 40.7039 255.808C41.1359 255.936 41.5439 256 41.9279 256C42.4079 256 42.7679 255.92 43.0079 255.76C43.2479 255.584 43.3679 255.344 43.3679 255.04C43.3679 254.736 43.2559 254.496 43.0319 254.32C42.8079 254.128 42.4159 253.936 41.8559 253.744C40.2079 253.168 39.3839 252.272 39.3839 251.056C39.3839 250.256 39.6879 249.608 40.2959 249.112C40.9199 248.6 41.7679 248.344 42.8399 248.344C43.6879 248.344 44.4639 248.496 45.1679 248.8L44.7119 250.456L44.5679 250.384C44.2799 250.272 44.0479 250.192 43.8719 250.144C43.5359 250.048 43.1919 250 42.8399 250C42.4079 250 42.0719 250.088 41.8319 250.264C41.6079 250.424 41.4959 250.64 41.4959 250.912C41.4959 251.184 41.6239 251.408 41.8799 251.584C42.0719 251.728 42.4879 251.928 43.1279 252.184C43.9279 252.488 44.5119 252.856 44.8799 253.288C45.2639 253.72 45.4559 254.248 45.4559 254.872C45.4559 255.672 45.1519 256.32 44.5439 256.816C43.8879 257.376 42.9679 257.656 41.7839 257.656C41.3199 257.656 40.8319 257.592 40.3199 257.464C39.9199 257.384 39.5599 257.272 39.2399 257.128L39.6959 255.4Z"/><path fill="var(--vscode-foreground)" d="M62.057 257.083V255.47C62.4717 255.839 62.9001 256.117 63.3422 256.304C63.7842 256.486 64.2422 256.577 64.7162 256.577C65.3679 256.577 65.8213 256.409 66.0765 256.071C66.3363 255.729 66.4662 255.096 66.4662 254.171V248.456H63.8617V247.294H67.847V254.171C67.847 255.456 67.6055 256.365 67.1224 256.898C66.6439 257.432 65.8418 257.698 64.7162 257.698C64.2787 257.698 63.8435 257.648 63.4105 257.548C62.9776 257.448 62.5264 257.293 62.057 257.083ZM74.5463 253.651H74.1293C73.3955 253.651 72.8418 253.781 72.4681 254.041C72.099 254.296 71.9144 254.679 71.9144 255.189C71.9144 255.65 72.0534 256.007 72.3314 256.263C72.6094 256.518 72.9945 256.646 73.4867 256.646C74.1794 256.646 74.724 256.406 75.1205 255.928C75.517 255.445 75.7175 254.779 75.722 253.932V253.651H74.5463ZM76.9867 253.132V257.5H75.722V256.365C75.4532 256.821 75.1136 257.158 74.7035 257.377C74.2979 257.591 73.8034 257.698 73.2201 257.698C72.4408 257.698 71.8187 257.479 71.3539 257.042C70.889 256.6 70.6566 256.01 70.6566 255.271C70.6566 254.419 70.9414 253.772 71.5111 253.33C72.0853 252.888 72.9261 252.667 74.0336 252.667H75.722V252.469C75.7175 251.858 75.5625 251.416 75.2572 251.143C74.9519 250.865 74.4642 250.726 73.7943 250.726C73.3659 250.726 72.933 250.787 72.4955 250.91C72.058 251.033 71.6319 251.213 71.2172 251.45V250.192C71.682 250.015 72.1263 249.882 72.5502 249.796C72.9786 249.705 73.3933 249.659 73.7943 249.659C74.4278 249.659 74.9678 249.753 75.4144 249.939C75.8656 250.126 76.2302 250.407 76.5082 250.78C76.6814 251.008 76.8044 251.291 76.8773 251.628C76.9502 251.961 76.9867 252.462 76.9867 253.132ZM78.8666 249.844H80.1722L82.3939 256.27L84.6224 249.844H85.9281L83.2074 257.5H81.5873L78.8666 249.844ZM91.4174 253.651H91.0004C90.2666 253.651 89.7129 253.781 89.3392 254.041C88.9701 254.296 88.7855 254.679 88.7855 255.189C88.7855 255.65 88.9245 256.007 89.2025 256.263C89.4805 256.518 89.8656 256.646 90.3578 256.646C91.0505 256.646 91.5951 256.406 91.9916 255.928C92.3881 255.445 92.5886 254.779 92.5931 253.932V253.651H91.4174ZM93.8578 253.132V257.5H92.5931V256.365C92.3243 256.821 91.9847 257.158 91.5746 257.377C91.169 257.591 90.6745 257.698 90.0912 257.698C89.3119 257.698 88.6898 257.479 88.225 257.042C87.7601 256.6 87.5277 256.01 87.5277 255.271C87.5277 254.419 87.8125 253.772 88.3822 253.33C88.9564 252.888 89.7972 252.667 90.9047 252.667H92.5931V252.469C92.5886 251.858 92.4336 251.416 92.1283 251.143C91.823 250.865 91.3353 250.726 90.6654 250.726C90.237 250.726 89.8041 250.787 89.3666 250.91C88.9291 251.033 88.503 251.213 88.0883 251.45V250.192C88.5531 250.015 88.9974 249.882 89.4213 249.796C89.8497 249.705 90.2644 249.659 90.6654 249.659C91.2989 249.659 91.8389 249.753 92.2855 249.939C92.7367 250.126 93.1013 250.407 93.3793 250.78C93.5524 251.008 93.6755 251.291 93.7484 251.628C93.8213 251.961 93.8578 252.462 93.8578 253.132ZM101.972 247.643V249.044C101.553 248.775 101.131 248.572 100.707 248.436C100.288 248.299 99.8643 248.23 99.4359 248.23C98.7842 248.23 98.2692 248.383 97.891 248.688C97.5127 248.989 97.3236 249.397 97.3236 249.912C97.3236 250.363 97.4467 250.707 97.6927 250.944C97.9434 251.181 98.4082 251.38 99.0873 251.539L99.8119 251.703C100.769 251.926 101.466 252.277 101.904 252.756C102.341 253.234 102.56 253.886 102.56 254.711C102.56 255.682 102.259 256.422 101.658 256.933C101.056 257.443 100.181 257.698 99.0326 257.698C98.5541 257.698 98.0733 257.646 97.5902 257.541C97.1071 257.441 96.6218 257.288 96.1342 257.083V255.613C96.6582 255.946 97.1527 256.19 97.6176 256.345C98.087 256.5 98.5586 256.577 99.0326 256.577C99.7299 256.577 100.272 256.422 100.66 256.112C101.047 255.798 101.241 255.36 101.241 254.8C101.241 254.289 101.106 253.9 100.837 253.631C100.573 253.362 100.11 253.155 99.4496 253.009L98.7113 252.838C97.7634 252.624 97.0752 252.3 96.6469 251.867C96.2185 251.434 96.0043 250.853 96.0043 250.124C96.0043 249.213 96.3096 248.483 96.9203 247.937C97.5355 247.385 98.3513 247.109 99.3676 247.109C99.7595 247.109 100.172 247.155 100.605 247.246C101.038 247.333 101.494 247.465 101.972 247.643ZM110.743 257.11C110.405 257.306 110.057 257.452 109.697 257.548C109.341 257.648 108.977 257.698 108.603 257.698C107.418 257.698 106.491 257.343 105.821 256.632C105.155 255.921 104.823 254.937 104.823 253.679C104.823 252.421 105.155 251.437 105.821 250.726C106.491 250.015 107.418 249.659 108.603 249.659C108.972 249.659 109.332 249.707 109.683 249.803C110.034 249.898 110.387 250.047 110.743 250.247V251.566C110.41 251.27 110.075 251.056 109.738 250.924C109.405 250.792 109.027 250.726 108.603 250.726C107.814 250.726 107.208 250.981 106.785 251.491C106.361 252.002 106.149 252.731 106.149 253.679C106.149 254.622 106.361 255.351 106.785 255.866C107.213 256.377 107.819 256.632 108.603 256.632C109.04 256.632 109.432 256.566 109.779 256.434C110.125 256.297 110.446 256.087 110.743 255.805V257.11ZM119.821 251.423C119.552 251.213 119.278 251.061 119 250.965C118.722 250.869 118.417 250.821 118.084 250.821C117.3 250.821 116.701 251.067 116.286 251.56C115.872 252.052 115.664 252.763 115.664 253.692V257.5H114.4V249.844H115.664V251.341C115.874 250.799 116.195 250.384 116.628 250.097C117.066 249.805 117.583 249.659 118.18 249.659C118.49 249.659 118.779 249.698 119.048 249.775C119.317 249.853 119.575 249.974 119.821 250.138V251.423ZM122.521 249.871H125.741V256.522H128.236V257.5H121.988V256.522H124.483V250.849H122.521V249.871ZM124.483 246.897H125.741V248.483H124.483V246.897ZM131.36 256.536V260.412H130.095V249.844H131.36V250.821C131.569 250.443 131.847 250.156 132.194 249.96C132.545 249.759 132.948 249.659 133.404 249.659C134.329 249.659 135.053 250.017 135.578 250.732C136.106 251.448 136.37 252.439 136.37 253.706C136.37 254.95 136.106 255.928 135.578 256.639C135.049 257.345 134.324 257.698 133.404 257.698C132.939 257.698 132.531 257.6 132.18 257.404C131.834 257.204 131.56 256.914 131.36 256.536ZM135.051 253.679C135.051 252.703 134.896 251.967 134.586 251.471C134.281 250.974 133.825 250.726 133.219 250.726C132.608 250.726 132.146 250.976 131.831 251.478C131.517 251.974 131.36 252.708 131.36 253.679C131.36 254.645 131.517 255.379 131.831 255.88C132.146 256.381 132.608 256.632 133.219 256.632C133.825 256.632 134.281 256.383 134.586 255.887C134.896 255.39 135.051 254.654 135.051 253.679ZM141.429 247.67V249.844H144.286V250.821H141.429V254.978C141.429 255.543 141.536 255.937 141.75 256.16C141.965 256.383 142.338 256.495 142.871 256.495H144.286V257.5H142.748C141.805 257.5 141.14 257.311 140.752 256.933C140.365 256.554 140.171 255.903 140.171 254.978V250.821H138.127V249.844H140.171V247.67H141.429Z"/><path fill="#519ABA" d="M39.0239 289.856H36.4559V297.488H34.5839V289.856H32.0399V288.488H38.9279V289.856H39.0239ZM44.7839 295.184C44.7839 295.008 44.7519 294.856 44.6879 294.728C44.6239 294.6 44.5359 294.472 44.4239 294.344C44.3279 294.264 44.1839 294.176 43.9919 294.08C43.8639 294.032 43.6399 293.944 43.3199 293.816L43.1279 293.744C42.0879 293.44 41.2639 293.064 40.6559 292.616C40.1119 292.152 39.8399 291.576 39.8399 290.888C39.8399 290.136 40.1679 289.536 40.8239 289.088C41.4159 288.64 42.1999 288.416 43.1759 288.416C44.1679 288.416 44.9839 288.696 45.6239 289.256C46.2159 289.784 46.5119 290.432 46.5119 291.2H44.7839C44.7839 290.976 44.7439 290.784 44.6639 290.624C44.5999 290.464 44.4879 290.304 44.3279 290.144C44.0079 289.904 43.6079 289.784 43.1279 289.784C42.6479 289.784 42.2799 289.88 42.0239 290.072C41.7679 290.264 41.6399 290.536 41.6399 290.888C41.6399 291.176 41.7919 291.432 42.0959 291.656C42.2239 291.752 42.4159 291.848 42.6719 291.944C42.8639 292.024 43.1679 292.128 43.5839 292.256C44.5599 292.544 45.3039 292.912 45.8159 293.36C46.3279 293.792 46.5839 294.4 46.5839 295.184C46.5839 295.568 46.5039 295.92 46.3439 296.24C46.1999 296.544 45.9839 296.792 45.6959 296.984C45.0879 297.432 44.2879 297.656 43.2959 297.656C42.2399 297.656 41.3839 297.4 40.7279 296.888C39.9759 296.296 39.6319 295.576 39.6959 294.728H41.4959C41.4959 295.24 41.6719 295.64 42.0239 295.928C42.1679 296.04 42.3599 296.128 42.5999 296.192C42.8399 296.256 43.0959 296.288 43.3679 296.288C43.9119 296.288 44.2879 296.192 44.4959 296C44.6879 295.696 44.7839 295.424 44.7839 295.184Z"/><path fill="var(--vscode-foreground)" d="M61.6332 287.294H69.4193V288.456H66.2269V297.5H64.8392V288.456H61.6332V287.294ZM75.6127 295.039C75.403 295.572 75.1364 296.274 74.8129 297.145C74.3617 298.348 74.0586 299.081 73.9037 299.346C73.6941 299.701 73.432 299.968 73.1176 300.146C72.8031 300.323 72.4362 300.412 72.017 300.412H71.0052V299.359H71.7504C72.1195 299.359 72.4089 299.252 72.6185 299.038C72.8282 298.824 73.0948 298.27 73.4183 297.377L70.4584 289.844H71.7914L74.0609 295.832L76.2963 289.844H77.6293L75.6127 295.039ZM80.7465 296.536V300.412H79.4818V289.844H80.7465V290.821C80.9561 290.443 81.2341 290.156 81.5804 289.96C81.9314 289.759 82.3347 289.659 82.7904 289.659C83.7155 289.659 84.4401 290.017 84.9642 290.732C85.4929 291.448 85.7572 292.439 85.7572 293.706C85.7572 294.95 85.4929 295.928 84.9642 296.639C84.4356 297.345 83.711 297.698 82.7904 297.698C82.3256 297.698 81.9177 297.6 81.5668 297.404C81.2204 297.204 80.947 296.914 80.7465 296.536ZM84.4379 293.679C84.4379 292.703 84.2829 291.967 83.973 291.471C83.6677 290.974 83.212 290.726 82.6058 290.726C81.9952 290.726 81.5326 290.976 81.2181 291.478C80.9037 291.974 80.7465 292.708 80.7465 293.679C80.7465 294.645 80.9037 295.379 81.2181 295.88C81.5326 296.381 81.9952 296.632 82.6058 296.632C83.212 296.632 83.6677 296.383 83.973 295.887C84.2829 295.39 84.4379 294.654 84.4379 293.679ZM94.2748 293.043V293.658H88.8265V293.699C88.7901 294.743 88.9883 295.493 89.4213 295.948C89.8588 296.404 90.474 296.632 91.267 296.632C91.668 296.632 92.0873 296.568 92.5248 296.44C92.9623 296.313 93.4294 296.119 93.9261 295.859V297.11C93.4476 297.306 92.9851 297.452 92.5385 297.548C92.0964 297.648 91.668 297.698 91.2533 297.698C90.0638 297.698 89.1342 297.343 88.4642 296.632C87.7943 295.916 87.4594 294.932 87.4594 293.679C87.4594 292.457 87.7875 291.482 88.4437 290.753C89.1 290.024 89.975 289.659 91.0687 289.659C92.044 289.659 92.8119 289.99 93.3724 290.65C93.9375 291.311 94.2383 292.109 94.2748 293.043ZM93.017 292.674C92.9623 292.145 92.7686 291.689 92.4359 291.307C92.1078 290.919 91.6338 290.726 91.014 290.726C90.4079 290.726 89.9089 290.926 89.517 291.327C89.125 291.728 88.9108 292.179 88.8744 292.681L93.017 292.674ZM101.972 287.643V289.044C101.553 288.775 101.131 288.572 100.707 288.436C100.288 288.299 99.8643 288.23 99.4359 288.23C98.7842 288.23 98.2692 288.383 97.891 288.688C97.5127 288.989 97.3236 289.397 97.3236 289.912C97.3236 290.363 97.4467 290.707 97.6927 290.944C97.9434 291.181 98.4082 291.38 99.0873 291.539L99.8119 291.703C100.769 291.926 101.466 292.277 101.904 292.756C102.341 293.234 102.56 293.886 102.56 294.711C102.56 295.682 102.259 296.422 101.658 296.933C101.056 297.443 100.181 297.698 99.0326 297.698C98.5541 297.698 98.0733 297.646 97.5902 297.541C97.1071 297.441 96.6218 297.288 96.1342 297.083V295.613C96.6582 295.946 97.1527 296.19 97.6176 296.345C98.087 296.5 98.5586 296.577 99.0326 296.577C99.7299 296.577 100.272 296.422 100.66 296.112C101.047 295.798 101.241 295.36 101.241 294.8C101.241 294.289 101.106 293.9 100.837 293.631C100.573 293.362 100.11 293.155 99.4496 293.009L98.7113 292.838C97.7634 292.624 97.0752 292.3 96.6469 291.867C96.2185 291.434 96.0043 290.853 96.0043 290.124C96.0043 289.213 96.3096 288.483 96.9203 287.937C97.5355 287.385 98.3513 287.109 99.3676 287.109C99.7595 287.109 100.172 287.155 100.605 287.246C101.038 287.333 101.494 287.465 101.972 287.643ZM110.743 297.11C110.405 297.306 110.057 297.452 109.697 297.548C109.341 297.648 108.977 297.698 108.603 297.698C107.418 297.698 106.491 297.343 105.821 296.632C105.155 295.921 104.823 294.937 104.823 293.679C104.823 292.421 105.155 291.437 105.821 290.726C106.491 290.015 107.418 289.659 108.603 289.659C108.972 289.659 109.332 289.707 109.683 289.803C110.034 289.898 110.387 290.047 110.743 290.247V291.566C110.41 291.27 110.075 291.056 109.738 290.924C109.405 290.792 109.027 290.726 108.603 290.726C107.814 290.726 107.208 290.981 106.785 291.491C106.361 292.002 106.149 292.731 106.149 293.679C106.149 294.622 106.361 295.351 106.785 295.866C107.213 296.377 107.819 296.632 108.603 296.632C109.04 296.632 109.432 296.566 109.779 296.434C110.125 296.297 110.446 296.087 110.743 295.805V297.11ZM119.821 291.423C119.552 291.213 119.278 291.061 119 290.965C118.722 290.869 118.417 290.821 118.084 290.821C117.3 290.821 116.701 291.067 116.286 291.56C115.872 292.052 115.664 292.763 115.664 293.692V297.5H114.4V289.844H115.664V291.341C115.874 290.799 116.195 290.384 116.628 290.097C117.066 289.805 117.583 289.659 118.18 289.659C118.49 289.659 118.779 289.698 119.048 289.775C119.317 289.853 119.575 289.974 119.821 290.138V291.423ZM122.521 289.871H125.741V296.522H128.236V297.5H121.988V296.522H124.483V290.849H122.521V289.871ZM124.483 286.897H125.741V288.483H124.483V286.897ZM131.36 296.536V300.412H130.095V289.844H131.36V290.821C131.569 290.443 131.847 290.156 132.194 289.96C132.545 289.759 132.948 289.659 133.404 289.659C134.329 289.659 135.053 290.017 135.578 290.732C136.106 291.448 136.37 292.439 136.37 293.706C136.37 294.95 136.106 295.928 135.578 296.639C135.049 297.345 134.324 297.698 133.404 297.698C132.939 297.698 132.531 297.6 132.18 297.404C131.834 297.204 131.56 296.914 131.36 296.536ZM135.051 293.679C135.051 292.703 134.896 291.967 134.586 291.471C134.281 290.974 133.825 290.726 133.219 290.726C132.608 290.726 132.146 290.976 131.831 291.478C131.517 291.974 131.36 292.708 131.36 293.679C131.36 294.645 131.517 295.379 131.831 295.88C132.146 296.381 132.608 296.632 133.219 296.632C133.825 296.632 134.281 296.383 134.586 295.887C134.896 295.39 135.051 294.654 135.051 293.679ZM141.429 287.67V289.844H144.286V290.821H141.429V294.978C141.429 295.543 141.536 295.937 141.75 296.16C141.965 296.383 142.338 296.495 142.871 296.495H144.286V297.5H142.748C141.805 297.5 141.14 297.311 140.752 296.933C140.365 296.554 140.171 295.903 140.171 294.978V290.821H138.127V289.844H140.171V287.67H141.429Z"/><path fill="#CC3E44" d="M33.3119 332.256L37.8239 328.056V330L34.4399 333L37.8239 336V337.944L33.3119 333.744V332.256ZM45.3119 333.816L40.8239 338.016V336L44.2559 333L40.8239 330V327.984L45.3119 332.184V333.816Z"/><path fill="var(--vscode-foreground)" d="M62.2484 327.294H63.6361V331.204H67.4164V327.294H68.8041V337.5H67.4164V332.366H63.6361V337.5H62.2484V327.294ZM70.0687 327.294H77.8549V328.456H74.6625V337.5H73.2748V328.456H70.0687V327.294ZM78.4291 327.328H80.2748L82.0385 332.51L83.8158 327.328H85.6683V337.5H84.39V328.511L82.5717 333.87H81.5258L79.7006 328.511V337.5H78.4291V327.328ZM88.0883 327.294H89.476V336.338H94.4047V337.5H88.0883V327.294ZM101.131 327.294H102.43L97.057 338.799H95.7513L101.131 327.294ZM110.825 337.138C110.474 337.325 110.114 337.464 109.745 337.555C109.375 337.65 108.983 337.698 108.569 337.698C107.261 337.698 106.245 337.236 105.52 336.311C104.8 335.385 104.44 334.084 104.44 332.407C104.44 330.739 104.802 329.44 105.527 328.511C106.256 327.576 107.27 327.109 108.569 327.109C108.983 327.109 109.375 327.157 109.745 327.253C110.114 327.344 110.474 327.483 110.825 327.67V329.085C110.487 328.807 110.125 328.595 109.738 328.449C109.35 328.303 108.961 328.23 108.569 328.23C107.671 328.23 106.999 328.577 106.552 329.27C106.106 329.962 105.882 331.008 105.882 332.407C105.882 333.802 106.106 334.845 106.552 335.538C106.999 336.231 107.671 336.577 108.569 336.577C108.97 336.577 109.362 336.504 109.745 336.358C110.132 336.213 110.492 336.001 110.825 335.723V337.138ZM118.843 327.643V329.044C118.424 328.775 118.002 328.572 117.578 328.436C117.159 328.299 116.735 328.23 116.307 328.23C115.655 328.23 115.14 328.383 114.762 328.688C114.384 328.989 114.195 329.397 114.195 329.912C114.195 330.363 114.318 330.707 114.564 330.944C114.814 331.181 115.279 331.38 115.958 331.539L116.683 331.703C117.64 331.926 118.337 332.277 118.775 332.756C119.212 333.234 119.431 333.886 119.431 334.711C119.431 335.682 119.13 336.422 118.529 336.933C117.927 337.443 117.052 337.698 115.904 337.698C115.425 337.698 114.944 337.646 114.461 337.541C113.978 337.441 113.493 337.288 113.005 337.083V335.613C113.529 335.946 114.024 336.19 114.489 336.345C114.958 336.5 115.43 336.577 115.904 336.577C116.601 336.577 117.143 336.422 117.531 336.112C117.918 335.798 118.112 335.36 118.112 334.8C118.112 334.289 117.977 333.9 117.708 333.631C117.444 333.362 116.981 333.155 116.321 333.009L115.582 332.838C114.634 332.624 113.946 332.3 113.518 331.867C113.09 331.434 112.875 330.853 112.875 330.124C112.875 329.213 113.181 328.483 113.791 327.937C114.407 327.385 115.222 327.109 116.239 327.109C116.631 327.109 117.043 327.155 117.476 327.246C117.909 327.333 118.365 327.465 118.843 327.643ZM127.279 327.643V329.044C126.859 328.775 126.438 328.572 126.014 328.436C125.595 328.299 125.171 328.23 124.743 328.23C124.091 328.23 123.576 328.383 123.198 328.688C122.819 328.989 122.63 329.397 122.63 329.912C122.63 330.363 122.753 330.707 122.999 330.944C123.25 331.181 123.715 331.38 124.394 331.539L125.119 331.703C126.076 331.926 126.773 332.277 127.21 332.756C127.648 333.234 127.867 333.886 127.867 334.711C127.867 335.682 127.566 336.422 126.964 336.933C126.363 337.443 125.488 337.698 124.339 337.698C123.861 337.698 123.38 337.646 122.897 337.541C122.414 337.441 121.928 337.288 121.441 337.083V335.613C121.965 335.946 122.459 336.19 122.924 336.345C123.394 336.5 123.865 336.577 124.339 336.577C125.036 336.577 125.579 336.422 125.966 336.112C126.354 335.798 126.547 335.36 126.547 334.8C126.547 334.289 126.413 333.9 126.144 333.631C125.88 333.362 125.417 333.155 124.756 333.009L124.018 332.838C123.07 332.624 122.382 332.3 121.953 331.867C121.525 331.434 121.311 330.853 121.311 330.124C121.311 329.213 121.616 328.483 122.227 327.937C122.842 327.385 123.658 327.109 124.674 327.109C125.066 327.109 125.479 327.155 125.911 327.246C126.344 327.333 126.8 327.465 127.279 327.643Z"/><path fill="#519ABA" d="M180.024 252.616H178.512C177.984 252.616 177.56 252.776 177.24 253.096C176.936 253.4 176.784 253.816 176.784 254.344V255.688C176.784 255.848 176.712 255.928 176.568 255.928H175.896C175.192 255.928 174.688 255.624 174.384 255.016C174.144 254.52 174.024 254.072 174.024 253.672C173.928 252.68 174 251.856 174.24 251.2C174.496 250.432 174.968 249.984 175.656 249.856H180C180.16 249.856 180.24 249.832 180.24 249.784V249.4L180.144 249.352C180.08 249.336 180.04 249.328 180.024 249.328H177.456C177.344 249.328 177.264 249.304 177.216 249.256C177.184 249.208 177.168 249.128 177.168 249.016V248.056C177.168 247.496 177.392 247.144 177.84 247C178.336 246.792 178.712 246.664 178.968 246.616C179.928 246.456 180.824 246.48 181.656 246.688C182.072 246.784 182.424 246.936 182.712 247.144C182.888 247.32 183.008 247.48 183.072 247.624C183.168 247.8 183.2 247.992 183.168 248.2V250.888C183.168 251.416 183.024 251.824 182.736 252.112C182.448 252.4 182.04 252.544 181.512 252.544C181.16 252.592 180.664 252.616 180.024 252.616ZM177.912 248.128C177.912 248.288 177.968 248.432 178.08 248.56C178.192 248.672 178.328 248.728 178.488 248.728C178.648 248.728 178.792 248.664 178.92 248.536C179.048 248.408 179.112 248.272 179.112 248.128C179.112 247.984 179.048 247.856 178.92 247.744C178.808 247.632 178.672 247.56 178.512 247.528C178.336 247.528 178.192 247.592 178.08 247.72C177.968 247.832 177.912 247.968 177.912 248.128ZM180.624 253.384H182.112C182.64 253.384 183.056 253.232 183.36 252.928C183.68 252.608 183.84 252.184 183.84 251.656V250.288C183.84 250.144 183.912 250.072 184.056 250.072H184.728C185.432 250.072 185.936 250.376 186.24 250.984C186.496 251.48 186.624 251.928 186.624 252.328C186.704 253.32 186.624 254.144 186.384 254.8C186.128 255.568 185.656 256.016 184.968 256.144H180.624C180.464 256.144 180.384 256.168 180.384 256.216V256.6L180.48 256.648C180.544 256.664 180.592 256.672 180.624 256.672H183.168C183.28 256.672 183.352 256.696 183.384 256.744C183.432 256.792 183.456 256.872 183.456 256.984V257.944C183.456 258.504 183.232 258.856 182.784 259C182.288 259.192 181.912 259.32 181.656 259.384C180.696 259.544 179.8 259.512 178.968 259.288C178.552 259.208 178.2 259.064 177.912 258.856C177.736 258.68 177.616 258.52 177.552 258.376C177.456 258.2 177.424 258.008 177.456 257.8V255.088C177.456 254.576 177.6 254.176 177.888 253.888C178.176 253.6 178.584 253.456 179.112 253.456C179.464 253.408 179.968 253.384 180.624 253.384ZM182.712 257.872C182.712 257.712 182.656 257.576 182.544 257.464C182.432 257.336 182.296 257.272 182.136 257.272C181.976 257.272 181.832 257.336 181.704 257.464C181.576 257.592 181.512 257.728 181.512 257.872C181.512 258.016 181.568 258.144 181.68 258.256C181.808 258.368 181.952 258.44 182.112 258.472C182.288 258.472 182.432 258.416 182.544 258.304C182.656 258.176 182.712 258.032 182.712 257.872Z"/><path fill="var(--vscode-foreground)" d="M205.039 248.429V252.264H206.639C207.277 252.264 207.774 252.095 208.129 251.758C208.489 251.421 208.669 250.949 208.669 250.343C208.669 249.737 208.492 249.267 208.136 248.935C207.781 248.597 207.282 248.429 206.639 248.429H205.039ZM203.659 247.294H206.639C207.778 247.294 208.642 247.554 209.23 248.073C209.818 248.588 210.112 249.345 210.112 250.343C210.112 251.35 209.818 252.111 209.23 252.626C208.647 253.141 207.783 253.398 206.639 253.398H205.039V257.5H203.659V247.294ZM216.613 255.039C216.403 255.572 216.136 256.274 215.813 257.145C215.362 258.348 215.059 259.081 214.904 259.346C214.694 259.701 214.432 259.968 214.118 260.146C213.803 260.323 213.436 260.412 213.017 260.412H212.005V259.359H212.75C213.12 259.359 213.409 259.252 213.619 259.038C213.828 258.824 214.095 258.27 214.418 257.377L211.458 249.844H212.791L215.061 255.832L217.296 249.844H218.629L216.613 255.039ZM223.38 247.67V249.844H226.238V250.821H223.38V254.978C223.38 255.543 223.487 255.937 223.702 256.16C223.916 256.383 224.289 256.495 224.823 256.495H226.238V257.5H224.7C223.756 257.5 223.091 257.311 222.703 256.933C222.316 256.554 222.122 255.903 222.122 254.978V250.821H220.078V249.844H222.122V247.67H223.38ZM234.803 252.756V257.5H233.538V252.756C233.538 252.068 233.418 251.562 233.176 251.238C232.935 250.915 232.556 250.753 232.041 250.753C231.453 250.753 231 250.963 230.681 251.382C230.367 251.797 230.209 252.394 230.209 253.173V257.5H228.952V246.863H230.209V250.992C230.433 250.555 230.736 250.224 231.119 250.001C231.501 249.773 231.955 249.659 232.479 249.659C233.258 249.659 233.839 249.917 234.222 250.432C234.609 250.942 234.803 251.717 234.803 252.756ZM240.265 250.726C239.627 250.726 239.144 250.974 238.816 251.471C238.488 251.967 238.324 252.703 238.324 253.679C238.324 254.649 238.488 255.385 238.816 255.887C239.144 256.383 239.627 256.632 240.265 256.632C240.908 256.632 241.393 256.383 241.721 255.887C242.049 255.385 242.213 254.649 242.213 253.679C242.213 252.703 242.049 251.967 241.721 251.471C241.393 250.974 240.908 250.726 240.265 250.726ZM240.265 249.659C241.327 249.659 242.138 250.003 242.699 250.691C243.264 251.38 243.546 252.375 243.546 253.679C243.546 254.987 243.266 255.985 242.705 256.673C242.145 257.356 241.331 257.698 240.265 257.698C239.203 257.698 238.392 257.356 237.831 256.673C237.271 255.985 236.991 254.987 236.991 253.679C236.991 252.375 237.271 251.38 237.831 250.691C238.392 250.003 239.203 249.659 240.265 249.659ZM251.674 252.756V257.5H250.41V252.756C250.41 252.068 250.289 251.562 250.047 251.238C249.806 250.915 249.427 250.753 248.912 250.753C248.325 250.753 247.871 250.963 247.552 251.382C247.238 251.797 247.08 252.394 247.08 253.173V257.5H245.823V249.844H247.08V250.992C247.304 250.555 247.607 250.224 247.99 250.001C248.372 249.773 248.826 249.659 249.35 249.659C250.129 249.659 250.71 249.917 251.093 250.432C251.481 250.942 251.674 251.717 251.674 252.756Z"/><path fill="#519ABA" d="M174.528 292.616C174.528 291.672 174.68 290.824 174.984 290.072C175.288 289.32 175.68 288.704 176.16 288.224C176.656 287.728 177.264 287.32 177.984 287C178.544 286.744 179.272 286.616 180.168 286.616C180.92 286.616 181.592 286.768 182.184 287.072C182.792 287.376 183.296 287.728 183.696 288.128L182.04 290L181.848 289.856C181.576 289.648 181.368 289.52 181.224 289.472L180.96 289.4C180.64 289.304 180.376 289.256 180.168 289.256C179.816 289.256 179.488 289.328 179.184 289.472C178.848 289.648 178.576 289.88 178.368 290.168C178.16 290.44 177.984 290.792 177.84 291.224C177.696 291.656 177.624 292.12 177.624 292.616C177.624 293.768 177.872 294.592 178.368 295.088C178.624 295.408 178.912 295.64 179.232 295.784C179.552 295.928 179.912 296 180.312 296C180.712 296 181.064 295.928 181.368 295.784C181.704 295.608 181.976 295.376 182.184 295.088L183.84 296.984C183.376 297.512 182.824 297.936 182.184 298.256C181.592 298.544 180.92 298.688 180.168 298.688C179.464 298.688 178.736 298.568 177.984 298.328C177.312 298.104 176.712 297.728 176.184 297.2C175.96 296.96 175.744 296.648 175.536 296.264C175.424 296.04 175.264 295.68 175.056 295.184C174.704 294.48 174.528 293.624 174.528 292.616ZM181.968 290.672H180.912V291.944H179.712V293H180.912V294.344H181.968V293H183.168V291.944H181.968V290.672ZM186.456 291.872V290.384H185.184V291.872H183.768V293.144H185.184V294.728H186.456V293.144H187.896V291.872H186.456Z"/><path fill="var(--vscode-foreground)" d="M209.647 297.138C209.296 297.325 208.936 297.464 208.567 297.555C208.198 297.65 207.806 297.698 207.391 297.698C206.083 297.698 205.067 297.236 204.342 296.311C203.622 295.385 203.262 294.084 203.262 292.407C203.262 290.739 203.624 289.44 204.349 288.511C205.078 287.576 206.092 287.109 207.391 287.109C207.806 287.109 208.198 287.157 208.567 287.253C208.936 287.344 209.296 287.483 209.647 287.67V289.085C209.31 288.807 208.947 288.595 208.56 288.449C208.173 288.303 207.783 288.23 207.391 288.23C206.493 288.23 205.821 288.577 205.374 289.27C204.928 289.962 204.704 291.008 204.704 292.407C204.704 293.802 204.928 294.845 205.374 295.538C205.821 296.231 206.493 296.577 207.391 296.577C207.792 296.577 208.184 296.504 208.567 296.358C208.954 296.213 209.314 296.001 209.647 295.723V297.138ZM216.825 287.294H218.123L212.75 298.799H211.445L216.825 287.294ZM226.518 297.138C226.167 297.325 225.807 297.464 225.438 297.555C225.069 297.65 224.677 297.698 224.262 297.698C222.954 297.698 221.938 297.236 221.213 296.311C220.493 295.385 220.133 294.084 220.133 292.407C220.133 290.739 220.495 289.44 221.22 288.511C221.949 287.576 222.963 287.109 224.262 287.109C224.677 287.109 225.069 287.157 225.438 287.253C225.807 287.344 226.167 287.483 226.518 287.67V289.085C226.181 288.807 225.818 288.595 225.431 288.449C225.044 288.303 224.654 288.23 224.262 288.23C223.364 288.23 222.692 288.577 222.245 289.27C221.799 289.962 221.576 291.008 221.576 292.407C221.576 293.802 221.799 294.845 222.245 295.538C222.692 296.231 223.364 296.577 224.262 296.577C224.663 296.577 225.055 296.504 225.438 296.358C225.825 296.213 226.185 296.001 226.518 295.723V297.138ZM232.54 289.447V292.476H235.582V293.631H232.54V296.659H231.392V293.631H228.357V292.476H231.392V289.447H232.54ZM240.976 289.447V292.476H244.018V293.631H240.976V296.659H239.828V293.631H236.792V292.476H239.828V289.447H240.976Z"/><path fill="#519ABA" d="M173.64 332.928C173.64 331.968 173.784 331.12 174.072 330.384C174.376 329.632 174.776 329.008 175.272 328.512C175.768 328.016 176.376 327.608 177.096 327.288C177.656 327.048 178.376 326.928 179.256 326.928C180.008 326.928 180.68 327.08 181.272 327.384C181.88 327.672 182.384 328.016 182.784 328.416L181.128 330.288L180.936 330.144C180.68 329.936 180.472 329.816 180.312 329.784L180.072 329.712C179.752 329.6 179.48 329.544 179.256 329.544C178.904 329.544 178.584 329.624 178.296 329.784C177.944 329.944 177.664 330.168 177.456 330.456C177.248 330.728 177.072 331.088 176.928 331.536C176.784 331.968 176.712 332.432 176.712 332.928C176.712 334.08 176.96 334.904 177.456 335.4C177.728 335.704 178.016 335.936 178.32 336.096C178.64 336.24 179 336.312 179.4 336.312C179.8 336.312 180.152 336.232 180.456 336.072C180.792 335.912 181.072 335.688 181.296 335.4L182.928 337.272C182.464 337.8 181.92 338.224 181.296 338.544C180.688 338.848 180.008 339 179.256 339C178.568 339 177.848 338.872 177.096 338.616C176.408 338.392 175.808 338.024 175.296 337.512C175.056 337.272 174.84 336.96 174.648 336.576C174.52 336.336 174.36 335.968 174.168 335.472C173.816 334.848 173.64 334 173.64 332.928ZM184.656 333.816H183.912L183.624 335.616H182.712L183.024 333.816H182.112V333H183.24L183.384 331.8H182.424V330.984H183.528L183.84 329.184H184.728L184.44 330.984H185.184L185.496 329.184H186.384L186.096 330.984H187.056V331.8H185.856L185.712 333H186.696V333.816H185.496L185.184 335.616H184.296C184.296 335.648 184.352 335.36 184.464 334.752L184.656 333.816ZM184.056 333.072H184.824L184.968 331.872H184.224L184.056 333.072Z"/><path fill="var(--vscode-foreground)" d="M209.647 337.138C209.296 337.325 208.936 337.464 208.567 337.555C208.198 337.65 207.806 337.698 207.391 337.698C206.083 337.698 205.067 337.236 204.342 336.311C203.622 335.385 203.262 334.084 203.262 332.407C203.262 330.739 203.624 329.44 204.349 328.511C205.078 327.576 206.092 327.109 207.391 327.109C207.806 327.109 208.198 327.157 208.567 327.253C208.936 327.344 209.296 327.483 209.647 327.67V329.085C209.31 328.807 208.947 328.595 208.56 328.449C208.173 328.303 207.783 328.23 207.391 328.23C206.493 328.23 205.821 328.577 205.374 329.27C204.928 329.962 204.704 331.008 204.704 332.407C204.704 333.802 204.928 334.845 205.374 335.538C205.821 336.231 206.493 336.577 207.391 336.577C207.792 336.577 208.184 336.504 208.567 336.358C208.954 336.213 209.314 336.001 209.647 335.723V337.138ZM215.423 327.485L214.808 329.905H216.483L217.105 327.485H218.199L217.577 329.905H219.245V330.951H217.324L216.654 333.638H218.363V334.684H216.387L215.676 337.5H214.582L215.3 334.684H213.619L212.901 337.5H211.814L212.525 334.684H210.761V333.638H212.791L213.461 330.951H211.643V329.905H213.714L214.329 327.485H215.423ZM216.23 330.951H214.555L213.885 333.638H215.567L216.23 330.951Z"/><path fill="#CC3E44" d="M289.312 245.8C288.016 245.8 286.808 246.128 285.688 246.784C284.6 247.424 283.736 248.288 283.096 249.376C282.44 250.496 282.112 251.704 282.112 253C282.112 254.296 282.44 255.504 283.096 256.624C283.736 257.712 284.6 258.576 285.688 259.216C286.808 259.872 288.016 260.2 289.312 260.2C290.608 260.2 291.816 259.872 292.936 259.216C294.024 258.576 294.888 257.712 295.528 256.624C296.184 255.504 296.512 254.296 296.512 253C296.512 251.704 296.184 250.496 295.528 249.376C294.888 248.288 294.024 247.424 292.936 246.784C291.816 246.128 290.608 245.8 289.312 245.8ZM291.88 253.96C291.928 254.344 291.888 254.72 291.76 255.088C291.648 255.456 291.456 255.784 291.184 256.072C290.912 256.344 290.6 256.552 290.248 256.696C289.896 256.824 289.528 256.872 289.144 256.84C288.68 256.872 288.232 256.8 287.8 256.624C287.384 256.432 287.032 256.16 286.744 255.808L287.608 254.704C287.784 254.928 288 255.104 288.256 255.232C288.512 255.36 288.792 255.424 289.096 255.424C289.496 255.424 289.808 255.296 290.032 255.04C290.256 254.768 290.368 254.368 290.368 253.84V249.16H291.88V253.96Z"/><path fill="var(--vscode-foreground)" d="M312.057 257.083V255.47C312.472 255.839 312.9 256.117 313.342 256.304C313.784 256.486 314.242 256.577 314.716 256.577C315.368 256.577 315.821 256.409 316.077 256.071C316.336 255.729 316.466 255.096 316.466 254.171V248.456H313.862V247.294H317.847V254.171C317.847 255.456 317.606 256.365 317.122 256.898C316.644 257.432 315.842 257.698 314.716 257.698C314.279 257.698 313.843 257.648 313.411 257.548C312.978 257.448 312.526 257.293 312.057 257.083ZM324.546 253.651H324.129C323.396 253.651 322.842 253.781 322.468 254.041C322.099 254.296 321.914 254.679 321.914 255.189C321.914 255.65 322.053 256.007 322.331 256.263C322.609 256.518 322.995 256.646 323.487 256.646C324.179 256.646 324.724 256.406 325.12 255.928C325.517 255.445 325.717 254.779 325.722 253.932V253.651H324.546ZM326.987 253.132V257.5H325.722V256.365C325.453 256.821 325.114 257.158 324.703 257.377C324.298 257.591 323.803 257.698 323.22 257.698C322.441 257.698 321.819 257.479 321.354 257.042C320.889 256.6 320.657 256.01 320.657 255.271C320.657 254.419 320.941 253.772 321.511 253.33C322.085 252.888 322.926 252.667 324.034 252.667H325.722V252.469C325.717 251.858 325.563 251.416 325.257 251.143C324.952 250.865 324.464 250.726 323.794 250.726C323.366 250.726 322.933 250.787 322.495 250.91C322.058 251.033 321.632 251.213 321.217 251.45V250.192C321.682 250.015 322.126 249.882 322.55 249.796C322.979 249.705 323.393 249.659 323.794 249.659C324.428 249.659 324.968 249.753 325.414 249.939C325.866 250.126 326.23 250.407 326.508 250.78C326.681 251.008 326.804 251.291 326.877 251.628C326.95 251.961 326.987 252.462 326.987 253.132ZM328.867 249.844H330.172L332.394 256.27L334.622 249.844H335.928L333.207 257.5H331.587L328.867 249.844ZM341.417 253.651H341C340.267 253.651 339.713 253.781 339.339 254.041C338.97 254.296 338.786 254.679 338.786 255.189C338.786 255.65 338.925 256.007 339.203 256.263C339.481 256.518 339.866 256.646 340.358 256.646C341.05 256.646 341.595 256.406 341.992 255.928C342.388 255.445 342.589 254.779 342.593 253.932V253.651H341.417ZM343.858 253.132V257.5H342.593V256.365C342.324 256.821 341.985 257.158 341.575 257.377C341.169 257.591 340.675 257.698 340.091 257.698C339.312 257.698 338.69 257.479 338.225 257.042C337.76 256.6 337.528 256.01 337.528 255.271C337.528 254.419 337.813 253.772 338.382 253.33C338.956 252.888 339.797 252.667 340.905 252.667H342.593V252.469C342.589 251.858 342.434 251.416 342.128 251.143C341.823 250.865 341.335 250.726 340.665 250.726C340.237 250.726 339.804 250.787 339.367 250.91C338.929 251.033 338.503 251.213 338.088 251.45V250.192C338.553 250.015 338.997 249.882 339.421 249.796C339.85 249.705 340.264 249.659 340.665 249.659C341.299 249.659 341.839 249.753 342.286 249.939C342.737 250.126 343.101 250.407 343.379 250.78C343.552 251.008 343.675 251.291 343.748 251.628C343.821 251.961 343.858 252.462 343.858 253.132Z"/><path fill="#CBCB41" d="M282.928 292.328C283.44 292.328 283.8 292.208 284.008 291.968C284.152 291.792 284.224 291.536 284.224 291.2C284.224 291.056 284.208 290.848 284.176 290.576C284.144 290.288 284.128 290.072 284.128 289.928C284.128 289.768 284.12 289.536 284.104 289.232C284.072 288.96 284.056 288.768 284.056 288.656C284.056 287.888 284.28 287.32 284.728 286.952C285.176 286.584 285.808 286.4 286.624 286.4H287.224V287.816H286.912C286.56 287.816 286.304 287.92 286.144 288.128C286 288.32 285.928 288.616 285.928 289.016C285.928 289.112 285.944 289.256 285.976 289.448C286.008 289.688 286.024 289.872 286.024 290C286.024 290.096 286.032 290.248 286.048 290.456C286.08 290.744 286.096 290.968 286.096 291.128C286.096 291.736 285.968 292.192 285.712 292.496C285.488 292.768 285.136 292.96 284.656 293.072C285.136 293.2 285.488 293.392 285.712 293.648C285.968 293.968 286.096 294.424 286.096 295.016C286.096 295.192 286.08 295.424 286.048 295.712C286.016 295.92 286 296.072 286 296.168C286.016 296.264 286.008 296.432 285.976 296.672C285.944 296.848 285.928 296.976 285.928 297.056C285.928 297.456 286 297.76 286.144 297.968C286.304 298.16 286.56 298.256 286.912 298.256H287.224V299.672H286.624C284.96 299.672 284.128 298.92 284.128 297.416C284.128 296.872 284.152 296.456 284.2 296.168C284.264 295.864 284.296 295.432 284.296 294.872C284.296 294.12 283.872 293.744 283.024 293.744L282.928 292.328ZM295.696 293.6C294.848 293.6 294.424 293.976 294.424 294.728C294.424 294.872 294.432 295.088 294.448 295.376C294.48 295.648 294.496 295.856 294.496 296C294.544 296.304 294.568 296.728 294.568 297.272C294.568 298.776 293.72 299.528 292.024 299.528H291.424V298.256H291.712C292.064 298.256 292.312 298.16 292.456 297.968C292.616 297.76 292.696 297.456 292.696 297.056C292.696 296.656 292.672 296.352 292.624 296.144C292.624 296.016 292.608 295.832 292.576 295.592C292.544 295.336 292.528 295.144 292.528 295.016C292.528 294.424 292.656 293.968 292.912 293.648C293.136 293.392 293.488 293.2 293.968 293.072C293.488 292.96 293.136 292.768 292.912 292.496C292.656 292.192 292.528 291.736 292.528 291.128C292.528 290.968 292.544 290.744 292.576 290.456C292.608 290.248 292.624 290.096 292.624 290C292.672 289.744 292.696 289.424 292.696 289.04C292.696 288.656 292.616 288.368 292.456 288.176C292.296 287.984 292.048 287.864 291.712 287.816H291.424V286.4H292.024C292.824 286.4 293.448 286.584 293.896 286.952C294.344 287.32 294.568 287.888 294.568 288.656C294.568 288.8 294.552 289.016 294.52 289.304C294.504 289.576 294.496 289.784 294.496 289.928C294.448 290.232 294.416 290.656 294.4 291.2C294.416 291.536 294.488 291.792 294.616 291.968C294.824 292.208 295.184 292.328 295.696 292.328V293.6Z"/><path fill="var(--vscode-foreground)" d="M312.057 297.083V295.47C312.472 295.839 312.9 296.117 313.342 296.304C313.784 296.486 314.242 296.577 314.716 296.577C315.368 296.577 315.821 296.409 316.077 296.071C316.336 295.729 316.466 295.096 316.466 294.171V288.456H313.862V287.294H317.847V294.171C317.847 295.456 317.606 296.365 317.122 296.898C316.644 297.432 315.842 297.698 314.716 297.698C314.279 297.698 313.843 297.648 313.411 297.548C312.978 297.448 312.526 297.293 312.057 297.083ZM326.665 287.643V289.044C326.246 288.775 325.825 288.572 325.401 288.436C324.981 288.299 324.558 288.23 324.129 288.23C323.478 288.23 322.963 288.383 322.584 288.688C322.206 288.989 322.017 289.397 322.017 289.912C322.017 290.363 322.14 290.707 322.386 290.944C322.637 291.181 323.102 291.38 323.781 291.539L324.505 291.703C325.462 291.926 326.16 292.277 326.597 292.756C327.035 293.234 327.253 293.886 327.253 294.711C327.253 295.682 326.953 296.422 326.351 296.933C325.749 297.443 324.874 297.698 323.726 297.698C323.247 297.698 322.767 297.646 322.284 297.541C321.8 297.441 321.315 297.288 320.828 297.083V295.613C321.352 295.946 321.846 296.19 322.311 296.345C322.78 296.5 323.252 296.577 323.726 296.577C324.423 296.577 324.966 296.422 325.353 296.112C325.74 295.798 325.934 295.36 325.934 294.8C325.934 294.289 325.8 293.9 325.531 293.631C325.266 293.362 324.804 293.155 324.143 293.009L323.405 292.838C322.457 292.624 321.769 292.3 321.34 291.867C320.912 291.434 320.698 290.853 320.698 290.124C320.698 289.213 321.003 288.483 321.614 287.937C322.229 287.385 323.045 287.109 324.061 287.109C324.453 287.109 324.865 287.155 325.298 287.246C325.731 287.333 326.187 287.465 326.665 287.643ZM334.37 292.407C334.37 290.908 334.215 289.837 333.905 289.194C333.599 288.552 333.096 288.23 332.394 288.23C331.697 288.23 331.193 288.552 330.883 289.194C330.578 289.837 330.425 290.908 330.425 292.407C330.425 293.902 330.578 294.971 330.883 295.613C331.193 296.256 331.697 296.577 332.394 296.577C333.096 296.577 333.599 296.258 333.905 295.62C334.215 294.978 334.37 293.907 334.37 292.407ZM335.812 292.407C335.812 294.185 335.529 295.511 334.964 296.386C334.404 297.261 333.547 297.698 332.394 297.698C331.241 297.698 330.384 297.263 329.824 296.393C329.263 295.522 328.983 294.194 328.983 292.407C328.983 290.625 329.263 289.297 329.824 288.422C330.389 287.547 331.245 287.109 332.394 287.109C333.547 287.109 334.404 287.547 334.964 288.422C335.529 289.297 335.812 290.625 335.812 292.407ZM336.748 287.328H338.635L342.627 295.702V287.328H344.097V297.5H342.21L338.218 289.126V297.5H336.748V287.328Z"/><path fill="#A074C4" d="M286.84 335.784C286.76 335.272 286.512 334.944 286.096 334.8L285.568 334.488C285.264 334.392 285.064 334.32 284.968 334.272C284.824 334.208 284.672 334.256 284.512 334.416C284.448 334.56 284.472 334.688 284.584 334.8C284.632 334.896 284.736 335.024 284.896 335.184C284.992 335.328 285.168 335.528 285.424 335.784L285.472 335.856C285.552 335.968 285.6 336.056 285.616 336.12C285.664 336.216 285.672 336.328 285.64 336.456C285.56 337.032 285.336 337.504 284.968 337.872C284.936 337.904 284.896 337.928 284.848 337.944H284.824C284.712 337.944 284.584 337.92 284.44 337.872C284.312 337.808 284.208 337.736 284.128 337.656C284.032 337.544 283.992 337.44 284.008 337.344C284.024 337.232 284.096 337.136 284.224 337.056C284.256 337.056 284.288 337.04 284.32 337.008C284.352 336.976 284.368 336.936 284.368 336.888C284.528 336.728 284.576 336.56 284.512 336.384C284.48 336.352 284.448 336.312 284.416 336.264C284.4 336.216 284.384 336.176 284.368 336.144C284.16 335.952 283.808 335.656 283.312 335.256C282.384 334.536 281.888 333.632 281.824 332.544C281.744 331.392 282.016 330.272 282.64 329.184C282.912 328.72 283.24 328.392 283.624 328.2C283.816 328.104 284.112 328 284.512 327.888C285.52 327.616 286.392 327.544 287.128 327.672C287.976 327.848 288.504 328.272 288.712 328.944C288.872 329.52 288.92 330.024 288.856 330.456C288.824 330.968 288.624 331.432 288.256 331.848C287.904 332.264 287.48 332.544 286.984 332.688C286.76 332.768 286.584 332.792 286.456 332.76C286.328 332.712 286.208 332.592 286.096 332.4L285.976 332.232C285.784 331.944 285.648 331.728 285.568 331.584V331.488C285.568 331.472 285.552 331.456 285.52 331.44C285.504 331.408 285.496 331.376 285.496 331.344C285.544 331.648 285.584 331.872 285.616 332.016C285.68 332.256 285.76 332.456 285.856 332.616C285.952 332.744 286.04 332.84 286.12 332.904C286.216 332.968 286.328 333 286.456 333C287.432 333.08 288.208 332.752 288.784 332.016C289.344 331.248 289.544 330.304 289.384 329.184C289.384 329.056 289.352 328.896 289.288 328.704L289.24 328.584C289.24 328.488 289.248 328.424 289.264 328.392C289.28 328.344 289.32 328.304 289.384 328.272C289.48 328.272 289.528 328.248 289.528 328.2C290.392 328.024 291.168 327.976 291.856 328.056C292.848 328.136 293.672 328.408 294.328 328.872C295.48 329.592 296.256 330.664 296.656 332.088C296.704 332.248 296.728 332.448 296.728 332.688C296.728 332.768 296.712 332.816 296.68 332.832C296.648 332.832 296.592 332.816 296.512 332.784C296.448 332.736 296.368 332.664 296.272 332.568L296.224 332.472C296.192 332.456 296.152 332.408 296.104 332.328C296.056 332.248 296.016 332.192 295.984 332.16C295.952 332.128 295.92 332.112 295.888 332.112C295.856 332.112 295.84 332.128 295.84 332.16C295.84 332.192 295.824 332.232 295.792 332.28C295.776 332.328 295.768 332.368 295.768 332.4C295.512 333.264 295.16 333.912 294.712 334.344C294.68 334.392 294.648 334.448 294.616 334.512C294.584 334.56 294.568 334.608 294.568 334.656L294.544 334.944C294.528 335.216 294.536 335.416 294.568 335.544L294.784 337.416C294.816 337.592 294.8 337.728 294.736 337.824C294.688 337.92 294.576 338.008 294.4 338.088C294.112 338.2 293.864 338.256 293.656 338.256H292.456C292.456 337.952 292.44 337.736 292.408 337.608C292.36 337.384 292.256 337.224 292.096 337.128C292.192 336.728 292.264 336.4 292.312 336.144C292.376 335.888 292.328 335.64 292.168 335.4C292.04 335.208 291.84 335.16 291.568 335.256C291.024 335.592 290.4 335.64 289.696 335.4C289.52 335.352 289.376 335.344 289.264 335.376C289.168 335.408 289.088 335.488 289.024 335.616C288.864 335.92 288.784 336.224 288.784 336.528C288.784 336.832 288.832 337.232 288.928 337.728C288.928 337.856 288.92 337.944 288.904 337.992C288.888 338.024 288.824 338.056 288.712 338.088C288.232 338.232 287.736 338.264 287.224 338.184H287.128C287.128 337.88 287.112 337.664 287.08 337.536C287 337.312 286.848 337.152 286.624 337.056C286.864 336.8 286.936 336.376 286.84 335.784ZM283.768 334.056C283.864 333.944 283.912 333.84 283.912 333.744C283.944 333.632 283.92 333.504 283.84 333.36C283.76 333.216 283.656 333.12 283.528 333.072C283.464 333.04 283.408 333.032 283.36 333.048C283.328 333.064 283.288 333.096 283.24 333.144C283.16 333.224 283.056 333.344 282.928 333.504C282.816 333.648 282.72 333.752 282.64 333.816C282.64 333.848 282.624 333.88 282.592 333.912C282.576 333.928 282.568 333.952 282.568 333.984C282.52 334.048 282.512 334.112 282.544 334.176C282.576 334.24 282.632 334.272 282.712 334.272C282.856 334.272 282.96 334.296 283.024 334.344C283.312 334.344 283.56 334.248 283.768 334.056ZM283.768 331.584C283.768 331.504 283.736 331.432 283.672 331.368C283.608 331.304 283.536 331.272 283.456 331.272C283.376 331.272 283.296 331.312 283.216 331.392C283.152 331.456 283.136 331.544 283.168 331.656C283.168 331.736 283.2 331.808 283.264 331.872C283.344 331.92 283.432 331.944 283.528 331.944C283.688 331.8 283.768 331.68 283.768 331.584Z"/><path fill="var(--vscode-foreground)" d="M314.039 328.429V332.264H315.639C316.277 332.264 316.774 332.095 317.129 331.758C317.489 331.421 317.669 330.949 317.669 330.343C317.669 329.737 317.492 329.267 317.136 328.935C316.781 328.597 316.282 328.429 315.639 328.429H314.039ZM312.659 327.294H315.639C316.778 327.294 317.642 327.554 318.23 328.073C318.818 328.588 319.112 329.345 319.112 330.343C319.112 331.35 318.818 332.111 318.23 332.626C317.647 333.141 316.783 333.398 315.639 333.398H314.039V337.5H312.659V327.294ZM320.684 327.294H322.072V331.204H325.852V327.294H327.24V337.5H325.852V332.366H322.072V337.5H320.684V327.294ZM330.911 328.429V332.264H332.51C333.148 332.264 333.645 332.095 334 331.758C334.36 331.421 334.54 330.949 334.54 330.343C334.54 329.737 334.363 329.267 334.007 328.935C333.652 328.597 333.153 328.429 332.51 328.429H330.911ZM329.53 327.294H332.51C333.649 327.294 334.513 327.554 335.101 328.073C335.689 328.588 335.983 329.345 335.983 330.343C335.983 331.35 335.689 332.111 335.101 332.626C334.518 333.141 333.654 333.398 332.51 333.398H330.911V337.5H329.53V327.294Z"/><path fill="#519ABA" d="M384.84 246.016V253.456H387.696C386.24 254.944 384.064 257.144 381.168 260.056L374.856 253.528H377.496V245.944L377.784 246.16C378.664 246.768 379.328 247.216 379.776 247.504C380.576 248.016 381.056 248.272 381.216 248.272C381.392 248.272 381.784 248.072 382.392 247.672C382.76 247.448 383.32 247.072 384.072 246.544L384.84 246.016Z"/><path fill="var(--vscode-foreground)" d="M403.558 247.328H405.404L407.167 252.51L408.945 247.328H410.797V257.5H409.519V248.511L407.701 253.87H406.655L404.829 248.511V257.5H403.558V247.328ZM416.546 253.651H416.129C415.396 253.651 414.842 253.781 414.468 254.041C414.099 254.296 413.914 254.679 413.914 255.189C413.914 255.65 414.053 256.007 414.331 256.263C414.609 256.518 414.995 256.646 415.487 256.646C416.179 256.646 416.724 256.406 417.12 255.928C417.517 255.445 417.717 254.779 417.722 253.932V253.651H416.546ZM418.987 253.132V257.5H417.722V256.365C417.453 256.821 417.114 257.158 416.703 257.377C416.298 257.591 415.803 257.698 415.22 257.698C414.441 257.698 413.819 257.479 413.354 257.042C412.889 256.6 412.657 256.01 412.657 255.271C412.657 254.419 412.941 253.772 413.511 253.33C414.085 252.888 414.926 252.667 416.034 252.667H417.722V252.469C417.717 251.858 417.563 251.416 417.257 251.143C416.952 250.865 416.464 250.726 415.794 250.726C415.366 250.726 414.933 250.787 414.495 250.91C414.058 251.033 413.632 251.213 413.217 251.45V250.192C413.682 250.015 414.126 249.882 414.55 249.796C414.979 249.705 415.393 249.659 415.794 249.659C416.428 249.659 416.968 249.753 417.414 249.939C417.866 250.126 418.23 250.407 418.508 250.78C418.681 251.008 418.804 251.291 418.877 251.628C418.95 251.961 418.987 252.462 418.987 253.132ZM428.078 251.423C427.81 251.213 427.536 251.061 427.258 250.965C426.98 250.869 426.675 250.821 426.342 250.821C425.558 250.821 424.959 251.067 424.544 251.56C424.13 252.052 423.922 252.763 423.922 253.692V257.5H422.658V249.844H423.922V251.341C424.132 250.799 424.453 250.384 424.886 250.097C425.324 249.805 425.841 249.659 426.438 249.659C426.748 249.659 427.037 249.698 427.306 249.775C427.575 249.853 427.832 249.974 428.078 250.138V251.423ZM430.232 246.863H431.531V253.022L434.832 249.844H436.364L433.349 252.729L436.835 257.5H435.297L432.467 253.549L431.531 254.431V257.5H430.232V246.863ZM442.919 250.821V246.863H444.177V257.5H442.919V256.536C442.71 256.914 442.429 257.204 442.078 257.404C441.732 257.6 441.331 257.698 440.875 257.698C439.95 257.698 439.221 257.34 438.688 256.625C438.159 255.905 437.895 254.914 437.895 253.651C437.895 252.407 438.161 251.432 438.695 250.726C439.228 250.015 439.955 249.659 440.875 249.659C441.336 249.659 441.741 249.759 442.092 249.96C442.443 250.156 442.719 250.443 442.919 250.821ZM439.221 253.679C439.221 254.654 439.376 255.39 439.686 255.887C439.996 256.383 440.454 256.632 441.06 256.632C441.666 256.632 442.126 256.381 442.441 255.88C442.76 255.379 442.919 254.645 442.919 253.679C442.919 252.708 442.76 251.974 442.441 251.478C442.126 250.976 441.666 250.726 441.06 250.726C440.454 250.726 439.996 250.974 439.686 251.471C439.376 251.967 439.221 252.703 439.221 253.679ZM449.701 250.726C449.063 250.726 448.579 250.974 448.251 251.471C447.923 251.967 447.759 252.703 447.759 253.679C447.759 254.649 447.923 255.385 448.251 255.887C448.579 256.383 449.063 256.632 449.701 256.632C450.343 256.632 450.828 256.383 451.157 255.887C451.485 255.385 451.649 254.649 451.649 253.679C451.649 252.703 451.485 251.967 451.157 251.471C450.828 250.974 450.343 250.726 449.701 250.726ZM449.701 249.659C450.762 249.659 451.574 250.003 452.134 250.691C452.699 251.38 452.982 252.375 452.982 253.679C452.982 254.987 452.702 255.985 452.141 256.673C451.58 257.356 450.767 257.698 449.701 257.698C448.639 257.698 447.828 257.356 447.267 256.673C446.706 255.985 446.426 254.987 446.426 253.679C446.426 252.375 446.706 251.38 447.267 250.691C447.828 250.003 448.639 249.659 449.701 249.659ZM453.925 249.844H455.169L456.502 256.03L457.596 252.079H458.669L459.777 256.03L461.11 249.844H462.354L460.563 257.5H459.36L458.136 253.303L456.919 257.5H455.716L453.925 249.844ZM469.545 252.756V257.5H468.281V252.756C468.281 252.068 468.16 251.562 467.918 251.238C467.677 250.915 467.299 250.753 466.784 250.753C466.196 250.753 465.742 250.963 465.423 251.382C465.109 251.797 464.952 252.394 464.952 253.173V257.5H463.694V249.844H464.952V250.992C465.175 250.555 465.478 250.224 465.861 250.001C466.244 249.773 466.697 249.659 467.221 249.659C468 249.659 468.581 249.917 468.964 250.432C469.352 250.942 469.545 251.717 469.545 252.756Z"/><path fill="#519ABA" d="M374.712 295.88L380.184 292.928L374.736 289.616V286.112L383.952 292.064V294.08L374.712 299.36V295.88ZM388.656 299.768H380.664V297.776H388.656V299.768Z"/><path fill="var(--vscode-foreground)" d="M406.039 288.429V292.264H407.639C408.277 292.264 408.774 292.095 409.129 291.758C409.489 291.421 409.669 290.949 409.669 290.343C409.669 289.737 409.492 289.267 409.136 288.935C408.781 288.597 408.282 288.429 407.639 288.429H406.039ZM404.659 287.294H407.639C408.778 287.294 409.642 287.554 410.23 288.073C410.818 288.588 411.112 289.345 411.112 290.343C411.112 291.35 410.818 292.111 410.23 292.626C409.647 293.141 408.783 293.398 407.639 293.398H406.039V297.5H404.659V287.294ZM415.958 290.726C415.32 290.726 414.837 290.974 414.509 291.471C414.181 291.967 414.017 292.703 414.017 293.679C414.017 294.649 414.181 295.385 414.509 295.887C414.837 296.383 415.32 296.632 415.958 296.632C416.601 296.632 417.086 296.383 417.414 295.887C417.743 295.385 417.907 294.649 417.907 293.679C417.907 292.703 417.743 291.967 417.414 291.471C417.086 290.974 416.601 290.726 415.958 290.726ZM415.958 289.659C417.02 289.659 417.831 290.003 418.392 290.691C418.957 291.38 419.24 292.375 419.24 293.679C419.24 294.987 418.959 295.985 418.399 296.673C417.838 297.356 417.025 297.698 415.958 297.698C414.897 297.698 414.085 297.356 413.525 296.673C412.964 295.985 412.684 294.987 412.684 293.679C412.684 292.375 412.964 291.38 413.525 290.691C414.085 290.003 414.897 289.659 415.958 289.659ZM420.183 289.844H421.427L422.76 296.03L423.854 292.079H424.927L426.035 296.03L427.368 289.844H428.612L426.821 297.5H425.618L424.394 293.303L423.177 297.5H421.974L420.183 289.844ZM436.275 293.043V293.658H430.827V293.699C430.79 294.743 430.988 295.493 431.421 295.948C431.859 296.404 432.474 296.632 433.267 296.632C433.668 296.632 434.087 296.568 434.525 296.44C434.962 296.313 435.429 296.119 435.926 295.859V297.11C435.448 297.306 434.985 297.452 434.538 297.548C434.096 297.648 433.668 297.698 433.253 297.698C432.064 297.698 431.134 297.343 430.464 296.632C429.794 295.916 429.459 294.932 429.459 293.679C429.459 292.457 429.787 291.482 430.444 290.753C431.1 290.024 431.975 289.659 433.069 289.659C434.044 289.659 434.812 289.99 435.372 290.65C435.938 291.311 436.238 292.109 436.275 293.043ZM435.017 292.674C434.962 292.145 434.769 291.689 434.436 291.307C434.108 290.919 433.634 290.726 433.014 290.726C432.408 290.726 431.909 290.926 431.517 291.327C431.125 291.728 430.911 292.179 430.874 292.681L435.017 292.674ZM444.95 291.423C444.681 291.213 444.407 291.061 444.129 290.965C443.851 290.869 443.546 290.821 443.213 290.821C442.429 290.821 441.83 291.067 441.415 291.56C441.001 292.052 440.793 292.763 440.793 293.692V297.5H439.529V289.844H440.793V291.341C441.003 290.799 441.324 290.384 441.757 290.097C442.195 289.805 442.712 289.659 443.309 289.659C443.619 289.659 443.908 289.698 444.177 289.775C444.446 289.853 444.703 289.974 444.95 290.138V291.423ZM452.408 287.643V289.044C451.988 288.775 451.567 288.572 451.143 288.436C450.724 288.299 450.3 288.23 449.871 288.23C449.22 288.23 448.705 288.383 448.327 288.688C447.948 288.989 447.759 289.397 447.759 289.912C447.759 290.363 447.882 290.707 448.128 290.944C448.379 291.181 448.844 291.38 449.523 291.539L450.247 291.703C451.204 291.926 451.902 292.277 452.339 292.756C452.777 293.234 452.995 293.886 452.995 294.711C452.995 295.682 452.695 296.422 452.093 296.933C451.492 297.443 450.617 297.698 449.468 297.698C448.99 297.698 448.509 297.646 448.026 297.541C447.543 297.441 447.057 297.288 446.57 297.083V295.613C447.094 295.946 447.588 296.19 448.053 296.345C448.523 296.5 448.994 296.577 449.468 296.577C450.165 296.577 450.708 296.422 451.095 296.112C451.482 295.798 451.676 295.36 451.676 294.8C451.676 294.289 451.542 293.9 451.273 293.631C451.009 293.362 450.546 293.155 449.885 293.009L449.147 292.838C448.199 292.624 447.511 292.3 447.082 291.867C446.654 291.434 446.44 290.853 446.44 290.124C446.44 289.213 446.745 288.483 447.356 287.937C447.971 287.385 448.787 287.109 449.803 287.109C450.195 287.109 450.607 287.155 451.04 287.246C451.473 287.333 451.929 287.465 452.408 287.643ZM461.11 292.756V297.5H459.845V292.756C459.845 292.068 459.724 291.562 459.483 291.238C459.241 290.915 458.863 290.753 458.348 290.753C457.76 290.753 457.307 290.963 456.988 291.382C456.673 291.797 456.516 292.394 456.516 293.173V297.5H455.258V286.863H456.516V290.992C456.739 290.555 457.042 290.224 457.425 290.001C457.808 289.773 458.261 289.659 458.786 289.659C459.565 289.659 460.146 289.917 460.529 290.432C460.916 290.942 461.11 291.717 461.11 292.756ZM470.017 293.043V293.658H464.569V293.699C464.532 294.743 464.731 295.493 465.163 295.948C465.601 296.404 466.216 296.632 467.009 296.632C467.41 296.632 467.829 296.568 468.267 296.44C468.704 296.313 469.172 296.119 469.668 295.859V297.11C469.19 297.306 468.727 297.452 468.281 297.548C467.839 297.648 467.41 297.698 466.995 297.698C465.806 297.698 464.876 297.343 464.206 296.632C463.536 295.916 463.202 294.932 463.202 293.679C463.202 292.457 463.53 291.482 464.186 290.753C464.842 290.024 465.717 289.659 466.811 289.659C467.786 289.659 468.554 289.99 469.115 290.65C469.68 291.311 469.981 292.109 470.017 293.043ZM468.759 292.674C468.704 292.145 468.511 291.689 468.178 291.307C467.85 290.919 467.376 290.726 466.756 290.726C466.15 290.726 465.651 290.926 465.259 291.327C464.867 291.728 464.653 292.179 464.617 292.681L468.759 292.674ZM475.711 294.731C475.711 295.297 475.814 295.723 476.019 296.01C476.229 296.297 476.536 296.44 476.942 296.44H478.411V297.5H476.819C476.067 297.5 475.483 297.261 475.069 296.782C474.659 296.299 474.453 295.616 474.453 294.731V287.807H472.437V286.822H475.711V294.731ZM484.147 294.731C484.147 295.297 484.249 295.723 484.454 296.01C484.664 296.297 484.972 296.44 485.377 296.44H486.847V297.5H485.254C484.502 297.5 483.919 297.261 483.504 296.782C483.094 296.299 482.889 295.616 482.889 294.731V287.807H480.872V286.822H484.147V294.731Z"/><path fill="#A074C4" d="M382.128 335.472C382 335.472 381.832 335.488 381.624 335.52C381.48 335.536 381.376 335.544 381.312 335.544H379.968C380.064 334.472 380.2 332.872 380.376 330.744C380.552 328.616 380.688 327.016 380.784 325.944H381.672C382.36 325.912 382.864 325.912 383.184 325.944C383.296 325.944 383.408 326.016 383.52 326.16C383.632 326.304 383.672 326.432 383.64 326.544C383.528 327.344 383.328 328.552 383.04 330.168L382.728 331.8C382.648 332.472 382.488 333.504 382.248 334.896L382.128 335.472ZM382.44 338.472C382.472 338.888 382.336 339.264 382.032 339.6C381.728 339.92 381.336 340.096 380.856 340.128C380.376 340.16 379.936 340.048 379.536 339.792C379.152 339.52 378.944 339.184 378.912 338.784C378.88 338.32 379.016 337.936 379.32 337.632C379.624 337.328 380.04 337.16 380.568 337.128C381.096 337.096 381.528 337.2 381.864 337.44C382.216 337.68 382.408 338.024 382.44 338.472Z"/><path fill="var(--vscode-foreground)" d="M403.565 327.294H405.035L407.523 331.799L410.004 327.294H411.488L408.213 332.92V337.5H406.826V332.92L403.565 327.294ZM415.958 328.511L414.502 333.733H417.414L415.958 328.511ZM415.124 327.294H416.799L419.923 337.5H418.495L417.743 334.841H414.167L413.429 337.5H412L415.124 327.294ZM420.429 327.328H422.275L424.038 332.51L425.816 327.328H427.668V337.5H426.39V328.511L424.572 333.87H423.526L421.701 328.511V337.5H420.429V327.328ZM430.088 327.294H431.476V336.338H436.405V337.5H430.088V327.294Z"/></g></a><defs><filter id="filter0_d" width="516" height="189" x="0" y="25" color-interpolation-filters="sRGB" filterUnits="userSpaceOnUse"><feFlood flood-opacity="0" result="BackgroundImageFix"/><feColorMatrix in="SourceAlpha" type="matrix" values="0 0 0 0 0 0 0 0 0 0 0 0 0 0 0 0 0 0 127 0"/><feOffset dy="2"/><feGaussianBlur stdDeviation="6"/><feColorMatrix type="matrix" values="0 0 0 0 0 0 0 0 0 0 0 0 0 0 0 0 0 0 0.6 0"/><feBlend in2="BackgroundImageFix" mode="normal" result="effect1_dropShadow"/><feBlend in="SourceGraphic" in2="effect1_dropShadow" mode="normal" result="shape"/></filter><clipPath id="clip0"><rect width="123" height="35" fill="#fff" transform="translate(21.6238)"/></clipPath><clipPath id="clip1"><rect width="335" height="98" x="130" y="72" fill="#fff"/></clipPath></defs></svg>