<svg viewBox="0 0 520 238" fill="none" xmlns="http://www.w3.org/2000/svg">
  <g>
    <rect width="520" height="238" fill="var(--vscode-breadcrumb-background, #1E1E1E)" />
    <g clip-path="url(#clip0_1_138)">
      <g>
        <rect width="520" height="39" fill="var(--vscode-breadcrumbPicker-background, #252526)" />
        <g clip-path="url(#clip1_1_138)">
          <g>
            <rect width="115.654" height="39.2998" fill="var(--vscode-breadcrumb-background, #1E1E1E)" />
            <rect x="13.4742" y="15.7199" width="88.7052" height="7.85995" rx="3.92998" fill="var(--vscode-tab-inactiveBackground, #2D2D2D)" />
          </g>
        </g>
        <path d="M215.244 20.2222C212.699 20.2222 211.112 18.3813 211.112 15.4233C211.112 12.459 212.692 10.6182 215.238 10.6182C217.256 10.6182 218.818 11.9067 219.046 13.7412H217.631C217.364 12.605 216.444 11.8813 215.238 11.8813C213.594 11.8813 212.565 13.2461 212.565 15.4233C212.565 17.6006 213.594 18.959 215.244 18.959C216.457 18.959 217.377 18.3052 217.631 17.2642H219.046C218.792 19.0479 217.288 20.2222 215.244 20.2222ZM220.76 20V13.1064H222.074V14.1538H222.176C222.373 13.4746 223.141 12.9858 224.042 12.9858C224.245 12.9858 224.505 13.0049 224.651 13.0366V14.3188C224.537 14.2871 224.131 14.2427 223.89 14.2427C222.855 14.2427 222.125 14.9092 222.125 15.8804V20H220.76ZM230.32 18.1528H231.634C231.335 19.3716 230.218 20.1333 228.638 20.1333C226.657 20.1333 225.445 18.7686 225.445 16.5659C225.445 14.376 226.683 12.9731 228.631 12.9731C230.555 12.9731 231.716 14.2871 231.716 16.4453V16.915H226.835V16.9785C226.879 18.229 227.584 19.0161 228.676 19.0161C229.501 19.0161 230.066 18.7114 230.32 18.1528ZM228.625 14.084C227.616 14.084 226.911 14.8203 226.835 15.9312H230.326C230.294 14.814 229.634 14.084 228.625 14.084ZM235.265 20.1143C233.932 20.1143 232.96 19.3145 232.96 18.0576C232.96 16.8198 233.887 16.1025 235.531 16.001L237.404 15.8867V15.2837C237.404 14.5283 236.921 14.103 235.988 14.103C235.227 14.103 234.7 14.3887 234.547 14.8901H233.227C233.367 13.7285 234.484 12.9731 236.052 12.9731C237.785 12.9731 238.762 13.8364 238.762 15.2837V20H237.448V19.0225H237.34C236.928 19.7207 236.172 20.1143 235.265 20.1143ZM235.614 19.0161C236.642 19.0161 237.404 18.3433 237.404 17.4546V16.8579L235.715 16.9722C234.763 17.0356 234.332 17.3721 234.332 18.0005C234.332 18.6416 234.871 19.0161 235.614 19.0161ZM241.187 11.3672H242.552V13.1255H244.05V14.2173H242.552V17.8545C242.552 18.5972 242.85 18.9209 243.529 18.9209C243.739 18.9209 243.859 18.9082 244.05 18.8892V19.9746C243.828 20.0127 243.574 20.0444 243.307 20.0444C241.79 20.0444 241.187 19.5112 241.187 18.1846V14.2173H240.089V13.1255H241.187V11.3672ZM250.112 18.1528H251.426C251.127 19.3716 250.01 20.1333 248.43 20.1333C246.449 20.1333 245.237 18.7686 245.237 16.5659C245.237 14.376 246.475 12.9731 248.423 12.9731C250.347 12.9731 251.508 14.2871 251.508 16.4453V16.915H246.627V16.9785C246.671 18.229 247.376 19.0161 248.468 19.0161C249.293 19.0161 249.858 18.7114 250.112 18.1528ZM248.417 14.084C247.408 14.084 246.703 14.8203 246.627 15.9312H250.118C250.086 14.814 249.426 14.084 248.417 14.084ZM256.859 10.8403H260.446C262.236 10.8403 263.467 12.0718 263.467 13.8745C263.467 15.6392 262.198 16.8706 260.401 16.8706H258.281V20H256.859V10.8403ZM258.281 12.04V15.6772H260.071C261.296 15.6772 262.014 15.0234 262.014 13.8745C262.014 12.6875 261.322 12.04 260.071 12.04H258.281ZM265.143 20V13.1064H266.457V14.1538H266.559C266.755 13.4746 267.523 12.9858 268.425 12.9858C268.628 12.9858 268.888 13.0049 269.034 13.0366V14.3188C268.92 14.2871 268.514 14.2427 268.272 14.2427C267.238 14.2427 266.508 14.9092 266.508 15.8804V20H265.143ZM273.09 20.1333C271.065 20.1333 269.828 18.7812 269.828 16.5532C269.828 14.3315 271.072 12.9731 273.09 12.9731C275.103 12.9731 276.347 14.3252 276.347 16.5532C276.347 18.7812 275.109 20.1333 273.09 20.1333ZM273.09 18.9717C274.271 18.9717 274.944 18.083 274.944 16.5532C274.944 15.0171 274.271 14.1284 273.09 14.1284C271.903 14.1284 271.237 15.0171 271.237 16.5532C271.237 18.0894 271.903 18.9717 273.09 18.9717ZM278.479 20V14.2173H277.343V13.1255H278.479V12.3828C278.479 11.0117 279.178 10.3389 280.612 10.3389C280.923 10.3389 281.19 10.3643 281.425 10.4023V11.4307C281.298 11.4116 281.114 11.3989 280.898 11.3989C280.136 11.3989 279.825 11.748 279.825 12.4463V13.1255H281.368V14.2173H279.844V20H278.479ZM283.621 11.875C283.145 11.875 282.758 11.4878 282.758 11.0181C282.758 10.542 283.145 10.1548 283.621 10.1548C284.097 10.1548 284.484 10.542 284.484 11.0181C284.484 11.4878 284.097 11.875 283.621 11.875ZM282.942 20V13.1064H284.3V20H282.942ZM286.37 20V10.4023H287.734V20H286.37ZM294.317 18.1528H295.631C295.333 19.3716 294.215 20.1333 292.635 20.1333C290.654 20.1333 289.442 18.7686 289.442 16.5659C289.442 14.376 290.68 12.9731 292.628 12.9731C294.552 12.9731 295.713 14.2871 295.713 16.4453V16.915H290.832V16.9785C290.876 18.229 291.581 19.0161 292.673 19.0161C293.498 19.0161 294.063 18.7114 294.317 18.1528ZM292.622 14.084C291.613 14.084 290.908 14.8203 290.832 15.9312H294.323C294.292 14.814 293.631 14.084 292.622 14.084ZM298.411 20.0952C297.878 20.0952 297.478 19.6953 297.478 19.1812C297.478 18.667 297.878 18.2671 298.411 18.2671C298.951 18.2671 299.344 18.667 299.344 19.1812C299.344 19.6953 298.951 20.0952 298.411 20.0952ZM302.512 20.0952C301.979 20.0952 301.579 19.6953 301.579 19.1812C301.579 18.667 301.979 18.2671 302.512 18.2671C303.051 18.2671 303.445 18.667 303.445 19.1812C303.445 19.6953 303.051 20.0952 302.512 20.0952ZM306.612 20.0952C306.079 20.0952 305.679 19.6953 305.679 19.1812C305.679 18.667 306.079 18.2671 306.612 18.2671C307.152 18.2671 307.545 18.667 307.545 19.1812C307.545 19.6953 307.152 20.0952 306.612 20.0952Z" fill="var(--vscode-quickInput-foreground, #FFFFFF)" />
      </g>
    </g>
    <g filter="url(#filter0_d_1_138)">
      <rect width="425" height="196" transform="translate(47 24)" fill="var(--vscode-breadcrumbPicker-background, #252526)" />
      <g>
        <g>
          <rect x="54.5" y="31.5" width="410" height="25" fill="var(--vscode-checkbox-background, #3C3C3C)" />
          <rect x="54.5" y="31.5" width="410" height="25" stroke="var(--vscode-focusBorder, #007FD4)" />
        </g>
      </g>
      <g>
        <g>
          <rect width="425" height="24" transform="translate(47 64)" fill="var(--vscode-peekViewEditor-background, #062F4A)" />
          <path d="M65.9634 79.7749V81H60.1489V71.8403H65.9634V73.0654H61.5708V75.7441H65.7285V76.9248H61.5708V79.7749H65.9634ZM67.8613 81V74.1064H69.1753V75.2046H69.2769C69.5815 74.4302 70.2798 73.9731 71.2002 73.9731C72.146 73.9731 72.7998 74.4619 73.1045 75.2046H73.2124C73.5615 74.4619 74.355 73.9731 75.3135 73.9731C76.71 73.9731 77.5225 74.811 77.5225 76.2456V81H76.1577V76.5757C76.1577 75.6235 75.7134 75.1602 74.8184 75.1602C73.936 75.1602 73.3584 75.8076 73.3584 76.6392V81H72.019V76.436C72.019 75.6489 71.4985 75.1602 70.686 75.1602C69.8545 75.1602 69.2261 75.8647 69.2261 76.7661V81H67.8613ZM83.0259 73.9858C84.7842 73.9858 85.895 75.3633 85.895 77.5532C85.895 79.7305 84.7842 81.1143 83.0386 81.1143C82.0547 81.1143 81.2739 80.689 80.9121 79.959H80.8042V83.2979H79.4395V74.1064H80.7534V75.249H80.855C81.2739 74.4619 82.0864 73.9858 83.0259 73.9858ZM82.6387 79.9463C83.8003 79.9463 84.4922 79.0513 84.4922 77.5532C84.4922 76.0552 83.8003 75.1538 82.645 75.1538C81.4961 75.1538 80.7788 76.0742 80.7788 77.5532C80.7788 79.0259 81.4961 79.9463 82.6387 79.9463ZM88.0215 72.3672H89.3862V74.1255H90.8843V75.2173H89.3862V78.8545C89.3862 79.5972 89.6846 79.9209 90.3638 79.9209C90.5732 79.9209 90.6938 79.9082 90.8843 79.8892V80.9746C90.6621 81.0127 90.4082 81.0444 90.1416 81.0444C88.6245 81.0444 88.0215 80.5112 88.0215 79.1846V75.2173H86.9233V74.1255H88.0215V72.3672ZM93.1758 83.501C93.0615 83.501 92.7378 83.4883 92.6108 83.4692V82.3521C92.7188 82.3711 92.9282 82.3774 93.0552 82.3774C93.7026 82.3774 94.0708 82.1045 94.3057 81.3745L94.4072 81.019L91.9062 74.1064H93.3916L95.1245 79.6289H95.2324L96.959 74.1064H98.4062L95.8291 81.3174C95.2388 82.9741 94.585 83.501 93.1758 83.501ZM103.516 71.8403H107.103C108.893 71.8403 110.124 73.0718 110.124 74.8745C110.124 76.6392 108.854 77.8706 107.058 77.8706H104.938V81H103.516V71.8403ZM104.938 73.04V76.6772H106.728C107.953 76.6772 108.67 76.0234 108.67 74.8745C108.67 73.6875 107.979 73.04 106.728 73.04H104.938ZM111.8 81V74.1064H113.114V75.1538H113.215C113.412 74.4746 114.18 73.9858 115.082 73.9858C115.285 73.9858 115.545 74.0049 115.691 74.0366V75.3188C115.577 75.2871 115.17 75.2427 114.929 75.2427C113.895 75.2427 113.165 75.9092 113.165 76.8804V81H111.8ZM119.747 81.1333C117.722 81.1333 116.484 79.7812 116.484 77.5532C116.484 75.3315 117.729 73.9731 119.747 73.9731C121.759 73.9731 123.003 75.3252 123.003 77.5532C123.003 79.7812 121.766 81.1333 119.747 81.1333ZM119.747 79.9717C120.928 79.9717 121.601 79.083 121.601 77.5532C121.601 76.0171 120.928 75.1284 119.747 75.1284C118.56 75.1284 117.894 76.0171 117.894 77.5532C117.894 79.0894 118.56 79.9717 119.747 79.9717ZM125.136 81V75.2173H124V74.1255H125.136V73.3828C125.136 72.0117 125.834 71.3389 127.269 71.3389C127.58 71.3389 127.847 71.3643 128.082 71.4023V72.4307C127.955 72.4116 127.771 72.3989 127.555 72.3989C126.793 72.3989 126.482 72.748 126.482 73.4463V74.1255H128.024V75.2173H126.501V81H125.136ZM130.278 72.875C129.802 72.875 129.415 72.4878 129.415 72.0181C129.415 71.542 129.802 71.1548 130.278 71.1548C130.754 71.1548 131.141 71.542 131.141 72.0181C131.141 72.4878 130.754 72.875 130.278 72.875ZM129.599 81V74.1064H130.957V81H129.599ZM133.026 81V71.4023H134.391V81H133.026ZM140.974 79.1528H142.288C141.989 80.3716 140.872 81.1333 139.292 81.1333C137.311 81.1333 136.099 79.7686 136.099 77.5659C136.099 75.376 137.336 73.9731 139.285 73.9731C141.208 73.9731 142.37 75.2871 142.37 77.4453V77.915H137.489V77.9785C137.533 79.229 138.238 80.0161 139.33 80.0161C140.155 80.0161 140.72 79.7114 140.974 79.1528ZM139.279 75.084C138.27 75.084 137.565 75.8203 137.489 76.9312H140.98C140.948 75.814 140.288 75.084 139.279 75.084Z" fill="var(--vscode-quickInput-foreground, #FFFFFF)" />
        </g>
        <g>
          <g>
            <rect x="59" y="98" width="62.5" height="6" rx="3" fill="var(--vscode-editorOverviewRuler-commonContentForeground, #606060)" />
            <rect x="125.5" y="98" width="29" height="6" rx="3" fill="var(--vscode-banner-iconForeground, #3794FF)" fill-opacity="0.6" />
            <rect x="158.5" y="98" width="62.5" height="6" rx="3" fill="var(--vscode-editorOverviewRuler-commonContentForeground, #606060)" />
          </g>
        </g>
        <g>
          <path d="M60.1489 123.84H63.7354C65.5254 123.84 66.7568 125.072 66.7568 126.875C66.7568 128.639 65.4873 129.871 63.6909 129.871H61.5708V133H60.1489V123.84ZM61.5708 125.04V128.677H63.3608C64.5859 128.677 65.3032 128.023 65.3032 126.875C65.3032 125.688 64.6113 125.04 63.3608 125.04H61.5708ZM69.334 135.501C69.2197 135.501 68.896 135.488 68.769 135.469V134.352C68.877 134.371 69.0864 134.377 69.2134 134.377C69.8608 134.377 70.229 134.104 70.4639 133.375L70.5654 133.019L68.0645 126.106H69.5498L71.2827 131.629H71.3906L73.1172 126.106H74.5645L71.9873 133.317C71.397 134.974 70.7432 135.501 69.334 135.501ZM76.4434 124.367H77.8081V126.125H79.3062V127.217H77.8081V130.854C77.8081 131.597 78.1064 131.921 78.7856 131.921C78.9951 131.921 79.1157 131.908 79.3062 131.889V132.975C79.084 133.013 78.8301 133.044 78.5635 133.044C77.0464 133.044 76.4434 132.511 76.4434 131.185V127.217H75.3452V126.125H76.4434V124.367ZM80.9756 133V123.402H82.3276V127.205H82.4355C82.772 126.437 83.502 125.979 84.543 125.979C86.0156 125.979 86.9233 126.913 86.9233 128.544V133H85.5586V128.868C85.5586 127.731 85.0444 127.167 84.0796 127.167C82.9624 127.167 82.3403 127.884 82.3403 128.963V133H80.9756ZM91.7666 133.133C89.7417 133.133 88.5039 131.781 88.5039 129.553C88.5039 127.332 89.748 125.973 91.7666 125.973C93.7788 125.973 95.0229 127.325 95.0229 129.553C95.0229 131.781 93.7852 133.133 91.7666 133.133ZM91.7666 131.972C92.9473 131.972 93.6201 131.083 93.6201 129.553C93.6201 128.017 92.9473 127.128 91.7666 127.128C90.5796 127.128 89.9131 128.017 89.9131 129.553C89.9131 131.089 90.5796 131.972 91.7666 131.972ZM96.667 133V126.106H97.981V127.198H98.0825C98.4189 126.437 99.1045 125.973 100.146 125.973C101.688 125.973 102.539 126.894 102.539 128.538V133H101.174V128.861C101.174 127.719 100.691 127.16 99.6821 127.16C98.6729 127.16 98.0317 127.846 98.0317 128.957V133H96.667Z" fill="var(--vscode-quickInput-foreground, #FFFFFF)" />
          <path d="M60.1489 149.84H63.4561C66.1729 149.84 67.7661 151.516 67.7661 154.398C67.7661 157.312 66.1855 159 63.4561 159H60.1489V149.84ZM61.5708 151.065V157.775H63.2974C65.2144 157.775 66.3188 156.55 66.3188 154.417C66.3188 152.303 65.1953 151.065 63.2974 151.065H61.5708ZM72.457 159.133C70.4321 159.133 69.1943 157.781 69.1943 155.553C69.1943 153.332 70.4385 151.973 72.457 151.973C74.4692 151.973 75.7134 153.325 75.7134 155.553C75.7134 157.781 74.4756 159.133 72.457 159.133ZM72.457 157.972C73.6377 157.972 74.3105 157.083 74.3105 155.553C74.3105 154.017 73.6377 153.128 72.457 153.128C71.27 153.128 70.6035 154.017 70.6035 155.553C70.6035 157.089 71.27 157.972 72.457 157.972ZM83.21 154.322H81.8833C81.7246 153.649 81.166 153.135 80.252 153.135C79.1094 153.135 78.4111 154.036 78.4111 155.528C78.4111 157.051 79.1157 157.972 80.252 157.972C81.1152 157.972 81.7056 157.565 81.8833 156.816H83.21C83.0322 158.175 81.9658 159.133 80.2583 159.133C78.2461 159.133 77.0146 157.762 77.0146 155.528C77.0146 153.338 78.2397 151.973 80.252 151.973C81.9849 151.973 83.0322 152.982 83.21 154.322ZM93.6772 152.151L91.7158 159H90.3701L87.9009 149.84H89.3799L91.062 156.962H91.1509L93.0615 149.84H94.3818L96.3052 156.962H96.394L98.0698 149.84H99.5488L97.0732 159H95.7339L93.7661 152.151H93.6772ZM100.704 159V152.106H102.018V153.154H102.12C102.316 152.475 103.084 151.986 103.986 151.986C104.189 151.986 104.449 152.005 104.595 152.037V153.319C104.481 153.287 104.075 153.243 103.833 153.243C102.799 153.243 102.069 153.909 102.069 154.88V159H100.704ZM106.614 150.875C106.138 150.875 105.75 150.488 105.75 150.018C105.75 149.542 106.138 149.155 106.614 149.155C107.09 149.155 107.477 149.542 107.477 150.018C107.477 150.488 107.09 150.875 106.614 150.875ZM105.935 159V152.106H107.293V159H105.935ZM109.781 150.367H111.146V152.125H112.644V153.217H111.146V156.854C111.146 157.597 111.444 157.921 112.124 157.921C112.333 157.921 112.454 157.908 112.644 157.889V158.975C112.422 159.013 112.168 159.044 111.901 159.044C110.384 159.044 109.781 158.511 109.781 157.185V153.217H108.683V152.125H109.781V150.367ZM118.706 157.153H120.02C119.722 158.372 118.604 159.133 117.024 159.133C115.043 159.133 113.831 157.769 113.831 155.566C113.831 153.376 115.069 151.973 117.018 151.973C118.941 151.973 120.103 153.287 120.103 155.445V155.915H115.221V155.979C115.266 157.229 115.97 158.016 117.062 158.016C117.887 158.016 118.452 157.711 118.706 157.153ZM117.011 153.084C116.002 153.084 115.297 153.82 115.221 154.931H118.712C118.681 153.814 118.021 153.084 117.011 153.084ZM121.74 159V152.106H123.054V153.154H123.156C123.353 152.475 124.121 151.986 125.022 151.986C125.225 151.986 125.485 152.005 125.631 152.037V153.319C125.517 153.287 125.111 153.243 124.87 153.243C123.835 153.243 123.105 153.909 123.105 154.88V159H121.74Z" fill="var(--vscode-quickInput-foreground, #FFFFFF)" />
        </g>
        <g>
          <g>
            <rect x="59" y="178" width="26" height="6" rx="3" fill="var(--vscode-banner-iconForeground, #3794FF)" fill-opacity="0.6" />
            <rect x="89" y="178" width="164" height="6" rx="3" fill="var(--vscode-editorOverviewRuler-commonContentForeground, #606060)" />
          </g>
        </g>
        <g>
          <g>
            <rect x="59" y="200" width="46" height="6" rx="3" fill="var(--vscode-editorOverviewRuler-commonContentForeground, #606060)" />
            <rect x="109" y="200" width="29" height="6" rx="3" fill="var(--vscode-banner-iconForeground, #3794FF)" fill-opacity="0.6" />
            <rect x="142" y="200" width="46" height="6" rx="3" fill="var(--vscode-editorOverviewRuler-commonContentForeground, #606060)" />
          </g>
        </g>
      </g>
    </g>
  </g>
  <defs>
    <filter id="filter0_d_1_138" x="31" y="10" width="457" height="228" filterUnits="userSpaceOnUse" color-interpolation-filters="sRGB">
      <feFlood flood-opacity="0" result="BackgroundImageFix" />
      <feColorMatrix in="SourceAlpha" type="matrix" values="0 0 0 0 0 0 0 0 0 0 0 0 0 0 0 0 0 0 127 0" result="hardAlpha" />
      <feOffset dy="2" />
      <feGaussianBlur stdDeviation="8" />
      <feColorMatrix type="matrix" values="0 0 0 0 0 0 0 0 0 0 0 0 0 0 0 0 0 0 0.36 0" />
      <feBlend mode="normal" in2="BackgroundImageFix" result="effect1_dropShadow_1_138" />
      <feBlend mode="normal" in="SourceGraphic" in2="effect1_dropShadow_1_138" result="shape" />
    </filter>
    <clipPath id="clip0_1_138">
      <rect width="520" height="238" fill="var(--vscode-activityBar-activeBorder, #FFFFFF)" />
    </clipPath>
    <clipPath id="clip1_1_138">
      <rect width="115.654" height="39.2998" fill="var(--vscode-activityBar-activeBorder, #FFFFFF)" />
    </clipPath>
  </defs>
</svg>
