<svg viewBox="0 0 520 252" fill="none" xmlns="http://www.w3.org/2000/svg">
<rect width="520" height="252" fill="var(--vscode-editor-background, #1e1e1e)"/>
<rect width="520" height="39" fill="var(--vscode-editorGroupHeader-tabsBackground, #252526)"/>
<g clip-path="url(#clip0)">
<rect width="115.654" height="39.2998" fill="var(--vscode-tab-activeBackground, #1e1e1e)"/>
<rect x="13.4741" y="15.7199" width="88.7052" height="7.85995" rx="3.92998" fill="var(--vscode-separatorBackground, #454545)"/>
</g>
<g filter="url(#filter0_d)">
<rect width="425" height="216" transform="translate(48 20)" fill="var(--vscode-quickInput-background, #252526)"/>
<rect x="55.5" y="27.5" width="410" height="25" fill="var(--vscode-input-background, #3c3c3c)"/>
<path d="M62.9009 45.1143C63.8086 45.1143 64.564 44.7207 64.9766 44.0225H65.0845V45H66.3984V40.2837C66.3984 38.8364 65.4209 37.9731 63.688 37.9731C62.1201 37.9731 61.0029 38.7285 60.8633 39.8901H62.1836C62.3359 39.3887 62.8628 39.103 63.6245 39.103C64.5576 39.103 65.04 39.5283 65.04 40.2837V40.8867L63.1675 41.001C61.5234 41.1025 60.5967 41.8198 60.5967 43.0576C60.5967 44.3145 61.5679 45.1143 62.9009 45.1143ZM63.25 44.0161C62.5073 44.0161 61.9678 43.6416 61.9678 43.0005C61.9678 42.3721 62.3994 42.0356 63.3516 41.9722L65.04 41.8579V42.4546C65.04 43.3433 64.2783 44.0161 63.25 44.0161ZM71.9272 37.9858C70.9878 37.9858 70.1753 38.4619 69.7563 39.249H69.6548V38.1064H68.3408V47.2979H69.7056V43.959H69.8135C70.1753 44.689 70.9561 45.1143 71.9399 45.1143C73.6855 45.1143 74.7964 43.7305 74.7964 41.5532C74.7964 39.3633 73.6855 37.9858 71.9272 37.9858ZM71.54 43.9463C70.3975 43.9463 69.6802 43.0259 69.6802 41.5532C69.6802 40.0742 70.3975 39.1538 71.5464 39.1538C72.7017 39.1538 73.3936 40.0552 73.3936 41.5532C73.3936 43.0513 72.7017 43.9463 71.54 43.9463ZM80.0269 37.9858C79.0874 37.9858 78.2749 38.4619 77.856 39.249H77.7544V38.1064H76.4404V47.2979H77.8052V43.959H77.9131C78.2749 44.689 79.0557 45.1143 80.0396 45.1143C81.7852 45.1143 82.896 43.7305 82.896 41.5532C82.896 39.3633 81.7852 37.9858 80.0269 37.9858ZM79.6396 43.9463C78.4971 43.9463 77.7798 43.0259 77.7798 41.5532C77.7798 40.0742 78.4971 39.1538 79.646 39.1538C80.8013 39.1538 81.4932 40.0552 81.4932 41.5532C81.4932 43.0513 80.8013 43.9463 79.6396 43.9463Z" fill="var(--vscode-input-foreground, var(--vscode-foreground)"/>
<rect x="55.5" y="27.5" width="410" height="25" stroke="var(--vscode-focusBorder, #0078d4)"/>
<rect width="425" height="28" transform="translate(48 60)" fill="var(--vscode-quickInputList-focusBackground, #062F4A)"/>
<path d="M69.76 71.38H67.62V77.74H66.06V71.38H63.94V70.24H69.68V71.38H69.76ZM74.56 75.82C74.56 75.6733 74.5333 75.5467 74.48 75.44C74.4267 75.3333 74.3533 75.2267 74.26 75.12C74.18 75.0533 74.06 74.98 73.9 74.9C73.7933 74.86 73.6067 74.7867 73.34 74.68L73.18 74.62C72.3133 74.3667 71.6267 74.0533 71.12 73.68C70.6667 73.2933 70.44 72.8133 70.44 72.24C70.44 71.6133 70.7133 71.1133 71.26 70.74C71.7533 70.3667 72.4067 70.18 73.22 70.18C74.0467 70.18 74.7267 70.4133 75.26 70.88C75.7533 71.32 76 71.86 76 72.5H74.56C74.56 72.3133 74.5267 72.1533 74.46 72.02C74.4067 71.8867 74.3133 71.7533 74.18 71.62C73.9133 71.42 73.58 71.32 73.18 71.32C72.78 71.32 72.4733 71.4 72.26 71.56C72.0467 71.72 71.94 71.9467 71.94 72.24C71.94 72.48 72.0667 72.6933 72.32 72.88C72.4267 72.96 72.5867 73.04 72.8 73.12C72.96 73.1867 73.2133 73.2733 73.56 73.38C74.3733 73.62 74.9933 73.9267 75.42 74.3C75.8467 74.66 76.06 75.1667 76.06 75.82C76.06 76.14 75.9933 76.4333 75.86 76.7C75.74 76.9533 75.56 77.16 75.32 77.32C74.8133 77.6933 74.1467 77.88 73.32 77.88C72.44 77.88 71.7267 77.6667 71.18 77.24C70.5533 76.7467 70.2667 76.1467 70.32 75.44H71.82C71.82 75.8667 71.9667 76.2 72.26 76.44C72.38 76.5333 72.54 76.6067 72.74 76.66C72.94 76.7133 73.1533 76.74 73.38 76.74C73.8333 76.74 74.1467 76.66 74.32 76.5C74.48 76.2467 74.56 76.02 74.56 75.82Z" fill="#519ABA"/>
<path d="M93.0396 78H94.7979L91.5415 68.8403H89.7007L86.4507 78H88.1074L88.8945 75.6323H92.2651L93.0396 78ZM90.5322 70.5605H90.6401L91.8843 74.3691H89.2754L90.5322 70.5605ZM99.9902 70.9478C99.0381 70.9478 98.2319 71.4238 97.832 72.2109H97.7241V71.062H96.207V80.3042H97.7812V76.9463H97.8892C98.2446 77.6826 99.0127 78.1143 100.009 78.1143C101.761 78.1143 102.853 76.7368 102.853 74.5342C102.853 72.3125 101.749 70.9478 99.9902 70.9478ZM99.4951 76.8066C98.4224 76.8066 97.7559 75.937 97.7495 74.5342C97.7559 73.1313 98.4287 72.2617 99.5015 72.2617C100.581 72.2617 101.234 73.1123 101.234 74.5342C101.234 75.9561 100.587 76.8066 99.4951 76.8066ZM108.217 70.9478C107.265 70.9478 106.458 71.4238 106.059 72.2109H105.951V71.062H104.434V80.3042H106.008V76.9463H106.116C106.471 77.6826 107.239 78.1143 108.236 78.1143C109.988 78.1143 111.08 76.7368 111.08 74.5342C111.08 72.3125 109.975 70.9478 108.217 70.9478ZM107.722 76.8066C106.649 76.8066 105.982 75.937 105.976 74.5342C105.982 73.1313 106.655 72.2617 107.728 72.2617C108.807 72.2617 109.461 73.1123 109.461 74.5342C109.461 75.9561 108.813 76.8066 107.722 76.8066Z" fill="var(--vscode-pickerGroup-foreground)"/>
<path d="M113.746 78.0952C114.285 78.0952 114.679 77.6953 114.679 77.1812C114.679 76.667 114.285 76.2671 113.746 76.2671C113.212 76.2671 112.812 76.667 112.812 77.1812C112.812 77.6953 113.212 78.0952 113.746 78.0952ZM117.053 69.3672V71.1255H115.955V72.2173H117.053V76.1846C117.053 77.5112 117.656 78.0444 119.173 78.0444C119.439 78.0444 119.693 78.0127 119.916 77.9746V76.8892C119.725 76.9082 119.604 76.9209 119.395 76.9209C118.716 76.9209 118.417 76.5972 118.417 75.8545V72.2173H119.916V71.1255H118.417V69.3672H117.053ZM121.261 73.0361C121.261 74.0581 121.871 74.6421 123.185 74.9468L124.391 75.2324C125.083 75.3975 125.406 75.6768 125.406 76.1084C125.406 76.6733 124.803 77.0669 123.953 77.0669C123.127 77.0669 122.62 76.7305 122.448 76.1909H121.083C121.204 77.3906 122.277 78.1333 123.921 78.1333C125.571 78.1333 126.784 77.2637 126.784 75.9814C126.784 74.9785 126.168 74.4136 124.854 74.1089L123.705 73.8423C122.956 73.6646 122.607 73.3979 122.607 72.9727C122.607 72.4141 123.185 72.0396 123.946 72.0396C124.721 72.0396 125.216 72.376 125.343 72.8901H126.65C126.517 71.6968 125.501 70.9731 123.946 70.9731C122.385 70.9731 121.261 71.8364 121.261 73.0361ZM130.84 75.5308L132.351 78.0127H133.918L131.614 74.5278L133.893 71.1191H132.37L130.897 73.582H130.789L129.304 71.1191H127.71L130.021 74.5786L127.729 78.0127H129.228L130.738 75.5308H130.84Z" fill="var(--vscode-quickInputList-focusForeground, #E3E3E3)"/>
<path d="M66.44 106.56L66.94 104.06H65.38V102.74H67.26L67.56 101.18H65.94V99.88H67.88L68.38 97.44H70.12L69.62 99.88H71.38L71.88 97.44H73.62L73.12 99.88H74.68V101.18H72.88L72.5 102.74H74.12V104.06H72.26L71.76 106.56H70L70.5 104.06H68.76L68.26 106.56H66.44ZM70.76 102.76L71.06 101.18H69.32L69 102.76H70.76Z" fill="#519ABA"/>
<path d="M92.9951 106H95.0708L91.8906 96.8403H89.6372L86.457 106H88.3804L89.085 103.778H92.3032L92.9951 106ZM90.6465 98.7002H90.7607L91.897 102.344H89.4976L90.6465 98.7002ZM100.492 98.897C99.5269 98.897 98.7334 99.373 98.3525 100.16H98.2383V99.0112H96.4482V108.317H98.2954V104.934H98.4097C98.7524 105.67 99.5205 106.108 100.523 106.108C102.275 106.108 103.348 104.75 103.348 102.502C103.348 100.249 102.263 98.897 100.492 98.897ZM99.8633 104.616C98.8857 104.616 98.2764 103.816 98.2764 102.509C98.2764 101.201 98.8857 100.395 99.8696 100.395C100.854 100.395 101.45 101.188 101.45 102.502C101.45 103.823 100.86 104.616 99.8633 104.616ZM108.896 98.897C107.931 98.897 107.138 99.373 106.757 100.16H106.643V99.0112H104.853V108.317H106.7V104.934H106.814C107.157 105.67 107.925 106.108 108.928 106.108C110.68 106.108 111.752 104.75 111.752 102.502C111.752 100.249 110.667 98.897 108.896 98.897ZM108.268 104.616C107.29 104.616 106.681 103.816 106.681 102.509C106.681 101.201 107.29 100.395 108.274 100.395C109.258 100.395 109.854 101.188 109.854 102.502C109.854 103.823 109.264 104.616 108.268 104.616Z" fill="var(--vscode-pickerGroup-foreground)"/>
<path d="M121.02 106V96.8403H119.604V100.712H114.901V96.8403H113.479V106H114.901V101.944H119.604V106H121.02ZM127.691 104.153C127.438 104.711 126.873 105.016 126.047 105.016C124.956 105.016 124.251 104.229 124.207 102.979V102.915H129.088V102.445C129.088 100.287 127.926 98.9731 126.003 98.9731C124.054 98.9731 122.816 100.376 122.816 102.566C122.816 104.769 124.029 106.133 126.009 106.133C127.59 106.133 128.707 105.372 129.005 104.153H127.691ZM125.997 100.084C127.006 100.084 127.666 100.814 127.698 101.931H124.207C124.283 100.82 124.987 100.084 125.997 100.084ZM132.636 106.114C133.544 106.114 134.299 105.721 134.712 105.022H134.82V106H136.134V101.284C136.134 99.8364 135.156 98.9731 133.423 98.9731C131.855 98.9731 130.738 99.7285 130.599 100.89H131.919C132.071 100.389 132.598 100.103 133.36 100.103C134.293 100.103 134.775 100.528 134.775 101.284V101.887L132.903 102.001C131.259 102.103 130.332 102.82 130.332 104.058C130.332 105.314 131.303 106.114 132.636 106.114ZM132.985 105.016C132.243 105.016 131.703 104.642 131.703 104C131.703 103.372 132.135 103.036 133.087 102.972L134.775 102.858V103.455C134.775 104.343 134.014 105.016 132.985 105.016ZM140.603 106.114C141.555 106.114 142.361 105.664 142.773 104.908H142.881V106H144.189V96.4023H142.824V100.198H142.723C142.348 99.4429 141.548 98.9858 140.603 98.9858C138.857 98.9858 137.733 100.376 137.733 102.547C137.733 104.73 138.844 106.114 140.603 106.114ZM140.99 100.154C142.132 100.154 142.85 101.081 142.85 102.553C142.85 104.039 142.139 104.946 140.99 104.946C139.834 104.946 139.143 104.051 139.143 102.553C139.143 101.062 139.841 100.154 140.99 100.154ZM150.771 104.153C150.518 104.711 149.953 105.016 149.127 105.016C148.036 105.016 147.331 104.229 147.287 102.979V102.915H152.168V102.445C152.168 100.287 151.006 98.9731 149.083 98.9731C147.134 98.9731 145.896 100.376 145.896 102.566C145.896 104.769 147.109 106.133 149.089 106.133C150.67 106.133 151.787 105.372 152.085 104.153H150.771ZM149.077 100.084C150.086 100.084 150.746 100.814 150.778 101.931H147.287C147.363 100.82 148.067 100.084 149.077 100.084ZM153.806 106H155.17V101.88C155.17 100.909 155.9 100.243 156.935 100.243C157.176 100.243 157.583 100.287 157.697 100.319V99.0366C157.551 99.0049 157.291 98.9858 157.087 98.9858C156.186 98.9858 155.418 99.4746 155.221 100.154H155.12V99.1064H153.806V106ZM159.144 106.095C159.684 106.095 160.077 105.695 160.077 105.181C160.077 104.667 159.684 104.267 159.144 104.267C158.611 104.267 158.211 104.667 158.211 105.181C158.211 105.695 158.611 106.095 159.144 106.095ZM167.783 101.322C167.605 99.9824 166.558 98.9731 164.825 98.9731C162.813 98.9731 161.588 100.338 161.588 102.528C161.588 104.762 162.819 106.133 164.832 106.133C166.539 106.133 167.605 105.175 167.783 103.816H166.457C166.279 104.565 165.688 104.972 164.825 104.972C163.689 104.972 162.984 104.051 162.984 102.528C162.984 101.036 163.683 100.135 164.825 100.135C165.739 100.135 166.298 100.649 166.457 101.322H167.783ZM169.186 101.036C169.186 102.058 169.795 102.642 171.109 102.947L172.315 103.232C173.007 103.397 173.331 103.677 173.331 104.108C173.331 104.673 172.728 105.067 171.877 105.067C171.052 105.067 170.544 104.73 170.373 104.191H169.008C169.129 105.391 170.202 106.133 171.846 106.133C173.496 106.133 174.708 105.264 174.708 103.981C174.708 102.979 174.093 102.414 172.779 102.109L171.63 101.842C170.881 101.665 170.532 101.398 170.532 100.973C170.532 100.414 171.109 100.04 171.871 100.04C172.646 100.04 173.141 100.376 173.268 100.89H174.575C174.442 99.6968 173.426 98.9731 171.871 98.9731C170.31 98.9731 169.186 99.8364 169.186 101.036ZM176.067 101.036C176.067 102.058 176.676 102.642 177.99 102.947L179.196 103.232C179.888 103.397 180.212 103.677 180.212 104.108C180.212 104.673 179.609 105.067 178.758 105.067C177.933 105.067 177.425 104.73 177.254 104.191H175.889C176.01 105.391 177.083 106.133 178.727 106.133C180.377 106.133 181.589 105.264 181.589 103.981C181.589 102.979 180.974 102.414 179.66 102.109L178.511 101.842C177.762 101.665 177.413 101.398 177.413 100.973C177.413 100.414 177.99 100.04 178.752 100.04C179.526 100.04 180.021 100.376 180.148 100.89H181.456C181.323 99.6968 180.307 98.9731 178.752 98.9731C177.19 98.9731 176.067 99.8364 176.067 101.036Z" fill="var(--vscode-quickInput-foreground, #E3E3E3)"/>
<path d="M66.44 134.56L66.94 132.06H65.38V130.74H67.26L67.56 129.18H65.94V127.88H67.88L68.38 125.44H70.12L69.62 127.88H71.38L71.88 125.44H73.62L73.12 127.88H74.68V129.18H72.88L72.5 130.74H74.12V132.06H72.26L71.76 134.56H70L70.5 132.06H68.76L68.26 134.56H66.44ZM70.76 130.76L71.06 129.18H69.32L69 130.76H70.76Z" fill="#519ABA"/>
<path d="M94.9629 130.395V129.258H91.2051V130.407H93.5664V130.61C93.5537 132.013 92.5254 132.959 91.0273 132.959C89.3071 132.959 88.228 131.607 88.228 129.411C88.228 127.246 89.3008 125.881 90.9956 125.881C92.2461 125.881 93.1157 126.497 93.4712 127.633H94.8994C94.5884 125.786 93.0776 124.618 90.9956 124.618C88.4312 124.618 86.7744 126.503 86.7744 129.417C86.7744 132.369 88.4121 134.222 91.0083 134.222C93.4077 134.222 94.9629 132.718 94.9629 130.395ZM118.811 132.775H114.418V129.925H118.576V128.744H114.418V126.065H118.811V124.84H112.997V134H118.811V132.775ZM123.235 134.114C124.188 134.114 124.994 133.664 125.406 132.908H125.514V134H126.822V124.402H125.457V128.198H125.355C124.981 127.443 124.181 126.986 123.235 126.986C121.49 126.986 120.366 128.376 120.366 130.547C120.366 132.73 121.477 134.114 123.235 134.114ZM123.623 128.154C124.765 128.154 125.482 129.081 125.482 130.553C125.482 132.039 124.771 132.946 123.623 132.946C122.467 132.946 121.775 132.051 121.775 130.553C121.775 129.062 122.474 128.154 123.623 128.154ZM129.577 125.875C130.053 125.875 130.44 125.488 130.44 125.018C130.44 124.542 130.053 124.155 129.577 124.155C129.101 124.155 128.713 124.542 128.713 125.018C128.713 125.488 129.101 125.875 129.577 125.875ZM128.897 134H130.256V127.106H128.897V134ZM132.744 125.367V127.125H131.646V128.217H132.744V132.185C132.744 133.511 133.347 134.044 134.864 134.044C135.131 134.044 135.385 134.013 135.607 133.975V132.889C135.417 132.908 135.296 132.921 135.086 132.921C134.407 132.921 134.109 132.597 134.109 131.854V128.217H135.607V127.125H134.109V125.367H132.744ZM140.057 134.133C142.075 134.133 143.313 132.781 143.313 130.553C143.313 128.325 142.069 126.973 140.057 126.973C138.038 126.973 136.794 128.332 136.794 130.553C136.794 132.781 138.032 134.133 140.057 134.133ZM140.057 132.972C138.87 132.972 138.203 132.089 138.203 130.553C138.203 129.017 138.87 128.128 140.057 128.128C141.237 128.128 141.91 129.017 141.91 130.553C141.91 132.083 141.237 132.972 140.057 132.972ZM144.957 134H146.322V129.88C146.322 128.909 147.052 128.243 148.086 128.243C148.328 128.243 148.734 128.287 148.848 128.319V127.037C148.702 127.005 148.442 126.986 148.239 126.986C147.337 126.986 146.569 127.475 146.373 128.154H146.271V127.106H144.957V134ZM150.295 134.095C150.835 134.095 151.229 133.695 151.229 133.181C151.229 132.667 150.835 132.267 150.295 132.267C149.762 132.267 149.362 132.667 149.362 133.181C149.362 133.695 149.762 134.095 150.295 134.095ZM158.935 129.322C158.757 127.982 157.709 126.973 155.977 126.973C153.964 126.973 152.739 128.338 152.739 130.528C152.739 132.762 153.971 134.133 155.983 134.133C157.69 134.133 158.757 133.175 158.935 131.816H157.608C157.43 132.565 156.84 132.972 155.977 132.972C154.84 132.972 154.136 132.051 154.136 130.528C154.136 129.036 154.834 128.135 155.977 128.135C156.891 128.135 157.449 128.649 157.608 129.322H158.935ZM160.337 129.036C160.337 130.058 160.947 130.642 162.261 130.947L163.467 131.232C164.159 131.397 164.482 131.677 164.482 132.108C164.482 132.673 163.879 133.067 163.029 133.067C162.204 133.067 161.696 132.73 161.524 132.191H160.16C160.28 133.391 161.353 134.133 162.997 134.133C164.647 134.133 165.86 133.264 165.86 131.981C165.86 130.979 165.244 130.414 163.93 130.109L162.781 129.842C162.032 129.665 161.683 129.398 161.683 128.973C161.683 128.414 162.261 128.04 163.022 128.04C163.797 128.04 164.292 128.376 164.419 128.89H165.727C165.593 127.697 164.578 126.973 163.022 126.973C161.461 126.973 160.337 127.836 160.337 129.036ZM167.218 129.036C167.218 130.058 167.828 130.642 169.142 130.947L170.348 131.232C171.04 131.397 171.363 131.677 171.363 132.108C171.363 132.673 170.76 133.067 169.91 133.067C169.084 133.067 168.577 132.73 168.405 132.191H167.041C167.161 133.391 168.234 134.133 169.878 134.133C171.528 134.133 172.741 133.264 172.741 131.981C172.741 130.979 172.125 130.414 170.811 130.109L169.662 129.842C168.913 129.665 168.564 129.398 168.564 128.973C168.564 128.414 169.142 128.04 169.903 128.04C170.678 128.04 171.173 128.376 171.3 128.89H172.607C172.474 127.697 171.458 126.973 169.903 126.973C168.342 126.973 167.218 127.836 167.218 129.036Z" fill="var(--vscode-quickInput-foreground, #E3E3E3)"/>
<path d="M98.6191 134.108C99.5269 134.108 100.289 133.721 100.65 133.073H100.765V134H102.555V129.227C102.555 127.735 101.507 126.859 99.6538 126.859C97.8955 126.859 96.7085 127.665 96.5879 128.947H98.2891C98.4414 128.509 98.8857 128.274 99.5522 128.274C100.314 128.274 100.733 128.624 100.733 129.227V129.804L99.0381 129.906C97.2988 130.007 96.3276 130.744 96.3276 132.007C96.3276 133.283 97.2734 134.108 98.6191 134.108ZM99.2285 132.756C98.5874 132.756 98.1367 132.432 98.1367 131.893C98.1367 131.378 98.5239 131.08 99.3174 131.029L100.733 130.934V131.455C100.733 132.191 100.085 132.756 99.2285 132.756ZM108.414 126.897C107.449 126.897 106.655 127.373 106.274 128.16H106.16V127.011H104.37V136.317H106.217V132.934H106.332C106.674 133.67 107.442 134.108 108.445 134.108C110.197 134.108 111.27 132.75 111.27 130.502C111.27 128.249 110.185 126.897 108.414 126.897ZM107.785 132.616C106.808 132.616 106.198 131.816 106.198 130.509C106.198 129.201 106.808 128.395 107.792 128.395C108.775 128.395 109.372 129.188 109.372 130.502C109.372 131.823 108.782 132.616 107.785 132.616Z" fill="var(--vscode-pickerGroup-foreground)"/>
<path d="M65.08 152.38H74.92C75.12 152.38 75.2867 152.447 75.42 152.58C75.5533 152.713 75.62 152.88 75.62 153.08V162.92C75.62 163.12 75.5533 163.287 75.42 163.42C75.2867 163.553 75.12 163.62 74.92 163.62H65.08C64.88 163.62 64.7133 163.553 64.58 163.42C64.4467 163.287 64.38 163.12 64.38 162.92V153.08C64.38 152.88 64.4467 152.713 64.58 152.58C64.7133 152.447 64.88 152.38 65.08 152.38ZM70.7 158.26V157.3H66.84V158.26H68.22V162.56H69.32V158.26H70.7ZM71.08 162.62C71.28 162.727 71.5 162.807 71.74 162.86C71.9933 162.9 72.2533 162.92 72.52 162.92C72.8 162.92 73.06 162.893 73.3 162.84C73.5533 162.787 73.7733 162.693 73.96 162.56C74.16 162.427 74.3133 162.26 74.42 162.06C74.5267 161.86 74.58 161.607 74.58 161.3C74.58 161.073 74.5467 160.88 74.48 160.72C74.4133 160.56 74.32 160.413 74.2 160.28C74.08 160.147 73.9333 160.027 73.76 159.92C73.6 159.813 73.4267 159.72 73.24 159.64C73.0933 159.573 72.96 159.513 72.84 159.46C72.7333 159.393 72.6333 159.333 72.54 159.28C72.46 159.213 72.3933 159.14 72.34 159.06C72.2867 158.98 72.26 158.9 72.26 158.82C72.26 158.727 72.28 158.647 72.32 158.58C72.3733 158.513 72.4333 158.46 72.5 158.42C72.58 158.367 72.6733 158.327 72.78 158.3C72.8867 158.273 73.0067 158.26 73.14 158.26C73.46 158.26 73.7667 158.333 74.06 158.48C74.1667 158.52 74.26 158.573 74.34 158.64V157.5C74.1533 157.433 73.9667 157.38 73.78 157.34C73.54 157.313 73.3 157.3 73.06 157.3C72.7933 157.3 72.5333 157.333 72.28 157.4C72.04 157.453 71.8267 157.547 71.64 157.68C71.4667 157.813 71.3267 157.98 71.22 158.18C71.1133 158.38 71.06 158.627 71.06 158.92C71.06 159.28 71.1533 159.587 71.34 159.84C71.54 160.093 71.84 160.307 72.24 160.48L72.68 160.68C72.8133 160.747 72.9267 160.82 73.02 160.9C73.1267 160.967 73.2067 161.047 73.26 161.14C73.3267 161.22 73.36 161.307 73.36 161.4C73.36 161.573 73.2867 161.707 73.14 161.8C73.0733 161.853 72.98 161.893 72.86 161.92C72.74 161.947 72.6133 161.96 72.48 161.96C72.2267 161.96 71.98 161.913 71.74 161.82C71.5 161.727 71.28 161.587 71.08 161.4V162.62Z" fill="#519ABA"/>
<rect x="119" y="155" width="97" height="6" rx="3" fill="var(--vscode-separatorBackground, #454545)"/>
<rect x="86" y="155" width="29" height="6" rx="3" fill="var(--vscode-pickerGroup-foreground)"/>
<path d="M68 180.976V180H67.904C67.5947 180 67.2907 180.064 66.992 180.192C66.704 180.309 66.448 180.48 66.224 180.704C66.0107 180.928 65.8453 181.184 65.728 181.472C65.632 181.739 65.568 182.016 65.536 182.304C65.504 182.592 65.4933 182.88 65.504 183.168C65.5253 183.456 65.536 183.744 65.536 184.032C65.536 184.235 65.4933 184.427 65.408 184.608C65.2587 184.971 65.0027 185.232 64.64 185.392C64.4693 185.467 64.288 185.504 64.096 185.504H64V186.496H64.096C64.288 186.496 64.4693 186.533 64.64 186.608C64.8213 186.693 64.976 186.8 65.104 186.928C65.232 187.067 65.3333 187.221 65.408 187.392V187.408C65.4933 187.579 65.536 187.765 65.536 187.968C65.536 188.256 65.5253 188.549 65.504 188.848C65.4933 189.136 65.504 189.424 65.536 189.712C65.568 189.989 65.632 190.261 65.728 190.528C65.8347 190.805 66 191.061 66.224 191.296C66.448 191.52 66.704 191.696 66.992 191.824C67.2907 191.941 67.5947 192 67.904 192H68V191.008H67.904C67.712 191.008 67.5253 190.971 67.344 190.896C67.1733 190.821 67.0187 190.715 66.88 190.576C66.752 190.437 66.6507 190.283 66.576 190.112C66.5013 189.931 66.464 189.739 66.464 189.536C66.464 189.291 66.4693 189.067 66.48 188.864C66.4907 188.64 66.4907 188.421 66.48 188.208C66.48 187.995 66.464 187.781 66.432 187.568C66.4 187.355 66.3413 187.152 66.256 186.96C66.096 186.576 65.8507 186.256 65.52 186C65.8507 185.744 66.096 185.424 66.256 185.04C66.3413 184.859 66.4 184.661 66.432 184.448C66.464 184.235 66.48 184.021 66.48 183.808C66.4907 183.584 66.4907 183.36 66.48 183.136C66.4693 182.912 66.464 182.688 66.464 182.464C66.464 182.165 66.544 181.893 66.704 181.648C66.864 181.403 67.0773 181.221 67.344 181.104C67.5253 181.019 67.712 180.976 67.904 180.976H68ZM72 191.008V192H72.096C72.4053 192 72.704 191.941 72.992 191.824C73.2907 191.696 73.552 191.52 73.776 191.296C74 191.061 74.1653 190.805 74.272 190.528C74.368 190.272 74.432 189.995 74.464 189.696C74.496 189.419 74.5013 189.136 74.48 188.848C74.4693 188.549 74.464 188.256 74.464 187.968C74.464 187.765 74.5067 187.573 74.592 187.392C74.7413 187.029 74.9973 186.768 75.36 186.608C75.5307 186.533 75.712 186.496 75.904 186.496H76V185.504H75.904C75.712 185.504 75.5307 185.467 75.36 185.392C75.1787 185.317 75.024 185.211 74.896 185.072C74.7573 184.933 74.656 184.779 74.592 184.608V184.592C74.5067 184.421 74.464 184.235 74.464 184.032C74.464 183.744 74.4693 183.456 74.48 183.168C74.5013 182.88 74.496 182.587 74.464 182.288C74.432 182.011 74.368 181.739 74.272 181.472C74.1547 181.184 73.984 180.928 73.76 180.704C73.5467 180.48 73.2907 180.309 72.992 180.192C72.704 180.064 72.4053 180 72.096 180H72V180.992H72.096C72.288 180.992 72.4693 181.029 72.64 181.104C72.8213 181.179 72.976 181.285 73.104 181.424C73.232 181.552 73.3333 181.707 73.408 181.888C73.4933 182.069 73.536 182.261 73.536 182.464C73.5253 182.709 73.52 182.933 73.52 183.136C73.5093 183.36 73.504 183.584 73.504 183.808C73.5147 184.021 73.536 184.235 73.568 184.448C73.6 184.651 73.6587 184.848 73.744 185.04C73.904 185.424 74.1493 185.744 74.48 186C74.1493 186.256 73.904 186.576 73.744 186.96C73.6587 187.152 73.6 187.355 73.568 187.568C73.536 187.771 73.5147 187.984 73.504 188.208C73.504 188.421 73.5093 188.64 73.52 188.864C73.5307 189.088 73.536 189.312 73.536 189.536C73.536 189.835 73.456 190.107 73.296 190.352C73.136 190.597 72.9227 190.779 72.656 190.896C72.4747 190.981 72.288 191.024 72.096 191.024H72V191.008Z" fill="#CBCB41"/>
<rect x="86" y="183" width="38" height="6" rx="3" fill="var(--vscode-separatorBackground, #454545)"/>
<rect x="161" y="183" width="105" height="6" rx="3" fill="var(--vscode-separatorBackground, #454545)"/>
<rect x="128" y="183" width="29" height="6" rx="3" fill="var(--vscode-pickerGroup-foreground)"/>
<path d="M67.5 219.12C67.3933 219.067 67.3133 218.987 67.26 218.88C67.22 218.84 67.1933 218.82 67.18 218.82C67.18 218.82 67.1667 218.84 67.14 218.88C67.1133 218.92 67.0867 218.98 67.06 219.06C67.0467 219.14 67.0267 219.207 67 219.26C66.9067 219.567 66.7733 219.773 66.6 219.88C66.4267 219.987 66.1867 220.007 65.88 219.94C65.8 219.94 65.6733 219.9 65.5 219.82C65.2467 219.687 65.1867 219.5 65.32 219.26C65.32 219.233 65.3267 219.2 65.34 219.16C65.3667 219.12 65.38 219.087 65.38 219.06C65.1533 219.06 65.0067 218.96 64.94 218.76C64.78 218.333 64.7267 217.96 64.78 217.64C64.8333 217.307 65.0133 216.987 65.32 216.68L65.36 216.6C65.4133 216.507 65.44 216.433 65.44 216.38C65.44 215.927 65.4867 215.533 65.58 215.2C65.6867 214.8 65.8667 214.44 66.12 214.12C66.3333 213.84 66.5867 213.613 66.88 213.44C66.9333 213.413 66.96 213.38 66.96 213.34C66.9733 213.3 66.9667 213.247 66.94 213.18C66.7133 212.9 66.5667 212.567 66.5 212.18C66.4733 212.073 66.48 211.953 66.52 211.82C66.5467 211.727 66.6 211.6 66.68 211.44L66.76 211.26C66.84 211.167 66.9 211.12 66.94 211.12C67.06 211.093 67.22 211.007 67.42 210.86L67.56 210.76C67.9733 210.333 68.4933 210.12 69.12 210.12C69.1867 210.12 69.2333 210.113 69.26 210.1C69.3 210.073 69.32 210.04 69.32 210C69.3733 209.747 69.4933 209.5 69.68 209.26L69.88 209.06C69.9467 208.993 70.0133 208.967 70.08 208.98C70.16 208.98 70.22 209.027 70.26 209.12C70.34 209.267 70.44 209.473 70.56 209.74L70.68 210C70.7467 210.107 70.8133 210.127 70.88 210.06C71.04 209.993 71.1467 209.96 71.2 209.96C71.2533 209.947 71.2933 209.96 71.32 210C71.3467 210.04 71.3867 210.147 71.44 210.32C71.76 211.653 71.5533 212.9 70.82 214.06C70.7933 214.1 70.7467 214.167 70.68 214.26C70.6267 214.34 70.5867 214.407 70.56 214.46C70.5333 214.513 70.52 214.56 70.52 214.6C70.5333 214.64 70.5667 214.693 70.62 214.76C70.9 215 71.1333 215.287 71.32 215.62C71.5067 215.953 71.6267 216.307 71.68 216.68C71.7467 217.147 71.7467 217.607 71.68 218.06C71.6533 218.18 71.6533 218.253 71.68 218.28C71.7067 218.293 71.7733 218.287 71.88 218.26C72.3467 218.113 72.76 217.92 73.12 217.68L73.28 217.6C73.52 217.453 73.7067 217.353 73.84 217.3C74.04 217.207 74.24 217.147 74.44 217.12H74.62C74.7533 217.093 74.86 217.1 74.94 217.14C75.0333 217.167 75.1067 217.22 75.16 217.3C75.2267 217.38 75.26 217.467 75.26 217.56C75.26 217.747 75.1533 217.873 74.94 217.94C74.3933 218.047 73.8267 218.313 73.24 218.74C72.6667 219.153 71.98 219.467 71.18 219.68C71.1533 219.68 71.1133 219.693 71.06 219.72C71.0067 219.747 70.9667 219.78 70.94 219.82C70.8467 219.887 70.7467 219.933 70.64 219.96C70.5733 219.987 70.4667 220.007 70.32 220.02L70.12 220.06L69.96 220.08C69.16 220.147 68.5467 220.18 68.12 220.18C67.88 220.18 67.6733 220.16 67.5 220.12C67.26 220.04 67.1133 219.92 67.06 219.76C66.9933 219.507 67.06 219.313 67.26 219.18C67.3 219.18 67.3467 219.173 67.4 219.16C67.4533 219.133 67.4867 219.12 67.5 219.12Z" fill="#519ABA"/>
<rect x="86" y="211" width="26" height="6" rx="3" fill="var(--vscode-pickerGroup-foreground)"/>
<rect x="116" y="211" width="164" height="6" rx="3" fill="var(--vscode-separatorBackground, #454545)"/>
</g>
<defs>
<filter id="filter0_d" x="36" y="10" width="449" height="240" filterUnits="userSpaceOnUse" color-interpolation-filters="sRGB">
<feFlood flood-opacity="0" result="BackgroundImageFix"/>
<feColorMatrix in="SourceAlpha" type="matrix" values="0 0 0 0 0 0 0 0 0 0 0 0 0 0 0 0 0 0 127 0"/>
<feOffset dy="2"/>
<feGaussianBlur stdDeviation="6"/>
<feColorMatrix type="matrix" values="0 0 0 0 0 0 0 0 0 0 0 0 0 0 0 0 0 0 0.6 0"/>
<feBlend mode="normal" in2="BackgroundImageFix" result="effect1_dropShadow"/>
<feBlend mode="normal" in="SourceGraphic" in2="effect1_dropShadow" result="shape"/>
</filter>
<clipPath id="clip0">
<rect width="115.654" height="39.2998" fill="white"/>
</clipPath>
</defs>
</svg>
