<svg viewBox="0 0 569 522" fill="none" xmlns="http://www.w3.org/2000/svg">
<g filter="url(#filter0_d)">
<rect x="12" y="10" width="545" height="498" rx="4" fill="var(--vscode-editorWidget-background, #1e1e1e)"/>
<rect width="504" height="26" transform="translate(33 30)" fill="var(--vscode-input-background, #3c3c3c)"/>
<path d="M39.7173 45.5562C39.8188 47.1812 41.1836 48.2222 43.2148 48.2222C45.3857 48.2222 46.7441 47.1304 46.7441 45.3975C46.7441 44.0264 45.9697 43.271 44.0908 42.8203L43.0815 42.5728C41.8882 42.2808 41.4058 41.8999 41.4058 41.2334C41.4058 40.3765 42.1548 39.8242 43.2783 39.8242C44.3447 39.8242 45.0811 40.3574 45.2144 41.2271H46.5981C46.5156 39.6973 45.1572 38.6182 43.2974 38.6182C41.2979 38.6182 39.9648 39.6973 39.9648 41.3096C39.9648 42.6426 40.7202 43.4297 42.377 43.8296L43.5576 44.1152C44.77 44.4072 45.3032 44.8516 45.3032 45.5688C45.3032 46.4067 44.4653 47.0098 43.3228 47.0098C42.0977 47.0098 41.2471 46.4448 41.1265 45.5562H39.7173ZM52.9902 46.1528C52.7363 46.7114 52.1714 47.0161 51.3462 47.0161C50.2544 47.0161 49.5498 46.229 49.5054 44.9785V44.915H54.3867V44.4453C54.3867 42.2871 53.2251 40.9731 51.3018 40.9731C49.353 40.9731 48.1152 42.376 48.1152 44.5659C48.1152 46.7686 49.3276 48.1333 51.3081 48.1333C52.8887 48.1333 54.0059 47.3716 54.3042 46.1528H52.9902ZM51.2954 42.084C52.3047 42.084 52.9648 42.814 52.9966 43.9312H49.5054C49.5815 42.8203 50.2861 42.084 51.2954 42.084ZM57.9351 48.1143C58.8428 48.1143 59.5981 47.7207 60.0107 47.0225H60.1187V48H61.4326V43.2837C61.4326 41.8364 60.4551 40.9731 58.7222 40.9731C57.1543 40.9731 56.0371 41.7285 55.8975 42.8901H57.2178C57.3701 42.3887 57.897 42.103 58.6587 42.103C59.5918 42.103 60.0742 42.5283 60.0742 43.2837V43.8867L58.2017 44.001C56.5576 44.1025 55.6309 44.8198 55.6309 46.0576C55.6309 47.3145 56.6021 48.1143 57.9351 48.1143ZM58.2842 47.0161C57.5415 47.0161 57.002 46.6416 57.002 46.0005C57.002 45.3721 57.4336 45.0356 58.3857 44.9722L60.0742 44.8579V45.4546C60.0742 46.3433 59.3125 47.0161 58.2842 47.0161ZM63.375 48H64.7397V43.8804C64.7397 42.9092 65.4697 42.2427 66.5044 42.2427C66.7456 42.2427 67.1519 42.2871 67.2661 42.3188V41.0366C67.1201 41.0049 66.8599 40.9858 66.6567 40.9858C65.7554 40.9858 64.9873 41.4746 64.7905 42.1538H64.689V41.1064H63.375V48ZM74.2549 43.3218C74.0771 41.9824 73.0298 40.9731 71.2969 40.9731C69.2847 40.9731 68.0596 42.3379 68.0596 44.5278C68.0596 46.7622 69.291 48.1333 71.3032 48.1333C73.0107 48.1333 74.0771 47.1748 74.2549 45.8164H72.9282C72.7505 46.5654 72.1602 46.9717 71.2969 46.9717C70.1606 46.9717 69.4561 46.0513 69.4561 44.5278C69.4561 43.0361 70.1543 42.1348 71.2969 42.1348C72.2109 42.1348 72.7695 42.6489 72.9282 43.3218H74.2549ZM75.8799 48H77.2446V43.9629C77.2446 42.8838 77.8667 42.1665 78.9839 42.1665C79.9487 42.1665 80.4629 42.7314 80.4629 43.8677V48H81.8276V43.5439C81.8276 41.9126 80.9199 40.9795 79.4473 40.9795C78.4062 40.9795 77.6763 41.4365 77.3398 42.2046H77.2319V38.4023H75.8799V48ZM87.9912 50.501C89.4004 50.501 90.0542 49.9741 90.6445 48.3174L93.2217 41.1064H91.7744L90.0479 46.6289H89.9399L88.207 41.1064H86.7217L89.2227 48.019L89.1211 48.3745C88.8862 49.1045 88.5181 49.3774 87.8706 49.3774C87.7437 49.3774 87.5342 49.3711 87.4263 49.3521V50.4692C87.5532 50.4883 87.877 50.501 87.9912 50.501ZM97.2715 48.1333C99.29 48.1333 100.528 46.7812 100.528 44.5532C100.528 42.3252 99.2837 40.9731 97.2715 40.9731C95.2529 40.9731 94.0088 42.3315 94.0088 44.5532C94.0088 46.7812 95.2466 48.1333 97.2715 48.1333ZM97.2715 46.9717C96.0845 46.9717 95.418 46.0894 95.418 44.5532C95.418 43.0171 96.0845 42.1284 97.2715 42.1284C98.4521 42.1284 99.125 43.0171 99.125 44.5532C99.125 46.083 98.4521 46.9717 97.2715 46.9717ZM107.999 41.1064H106.634V45.1499C106.634 46.2607 106.031 46.9336 104.927 46.9336C103.924 46.9336 103.473 46.3877 103.473 45.2451V41.1064H102.108V45.5815C102.108 47.2002 102.959 48.1333 104.489 48.1333C105.536 48.1333 106.241 47.689 106.577 46.9082H106.685V48H107.999V41.1064ZM109.979 48H111.344V43.8804C111.344 42.9092 112.074 42.2427 113.109 42.2427C113.35 42.2427 113.756 42.2871 113.871 42.3188V41.0366C113.725 41.0049 113.464 40.9858 113.261 40.9858C112.36 40.9858 111.592 41.4746 111.395 42.1538H111.293V41.1064H109.979V48ZM118.581 43.0361C118.581 44.0581 119.19 44.6421 120.504 44.9468L121.71 45.2324C122.402 45.3975 122.726 45.6768 122.726 46.1084C122.726 46.6733 122.123 47.0669 121.272 47.0669C120.447 47.0669 119.939 46.7305 119.768 46.1909H118.403C118.523 47.3906 119.596 48.1333 121.24 48.1333C122.891 48.1333 124.103 47.2637 124.103 45.9814C124.103 44.9785 123.487 44.4136 122.173 44.1089L121.024 43.8423C120.275 43.6646 119.926 43.3979 119.926 42.9727C119.926 42.4141 120.504 42.0396 121.266 42.0396C122.04 42.0396 122.535 42.376 122.662 42.8901H123.97C123.836 41.6968 122.821 40.9731 121.266 40.9731C119.704 40.9731 118.581 41.8364 118.581 43.0361ZM130.279 46.1528C130.025 46.7114 129.46 47.0161 128.635 47.0161C127.543 47.0161 126.839 46.229 126.794 44.9785V44.915H131.676V44.4453C131.676 42.2871 130.514 40.9731 128.591 40.9731C126.642 40.9731 125.404 42.376 125.404 44.5659C125.404 46.7686 126.617 48.1333 128.597 48.1333C130.178 48.1333 131.295 47.3716 131.593 46.1528H130.279ZM128.584 42.084C129.594 42.084 130.254 42.814 130.286 43.9312H126.794C126.871 42.8203 127.575 42.084 128.584 42.084ZM133.796 39.3672V41.1255H132.698V42.2173H133.796V46.1846C133.796 47.5112 134.399 48.0444 135.916 48.0444C136.183 48.0444 136.437 48.0127 136.659 47.9746V46.8892C136.468 46.9082 136.348 46.9209 136.138 46.9209C135.459 46.9209 135.161 46.5972 135.161 45.8545V42.2173H136.659V41.1255H135.161V39.3672H133.796ZM138.772 39.3672V41.1255H137.674V42.2173H138.772V46.1846C138.772 47.5112 139.375 48.0444 140.893 48.0444C141.159 48.0444 141.413 48.0127 141.635 47.9746V46.8892C141.445 46.9082 141.324 46.9209 141.115 46.9209C140.436 46.9209 140.137 46.5972 140.137 45.8545V42.2173H141.635V41.1255H140.137V39.3672H138.772ZM143.946 39.875C144.422 39.875 144.809 39.4878 144.809 39.0181C144.809 38.542 144.422 38.1548 143.946 38.1548C143.47 38.1548 143.083 38.542 143.083 39.0181C143.083 39.4878 143.47 39.875 143.946 39.875ZM143.267 48H144.625V41.1064H143.267V48ZM146.631 48H147.996V43.9565C147.996 42.8457 148.637 42.1602 149.646 42.1602C150.655 42.1602 151.138 42.7188 151.138 43.8613V48H152.502V43.5376C152.502 41.8936 151.652 40.9731 150.109 40.9731C149.068 40.9731 148.383 41.4365 148.046 42.1982H147.945V41.1064H146.631V48ZM157.339 50.6343C159.294 50.6343 160.532 49.6377 160.532 48.0698V41.1064H159.225V42.2046H159.117C158.729 41.4556 157.898 40.9858 156.946 40.9858C155.181 40.9858 154.077 42.376 154.077 44.4644C154.077 46.5337 155.168 47.8984 156.933 47.8984C157.885 47.8984 158.647 47.4858 159.066 46.7368H159.167V48.0635C159.167 48.9966 158.495 49.5552 157.358 49.5552C156.438 49.5552 155.86 49.2251 155.746 48.7046H154.35C154.496 49.8662 155.613 50.6343 157.339 50.6343ZM157.32 46.7686C156.146 46.7686 155.486 45.8735 155.486 44.4644C155.486 43.0552 156.146 42.1538 157.32 42.1538C158.482 42.1538 159.193 43.0552 159.193 44.4644C159.193 45.8735 158.488 46.7686 157.32 46.7686ZM162.354 43.0361C162.354 44.0581 162.963 44.6421 164.277 44.9468L165.483 45.2324C166.175 45.3975 166.499 45.6768 166.499 46.1084C166.499 46.6733 165.896 47.0669 165.045 47.0669C164.22 47.0669 163.712 46.7305 163.541 46.1909H162.176C162.297 47.3906 163.37 48.1333 165.014 48.1333C166.664 48.1333 167.876 47.2637 167.876 45.9814C167.876 44.9785 167.261 44.4136 165.947 44.1089L164.798 43.8423C164.049 43.6646 163.7 43.3979 163.7 42.9727C163.7 42.4141 164.277 42.0396 165.039 42.0396C165.813 42.0396 166.309 42.376 166.436 42.8901H167.743C167.61 41.6968 166.594 40.9731 165.039 40.9731C163.478 40.9731 162.354 41.8364 162.354 43.0361Z" fill="var(--vscode-settings-textInputForeground)"/>
<path d="M42.5581 76.8403H41.1362V82.8452C41.1362 84.8257 42.5518 86.2222 44.8433 86.2222C47.1475 86.2222 48.5566 84.8257 48.5566 82.8452V76.8403H47.1348V82.731C47.1348 84.0386 46.3032 84.959 44.8433 84.959C43.3896 84.959 42.5581 84.0386 42.5581 82.731V76.8403ZM50.5308 81.0361C50.5308 82.0581 51.1401 82.6421 52.4541 82.9468L53.6602 83.2324C54.3521 83.3975 54.6758 83.6768 54.6758 84.1084C54.6758 84.6733 54.0728 85.0669 53.2222 85.0669C52.397 85.0669 51.8892 84.7305 51.7178 84.1909H50.353C50.4736 85.3906 51.5464 86.1333 53.1904 86.1333C54.8408 86.1333 56.0532 85.2637 56.0532 83.9814C56.0532 82.9785 55.4375 82.4136 54.1235 82.1089L52.9746 81.8423C52.2256 81.6646 51.8765 81.3979 51.8765 80.9727C51.8765 80.4141 52.4541 80.0396 53.2158 80.0396C53.9902 80.0396 54.4854 80.376 54.6123 80.8901H55.9199C55.7866 79.6968 54.771 78.9731 53.2158 78.9731C51.6543 78.9731 50.5308 79.8364 50.5308 81.0361ZM62.2295 84.1528C61.9756 84.7114 61.4106 85.0161 60.5854 85.0161C59.4937 85.0161 58.7891 84.229 58.7446 82.9785V82.915H63.626V82.4453C63.626 80.2871 62.4644 78.9731 60.541 78.9731C58.5923 78.9731 57.3545 80.376 57.3545 82.5659C57.3545 84.7686 58.5669 86.1333 60.5474 86.1333C62.1279 86.1333 63.2451 85.3716 63.5435 84.1528H62.2295ZM60.5347 80.084C61.5439 80.084 62.2041 80.814 62.2358 81.9312H58.7446C58.8208 80.8203 59.5254 80.084 60.5347 80.084ZM65.2637 86H66.6284V81.8804C66.6284 80.9092 67.3584 80.2427 68.3931 80.2427C68.6343 80.2427 69.0405 80.2871 69.1548 80.3188V79.0366C69.0088 79.0049 68.7485 78.9858 68.5454 78.9858C67.644 78.9858 66.876 79.4746 66.6792 80.1538H66.5776V79.1064H65.2637V86Z" fill="var(--vscode-input-foreground)"/>
<rect x="94" y="80" width="65" height="7" rx="3.5" fill="var(--vscode-tab-unfocusedInactiveForeground, #454545)"/>
<rect x="66" y="97" width="471" height="1" fill="var(--vscode-input-background, #3c3c3c)"/>
<rect x="32" y="97" width="50" height="1" fill="var(--vscode-tab-activeForeground)"/>
<rect x="201" y="164" width="336" height="87" fill="var(--vscode-settings-focusedRowBackground)"/>
<path d="M212.028 185V181.395H215.754V179.877H212.028V177.421H216.109V175.84H210.111V185H212.028ZM218.636 176.938C219.207 176.938 219.677 176.481 219.677 175.91C219.677 175.333 219.207 174.875 218.636 174.875C218.064 174.875 217.588 175.333 217.588 175.91C217.588 176.481 218.064 176.938 218.636 176.938ZM217.709 185H219.556V178.011H217.709V185ZM221.492 185H223.339V175.339H221.492V185ZM229.789 183.026C229.592 183.502 229.09 183.769 228.36 183.769C227.396 183.769 226.786 183.102 226.761 182.036V181.94H231.566V181.388C231.566 179.179 230.347 177.859 228.284 177.859C226.202 177.859 224.92 179.268 224.92 181.541C224.92 183.8 226.177 185.146 228.31 185.146C230.023 185.146 231.236 184.327 231.509 183.026H229.789ZM228.291 179.236C229.154 179.236 229.712 179.833 229.75 180.792H226.767C226.831 179.852 227.434 179.236 228.291 179.236ZM232.924 180.049C232.924 181.122 233.584 181.763 234.943 182.061L236.212 182.347C236.828 182.486 237.095 182.702 237.095 183.058C237.095 183.521 236.6 183.838 235.882 183.838C235.146 183.838 234.695 183.553 234.556 183.07H232.753C232.88 184.391 233.997 185.146 235.844 185.146C237.679 185.146 238.929 184.245 238.929 182.861C238.929 181.82 238.32 181.249 236.961 180.95L235.647 180.665C235 180.519 234.702 180.296 234.702 179.941C234.702 179.484 235.19 179.173 235.851 179.173C236.536 179.173 236.961 179.458 237.057 179.922H238.764C238.663 178.602 237.615 177.859 235.838 177.859C234.092 177.859 232.924 178.741 232.924 180.049ZM241.779 180.652C242.465 180.652 242.903 180.195 242.903 179.573C242.903 178.951 242.465 178.5 241.779 178.5C241.1 178.5 240.656 178.951 240.656 179.573C240.656 180.195 241.1 180.652 241.779 180.652ZM241.779 185.159C242.465 185.159 242.903 184.702 242.903 184.08C242.903 183.458 242.465 183.007 241.779 183.007C241.1 183.007 240.656 183.458 240.656 184.08C240.656 184.702 241.1 185.159 241.779 185.159Z" fill="var(--vscode-tab-activeForeground)"/>
<path d="M254.386 185H256.461L253.281 175.84H251.028L247.848 185H249.771L250.476 182.778H253.694L254.386 185ZM252.037 177.7H252.151L253.288 181.344H250.888L252.037 177.7ZM263.793 178.011H261.946V182.048C261.946 183.007 261.451 183.597 260.53 183.597C259.68 183.597 259.242 183.096 259.242 182.105V178.011H257.395V182.562C257.395 184.188 258.334 185.146 259.845 185.146C260.905 185.146 261.559 184.689 261.889 183.876H262.003V185H263.793V178.011ZM266.173 176.342V178.075H265.082V179.478H266.173V183.115C266.173 184.473 266.846 185.025 268.547 185.025C268.903 185.025 269.246 184.987 269.474 184.943V183.578C269.296 183.597 269.169 183.61 268.928 183.61C268.3 183.61 268.021 183.318 268.021 182.689V179.478H269.474V178.075H268.021V176.342H266.173ZM274.07 185.146C276.222 185.146 277.517 183.788 277.517 181.502C277.517 179.236 276.203 177.859 274.07 177.859C271.937 177.859 270.623 179.243 270.623 181.502C270.623 183.781 271.918 185.146 274.07 185.146ZM274.07 183.686C273.08 183.686 272.521 182.886 272.521 181.502C272.521 180.131 273.086 179.325 274.07 179.325C275.047 179.325 275.619 180.131 275.619 181.502C275.619 182.886 275.054 183.686 274.07 183.686ZM282.15 182.467C282.22 184.162 283.636 185.235 285.819 185.235C288.117 185.235 289.533 184.105 289.533 182.277C289.533 180.861 288.739 180.068 286.898 179.674L285.794 179.439C284.721 179.205 284.283 178.868 284.283 178.291C284.283 177.573 284.918 177.11 285.876 177.11C286.803 177.11 287.476 177.599 287.565 178.348H289.368C289.311 176.729 287.882 175.605 285.864 175.605C283.75 175.605 282.36 176.735 282.36 178.443C282.36 179.833 283.179 180.69 284.848 181.045L286.042 181.306C287.165 181.553 287.622 181.902 287.622 182.505C287.622 183.216 286.917 183.718 285.921 183.718C284.842 183.718 284.093 183.229 284.004 182.467H282.15ZM292.979 185.108C293.887 185.108 294.649 184.721 295.011 184.073H295.125V185H296.915V180.227C296.915 178.735 295.868 177.859 294.014 177.859C292.256 177.859 291.069 178.665 290.948 179.947H292.649C292.802 179.509 293.246 179.274 293.913 179.274C294.674 179.274 295.093 179.624 295.093 180.227V180.804L293.398 180.906C291.659 181.007 290.688 181.744 290.688 183.007C290.688 184.283 291.634 185.108 292.979 185.108ZM293.589 183.756C292.948 183.756 292.497 183.432 292.497 182.893C292.497 182.378 292.884 182.08 293.678 182.029L295.093 181.934V182.455C295.093 183.191 294.446 183.756 293.589 183.756ZM304.869 178.011H302.92L301.485 183.267H301.371L299.924 178.011H297.937L300.368 185H302.45L304.869 178.011ZM310.353 183.026C310.156 183.502 309.655 183.769 308.925 183.769C307.96 183.769 307.351 183.102 307.325 182.036V181.94H312.13V181.388C312.13 179.179 310.912 177.859 308.849 177.859C306.767 177.859 305.484 179.268 305.484 181.541C305.484 183.8 306.741 185.146 308.874 185.146C310.588 185.146 311.8 184.327 312.073 183.026H310.353ZM308.855 179.236C309.718 179.236 310.277 179.833 310.315 180.792H307.332C307.395 179.852 307.998 179.236 308.855 179.236Z" fill="var(--vscode-settings-headerForeground)"/>
<path d="M213.907 205.222C215.951 205.222 217.455 204.048 217.709 202.264H216.293C216.04 203.305 215.119 203.959 213.907 203.959C212.256 203.959 211.228 202.601 211.228 200.423C211.228 198.246 212.256 196.881 213.9 196.881C215.106 196.881 216.027 197.605 216.293 198.741H217.709C217.48 196.907 215.919 195.618 213.9 195.618C211.355 195.618 209.774 197.459 209.774 200.423C209.774 203.381 211.361 205.222 213.907 205.222ZM222.343 205.133C224.361 205.133 225.599 203.781 225.599 201.553C225.599 199.325 224.355 197.973 222.343 197.973C220.324 197.973 219.08 199.332 219.08 201.553C219.08 203.781 220.318 205.133 222.343 205.133ZM222.343 203.972C221.156 203.972 220.489 203.089 220.489 201.553C220.489 200.017 221.156 199.128 222.343 199.128C223.523 199.128 224.196 200.017 224.196 201.553C224.196 203.083 223.523 203.972 222.343 203.972ZM227.243 205H228.608V200.957C228.608 199.846 229.249 199.16 230.258 199.16C231.268 199.16 231.75 199.719 231.75 200.861V205H233.115V200.538C233.115 198.894 232.264 197.973 230.722 197.973C229.681 197.973 228.995 198.437 228.659 199.198H228.557V198.106H227.243V205ZM235.521 196.367V198.125H234.422V199.217H235.521V203.185C235.521 204.511 236.124 205.044 237.641 205.044C237.907 205.044 238.161 205.013 238.383 204.975V203.889C238.193 203.908 238.072 203.921 237.863 203.921C237.184 203.921 236.885 203.597 236.885 202.854V199.217H238.383V198.125H236.885V196.367H235.521ZM239.989 205H241.354V200.88C241.354 199.909 242.084 199.243 243.119 199.243C243.36 199.243 243.766 199.287 243.88 199.319V198.037C243.734 198.005 243.474 197.986 243.271 197.986C242.37 197.986 241.602 198.475 241.405 199.154H241.303V198.106H239.989V205ZM247.937 205.133C249.955 205.133 251.193 203.781 251.193 201.553C251.193 199.325 249.949 197.973 247.937 197.973C245.918 197.973 244.674 199.332 244.674 201.553C244.674 203.781 245.912 205.133 247.937 205.133ZM247.937 203.972C246.75 203.972 246.083 203.089 246.083 201.553C246.083 200.017 246.75 199.128 247.937 199.128C249.117 199.128 249.79 200.017 249.79 201.553C249.79 203.083 249.117 203.972 247.937 203.972ZM252.9 205H254.265V195.402H252.9V205ZM256.157 200.036C256.157 201.058 256.766 201.642 258.08 201.947L259.286 202.232C259.978 202.397 260.302 202.677 260.302 203.108C260.302 203.673 259.699 204.067 258.848 204.067C258.023 204.067 257.515 203.73 257.344 203.191H255.979C256.1 204.391 257.172 205.133 258.816 205.133C260.467 205.133 261.679 204.264 261.679 202.981C261.679 201.979 261.063 201.414 259.75 201.109L258.601 200.842C257.852 200.665 257.502 200.398 257.502 199.973C257.502 199.414 258.08 199.04 258.842 199.04C259.616 199.04 260.111 199.376 260.238 199.89H261.546C261.413 198.697 260.397 197.973 258.842 197.973C257.28 197.973 256.157 198.836 256.157 200.036ZM268.789 205.114C269.696 205.114 270.452 204.721 270.864 204.022H270.972V205H272.286V200.284C272.286 198.836 271.309 197.973 269.576 197.973C268.008 197.973 266.891 198.729 266.751 199.89H268.071C268.224 199.389 268.75 199.103 269.512 199.103C270.445 199.103 270.928 199.528 270.928 200.284V200.887L269.055 201.001C267.411 201.103 266.484 201.82 266.484 203.058C266.484 204.314 267.456 205.114 268.789 205.114ZM269.138 204.016C268.395 204.016 267.855 203.642 267.855 203C267.855 202.372 268.287 202.036 269.239 201.972L270.928 201.858V202.455C270.928 203.343 270.166 204.016 269.138 204.016ZM280.056 198.106H278.691V202.15C278.691 203.261 278.088 203.934 276.983 203.934C275.98 203.934 275.53 203.388 275.53 202.245V198.106H274.165V202.582C274.165 204.2 275.016 205.133 276.545 205.133C277.593 205.133 278.297 204.689 278.634 203.908H278.742V205H280.056V198.106ZM282.519 196.367V198.125H281.42V199.217H282.519V203.185C282.519 204.511 283.122 205.044 284.639 205.044C284.905 205.044 285.159 205.013 285.381 204.975V203.889C285.191 203.908 285.07 203.921 284.861 203.921C284.182 203.921 283.883 203.597 283.883 202.854V199.217H285.381V198.125H283.883V196.367H282.519ZM289.831 205.133C291.85 205.133 293.087 203.781 293.087 201.553C293.087 199.325 291.843 197.973 289.831 197.973C287.812 197.973 286.568 199.332 286.568 201.553C286.568 203.781 287.806 205.133 289.831 205.133ZM289.831 203.972C288.644 203.972 287.978 203.089 287.978 201.553C287.978 200.017 288.644 199.128 289.831 199.128C291.012 199.128 291.685 200.017 291.685 201.553C291.685 203.083 291.012 203.972 289.831 203.972ZM298.127 200.036C298.127 201.058 298.737 201.642 300.051 201.947L301.257 202.232C301.949 202.397 302.272 202.677 302.272 203.108C302.272 203.673 301.669 204.067 300.819 204.067C299.994 204.067 299.486 203.73 299.314 203.191H297.95C298.07 204.391 299.143 205.133 300.787 205.133C302.438 205.133 303.65 204.264 303.65 202.981C303.65 201.979 303.034 201.414 301.72 201.109L300.571 200.842C299.822 200.665 299.473 200.398 299.473 199.973C299.473 199.414 300.051 199.04 300.812 199.04C301.587 199.04 302.082 199.376 302.209 199.89H303.517C303.383 198.697 302.368 197.973 300.812 197.973C299.251 197.973 298.127 198.836 298.127 200.036ZM307.205 205.114C308.112 205.114 308.868 204.721 309.28 204.022H309.388V205H310.702V200.284C310.702 198.836 309.725 197.973 307.992 197.973C306.424 197.973 305.307 198.729 305.167 199.89H306.487C306.64 199.389 307.167 199.103 307.928 199.103C308.861 199.103 309.344 199.528 309.344 200.284V200.887L307.471 201.001C305.827 201.103 304.9 201.82 304.9 203.058C304.9 204.314 305.872 205.114 307.205 205.114ZM307.554 204.016C306.811 204.016 306.271 203.642 306.271 203C306.271 202.372 306.703 202.036 307.655 201.972L309.344 201.858V202.455C309.344 203.343 308.582 204.016 307.554 204.016ZM318.269 198.106H316.821L315.107 203.604H315L313.279 198.106H311.819L314.314 205H315.78L318.269 198.106ZM323.918 203.153C323.664 203.711 323.099 204.016 322.274 204.016C321.182 204.016 320.478 203.229 320.433 201.979V201.915H325.314V201.445C325.314 199.287 324.153 197.973 322.229 197.973C320.281 197.973 319.043 199.376 319.043 201.566C319.043 203.769 320.255 205.133 322.236 205.133C323.816 205.133 324.934 204.372 325.232 203.153H323.918ZM322.223 199.084C323.232 199.084 323.893 199.814 323.924 200.931H320.433C320.509 199.82 321.214 199.084 322.223 199.084ZM333.427 205.133C335.445 205.133 336.683 203.781 336.683 201.553C336.683 199.325 335.439 197.973 333.427 197.973C331.408 197.973 330.164 199.332 330.164 201.553C330.164 203.781 331.402 205.133 333.427 205.133ZM333.427 203.972C332.24 203.972 331.573 203.089 331.573 201.553C331.573 200.017 332.24 199.128 333.427 199.128C334.607 199.128 335.28 200.017 335.28 201.553C335.28 203.083 334.607 203.972 333.427 203.972ZM338.816 205H340.181V199.217H341.704V198.125H340.162V197.446C340.162 196.748 340.473 196.399 341.234 196.399C341.45 196.399 341.634 196.412 341.761 196.431V195.402C341.526 195.364 341.26 195.339 340.949 195.339C339.514 195.339 338.816 196.012 338.816 197.383V198.125H337.68V199.217H338.816V205ZM349.334 205.114C350.286 205.114 351.092 204.664 351.505 203.908H351.613V205H352.92V195.402H351.556V199.198H351.454C351.08 198.443 350.28 197.986 349.334 197.986C347.588 197.986 346.465 199.376 346.465 201.547C346.465 203.73 347.576 205.114 349.334 205.114ZM349.721 199.154C350.864 199.154 351.581 200.081 351.581 201.553C351.581 203.039 350.87 203.946 349.721 203.946C348.566 203.946 347.874 203.051 347.874 201.553C347.874 200.062 348.572 199.154 349.721 199.154ZM355.675 196.875C356.151 196.875 356.539 196.488 356.539 196.018C356.539 195.542 356.151 195.155 355.675 195.155C355.199 195.155 354.812 195.542 354.812 196.018C354.812 196.488 355.199 196.875 355.675 196.875ZM354.996 205H356.354V198.106H354.996V205ZM358.36 205H359.725V200.88C359.725 199.909 360.455 199.243 361.49 199.243C361.731 199.243 362.137 199.287 362.251 199.319V198.037C362.105 198.005 361.845 197.986 361.642 197.986C360.741 197.986 359.973 198.475 359.776 199.154H359.674V198.106H358.36V205ZM364.403 196.367V198.125H363.305V199.217H364.403V203.185C364.403 204.511 365.006 205.044 366.523 205.044C366.79 205.044 367.044 205.013 367.266 204.975V203.889C367.076 203.908 366.955 203.921 366.746 203.921C366.066 203.921 365.768 203.597 365.768 202.854V199.217H367.266V198.125H365.768V196.367H364.403ZM369.558 207.501C370.967 207.501 371.621 206.974 372.211 205.317L374.788 198.106H373.341L371.614 203.629H371.506L369.773 198.106H368.288L370.789 205.019L370.688 205.375C370.453 206.104 370.084 206.377 369.437 206.377C369.31 206.377 369.101 206.371 368.993 206.352V207.469C369.12 207.488 369.443 207.501 369.558 207.501ZM384.271 203.153C384.018 203.711 383.453 204.016 382.627 204.016C381.536 204.016 380.831 203.229 380.787 201.979V201.915H385.668V201.445C385.668 199.287 384.506 197.973 382.583 197.973C380.634 197.973 379.396 199.376 379.396 201.566C379.396 203.769 380.609 205.133 382.589 205.133C384.17 205.133 385.287 204.372 385.585 203.153H384.271ZM382.577 199.084C383.586 199.084 384.246 199.814 384.278 200.931H380.787C380.863 199.82 381.567 199.084 382.577 199.084ZM389.832 205.114C390.784 205.114 391.59 204.664 392.003 203.908H392.111V205H393.418V195.402H392.054V199.198H391.952C391.578 198.443 390.778 197.986 389.832 197.986C388.086 197.986 386.963 199.376 386.963 201.547C386.963 203.73 388.074 205.114 389.832 205.114ZM390.219 199.154C391.362 199.154 392.079 200.081 392.079 201.553C392.079 203.039 391.368 203.946 390.219 203.946C389.064 203.946 388.372 203.051 388.372 201.553C388.372 200.062 389.07 199.154 390.219 199.154ZM396.173 196.875C396.649 196.875 397.037 196.488 397.037 196.018C397.037 195.542 396.649 195.155 396.173 195.155C395.697 195.155 395.31 195.542 395.31 196.018C395.31 196.488 395.697 196.875 396.173 196.875ZM395.494 205H396.853V198.106H395.494V205ZM399.341 196.367V198.125H398.243V199.217H399.341V203.185C399.341 204.511 399.944 205.044 401.461 205.044C401.728 205.044 401.981 205.013 402.204 204.975V203.889C402.013 203.908 401.893 203.921 401.683 203.921C401.004 203.921 400.706 203.597 400.706 202.854V199.217H402.204V198.125H400.706V196.367H399.341ZM406.653 205.133C408.672 205.133 409.91 203.781 409.91 201.553C409.91 199.325 408.666 197.973 406.653 197.973C404.635 197.973 403.391 199.332 403.391 201.553C403.391 203.781 404.628 205.133 406.653 205.133ZM406.653 203.972C405.466 203.972 404.8 203.089 404.8 201.553C404.8 200.017 405.466 199.128 406.653 199.128C407.834 199.128 408.507 200.017 408.507 201.553C408.507 203.083 407.834 203.972 406.653 203.972ZM411.554 205H412.918V200.88C412.918 199.909 413.648 199.243 414.683 199.243C414.924 199.243 415.331 199.287 415.445 199.319V198.037C415.299 198.005 415.039 197.986 414.835 197.986C413.934 197.986 413.166 198.475 412.969 199.154H412.868V198.106H411.554V205ZM416.46 200.036C416.46 201.058 417.07 201.642 418.384 201.947L419.59 202.232C420.282 202.397 420.605 202.677 420.605 203.108C420.605 203.673 420.002 204.067 419.152 204.067C418.327 204.067 417.819 203.73 417.647 203.191H416.283C416.403 204.391 417.476 205.133 419.12 205.133C420.771 205.133 421.983 204.264 421.983 202.981C421.983 201.979 421.367 201.414 420.053 201.109L418.904 200.842C418.155 200.665 417.806 200.398 417.806 199.973C417.806 199.414 418.384 199.04 419.146 199.04C419.92 199.04 420.415 199.376 420.542 199.89H421.85C421.716 198.697 420.701 197.973 419.146 197.973C417.584 197.973 416.46 198.836 416.46 200.036Z" fill="var(--vscode-foreground)"/>
<path d="M216.179 343.419H212.028V341.103H215.944V339.63H212.028V337.421H216.179V335.84H210.111V345H216.179V343.419ZM220.521 345.108C221.492 345.108 222.286 344.657 222.66 343.902H222.774V345H224.564V335.339H222.717V339.128H222.609C222.248 338.354 221.467 337.897 220.521 337.897C218.763 337.897 217.671 339.274 217.671 341.496C217.671 343.724 218.756 345.108 220.521 345.108ZM221.149 339.395C222.133 339.395 222.736 340.201 222.736 341.509C222.736 342.816 222.14 343.616 221.149 343.616C220.159 343.616 219.569 342.823 219.569 341.502C219.569 340.188 220.166 339.395 221.149 339.395ZM227.421 336.938C227.992 336.938 228.462 336.481 228.462 335.91C228.462 335.333 227.992 334.875 227.421 334.875C226.85 334.875 226.374 335.333 226.374 335.91C226.374 336.481 226.85 336.938 227.421 336.938ZM226.494 345H228.341V338.011H226.494V345ZM230.741 336.342V338.075H229.649V339.478H230.741V343.115C230.741 344.473 231.414 345.025 233.115 345.025C233.47 345.025 233.813 344.987 234.042 344.943V343.578C233.864 343.597 233.737 343.61 233.496 343.61C232.867 343.61 232.588 343.318 232.588 342.689V339.478H234.042V338.075H232.588V336.342H230.741ZM238.637 345.146C240.789 345.146 242.084 343.788 242.084 341.502C242.084 339.236 240.77 337.859 238.637 337.859C236.504 337.859 235.19 339.243 235.19 341.502C235.19 343.781 236.485 345.146 238.637 345.146ZM238.637 343.686C237.647 343.686 237.088 342.886 237.088 341.502C237.088 340.131 237.653 339.325 238.637 339.325C239.615 339.325 240.186 340.131 240.186 341.502C240.186 342.886 239.621 343.686 238.637 343.686ZM243.595 345H245.442V341.09C245.442 340.106 246.134 339.503 247.143 339.503C247.441 339.503 247.873 339.554 248.019 339.604V337.979C247.86 337.929 247.549 337.897 247.295 337.897C246.407 337.897 245.683 338.424 245.499 339.122H245.385V338.011H243.595V345ZM250.59 340.652C251.275 340.652 251.713 340.195 251.713 339.573C251.713 338.951 251.275 338.5 250.59 338.5C249.911 338.5 249.466 338.951 249.466 339.573C249.466 340.195 249.911 340.652 250.59 340.652ZM250.59 345.159C251.275 345.159 251.713 344.702 251.713 344.08C251.713 343.458 251.275 343.007 250.59 343.007C249.911 343.007 249.466 343.458 249.466 344.08C249.466 344.702 249.911 345.159 250.59 345.159Z" fill="var(--vscode-foreground)"/>
<path d="M259.229 345V341.395H262.955V339.877H259.229V337.421H263.311V335.84H257.312V345H259.229ZM268.001 345.146C270.153 345.146 271.448 343.788 271.448 341.502C271.448 339.236 270.134 337.859 268.001 337.859C265.869 337.859 264.555 339.243 264.555 341.502C264.555 343.781 265.85 345.146 268.001 345.146ZM268.001 343.686C267.011 343.686 266.453 342.886 266.453 341.502C266.453 340.131 267.018 339.325 268.001 339.325C268.979 339.325 269.55 340.131 269.55 341.502C269.55 342.886 268.985 343.686 268.001 343.686ZM272.959 345H274.806V340.957C274.806 340.011 275.333 339.401 276.19 339.401C277.066 339.401 277.479 339.916 277.479 340.899V345H279.326V340.48C279.326 338.811 278.488 337.859 276.933 337.859C275.898 337.859 275.187 338.348 274.863 339.135H274.749V338.011H272.959V345ZM281.649 336.342V338.075H280.557V339.478H281.649V343.115C281.649 344.473 282.322 345.025 284.023 345.025C284.378 345.025 284.721 344.987 284.95 344.943V343.578C284.772 343.597 284.645 343.61 284.404 343.61C283.775 343.61 283.496 343.318 283.496 342.689V339.478H284.95V338.075H283.496V336.342H281.649ZM291.945 345V341.395H295.671V339.877H291.945V337.421H296.026V335.84H290.028V345H291.945ZM299.213 345.108C300.121 345.108 300.882 344.721 301.244 344.073H301.358V345H303.148V340.227C303.148 338.735 302.101 337.859 300.248 337.859C298.489 337.859 297.302 338.665 297.182 339.947H298.883C299.035 339.509 299.479 339.274 300.146 339.274C300.908 339.274 301.327 339.624 301.327 340.227V340.804L299.632 340.906C297.893 341.007 296.921 341.744 296.921 343.007C296.921 344.283 297.867 345.108 299.213 345.108ZM299.822 343.756C299.181 343.756 298.73 343.432 298.73 342.893C298.73 342.378 299.118 342.08 299.911 342.029L301.327 341.934V342.455C301.327 343.191 300.679 343.756 299.822 343.756ZM304.964 345H306.811V340.785C306.811 339.985 307.325 339.401 308.049 339.401C308.772 339.401 309.204 339.833 309.204 340.582V345H310.981V340.703C310.981 339.947 311.464 339.401 312.213 339.401C312.994 339.401 313.381 339.82 313.381 340.665V345H315.228V340.201C315.228 338.76 314.358 337.859 312.962 337.859C311.984 337.859 311.178 338.373 310.854 339.147H310.74C310.461 338.348 309.788 337.859 308.804 337.859C307.884 337.859 307.154 338.348 306.868 339.147H306.754V338.011H304.964V345ZM317.964 336.938C318.535 336.938 319.005 336.481 319.005 335.91C319.005 335.333 318.535 334.875 317.964 334.875C317.393 334.875 316.917 335.333 316.917 335.91C316.917 336.481 317.393 336.938 317.964 336.938ZM317.037 345H318.884V338.011H317.037V345ZM320.82 345H322.667V335.339H320.82V345ZM325.46 347.539C327.206 347.539 328.063 346.917 328.66 345.133L331.072 338.011H329.117L327.644 343.343H327.53L326.057 338.011H324.02L326.476 345.038L326.413 345.305C326.26 345.87 325.867 346.098 325.175 346.098C325.099 346.098 324.819 346.092 324.756 346.079V347.52C324.832 347.533 325.391 347.539 325.46 347.539Z" fill="var(--vscode-settings-headerForeground)"/>
<rect x="209" y="361" width="157" height="8" rx="4" fill="var(--vscode-tab-unfocusedInactiveForeground, #454545)"/>
<rect x="372" y="361" width="51" height="8" rx="4" fill="var(--vscode-focusBorder)"/>
<rect x="209" y="381" width="302" height="8" rx="4" fill="var(--vscode-tab-unfocusedInactiveForeground, #454545)"/>
<path d="M216.179 424.419H212.028V422.103H215.944V420.63H212.028V418.421H216.179V416.84H210.111V426H216.179V424.419ZM220.521 426.108C221.492 426.108 222.286 425.657 222.66 424.902H222.774V426H224.564V416.339H222.717V420.128H222.609C222.248 419.354 221.467 418.897 220.521 418.897C218.763 418.897 217.671 420.274 217.671 422.496C217.671 424.724 218.756 426.108 220.521 426.108ZM221.149 420.395C222.133 420.395 222.736 421.201 222.736 422.509C222.736 423.816 222.14 424.616 221.149 424.616C220.159 424.616 219.569 423.823 219.569 422.502C219.569 421.188 220.166 420.395 221.149 420.395ZM227.421 417.938C227.992 417.938 228.462 417.481 228.462 416.91C228.462 416.333 227.992 415.875 227.421 415.875C226.85 415.875 226.374 416.333 226.374 416.91C226.374 417.481 226.85 417.938 227.421 417.938ZM226.494 426H228.341V419.011H226.494V426ZM230.741 417.342V419.075H229.649V420.478H230.741V424.115C230.741 425.473 231.414 426.025 233.115 426.025C233.47 426.025 233.813 425.987 234.042 425.943V424.578C233.864 424.597 233.737 424.61 233.496 424.61C232.867 424.61 232.588 424.318 232.588 423.689V420.478H234.042V419.075H232.588V417.342H230.741ZM238.637 426.146C240.789 426.146 242.084 424.788 242.084 422.502C242.084 420.236 240.77 418.859 238.637 418.859C236.504 418.859 235.19 420.243 235.19 422.502C235.19 424.781 236.485 426.146 238.637 426.146ZM238.637 424.686C237.647 424.686 237.088 423.886 237.088 422.502C237.088 421.131 237.653 420.325 238.637 420.325C239.615 420.325 240.186 421.131 240.186 422.502C240.186 423.886 239.621 424.686 238.637 424.686ZM243.595 426H245.442V422.09C245.442 421.106 246.134 420.503 247.143 420.503C247.441 420.503 247.873 420.554 248.019 420.604V418.979C247.86 418.929 247.549 418.897 247.295 418.897C246.407 418.897 245.683 419.424 245.499 420.122H245.385V419.011H243.595V426ZM250.59 421.652C251.275 421.652 251.713 421.195 251.713 420.573C251.713 419.951 251.275 419.5 250.59 419.5C249.911 419.5 249.466 419.951 249.466 420.573C249.466 421.195 249.911 421.652 250.59 421.652ZM250.59 426.159C251.275 426.159 251.713 425.702 251.713 425.08C251.713 424.458 251.275 424.007 250.59 424.007C249.911 424.007 249.466 424.458 249.466 425.08C249.466 425.702 249.911 426.159 250.59 426.159Z" fill="var(--vscode-foreground)"/>
<path d="M262.708 419.83H262.809L264.542 426H266.338L268.77 416.84H266.789L265.374 423.385H265.272L263.571 416.84H261.952L260.283 423.385H260.181L258.753 416.84H256.76L259.185 426H260.994L262.708 419.83ZM272.597 426.146C274.749 426.146 276.044 424.788 276.044 422.502C276.044 420.236 274.73 418.859 272.597 418.859C270.464 418.859 269.15 420.243 269.15 422.502C269.15 424.781 270.445 426.146 272.597 426.146ZM272.597 424.686C271.607 424.686 271.048 423.886 271.048 422.502C271.048 421.131 271.613 420.325 272.597 420.325C273.575 420.325 274.146 421.131 274.146 422.502C274.146 423.886 273.581 424.686 272.597 424.686ZM277.555 426H279.402V422.09C279.402 421.106 280.094 420.503 281.103 420.503C281.401 420.503 281.833 420.554 281.979 420.604V418.979C281.82 418.929 281.509 418.897 281.255 418.897C280.367 418.897 279.643 419.424 279.459 420.122H279.345V419.011H277.555V426ZM285.559 426.108C286.53 426.108 287.324 425.657 287.698 424.902H287.812V426H289.603V416.339H287.755V420.128H287.647C287.286 419.354 286.505 418.897 285.559 418.897C283.801 418.897 282.709 420.274 282.709 422.496C282.709 424.724 283.794 426.108 285.559 426.108ZM286.188 420.395C287.171 420.395 287.774 421.201 287.774 422.509C287.774 423.816 287.178 424.616 286.188 424.616C285.197 424.616 284.607 423.823 284.607 422.502C284.607 421.188 285.204 420.395 286.188 420.395ZM300.451 419.83H300.552L302.285 426H304.082L306.513 416.84H304.532L303.117 423.385H303.015L301.314 416.84H299.695L298.026 423.385H297.924L296.496 416.84H294.503L296.928 426H298.737L300.451 419.83ZM307.554 426H309.401V422.09C309.401 421.106 310.093 420.503 311.102 420.503C311.4 420.503 311.832 420.554 311.978 420.604V418.979C311.819 418.929 311.508 418.897 311.254 418.897C310.366 418.897 309.642 419.424 309.458 420.122H309.344V419.011H307.554V426ZM315.006 426.108C315.914 426.108 316.675 425.721 317.037 425.073H317.151V426H318.941V421.227C318.941 419.735 317.894 418.859 316.041 418.859C314.282 418.859 313.095 419.665 312.975 420.947H314.676C314.828 420.509 315.272 420.274 315.939 420.274C316.701 420.274 317.12 420.624 317.12 421.227V421.804L315.425 421.906C313.686 422.007 312.714 422.744 312.714 424.007C312.714 425.283 313.66 426.108 315.006 426.108ZM315.615 424.756C314.974 424.756 314.523 424.432 314.523 423.893C314.523 423.378 314.911 423.08 315.704 423.029L317.12 422.934V423.455C317.12 424.191 316.472 424.756 315.615 424.756ZM324.8 418.897C323.835 418.897 323.042 419.373 322.661 420.16H322.547V419.011H320.757V428.317H322.604V424.934H322.718C323.061 425.67 323.829 426.108 324.832 426.108C326.584 426.108 327.657 424.75 327.657 422.502C327.657 420.249 326.571 418.897 324.8 418.897ZM324.172 424.616C323.194 424.616 322.585 423.816 322.585 422.509C322.585 421.201 323.194 420.395 324.178 420.395C325.162 420.395 325.759 421.188 325.759 422.502C325.759 423.823 325.168 424.616 324.172 424.616Z" fill="var(--vscode-settings-headerForeground)"/>
<rect x="209" y="442" width="101" height="8" rx="4" fill="var(--vscode-tab-unfocusedInactiveForeground, #454545)"/>
<rect x="209" y="462" width="302" height="8" rx="4" fill="var(--vscode-tab-unfocusedInactiveForeground, #454545)"/>
<rect x="208.5" y="218.5" width="307" height="25" fill="var(--vscode-dropdown-background)"/>
<path d="M216.91 236.133C218.929 236.133 220.167 234.781 220.167 232.553C220.167 230.325 218.922 228.973 216.91 228.973C214.892 228.973 213.647 230.332 213.647 232.553C213.647 234.781 214.885 236.133 216.91 236.133ZM216.91 234.972C215.723 234.972 215.057 234.089 215.057 232.553C215.057 231.017 215.723 230.128 216.91 230.128C218.091 230.128 218.764 231.017 218.764 232.553C218.764 234.083 218.091 234.972 216.91 234.972ZM222.299 236H223.664V230.217H225.188V229.125H223.645V228.446C223.645 227.748 223.956 227.399 224.718 227.399C224.934 227.399 225.118 227.412 225.245 227.431V226.402C225.01 226.364 224.743 226.339 224.432 226.339C222.998 226.339 222.299 227.012 222.299 228.383V229.125H221.163V230.217H222.299V236ZM227.25 236H228.615V230.217H230.139V229.125H228.596V228.446C228.596 227.748 228.907 227.399 229.669 227.399C229.885 227.399 230.069 227.412 230.196 227.431V226.402C229.961 226.364 229.694 226.339 229.383 226.339C227.949 226.339 227.25 227.012 227.25 228.383V229.125H226.114V230.217H227.25V236Z" fill="var(--vscode-foreground)"/>
<path d="M502.984 233.064L507.336 228.712L507.96 229.336L503.288 233.992H502.664L498.008 229.336L498.616 228.712L502.984 233.064Z" fill="var(--vscode-quickInputList-focusForeground)"/>
<rect x="208.5" y="218.5" width="307" height="25" stroke="var(--vscode-focusBorder)"/>
<rect x="208.5" y="242.5" width="307" height="81" fill="var(--vscode-dropdown-background)"/>
<rect width="306" height="20" transform="translate(209 243)" fill="var(--vscode-quickInputList-focusBackground)"/>
<path d="M216.91 258.133C218.929 258.133 220.167 256.781 220.167 254.553C220.167 252.325 218.922 250.973 216.91 250.973C214.892 250.973 213.647 252.332 213.647 254.553C213.647 256.781 214.885 258.133 216.91 258.133ZM216.91 256.972C215.723 256.972 215.057 256.089 215.057 254.553C215.057 253.017 215.723 252.128 216.91 252.128C218.091 252.128 218.764 253.017 218.764 254.553C218.764 256.083 218.091 256.972 216.91 256.972ZM222.299 258H223.664V252.217H225.188V251.125H223.645V250.446C223.645 249.748 223.956 249.399 224.718 249.399C224.934 249.399 225.118 249.412 225.245 249.431V248.402C225.01 248.364 224.743 248.339 224.432 248.339C222.998 248.339 222.299 249.012 222.299 250.383V251.125H221.163V252.217H222.299V258ZM227.25 258H228.615V252.217H230.139V251.125H228.596V250.446C228.596 249.748 228.907 249.399 229.669 249.399C229.885 249.399 230.069 249.412 230.196 249.431V248.402C229.961 248.364 229.694 248.339 229.383 248.339C227.949 248.339 227.25 249.012 227.25 250.383V251.125H226.114V252.217H227.25V258Z" fill="var(--vscode-editorSuggestWidget-selectedForeground)"/>
<path d="M215.901 278.114C216.809 278.114 217.564 277.721 217.977 277.022H218.084V278H219.398V273.284C219.398 271.836 218.421 270.973 216.688 270.973C215.12 270.973 214.003 271.729 213.863 272.89H215.184C215.336 272.389 215.863 272.103 216.625 272.103C217.558 272.103 218.04 272.528 218.04 273.284V273.887L216.167 274.001C214.523 274.103 213.597 274.82 213.597 276.058C213.597 277.314 214.568 278.114 215.901 278.114ZM216.25 277.016C215.507 277.016 214.968 276.642 214.968 276C214.968 275.372 215.399 275.036 216.352 274.972L218.04 274.858V275.455C218.04 276.343 217.278 277.016 216.25 277.016ZM221.83 278H223.194V272.217H224.718V271.125H223.175V270.446C223.175 269.748 223.486 269.399 224.248 269.399C224.464 269.399 224.648 269.412 224.775 269.431V268.402C224.54 268.364 224.273 268.339 223.962 268.339C222.528 268.339 221.83 269.012 221.83 270.383V271.125H220.693V272.217H221.83V278ZM226.774 269.367V271.125H225.676V272.217H226.774V276.185C226.774 277.511 227.377 278.044 228.895 278.044C229.161 278.044 229.415 278.013 229.637 277.975V276.889C229.447 276.908 229.326 276.921 229.117 276.921C228.438 276.921 228.139 276.597 228.139 275.854V272.217H229.637V271.125H228.139V269.367H226.774ZM235.699 276.153C235.445 276.711 234.88 277.016 234.055 277.016C232.963 277.016 232.259 276.229 232.214 274.979V274.915H237.096V274.445C237.096 272.287 235.934 270.973 234.011 270.973C232.062 270.973 230.824 272.376 230.824 274.566C230.824 276.769 232.037 278.133 234.017 278.133C235.598 278.133 236.715 277.372 237.013 276.153H235.699ZM234.004 272.084C235.014 272.084 235.674 272.814 235.706 273.931H232.214C232.291 272.82 232.995 272.084 234.004 272.084ZM238.733 278H240.098V273.88C240.098 272.909 240.828 272.243 241.863 272.243C242.104 272.243 242.51 272.287 242.625 272.319V271.037C242.479 271.005 242.218 270.986 242.015 270.986C241.114 270.986 240.346 271.475 240.149 272.154H240.047V271.106H238.733V278ZM244.097 268.84V278H247.404C250.134 278 251.714 276.312 251.714 273.398C251.714 270.516 250.121 268.84 247.404 268.84H244.097ZM245.519 270.065H247.246C249.144 270.065 250.267 271.303 250.267 273.417C250.267 275.55 249.163 276.775 247.246 276.775H245.519V270.065ZM258.018 276.153C257.764 276.711 257.199 277.016 256.374 277.016C255.282 277.016 254.577 276.229 254.533 274.979V274.915H259.414V274.445C259.414 272.287 258.252 270.973 256.329 270.973C254.38 270.973 253.143 272.376 253.143 274.566C253.143 276.769 254.355 278.133 256.335 278.133C257.916 278.133 259.033 277.372 259.332 276.153H258.018ZM256.323 272.084C257.332 272.084 257.992 272.814 258.024 273.931H254.533C254.609 272.82 255.313 272.084 256.323 272.084ZM261.115 278H262.48V268.402H261.115V278ZM266.441 278.114C267.349 278.114 268.104 277.721 268.517 277.022H268.625V278H269.938V273.284C269.938 271.836 268.961 270.973 267.228 270.973C265.66 270.973 264.543 271.729 264.403 272.89H265.724C265.876 272.389 266.403 272.103 267.165 272.103C268.098 272.103 268.58 272.528 268.58 273.284V273.887L266.708 274.001C265.063 274.103 264.137 274.82 264.137 276.058C264.137 277.314 265.108 278.114 266.441 278.114ZM266.79 277.016C266.047 277.016 265.508 276.642 265.508 276C265.508 275.372 265.939 275.036 266.892 274.972L268.58 274.858V275.455C268.58 276.343 267.818 277.016 266.79 277.016ZM272.338 280.501C273.747 280.501 274.401 279.974 274.991 278.317L277.568 271.106H276.121L274.395 276.629H274.287L272.554 271.106H271.068L273.569 278.019L273.468 278.375C273.233 279.104 272.865 279.377 272.217 279.377C272.09 279.377 271.881 279.371 271.773 279.352V280.469C271.9 280.488 272.224 280.501 272.338 280.501Z" fill="var(--vscode-foreground)"/>
<path d="M216.91 298.133C218.929 298.133 220.167 296.781 220.167 294.553C220.167 292.325 218.922 290.973 216.91 290.973C214.892 290.973 213.647 292.332 213.647 294.553C213.647 296.781 214.885 298.133 216.91 298.133ZM216.91 296.972C215.723 296.972 215.057 296.089 215.057 294.553C215.057 293.017 215.723 292.128 216.91 292.128C218.091 292.128 218.764 293.017 218.764 294.553C218.764 296.083 218.091 296.972 216.91 296.972ZM221.811 298H223.175V293.957C223.175 292.846 223.816 292.16 224.826 292.16C225.835 292.16 226.317 292.719 226.317 293.861V298H227.682V293.538C227.682 291.894 226.832 290.973 225.289 290.973C224.248 290.973 223.562 291.437 223.226 292.198H223.125V291.106H221.811V298ZM231.186 298V294.166H235.122V292.966H231.186V290.065H235.483V288.84H229.764V298H231.186ZM240.092 298.133C242.11 298.133 243.348 296.781 243.348 294.553C243.348 292.325 242.104 290.973 240.092 290.973C238.073 290.973 236.829 292.332 236.829 294.553C236.829 296.781 238.067 298.133 240.092 298.133ZM240.092 296.972C238.905 296.972 238.238 296.089 238.238 294.553C238.238 293.017 238.905 292.128 240.092 292.128C241.272 292.128 241.945 293.017 241.945 294.553C241.945 296.083 241.272 296.972 240.092 296.972ZM250.845 293.322C250.667 291.982 249.62 290.973 247.887 290.973C245.875 290.973 244.649 292.338 244.649 294.528C244.649 296.762 245.881 298.133 247.893 298.133C249.601 298.133 250.667 297.175 250.845 295.816H249.518C249.34 296.565 248.75 296.972 247.887 296.972C246.75 296.972 246.046 296.051 246.046 294.528C246.046 293.036 246.744 292.135 247.887 292.135C248.801 292.135 249.359 292.649 249.518 293.322H250.845ZM258.233 291.106H256.869V295.15C256.869 296.261 256.266 296.934 255.161 296.934C254.158 296.934 253.708 296.388 253.708 295.245V291.106H252.343V295.582C252.343 297.2 253.193 298.133 254.723 298.133C255.771 298.133 256.475 297.689 256.812 296.908H256.919V298H258.233V291.106ZM260.055 293.036C260.055 294.058 260.665 294.642 261.979 294.947L263.185 295.232C263.876 295.397 264.2 295.677 264.2 296.108C264.2 296.673 263.597 297.067 262.747 297.067C261.921 297.067 261.414 296.73 261.242 296.191H259.877C259.998 297.391 261.071 298.133 262.715 298.133C264.365 298.133 265.578 297.264 265.578 295.981C265.578 294.979 264.962 294.414 263.648 294.109L262.499 293.842C261.75 293.665 261.401 293.398 261.401 292.973C261.401 292.414 261.979 292.04 262.74 292.04C263.515 292.04 264.01 292.376 264.137 292.89H265.444C265.311 291.697 264.295 290.973 262.74 290.973C261.179 290.973 260.055 291.836 260.055 293.036ZM271.125 298.222C273.169 298.222 274.674 297.048 274.928 295.264H273.512C273.258 296.305 272.338 296.959 271.125 296.959C269.475 296.959 268.447 295.601 268.447 293.423C268.447 291.246 269.475 289.881 271.119 289.881C272.325 289.881 273.246 290.605 273.512 291.741H274.928C274.699 289.907 273.138 288.618 271.119 288.618C268.574 288.618 266.993 290.459 266.993 293.423C266.993 296.381 268.58 298.222 271.125 298.222ZM276.705 298H278.07V293.963C278.07 292.884 278.692 292.167 279.809 292.167C280.774 292.167 281.288 292.731 281.288 293.868V298H282.653V293.544C282.653 291.913 281.745 290.979 280.272 290.979C279.231 290.979 278.501 291.437 278.165 292.205H278.057V288.402H276.705V298ZM286.487 298.114C287.395 298.114 288.15 297.721 288.562 297.022H288.67V298H289.984V293.284C289.984 291.836 289.007 290.973 287.274 290.973C285.706 290.973 284.589 291.729 284.449 292.89H285.77C285.922 292.389 286.449 292.103 287.21 292.103C288.144 292.103 288.626 292.528 288.626 293.284V293.887L286.753 294.001C285.109 294.103 284.183 294.82 284.183 296.058C284.183 297.314 285.154 298.114 286.487 298.114ZM286.836 297.016C286.093 297.016 285.554 296.642 285.554 296C285.554 295.372 285.985 295.036 286.938 294.972L288.626 294.858V295.455C288.626 296.343 287.864 297.016 286.836 297.016ZM291.927 298H293.292V293.957C293.292 292.846 293.933 292.16 294.942 292.16C295.951 292.16 296.434 292.719 296.434 293.861V298H297.798V293.538C297.798 291.894 296.948 290.973 295.405 290.973C294.364 290.973 293.679 291.437 293.342 292.198H293.241V291.106H291.927V298ZM302.635 300.634C304.59 300.634 305.828 299.638 305.828 298.07V291.106H304.521V292.205H304.413C304.025 291.456 303.194 290.986 302.242 290.986C300.477 290.986 299.373 292.376 299.373 294.464C299.373 296.534 300.464 297.898 302.229 297.898C303.181 297.898 303.943 297.486 304.362 296.737H304.463V298.063C304.463 298.997 303.791 299.555 302.654 299.555C301.734 299.555 301.156 299.225 301.042 298.705H299.646C299.792 299.866 300.909 300.634 302.635 300.634ZM302.616 296.769C301.442 296.769 300.782 295.874 300.782 294.464C300.782 293.055 301.442 292.154 302.616 292.154C303.778 292.154 304.489 293.055 304.489 294.464C304.489 295.874 303.784 296.769 302.616 296.769ZM312.341 296.153C312.087 296.711 311.522 297.016 310.697 297.016C309.605 297.016 308.9 296.229 308.856 294.979V294.915H313.737V294.445C313.737 292.287 312.576 290.973 310.652 290.973C308.704 290.973 307.466 292.376 307.466 294.566C307.466 296.769 308.678 298.133 310.659 298.133C312.239 298.133 313.356 297.372 313.655 296.153H312.341ZM310.646 292.084C311.655 292.084 312.315 292.814 312.347 293.931H308.856C308.932 292.82 309.637 292.084 310.646 292.084Z" fill="var(--vscode-foreground)"/>
<path d="M216.91 318.133C218.929 318.133 220.167 316.781 220.167 314.553C220.167 312.325 218.922 310.973 216.91 310.973C214.892 310.973 213.647 312.332 213.647 314.553C213.647 316.781 214.885 318.133 216.91 318.133ZM216.91 316.972C215.723 316.972 215.057 316.089 215.057 314.553C215.057 313.017 215.723 312.128 216.91 312.128C218.091 312.128 218.764 313.017 218.764 314.553C218.764 316.083 218.091 316.972 216.91 316.972ZM221.811 318H223.175V313.957C223.175 312.846 223.816 312.16 224.826 312.16C225.835 312.16 226.317 312.719 226.317 313.861V318H227.682V313.538C227.682 311.894 226.832 310.973 225.289 310.973C224.248 310.973 223.562 311.437 223.226 312.198H223.125V311.106H221.811V318ZM234.284 311.151H234.373L236.34 318H237.68L240.155 308.84H238.676L237 315.962H236.912L234.988 308.84H233.668L231.757 315.962H231.668L229.986 308.84H228.507L230.977 318H232.322L234.284 311.151ZM242.421 309.875C242.897 309.875 243.285 309.488 243.285 309.018C243.285 308.542 242.897 308.155 242.421 308.155C241.945 308.155 241.558 308.542 241.558 309.018C241.558 309.488 241.945 309.875 242.421 309.875ZM241.742 318H243.101V311.106H241.742V318ZM245.106 318H246.471V313.957C246.471 312.846 247.112 312.16 248.122 312.16C249.131 312.16 249.613 312.719 249.613 313.861V318H250.978V313.538C250.978 311.894 250.127 310.973 248.585 310.973C247.544 310.973 246.858 311.437 246.522 312.198H246.42V311.106H245.106V318ZM255.428 318.114C256.38 318.114 257.186 317.664 257.599 316.908H257.707V318H259.014V308.402H257.649V312.198H257.548C257.173 311.443 256.374 310.986 255.428 310.986C253.682 310.986 252.559 312.376 252.559 314.547C252.559 316.73 253.669 318.114 255.428 318.114ZM255.815 312.154C256.958 312.154 257.675 313.081 257.675 314.553C257.675 316.039 256.964 316.946 255.815 316.946C254.66 316.946 253.968 316.051 253.968 314.553C253.968 313.062 254.666 312.154 255.815 312.154ZM263.984 318.133C266.003 318.133 267.241 316.781 267.241 314.553C267.241 312.325 265.997 310.973 263.984 310.973C261.966 310.973 260.722 312.332 260.722 314.553C260.722 316.781 261.959 318.133 263.984 318.133ZM263.984 316.972C262.797 316.972 262.131 316.089 262.131 314.553C262.131 313.017 262.797 312.128 263.984 312.128C265.165 312.128 265.838 313.017 265.838 314.553C265.838 316.083 265.165 316.972 263.984 316.972ZM277.619 311.106H276.254L275.023 316.426H274.915L273.493 311.106H272.186L270.764 316.426H270.662L269.424 311.106H268.041L269.945 318H271.348L272.77 312.858H272.877L274.306 318H275.721L277.619 311.106ZM282.945 318.222C284.989 318.222 286.493 317.048 286.747 315.264H285.332C285.078 316.305 284.157 316.959 282.945 316.959C281.294 316.959 280.266 315.601 280.266 313.423C280.266 311.246 281.294 309.881 282.938 309.881C284.145 309.881 285.065 310.605 285.332 311.741H286.747C286.519 309.907 284.957 308.618 282.938 308.618C280.393 308.618 278.812 310.459 278.812 313.423C278.812 316.381 280.399 318.222 282.945 318.222ZM288.524 318H289.889V313.963C289.889 312.884 290.511 312.167 291.628 312.167C292.593 312.167 293.107 312.731 293.107 313.868V318H294.472V313.544C294.472 311.913 293.564 310.979 292.092 310.979C291.051 310.979 290.321 311.437 289.984 312.205H289.876V308.402H288.524V318ZM298.306 318.114C299.214 318.114 299.969 317.721 300.382 317.022H300.49V318H301.804V313.284C301.804 311.836 300.826 310.973 299.093 310.973C297.525 310.973 296.408 311.729 296.269 312.89H297.589C297.741 312.389 298.268 312.103 299.03 312.103C299.963 312.103 300.445 312.528 300.445 313.284V313.887L298.573 314.001C296.929 314.103 296.002 314.82 296.002 316.058C296.002 317.314 296.973 318.114 298.306 318.114ZM298.655 317.016C297.913 317.016 297.373 316.642 297.373 316C297.373 315.372 297.805 315.036 298.757 314.972L300.445 314.858V315.455C300.445 316.343 299.684 317.016 298.655 317.016ZM303.746 318H305.111V313.957C305.111 312.846 305.752 312.16 306.761 312.16C307.771 312.16 308.253 312.719 308.253 313.861V318H309.618V313.538C309.618 311.894 308.767 310.973 307.225 310.973C306.184 310.973 305.498 311.437 305.162 312.198H305.06V311.106H303.746V318ZM314.455 320.634C316.41 320.634 317.647 319.638 317.647 318.07V311.106H316.34V312.205H316.232C315.845 311.456 315.013 310.986 314.061 310.986C312.296 310.986 311.192 312.376 311.192 314.464C311.192 316.534 312.284 317.898 314.048 317.898C315 317.898 315.762 317.486 316.181 316.737H316.283V318.063C316.283 318.997 315.61 319.555 314.474 319.555C313.553 319.555 312.976 319.225 312.861 318.705H311.465C311.611 319.866 312.728 320.634 314.455 320.634ZM314.436 316.769C313.261 316.769 312.601 315.874 312.601 314.464C312.601 313.055 313.261 312.154 314.436 312.154C315.597 312.154 316.308 313.055 316.308 314.464C316.308 315.874 315.604 316.769 314.436 316.769ZM324.16 316.153C323.906 316.711 323.341 317.016 322.516 317.016C321.424 317.016 320.72 316.229 320.675 314.979V314.915H325.557V314.445C325.557 312.287 324.395 310.973 322.472 310.973C320.523 310.973 319.285 312.376 319.285 314.566C319.285 316.769 320.498 318.133 322.478 318.133C324.059 318.133 325.176 317.372 325.474 316.153H324.16ZM322.465 312.084C323.475 312.084 324.135 312.814 324.167 313.931H320.675C320.751 312.82 321.456 312.084 322.465 312.084Z" fill="var(--vscode-foreground)"/>
<rect x="208.5" y="242.5" width="307" height="81" stroke="var(--vscode-focusBorder)"/>
<path d="M186.104 176.4L185.608 174H184.408L183.896 176.4L183.208 176.704L181.208 175.392L180.296 176.192L181.608 178.192L181.4 178.896L179 179.392V180.592L181.4 181.104L181.704 181.904L180.408 183.904L181.208 184.704L183.208 183.392L184.008 183.696L184.408 186H185.608L186.104 183.6L186.904 183.296L188.904 184.592L189.704 183.792L188.408 181.792L188.696 180.992L191 180.592V179.392L188.6 178.896L188.296 178.096L189.608 176.096L188.792 175.296L186.792 176.592L186.104 176.4ZM186.408 172.992L186.904 175.392L189 174.096L191 176.096L189.608 178.192L192.008 178.592V181.392L189.608 181.904L191 184L189 186L186.904 184.592L186.408 186.992H183.608L183.096 184.592L181 185.904L179 183.904L180.408 181.792L178.008 181.392V178.592L180.408 178.096L179.096 176L181.096 174L183.208 175.392L183.608 172.992H186.392H186.408ZM187 180C187 180.363 186.909 180.699 186.728 181.008C186.547 181.307 186.301 181.547 185.992 181.728C185.693 181.909 185.363 182 185 182C184.637 182 184.301 181.909 183.992 181.728C183.693 181.547 183.453 181.307 183.272 181.008C183.091 180.699 183 180.363 183 180C183 179.637 183.091 179.307 183.272 179.008C183.453 178.699 183.693 178.453 183.992 178.272C184.301 178.091 184.637 178 185 178C185.363 178 185.693 178.091 185.992 178.272C186.301 178.453 186.547 178.699 186.728 179.008C186.909 179.307 187 179.637 187 180ZM185 180.992C185.299 180.992 185.539 180.901 185.72 180.72C185.912 180.539 186.008 180.299 186.008 180C186.008 179.701 185.912 179.461 185.72 179.28C185.539 179.088 185.299 178.992 185 178.992C184.701 178.992 184.461 179.088 184.28 179.28C184.099 179.461 184.008 179.701 184.008 180C184.008 180.299 184.099 180.539 184.28 180.72C184.461 180.901 184.701 180.992 185 180.992Z" fill="var(--vscode-foreground)"/>
<path d="M210.422 137.036C210.587 140.35 213.367 142.457 217.569 142.457C222.013 142.457 224.768 140.248 224.768 136.693C224.768 133.913 223.206 132.364 219.486 131.514L217.379 131.031C215.106 130.498 214.18 129.774 214.18 128.518C214.18 126.931 215.576 125.89 217.684 125.89C219.689 125.89 221.111 126.918 221.34 128.556H224.476C224.323 125.42 221.543 123.224 217.696 123.224C213.596 123.224 210.879 125.433 210.879 128.733C210.879 131.45 212.44 133.088 215.767 133.85L218.141 134.396C220.489 134.941 221.492 135.754 221.492 137.087C221.492 138.648 219.931 139.778 217.772 139.778C215.449 139.778 213.824 138.712 213.621 137.036H210.422ZM237.171 138.204C236.714 139.245 235.635 139.829 234.073 139.829C232.004 139.829 230.671 138.356 230.595 136.008V135.843H240.294V134.84C240.294 130.485 237.92 127.857 233.959 127.857C229.935 127.857 227.434 130.663 227.434 135.119C227.434 139.562 229.896 142.279 233.984 142.279C237.26 142.279 239.583 140.705 240.154 138.204H237.171ZM233.946 130.308C235.838 130.308 237.082 131.641 237.146 133.748H230.607C230.747 131.666 232.067 130.308 233.946 130.308ZM244.458 124.722V128.213H242.262V130.663H244.458V138.318C244.458 140.997 245.728 142.063 248.914 142.063C249.523 142.063 250.107 142.013 250.564 141.924V139.512C250.184 139.55 249.942 139.575 249.498 139.575C248.178 139.575 247.594 138.953 247.594 137.569V130.663H250.564V128.213H247.594V124.722H244.458ZM254.792 124.722V128.213H252.596V130.663H254.792V138.318C254.792 140.997 256.062 142.063 259.248 142.063C259.857 142.063 260.441 142.013 260.898 141.924V139.512C260.518 139.55 260.276 139.575 259.832 139.575C258.512 139.575 257.928 138.953 257.928 137.569V130.663H260.898V128.213H257.928V124.722H254.792ZM265.646 125.801C266.688 125.801 267.538 124.976 267.538 123.935C267.538 122.906 266.688 122.068 265.646 122.068C264.618 122.068 263.768 122.906 263.768 123.935C263.768 124.976 264.618 125.801 265.646 125.801ZM264.085 142H267.221V128.124H264.085V142ZM271.131 142H274.279V133.913C274.279 131.831 275.46 130.523 277.339 130.523C279.256 130.523 280.145 131.603 280.145 133.761V142H283.293V133.024C283.293 129.724 281.604 127.857 278.507 127.857C276.438 127.857 275.041 128.797 274.381 130.346H274.165V128.124H271.131V142ZM292.992 147.281C297.042 147.281 299.606 145.263 299.606 142.076V128.124H296.572V130.346H296.356C295.595 128.835 293.944 127.896 292.053 127.896C288.511 127.896 286.314 130.663 286.314 134.916C286.314 139.08 288.498 141.797 292.002 141.797C293.932 141.797 295.442 140.984 296.242 139.486H296.458V142.127C296.458 143.892 295.201 144.933 293.043 144.933C291.316 144.933 290.199 144.311 289.996 143.333H286.835C287.089 145.72 289.425 147.281 292.992 147.281ZM292.992 139.296C290.796 139.296 289.552 137.595 289.552 134.903C289.552 132.225 290.796 130.523 292.992 130.523C295.176 130.523 296.509 132.225 296.509 134.916C296.509 137.595 295.188 139.296 292.992 139.296ZM303.161 132.085C303.161 134.167 304.418 135.386 307.084 135.995L309.547 136.566C310.867 136.871 311.464 137.379 311.464 138.166C311.464 139.22 310.359 139.943 308.772 139.943C307.198 139.943 306.221 139.309 305.916 138.28H302.806C303.047 140.781 305.23 142.279 308.696 142.279C312.162 142.279 314.612 140.515 314.612 137.861C314.612 135.817 313.381 134.688 310.728 134.078L308.277 133.532C306.881 133.202 306.221 132.707 306.221 131.92C306.221 130.892 307.3 130.193 308.734 130.193C310.207 130.193 311.134 130.828 311.362 131.806H314.32C314.092 129.305 312.022 127.857 308.722 127.857C305.446 127.857 303.161 129.597 303.161 132.085Z" fill="var(--vscode-settings-headerForeground)"/>
<rect x="37" y="135" width="104" height="7" rx="3.5" fill="var(--vscode-tab-unfocusedInactiveForeground, #454545)"/>
<rect x="37" y="158" width="64" height="7" rx="3.5" fill="var(--vscode-tab-unfocusedInactiveForeground, #454545)"/>
<rect x="37" y="181" width="70" height="7" rx="3.5" fill="var(--vscode-tab-unfocusedInactiveForeground, #454545)"/>
<rect x="37" y="204" width="48" height="7" rx="3.5" fill="var(--vscode-tab-unfocusedInactiveForeground, #454545)"/>
<rect x="37" y="227" width="79" height="7" rx="3.5" fill="var(--vscode-tab-unfocusedInactiveForeground, #454545)"/>
</g>
<defs>
<filter id="filter0_d" x="0" y="0" width="569" height="522" filterUnits="userSpaceOnUse" color-interpolation-filters="sRGB">
<feFlood flood-opacity="0" result="BackgroundImageFix"/>
<feColorMatrix in="SourceAlpha" type="matrix" values="0 0 0 0 0 0 0 0 0 0 0 0 0 0 0 0 0 0 127 0"/>
<feOffset dy="2"/>
<feGaussianBlur stdDeviation="6"/>
<feColorMatrix type="matrix" values="0 0 0 0 0 0 0 0 0 0 0 0 0 0 0 0 0 0 0.6 0"/>
<feBlend mode="normal" in2="BackgroundImageFix" result="effect1_dropShadow"/>
<feBlend mode="normal" in="SourceGraphic" in2="effect1_dropShadow" result="shape"/>
</filter>
</defs>
</svg>
