<svg viewBox="0 0 526 353" fill="none" xmlns="http://www.w3.org/2000/svg">
<g filter="url(#filter0_d)">
<rect width="502" height="39" transform="translate(12 10)" fill="var(--vscode-editorGroupHeader-tabsBackground)"/>
<g clip-path="url(#clip0)">
<rect width="119.931" height="39.2998" transform="translate(12 10)" fill="var(--vscode-tab-activeBackground)"/>
<path d="M35.2342 27.0299H33.0942V33.3899H31.5342V27.0299H29.4142V25.8899H35.1542V27.0299H35.2342ZM40.0342 31.4699C40.0342 31.3232 40.0075 31.1966 39.9542 31.0899C39.9008 30.9832 39.8275 30.8766 39.7342 30.7699C39.6542 30.7032 39.5342 30.6299 39.3742 30.5499C39.2675 30.5099 39.0808 30.4366 38.8142 30.3299L38.6542 30.2699C37.7875 30.0166 37.1008 29.7032 36.5942 29.3299C36.1408 28.9432 35.9142 28.4632 35.9142 27.8899C35.9142 27.2632 36.1875 26.7632 36.7342 26.3899C37.2275 26.0166 37.8808 25.8299 38.6942 25.8299C39.5208 25.8299 40.2008 26.0632 40.7342 26.5299C41.2275 26.9699 41.4742 27.5099 41.4742 28.1499H40.0342C40.0342 27.9632 40.0008 27.8032 39.9342 27.6699C39.8808 27.5366 39.7875 27.4032 39.6542 27.2699C39.3875 27.0699 39.0542 26.9699 38.6542 26.9699C38.2542 26.9699 37.9475 27.0499 37.7342 27.2099C37.5208 27.3699 37.4142 27.5966 37.4142 27.8899C37.4142 28.1299 37.5408 28.3432 37.7942 28.5299C37.9008 28.6099 38.0608 28.6899 38.2742 28.7699C38.4342 28.8366 38.6875 28.9232 39.0342 29.0299C39.8475 29.2699 40.4675 29.5766 40.8942 29.9499C41.3208 30.3099 41.5342 30.8166 41.5342 31.4699C41.5342 31.7899 41.4675 32.0832 41.3342 32.3499C41.2142 32.6032 41.0342 32.8099 40.7942 32.9699C40.2875 33.3432 39.6208 33.5299 38.7942 33.5299C37.9142 33.5299 37.2008 33.3166 36.6542 32.8899C36.0275 32.3966 35.7408 31.7966 35.7942 31.0899H37.2942C37.2942 31.5166 37.4408 31.8499 37.7342 32.0899C37.8542 32.1832 38.0142 32.2566 38.2142 32.3099C38.4142 32.3632 38.6275 32.3899 38.8542 32.3899C39.3075 32.3899 39.6208 32.3099 39.7942 32.1499C39.9542 31.8966 40.0342 31.6699 40.0342 31.4699Z" fill="#519ABA"/>
<path d="M57.0432 34.6499H58.554L55.2468 25.4902H53.717L50.4099 34.6499H51.8699L52.7141 32.1743H56.2053L57.0432 34.6499ZM54.4089 27.1089H54.5168L55.8435 31.0317H53.0759L54.4089 27.1089ZM63.5813 27.6357C62.6418 27.6357 61.8293 28.1118 61.4104 28.8989H61.3088V27.7563H59.9949V36.9478H61.3596V33.6089H61.4675C61.8293 34.3389 62.6101 34.7642 63.594 34.7642C65.3396 34.7642 66.4504 33.3804 66.4504 31.2031C66.4504 29.0132 65.3396 27.6357 63.5813 27.6357ZM63.1941 33.5962C62.0515 33.5962 61.3342 32.6758 61.3342 31.2031C61.3342 29.7241 62.0515 28.8037 63.2004 28.8037C64.3557 28.8037 65.0476 29.7051 65.0476 31.2031C65.0476 32.7012 64.3557 33.5962 63.1941 33.5962ZM71.6809 27.6357C70.7415 27.6357 69.929 28.1118 69.51 28.8989H69.4084V27.7563H68.0945V36.9478H69.4592V33.6089H69.5671C69.929 34.3389 70.7097 34.7642 71.6936 34.7642C73.4392 34.7642 74.55 33.3804 74.55 31.2031C74.55 29.0132 73.4392 27.6357 71.6809 27.6357ZM71.2937 33.5962C70.1511 33.5962 69.4338 32.6758 69.4338 31.2031C69.4338 29.7241 70.1511 28.8037 71.3 28.8037C72.4553 28.8037 73.1472 29.7051 73.1472 31.2031C73.1472 32.7012 72.4553 33.5962 71.2937 33.5962ZM77.1018 34.7451C77.6414 34.7451 78.0349 34.3452 78.0349 33.8311C78.0349 33.3169 77.6414 32.917 77.1018 32.917C76.5686 32.917 76.1687 33.3169 76.1687 33.8311C76.1687 34.3452 76.5686 34.7451 77.1018 34.7451ZM80.4089 26.0171V27.7754H79.3108V28.8672H80.4089V32.8345C80.4089 34.1611 81.012 34.6943 82.5291 34.6943C82.7957 34.6943 83.0496 34.6626 83.2717 34.6245V33.5391C83.0813 33.5581 82.9607 33.5708 82.7512 33.5708C82.072 33.5708 81.7737 33.2471 81.7737 32.5044V28.8672H83.2717V27.7754H81.7737V26.0171H80.4089ZM84.6174 29.686C84.6174 30.708 85.2268 31.292 86.5408 31.5967L87.7468 31.8823C88.4387 32.0474 88.7625 32.3267 88.7625 32.7583C88.7625 33.3232 88.1594 33.7168 87.3088 33.7168C86.4836 33.7168 85.9758 33.3804 85.8044 32.8408H84.4397C84.5603 34.0405 85.6331 34.7832 87.2771 34.7832C88.9275 34.7832 90.1399 33.9136 90.1399 32.6313C90.1399 31.6284 89.5242 31.0635 88.2102 30.7588L87.0613 30.4922C86.3123 30.3145 85.9631 30.0479 85.9631 29.6226C85.9631 29.064 86.5408 28.6895 87.3025 28.6895C88.0769 28.6895 88.572 29.0259 88.699 29.54H90.0066C89.8733 28.3467 88.8577 27.623 87.3025 27.623C85.741 27.623 84.6174 28.4863 84.6174 29.686ZM94.196 32.1807L95.7068 34.6626H97.2747L94.9705 31.1777L97.2493 27.769H95.7258L94.2532 30.2319H94.1453L92.6599 27.769H91.0667L93.3772 31.2285L91.0857 34.6626H92.5837L94.0945 32.1807H94.196Z" fill="var(--vscode-tab-activeForeground, #1e1e1e)"/>
<path d="M110.457 30.3539L114.105 34.0019L114.809 33.2979L111.161 29.6499L114.809 26.0019L114.105 25.2979L110.457 28.9459L106.809 25.2979L106.105 26.0019L109.753 29.6499L106.105 33.2979L106.809 34.0019L110.457 30.3539Z" fill="var(--vscode-tab-activeForeground"/>
</g>
<g clip-path="url(#clip1)">
<g opacity="0.5" clip-path="url(#clip2)">
<rect width="122.931" height="39.2998" transform="translate(264 10)" fill="var(--vscode-tab-inactiveBackground)"/>
<path d="M283.914 34.2099L284.414 31.7099H282.854V30.3899H284.734L285.034 28.8299H283.414V27.5299H285.354L285.854 25.0899H287.594L287.094 27.5299H288.854L289.354 25.0899H291.094L290.594 27.5299H292.154V28.8299H290.354L289.974 30.3899H291.594V31.7099H289.734L289.234 34.2099H287.474L287.974 31.7099H286.234L285.734 34.2099H283.914ZM288.234 30.4099L288.534 28.8299H286.794L286.474 30.4099H288.234Z" fill="#519ABA"/>
<path d="M309.043 34.6499H310.554L307.247 25.4902H305.717L302.41 34.6499H303.87L304.714 32.1743H308.205L309.043 34.6499ZM306.409 27.1089H306.517L307.844 31.0317H305.076L306.409 27.1089ZM315.581 27.6357C314.642 27.6357 313.829 28.1118 313.41 28.8989H313.309V27.7563H311.995V36.9478H313.36V33.6089H313.468C313.829 34.3389 314.61 34.7642 315.594 34.7642C317.34 34.7642 318.45 33.3804 318.45 31.2031C318.45 29.0132 317.34 27.6357 315.581 27.6357ZM315.194 33.5962C314.052 33.5962 313.334 32.6758 313.334 31.2031C313.334 29.7241 314.052 28.8037 315.2 28.8037C316.356 28.8037 317.048 29.7051 317.048 31.2031C317.048 32.7012 316.356 33.5962 315.194 33.5962ZM323.681 27.6357C322.741 27.6357 321.929 28.1118 321.51 28.8989H321.408V27.7563H320.094V36.9478H321.459V33.6089H321.567C321.929 34.3389 322.71 34.7642 323.694 34.7642C325.439 34.7642 326.55 33.3804 326.55 31.2031C326.55 29.0132 325.439 27.6357 323.681 27.6357ZM323.294 33.5962C322.151 33.5962 321.434 32.6758 321.434 31.2031C321.434 29.7241 322.151 28.8037 323.3 28.8037C324.455 28.8037 325.147 29.7051 325.147 31.2031C325.147 32.7012 324.455 33.5962 323.294 33.5962ZM329.102 34.7451C329.641 34.7451 330.035 34.3452 330.035 33.8311C330.035 33.3169 329.641 32.917 329.102 32.917C328.569 32.917 328.169 33.3169 328.169 33.8311C328.169 34.3452 328.569 34.7451 329.102 34.7451ZM337.741 29.9717C337.563 28.6323 336.516 27.623 334.783 27.623C332.771 27.623 331.546 28.9878 331.546 31.1777C331.546 33.4121 332.777 34.7832 334.789 34.7832C336.497 34.7832 337.563 33.8247 337.741 32.4663H336.414C336.237 33.2153 335.646 33.6216 334.783 33.6216C333.647 33.6216 332.942 32.7012 332.942 31.1777C332.942 29.686 333.64 28.7847 334.783 28.7847C335.697 28.7847 336.256 29.2988 336.414 29.9717H337.741ZM339.144 29.686C339.144 30.708 339.753 31.292 341.067 31.5967L342.273 31.8823C342.965 32.0474 343.289 32.3267 343.289 32.7583C343.289 33.3232 342.686 33.7168 341.835 33.7168C341.01 33.7168 340.502 33.3804 340.331 32.8408H338.966C339.087 34.0405 340.159 34.7832 341.803 34.7832C343.454 34.7832 344.666 33.9136 344.666 32.6313C344.666 31.6284 344.051 31.0635 342.737 30.7588L341.588 30.4922C340.839 30.3145 340.49 30.0479 340.49 29.6226C340.49 29.064 341.067 28.6895 341.829 28.6895C342.603 28.6895 343.098 29.0259 343.225 29.54H344.533C344.4 28.3467 343.384 27.623 341.829 27.623C340.267 27.623 339.144 28.4863 339.144 29.686ZM346.025 29.686C346.025 30.708 346.634 31.292 347.948 31.5967L349.154 31.8823C349.846 32.0474 350.17 32.3267 350.17 32.7583C350.17 33.3232 349.567 33.7168 348.716 33.7168C347.891 33.7168 347.383 33.3804 347.212 32.8408H345.847C345.968 34.0405 347.04 34.7832 348.684 34.7832C350.335 34.7832 351.547 33.9136 351.547 32.6313C351.547 31.6284 350.931 31.0635 349.617 30.7588L348.469 30.4922C347.719 30.3145 347.37 30.0479 347.37 29.6226C347.37 29.064 347.948 28.6895 348.71 28.6895C349.484 28.6895 349.979 29.0259 350.106 29.54H351.414C351.281 28.3467 350.265 27.623 348.71 27.623C347.148 27.623 346.025 28.4863 346.025 29.686Z" fill="var(--vscode-tab-inactiveForeground)"/>
<path d="M365.457 30.3539L369.105 34.0019L369.809 33.2979L366.161 29.6499L369.809 26.0019L369.105 25.2979L365.457 28.9459L361.809 25.2979L361.105 26.0019L364.753 29.6499L361.105 33.2979L361.809 34.0019L365.457 30.3539Z" fill="var(--vscode-tab-inactiveForeground)"/>
</g>
</g>
<path d="M12 49H514V336C514 337.105 513.105 338 512 338H14C12.8954 338 12 337.105 12 336V49Z" fill="var(--vscode-editor-background, #1e1e1e)"/>
<rect x="36" y="73" width="75" height="8" rx="4" fill="#B180D7"/>
<rect x="288" y="73" width="34" height="8" rx="4" fill="#B180D7"/>
<rect x="36" y="92" width="75" height="8" rx="4" fill="#B180D7"/>
<rect x="288" y="292" width="98" height="8" rx="4" fill="#007ACC"/>
<rect x="354" y="206" width="98" height="8" rx="4" fill="#B180D7"/>
<rect x="288" y="225" width="64" height="8" rx="4" fill="#B180D7"/>
<rect x="288" y="244" width="41" height="8" rx="4" fill="#B180D7"/>
<rect x="358" y="225" width="64" height="8" rx="4" fill="#F14C4C"/>
<rect x="335" y="244" width="87" height="8" rx="4" fill="#F14C4C"/>
<rect x="392" y="292" width="60" height="8" rx="4" fill="var(--vscode-editorOverviewRuler-warningForeground)"/>
<rect x="288" y="206" width="60" height="8" rx="4" fill="var(--vscode-editorOverviewRuler-warningForeground)"/>
<rect x="36" y="285" width="98.1333" height="8" rx="4" fill="#B180D7"/>
<rect x="141.311" y="285" width="35.437" height="8" rx="4" fill="var(--vscode-editorOverviewRuler-warningForeground)"/>
<rect x="117" y="73" width="71" height="8" rx="4" fill="#8ADDFF"/>
<rect x="328" y="73" width="107" height="8" rx="4" fill="#8ADDFF"/>
<rect x="117" y="92" width="101" height="8" rx="4" fill="#8ADDFF"/>
<path d="M42.5625 140.18V140.707H37.8926V140.742C37.8613 141.637 38.0312 142.279 38.4023 142.67C38.7773 143.061 39.3047 143.256 39.9844 143.256C40.3281 143.256 40.6875 143.201 41.0625 143.092C41.4375 142.982 41.8379 142.816 42.2637 142.594V143.666C41.8535 143.834 41.457 143.959 41.0742 144.041C40.6953 144.127 40.3281 144.17 39.9727 144.17C38.9531 144.17 38.1562 143.865 37.582 143.256C37.0078 142.643 36.7207 141.799 36.7207 140.725C36.7207 139.678 37.002 138.842 37.5645 138.217C38.127 137.592 38.877 137.279 39.8145 137.279C40.6504 137.279 41.3086 137.562 41.7891 138.129C42.2734 138.695 42.5312 139.379 42.5625 140.18ZM41.4844 139.863C41.4375 139.41 41.2715 139.02 40.9863 138.691C40.7051 138.359 40.2988 138.193 39.7676 138.193C39.248 138.193 38.8203 138.365 38.4844 138.709C38.1484 139.053 37.9648 139.439 37.9336 139.869L41.4844 139.863ZM49.7812 137.438L47.4316 140.578L50.0098 144H48.7617L46.8398 141.369L44.9238 144H43.6758L46.2539 140.578L43.9043 137.438H45.0996L46.8398 139.811L48.5684 137.438H49.7812ZM52.6582 143.174V146.496H51.5742V137.438H52.6582V138.275C52.8379 137.951 53.0762 137.705 53.373 137.537C53.6738 137.365 54.0195 137.279 54.4102 137.279C55.2031 137.279 55.8242 137.586 56.2734 138.199C56.7266 138.812 56.9531 139.662 56.9531 140.748C56.9531 141.814 56.7266 142.652 56.2734 143.262C55.8203 143.867 55.1992 144.17 54.4102 144.17C54.0117 144.17 53.6621 144.086 53.3613 143.918C53.0645 143.746 52.8301 143.498 52.6582 143.174ZM55.8223 140.725C55.8223 139.889 55.6895 139.258 55.4238 138.832C55.1621 138.406 54.7715 138.193 54.252 138.193C53.7285 138.193 53.332 138.408 53.0625 138.838C52.793 139.264 52.6582 139.893 52.6582 140.725C52.6582 141.553 52.793 142.182 53.0625 142.611C53.332 143.041 53.7285 143.256 54.252 143.256C54.7715 143.256 55.1621 143.043 55.4238 142.617C55.6895 142.191 55.8223 141.561 55.8223 140.725ZM61.3008 138.193C60.7539 138.193 60.3398 138.406 60.0586 138.832C59.7773 139.258 59.6367 139.889 59.6367 140.725C59.6367 141.557 59.7773 142.188 60.0586 142.617C60.3398 143.043 60.7539 143.256 61.3008 143.256C61.8516 143.256 62.2676 143.043 62.5488 142.617C62.8301 142.188 62.9707 141.557 62.9707 140.725C62.9707 139.889 62.8301 139.258 62.5488 138.832C62.2676 138.406 61.8516 138.193 61.3008 138.193ZM61.3008 137.279C62.2109 137.279 62.9062 137.574 63.3867 138.164C63.8711 138.754 64.1133 139.607 64.1133 140.725C64.1133 141.846 63.873 142.701 63.3926 143.291C62.9121 143.877 62.2148 144.17 61.3008 144.17C60.3906 144.17 59.6953 143.877 59.2148 143.291C58.7344 142.701 58.4941 141.846 58.4941 140.725C58.4941 139.607 58.7344 138.754 59.2148 138.164C59.6953 137.574 60.3906 137.279 61.3008 137.279ZM71.6895 138.791C71.459 138.611 71.2246 138.48 70.9863 138.398C70.748 138.316 70.4863 138.275 70.2012 138.275C69.5293 138.275 69.0156 138.486 68.6602 138.908C68.3047 139.33 68.127 139.939 68.127 140.736V144H67.043V137.438H68.127V138.721C68.3066 138.256 68.582 137.9 68.9531 137.654C69.3281 137.404 69.7715 137.279 70.2832 137.279C70.5488 137.279 70.7969 137.312 71.0273 137.379C71.2578 137.445 71.4785 137.549 71.6895 137.689V138.791ZM75.75 135.574V137.438H78.1992V138.275H75.75V141.838C75.75 142.322 75.8418 142.66 76.0254 142.852C76.209 143.043 76.5293 143.139 76.9863 143.139H78.1992V144H76.8809C76.0723 144 75.502 143.838 75.1699 143.514C74.8379 143.189 74.6719 142.631 74.6719 141.838V138.275H72.9199V137.438H74.6719V135.574H75.75ZM57.2285 156.791C56.998 156.611 56.7637 156.48 56.5254 156.398C56.2871 156.316 56.0254 156.275 55.7402 156.275C55.0684 156.275 54.5547 156.486 54.1992 156.908C53.8438 157.33 53.666 157.939 53.666 158.736V162H52.582V155.438H53.666V156.721C53.8457 156.256 54.1211 155.9 54.4922 155.654C54.8672 155.404 55.3105 155.279 55.8223 155.279C56.0879 155.279 56.3359 155.312 56.5664 155.379C56.7969 155.445 57.0176 155.549 57.2285 155.689V156.791ZM64.2539 158.18V158.707H59.584V158.742C59.5527 159.637 59.7227 160.279 60.0938 160.67C60.4688 161.061 60.9961 161.256 61.6758 161.256C62.0195 161.256 62.3789 161.201 62.7539 161.092C63.1289 160.982 63.5293 160.816 63.9551 160.594V161.666C63.5449 161.834 63.1484 161.959 62.7656 162.041C62.3867 162.127 62.0195 162.17 61.6641 162.17C60.6445 162.17 59.8477 161.865 59.2734 161.256C58.6992 160.643 58.4121 159.799 58.4121 158.725C58.4121 157.678 58.6934 156.842 59.2559 156.217C59.8184 155.592 60.5684 155.279 61.5059 155.279C62.3418 155.279 63 155.562 63.4805 156.129C63.9648 156.695 64.2227 157.379 64.2539 158.18ZM63.1758 157.863C63.1289 157.41 62.9629 157.02 62.6777 156.691C62.3965 156.359 61.9902 156.193 61.459 156.193C60.9395 156.193 60.5117 156.365 60.1758 156.709C59.8398 157.053 59.6562 157.439 59.625 157.869L63.1758 157.863ZM68.5195 153.574V155.438H70.9688V156.275H68.5195V159.838C68.5195 160.322 68.6113 160.66 68.7949 160.852C68.9785 161.043 69.2988 161.139 69.7559 161.139H70.9688V162H69.6504C68.8418 162 68.2715 161.838 67.9395 161.514C67.6074 161.189 67.4414 160.631 67.4414 159.838V156.275H65.6895V155.438H67.4414V153.574H68.5195ZM73.2949 159.516V155.449H74.373V159.516C74.373 160.105 74.4766 160.539 74.6836 160.816C74.8945 161.094 75.2188 161.232 75.6562 161.232C76.1641 161.232 76.5527 161.055 76.8223 160.699C77.0918 160.34 77.2266 159.826 77.2266 159.158V155.449H78.3105V162H77.2266V161.016C77.0352 161.395 76.7734 161.682 76.4414 161.877C76.1133 162.072 75.7285 162.17 75.2871 162.17C74.6152 162.17 74.1152 161.951 73.7871 161.514C73.459 161.072 73.2949 160.406 73.2949 159.516ZM86.1504 156.791C85.9199 156.611 85.6855 156.48 85.4473 156.398C85.209 156.316 84.9473 156.275 84.6621 156.275C83.9902 156.275 83.4766 156.486 83.1211 156.908C82.7656 157.33 82.5879 157.939 82.5879 158.736V162H81.5039V155.438H82.5879V156.721C82.7676 156.256 83.043 155.9 83.4141 155.654C83.7891 155.404 84.2324 155.279 84.7441 155.279C85.0098 155.279 85.2578 155.312 85.4883 155.379C85.7188 155.445 85.9395 155.549 86.1504 155.689V156.791ZM92.7715 157.934V162H91.6875V157.934C91.6875 157.344 91.584 156.91 91.377 156.633C91.1699 156.355 90.8457 156.217 90.4043 156.217C89.9004 156.217 89.5117 156.396 89.2383 156.756C88.9688 157.111 88.834 157.623 88.834 158.291V162H87.7559V155.438H88.834V156.422C89.0254 156.047 89.2852 155.764 89.6133 155.572C89.9414 155.377 90.3301 155.279 90.7793 155.279C91.4473 155.279 91.9453 155.5 92.2734 155.941C92.6055 156.379 92.7715 157.043 92.7715 157.934Z" fill="#C586C0"/>
<path d="M159.434 141.07H165.627V142.061H159.434V141.07ZM159.434 138.311H165.627V139.301H159.434V138.311ZM178.389 134.309C177.869 135.199 177.48 136.088 177.223 136.975C176.969 137.857 176.842 138.748 176.842 139.646C176.842 140.541 176.969 141.432 177.223 142.318C177.48 143.205 177.869 144.098 178.389 144.996H177.451C176.861 144.066 176.422 143.162 176.133 142.283C175.844 141.4 175.699 140.521 175.699 139.646C175.699 138.775 175.844 137.898 176.133 137.016C176.422 136.133 176.861 135.23 177.451 134.309H178.389ZM182.648 134.309H183.586C184.176 135.23 184.615 136.133 184.904 137.016C185.193 137.898 185.338 138.775 185.338 139.646C185.338 140.525 185.193 141.406 184.904 142.289C184.615 143.172 184.176 144.074 183.586 144.996H182.648C183.168 144.09 183.555 143.193 183.809 142.307C184.066 141.42 184.195 140.533 184.195 139.646C184.195 138.756 184.066 137.867 183.809 136.98C183.555 136.094 183.168 135.203 182.648 134.309ZM222.809 144.299V145.143H222.434C221.461 145.143 220.809 144.998 220.477 144.709C220.148 144.42 219.984 143.844 219.984 142.98V141.809C219.984 141.383 219.863 141.016 219.621 140.707C219.383 140.398 219.012 140.244 218.508 140.244H217.793V139.406H218.508C219.059 139.406 219.441 139.275 219.656 139.014C219.875 138.752 219.984 138.367 219.984 137.859V136.336C219.984 135.473 220.148 134.898 220.477 134.613C220.809 134.324 221.461 134.18 222.434 134.18H222.809V135.018H222.398C221.852 135.018 221.494 135.104 221.326 135.275C221.162 135.443 221.08 135.805 221.08 136.359V137.93C221.08 138.617 220.945 139.08 220.676 139.318C220.406 139.553 219.881 139.723 219.1 139.828C219.857 139.918 220.377 140.092 220.658 140.35C220.939 140.604 221.08 141.064 221.08 141.732V142.957C221.08 143.516 221.162 143.879 221.326 144.047C221.494 144.215 221.852 144.299 222.398 144.299H222.809ZM106.084 152.309C105.564 153.199 105.176 154.088 104.918 154.975C104.664 155.857 104.537 156.748 104.537 157.646C104.537 158.541 104.664 159.432 104.918 160.318C105.176 161.205 105.564 162.098 106.084 162.996H105.146C104.557 162.066 104.117 161.162 103.828 160.283C103.539 159.4 103.395 158.521 103.395 157.646C103.395 156.775 103.539 155.898 103.828 155.016C104.117 154.133 104.557 153.23 105.146 152.309H106.084ZM71.6309 174.369L66.6504 176.244L71.6309 178.102V179.174L65.4375 176.725V175.752L71.6309 173.303V174.369ZM94.3594 174.369V173.303L100.553 175.752V176.725L94.3594 179.174V178.102L99.3398 176.244L94.3594 174.369ZM86.0918 192.369L81.1113 194.244L86.0918 196.102V197.174L79.8984 194.725V193.752L86.0918 191.303V192.369ZM101.59 192.369V191.303L107.783 193.752V194.725L101.59 197.174V196.102L106.57 194.244L101.59 192.369ZM158.396 192.369L153.416 194.244L158.396 196.102V197.174L152.203 194.725V193.752L158.396 191.303V192.369ZM164.127 189.252H165.24L160.635 199.113H159.516L164.127 189.252ZM181.125 192.369V191.303L187.318 193.752V194.725L181.125 197.174V196.102L186.105 194.244L181.125 192.369ZM71.6309 210.369L66.6504 212.244L71.6309 214.102V215.174L65.4375 212.725V211.752L71.6309 209.303V210.369ZM77.3613 207.252H78.4746L73.8691 217.113H72.75L77.3613 207.252ZM101.59 210.369V209.303L107.783 211.752V212.725L101.59 215.174V214.102L106.57 212.244L101.59 210.369ZM52.5 224.309H53.4375C54.0273 225.23 54.4668 226.133 54.7559 227.016C55.0449 227.898 55.1895 228.775 55.1895 229.646C55.1895 230.525 55.0449 231.406 54.7559 232.289C54.4668 233.172 54.0273 234.074 53.4375 234.996H52.5C53.0195 234.09 53.4062 233.193 53.6602 232.307C53.918 231.42 54.0469 230.533 54.0469 229.646C54.0469 228.756 53.918 227.867 53.6602 226.98C53.4062 226.094 53.0195 225.203 52.5 224.309ZM60.2812 231.885H62.1094V233.438L60.9551 235.676H59.7012L60.2812 233.438V231.885ZM60.2051 227.443H62.0332V229.559H60.2051V227.443ZM37.6934 252.299C38.2402 252.299 38.5957 252.215 38.7598 252.047C38.9277 251.879 39.0117 251.516 39.0117 250.957V249.732C39.0117 249.064 39.1523 248.604 39.4336 248.35C39.7148 248.092 40.2344 247.918 40.9922 247.828C40.2109 247.723 39.6855 247.553 39.416 247.318C39.1465 247.08 39.0117 246.617 39.0117 245.93V244.359C39.0117 243.805 38.9277 243.443 38.7598 243.275C38.5957 243.104 38.2402 243.018 37.6934 243.018H37.2832V242.18H37.6582C38.6309 242.18 39.2812 242.324 39.6094 242.613C39.9414 242.898 40.1074 243.473 40.1074 244.336V245.859C40.1074 246.367 40.2148 246.752 40.4297 247.014C40.6484 247.275 41.0332 247.406 41.584 247.406H42.2988V248.244H41.584C41.0801 248.244 40.707 248.398 40.4648 248.707C40.2266 249.016 40.1074 249.383 40.1074 249.809V250.98C40.1074 251.844 39.9414 252.42 39.6094 252.709C39.2812 252.998 38.6309 253.143 37.6582 253.143H37.2832V252.299H37.6934Z" fill="var(--vscode-foreground)"/>
<path d="M92.8301 143.666C92.541 143.834 92.2422 143.959 91.9336 144.041C91.6289 144.127 91.3164 144.17 90.9961 144.17C89.9805 144.17 89.1855 143.865 88.6113 143.256C88.041 142.646 87.7559 141.803 87.7559 140.725C87.7559 139.646 88.041 138.803 88.6113 138.193C89.1855 137.584 89.9805 137.279 90.9961 137.279C91.3125 137.279 91.6211 137.32 91.9219 137.402C92.2227 137.484 92.5254 137.611 92.8301 137.783V138.914C92.5449 138.66 92.2578 138.477 91.9688 138.363C91.6836 138.25 91.3594 138.193 90.9961 138.193C90.3203 138.193 89.8008 138.412 89.4375 138.85C89.0742 139.287 88.8926 139.912 88.8926 140.725C88.8926 141.533 89.0742 142.158 89.4375 142.6C89.8047 143.037 90.3242 143.256 90.9961 143.256C91.3711 143.256 91.707 143.199 92.0039 143.086C92.3008 142.969 92.5762 142.789 92.8301 142.547V143.666ZM97.4531 138.193C96.9062 138.193 96.4922 138.406 96.2109 138.832C95.9297 139.258 95.7891 139.889 95.7891 140.725C95.7891 141.557 95.9297 142.188 96.2109 142.617C96.4922 143.043 96.9062 143.256 97.4531 143.256C98.0039 143.256 98.4199 143.043 98.7012 142.617C98.9824 142.188 99.123 141.557 99.123 140.725C99.123 139.889 98.9824 139.258 98.7012 138.832C98.4199 138.406 98.0039 138.193 97.4531 138.193ZM97.4531 137.279C98.3633 137.279 99.0586 137.574 99.5391 138.164C100.023 138.754 100.266 139.607 100.266 140.725C100.266 141.846 100.025 142.701 99.5449 143.291C99.0645 143.877 98.3672 144.17 97.4531 144.17C96.543 144.17 95.8477 143.877 95.3672 143.291C94.8867 142.701 94.6465 141.846 94.6465 140.725C94.6465 139.607 94.8867 138.754 95.3672 138.164C95.8477 137.574 96.543 137.279 97.4531 137.279ZM107.232 139.934V144H106.148V139.934C106.148 139.344 106.045 138.91 105.838 138.633C105.631 138.355 105.307 138.217 104.865 138.217C104.361 138.217 103.973 138.396 103.699 138.756C103.43 139.111 103.295 139.623 103.295 140.291V144H102.217V137.438H103.295V138.422C103.486 138.047 103.746 137.764 104.074 137.572C104.402 137.377 104.791 137.279 105.24 137.279C105.908 137.279 106.406 137.5 106.734 137.941C107.066 138.379 107.232 139.043 107.232 139.934ZM114.006 137.666V138.721C113.697 138.541 113.387 138.406 113.074 138.316C112.762 138.227 112.443 138.182 112.119 138.182C111.631 138.182 111.266 138.262 111.023 138.422C110.785 138.578 110.666 138.818 110.666 139.143C110.666 139.436 110.756 139.654 110.936 139.799C111.115 139.943 111.562 140.084 112.277 140.221L112.711 140.303C113.246 140.404 113.65 140.607 113.924 140.912C114.201 141.217 114.34 141.613 114.34 142.102C114.34 142.75 114.109 143.258 113.648 143.625C113.188 143.988 112.547 144.17 111.727 144.17C111.402 144.17 111.062 144.135 110.707 144.064C110.352 143.998 109.967 143.896 109.553 143.76V142.646C109.955 142.854 110.34 143.01 110.707 143.115C111.074 143.217 111.422 143.268 111.75 143.268C112.227 143.268 112.596 143.172 112.857 142.98C113.119 142.785 113.25 142.514 113.25 142.166C113.25 141.666 112.771 141.32 111.814 141.129L111.768 141.117L111.363 141.035C110.742 140.914 110.289 140.711 110.004 140.426C109.719 140.137 109.576 139.744 109.576 139.248C109.576 138.619 109.789 138.135 110.215 137.795C110.641 137.451 111.248 137.279 112.037 137.279C112.389 137.279 112.727 137.312 113.051 137.379C113.375 137.441 113.693 137.537 114.006 137.666ZM119.133 135.574V137.438H121.582V138.275H119.133V141.838C119.133 142.322 119.225 142.66 119.408 142.852C119.592 143.043 119.912 143.139 120.369 143.139H121.582V144H120.264C119.455 144 118.885 143.838 118.553 143.514C118.221 143.189 118.055 142.631 118.055 141.838V138.275H116.303V137.438H118.055V135.574H119.133ZM195.586 141.07H201.779V142.061H195.586V141.07ZM195.586 138.311H201.779V139.301H195.586V138.311ZM202.816 138.369V137.303L209.01 139.752V140.725L202.816 143.174V142.102L207.797 140.244L202.816 138.369ZM77.1797 174.275V170.883H78.2578V180H77.1797V179.174C77 179.498 76.7598 179.746 76.459 179.918C76.1621 180.086 75.8184 180.17 75.4277 180.17C74.6348 180.17 74.0098 179.863 73.5527 179.25C73.0996 178.633 72.873 177.783 72.873 176.701C72.873 175.635 73.1016 174.799 73.5586 174.193C74.0156 173.584 74.6387 173.279 75.4277 173.279C75.8223 173.279 76.1699 173.365 76.4707 173.537C76.7715 173.705 77.0078 173.951 77.1797 174.275ZM74.0098 176.725C74.0098 177.561 74.1426 178.191 74.4082 178.617C74.6738 179.043 75.0664 179.256 75.5859 179.256C76.1055 179.256 76.5 179.041 76.7695 178.611C77.043 178.182 77.1797 177.553 77.1797 176.725C77.1797 175.893 77.043 175.264 76.7695 174.838C76.5 174.408 76.1055 174.193 75.5859 174.193C75.0664 174.193 74.6738 174.406 74.4082 174.832C74.1426 175.258 74.0098 175.889 74.0098 176.725ZM81.2344 173.461H83.9941V179.162H86.1328V180H80.7773V179.162H82.916V174.299H81.2344V173.461ZM82.916 170.912H83.9941V172.271H82.916V170.912ZM87.1992 173.438H88.3184L90.2227 178.945L92.1328 173.438H93.252L90.9199 180H89.5312L87.1992 173.438ZM92.7715 193.934V198H91.6875V193.934C91.6875 193.344 91.584 192.91 91.377 192.633C91.1699 192.355 90.8457 192.217 90.4043 192.217C89.9004 192.217 89.5117 192.396 89.2383 192.756C88.9688 193.111 88.834 193.623 88.834 194.291V198H87.7559V188.883H88.834V192.422C89.0254 192.047 89.2852 191.764 89.6133 191.572C89.9414 191.377 90.3301 191.279 90.7793 191.279C91.4473 191.279 91.9453 191.5 92.2734 191.941C92.6055 192.379 92.7715 193.043 92.7715 193.934ZM95.4258 197.01H97.2656V190.4L95.0625 191.461V190.324L97.2539 189.281H98.4375V197.01H100.254V198H95.4258V197.01ZM172.307 193.934V198H171.223V193.934C171.223 193.344 171.119 192.91 170.912 192.633C170.705 192.355 170.381 192.217 169.939 192.217C169.436 192.217 169.047 192.396 168.773 192.756C168.504 193.111 168.369 193.623 168.369 194.291V198H167.291V188.883H168.369V192.422C168.561 192.047 168.82 191.764 169.148 191.572C169.477 191.377 169.865 191.279 170.314 191.279C170.982 191.279 171.48 191.5 171.809 191.941C172.141 192.379 172.307 193.043 172.307 193.934ZM174.961 197.01H176.801V190.4L174.598 191.461V190.324L176.789 189.281H177.973V197.01H179.789V198H174.961V197.01ZM84.4102 210.275V206.883H85.4883V216H84.4102V215.174C84.2305 215.498 83.9902 215.746 83.6895 215.918C83.3926 216.086 83.0488 216.17 82.6582 216.17C81.8652 216.17 81.2402 215.863 80.7832 215.25C80.3301 214.633 80.1035 213.783 80.1035 212.701C80.1035 211.635 80.332 210.799 80.7891 210.193C81.2461 209.584 81.8691 209.279 82.6582 209.279C83.0527 209.279 83.4004 209.365 83.7012 209.537C84.002 209.705 84.2383 209.951 84.4102 210.275ZM81.2402 212.725C81.2402 213.561 81.373 214.191 81.6387 214.617C81.9043 215.043 82.2969 215.256 82.8164 215.256C83.3359 215.256 83.7305 215.041 84 214.611C84.2734 214.182 84.4102 213.553 84.4102 212.725C84.4102 211.893 84.2734 211.264 84 210.838C83.7305 210.408 83.3359 210.193 82.8164 210.193C82.2969 210.193 81.9043 210.406 81.6387 210.832C81.373 211.258 81.2402 211.889 81.2402 212.725ZM88.4648 209.461H91.2246V215.162H93.3633V216H88.0078V215.162H90.1465V210.299H88.4648V209.461ZM90.1465 206.912H91.2246V208.271H90.1465V206.912ZM94.4297 209.438H95.5488L97.4531 214.945L99.3633 209.438H100.482L98.1504 216H96.7617L94.4297 209.438Z" fill="var(--vscode-notificationLink-foreground)"/>
<path d="M133.605 136.295L132.357 140.771H134.854L133.605 136.295ZM132.891 135.252H134.326L137.004 144H135.779L135.135 141.721H132.07L131.438 144H130.213L132.891 135.252ZM139.424 143.174V146.496H138.34V137.438H139.424V138.275C139.604 137.951 139.842 137.705 140.139 137.537C140.439 137.365 140.785 137.279 141.176 137.279C141.969 137.279 142.59 137.586 143.039 138.199C143.492 138.812 143.719 139.662 143.719 140.748C143.719 141.814 143.492 142.652 143.039 143.262C142.586 143.867 141.965 144.17 141.176 144.17C140.777 144.17 140.428 144.086 140.127 143.918C139.83 143.746 139.596 143.498 139.424 143.174ZM142.588 140.725C142.588 139.889 142.455 139.258 142.189 138.832C141.928 138.406 141.537 138.193 141.018 138.193C140.494 138.193 140.098 138.408 139.828 138.838C139.559 139.264 139.424 139.893 139.424 140.725C139.424 141.553 139.559 142.182 139.828 142.611C140.098 143.041 140.494 143.256 141.018 143.256C141.537 143.256 141.928 143.043 142.189 142.617C142.455 142.191 142.588 141.561 142.588 140.725ZM146.654 143.174V146.496H145.57V137.438H146.654V138.275C146.834 137.951 147.072 137.705 147.369 137.537C147.67 137.365 148.016 137.279 148.406 137.279C149.199 137.279 149.82 137.586 150.27 138.199C150.723 138.812 150.949 139.662 150.949 140.748C150.949 141.814 150.723 142.652 150.27 143.262C149.816 143.867 149.195 144.17 148.406 144.17C148.008 144.17 147.658 144.086 147.357 143.918C147.061 143.746 146.826 143.498 146.654 143.174ZM149.818 140.725C149.818 139.889 149.686 139.258 149.42 138.832C149.158 138.406 148.768 138.193 148.248 138.193C147.725 138.193 147.328 138.408 147.059 138.838C146.789 139.264 146.654 139.893 146.654 140.725C146.654 141.553 146.789 142.182 147.059 142.611C147.328 143.041 147.725 143.256 148.248 143.256C148.768 143.256 149.158 143.043 149.42 142.617C149.686 142.191 149.818 141.561 149.818 140.725Z" fill="var(--vscode-editorOverviewRuler-warningForeground)"/>
<path d="M108.516 189.281H110.098L111.609 193.723L113.133 189.281H114.721V198H113.625V190.295L112.066 194.889H111.17L109.605 190.295V198H108.516V189.281ZM120.562 195.891C120.383 196.348 120.154 196.949 119.877 197.695C119.49 198.727 119.23 199.355 119.098 199.582C118.918 199.887 118.693 200.115 118.424 200.268C118.154 200.42 117.84 200.496 117.48 200.496H116.613V199.594H117.252C117.568 199.594 117.816 199.502 117.996 199.318C118.176 199.135 118.404 198.66 118.682 197.895L116.145 191.438H117.287L119.232 196.57L121.148 191.438H122.291L120.562 195.891ZM134.109 194.701H133.752C133.123 194.701 132.648 194.812 132.328 195.035C132.012 195.254 131.854 195.582 131.854 196.02C131.854 196.414 131.973 196.721 132.211 196.939C132.449 197.158 132.779 197.268 133.201 197.268C133.795 197.268 134.262 197.062 134.602 196.652C134.941 196.238 135.113 195.668 135.117 194.941V194.701H134.109ZM136.201 194.256V198H135.117V197.027C134.887 197.418 134.596 197.707 134.244 197.895C133.896 198.078 133.473 198.17 132.973 198.17C132.305 198.17 131.771 197.982 131.373 197.607C130.975 197.229 130.775 196.723 130.775 196.09C130.775 195.359 131.02 194.805 131.508 194.426C132 194.047 132.721 193.857 133.67 193.857H135.117V193.688C135.113 193.164 134.98 192.785 134.719 192.551C134.457 192.312 134.039 192.193 133.465 192.193C133.098 192.193 132.727 192.246 132.352 192.352C131.977 192.457 131.611 192.611 131.256 192.814V191.736C131.654 191.584 132.035 191.471 132.398 191.396C132.766 191.318 133.121 191.279 133.465 191.279C134.008 191.279 134.471 191.359 134.854 191.52C135.24 191.68 135.553 191.92 135.791 192.24C135.939 192.436 136.045 192.678 136.107 192.967C136.17 193.252 136.201 193.682 136.201 194.256ZM139.424 197.174V200.496H138.34V191.438H139.424V192.275C139.604 191.951 139.842 191.705 140.139 191.537C140.439 191.365 140.785 191.279 141.176 191.279C141.969 191.279 142.59 191.586 143.039 192.199C143.492 192.812 143.719 193.662 143.719 194.748C143.719 195.814 143.492 196.652 143.039 197.262C142.586 197.867 141.965 198.17 141.176 198.17C140.777 198.17 140.428 198.086 140.127 197.918C139.83 197.746 139.596 197.498 139.424 197.174ZM142.588 194.725C142.588 193.889 142.455 193.258 142.189 192.832C141.928 192.406 141.537 192.193 141.018 192.193C140.494 192.193 140.098 192.408 139.828 192.838C139.559 193.264 139.424 193.893 139.424 194.725C139.424 195.553 139.559 196.182 139.828 196.611C140.098 197.041 140.494 197.256 141.018 197.256C141.537 197.256 141.928 197.043 142.189 196.617C142.455 196.191 142.588 195.561 142.588 194.725ZM146.654 197.174V200.496H145.57V191.438H146.654V192.275C146.834 191.951 147.072 191.705 147.369 191.537C147.67 191.365 148.016 191.279 148.406 191.279C149.199 191.279 149.82 191.586 150.27 192.199C150.723 192.812 150.949 193.662 150.949 194.748C150.949 195.814 150.723 196.652 150.27 197.262C149.816 197.867 149.195 198.17 148.406 198.17C148.008 198.17 147.658 198.086 147.357 197.918C147.061 197.746 146.826 197.498 146.654 197.174ZM149.818 194.725C149.818 193.889 149.686 193.258 149.42 192.832C149.158 192.406 148.768 192.193 148.248 192.193C147.725 192.193 147.328 192.408 147.059 192.838C146.789 193.264 146.654 193.893 146.654 194.725C146.654 195.553 146.789 196.182 147.059 196.611C147.328 197.041 147.725 197.256 148.248 197.256C148.768 197.256 149.158 197.043 149.42 196.617C149.686 196.191 149.818 195.561 149.818 194.725Z" fill="var(--vscode-foreground)"/>
<path d="M290.279 125.633H292.342V128H290.279V125.633ZM298.84 120.295L297.592 124.771H300.088L298.84 120.295ZM298.125 119.252H299.561L302.238 128H301.014L300.369 125.721H297.305L296.672 128H295.447L298.125 119.252ZM304.658 127.174V130.496H303.574V121.438H304.658V122.275C304.838 121.951 305.076 121.705 305.373 121.537C305.674 121.365 306.02 121.279 306.41 121.279C307.203 121.279 307.824 121.586 308.273 122.199C308.727 122.812 308.953 123.662 308.953 124.748C308.953 125.814 308.727 126.652 308.273 127.262C307.82 127.867 307.199 128.17 306.41 128.17C306.012 128.17 305.662 128.086 305.361 127.918C305.064 127.746 304.83 127.498 304.658 127.174ZM307.822 124.725C307.822 123.889 307.689 123.258 307.424 122.832C307.162 122.406 306.771 122.193 306.252 122.193C305.729 122.193 305.332 122.408 305.062 122.838C304.793 123.264 304.658 123.893 304.658 124.725C304.658 125.553 304.793 126.182 305.062 126.611C305.332 127.041 305.729 127.256 306.252 127.256C306.771 127.256 307.162 127.043 307.424 126.617C307.689 126.191 307.822 125.561 307.822 124.725ZM311.889 127.174V130.496H310.805V121.438H311.889V122.275C312.068 121.951 312.307 121.705 312.604 121.537C312.904 121.365 313.25 121.279 313.641 121.279C314.434 121.279 315.055 121.586 315.504 122.199C315.957 122.812 316.184 123.662 316.184 124.748C316.184 125.814 315.957 126.652 315.504 127.262C315.051 127.867 314.43 128.17 313.641 128.17C313.242 128.17 312.893 128.086 312.592 127.918C312.295 127.746 312.061 127.498 311.889 127.174ZM315.053 124.725C315.053 123.889 314.92 123.258 314.654 122.832C314.393 122.406 314.002 122.193 313.482 122.193C312.959 122.193 312.562 122.408 312.293 122.838C312.023 123.264 311.889 123.893 311.889 124.725C311.889 125.553 312.023 126.182 312.293 126.611C312.562 127.041 312.959 127.256 313.482 127.256C314.002 127.256 314.393 127.043 314.654 126.617C314.92 126.191 315.053 125.561 315.053 124.725Z" fill="var(--vscode-editorOverviewRuler-warningForeground)"/>
<path d="M330.199 128.299V129.143H329.824C328.852 129.143 328.199 128.998 327.867 128.709C327.539 128.42 327.375 127.844 327.375 126.98V125.809C327.375 125.383 327.254 125.016 327.012 124.707C326.773 124.398 326.402 124.244 325.898 124.244H325.184V123.406H325.898C326.449 123.406 326.832 123.275 327.047 123.014C327.266 122.752 327.375 122.367 327.375 121.859V120.336C327.375 119.473 327.539 118.898 327.867 118.613C328.199 118.324 328.852 118.18 329.824 118.18H330.199V119.018H329.789C329.242 119.018 328.885 119.104 328.717 119.275C328.553 119.443 328.471 119.805 328.471 120.359V121.93C328.471 122.617 328.336 123.08 328.066 123.318C327.797 123.553 327.271 123.723 326.49 123.828C327.248 123.918 327.768 124.092 328.049 124.35C328.33 124.604 328.471 125.064 328.471 125.732V126.957C328.471 127.516 328.553 127.879 328.717 128.047C328.885 128.215 329.242 128.299 329.789 128.299H330.199ZM377.279 139.443H379.107V141.559H377.279V139.443ZM377.279 143.867H379.107V146H377.279V143.867ZM435.199 143.885H437.027V145.438L435.873 147.676H434.619L435.199 145.438V143.885ZM435.123 139.443H436.951V141.559H435.123V139.443ZM289.693 164.299C290.24 164.299 290.596 164.215 290.76 164.047C290.928 163.879 291.012 163.516 291.012 162.957V161.732C291.012 161.064 291.152 160.604 291.434 160.35C291.715 160.092 292.234 159.918 292.992 159.828C292.211 159.723 291.686 159.553 291.416 159.318C291.146 159.08 291.012 158.617 291.012 157.93V156.359C291.012 155.805 290.928 155.443 290.76 155.275C290.596 155.104 290.24 155.018 289.693 155.018H289.283V154.18H289.658C290.631 154.18 291.281 154.324 291.609 154.613C291.941 154.898 292.107 155.473 292.107 156.336V157.859C292.107 158.367 292.215 158.752 292.43 159.014C292.648 159.275 293.033 159.406 293.584 159.406H294.299V160.244H293.584C293.08 160.244 292.707 160.398 292.465 160.707C292.227 161.016 292.107 161.383 292.107 161.809V162.98C292.107 163.844 291.941 164.42 291.609 164.709C291.281 164.998 290.631 165.143 289.658 165.143H289.283V164.299H289.693Z" fill="var(--vscode-foreground)"/>
<path d="M306.059 137.574V139.438H308.508V140.275H306.059V143.838C306.059 144.322 306.15 144.66 306.334 144.852C306.518 145.043 306.838 145.139 307.295 145.139H308.508V146H307.189C306.381 146 305.811 145.838 305.479 145.514C305.146 145.189 304.98 144.631 304.98 143.838V140.275H303.229V139.438H304.98V137.574H306.059ZM316.254 142.18V142.707H311.584V142.742C311.553 143.637 311.723 144.279 312.094 144.67C312.469 145.061 312.996 145.256 313.676 145.256C314.02 145.256 314.379 145.201 314.754 145.092C315.129 144.982 315.529 144.816 315.955 144.594V145.666C315.545 145.834 315.148 145.959 314.766 146.041C314.387 146.127 314.02 146.17 313.664 146.17C312.645 146.17 311.848 145.865 311.273 145.256C310.699 144.643 310.412 143.799 310.412 142.725C310.412 141.678 310.693 140.842 311.256 140.217C311.818 139.592 312.568 139.279 313.506 139.279C314.342 139.279 315 139.562 315.48 140.129C315.965 140.695 316.223 141.379 316.254 142.18ZM315.176 141.863C315.129 141.41 314.963 141.02 314.678 140.691C314.396 140.359 313.99 140.193 313.459 140.193C312.939 140.193 312.512 140.365 312.176 140.709C311.84 141.053 311.656 141.439 311.625 141.869L315.176 141.863ZM323.473 139.438L321.123 142.578L323.701 146H322.453L320.531 143.369L318.615 146H317.367L319.945 142.578L317.596 139.438H318.791L320.531 141.811L322.26 139.438H323.473ZM327.75 137.574V139.438H330.199V140.275H327.75V143.838C327.75 144.322 327.842 144.66 328.025 144.852C328.209 145.043 328.529 145.139 328.986 145.139H330.199V146H328.881C328.072 146 327.502 145.838 327.17 145.514C326.838 145.189 326.672 144.631 326.672 143.838V140.275H324.92V139.438H326.672V137.574H327.75ZM331.98 141.758H338.191V142.748H331.98V141.758ZM342.727 142.701H342.369C341.74 142.701 341.266 142.812 340.945 143.035C340.629 143.254 340.471 143.582 340.471 144.02C340.471 144.414 340.59 144.721 340.828 144.939C341.066 145.158 341.396 145.268 341.818 145.268C342.412 145.268 342.879 145.062 343.219 144.652C343.559 144.238 343.73 143.668 343.734 142.941V142.701H342.727ZM344.818 142.256V146H343.734V145.027C343.504 145.418 343.213 145.707 342.861 145.895C342.514 146.078 342.09 146.17 341.59 146.17C340.922 146.17 340.389 145.982 339.99 145.607C339.592 145.229 339.393 144.723 339.393 144.09C339.393 143.359 339.637 142.805 340.125 142.426C340.617 142.047 341.338 141.857 342.287 141.857H343.734V141.688C343.73 141.164 343.598 140.785 343.336 140.551C343.074 140.312 342.656 140.193 342.082 140.193C341.715 140.193 341.344 140.246 340.969 140.352C340.594 140.457 340.229 140.611 339.873 140.814V139.736C340.271 139.584 340.652 139.471 341.016 139.396C341.383 139.318 341.738 139.279 342.082 139.279C342.625 139.279 343.088 139.359 343.471 139.52C343.857 139.68 344.17 139.92 344.408 140.24C344.557 140.436 344.662 140.678 344.725 140.967C344.787 141.252 344.818 141.682 344.818 142.256ZM350.057 143.627C350.057 144.111 350.145 144.477 350.32 144.723C350.5 144.969 350.764 145.092 351.111 145.092H352.371V146H351.006C350.361 146 349.861 145.795 349.506 145.385C349.154 144.971 348.979 144.385 348.979 143.627V137.691H347.25V136.848H350.057V143.627ZM354.926 139.461H357.686V145.162H359.824V146H354.469V145.162H356.607V140.299H354.926V139.461ZM356.607 136.912H357.686V138.271H356.607V136.912ZM365.332 142.666C365.332 141.857 365.199 141.244 364.934 140.826C364.672 140.404 364.289 140.193 363.785 140.193C363.258 140.193 362.855 140.404 362.578 140.826C362.301 141.244 362.162 141.857 362.162 142.666C362.162 143.475 362.301 144.092 362.578 144.518C362.859 144.939 363.266 145.15 363.797 145.15C364.293 145.15 364.672 144.938 364.934 144.512C365.199 144.086 365.332 143.471 365.332 142.666ZM366.41 145.578C366.41 146.562 366.178 147.309 365.713 147.816C365.248 148.324 364.564 148.578 363.662 148.578C363.365 148.578 363.055 148.551 362.73 148.496C362.406 148.441 362.082 148.361 361.758 148.256V147.189C362.141 147.369 362.488 147.502 362.801 147.588C363.113 147.674 363.4 147.717 363.662 147.717C364.244 147.717 364.668 147.559 364.934 147.242C365.199 146.926 365.332 146.424 365.332 145.736V145.689V144.957C365.16 145.324 364.926 145.598 364.629 145.777C364.332 145.957 363.971 146.047 363.545 146.047C362.779 146.047 362.168 145.74 361.711 145.127C361.254 144.514 361.025 143.693 361.025 142.666C361.025 141.635 361.254 140.812 361.711 140.199C362.168 139.586 362.779 139.279 363.545 139.279C363.967 139.279 364.324 139.363 364.617 139.531C364.91 139.699 365.148 139.959 365.332 140.311V139.461H366.41V145.578ZM373.693 141.934V146H372.609V141.934C372.609 141.344 372.506 140.91 372.299 140.633C372.092 140.355 371.768 140.217 371.326 140.217C370.822 140.217 370.434 140.396 370.16 140.756C369.891 141.111 369.756 141.623 369.756 142.291V146H368.678V139.438H369.756V140.422C369.947 140.047 370.207 139.764 370.535 139.572C370.863 139.377 371.252 139.279 371.701 139.279C372.369 139.279 372.867 139.5 373.195 139.941C373.527 140.379 373.693 141.043 373.693 141.934Z" fill="var(--vscode-notificationLink-foreground)"/>
<path d="M395.443 145.666C395.154 145.834 394.855 145.959 394.547 146.041C394.242 146.127 393.93 146.17 393.609 146.17C392.594 146.17 391.799 145.865 391.225 145.256C390.654 144.646 390.369 143.803 390.369 142.725C390.369 141.646 390.654 140.803 391.225 140.193C391.799 139.584 392.594 139.279 393.609 139.279C393.926 139.279 394.234 139.32 394.535 139.402C394.836 139.484 395.139 139.611 395.443 139.783V140.914C395.158 140.66 394.871 140.477 394.582 140.363C394.297 140.25 393.973 140.193 393.609 140.193C392.934 140.193 392.414 140.412 392.051 140.85C391.688 141.287 391.506 141.912 391.506 142.725C391.506 143.533 391.688 144.158 392.051 144.6C392.418 145.037 392.938 145.256 393.609 145.256C393.984 145.256 394.32 145.199 394.617 145.086C394.914 144.969 395.189 144.789 395.443 144.547V145.666ZM403.02 142.18V142.707H398.35V142.742C398.318 143.637 398.488 144.279 398.859 144.67C399.234 145.061 399.762 145.256 400.441 145.256C400.785 145.256 401.145 145.201 401.52 145.092C401.895 144.982 402.295 144.816 402.721 144.594V145.666C402.311 145.834 401.914 145.959 401.531 146.041C401.152 146.127 400.785 146.17 400.43 146.17C399.41 146.17 398.613 145.865 398.039 145.256C397.465 144.643 397.178 143.799 397.178 142.725C397.178 141.678 397.459 140.842 398.021 140.217C398.584 139.592 399.334 139.279 400.271 139.279C401.107 139.279 401.766 139.562 402.246 140.129C402.73 140.695 402.988 141.379 403.02 142.18ZM401.941 141.863C401.895 141.41 401.729 141.02 401.443 140.691C401.162 140.359 400.756 140.193 400.225 140.193C399.705 140.193 399.277 140.365 398.941 140.709C398.605 141.053 398.422 141.439 398.391 141.869L401.941 141.863ZM409.846 141.934V146H408.762V141.934C408.762 141.344 408.658 140.91 408.451 140.633C408.244 140.355 407.92 140.217 407.479 140.217C406.975 140.217 406.586 140.396 406.312 140.756C406.043 141.111 405.908 141.623 405.908 142.291V146H404.83V139.438H405.908V140.422C406.1 140.047 406.359 139.764 406.688 139.572C407.016 139.377 407.404 139.279 407.854 139.279C408.521 139.279 409.02 139.5 409.348 139.941C409.68 140.379 409.846 141.043 409.846 141.934ZM414.516 137.574V139.438H416.965V140.275H414.516V143.838C414.516 144.322 414.607 144.66 414.791 144.852C414.975 145.043 415.295 145.139 415.752 145.139H416.965V146H415.646C414.838 146 414.268 145.838 413.936 145.514C413.604 145.189 413.438 144.631 413.438 143.838V140.275H411.686V139.438H413.438V137.574H414.516ZM424.711 142.18V142.707H420.041V142.742C420.01 143.637 420.18 144.279 420.551 144.67C420.926 145.061 421.453 145.256 422.133 145.256C422.477 145.256 422.836 145.201 423.211 145.092C423.586 144.982 423.986 144.816 424.412 144.594V145.666C424.002 145.834 423.605 145.959 423.223 146.041C422.844 146.127 422.477 146.17 422.121 146.17C421.102 146.17 420.305 145.865 419.73 145.256C419.156 144.643 418.869 143.799 418.869 142.725C418.869 141.678 419.15 140.842 419.713 140.217C420.275 139.592 421.025 139.279 421.963 139.279C422.799 139.279 423.457 139.562 423.938 140.129C424.422 140.695 424.68 141.379 424.711 142.18ZM423.633 141.863C423.586 141.41 423.42 141.02 423.135 140.691C422.854 140.359 422.447 140.193 421.916 140.193C421.396 140.193 420.969 140.365 420.633 140.709C420.297 141.053 420.113 141.439 420.082 141.869L423.633 141.863ZM432.146 140.791C431.916 140.611 431.682 140.48 431.443 140.398C431.205 140.316 430.943 140.275 430.658 140.275C429.986 140.275 429.473 140.486 429.117 140.908C428.762 141.33 428.584 141.939 428.584 142.736V146H427.5V139.438H428.584V140.721C428.764 140.256 429.039 139.9 429.41 139.654C429.785 139.404 430.229 139.279 430.74 139.279C431.006 139.279 431.254 139.312 431.484 139.379C431.715 139.445 431.936 139.549 432.146 139.689V140.791Z" fill="#CE9178"/>
<rect width="1" height="329" transform="translate(263 10)" fill="var(--vscode-debugToolBar-background)"/>
</g>
<defs>
<filter id="filter0_d" x="0" y="0" width="526" height="353" filterUnits="userSpaceOnUse" color-interpolation-filters="sRGB">
<feFlood flood-opacity="0" result="BackgroundImageFix"/>
<feColorMatrix in="SourceAlpha" type="matrix" values="0 0 0 0 0 0 0 0 0 0 0 0 0 0 0 0 0 0 127 0"/>
<feOffset dy="2"/>
<feGaussianBlur stdDeviation="6"/>
<feColorMatrix type="matrix" values="0 0 0 0 0 0 0 0 0 0 0 0 0 0 0 0 0 0 0.6 0"/>
<feBlend mode="normal" in2="BackgroundImageFix" result="effect1_dropShadow"/>
<feBlend mode="normal" in="SourceGraphic" in2="effect1_dropShadow" result="shape"/>
</filter>
<clipPath id="clip0">
<rect width="119.931" height="39.2998" fill="var(--vscode-foreground)" transform="translate(12 10)"/>
</clipPath>
<clipPath id="clip1">
<rect width="122.931" height="39.2998" fill="var(--vscode-foreground)" transform="translate(264 10)"/>
</clipPath>
<clipPath id="clip2">
<rect width="122.931" height="39.2998" fill="var(--vscode-foreground)" transform="translate(264 10)"/>
</clipPath>
</defs>
</svg>
