<svg xmlns="http://www.w3.org/2000/svg" fill="none" viewBox="0 0 520 342"><rect width="519" height="341" x=".5" y=".5" fill="var(--vscode-editor-background)" rx="3.5"/><path fill="var(--vscode-banner-background)" d="M0 4C0 1.79087 1.79086 0 4 0H516C518.209 0 520 1.79086 520 4V30.9016H0V4Z"/><path fill="var(--vscode-banner-iconForeground)" d="M20.7803 22.5623C20.2348 22.2327 19.6949 21.8917 19.1607 21.5393C18.6378 21.1756 18.132 20.7835 17.6433 20.3629C17.1545 19.9424 16.6942 19.4877 16.2623 18.999C15.8417 18.5103 15.4724 17.9874 15.1541 17.4305C14.8358 16.8622 14.5858 16.2654 14.4039 15.6403C14.2221 14.9697 14.1311 14.2877 14.1311 13.5944V10.1846L14.6597 9.63899C15.0348 9.63899 15.3814 9.62763 15.6997 9.6049C16.0179 9.58216 16.3248 9.5367 16.6203 9.4685C16.9272 9.40031 17.2284 9.30938 17.5239 9.19572C17.8308 9.07069 18.1207 8.92293 18.3934 8.75244C18.7913 8.49102 19.2118 8.28643 19.6551 8.13867C20.3598 7.93408 21.0702 7.88293 21.7862 7.98522C22.2522 8.05342 22.6898 8.18981 23.099 8.3944C23.315 8.4967 23.5252 8.61036 23.7298 8.73539C24.0026 8.91725 24.2868 9.07069 24.5823 9.19572C24.8778 9.30938 25.179 9.40031 25.4859 9.4685C25.8042 9.5367 26.1167 9.58216 26.4236 9.6049C26.7419 9.62763 27.0885 9.63899 27.4636 9.63899L27.9921 10.1846V13.5944C27.9921 14.2877 27.9012 14.9697 27.7193 15.6403C27.5375 16.2654 27.2874 16.8622 26.9692 17.4305C26.6509 17.9988 26.2758 18.5273 25.8439 19.016C25.412 19.5048 24.9517 19.9594 24.463 20.38C23.9856 20.7892 23.4798 21.1756 22.9456 21.5393C22.4114 21.8917 21.8715 22.2327 21.3259 22.5623H20.7803ZM15.2052 10.696V13.5944C15.1939 14.1854 15.2678 14.7651 15.4269 15.3334C15.586 15.8904 15.802 16.4189 16.0748 16.919C16.3589 17.4077 16.6942 17.8681 17.0807 18.3C17.4785 18.7546 17.899 19.1752 18.3423 19.5616C18.7969 19.9481 19.2743 20.3118 19.7744 20.6528C20.195 20.9369 20.6212 21.2097 21.0531 21.4711C21.485 21.2097 21.9113 20.9369 22.3318 20.6528C22.8433 20.3118 23.3207 19.9481 23.7639 19.5616C24.2186 19.1752 24.6391 18.766 25.0256 18.3341C25.412 17.8908 25.7473 17.4191 26.0315 16.919C26.3156 16.4189 26.5316 15.8904 26.6793 15.3334C26.8385 14.7651 26.918 14.1854 26.918 13.5944V10.696C26.8157 10.696 26.6623 10.6904 26.4577 10.679H26.3384C25.9746 10.6449 25.6109 10.5881 25.2472 10.5085C24.4971 10.3494 23.798 10.0595 23.1502 9.63899C22.9797 9.5367 22.8092 9.44577 22.6387 9.36621C22.3204 9.20708 21.9851 9.0991 21.6328 9.04227C21.0645 8.96271 20.5075 9.00249 19.962 9.16162C19.6096 9.27528 19.28 9.4344 18.9731 9.63899C18.6321 9.85495 18.2855 10.0368 17.9331 10.1846C17.5808 10.3323 17.2227 10.446 16.859 10.5256C16.4953 10.5937 16.1316 10.6449 15.7679 10.679L15.2052 10.696ZM21.6669 15.2823C22.0192 15.1345 22.2863 14.8958 22.4682 14.5662C22.6501 14.2252 22.7012 13.8672 22.6216 13.4921C22.5534 13.117 22.3716 12.8101 22.0761 12.5715C21.7805 12.3328 21.4396 12.2134 21.0531 12.2134C20.678 12.2134 20.3427 12.3328 20.0472 12.5715C19.7517 12.8101 19.5642 13.117 19.4846 13.4921C19.4164 13.8672 19.4732 14.2252 19.6551 14.5662C19.8369 14.8958 20.104 15.1345 20.4564 15.2823L19.9961 18.0613H22.1272L21.6669 15.2823Z"/><rect width="205" height="7" x="39.705" y="11.951" fill="var(--vscode-banner-foreground)" rx="3.5"/><rect width="517" height="39" fill="var(--vscode-editorGroupHeader-tabsBackground, #252526)" transform="translate(2 31.0002)"/><g clip-path="url(#clip0)"><rect width="115.654" height="39.3" fill="var(--vscode-tab-activeBackground, #1e1e1e)" transform="translate(2 31.0002)"/><rect width="88.705" height="7.86" x="15.474" y="46.72" fill="var(--vscode-tab-unfocusedInactiveForeground, #454545)" rx="3.93"/></g><path fill="#0097FB" d="M187.17 114.954C186.352 114.46 185.542 113.948 184.741 113.42C183.957 112.874 183.198 112.286 182.465 111.655C181.732 111.024 181.041 110.342 180.393 109.609C179.763 108.876 179.209 108.092 178.731 107.256C178.254 106.404 177.879 105.509 177.606 104.571C177.333 103.565 177.197 102.542 177.197 101.502V96.3875L177.99 95.5692C178.552 95.5692 179.072 95.5521 179.55 95.518C180.027 95.4839 180.487 95.4157 180.93 95.3134C181.391 95.2111 181.843 95.0748 182.286 94.9043C182.746 94.7167 183.181 94.4951 183.59 94.2393C184.187 93.8472 184.818 93.5403 185.483 93.3187C186.54 93.0118 187.605 92.9351 188.679 93.0885C189.378 93.1908 190.035 93.3954 190.649 93.7023C190.972 93.8557 191.288 94.0262 191.595 94.2138C192.004 94.4866 192.43 94.7167 192.873 94.9043C193.317 95.0748 193.769 95.2111 194.229 95.3134C194.706 95.4157 195.175 95.4839 195.635 95.518C196.113 95.5521 196.633 95.5692 197.195 95.5692L197.988 96.3875V101.502C197.988 102.542 197.852 103.565 197.579 104.571C197.306 105.509 196.931 106.404 196.454 107.256C195.976 108.109 195.414 108.902 194.766 109.635C194.118 110.368 193.428 111.05 192.694 111.681C191.978 112.294 191.22 112.874 190.418 113.42C189.617 113.948 188.807 114.46 187.989 114.954H187.17ZM178.808 97.1548V101.502C178.791 102.389 178.902 103.258 179.14 104.111C179.379 104.946 179.703 105.739 180.112 106.489C180.538 107.222 181.041 107.913 181.621 108.561C182.218 109.243 182.849 109.873 183.513 110.453C184.195 111.033 184.911 111.578 185.662 112.09C186.292 112.516 186.932 112.925 187.58 113.317C188.228 112.925 188.867 112.516 189.498 112.09C190.265 111.578 190.981 111.033 191.646 110.453C192.328 109.873 192.959 109.26 193.538 108.612C194.118 107.947 194.621 107.239 195.047 106.489C195.473 105.739 195.797 104.946 196.019 104.111C196.258 103.258 196.377 102.389 196.377 101.502V97.1548C196.224 97.1548 195.993 97.1462 195.687 97.1292H195.508C194.962 97.078 194.416 96.9928 193.871 96.8734C192.746 96.6348 191.697 96.2 190.725 95.5692C190.47 95.4157 190.214 95.2793 189.958 95.16C189.481 94.9213 188.978 94.7593 188.449 94.6741C187.597 94.5548 186.761 94.6144 185.943 94.8531C185.414 95.0236 184.92 95.2623 184.46 95.5692C183.948 95.8931 183.428 96.1659 182.9 96.3875C182.371 96.6092 181.834 96.7797 181.289 96.899C180.743 97.0013 180.197 97.078 179.652 97.1292L178.808 97.1548ZM188.5 104.034C189.029 103.812 189.43 103.454 189.702 102.96C189.975 102.449 190.052 101.911 189.932 101.349C189.83 100.786 189.557 100.326 189.114 99.9679C188.671 99.6098 188.159 99.4308 187.58 99.4308C187.017 99.4308 186.514 99.6098 186.071 99.9679C185.628 100.326 185.346 100.786 185.227 101.349C185.125 101.911 185.21 102.449 185.483 102.96C185.755 103.454 186.156 103.812 186.685 104.034L185.994 108.203H189.191L188.5 104.034Z"/><path fill="var(--vscode-foreground)" d="M211.226 104.429H212.897L214.717 108H217.03L214.974 104.124C216.096 103.685 216.746 102.602 216.746 101.351C216.746 99.4234 215.427 98.2397 213.283 98.2397H209.184V108H211.226V104.429ZM211.226 99.836H212.999C214.013 99.836 214.649 100.431 214.649 101.378C214.649 102.345 214.047 102.907 213.019 102.907H211.226V99.836ZM223.185 105.896C222.975 106.404 222.441 106.688 221.663 106.688C220.635 106.688 219.986 105.978 219.959 104.841V104.74H225.079V104.151C225.079 101.798 223.78 100.391 221.582 100.391C219.363 100.391 217.997 101.892 217.997 104.314C217.997 106.722 219.336 108.156 221.609 108.156C223.435 108.156 224.727 107.283 225.018 105.896H223.185ZM221.589 101.858C222.509 101.858 223.104 102.494 223.144 103.516H219.965C220.033 102.514 220.676 101.858 221.589 101.858ZM226.526 102.724C226.526 103.867 227.23 104.55 228.677 104.868L230.03 105.173C230.686 105.321 230.97 105.551 230.97 105.93C230.97 106.424 230.443 106.762 229.678 106.762C228.894 106.762 228.413 106.458 228.265 105.944H226.344C226.479 107.351 227.669 108.156 229.638 108.156C231.592 108.156 232.925 107.195 232.925 105.721C232.925 104.611 232.276 104.003 230.828 103.685L229.428 103.38C228.738 103.225 228.42 102.988 228.42 102.609C228.42 102.122 228.941 101.791 229.644 101.791C230.375 101.791 230.828 102.095 230.93 102.589H232.749C232.641 101.182 231.525 100.391 229.631 100.391C227.771 100.391 226.526 101.331 226.526 102.724ZM235.062 98.774V100.621H233.899V102.115H235.062V105.991C235.062 107.439 235.779 108.027 237.592 108.027C237.971 108.027 238.336 107.986 238.58 107.939V106.485C238.39 106.505 238.255 106.519 237.998 106.519C237.328 106.519 237.031 106.208 237.031 105.538V102.115H238.58V100.621H237.031V98.774H235.062ZM240.223 108H242.191V103.833C242.191 102.785 242.929 102.142 244.004 102.142C244.322 102.142 244.782 102.197 244.938 102.251V100.519C244.769 100.465 244.437 100.431 244.167 100.431C243.22 100.431 242.449 100.993 242.252 101.737H242.131V100.553H240.223V108ZM247.258 99.4099C247.866 99.4099 248.367 98.9229 248.367 98.3141C248.367 97.6986 247.866 97.2116 247.258 97.2116C246.649 97.2116 246.142 97.6986 246.142 98.3141C246.142 98.9229 246.649 99.4099 247.258 99.4099ZM246.27 108H248.238V100.553H246.27V108ZM256.835 103.15C256.673 101.486 255.489 100.391 253.514 100.391C251.181 100.391 249.869 101.804 249.869 104.26C249.869 106.742 251.187 108.156 253.514 108.156C255.455 108.156 256.673 107.087 256.835 105.45H254.996C254.847 106.194 254.319 106.593 253.514 106.593C252.459 106.593 251.857 105.761 251.857 104.26C251.857 102.778 252.452 101.96 253.514 101.96C254.353 101.96 254.86 102.433 254.996 103.15H256.835ZM259.007 98.774V100.621H257.843V102.115H259.007V105.991C259.007 107.439 259.724 108.027 261.536 108.027C261.915 108.027 262.28 107.986 262.524 107.939V106.485C262.334 106.505 262.199 106.519 261.942 106.519C261.272 106.519 260.975 106.208 260.975 105.538V102.115H262.524V100.621H260.975V98.774H259.007ZM268.936 105.896C268.726 106.404 268.192 106.688 267.414 106.688C266.386 106.688 265.737 105.978 265.71 104.841V104.74H270.83V104.151C270.83 101.798 269.531 100.391 267.333 100.391C265.114 100.391 263.748 101.892 263.748 104.314C263.748 106.722 265.087 108.156 267.36 108.156C269.186 108.156 270.478 107.283 270.769 105.896H268.936ZM267.34 101.858C268.26 101.858 268.855 102.494 268.895 103.516H265.716C265.784 102.514 266.427 101.858 267.34 101.858ZM275.118 108.115C276.153 108.115 276.999 107.635 277.398 106.83H277.519V108H279.427V97.7054H277.458V101.743H277.343C276.958 100.918 276.126 100.431 275.118 100.431C273.245 100.431 272.081 101.899 272.081 104.266C272.081 106.64 273.238 108.115 275.118 108.115ZM275.788 102.027C276.836 102.027 277.479 102.886 277.479 104.28C277.479 105.673 276.843 106.525 275.788 106.525C274.733 106.525 274.104 105.68 274.104 104.273C274.104 102.873 274.739 102.027 275.788 102.027ZM295.572 108V98.2397H293.171L290.465 104.97H290.344L287.645 98.2397H285.237V108H287.131V101.392H287.239L289.728 107.52H291.088L293.57 101.392H293.678V108H295.572ZM301.051 108.156C303.344 108.156 304.724 106.708 304.724 104.273C304.724 101.858 303.324 100.391 301.051 100.391C298.778 100.391 297.378 101.865 297.378 104.273C297.378 106.701 298.758 108.156 301.051 108.156ZM301.051 106.6C299.996 106.6 299.401 105.748 299.401 104.273C299.401 102.812 300.003 101.953 301.051 101.953C302.093 101.953 302.701 102.812 302.701 104.273C302.701 105.748 302.099 106.6 301.051 106.6ZM309.005 108.115C310.04 108.115 310.886 107.635 311.285 106.83H311.406V108H313.314V97.7054H311.346V101.743H311.231C310.845 100.918 310.013 100.431 309.005 100.431C307.132 100.431 305.968 101.899 305.968 104.266C305.968 106.64 307.125 108.115 309.005 108.115ZM309.675 102.027C310.723 102.027 311.366 102.886 311.366 104.28C311.366 105.673 310.73 106.525 309.675 106.525C308.62 106.525 307.991 105.68 307.991 104.273C307.991 102.873 308.626 102.027 309.675 102.027ZM320.179 105.896C319.97 106.404 319.435 106.688 318.657 106.688C317.629 106.688 316.98 105.978 316.953 104.841V104.74H322.073V104.151C322.073 101.798 320.774 100.391 318.576 100.391C316.358 100.391 314.991 101.892 314.991 104.314C314.991 106.722 316.331 108.156 318.603 108.156C320.429 108.156 321.721 107.283 322.012 105.896H320.179ZM318.583 101.858C319.503 101.858 320.098 102.494 320.139 103.516H316.96C317.027 102.514 317.67 101.858 318.583 101.858Z"/><path fill="var(--vscode-foreground)" d="M131.177 168.241V160.458H134.002V159.081H126.721V160.458H129.54V168.241H131.177ZM134.739 168.241H136.313V164.21C136.313 163.232 137.024 162.598 138.046 162.598C138.312 162.598 138.731 162.642 138.852 162.686V161.252C138.706 161.214 138.427 161.188 138.198 161.188C137.303 161.188 136.554 161.696 136.364 162.382H136.256V161.303H134.739V168.241ZM146.19 161.303H144.615V165.346C144.615 166.393 144.057 167.028 143.035 167.028C142.095 167.028 141.657 166.508 141.657 165.429V161.303H140.083V165.809C140.083 167.434 140.972 168.38 142.489 168.38C143.549 168.38 144.228 167.93 144.565 167.136H144.673V168.241H146.19V161.303ZM147.961 163.283C147.961 164.324 148.589 164.933 149.922 165.238L151.154 165.524C151.814 165.676 152.112 165.93 152.112 166.324C152.112 166.85 151.56 167.212 150.766 167.212C149.979 167.212 149.49 166.895 149.338 166.381H147.783C147.904 167.631 148.995 168.38 150.728 168.38C152.461 168.38 153.686 167.498 153.686 166.171C153.686 165.149 153.071 164.584 151.744 164.28L150.519 164.007C149.821 163.842 149.49 163.594 149.49 163.201C149.49 162.686 150.03 162.337 150.747 162.337C151.484 162.337 151.947 162.655 152.061 163.143H153.54C153.426 161.893 152.391 161.169 150.741 161.169C149.103 161.169 147.961 162.039 147.961 163.283ZM155.73 159.601V161.347H154.632V162.572H155.73V166.4C155.73 167.739 156.365 168.272 157.958 168.272C158.263 168.272 158.555 168.247 158.783 168.203V166.996C158.593 167.016 158.472 167.028 158.25 167.028C157.59 167.028 157.298 166.717 157.298 166.025V162.572H158.783V161.347H157.298V159.601H155.73ZM164.82 166.343C164.592 166.863 164.052 167.155 163.271 167.155C162.237 167.155 161.57 166.419 161.532 165.245V165.162H166.382V164.661C166.382 162.483 165.195 161.169 163.214 161.169C161.202 161.169 159.951 162.572 159.951 164.8C159.951 167.022 161.183 168.38 163.227 168.38C164.865 168.38 166.026 167.593 166.312 166.343H164.82ZM163.208 162.394C164.154 162.394 164.776 163.061 164.807 164.115H161.538C161.608 163.074 162.268 162.394 163.208 162.394ZM170.476 168.355C171.441 168.355 172.24 167.904 172.634 167.142H172.742V168.241H174.265V158.618H172.691V162.407H172.583C172.215 161.645 171.428 161.188 170.476 161.188C168.724 161.188 167.619 162.572 167.619 164.768C167.619 166.971 168.718 168.355 170.476 168.355ZM170.965 162.502C172.044 162.502 172.71 163.372 172.71 164.775C172.71 166.184 172.05 167.047 170.965 167.047C169.885 167.047 169.232 166.197 169.232 164.775C169.232 163.359 169.892 162.502 170.965 162.502Z"/><path fill="#73C991" d="M87.6115 187.544L81.9746 194.204L81.4418 194.172L79.2148 190.996L79.7582 190.613L81.7402 193.436L87.1 187.107L87.6115 187.544Z"/><rect width="57.541" height="7" x="97.656" y="186.811" fill="var(--vscode-tab-unfocusedInactiveForeground, #454545)" rx="3.5"/><path fill="#73C991" d="M87.6115 206.2L81.9746 212.859L81.4418 212.827L79.2148 209.652L79.7582 209.268L81.7402 212.092L87.1 205.763L87.6115 206.2Z"/><rect width="107.623" height="7" x="97.656" y="205.467" fill="var(--vscode-tab-unfocusedInactiveForeground, #454545)" rx="3.5"/><path fill="#73C991" d="M87.6115 224.855L81.9746 231.515L81.4418 231.483L79.2148 228.308L79.7582 227.924L81.7402 230.748L87.1 224.418L87.6115 224.855Z"/><rect width="117.213" height="7" x="97.656" y="224.123" fill="var(--vscode-tab-unfocusedInactiveForeground, #454545)" rx="3.5"/><rect width="198" height="145" x="55" y="141" stroke="var(--vscode-dropdown-border)" stroke-width="2" rx="1"/><rect width="57" height="22" fill="var(--vscode-button-background)" transform="translate(125 246.001)"/><path fill="var(--vscode-button-foreground)" d="M143.429 261.002V254.288H145.862V253.251H139.787V254.288H142.226V261.002H143.429ZM146.463 261.002H147.618V257.516C147.618 256.694 148.236 256.13 149.111 256.13C149.315 256.13 149.659 256.168 149.756 256.195V255.11C149.632 255.083 149.412 255.067 149.24 255.067C148.478 255.067 147.828 255.48 147.661 256.055H147.575V255.169H146.463V261.002ZM155.798 255.169H154.644V258.59C154.644 259.53 154.133 260.099 153.199 260.099C152.35 260.099 151.969 259.637 151.969 258.671V255.169H150.814V258.955C150.814 260.325 151.534 261.115 152.828 261.115C153.714 261.115 154.311 260.739 154.595 260.078H154.687V261.002H155.798V255.169ZM157.34 256.802C157.34 257.666 157.855 258.16 158.967 258.418L159.988 258.66C160.573 258.8 160.847 259.036 160.847 259.401C160.847 259.879 160.337 260.212 159.617 260.212C158.919 260.212 158.489 259.927 158.344 259.471H157.189C157.292 260.486 158.199 261.115 159.59 261.115C160.987 261.115 162.013 260.379 162.013 259.294C162.013 258.445 161.492 257.967 160.38 257.709L159.408 257.484C158.774 257.333 158.479 257.108 158.479 256.748C158.479 256.275 158.967 255.958 159.612 255.958C160.267 255.958 160.686 256.243 160.793 256.678H161.9C161.787 255.668 160.928 255.056 159.612 255.056C158.291 255.056 157.34 255.786 157.34 256.802ZM163.769 253.697V255.185H162.84V256.109H163.769V259.466C163.769 260.588 164.279 261.039 165.563 261.039C165.789 261.039 166.003 261.012 166.191 260.98V260.062C166.03 260.078 165.928 260.089 165.751 260.089C165.176 260.089 164.924 259.815 164.924 259.186V256.109H166.191V255.185H164.924V253.697H163.769Z"/><path fill="var(--vscode-foreground)" d="M331.866 164.794H333.681L335.478 168.241H337.35L335.351 164.546C336.443 164.153 337.077 163.143 337.077 161.931C337.077 160.179 335.871 159.081 333.948 159.081H330.228V168.241H331.866V164.794ZM331.866 160.408H333.719C334.76 160.408 335.395 160.998 335.395 161.963C335.395 162.947 334.799 163.512 333.758 163.512H331.866V160.408ZM343.209 166.343C342.981 166.863 342.441 167.155 341.66 167.155C340.626 167.155 339.959 166.419 339.921 165.245V165.162H344.771V164.661C344.771 162.483 343.584 161.169 341.603 161.169C339.591 161.169 338.341 162.572 338.341 164.8C338.341 167.022 339.572 168.38 341.616 168.38C343.254 168.38 344.415 167.593 344.701 166.343H343.209ZM341.597 162.394C342.543 162.394 343.165 163.061 343.197 164.115H339.927C339.997 163.074 340.657 162.394 341.597 162.394ZM346.193 163.283C346.193 164.324 346.821 164.933 348.154 165.238L349.385 165.524C350.046 165.676 350.344 165.93 350.344 166.324C350.344 166.85 349.792 167.212 348.998 167.212C348.211 167.212 347.722 166.895 347.57 166.381H346.015C346.135 167.631 347.227 168.38 348.96 168.38C350.693 168.38 351.918 167.498 351.918 166.171C351.918 165.149 351.302 164.584 349.976 164.28L348.751 164.007C348.052 163.842 347.722 163.594 347.722 163.201C347.722 162.686 348.262 162.337 348.979 162.337C349.716 162.337 350.179 162.655 350.293 163.143H351.772C351.658 161.893 350.623 161.169 348.973 161.169C347.335 161.169 346.193 162.039 346.193 163.283ZM353.962 159.601V161.347H352.864V162.572H353.962V166.4C353.962 167.739 354.597 168.272 356.19 168.272C356.495 168.272 356.787 168.247 357.015 168.203V166.996C356.825 167.016 356.704 167.028 356.482 167.028C355.822 167.028 355.53 166.717 355.53 166.025V162.572H357.015V161.347H355.53V159.601H353.962ZM358.59 168.241H360.164V164.21C360.164 163.232 360.875 162.598 361.897 162.598C362.163 162.598 362.582 162.642 362.703 162.686V161.252C362.557 161.214 362.278 161.188 362.049 161.188C361.154 161.188 360.405 161.696 360.215 162.382H360.107V161.303H358.59V168.241ZM364.798 160.141C365.318 160.141 365.743 159.728 365.743 159.208C365.743 158.694 365.318 158.275 364.798 158.275C364.283 158.275 363.858 158.694 363.858 159.208C363.858 159.728 364.283 160.141 364.798 160.141ZM364.017 168.241H365.585V161.303H364.017V168.241ZM373.538 163.62C373.373 162.185 372.294 161.169 370.51 161.169C368.422 161.169 367.197 162.509 367.197 164.756C367.197 167.028 368.428 168.38 370.517 168.38C372.275 168.38 373.367 167.403 373.538 165.968H372.04C371.875 166.698 371.329 167.085 370.51 167.085C369.438 167.085 368.79 166.228 368.79 164.756C368.79 163.308 369.431 162.458 370.51 162.458C371.374 162.458 371.894 162.947 372.04 163.62H373.538ZM375.633 159.601V161.347H374.535V162.572H375.633V166.4C375.633 167.739 376.268 168.272 377.861 168.272C378.166 168.272 378.458 168.247 378.686 168.203V166.996C378.496 167.016 378.375 167.028 378.153 167.028C377.493 167.028 377.201 166.717 377.201 166.025V162.572H378.686V161.347H377.201V159.601H375.633ZM384.723 166.343C384.494 166.863 383.955 167.155 383.174 167.155C382.139 167.155 381.473 166.419 381.435 165.245V165.162H386.284V164.661C386.284 162.483 385.097 161.169 383.117 161.169C381.105 161.169 379.854 162.572 379.854 164.8C379.854 167.022 381.086 168.38 383.13 168.38C384.767 168.38 385.929 167.593 386.215 166.343H384.723ZM383.111 162.394C384.056 162.394 384.678 163.061 384.71 164.115H381.441C381.511 163.074 382.171 162.394 383.111 162.394ZM390.379 168.355C391.344 168.355 392.143 167.904 392.537 167.142H392.645V168.241H394.168V158.618H392.594V162.407H392.486C392.118 161.645 391.331 161.188 390.379 161.188C388.627 161.188 387.522 162.572 387.522 164.768C387.522 166.971 388.62 168.355 390.379 168.355ZM390.867 162.502C391.947 162.502 392.613 163.372 392.613 164.775C392.613 166.184 391.953 167.047 390.867 167.047C389.788 167.047 389.135 166.197 389.135 164.775C389.135 163.359 389.795 162.502 390.867 162.502Z"/><path fill="#F14C4C" d="M296.369 191.124L298.798 193.554L299.267 193.085L296.838 190.655L299.267 188.226L298.798 187.757L296.369 190.186L293.939 187.757L293.471 188.226L295.9 190.655L293.471 193.085L293.939 193.554L296.369 191.124Z"/><rect width="102" height="7" x="307.697" y="186.811" fill="var(--vscode-tab-unfocusedInactiveForeground, #454545)" rx="3.5"/><path fill="#F14C4C" d="M296.369 209.78L298.798 212.209L299.267 211.741L296.838 209.311L299.267 206.882L298.798 206.413L296.369 208.842L293.939 206.413L293.471 206.882L295.9 209.311L293.471 211.741L293.939 212.209L296.369 209.78Z"/><rect width="129" height="7" x="307.697" y="205.467" fill="var(--vscode-tab-unfocusedInactiveForeground, #454545)" rx="3.5"/><path fill="#F14C4C" d="M296.369 228.436L298.798 230.865L299.267 230.396L296.838 227.967L299.267 225.537L298.798 225.068L296.369 227.498L293.939 225.068L293.471 225.537L295.9 227.967L293.471 230.396L293.939 230.865L296.369 228.436Z"/><rect width="102" height="7" x="307.697" y="224.123" fill="var(--vscode-tab-unfocusedInactiveForeground, #454545)" rx="3.5"/><path fill="#F14C4C" d="M296.369 247.091L298.798 249.521L299.267 249.052L296.838 246.622L299.267 244.193L298.798 243.724L296.369 246.154L293.939 243.724L293.471 244.193L295.9 246.622L293.471 249.052L293.939 249.521L296.369 247.091Z"/><rect width="77" height="7" x="307.697" y="242.778" fill="var(--vscode-tab-unfocusedInactiveForeground, #454545)" rx="3.5"/><rect width="198" height="145" x="267" y="141" stroke="var(--vscode-focusBorder)" stroke-width="2" rx="1"/><path fill="var(--vscode-statusBar-background)" d="M0 315H520V338C520 340.209 518.209 342 516 342H4.00002C1.79088 342 0 340.209 0 338V315Z"/><rect width="142" height="27" fill="var(--vscode-statusBarItem-prominentBackground)" transform="translate(16 315)"/><path fill="#fff" d="M31.7803 335.612C31.2348 335.282 30.6949 334.941 30.1607 334.589C29.6378 334.225 29.132 333.833 28.6433 333.412C28.1545 332.992 27.6942 332.537 27.2623 332.048C26.8417 331.56 26.4724 331.037 26.1541 330.48C25.8358 329.912 25.5858 329.315 25.4039 328.69C25.2221 328.019 25.1311 327.337 25.1311 326.644V323.234L25.6597 322.688C26.0348 322.688 26.3814 322.677 26.6997 322.654C27.0179 322.632 27.3248 322.586 27.6203 322.518C27.9272 322.45 28.2284 322.359 28.5239 322.245C28.8308 322.12 29.1207 321.972 29.3934 321.802C29.7913 321.541 30.2118 321.336 30.6551 321.188C31.3598 320.984 32.0702 320.932 32.7862 321.035C33.2522 321.103 33.6898 321.239 34.099 321.444C34.315 321.546 34.5252 321.66 34.7298 321.785C35.0026 321.967 35.2868 322.12 35.5823 322.245C35.8778 322.359 36.179 322.45 36.4859 322.518C36.8042 322.586 37.1167 322.632 37.4236 322.654C37.7419 322.677 38.0885 322.688 38.4636 322.688L38.9921 323.234V326.644C38.9921 327.337 38.9012 328.019 38.7193 328.69C38.5375 329.315 38.2874 329.912 37.9692 330.48C37.6509 331.048 37.2758 331.577 36.8439 332.066C36.412 332.554 35.9517 333.009 35.463 333.429C34.9856 333.839 34.4798 334.225 33.9456 334.589C33.4114 334.941 32.8715 335.282 32.3259 335.612H31.7803ZM26.2052 323.746V326.644C26.1939 327.235 26.2678 327.815 26.4269 328.383C26.586 328.94 26.802 329.468 27.0748 329.968C27.3589 330.457 27.6942 330.918 28.0807 331.349C28.4785 331.804 28.899 332.225 29.3423 332.611C29.7969 332.998 30.2743 333.361 30.7744 333.702C31.195 333.986 31.6212 334.259 32.0531 334.521C32.485 334.259 32.9113 333.986 33.3318 333.702C33.8433 333.361 34.3207 332.998 34.7639 332.611C35.2186 332.225 35.6391 331.815 36.0256 331.384C36.412 330.94 36.7473 330.469 37.0315 329.968C37.3156 329.468 37.5316 328.94 37.6793 328.383C37.8385 327.815 37.918 327.235 37.918 326.644V323.746C37.8157 323.746 37.6623 323.74 37.4577 323.728H37.3384C36.9746 323.694 36.6109 323.638 36.2472 323.558C35.4971 323.399 34.798 323.109 34.1502 322.688C33.9797 322.586 33.8092 322.495 33.6387 322.416C33.3204 322.257 32.9851 322.149 32.6328 322.092C32.0645 322.012 31.5075 322.052 30.962 322.211C30.6096 322.325 30.28 322.484 29.9731 322.688C29.6321 322.904 29.2855 323.086 28.9331 323.234C28.5808 323.382 28.2227 323.495 27.859 323.575C27.4953 323.643 27.1316 323.694 26.7679 323.728L26.2052 323.746ZM32.6669 328.332C33.0192 328.184 33.2863 327.945 33.4682 327.616C33.6501 327.275 33.7012 326.917 33.6216 326.542C33.5534 326.167 33.3716 325.86 33.0761 325.621C32.7805 325.382 32.4396 325.263 32.0531 325.263C31.678 325.263 31.3427 325.382 31.0472 325.621C30.7517 325.86 30.5642 326.167 30.4846 326.542C30.4164 326.917 30.4732 327.275 30.6551 327.616C30.8369 327.945 31.104 328.184 31.4564 328.332L30.9961 331.111H33.1272L32.6669 328.332Z"/><rect width="97" height="7" x="50.049" y="325" fill="#fff" fill-opacity=".75" rx="3.5"/><rect width="519" height="341" x=".5" y=".5" stroke="#3A3D41" rx="3.5"/><defs><clipPath id="clip0"><rect width="115.654" height="39.3" fill="#fff" transform="translate(2 31.0002)"/></clipPath></defs></svg>