<svg width="16" height="16" viewBox="0 0 16 16" fill="none" xmlns="http://www.w3.org/2000/svg">
<path fill-rule="evenodd" clip-rule="evenodd" d="M10.8775 4.5V3.91833C10.8775 2.30658 9.57092 1 7.95917 1C6.34742 1 5.04084 2.30658 5.04084 3.91833V4.5H4.20835L2.54527 2.8285L1.95216 3.41862L3.56303 5.03764L3.54447 5.08683C3.22212 5.94055 3.04084 6.90159 3.04084 7.91833C3.04084 8.11403 3.04755 8.30766 3.0607 8.49886L3.0637 8.5425H1V9.37916H3.16882L3.17494 9.41265C3.34718 10.3545 3.6785 11.2152 4.12918 11.9442L4.16317 11.9992L2.19995 13.9624L2.79157 14.554L4.66326 12.6823L4.72075 12.748C5.58881 13.7401 6.72251 14.3367 7.95917 14.3367C9.17697 14.3367 10.2949 13.7582 11.1576 12.7932L11.2153 12.7287L13.1251 14.6481L13.7182 14.058L11.7218 12.0515L11.7565 11.9964C12.2239 11.2564 12.567 10.3771 12.7434 9.41265L12.7495 9.37916H14.92V8.5425H12.8546L12.8576 8.49886C12.8708 8.30766 12.8775 8.11403 12.8775 7.91833C12.8775 6.88815 12.6914 5.91515 12.361 5.05303L12.3421 5.00354L13.9119 3.43371L13.3203 2.8421L11.6624 4.5H10.8775ZM5.87751 4.5V3.91833C5.87751 2.76866 6.8095 1.83667 7.95917 1.83667C9.10884 1.83667 10.0408 2.76866 10.0408 3.91833V4.5H5.87751ZM11.5739 5.33667L11.5938 5.38957C11.8772 6.14269 12.0408 7.00011 12.0408 7.91833C12.0408 9.52826 11.5379 10.9522 10.7668 11.9546C9.99644 12.9561 8.99584 13.5 7.95917 13.5C6.9225 13.5 5.9219 12.9561 5.15153 11.9546C4.38048 10.9522 3.8775 9.52826 3.8775 7.91833C3.8775 7.00011 4.0411 6.1427 4.32451 5.38957L4.34441 5.33667H11.5739Z" fill="#424242"/>
</svg>
