<svg width="16" height="16" viewBox="0 0 16 16" fill="none" xmlns="http://www.w3.org/2000/svg">
<path fill-rule="evenodd" clip-rule="evenodd" d="M5.91421 6L8.06065 3.85356L8.06065 3.14645L5.91421 1L5.2071 1.70711L6 2.50001V2.50004L6.49996 3H6.49999L6.99999 3.50001L5.2071 5.29289L5.91421 6ZM5 6.50003L5.91421 7.41424L6 7.32845V14H14V7H10V3H9.06065V2.73227L8.32838 2H11.2L11.5 2.1L14.9 5.6L15 6V14.5L14.5 15H5.5L5 14.5V9.00003V6.50003ZM11 3V6H13.9032L11 3Z" fill="#424242"/>
<path d="M2 3H7V4H2V3Z" fill="#424242"/>
</svg>
