<svg width="16" height="16" viewBox="0 0 16 16" fill="none" xmlns="http://www.w3.org/2000/svg">
<path fill-rule="evenodd" clip-rule="evenodd" d="M12.8 2.99999C11.7 1.89999 10.2 1.09999 8.6 0.999985C7 0.899985 5.4 1.29999 4.1 2.19999C2.7 3.09999 1.8 4.39999 1.3 5.99999C0.799997 7.49999 0.899997 9.19999 1.5 10.7C2.1 12.2 3.2 13.4 4.6 14.2C6 15 7.6 15.2 9.2 14.9C10.8 14.6 12.2 13.7 13.2 12.5C14.2 11.2 14.8 9.69999 14.8 8.09999C14.8 6.09999 14.1 4.39999 12.8 2.99999ZM12.5 11.8C11.6 12.9 10.4 13.6 9.1 13.9C7.8 14.2 6.4 14 5.2 13.3C4 12.6 3.1 11.6 2.5 10.3C1.9 8.99999 1.9 7.59999 2.3 6.29999C2.7 4.89999 3.5 3.79999 4.6 2.99999C5.7 2.19999 7.1 1.89999 8.4 1.99999C9.8 2.09999 11 2.69999 12 3.69999C13.1 4.79999 13.7 6.39999 13.7 7.99999C13.8 9.39999 13.3 10.7 12.5 11.8Z" fill="#A1260D"/>
<path d="M6 6H10V10H6V6Z" fill="#A1260D"/>
</svg>
