<svg xmlns="http://www.w3.org/2000/svg" viewBox="0 0 16 16"><style>.icon-canvas-transparent{opacity:0;fill:#f6f6f6}.icon-vs-out{fill:#f6f6f6}.icon-vs-bg{fill:#424242}.icon-vs-fg{fill:#f0eff1}</style><path class="icon-canvas-transparent" d="M16 16H0V0h16v16z" id="canvas"/><path class="icon-vs-out" d="M16 10.015l-.258.043c.155.455.258.935.258 1.442 0 2.481-2.019 4.5-4.5 4.5-.508 0-.988-.103-1.444-.259l-.043.259H5.986l-.373-2.237-1.846 1.317-2.848-2.847 1.319-1.847L0 10.013V5.986l2.238-.373L.919 3.767 3.768.919l1.846 1.319L5.986 0h4.028l.372 2.238L12.233.919l2.847 2.848-1.318 1.846L16 5.986v4.029z" id="outline" style="display: none;"/><path class="icon-vs-bg" d="M7 11.5c0-.501.101-.975.253-1.426A2.207 2.207 0 0 1 8 5.788c.958 0 1.767.613 2.074 1.466A4.417 4.417 0 0 1 11.5 7c1.421 0 2.675.675 3.5 1.706V6.834l-2.121-.354a5.14 5.14 0 0 0-.354-.854l1.25-1.75-1.65-1.65-1.752 1.251c-.137-.072-.262-.159-.408-.219-.147-.061-.296-.088-.444-.134L9.167 1H6.834L6.48 3.121c-.295.092-.581.21-.854.354l-1.75-1.25-1.65 1.65 1.252 1.752c-.073.137-.16.263-.221.409-.06.145-.087.295-.133.443L1 6.833v2.333l2.121.354c.092.295.21.581.354.854l-1.25 1.75 1.65 1.65 1.752-1.251c.137.072.262.159.408.219.146.06.296.087.444.133L6.833 15h1.873C7.675 14.175 7 12.921 7 11.5z" id="iconBg"/><path class="icon-vs-bg" d="M11.5 8a3.5 3.5 0 1 0 0 7 3.5 3.5 0 0 0 0-7zM9 12v-1h5v1H9z" id="notificationBg"/><g id="notificationFg"><path class="icon-vs-fg" d="M9 11h5v1H9z" style="display: none;"/></g></svg>