<svg xmlns="http://www.w3.org/2000/svg" viewBox="0 0 16 16"><style>.icon-canvas-transparent{opacity:0;fill:#f6f6f6}.icon-vs-out{fill:#f6f6f6}.icon-vs-bg{fill:#424242}.icon-vs-fg{fill:#f0eff1}</style><path class="icon-canvas-transparent" d="M16 16H0V0h16v16z" id="canvas"/><path class="icon-vs-out" d="M16 3.556V12c0 .97-.701 2-2 2h-1.972l-2.29 2H8.714l-.214-.479-.216.479H7.26l-1.256-1.105L4.738 16H3.714l-.214-.479-.216.479H2.26L0 14.012v-.04l.56-.482-.56-.053v-1.069l.937-2.861.799.472L1.525 9H4V2C4 .701 5.03 0 6 0h6.061L16 3.556z" id="outline" style="display: none;"/><path class="icon-vs-bg" d="M15 4v8s-.035 1-1.035 1h-1.758l-.327-1H14V5h-3V2H6v7.544l-.063-.037-.031.093-.641.378L5.476 9H5V2c0-1 .964-1 .964-1h5.677L15 4zm-9.5 7l-1.694 1 .432-2H2.764l.431 2L1.5 11 1 12.527l1.991.189L1.5 14l1.137 1 .863-1.927L4.362 15l1.146-1-1.499-1.284L6 12.527 5.5 11zm5 0l-1.694 1 .432-2H7.764l.431 2L6.5 11 6 12.527l1.991.189L6.5 14l1.137 1 .863-1.927L9.362 15l1.146-1-1.499-1.284L11 12.527 10.5 11z" id="iconBg"/><g id="iconFg"><path class="icon-vs-fg" d="M14 5v7h-2.12l-.816-2.493-.798.471.211-.978H6.525l.21.979-.641-.379-.03-.093L6 9.544V2h5v3h3z" style="display: none;"/></g></svg>