<svg width="256" height="256" viewBox="0 0 256 256" fill="none" xmlns="http://www.w3.org/2000/svg">
<g opacity="0.3">
<mask id="mask0" mask-type="alpha" maskUnits="userSpaceOnUse" x="0" y="0" width="256" height="256">
<path d="M176.049 250.669C180.838 255.458 188.13 256.7 194.234 253.764L246.94 228.419C252.478 225.755 256 220.154 256 214.008V42.1478C256 36.0024 252.478 30.4007 246.94 27.7374L194.234 2.39082C188.13 -0.544477 180.838 0.696546 176.049 5.48566C181.95 -0.415121 192.039 3.76407 192.039 12.1091V244.046C192.039 252.391 181.95 256.57 176.049 250.669Z" fill="white"/>
<path d="M181.379 180.646L114.33 128.632L181.379 75.5113V17.794C181.379 10.8477 173.128 7.20667 167.996 11.8861L74.6514 97.8518L31.1994 64.1438C27.1081 61.0389 21.3851 61.294 17.5853 64.7476L3.48974 77.5627C-1.15847 81.7893 -1.16367 89.0947 3.47672 93.3291L167.98 244.185C173.107 248.887 181.379 245.249 181.379 238.292V180.646Z" fill="white"/>
<path d="M36.6937 134.195L3.47672 162.828C-1.16367 167.062 -1.15847 174.37 3.48974 178.594L17.5853 191.409C21.3851 194.863 27.1081 195.118 31.1994 192.013L69.4472 164.057L36.6937 134.195Z" fill="white"/>
</mask>
<g mask="url(#mask0)">
<path d="M167.996 11.8858C173.128 7.20633 181.379 10.8473 181.379 17.7936V75.511L104.938 136.073L65.5742 106.211L167.996 11.8858Z" fill="#0F0F0F"/>
<path d="M36.6937 134.194L3.47672 162.827C-1.16367 167.062 -1.15847 174.37 3.48974 178.594L17.5853 191.409C21.3851 194.863 27.1081 195.118 31.1994 192.013L69.4472 164.056L36.6937 134.194Z" fill="#0F0F0F"/>
<path d="M181.379 180.645L31.1994 64.1427C27.1081 61.0379 21.3851 61.2929 17.5853 64.7465L3.48974 77.5616C-1.15847 81.7882 -1.16367 89.0937 3.47672 93.3281L167.972 244.176C173.102 248.881 181.379 245.241 181.379 238.28V180.645Z" fill="#121212"/>
<path d="M194.235 253.766C188.131 256.701 180.839 255.46 176.05 250.671C181.951 256.571 192.04 252.392 192.04 244.047V12.1104C192.04 3.76541 181.951 -0.413778 176.05 5.487C180.839 0.697885 188.131 -0.54313 194.235 2.39216L246.941 27.7387C252.479 30.4021 256.001 36.0038 256.001 42.1492V214.009C256.001 220.155 252.479 225.757 246.941 228.42L194.235 253.766Z" fill="#2B2B2B"/>
</g>
</g>
</svg>
