<svg viewBox="0 0 261 260" xmlns="http://www.w3.org/2000/svg" fill-rule="evenodd" clip-rule="evenodd" stroke-linejoin="round" stroke-miterlimit="1.414"><path d="M260.475 27.035v3.977l.022.043-.022.01v201.888l-65 27.04L.497 194.337l194.978 28.96V-.006l65 27.042zm-16.43 203.388l-29.824 15.905-18.943 7.883-10.225-3.443 58.991-20.345zm-10.357-6.12l-53.223 24.92-8.63-2.91 61.853-22.01zm-50.601 6.052l-16.977 14.033-6.97-2.344 23.947-11.69zm7.1-2.37l10.444 1.548-27.638 12.681 17.194-14.23zm64.87-10.696v6.474l-52.525 18.113 52.524-24.587zM170.02 227.56l-15.534 12.913-7.298-2.46 22.832-10.453zm6.227-1.645l7.494 1.112-21.434 10.453 13.94-11.565zm-20.582-.86l-13.415 11.304-6.75-2.275 20.165-9.03zm99.39-17.525v6.299l-61.023 21.704 61.023-28.003zm0 20.09v1.719l-14.638 6.093 14.638-7.813zm-93.6-3.905l7.888 1.175-20.32 9.304 12.432-10.479zm-18.724-.45l-12.039 9.194-5.658-1.899 17.697-7.295zm6.292-1.39l5.353.787-15.468 6.93 10.115-7.717zm94.67-12.108l-42.8 19.646v-7.708l42.8-11.938zm-113.416 10.41l-10.487 8.611-6.5-2.185 16.987-6.425zm4.741-.386l6.642.99-15.774 6.5 9.132-7.49zm-17.846-2.126l-9.32 7.108-6.336-2.13 15.656-4.978zm4.322.116l5.353.797-12.722 4.816 7.37-5.613zm-18.032-2.456l-7.824 5.338-5.462-1.84 13.286-3.498zm4.215.409l4.523.67-10.32 3.28 5.797-3.95zm134.924-17.667l-41.709 19.83v-7.073l41.71-12.757zm-152.95 15.158l-5.807 3.466-3.882-1.307 9.69-2.159zm165.404-18.084v8.644l-43.96 12.261 43.96-20.905zm-160.94 18.576l3.075.457-6.867 1.809 3.793-2.266zm-15.575-2.312l4.094.61-6.714 1.492 2.62-2.102zm-18.587-2.759l14.936 2.215-2.465 1.984-12.471-4.199zm182.561-22.572l-41.622 20.92v-7.092l41.622-13.828zm12.541-3.268v8.621l-43.828 13.404 43.828-22.025zm-11.252-7.984l-42.91 21.381v-7.876l42.91-13.505zm11.252-2.58v6.812l-41.01 13.627 41.01-20.44zm-13.983-7.709l-40.18 20.023v-6.326l40.18-13.697zM67.523 125.13l-35.957 27.08-14.818-4.95 36.58-36.159-36.58-36.16 14.818-4.948 35.956 27.077 59.72-59.033 35.766 15.198v115.728L127.24 184.16l-59.719-59.03zm187.533 35.465v7.85l-42.736 13.45 42.736-21.3zm-10.684-9.384l-43.479 23.18v-8.358l43.48-14.822zm10.684-2.628v8.324l-43.304 14.763 43.304-23.087zm-12.126-7.575l-42.037 21.315v-7.352l42.037-13.963zm12.126-3.107v6.804l-40.966 13.97 40.966-20.774zm-13.087-7.903l-41.076 21.191v-6.827l41.076-14.364zm13.087-3.697v7.824l-42.648 14.172 42.648-21.996zM86.155 111.098l41.086 30.94v-61.88l-41.086 30.94zm158.501 5.486l-43.763 23.903v-8.606l43.763-15.297zm10.4-2.598v8.57l-43.588 15.239 43.588-23.809zm-12.279-8.247l-41.884 22.333v-7.321l41.884-15.012zm12.28-3.474v7.806l-42.54 14.881 42.54-22.687zm-13.81-7.597l-40.354 22.222v-6.528l40.355-15.694zm13.81-4.512v8.31l-43.196 15.483 43.195-23.793zm-10.204-8.803l-43.96 25.16v-8.83l43.96-16.33zm10.203-2.729v7.765l-42.299 16.457 42.3-24.222zm-14.223-5.962l-39.94 21.302v-6.29l39.94-15.012zm14.223-4.512v6.518l-40.31 14.975 40.31-21.493zm-14.988-6.41l-39.175 22.08v-5.989l39.175-16.091zm14.988-5.349v8.03l-42.758 16.076 42.758-24.106zm-15.796-5.045l-38.367 22.629v-5.698l38.367-16.93zm15.796-6.19v7.49l-41.774 17.167 41.774-24.656zm-14.267-5.189l-39.896 24.454v-6.448l39.896-18.006zm14.267-5.58v7.018L214.2 59.44l40.857-25.052zm-21.346-1.625l-32.817 21.224v-7.031l32.817-14.193zm13.393-5.427l7.844 3.264-42.736 19.297 34.892-22.561zm-22.482 1.005l-23.728 14.695v-5.12l23.728-9.575zm13.087-4.914l5.484 2.285-30.457 13.173 24.973-15.458zm-19.38-1.11l-17.435 11.387v-5.051l17.436-6.336zm9.527-2.989l5.833 2.427-25.017 10.103 19.184-12.53zm-15.994-2.803l-10.968 7.557v-4.505l10.968-3.052zm6.468-1.165l5.221 2.18-17.74 6.448 12.519-8.628zM208.3 11.197l5.047 2.1-11.318 3.153 6.271-5.253zm-5.331.924l-2.076 1.742v-1.084l2.076-.658zm-2.076-4.009l2.513 1.042-2.513.785V8.112z" fill-opacity=".302"/></svg>