<svg width="1" height="1" viewBox="0 0 1 1" fill="none" xmlns="http://www.w3.org/2000/svg">
<g clip-path="url(#clip0)">
<path d="M0.015346 0.632687C-0.00251116 0.648758 -0.00251116 0.67733 0.015346 0.693401L0.0707031 0.743401C0.0849888 0.757687 0.108203 0.757687 0.124275 0.745187L0.274275 0.636258L0.143917 0.521973L0.015346 0.632687Z" fill="black" fill-opacity="0.3"/>
<path d="M0.709821 0.927378V0.702378L0.447321 0.500592L0.709821 0.293449V0.0666633C0.709821 0.0398775 0.677679 0.0255918 0.658036 0.043449L0.291964 0.379163L0.122321 0.24702C0.10625 0.23452 0.0848214 0.236306 0.06875 0.248806L0.0133929 0.298806C-0.00446429 0.314878 -0.00446429 0.343449 0.0133929 0.35952L0.65625 0.948806C0.677679 0.970235 0.709821 0.955949 0.709821 0.927378Z" fill="black" fill-opacity="0.3"/>
<path d="M0.965262 0.105936L0.759905 0.00593578C0.736691 -0.00477851 0.708119 -0.00120708 0.688477 0.0184358C0.711691 -0.0047785 0.750977 0.0112929 0.750977 0.0452215V0.950579C0.750977 0.982722 0.711691 0.998793 0.688477 0.975579C0.706334 0.993436 0.734905 0.998793 0.759905 0.988079L0.965262 0.889864C0.986691 0.87915 1.00098 0.857721 1.00098 0.832721V0.161293C1.00098 0.138079 0.986691 0.11665 0.965262 0.105936Z" fill="black" fill-opacity="0.3"/>
</g>
<defs>
<clipPath id="clip0">
<rect width="1" height="1" fill="white"/>
</clipPath>
</defs>
</svg>
