<svg xmlns="http://www.w3.org/2000/svg" width="40" height="40" fill="none" viewBox="0 0 40 40">
    <g clip-path="url(#clip0)" opacity="0.1">
        <mask id="mask0" width="41" height="40" x="0" y="0" mask-type="alpha" maskUnits="userSpaceOnUse">
            <path fill="white" d="M27.5078 39.1672C28.2561 39.9155 29.3955 40.1094 30.3492 39.6507L38.5845 35.6905C39.4499 35.2743 40.0002 34.3991 40.0002 33.4388V6.58572C40.0002 5.62552 39.4499 4.75022 38.5845 4.33402L30.3492 0.373617C29.3955 -0.0849828 28.2561 0.108917 27.5078 0.857217C28.4298 -0.064783 30.0063 0.588217 30.0063 1.89212V38.1323C30.0063 39.4362 28.4298 40.0892 27.5078 39.1672Z"/>
            <path fill="white" d="M28.3404 28.2261L17.8641 20.0989L28.3404 11.7988V2.78045C28.3404 1.69505 27.0513 1.12615 26.2494 1.85735L11.6643 15.2895L4.87489 10.0225C4.23559 9.53745 3.34139 9.57735 2.74769 10.117L0.545288 12.1193C-0.181012 12.7798 -0.181812 13.9212 0.543188 14.5828L26.2468 38.1539C27.048 38.8886 28.3404 38.3203 28.3404 37.2332V28.2261Z"/>
            <path fill="white" d="M5.73339 20.968L0.543188 25.4419C-0.181812 26.1036 -0.181012 27.2454 0.545288 27.9054L2.74769 29.9078C3.34139 30.4474 4.23559 30.4873 4.87489 30.0021L10.8511 25.6339L5.73339 20.968Z"/>
        </mask>
        <g mask="url(#mask0)">
            <path fill="white" d="M5.73339 20.968L0.543188 25.442C-0.181812 26.1036 -0.181012 27.2455 0.545288 27.9055L2.74769 29.9078C3.34139 30.4475 4.23559 30.4873 4.87489 30.0022L10.8511 25.634L5.73339 20.968Z"/>
            <g filter="url(#filter0_d)">
                <path fill="white" d="M28.3404 28.2258L4.87489 10.0224C4.23559 9.53719 3.34139 9.57709 2.74769 10.1167L0.545288 12.1191C-0.181012 12.7795 -0.181812 13.9209 0.543188 14.5826L26.2456 38.1525C27.0472 38.8877 28.3404 38.319 28.3404 37.2313V28.2258Z"/>
                <path fill="white" fill-rule="evenodd" d="M28.3401 2.78039C28.3401 1.69509 27.051 1.12619 26.2491 1.85729L11.6641 15.2894L17.8639 20.0989L28.3401 11.7988V2.78039Z" clip-rule="evenodd"/>
            </g>
            <g filter="url(#filter1_d)">
                <path fill="white" d="M30.3492 39.6512C29.3955 40.1099 28.2561 39.916 27.5078 39.1677C28.4298 40.0896 30.0062 39.4367 30.0062 38.1328V1.8926C30.0062 0.588705 28.4298 -0.064294 27.5078 0.857706C28.2561 0.109406 29.3954 -0.0844948 30.3492 0.374105L38.5845 4.33451C39.4498 4.75071 40.0001 5.62591 40.0001 6.58621V33.4393C40.0001 34.3996 39.4498 35.2748 38.5845 35.691L30.3492 39.6512Z"/>
            </g>
        </g>
    </g>
    <defs>
        <filter id="filter0_d" width="35.0071" height="43.6216" x="-3.33334" y="-1.80453" color-interpolation-filters="sRGB" filterUnits="userSpaceOnUse">
            <feFlood flood-opacity="0" result="BackgroundImageFix"/>
            <feColorMatrix in="SourceAlpha" type="matrix" values="0 0 0 0 0 0 0 0 0 0 0 0 0 0 0 0 0 0 127 0"/>
            <feOffset/>
            <feGaussianBlur stdDeviation="1.66667"/>
            <feColorMatrix type="matrix" values="0 0 0 0 0 0 0 0 0 0 0 0 0 0 0 0 0 0 0.15 0"/>
            <feBlend in2="BackgroundImageFix" mode="normal" result="effect1_dropShadow"/>
            <feBlend in="SourceGraphic" in2="effect1_dropShadow" mode="normal" result="shape"/>
        </filter>
        <filter id="filter1_d" width="19.159" height="46.4362" x="24.1745" y="-3.20541" color-interpolation-filters="sRGB" filterUnits="userSpaceOnUse">
            <feFlood flood-opacity="0" result="BackgroundImageFix"/>
            <feColorMatrix in="SourceAlpha" type="matrix" values="0 0 0 0 0 0 0 0 0 0 0 0 0 0 0 0 0 0 127 0"/>
            <feOffset/>
            <feGaussianBlur stdDeviation="1.66667"/>
            <feColorMatrix type="matrix" values="0 0 0 0 0 0 0 0 0 0 0 0 0 0 0 0 0 0 0.25 0"/>
            <feBlend in2="BackgroundImageFix" mode="overlay" result="effect1_dropShadow"/>
            <feBlend in="SourceGraphic" in2="effect1_dropShadow" mode="normal" result="shape"/>
        </filter>
        <clipPath id="clip0">
            <rect width="40" height="40" fill="white"/>
        </clipPath>
    </defs>
</svg>