<?xml version="1.0" encoding="iso-8859-1"?>
<!-- Generator: Adobe Illustrator 19.0.0, SVG Export Plug-In . SVG Version: 6.00 Build 0)  -->
<svg version="1.1" id="Capa_1" xmlns="http://www.w3.org/2000/svg" xmlns:xlink="http://www.w3.org/1999/xlink" x="0px" y="0px"
	 viewBox="0 0 512 512" style="enable-background:new 0 0 512 512;" xml:space="preserve">
<path style="fill:#FFA000;" d="M437.333,53.334H74.667c-29.384-0.048-53.244,23.734-53.292,53.119
	c-0.004,2.391,0.153,4.779,0.471,7.148c0.756,5.842,6.105,9.965,11.948,9.209c1.423-0.184,2.794-0.653,4.031-1.38
	c4.706-2.738,10.065-4.153,15.509-4.096h75.947c13.706,0.038,25.883,8.755,30.336,21.717l1.813,5.845
	c7.34,21.727,27.691,36.375,50.624,36.437h246.613c5.594,0.005,11.088,1.476,15.936,4.267c1.638,0.955,3.501,1.455,5.397,1.451
	c5.891,0,10.667-4.776,10.667-10.667v-69.717C490.667,77.212,466.789,53.334,437.333,53.334z"/>
<path style="fill:#FFC107;" d="M485.397,167.211c-8.114-4.729-17.339-7.217-26.731-7.211H212.053
	c-13.706-0.038-25.883-8.755-30.336-21.717l-1.813-5.845c-7.34-21.727-27.691-36.375-50.624-36.437H53.333
	c-9.165-0.089-18.184,2.291-26.112,6.891C10.408,112.301-0.005,130.066,0,149.334v256c0,29.455,23.878,53.333,53.333,53.333h405.333
	c29.455,0,53.333-23.878,53.333-53.333v-192C512.065,194.296,501.909,176.688,485.397,167.211z"/>
<g>
</g>
<g>
</g>
<g>
</g>
<g>
</g>
<g>
</g>
<g>
</g>
<g>
</g>
<g>
</g>
<g>
</g>
<g>
</g>
<g>
</g>
<g>
</g>
<g>
</g>
<g>
</g>
<g>
</g>
</svg>
