<svg fill="none" height="28" viewBox="0 0 28 28" width="28" xmlns="http://www.w3.org/2000/svg"><path clip-rule="evenodd" d="m20 0c-2.22 0-4 1.78-4 4 0 1.46.82 2.76 2 3.44v2.56l-4 4-4-4v-2.56c1.18-.68 2-1.96 2-3.44 0-2.22-1.78-4-4-4s-4 1.78-4 4c0 1.46.82 2.76 2 3.44v3.56l6 6v3.56c-1.18.68-2 1.96-2 3.44 0 2.22 1.78 4 4 4s4-1.78 4-4c0-1.46-.82-2.76-2-3.44v-3.56l6-6v-3.56c1.18-.68 2-1.96 2-3.44 0-2.22-1.78-4-4-4zm-12 6.4c-1.32 0-2.4-1.1-2.4-2.4s1.1-2.4 2.4-2.4 2.4 1.1 2.4 2.4-1.1 2.4-2.4 2.4zm6 20c-1.32 0-2.4-1.1-2.4-2.4s1.1-2.4 2.4-2.4 2.4 1.1 2.4 2.4-1.1 2.4-2.4 2.4zm6-20c-1.32 0-2.4-1.1-2.4-2.4s1.1-2.4 2.4-2.4 2.4 1.1 2.4 2.4-1.1 2.4-2.4 2.4z" fill="#fff" fill-rule="evenodd"/></svg>