<svg width="24" height="24" viewBox="0 0 24 24" fill="none" xmlns="http://www.w3.org/2000/svg">
<g clip-path="url(#clip0)">
<path d="M21 8.25C21.0035 7.55379 20.8131 6.87035 20.4502 6.27622C20.0872 5.68209 19.566 5.20073 18.945 4.88605C18.3239 4.57137 17.6275 4.4358 16.9338 4.49451C16.24 4.55323 15.5764 4.80392 15.017 5.2185C14.4577 5.63308 14.0248 6.19518 13.7669 6.84186C13.509 7.48854 13.4361 8.19426 13.5566 8.87998C13.6771 9.5657 13.986 10.2044 14.4489 10.7244C14.9118 11.2445 15.5104 11.6254 16.1775 11.8245C15.9312 12.3251 15.5501 12.7472 15.0771 13.0431C14.6041 13.3391 14.058 13.4973 13.5 13.5H10.5C9.3894 13.5039 8.32 13.921 7.5 14.67V7.4235C8.41053 7.23764 9.21962 6.72031 9.7704 5.97181C10.3212 5.22331 10.5744 4.29696 10.481 3.37236C10.3876 2.44776 9.95422 1.59077 9.26486 0.96755C8.57551 0.344328 7.67931 -0.000732422 6.75 -0.000732422C5.82069 -0.000732422 4.92449 0.344328 4.23513 0.96755C3.54578 1.59077 3.11239 2.44776 3.01899 3.37236C2.92558 4.29696 3.17882 5.22331 3.7296 5.97181C4.28038 6.72031 5.08947 7.23764 6 7.4235V16.5735C5.09118 16.7473 4.27737 17.2477 3.71208 17.9802C3.14679 18.7128 2.8691 19.6269 2.93137 20.5501C2.99365 21.4733 3.39159 22.3418 4.05014 22.9917C4.70869 23.6417 5.58233 24.0283 6.50626 24.0785C7.4302 24.1287 8.34056 23.839 9.06564 23.2642C9.79073 22.6894 10.2804 21.8691 10.4423 20.9581C10.6042 20.047 10.4272 19.1083 9.94457 18.3188C9.46196 17.5293 8.70715 16.9437 7.8225 16.6725C8.06925 16.1724 8.4505 15.751 8.92346 15.4556C9.39642 15.1601 9.94236 15.0024 10.5 15H13.5C14.436 14.9957 15.3473 14.6996 16.1071 14.153C16.8669 13.6064 17.4373 12.8365 17.739 11.9505C18.6381 11.8323 19.4639 11.3922 20.0635 10.7118C20.6631 10.0314 20.9958 9.15685 21 8.25ZM4.5 3.75C4.5 3.30499 4.63196 2.86998 4.87919 2.49997C5.12643 2.12996 5.47783 1.84157 5.88896 1.67127C6.3001 1.50098 6.7525 1.45642 7.18895 1.54324C7.62541 1.63005 8.02632 1.84434 8.34099 2.15901C8.65566 2.47368 8.86995 2.87459 8.95677 3.31105C9.04358 3.74751 8.99903 4.19991 8.82873 4.61104C8.65843 5.02217 8.37004 5.37358 8.00003 5.62081C7.63002 5.86804 7.19501 6 6.75 6C6.15326 6 5.58097 5.76295 5.15901 5.34099C4.73705 4.91904 4.5 4.34674 4.5 3.75ZM9 20.25C9 20.695 8.86804 21.13 8.62081 21.5C8.37357 21.87 8.02217 22.1584 7.61104 22.3287C7.1999 22.499 6.7475 22.5436 6.31105 22.4568C5.87459 22.37 5.47368 22.1557 5.15901 21.841C4.84434 21.5263 4.63005 21.1254 4.54323 20.689C4.45642 20.2525 4.50097 19.8001 4.67127 19.389C4.84157 18.9778 5.12996 18.6264 5.49997 18.3792C5.86998 18.132 6.30499 18 6.75 18C7.34674 18 7.91903 18.2371 8.34099 18.659C8.76295 19.081 9 19.6533 9 20.25ZM17.25 10.5C16.805 10.5 16.37 10.368 16 10.1208C15.63 9.87358 15.3416 9.52217 15.1713 9.11104C15.001 8.69991 14.9564 8.24751 15.0432 7.81105C15.13 7.37459 15.3443 6.97368 15.659 6.65901C15.9737 6.34434 16.3746 6.13005 16.811 6.04323C17.2475 5.95642 17.6999 6.00098 18.111 6.17127C18.5222 6.34157 18.8736 6.62996 19.1208 6.99997C19.368 7.36998 19.5 7.80499 19.5 8.25C19.5 8.84674 19.2629 9.41904 18.841 9.84099C18.419 10.2629 17.8467 10.5 17.25 10.5Z" fill="white"/>
</g>
<defs>
<clipPath id="clip0">
<rect width="24" height="24" fill="white"/>
</clipPath>
</defs>
</svg>
