<svg width="24" height="24" viewBox="0 0 24 24" fill="none" xmlns="http://www.w3.org/2000/svg">
<path fill-rule="evenodd" clip-rule="evenodd" d="M7.75 6C8.99264 6 10 4.99264 10 3.75C10 2.50736 8.99264 1.5 7.75 1.5C6.50736 1.5 5.5 2.50736 5.5 3.75C5.5 4.99264 6.50736 6 7.75 6ZM7.75 7.5C9.82107 7.5 11.5 5.82107 11.5 3.75C11.5 1.67893 9.82107 0 7.75 0C5.67893 0 4 1.67893 4 3.75C4 5.82107 5.67893 7.5 7.75 7.5Z" fill="white"/>
<path fill-rule="evenodd" clip-rule="evenodd" d="M7.75 6C8.99264 6 10 4.99264 10 3.75C10 2.50736 8.99264 1.5 7.75 1.5C6.50736 1.5 5.5 2.50736 5.5 3.75C5.5 4.99264 6.50736 6 7.75 6ZM7.75 7.5C9.82107 7.5 11.5 5.82107 11.5 3.75C11.5 1.67893 9.82107 0 7.75 0C5.67893 0 4 1.67893 4 3.75C4 5.82107 5.67893 7.5 7.75 7.5Z" fill="white"/>
<path fill-rule="evenodd" clip-rule="evenodd" d="M7.75 6C8.99264 6 10 4.99264 10 3.75C10 2.50736 8.99264 1.5 7.75 1.5C6.50736 1.5 5.5 2.50736 5.5 3.75C5.5 4.99264 6.50736 6 7.75 6ZM7.75 7.5C9.82107 7.5 11.5 5.82107 11.5 3.75C11.5 1.67893 9.82107 0 7.75 0C5.67893 0 4 1.67893 4 3.75C4 5.82107 5.67893 7.5 7.75 7.5Z" fill="white"/>
<path fill-rule="evenodd" clip-rule="evenodd" d="M7.75 6C8.99264 6 10 4.99264 10 3.75C10 2.50736 8.99264 1.5 7.75 1.5C6.50736 1.5 5.5 2.50736 5.5 3.75C5.5 4.99264 6.50736 6 7.75 6ZM7.75 7.5C9.82107 7.5 11.5 5.82107 11.5 3.75C11.5 1.67893 9.82107 0 7.75 0C5.67893 0 4 1.67893 4 3.75C4 5.82107 5.67893 7.5 7.75 7.5Z" fill="white"/>
<path fill-rule="evenodd" clip-rule="evenodd" d="M7.75 6C8.99264 6 10 4.99264 10 3.75C10 2.50736 8.99264 1.5 7.75 1.5C6.50736 1.5 5.5 2.50736 5.5 3.75C5.5 4.99264 6.50736 6 7.75 6ZM7.75 7.5C9.82107 7.5 11.5 5.82107 11.5 3.75C11.5 1.67893 9.82107 0 7.75 0C5.67893 0 4 1.67893 4 3.75C4 5.82107 5.67893 7.5 7.75 7.5Z" fill="white"/>
<path fill-rule="evenodd" clip-rule="evenodd" d="M18.25 10.25C19.4926 10.25 20.5 9.24264 20.5 8C20.5 6.75736 19.4926 5.75 18.25 5.75C17.0074 5.75 16 6.75736 16 8C16 9.24264 17.0074 10.25 18.25 10.25ZM18.25 11.75C20.3211 11.75 22 10.0711 22 8C22 5.92893 20.3211 4.25 18.25 4.25C16.1789 4.25 14.5 5.92893 14.5 8C14.5 10.0711 16.1789 11.75 18.25 11.75Z" fill="white"/>
<path fill-rule="evenodd" clip-rule="evenodd" d="M18.25 10.25C19.4926 10.25 20.5 9.24264 20.5 8C20.5 6.75736 19.4926 5.75 18.25 5.75C17.0074 5.75 16 6.75736 16 8C16 9.24264 17.0074 10.25 18.25 10.25ZM18.25 11.75C20.3211 11.75 22 10.0711 22 8C22 5.92893 20.3211 4.25 18.25 4.25C16.1789 4.25 14.5 5.92893 14.5 8C14.5 10.0711 16.1789 11.75 18.25 11.75Z" fill="white"/>
<path fill-rule="evenodd" clip-rule="evenodd" d="M18.25 10.25C19.4926 10.25 20.5 9.24264 20.5 8C20.5 6.75736 19.4926 5.75 18.25 5.75C17.0074 5.75 16 6.75736 16 8C16 9.24264 17.0074 10.25 18.25 10.25ZM18.25 11.75C20.3211 11.75 22 10.0711 22 8C22 5.92893 20.3211 4.25 18.25 4.25C16.1789 4.25 14.5 5.92893 14.5 8C14.5 10.0711 16.1789 11.75 18.25 11.75Z" fill="white"/>
<path fill-rule="evenodd" clip-rule="evenodd" d="M18.25 10.25C19.4926 10.25 20.5 9.24264 20.5 8C20.5 6.75736 19.4926 5.75 18.25 5.75C17.0074 5.75 16 6.75736 16 8C16 9.24264 17.0074 10.25 18.25 10.25ZM18.25 11.75C20.3211 11.75 22 10.0711 22 8C22 5.92893 20.3211 4.25 18.25 4.25C16.1789 4.25 14.5 5.92893 14.5 8C14.5 10.0711 16.1789 11.75 18.25 11.75Z" fill="white"/>
<path fill-rule="evenodd" clip-rule="evenodd" d="M18.25 10.25C19.4926 10.25 20.5 9.24264 20.5 8C20.5 6.75736 19.4926 5.75 18.25 5.75C17.0074 5.75 16 6.75736 16 8C16 9.24264 17.0074 10.25 18.25 10.25ZM18.25 11.75C20.3211 11.75 22 10.0711 22 8C22 5.92893 20.3211 4.25 18.25 4.25C16.1789 4.25 14.5 5.92893 14.5 8C14.5 10.0711 16.1789 11.75 18.25 11.75Z" fill="white"/>
<path fill-rule="evenodd" clip-rule="evenodd" d="M7.75 22.5C8.99264 22.5 10 21.4926 10 20.25C10 19.0074 8.99264 18 7.75 18C6.50736 18 5.5 19.0074 5.5 20.25C5.5 21.4926 6.50736 22.5 7.75 22.5ZM7.75 24C9.82107 24 11.5 22.3211 11.5 20.25C11.5 18.1789 9.82107 16.5 7.75 16.5C5.67893 16.5 4 18.1789 4 20.25C4 22.3211 5.67893 24 7.75 24Z" fill="white"/>
<path fill-rule="evenodd" clip-rule="evenodd" d="M7.75 22.5C8.99264 22.5 10 21.4926 10 20.25C10 19.0074 8.99264 18 7.75 18C6.50736 18 5.5 19.0074 5.5 20.25C5.5 21.4926 6.50736 22.5 7.75 22.5ZM7.75 24C9.82107 24 11.5 22.3211 11.5 20.25C11.5 18.1789 9.82107 16.5 7.75 16.5C5.67893 16.5 4 18.1789 4 20.25C4 22.3211 5.67893 24 7.75 24Z" fill="white"/>
<path fill-rule="evenodd" clip-rule="evenodd" d="M7.75 22.5C8.99264 22.5 10 21.4926 10 20.25C10 19.0074 8.99264 18 7.75 18C6.50736 18 5.5 19.0074 5.5 20.25C5.5 21.4926 6.50736 22.5 7.75 22.5ZM7.75 24C9.82107 24 11.5 22.3211 11.5 20.25C11.5 18.1789 9.82107 16.5 7.75 16.5C5.67893 16.5 4 18.1789 4 20.25C4 22.3211 5.67893 24 7.75 24Z" fill="white"/>
<path fill-rule="evenodd" clip-rule="evenodd" d="M7.75 22.5C8.99264 22.5 10 21.4926 10 20.25C10 19.0074 8.99264 18 7.75 18C6.50736 18 5.5 19.0074 5.5 20.25C5.5 21.4926 6.50736 22.5 7.75 22.5ZM7.75 24C9.82107 24 11.5 22.3211 11.5 20.25C11.5 18.1789 9.82107 16.5 7.75 16.5C5.67893 16.5 4 18.1789 4 20.25C4 22.3211 5.67893 24 7.75 24Z" fill="white"/>
<path fill-rule="evenodd" clip-rule="evenodd" d="M7.75 22.5C8.99264 22.5 10 21.4926 10 20.25C10 19.0074 8.99264 18 7.75 18C6.50736 18 5.5 19.0074 5.5 20.25C5.5 21.4926 6.50736 22.5 7.75 22.5ZM7.75 24C9.82107 24 11.5 22.3211 11.5 20.25C11.5 18.1789 9.82107 16.5 7.75 16.5C5.67893 16.5 4 18.1789 4 20.25C4 22.3211 5.67893 24 7.75 24Z" fill="white"/>
<path d="M8.5 16.5H7L7 6H8.5V13.4651C9.25 12.7089 10.1294 12.7351 10.9899 12.7312L16.1604 12.7076C16.3443 12.6966 17.4286 12.5961 17.4286 11.6611L17.5 10.5H19V11.6312C18.9982 11.9909 18.9228 12.3465 18.7785 12.676C18.6342 13.0055 18.4239 13.2381 18.1607 13.4833C17.8975 13.7285 17.587 13.9173 17.2481 14.038C16.9092 14.1588 16.5492 14.2089 16.1903 14.1853L11.0197 14.2089C10.6891 14.1785 10.3559 14.2216 10.0439 14.3351C9.73192 14.4485 9.44885 14.6295 9.21493 14.8651C8.98101 15.1006 8.7306 15.385 8.61936 15.6978C8.50812 16.0106 8.46736 16.0235 8.5 16.3539V16.5Z" fill="white"/>
</svg>
