<svg width="24" height="24" viewBox="0 0 24 24" fill="none" xmlns="http://www.w3.org/2000/svg">
<path fill-rule="evenodd" clip-rule="evenodd" d="M7.75 6C8.99264 6 10 4.99264 10 3.75C10 2.50736 8.99264 1.5 7.75 1.5C6.50736 1.5 5.5 2.50736 5.5 3.75C5.5 4.99264 6.50736 6 7.75 6ZM7.75 7.5C9.82107 7.5 11.5 5.82107 11.5 3.75C11.5 1.67893 9.82107 0 7.75 0C5.67893 0 4 1.67893 4 3.75C4 5.82107 5.67893 7.5 7.75 7.5Z" fill="white"/>
<path fill-rule="evenodd" clip-rule="evenodd" d="M7.75 6C8.99264 6 10 4.99264 10 3.75C10 2.50736 8.99264 1.5 7.75 1.5C6.50736 1.5 5.5 2.50736 5.5 3.75C5.5 4.99264 6.50736 6 7.75 6ZM7.75 7.5C9.82107 7.5 11.5 5.82107 11.5 3.75C11.5 1.67893 9.82107 0 7.75 0C5.67893 0 4 1.67893 4 3.75C4 5.82107 5.67893 7.5 7.75 7.5Z" fill="white"/>
<path fill-rule="evenodd" clip-rule="evenodd" d="M7.75 6C8.99264 6 10 4.99264 10 3.75C10 2.50736 8.99264 1.5 7.75 1.5C6.50736 1.5 5.5 2.50736 5.5 3.75C5.5 4.99264 6.50736 6 7.75 6ZM7.75 7.5C9.82107 7.5 11.5 5.82107 11.5 3.75C11.5 1.67893 9.82107 0 7.75 0C5.67893 0 4 1.67893 4 3.75C4 5.82107 5.67893 7.5 7.75 7.5Z" fill="white"/>
<path fill-rule="evenodd" clip-rule="evenodd" d="M7.75 6C8.99264 6 10 4.99264 10 3.75C10 2.50736 8.99264 1.5 7.75 1.5C6.50736 1.5 5.5 2.50736 5.5 3.75C5.5 4.99264 6.50736 6 7.75 6ZM7.75 7.5C9.82107 7.5 11.5 5.82107 11.5 3.75C11.5 1.67893 9.82107 0 7.75 0C5.67893 0 4 1.67893 4 3.75C4 5.82107 5.67893 7.5 7.75 7.5Z" fill="white"/>
<path fill-rule="evenodd" clip-rule="evenodd" d="M7.75 6C8.99264 6 10 4.99264 10 3.75C10 2.50736 8.99264 1.5 7.75 1.5C6.50736 1.5 5.5 2.50736 5.5 3.75C5.5 4.99264 6.50736 6 7.75 6ZM7.75 7.5C9.82107 7.5 11.5 5.82107 11.5 3.75C11.5 1.67893 9.82107 0 7.75 0C5.67893 0 4 1.67893 4 3.75C4 5.82107 5.67893 7.5 7.75 7.5Z" fill="white"/>
<path fill-rule="evenodd" clip-rule="evenodd" d="M16.75 10.5C17.9926 10.5 19 9.49264 19 8.25C19 7.00736 17.9926 6 16.75 6C15.5074 6 14.5 7.00736 14.5 8.25C14.5 9.49264 15.5074 10.5 16.75 10.5ZM16.75 12C18.8211 12 20.5 10.3211 20.5 8.25C20.5 6.17893 18.8211 4.5 16.75 4.5C14.6789 4.5 13 6.17893 13 8.25C13 10.3211 14.6789 12 16.75 12Z" fill="white"/>
<path fill-rule="evenodd" clip-rule="evenodd" d="M16.75 10.5C17.9926 10.5 19 9.49264 19 8.25C19 7.00736 17.9926 6 16.75 6C15.5074 6 14.5 7.00736 14.5 8.25C14.5 9.49264 15.5074 10.5 16.75 10.5ZM16.75 12C18.8211 12 20.5 10.3211 20.5 8.25C20.5 6.17893 18.8211 4.5 16.75 4.5C14.6789 4.5 13 6.17893 13 8.25C13 10.3211 14.6789 12 16.75 12Z" fill="white"/>
<path fill-rule="evenodd" clip-rule="evenodd" d="M16.75 10.5C17.9926 10.5 19 9.49264 19 8.25C19 7.00736 17.9926 6 16.75 6C15.5074 6 14.5 7.00736 14.5 8.25C14.5 9.49264 15.5074 10.5 16.75 10.5ZM16.75 12C18.8211 12 20.5 10.3211 20.5 8.25C20.5 6.17893 18.8211 4.5 16.75 4.5C14.6789 4.5 13 6.17893 13 8.25C13 10.3211 14.6789 12 16.75 12Z" fill="white"/>
<path fill-rule="evenodd" clip-rule="evenodd" d="M16.75 10.5C17.9926 10.5 19 9.49264 19 8.25C19 7.00736 17.9926 6 16.75 6C15.5074 6 14.5 7.00736 14.5 8.25C14.5 9.49264 15.5074 10.5 16.75 10.5ZM16.75 12C18.8211 12 20.5 10.3211 20.5 8.25C20.5 6.17893 18.8211 4.5 16.75 4.5C14.6789 4.5 13 6.17893 13 8.25C13 10.3211 14.6789 12 16.75 12Z" fill="white"/>
<path fill-rule="evenodd" clip-rule="evenodd" d="M16.75 10.5C17.9926 10.5 19 9.49264 19 8.25C19 7.00736 17.9926 6 16.75 6C15.5074 6 14.5 7.00736 14.5 8.25C14.5 9.49264 15.5074 10.5 16.75 10.5ZM16.75 12C18.8211 12 20.5 10.3211 20.5 8.25C20.5 6.17893 18.8211 4.5 16.75 4.5C14.6789 4.5 13 6.17893 13 8.25C13 10.3211 14.6789 12 16.75 12Z" fill="white"/>
<path fill-rule="evenodd" clip-rule="evenodd" d="M7.75 22.5C8.99264 22.5 10 21.4926 10 20.25C10 19.0074 8.99264 18 7.75 18C6.50736 18 5.5 19.0074 5.5 20.25C5.5 21.4926 6.50736 22.5 7.75 22.5ZM7.75 24C9.82107 24 11.5 22.3211 11.5 20.25C11.5 18.1789 9.82107 16.5 7.75 16.5C5.67893 16.5 4 18.1789 4 20.25C4 22.3211 5.67893 24 7.75 24Z" fill="white"/>
<path fill-rule="evenodd" clip-rule="evenodd" d="M7.75 22.5C8.99264 22.5 10 21.4926 10 20.25C10 19.0074 8.99264 18 7.75 18C6.50736 18 5.5 19.0074 5.5 20.25C5.5 21.4926 6.50736 22.5 7.75 22.5ZM7.75 24C9.82107 24 11.5 22.3211 11.5 20.25C11.5 18.1789 9.82107 16.5 7.75 16.5C5.67893 16.5 4 18.1789 4 20.25C4 22.3211 5.67893 24 7.75 24Z" fill="white"/>
<path fill-rule="evenodd" clip-rule="evenodd" d="M7.75 22.5C8.99264 22.5 10 21.4926 10 20.25C10 19.0074 8.99264 18 7.75 18C6.50736 18 5.5 19.0074 5.5 20.25C5.5 21.4926 6.50736 22.5 7.75 22.5ZM7.75 24C9.82107 24 11.5 22.3211 11.5 20.25C11.5 18.1789 9.82107 16.5 7.75 16.5C5.67893 16.5 4 18.1789 4 20.25C4 22.3211 5.67893 24 7.75 24Z" fill="white"/>
<path fill-rule="evenodd" clip-rule="evenodd" d="M7.75 22.5C8.99264 22.5 10 21.4926 10 20.25C10 19.0074 8.99264 18 7.75 18C6.50736 18 5.5 19.0074 5.5 20.25C5.5 21.4926 6.50736 22.5 7.75 22.5ZM7.75 24C9.82107 24 11.5 22.3211 11.5 20.25C11.5 18.1789 9.82107 16.5 7.75 16.5C5.67893 16.5 4 18.1789 4 20.25C4 22.3211 5.67893 24 7.75 24Z" fill="white"/>
<path fill-rule="evenodd" clip-rule="evenodd" d="M7.75 22.5C8.99264 22.5 10 21.4926 10 20.25C10 19.0074 8.99264 18 7.75 18C6.50736 18 5.5 19.0074 5.5 20.25C5.5 21.4926 6.50736 22.5 7.75 22.5ZM7.75 24C9.82107 24 11.5 22.3211 11.5 20.25C11.5 18.1789 9.82107 16.5 7.75 16.5C5.67893 16.5 4 18.1789 4 20.25C4 22.3211 5.67893 24 7.75 24Z" fill="white"/>
<path d="M8.5 16.5H7L7 6H8.5V13.4651C9.25 12.7089 10.1294 12.7351 10.9899 12.7312L14.6604 12.7076C14.8443 12.6966 15.9286 12.5961 15.9286 11.6611L16 10.5H17.5V11.6312C17.4982 11.9909 17.4228 12.3465 17.2785 12.676C17.1342 13.0055 16.9239 13.2381 16.6607 13.4833C16.3975 13.7285 16.087 13.9173 15.7481 14.038C15.4092 14.1588 15.0492 14.2089 14.6903 14.1853L11.0197 14.2089C10.6891 14.1785 10.3559 14.2216 10.0439 14.3351C9.73192 14.4485 9.44885 14.6295 9.21493 14.8651C8.98101 15.1006 8.7306 15.385 8.61936 15.6978C8.50812 16.0106 8.46736 16.0235 8.5 16.3539V16.5Z" fill="white"/>
</svg>
