<svg width="24" height="24" viewBox="0 0 24 24" fill="none" xmlns="http://www.w3.org/2000/svg">
<path d="M7.25271 7.07143C6.55341 7.07143 5.86982 6.86406 5.28837 6.47555C4.70693 6.08704 4.25375 5.53484 3.98614 4.88877C3.71853 4.24271 3.64851 3.53179 3.78493 2.84593C3.92136 2.16007 4.25811 1.53007 4.75258 1.03559C5.24706 0.54111 5.87707 0.204366 6.56293 0.0679393C7.24879 -0.068487 7.9597 0.00153195 8.60577 0.269142C9.25184 0.536752 9.80404 0.989933 10.1926 1.57138C10.5811 2.15282 10.7884 2.83642 10.7884 3.53572C10.7876 4.47319 10.4148 5.37203 9.75192 6.03492C9.08903 6.69782 8.19019 7.0706 7.25271 7.07143V7.07143ZM7.25271 1.60443C6.86421 1.60443 6.48444 1.71963 6.16141 1.93547C5.83839 2.15131 5.58662 2.45809 5.43795 2.81702C5.28928 3.17594 5.25038 3.57089 5.32617 3.95193C5.40196 4.33296 5.58904 4.68296 5.86375 4.95767C6.13846 5.23239 6.48846 5.41947 6.8695 5.49526C7.25053 5.57105 7.64548 5.53215 8.00441 5.38348C8.36334 5.23481 8.67012 4.98304 8.88596 4.66001C9.10179 4.33699 9.217 3.95721 9.217 3.56872C9.21658 3.04788 9.0095 2.5485 8.64121 2.18022C8.27293 1.81193 7.77354 1.60485 7.25271 1.60443V1.60443Z" fill="white"/>
<path d="M7.98029 17.2077H6.40886V6.66657H7.98029V13.7883C8.69775 13.3134 9.5383 13.0583 10.3987 13.0544H15.4791C15.663 13.0434 16.7473 12.9429 16.7473 12.0079H18.3187C18.3169 12.3676 18.2415 12.7231 18.0972 13.0526C17.9529 13.3821 17.7426 13.6786 17.4795 13.9239C17.2163 14.1691 16.9057 14.3579 16.5668 14.4786C16.2279 14.5993 15.868 14.6494 15.509 14.6259H10.4286C10.098 14.5955 9.76477 14.6386 9.45278 14.7521C9.14078 14.8655 8.8577 15.0465 8.62379 15.2821C8.38987 15.5176 8.21089 15.802 8.09965 16.1148C7.9884 16.4276 7.94765 16.7611 7.98029 17.0914V17.2077Z" fill="white"/>
<path d="M17.5 12.0714C16.8007 12.0714 16.1171 11.8641 15.5357 11.4756C14.9542 11.087 14.501 10.5348 14.2334 9.88877C13.9658 9.24271 13.8958 8.53179 14.0322 7.84593C14.1686 7.16007 14.5054 6.53007 14.9999 6.03559C15.4943 5.54111 16.1243 5.20437 16.8102 5.06794C17.4961 4.93151 18.207 5.00153 18.8531 5.26914C19.4991 5.53675 20.0513 5.98993 20.4398 6.57138C20.8283 7.15282 21.0357 7.83642 21.0357 8.53572C21.0349 9.47319 20.6621 10.372 19.9992 11.0349C19.3363 11.6978 18.4375 12.0706 17.5 12.0714V12.0714ZM17.5 6.57143C17.1115 6.57143 16.7317 6.68663 16.4087 6.90247C16.0857 7.11831 15.8339 7.42509 15.6852 7.78402C15.5366 8.14294 15.4977 8.53789 15.5735 8.91893C15.6492 9.29996 15.8363 9.64996 16.111 9.92468C16.3857 10.1994 16.7357 10.3865 17.1168 10.4623C17.4978 10.5381 17.8928 10.4992 18.2517 10.3505C18.6106 10.2018 18.9174 9.95004 19.1332 9.62701C19.3491 9.30399 19.4643 8.92421 19.4643 8.53572C19.4639 8.01488 19.2568 7.5155 18.8885 7.14722C18.5202 6.77893 18.0208 6.57185 17.5 6.57143V6.57143Z" fill="white"/>
<path d="M7.25271 23.8023C6.55341 23.8023 5.86982 23.5949 5.28837 23.2064C4.70693 22.8179 4.25375 22.2657 3.98614 21.6196C3.71853 20.9736 3.64851 20.2626 3.78493 19.5768C3.92136 18.8909 4.25811 18.2609 4.75258 17.7664C5.24706 17.272 5.87707 16.9352 6.56293 16.7988C7.24879 16.6624 7.9597 16.7324 8.60577 17C9.25184 17.2676 9.80404 17.7208 10.1926 18.3022C10.5811 18.8837 10.7884 19.5673 10.7884 20.2666C10.7872 21.2039 10.4143 22.1025 9.75146 22.7653C9.08866 23.4281 8.19006 23.801 7.25271 23.8023ZM7.25271 18.3023C6.86421 18.3023 6.48444 18.4175 6.16141 18.6333C5.83839 18.8492 5.58662 19.1559 5.43795 19.5149C5.28928 19.8738 5.25038 20.2687 5.32617 20.6498C5.40196 21.0308 5.58904 21.3808 5.86375 21.6555C6.13846 21.9302 6.48846 22.1173 6.8695 22.1931C7.25053 22.2689 7.64548 22.23 8.00441 22.0813C8.36334 21.9327 8.67012 21.6809 8.88596 21.3579C9.10179 21.0348 9.217 20.6551 9.217 20.2666C9.21658 19.7457 9.0095 19.2464 8.64121 18.8781C8.27293 18.5098 7.77354 18.3027 7.25271 18.3023Z" fill="white"/>
</svg>
