<svg width="24" height="24" viewBox="0 0 24 24" fill="none" xmlns="http://www.w3.org/2000/svg">
<g clip-path="url(#clip0)">
<path d="M18.1918 7.71557C18.7951 9.10406 19.1012 11.0083 19.0903 12.5222C19.0903 17.4251 16.0477 21.1328 12.3531 21.1328C8.73793 21.1328 5.60934 17.4251 5.60934 12.5222C5.60048 11.0079 5.90876 9.10358 6.51434 7.71557H18.1918ZM19.1827 6.12899L5.52987 6.1083C4.51796 7.9456 3.99417 10.4166 4.00856 12.5141C4.00856 18.2847 7.75021 22.732 12.3547 22.732C16.9592 22.732 20.6911 18.2847 20.6911 12.5141C20.706 10.4167 20.1827 7.94576 19.1714 6.1083L19.1827 6.12899Z" fill="white"/>
<path d="M9.16611 7.06165C9.16611 6.88325 9.16611 6.09826 9.16611 5.99447V5.69442C9.16611 4.84165 9.50487 4.02382 10.1079 3.42082C10.7109 2.81783 11.5287 2.47907 12.3815 2.47907C13.2342 2.47907 14.0521 2.81783 14.6551 3.42082C15.2581 4.02382 15.5968 4.84165 15.5968 5.69442V5.99447C15.5968 6.09826 15.5968 7.02111 15.5968 7.19951H17.2187C17.2187 6.90271 17.2187 5.86634 17.2187 5.69442C17.2304 5.05388 17.1144 4.41741 16.8774 3.82221C16.6404 3.22701 16.2872 2.68501 15.8383 2.22786C15.3895 1.77072 14.8541 1.4076 14.2633 1.15972C13.6726 0.911846 13.0383 0.784178 12.3977 0.784178C11.757 0.784178 11.1228 0.911846 10.532 1.15972C9.94129 1.4076 9.40586 1.77072 8.95702 2.22786C8.50818 2.68501 8.15495 3.22701 7.91795 3.82221C7.68094 4.41741 7.56493 5.05388 7.57668 5.69442C7.57668 5.86634 7.57668 6.76485 7.57668 7.06165H9.16611Z" fill="white"/>
<path d="M7.04471 6.72724L4.0963 3.77884L2.961 4.91414L6.13322 8.08961C6.3949 7.60866 6.7 7.15264 7.04471 6.72724Z" fill="white"/>
<path d="M18.4643 8.11234L21.642 4.93466L20.5066 3.79935L17.556 6.74835C17.8987 7.17511 18.2027 7.63158 18.4643 8.11234Z" fill="white"/>
<path d="M4.86329 13.2196C4.86329 12.9293 4.87626 12.6422 4.89897 12.36H1V13.9819H4.89248C4.87789 13.7305 4.86329 13.4775 4.86329 13.2196Z" fill="white"/>
<path d="M19.7196 12.36C19.7439 12.6438 19.7569 12.926 19.7569 13.218C19.7569 13.4758 19.7423 13.7288 19.7245 13.9819H23.7062V12.36H19.7196Z" fill="white"/>
<path d="M6.09915 18.1987L2.76031 21.5457L3.89562 22.681L7.0009 19.5757C6.65902 19.1451 6.35718 18.6842 6.09915 18.1987Z" fill="white"/>
<path d="M17.5998 19.5562L20.8294 22.7842L21.9647 21.6489L18.4983 18.1809C18.2406 18.6653 17.9399 19.1256 17.5998 19.5562Z" fill="white"/>
<path d="M13.49 14.1295L16.4402 11.1793L15.3032 10.0424L12.3531 12.9925L9.40289 10.0424L8.26596 11.1793L11.2161 14.1295L8.26596 17.0796L9.40289 18.2166L12.3531 15.2664L15.3032 18.2166L16.4402 17.0796L13.49 14.1295Z" fill="white"/>
</g>
<defs>
<clipPath id="clip0">
<rect width="24" height="24" fill="white"/>
</clipPath>
</defs>
</svg>
