<svg width="24" height="24" viewBox="0 0 24 24" fill="none" xmlns="http://www.w3.org/2000/svg">
<g clip-path="url(#clip0)">
<path d="M13.023 13.5665L15.675 10.913L14.6175 9.85403L11.964 12.5075L9.38099 9.92603L8.32349 10.9835L10.9065 13.5665L8.25449 16.22L9.31199 17.2775L11.9655 14.6255L14.688 17.3465L15.7455 16.289L13.023 13.5665Z" fill="white"/>
<path d="M4.24016 12.4989L0.00115967 12.5045L0.00311923 14.0015L4.24212 13.9959L4.24016 12.4989Z" fill="white"/>
<path d="M24 12.5H20.085V14H24V12.5Z" fill="white"/>
<path d="M3.68029 3.87413L2.62314 4.93405L5.98771 8.28982L7.04486 7.2299L3.68029 3.87413Z" fill="white"/>
<path d="M18.2479 18.4368L17.1873 19.4975L20.1911 22.5013L21.2517 21.4406L18.2479 18.4368Z" fill="white"/>
<path d="M20.2847 3.90364L17.0981 7.09805L18.158 8.15528L21.3445 4.96086L20.2847 3.90364Z" fill="white"/>
<path d="M5.75325 18.4362L2.78128 21.4082L3.84194 22.4688L6.81391 19.4969L5.75325 18.4362Z" fill="white"/>
<path d="M17.382 7.98648C18.4679 9.45106 19.0604 11.2228 19.074 13.046C19.074 17.546 15.9765 21.2075 12.174 21.2075C8.37149 21.2075 5.27398 17.546 5.27398 13.046C5.22522 11.2489 5.73572 9.48096 6.73498 7.98648H17.385H17.382ZM18.117 6.48648H5.98648C4.48996 8.3394 3.70286 10.665 3.76648 13.046C3.76648 18.3815 7.52849 22.7075 12.1665 22.7075C16.8045 22.7075 20.5665 18.3815 20.5665 13.046C20.5487 10.6372 19.677 8.31291 18.1065 6.48648H18.117Z" fill="white"/>
<path d="M9.417 7C9.14696 6.54603 9.003 6.02821 9 5.5C9 4.70435 9.31607 3.94129 9.87868 3.37868C10.4413 2.81607 11.2044 2.5 12 2.5C12.7956 2.5 13.5587 2.81607 14.1213 3.37868C14.6839 3.94129 15 4.70435 15 5.5C14.997 6.02821 14.853 6.54603 14.583 7H16.224C16.4018 6.51965 16.4951 6.01217 16.5 5.5C16.5 4.30653 16.0259 3.16193 15.182 2.31802C14.3381 1.47411 13.1935 1 12 1C10.8065 1 9.66193 1.47411 8.81802 2.31802C7.97411 3.16193 7.5 4.30653 7.5 5.5C7.50485 6.01217 7.59823 6.51965 7.776 7H9.417Z" fill="white"/>
</g>
<defs>
<clipPath id="clip0">
<rect width="24" height="24" fill="white"/>
</clipPath>
</defs>
</svg>
