<svg width="24" height="24" viewBox="0 0 24 24" fill="none" xmlns="http://www.w3.org/2000/svg">
<g clip-path="url(#clip0)">
<path d="M18.114 6.48651H5.98645C4.48993 8.33943 3.70283 10.6651 3.76645 13.046C3.76645 18.3815 7.52845 22.7075 12.1665 22.7075C16.8045 22.7075 20.5665 18.3815 20.5665 13.046C20.5508 10.6382 19.6818 8.31399 18.114 6.48651ZM14.9999 17.5499L11.964 14.6255L8.99994 17.5499L7.94994 16.4999L10.9065 13.5665L7.94994 10.5499L8.99994 9.49994L11.964 12.5075L14.9999 9.49994L16.0574 10.5589L13.023 13.5665L16.0619 16.4924L14.9999 17.5499Z" fill="white"/>
<path d="M4.24016 12.4989L0.00115967 12.5045L0.00311923 14.0015L4.24212 13.9959L4.24016 12.4989Z" fill="white"/>
<path d="M24 12.5H20.085V14H24V12.5Z" fill="white"/>
<path d="M3.68026 3.87416L2.62311 4.93408L5.98768 8.28985L7.04483 7.22993L3.68026 3.87416Z" fill="white"/>
<path d="M18.2479 18.4368L17.1873 19.4975L20.1911 22.5013L21.2517 21.4406L18.2479 18.4368Z" fill="white"/>
<path d="M20.2846 3.90361L17.0981 7.09802L18.158 8.15525L21.3445 4.96083L20.2846 3.90361Z" fill="white"/>
<path d="M5.75325 18.4362L2.78128 21.4082L3.84194 22.4689L6.81391 19.4969L5.75325 18.4362Z" fill="white"/>
<path d="M16.5 4.98352C16.5 3.79005 16.0259 2.64545 15.182 1.80154C14.3381 0.957626 13.1935 0.483521 12 0.483521C10.8065 0.483521 9.66193 0.957626 8.81802 1.80154C7.97411 2.64545 7.5 3.79005 7.5 4.98352H16.5Z" fill="white"/>
</g>
<defs>
<clipPath id="clip0">
<rect width="24" height="24" fill="white"/>
</clipPath>
</defs>
</svg>
