<svg width="24" height="24" viewBox="0 0 24 24" fill="none" xmlns="http://www.w3.org/2000/svg">
<path fill-rule="evenodd" clip-rule="evenodd" d="M1 7.28569L2.57143 5.71426H8.85714L10.4286 7.28569V13.5714L8.85714 15.1428H2.57143L1 13.5714V7.28569ZM2.57143 7.28569V13.5714H8.85714V7.28569H2.57143Z" fill="white"/>
<path fill-rule="evenodd" clip-rule="evenodd" d="M1 15.1428L2.57143 13.5714H8.85714L10.4286 15.1428V21.4286L8.85714 23H2.57143L1 21.4286V15.1428ZM2.57143 15.1428V21.4286H8.85714V15.1428H2.57143Z" fill="white"/>
<path fill-rule="evenodd" clip-rule="evenodd" d="M8.85715 15.1428L10.4286 13.5714H16.7143L18.2857 15.1428V21.4286L16.7143 23H10.4286L8.85715 21.4286V15.1428ZM10.4286 15.1428V21.4286H16.7143V15.1428H10.4286Z" fill="white"/>
<path fill-rule="evenodd" clip-rule="evenodd" d="M13.5714 2.57143L15.1429 1H21.4286L23 2.57143V8.85714L21.4286 10.4286H15.1429L13.5714 8.85714V2.57143ZM15.1429 2.57143V8.85714H21.4286V2.57143H15.1429Z" fill="white"/>
</svg>
