<svg width="24" height="24" viewBox="0 0 24 24" fill="none" xmlns="http://www.w3.org/2000/svg">
<g clip-path="url(#clip0)">
<path d="M7.2527 7.07143C6.5534 7.07143 5.8698 6.86406 5.28836 6.47555C4.70691 6.08704 4.25373 5.53484 3.98612 4.88877C3.71851 4.24271 3.64849 3.53179 3.78492 2.84593C3.92135 2.16007 4.25809 1.53007 4.75257 1.03559C5.24705 0.54111 5.87705 0.204366 6.56291 0.0679393C7.24877 -0.068487 7.95969 0.00153195 8.60576 0.269142C9.25182 0.536752 9.80403 0.989933 10.1925 1.57138C10.581 2.15282 10.7884 2.83642 10.7884 3.53572C10.7876 4.47319 10.4148 5.37203 9.75191 6.03492C9.08901 6.69782 8.19017 7.0706 7.2527 7.07143V7.07143ZM7.2527 1.60443C6.8642 1.60443 6.48442 1.71963 6.1614 1.93547C5.83837 2.15131 5.5866 2.45809 5.43793 2.81702C5.28926 3.17594 5.25036 3.57089 5.32615 3.95193C5.40195 4.33296 5.58903 4.68296 5.86374 4.95767C6.13845 5.23239 6.48845 5.41947 6.86948 5.49526C7.25052 5.57105 7.64547 5.53215 8.0044 5.38348C8.36332 5.23481 8.6701 4.98304 8.88594 4.66001C9.10178 4.33699 9.21698 3.95721 9.21698 3.56872C9.21657 3.04788 9.00948 2.5485 8.6412 2.18022C8.27291 1.81193 7.77353 1.60485 7.2527 1.60443V1.60443Z" fill="white"/>
<path d="M7.98027 17.2077H6.40884V6.66656H7.98027V13.7883C8.69774 13.3133 9.53829 13.0583 10.3987 13.0544H15.4791C15.663 13.0434 16.7473 12.9428 16.7473 12.0078H18.3187C18.3169 12.3676 18.2415 12.7231 18.0972 13.0526C17.9529 13.3821 17.7426 13.6786 17.4794 13.9239C17.2162 14.1691 16.9057 14.3579 16.5668 14.4786C16.2279 14.5993 15.8679 14.6494 15.509 14.6258H10.4286C10.098 14.5955 9.76476 14.6386 9.45276 14.7521C9.14077 14.8655 8.85769 15.0465 8.62377 15.2821C8.38986 15.5176 8.21088 15.802 8.09963 16.1148C7.98839 16.4275 7.94763 16.761 7.98027 17.0914V17.2077Z" fill="white"/>
<path d="M17.5 12.0714C16.8007 12.0714 16.1171 11.8641 15.5357 11.4756C14.9542 11.087 14.501 10.5348 14.2334 9.88877C13.9658 9.24271 13.8958 8.53179 14.0322 7.84593C14.1687 7.16007 14.5054 6.53007 14.9999 6.03559C15.4944 5.54111 16.1244 5.20437 16.8102 5.06794C17.4961 4.93151 18.207 5.00153 18.8531 5.26914C19.4991 5.53675 20.0513 5.98993 20.4398 6.57138C20.8284 7.15282 21.0357 7.83642 21.0357 8.53572C21.0349 9.47319 20.6621 10.372 19.9992 11.0349C19.3363 11.6978 18.4375 12.0706 17.5 12.0714V12.0714ZM17.5 6.57143C17.1115 6.57143 16.7317 6.68663 16.4087 6.90247C16.0857 7.11831 15.8339 7.42509 15.6852 7.78402C15.5366 8.14294 15.4977 8.53789 15.5735 8.91893C15.6493 9.29996 15.8363 9.64996 16.1111 9.92468C16.3858 10.1994 16.7358 10.3865 17.1168 10.4623C17.4978 10.5381 17.8928 10.4992 18.2517 10.3505C18.6106 10.2018 18.9174 9.95004 19.1333 9.62701C19.3491 9.30399 19.4643 8.92421 19.4643 8.53572C19.4639 8.01488 19.2568 7.5155 18.8885 7.14722C18.5202 6.77893 18.0208 6.57185 17.5 6.57143V6.57143Z" fill="white"/>
<path d="M7.2527 23.8023C6.5534 23.8023 5.8698 23.5949 5.28836 23.2064C4.70691 22.8179 4.25373 22.2657 3.98612 21.6196C3.71851 20.9736 3.64849 20.2627 3.78492 19.5768C3.92135 18.8909 4.25809 18.2609 4.75257 17.7664C5.24705 17.272 5.87705 16.9352 6.56291 16.7988C7.24877 16.6624 7.95969 16.7324 8.60576 17C9.25182 17.2676 9.80403 17.7208 10.1925 18.3022C10.581 18.8837 10.7884 19.5673 10.7884 20.2666C10.7872 21.2039 10.4143 22.1025 9.75145 22.7653C9.08864 23.4281 8.19004 23.801 7.2527 23.8023ZM7.2527 18.3023C6.8642 18.3023 6.48442 18.4175 6.1614 18.6333C5.83837 18.8492 5.5866 19.1559 5.43793 19.5149C5.28926 19.8738 5.25036 20.2688 5.32615 20.6498C5.40195 21.0308 5.58903 21.3808 5.86374 21.6555C6.13845 21.9302 6.48845 22.1173 6.86948 22.1931C7.25052 22.2689 7.64547 22.23 8.0044 22.0813C8.36332 21.9327 8.6701 21.6809 8.88594 21.3579C9.10178 21.0348 9.21698 20.6551 9.21698 20.2666C9.21657 19.7457 9.00948 19.2464 8.6412 18.8781C8.27291 18.5098 7.77353 18.3027 7.2527 18.3023Z" fill="white"/>
</g>
<defs>
<clipPath id="clip0">
<rect width="24" height="24" fill="white"/>
</clipPath>
</defs>
</svg>
