<svg width="24" height="24" viewBox="0 0 24 24" fill="none" xmlns="http://www.w3.org/2000/svg">
<g clip-path="url(#clip0)">
<g clip-path="url(#clip1)">
<path d="M21.7001 6.79651C21.3124 5.90153 20.5985 5.18769 19.7036 4.80001C19.2455 4.59916 18.7502 4.49695 18.2501 4.50001C17.748 4.4974 17.2509 4.59957 16.7906 4.80001C16.3435 4.99198 15.9364 5.26624 15.5906 5.60851C15.2504 5.95083 14.9781 6.35443 14.7881 6.79801C14.5935 7.25714 14.4955 7.75138 14.5001 8.25001C14.4977 8.67564 14.5713 9.09827 14.7176 9.498C14.8594 9.88691 15.0619 10.2509 15.3176 10.5765C15.5726 10.9022 15.8816 11.1817 16.2311 11.403C16.59 11.6308 16.9844 11.7971 17.3981 11.895C17.3285 12.1273 17.2216 12.3466 17.0816 12.5445C16.9452 12.7392 16.7792 12.9113 16.5896 13.0545C16.4011 13.196 16.1916 13.3069 15.9686 13.383C15.7373 13.462 15.4944 13.5015 15.2501 13.5H10.7501C10.3471 13.4992 9.94696 13.5666 9.56656 13.6995C9.18255 13.8326 8.82245 14.0265 8.50006 14.274V7.41751C8.925 7.3351 9.33154 7.17655 9.70006 6.94951C10.0599 6.72813 10.3807 6.44888 10.6496 6.123C10.9168 5.7956 11.1267 5.42539 11.2706 5.02801C11.4219 4.61889 11.4996 4.18621 11.5001 3.75001C11.5031 3.24983 11.4009 2.7546 11.2001 2.29651C10.8124 1.40153 10.0985 0.687688 9.20356 0.300006C8.74547 0.09916 8.25024 -0.00305398 7.75006 5.67945e-06C7.24799 -0.00260461 6.7509 0.0995727 6.29056 0.300006C5.84346 0.491981 5.4364 0.766237 5.09056 1.10851C4.75042 1.45083 4.47813 1.85443 4.28806 2.29801C4.09351 2.75714 3.99548 3.25138 4.00006 3.75001C3.99744 4.61508 4.29602 5.45408 4.84456 6.123C5.11251 6.4492 5.43289 6.72851 5.79256 6.94951C6.16337 7.17739 6.57253 7.33597 7.00006 7.41751V16.5825C6.57253 16.664 6.16337 16.8226 5.79256 17.0505C5.43289 17.2715 5.11251 17.5508 4.84456 17.877C4.29602 18.5459 3.99744 19.3849 4.00006 20.25C3.99715 20.7513 4.09669 21.248 4.29256 21.7095C4.67082 22.6117 5.38834 23.3293 6.29056 23.7075C6.75207 23.9034 7.24872 24.0029 7.75006 24C8.25004 24.001 8.74484 23.8989 9.20356 23.7C9.64714 23.5099 10.0507 23.2376 10.3931 22.8975C10.7353 22.5517 11.0096 22.1446 11.2016 21.6975C11.569 20.8401 11.5979 19.8754 11.2826 18.9975C11.0031 18.2152 10.4718 17.5477 9.77206 17.1C9.41409 16.8691 9.01947 16.7007 8.60506 16.602C8.74549 16.1399 9.02848 15.734 9.41356 15.4425C9.60199 15.301 9.81157 15.1902 10.0346 15.114C10.265 15.0364 10.5069 14.9979 10.7501 15H15.2501C15.6898 15.0022 16.1263 14.925 16.5386 14.772C16.9393 14.6224 17.312 14.4063 17.6411 14.133C17.9702 13.8581 18.2497 13.5289 18.4676 13.1595C18.6918 12.7794 18.8482 12.3632 18.9296 11.9295C19.3645 11.8551 19.7817 11.6999 20.1596 11.472C20.9019 11.0303 21.4709 10.3481 21.7721 9.53851C21.925 9.12624 22.0023 8.68973 22.0001 8.25001C22.0031 7.74983 21.9009 7.2546 21.7001 6.79651ZM6.87106 5.82451C6.32931 5.59715 5.89842 5.16626 5.67106 4.62451C5.55521 4.34593 5.49556 4.04721 5.49556 3.74551C5.49556 3.4438 5.55521 3.14508 5.67106 2.86651C5.8991 2.32521 6.32976 1.89454 6.87106 1.66651C7.14963 1.55065 7.44836 1.49101 7.75006 1.49101C8.05176 1.49101 8.35049 1.55065 8.62906 1.66651C9.17082 1.89386 9.60171 2.32475 9.82906 2.86651C9.94492 3.14508 10.0046 3.4438 10.0046 3.74551C10.0046 4.04721 9.94492 4.34593 9.82906 4.62451C9.60294 5.16709 9.17164 5.59838 8.62906 5.82451C8.35049 5.94036 8.05176 6.00001 7.75006 6.00001C7.44836 6.00001 7.14963 5.94036 6.87106 5.82451ZM8.62906 18.1755C9.17082 18.4029 9.60171 18.8338 9.82906 19.3755C9.94492 19.6541 10.0046 19.9528 10.0046 20.2545C10.0046 20.5562 9.94492 20.8549 9.82906 21.1335C9.60294 21.6761 9.17164 22.1074 8.62906 22.3335C8.35049 22.4494 8.05176 22.509 7.75006 22.509C7.44836 22.509 7.14963 22.4494 6.87106 22.3335C6.32931 22.1061 5.89842 21.6753 5.67106 21.1335C5.55521 20.8549 5.49556 20.5562 5.49556 20.2545C5.49556 19.9528 5.55521 19.6541 5.67106 19.3755C5.8991 18.8342 6.32976 18.4035 6.87106 18.1755C7.14963 18.0596 7.44836 18 7.75006 18C8.05176 18 8.35049 18.0596 8.62906 18.1755ZM20.3291 9.12901C20.1029 9.67159 19.6716 10.1029 19.1291 10.329C18.8505 10.4449 18.5518 10.5045 18.2501 10.5045C17.9484 10.5045 17.6496 10.4449 17.3711 10.329C16.8293 10.1016 16.3984 9.67076 16.1711 9.12901C16.0552 8.85043 15.9956 8.55171 15.9956 8.25001C15.9956 7.9483 16.0552 7.64958 16.1711 7.37101C16.3991 6.82971 16.8298 6.39904 17.3711 6.17101C17.6496 6.05515 17.9484 5.99551 18.2501 5.99551C18.5518 5.99551 18.8505 6.05515 19.1291 6.17101C19.6708 6.39836 20.1017 6.82925 20.3291 7.37101C20.4449 7.64958 20.5046 7.9483 20.5046 8.25001C20.5046 8.55171 20.4449 8.85043 20.3291 9.12901Z" fill="white"/>
</g>
</g>
<defs>
<clipPath id="clip0">
<rect width="24" height="24" fill="white"/>
</clipPath>
<clipPath id="clip1">
<rect width="24" height="24" fill="white" transform="translate(1)"/>
</clipPath>
</defs>
</svg>
