<svg width="24" height="24" viewBox="0 0 24 24" fill="none" xmlns="http://www.w3.org/2000/svg">
<path fill-rule="evenodd" clip-rule="evenodd" d="M6.04873 7.27129L5.75 7.21191V16.8018L6.04654 16.7456C6.25467 16.7062 6.46586 16.6851 6.67768 16.6825C6.96617 16.6867 7.25306 16.7262 7.53195 16.8001L7.76534 16.862L7.83528 16.6309C7.89692 16.4272 7.99164 16.2351 8.11565 16.0622L8.11666 16.0608C8.23723 15.8902 8.38404 15.7397 8.55164 15.615C8.71911 15.4919 8.90451 15.3954 9.10135 15.3287C9.30926 15.2609 9.52703 15.2282 9.7457 15.232H14.2328C14.7009 15.2344 15.1657 15.153 15.6051 14.9917C16.031 14.8355 16.4273 14.6084 16.7775 14.3199C17.4914 13.7323 17.9769 12.9131 18.1496 12.0047L18.2184 11.6428L17.8567 11.7125C17.6505 11.7523 17.4412 11.7733 17.2313 11.7754C16.9589 11.7613 16.6878 11.7283 16.4199 11.6765L16.1992 11.6339L16.1334 11.8488C16.0091 12.2551 15.7579 12.6109 15.4166 12.8641C15.2491 12.9877 15.0636 13.0848 14.8666 13.1519C14.6631 13.2189 14.45 13.252 14.2358 13.25H9.75022C9.32041 13.249 8.89346 13.3199 8.48709 13.4599C8.23027 13.5478 7.98335 13.6612 7.75 13.7982V7.21191L7.45127 7.27129C6.98828 7.3633 6.51172 7.3633 6.04873 7.27129ZM6.67768 16.6825L6.67457 16.6825L6.68081 16.6825L6.67768 16.6825ZM7.49882 7.51684C7.49921 7.51676 7.49961 7.51668 7.5 7.5166V7.51649L7.49882 7.51684Z" fill="white"/>
<path d="M17.2335 10.5074C18.8904 10.5074 20.2335 9.1643 20.2335 7.50745C20.2335 5.85059 18.8904 4.50745 17.2335 4.50745C15.5767 4.50745 14.2335 5.85059 14.2335 7.50745C14.2335 9.1643 15.5767 10.5074 17.2335 10.5074Z" fill="#F4F4F4"/>
<path d="M6.73352 6C8.39037 6 9.73352 4.65685 9.73352 3C9.73352 1.34315 8.39037 0 6.73352 0C5.07667 0 3.73352 1.34315 3.73352 3C3.73352 4.65685 5.07667 6 6.73352 6Z" fill="#F4F4F4"/>
<path d="M6.73352 24C8.39037 24 9.73352 22.6569 9.73352 21C9.73352 19.3431 8.39037 18 6.73352 18C5.07667 18 3.73352 19.3431 3.73352 21C3.73352 22.6569 5.07667 24 6.73352 24Z" fill="#F4F4F4"/>
</svg>
