<svg width="24" height="24" viewBox="0 0 24 24" fill="none" xmlns="http://www.w3.org/2000/svg">
<g clip-path="url(#clip0)">
<path d="M20.7001 6.79651C20.3124 5.90153 19.5985 5.18769 18.7036 4.80001C18.2455 4.59916 17.7502 4.49695 17.2501 4.50001C16.748 4.4974 16.2509 4.59957 15.7906 4.80001C15.3435 4.99198 14.9364 5.26624 14.5906 5.60851C14.2504 5.95083 13.9781 6.35443 13.7881 6.79801C13.5935 7.25714 13.4955 7.75138 13.5001 8.25001C13.4977 8.67564 13.5713 9.09827 13.7176 9.49801C13.8594 9.88691 14.0619 10.2509 14.3176 10.5765C14.5726 10.9022 14.8816 11.1817 15.2311 11.403C15.59 11.6308 15.9844 11.7971 16.3981 11.895C16.3285 12.1273 16.2216 12.3466 16.0816 12.5445C15.9452 12.7392 15.7792 12.9113 15.5896 13.0545C15.4011 13.196 15.1916 13.3069 14.9686 13.383C14.7373 13.462 14.4944 13.5015 14.2501 13.5H9.75006C9.34712 13.4992 8.94696 13.5666 8.56656 13.6995C8.18255 13.8326 7.82245 14.0265 7.50006 14.274V7.41751C7.925 7.3351 8.33154 7.17655 8.70006 6.94951C9.05989 6.72813 9.3807 6.44888 9.64956 6.12301C9.91679 5.7956 10.1267 5.42539 10.2706 5.02801C10.4219 4.61889 10.4996 4.18621 10.5001 3.75001C10.5031 3.24983 10.4009 2.7546 10.2001 2.29651C9.81238 1.40153 9.09854 0.687687 8.20356 0.300006C7.74547 0.09916 7.25024 -0.00305398 6.75006 5.67945e-06C6.24799 -0.00260461 5.7509 0.0995727 5.29056 0.300006C4.84346 0.491981 4.4364 0.766237 4.09056 1.10851C3.75042 1.45083 3.47813 1.85443 3.28806 2.29801C3.09351 2.75714 2.99548 3.25138 3.00006 3.75001C2.99744 4.61508 3.29602 5.45408 3.84456 6.12301C4.11251 6.4492 4.43289 6.72851 4.79256 6.94951C5.16337 7.17739 5.57253 7.33597 6.00006 7.41751V16.5825C5.57253 16.664 5.16337 16.8226 4.79256 17.0505C4.43289 17.2715 4.11251 17.5508 3.84456 17.877C3.29602 18.5459 2.99744 19.3849 3.00006 20.25C2.99715 20.7513 3.09669 21.248 3.29256 21.7095C3.67082 22.6117 4.38834 23.3293 5.29056 23.7075C5.75207 23.9034 6.24872 24.0029 6.75006 24C7.25004 24.001 7.74484 23.8989 8.20356 23.7C8.64714 23.5099 9.05074 23.2376 9.39306 22.8975C9.73533 22.5517 10.0096 22.1446 10.2016 21.6975C10.569 20.8401 10.5979 19.8754 10.2826 18.9975C10.0031 18.2152 9.47184 17.5477 8.77206 17.1C8.41409 16.8691 8.01947 16.7007 7.60506 16.602C7.74549 16.1399 8.02848 15.734 8.41356 15.4425C8.60199 15.301 8.81157 15.1902 9.03456 15.114C9.26505 15.0364 9.50688 14.9979 9.75006 15H14.2501C14.6898 15.0022 15.1263 14.925 15.5386 14.772C15.9393 14.6224 16.312 14.4063 16.6411 14.133C16.9702 13.8581 17.2497 13.5289 17.4676 13.1595C17.6918 12.7794 17.8482 12.3632 17.9296 11.9295C18.3645 11.8551 18.7817 11.6999 19.1596 11.472C19.9019 11.0303 20.4709 10.3481 20.7721 9.53851C20.925 9.12624 21.0023 8.68973 21.0001 8.25001C21.0031 7.74983 20.9009 7.2546 20.7001 6.79651ZM5.87106 5.82451C5.32931 5.59715 4.89842 5.16626 4.67106 4.62451C4.55521 4.34593 4.49556 4.04721 4.49556 3.74551C4.49556 3.4438 4.55521 3.14508 4.67106 2.86651C4.8991 2.32521 5.32976 1.89454 5.87106 1.66651C6.14963 1.55065 6.44836 1.49101 6.75006 1.49101C7.05176 1.49101 7.35049 1.55065 7.62906 1.66651C8.17082 1.89386 8.6017 2.32475 8.82906 2.86651C8.94492 3.14508 9.00456 3.4438 9.00456 3.74551C9.00456 4.04721 8.94492 4.34593 8.82906 4.62451C8.60294 5.16709 8.17164 5.59838 7.62906 5.82451C7.35049 5.94036 7.05176 6.00001 6.75006 6.00001C6.44836 6.00001 6.14963 5.94036 5.87106 5.82451V5.82451ZM7.62906 18.1755C8.17082 18.4029 8.6017 18.8338 8.82906 19.3755C8.94492 19.6541 9.00456 19.9528 9.00456 20.2545C9.00456 20.5562 8.94492 20.8549 8.82906 21.1335C8.60294 21.6761 8.17164 22.1074 7.62906 22.3335C7.35049 22.4494 7.05176 22.509 6.75006 22.509C6.44836 22.509 6.14963 22.4494 5.87106 22.3335C5.32931 22.1061 4.89842 21.6753 4.67106 21.1335C4.55521 20.8549 4.49556 20.5562 4.49556 20.2545C4.49556 19.9528 4.55521 19.6541 4.67106 19.3755C4.8991 18.8342 5.32976 18.4035 5.87106 18.1755C6.14963 18.0596 6.44836 18 6.75006 18C7.05176 18 7.35049 18.0596 7.62906 18.1755V18.1755ZM19.3291 9.12901C19.1029 9.67159 18.6716 10.1029 18.1291 10.329C17.8505 10.4449 17.5518 10.5045 17.2501 10.5045C16.9484 10.5045 16.6496 10.4449 16.3711 10.329C15.8293 10.1016 15.3984 9.67076 15.1711 9.12901C15.0552 8.85043 14.9956 8.55171 14.9956 8.25001C14.9956 7.9483 15.0552 7.64958 15.1711 7.37101C15.3991 6.82971 15.8298 6.39904 16.3711 6.17101C16.6496 6.05515 16.9484 5.99551 17.2501 5.99551C17.5518 5.99551 17.8505 6.05515 18.1291 6.17101C18.6708 6.39836 19.1017 6.82925 19.3291 7.37101C19.4449 7.64958 19.5046 7.9483 19.5046 8.25001C19.5046 8.55171 19.4449 8.85043 19.3291 9.12901V9.12901Z" fill="white"/>
</g>
<defs>
<clipPath id="clip0">
<rect width="24" height="24" fill="white"/>
</clipPath>
</defs>
</svg>
