<svg width="24" height="24" viewBox="0 0 24 24" fill="none" xmlns="http://www.w3.org/2000/svg">
<path d="M6.03 0.0859985L5.146 0.969999L6.493 2.317H4.625C3.92913 2.31806 3.26207 2.59496 2.77001 3.08701C2.27796 3.57907 2.00106 4.24613 2 4.942V7H3.25V4.942C3.25053 4.57749 3.39556 4.22806 3.65331 3.97031C3.91106 3.71256 4.26049 3.56753 4.625 3.567H6.639L5.1 5.1L5.984 5.984L8.958 3.015L6.03 0.0859985Z" fill="white"/>
<path d="M15.872 9.25H19.904V8H16H15.872V9.25Z" fill="white"/>
<path d="M19.904 11H15.872V12.25H19.904V11Z" fill="white"/>
<path d="M9.75 1V6.766H11V2.25H20.75V15H15.404V16.25H22V1H9.75Z" fill="white"/>
<path d="M19.904 5H11.883V6.25H19.904V5Z" fill="white"/>
<path d="M12.154 15H4.133V16.25H12.154V15Z" fill="white"/>
<path d="M12.154 18H4.133V19.25H12.154V18Z" fill="white"/>
<path d="M2 22V23.25H14.25V8H2V22ZM13 9.25V22H3.25V9.25H13Z" fill="white"/>
<path d="M12.154 12H4.133V13.25H12.154V12Z" fill="white"/>
</svg>
