<svg width="24" height="24" viewBox="0 0 24 24" fill="none" xmlns="http://www.w3.org/2000/svg">
<path fill-rule="evenodd" clip-rule="evenodd" d="M5.43454 5.5519L6.78648 4.19996H6.78648L6.78648 4.19995H4.08631C3.48496 4.19995 2.969 4.56557 2.74861 5.08664C2.67515 5.26033 2.63452 5.45128 2.63452 5.65173C2.63452 5.65173 2.63452 5.65173 2.63452 5.65173V6.5H1V5.65174C1 5.43867 1.02159 5.23065 1.0627 5.02974C1.13883 4.65774 1.28188 4.31012 1.47872 4C2.02607 3.13771 2.98936 2.56543 4.08631 2.56543H6.84498L6.84498 2.56543L5.43449 1.15567L6.59016 0L9.9446 3.35316L6.5902 6.70756L5.43454 5.5519Z" fill="white"/>
<path fill-rule="evenodd" clip-rule="evenodd" d="M12.6429 8.82149e-06L11 1.64287V6.20716L12.6429 6.20715V1.64287L22.3571 1.64286V13.5L15.65 13.5V15.1429L22.3571 15.1429L24 13.5V1.64286L22.3571 0L12.6429 8.82149e-06ZM15.65 11.8572L21 11.8571V10.2143L15.65 10.2143V11.8572ZM15.4049 8.57144H21V6.92858H14V7.16656L15.4049 8.57144ZM14 3.64286V5.28571H21V3.64286H14ZM1 9.50001L2.64286 7.85716L12.3571 7.85715L14 9.5V21.3571L12.3571 23L2.64286 23L1 21.3572V9.50001ZM2.64286 9.50001V21.3572L12.3571 21.3571V9.50001L11 9.5L2.64286 9.50001ZM4 11.5H11V13.1429H4V11.5ZM4 14.7857L11 14.7857V16.4286L4 16.4286V14.7857ZM11 18.0714L4 18.0714V19.7143L11 19.7143V18.0714Z" fill="white"/>
</svg>
