<svg width="24" height="24" viewBox="0 0 24 24" fill="none" xmlns="http://www.w3.org/2000/svg">
<g clip-path="url(#clip0)">
<path fill-rule="evenodd" clip-rule="evenodd" d="M15.2399 14.6813C18.5643 14.6813 21.2593 11.9863 21.2593 8.66185C21.2593 5.33741 18.5643 2.64241 15.2399 2.64241C11.9154 2.64241 9.22042 5.33741 9.22042 8.66185C9.22042 11.9863 11.9154 14.6813 15.2399 14.6813ZM15.2399 16.3237C19.4714 16.3237 22.9017 12.8934 22.9017 8.66185C22.9017 4.43033 19.4714 1 15.2399 1C11.0083 1 7.578 4.43033 7.578 8.66185C7.578 12.8934 11.0083 16.3237 15.2399 16.3237Z" fill="white"/>
<path fill-rule="evenodd" clip-rule="evenodd" d="M2.51866 21.7751L10.7917 13.3767L11.9618 14.5293L3.68872 22.9277L2.51866 21.7751Z" fill="white"/>
</g>
<defs>
<clipPath id="clip0">
<rect width="24" height="24" fill="white"/>
</clipPath>
</defs>
</svg>
