<svg width="24" height="24" viewBox="0 0 24 24" fill="none" xmlns="http://www.w3.org/2000/svg">
<path fill-rule="evenodd" clip-rule="evenodd" d="M21.5 9C21.5 12.5899 18.5899 15.5 15 15.5C11.4101 15.5 8.5 12.5899 8.5 9C8.5 5.41015 11.4101 2.5 15 2.5C18.5899 2.5 21.5 5.41015 21.5 9ZM23 9C23 13.4183 19.4183 17 15 17C13.1652 17 11.4746 16.3823 10.1249 15.3435L1.67961 23.3533L0.646484 22.2658L9.02478 14.3196C7.7653 12.9059 7 11.0423 7 9C7 4.58172 10.5817 1 15 1C19.4183 1 23 4.58172 23 9ZM1.68879 23L1.69035 22.9985L1.68881 23L1.68879 23Z" fill="white"/>
</svg>
