<svg width="24" height="24" viewBox="0 0 24 24" fill="none" xmlns="http://www.w3.org/2000/svg">
<g clip-path="url(#clip0)">
<path fill-rule="evenodd" clip-rule="evenodd" d="M22.3958 8.37499C22.3958 12.1144 19.3644 15.1458 15.625 15.1458C11.8856 15.1458 8.85418 12.1144 8.85418 8.37499C8.85418 4.63556 11.8856 1.60416 15.625 1.60416C19.3644 1.60416 22.3958 4.63556 22.3958 8.37499ZM23.9583 8.37499C23.9583 12.9774 20.2274 16.7083 15.625 16.7083C13.7137 16.7083 11.9527 16.0649 10.5468 14.9828L1.7496 23.3263L0.673431 22.1935L9.40082 13.9162C8.08887 12.4436 7.29168 10.5024 7.29168 8.37499C7.29168 3.77262 11.0226 0.0416565 15.625 0.0416565C20.2274 0.0416565 23.9583 3.77262 23.9583 8.37499ZM1.75914 22.9583L1.76184 22.9558L1.75919 22.9583L1.75914 22.9583Z" fill="white"/>
</g>
<defs>
<clipPath id="clip0">
<rect width="24" height="24" fill="white"/>
</clipPath>
</defs>
</svg>
