<svg width="24" height="24" viewBox="0 0 24 24" fill="none" xmlns="http://www.w3.org/2000/svg">
<g clip-path="url(#clip0)">
<path fill-rule="evenodd" clip-rule="evenodd" d="M8.29079 13.9128L-1.15209e-05 22.242L1.74985 24L10.0406 15.6708L8.29079 13.9128Z" fill="white"/>
<path fill-rule="evenodd" clip-rule="evenodd" d="M14.4719 19.1445C19.6389 19.1445 24 15.0368 24 9.63396C24 4.26706 19.7969 -1.47216e-05 14.4719 -1.44888e-05C9.14681 -1.42561e-05 4.94372 4.26706 4.94372 9.63396C4.94372 14.9013 9.29257 19.1445 14.4719 19.1445ZM21.5253 9.63396C21.5253 13.6092 18.3271 16.6584 14.4719 16.6584C10.6288 16.6584 7.4184 13.4978 7.4184 9.63396C7.4184 5.62279 10.5307 2.48613 14.4719 2.48613C18.413 2.48613 21.5253 5.62279 21.5253 9.63396Z" fill="white"/>
</g>
<defs>
<clipPath id="clip0">
<rect width="24" height="24" fill="white"/>
</clipPath>
</defs>
</svg>
