<svg width="24" height="24" viewBox="0 0 24 24" fill="none" xmlns="http://www.w3.org/2000/svg">
<path fill-rule="evenodd" clip-rule="evenodd" d="M3.03077 18.7692L5.4 15.2154L5.23077 14.7077L1 13.6923V10.3077L5.23077 9.46154L5.4 8.95385L3.03077 5.4L5.4 3.03077L8.95385 5.4L9.46154 5.23077L10.3077 1H13.6923L14.5385 5.23077L15.0462 5.4L18.6 3.03077L20.9692 5.4L18.6 8.95385L18.7692 9.46154L23 10.3077V13.6923L18.7692 14.5385L18.6 15.0462L20.9692 18.6L18.6 20.9692L15.0462 18.6L14.5385 18.9385L13.6923 23.1692H10.3077L9.46154 18.9385L8.95385 18.7692L5.4 21.1385L3.03077 18.7692ZM12 16C14.2091 16 16 14.2091 16 12C16 9.79086 14.2091 8 12 8C9.79086 8 8 9.79086 8 12C8 14.2091 9.79086 16 12 16Z" fill="#F4F4F4"/>
</svg>
