<svg width="24" height="24" viewBox="0 0 24 24" fill="none" xmlns="http://www.w3.org/2000/svg">
<path d="M20.8945 11.5781C20.8945 11.6484 20.8945 11.7188 20.8945 11.7891C20.9023 11.8594 20.9062 11.9297 20.9062 12C20.9062 12.0703 20.9023 12.1406 20.8945 12.2109C20.8945 12.2812 20.8945 12.3516 20.8945 12.4219L23.9297 14.3086L22.0664 18.7969L18.5859 18C18.3984 18.2031 18.2031 18.3984 18 18.5859L18.7969 22.0664L14.3086 23.9297L12.4219 20.8945C12.3516 20.8945 12.2812 20.8984 12.2109 20.9062C12.1406 20.9062 12.0703 20.9062 12 20.9062C11.9297 20.9062 11.8594 20.9062 11.7891 20.9062C11.7188 20.8984 11.6484 20.8945 11.5781 20.8945L9.69141 23.9297L5.20312 22.0664L6 18.5859C5.79688 18.3984 5.60156 18.2031 5.41406 18L1.93359 18.7969L0.0703125 14.3086L3.10547 12.4219C3.10547 12.3516 3.10156 12.2812 3.09375 12.2109C3.09375 12.1406 3.09375 12.0703 3.09375 12C3.09375 11.9297 3.09375 11.8594 3.09375 11.7891C3.10156 11.7188 3.10547 11.6484 3.10547 11.5781L0.0703125 9.69141L1.93359 5.20312L5.41406 6C5.60156 5.79688 5.79688 5.60156 6 5.41406L5.20312 1.93359L9.69141 0.0703125L11.5781 3.10547C11.6484 3.10547 11.7188 3.10547 11.7891 3.10547C11.8594 3.09766 11.9297 3.09375 12 3.09375C12.0703 3.09375 12.1406 3.09766 12.2109 3.10547C12.2812 3.10547 12.3516 3.10547 12.4219 3.10547L14.3086 0.0703125L18.7969 1.93359L18 5.41406C18.2031 5.60156 18.3984 5.79688 18.5859 6L22.0664 5.20312L23.9297 9.69141L20.8945 11.5781ZM19.5234 13.1016C19.5391 12.9141 19.5547 12.7305 19.5703 12.5508C19.5859 12.3633 19.5938 12.1758 19.5938 11.9883C19.5938 11.8086 19.5859 11.625 19.5703 11.4375C19.5547 11.25 19.5391 11.0664 19.5234 10.8867L22.2891 9.16406L21.2812 6.72656L18.1055 7.46484C17.8633 7.16797 17.6133 6.89453 17.3555 6.64453C17.1055 6.39453 16.832 6.14453 16.5352 5.89453L17.2734 2.71875L14.8359 1.71094L13.1016 4.47656C12.9219 4.46094 12.7383 4.44531 12.5508 4.42969C12.3633 4.41406 12.1797 4.40625 12 4.40625C11.8125 4.40625 11.625 4.41406 11.4375 4.42969C11.2578 4.44531 11.0742 4.46094 10.8867 4.47656L9.16406 1.71094L6.72656 2.71875L7.46484 5.89453C7.16797 6.13672 6.89453 6.38672 6.64453 6.64453C6.39453 6.89453 6.14453 7.16797 5.89453 7.46484L2.71875 6.72656L1.71094 9.16406L4.47656 10.8984C4.46094 11.0859 4.44531 11.2734 4.42969 11.4609C4.41406 11.6406 4.40625 11.8242 4.40625 12.0117C4.40625 12.1914 4.41406 12.375 4.42969 12.5625C4.44531 12.75 4.46094 12.9336 4.47656 13.1133L1.71094 14.8359L2.71875 17.2734L5.89453 16.5352C6.13672 16.832 6.38281 17.1055 6.63281 17.3555C6.89062 17.6055 7.16797 17.8555 7.46484 18.1055L6.72656 21.2812L9.16406 22.2891L10.8984 19.5234C11.0781 19.5391 11.2617 19.5547 11.4492 19.5703C11.6367 19.5859 11.8203 19.5938 12 19.5938C12.1875 19.5938 12.3711 19.5859 12.5508 19.5703C12.7383 19.5547 12.9258 19.5391 13.1133 19.5234L14.8359 22.2891L17.2734 21.2812L16.5352 18.1055C16.832 17.8633 17.1055 17.6172 17.3555 17.3672C17.6055 17.1094 17.8555 16.832 18.1055 16.5352L21.2812 17.2734L22.2891 14.8359L19.5234 13.1016ZM12 7.59375C12.6094 7.59375 13.1797 7.71094 13.7109 7.94531C14.25 8.17188 14.7188 8.48438 15.1172 8.88281C15.5156 9.28125 15.8281 9.75 16.0547 10.2891C16.2891 10.8203 16.4062 11.3906 16.4062 12C16.4062 12.6094 16.2891 13.1836 16.0547 13.7227C15.8281 14.2539 15.5156 14.7188 15.1172 15.1172C14.7188 15.5156 14.25 15.832 13.7109 16.0664C13.1797 16.293 12.6094 16.4062 12 16.4062C11.3906 16.4062 10.8164 16.293 10.2773 16.0664C9.74609 15.832 9.28125 15.5156 8.88281 15.1172C8.48438 14.7188 8.16797 14.2539 7.93359 13.7227C7.70703 13.1836 7.59375 12.6094 7.59375 12C7.59375 11.3906 7.70703 10.8203 7.93359 10.2891C8.16797 9.75 8.48438 9.28125 8.88281 8.88281C9.28125 8.48438 9.74609 8.17188 10.2773 7.94531C10.8164 7.71094 11.3906 7.59375 12 7.59375ZM12 15.0938C12.4297 15.0938 12.832 15.0156 13.207 14.8594C13.582 14.6953 13.9102 14.4727 14.1914 14.1914C14.4727 13.9102 14.6914 13.582 14.8477 13.207C15.0117 12.832 15.0938 12.4297 15.0938 12C15.0938 11.5703 15.0117 11.168 14.8477 10.793C14.6914 10.418 14.4727 10.0898 14.1914 9.80859C13.9102 9.52734 13.582 9.30859 13.207 9.15234C12.832 8.98828 12.4297 8.90625 12 8.90625C11.5703 8.90625 11.168 8.98828 10.793 9.15234C10.418 9.30859 10.0898 9.52734 9.80859 9.80859C9.52734 10.0898 9.30469 10.418 9.14062 10.793C8.98438 11.168 8.90625 11.5703 8.90625 12C8.90625 12.4297 8.98438 12.832 9.14062 13.207C9.30469 13.582 9.52734 13.9102 9.80859 14.1914C10.0898 14.4727 10.418 14.6953 10.793 14.8594C11.168 15.0156 11.5703 15.0938 12 15.0938Z" fill="white"/>
</svg>
