<svg width="24" height="24" viewBox="0 0 24 24" fill="none" xmlns="http://www.w3.org/2000/svg">
<path fill-rule="evenodd" clip-rule="evenodd" d="M9.78155 1L9.01735 4.79396L5.77333 2.64658L2.65844 5.73945L4.82119 8.96062L1 9.71945V14.0999L4.83788 15.0145L2.65844 18.2606L5.77333 21.3534L9.01735 19.206L9.78155 23H14.2185L15.0104 19.0684L18.2267 21.1975L21.3416 18.1046L19.1788 14.8834L23 14.1246V9.71945L19.1788 8.96062L21.3416 5.73945L18.2267 2.64658L14.9826 4.79396L14.2185 1H9.78155ZM11.0769 2.56851H12.9231L13.6714 6.28344L14.9441 6.7047L18.0253 4.66511L19.3086 5.93928L17.2544 8.99878L17.6785 10.2623L21.42 11.0053V12.8388L17.6785 13.5818L17.2544 14.8453L19.3086 17.9048L18.0253 19.1789L14.8274 17.0621L13.6456 17.8443L12.9231 21.4315H11.0769L10.3286 17.7166L9.05587 17.2953L5.97468 19.3349L4.69143 18.0607L6.74563 15.0012L6.32777 13.7565L2.58003 12.8634V11.0053L6.32147 10.2623L6.74563 8.99878L4.69143 5.93928L5.97468 4.66511L9.05587 6.7047L10.3286 6.28344L11.0769 2.56851ZM7.91377 11.9183C7.91377 9.67958 9.74152 7.86476 11.9962 7.86476C14.2508 7.86476 16.0786 9.67958 16.0786 11.9183C16.0786 14.157 14.2508 15.9718 11.9962 15.9718C9.74152 15.9718 7.91377 14.157 7.91377 11.9183ZM11.9962 9.32405C10.5532 9.32405 9.38346 10.4855 9.38346 11.9183C9.38346 13.351 10.5532 14.5125 11.9962 14.5125C13.4391 14.5125 14.6089 13.351 14.6089 11.9183C14.6089 10.4855 13.4391 9.32405 11.9962 9.32405Z" fill="white"/>
</svg>
