<!-- Copyright 2000-2024 JetBrains s.r.o. and contributors. Use of this source code is governed by the Apache 2.0 license. -->
<svg width="16" height="17" viewBox="0 0 16 17" fill="none" xmlns="http://www.w3.org/2000/svg">
<path fill-rule="evenodd" clip-rule="evenodd" d="M16 14C16 15.1046 14.2091 16.0054 12 16.0054C9.79086 16.0054 8 15.1046 8 14V10C8 8.89543 9.79086 8 12 8C14.2091 8 16 8.89543 16 10V14ZM15 10C15 10.0011 14.9999 10.0026 14.9994 10.0054C14.9988 10.0084 14.9972 10.0146 14.9932 10.0243C14.9852 10.044 14.9658 10.0811 14.9222 10.1326C14.831 10.2405 14.6598 10.3805 14.3812 10.5198C13.8235 10.7987 12.983 11 12 11C11.017 11 10.1765 10.7987 9.61879 10.5198C9.3402 10.3805 9.16902 10.2405 9.07781 10.1326C9.03417 10.0811 9.01484 10.044 9.00676 10.0243C9.00277 10.0146 9.00124 10.0084 9.00064 10.0054C9.00007 10.0026 9 10.0011 9 10C9 9.99894 9.00007 9.99739 9.00064 9.99456C9.00124 9.99161 9.00277 9.98543 9.00676 9.9757C9.01484 9.95595 9.03417 9.91894 9.07781 9.86735C9.16902 9.75953 9.3402 9.61951 9.61879 9.48021C10.1765 9.20134 11.017 9 12 9C12.983 9 13.8235 9.20134 14.3812 9.48021C14.6598 9.61951 14.831 9.75953 14.9222 9.86735C14.9658 9.91894 14.9852 9.95595 14.9932 9.9757C14.9972 9.98543 14.9988 9.99161 14.9994 9.99456C14.9999 9.99739 15 9.99894 15 10ZM15 11.3229C14.2671 11.7381 13.1947 12 12 12C10.8053 12 9.73294 11.7381 9 11.3229V11.9946C8.99942 11.9974 9 12 9 12C9 12 9.00007 12.0026 9.00064 12.0055C9.00124 12.0084 9.00277 12.0146 9.00676 12.0243C9.01484 12.0441 9.03417 12.0811 9.07781 12.1327C9.16902 12.2405 9.3402 12.3805 9.61879 12.5198C10.1765 12.7987 11.017 13 12 13C12.983 13 13.8235 12.7987 14.3812 12.5198C14.6598 12.3805 14.831 12.2405 14.9222 12.1327C14.9658 12.0811 14.9852 12.0441 14.9932 12.0243C14.9972 12.0146 14.9988 12.0084 14.9994 12.0055C14.9999 12.0026 15 12 15 12C15 12 14.9999 11.9974 14.9994 11.9946L15 11.3229ZM15 13.3229C14.2671 13.7381 13.1947 14 12 14C10.8053 14 9.73294 13.7381 9 13.3229V14C8.99942 14.0028 9 14.0054 9 14.0054C9 14.0054 9.00007 14.0081 9.00064 14.0109C9.00124 14.0138 9.00277 14.02 9.00676 14.0297C9.01484 14.0495 9.03417 14.0865 9.07781 14.1381C9.16902 14.2459 9.3402 14.3859 9.61879 14.5252C10.1765 14.8041 11.017 15.0054 12 15.0054C12.983 15.0054 13.8235 14.8041 14.3812 14.5252C14.6598 14.3859 14.831 14.2459 14.9222 14.1381C14.9658 14.0865 14.9852 14.0495 14.9932 14.0297C14.9972 14.02 14.9988 14.0138 14.9994 14.0109C14.9999 14.0081 15 14.0054 15 14.0054C15 14.0054 15 14.0046 14.9999 14.0033C14.9998 14.0024 14.9996 14.0012 14.9994 14L15 13.3229Z" fill="#548AF7"/>
<path d="M2.63333 2C1.73127 2 1 2.83574 1 3.86667V12.1333C1 13.1643 1.73127 14 2.63333 14L7 13.9999V10C7 8.86489 7.8942 8.10644 8.72436 7.69136C9.61434 7.24637 10.7738 7 12 7C13.1032 7 14.1525 7.19944 15 7.56354V6C15 4.89543 14.1046 4 13 4L8.46667 4L6.84336 2.30775C6.65477 2.11115 6.39413 2 6.1217 2H2.63333Z" fill="#43454A"/>
<path d="M6.1217 3L2.63333 3C2.40481 3 2 3.25841 2 3.86667V12.1333C2 12.7416 2.40481 13 2.63333 13H7V14H2.63333C1.73127 14 1 13.1643 1 12.1333V3.86667C1 2.83574 1.73127 2 2.63333 2H6.1217C6.39413 2 6.65477 2.11115 6.84336 2.30775L8.46667 4L13 4C14.1046 4 15 4.89543 15 6V7.56354C14.6911 7.43083 14.3554 7.31999 14 7.23272V6C14 5.44771 13.5523 5 13 5H8.04022L6.1217 3Z" fill="#CED0D6"/>
</svg>
