<!-- Copyright © 2000–2024 JetBrains s.r.o. -->
<svg width="16" height="16" viewBox="0 0 16 16" xmlns="http://www.w3.org/2000/svg">
  <path fill="#43454A" d="M6 11.74C6 9.31 7.74 8 9.37 8c.18 0 .36.02.53.06.09-.53.33-1.05.7-1.49.6-.71 1.44-1.14 2.3-1.19h.05c.51 0 .94.38.99.89.07.61-.07 1.24-.4 1.81.23.05.48.13.72.24.07.03.22-.03.22-.03V6.01c0-.83-.67-1.5-1.5-1.5H8.17l-1.89-2h-3.3c-.83 0-1.5.67-1.5 1.5v8c0 .83.67 1.5 1.5 1.5h3.2s.08-.11.06-.17c-.16-.56-.26-1.11-.26-1.59z"/>
  <path fill="none" stroke="#CED0D6" stroke-linecap="round" stroke-linejoin="round" d="M14.5 7.86V6c0-.83-.67-1.5-1.5-1.5H8.19l-1.89-2H3c-.83 0-1.5.67-1.5 1.5v8c0 .83.67 1.5 1.5 1.5h2.79"/>
  <path fill="#CED0D6" d="M10.88 8.7c-.14-1.08.89-2.26 2.08-2.32.14 1.22-1.04 2.4-2.08 2.32"/>
  <path fill="#43454A" stroke="#CED0D6" stroke-linejoin="round" d="M12.91 15.5c-.42 0-.92-.39-1.72-.39-.8 0-1.32.39-1.68.39-.58 0-2.01-2.01-2.01-3.76 0-1.52.97-2.24 1.87-2.24.39 0 1.24.45 1.7.45.58 0 1.2-.45 1.82-.45.41 0 1.06.23 1.25.52-.62.5-.89 1.17-.89 1.81 0 .85.48 1.65 1.25 1.93-.42.87-1.21 1.74-1.59 1.74Z"/>
</svg>
