<svg width="16" height="16" viewBox="0 0 16 16" fill="none" xmlns="http://www.w3.org/2000/svg">
<path d="M1 3.86667C1 2.83574 1.7835 2 2.75 2H6.03823C6.29871 2 6.5489 2.10163 6.73559 2.28327L8.5 4L13 4C14.1046 4 15 4.89543 15 6V8H11C9.89543 8 9 8.89543 9 10V14H2.75C1.7835 14 1 13.1643 1 12.1333V3.86667Z" fill="#43454A"/>
<path d="M12 12H14V11H12V12Z" fill="#F2C55C"/>
<path d="M12 14H14V13H12V14Z" fill="#F2C55C"/>
<path fill-rule="evenodd" clip-rule="evenodd" d="M10 10C10 9.44772 10.4477 9 11 9H15C15.5523 9 16 9.44772 16 10V15C16 15.5523 15.5523 16 15 16H11C10.4477 16 10 15.5523 10 15V10ZM11 10H15V15H11L11 10Z" fill="#F2C55C"/>
<path d="M6.03823 3L8.09379 5H13C13.5523 5 14 5.44772 14 6V8H15V6C15 4.89543 14.1046 4 13 4L8.5 4L6.73559 2.28327C6.5489 2.10163 6.29871 2 6.03823 2H2.75C1.7835 2 1 2.83574 1 3.86667V12.1333C1 13.1643 1.7835 14 2.75 14H9V13H2.75C2.3956 13 2 12.6738 2 12.1333V3.86667C2 3.32624 2.3956 3 2.75 3H6.03823Z" fill="#CED0D6"/>
</svg>
