<!-- Copyright 2000-2023 JetBrains s.r.o. and contributors. Use of this source code is governed by the Apache 2.0 license. -->
<svg width="16" height="16" viewBox="0 0 16 16" fill="none" xmlns="http://www.w3.org/2000/svg">
<path d="M1 3.86667C1 2.83574 1.7835 2 2.75 2H6.03823C6.29871 2 6.5489 2.10163 6.73559 2.28327L8.5 4L13 4C14.1046 4 15 4.89543 15 6V9H9C8.44772 9 8 9.44772 8 10V14H2.75C1.7835 14 1 13.1643 1 12.1333V3.86667Z" fill="#43454A"/>
<path d="M8.09379 5H13C13.5523 5 14 5.44772 14 6V9H15V6C15 4.89543 14.1046 4 13 4L8.5 4L6.73559 2.28327C6.5489 2.10163 6.29871 2 6.03823 2H2.75C1.7835 2 1 2.83574 1 3.86667V12.1333C1 13.1643 1.7835 14 2.75 14H8V13H2.75C2.3956 13 2 12.6738 2 12.1333V3.86667C2 3.32624 2.3956 3 2.75 3H6.03823L8.09379 5Z" fill="#CED0D6"/>
<rect x="9" y="10" width="7" height="1" rx="0.5" fill="#57965c"/>
<rect x="9" y="12" width="7" height="1" rx="0.5" fill="#57965c"/>
<rect x="9" y="14" width="7" height="1" rx="0.5" fill="#57965c"/>
</svg>
