<!-- Copyright 2000-2024 JetBrains s.r.o. and contributors. Use of this source code is governed by the Apache 2.0 license. -->
<svg width="16" height="16" viewBox="0 0 16 16" fill="none" xmlns="http://www.w3.org/2000/svg">
<path d="M1 3.86667C1 2.83574 1.73127 2 2.63333 2H6.1217C6.39413 2 6.65477 2.11115 6.84336 2.30775L8.46667 4L13 4C14.1046 4 15 4.89543 15 6V8H8.5C7.67157 8 7 8.67157 7 9.5V14H2.63333C1.73127 14 1 13.1643 1 12.1333V3.86667Z" fill="#43454A"/>
<path d="M2.63333 3L6.1217 3L8.04022 5H13C13.5523 5 14 5.44771 14 6V8H15V6C15 4.89543 14.1046 4 13 4L8.46667 4L6.84336 2.30775C6.65477 2.11115 6.39413 2 6.1217 2H2.63333C1.73127 2 1 2.83574 1 3.86667V12.1333C1 13.1643 1.73127 14 2.63333 14H7V13H2.63333C2.40481 13 2 12.7416 2 12.1333V3.86667C2 3.25841 2.40481 3 2.63333 3Z" fill="#CED0D6"/>
<path fill-rule="evenodd" clip-rule="evenodd" d="M8 9.5C8 9.22386 8.22386 9 8.5 9H15.5C15.7761 9 16 9.22386 16 9.5V11.5C16 11.7761 15.7761 12 15.5 12H8.5C8.22386 12 8 11.7761 8 11.5V9.5ZM9 10H10V11H9V10ZM11 10V11H15V10H11Z" fill="#548AF7"/>
<path fill-rule="evenodd" clip-rule="evenodd" d="M8 13.5C8 13.2239 8.22386 13 8.5 13H15.5C15.7761 13 16 13.2239 16 13.5V15.5C16 15.7761 15.7761 16 15.5 16H8.5C8.22386 16 8 15.7761 8 15.5V13.5ZM9 14H10V15H9V14ZM11 14V15H15V14H11Z" fill="#548AF7"/>
</svg>
