<!-- Copyright © 2000–2024 JetBrains s.r.o. -->
<svg width="16" height="16" viewBox="0 0 16 16" xmlns="http://www.w3.org/2000/svg">
  <path fill="none" stroke="#57965C" stroke-linecap="round" stroke-miterlimit="10" d="m13.85 9.67 1.14-1.57m-6.98 0 1.14 1.57"/>
  <path fill="#253627" fill-rule="evenodd" stroke="#57965C" stroke-linejoin="round" d="M15.5 14.5v-1.6c0-2.21-1.79-4-4-4s-4 1.79-4 4v1.6z" clip-rule="evenodd"/>
  <path fill="#57965C" d="M10.1 12.7a.6.6 0 1 0 0-1.2.6.6 0 0 0 0 1.2m2.8 0a.6.6 0 1 0 0-1.2.6.6 0 0 0 0 1.2"/>
  <path fill="#43454A" d="M6 12.9c0-1.24.42-2.43 1.18-3.39l-.39-.54c-.23-.32-.33-.72-.27-1.11.06-.4.28-.75.6-.98.27-.19.57-.28.88-.28.48 0 .93.23 1.21.61l.38.53c.6-.22 1.24-.34 1.9-.34.66 0 1.3.12 1.9.34l.38-.53c.18-.25.43-.42.72-.52V6c0-.83-.67-1.5-1.5-1.5H8.18l-1.89-2h-3.3c-.83 0-1.5.67-1.5 1.5v8c0 .83.67 1.5 1.5 1.5h3v-.6z"/>
  <path fill="none" stroke="#CED0D6" stroke-linecap="round" stroke-linejoin="round" d="M14.5 6.16V6c0-.83-.67-1.5-1.5-1.5H8.19l-1.89-2H3c-.83 0-1.5.67-1.5 1.5v8c0 .83.67 1.5 1.5 1.5h2.5"/>
</svg>
