<!-- Copyright 2000-2023 JetBrains s.r.o. and contributors. Use of this source code is governed by the Apache 2.0 license. -->
<svg width="16" height="16" viewBox="0 0 16 16" fill="none" xmlns="http://www.w3.org/2000/svg">
<path fill-rule="evenodd" clip-rule="evenodd" d="M12.5 9C12.7761 9 13 9.22386 13 9.5V12H15.5C15.7761 12 16 12.2239 16 12.5C16 12.7761 15.7761 13 15.5 13H13V15.5C13 15.7761 12.7761 16 12.5 16C12.2239 16 12 15.7761 12 15.5V13H9.5C9.22386 13 9 12.7761 9 12.5C9 12.2239 9.22386 12 9.5 12H12V9.5C12 9.22386 12.2239 9 12.5 9Z" fill="#548AF7"/>
<path d="M2.63333 2C1.73127 2 1 2.83574 1 3.86667V12.1333C1 13.1643 1.73127 14 2.63333 14H8V11C8 9.34315 9.34315 8 11 8H15V6C15 4.89543 14.1046 4 13 4L8.46667 4L6.84336 2.30775C6.65477 2.11115 6.39413 2 6.1217 2H2.63333Z" fill="#43454A"/>
<path d="M6.1217 3L2.63333 3C2.40481 3 2 3.25841 2 3.86667V12.1333C2 12.7416 2.40481 13 2.63333 13H8V14H2.63333C1.73127 14 1 13.1643 1 12.1333V3.86667C1 2.83574 1.73127 2 2.63333 2H6.1217C6.39413 2 6.65477 2.11115 6.84336 2.30775L8.46667 4L13 4C14.1046 4 15 4.89543 15 6V8H14V6C14 5.44771 13.5523 5 13 5H8.04022L6.1217 3Z" fill="#CED0D6"/>
<path d="M10 10.9979C10 10.4456 10.4477 9.99792 11 9.99792H14C14.5523 9.99792 15 10.4456 15 10.9979V13.9979C15 14.5502 14.5523 14.9979 14 14.9979H11C10.4477 14.9979 10 14.5502 10 13.9979V10.9979Z" fill="#43454A"/>
<path d="M11.5 12.9979C11.2239 12.9979 11 13.2218 11 13.4979C11 13.7741 11.2239 13.9979 11.5 13.9979H12.5C12.7761 13.9979 13 13.7741 13 13.4979C13 13.2218 12.7761 12.9979 12.5 12.9979H11.5Z" fill="#CED0D6"/>
<path fill-rule="evenodd" clip-rule="evenodd" d="M14 8.99792H11C9.89543 8.99792 9 9.89336 9 10.9979V13.9979C9 15.1025 9.89543 15.9979 11 15.9979H14C15.1046 15.9979 16 15.1025 16 13.9979V10.9979C16 9.89336 15.1046 8.99792 14 8.99792ZM10 10.9979C10 10.4456 10.4477 9.99792 11 9.99792H14C14.5523 9.99792 15 10.4456 15 10.9979V13.9979C15 14.5502 14.5523 14.9979 14 14.9979H11C10.4477 14.9979 10 14.5502 10 13.9979V10.9979Z" fill="#CED0D6"/>
</svg>
