<!-- Copyright 2000-2023 JetBrains s.r.o. and contributors. Use of this source code is governed by the Apache 2.0 license. -->
<svg width="16" height="16" viewBox="0 0 16 16" fill="none" xmlns="http://www.w3.org/2000/svg">
<g clip-path="url(#clip0_2772_38609)">
<g clip-path="url(#clip1_2772_38609)">
<path d="M1 3.86667C1 2.83574 1.7835 2 2.75 2H6.03823C6.29871 2 6.5489 2.10163 6.73559 2.28327L8.5 4L13 4C14.1046 4 15 4.89543 15 6V9.36567L11.8237 7.38319C10.1585 6.34387 8 7.54109 8 9.50399V14H2.75C1.7835 14 1 13.1643 1 12.1333V3.86667Z" fill="#43454A"/>
<path fill-rule="evenodd" clip-rule="evenodd" d="M9 9.50215C9 8.32441 10.2951 7.60608 11.2942 8.22967L15.2962 10.7275C16.2372 11.3149 16.2372 12.6851 15.2962 13.2725L11.2942 15.7703C10.2951 16.3939 9 15.6756 9 14.4978V9.50215ZM10.7647 9.07799C10.4317 8.87013 10 9.10957 10 9.50215V14.4978C10 14.8904 10.4317 15.1298 10.7647 14.922L14.7667 12.4241C15.0804 12.2284 15.0804 11.7716 14.7667 11.5758L10.7647 9.07799Z" fill="#844ef0"/>
<path d="M10 9.50217C10 9.10959 10.4317 8.87015 10.7647 9.07801L14.7667 11.5758C15.0804 11.7716 15.0804 12.2284 14.7667 12.4242L10.7647 14.922C10.4317 15.1299 10 14.8904 10 14.4978V9.50217Z" fill="#253627"/>
<path d="M6.03823 3L8.09379 5H13C13.5523 5 14 5.44772 14 6V8.74152L15 9.36567V6C15 4.89543 14.1046 4 13 4L8.5 4L6.73559 2.28327C6.5489 2.10163 6.29871 2 6.03823 2H2.75C1.7835 2 1 2.83574 1 3.86667V12.1333C1 13.1643 1.7835 14 2.75 14H8V13H2.75C2.3956 13 2 12.6738 2 12.1333V3.86667C2 3.32624 2.3956 3 2.75 3H6.03823Z" fill="#CED0D6"/>
</g>
</g>
<defs>
<clipPath id="clip0_2772_38609">
<rect width="16" height="16" fill="white"/>
</clipPath>
<clipPath id="clip1_2772_38609">
<rect width="16" height="16" fill="white"/>
</clipPath>
</defs>
</svg>
