<svg width="14" height="14" viewBox="0 0 14 14" fill="none" xmlns="http://www.w3.org/2000/svg">
<path d="M3.69724 12.9423C3.34625 12.9423 3.0464 12.818 2.7977 12.5694C2.54911 12.3207 2.42482 12.0208 2.42482 11.6698V2.73612H1.72095V1.68031H4.88837V1.05774H9.1116V1.68031H12.279V2.73612H11.5752V11.6698C11.5752 12.0254 11.452 12.3264 11.2056 12.5727C10.9593 12.8191 10.6583 12.9423 10.3027 12.9423H3.69724ZM10.5193 2.73612H3.48063V11.6698C3.48063 11.7331 3.50092 11.785 3.54151 11.8256C3.5821 11.8662 3.63401 11.8865 3.69724 11.8865H10.3027C10.3569 11.8865 10.4065 11.8639 10.4516 11.8187C10.4968 11.7737 10.5193 11.724 10.5193 11.6698V2.73612ZM5.17273 10.4787H6.22837V4.14386H5.17273V10.4787ZM7.7716 10.4787H8.82724V4.14386H7.7716V10.4787Z" fill="black"/>
</svg>
