<svg width="14" height="14" viewBox="0 0 14 14" fill="none" xmlns="http://www.w3.org/2000/svg">
<g clip-path="url(#clip0_217_161)">
<path d="M0.616 12.5L2.114 5.64L2.87 2.21H4.13L6.384 12.5H5.264L4.718 9.84H2.282L1.736 12.5H0.616ZM2.478 8.86H4.522L3.864 5.64C3.79867 5.34133 3.73333 5.04267 3.668 4.744C3.612 4.44533 3.556 4.14667 3.5 3.848C3.444 4.14667 3.38333 4.44533 3.318 4.744C3.262 5.04267 3.20133 5.34133 3.136 5.64L2.478 8.86ZM9.996 12.612C9.716 12.612 9.43133 12.5747 9.142 12.5C8.862 12.4253 8.61467 12.2947 8.4 12.108C8.18533 11.912 8.02667 11.6787 7.924 11.408C7.83067 11.128 7.784 10.8433 7.784 10.554C7.784 10.3207 7.812 10.0873 7.868 9.854C7.93333 9.62067 8.036 9.41067 8.176 9.224C8.32533 9.028 8.50267 8.86467 8.708 8.734C8.91333 8.60333 9.128 8.50067 9.352 8.426C9.576 8.342 9.80467 8.286 10.038 8.258C10.2807 8.23 10.5233 8.216 10.766 8.216H12.012V7.53C12.012 7.334 11.9793 7.138 11.914 6.942C11.8487 6.746 11.7413 6.58267 11.592 6.452C11.4427 6.32133 11.27 6.228 11.074 6.172C10.878 6.116 10.682 6.088 10.486 6.088C10.3087 6.088 10.1313 6.10667 9.954 6.144C9.77667 6.172 9.60867 6.23733 9.45 6.34C9.30067 6.43333 9.17933 6.55933 9.086 6.718C9.002 6.87667 8.96 7.04467 8.96 7.222V7.25H7.868V7.208C7.868 6.99333 7.90067 6.788 7.966 6.592C8.03133 6.38667 8.12467 6.2 8.246 6.032C8.36733 5.85467 8.512 5.70533 8.68 5.584C8.85733 5.46267 9.044 5.36933 9.24 5.304C9.44533 5.22933 9.65067 5.178 9.856 5.15C10.0613 5.122 10.2713 5.108 10.486 5.108C10.71 5.108 10.934 5.12667 11.158 5.164C11.382 5.192 11.5967 5.25267 11.802 5.346C12.0073 5.43933 12.194 5.56067 12.362 5.71C12.5393 5.85933 12.684 6.032 12.796 6.228C12.908 6.424 12.9873 6.634 13.034 6.858C13.0807 7.082 13.104 7.306 13.104 7.53V12.5H12.012V11.296C11.9373 11.492 11.83 11.6787 11.69 11.856C11.5593 12.024 11.4053 12.1687 11.228 12.29C11.0507 12.4113 10.8547 12.4953 10.64 12.542C10.4253 12.5887 10.2107 12.612 9.996 12.612ZM10.43 11.632C10.654 11.632 10.8687 11.5993 11.074 11.534C11.2887 11.4593 11.466 11.3427 11.606 11.184C11.7553 11.0253 11.858 10.8387 11.914 10.624C11.9793 10.4093 12.012 10.1947 12.012 9.98V9.196H10.766C10.6167 9.196 10.472 9.20533 10.332 9.224C10.192 9.23333 10.052 9.25667 9.912 9.294C9.78133 9.33133 9.65067 9.38267 9.52 9.448C9.38933 9.504 9.27267 9.58333 9.17 9.686C9.06733 9.78867 8.99267 9.91 8.946 10.05C8.89933 10.1807 8.876 10.316 8.876 10.456C8.876 10.6427 8.918 10.82 9.002 10.988C9.09533 11.156 9.21667 11.2913 9.366 11.394C9.52467 11.4873 9.69733 11.5527 9.884 11.59C10.0707 11.618 10.2527 11.632 10.43 11.632Z" fill="black"/>
</g>
<defs>
<clipPath id="clip0_217_161">
<rect width="14" height="14" fill="white"/>
</clipPath>
</defs>
</svg>
