<svg width="14" height="14" viewBox="0 0 14 14" fill="none" xmlns="http://www.w3.org/2000/svg">
<path d="M4.25885 8.42153C4.25885 8.19753 4.26818 7.97353 4.28685 7.74953C4.30552 7.52553 4.34285 7.30619 4.39885 7.09153C4.46418 6.86753 4.55285 6.65753 4.66485 6.46153C4.77685 6.25619 4.89818 6.06486 5.02885 5.88753C5.16885 5.70086 5.31352 5.52353 5.46285 5.35553C5.61219 5.18753 5.75219 5.01019 5.88285 4.82353C6.01352 4.63686 6.11619 4.43619 6.19085 4.22153C6.27485 4.00686 6.31685 3.78753 6.31685 3.56353C6.31685 3.36753 6.27952 3.17153 6.20485 2.97553C6.13952 2.77953 6.03219 2.61619 5.88285 2.48553C5.74285 2.34553 5.57485 2.24753 5.37885 2.19153C5.18285 2.12619 4.98685 2.09353 4.79085 2.09353C4.58552 2.09353 4.38018 2.12619 4.17485 2.19153C3.97885 2.25686 3.81085 2.36886 3.67085 2.52753C3.53085 2.67686 3.42818 2.85419 3.36285 3.05953C3.29752 3.25553 3.26485 3.45619 3.26485 3.66153V3.74553H2.17285V3.61953C2.17285 3.38619 2.19618 3.15753 2.24285 2.93353C2.29885 2.70953 2.37818 2.49953 2.48085 2.30353C2.59285 2.09819 2.73285 1.91619 2.90085 1.75753C3.06885 1.59886 3.25552 1.47286 3.46085 1.37953C3.66619 1.27686 3.88085 1.20686 4.10485 1.16953C4.33819 1.13219 4.56685 1.11353 4.79085 1.11353C5.01485 1.11353 5.23885 1.13219 5.46285 1.16953C5.68685 1.20686 5.90152 1.27219 6.10685 1.36553C6.31218 1.45886 6.49885 1.58486 6.66685 1.74353C6.83485 1.89286 6.97485 2.06553 7.08685 2.26153C7.19885 2.45753 7.27818 2.66753 7.32485 2.89153C7.38085 3.11553 7.40885 3.33953 7.40885 3.56353C7.40885 3.78753 7.38085 4.01153 7.32485 4.23553C7.27818 4.45953 7.20819 4.67419 7.11485 4.87953C7.03085 5.08486 6.92818 5.28553 6.80685 5.48153C6.68552 5.66819 6.55485 5.85019 6.41485 6.02753C6.27485 6.20486 6.13019 6.38219 5.98085 6.55953C5.83152 6.72753 5.70552 6.91419 5.60285 7.11953C5.50019 7.31553 5.43018 7.52553 5.39285 7.74953C5.36485 7.97353 5.35085 8.19753 5.35085 8.42153H4.25885ZM4.80485 11.6275C4.67419 11.6275 4.54352 11.6089 4.41285 11.5715C4.28219 11.5342 4.17018 11.4689 4.07685 11.3755C3.98352 11.2729 3.91818 11.1609 3.88085 11.0395C3.84352 10.9089 3.82485 10.7735 3.82485 10.6335C3.82485 10.5029 3.84352 10.3769 3.88085 10.2555C3.91818 10.1249 3.98352 10.0129 4.07685 9.91953C4.17018 9.81686 4.28219 9.74686 4.41285 9.70953C4.54352 9.67219 4.67419 9.65353 4.80485 9.65353C4.93552 9.65353 5.06618 9.67219 5.19685 9.70953C5.32752 9.74686 5.43952 9.81686 5.53285 9.91953C5.62618 10.0129 5.69152 10.1249 5.72885 10.2555C5.77552 10.3769 5.79885 10.5029 5.79885 10.6335C5.79885 10.7735 5.77552 10.9089 5.72885 11.0395C5.69152 11.1609 5.62618 11.2729 5.53285 11.3755C5.43952 11.4689 5.32752 11.5342 5.19685 11.5715C5.06618 11.6089 4.93552 11.6275 4.80485 11.6275Z" fill="black"/>
<path d="M8.70245 12.8866V8.51858H9.35765V9.31658C9.40245 9.19338 9.45845 9.07578 9.52565 8.96378C9.59845 8.85178 9.68525 8.75658 9.78605 8.67818C9.89245 8.59978 10.0101 8.54378 10.1389 8.51018C10.2677 8.47098 10.3965 8.45138 10.5253 8.45138C10.6653 8.45138 10.7997 8.47098 10.9285 8.51018C11.0629 8.54938 11.1833 8.61378 11.2897 8.70338C11.3961 8.79298 11.4829 8.89658 11.5501 9.01418C11.6229 9.13178 11.6789 9.25778 11.7181 9.39218C11.7629 9.52098 11.7909 9.65538 11.8021 9.79538C11.8189 9.92978 11.8273 10.0642 11.8273 10.1986V12.8866H11.1721V10.1986C11.1721 10.1034 11.1665 10.011 11.1553 9.92138C11.1441 9.82618 11.1245 9.73658 11.0965 9.65258C11.0685 9.56298 11.0265 9.47898 10.9705 9.40058C10.9201 9.32218 10.8585 9.25498 10.7857 9.19898C10.7129 9.14298 10.6317 9.10378 10.5421 9.08138C10.4525 9.05338 10.3601 9.03938 10.2649 9.03938C10.1697 9.03938 10.0773 9.05338 9.98765 9.08138C9.89805 9.10378 9.81685 9.14298 9.74405 9.19898C9.67125 9.25498 9.60685 9.32218 9.55085 9.40058C9.50045 9.47898 9.46125 9.56298 9.43325 9.65258C9.40525 9.73658 9.38565 9.82618 9.37445 9.92138C9.36325 10.011 9.35765 10.1034 9.35765 10.1986V12.8866H8.70245Z" fill="black"/>
</svg>
