<svg width="14" height="14" viewBox="0 0 14 14" fill="none" xmlns="http://www.w3.org/2000/svg">
<path d="M6.53672 12.6476C6.34747 12.6476 6.18915 12.5838 6.06176 12.4563C5.93425 12.3289 5.8705 12.1706 5.8705 11.9814V7.62274L1.65514 2.2677C1.51031 2.07455 1.48929 1.87375 1.59208 1.66529C1.69499 1.45671 1.86856 1.35242 2.11278 1.35242H11.8872C12.1315 1.35242 12.305 1.45671 12.408 1.66529C12.5107 1.87375 12.4897 2.07455 12.3449 2.2677L8.12953 7.62274V11.9814C8.12953 12.1706 8.06578 12.3289 7.93827 12.4563C7.81088 12.5838 7.65256 12.6476 7.4633 12.6476H6.53672ZM7.00001 7.2259L10.7274 2.48193H3.27261L7.00001 7.2259Z" fill="black"/>
</svg>
