<svg width="14" height="14" viewBox="0 0 14 14" fill="none" xmlns="http://www.w3.org/2000/svg">
<path d="M7.6453 13.25V12.2741C8.00208 12.2216 8.35098 12.1272 8.69202 11.9908C9.03305 11.8544 9.35572 11.676 9.66003 11.4556L10.3235 12.1384C9.92316 12.442 9.4988 12.688 9.05042 12.8765C8.60204 13.0649 8.13366 13.1895 7.6453 13.25ZM6.38609 13.25C5.03087 13.0732 3.90503 12.4815 3.00858 11.475C2.11224 10.4685 1.66406 9.28675 1.66406 7.92985C1.66406 7.18723 1.80452 6.49146 2.08543 5.84255C2.36633 5.19354 2.74814 4.62768 3.23083 4.14498C3.71353 3.66229 4.27939 3.28048 4.9284 2.99958C5.57731 2.71867 6.27308 2.57821 7.0157 2.57821H7.3039L6.15849 1.43281L6.82194 0.75L9.12235 3.05042L6.82194 5.35083L6.15849 4.68739L7.32326 3.52262H7.0157C5.78797 3.52262 4.7465 3.95022 3.89129 4.80544C3.03607 5.66065 2.60847 6.70212 2.60847 7.92985C2.60847 9.02116 2.96524 9.97868 3.6788 10.8024C4.39235 11.6261 5.29478 12.1208 6.38609 12.2862V13.25ZM11.2243 11.2376L10.5415 10.5742C10.7618 10.2699 10.9412 9.9482 11.0796 9.60916C11.218 9.27012 11.3155 8.92021 11.3721 8.55945H12.3359C12.2834 9.04372 12.1619 9.51005 11.9713 9.95843C11.7809 10.4068 11.5318 10.8332 11.2243 11.2376ZM12.3359 7.30024H11.3721C11.3155 6.93948 11.218 6.58958 11.0796 6.25054C10.9412 5.91149 10.7618 5.58982 10.5415 5.28551L11.2243 4.62206C11.5279 4.995 11.7732 5.40886 11.9604 5.86364C12.1478 6.31853 12.2729 6.7974 12.3359 7.30024Z" fill="black"/>
</svg>
