<svg width="14" height="14" viewBox="0 0 14 14" fill="none" xmlns="http://www.w3.org/2000/svg">
<g clip-path="url(#clip0_217_164)">
<path d="M3.15427 12.449V3.32097L1.19427 4.86097L0.592273 4.17497L3.15427 2.15897H4.24627V12.449H3.15427ZM7.33187 7.51617C7.20867 7.51617 7.08547 7.50777 6.96227 7.49097C6.84467 7.47977 6.72707 7.45737 6.60947 7.42377C6.49187 7.38457 6.37987 7.33417 6.27347 7.27257C6.17267 7.20537 6.08307 7.12697 6.00467 7.03737C5.92627 6.94217 5.86467 6.83577 5.81987 6.71817C5.78067 6.60057 5.76107 6.48017 5.76107 6.35697V6.31497H6.41627V6.34017C6.41627 6.44097 6.44707 6.53337 6.50867 6.61737C6.57027 6.70137 6.64587 6.76857 6.73547 6.81897C6.83067 6.86377 6.92867 6.89457 7.02947 6.91137C7.13027 6.92257 7.23107 6.92817 7.33187 6.92817C7.43267 6.92817 7.53347 6.91977 7.63427 6.90297C7.74067 6.88617 7.83867 6.85537 7.92827 6.81057C8.01787 6.76577 8.09347 6.70137 8.15507 6.61737C8.22227 6.52777 8.25587 6.43257 8.25587 6.33177C8.25587 6.23097 8.22787 6.14137 8.17187 6.06297C8.11587 5.97897 8.04587 5.91177 7.96187 5.86137C7.88347 5.80537 7.79947 5.76057 7.70987 5.72697C7.62027 5.69337 7.52787 5.66257 7.43267 5.63457C7.34307 5.60657 7.25067 5.57857 7.15547 5.55057C7.06587 5.51697 6.97627 5.48337 6.88667 5.44977C6.79707 5.41057 6.71027 5.36857 6.62627 5.32377C6.54227 5.27897 6.46107 5.22857 6.38267 5.17257C6.30427 5.11097 6.23147 5.04657 6.16427 4.97937C6.09707 4.90657 6.03827 4.83097 5.98787 4.75257C5.94307 4.66857 5.90667 4.57897 5.87867 4.48377C5.85627 4.38857 5.84507 4.29337 5.84507 4.19817C5.84507 4.08057 5.86187 3.96297 5.89547 3.84537C5.93467 3.72777 5.99067 3.62137 6.06347 3.52617C6.13627 3.43097 6.22307 3.34977 6.32387 3.28257C6.42467 3.21537 6.53107 3.16217 6.64307 3.12297C6.75507 3.07817 6.86987 3.05017 6.98747 3.03897C7.11067 3.02217 7.23107 3.01377 7.34867 3.01377C7.46627 3.01377 7.58387 3.02217 7.70147 3.03897C7.81907 3.05017 7.93387 3.07537 8.04587 3.11457C8.15787 3.15377 8.26427 3.20697 8.36507 3.27417C8.46587 3.33577 8.55267 3.41417 8.62547 3.50937C8.69827 3.59897 8.75427 3.70257 8.79347 3.82017C8.83267 3.93217 8.85227 4.04697 8.85227 4.16457V4.21497H8.19707V4.18977C8.19707 4.09457 8.16907 4.00497 8.11307 3.92097C8.06267 3.83697 7.99547 3.77257 7.91147 3.72777C7.82747 3.67737 7.73507 3.64377 7.63427 3.62697C7.53907 3.61017 7.44387 3.60177 7.34867 3.60177C7.25347 3.60177 7.15547 3.61017 7.05467 3.62697C6.95947 3.64377 6.86987 3.67737 6.78587 3.72777C6.70187 3.77257 6.63187 3.83977 6.57587 3.92937C6.51987 4.01337 6.49187 4.10297 6.49187 4.19817C6.49187 4.29337 6.51987 4.38297 6.57587 4.46697C6.63187 4.55097 6.69907 4.62097 6.77747 4.67697C6.85587 4.72737 6.93987 4.76937 7.02947 4.80297C7.12467 4.83657 7.21707 4.86737 7.30667 4.89537C7.40187 4.92337 7.49427 4.95417 7.58387 4.98777C7.67347 5.01577 7.76307 5.04937 7.85267 5.08857C7.94227 5.12217 8.02907 5.16137 8.11307 5.20617C8.20267 5.25097 8.28387 5.30137 8.35667 5.35737C8.43507 5.41337 8.50787 5.47777 8.57507 5.55057C8.64227 5.61777 8.70107 5.69337 8.75147 5.77737C8.80187 5.86137 8.83827 5.95097 8.86067 6.04617C8.88867 6.13577 8.90267 6.23097 8.90267 6.33177C8.90267 6.45497 8.88027 6.57537 8.83547 6.69297C8.79627 6.81057 8.73747 6.91697 8.65907 7.01217C8.58627 7.10737 8.49667 7.18857 8.39027 7.25577C8.28387 7.32297 8.17187 7.37617 8.05427 7.41537C7.94227 7.45457 7.82467 7.47977 7.70147 7.49097C7.57827 7.50777 7.45507 7.51617 7.33187 7.51617ZM11.9547 7.51617C11.8315 7.51617 11.7055 7.49937 11.5767 7.46577C11.4535 7.43217 11.3387 7.37897 11.2323 7.30617C11.1315 7.23337 11.0447 7.14377 10.9719 7.03737C10.9047 6.93097 10.8487 6.81897 10.8039 6.70137C10.7647 6.57817 10.7367 6.45497 10.7199 6.33177C10.7031 6.20297 10.6947 6.07417 10.6947 5.94537V3.66897H9.88827V3.08097H10.6947V1.27497H11.3499V3.08097H12.8283V3.66897H11.3499V5.94537C11.3499 6.01817 11.3527 6.09097 11.3583 6.16377C11.3639 6.23657 11.3751 6.30937 11.3919 6.38217C11.4087 6.44937 11.4311 6.51657 11.4591 6.58377C11.4871 6.64537 11.5235 6.70417 11.5683 6.76017C11.6187 6.81617 11.6775 6.85817 11.7447 6.88617C11.8119 6.91417 11.8819 6.92817 11.9547 6.92817C12.0275 6.92817 12.0947 6.91417 12.1563 6.88617C12.2235 6.85817 12.2795 6.81897 12.3243 6.76857C12.3747 6.71817 12.4139 6.66217 12.4419 6.60057C12.4755 6.53337 12.5007 6.46617 12.5175 6.39897C12.5343 6.33177 12.5455 6.26457 12.5511 6.19737C12.5623 6.12457 12.5679 6.05457 12.5679 5.98737V5.93697H13.2231V6.01257C13.2231 6.13577 13.2119 6.25897 13.1895 6.38217C13.1671 6.50537 13.1335 6.62577 13.0887 6.74337C13.0495 6.85537 12.9935 6.96177 12.9207 7.06257C12.8479 7.16337 12.7611 7.25017 12.6603 7.32297C12.5595 7.39017 12.4475 7.43777 12.3243 7.46577C12.2011 7.49937 12.0779 7.51617 11.9547 7.51617Z" fill="black"/>
</g>
<defs>
<clipPath id="clip0_217_164">
<rect width="14" height="14" fill="white"/>
</clipPath>
</defs>
</svg>
