<svg width="14" height="14" viewBox="0 0 14 14" fill="none" xmlns="http://www.w3.org/2000/svg">
<path d="M4.4219 13.0638C4.07493 12.8702 3.74814 12.6402 3.44151 12.3739C3.14296 12.1157 2.87264 11.8252 2.63057 11.5025C2.3885 11.1878 2.18274 10.8489 2.01329 10.4858C1.84384 10.1227 1.70666 9.75149 1.60177 9.37224C1.49687 8.98493 1.42021 8.59358 1.3718 8.1982C1.33145 7.79474 1.31128 7.39532 1.31128 6.99994C1.31128 6.60455 1.33145 6.20917 1.3718 5.81379C1.42021 5.41033 1.49687 5.01898 1.60177 4.63974C1.70666 4.25242 1.84384 3.87721 2.01329 3.5141C2.18274 3.15099 2.3885 2.81209 2.63057 2.4974C2.87264 2.17464 3.14296 1.88415 3.44151 1.62594C3.74814 1.35966 4.07493 1.12969 4.4219 0.936035L4.88184 1.67435C4.43804 1.93256 4.03862 2.25936 3.68359 2.65475C3.33662 3.05013 3.0542 3.48586 2.83633 3.96194C2.61847 4.42994 2.46516 4.92619 2.3764 5.45068C2.29571 5.9671 2.25536 6.48352 2.25536 6.99994C2.25536 7.51636 2.29571 8.03681 2.3764 8.5613C2.46516 9.07772 2.61847 9.57397 2.83633 10.05C3.0542 10.5181 3.33662 10.9497 3.68359 11.3451C4.03862 11.7405 4.43804 12.0673 4.88184 12.3255L4.4219 13.0638Z" fill="black"/>
<path d="M9.57804 13.0638L9.1181 12.3255C9.5619 12.0673 9.95728 11.7405 10.3043 11.3451C10.6593 10.9497 10.9457 10.5181 11.1636 10.05C11.3815 9.57397 11.5308 9.07772 11.6114 8.5613C11.7002 8.03681 11.7446 7.51636 11.7446 6.99994C11.7446 6.48352 11.7002 5.9671 11.6114 5.45068C11.5308 4.92619 11.3815 4.42994 11.1636 3.96194C10.9457 3.48586 10.6593 3.05013 10.3043 2.65475C9.95728 2.25936 9.5619 1.93256 9.1181 1.67435L9.57804 0.936035C9.92501 1.12969 10.2478 1.35966 10.5463 1.62594C10.853 1.88415 11.1273 2.17464 11.3694 2.4974C11.6114 2.81209 11.8172 3.15099 11.9867 3.5141C12.1561 3.87721 12.2933 4.25242 12.3982 4.63974C12.5031 5.01898 12.5757 5.41033 12.616 5.81379C12.6645 6.20917 12.6887 6.60455 12.6887 6.99994C12.6887 7.39532 12.6645 7.79474 12.616 8.1982C12.5757 8.59358 12.5031 8.98493 12.3982 9.37224C12.2933 9.75149 12.1561 10.1227 11.9867 10.4858C11.8172 10.8489 11.6114 11.1878 11.3694 11.5025C11.1273 11.8252 10.853 12.1157 10.5463 12.3739C10.2478 12.6402 9.92501 12.8702 9.57804 13.0638Z" fill="black"/>
</svg>
