<svg width="14" height="14" viewBox="0 0 14 14" fill="none" xmlns="http://www.w3.org/2000/svg">
<path d="M6.49815 11.0796C6.3635 11.0796 6.23108 11.0594 6.10091 11.019C5.97074 10.9786 5.85853 10.9113 5.76426 10.817C5.67449 10.7183 5.60941 10.6038 5.56901 10.4737C5.52861 10.3435 5.50841 10.2111 5.50841 10.0764C5.50841 9.95971 5.52188 9.843 5.54881 9.7263C5.58023 9.60511 5.62961 9.49738 5.69694 9.40312C5.76875 9.30886 5.85404 9.22806 5.95279 9.16073C6.05602 9.08892 6.16375 9.03505 6.27597 8.99914C6.38818 8.95875 6.50264 8.93181 6.61935 8.91835C6.74054 8.90039 6.85949 8.89142 6.97619 8.89142H7.3869V8.6625C7.3869 8.58619 7.37568 8.51437 7.35324 8.44704C7.33079 8.37523 7.29264 8.31463 7.23878 8.26525C7.1894 8.21139 7.12881 8.17324 7.05699 8.15079C6.98517 8.12835 6.91335 8.11713 6.84153 8.11713C6.7742 8.11713 6.70912 8.12386 6.64628 8.13733C6.58344 8.15079 6.52509 8.17773 6.47122 8.21812C6.41736 8.25403 6.37472 8.30341 6.3433 8.36625C6.31188 8.4246 6.29617 8.4852 6.29617 8.54804V8.5615H5.54881V8.52784C5.54881 8.4246 5.56452 8.32361 5.59594 8.22486C5.62736 8.12162 5.67225 8.02736 5.7306 7.94207C5.78895 7.8523 5.86077 7.77824 5.94605 7.71989C6.03583 7.65705 6.12784 7.60767 6.2221 7.57176C6.32085 7.53136 6.42185 7.50443 6.52509 7.49097C6.63281 7.4775 6.7383 7.47077 6.84153 7.47077C6.95375 7.47077 7.06372 7.47975 7.17145 7.4977C7.28366 7.51117 7.38915 7.54034 7.4879 7.58523C7.59113 7.63011 7.68539 7.69071 7.77068 7.76702C7.85596 7.83884 7.92554 7.92412 7.9794 8.02287C8.03775 8.11713 8.07815 8.22037 8.10059 8.33258C8.12304 8.44031 8.13426 8.55028 8.13426 8.6625V11.0258H7.3869V10.4737C7.35099 10.5634 7.30386 10.6487 7.24551 10.7295C7.18716 10.8058 7.11758 10.8709 7.03679 10.9248C6.96048 10.9786 6.8752 11.0168 6.78094 11.0392C6.68668 11.0662 6.59242 11.0796 6.49815 11.0796ZM6.8146 10.4333C6.8954 10.4333 6.97395 10.4198 7.05025 10.3929C7.12656 10.3659 7.1894 10.3233 7.23878 10.2649C7.29264 10.2021 7.33079 10.1325 7.35324 10.0562C7.37568 9.97542 7.3869 9.89462 7.3869 9.81383V9.53778H6.97619C6.92233 9.53778 6.86847 9.54002 6.8146 9.54451C6.76074 9.549 6.70687 9.55798 6.65301 9.57144C6.60364 9.58491 6.55426 9.60511 6.50489 9.63204C6.45551 9.65448 6.41063 9.68366 6.37023 9.71957C6.33432 9.75548 6.30514 9.80036 6.2827 9.85423C6.26475 9.9036 6.25577 9.95522 6.25577 10.0091C6.25577 10.0719 6.27148 10.1348 6.3029 10.1976C6.33432 10.256 6.37696 10.3031 6.43082 10.339C6.48918 10.3749 6.55202 10.3996 6.61935 10.4131C6.68668 10.4265 6.75176 10.4333 6.8146 10.4333Z" fill="black"/>
<path d="M3.2055 13.6281C2.88718 13.6281 2.61525 13.5154 2.38971 13.2899C2.16427 13.0644 2.05155 12.7925 2.05155 12.4742V6.63244C2.05155 6.31412 2.16427 6.04219 2.38971 5.81665C2.61525 5.59121 2.88718 5.47849 3.2055 5.47849H10.1753C10.4936 5.47849 10.7655 5.59121 10.9911 5.81665C11.2165 6.04219 11.3292 6.31412 11.3292 6.63244V12.4742C11.3292 12.7925 11.2165 13.0644 10.9911 13.2899C10.7655 13.5154 10.4936 13.6281 10.1753 13.6281H3.2055ZM3.2055 12.6706H10.1753C10.2326 12.6706 10.2797 12.6522 10.3165 12.6154C10.3533 12.5786 10.3717 12.5315 10.3717 12.4742V6.63244C10.3717 6.57509 10.3533 6.52802 10.3165 6.49121C10.2797 6.4544 10.2326 6.43599 10.1753 6.43599H3.2055C3.14815 6.43599 3.10107 6.4544 3.06426 6.49121C3.02745 6.52802 3.00905 6.57509 3.00905 6.63244V12.4742C3.00905 12.5315 3.02745 12.5786 3.06426 12.6154C3.10107 12.6522 3.14815 12.6706 3.2055 12.6706ZM1.52856 4.12826C1.88784 3.00128 2.54234 2.09346 3.49208 1.40481C4.44181 0.716153 5.50793 0.371826 6.69045 0.371826C7.59964 0.371826 8.44932 0.586679 9.23947 1.01638C10.0296 1.44598 10.6694 2.03809 11.1588 2.7927V0.690993H12.1163V4.12826H8.67917V3.17076H10.1989C9.81259 2.59626 9.30825 2.1457 8.68587 1.81909C8.0635 1.49258 7.39836 1.32933 6.69045 1.32933C5.7755 1.32933 4.94237 1.58264 4.19105 2.08926C3.43984 2.59578 2.89646 3.27544 2.56091 4.12826H1.52856Z" fill="black"/>
</svg>
