<svg width="14" height="14" viewBox="0 0 14 14" fill="none" xmlns="http://www.w3.org/2000/svg">
<path d="M11.2624 12.2707L7.02277 8.03094L5.40203 9.65168C5.4849 9.79984 5.54397 9.95694 5.57923 10.123C5.61459 10.289 5.63227 10.4579 5.63227 10.6295C5.63227 11.2245 5.4201 11.7341 4.99577 12.1584C4.57144 12.5828 4.06181 12.7949 3.46689 12.7949C2.87198 12.7949 2.36235 12.5828 1.93802 12.1584C1.51368 11.7341 1.30151 11.2245 1.30151 10.6295C1.30151 10.0346 1.51368 9.525 1.93802 9.10067C2.36235 8.67633 2.87198 8.46416 3.46689 8.46416C3.63856 8.46416 3.80742 8.4818 3.97346 8.51706C4.1395 8.55242 4.2966 8.61154 4.44476 8.69441L6.06535 7.07367L4.44476 5.45293C4.2966 5.5358 4.1395 5.59492 3.97346 5.63028C3.80742 5.66554 3.63856 5.68318 3.46689 5.68318C2.87198 5.68318 2.36235 5.47101 1.93802 5.04667C1.51368 4.62234 1.30151 4.11271 1.30151 3.5178C1.30151 2.92288 1.51368 2.41325 1.93802 1.98892C2.36235 1.56458 2.87198 1.35242 3.46689 1.35242C4.06181 1.35242 4.57144 1.56458 4.99577 1.98892C5.4201 2.41325 5.63227 2.92288 5.63227 3.5178C5.63227 3.68947 5.61459 3.85832 5.57923 4.02436C5.54397 4.1904 5.4849 4.3475 5.40203 4.49566L12.6984 11.792V12.2707H11.2624ZM8.66395 6.3899L7.70653 5.43249L11.2624 1.87661H12.6984V2.35532L8.66395 6.3899ZM4.36949 4.42039C4.6187 4.17119 4.7433 3.87032 4.7433 3.5178C4.7433 3.16527 4.6187 2.8644 4.36949 2.6152C4.12028 2.36599 3.81942 2.24139 3.46689 2.24139C3.11437 2.24139 2.8135 2.36599 2.56429 2.6152C2.31499 2.8644 2.19033 3.16527 2.19033 3.5178C2.19033 3.87032 2.31499 4.17119 2.56429 4.42039C2.8135 4.6696 3.11437 4.79421 3.46689 4.79421C3.81942 4.79421 4.12028 4.6696 4.36949 4.42039ZM7.12752 7.17857C7.15646 7.14963 7.17093 7.11466 7.17093 7.07367C7.17093 7.03268 7.15646 6.99771 7.12752 6.96877C7.09867 6.93993 7.06376 6.92551 7.02277 6.92551C6.98178 6.92551 6.94681 6.93993 6.91787 6.96877C6.88903 6.99771 6.87461 7.03268 6.87461 7.07367C6.87461 7.11466 6.88903 7.14963 6.91787 7.17857C6.94681 7.20741 6.98178 7.22183 7.02277 7.22183C7.06376 7.22183 7.09867 7.20741 7.12752 7.17857ZM4.36949 11.5321C4.6187 11.2829 4.7433 10.9821 4.7433 10.6295C4.7433 10.277 4.6187 9.97615 4.36949 9.72694C4.12028 9.47774 3.81942 9.35313 3.46689 9.35313C3.11437 9.35313 2.8135 9.47774 2.56429 9.72694C2.31499 9.97615 2.19033 10.277 2.19033 10.6295C2.19033 10.9821 2.31499 11.2829 2.56429 11.5321C2.8135 11.7813 3.11437 11.906 3.46689 11.906C3.81942 11.906 4.12028 11.7813 4.36949 11.5321Z" fill="black"/>
</svg>
