<svg xmlns="http://www.w3.org/2000/svg" viewBox="0 0 16 16"><defs><style>.icon-canvas-transparent,.icon-vs-out{fill:#f6f6f6;}.icon-canvas-transparent{opacity:0;}.icon-disabled-grey{fill:#848484;}</style></defs><title>breakpoint-conditional-unverified</title><g id="canvas"><path class="icon-canvas-transparent" d="M16,0V16H0V0Z"/></g><g id="outline" style="display: none;"><path class="icon-vs-out" d="M13,8A5,5,0,1,1,8,3,5.006,5.006,0,0,1,13,8Z"/></g><g id="iconBg"><path class="icon-disabled-grey" d="M8,4a4,4,0,1,0,4,4A4,4,0,0,0,8,4Zm0,7a3,3,0,1,1,3-3A3,3,0,0,1,8,11ZM6.5,8.5h3v1h-3Zm0-2h3v1h-3Z"/></g></svg>