<?xml version="1.0" encoding="utf-8"?>
<!-- Generator: Adobe Illustrator 19.2.0, SVG Export Plug-In . SVG Version: 6.00 Build 0)  -->
<svg version="1.1" id="Layer_1" xmlns="http://www.w3.org/2000/svg" xmlns:xlink="http://www.w3.org/1999/xlink" x="0px" y="0px"
	 viewBox="0 0 16 16" style="enable-background:new 0 0 16 16;" xml:space="preserve">
<style type="text/css">
	.st0{fill:#E51400;}
	.st1{enable-background:new    ;}
	.st2{fill:#FFFFFF;}
</style>
<g>
	<g>
		<g>
			<circle class="st0" cx="8" cy="8" r="5"/>
		</g>
	</g>
	<g class="st1">
		<path class="st2" d="M7.5,9.6c0-0.1-0.1-0.2-0.1-0.3c0-0.1,0-0.2,0-0.3c0-0.1,0-0.3,0-0.4s0.1-0.2,0.1-0.3C7.6,8.2,7.7,8.1,7.8,8
			C7.9,7.9,8,7.8,8.1,7.7c0.1-0.1,0.2-0.2,0.3-0.3c0.1-0.1,0.2-0.2,0.2-0.3C8.7,7,8.8,6.9,8.8,6.8c0-0.1,0-0.2,0-0.3
			c0-0.1,0-0.2-0.1-0.3c0-0.1-0.1-0.2-0.2-0.2S8.5,5.9,8.4,5.9S8.2,5.8,8.1,5.8C7.8,5.8,7.6,5.9,7.3,6C7,6.1,6.8,6.2,6.5,6.5V5
			C6.8,4.8,7,4.7,7.3,4.6s0.6-0.1,0.9-0.1c0.3,0,0.6,0,0.8,0.1C9.4,4.7,9.6,4.8,9.8,5c0.2,0.1,0.3,0.3,0.5,0.5
			c0.1,0.2,0.2,0.5,0.2,0.8c0,0.2,0,0.4-0.1,0.5c0,0.2-0.1,0.3-0.2,0.5S9.9,7.6,9.8,7.7C9.7,7.8,9.5,8,9.4,8.1
			C9.2,8.2,9.1,8.3,9.1,8.4C9,8.5,8.9,8.5,8.8,8.6C8.8,8.7,8.7,8.8,8.7,8.9c0,0.1,0,0.2,0,0.3c0,0.1,0,0.2,0,0.2s0,0.1,0.1,0.2H7.5z
			 M8.2,11.8c-0.3,0-0.5-0.1-0.6-0.2c-0.2-0.2-0.3-0.4-0.3-0.6c0-0.2,0.1-0.4,0.3-0.6s0.4-0.2,0.6-0.2c0.3,0,0.5,0.1,0.6,0.2
			C9,10.5,9.1,10.7,9.1,11c0,0.2-0.1,0.4-0.2,0.6C8.7,11.7,8.5,11.8,8.2,11.8z"/>
	</g>
</g>
</svg>
