<svg xmlns="http://www.w3.org/2000/svg" viewBox="0 0 16 16"><defs><style>.icon-canvas-transparent,.icon-vs-out{fill:#f6f6f6;}.icon-canvas-transparent{opacity:0;}.cls-1{fill:#848484;}</style></defs><title>breakpoint-conditional-unverified</title><g id="canvas"><path class="icon-canvas-transparent" d="M16,0V16H0V0Z"/></g><g id="iconBg"><path class="icon-vs-out" d="M12.632,8A4.632,4.632,0,1,1,8,3.368,4.638,4.638,0,0,1,12.632,8Z"/><path class="cls-1" d="M8,4.211A3.789,3.789,0,1,0,11.789,8,3.788,3.788,0,0,0,8,4.211ZM8,10.79A2.79,2.79,0,1,1,10.789,8,2.793,2.793,0,0,1,8,10.79ZM6.526,6.737H9.474v.842H6.526Zm0,1.684H9.474v.842H6.526Z"/></g></svg>