<svg xmlns="http://www.w3.org/2000/svg" viewBox="0 0 16 16"><defs><style>.icon-canvas-transparent,.icon-vs-out{fill:#252526;}.icon-canvas-transparent{opacity:0;}.icon-vs-bg{fill:#c5c5c5;}.icon-vs-action-red{fill:#f48771;}</style></defs><title>clear-repl</title><g id="canvas"><path class="icon-canvas-transparent" d="M16,0V16H0V0Z"/></g><g id="outline" style="display: none;"><path class="icon-vs-out" d="M15,0V16H1V7.475l-1-1V5.525l1-1v-.99l-1-1V1.586l1-1V0H15Z"/></g><g id="iconBg"><path class="icon-vs-bg" d="M7.032,13H14v2H2V13ZM3.97,6.5l-.5.5h.99Zm0-4.949L4.525,1H3.414ZM10.711,1H7.354L8.414,2.061,7.475,3H14V1ZM3.187,9H2v2H14V9H3.187ZM7.414,5l1,1-1,1H14V5H7.414Z"/></g><g id="colorAction"><path class="icon-vs-action-red" d="M5.03,4.03,7,6,5.939,7.061,3.97,5.091,2,7.061.939,6l1.97-1.97L.939,2.061,2,1,3.97,2.97,5.939,1,7,2.061Z"/></g></svg>