<svg xmlns="http://www.w3.org/2000/svg" viewBox="0 0 16 16"><defs><style>.icon-white{fill:#fff;}</style></defs><title>debug-dark</title><g id="iconBg"><path class="icon-white" d="M8.667,10.325v2.832c0,.308.06.843-.249.843H7.333v-.667H8V11.207l-.115-.12a2.362,2.362,0,0,1-3.113.072C4,10.385,4.079,9.333,4.917,8H2.667v.667H2V7.582c0-.309.535-.249.843-.249H5.579Zm-2-6.992H6V2.667H7.3c.307,0,.7.147.7.455v2.23l.491.583a1.3,1.3,0,0,1,1.276-1.14A.6.6,0,0,1,10,4.821V3.333h.667V5.079a.413.413,0,0,0,.255.255h1.745V6H11.178c.018,0,.028.1.028.2a1.31,1.31,0,0,1-1.141,1.288L10.648,8h2.231c.308,0,.455.389.455.7V10h-.667V9.333h-1.68l-4.32-4.2ZM8,0a8,8,0,1,0,8,8A8,8,0,0,0,8,0Zm6.667,8a6.634,6.634,0,0,1-1.508,4.216L3.784,2.841A6.662,6.662,0,0,1,14.667,8ZM1.333,8A6.633,6.633,0,0,1,2.841,3.784l9.375,9.376A6.663,6.663,0,0,1,1.333,8Z"/></g></svg>