<svg xmlns="http://www.w3.org/2000/svg" viewBox="0 0 40 40"><path d="M20.8 22.6v3.2c0 .3.1.9-.3.9h-1.2V26h.7v-2.4l-.1-.1c-1 .9-2.5.9-3.5.1-.9-.9-.8-2.1.2-3.6H14v.8h-.8v-1.2c0-.3.6-.3.9-.3h3.1l3.6 3.3zm-2.3-7.9h-.8V14h1.5c.3 0 .8.2.8.5V17l.6.7c.1-.7.7-1.3 1.4-1.3h.3v-1.7h.7v2c0 .1.2.2.3.3h2v.7h-1.7v.2c0 .7-.6 1.4-1.3 1.4l.7.7h2.5c.3 0 .5.4.5.8v1.5h-.8v-.8h-1.9l-4.9-4.7.1-2.1zM20 11c-5 0-9 4-9 9s4 9 9 9 9-4 9-9-4-9-9-9zm7.5 9c0 1.7-.6 3.4-1.7 4.7L15.3 14.2c3.2-2.6 7.9-2.2 10.5 1 1.1 1.4 1.7 3.1 1.7 4.8zm-15 0c0-1.7.6-3.4 1.7-4.7l10.5 10.5c-3.2 2.6-7.9 2.2-10.5-1.1-1.1-1.3-1.7-3-1.7-4.7z" fill="#fff"/></svg>