<svg xmlns="http://www.w3.org/2000/svg" viewBox="0 0 16 16"><defs><style>.icon-canvas-transparent,.icon-vs-out{fill:#f6f6f6;}.icon-canvas-transparent{opacity:0;}.icon-vs-action-red{fill:#a1260d;}</style></defs><title>disconnect</title><g id="canvas"><path class="icon-canvas-transparent" d="M16,0V16H0V0Z"/></g><g id="outline" style="display: none;"><path class="icon-vs-out" d="M1,15V1H15V15Z"/></g><g id="iconBg"><path class="icon-vs-action-red" d="M2,2V14H14V2ZM9,3.5a.5.5,0,0,1,1,0V5H9Zm-3,0a.5.5,0,0,1,1,0V5H6ZM11,7H10V8.5a2,2,0,0,1-1.5,1.929V13h-1V10.429A2,2,0,0,1,6,8.5V7H5V6h6Z"/></g></svg>