<svg xmlns="http://www.w3.org/2000/svg" viewBox="0 0 16 16"><defs><style>.icon-canvas-transparent,.icon-vs-out{fill:#f6f6f6;}.icon-canvas-transparent{opacity:0;}.icon-vs-bg{fill:#424242;}.icon-vs-action-red{fill:#a1260d;}</style></defs><title>remove-all</title><g id="canvas"><path class="icon-canvas-transparent" d="M16,0V16H0V0Z"/></g><g id="outline" style="display: none;"><path class="icon-vs-out" d="M16,5.5a5.476,5.476,0,0,1-4.922,5.446l-.1.011A5.5,5.5,0,0,1,0,10.5,5.441,5.441,0,0,1,.982,7.4L0,6.414V5.586L1.556,4.03,0,2.475V1.646L1.646,0h.828L4.03,1.556,5.586,0h.828L7.4.984A5.425,5.425,0,0,1,10.5,0,5.507,5.507,0,0,1,16,5.5Z"/></g><g id="iconBg"><path class="icon-vs-bg" d="M10,10.5A4.5,4.5,0,1,1,1.7,8.113l.362.362L4.03,6.5,6,8.475,7.815,6.659A4.482,4.482,0,0,1,10,10.5ZM10.5,1a4.432,4.432,0,0,0-2.39.7l.365.365L6.5,4.03,8.216,5.742a5.492,5.492,0,0,1,2.756,4.211A4.488,4.488,0,0,0,10.5,1Z"/></g><g id="colorAction"><path class="icon-vs-action-red" d="M5.091,4.03,7.06,6,6,7.06,4.03,5.091,2.06,7.06,1,6,2.97,4.03,1,2.06,2.06,1,4.03,2.97,6,1,7.06,2.06Z"/></g></svg>