<svg xmlns="http://www.w3.org/2000/svg" viewBox="0 0 32 32"><style>.icon-canvas-transparent{opacity:0;fill:#f6f6f6}.icon-white{fill:#ffffff}</style><path class="icon-canvas-transparent" d="M32 32H0V0h32v32z" id="canvas"/><g id="iconBg"><path class="icon-white" d="M16 2C8.28 2 2 8.28 2 16s6.28 14 14 14 14-6.28 14-14S23.72 2 16 2zm0 25.979C9.383 27.979 4 22.605 4 16 4 9.395 9.383 4.021 16 4.021S28 9.395 28 16c0 6.605-5.383 11.979-12 11.979zm-6-6.959h12v-10H10v10zm1-8.52l9.399 7.52h-3.497c.058-.126.044-.345.044-.494V17.898l-3.404-2.724h-.947c-.217 0-.595-.042-.595.175v.766h.471v-.471h1.436c-.524.86-.569 1.815-.027 2.357.707.707 1.617.617 2.477.093l.12 1.556h-.471v.37H11V12.5zm10 7.039l-9.399-7.52h3.221l-.003.25 1.065.017-.039 1.87c-.175.044-.35.115-.525.199l2.594 2.075c.016-.051.038-.103.051-.154l1.87-.039.017 1.065.39-.005v-.92c0-.217-.104-.492-.321-.492h-1.575l-.311-.262c-.002-.039-.011-.078-.016-.117.412-.11.715-.426.715-.875 0-.068-.014-.172-.027-.172l1.036-.015-.03-.501-1.292-.06c-.028 0-.231-.189-.231-.189-.038-.038-.069-.083-.069-.11V12.35h-.471v1.051c0-.013-.097-.02-.165-.02-.449 0-.762.307-.871.719-.038-.005-.076-.012-.115-.015l-.261-.31v-1.574c0-.076-.04-.133-.093-.181H21v7.519z"/></g></svg>