<svg xmlns="http://www.w3.org/2000/svg" viewBox="0 0 32 32"><style>.icon-canvas-transparent{opacity:0;fill:#f6f6f6}.icon-white{fill:#ffffff}</style><path class="icon-canvas-transparent" d="M32 32H0V0h32v32z" id="canvas"/><g id="iconBg"><path class="icon-white" d="M13 9V8h1.954c.462 0 1.046.22 1.046.682v3.345l.736.875c.179-.973.889-1.711 1.914-1.711.143 0 .35.015.35.042V9h1v2.618c0 .117.265.382.382.382H23v1h-2.233c.027 0 .042.154.042.297 0 1.025-.738 1.753-1.711 1.932l.875.771H23.318c.462 0 .682.583.682 1.045V19h-1v-1h-2.522L14 11.698V9h-1zm15-4v22H4V5h24zm-2 2H7.215L26 24.077V7zm-9.373 18h8.158L6 7.923V25h9v-1h1v-3.191l-.173-.178c-1.453 1.204-3.528 1.247-4.669.107C9.999 19.579 10.116 18 11.375 16H8v1H7v-1.627c0-.462.802-.373 1.264-.373h4.105L17 19.488V23.736c0 .462.089 1.264-.373 1.264z"/></g></svg>