<svg xmlns="http://www.w3.org/2000/svg" viewBox="0 0 16 16"><defs><style>.icon-canvas-transparent,.icon-vs-out{fill:#252526;}.icon-canvas-transparent{opacity:0;}.icon-vs-action-green{fill:#89d185;}</style></defs><title>restart</title><g id="canvas"><path class="icon-canvas-transparent" d="M16,0V16H0V0Z"/></g><g id="outline" style="display: none;"><path class="icon-vs-out" d="M8.5,1A7.5,7.5,0,0,0,4,2.527V1H0V9H3.068l-2.057.583.272.962A7.5,7.5,0,1,0,8.5,1Zm0,11A3.515,3.515,0,0,1,5.131,9.455L5,9H8V5.036A3.6,3.6,0,0,1,8.5,5a3.5,3.5,0,0,1,0,7Z"/></g><g id="iconBg"><path class="icon-vs-action-green" d="M15,8.5A6.5,6.5,0,0,1,2.245,10.272l1.924-.544A4.509,4.509,0,1,0,4.764,6H7V8H1V2H3V5.07A6.486,6.486,0,0,1,15,8.5Z"/></g></svg>