<svg xmlns="http://www.w3.org/2000/svg" viewBox="0 0 16 16"><style>.st0{fill:#252526;fill-opacity:0}.st1{display:none}.st2{display:inline;fill:#252526}.st3{fill:#89d185}</style><title>restart</title><path class="st0" d="M16 0v16H0V0h16z" id="canvas"/><g id="outline" class="st1" style="display: none;"><path class="st2" d="M8.5 1C6.9 1 5.3 1.5 4 2.5V1H0v8h3.1L1 9.6l.3 1c1.1 4 5.3 6.3 9.3 5.2s6.3-5.3 5.2-9.3C14.8 3.2 11.9 1 8.5 1zm0 11c-1.6 0-2.9-1-3.4-2.5L5 9h3V5h.5C10.4 5 12 6.6 12 8.5S10.4 12 8.5 12z"/></g><path class="st3" d="M15 8c0 3.6-2.9 6.5-6.5 6.5-2.9 0-5.5-1.9-6.3-4.7l1.9-.5c.7 2.4 3.2 3.8 5.6 3.1 2.4-.7 3.8-3.2 3.1-5.6S9.7 3 7.3 3.7c-1 .3-1.9.9-2.5 1.8H7v2H1v-6h2v3.1c1.9-3 5.9-4 8.9-2.1C13.8 3.7 15 5.7 15 8z" id="iconBg"/></svg>