<svg xmlns="http://www.w3.org/2000/svg" viewBox="0 0 16 16"><defs><style>.icon-canvas-transparent,.icon-vs-out{fill:#252526;}.icon-canvas-transparent{opacity:0;}.icon-vs-action-green{fill:#89d185;}</style></defs><title>restart</title><g id="canvas"><path class="icon-canvas-transparent" d="M16,0V16H0V0Z"/></g><g id="outline" style="display: none;"><path class="icon-vs-out" d="M8,0A7.987,7.987,0,0,0,4,1.088V0H0V8.673l.11.657A8,8,0,1,0,8,0ZM8,12A3.984,3.984,0,0,1,4.056,8.669L3.943,8H8V4a4,4,0,0,1,0,8Z"/></g><g id="iconBg"><path class="icon-vs-action-green" d="M15,8A7,7,0,0,1,1.1,9.165l1.973-.331A5,5,0,1,0,4,5H7V7H1V1H3V3.12A6.987,6.987,0,0,1,15,8Z"/></g></svg>