<svg xmlns="http://www.w3.org/2000/svg" width="16" height="16" viewBox="0 0 16 16"><style type="text/css">.icon-canvas-transparent{opacity:0;fill:#F6F6F6;} .icon-vs-out{fill:#F6F6F6;} .icon-vs-bg{fill:#424242;} .icon-vs-action-blue{fill:#00539C;}</style><path class="icon-canvas-transparent" d="M16 16H0V0h16v16z" id="canvas"/><path class="icon-vs-out" d="M11 13c0-1.526-1.15-2.775-2.624-2.962L12 6.414V1.586l-2 2V1H6v2.586l-2-2v4.828l3.624 3.624C6.15 10.225 5 11.474 5 13c0 1.654 1.346 3 3 3s3-1.346 3-3z" id="outline"/><path class="icon-vs-bg" d="M8 11c1.104 0 2 .896 2 2s-.896 2-2 2-2-.896-2-2 .896-2 2-2z" id="iconBg"/><path class="icon-vs-action-blue" d="M8 9L5 6V4l2 2V2h2v4l2-2v2L8 9z" id="colorAction"/></svg>