<svg xmlns="http://www.w3.org/2000/svg" width="16" height="16" viewBox="0 0 16 16"><style type="text/css">.icon-canvas-transparent{opacity:0;fill:#F6F6F6;} .icon-vs-out{fill:#F6F6F6;} .icon-vs-bg{fill:#424242;} .icon-vs-action-blue{fill:#00539C;}</style><path class="icon-canvas-transparent" d="M16 16H0V0h16v16z" id="canvas"/><path class="icon-vs-out" d="M8 16c-1.654 0-3-1.346-3-3s1.346-3 3-3 3 1.346 3 3-1.346 3-3 3zm7-6V4.586l-4-4V3.03C9.967 2.367 8.755 2 7.5 2 4.158 2 1.305 4.596 1.004 7.91L.904 9H4.55l.113-.872c.104-.79.528-1.474 1.13-1.923L9.587 10H15zM6.106 6c.415-.232.892-.363 1.394-.363.51 0 1.02.133 1.466.363h-2.86z" id="outline"/><path class="icon-vs-bg" d="M8 11c1.104 0 2 .896 2 2s-.896 2-2 2-2-.896-2-2 .896-2 2-2z" id="iconBg"/><path class="icon-vs-action-blue" d="M3.67 8H2c.254-2.8 2.637-5 5.5-5 1.86 0 3.504.93 4.5 2.348V3l2 2v4h-4L8 7h3v-.002l.238.002C10.652 5.61 9.102 4.637 7.5 4.637 5.535 4.637 3.915 6.102 3.67 8z" id="colorAction"/></svg>