<svg xmlns="http://www.w3.org/2000/svg" width="16" height="16" viewBox="0 0 16 16"><style type="text/css">.icon-canvas-transparent{opacity:0;fill:#F6F6F6;} .icon-vs-out{fill:#F6F6F6;} .icon-vs-bg{fill:#424242;} .icon-vs-action-blue{fill:#00539C;}</style><path class="icon-canvas-transparent" d="M16 16H0V0h16v16z" id="canvas"/><g id="outline"><path class="icon-vs-out" d="M10 7.414l2 2V4.586l-4-4-4 4v4.828l2-2V10h4z"/><circle class="icon-vs-out" cx="8" cy="13" r="3"/></g><path class="icon-vs-bg" d="M8 11c1.104 0 2 .896 2 2s-.896 2-2 2-2-.896-2-2 .896-2 2-2z" id="iconBg"/><path class="icon-vs-action-blue" d="M11 5v2L9 5v4H7V5L5 7V5l3-3 3 3z" id="colorAction"/></svg>