<svg xmlns="http://www.w3.org/2000/svg" viewBox="0 0 16 16"><defs><style>.icon-canvas-transparent,.icon-vs-out{fill:#f6f6f6;}.icon-canvas-transparent{opacity:0;}.icon-vs-bg{fill:#424242;}.icon-vs-action-blue{fill:#00539c;}</style></defs><title>step-into</title><g id="canvas"><path class="icon-canvas-transparent" d="M16,0V16H0V0Z"/></g><g id="outline" style="display: none;"><path class="icon-vs-out" d="M11,13a3,3,0,1,1-4.375-2.651L2.556,6.28,5.03,3.806l.97.97V0h4V4.775l.97-.97L13.444,6.28,9.375,10.349A2.991,2.991,0,0,1,11,13Z"/></g><g id="iconBg"><path class="icon-vs-bg" d="M8,11a2,2,0,1,1-2,2A2,2,0,0,1,8,11Z"/></g><g id="colorAction"><path class="icon-vs-action-blue" d="M12.03,6.28,8,10.311,3.97,6.28,5.03,5.22,7,7.189V1H9V7.189l1.97-1.97Z"/></g></svg>