<svg width="16" height="16" viewBox="0 0 16 16" fill="none" xmlns="http://www.w3.org/2000/svg">
<path fill-rule="evenodd" clip-rule="evenodd" d="M6 2.98361V2.97184V2H5.91083C5.59743 2 5.29407 2.06161 5.00128 2.18473C4.70818 2.30798 4.44942 2.48474 4.22578 2.71498C4.00311 2.94422 3.83792 3.19498 3.73282 3.46766L3.73233 3.46898C3.63382 3.7352 3.56814 4.01201 3.53533 4.29917L3.53519 4.30053C3.50678 4.5805 3.4987 4.86844 3.51084 5.16428C3.52272 5.45379 3.52866 5.74329 3.52866 6.03279C3.52866 6.23556 3.48974 6.42594 3.412 6.60507L3.4116 6.60601C3.33687 6.78296 3.23423 6.93866 3.10317 7.07359C2.97644 7.20405 2.82466 7.31055 2.64672 7.3925C2.4706 7.46954 2.28497 7.5082 2.08917 7.5082H2V7.6V8.4V8.4918H2.08917C2.28465 8.4918 2.47001 8.53238 2.64601 8.61334L2.64742 8.61396C2.82457 8.69157 2.97577 8.79762 3.10221 8.93161L3.10412 8.93352C3.23428 9.0637 3.33659 9.21871 3.41129 9.39942L3.41201 9.40108C3.48986 9.58047 3.52866 9.76883 3.52866 9.96721C3.52866 10.2567 3.52272 10.5462 3.51084 10.8357C3.4987 11.1316 3.50677 11.4215 3.53516 11.7055L3.53535 11.7072C3.56819 11.9903 3.63387 12.265 3.73232 12.531L3.73283 12.5323C3.83793 12.805 4.00311 13.0558 4.22578 13.285C4.44942 13.5153 4.70818 13.692 5.00128 13.8153C5.29407 13.9384 5.59743 14 5.91083 14H6V13.2V13.0164H5.91083C5.71095 13.0164 5.52346 12.9777 5.34763 12.9008C5.17396 12.8191 5.02194 12.7126 4.89086 12.5818C4.76386 12.4469 4.66104 12.2911 4.58223 12.1137C4.50838 11.9346 4.47134 11.744 4.47134 11.541C4.47134 11.3127 4.4753 11.0885 4.48321 10.8686C4.49125 10.6411 4.49127 10.4195 4.48324 10.2039C4.47914 9.98246 4.46084 9.76883 4.42823 9.56312C4.39513 9.35024 4.33921 9.14757 4.26039 8.95536C4.18091 8.76157 4.07258 8.57746 3.93616 8.40298C3.82345 8.25881 3.68538 8.12462 3.52283 8C3.68538 7.87538 3.82345 7.74119 3.93616 7.59702C4.07258 7.42254 4.18091 7.23843 4.26039 7.04464C4.33913 6.85263 4.39513 6.65175 4.42826 6.44285C4.46082 6.2333 4.47914 6.01973 4.48324 5.80219C4.49127 5.58262 4.49125 5.36105 4.48321 5.13749C4.4753 4.9134 4.47134 4.68725 4.47134 4.45902C4.47134 4.26019 4.50833 4.07152 4.58238 3.89205C4.66135 3.71034 4.76421 3.55475 4.89086 3.42437C5.02193 3.28942 5.17461 3.18275 5.34802 3.10513C5.5238 3.02427 5.71113 2.98361 5.91083 2.98361H6ZM10 13.0164V13.0282V14H10.0892C10.4026 14 10.7059 13.9384 10.9987 13.8153C11.2918 13.692 11.5506 13.5153 11.7742 13.285C11.9969 13.0558 12.1621 12.805 12.2672 12.5323L12.2677 12.531C12.3662 12.2648 12.4319 11.988 12.4647 11.7008L12.4648 11.6995C12.4932 11.4195 12.5013 11.1316 12.4892 10.8357C12.4773 10.5462 12.4713 10.2567 12.4713 9.96721C12.4713 9.76444 12.5103 9.57406 12.588 9.39493L12.5884 9.39399C12.6631 9.21704 12.7658 9.06134 12.8968 8.92642C13.0236 8.79595 13.1753 8.68945 13.3533 8.6075C13.5294 8.53046 13.715 8.4918 13.9108 8.4918H14V8.4V7.6V7.5082H13.9108C13.7153 7.5082 13.53 7.46762 13.354 7.38666L13.3526 7.38604C13.1754 7.30844 13.0242 7.20238 12.8978 7.06839L12.8959 7.06648C12.7657 6.9363 12.6634 6.78129 12.5887 6.60058L12.588 6.59892C12.5101 6.41953 12.4713 6.23117 12.4713 6.03279C12.4713 5.74329 12.4773 5.45379 12.4892 5.16428C12.5013 4.86842 12.4932 4.57848 12.4648 4.29454L12.4646 4.29285C12.4318 4.00971 12.3661 3.73502 12.2677 3.46897L12.2672 3.46766C12.1621 3.19499 11.9969 2.94422 11.7742 2.71498C11.5506 2.48474 11.2918 2.30798 10.9987 2.18473C10.7059 2.06161 10.4026 2 10.0892 2H10V2.8V2.98361H10.0892C10.2891 2.98361 10.4765 3.0223 10.6524 3.09917C10.826 3.18092 10.9781 3.28736 11.1091 3.41823C11.2361 3.55305 11.339 3.70889 11.4178 3.88628C11.4916 4.0654 11.5287 4.25596 11.5287 4.45902C11.5287 4.68727 11.5247 4.91145 11.5168 5.13142C11.5088 5.35894 11.5087 5.58049 11.5168 5.79605C11.5209 6.01754 11.5392 6.23117 11.5718 6.43688C11.6049 6.64976 11.6608 6.85243 11.7396 7.04464C11.8191 7.23843 11.9274 7.42254 12.0638 7.59702C12.1765 7.74119 12.3146 7.87538 12.4772 8C12.3146 8.12462 12.1765 8.25881 12.0638 8.40298C11.9274 8.57746 11.8191 8.76157 11.7396 8.95536C11.6609 9.14737 11.6049 9.34825 11.5717 9.55715C11.5392 9.7667 11.5209 9.98027 11.5168 10.1978C11.5087 10.4174 11.5087 10.6389 11.5168 10.8625C11.5247 11.0866 11.5287 11.3128 11.5287 11.541C11.5287 11.7398 11.4917 11.9285 11.4176 12.1079C11.3386 12.2897 11.2358 12.4452 11.1091 12.5756C10.9781 12.7106 10.8254 12.8173 10.652 12.8949C10.4762 12.9757 10.2889 13.0164 10.0892 13.0164H10Z" fill="#424242"/>
</svg>
