<svg width="16" height="16" viewBox="0 0 16 16" fill="none" xmlns="http://www.w3.org/2000/svg">
<path d="M2 7.6C2.21667 7.6 2.42292 7.55833 2.61875 7.475C2.81458 7.3875 2.98333 7.27292 3.125 7.13125C3.27083 6.98542 3.38542 6.81667 3.46875 6.625C3.55625 6.42917 3.6 6.22083 3.6 6C3.6 5.70417 3.59375 5.40833 3.58125 5.1125C3.56875 4.81667 3.57708 4.52917 3.60625 4.25C3.63958 3.96667 3.70625 3.69375 3.80625 3.43125C3.91042 3.16875 4.075 2.925 4.3 2.7C4.525 2.475 4.78542 2.30208 5.08125 2.18125C5.37708 2.06042 5.68333 2 6 2V2.97184C5.77917 2.97184 5.69583 2.9125 5.5 3C5.30833 3.08333 4.64583 3.35417 4.5 3.5C4.35833 3.64167 4.6125 3.58542 4.525 3.78125C4.44167 3.97708 4.4 4.18333 4.4 4.4C4.4 4.63333 4.40417 4.86458 4.4125 5.09375C4.42083 5.31875 4.42083 5.54167 4.4125 5.7625C4.40833 5.97917 4.38958 6.19167 4.35625 6.4C4.32292 6.60417 4.26667 6.8 4.1875 6.9875C4.10833 7.175 4 7.35417 3.8625 7.525C3.725 7.69583 3.54792 7.85417 3.33125 8C3.54792 8.14583 3.725 8.30417 3.8625 8.475C4 8.64583 4.10833 8.825 4.1875 9.0125C4.26667 9.2 4.32292 9.39792 4.35625 9.60625C4.38958 9.81042 4.40833 10.0229 4.4125 10.2437C4.42083 10.4604 4.42083 10.6833 4.4125 10.9125C4.40417 11.1375 4.4 11.3667 4.4 11.6C4.4 11.8208 4.44167 12.0292 4.525 12.225C4.6125 12.4167 4.72708 12.5854 4.86875 12.7312C5.01458 12.8729 5.18333 12.9875 5.375 13.075C5.57083 13.1583 5.77917 13.2 6 13.2V14C5.68333 14 5.37708 13.9396 5.08125 13.8188C4.78542 13.6979 4.525 13.525 4.3 13.3C4.075 13.075 3.91042 12.8313 3.80625 12.5688C3.70625 12.3063 3.63958 12.0354 3.60625 11.7563C3.57708 11.4729 3.56875 11.1833 3.58125 10.8875C3.59375 10.5917 3.6 10.2958 3.6 10C3.6 9.78333 3.55625 9.57708 3.46875 9.38125C3.38542 9.18542 3.27083 9.01667 3.125 8.875C2.98333 8.72917 2.81458 8.61458 2.61875 8.53125C2.42292 8.44375 2.21667 8.4 2 8.4V7.6Z" fill="#C5C5C5"/>
<path fill-rule="evenodd" clip-rule="evenodd" d="M2 7.5082H2.08917C2.28497 7.5082 2.4706 7.46954 2.64672 7.3925C2.82466 7.31055 2.97644 7.20405 3.10317 7.07358C3.23423 6.93866 3.33687 6.78296 3.4116 6.60601L3.412 6.60507C3.48974 6.42594 3.52866 6.23556 3.52866 6.03279C3.52866 5.74329 3.52272 5.45379 3.51084 5.16428C3.4987 4.86844 3.50678 4.5805 3.53519 4.30053L3.53533 4.29917C3.56814 4.01201 3.63382 3.7352 3.73233 3.46898L3.73282 3.46766C3.83792 3.19498 4.00311 2.94422 4.22578 2.71498C4.44942 2.48474 4.70818 2.30798 5.00128 2.18473C5.29407 2.06161 5.59743 2 5.91083 2H6V2.98361H5.91083C5.71113 2.98361 5.5238 3.02427 5.34802 3.10513C5.17461 3.18275 5.02193 3.28942 4.89086 3.42437C4.76421 3.55475 4.66135 3.71034 4.58238 3.89205C4.50833 4.07152 4.47134 4.26019 4.47134 4.45902C4.47134 4.68725 4.4753 4.9134 4.48321 5.13749C4.49125 5.36105 4.49127 5.58262 4.48324 5.80219C4.47914 6.01973 4.46082 6.2333 4.42826 6.44285C4.39513 6.65175 4.33913 6.85263 4.26039 7.04464C4.18091 7.23843 4.07258 7.42254 3.93616 7.59702C3.82345 7.74119 3.68538 7.87538 3.52283 8C3.68538 8.12462 3.82345 8.25881 3.93616 8.40298C4.07258 8.57746 4.18091 8.76157 4.26039 8.95536C4.33921 9.14757 4.39513 9.35024 4.42823 9.56312C4.46084 9.76883 4.47914 9.98246 4.48324 10.2039C4.49127 10.4195 4.49125 10.6411 4.48321 10.8686C4.4753 11.0885 4.47134 11.3127 4.47134 11.541C4.47134 11.744 4.50838 11.9346 4.58223 12.1137C4.66104 12.2911 4.76386 12.4469 4.89086 12.5818C5.02194 12.7126 5.17396 12.8191 5.34763 12.9008C5.52346 12.9777 5.71095 13.0164 5.91083 13.0164H6V14H5.91083C5.59743 14 5.29407 13.9384 5.00128 13.8153C4.70818 13.692 4.44942 13.5153 4.22578 13.285C4.00311 13.0558 3.83793 12.805 3.73283 12.5323L3.73232 12.531C3.63387 12.265 3.56819 11.9903 3.53535 11.7072L3.53516 11.7055C3.50677 11.4215 3.4987 11.1316 3.51084 10.8357C3.52272 10.5462 3.52866 10.2567 3.52866 9.96721C3.52866 9.76883 3.48986 9.58047 3.41201 9.40108L3.41129 9.39942C3.33659 9.21871 3.23428 9.0637 3.10412 8.93352L3.10221 8.93161C2.97577 8.79762 2.82457 8.69156 2.64742 8.61396L2.64601 8.61334C2.47001 8.53238 2.28465 8.4918 2.08917 8.4918H2V7.5082ZM5.11224 13.285C4.92912 13.199 4.63933 13.1393 4.5 13C4.36465 12.8566 4.34398 12.3797 4.26039 12.1912C4.18077 11.9986 4.38217 11.7582 4.38217 11.541C4.38217 11.3115 4.38615 11.0861 4.39411 10.8648C4.40207 10.6393 4.40207 10.4201 4.39411 10.207C4.39013 9.98975 4.37221 9.78074 4.34037 9.57992C4.30852 9.375 4.25478 9.18033 4.17914 8.9959C4.1035 8.81147 3.54265 8.7346 3.41129 8.56657C3.29771 8.42129 3.27423 8.33074 3.10412 8.20385C3.07747 8.18397 3.13215 8.01943 3.10412 8C3.13215 7.98057 2.96819 7.27979 3.41129 7.72083C3.5814 7.59393 3.38642 7.64527 3.5 7.5C3.63137 7.33197 4.1035 7.18852 4.17914 7.0041C4.25478 6.81967 4.30852 6.62705 4.34037 6.42623C4.37221 6.22131 4.39013 6.01229 4.39411 5.79918C4.40207 5.58197 4.40207 5.3627 4.39411 5.14139C4.38615 4.91598 4.38217 4.68852 4.38217 4.45902C4.38217 4.2459 4.26075 4.08467 4.34037 3.89205C4.42397 3.69943 4.20502 3.60832 4.34037 3.46898C4.4797 3.32553 5.13057 3.09631 5.31369 3.01434C5.5008 2.92828 5.69984 2.88525 5.91083 2.88525V2.09836C5.88101 2.09836 5.85128 2.09894 5.82166 2.10009C5.5507 2.11065 5.28783 2.1695 5.03304 2.27664C4.7504 2.39549 4.50159 2.56557 4.28662 2.78689C4.07166 3.0082 3.91441 3.24795 3.81489 3.50615C3.71935 3.76434 3.65565 4.03279 3.62381 4.31148C3.59594 4.58607 3.58798 4.86885 3.59992 5.15984C3.61186 5.45082 3.61783 5.7418 3.61783 6.03279C3.61783 6.25 3.57604 6.45492 3.49244 6.64754C3.41282 6.83607 3.30334 7.00205 3.16401 7.14549C3.02866 7.28484 2.86744 7.39754 2.68033 7.48361C2.49323 7.56557 2.29618 7.60656 2.08917 7.60656V8.39344C2.29618 8.39344 2.49323 8.43647 2.68033 8.52254C2.86744 8.60451 3.02866 8.71721 3.16401 8.86066C3.30334 9 3.41282 9.16598 3.49244 9.35861C3.57604 9.55123 3.61783 9.7541 3.61783 9.96721C3.61783 10.2582 3.61186 10.5492 3.59992 10.8402C3.58798 11.1311 3.59594 11.416 3.62381 11.6947C3.65565 11.9693 3.71935 12.2357 3.81489 12.4939C3.91441 12.752 4.07166 12.9918 4.28662 13.2131C4.50159 13.4344 4.7504 13.6045 5.03304 13.7234C5.28783 13.8305 5.5507 13.8893 5.82166 13.8999C5.85128 13.9011 5.88101 13.9016 5.91083 13.9016L5.5 13.5C5.28901 13.5 5.29934 13.367 5.11224 13.285Z" fill="#C5C5C5"/>
<path fill-rule="evenodd" clip-rule="evenodd" d="M10 13.0282L10 13.0164L10.0892 13.0164C10.2889 13.0164 10.4762 12.9757 10.652 12.8949C10.8254 12.8173 10.9781 12.7106 11.1091 12.5756C11.2358 12.4452 11.3386 12.2897 11.4176 12.1079C11.4917 11.9285 11.5287 11.7398 11.5287 11.541C11.5287 11.3128 11.5247 11.0866 11.5168 10.8625C11.5087 10.6389 11.5087 10.4174 11.5168 10.1978C11.5209 9.98027 11.5392 9.7667 11.5717 9.55715C11.6049 9.34825 11.6609 9.14737 11.7396 8.95536C11.8191 8.76157 11.9274 8.57746 12.0638 8.40298C12.1765 8.25881 12.3146 8.12462 12.4772 8C12.3146 7.87538 12.1765 7.74119 12.0638 7.59702C11.9274 7.42254 11.8191 7.23843 11.7396 7.04464C11.6608 6.85243 11.6049 6.64976 11.5718 6.43688C11.5392 6.23117 11.5209 6.01754 11.5168 5.79605C11.5087 5.58049 11.5088 5.35894 11.5168 5.13142C11.5247 4.91145 11.5287 4.68727 11.5287 4.45902C11.5287 4.25596 11.4916 4.0654 11.4178 3.88628C11.339 3.70889 11.2361 3.55305 11.1091 3.41823C10.9781 3.28736 10.826 3.18092 10.6524 3.09917C10.4765 3.0223 10.2891 2.98361 10.0892 2.98361L10 2.98361L10 2.8L10 2L10.0892 2C10.4026 2 10.7059 2.06161 10.9987 2.18473C11.2918 2.30798 11.5506 2.48474 11.7742 2.71498C11.9969 2.94422 12.1621 3.19499 12.2672 3.46766L12.2677 3.46897C12.3661 3.73502 12.4318 4.00971 12.4646 4.29285L12.4648 4.29454C12.4932 4.57848 12.5013 4.86842 12.4892 5.16428C12.4773 5.45379 12.4713 5.74329 12.4713 6.03279C12.4713 6.23117 12.5101 6.41953 12.588 6.59892L12.5887 6.60058C12.6634 6.78129 12.7657 6.9363 12.8959 7.06648L12.8978 7.06839C13.0242 7.20238 13.1754 7.30844 13.3526 7.38604L13.354 7.38666C13.53 7.46762 13.7153 7.5082 13.9108 7.5082L14 7.5082L14 7.6L14 8.4L14 8.4918L13.9108 8.4918C13.715 8.4918 13.5294 8.53046 13.3533 8.6075C13.1753 8.68945 13.0236 8.79595 12.8968 8.92642C12.7658 9.06134 12.6631 9.21704 12.5884 9.39399L12.588 9.39493C12.5103 9.57406 12.4713 9.76444 12.4713 9.96721C12.4713 10.2567 12.4773 10.5462 12.4892 10.8357C12.5013 11.1316 12.4932 11.4195 12.4648 11.6995L12.4647 11.7008C12.4319 11.988 12.3662 12.2648 12.2677 12.531L12.2672 12.5323C12.1621 12.805 11.9969 13.0558 11.7742 13.285C11.5506 13.5153 11.2918 13.692 10.9987 13.8153C10.7059 13.9384 10.4026 14 10.0892 14L10 14L10 13.0282Z" fill="#C5C5C5"/>
</svg>
