<svg width="16" height="16" viewBox="0 0 16 16" fill="none" xmlns="http://www.w3.org/2000/svg">
<path fill-rule="evenodd" clip-rule="evenodd" d="M8.06065 3.85356L5.91421 6L5.2071 5.29289L6.49999 4H3.5C3.10218 4 2.72064 4.15804 2.43934 4.43934C2.15804 4.72065 2 5.10218 2 5.5C2 5.89783 2.15804 6.27936 2.43934 6.56066C2.72064 6.84197 3.10218 7 3.5 7H4V8H3.5C2.83696 8 2.20107 7.73661 1.73223 7.26777C1.26339 6.79893 1 6.16305 1 5.5C1 4.83696 1.26339 4.20108 1.73223 3.73224C2.20107 3.2634 2.83696 3 3.5 3H6.49999L6.49999 3H6.49996L6 2.50004V2.50001L5.2071 1.70711L5.91421 1L8.06065 3.14645L8.06065 3.85356ZM5 6.50003L5.91421 7.41424L6 7.32845V14H14V7H10V3H9.06065V2.73227L8.32838 2H11.2L11.5 2.1L14.9 5.6L15 6V14.5L14.5 15H5.5L5 14.5V9.00003V6.50003ZM11 3V6H13.9032L11 3Z" fill="#424242"/>
</svg>
