<svg width="16" height="16" viewBox="0 0 16 16" fill="none" xmlns="http://www.w3.org/2000/svg">
<path d="M14.4001 9.40005L12.7001 11L14.4001 12.6L13.6001 13.3L12.0001 11.7L10.4001 13.3L9.70015 12.6L11.3001 11L9.70015 9.40005L10.4001 8.60005L12.0001 10.3L13.6001 8.60005L14.4001 9.40005Z" fill="white"/>
<path d="M1.00024 7L14.0002 7L14.0002 5L1.00024 5L1.00024 7Z" fill="white"/>
<path d="M1.00024 4L14.0002 4L14.0002 2L1.00024 2L1.00024 4Z" fill="white"/>
<path d="M8.30024 9.4L9.00024 8.6L9.00024 8L1.00024 8L1.00024 10L8.90024 10L8.30024 9.4Z" fill="white"/>
<path d="M8.70024 13L8.30024 12.6L9.00024 11.9L9.00024 11L1.00024 11L1.00024 13L8.70024 13Z" fill="white"/>
</svg>
