<svg width="16" height="16" viewBox="0 0 16 16" fill="none" xmlns="http://www.w3.org/2000/svg">
<path d="M9.70015 12.6L10.4001 13.3L12.0001 11.7L13.6001 13.3L14.4001 12.6L12.7001 11L14.4001 9.40005L13.6001 8.60005L12.0001 10.3L10.4001 8.60005L9.70015 9.40005L11.3001 11L9.70015 12.6Z" fill="white"/>
<path d="M1.00024 4L14.0002 4L14.0002 3L1.00024 3L1.00024 4Z" fill="white"/>
<path d="M1.00024 7L14.0002 7L14.0002 6L1.00024 6L1.00024 7Z" fill="white"/>
<path d="M8.30015 9.4L8.60015 9L1.00015 9L1.00015 10L8.90015 10L8.30015 9.4Z" fill="white"/>
<path d="M8.70015 13L8.30015 12.6L8.90015 12L1.00015 12L1.00015 13L8.70015 13Z" fill="white"/>
</svg>
