<svg width="16" height="16" viewBox="0 0 16 16" fill="none" xmlns="http://www.w3.org/2000/svg">
<mask id="path-1-outside-1" maskUnits="userSpaceOnUse" x="1" y="1" width="6" height="14" fill="black">
<rect fill="white" x="1" y="1" width="6" height="14"/>
<path fill-rule="evenodd" clip-rule="evenodd" d="M6 2.97184V2.98361H5.91083C5.71113 2.98361 5.5238 3.02427 5.34802 3.10513C5.17461 3.18275 5.02193 3.28942 4.89086 3.42437C4.76421 3.55475 4.66135 3.71034 4.58238 3.89205C4.50833 4.07152 4.47134 4.26019 4.47134 4.45902C4.47134 4.68725 4.4753 4.9134 4.48321 5.13749C4.49125 5.36105 4.49127 5.58262 4.48324 5.80219C4.47914 6.01973 4.46082 6.2333 4.42826 6.44285C4.39513 6.65175 4.33913 6.85263 4.26039 7.04464C4.18091 7.23843 4.07258 7.42254 3.93616 7.59702C3.82345 7.74119 3.68538 7.87538 3.52283 8C3.68538 8.12462 3.82345 8.25881 3.93616 8.40298C4.07258 8.57746 4.18091 8.76157 4.26039 8.95536C4.33921 9.14757 4.39513 9.35024 4.42823 9.56312C4.46084 9.76883 4.47914 9.98246 4.48324 10.2039C4.49127 10.4195 4.49125 10.6411 4.48321 10.8686C4.4753 11.0885 4.47134 11.3127 4.47134 11.541C4.47134 11.744 4.50838 11.9346 4.58223 12.1137C4.66104 12.2911 4.76386 12.4469 4.89086 12.5818C5.02194 12.7126 5.17396 12.8191 5.34763 12.9008C5.52346 12.9777 5.71095 13.0164 5.91083 13.0164H6V13.2V14H5.91083C5.59743 14 5.29407 13.9384 5.00128 13.8153C4.70818 13.692 4.44942 13.5153 4.22578 13.285C4.00311 13.0558 3.83793 12.805 3.73283 12.5323L3.73232 12.531C3.63387 12.265 3.56819 11.9903 3.53535 11.7072L3.53516 11.7055C3.50677 11.4215 3.4987 11.1316 3.51084 10.8357C3.52272 10.5462 3.52866 10.2567 3.52866 9.96721C3.52866 9.76883 3.48986 9.58047 3.41201 9.40108L3.41129 9.39942C3.33659 9.21871 3.23428 9.0637 3.10412 8.93352L3.10221 8.93161C2.97577 8.79762 2.82457 8.69156 2.64742 8.61396L2.64601 8.61334C2.47001 8.53238 2.28465 8.4918 2.08917 8.4918H2V8.4V7.6V7.5082H2.08917C2.28497 7.5082 2.4706 7.46954 2.64672 7.3925C2.82466 7.31055 2.97644 7.20405 3.10317 7.07358C3.23423 6.93866 3.33687 6.78296 3.4116 6.60601L3.412 6.60507C3.48974 6.42594 3.52866 6.23556 3.52866 6.03279C3.52866 5.74329 3.52272 5.45379 3.51084 5.16428C3.4987 4.86844 3.50678 4.5805 3.53519 4.30053L3.53533 4.29917C3.56814 4.01201 3.63382 3.7352 3.73233 3.46898L3.73282 3.46766C3.83792 3.19498 4.00311 2.94422 4.22578 2.71498C4.44942 2.48474 4.70818 2.30798 5.00128 2.18473C5.29407 2.06161 5.59743 2 5.91083 2H6V2.97184Z"/>
</mask>
<path fill-rule="evenodd" clip-rule="evenodd" d="M6 2.97184V2.98361H5.91083C5.71113 2.98361 5.5238 3.02427 5.34802 3.10513C5.17461 3.18275 5.02193 3.28942 4.89086 3.42437C4.76421 3.55475 4.66135 3.71034 4.58238 3.89205C4.50833 4.07152 4.47134 4.26019 4.47134 4.45902C4.47134 4.68725 4.4753 4.9134 4.48321 5.13749C4.49125 5.36105 4.49127 5.58262 4.48324 5.80219C4.47914 6.01973 4.46082 6.2333 4.42826 6.44285C4.39513 6.65175 4.33913 6.85263 4.26039 7.04464C4.18091 7.23843 4.07258 7.42254 3.93616 7.59702C3.82345 7.74119 3.68538 7.87538 3.52283 8C3.68538 8.12462 3.82345 8.25881 3.93616 8.40298C4.07258 8.57746 4.18091 8.76157 4.26039 8.95536C4.33921 9.14757 4.39513 9.35024 4.42823 9.56312C4.46084 9.76883 4.47914 9.98246 4.48324 10.2039C4.49127 10.4195 4.49125 10.6411 4.48321 10.8686C4.4753 11.0885 4.47134 11.3127 4.47134 11.541C4.47134 11.744 4.50838 11.9346 4.58223 12.1137C4.66104 12.2911 4.76386 12.4469 4.89086 12.5818C5.02194 12.7126 5.17396 12.8191 5.34763 12.9008C5.52346 12.9777 5.71095 13.0164 5.91083 13.0164H6V13.2V14H5.91083C5.59743 14 5.29407 13.9384 5.00128 13.8153C4.70818 13.692 4.44942 13.5153 4.22578 13.285C4.00311 13.0558 3.83793 12.805 3.73283 12.5323L3.73232 12.531C3.63387 12.265 3.56819 11.9903 3.53535 11.7072L3.53516 11.7055C3.50677 11.4215 3.4987 11.1316 3.51084 10.8357C3.52272 10.5462 3.52866 10.2567 3.52866 9.96721C3.52866 9.76883 3.48986 9.58047 3.41201 9.40108L3.41129 9.39942C3.33659 9.21871 3.23428 9.0637 3.10412 8.93352L3.10221 8.93161C2.97577 8.79762 2.82457 8.69156 2.64742 8.61396L2.64601 8.61334C2.47001 8.53238 2.28465 8.4918 2.08917 8.4918H2V8.4V7.6V7.5082H2.08917C2.28497 7.5082 2.4706 7.46954 2.64672 7.3925C2.82466 7.31055 2.97644 7.20405 3.10317 7.07358C3.23423 6.93866 3.33687 6.78296 3.4116 6.60601L3.412 6.60507C3.48974 6.42594 3.52866 6.23556 3.52866 6.03279C3.52866 5.74329 3.52272 5.45379 3.51084 5.16428C3.4987 4.86844 3.50678 4.5805 3.53519 4.30053L3.53533 4.29917C3.56814 4.01201 3.63382 3.7352 3.73233 3.46898L3.73282 3.46766C3.83792 3.19498 4.00311 2.94422 4.22578 2.71498C4.44942 2.48474 4.70818 2.30798 5.00128 2.18473C5.29407 2.06161 5.59743 2 5.91083 2H6V2.97184Z" fill="white"/>
<path d="M6 2.98361V3.28361H6.3V2.98361H6ZM5.34802 3.10513L5.47059 3.37896L5.47339 3.37768L5.34802 3.10513ZM4.89086 3.42437L5.10605 3.63339L5.10605 3.63339L4.89086 3.42437ZM4.58238 3.89205L4.3072 3.77246L4.30506 3.77762L4.58238 3.89205ZM4.48321 5.13749L4.1834 5.14808L4.1834 5.14828L4.48321 5.13749ZM4.48324 5.80219L4.1834 5.79123L4.1833 5.79653L4.48324 5.80219ZM4.42826 6.44285L4.72455 6.48984L4.7247 6.48892L4.42826 6.44285ZM4.26039 7.04464L3.98282 6.9308L3.98282 6.93081L4.26039 7.04464ZM3.93616 7.59702L3.69982 7.41225L3.69982 7.41225L3.93616 7.59702ZM3.52283 8L3.3403 7.76192L3.02975 8L3.3403 8.23808L3.52283 8ZM3.93616 8.40298L3.69982 8.58775L3.69982 8.58775L3.93616 8.40298ZM4.26039 8.95536L3.98282 9.06919L3.98282 9.06919L4.26039 8.95536ZM4.42823 9.56312L4.13179 9.60921L4.13193 9.6101L4.42823 9.56312ZM4.48324 10.2039L4.18324 10.2095L4.18345 10.2151L4.48324 10.2039ZM4.48321 10.8686L4.78302 10.8794L4.78303 10.8792L4.48321 10.8686ZM4.58223 12.1137L4.30478 12.2281L4.30807 12.2355L4.58223 12.1137ZM4.89086 12.5818L4.67239 12.7876L4.6789 12.7941L4.89086 12.5818ZM5.34763 12.9008L5.2198 13.1724L5.22747 13.1757L5.34763 12.9008ZM6 13.0164H6.3V12.7164H6V13.0164ZM6 14V14.3H6.3V14H6ZM5.00128 13.8153L5.11757 13.5387L5.11757 13.5387L5.00128 13.8153ZM4.22578 13.285L4.01059 13.494L4.01059 13.494L4.22578 13.285ZM3.73283 12.5323L4.01275 12.4244L4.01273 12.4244L3.73283 12.5323ZM3.73232 12.531L3.45094 12.6351L3.45241 12.639L3.73232 12.531ZM3.53535 11.7072L3.23735 11.7417L3.23735 11.7417L3.53535 11.7072ZM3.53516 11.7055L3.23661 11.7353L3.23715 11.74L3.53516 11.7055ZM3.51084 10.8357L3.21109 10.8234L3.21109 10.8234L3.51084 10.8357ZM3.41201 9.40108L3.1368 9.5205L3.13681 9.52051L3.41201 9.40108ZM3.41129 9.39942L3.13399 9.51403L3.13608 9.51884L3.41129 9.39942ZM3.10412 8.93352L3.31626 8.7214L3.31624 8.72139L3.10412 8.93352ZM3.10221 8.93161L2.88392 9.13759L2.89008 9.14375L3.10221 8.93161ZM2.64742 8.61396L2.7678 8.33917L2.76779 8.33916L2.64742 8.61396ZM2.64601 8.61334L2.52062 8.88593L2.52564 8.88813L2.64601 8.61334ZM2 8.4918H1.7V8.7918H2V8.4918ZM2 7.5082V7.2082H1.7V7.5082H2ZM2.64672 7.3925L2.76697 7.6674L2.77221 7.66499L2.64672 7.3925ZM3.10317 7.07358L3.31836 7.28261L3.31836 7.28261L3.10317 7.07358ZM3.4116 6.60601L3.13524 6.48929L3.13524 6.48929L3.4116 6.60601ZM3.412 6.60507L3.13679 6.48562L3.13564 6.48835L3.412 6.60507ZM3.51084 5.16428L3.21109 5.17659L3.21109 5.17659L3.51084 5.16428ZM3.53519 4.30053L3.83365 4.33082L3.83366 4.3308L3.53519 4.30053ZM3.53533 4.29917L3.23724 4.26511L3.23686 4.2689L3.53533 4.29917ZM3.73233 3.46898L3.45098 3.36486L3.45097 3.36487L3.73233 3.46898ZM3.73282 3.46766L3.45287 3.35975L3.45147 3.36354L3.73282 3.46766ZM4.22578 2.71498L4.44097 2.924L4.44097 2.924L4.22578 2.71498ZM5.00128 2.18473L5.11757 2.46128L5.11757 2.46128L5.00128 2.18473ZM6 2H6.3V1.7H6V2ZM5.7 2.97184V2.98361H6.3V2.97184H5.7ZM6 2.68361H5.91083V3.28361H6V2.68361ZM5.91083 2.68361C5.66894 2.68361 5.43873 2.73318 5.22265 2.83258L5.47339 3.37768C5.60887 3.31535 5.75333 3.28361 5.91083 3.28361V2.68361ZM5.22545 2.83131C5.01762 2.92434 4.83344 3.05291 4.67567 3.21534L5.10605 3.63339C5.21043 3.52594 5.3316 3.44116 5.47058 3.37895L5.22545 2.83131ZM4.67567 3.21534C4.52184 3.37371 4.39947 3.56027 4.30724 3.77248L4.85752 4.01162C4.92324 3.86042 5.00658 3.7358 5.10605 3.63339L4.67567 3.21534ZM4.30506 3.77762C4.21569 3.99422 4.17134 4.22184 4.17134 4.45902H4.77134C4.77134 4.29854 4.80096 4.14883 4.8597 4.00648L4.30506 3.77762ZM4.17134 4.45902C4.17134 4.69071 4.17536 4.9204 4.1834 5.14808L4.78302 5.1269C4.77524 4.9064 4.77134 4.68378 4.77134 4.45902H4.17134ZM4.1834 5.14828C4.19119 5.36473 4.1912 5.57904 4.18344 5.79123L4.78304 5.81314C4.79134 5.5862 4.79131 5.35737 4.78302 5.12671L4.1834 5.14828ZM4.1833 5.79653C4.17944 6.00091 4.16225 6.20097 4.13181 6.39678L4.7247 6.48892C4.7594 6.26563 4.77883 6.03855 4.78319 5.80785L4.1833 5.79653ZM4.13196 6.39586C4.10239 6.58233 4.05257 6.76074 3.98282 6.9308L4.53795 7.15847C4.6257 6.94452 4.68787 6.72117 4.72455 6.48984L4.13196 6.39586ZM3.98282 6.93081C3.91447 7.09746 3.82049 7.2579 3.69982 7.41225L4.1725 7.7818C4.32466 7.58718 4.44734 7.3794 4.53795 7.15847L3.98282 6.93081ZM3.69982 7.41225C3.60473 7.53388 3.48549 7.65061 3.3403 7.76192L3.70535 8.23808C3.88527 8.10015 4.04218 7.94849 4.1725 7.7818L3.69982 7.41225ZM3.3403 8.23808C3.48549 8.34939 3.60473 8.46612 3.69982 8.58775L4.1725 8.2182C4.04218 8.0515 3.88527 7.89985 3.70535 7.76192L3.3403 8.23808ZM3.69982 8.58775C3.82049 8.7421 3.91447 8.90254 3.98282 9.06919L4.53795 8.84153C4.44734 8.6206 4.32466 8.41282 4.1725 8.2182L3.69982 8.58775ZM3.98282 9.06919C4.05237 9.23878 4.10216 9.41864 4.13179 9.60921L4.72467 9.51703C4.6881 9.28185 4.62606 9.05636 4.53795 8.84153L3.98282 9.06919ZM4.13193 9.6101C4.16223 9.80121 4.17943 10.001 4.18329 10.2095L4.78319 10.1984C4.77885 9.96397 4.75946 9.73645 4.72453 9.51614L4.13193 9.6101ZM4.18345 10.2151C4.19119 10.423 4.19119 10.6373 4.1834 10.858L4.78303 10.8792C4.7913 10.6448 4.79135 10.416 4.78304 10.1928L4.18345 10.2151ZM4.18341 10.8578C4.17536 11.0815 4.17134 11.3093 4.17134 11.541H4.77134C4.77134 11.3162 4.77524 11.0956 4.78302 10.8794L4.18341 10.8578ZM4.17134 11.541C4.17134 11.7816 4.21544 12.0112 4.30488 12.2281L4.85958 11.9994C4.80131 11.858 4.77134 11.7065 4.77134 11.541H4.17134ZM4.30807 12.2355C4.39998 12.4424 4.52126 12.6269 4.67249 12.7875L5.10923 12.3761C5.00647 12.267 4.9221 12.1398 4.85639 11.9919L4.30807 12.2355ZM4.6789 12.7941C4.83507 12.95 5.01577 13.0762 5.21985 13.1723L5.47541 12.6294C5.33215 12.562 5.2088 12.4753 5.10283 12.3695L4.6789 12.7941ZM5.22747 13.1757C5.44245 13.2697 5.67099 13.3164 5.91083 13.3164V12.7164C5.75091 12.7164 5.60447 12.6857 5.46779 12.626L5.22747 13.1757ZM5.91083 13.3164H6V12.7164H5.91083V13.3164ZM5.7 13.0164V13.2H6.3V13.0164H5.7ZM5.7 13.2V14H6.3V13.2H5.7ZM6 13.7H5.91083V14.3H6V13.7ZM5.91083 13.7C5.63791 13.7 5.37405 13.6466 5.11757 13.5387L4.88499 14.0918C5.21409 14.2302 5.55694 14.3 5.91083 14.3V13.7ZM5.11757 13.5387C4.86187 13.4312 4.6367 13.2775 4.44097 13.076L4.01059 13.494C4.26214 13.753 4.55448 13.9528 4.88499 14.0918L5.11757 13.5387ZM4.44097 13.076C4.24323 12.8724 4.10173 12.6553 4.01275 12.4244L3.4529 12.6402C3.57413 12.9548 3.76299 13.2391 4.01059 13.494L4.44097 13.076ZM4.01273 12.4244L4.01223 12.4231L3.45241 12.639L3.45292 12.6403L4.01273 12.4244ZM4.01368 12.4269C3.92357 12.1834 3.86345 11.9321 3.83336 11.6726L3.23735 11.7417C3.27293 12.0485 3.34418 12.3466 3.45096 12.6351L4.01368 12.4269ZM3.83336 11.6726L3.83316 11.6709L3.23715 11.74L3.23735 11.7417L3.83336 11.6726ZM3.83367 11.6756C3.80673 11.4062 3.799 11.1304 3.81059 10.848L3.21109 10.8234C3.1984 11.1328 3.2068 11.4368 3.23665 11.7353L3.83367 11.6756ZM3.81059 10.848C3.82264 10.5544 3.82866 10.2608 3.82866 9.96721H3.22866C3.22866 10.2526 3.22281 10.538 3.21109 10.8234L3.81059 10.848ZM3.82866 9.96721C3.82866 9.72837 3.78167 9.4993 3.68721 9.28164L3.13681 9.52051C3.19805 9.66164 3.22866 9.80929 3.22866 9.96721H3.82866ZM3.68721 9.28165L3.68649 9.27999L3.13608 9.51884L3.1368 9.5205L3.68721 9.28165ZM3.68854 9.28482C3.59966 9.06979 3.47593 8.88109 3.31626 8.7214L2.89198 9.14565C2.99263 9.24631 3.07353 9.36763 3.13404 9.51401L3.68854 9.28482ZM3.31624 8.72139L3.31433 8.71947L2.89008 9.14375L2.89199 9.14566L3.31624 8.72139ZM3.3204 8.72573C3.16536 8.56141 2.98055 8.43237 2.7678 8.33917L2.52704 8.88874C2.6686 8.95076 2.78619 9.03383 2.88401 9.1375L3.3204 8.72573ZM2.76779 8.33916L2.76638 8.33854L2.52564 8.88813L2.52705 8.88875L2.76779 8.33916ZM2.77138 8.34079C2.55587 8.24166 2.32772 8.1918 2.08917 8.1918V8.7918C2.24158 8.7918 2.38416 8.82311 2.52064 8.88589L2.77138 8.34079ZM2.08917 8.1918H2V8.7918H2.08917V8.1918ZM2.3 8.4918V8.4H1.7V8.4918H2.3ZM2.3 8.4V7.6H1.7V8.4H2.3ZM2.3 7.6V7.5082H1.7V7.6H2.3ZM2 7.8082H2.08917V7.2082H2V7.8082ZM2.08917 7.8082C2.32578 7.8082 2.55239 7.76121 2.76695 7.66735L2.52648 7.11765C2.3888 7.17788 2.24416 7.2082 2.08917 7.2082V7.8082ZM2.77221 7.66499C2.98167 7.56853 3.16438 7.44113 3.31836 7.28261L2.88798 6.86456C2.7885 6.96697 2.66764 7.05258 2.52123 7.12001L2.77221 7.66499ZM3.31836 7.28261C3.47597 7.12035 3.5991 6.93316 3.68797 6.72272L3.13524 6.48929C3.07465 6.63276 2.99248 6.75697 2.88798 6.86456L3.31836 7.28261ZM3.68797 6.72272L3.68837 6.72178L3.13564 6.48835L3.13524 6.48929L3.68797 6.72272ZM3.6872 6.7245C3.78187 6.50638 3.82866 6.27521 3.82866 6.03279H3.22866C3.22866 6.19591 3.19762 6.34549 3.1368 6.48563L3.6872 6.7245ZM3.82866 6.03279C3.82866 5.73918 3.82264 5.44558 3.81059 5.15198L3.21109 5.17659C3.22281 5.46199 3.22866 5.74739 3.22866 6.03279H3.82866ZM3.81059 5.15198C3.799 4.86957 3.80675 4.59589 3.83365 4.33082L3.23672 4.27024C3.2068 4.56511 3.1984 4.86731 3.21109 5.17659L3.81059 5.15198ZM3.83366 4.3308L3.83379 4.32944L3.23686 4.2689L3.23672 4.27026L3.83366 4.3308ZM3.83339 4.33323C3.86352 4.06956 3.92369 3.8163 4.01368 3.57309L3.45097 3.36487C3.34395 3.6541 3.27277 3.95446 3.23727 4.26511L3.83339 4.33323ZM4.01368 3.5731L4.01417 3.57178L3.45147 3.36354L3.45098 3.36486L4.01368 3.5731ZM4.01274 3.57556C4.10171 3.34473 4.24323 3.12759 4.44097 2.924L4.01059 2.50595C3.763 2.76085 3.57413 3.04523 3.45289 3.35976L4.01274 3.57556ZM4.44097 2.924C4.6367 2.7225 4.86187 2.5688 5.11757 2.46128L4.88499 1.90819C4.55448 2.04717 4.26214 2.24697 4.01059 2.50595L4.44097 2.924ZM5.11757 2.46128C5.37405 2.35342 5.63791 2.3 5.91083 2.3V1.7C5.55694 1.7 5.21409 1.7698 4.88499 1.90819L5.11757 2.46128ZM5.91083 2.3H6V1.7H5.91083V2.3ZM5.7 2V2.97184H6.3V2H5.7Z" fill="white" mask="url(#path-1-outside-1)"/>
<mask id="path-3-outside-2" maskUnits="userSpaceOnUse" x="9" y="1" width="6" height="14" fill="black">
<rect fill="white" x="9" y="1" width="6" height="14"/>
<path fill-rule="evenodd" clip-rule="evenodd" d="M10 13.0282L10 13.0164L10.0892 13.0164C10.2889 13.0164 10.4762 12.9757 10.652 12.8949C10.8254 12.8173 10.9781 12.7106 11.1091 12.5756C11.2358 12.4452 11.3386 12.2897 11.4176 12.1079C11.4917 11.9285 11.5287 11.7398 11.5287 11.541C11.5287 11.3128 11.5247 11.0866 11.5168 10.8625C11.5087 10.6389 11.5087 10.4174 11.5168 10.1978C11.5209 9.98027 11.5392 9.7667 11.5717 9.55715C11.6049 9.34825 11.6609 9.14737 11.7396 8.95536C11.8191 8.76157 11.9274 8.57746 12.0638 8.40298C12.1765 8.25881 12.3146 8.12462 12.4772 8C12.3146 7.87538 12.1765 7.74119 12.0638 7.59702C11.9274 7.42254 11.8191 7.23843 11.7396 7.04464C11.6608 6.85243 11.6049 6.64976 11.5718 6.43688C11.5392 6.23117 11.5209 6.01754 11.5168 5.79605C11.5087 5.58049 11.5088 5.35894 11.5168 5.13142C11.5247 4.91145 11.5287 4.68727 11.5287 4.45902C11.5287 4.25596 11.4916 4.0654 11.4178 3.88628C11.339 3.70889 11.2361 3.55305 11.1091 3.41823C10.9781 3.28736 10.826 3.18092 10.6524 3.09917C10.4765 3.0223 10.2891 2.98361 10.0892 2.98361L10 2.98361L10 2.8L10 2L10.0892 2C10.4026 2 10.7059 2.06161 10.9987 2.18473C11.2918 2.30798 11.5506 2.48474 11.7742 2.71498C11.9969 2.94422 12.1621 3.19499 12.2672 3.46766L12.2677 3.46897C12.3661 3.73502 12.4318 4.00971 12.4646 4.29285L12.4648 4.29454C12.4932 4.57848 12.5013 4.86842 12.4892 5.16428C12.4773 5.45379 12.4713 5.74329 12.4713 6.03279C12.4713 6.23117 12.5101 6.41953 12.588 6.59892L12.5887 6.60058C12.6634 6.78129 12.7657 6.9363 12.8959 7.06648L12.8978 7.06839C13.0242 7.20238 13.1754 7.30844 13.3526 7.38604L13.354 7.38666C13.53 7.46762 13.7153 7.5082 13.9108 7.5082L14 7.5082L14 7.6L14 8.4L14 8.4918L13.9108 8.4918C13.715 8.4918 13.5294 8.53046 13.3533 8.6075C13.1753 8.68945 13.0236 8.79595 12.8968 8.92642C12.7658 9.06134 12.6631 9.21704 12.5884 9.39399L12.588 9.39493C12.5103 9.57406 12.4713 9.76444 12.4713 9.96721C12.4713 10.2567 12.4773 10.5462 12.4892 10.8357C12.5013 11.1316 12.4932 11.4195 12.4648 11.6995L12.4647 11.7008C12.4319 11.988 12.3662 12.2648 12.2677 12.531L12.2672 12.5323C12.1621 12.805 11.9969 13.0558 11.7742 13.285C11.5506 13.5153 11.2918 13.692 10.9987 13.8153C10.7059 13.9384 10.4026 14 10.0892 14L10 14L10 13.0282Z"/>
</mask>
<path fill-rule="evenodd" clip-rule="evenodd" d="M10 13.0282L10 13.0164L10.0892 13.0164C10.2889 13.0164 10.4762 12.9757 10.652 12.8949C10.8254 12.8173 10.9781 12.7106 11.1091 12.5756C11.2358 12.4452 11.3386 12.2897 11.4176 12.1079C11.4917 11.9285 11.5287 11.7398 11.5287 11.541C11.5287 11.3128 11.5247 11.0866 11.5168 10.8625C11.5087 10.6389 11.5087 10.4174 11.5168 10.1978C11.5209 9.98027 11.5392 9.7667 11.5717 9.55715C11.6049 9.34825 11.6609 9.14737 11.7396 8.95536C11.8191 8.76157 11.9274 8.57746 12.0638 8.40298C12.1765 8.25881 12.3146 8.12462 12.4772 8C12.3146 7.87538 12.1765 7.74119 12.0638 7.59702C11.9274 7.42254 11.8191 7.23843 11.7396 7.04464C11.6608 6.85243 11.6049 6.64976 11.5718 6.43688C11.5392 6.23117 11.5209 6.01754 11.5168 5.79605C11.5087 5.58049 11.5088 5.35894 11.5168 5.13142C11.5247 4.91145 11.5287 4.68727 11.5287 4.45902C11.5287 4.25596 11.4916 4.0654 11.4178 3.88628C11.339 3.70889 11.2361 3.55305 11.1091 3.41823C10.9781 3.28736 10.826 3.18092 10.6524 3.09917C10.4765 3.0223 10.2891 2.98361 10.0892 2.98361L10 2.98361L10 2.8L10 2L10.0892 2C10.4026 2 10.7059 2.06161 10.9987 2.18473C11.2918 2.30798 11.5506 2.48474 11.7742 2.71498C11.9969 2.94422 12.1621 3.19499 12.2672 3.46766L12.2677 3.46897C12.3661 3.73502 12.4318 4.00971 12.4646 4.29285L12.4648 4.29454C12.4932 4.57848 12.5013 4.86842 12.4892 5.16428C12.4773 5.45379 12.4713 5.74329 12.4713 6.03279C12.4713 6.23117 12.5101 6.41953 12.588 6.59892L12.5887 6.60058C12.6634 6.78129 12.7657 6.9363 12.8959 7.06648L12.8978 7.06839C13.0242 7.20238 13.1754 7.30844 13.3526 7.38604L13.354 7.38666C13.53 7.46762 13.7153 7.5082 13.9108 7.5082L14 7.5082L14 7.6L14 8.4L14 8.4918L13.9108 8.4918C13.715 8.4918 13.5294 8.53046 13.3533 8.6075C13.1753 8.68945 13.0236 8.79595 12.8968 8.92642C12.7658 9.06134 12.6631 9.21704 12.5884 9.39399L12.588 9.39493C12.5103 9.57406 12.4713 9.76444 12.4713 9.96721C12.4713 10.2567 12.4773 10.5462 12.4892 10.8357C12.5013 11.1316 12.4932 11.4195 12.4648 11.6995L12.4647 11.7008C12.4319 11.988 12.3662 12.2648 12.2677 12.531L12.2672 12.5323C12.1621 12.805 11.9969 13.0558 11.7742 13.285C11.5506 13.5153 11.2918 13.692 10.9987 13.8153C10.7059 13.9384 10.4026 14 10.0892 14L10 14L10 13.0282Z" fill="white"/>
<path d="M10 13.0164L10 12.7164L9.7 12.7164L9.7 13.0164L10 13.0164ZM10.652 12.8949L10.5294 12.621L10.5266 12.6223L10.652 12.8949ZM11.1091 12.5756L10.8939 12.3666L10.8939 12.3666L11.1091 12.5756ZM11.4176 12.1079L11.6928 12.2275L11.6949 12.2224L11.4176 12.1079ZM11.5168 10.8625L11.8166 10.8519L11.8166 10.8517L11.5168 10.8625ZM11.5168 10.1978L11.8166 10.2088L11.8167 10.2035L11.5168 10.1978ZM11.5717 9.55715L11.2754 9.51016L11.2753 9.51108L11.5717 9.55715ZM11.7396 8.95536L12.0172 9.0692L12.0172 9.06919L11.7396 8.95536ZM12.0638 8.40298L12.3002 8.58775L12.3002 8.58775L12.0638 8.40298ZM12.4772 8L12.6597 8.23808L12.9703 8L12.6597 7.76192L12.4772 8ZM12.0638 7.59702L12.3002 7.41225L12.3002 7.41225L12.0638 7.59702ZM11.7396 7.04464L12.0172 6.93081L12.0172 6.93081L11.7396 7.04464ZM11.5718 6.43688L11.8682 6.39079L11.8681 6.3899L11.5718 6.43688ZM11.5168 5.79605L11.8168 5.7905L11.8165 5.78489L11.5168 5.79605ZM11.5168 5.13142L11.217 5.12063L11.217 5.12083L11.5168 5.13142ZM11.4178 3.88628L11.6952 3.77189L11.6919 3.76447L11.4178 3.88628ZM11.1091 3.41823L11.3276 3.21243L11.3211 3.20593L11.1091 3.41823ZM10.6524 3.09917L10.7802 2.82763L10.7725 2.82428L10.6524 3.09917ZM10 2.98361L9.7 2.98361L9.7 3.28361L10 3.28361L10 2.98361ZM10 2L10 1.7L9.7 1.7L9.7 2L10 2ZM10.0892 2L10.0892 2.3L10.0892 2ZM10.9987 2.18473L10.8824 2.46128L10.8824 2.46128L10.9987 2.18473ZM11.7742 2.71498L11.9894 2.50595L11.9894 2.50595L11.7742 2.71498ZM12.2672 3.46766L11.9872 3.57556L11.9873 3.5756L12.2672 3.46766ZM12.2677 3.46897L12.5491 3.36485L12.5476 3.36103L12.2677 3.46897ZM12.4646 4.29285L12.7626 4.25829L12.7626 4.25828L12.4646 4.29285ZM12.4648 4.29454L12.7634 4.26469L12.7628 4.25999L12.4648 4.29454ZM12.4892 5.16428L12.7889 5.17659L12.7889 5.17659L12.4892 5.16428ZM12.588 6.59892L12.8632 6.4795L12.8632 6.47949L12.588 6.59892ZM12.5887 6.60058L12.866 6.48597L12.8639 6.48116L12.5887 6.60058ZM12.8959 7.06648L12.6837 7.2786L12.6838 7.27861L12.8959 7.06648ZM12.8978 7.06839L13.1161 6.86241L13.1099 6.85625L12.8978 7.06839ZM13.3526 7.38604L13.2322 7.66083L13.2322 7.66084L13.3526 7.38604ZM13.354 7.38666L13.4794 7.11407L13.4744 7.11187L13.354 7.38666ZM14 7.5082L14.3 7.5082L14.3 7.2082L14 7.2082L14 7.5082ZM14 8.4918L14 8.7918L14.3 8.7918L14.3 8.4918L14 8.4918ZM13.3533 8.6075L13.233 8.3326L13.2278 8.33501L13.3533 8.6075ZM12.8968 8.92642L12.6816 8.71739L12.6816 8.71739L12.8968 8.92642ZM12.5884 9.39399L12.8648 9.51071L12.8648 9.51071L12.5884 9.39399ZM12.588 9.39493L12.8632 9.51438L12.8644 9.51165L12.588 9.39493ZM12.4892 10.8357L12.7889 10.8234L12.7889 10.8234L12.4892 10.8357ZM12.4648 11.6995L12.1663 11.6692L12.1663 11.6692L12.4648 11.6995ZM12.4647 11.7008L12.7628 11.7349L12.7631 11.7311L12.4647 11.7008ZM12.2677 12.531L12.549 12.6351L12.549 12.6351L12.2677 12.531ZM12.2672 12.5323L12.5471 12.6402L12.5485 12.6365L12.2672 12.5323ZM11.7742 13.285L11.559 13.076L11.559 13.076L11.7742 13.285ZM10.9987 13.8153L10.8824 13.5387L10.8824 13.5387L10.9987 13.8153ZM10 14L9.7 14L9.7 14.3L10 14.3L10 14ZM10.3 13.0282L10.3 13.0164L9.7 13.0164L9.7 13.0282L10.3 13.0282ZM10 13.3164L10.0892 13.3164L10.0892 12.7164L10 12.7164L10 13.3164ZM10.0892 13.3164C10.3311 13.3164 10.5613 13.2668 10.7774 13.1674L10.5266 12.6223C10.3911 12.6846 10.2467 12.7164 10.0892 12.7164L10.0892 13.3164ZM10.7745 13.1687C10.9824 13.0757 11.1666 12.9471 11.3243 12.7847L10.8939 12.3666C10.7896 12.4741 10.6684 12.5588 10.5294 12.6211L10.7745 13.1687ZM11.3243 12.7847C11.4782 12.6263 11.6005 12.4397 11.6928 12.2275L11.1425 11.9884C11.0768 12.1396 10.9934 12.2642 10.8939 12.3666L11.3243 12.7847ZM11.6949 12.2224C11.7843 12.0058 11.8287 11.7782 11.8287 11.541L11.2287 11.541C11.2287 11.7015 11.199 11.8512 11.1403 11.9935L11.6949 12.2224ZM11.8287 11.541C11.8287 11.3093 11.8246 11.0796 11.8166 10.8519L11.217 10.8731C11.2248 11.0936 11.2287 11.3162 11.2287 11.541L11.8287 11.541ZM11.8166 10.8517C11.8088 10.6353 11.8088 10.421 11.8166 10.2088L11.217 10.1869C11.2087 10.4138 11.2087 10.6426 11.217 10.8733L11.8166 10.8517ZM11.8167 10.2035C11.8206 9.99909 11.8378 9.79903 11.8682 9.60322L11.2753 9.51108C11.2406 9.73437 11.2212 9.96145 11.2168 10.1922L11.8167 10.2035ZM11.868 9.60414C11.8976 9.41767 11.9474 9.23926 12.0172 9.0692L11.4621 8.84153C11.3743 9.05548 11.3121 9.27883 11.2754 9.51016L11.868 9.60414ZM12.0172 9.06919C12.0855 8.90254 12.1795 8.7421 12.3002 8.58775L11.8275 8.2182C11.6753 8.41282 11.5527 8.6206 11.4621 8.84153L12.0172 9.06919ZM12.3002 8.58775C12.3953 8.46612 12.5145 8.34939 12.6597 8.23808L12.2946 7.76192C12.1147 7.89985 11.9578 8.05151 11.8275 8.2182L12.3002 8.58775ZM12.6597 7.76192C12.5145 7.65061 12.3953 7.53388 12.3002 7.41225L11.8275 7.7818C11.9578 7.9485 12.1147 8.10015 12.2946 8.23808L12.6597 7.76192ZM12.3002 7.41225C12.1795 7.2579 12.0855 7.09746 12.0172 6.93081L11.4621 7.15847C11.5527 7.3794 11.6753 7.58718 11.8275 7.7818L12.3002 7.41225ZM12.0172 6.93081C11.9476 6.76122 11.8978 6.58136 11.8682 6.39079L11.2753 6.48297C11.3119 6.71815 11.3739 6.94364 11.4621 7.15847L12.0172 6.93081ZM11.8681 6.3899C11.8378 6.19879 11.8206 5.99904 11.8167 5.7905L11.2168 5.80161C11.2212 6.03603 11.2405 6.26355 11.2755 6.48385L11.8681 6.3899ZM11.8165 5.78489C11.8088 5.57698 11.8088 5.36269 11.8166 5.14201L11.217 5.12083C11.2087 5.35519 11.2087 5.58401 11.217 5.80722L11.8165 5.78489ZM11.8166 5.1422C11.8246 4.91852 11.8287 4.69074 11.8287 4.45902L11.2287 4.45902C11.2287 4.6838 11.2248 4.90438 11.217 5.12063L11.8166 5.1422ZM11.8287 4.45902C11.8287 4.21842 11.7846 3.98885 11.6951 3.77193L11.1404 4.00063C11.1987 4.14195 11.2287 4.29351 11.2287 4.45902L11.8287 4.45902ZM11.6919 3.76447C11.6 3.5576 11.4787 3.37307 11.3275 3.21253L10.8908 3.62393C10.9935 3.73303 11.0779 3.86019 11.1436 4.00809L11.6919 3.76447ZM11.3211 3.20593C11.1649 3.05 10.9842 2.92381 10.7802 2.82774L10.5246 3.37059C10.6679 3.43803 10.7912 3.52473 10.8972 3.63053L11.3211 3.20593ZM10.7725 2.82428C10.5575 2.7303 10.329 2.68361 10.0892 2.68361L10.0892 3.28361C10.2491 3.28361 10.3955 3.3143 10.5322 3.37405L10.7725 2.82428ZM10.0892 2.68361L10 2.68361L10 3.28361L10.0892 3.28361L10.0892 2.68361ZM10.3 2.98361L10.3 2.8L9.7 2.8L9.7 2.98361L10.3 2.98361ZM10.3 2.8L10.3 2L9.7 2L9.7 2.8L10.3 2.8ZM10 2.3L10.0892 2.3L10.0892 1.7L10 1.7L10 2.3ZM10.0892 2.3C10.3621 2.3 10.626 2.35342 10.8824 2.46128L11.115 1.90819C10.7859 1.7698 10.4431 1.7 10.0892 1.7L10.0892 2.3ZM10.8824 2.46128C11.1381 2.56879 11.3633 2.7225 11.559 2.924L11.9894 2.50595C11.7379 2.24697 11.4455 2.04717 11.115 1.90819L10.8824 2.46128ZM11.559 2.924C11.7568 3.12758 11.8983 3.34473 11.9872 3.57556L12.5471 3.35976C12.4259 3.04524 12.237 2.76085 11.9894 2.50595L11.559 2.924ZM11.9873 3.5756L11.9878 3.57691L12.5476 3.36103L12.5471 3.35972L11.9873 3.5756ZM11.9863 3.57308C12.0764 3.8166 12.1366 4.06794 12.1666 4.32741L12.7626 4.25828C12.7271 3.95149 12.6558 3.65345 12.549 3.36486L11.9863 3.57308ZM12.1666 4.3274L12.1668 4.32909L12.7628 4.25999L12.7626 4.25829L12.1666 4.3274ZM12.1663 4.32439C12.1933 4.59377 12.201 4.86961 12.1894 5.15198L12.7889 5.17659C12.8016 4.86722 12.7932 4.56319 12.7634 4.26469L12.1663 4.32439ZM12.1894 5.15198C12.1774 5.44558 12.1713 5.73918 12.1713 6.03279L12.7713 6.03279C12.7713 5.74739 12.7772 5.462 12.7889 5.17659L12.1894 5.15198ZM12.1713 6.03279C12.1713 6.27163 12.2183 6.5007 12.3128 6.71836L12.8632 6.47949C12.8019 6.33836 12.7713 6.19071 12.7713 6.03279L12.1713 6.03279ZM12.3128 6.71835L12.3135 6.72001L12.8639 6.48116L12.8632 6.4795L12.3128 6.71835ZM12.3115 6.71518C12.4003 6.93021 12.5241 7.11891 12.6837 7.2786L13.108 6.85435C13.0074 6.75369 12.9265 6.63237 12.866 6.48599L12.3115 6.71518ZM12.6838 7.27861L12.6857 7.28053L13.1099 6.85625L13.108 6.85434L12.6838 7.27861ZM12.6796 7.27427C12.8346 7.43859 13.0194 7.56763 13.2322 7.66083L13.473 7.11126C13.3314 7.04924 13.2138 6.96617 13.116 6.8625L12.6796 7.27427ZM13.2322 7.66084L13.2336 7.66146L13.4744 7.11187L13.4729 7.11125L13.2322 7.66084ZM13.2286 7.65921C13.4441 7.75834 13.6723 7.8082 13.9108 7.8082L13.9108 7.2082C13.7584 7.2082 13.6158 7.17689 13.4794 7.11411L13.2286 7.65921ZM13.9108 7.8082L14 7.8082L14 7.2082L13.9108 7.2082L13.9108 7.8082ZM13.7 7.5082L13.7 7.6L14.3 7.6L14.3 7.5082L13.7 7.5082ZM13.7 7.6L13.7 8.4L14.3 8.4L14.3 7.6L13.7 7.6ZM13.7 8.4L13.7 8.4918L14.3 8.4918L14.3 8.4L13.7 8.4ZM14 8.1918L13.9108 8.1918L13.9108 8.7918L14 8.7918L14 8.1918ZM13.9108 8.1918C13.6742 8.1918 13.4476 8.23879 13.233 8.33265L13.4735 8.88235C13.6112 8.82212 13.7558 8.7918 13.9108 8.7918L13.9108 8.1918ZM13.2278 8.33501C13.0183 8.43147 12.8356 8.55887 12.6816 8.71739L13.112 9.13544C13.2115 9.03303 13.3324 8.94742 13.4788 8.87999L13.2278 8.33501ZM12.6816 8.71739C12.524 8.87965 12.4009 9.06684 12.312 9.27728L12.8648 9.51071C12.9254 9.36724 13.0075 9.24303 13.112 9.13544L12.6816 8.71739ZM12.312 9.27728L12.3116 9.27822L12.8644 9.51165L12.8648 9.51071L12.312 9.27728ZM12.3128 9.2755C12.2181 9.49362 12.1713 9.72479 12.1713 9.96721L12.7713 9.96721C12.7713 9.80409 12.8024 9.65451 12.8632 9.51437L12.3128 9.2755ZM12.1713 9.96721C12.1713 10.2608 12.1774 10.5544 12.1894 10.848L12.7889 10.8234C12.7772 10.538 12.7713 10.2526 12.7713 9.96721L12.1713 9.96721ZM12.1894 10.848C12.201 11.1304 12.1932 11.4041 12.1663 11.6692L12.7633 11.7298C12.7932 11.4349 12.8016 11.1327 12.7889 10.8234L12.1894 10.848ZM12.1663 11.6692L12.1662 11.6706L12.7631 11.7311L12.7633 11.7297L12.1663 11.6692ZM12.1666 11.6668C12.1365 11.9304 12.0763 12.1837 11.9863 12.4269L12.549 12.6351C12.6561 12.3459 12.7272 12.0455 12.7627 11.7349L12.1666 11.6668ZM11.9863 12.4269L11.9858 12.4282L12.5485 12.6365L12.549 12.6351L11.9863 12.4269ZM11.9873 12.4244C11.8983 12.6553 11.7568 12.8724 11.559 13.076L11.9894 13.494C12.237 13.2392 12.4259 12.9548 12.5471 12.6402L11.9873 12.4244ZM11.559 13.076C11.3633 13.2775 11.1381 13.4312 10.8824 13.5387L11.115 14.0918C11.4455 13.9528 11.7379 13.753 11.9894 13.494L11.559 13.076ZM10.8824 13.5387C10.626 13.6466 10.3621 13.7 10.0892 13.7L10.0892 14.3C10.4431 14.3 10.7859 14.2302 11.115 14.0918L10.8824 13.5387ZM10.0892 13.7L10 13.7L10 14.3L10.0892 14.3L10.0892 13.7ZM10.3 14L10.3 13.0282L9.7 13.0282L9.7 14L10.3 14Z" fill="white" mask="url(#path-3-outside-2)"/>
</svg>
