<svg width="16" height="16" viewBox="0 0 16 16" fill="none" xmlns="http://www.w3.org/2000/svg">
<path fill-rule="evenodd" clip-rule="evenodd" d="M14 4H3L3 11H14V4ZM3 3C2.44772 3 2 3.44772 2 4V11C2 11.5523 2.44772 12 3 12H14C14.5523 12 15 11.5523 15 11V4C15 3.44772 14.5523 3 14 3H3Z" fill="white"/>
<path d="M4 5H5V6H4V5Z" fill="white"/>
<path d="M6 5H7V6H6V5Z" fill="white"/>
<path d="M8 5H9V6H8V5Z" fill="white"/>
<path d="M10 5H11V6H10V5Z" fill="white"/>
<path d="M12 5H13V6H12V5Z" fill="white"/>
<path d="M4 7H6V8H4V7Z" fill="white"/>
<path d="M7 7H8V8H7V7Z" fill="white"/>
<path d="M9 7H10V8H9V7Z" fill="white"/>
<path d="M11 7H13V8H11V7Z" fill="white"/>
<path d="M4 9H5V10H4V9Z" fill="white"/>
<path d="M6 9H11V10H6V9Z" fill="white"/>
<path d="M12 9H13V10H12V9Z" fill="white"/>
</svg>
