<svg width="16" height="16" viewBox="0 0 16 16" fill="none" xmlns="http://www.w3.org/2000/svg">
<path fill-rule="evenodd" clip-rule="evenodd" d="M2 5C2 4.44772 2.44772 4 3 4H14C14.5523 4 15 4.44772 15 5V11C15 11.5523 14.5523 12 14 12H3C2.44772 12 2 11.5523 2 11V5ZM3 5.5H4V6.5H3V5.5ZM5 5.5H6V6.5H5V5.5ZM8 5.5H7V6.5H8V5.5ZM9 5.5H10V6.5H9V5.5ZM14 5.5H13V6.5H14V5.5ZM5 7.5V8.5H3V7.5H5ZM7 7.5H6V8.5H7V7.5ZM8 7.5H9V8.5H8V7.5ZM14 8.5V7.5H12V8.5H14ZM3 9.5H4V10.5H3V9.5ZM10 9.5H7V10.5H10V9.5ZM13 9.5H14V10.5H13V9.5ZM11 5.5H12V6.5H11V5.5ZM11 7.5H10V8.5H11V7.5ZM5 9.5H6V10.5H5V9.5ZM12 9.5H11V10.5H12V9.5Z" fill="white"/>
</svg>
