<svg width="16" height="16" viewBox="0 0 16 16" fill="none" xmlns="http://www.w3.org/2000/svg">
<path fill-rule="evenodd" clip-rule="evenodd" d="M11.1585 8.35484C11.5457 8.12309 11.9885 8.00047 12.4398 8C12.8299 7.99939 13.2148 8.0901 13.5636 8.26486C13.9124 8.43963 14.2154 8.6936 14.4485 9.00646C14.6816 9.31933 14.8382 9.6824 14.9058 10.0666C14.9735 10.4509 14.9502 10.8456 14.838 11.2192C14.7257 11.5929 14.5276 11.9351 14.2594 12.2184C13.9913 12.5018 13.6605 12.7185 13.2936 12.8511C12.9267 12.9837 12.5339 13.0287 12.1465 12.9823C11.7591 12.9359 11.388 12.7995 11.0628 12.584L8.70775 14.9399L8 14.2322L10.3558 11.877C10.1072 11.5003 9.96521 11.0634 9.94489 10.6126C9.92456 10.1618 10.0266 9.71384 10.2403 9.31634C10.454 8.91885 10.7713 8.58659 11.1585 8.35484ZM11.6064 11.7472C11.8531 11.912 12.1431 12 12.4398 12C12.8376 12 13.2191 11.842 13.5004 11.5607C13.7817 11.2794 13.9398 10.8978 13.9398 10.5C13.9398 10.2033 13.8518 9.91332 13.687 9.66665C13.5221 9.41997 13.2879 9.22772 13.0138 9.11418C12.7397 9.00065 12.4381 8.97095 12.1471 9.02883C11.8562 9.0867 11.5889 9.22956 11.3791 9.43934C11.1693 9.64912 11.0265 9.9164 10.9686 10.2074C10.9107 10.4983 10.9404 10.7999 11.0539 11.074C11.1675 11.3481 11.3597 11.5824 11.6064 11.7472Z" fill="white"/>
<path fill-rule="evenodd" clip-rule="evenodd" d="M15 1H1V15H7.35387L6.58594 14.2321L6.81807 14H2V2H14V7.36494L14.0118 7.37081C14.3832 7.55691 14.7176 7.80718 15 8.10909V1ZM15 15H10.0619L11.0615 14H14V13.6351C14.3681 13.4524 14.7021 13.2058 14.986 12.9058L15 12.8909V15ZM12.4441 13H12.4437L12.44 13C12.3422 12.9998 12.2443 12.994 12.1467 12.9823C11.7594 12.9359 11.3883 12.7995 11.0631 12.5841L10.6473 13H9.23333L10.3559 11.8771C10.2678 11.7437 10.1931 11.6023 10.1325 11.4558C10.0759 11.319 10.0316 11.1774 10 11.0327V11H9.9931C9.96713 10.8728 9.95102 10.7433 9.94513 10.6126C9.93602 10.4106 9.95148 10.2093 9.99053 10.0128C10.0387 9.77059 10.1226 9.53578 10.2406 9.31634C10.3563 9.10107 10.5024 8.90493 10.6735 8.73353C10.8184 8.58845 10.9812 8.46108 11.1587 8.35484C11.4049 8.20753 11.6734 8.10431 11.9524 8.04853C12.1123 8.01656 12.2756 8.00017 12.44 8L12.4423 8C12.6306 7.99988 12.8177 8.02103 13 8.06263V9.10846C12.8215 9.03663 12.6317 9.00014 12.441 9C12.3429 8.99993 12.2445 9.00949 12.1474 9.02882C11.9786 9.06239 11.8178 9.12455 11.6716 9.21176C11.5657 9.27493 11.4675 9.35123 11.3793 9.43934C11.2756 9.5431 11.1882 9.66093 11.1194 9.78873C11.049 9.91931 10.9981 10.0603 10.9688 10.2074C10.9451 10.3266 10.9361 10.4475 10.9415 10.5677C10.9493 10.7408 10.9872 10.9122 11.0542 11.074C11.091 11.163 11.1362 11.2478 11.1888 11.3274C11.2034 11.3494 11.2185 11.371 11.2342 11.3923C11.3217 11.5105 11.4265 11.6157 11.5455 11.7041C11.5655 11.7189 11.5859 11.7333 11.6066 11.7472L11.6142 11.7522C11.8104 11.8816 12.0336 11.9627 12.2655 11.9898C12.3233 11.9966 12.3815 12 12.44 12L12.4431 12C12.6358 11.9996 12.8246 11.9621 13 11.8915V12.9374C12.8176 12.979 12.6312 13 12.4441 13ZM9.64763 14H8.23363L8.00089 14.2328L8.708 14.9399L9.64763 14ZM9.35975 8.84288C9.18637 9.16542 9.06547 9.51167 9 9.86869L9 3L13 3V7.0445C12.8149 7.01471 12.6272 6.99974 12.4386 7C11.807 7.00075 11.1872 7.17241 10.6452 7.49678C10.1031 7.82123 9.65888 8.28638 9.35975 8.84288ZM14 12.4567V8.54332C14.1684 8.67723 14.3194 8.83277 14.4487 9.00646C14.6818 9.31933 14.8384 9.6824 14.9061 10.0666C14.9737 10.4509 14.9505 10.8456 14.8382 11.2192C14.726 11.5929 14.5279 11.9351 14.2597 12.2184C14.1786 12.3041 14.0918 12.3837 14 12.4567ZM3 3L7 3L7 13H3L3 3Z" fill="white"/>
</svg>
