<?xml version="1.0" encoding="UTF-8"?>
<svg width="13px" height="16px" viewBox="0 0 13 16" version="1.1" xmlns="http://www.w3.org/2000/svg" xmlns:xlink="http://www.w3.org/1999/xlink">
    <!-- Generator: Sketch 40.3 (33839) - http://www.bohemiancoding.com/sketch -->
    <title>diff</title>
    <desc>Created with Sketch.</desc>
    <defs></defs>
    <g id="Octicons" stroke="none" stroke-width="1" fill="none" fill-rule="evenodd">
        <g id="diff" fill="#fff">
            <path d="M6,7 L8,7 L8,8 L6,8 L6,10 L5,10 L5,8 L3,8 L3,7 L5,7 L5,5 L6,5 L6,7 L6,7 Z M3,13 L8,13 L8,12 L3,12 L3,13 L3,13 Z M7.5,2 L11,5.5 L11,15 C11,15.55 10.55,16 10,16 L1,16 C0.45,16 0,15.55 0,15 L0,3 C0,2.45 0.45,2 1,2 L7.5,2 L7.5,2 Z M10,6 L7,3 L1,3 L1,15 L10,15 L10,6 L10,6 Z M8.5,0 L3,0 L3,1 L8,1 L12,5 L12,13 L13,13 L13,4.5 L8.5,0 L8.5,0 Z" id="Shape"></path>
        </g>
    </g>
</svg>