<svg width="16" height="16" viewBox="0 0 16 16" fill="none" xmlns="http://www.w3.org/2000/svg">
<path fill-rule="evenodd" clip-rule="evenodd" d="M6.00001 2.41421L2.41421 5.98492L4.01388 7.59135L7.59968 4.02064L6.00001 2.41421ZM1.7086 5.27633L1 5.98194L1.70561 6.69054L3.30528 8.29697L4.0109 9.00556L4.71949 8.29995L6.0106 7.01428L8.0218 7.01401V11.9985H11.0125L10.0156 12.9954L12.0094 14.9893L15.0001 11.9985L13.0063 10.0047L12.0084 11.0036L9.01871 11.0016V7.01401H10.0047L11.966 8.97526L14.9567 5.98454L12.9629 3.99073L10.9364 6.01717L7.01168 6.01741L8.3053 4.72924L9.01389 4.02362L8.30828 3.31503L6.70861 1.7086L6.003 1L5.2944 1.70561L1.7086 5.27633Z" fill="white"/>
</svg>
