<svg width="16" height="16" viewBox="0 0 16 16" fill="none" xmlns="http://www.w3.org/2000/svg">
<mask id="path-1-inside-1" fill="white">
<path fill-rule="evenodd" clip-rule="evenodd" d="M15.0015 3H1.00146V13H15.0015V3ZM4.00146 6H12.0436V7H4.00146V6ZM4.00146 9.00001H12.0436V10H4.00146V9.00001Z"/>
</mask>
<path fill-rule="evenodd" clip-rule="evenodd" d="M15.0015 3H1.00146V13H15.0015V3ZM4.00146 6H12.0436V7H4.00146V6ZM4.00146 9.00001H12.0436V10H4.00146V9.00001Z" fill="white"/>
<path d="M1.00146 3V2H0.00146484V3H1.00146ZM15.0015 3H16.0015V2H15.0015V3ZM1.00146 13H0.00146484V14H1.00146V13ZM15.0015 13V14H16.0015V13H15.0015ZM12.0436 6H13.0436V5H12.0436V6ZM4.00146 6V5H3.00146V6H4.00146ZM12.0436 7V8H13.0436V7H12.0436ZM4.00146 7H3.00146V8H4.00146V7ZM12.0436 9.00001H13.0436V8.00001H12.0436V9.00001ZM4.00146 9.00001V8.00001H3.00146V9.00001H4.00146ZM12.0436 10V11H13.0436V10H12.0436ZM4.00146 10H3.00146V11H4.00146V10ZM1.00146 4H15.0015V2H1.00146V4ZM2.00146 13V3H0.00146484V13H2.00146ZM15.0015 12H1.00146V14H15.0015V12ZM14.0015 3V13H16.0015V3H14.0015ZM12.0436 5H4.00146V7H12.0436V5ZM13.0436 7V6H11.0436V7H13.0436ZM4.00146 8H12.0436V6H4.00146V8ZM3.00146 6V7H5.00146V6H3.00146ZM12.0436 8.00001H4.00146V10H12.0436V8.00001ZM13.0436 10V9.00001H11.0436V10H13.0436ZM4.00146 11H12.0436V9.00001H4.00146V11ZM3.00146 9.00001V10H5.00146V9.00001H3.00146Z" fill="white" mask="url(#path-1-inside-1)"/>
</svg>
