<svg width="16" height="16" viewBox="0 0 16 16" fill="none" xmlns="http://www.w3.org/2000/svg">
<path d="M7.5625 1C8.16406 1 8.74512 1.07975 9.30566 1.23926C9.86621 1.39421 10.388 1.61523 10.8711 1.90234C11.3587 2.1849 11.8008 2.52669 12.1973 2.92773C12.5983 3.32422 12.9401 3.76628 13.2227 4.25391C13.5098 4.73698 13.7308 5.25879 13.8857 5.81934C14.0452 6.37988 14.125 6.96094 14.125 7.5625C14.125 8.16406 14.0452 8.74512 13.8857 9.30566C13.7308 9.86621 13.5098 10.3903 13.2227 10.8779C12.9401 11.361 12.5983 11.8031 12.1973 12.2041C11.8008 12.6006 11.3587 12.9424 10.8711 13.2295C10.388 13.512 9.86621 13.7331 9.30566 13.8926C8.74512 14.0475 8.16406 14.125 7.5625 14.125C6.96094 14.125 6.37988 14.0475 5.81934 13.8926C5.25879 13.7331 4.7347 13.512 4.24707 13.2295C3.764 12.9424 3.32194 12.6006 2.9209 12.2041C2.52441 11.8031 2.18262 11.361 1.89551 10.8779C1.61296 10.3903 1.39193 9.86849 1.23242 9.3125C1.07747 8.75195 1 8.16862 1 7.5625C1 6.96094 1.07747 6.37988 1.23242 5.81934C1.39193 5.25879 1.61296 4.73698 1.89551 4.25391C2.18262 3.76628 2.52441 3.32422 2.9209 2.92773C3.32194 2.52669 3.764 2.1849 4.24707 1.90234C4.7347 1.61523 5.25651 1.39421 5.8125 1.23926C6.37305 1.07975 6.95638 1 7.5625 1ZM8 6.25H7.125V10.625H8V6.25ZM8 4.5H7.125V5.375H8V4.5Z" fill="white"/>
</svg>
