<svg width="16" height="16" viewBox="0 0 16 16" fill="none" xmlns="http://www.w3.org/2000/svg">
<path d="M7.5625 14.125C6.95638 14.125 6.37305 14.0475 5.8125 13.8926C5.25651 13.7376 4.7347 13.5189 4.24707 13.2363C3.75944 12.9492 3.3151 12.6074 2.91406 12.2109C2.51758 11.8099 2.17578 11.3656 1.88867 10.8779C1.60612 10.3903 1.38737 9.86849 1.23242 9.3125C1.07747 8.75195 1 8.16862 1 7.5625C1 6.95638 1.07747 6.37533 1.23242 5.81934C1.38737 5.25879 1.60612 4.7347 1.88867 4.24707C2.17578 3.75944 2.51758 3.31738 2.91406 2.9209C3.3151 2.51986 3.75944 2.17806 4.24707 1.89551C4.7347 1.6084 5.25651 1.38737 5.8125 1.23242C6.37305 1.07747 6.95638 1 7.5625 1C8.16862 1 8.74967 1.07747 9.30566 1.23242C9.86621 1.38737 10.3903 1.6084 10.8779 1.89551C11.3656 2.17806 11.8076 2.51986 12.2041 2.9209C12.6051 3.31738 12.9469 3.75944 13.2295 4.24707C13.5166 4.7347 13.7376 5.25879 13.8926 5.81934C14.0475 6.37533 14.125 6.95638 14.125 7.5625C14.125 8.16862 14.0475 8.75195 13.8926 9.3125C13.7376 9.86849 13.5166 10.3903 13.2295 10.8779C12.9469 11.3656 12.6051 11.8099 12.2041 12.2109C11.8076 12.6074 11.3656 12.9492 10.8779 13.2363C10.3903 13.5189 9.86621 13.7376 9.30566 13.8926C8.74967 14.0475 8.16862 14.125 7.5625 14.125ZM7.5625 1.875C7.03841 1.875 6.53483 1.94336 6.05176 2.08008C5.56868 2.2168 5.11523 2.4082 4.69141 2.6543C4.27214 2.90039 3.88932 3.19661 3.54297 3.54297C3.19661 3.88932 2.90039 4.27441 2.6543 4.69824C2.4082 5.11751 2.2168 5.57096 2.08008 6.05859C1.94336 6.54167 1.875 7.04297 1.875 7.5625C1.875 8.08203 1.94336 8.58561 2.08008 9.07324C2.2168 9.55632 2.4082 10.0098 2.6543 10.4336C2.90039 10.8529 3.19661 11.2357 3.54297 11.582C3.88932 11.9284 4.27214 12.2246 4.69141 12.4707C5.11523 12.7168 5.56868 12.9082 6.05176 13.0449C6.53483 13.1816 7.03841 13.25 7.5625 13.25C8.08203 13.25 8.58333 13.1816 9.06641 13.0449C9.55404 12.9082 10.0075 12.7168 10.4268 12.4707C10.8506 12.2246 11.2357 11.9284 11.582 11.582C11.9284 11.2357 12.2246 10.8529 12.4707 10.4336C12.7168 10.0098 12.9082 9.55632 13.0449 9.07324C13.1816 8.59017 13.25 8.08659 13.25 7.5625C13.25 7.04297 13.1816 6.54167 13.0449 6.05859C12.9082 5.57096 12.7168 5.11751 12.4707 4.69824C12.2246 4.27441 11.9284 3.88932 11.582 3.54297C11.2357 3.19661 10.8506 2.90039 10.4268 2.6543C10.0075 2.4082 9.55404 2.2168 9.06641 2.08008C8.58333 1.94336 8.08203 1.875 7.5625 1.875ZM7.125 6.25H8V10.625H7.125V6.25ZM7.125 4.5H8V5.375H7.125V4.5Z" fill="white"/>
</svg>
