<svg width="16" height="16" viewBox="0 0 16 16" fill="none" xmlns="http://www.w3.org/2000/svg">
<path fill-rule="evenodd" clip-rule="evenodd" d="M11.5 5C10.1193 5 9 6.11929 9 7.5C9 8.88071 10.1193 10 11.5 10C12.8807 10 14 8.88071 14 7.5C14 6.11929 12.8807 5 11.5 5ZM8 7.5C8 5.567 9.567 4 11.5 4C13.433 4 15 5.567 15 7.5C15 9.433 13.433 11 11.5 11C9.567 11 8 9.433 8 7.5Z" fill="white"/>
<path d="M3 9.5C4.10457 9.5 5 8.60457 5 7.5C5 6.39543 4.10457 5.5 3 5.5C1.89543 5.5 1 6.39543 1 7.5C1 8.60457 1.89543 9.5 3 9.5Z" fill="white"/>
<path d="M9 7H4V8H9V7Z" fill="white"/>
</svg>
