<svg width="16" height="16" viewBox="0 0 16 16" fill="none" xmlns="http://www.w3.org/2000/svg">
<path fill-rule="evenodd" clip-rule="evenodd" d="M11.5 5.71429C10.5138 5.71429 9.71429 6.51378 9.71429 7.5C9.71429 8.48622 10.5138 9.28571 11.5 9.28571C12.4862 9.28571 13.2857 8.48622 13.2857 7.5C13.2857 6.51378 12.4862 5.71429 11.5 5.71429ZM9 7.5C9 6.11929 10.1193 5 11.5 5C12.8807 5 14 6.11929 14 7.5C14 8.88071 12.8807 10 11.5 10C10.1193 10 9 8.88071 9 7.5Z" fill="white"/>
<path fill-rule="evenodd" clip-rule="evenodd" d="M8 7.5C8 5.567 9.567 4 11.5 4C13.433 4 15 5.567 15 7.5C15 9.433 13.433 11 11.5 11C9.567 11 8 9.433 8 7.5ZM11.5 5C10.1193 5 9 6.11929 9 7.5C9 8.88071 10.1193 10 11.5 10C12.8807 10 14 8.88071 14 7.5C14 6.11929 12.8807 5 11.5 5Z" fill="white"/>
<path d="M3 9.5C4.10457 9.5 5 8.60457 5 7.5C5 6.39543 4.10457 5.5 3 5.5C1.89543 5.5 1 6.39543 1 7.5C1 8.60457 1.89543 9.5 3 9.5Z" fill="white"/>
<path d="M4 6.75H3.75V7V8V8.25H4H9H9.25V8V7V6.75H9H4Z" fill="white" stroke="white" stroke-width="0.5"/>
</svg>
