<svg width="16" height="16" viewBox="0 0 16 16" fill="none" xmlns="http://www.w3.org/2000/svg">
<path d="M5.03147 10.583H3.73147V9.94502H3.71447C3.58463 10.1799 3.39208 10.3742 3.1583 10.5061C2.92452 10.638 2.65869 10.7024 2.39047 10.692C2.2047 10.7022 2.01877 10.675 1.84373 10.6119C1.66868 10.5489 1.50809 10.4513 1.37147 10.325C1.24617 10.1958 1.14869 10.0422 1.08505 9.87385C1.02141 9.70547 0.992965 9.52582 1.00147 9.34602C1.00147 8.48268 1.51247 7.98468 2.53447 7.85202L3.74147 7.69102C3.74147 7.20502 3.47814 6.96202 2.95147 6.96202C2.41177 6.96459 1.88531 7.12939 1.44047 7.43502V6.40002C1.68998 6.28196 1.95291 6.19465 2.22347 6.14002C2.52039 6.06912 2.82423 6.03122 3.12947 6.02702C3.38758 5.99007 3.65075 6.01374 3.89813 6.09615C4.1455 6.17857 4.37028 6.31747 4.55465 6.50184C4.73902 6.68621 4.87792 6.91099 4.96034 7.15836C5.04275 7.40574 5.06642 7.66891 5.02947 7.92702L5.03147 10.583ZM3.74147 8.77702V8.47702L2.93347 8.57702C2.48814 8.63502 2.26547 8.83502 2.26547 9.17702C2.26327 9.24891 2.2766 9.32043 2.30455 9.3867C2.33251 9.45297 2.37444 9.51243 2.42747 9.56102C2.54976 9.66579 2.70766 9.7195 2.86847 9.71102C2.98658 9.71497 3.10412 9.69313 3.21293 9.64702C3.32173 9.60091 3.41917 9.53163 3.49847 9.44402C3.66128 9.26064 3.74816 9.02215 3.74147 8.77702V8.77702Z" fill="white"/>
<path d="M7.5067 10.066H7.4897V10.583H6.1167V4H7.4897V6.805H7.5067C7.65737 6.55908 7.87062 6.35756 8.12467 6.22105C8.37873 6.08453 8.66447 6.01792 8.9527 6.028C9.20438 6.01413 9.45575 6.06041 9.686 6.16301C9.91624 6.26561 10.1187 6.42158 10.2767 6.618C10.6101 7.08853 10.774 7.65823 10.7417 8.234C10.7743 8.87364 10.5834 9.50471 10.2017 10.019C10.0297 10.2371 9.8089 10.4116 9.557 10.5285C9.30511 10.6454 9.02924 10.7014 8.7517 10.692C8.50759 10.7054 8.26421 10.6547 8.04578 10.5449C7.82735 10.4351 7.64149 10.27 7.5067 10.066V10.066ZM7.4677 8.19V8.646C7.45816 8.90616 7.54627 9.16049 7.7147 9.359C7.7927 9.45025 7.89011 9.52293 7.9998 9.57172C8.10949 9.62051 8.22869 9.64418 8.3487 9.641C8.49084 9.64701 8.63219 9.61686 8.75951 9.55338C8.88683 9.48989 8.99596 9.39514 9.0767 9.278C9.26651 8.97045 9.35662 8.61174 9.3347 8.251C9.35255 7.94543 9.26926 7.64249 9.0977 7.389C9.01864 7.2866 8.91592 7.2049 8.79836 7.15091C8.6808 7.09692 8.55189 7.07224 8.4227 7.079C8.29297 7.07635 8.16429 7.10261 8.04597 7.15589C7.92766 7.20916 7.8227 7.28811 7.7387 7.387C7.55128 7.61144 7.45461 7.89789 7.4677 8.19V8.19Z" fill="white"/>
<path d="M15.0015 10.422C14.5847 10.6254 14.1226 10.7184 13.6595 10.692C13.3557 10.7048 13.0523 10.6564 12.7675 10.5497C12.4827 10.443 12.2222 10.2803 12.0015 10.071C11.7912 9.86242 11.6264 9.61261 11.5173 9.33727C11.4082 9.06192 11.3572 8.76699 11.3675 8.471C11.3502 8.14221 11.4018 7.81343 11.5189 7.50571C11.636 7.198 11.816 6.91812 12.0475 6.684C12.2924 6.46078 12.579 6.28817 12.8908 6.17611C13.2027 6.06404 13.5336 6.01473 13.8645 6.031C14.2547 6.00288 14.6457 6.07337 15.0015 6.236V7.4C14.7259 7.1896 14.3882 7.07669 14.0415 7.07899C13.8704 7.07013 13.6993 7.09615 13.5386 7.15545C13.3779 7.21476 13.2309 7.30612 13.1065 7.42399C12.9872 7.55107 12.895 7.7011 12.8356 7.86493C12.7761 8.02876 12.7505 8.20298 12.7605 8.37699C12.7509 8.54571 12.7751 8.71466 12.8318 8.87387C12.8885 9.03308 12.9764 9.17933 13.0905 9.30399C13.2109 9.41995 13.354 9.50975 13.5108 9.56775C13.6676 9.62574 13.8346 9.65068 14.0015 9.64099C14.3595 9.63549 14.7076 9.52338 15.0015 9.319V10.422Z" fill="white"/>
</svg>
