<svg width="16" height="16" viewBox="0 0 16 16" fill="none" xmlns="http://www.w3.org/2000/svg">
<path d="M3.28902 5.67499C2.97011 5.67933 2.65388 5.734 2.35202 5.83699C2.06417 5.92293 1.79347 6.05828 1.55202 6.23699L1.45202 6.31399V7.51399L1.87502 7.15499C2.24579 6.80478 2.73133 6.60146 3.24102 6.58299C3.36593 6.57164 3.4917 6.59147 3.60706 6.64068C3.72243 6.6899 3.82377 6.76697 3.90202 6.86499C4.0522 7.0971 4.13239 7.36754 4.13302 7.64399L2.90002 7.82499C2.39435 7.87781 1.91525 8.07772 1.52202 8.39999C1.36697 8.55181 1.24339 8.73271 1.15835 8.93235C1.07331 9.13199 1.02848 9.34644 1.02644 9.56343C1.0244 9.78042 1.06517 9.99568 1.14644 10.1969C1.2277 10.3981 1.34786 10.5813 1.50002 10.736C1.6687 10.8904 1.86622 11.01 2.08125 11.0879C2.29627 11.1659 2.52456 11.2005 2.75302 11.19C3.147 11.1931 3.53278 11.0774 3.86002 10.858C3.96153 10.7897 4.0572 10.7131 4.14602 10.629V11.073H5.08702V7.71499C5.12137 7.17422 4.9543 6.63988 4.61802 6.21499C4.44979 6.03285 4.24348 5.89003 4.01378 5.7967C3.78407 5.70336 3.53661 5.66181 3.28902 5.67499V5.67499ZM4.14602 8.71599C4.16564 9.13435 4.02592 9.54459 3.75502 9.864C3.63689 10.0005 3.48998 10.1092 3.32486 10.1821C3.15973 10.2551 2.98049 10.2906 2.80002 10.286C2.69049 10.2945 2.58035 10.2812 2.47599 10.2469C2.37163 10.2125 2.27511 10.1579 2.19202 10.086C2.06079 9.93455 1.98856 9.74088 1.98856 9.54049C1.98856 9.34011 2.06079 9.14644 2.19202 8.99499V8.99499C2.47322 8.82131 2.79233 8.71837 3.12202 8.69499L4.14202 8.54699L4.14602 8.71599Z" fill="white"/>
<path d="M2.75291 11.215C2.28488 11.2359 1.82771 11.0701 1.48191 10.754C1.32697 10.5967 1.20465 10.4103 1.12196 10.2056C1.03927 10.0009 0.997855 9.7818 1.00009 9.56101C1.00232 9.34023 1.04815 9.12205 1.13495 8.91904C1.22176 8.71602 1.34782 8.53215 1.50591 8.378C1.90224 8.05528 2.38371 7.85449 2.89191 7.8L4.11291 7.618C4.10849 7.35468 4.03093 7.09778 3.88891 6.876C3.81272 6.78113 3.7142 6.70662 3.60216 6.65915C3.49012 6.61169 3.36806 6.59274 3.24691 6.604C2.74463 6.62535 2.26668 6.82618 1.89991 7.17L1.43591 7.564V6.3L1.44591 6.292L1.54591 6.215C1.78758 6.03665 2.05822 5.90133 2.34591 5.815C2.6504 5.7114 2.9693 5.6564 3.29091 5.652C3.54229 5.63853 3.79353 5.68107 4.02648 5.77653C4.25943 5.87199 4.46826 6.018 4.63791 6.204C4.97781 6.63233 5.14734 7.17121 5.11391 7.717V11.1H4.12091V10.688C4.04322 10.7582 3.96031 10.8224 3.87291 10.88C3.54193 11.1021 3.15149 11.2189 2.75291 11.215V11.215ZM3.24691 6.554C3.37564 6.54328 3.50504 6.5643 3.62376 6.61521C3.74249 6.66612 3.84692 6.74536 3.92791 6.846C4.08013 7.08226 4.16198 7.35696 4.16391 7.638V7.661H4.14191L2.89991 7.849C2.40079 7.90224 1.92775 8.09882 1.53791 8.415C1.23062 8.71742 1.05575 9.12933 1.05163 9.56045C1.0475 9.99158 1.21446 10.4068 1.51591 10.715C1.68229 10.8673 1.87715 10.9852 2.08927 11.0619C2.30139 11.1386 2.52659 11.1726 2.75191 11.162C3.14094 11.1651 3.52186 11.0508 3.84491 10.834C3.94523 10.7669 4.03958 10.6913 4.12691 10.608L4.16991 10.568V11.045H5.05991V7.715C5.0937 7.18157 4.92916 6.65447 4.59791 6.235C4.43259 6.05464 4.22939 5.91313 4.00289 5.82063C3.77639 5.72813 3.53222 5.68693 3.28791 5.7C2.97145 5.70437 2.65763 5.75836 2.35791 5.86C2.07398 5.94651 1.80732 6.08188 1.56991 6.26L1.48291 6.33V7.459L1.86291 7.135C2.23926 6.78105 2.73068 6.57475 3.24691 6.554V6.554ZM2.79991 10.311C2.68694 10.3191 2.57349 10.3048 2.46606 10.2689C2.35863 10.2331 2.25935 10.1763 2.17391 10.102C2.10395 10.0325 2.04917 9.94926 2.01302 9.85752C1.97687 9.76578 1.96015 9.66754 1.96391 9.569C1.95131 9.45928 1.96406 9.34814 2.00116 9.24412C2.03826 9.1401 2.09872 9.04598 2.17791 8.969C2.46415 8.79516 2.78782 8.6923 3.12191 8.669L4.17091 8.516V8.716C4.19073 9.14079 4.04766 9.55713 3.77091 9.88C3.65096 10.0191 3.50167 10.1299 3.33377 10.2045C3.16587 10.279 2.98355 10.3154 2.79991 10.311V10.311ZM4.12091 8.576L3.12991 8.72C2.80406 8.73865 2.48809 8.8387 2.21091 9.011C2.13731 9.08266 2.08104 9.17017 2.04638 9.26687C2.01172 9.36357 1.99959 9.4669 2.01091 9.569C2.00651 9.66127 2.0215 9.75344 2.05492 9.83956C2.08833 9.92568 2.13943 10.0038 2.20491 10.069C2.3683 10.2097 2.58085 10.2798 2.79591 10.264C2.97279 10.2683 3.14844 10.2334 3.31026 10.1618C3.47207 10.0902 3.61606 9.98375 3.73191 9.85C3.99929 9.53562 4.13695 9.13123 4.11691 8.719L4.12091 8.576Z" fill="white"/>
<path d="M8.49979 5.675C8.08131 5.67105 7.66998 5.78357 7.31179 6C7.18154 6.07755 7.06016 6.16909 6.94979 6.273V3.5H6.00879V11.073H6.94979V10.7C7.0366 10.7787 7.13069 10.849 7.23079 10.91C7.55394 11.1014 7.92429 11.1984 8.29979 11.19C8.63434 11.197 8.96586 11.1252 9.26758 10.9805C9.56931 10.8358 9.83279 10.6223 10.0368 10.357C10.4888 9.75289 10.7175 9.01076 10.6838 8.257C10.7156 7.59007 10.5128 6.93306 10.1108 6.4C9.91702 6.16233 9.67055 5.97307 9.39092 5.84722C9.11128 5.72138 8.80618 5.66241 8.49979 5.675V5.675ZM9.31779 9.767C9.211 9.92892 9.06516 10.0613 8.89371 10.152C8.72226 10.2428 8.53073 10.2888 8.33679 10.286C8.14889 10.2948 7.96144 10.2611 7.78832 10.1875C7.61521 10.114 7.46088 10.0024 7.33679 9.861C7.07963 9.56818 6.94155 9.18962 6.94979 8.8V8.2C6.94093 7.7808 7.08287 7.37236 7.34979 7.049C7.48241 6.89133 7.65027 6.76708 7.8398 6.6863C8.02933 6.60552 8.23521 6.57048 8.44079 6.584C8.61691 6.57696 8.79214 6.61235 8.95172 6.68718C9.11131 6.76202 9.25057 6.8741 9.35779 7.014C9.62006 7.37981 9.74858 7.82468 9.72179 8.274C9.74756 8.80234 9.60468 9.32519 9.31379 9.767H9.31779Z" fill="white"/>
<path d="M8.29989 11.215C7.92163 11.2231 7.54863 11.1254 7.22289 10.933C7.13677 10.8809 7.05516 10.8217 6.97889 10.756V11.1H5.98389V3.47501H6.97489V6.21701C7.0749 6.12778 7.18304 6.0481 7.29789 5.97901C7.65994 5.76088 8.07522 5.64702 8.49789 5.65001C8.80858 5.636 9.11824 5.69501 9.402 5.82231C9.68577 5.9496 9.93575 6.14164 10.1319 6.38301C10.5374 6.92213 10.7412 7.58625 10.7079 8.26001C10.7402 9.0187 10.5091 9.76522 10.0539 10.373C9.84792 10.6409 9.58188 10.8567 9.27721 11.003C8.97254 11.1493 8.63777 11.2219 8.29989 11.215V11.215ZM6.92889 10.644L6.97089 10.682C7.05647 10.7599 7.14921 10.8295 7.24789 10.89C7.56608 11.0779 7.93045 11.1731 8.29989 11.165C8.63056 11.172 8.95824 11.1012 9.2565 10.9582C9.55475 10.8152 9.81522 10.6042 10.0169 10.342C10.4642 9.74262 10.691 9.00722 10.6589 8.26001C10.693 7.59759 10.4934 6.94423 10.0949 6.41401C9.9033 6.17864 9.65923 5.99146 9.38224 5.86746C9.10524 5.74347 8.80305 5.68611 8.49989 5.70001C8.08699 5.69712 7.68135 5.80857 7.32789 6.02201C7.19975 6.09839 7.08037 6.1886 6.97189 6.29101L6.92889 6.33101V3.52501H6.03389V11.048H6.92489L6.92889 10.644ZM8.33689 10.311C8.14631 10.3192 7.95633 10.2844 7.78099 10.2093C7.60565 10.1342 7.44943 10.0206 7.32389 9.87701C7.05832 9.58042 6.91534 9.19402 6.92389 8.79601V8.19601C6.91323 7.77167 7.05516 7.35758 7.32389 7.02901C7.45899 6.86848 7.62992 6.74195 7.8229 6.65961C8.01588 6.57728 8.22551 6.54145 8.43489 6.55501C8.61478 6.54802 8.79373 6.58424 8.95675 6.66061C9.11977 6.73699 9.26212 6.85131 9.37189 6.99401C9.63579 7.3653 9.76588 7.81516 9.74089 8.27001C9.76656 8.80517 9.62236 9.33475 9.32889 9.78301V9.78301C9.21997 9.947 9.07182 10.0812 8.89789 10.1734C8.72395 10.2656 8.52974 10.3129 8.33289 10.311H8.33689ZM8.43989 6.60001C8.23807 6.5868 8.03598 6.62108 7.84981 6.7001C7.66364 6.77911 7.49858 6.90067 7.36789 7.05501C7.10263 7.37653 6.96299 7.78335 6.97489 8.20001V8.80001C6.96501 9.18509 7.10152 9.5596 7.35689 9.84801C7.47784 9.98631 7.62838 10.0956 7.79734 10.1678C7.9663 10.24 8.14934 10.2732 8.33289 10.265C8.52264 10.2675 8.70999 10.2223 8.87773 10.1335C9.04546 10.0448 9.18822 9.9153 9.29289 9.75701C9.57969 9.31704 9.71972 8.79751 9.69289 8.27301C9.7184 7.82954 9.59253 7.39056 9.33589 7.02801C9.23161 6.89026 9.09583 6.77951 8.93994 6.70504C8.78404 6.63057 8.61257 6.59455 8.43989 6.60001V6.60001Z" fill="white"/>
<path d="M13.6 6.57898C13.9491 6.5759 14.2918 6.67233 14.588 6.85698L14.979 7.09898V5.98698L14.825 5.91998C14.4597 5.75844 14.0646 5.675 13.665 5.67498C13.3071 5.66467 12.9511 5.73159 12.6214 5.87119C12.2916 6.0108 11.9958 6.2198 11.754 6.48398C11.2528 7.03941 10.9877 7.76831 11.015 8.51598C10.9863 9.21691 11.2222 9.90302 11.676 10.438C11.8967 10.6845 12.1687 10.8797 12.473 11.0096C12.7773 11.1395 13.1064 11.2011 13.437 11.19C13.9286 11.2018 14.4135 11.0757 14.837 10.826L14.959 10.751V9.65998L14.553 9.95198C14.2319 10.1788 13.8461 10.2959 13.453 10.286C13.2509 10.294 13.0495 10.2555 12.8646 10.1735C12.6796 10.0915 12.5159 9.96817 12.386 9.81298C12.0932 9.4355 11.9462 8.96507 11.972 8.48798C11.9485 7.98469 12.1116 7.49043 12.43 7.09998C12.5724 6.9297 12.7519 6.79423 12.9547 6.70393C13.1575 6.61363 13.3782 6.57089 13.6 6.57898V6.57898Z" fill="white"/>
<path d="M13.4322 11.215C13.0983 11.2261 12.766 11.1638 12.4588 11.0324C12.1516 10.9011 11.8769 10.704 11.6542 10.455C11.1955 9.91566 10.9567 9.22343 10.9852 8.51601C10.9581 7.76183 11.2261 7.0268 11.7322 6.46701C11.9763 6.20045 12.2749 5.98953 12.6078 5.84856C12.9406 5.70759 13.2999 5.63988 13.6612 5.65001C14.0641 5.65017 14.4626 5.73429 14.8312 5.89701L15.0002 5.97001V7.14401L14.5712 6.87901C14.2808 6.69522 13.9439 6.59841 13.6002 6.60001C13.3831 6.59197 13.167 6.63343 12.9682 6.72127C12.7695 6.80911 12.5934 6.94102 12.4532 7.10701C12.1352 7.49472 11.9737 7.98728 12.0002 8.48801C11.9725 8.95908 12.1144 9.4245 12.4002 9.80001C12.5278 9.95229 12.6886 10.0733 12.8703 10.1537C13.052 10.2342 13.2497 10.2719 13.4482 10.264C13.8356 10.2747 14.216 10.1592 14.5322 9.93501L14.9782 9.61501V10.768L14.9652 10.775L14.8422 10.85C14.4153 11.1005 13.927 11.2269 13.4322 11.215V11.215ZM13.6612 5.70001C13.3069 5.68953 12.9544 5.75557 12.6279 5.89363C12.3014 6.03168 12.0085 6.23851 11.7692 6.50001C11.2719 7.05065 11.0089 7.77353 11.0362 8.51501C11.0077 9.21002 11.2415 9.89036 11.6912 10.421C11.9093 10.6647 12.1783 10.8575 12.4792 10.9859C12.78 11.1143 13.1053 11.1751 13.4322 11.164C13.9199 11.1764 14.4012 11.0513 14.8212 10.803L14.9312 10.736V9.70901L14.5652 9.97301C14.2396 10.2013 13.8497 10.3197 13.4522 10.311C13.2464 10.3192 13.0414 10.28 12.8531 10.1964C12.6648 10.1129 12.4982 9.98715 12.3662 9.82901C12.0704 9.4466 11.9214 8.97084 11.9462 8.48801C11.9225 7.97695 12.0885 7.47517 12.4122 7.07901C12.5566 6.90724 12.7384 6.77068 12.9435 6.6797C13.1487 6.58873 13.3719 6.54574 13.5962 6.55401C13.9497 6.5501 14.2968 6.648 14.5962 6.83601L14.9492 7.05401V6.00001L14.8112 5.93901C14.4485 5.78058 14.0569 5.69919 13.6612 5.70001V5.70001Z" fill="white"/>
</svg>
