<svg width="16" height="16" viewBox="0 0 16 16" fill="none" xmlns="http://www.w3.org/2000/svg">
<path fill-rule="evenodd" clip-rule="evenodd" d="M9.13341 1.1709C8.72039 1.05697 8.2913 1 7.84615 1C7.401 1 6.97192 1.05697 6.55889 1.1709C6.14587 1.28483 5.75809 1.44661 5.39554 1.65625C5.03759 1.86589 4.71176 2.11654 4.41805 2.4082C4.12434 2.69987 3.87194 3.02572 3.66084 3.38574C3.44974 3.74121 3.28682 4.12402 3.17209 4.53418C3.05736 4.94434 3 5.37044 3 5.8125C3 6.47331 3.1262 7.08626 3.37861 7.65137C3.63101 8.21647 3.99126 8.72917 4.45935 9.18945C4.84025 9.56315 5.13166 9.98014 5.33359 10.4404C5.3707 10.5231 5.40447 10.6071 5.43491 10.6923H10.2528C10.2825 10.6071 10.3156 10.5231 10.3518 10.4404C10.5583 9.98014 10.8521 9.56315 11.233 9.18945C11.701 8.72917 12.0613 8.21647 12.3137 7.65137C12.5661 7.08626 12.6923 6.47331 12.6923 5.8125C12.6923 5.37044 12.6349 4.94434 12.5202 4.53418C12.4055 4.12402 12.2426 3.74121 12.0315 3.38574C11.8204 3.02572 11.568 2.69987 11.2743 2.4082C10.9805 2.11654 10.6524 1.86589 10.2899 1.65625C9.93193 1.44661 9.54644 1.28483 9.13341 1.1709ZM10.0523 11.7692H5.63993C5.64222 11.8249 5.64336 11.881 5.64336 11.9375V13.6875C5.64336 13.8698 5.67777 14.0407 5.74661 14.2002C5.81545 14.3597 5.90953 14.4987 6.02885 14.6172C6.14816 14.7357 6.28813 14.8291 6.44875 14.8975C6.60937 14.9658 6.78147 15 6.96503 15H8.72727C8.91084 15 9.08293 14.9658 9.24355 14.8975C9.40417 14.8291 9.54414 14.7357 9.66346 14.6172C9.78278 14.4987 9.87686 14.3597 9.94569 14.2002C10.0145 14.0407 10.0489 13.8698 10.0489 13.6875V11.9375C10.0489 11.881 10.0501 11.8249 10.0523 11.7692ZM8.91117 13.8143C8.82397 13.9009 8.72072 13.9442 8.6014 13.9442H7.14046C7.02114 13.9442 6.91788 13.9009 6.83069 13.8143C6.74349 13.7277 6.6999 13.6252 6.6999 13.5067V12.8462H9.04196V13.5067C9.04196 13.6252 8.99836 13.7277 8.91117 13.8143Z" fill="white"/>
</svg>
