<svg width="16" height="16" viewBox="0 0 16 16" fill="none" xmlns="http://www.w3.org/2000/svg">
<path d="M12.6257 5.813L12.6252 5.80799C12.6276 4.95654 12.3996 4.12071 11.9694 3.386V3.38099C11.7932 3.08023 11.5856 2.80185 11.3527 2.54945C11.3229 2.51693 11.2932 2.48518 11.2624 2.45372L11.2175 2.40799C10.6296 1.81648 9.89619 1.3899 9.0915 1.17099C8.2541 0.943005 7.37129 0.943005 6.53437 1.17099C5.72968 1.3899 4.99629 1.81648 4.40839 2.40799C4.36201 2.45449 4.3166 2.5019 4.27216 2.55021C4.03925 2.80261 3.83271 3.08023 3.65644 3.38099V3.386C3.22578 4.11886 3.00019 4.95333 3.00019 5.80301V5.813C2.99433 6.44534 3.12275 7.07177 3.37617 7.651C3.63447 8.22651 3.99824 8.74829 4.44941 9.18899C4.81611 9.54646 5.11103 9.97117 5.31757 10.44C5.45527 10.7659 5.54316 11.1108 5.57832 11.463H10.0476C10.0827 11.1108 10.1706 10.7659 10.3083 10.44C10.5148 9.97117 10.8098 9.54646 11.1765 9.18899C11.6276 8.74829 11.9914 8.22651 12.2497 7.651C12.5031 7.07177 12.6315 6.44534 12.6257 5.813Z" fill="white"/>
<path d="M5.62519 12.463H10.0007V13.688C10.0026 13.8637 9.96894 14.0381 9.90058 14.2C9.83515 14.356 9.74043 14.4977 9.62031 14.617C9.50117 14.7367 9.35957 14.8321 9.20283 14.8948L9.19746 14.898C9.03974 14.9639 8.87129 14.9979 8.70039 14.9981C8.6955 14.9981 8.69013 14.9981 8.68525 14.998H6.94062C6.93476 14.9981 6.93037 14.9981 6.92451 14.9981C6.75215 14.9986 6.58125 14.9646 6.42256 14.898C6.26631 14.8321 6.1247 14.7367 6.00556 14.617C5.88545 14.4977 5.79072 14.356 5.72529 14.2C5.71064 14.1649 5.69746 14.1293 5.68574 14.0932C5.66572 14.0298 5.65058 13.9651 5.64033 13.8994C5.6291 13.8297 5.62422 13.7589 5.62519 13.688V12.463Z" fill="white"/>
</svg>
