<svg width="16" height="16" viewBox="0 0 16 16" fill="none" xmlns="http://www.w3.org/2000/svg">
<path fill-rule="evenodd" clip-rule="evenodd" d="M7.8125 1C8.25456 1 8.68066 1.05697 9.09082 1.1709C9.50098 1.28483 9.88379 1.44661 10.2393 1.65625C10.5993 1.86589 10.9251 2.11654 11.2168 2.4082C11.5085 2.69987 11.7591 3.02572 11.9688 3.38574C12.1784 3.74121 12.3402 4.12402 12.4541 4.53418C12.568 4.94434 12.625 5.37044 12.625 5.8125C12.625 6.47331 12.4997 7.08626 12.249 7.65137C12.1767 7.81441 12.0955 7.97308 12.0053 8.1274C11.6987 8.04801 11.3777 8.00409 11.0471 8.00028C11.204 7.7797 11.3358 7.54947 11.4424 7.30957C11.6475 6.85384 11.75 6.35482 11.75 5.8125C11.75 5.27018 11.6452 4.75977 11.4355 4.28125C11.2305 3.80273 10.9502 3.38574 10.5947 3.03027C10.2393 2.6748 9.82227 2.39453 9.34375 2.18945C8.86523 1.97982 8.35482 1.875 7.8125 1.875C7.27018 1.875 6.75977 1.97982 6.28125 2.18945C5.80273 2.39453 5.38574 2.6748 5.03027 3.03027C4.6748 3.38574 4.39225 3.80273 4.18262 4.28125C3.97754 4.75977 3.875 5.27018 3.875 5.8125C3.875 6.35482 3.97526 6.85384 4.17578 7.30957C4.38086 7.76074 4.67253 8.17773 5.05078 8.56055C5.46094 8.97526 5.78678 9.42188 6.02832 9.90039C6.04495 9.93333 6.06115 9.96654 6.07691 10H7.53513C7.35609 10.3095 7.21733 10.6452 7.12602 11H5.51139C5.4625 10.8075 5.39783 10.621 5.31738 10.4404C5.11686 9.98014 4.82747 9.56315 4.44922 9.18945C3.98438 8.72917 3.62663 8.21647 3.37598 7.65137C3.12533 7.08626 3 6.47331 3 5.8125C3 5.37044 3.05697 4.94434 3.1709 4.53418C3.28483 4.12402 3.44661 3.74121 3.65625 3.38574C3.86589 3.02572 4.11654 2.69987 4.4082 2.4082C4.69987 2.11654 5.02344 1.86589 5.37891 1.65625C5.73893 1.44661 6.12402 1.28483 6.53418 1.1709C6.94434 1.05697 7.37044 1 7.8125 1ZM7 12H6H5.625V13.6875C5.625 13.8698 5.65918 14.0407 5.72754 14.2002C5.7959 14.3597 5.88932 14.4987 6.00781 14.6172C6.1263 14.7357 6.2653 14.8291 6.4248 14.8975C6.58431 14.9658 6.75521 15 6.9375 15H8.35418C7.52375 14.2671 7 13.1947 7 12Z" fill="white"/>
<path fill-rule="evenodd" clip-rule="evenodd" d="M11 8.99999C11.5934 8.99999 12.1734 9.17593 12.6668 9.50558C13.1601 9.83522 13.5446 10.3038 13.7717 10.8519C13.9988 11.4001 14.0582 12.0033 13.9424 12.5853C13.8266 13.1672 13.5409 13.7018 13.1214 14.1213C12.7018 14.5409 12.1673 14.8266 11.5853 14.9423C11.0034 15.0581 10.4002 14.9987 9.852 14.7716C9.30382 14.5446 8.83528 14.16 8.50564 13.6667C8.176 13.1734 8.00005 12.5933 8.00005 12C7.99779 11.6054 8.07385 11.2143 8.22382 10.8493C8.37378 10.4843 8.59467 10.1527 8.8737 9.87364C9.15273 9.59461 9.48434 9.37372 9.84934 9.22375C10.2143 9.07379 10.6055 8.99773 11 8.99999ZM10.2 12.471L9.00005 11.639H10.473L11 9.99999L11.536 11.639H13L11.8 12.471L12.305 14L11 13.024L9.70005 14L10.2 12.471Z" fill="white"/>
</svg>
