<svg width="16" height="16" viewBox="0 0 16 16" fill="none" xmlns="http://www.w3.org/2000/svg">
<path fill-rule="evenodd" clip-rule="evenodd" d="M8.09082 1.1709C7.68066 1.05697 7.25456 1 6.8125 1C6.37044 1 5.94434 1.05697 5.53418 1.1709C5.12402 1.28483 4.73893 1.44661 4.37891 1.65625C4.02344 1.86589 3.69987 2.11654 3.4082 2.4082C3.11654 2.69987 2.86589 3.02572 2.65625 3.38574C2.44661 3.74121 2.28483 4.12402 2.1709 4.53418C2.05697 4.94434 2 5.37044 2 5.8125C2 6.47331 2.12533 7.08626 2.37598 7.65137C2.62663 8.21647 2.98438 8.72917 3.44922 9.18945C3.82747 9.56315 4.11686 9.98014 4.31738 10.4404C4.52246 10.9007 4.625 11.3997 4.625 11.9375V13.6875C4.625 13.8698 4.65918 14.0407 4.72754 14.2002C4.7959 14.3597 4.88932 14.4987 5.00781 14.6172C5.1263 14.7357 5.2653 14.8291 5.4248 14.8975C5.58431 14.9658 5.75521 15 5.9375 15H7.6875C7.86979 15 8.04069 14.9658 8.2002 14.8975C8.26455 14.8699 8.32557 14.8382 8.38325 14.8025C8.17569 14.5901 7.99188 14.3544 7.83591 14.0994C7.78958 14.1165 7.74011 14.125 7.6875 14.125H5.9375C5.81901 14.125 5.71647 14.0817 5.62988 13.9951C5.54329 13.9085 5.5 13.806 5.5 13.6875V12.375H7.26695C7.25573 12.2516 7.25 12.1265 7.25 12C7.25 11.8305 7.26028 11.6637 7.28026 11.5H5.47949C5.42025 10.9121 5.26986 10.3789 5.02832 9.90039C4.78678 9.42188 4.46094 8.97526 4.05078 8.56055C3.67253 8.17773 3.38086 7.76074 3.17578 7.30957C2.97526 6.85384 2.875 6.35482 2.875 5.8125C2.875 5.27018 2.97754 4.75977 3.18262 4.28125C3.39225 3.80273 3.6748 3.38574 4.03027 3.03027C4.38574 2.6748 4.80273 2.39453 5.28125 2.18945C5.75977 1.97982 6.27018 1.875 6.8125 1.875C7.35482 1.875 7.86523 1.97982 8.34375 2.18945C8.82227 2.39453 9.23926 2.6748 9.59473 3.03027C9.9502 3.38574 10.2305 3.80273 10.4355 4.28125C10.6452 4.75977 10.75 5.27018 10.75 5.8125C10.75 6.35482 10.6475 6.85384 10.4424 7.30957C10.2959 7.63906 10.1021 7.95032 9.86088 8.24335C10.241 8.10466 10.649 8.02157 11.0752 8.00367C11.1379 7.88859 11.1959 7.77116 11.249 7.65137C11.4997 7.08626 11.625 6.47331 11.625 5.8125C11.625 5.37044 11.568 4.94434 11.4541 4.53418C11.3402 4.12402 11.1784 3.74121 10.9688 3.38574C10.7591 3.02572 10.5085 2.69987 10.2168 2.4082C9.92513 2.11654 9.59928 1.86589 9.23926 1.65625C8.88379 1.44661 8.50098 1.28483 8.09082 1.1709Z" fill="white"/>
<path fill-rule="evenodd" clip-rule="evenodd" d="M11.25 9C9.58039 9 8.25 10.3304 8.25 12C8.25 13.6696 9.58039 15 11.25 15C12.9196 15 14.25 13.6696 14.25 12C14.25 10.3304 12.9196 9 11.25 9ZM10.4528 12.4712L9.954 14L11.25 13.024L12.5554 14L12.0472 12.4712L13.25 11.6394H11.7861L11.25 10L10.7232 11.6394H9.25L10.4528 12.4712Z" fill="white"/>
<path fill-rule="evenodd" clip-rule="evenodd" d="M11.25 9C9.58039 9 8.25 10.3304 8.25 12C8.25 13.6696 9.58039 15 11.25 15C12.9196 15 14.25 13.6696 14.25 12C14.25 10.3304 12.9196 9 11.25 9ZM10.4528 12.4712L9.954 14L11.25 13.024L12.5554 14L12.0472 12.4712L13.25 11.6394H11.7861L11.25 10L10.7232 11.6394H9.25L10.4528 12.4712Z" fill="white"/>
</svg>
