<svg width="16" height="16" viewBox="0 0 16 16" fill="none" xmlns="http://www.w3.org/2000/svg">
<path fill-rule="evenodd" clip-rule="evenodd" d="M7.84615 1C8.2913 1 8.72039 1.05697 9.13341 1.1709C9.54644 1.28483 9.93193 1.44661 10.2899 1.65625C10.6524 1.86589 10.9806 2.11654 11.2743 2.4082C11.568 2.69987 11.8204 3.02572 12.0315 3.38574C12.2426 3.74121 12.4055 4.12402 12.5202 4.53418C12.6349 4.94434 12.6923 5.37044 12.6923 5.8125C12.6923 6.47331 12.5661 7.08626 12.3137 7.65137C12.2604 7.77071 12.2023 7.88772 12.1394 8.00239C12.0931 8.0008 12.0466 8 12 8C10.2488 8 8.76045 9.12534 8.21864 10.6923H5.43491C5.40447 10.6071 5.3707 10.5231 5.33359 10.4404C5.13166 9.98014 4.84025 9.56315 4.45935 9.18945C3.99126 8.72917 3.63101 8.21647 3.37861 7.65137C3.1262 7.08626 3 6.47331 3 5.8125C3 5.37044 3.05736 4.94434 3.17209 4.53418C3.28682 4.12402 3.44974 3.74121 3.66084 3.38574C3.87194 3.02572 4.12434 2.69987 4.41805 2.4082C4.71176 2.11654 5.03759 1.86589 5.39554 1.65625C5.75809 1.44661 6.14587 1.28483 6.55889 1.1709C6.97192 1.05697 7.401 1 7.84615 1ZM8.00655 11.7692H5.63994C5.64222 11.8249 5.64336 11.881 5.64336 11.9375V13.6875C5.64336 13.8698 5.67778 14.0407 5.74661 14.2002C5.81545 14.3597 5.90953 14.4987 6.02885 14.6172C6.14816 14.7357 6.28813 14.8291 6.44875 14.8975C6.60937 14.9658 6.78147 15 6.96503 15H8.72727C8.91052 15 9.08233 14.9659 9.24271 14.8978C8.95089 14.6201 8.70098 14.2987 8.50343 13.9442H7.14046C7.02114 13.9442 6.91788 13.9009 6.83069 13.8143C6.74349 13.7277 6.6999 13.6252 6.6999 13.5067V12.8462H8.08967C8.03093 12.5734 8 12.2903 8 12C8 11.9225 8.0022 11.8456 8.00655 11.7692Z" fill="white"/>
<path fill-rule="evenodd" clip-rule="evenodd" d="M12 9C10.3304 9 9 10.3304 9 12C9 13.6696 10.3304 15 12 15C13.6696 15 15 13.6696 15 12C15 10.3304 13.6696 9 12 9ZM11.2028 12.4712L10.704 14L12 13.024L13.3054 14L12.7972 12.4712L14 11.6394H12.5361L12 10L11.4732 11.6394H10L11.2028 12.4712Z" fill="white"/>
</svg>
