<svg width="16" height="16" viewBox="0 0 16 16" fill="none" xmlns="http://www.w3.org/2000/svg">
<path d="M7.8125 1C8.25456 1 8.68066 1.05697 9.09082 1.1709C9.50098 1.28483 9.88379 1.44661 10.2393 1.65625C10.5993 1.86589 10.9251 2.11654 11.2168 2.4082C11.5085 2.69987 11.7591 3.02572 11.9688 3.38574C12.1784 3.74121 12.3402 4.12402 12.4541 4.53418C12.568 4.94434 12.625 5.37044 12.625 5.8125C12.625 6.47331 12.4997 7.08626 12.249 7.65137C11.9984 8.21647 11.6406 8.72917 11.1758 9.18945C10.7975 9.56315 10.5059 9.98014 10.3008 10.4404C10.1003 10.9007 10 11.3997 10 11.9375V13.6875C10 13.8698 9.96582 14.0407 9.89746 14.2002C9.8291 14.3597 9.73568 14.4987 9.61719 14.6172C9.4987 14.7357 9.3597 14.8291 9.2002 14.8975C9.04069 14.9658 8.86979 15 8.6875 15H6.9375C6.75521 15 6.58431 14.9658 6.4248 14.8975C6.2653 14.8291 6.1263 14.7357 6.00781 14.6172C5.88932 14.4987 5.7959 14.3597 5.72754 14.2002C5.65918 14.0407 5.625 13.8698 5.625 13.6875V11.9375C5.625 11.3997 5.52246 10.9007 5.31738 10.4404C5.11686 9.98014 4.82747 9.56315 4.44922 9.18945C3.98438 8.72917 3.62663 8.21647 3.37598 7.65137C3.12533 7.08626 3 6.47331 3 5.8125C3 5.37044 3.05697 4.94434 3.1709 4.53418C3.28483 4.12402 3.44661 3.74121 3.65625 3.38574C3.86589 3.02572 4.11654 2.69987 4.4082 2.4082C4.69987 2.11654 5.02344 1.86589 5.37891 1.65625C5.73893 1.44661 6.12402 1.28483 6.53418 1.1709C6.94434 1.05697 7.37044 1 7.8125 1ZM8.6875 14.125C8.80599 14.125 8.90853 14.0817 8.99512 13.9951C9.08171 13.9085 9.125 13.806 9.125 13.6875V12.375H6.5V13.6875C6.5 13.806 6.54329 13.9085 6.62988 13.9951C6.71647 14.0817 6.81901 14.125 6.9375 14.125H8.6875ZM9.14551 11.5C9.20475 10.9121 9.35514 10.3789 9.59668 9.90039C9.83822 9.42188 10.1641 8.97526 10.5742 8.56055C10.9525 8.17773 11.2419 7.76074 11.4424 7.30957C11.6475 6.85384 11.75 6.35482 11.75 5.8125C11.75 5.27018 11.6452 4.75977 11.4355 4.28125C11.2305 3.80273 10.9502 3.38574 10.5947 3.03027C10.2393 2.6748 9.82227 2.39453 9.34375 2.18945C8.86523 1.97982 8.35482 1.875 7.8125 1.875C7.27018 1.875 6.75977 1.97982 6.28125 2.18945C5.80273 2.39453 5.38574 2.6748 5.03027 3.03027C4.6748 3.38574 4.39225 3.80273 4.18262 4.28125C3.97754 4.75977 3.875 5.27018 3.875 5.8125C3.875 6.35482 3.97526 6.85384 4.17578 7.30957C4.38086 7.76074 4.67253 8.17773 5.05078 8.56055C5.46094 8.97526 5.78678 9.42188 6.02832 9.90039C6.26986 10.3789 6.42025 10.9121 6.47949 11.5H9.14551Z" fill="white"/>
</svg>
