<svg width="16" height="16" viewBox="0 0 16 16" fill="none" xmlns="http://www.w3.org/2000/svg">
<g clip-path="url(#clip0)">
<path fill-rule="evenodd" clip-rule="evenodd" d="M11 8.99999C11.5934 8.99999 12.1734 9.17593 12.6668 9.50558C13.1601 9.83522 13.5446 10.3038 13.7717 10.8519C13.9988 11.4001 14.0582 12.0033 13.9424 12.5853C13.8266 13.1672 13.5409 13.7018 13.1214 14.1213C12.7018 14.5409 12.1673 14.8266 11.5853 14.9423C11.0034 15.0581 10.4002 14.9987 9.852 14.7716C9.30382 14.5446 8.83528 14.16 8.50564 13.6667C8.176 13.1734 8.00005 12.5933 8.00005 12C7.99779 11.6054 8.07385 11.2143 8.22382 10.8493C8.37378 10.4843 8.59467 10.1527 8.8737 9.87364C9.15273 9.59461 9.48434 9.37372 9.84934 9.22375C10.2143 9.07379 10.6055 8.99773 11 8.99999ZM10.2 12.471L9.00005 11.639H10.473L11 9.99999L11.536 11.639H13L11.8 12.471L12.305 14L11 13.024L9.70005 14L10.2 12.471Z" fill="white"/>
<path d="M11 8C11.017 8 11.033 8 11.049 8C11.115 7.881 11.194 7.77 11.249 7.646C11.5027 7.06677 11.6309 6.44035 11.625 5.808C11.6274 4.95488 11.4008 4.11674 10.969 3.381C10.3336 2.29806 9.3012 1.50532 8.09095 1.171C7.25387 0.943001 6.37104 0.943001 5.53395 1.171C4.72913 1.38991 3.99598 1.81649 3.40795 2.408C3.11644 2.70045 2.8637 3.02914 2.65595 3.386C2.2241 4.12174 1.99755 4.95988 1.99995 5.813C1.99404 6.44535 2.12219 7.07177 2.37595 7.651C2.63381 8.22652 2.99783 8.7483 3.44895 9.189C3.81585 9.54646 4.11054 9.97118 4.31695 10.44C4.45484 10.766 4.54283 11.1108 4.57795 11.463H7.05395C7.18206 10.5063 7.65235 9.62846 8.3778 8.99181C9.10325 8.35515 10.0348 8.00282 11 8V8Z" fill="white"/>
<path d="M7.04687 12.463H4.62487V13.688C4.6225 13.8638 4.65655 14.0381 4.72487 14.2C4.79 14.356 4.88514 14.4977 5.00487 14.617C5.12442 14.7367 5.26603 14.8322 5.42187 14.898C5.58426 14.966 5.75884 15 5.93487 14.998H7.68487C7.86057 14.9999 8.0348 14.9659 8.19687 14.898C8.20887 14.892 8.21687 14.882 8.22887 14.876C7.56666 14.2333 7.14876 13.3802 7.04687 12.463V12.463Z" fill="white"/>
</g>
<defs>
<clipPath id="clip0">
<rect width="12" height="14" fill="white" transform="translate(2 1)"/>
</clipPath>
</defs>
</svg>
