<svg width="16" height="16" viewBox="0 0 16 16" fill="none" xmlns="http://www.w3.org/2000/svg">
<path fill-rule="evenodd" clip-rule="evenodd" d="M9.09082 1.1709C8.68066 1.05697 8.25456 1 7.8125 1C7.37044 1 6.94434 1.05697 6.53418 1.1709C6.12402 1.28483 5.73893 1.44661 5.37891 1.65625C5.02344 1.86589 4.69987 2.11654 4.4082 2.4082C4.11654 2.69987 3.86589 3.02572 3.65625 3.38574C3.44661 3.74121 3.28483 4.12402 3.1709 4.53418C3.05697 4.94434 3 5.37044 3 5.8125C3 6.47331 3.12533 7.08626 3.37598 7.65137C3.62663 8.21647 3.98438 8.72917 4.44922 9.18945C4.82747 9.56315 5.11686 9.98014 5.31738 10.4404C5.39783 10.621 5.4625 10.8075 5.51139 11H10.1111C10.1589 10.8075 10.2221 10.621 10.3008 10.4404C10.5059 9.98014 10.7975 9.56315 11.1758 9.18945C11.6406 8.72917 11.9984 8.21647 12.249 7.65137C12.4997 7.08626 12.625 6.47331 12.625 5.8125C12.625 5.37044 12.568 4.94434 12.4541 4.53418C12.3402 4.12402 12.1784 3.74121 11.9688 3.38574C11.7591 3.02572 11.5085 2.69987 11.2168 2.4082C10.9251 2.11654 10.5993 1.86589 10.2393 1.65625C9.88379 1.44661 9.50098 1.28483 9.09082 1.1709ZM9.59668 9.90039C9.58005 9.93333 9.56385 9.96654 9.54809 10H6.07691C6.06115 9.96654 6.04495 9.93333 6.02832 9.90039C5.78678 9.42188 5.46094 8.97526 5.05078 8.56055C4.67253 8.17773 4.38086 7.76074 4.17578 7.30957C3.97526 6.85384 3.875 6.35482 3.875 5.8125C3.875 5.27018 3.97754 4.75977 4.18262 4.28125C4.39225 3.80273 4.6748 3.38574 5.03027 3.03027C5.38574 2.6748 5.80273 2.39453 6.28125 2.18945C6.75977 1.97982 7.27018 1.875 7.8125 1.875C8.35482 1.875 8.86523 1.97982 9.34375 2.18945C9.82227 2.39453 10.2393 2.6748 10.5947 3.03027C10.9502 3.38574 11.2305 3.80273 11.4355 4.28125C11.6452 4.75977 11.75 5.27018 11.75 5.8125C11.75 6.35482 11.6475 6.85384 11.4424 7.30957C11.2419 7.76074 10.9525 8.17773 10.5742 8.56055C10.1641 8.97526 9.83822 9.42188 9.59668 9.90039ZM5.625 12V13.6875C5.625 13.8698 5.65918 14.0407 5.72754 14.2002C5.7959 14.3597 5.88932 14.4987 6.00781 14.6172C6.1263 14.7357 6.2653 14.8291 6.4248 14.8975C6.58431 14.9658 6.75521 15 6.9375 15H8.6875C8.86979 15 9.04069 14.9658 9.2002 14.8975C9.3597 14.8291 9.4987 14.7357 9.61719 14.6172C9.73568 14.4987 9.8291 14.3597 9.89746 14.2002C9.96582 14.0407 10 13.8698 10 13.6875V12H6H5.625Z" fill="white"/>
</svg>
