<svg width="16" height="16" viewBox="0 0 16 16" fill="none" xmlns="http://www.w3.org/2000/svg">
<path fill-rule="evenodd" clip-rule="evenodd" d="M6 2.97184V2.98361H5.91083C5.71113 2.98361 5.5238 3.02427 5.34802 3.10513C5.17461 3.18275 5.02193 3.28942 4.89086 3.42437C4.76421 3.55475 4.66135 3.71034 4.58238 3.89205C4.50833 4.07152 4.47134 4.26019 4.47134 4.45902C4.47134 4.68725 4.4753 4.9134 4.48321 5.13749C4.49125 5.36105 4.49127 5.58262 4.48324 5.80219C4.47914 6.01973 4.46082 6.2333 4.42826 6.44285C4.39513 6.65175 4.33913 6.85263 4.26039 7.04464C4.18091 7.23843 4.07258 7.42254 3.93616 7.59702C3.82345 7.74119 3.68538 7.87538 3.52283 8C3.68538 8.12462 3.82345 8.25881 3.93616 8.40298C4.07258 8.57746 4.18091 8.76157 4.26039 8.95536C4.33921 9.14757 4.39513 9.35024 4.42823 9.56312C4.46084 9.76883 4.47914 9.98246 4.48324 10.2039C4.49127 10.4195 4.49125 10.6411 4.48321 10.8686C4.4753 11.0885 4.47134 11.3127 4.47134 11.541C4.47134 11.744 4.50838 11.9346 4.58223 12.1137C4.66104 12.2911 4.76386 12.4469 4.89086 12.5818C5.02194 12.7126 5.17396 12.8191 5.34763 12.9008C5.52346 12.9777 5.71095 13.0164 5.91083 13.0164H6V13.2V14H5.91083C5.59743 14 5.29407 13.9384 5.00128 13.8153C4.70818 13.692 4.44942 13.5153 4.22578 13.285C4.00311 13.0558 3.83793 12.805 3.73283 12.5323L3.73232 12.531C3.63387 12.265 3.56819 11.9903 3.53535 11.7072L3.53516 11.7055C3.50677 11.4215 3.4987 11.1316 3.51084 10.8357C3.52272 10.5462 3.52866 10.2567 3.52866 9.96721C3.52866 9.76883 3.48986 9.58047 3.41201 9.40108L3.41129 9.39942C3.33659 9.21871 3.23428 9.0637 3.10412 8.93352L3.10221 8.93161C2.97577 8.79762 2.82457 8.69156 2.64742 8.61396L2.64601 8.61334C2.47001 8.53238 2.28465 8.4918 2.08917 8.4918H2V8.4V7.6V7.5082H2.08917C2.28497 7.5082 2.4706 7.46954 2.64672 7.3925C2.82466 7.31055 2.97644 7.20405 3.10317 7.07358C3.23423 6.93866 3.33687 6.78296 3.4116 6.60601L3.412 6.60507C3.48974 6.42594 3.52866 6.23556 3.52866 6.03279C3.52866 5.74329 3.52272 5.45379 3.51084 5.16428C3.4987 4.86844 3.50678 4.5805 3.53519 4.30053L3.53533 4.29917C3.56814 4.01201 3.63382 3.7352 3.73233 3.46898L3.73282 3.46766C3.83792 3.19498 4.00311 2.94422 4.22578 2.71498C4.44942 2.48474 4.70818 2.30798 5.00128 2.18473C5.29407 2.06161 5.59743 2 5.91083 2H6V2.97184Z" fill="white"/>
<path fill-rule="evenodd" clip-rule="evenodd" d="M10 13.0282L10 13.0164L10.0892 13.0164C10.2889 13.0164 10.4762 12.9757 10.652 12.8949C10.8254 12.8173 10.9781 12.7106 11.1091 12.5756C11.2358 12.4452 11.3386 12.2897 11.4176 12.1079C11.4917 11.9285 11.5287 11.7398 11.5287 11.541C11.5287 11.3128 11.5247 11.0866 11.5168 10.8625C11.5087 10.6389 11.5087 10.4174 11.5168 10.1978C11.5209 9.98027 11.5392 9.7667 11.5717 9.55715C11.6049 9.34825 11.6609 9.14737 11.7396 8.95536C11.8191 8.76157 11.9274 8.57746 12.0638 8.40298C12.1765 8.25881 12.3146 8.12462 12.4772 8C12.3146 7.87538 12.1765 7.74119 12.0638 7.59702C11.9274 7.42254 11.8191 7.23843 11.7396 7.04464C11.6608 6.85243 11.6049 6.64976 11.5718 6.43688C11.5392 6.23117 11.5209 6.01754 11.5168 5.79605C11.5087 5.58049 11.5088 5.35894 11.5168 5.13142C11.5247 4.91145 11.5287 4.68727 11.5287 4.45902C11.5287 4.25596 11.4916 4.0654 11.4178 3.88628C11.339 3.70889 11.2361 3.55305 11.1091 3.41823C10.9781 3.28736 10.826 3.18092 10.6524 3.09917C10.4765 3.0223 10.2891 2.98361 10.0892 2.98361L10 2.98361L10 2.8L10 2L10.0892 2C10.4026 2 10.7059 2.06161 10.9987 2.18473C11.2918 2.30798 11.5506 2.48474 11.7742 2.71498C11.9969 2.94422 12.1621 3.19499 12.2672 3.46766L12.2677 3.46897C12.3661 3.73502 12.4318 4.00971 12.4646 4.29285L12.4648 4.29454C12.4932 4.57848 12.5013 4.86842 12.4892 5.16428C12.4773 5.45379 12.4713 5.74329 12.4713 6.03279C12.4713 6.23117 12.5101 6.41953 12.588 6.59892L12.5887 6.60058C12.6634 6.78129 12.7657 6.9363 12.8959 7.06648L12.8978 7.06839C13.0242 7.20238 13.1754 7.30844 13.3526 7.38604L13.354 7.38666C13.53 7.46762 13.7153 7.5082 13.9108 7.5082L14 7.5082L14 7.6L14 8.4L14 8.4918L13.9108 8.4918C13.715 8.4918 13.5294 8.53046 13.3533 8.6075C13.1753 8.68945 13.0236 8.79595 12.8968 8.92642C12.7658 9.06134 12.6631 9.21704 12.5884 9.39399L12.588 9.39493C12.5103 9.57406 12.4713 9.76444 12.4713 9.96721C12.4713 10.2567 12.4773 10.5462 12.4892 10.8357C12.5013 11.1316 12.4932 11.4195 12.4648 11.6995L12.4647 11.7008C12.4319 11.988 12.3662 12.2648 12.2677 12.531L12.2672 12.5323C12.1621 12.805 11.9969 13.0558 11.7742 13.285C11.5506 13.5153 11.2918 13.692 10.9987 13.8153C10.7059 13.9384 10.4026 14 10.0892 14L10 14L10 13.0282Z" fill="white"/>
</svg>
