<svg width="16" height="16" viewBox="0 0 16 16" fill="none" xmlns="http://www.w3.org/2000/svg">
<path d="M14.5 6.508H14.411C14.2908 6.50877 14.1719 6.48281 14.063 6.432V6.432H14.055C13.9451 6.38587 13.8457 6.31782 13.763 6.232V6.232H13.757C13.6712 6.1462 13.6032 6.04424 13.557 5.932V5.932V5.923C13.5065 5.80727 13.4806 5.68228 13.481 5.556C13.481 5.27267 13.487 4.99 13.499 4.708C13.5122 4.39442 13.5031 4.08031 13.472 3.768V3.758C13.4351 3.43685 13.3599 3.12127 13.248 2.818V2.812C13.1126 2.46746 12.9084 2.15409 12.648 1.891C12.3829 1.611 12.0637 1.38768 11.7098 1.23454C11.3559 1.08139 10.9746 1.0016 10.589 1L10 1V2.984H10.589C10.7117 2.98302 10.8333 3.00754 10.946 3.056C11.0572 3.10935 11.1586 3.18102 11.246 3.268C11.3319 3.36108 11.4021 3.46746 11.454 3.583C11.502 3.70253 11.5264 3.8302 11.526 3.959C11.526 4.18167 11.522 4.39967 11.514 4.613C11.506 4.848 11.506 5.079 11.514 5.304V5.314C11.5175 5.54845 11.5376 5.78237 11.574 6.014C11.6122 6.26069 11.6793 6.50203 11.774 6.733C11.8734 6.97373 12.0057 7.19954 12.167 7.404C12.194 7.439 12.235 7.465 12.267 7.499C12.238 7.533 12.197 7.559 12.167 7.594C12.0057 7.79846 11.8734 8.02427 11.774 8.265C11.6797 8.49404 11.6126 8.73334 11.574 8.978C11.5378 9.20967 11.5178 9.44356 11.514 9.678V9.686C11.506 9.91467 11.506 10.1453 11.514 10.378C11.522 10.5973 11.526 10.8177 11.526 11.039C11.5266 11.1666 11.5018 11.2931 11.453 11.411C11.4043 11.5275 11.3344 11.6339 11.247 11.725C11.1617 11.8143 11.0598 11.8859 10.947 11.936H10.942C10.831 11.9868 10.7101 12.0124 10.588 12.011H10V14H10.589C10.9704 13.9995 11.3477 13.9225 11.6988 13.7736C12.0499 13.6247 12.3676 13.4068 12.633 13.133C12.8934 12.8699 13.0976 12.5565 13.233 12.212V12.212V12.206C13.3453 11.9004 13.4205 11.5825 13.457 11.259V11.259V11.252C13.4882 10.9414 13.4972 10.6289 13.484 10.317C13.472 10.035 13.466 9.75233 13.466 9.469C13.4649 9.34071 13.4908 9.21362 13.542 9.096V9.096C13.6373 8.86197 13.8198 8.6741 14.051 8.572C14.1623 8.52343 14.2825 8.49857 14.404 8.499H15V6.508H14.5Z" fill="white"/>
<path d="M5.411 1C5.22227 0.999954 5.03401 1.01871 4.849 1.056C4.66336 1.09446 4.48185 1.15072 4.307 1.224C3.9531 1.372 3.63321 1.59082 3.367 1.867C3.10656 2.13009 2.90241 2.44346 2.767 2.788V2.788V2.794C2.65474 3.09958 2.57953 3.41751 2.543 3.741V3.741V3.748C2.51184 4.05863 2.50282 4.37109 2.516 4.683C2.528 4.965 2.534 5.24767 2.534 5.531C2.53513 5.65929 2.50923 5.78638 2.458 5.904V5.904C2.36265 6.13803 2.18016 6.3259 1.949 6.428C1.83768 6.47657 1.71746 6.50143 1.596 6.501H1V8.492H1.589C1.7092 8.49123 1.82807 8.51719 1.937 8.568V8.568H1.945C2.05491 8.61413 2.15427 8.68218 2.237 8.768V8.768H2.242C2.32784 8.8538 2.39582 8.95576 2.442 9.068V9.068V9.076C2.49252 9.19174 2.51841 9.31672 2.518 9.443C2.518 9.72633 2.512 10.009 2.5 10.291C2.494 10.45 2.509 10.604 2.513 10.761C2.517 10.918 2.513 11.077 2.527 11.231V11.241C2.56388 11.5622 2.63909 11.8777 2.751 12.181V12.181V12.187C2.88641 12.5315 3.09056 12.8449 3.351 13.108C3.61749 13.3839 3.9373 13.6026 4.291 13.751C4.46585 13.8243 4.64736 13.8805 4.833 13.919C5.02237 13.9658 5.21606 13.9929 5.411 14H6V12.016H5.411C5.2883 12.017 5.16673 11.9925 5.054 11.944C4.94282 11.8906 4.84141 11.819 4.754 11.732C4.66812 11.6389 4.59787 11.5325 4.546 11.417C4.49801 11.2975 4.47356 11.1698 4.474 11.041C4.474 10.8177 4.478 10.5997 4.486 10.387C4.494 10.152 4.494 9.921 4.486 9.696V9.686C4.48247 9.45155 4.46242 9.21763 4.426 8.986V8.986C4.417 8.932 4.394 8.886 4.383 8.83C4.34858 8.6379 4.29635 8.44942 4.227 8.267C4.12602 8.02744 3.99242 7.80299 3.83 7.6C3.803 7.565 3.762 7.539 3.73 7.505C3.759 7.471 3.8 7.445 3.83 7.41C3.99134 7.20554 4.12359 6.97973 4.223 6.739C4.31729 6.50996 4.38442 6.27066 4.423 6.026V6.026C4.45916 5.79433 4.4792 5.56044 4.483 5.326V5.326V5.312C4.491 5.08267 4.491 4.852 4.483 4.62C4.475 4.40067 4.471 4.18033 4.471 3.959C4.47036 3.83138 4.49518 3.70491 4.544 3.587C4.59274 3.47054 4.66258 3.36409 4.75 3.273C4.83526 3.18375 4.93718 3.11207 5.05 3.062H5.055C5.16604 3.01124 5.28692 2.98563 5.409 2.987H6V1H5.411Z" fill="white"/>
</svg>
