<svg width="16" height="16" viewBox="0 0 16 16" fill="none" xmlns="http://www.w3.org/2000/svg">
<path fill-rule="evenodd" clip-rule="evenodd" d="M12.5 9H11.5V11.5H9V12.5H11.5V15H12.5V12.5H15V11.5H12.5V9Z" fill="white"/>
<path d="M1.81277 14.5L4.03109 10.1089L6.24941 14.5H1.81277Z" stroke="white"/>
<path fill-rule="evenodd" clip-rule="evenodd" d="M14.971 3.784C14.8943 3.23898 14.6691 2.72558 14.32 2.3C13.9717 1.8439 13.4823 1.51585 12.928 1.367L12.56 2.251L12.631 2.275C12.9819 2.39383 13.2933 2.60715 13.5308 2.89149C13.7683 3.17583 13.9227 3.52017 13.9772 3.88663C14.0316 4.25309 13.9839 4.62746 13.8393 4.96856C13.6948 5.30966 13.4589 5.60428 13.1577 5.81999C12.8565 6.0357 12.5016 6.16415 12.1321 6.19121C11.7626 6.21826 11.3928 6.14288 11.0634 5.97335C10.734 5.80382 10.4578 5.54671 10.265 5.23031C10.0723 4.91391 9.97057 4.55048 9.97104 4.18C9.97077 3.89675 10.0315 3.61677 10.1492 3.35913C10.2669 3.10149 10.4388 2.87224 10.653 2.687V3.654H11.653V1H9.00004V2H9.97104C9.66593 2.27542 9.4219 2.61169 9.25466 2.98716C9.08742 3.36263 9.00068 3.76897 9.00004 4.18C8.99787 4.59218 9.08066 5.0004 9.24324 5.37916C9.40583 5.75793 9.64473 6.09914 9.94503 6.38148C10.2453 6.66383 10.6006 6.88126 10.9887 7.02022C11.3767 7.15917 11.7893 7.21667 12.2005 7.18912C12.6118 7.16157 13.013 7.04956 13.379 6.86008C13.7451 6.67061 14.0682 6.40773 14.3281 6.08786C14.5881 5.76798 14.7793 5.39796 14.89 5.00089C15.0006 4.60382 15.0282 4.18821 14.971 3.78V3.784Z" fill="white"/>
<path d="M6.42989 1.10951L1.10962 6.42978L1.79551 7.11567L7.11578 1.7954L6.42989 1.10951Z" fill="white"/>
<path d="M3.61802 1.82988C3.47545 1.498 3.20768 1.23579 2.87289 1.10023C2.53809 0.964661 2.16332 0.966692 1.83002 1.10588C1.50328 1.24323 1.24337 1.50314 1.10602 1.82988C1.03519 1.99825 0.99913 2.17921 1.00002 2.36188C0.998666 2.62984 1.0768 2.89219 1.22453 3.11575C1.37227 3.33932 1.58298 3.51406 1.83002 3.61788C1.99818 3.68951 2.17924 3.72592 2.36202 3.72488C2.6293 3.72612 2.89102 3.64851 3.11442 3.50177C3.33782 3.35503 3.51299 3.14567 3.61802 2.89988C3.68975 2.7314 3.72617 2.54999 3.72502 2.36688C3.72675 2.18242 3.69032 1.99959 3.61802 1.82988V1.82988ZM2.86502 2.57488C2.80927 2.70526 2.7054 2.80913 2.57502 2.86488C2.43854 2.92089 2.28549 2.92089 2.14902 2.86488C2.05713 2.82675 1.97736 2.76433 1.91825 2.6843C1.85915 2.60428 1.82294 2.50968 1.81352 2.41065C1.80409 2.31161 1.8218 2.21188 1.86475 2.12215C1.9077 2.03241 1.97426 1.95606 2.05731 1.90128C2.14035 1.8465 2.23674 1.81537 2.33614 1.81121C2.43553 1.80705 2.53418 1.83002 2.62151 1.87767C2.70884 1.92531 2.78156 1.99584 2.83185 2.08167C2.88215 2.1675 2.90813 2.2654 2.90702 2.36488C2.90718 2.43698 2.8929 2.50838 2.86502 2.57488V2.57488Z" fill="white"/>
<path d="M7.11797 5.32987C7.01437 5.08268 6.83968 4.87182 6.61607 4.72405C6.39246 4.57628 6.12999 4.49826 5.86197 4.49987C5.6793 4.49898 5.49834 4.53504 5.32997 4.60587C5.00323 4.74323 4.74332 5.00314 4.60597 5.32987C4.53583 5.49478 4.49893 5.6719 4.49737 5.8511C4.49581 6.03029 4.52963 6.20803 4.59688 6.37413C4.66414 6.54023 4.76352 6.69143 4.88931 6.81905C5.01511 6.94668 5.16486 7.04822 5.32997 7.11787C5.49862 7.18847 5.67963 7.22483 5.86247 7.22483C6.0453 7.22483 6.22631 7.18847 6.39497 7.11787C6.64196 7.01387 6.85266 6.83912 7.00053 6.61562C7.1484 6.39212 7.22684 6.12986 7.22597 5.86187C7.2265 5.67904 7.18975 5.49802 7.11797 5.32987V5.32987ZM6.36497 6.07487C6.33761 6.13937 6.29824 6.19807 6.24897 6.24787C6.19903 6.29723 6.14037 6.3369 6.07597 6.36487C6.00849 6.39296 5.93606 6.40724 5.86297 6.40687C5.78986 6.40744 5.71739 6.39315 5.64997 6.36487C5.58536 6.33728 5.52663 6.29756 5.47697 6.24787C5.42686 6.19855 5.38708 6.13974 5.35997 6.07487C5.30396 5.9384 5.30396 5.78535 5.35997 5.64887C5.41531 5.51845 5.51936 5.41477 5.64997 5.35987C5.71732 5.33125 5.78979 5.31662 5.86297 5.31687C5.93613 5.31684 6.00855 5.33146 6.07597 5.35987C6.14033 5.38748 6.19899 5.42682 6.24897 5.47587C6.29781 5.52602 6.33712 5.58465 6.36497 5.64887C6.39335 5.7163 6.40797 5.78872 6.40797 5.86187C6.40797 5.93503 6.39335 6.00745 6.36497 6.07487V6.07487Z" fill="white"/>
</svg>
