<svg width="16" height="16" viewBox="0 0 16 16" fill="none" xmlns="http://www.w3.org/2000/svg">
<path fill-rule="evenodd" clip-rule="evenodd" d="M15 1H1V15H15V1ZM13.32 3.25891C13.6691 3.67104 13.8943 4.16822 13.971 4.69601V4.69214C14.0282 5.08744 14.0006 5.48991 13.89 5.87444C13.7793 6.25896 13.5881 6.61728 13.3281 6.92705C13.0682 7.23682 12.7451 7.49138 12.379 7.67487C12.013 7.85836 11.6118 7.96682 11.2005 7.9935C10.7893 8.02018 10.3767 7.96451 9.98866 7.82994C9.6006 7.69538 9.24533 7.48482 8.94503 7.21139C8.64473 6.93797 8.40583 6.60755 8.24324 6.24076C8.08066 5.87396 7.99787 5.47865 8.00004 5.07949C8.00068 4.68145 8.08742 4.28796 8.25466 3.92436C8.4219 3.56075 8.66593 3.23511 8.97104 2.96839H8.00004V2H10.653V4.57012H9.65304V3.63368C9.43876 3.81307 9.26692 4.03507 9.14923 4.28457C9.03154 4.53406 8.97077 4.8052 8.97104 5.07949C8.97057 5.43826 9.07229 5.79021 9.26502 6.09661C9.45775 6.40301 9.73402 6.65199 10.0634 6.81616C10.3928 6.98033 10.7626 7.05333 11.1321 7.02713C11.5016 7.00093 11.8565 6.87654 12.1577 6.66765C12.4589 6.45875 12.6948 6.17345 12.8393 5.84313C12.9839 5.51281 13.0316 5.15027 12.9772 4.79539C12.9227 4.44052 12.7683 4.10706 12.5308 3.83171C12.2933 3.55636 11.9819 3.34978 11.631 3.2347L11.56 3.21146L11.928 2.3554C12.4823 2.49955 12.9717 2.81722 13.32 3.25891ZM5.94929 2.14247L2.07568 6.01608L2.96748 6.90787L6.84108 3.03427L5.94929 2.14247ZM12 9H11V11H9V12H11V14H12V12H14V11H12V9ZM2 14L5 8L8 14H2ZM3.73263 12.9231L5 10.3883L6.26737 12.9231H3.73263ZM3 4C3.55228 4 4 3.55228 4 3C4 2.44772 3.55228 2 3 2C2.44772 2 2 2.44772 2 3C2 3.55228 2.44772 4 3 4ZM7 6C7 6.55228 6.55228 7 6 7C5.44772 7 5 6.55228 5 6C5 5.44772 5.44772 5 6 5C6.55228 5 7 5.44772 7 6Z" fill="white"/>
</svg>
