<svg width="16" height="16" viewBox="0 0 16 16" fill="none" xmlns="http://www.w3.org/2000/svg">
<path d="M11 4V6H10V5.5C10 5.22386 9.77614 5 9.5 5H8.479V10.5C8.479 10.7761 8.70286 11 8.979 11H9.479V12H6.479V11H6.979C7.25515 11 7.479 10.7761 7.479 10.5V5H6.5C6.22386 5 6 5.22386 6 5.5V6H5V4H11Z" fill="white"/>
<path fill-rule="evenodd" clip-rule="evenodd" d="M12.8791 5.89999L12.1721 6.60699L13.5861 8.02199L12.1721 9.43999L12.8791 10.147L15.0001 8.02599L14.2931 7.31799L12.8791 5.89999Z" fill="white"/>
<path fill-rule="evenodd" clip-rule="evenodd" d="M3.121 10.147L3.828 9.43999L2.414 8.02599L3.828 6.61099L3.121 5.89999L1 8.02599L1.707 8.73299L3.121 10.147Z" fill="white"/>
</svg>
