<svg width="16" height="16" viewBox="0 0 16 16" fill="none" xmlns="http://www.w3.org/2000/svg">
<path d="M10.2051 6.52954C10.0969 6.27211 9.91522 6.05273 9.68303 5.89913C9.45085 5.74554 9.17859 5.66464 8.90068 5.66666C8.55658 5.67747 8.22637 5.80566 7.96432 6.03018C6.36738 7.56949 2.86512 11.0472 1.28403 12.7111C1.07308 12.9834 0.973616 13.3265 1.00601 13.6702C1.0384 14.0138 1.20019 14.332 1.45826 14.5596C1.58514 14.6948 1.73744 14.8033 1.90632 14.8789C2.07521 14.9545 2.25733 14.9956 2.44213 15C2.74919 14.9974 3.04474 14.8821 3.27321 14.6758C5.01176 13.0522 8.54943 9.48262 10.0019 7.99858C10.1737 7.79985 10.2844 7.5552 10.3205 7.29439C10.3565 7.03358 10.3164 6.76786 10.2051 6.52954Z" fill="white"/>
<path d="M14.9997 5.08338C14.9997 6.16632 14.5695 7.20491 13.8038 7.97066C13.038 8.73641 11.9995 9.16661 10.9166 9.16661C9.83366 9.16661 8.7951 8.73641 8.02937 7.97066C7.26363 7.20491 6.83345 6.16632 6.83345 5.08338C6.82813 4.54569 6.93011 4.01233 7.13342 3.51453C7.33673 3.01673 7.63729 2.56448 8.01751 2.18425C8.39773 1.80402 8.84997 1.50346 9.34776 1.30014C9.84555 1.09682 10.3789 0.99484 10.9166 1.00016C11.4175 0.995059 11.9153 1.07798 12.3875 1.24515L9.44665 4.26674L11.7332 6.55334L14.7547 3.6124C14.9219 4.0846 15.0048 4.58249 14.9997 5.08338V5.08338Z" fill="white"/>
</svg>
