<svg width="16" height="16" viewBox="0 0 16 16" fill="none" xmlns="http://www.w3.org/2000/svg">
<path fill-rule="evenodd" clip-rule="evenodd" d="M1.73223 3.83223C1.26339 4.30107 1 4.93696 1 5.6C1 6.26304 1.26339 6.89893 1.73223 7.36777C2.20107 7.83661 2.83696 8.1 3.5 8.1H4V7.1H3.5C3.10218 7.1 2.72064 6.94196 2.43934 6.66066C2.15804 6.37936 2 5.99782 2 5.6C2 5.20218 2.15804 4.82064 2.43934 4.53934C2.72064 4.25803 3.10218 4.1 3.5 4.1H5.9V5.6L8.02635 4L8.542 3.612L5.93362 1.5L5.942 3.1H3.5C2.83696 3.1 2.20107 3.36339 1.73223 3.83223ZM5 9.1V7.52869L9.68954 4H10V5V8H14V15H5V9.1ZM11 4V7H14L11 4Z" fill="white"/>
</svg>
