<svg width="16" height="16" viewBox="0 0 16 16" fill="none" xmlns="http://www.w3.org/2000/svg">
<path d="M14 13L14 2L3 1.99999L3 13H2L2 0.999989L15 1L15 13H14ZM2 14H3V15H2V14Z" fill="white"/>
<path d="M5 14.0001H4V15.0001H5V14.0001Z" fill="white"/>
<path d="M7 14.0001H6V15.0001H7V14.0001Z" fill="white"/>
<path d="M9 14.0001H8V15.0001H9V14.0001Z" fill="white"/>
<path d="M11 14.0001H10V15.0001H11V14.0001Z" fill="white"/>
<path d="M15 14.0001H14V15.0001H15V14.0001Z" fill="white"/>
<path d="M13 14.0001H12V15.0001H13V14.0001Z" fill="white"/>
</svg>
