<svg width="16" height="16" viewBox="0 0 16 16" fill="none" xmlns="http://www.w3.org/2000/svg">
<path d="M15 13H1V2H15V13ZM2 12H14V3H2V12Z" fill="white"/>
<path fill-rule="evenodd" clip-rule="evenodd" d="M5 5H4L3 6V9.5H4V8H5V9.5H6V6L5 5ZM5 7H4V6H5V7ZM8.00008 6.49999V5.49999H7.00008V9.49999H9.00008L10.0001 8.49999V7.49999L9.00008 6.49999H8.00008ZM9.00008 8.49999H8.00008V7.49999H9.00008V8.49999ZM11.0001 7.49999L12.0001 6.49999H13.0001V7.49999H12.0001V8.49999H13.0001V9.49999H12.0001L11.0001 8.49999V7.49999Z" fill="white"/>
</svg>
