<svg id="Capa_1" enable-background="new 0 0 512 512" height="512" viewBox="0 0 512 512" width="512" xmlns="http://www.w3.org/2000/svg"><g><path d="m253.255 0c-6.094 0-145.556 0-155.429 0-6.253 0-11.323 5.069-11.323 11.323v116.684h178.074v-116.684c.001-6.254-5.069-11.323-11.322-11.323z" fill="#f07281"/><path d="m265.607 0h-24.704c6.253 0 11.323 5.069 11.323 11.323v116.684h24.704v-116.684c0-6.254-5.07-11.323-11.323-11.323z" fill="#eb5569"/><path d="m360.411 451.938v26.661c0 6.458 4.499 11.853 10.531 13.254 6.031-1.401 10.531-6.796 10.531-13.254v-26.661c7.273-4.547 12.115-12.622 12.115-21.831v-348.421h-45.291v348.42c0 9.21 4.841 17.285 12.114 21.832z" fill="#cecece"/><path d="m383.294 81.686v348.42c0 9.21-4.841 17.285-12.115 21.831v26.661c0 4.423-2.118 8.342-5.384 10.83 8.928 6.799 21.854.393 21.854-10.83v-26.661c7.273-4.547 12.115-12.622 12.115-21.831v-348.42z" fill="#bfbfbf"/><path d="m361.678 22.095c-13.835 5.679-21.437 18.29-21.437 31.449v116.494h53.167v-116.494c0-14.3-8.888-26.516-21.437-31.449z" fill="#9c9c9c"/><path d="m383.294 81.686v348.42c0 9.21-4.841 17.285-12.115 21.831v26.661c0 4.423-2.118 8.342-5.384 10.83 8.928 6.799 21.854.393 21.854-10.83v-26.661c7.273-4.547 12.115-12.622 12.115-21.831v-348.42z" fill="#bfbfbf"/><path d="m86.503 383.993v116.684c0 6.253 5.069 11.323 11.323 11.323h155.429c6.253 0 11.323-5.069 11.323-11.323v-116.684c-2.903 0-173.215 0-178.075 0z" fill="#3c87d0"/><path d="m86.503 255.987h178.074v128.007h-178.074z" fill="#2abcc8"/><path d="m86.503 127.98h178.074v128.007h-178.074z" fill="#ffe177"/><path d="m252.226 383.993v116.684c0 6.253-5.069 11.323-11.323 11.323h24.704c6.253 0 11.323-5.069 11.323-11.323v-116.684z" fill="#0078c8"/><path d="m252.226 255.987h24.704v128.007h-24.704z" fill="#0cacba"/><path d="m252.226 127.98h24.704v128.007h-24.704z" fill="#ffd15b"/><path d="m374.03 19.755c-4.361 0-8.525.835-12.352 2.34 12.549 4.933 21.437 17.149 21.437 31.449v116.494h24.704v-116.494c0-18.661-15.128-33.789-33.789-33.789z" fill="#838383"/><path d="m395.649 148.593c-6.524 0-51.301 0-57.645 0-8.527 0-15.44 6.913-15.44 15.44 0 8.527 6.913 15.44 15.44 15.44h57.643c8.527 0 15.44-6.912 15.44-15.44-.001-8.526-6.912-15.438-15.438-15.44z" fill="#acacac"/><path d="m410.057 148.593h-24.704c8.527 0 15.44 6.912 15.44 15.44 0 8.527-6.913 15.44-15.44 15.44h24.704c8.527 0 15.44-6.913 15.44-15.44 0-8.527-6.913-15.44-15.44-15.44z" fill="#9c9c9c"/></g></svg>