<?xml version="1.0" encoding="UTF-8"?>
<svg xmlns="http://www.w3.org/2000/svg" xmlns:xlink="http://www.w3.org/1999/xlink" width="69pt" height="69pt" viewBox="0 0 69 69" version="1.1">
<g id="surface1">
<path style=" stroke:none;fill-rule:nonzero;fill:rgb(34.901961%,58.823529%,21.176471%);fill-opacity:1;" d="M 33.773438 1.210938 L 37.574219 4.515625 C 38.402344 5.109375 39.367188 5.664062 40.449219 6.164062 C 43.628906 7.636719 46.652344 9.179688 49.367188 10.832031 C 55.808594 14.746094 60.15625 19.070312 63.257812 23.792969 C 65.125 26.644531 66.117188 29.605469 66.203125 32.585938 C 66.515625 41.492188 59.917969 49.136719 46.617188 55.492188 C 44.453125 56.5 42.117188 57.421875 39.628906 58.253906 C 38.3125 58.253906 37.6875 57.789062 37.144531 57.359375 C 36.132812 56.570312 35.515625 55.667969 35.203125 54.773438 C 34.734375 53.695312 34.429688 52.617188 34.582031 51.507812 L 34.582031 51.003906 C 34.472656 50.875 33.3125 1.441406 33.773438 1.210938 Z M 33.773438 1.210938 "/>
<path style=" stroke:none;fill-rule:nonzero;fill:rgb(42.352941%,67.45098%,28.235294%);fill-opacity:1;" d="M 33.773438 1.101562 C 33.617188 0.957031 33.460938 1.066406 33.308594 1.136719 C 33.382812 1.855469 32.839844 2.5 31.988281 3.113281 C 31.097656 3.722656 29.816406 4.191406 28.574219 4.691406 C 21.675781 7.457031 16.242188 10.796875 11.894531 14.53125 C 6.109375 19.554688 3.125 24.941406 2.277344 30.613281 C 1.890625 32.65625 3.675781 39.875 5.070312 41.957031 C 8.871094 47.484375 15.699219 52.117188 24.546875 56.136719 C 26.730469 57.109375 29.035156 58.019531 31.445312 58.867188 C 32.144531 58.867188 32.222656 58.578125 32.335938 58.363281 C 32.644531 57.90625 32.875 57.4375 33.035156 56.964844 L 34.59375 51.578125 Z M 33.773438 1.101562 "/>
<path style=" stroke:none;fill-rule:nonzero;fill:rgb(76.078431%,74.901961%,74.901961%);fill-opacity:1;" d="M 37.574219 60.441406 C 37.730469 59.617188 38.585938 58.933594 39.515625 58.253906 C 38.625 58.074219 37.886719 57.71875 37.34375 57.320312 C 36.875 56.945312 36.488281 56.546875 36.1875 56.136719 C 35.101562 54.628906 34.871094 53.046875 34.558594 51.507812 L 34.558594 50.574219 C 34.171875 50.71875 34.089844 51.9375 34.089844 52.117188 C 33.863281 53.746094 33.394531 55.367188 32.691406 56.964844 C 32.460938 57.609375 32.304688 58.253906 31.445312 58.832031 C 31.445312 58.902344 31.445312 58.972656 31.523438 59.082031 C 32.917969 60.984375 33.300781 62.921875 33.539062 64.898438 L 33.539062 65.617188 C 33.539062 66.480469 33.460938 66.296875 35.007812 66.585938 C 35.628906 66.695312 36.324219 66.730469 36.949219 66.945312 C 37.414062 66.945312 37.492188 66.765625 37.492188 66.621094 L 37.261719 65.4375 L 37.261719 62.132812 C 37.183594 61.558594 37.414062 60.984375 37.570312 60.445312 Z M 37.574219 60.441406 "/>
</g>
</svg>
