<?xml version="1.0" encoding="iso-8859-1"?>
<!-- Generator: Adobe Illustrator 19.0.0, SVG Export Plug-In . SVG Version: 6.00 Build 0)  -->
<svg version="1.1" id="Capa_1" xmlns="http://www.w3.org/2000/svg" xmlns:xlink="http://www.w3.org/1999/xlink" x="0px" y="0px"
	 viewBox="0 0 448 448" style="enable-background:new 0 0 448 448;" xml:space="preserve">
<path style="fill:#455A64;" d="M309.333,42.667h-32v-32C277.333,4.776,272.558,0,266.667,0h-85.333
	c-5.891,0-10.667,4.776-10.667,10.667v32h-32c-29.455,0-53.333,23.878-53.333,53.333v298.667c0,29.455,23.878,53.333,53.333,53.333
	h170.667c29.455,0,53.333-23.878,53.333-53.333V96C362.667,66.545,338.789,42.667,309.333,42.667z"/>
<path style="fill:#FFC107;" d="M296.896,218.133c-1.971-2.993-5.313-4.796-8.896-4.8h-53.333v-96
	c0.001-5.07-3.566-9.439-8.533-10.453c-4.977-1.09-10.019,1.543-11.968,6.251l-64,149.333c-2.356,5.399,0.11,11.686,5.509,14.043
	c1.357,0.592,2.823,0.896,4.304,0.89h53.333v95.936c-0.001,5.07,3.566,9.439,8.533,10.453c0.702,0.141,1.417,0.213,2.133,0.213
	c4.255,0.015,8.111-2.5,9.813-6.4l64-149.333C299.227,224.955,298.89,221.142,296.896,218.133z"/>
<g>
</g>
<g>
</g>
<g>
</g>
<g>
</g>
<g>
</g>
<g>
</g>
<g>
</g>
<g>
</g>
<g>
</g>
<g>
</g>
<g>
</g>
<g>
</g>
<g>
</g>
<g>
</g>
<g>
</g>
</svg>
