<svg width="16" height="16" viewBox="0 0 16 16" fill="none" xmlns="http://www.w3.org/2000/svg">
<path fill-rule="evenodd" clip-rule="evenodd" d="M12.5469 9.32812C12.3542 9.25 12.1562 9.21094 11.9531 9.21094C11.7344 9.20573 11.5495 9.23958 11.3984 9.3125C11.2474 9.38542 11.1042 9.47135 10.9688 9.57031C10.8333 9.66927 10.7135 9.77865 10.6094 9.89844C10.5052 10.0182 10.4036 10.1276 10.3047 10.2266C10.2057 10.3255 10.1094 10.4089 10.0156 10.4766C9.92188 10.5443 9.82031 10.5781 9.71094 10.5781C9.5599 10.5781 9.42969 10.5234 9.32031 10.4141C9.24219 10.3411 9.13281 10.237 8.99219 10.1016C8.85156 9.96615 8.67969 9.80208 8.47656 9.60938C8.27344 9.41667 8.0625 9.21354 7.84375 9C7.625 8.78646 7.39844 8.5651 7.16406 8.33594C6.92969 8.10677 6.71094 7.88542 6.50781 7.67188C6.30469 7.45833 6.11979 7.25781 5.95312 7.07031C5.78646 6.88281 5.65625 6.72135 5.5625 6.58594C5.46875 6.45052 5.42188 6.35156 5.42188 6.28906C5.41667 6.17448 5.45052 6.07031 5.52344 5.97656C5.59635 5.88281 5.68229 5.78646 5.78125 5.6875C5.88021 5.58854 5.98958 5.48438 6.10938 5.375C6.22917 5.26562 6.33854 5.14844 6.4375 5.02344C6.53646 4.89844 6.61979 4.75521 6.6875 4.59375C6.75521 4.43229 6.78906 4.25 6.78906 4.04688C6.78906 3.84375 6.75 3.64583 6.67188 3.45312C6.59375 3.26042 6.48177 3.09115 6.33594 2.94531C6.16927 2.78385 5.99219 2.59115 5.80469 2.36719C5.61719 2.14323 5.41146 1.92969 5.1875 1.72656C4.96354 1.52344 4.73177 1.35156 4.49219 1.21094C4.2526 1.07031 4.0026 1 3.74219 1C3.53906 1 3.34115 1.03906 3.14844 1.11719C2.95573 1.19531 2.78646 1.30729 2.64062 1.45313C2.36979 1.72396 2.13281 1.96615 1.92969 2.17969C1.72656 2.39323 1.55469 2.61458 1.41406 2.84375C1.27344 3.07292 1.16927 3.32812 1.10156 3.60938C1.03385 3.89062 1 4.22917 1 4.625C1 5.17708 1.08854 5.75 1.26562 6.34375C1.44271 6.9375 1.68229 7.52865 1.98438 8.11719C2.28646 8.70573 2.65365 9.28385 3.08594 9.85156C3.51823 10.4193 3.98698 10.9583 4.49219 11.4688C4.9974 11.9792 5.53385 12.4505 6.10156 12.8828C6.66927 13.3151 7.25 13.6875 7.84375 14C8.4375 14.3125 9.03385 14.5573 9.63281 14.7344C10.2318 14.9115 10.8151 15 11.3828 15C11.7682 14.9948 12.1042 14.9583 12.3906 14.8906C12.6771 14.8229 12.9349 14.7188 13.1641 14.5781C13.3932 14.4375 13.6146 14.2656 13.8281 14.0625C14.0417 13.8594 14.2812 13.625 14.5469 13.3594C14.6927 13.2135 14.8047 13.0443 14.8828 12.8516C14.9609 12.6589 15 12.4609 15 12.2578C14.9896 12.0859 14.9557 11.9141 14.8984 11.7422C14.8411 11.5703 14.7552 11.4089 14.6406 11.2578C14.526 11.1068 14.4036 10.9583 14.2734 10.8125C14.1432 10.6667 14.0026 10.526 13.8516 10.3906C13.7005 10.2552 13.5573 10.1276 13.4219 10.0078C13.2865 9.88802 13.1641 9.77344 13.0547 9.66406C12.9089 9.51823 12.7396 9.40625 12.5469 9.32812ZM12.1797 13.9141C11.9661 13.9714 11.7005 14 11.3828 14C10.8984 13.9948 10.3932 13.9141 9.86719 13.7578C9.34115 13.6016 8.8125 13.3802 8.28125 13.0938C7.75 12.8073 7.22396 12.4688 6.70312 12.0781C6.18229 11.6875 5.69271 11.2604 5.23438 10.7969C4.77604 10.3333 4.34635 9.84635 3.94531 9.33594C3.54427 8.82552 3.20052 8.29948 2.91406 7.75781C2.6276 7.21615 2.40365 6.67969 2.24219 6.14844C2.08073 5.61719 2 5.10156 2 4.60156C2.00521 4.29427 2.03646 4.03125 2.09375 3.8125C2.15104 3.59375 2.23698 3.39844 2.35156 3.22656C2.46615 3.05469 2.60677 2.88802 2.77344 2.72656C2.9401 2.5651 3.13021 2.3776 3.34375 2.16406C3.45312 2.05469 3.58594 2 3.74219 2C3.80469 1.99479 3.90104 2.03646 4.03125 2.125C4.16146 2.21354 4.30208 2.32031 4.45312 2.44531C4.60417 2.57031 4.76042 2.71354 4.92188 2.875C5.08333 3.03646 5.22656 3.19271 5.35156 3.34375C5.47656 3.49479 5.58073 3.63281 5.66406 3.75781C5.7474 3.88281 5.78906 3.97917 5.78906 4.04688C5.79427 4.17188 5.76042 4.27604 5.6875 4.35938C5.61458 4.44271 5.52865 4.53906 5.42969 4.64844C5.33073 4.75781 5.22135 4.86198 5.10156 4.96094C4.98177 5.0599 4.8724 5.17708 4.77344 5.3125C4.67448 5.44792 4.59115 5.59375 4.52344 5.75C4.45573 5.90625 4.42188 6.08594 4.42188 6.28906C4.42708 6.5026 4.46875 6.70312 4.54688 6.89062C4.625 7.07812 4.73698 7.24479 4.88281 7.39062L8.60938 11.1172C8.76042 11.2682 8.92969 11.3828 9.11719 11.4609C9.30469 11.5391 9.5026 11.5781 9.71094 11.5781C9.91927 11.5833 10.1016 11.5495 10.2578 11.4766C10.4141 11.4036 10.5573 11.3177 10.6875 11.2188C10.8177 11.1198 10.9375 11.0104 11.0469 10.8906C11.1562 10.7708 11.2578 10.6615 11.3516 10.5625C11.4453 10.4635 11.5417 10.3802 11.6406 10.3125C11.7396 10.2448 11.8438 10.2109 11.9531 10.2109C12.026 10.2109 12.125 10.2526 12.25 10.3359C12.375 10.4193 12.513 10.526 12.6641 10.6562C12.8151 10.7865 12.9714 10.9297 13.1328 11.0859C13.2943 11.2422 13.4375 11.3984 13.5625 11.5547C13.6875 11.7109 13.7917 11.8516 13.875 11.9766C13.9583 12.1016 14 12.1979 14 12.2656C14 12.4167 13.9453 12.5469 13.8359 12.6562C13.612 12.875 13.4219 13.0651 13.2656 13.2266C13.1094 13.388 12.9427 13.5286 12.7656 13.6484C12.5885 13.7682 12.3932 13.8568 12.1797 13.9141ZM15 1.70312L10.3594 6.35156L13.6484 6.35156V7.35156L8.64844 7.35156L8.64844 2.35156L9.64844 2.35156V5.64062L14.2969 1L15 1.70312Z" fill="#424242"/>
</svg>
