<svg xmlns="http://www.w3.org/2000/svg" width="16" height="16"><style>.icon-canvas-transparent{opacity:0;fill:#f6f6f6}.icon-vs-out{fill:#f6f6f6}.icon-vs-bg{fill:#424242}.icon-vs-action-blue{fill:#00539c}</style><path class="icon-canvas-transparent" d="M16 16H0V0h16v16z" id="canvas"/><path class="icon-vs-out" d="M15.989 8l-2 2h2v4h-2l2 2h-6L6 12.011v2.287l-.497.289C5.039 14.857 4.52 15 4 15c-1.654 0-3-1.346-3-3V6c0-1.654 1.346-3 3-3 .52 0 1.039.143 1.503.413L6 3.702V8H4v2h2v1.989L9.989 8h-3l2-2h-2V2h2l-2-2h6l3 3L16 4.989 12.989 8h3z" id="outline"/><path class="icon-vs-bg" d="M4 4c.366 0 .705.105 1 .277V7H3v4h2v2.723A1.987 1.987 0 0 1 4 14a2 2 0 0 1-2-2V6a2 2 0 0 1 2-2z" id="iconBg"/><path class="icon-vs-action-blue" d="M11.989 1h-2l2 2h-4v2h4l-2 2h2l3-3-3-3zm-4 11l3 3h2l-2-2h4v-2h-4l2-2h-2l-3 3z" id="colorAction"/></svg>