<svg xmlns="http://www.w3.org/2000/svg" width="16" height="16"><style type="text/css">.icon-canvas-transparent{opacity:0;fill:#F6F6F6;} .icon-vs-out{fill:#F6F6F6;} .icon-vs-bg{fill:#424242;} .icon-vs-action-blue{fill:#00539C;}</style><path class="icon-canvas-transparent" d="M16 16h-16v-16h16v16z" id="canvas"/><path class="icon-vs-out" d="M15.989 8l-2 2h2v4h-2l2 2h-6l-3.989-3.989v2.287l-.497.289c-.464.27-.983.413-1.503.413-1.654 0-3-1.346-3-3v-6c0-1.654 1.346-3 3-3 .52 0 1.039.143 1.503.413l.497.289v4.298h-2v2h2v1.989l3.989-3.989h-3l2-2h-2v-4h2l-2-2h6l3 3 .011 1.989-3.011 3.011h3z" id="outline"/><path class="icon-vs-bg" d="M4 4c.366 0 .705.105 1 .277v2.723h-2v4h2v2.723c-.295.171-.634.277-1 .277-1.104 0-2-.896-2-2v-6c0-1.104.896-2 2-2z" id="iconBg"/><path class="icon-vs-action-blue" d="M11.989 1h-2l2 2h-4v2h4l-2 2h2l3-3-3-3zm-4 11l3 3h2l-2-2h4v-2h-4l2-2h-2l-3 3z" id="colorAction"/></svg>