<svg xmlns="http://www.w3.org/2000/svg" viewBox="0 0 16 16"><style>.icon-canvas-transparent{opacity:0;fill:#f6f6f6}.icon-vs-out{fill:#f6f6f6}.icon-vs-bg{fill:#424242}</style><path class="icon-canvas-transparent" d="M16 16H0V0h16v16z" id="canvas"/><path class="icon-vs-out" d="M12 6v4h2v4.987l-.398.3A3.46 3.46 0 0 1 11.5 16C9.57 16 8 14.43 8 12.5V9.006H6.344l1.318 1.322-2.119 2.119L1 7.92v-.798l4.55-4.55 2.12 2.12-1.309 1.313H8V3.5C8 1.57 9.57 0 11.5 0a3.46 3.46 0 0 1 2.102.713l.398.3V6h-2z" id="outline"/><path class="icon-vs-bg" d="M11 10.051V11h2v3.489a2.476 2.476 0 0 1-1.5.511A2.5 2.5 0 0 1 9 12.5v-9A2.5 2.5 0 0 1 11.5 1c.565 0 1.081.194 1.5.511V5h-2v5.051zM6.257 4.693l-.707-.707L2.016 7.52l3.526 3.514.707-.707-2.314-2.322h4.12v-1H3.953l2.304-2.312z" id="iconBg"/></svg>