<svg xmlns="http://www.w3.org/2000/svg" viewBox="0 0 16 16"><style>.icon-canvas-transparent{opacity:0;fill:#f6f6f6}.icon-vs-out{fill:#f6f6f6}.icon-vs-bg{fill:#424242}</style><path class="icon-canvas-transparent" d="M16 16H0V0h16v16z" id="canvas"/><path class="icon-vs-out" d="M3.727 9.006H1.016v-3h2.693L2.4 4.692l2.12-2.12L8 6.052V3.5C8 1.57 9.57 0 11.5 0c.758 0 1.485.247 2.103.713l.362.273v14.028l-.362.273A3.465 3.465 0 0 1 11.5 16C9.57 16 8 14.43 8 12.5V8.986l-3.473 3.461-2.119-2.119 1.319-1.322z" id="outline"/><path class="icon-vs-bg" d="M11 10.051V11h2v3.489a2.476 2.476 0 0 1-1.5.511A2.5 2.5 0 0 1 9 12.5v-9A2.5 2.5 0 0 1 11.5 1c.565 0 1.081.194 1.5.511V5h-2v5.051zM3.813 4.693l2.305 2.312H2.016v1h4.12l-2.314 2.322.707.707L8.055 7.52 4.52 3.986l-.707.707z" id="iconBg"/></svg>