<?xml version="1.0" encoding="UTF-8" standalone="no"?>
<!-- Copyright 2000-2024 JetBrains s.r.o. and contributors. Use of this source code is governed by the Apache 2.0 license. -->

<svg
   width="16"
   height="16"
   viewBox="0 0 16 16"
   fill="none"
   version="1.1"
   id="svg1"
   xmlns="http://www.w3.org/2000/svg"
   xmlns:svg="http://www.w3.org/2000/svg">
  <defs
     id="defs1" />
  <path
     d="M 9.5,3.5 H 9 C 9,3.77614 9.22386,4 9.5,4 Z m 3,0 H 13 C 13,3.22386 12.7761,3 12.5,3 Z m 0,3 H 12 C 12,6.77614 12.2239,7 12.5,7 Z m 0,4 V 10 C 12.2239,10 12,10.2239 12,10.5 Z m 0,3 V 14 c 0.2761,0 0.5,-0.2239 0.5,-0.5 z m -10,0 H 2 C 2,13.7761 2.22386,14 2.5,14 Z m 3,-10 V 4 C 5.77614,4 6,3.77614 6,3.5 Z m -3,0 V 3 C 2.22386,3 2,3.22386 2,3.5 Z m 0,3 H 2 C 2,6.77614 2.22386,7 2.5,7 Z m 0,4 V 10 C 2.22386,10 2,10.2239 2,10.5 Z M 7.5,0 C 6.11929,0 5,1.11929 5,2.5 H 6 C 6,1.67157 6.67157,1 7.5,1 Z M 10,2.5 C 10,1.11929 8.88071,0 7.5,0 V 1 C 8.32843,1 9,1.67157 9,2.5 Z m 0,1 v -1 H 9 v 1 z M 12.5,3 h -3 v 1 h 3 z M 13,6.5 v -3 h -1 v 3 z M 12.5,7 h 1 V 6 h -1 z m 1,0 C 14.3284,7 15,7.67157 15,8.5 h 1 C 16,7.11929 14.8807,6 13.5,6 Z M 15,8.5 C 15,9.32843 14.3284,10 13.5,10 v 1 C 14.8807,11 16,9.88071 16,8.5 Z M 13.5,10 h -1 v 1 h 1 z M 13,13.5 v -3 h -1 v 3 z M 2.5,14 h 10 v -1 h -10 z m 3,-11 h -3 v 1 h 3 z M 5,2.5 v 1 h 1 v -1 z m -3,1 v 3 h 1 v -3 z m 0,7 v 3 h 1 v -3 z M 2.5,7 h 1 V 6 h -1 z m 1,3 h -1 v 1 h 1 z M 5,8.5 C 5,9.32843 4.32843,10 3.5,10 v 1 C 4.88071,11 6,9.88071 6,8.5 Z M 3.5,7 C 4.32843,7 5,7.67157 5,8.5 H 6 C 6,7.11929 4.88071,6 3.5,6 Z"
     fill="#548AF7"
     id="path1"
     style="fill:#000000;fill-opacity:1" />
</svg>
