<?xml version="1.0" encoding="UTF-8" standalone="no"?>
<!-- Copyright 2000-2024 JetBrains s.r.o. and contributors. Use of this source code is governed by the Apache 2.0 license. -->

<svg
   width="16"
   height="16"
   viewBox="0 0 16 16"
   fill="none"
   version="1.1"
   id="svg1"
   xmlns="http://www.w3.org/2000/svg"
   xmlns:svg="http://www.w3.org/2000/svg">
  <defs
     id="defs1" />
  <path
     fill-rule="evenodd"
     clip-rule="evenodd"
     d="M8 10C9.10457 10 10 9.10457 10 8C10 6.89543 9.10457 6 8 6C6.89543 6 6 6.89543 6 8C6 9.10457 6.89543 10 8 10ZM10.9585 7.5C10.7205 6.08114 9.4865 5 8 5C6.5135 5 5.27952 6.08114 5.04148 7.5H0.5C0.223858 7.5 0 7.72386 0 8C0 8.27614 0.223858 8.5 0.5 8.5H5.04148C5.27952 9.91886 6.5135 11 8 11C9.4865 11 10.7205 9.91886 10.9585 8.5H15.5C15.7761 8.5 16 8.27614 16 8C16 7.72386 15.7761 7.5 15.5 7.5H10.9585Z"
     fill="#CED0D6"
     id="path1"
     style="fill:#000000;fill-opacity:1;stroke:none" />
</svg>
