<?xml version="1.0" encoding="UTF-8" standalone="no"?>
<svg
   width="16"
   height="16"
   viewBox="0 0 16 16"
   fill="none"
   version="1.1"
   id="svg1"
   sodipodi:docname="settings-gear.svg"
   inkscape:version="1.4.2 (f4327f4, 2025-05-13)"
   xmlns:inkscape="http://www.inkscape.org/namespaces/inkscape"
   xmlns:sodipodi="http://sodipodi.sourceforge.net/DTD/sodipodi-0.dtd"
   xmlns="http://www.w3.org/2000/svg"
   xmlns:svg="http://www.w3.org/2000/svg">
  <sodipodi:namedview
     id="namedview1"
     pagecolor="#ffffff"
     bordercolor="#000000"
     borderopacity="0.25"
     inkscape:showpageshadow="2"
     inkscape:pageopacity="0.0"
     inkscape:pagecheckerboard="0"
     inkscape:deskcolor="#d1d1d1"
     inkscape:zoom="50.4375"
     inkscape:cx="8"
     inkscape:cy="8"
     inkscape:window-width="1920"
     inkscape:window-height="1009"
     inkscape:window-x="-8"
     inkscape:window-y="-8"
     inkscape:window-maximized="1"
     inkscape:current-layer="svg1" />
  <defs
     id="defs1" />
  <path
     fill-rule="evenodd"
     clip-rule="evenodd"
     d="M 3.22655,4.36961 C 2.92233,4.76924 2.66735,5.20781 2.47037,5.67626 L 3.30992,7.0943 c 0.33068,0.55853 0.33068,1.25288 0,1.8114 l -0.83955,1.418 c 0.19699,0.4685 0.45196,0.9071 0.75619,1.3067 l 1.64605,-0.018 c 0.64904,-0.0071 1.25036,0.34 1.56872,0.9057 L 7.24899,13.953 C 7.49593,13.984 7.74792,14 8.00408,14 8.2602,14 8.51214,13.984 8.75904,13.9531 l 0.80767,-1.435 c 0.31836,-0.5657 0.91969,-0.9128 1.56869,-0.9057 l 1.6462,0.018 c 0.3042,-0.3996 0.5592,-0.8381 0.7561,-1.3065 L 12.6981,8.9057 c -0.3307,-0.55852 -0.3307,-1.25287 0,-1.8114 L 13.5377,5.67613 C 13.3408,5.20773 13.0858,4.76921 12.7816,4.36961 L 11.1354,4.38764 C 10.4864,4.39475 9.88507,4.04758 9.56671,3.48194 L 8.75904,2.04693 C 8.51214,2.01599 8.2602,2 8.00408,2 7.74792,2 7.49594,2.016 7.24899,2.04695 L 6.44133,3.48194 C 6.12297,4.04758 5.52165,4.39475 4.87261,4.38764 Z m 7.42845,3.6304 c 0,1.46411 -1.18689,2.65099 -2.651,2.65099 -1.4641,0 -2.651,-1.18688 -2.651,-2.65099 0,-1.4641 1.1869,-2.65099 2.651,-2.65099 1.46411,0 2.651,1.18689 2.651,2.65099 z M 4.88356,3.3877 C 5.16752,3.39081 5.4306,3.23892 5.56988,2.99146 L 6.43817,1.44875 C 6.54914,1.25159 6.7401,1.1101 6.96387,1.07676 7.30327,1.0262 7.65062,1 8.00408,1 8.3575,1 8.7048,1.02619 9.04414,1.07674 9.26792,1.11007 9.45889,1.25157 9.56986,1.44873 l 0.86834,1.54273 c 0.1392,0.24746 0.4023,0.39935 0.6863,0.39624 l 1.7693,-0.01938 c 0.2258,-0.00247 0.4434,0.0918 0.5843,0.26829 0.4318,0.54105 0.7851,1.14755 1.0426,1.80223 0.0827,0.21026 0.0556,0.44605 -0.0595,0.64047 l -0.9026,1.52445 c -0.1447,0.24435 -0.1447,0.54813 0,0.79249 l 0.9026,1.52444 c 0.1151,0.19441 0.1422,0.43021 0.0595,0.64051 -0.2575,0.6546 -0.6108,1.2611 -1.0426,1.8022 -0.1409,0.1765 -0.3585,0.2708 -0.5843,0.2683 l -1.7693,-0.0194 c -0.284,-0.0031 -0.5471,0.1488 -0.6863,0.3962 L 9.56986,14.5513 C 9.45889,14.7484 9.26792,14.8899 9.04414,14.9233 8.7048,14.9738 8.3575,15 8.00408,15 7.65062,15 7.30327,14.9738 6.96387,14.9232 6.7401,14.8899 6.54914,14.7484 6.43817,14.5512 L 5.56988,13.0085 C 5.4306,12.7611 5.16752,12.6092 4.88356,12.6123 L 3.1144,12.6317 C 2.8886,12.6342 2.67096,12.5399 2.5301,12.3634 2.09822,11.8223 1.74489,11.2158 1.48738,10.561 1.40469,10.3508 1.43184,10.115 1.54695,9.92057 L 2.44942,8.39625 c 0.14468,-0.24436 0.14468,-0.54814 0,-0.79249 L 1.54695,6.07944 C 1.43184,5.88502 1.40469,5.64924 1.48738,5.43898 1.74489,4.78425 2.09822,4.1777 2.53009,3.63661 2.67096,3.46012 2.8886,3.36585 3.1144,3.36832 Z M 9.655,8.00001 c 0,0.91182 -0.73918,1.651 -1.651,1.651 -0.91182,0 -1.651,-0.73918 -1.651,-1.651 0,-0.91182 0.73918,-1.65099 1.651,-1.65099 0.91182,0 1.651,0.73917 1.651,1.65099 z"
     fill="#CED0D6"
     id="path1"
     style="fill:#000000;" />
</svg>
