<svg clip-rule="evenodd" fill-rule="evenodd" stroke-linejoin="round" stroke-miterlimit="1.414" version="1.1" viewBox="0 0 500 500" xmlns="http://www.w3.org/2000/svg">
<path d="m46 46v408h408v-408h-408zm310.02 198.17v.00586c3.9124.01226 8.3586.21357 11.703.57617 13.619 1.4734 24.225 7.349 33.248 18.416 4.4934 5.5129 6.0307 7.9253 5.7031 8.957-.21108.66564-3.294 2.874-13.096 9.3809-9.6287 6.3921-12.731 8.3066-13.451 8.3066-.73045 0-2.2517-1.5657-4.4453-4.5723-4.2244-5.7892-8.5373-8.4314-15.205-9.3125-7.1704-.9496-13.602 1.3105-16.752 5.8887-2.6923 3.9112-3.099 10.206-.95899 14.779 2.4792 5.2976 6.9671 8.2262 24.166 15.768 19.836 8.6975 29.888 14.651 37.209 22.039 7.8838 7.9563 11.878 17.143 13.105 30.137.59907 6.3332-.13284 13.84-1.9453 19.943-4.4447 14.961-16.439 25.916-34.02 31.072-4.8597 1.4248-9.3818 2.276-13.855 2.6035-6.8282.50274-16.603.22572-22.486-.63086-14.884-2.1677-31.686-10.829-40.064-20.65-4.1128-4.8205-9.3633-12.754-9.3633-14.15 0-.67351.33372-1.0557 1.6562-1.8965 3.9213-2.4911 26.394-15.338 26.83-15.338.26345 0 1.4373 1.3838 2.6074 3.0742 2.6512 3.8278 9.17 10.407 12.484 12.602 2.7074 1.7928 6.1691 3.2327 10.279 4.2715 2.3539.5868 3.6002.69141 8.7363.69141 5.2475-.00176 6.3243-.0901 8.6719-.72071 6.2096-1.6713 11.057-5.1293 13.111-9.3535.90039-1.8254.91797-2.0533.91797-6.4805v-4.5898l-1.1035-2.1894c-2.6734-5.3067-8.4338-8.9474-26.645-16.836-8.3655-3.6237-18.611-8.733-22.611-11.275-9.1282-5.801-15.455-12.433-19.607-20.551-4.13-8.073-4.7459-11.078-4.7559-23.217-.01017-9.5024-.02592-9.3858 1.9414-15.451 1.785-5.5038 5.439-11.652 9.4727-15.939 8.0511-8.5582 19.813-14.058 32.406-15.152 1.6108-.15244 3.768-.21208 6.1152-.20508zm-108.36 1.877h.00391c24.253.01227 38.156.0962 38.379.23633.42036.2603.47265 2.3708.47265 15.842v15.541l-24.201.08789-24.201.08789v68.713c0 37.793-.07654 68.938-.18164 69.213-.17115.46249-2.0325.49805-17.779.49805h-17.588l-.18164-.71094c-.11745-.39011-.20308-31.536-.20508-69.213l-.00586-68.504-24.201-.08594-24.201-.08789v-15.357c0-12.18.08414-15.442.4082-15.766.333-.34334 12.684-.43187 65.902-.48437 10.261-.01034 19.495-.01477 27.58-.00977z" fill="#0288d1"/>
</svg>
