<svg width="260" height="260" viewBox="0 0 260 260" fill="none" xmlns="http://www.w3.org/2000/svg">
<g opacity="0.3">
<path d="M249.088 30.0122L196.288 4.61224C190.188 1.71224 182.888 2.91224 178.088 7.71224L5.48809 165.112C0.888086 169.312 0.888086 176.612 5.48809 180.912L19.5881 193.712C23.3881 197.212 29.0881 197.412 33.1881 194.312L241.188 36.6122C248.188 31.3122 258.188 36.3122 258.188 45.0122V44.4122C258.188 38.2122 254.588 32.6122 249.088 30.0122Z" fill="#A7A9AC"/>
<path d="M249.088 230.712L196.388 256.112C190.288 259.012 182.988 257.812 178.188 253.012L5.48809 95.6123C0.888086 91.4123 0.888086 84.1123 5.48809 79.8123L19.5881 67.0123C23.3881 63.5123 29.0881 63.3123 33.1881 66.4123L241.088 224.112C248.088 229.412 258.088 224.412 258.088 215.712V216.312C258.188 222.412 254.588 228.012 249.088 230.712Z" fill="#BCBEC0"/>
<path d="M196.387 256.112C190.287 259.012 182.988 257.812 178.188 253.012C184.088 258.912 194.188 254.712 194.188 246.412V14.3122C194.188 5.91224 184.088 1.81224 178.188 7.71224C182.988 2.91224 190.287 1.71224 196.387 4.61224L249.088 30.0122C254.588 32.7122 258.188 38.3122 258.188 44.4122V216.412C258.188 222.512 254.688 228.212 249.088 230.812L196.387 256.112Z" fill="#E6E7E8"/>
<g opacity="0.25">
<path opacity="0.25" d="M183.488 256.612C187.488 258.212 192.088 258.112 196.188 256.112L248.888 230.712C254.388 228.012 257.988 222.412 257.988 216.312V44.3123C257.988 38.2123 254.488 32.5123 248.888 29.9123L196.188 4.61227C190.888 2.01227 184.588 2.61227 179.988 6.01227C179.288 6.51227 178.688 7.01227 178.088 7.61227L77.0876 99.7123L33.1876 66.4123C29.0876 63.3123 23.3876 63.5123 19.5876 67.0123L5.4876 79.8123C0.887601 84.0123 0.787601 91.3123 5.4876 95.6123L43.5876 130.412L5.4876 165.112C0.887601 169.312 0.887601 176.612 5.4876 180.912L19.5876 193.712C23.3876 197.212 29.0876 197.412 33.1876 194.312L77.0876 161.012L177.988 253.012C179.588 254.612 181.488 255.812 183.488 256.612ZM193.988 72.2123L117.388 130.312L193.988 188.412V72.2123Z" fill="url(#paint0_linear)"/>
</g>
</g>
<defs>
<linearGradient id="paint0_linear" x1="129.988" y1="3.01247" x2="129.988" y2="257.693" gradientUnits="userSpaceOnUse">
<stop stop-color="white"/>
<stop offset="1" stop-color="white" stop-opacity="0"/>
</linearGradient>
</defs>
</svg>
