<svg xmlns="http://www.w3.org/2000/svg" width="42" height="40" fill="none" viewBox="0 0 42 40">
    <g opacity="0.05">
        <path fill="black" fill-rule="evenodd" d="M30.2354 39.8836C29.9195 39.8862 29.6057 39.8287 29.3109 39.7139C28.9896 39.5885 28.6977 39.3979 28.4539 39.1539L12.6999 24.7799L9.23917 27.4037L5.83434 29.986C5.70454 30.0845 5.56201 30.1626 5.41164 30.2189C5.20259 30.2976 4.9783 30.3339 4.7519 30.3239C4.36361 30.3068 3.99356 30.1543 3.70588 29.8929L1.50588 27.8929C1.33452 27.7368 1.19763 27.5466 1.10396 27.3346C1.01029 27.1225 0.961914 26.8933 0.961914 26.6614C0.961914 26.4296 1.01029 26.2004 1.10396 25.9883C1.19763 25.7762 1.33452 25.5861 1.50588 25.4299L7.45788 19.9999L4.67072 17.4532L1.50734 14.5689C1.33584 14.4129 1.19883 14.2227 1.10507 14.0107C1.01132 13.7986 0.962891 13.5693 0.962891 13.3374C0.962891 13.1056 1.01132 12.8763 1.10507 12.6642C1.19883 12.4521 1.33584 12.262 1.50734 12.1059L3.70734 10.1059C3.72926 10.086 3.75165 10.0667 3.7745 10.048C4.05213 9.82027 4.39666 9.68789 4.7569 9.67196C5.14519 9.65479 5.52725 9.77401 5.83688 10.0089L12.6999 15.2179L28.4519 0.843942C28.5452 0.751682 28.6455 0.666763 28.7519 0.589942C29.1153 0.325601 29.5436 0.164633 29.9911 0.124137C30.0919 0.11502 30.1928 0.112086 30.2933 0.115234C30.6444 0.123748 30.9918 0.206443 31.3117 0.360027L39.5477 4.32103C39.9716 4.52522 40.3292 4.84487 40.5795 5.24325C40.7787 5.56023 40.9035 5.9168 40.9462 6.28629C40.9574 6.38148 40.9632 6.47754 40.9633 6.57401V6.67295C40.9633 6.65781 40.9631 6.64268 40.9627 6.62757V33.3704C40.9631 33.3552 40.9633 33.3401 40.9633 33.3249V33.4199C40.9633 33.5146 40.9579 33.609 40.9472 33.7025C40.9055 34.0754 40.7802 34.4355 40.5793 34.7552C40.329 35.1534 39.9714 35.4729 39.5477 35.677L31.3117 39.638C31.0191 39.7785 30.7037 39.8596 30.3833 39.879C30.3341 39.882 30.2848 39.8835 30.2354 39.8836ZM30.9509 10.9369L19.0028 19.9987L30.9549 29.0639L30.9509 10.9369Z" clip-rule="evenodd"/>
    </g>
</svg>