<svg width="260" height="260" viewBox="0 0 260 260" fill="none" xmlns="http://www.w3.org/2000/svg">
<path d="M259.955 41.2275C259.345 35.6403 255.993 30.7643 250.812 28.3262L197.277 2.62535C195.652 1.81268 193.823 1.30475 192.096 1.10158C191.995 1.10158 191.995 1.10158 191.893 1.10158C191.588 1.10158 191.385 1.10158 191.081 1C190.776 1 190.573 1 190.268 1C190.166 1 190.065 1 189.963 1C187.322 1.10158 184.681 1.81268 182.344 3.03169C181.328 3.6412 180.313 4.35229 179.398 5.16497C179.195 5.36814 178.992 5.46972 178.789 5.67289C178.89 5.5713 178.992 5.46972 179.094 5.46972C178.992 5.5713 178.89 5.67289 178.789 5.67289L76.1884 99.2323L31.6944 65.4046C29.6627 63.8808 27.1231 63.0682 24.685 63.1697C22.247 63.2713 19.809 64.1856 17.8789 66.0141L3.55546 79.0169C1.3206 81.0486 0.203169 83.6898 0 86.4326C0 86.8389 0 87.1437 0 87.55C0.101585 90.2928 1.3206 93.0356 3.55546 94.9657L42.2592 130.317L3.55546 165.669C1.3206 167.7 0.203169 170.341 0 173.084C0 173.491 0 173.795 0 174.202C0.101585 176.944 1.3206 179.687 3.55546 181.617L17.8789 194.62C20.0122 196.55 22.8565 197.566 25.5993 197.465C27.7326 197.363 29.8659 196.652 31.6944 195.23L76.29 161.3L178.89 254.86C179.094 255.063 179.297 255.266 179.5 255.368C180.313 256.079 181.125 256.688 182.039 257.298C184.376 258.72 187.017 259.431 189.658 259.533C189.963 259.533 190.268 259.533 190.471 259.533C190.573 259.533 190.776 259.533 190.877 259.533C193.011 259.431 195.144 258.923 197.176 257.907L250.711 232.105C255.79 229.667 259.244 224.791 259.853 219.204C259.955 218.594 259.955 218.086 259.955 217.477V42.7512C260.056 42.4465 259.955 41.837 259.955 41.2275ZM195.144 189.338L195.042 189.236V189.338L117.33 130.317L195.042 71.2965V71.3981L195.144 71.2965V189.338Z" fill="black" fill-opacity="0.1"/>
</svg>
