<svg width="260" height="260" viewBox="0 0 260 260" fill="none" xmlns="http://www.w3.org/2000/svg">
<g opacity="0.3">
<mask id="mask0" mask-type="alpha" maskUnits="userSpaceOnUse" x="2" y="2" width="256" height="256">
<path fill-rule="evenodd" clip-rule="evenodd" d="M183.534 256.252C187.566 257.823 192.164 257.722 196.234 255.764L248.94 230.403C254.478 227.738 258 222.132 258 215.983V44.0181C258 37.8689 254.478 32.2638 248.94 29.5988L196.234 4.23681C190.893 1.66687 184.642 2.29634 179.955 5.70418C179.285 6.191 178.647 6.73454 178.049 7.33354L77.149 99.3862L33.1992 66.0247C29.1079 62.9191 23.3853 63.1735 19.5855 66.63L5.48936 79.4525C0.841466 83.6805 0.836139 90.9926 5.47785 95.2274L43.5926 130L5.47785 164.773C0.836139 169.008 0.841466 176.32 5.48936 180.548L19.5855 193.37C23.3853 196.827 29.1079 197.081 33.1992 193.976L77.149 160.614L178.049 252.667C179.645 254.264 181.519 255.467 183.534 256.252ZM194.039 71.8853L117.479 130L194.039 188.115V71.8853Z" fill="white"/>
</mask>
<g mask="url(#mask0)">
<path d="M248.94 29.6382L196.193 4.24135C190.088 1.30167 182.791 2.54169 177.999 7.33329L5.32371 164.773C0.679177 169.008 0.684518 176.32 5.33523 180.548L19.4399 193.37C23.2421 196.827 28.9682 197.081 33.0619 193.976L241.003 36.2269C247.979 30.9346 257.999 35.9103 257.999 44.6666V44.0543C257.999 37.9078 254.478 32.3047 248.94 29.6382Z" fill="#0F0F0F"/>
<path d="M248.94 230.362L196.193 255.759C190.088 258.698 182.791 257.458 177.999 252.667L5.32371 95.2272C0.679177 90.9924 0.684518 83.6802 5.33523 79.4523L19.4399 66.6298C23.2421 63.1733 28.9682 62.9188 33.0619 66.0244L241.003 223.773C247.979 229.065 257.999 224.09 257.999 215.333V215.946C257.999 222.092 254.478 227.695 248.94 230.362Z" fill="#121212"/>
<path d="M196.196 255.763C190.089 258.7 182.792 257.459 178 252.667C183.904 258.571 194 254.389 194 246.039V13.9606C194 5.61053 183.904 1.42879 178 7.33318C182.792 2.54114 190.089 1.29936 196.196 4.23645L248.934 29.5984C254.476 32.2635 258 37.8686 258 44.0177V215.983C258 222.132 254.476 227.737 248.934 230.402L196.196 255.763Z" fill="#2B2B2B"/>
<g style="mix-blend-mode:overlay" opacity="0.25">
<path fill-rule="evenodd" clip-rule="evenodd" d="M183.378 256.252C187.41 257.822 192.008 257.722 196.077 255.764L248.783 230.402C254.322 227.737 257.844 222.132 257.844 215.983V44.0179C257.844 37.8687 254.322 32.2636 248.784 29.5986L196.077 4.23663C190.737 1.66669 184.486 2.29616 179.798 5.704C179.129 6.19081 178.491 6.73435 177.892 7.33335L76.9927 99.386L33.0429 66.0245C28.9517 62.9189 23.229 63.1734 19.4292 66.6298L5.33311 79.4523C0.685216 83.6803 0.679889 90.9925 5.3216 95.2272L43.4364 130L5.3216 164.773C0.679889 169.008 0.685216 176.32 5.33311 180.548L19.4292 193.37C23.229 196.827 28.9517 197.081 33.0429 193.976L76.9927 160.614L177.892 252.667C179.488 254.264 181.363 255.467 183.378 256.252ZM193.883 71.8851L117.323 130L193.883 188.115V71.8851Z" fill="url(#paint0_linear)" fill-opacity="0.2"/>
</g>
</g>
</g>
<defs>
<linearGradient id="paint0_linear" x1="129.844" y1="2.65997" x2="129.844" y2="257.34" gradientUnits="userSpaceOnUse">
<stop stop-color="white"/>
<stop offset="1" stop-color="white" stop-opacity="0"/>
</linearGradient>
</defs>
</svg>
