<svg xmlns="http://www.w3.org/2000/svg" width="16" height="16"><path fill="#1E1E1E" d="M4.222 0h-2.222v.479c-.526.648-.557 1.57-.043 2.269l.043.059v3.203l-.4.296-.053.053c-.353.352-.547.822-.547 1.321s.194.967.549 1.32c.134.134.288.236.451.322v6.678h14v-16h-11.778z"/><path fill="#E8E8E8" d="M10.798 7l-1.83-2h6.032v2h-4.202zm-2.292-6h-3.207l1.337 1.52 1.87-1.52zm-5.506 8.531v1.469h12v-2h-10.813l-.024.021c-.3.299-.716.479-1.163.51zm0 5.469h12v-2h-12v2zm3.323-8h.631l-.347-.266-.284.266zm8.677-4v-2h-3.289l-1.743 2h5.032z"/><path fill="#F48771" d="M7.246 4.6l2.856-3.277-.405-.002-3.176 2.581-2.607-2.962c-.336-.221-.786-.2-1.082.096-.308.306-.319.779-.069 1.12l2.83 2.444-3.339 2.466c-.339.338-.339.887 0 1.225.339.337.888.337 1.226 0l3.063-2.867 3.33 2.555h.466l-3.093-3.379z"/></svg>