<svg width="16" height="16" viewBox="0 0 16 16" fill="none" xmlns="http://www.w3.org/2000/svg">
<path d="M8.15673 3C8.7435 3 9.47904 2.60331 9.91706 2.07438C10.3137 1.59504 10.603 0.92562 10.603 0.256199C10.603 0.165289 10.5947 0.0743802 10.5782 0C9.92532 0.0247934 9.1402 0.438017 8.66912 0.991736C8.29722 1.41322 7.95838 2.07438 7.95838 2.75207C7.95838 2.85124 7.97491 2.95041 7.98317 2.98347C8.0245 2.99174 8.09061 3 8.15673 3ZM6.09061 13C6.89226 13 7.24764 12.4628 8.24764 12.4628C9.26417 12.4628 9.48731 12.9835 10.3798 12.9835C11.2559 12.9835 11.8427 12.1736 12.3964 11.3802C13.0162 10.4711 13.2724 9.57851 13.2889 9.53719C13.2311 9.52066 11.5534 8.83471 11.5534 6.90909C11.5534 5.23967 12.8757 4.4876 12.9501 4.42975C12.0741 3.17355 10.7435 3.1405 10.3798 3.1405C9.3964 3.1405 8.59474 3.73554 8.09061 3.73554C7.54516 3.73554 6.82615 3.17355 5.97491 3.17355C4.35507 3.17355 2.71045 4.5124 2.71045 7.04132C2.71045 8.61157 3.32202 10.2727 4.07408 11.3471C4.71871 12.2562 5.28069 13 6.09061 13Z" fill="white"/>
</svg>
