<svg width="16" height="16" viewBox="0 0 16 16" fill="none" xmlns="http://www.w3.org/2000/svg">
<path d="M8.19299 3.69231C8.91408 3.69231 9.818 3.20407 10.3563 2.55308C10.8437 1.96313 11.1993 1.13922 11.1993 0.315322C11.1993 0.203433 11.1891 0.0915449 11.1688 0C10.3664 0.030515 9.40159 0.539098 8.82268 1.2206C8.36564 1.73935 7.94924 2.55308 7.94924 3.38716C7.94924 3.50922 7.96955 3.63127 7.9797 3.67196C8.0305 3.68214 8.11174 3.69231 8.19299 3.69231ZM5.65392 16C6.63907 16 7.0758 15.3388 8.30472 15.3388C9.55394 15.3388 9.82816 15.9797 10.925 15.9797C12.0016 15.9797 12.7227 14.9829 13.4032 14.0064C14.1649 12.8875 14.4797 11.7889 14.5 11.7381C14.429 11.7177 12.3672 10.8735 12.3672 8.5035C12.3672 6.44883 13.9922 5.5232 14.0836 5.452C13.0071 3.90591 11.3719 3.86523 10.925 3.86523C9.71644 3.86523 8.73127 4.59759 8.11174 4.59759C7.44143 4.59759 6.55783 3.90591 5.51173 3.90591C3.52109 3.90591 1.5 5.55372 1.5 8.66624C1.5 10.5989 2.25157 12.6433 3.17578 13.9657C3.96797 15.0846 4.6586 16 5.65392 16Z" fill="black"/>
</svg>
