<svg width="16" height="16" viewBox="0 0 16 16" fill="none" xmlns="http://www.w3.org/2000/svg">
<path d="M8.15661 3C8.74338 3 9.47892 2.60331 9.91694 2.07438C10.3136 1.59504 10.6029 0.92562 10.6029 0.256199C10.6029 0.165289 10.5946 0.0743802 10.5781 0C9.9252 0.0247934 9.14008 0.438017 8.669 0.991736C8.2971 1.41322 7.95826 2.07438 7.95826 2.75207C7.95826 2.85124 7.97479 2.95041 7.98305 2.98347C8.02438 2.99174 8.09049 3 8.15661 3ZM6.09049 13C6.89214 13 7.24752 12.4628 8.24752 12.4628C9.26405 12.4628 9.48719 12.9835 10.3797 12.9835C11.2558 12.9835 11.8426 12.1736 12.3963 11.3802C13.0161 10.4711 13.2723 9.57851 13.2888 9.53719C13.231 9.52066 11.5533 8.83471 11.5533 6.90909C11.5533 5.23967 12.8756 4.4876 12.95 4.42975C12.074 3.17355 10.7434 3.1405 10.3797 3.1405C9.39628 3.1405 8.59462 3.73554 8.09049 3.73554C7.54504 3.73554 6.82603 3.17355 5.97479 3.17355C4.35495 3.17355 2.71033 4.5124 2.71033 7.04132C2.71033 8.61157 3.3219 10.2727 4.07396 11.3471C4.71859 12.2562 5.28057 13 6.09049 13Z" fill="black"/>
</svg>
