<svg width="16" height="16" viewBox="0 0 16 16" fill="none" xmlns="http://www.w3.org/2000/svg">
<path d="M8 0C10.1563 1.22707e-05 11.967 0.793114 13.3525 2.08398L11.0576 4.37793C10.2286 3.58545 9.17429 3.18165 8 3.18164C5.91632 3.18164 4.15256 4.58959 3.52344 6.48047L3.41699 6.8457C3.32391 7.21717 3.27246 7.60448 3.27246 8C3.27246 8.52711 3.36354 9.03967 3.52344 9.51953V9.52051C4.15267 11.4112 5.91647 12.8184 8 12.8184C9.07626 12.8184 9.99268 12.5346 10.709 12.0547L10.8643 11.9453C11.6252 11.3811 12.1318 10.5773 12.3057 9.63965H8V6.5459H15.5342C15.6286 7.0694 15.6797 7.61457 15.6797 8.18164C15.6797 10.6178 14.8074 12.6688 13.2949 14.0615H13.2939C11.9704 15.2833 10.16 16 8 16C4.97035 16 2.33693 14.3173 0.978516 11.835L0.850586 11.5928L0.65918 11.1816C0.236933 10.2065 0 9.12972 0 8C1.14184e-06 6.70915 0.308848 5.48721 0.850586 4.40723C2.16699 1.79267 4.87272 0 8 0Z" fill="black"/>
</svg>
