<svg width="50" height="50" viewBox="0 0 50 50" fill="none" xmlns="http://www.w3.org/2000/svg">
<path d="M33 25C33 29.4 29.4 33 25 33C20.6 33 17 29.4 17 25C17 20.6 20.6 17 25 17C29.4 17 33 20.6 33 25ZM25 29C27.4 29 29 27.4 29 25C29 22.6 27.4 21 25 21C22.6 21 21 22.6 21 25C21 27.4 22.6 29 25 29Z" fill="rgba(228, 228, 228, 0.55)"/>
<path d="M26.3223 50.0012H23.6789L17.4613 43.5974H8.26527L6.29203 41.7359V32.726L0 26.3223V23.6789L6.29203 17.2752V8.22804L8.26527 6.36649H17.4613L23.6789 0H26.3223L32.726 6.36649H41.7731L43.6347 8.19081V17.2752L50.0012 23.6789V26.3223L43.523 32.726V41.7359L41.6614 43.5974H32.726L26.3223 50.0012ZM10.0151 39.8743H18.057L19.3973 40.3956L24.9075 46.0547L30.5294 40.4328L31.9442 39.8743H39.7999V31.9442L40.3211 30.6411L46.0919 24.982L40.4328 19.3601L39.7999 18.057V10.0896H31.9442L30.6411 9.56835L24.9075 3.94648L19.3973 9.56835L18.057 10.0896H10.0151V18.057L9.45666 19.3601L3.94648 24.982L9.56835 30.6411L10.0151 31.9442V39.8743Z" fill="rgba(228, 228, 228, 0.55)"/>
</svg>
