<svg width="24" height="24" viewBox="0 0 24 24" fill="none" xmlns="http://www.w3.org/2000/svg">
<path d="M6 12C6 12.2967 5.91203 12.5867 5.74721 12.8334C5.58238 13.08 5.34812 13.2723 5.07403 13.3858C4.79994 13.4994 4.49834 13.5291 4.20737 13.4712C3.91639 13.4133 3.64912 13.2704 3.43934 13.0607C3.22956 12.8509 3.0867 12.5836 3.02882 12.2926C2.97094 12.0017 3.00065 11.7001 3.11418 11.426C3.22771 11.1519 3.41997 10.9176 3.66665 10.7528C3.91332 10.588 4.20333 10.5 4.5 10.5C4.89783 10.5 5.27936 10.658 5.56066 10.9393C5.84197 11.2206 6 11.6022 6 12Z" fill="white"/>
<path d="M13.5 12C13.5 12.2967 13.412 12.5867 13.2472 12.8334C13.0824 13.08 12.8481 13.2723 12.574 13.3858C12.2999 13.4994 11.9983 13.5291 11.7074 13.4712C11.4164 13.4133 11.1491 13.2704 10.9393 13.0607C10.7296 12.8509 10.5867 12.5836 10.5288 12.2926C10.4709 12.0017 10.5006 11.7001 10.6142 11.426C10.7277 11.1519 10.92 10.9176 11.1666 10.7528C11.4133 10.588 11.7033 10.5 12 10.5C12.3978 10.5 12.7794 10.658 13.0607 10.9393C13.342 11.2206 13.5 11.6022 13.5 12Z" fill="white"/>
<path d="M21 12C21 12.2967 20.912 12.5867 20.7472 12.8334C20.5824 13.08 20.3481 13.2723 20.074 13.3858C19.7999 13.4994 19.4983 13.5291 19.2074 13.4712C18.9164 13.4133 18.6491 13.2704 18.4393 13.0607C18.2296 12.8509 18.0867 12.5836 18.0288 12.2926C17.9709 12.0017 18.0006 11.7001 18.1142 11.426C18.2277 11.1519 18.42 10.9176 18.6666 10.7528C18.9133 10.588 19.2033 10.5 19.5 10.5C19.8978 10.5 20.2794 10.658 20.5607 10.9393C20.842 11.2206 21 11.6022 21 12Z" fill="white"/>
</svg>
