<svg fill="none" height="28" viewBox="0 0 28 28" width="28" xmlns="http://www.w3.org/2000/svg"><path d="m7.53846 13.7692c0 .5477-.16241 1.0831-.4667 1.5385-.30428.4554-.73678.8104-1.24279 1.02s-1.06281.2644-1.59999.1576c-.53718-.1069-1.03061-.3706-1.41789-.7579s-.65103-.8807-.75788-1.4179-.05201-1.094.15759-1.6c.20959-.506.56453-.9385 1.01993-1.2428s.9908-.4667 1.5385-.4667c.73445 0 1.43881.2918 1.95814.8111.51934.5193.81109 1.2237.81109 1.9581zm6.46154-2.7692c-.5477 0-1.0831.1624-1.5385.4667s-.8103.7368-1.0199 1.2428-.2645 1.0628-.1576 1.6c.1068.5372.3706 1.0306.7579 1.4179.3872.3873.8807.651 1.4179.7579.5371.1068 1.0939.052 1.5999-.1576s.9385-.5646 1.2428-1.02.4667-.9908.4667-1.5385c0-.7344-.2917-1.4388-.8111-1.9581-.5193-.5193-1.2237-.8111-1.9581-.8111zm9.2308 0c-.5477 0-1.0831.1624-1.5385.4667s-.8104.7368-1.02 1.2428-.2644 1.0628-.1576 1.6c.1069.5372.3706 1.0306.7579 1.4179s.8807.651 1.4179.7579c.5372.1068 1.094.052 1.6-.1576s.9385-.5646 1.2428-1.02.4667-.9908.4667-1.5385c0-.7344-.2918-1.4388-.8111-1.9581s-1.2237-.8111-1.9581-.8111z" fill="#fff"/></svg>