<svg width="24" height="24" viewBox="0 0 24 24" fill="none" xmlns="http://www.w3.org/2000/svg">
<path fill-rule="evenodd" clip-rule="evenodd" d="M14.3456 0L15.2003 4.27366L18.8266 1.85612L22.1438 5.17332L19.7263 8.79966L24 9.6544V14.3456L19.7263 15.2004L22.1439 18.8267L18.8267 22.1439L15.2003 19.7263L14.3456 24H9.65436L8.79963 19.7264L5.17333 22.1439L1.85613 18.8267L4.27367 15.2004L0 14.3456V9.6544L4.27366 8.79966L1.85612 5.17335L5.17332 1.85614L8.79964 4.27369L9.65436 3.56734e-05L14.3456 0ZM10.8841 1.50003L10.0608 5.61666L8.8575 6.11504L5.36445 3.78634L3.78631 5.36448L6.11502 8.85754L5.6166 10.0608L1.5 10.8841V13.1159L5.6166 13.9392L6.11503 15.1425L3.78632 18.6356L5.36446 20.2137L8.85752 17.885L10.0607 18.3834L10.8841 22.5H13.1159L13.9392 18.3834L15.1425 17.885L18.6355 20.2137L20.2137 18.6355L17.885 15.1425L18.3834 13.9392L22.5 13.1159V10.8841L18.3834 10.0608L17.885 8.85751L20.2137 5.36445L18.6355 3.78631L15.1425 6.11501L13.9392 5.61664L13.1159 1.50001L10.8841 1.50003ZM12 8.42311C10.0245 8.42311 8.42306 10.0245 8.42306 12C8.42306 13.9755 10.0245 15.5769 12 15.5769C13.9755 15.5769 15.5769 13.9755 15.5769 12C15.5769 10.0245 13.9755 8.42311 12 8.42311ZM6.92306 12C6.92306 9.19612 9.19607 6.92311 12 6.92311C14.8039 6.92311 17.0769 9.19612 17.0769 12C17.0769 14.8039 14.8039 17.0769 12 17.0769C9.19607 17.0769 6.92306 14.8039 6.92306 12Z" fill="#F4F4F4"/>
</svg>
