<svg width="24" height="24" viewBox="0 0 24 24" fill="none" xmlns="http://www.w3.org/2000/svg">
<path fill-rule="evenodd" clip-rule="evenodd" d="M14.4198 0L15.2504 4.15289L18.7742 1.80367L22.1963 5.22578L19.8471 8.74964L24 9.58022V14.4198L19.8471 15.2504L22.1963 18.7742L18.7742 22.1963L15.2504 19.8471L14.4198 24H9.5802L8.74962 19.8471L5.22579 22.1963L1.80368 18.7742L4.15291 15.2504L0 14.4198V9.58022L4.1529 8.74964L1.80367 5.2258L5.22578 1.80369L8.74963 4.15292L9.5802 3.68124e-05L14.4198 0ZM18.2347 10.184L17.6927 8.87549L19.9795 5.44529L18.5547 4.02052L15.1245 6.30732L13.816 5.76534L13.0075 1.72278L10.9925 1.7228L10.184 5.76536L8.87549 6.30734L5.4453 4.02055L4.02053 5.44531L6.30734 8.87553L5.7653 10.184L1.72277 10.9926V13.0075L5.7653 13.816L6.30735 15.1245L4.02053 18.5547L5.4453 19.9795L8.87551 17.6927L10.184 18.2347L10.9925 22.2772H13.0075L13.816 18.2347L15.1245 17.6927L18.5547 19.9795L19.9795 18.5547L17.6927 15.1245L18.2347 13.816L22.2772 13.0075V10.9926L18.2347 10.184ZM13.7143 12C13.7143 12.9468 12.9468 13.7143 12 13.7143C11.0532 13.7143 10.2857 12.9468 10.2857 12C10.2857 11.0532 11.0532 10.2857 12 10.2857C12.9468 10.2857 13.7143 11.0532 13.7143 12ZM15.4286 12C15.4286 13.8935 13.8935 15.4286 12 15.4286C10.1065 15.4286 8.57143 13.8935 8.57143 12C8.57143 10.1065 10.1065 8.57143 12 8.57143C13.8935 8.57143 15.4286 10.1065 15.4286 12Z" fill="#F4F4F4"/>
</svg>
