<svg xmlns="http://www.w3.org/2000/svg" width="16" height="16"><g fill="#424242"><path d="M12.714 9.603c-.07.207-.15.407-.246.601l1.017 2.139c-.335.424-.718.807-1.142 1.143l-2.14-1.018c-.193.097-.394.176-.601.247l-.795 2.235c-.265.03-.534.05-.807.05-.272 0-.541-.02-.806-.05l-.795-2.235c-.207-.071-.408-.15-.602-.247l-2.14 1.017c-.424-.336-.807-.719-1.143-1.143l1.017-2.139c-.094-.193-.175-.393-.245-.6l-2.236-.796c-.03-.265-.05-.534-.05-.807s.02-.542.05-.807l2.236-.795c.07-.207.15-.407.246-.601l-1.016-2.139c.336-.423.719-.807 1.143-1.142l2.14 1.017c.193-.096.394-.176.602-.247l.793-2.236c.265-.03.534-.05.806-.05.273 0 .542.02.808.05l.795 2.236c.207.07.407.15.601.246l2.14-1.017c.424.335.807.719 1.142 1.142l-1.017 2.139c.096.194.176.394.246.601l2.236.795c.029.266.049.535.049.808s-.02.542-.05.807l-2.236.796zm-4.714-4.603c-1.657 0-3 1.343-3 3s1.343 3 3 3 3-1.343 3-3-1.343-3-3-3z"/><circle cx="8" cy="8" r="1.5"/></g></svg>