<svg xmlns="http://www.w3.org/2000/svg" width="16" height="16"><path d="m10.121 1.793c-2.4734 0-4.5 2.0265-4.5 4.5 0 0.5922 0.273 1.0853 0.4825 1.6035l-3.8965 3.8965 2.414 2.414 3.8965-3.896c0.5181 0.209 1.0116 0.482 1.6035 0.482 2.473 0 4.5-2.0266 4.5-4.5 0-2.4735-2.027-4.5-4.5-4.5zm0 3c0.841 0 1.5 0.6592 1.5 1.5 0 0.8403-0.661 1.5-1.5 1.5-0.8394 0-1.5-0.6597-1.5-1.5 0-0.8408 0.6592-1.5 1.5-1.5z" fill="#f6f6f6"/><path d="m8.621 0.29297c-2.4734 0-4.5 2.0265-4.5 4.5 0 0.5922 0.273 1.0853 0.4825 1.6035l-3.8965 3.8965 2.414 2.414 3.8965-3.8965c0.5181 0.2093 1.0116 0.4825 1.6035 0.4825 2.473 0 4.5-2.0266 4.5-4.5 0-2.4735-2.027-4.5-4.5-4.5zm0 3c0.8408 0 1.5 0.6592 1.5 1.5 0 0.8403-0.6605 1.5-1.5 1.5-0.8394 0-1.5-0.6597-1.5-1.5 0-0.8408 0.6592-1.5 1.5-1.5z" fill="#f6f6f6"/><path d="m11.621 3.293c-2.4734 0-4.5 2.0265-4.5 4.5 0 0.5922 0.273 1.0853 0.4825 1.6035l-3.8965 3.8965 2.414 2.414 3.897-3.896c0.518 0.209 1.011 0.482 1.603 0.482 2.473 0 4.5-2.027 4.5-4.5 0-2.4735-2.027-4.5-4.5-4.5zm0 3c0.841 0 1.5 0.6592 1.5 1.5 0 0.8403-0.661 1.5-1.5 1.5s-1.5-0.6597-1.5-1.5c0-0.8408 0.659-1.5 1.5-1.5z" fill="#f6f6f6"/><path fill="#424242" d="m15.12 7.7928c0-1.933-1.567-3.5-3.5-3.5-1.9325 0-3.4995 1.567-3.4995 3.5 0 0.711 0.215 1.369 0.579 1.922l-3.579 3.5782 1 1 3.579-3.578c0.5515 0.363 1.2105 0.578 1.9205 0.578 1.933 0 3.5-1.5672 3.5-3.5002zm-5.9985 0c0-1.381 1.1185-2.5 2.4995-2.5s2.5 1.119 2.5 2.5-1.12 2.5002-2.5 2.5002-2.4995-1.1192-2.4995-2.5002z"/><circle cy="7.7928" cx="11.62" r="2.5" fill="#f0eff1"/><path fill="#424242" d="m13.62 6.2928c0-1.933-1.567-3.5-3.5-3.5-1.9325 0-3.4995 1.567-3.4995 3.5 0 0.711 0.215 1.369 0.579 1.922l-3.579 3.5782 1 1 3.579-3.5782c0.552 0.363 1.211 0.578 1.9205 0.578 1.933 0 3.5-1.567 3.5-3.5zm-5.9985 0c0-1.381 1.119-2.5 2.4995-2.5 1.381 0 2.5 1.119 2.5 2.5s-1.12 2.5-2.5 2.5c-1.3795 0-2.4995-1.119-2.4995-2.5z"/><circle cy="6.2928" cx="10.12" r="2.5" fill="#f0eff1"/><path fill="#424242" d="m12.12 4.7928c0-1.933-1.567-3.5-3.4995-3.5-1.933 0-3.5 1.567-3.5 3.5 0 0.711 0.215 1.369 0.579 1.922l-3.579 3.5782 1 1 3.579-3.5782c0.552 0.363 1.211 0.578 1.921 0.578 1.9325 0 3.4995-1.567 3.4995-3.5zm-5.9985 0c0-1.381 1.119-2.5 2.5-2.5 1.3805 0 2.4995 1.119 2.4995 2.5s-1.12 2.5-2.4995 2.5c-1.38 0-2.5-1.119-2.5-2.5z"/><circle cy="4.7928" cx="8.6205" r="2.5" fill="#f0eff1"/></svg>