<svg xmlns="http://www.w3.org/2000/svg" width="16" height="16"><style type="text/css">.st0{opacity:0;fill:#262626;} .st1{fill:#262626;} .st2{fill:#C5C5C5;}</style><g id="outline"><rect class="st0" width="16" height="16"/><path class="st1" d="M14.176 5.592c-.555-.6-1.336-.904-2.322-.904-.258 0-.521.024-.784.072-.246.044-.479.101-.7.169-.228.07-.432.147-.613.229-.22.099-.389.196-.512.284l-.419.299v2.701c-.086.108-.162.223-.229.344l-2.45-6.354h-2.394l-3.753 9.804v.598h3.025l.838-2.35h2.167l.891 2.35h3.237l-.001-.003c.305.092.633.15.993.15.344 0 .671-.049.978-.146h2.853v-4.903c-.001-.975-.271-1.763-.805-2.34z"/></g><g id="icon_x5F_bg"><path class="st2" d="M7.611 11.834l-.891-2.35h-3.562l-.838 2.35h-1.095l3.217-8.402h1.02l3.24 8.402h-1.091zm-2.531-6.814l-.044-.135-.038-.156-.029-.152-.024-.126h-.023l-.021.126-.032.152-.038.156-.044.135-1.307 3.574h2.918l-1.318-3.574z"/><path class="st2" d="M13.02 11.834v-.938h-.023c-.199.352-.456.62-.771.806s-.673.278-1.075.278c-.313 0-.588-.045-.826-.135s-.438-.212-.598-.366-.281-.338-.363-.551-.124-.442-.124-.688c0-.262.039-.502.117-.721s.198-.412.36-.58.367-.308.615-.419.544-.19.888-.237l1.811-.252c0-.273-.029-.507-.088-.7s-.143-.351-.252-.472-.241-.21-.396-.267-.325-.085-.513-.085c-.363 0-.714.064-1.052.193s-.638.31-.904.54v-.984c.082-.059.196-.121.343-.188s.312-.128.495-.185.378-.104.583-.141.407-.056.606-.056c.699 0 1.229.194 1.588.583s.539.942.539 1.661v3.902h-.96zm-1.454-2.83c-.273.035-.498.085-.674.149s-.313.144-.41.237-.165.205-.202.334-.055.276-.055.44c0 .141.025.271.076.393s.124.227.22.316.215.16.357.211.308.076.495.076c.242 0 .465-.045.668-.135s.378-.214.524-.372.261-.344.343-.557.123-.442.123-.688v-.609l-1.465.205z"/></g></svg>