<svg width="16" height="16" viewBox="0 0 16 16" fill="none" xmlns="http://www.w3.org/2000/svg">
<path d="M8.53437 12.4673H7.4361L6.53859 10.0936H2.94854L2.10418 12.4673H1L4.24757 4H5.27499L8.53437 12.4673ZM6.21383 9.20202L4.88528 5.59426C4.84198 5.47617 4.79868 5.28722 4.75538 5.02741H4.73176C4.69239 5.26754 4.64713 5.45649 4.59595 5.59426L3.27921 9.20202H6.21383Z" fill="#424242"/>
<path d="M9.78617 12.4673V4H12.1953C12.9275 4 13.5081 4.17911 13.9372 4.53733C14.3662 4.89554 14.5808 5.36201 14.5808 5.93674C14.5808 6.41698 14.4509 6.83425 14.1911 7.18853C13.9313 7.54281 13.573 7.79474 13.1164 7.94433V7.96795C13.6872 8.03487 14.1438 8.25137 14.4863 8.61746C14.8288 8.97961 15 9.45199 15 10.0346C15 10.7589 14.7402 11.3454 14.2206 11.7942C13.701 12.2429 13.0456 12.4673 12.2543 12.4673H9.78617ZM10.7782 4.89751V7.63138H11.7938C12.337 7.63138 12.7641 7.50148 13.0751 7.24167C13.3861 6.97793 13.5415 6.6079 13.5415 6.13159C13.5415 5.30887 13.0003 4.89751 11.9178 4.89751H10.7782ZM10.7782 8.52299V11.5698H12.1244C12.707 11.5698 13.1577 11.432 13.4766 11.1565C13.7994 10.8809 13.9608 10.503 13.9608 10.0228C13.9608 9.02292 13.2798 8.52299 11.9178 8.52299H10.7782Z" fill="#424242"/>
</svg>
