<svg xmlns="http://www.w3.org/2000/svg" width="16" height="16"><style type="text/css">.st0{opacity:0;fill:#F6F6F6;} .st1{fill:#F6F6F6;} .st2{fill:#424242;}</style><g id="outline"><rect class="st0" width="16" height="16"/><path class="st1" d="M16 4.022v-3.022h-16.014v3.022h3.046l-3.043 7.945h-.004v.01l.015 1.023h-.014v1.991h16.014v-3.023h-1v-7.946h1zm-5.914 5.301c0 .233-.023.441-.066.595-.047.164-.099.247-.127.284l-.078.069-.151.026-.115-.017-.139-.137c-.031-.078-.112-.332-.112-.566 0-.254.091-.561.126-.656l.069-.141.109-.082.178-.027c.077 0 .117.014.177.056l.087.179.051.237-.009.18zm-3.695-5.301v2.893l-1.116-2.893h1.116zm-3.026 7.02h1.573l.351.926h-2.254l.33-.926zm8.635-4.354c-.206-.2-.431-.38-.695-.512-.396-.198-.853-.298-1.355-.298-.215 0-.423.02-.621.058v-1.914h2.671v2.666z"/></g><g id="icon_x5F_bg"><rect x="13" y="4" class="st2" width="1" height="8"/><path class="st2" d="M11.225 8.387c-.078-.299-.199-.562-.36-.786s-.365-.401-.609-.53-.534-.193-.866-.193c-.198 0-.38.024-.547.073-.165.049-.316.117-.453.205-.136.088-.257.194-.365.318l-.179.258v-3.154h-.893v7.422h.893v-.575l.126.175c.087.102.189.19.304.269.117.078.249.14.398.186.149.046.314.068.498.068.353 0 .666-.071.937-.212.272-.143.499-.338.682-.586.183-.25.321-.543.414-.879.093-.338.14-.703.14-1.097-.001-.342-.04-.663-.12-.962zm-1.479-.607c.151.071.282.176.39.314.109.14.194.313.255.517.051.174.082.371.089.587l-.007.125c0 .327-.033.62-.1.869-.067.246-.161.453-.278.614-.117.162-.26.285-.421.366-.322.162-.76.166-1.069.015-.153-.075-.286-.175-.393-.296-.085-.096-.156-.216-.218-.367 0 0-.179-.447-.179-.947 0-.5.179-1.002.179-1.002.062-.177.136-.318.224-.43.114-.143.256-.259.424-.345.168-.086.365-.129.587-.129.19 0 .364.037.517.109z"/><rect x=".987" y="2" class="st2" width="14.013" height="1.023"/><rect x=".987" y="12.968" class="st2" width="14.013" height="1.023"/><path class="st2" d="M1.991 12.031l.728-2.031h2.219l.778 2.031h1.082l-2.485-7.158h-.941l-2.441 7.086-.025.072h1.085zm1.827-5.609h.022l.914 2.753h-1.841l.905-2.753z"/></g></svg>