<?xml version="1.0" encoding="UTF-8"?>
<svg xmlns="http://www.w3.org/2000/svg" id="logo-final" viewBox="0 0 206.35 206.35">
   <defs>
      <style>.cls-1{fill:#0087be;}.cls-2{fill:#1aa6e4;}.cls-3{fill:#0092cf;}.cls-4{fill:#e8bfd8;}.cls-5{fill:#fff;}</style>
   </defs>
   <title>Gitpod</title>
   <polygon class="cls-1" points="89.35 185.6 17.74 144.58 17.74 61.87 17.77 61.85 0 51.6 0 154.76 0 154.77 89.35 206.35 89.35 206.35 89.35 185.6 89.35 185.6" />
   <polygon class="cls-1" points="89.35 103.18 89.35 103.18 35.77 72.25 35.74 72.27 35.74 134.15 89.35 164.86 89.35 103.19 89.35 103.19 89.35 103.18" />
   <polygon class="cls-2" points="178.71 51.61 89.35 0 0 51.59 0 51.6 17.77 61.85 89.35 20.55 160.98 61.83 178.7 51.61 178.7 51.62 178.71 51.62 178.71 51.61" />
   <polygon class="cls-2" points="142.97 72.23 89.36 41.33 35.77 72.25 89.35 103.18 142.97 72.23" />
   <polygon class="cls-3" points="89.35 103.18 89.35 103.19 89.35 103.19 89.35 103.19 89.35 103.18 89.35 103.18 89.35 103.18" />
   <polygon class="cls-3" points="89.35 103.18 89.35 103.18 89.35 103.18 142.98 72.23 142.97 72.23 89.35 103.18" />
   <polygon class="cls-3" points="160.98 61.83 160.99 61.84 178.7 51.62 178.7 51.61 160.98 61.83" />
   <polygon class="cls-4" points="142.98 72.23 160.99 61.84 160.98 61.83 142.97 72.23 142.98 72.23" />
   <polygon class="cls-3" points="178.7 51.62 160.99 61.84 142.98 72.23 89.35 103.18 89.35 103.18 89.35 103.19 89.35 103.19 89.35 112.41 89.34 112.41 89.34 136.91 89.35 136.91 89.35 164.86 89.35 164.86 143.02 134.14 143.02 113.66 107.01 134.15 107.01 113.44 161.02 82.7 161.02 144.58 89.35 185.6 89.35 206.35 178.7 154.78 178.7 154.78 178.7 154.77 178.7 51.62" />
</svg>