<?xml version="1.0" encoding="UTF-8"?>
<svg fill="none" xmlns="http://www.w3.org/2000/svg" viewBox="0 0 32 32">
	<path fill-rule="evenodd" clip-rule="evenodd"
		d="M17.7479 1.59396C17.9539 1.95446 18.0869 2.35202 18.1392 2.76394C18.1915 3.17585 18.1621 3.59404 18.0527 3.99459C17.9433 4.39514 17.7561 4.7702 17.5016 5.09834C17.2472 5.42648 16.9306 5.70125 16.5699 5.90696L7.1329 11.294C7.01041 11.364 6.90861 11.4651 6.83783 11.5872C6.76706 11.7093 6.72982 11.8479 6.7299 11.989V20.445C6.72982 20.5861 6.76706 20.7247 6.83783 20.8467C6.90861 20.9688 7.01041 21.0699 7.1329 21.14L14.6029 25.404C14.7238 25.4731 14.8606 25.5094 14.9999 25.5094C15.1392 25.5094 15.276 25.4731 15.3969 25.404L22.8669 21.14C22.9894 21.0699 23.0912 20.9688 23.162 20.8467C23.2327 20.7247 23.27 20.5861 23.2699 20.445V15.186L16.5549 18.971C15.8238 19.3831 14.9591 19.4882 14.1506 19.2632C13.3421 19.0382 12.656 18.5015 12.2429 17.771C12.0386 17.4093 11.9077 17.0108 11.8575 16.5984C11.8074 16.1861 11.839 15.7679 11.9507 15.3677C12.0623 14.9676 12.2517 14.5934 12.5081 14.2666C12.7645 13.9397 13.0829 13.6667 13.4449 13.463L23.0519 8.04796C25.9789 6.39796 29.5999 8.51096 29.5999 11.868V21.088C29.5996 22.149 29.3188 23.1911 28.7857 24.1086C28.2527 25.026 27.4865 25.7862 26.5649 26.312L17.9889 31.207C17.0784 31.7266 16.0482 31.9999 14.9999 31.9999C13.9516 31.9999 12.9214 31.7266 12.0109 31.207L3.4349 26.312C2.51312 25.7861 1.74685 25.0258 1.21382 24.1081C0.680795 23.1905 0.399991 22.1482 0.399902 21.087V11.347C0.399991 10.2857 0.680795 9.24342 1.21382 8.32578C1.74685 7.40813 2.51312 6.64781 3.4349 6.12196L13.4299 0.416959C14.1587 0.00106281 15.0228 -0.108584 15.8324 0.112097C16.642 0.332778 17.3309 0.865745 17.7479 1.59396V1.59396Z"
		fill="#FAFAF9" />
</svg>
