<?xml version="1.0" encoding="UTF-8"?>
<svg version="1.1" xmlns="http://www.w3.org/2000/svg" width="128" height="128">
<path d="M0 0 C1.71995861 1.71995861 1.21376491 3.8947192 1.25 6.25 C0.93696667 34.95515648 -7.03065158 68.27717884 -27.0625 89.6875 C-40.62265497 102.6371705 -56.6213078 107.56411516 -75.19433594 107.41601562 C-83.02884784 107.19176171 -90.41547842 105.95729589 -98 104 C-98.05534912 104.62044189 -98.11069824 105.24088379 -98.16772461 105.88012695 C-98.42060348 108.69126637 -98.67898834 111.50187322 -98.9375 114.3125 C-99.02451172 115.28896484 -99.11152344 116.26542969 -99.20117188 117.27148438 C-99.28818359 118.20927734 -99.37519531 119.14707031 -99.46484375 120.11328125 C-99.543396 120.97735596 -99.62194824 121.84143066 -99.70288086 122.73168945 C-100 125 -100 125 -101 128 C-102.66611905 128.042721 -104.33382885 128.04063832 -106 128 C-107 127 -107 127 -107.25 123.5 C-107.23466433 118.70760424 -106.31186531 114.23762153 -105.375 109.5625 C-104.05613226 102.8172242 -103.98634105 97.65272134 -106 91 C-109.57998122 72.38409765 -105.41108128 53.93289955 -95.4375 38 C-80.74536681 16.99162263 -59.29179781 5.7719285 -34.42456055 1.07617188 C-23.20251619 -0.72908216 -11.32733501 -0.92522734 0 0 Z " fill="#6BC28E" transform="translate(117,0)"/>
<path d="M0 0 C1.71995861 1.71995861 1.21376491 3.8947192 1.25 6.25 C0.93696667 34.95515648 -7.03065158 68.27717884 -27.0625 89.6875 C-40.62265497 102.6371705 -56.6213078 107.56411516 -75.19433594 107.41601562 C-83.02884784 107.19176171 -90.41547842 105.95729589 -98 104 C-98.05534912 104.62044189 -98.11069824 105.24088379 -98.16772461 105.88012695 C-98.42060348 108.69126637 -98.67898834 111.50187322 -98.9375 114.3125 C-99.02451172 115.28896484 -99.11152344 116.26542969 -99.20117188 117.27148438 C-99.28818359 118.20927734 -99.37519531 119.14707031 -99.46484375 120.11328125 C-99.543396 120.97735596 -99.62194824 121.84143066 -99.70288086 122.73168945 C-100 125 -100 125 -101 128 C-102.66611905 128.042721 -104.33382885 128.04063832 -106 128 C-107 127 -107 127 -107.25 123.5 C-107.23466433 118.70760424 -106.31186531 114.23762153 -105.375 109.5625 C-104.05613226 102.8172242 -103.98634105 97.65272134 -106 91 C-109.57998122 72.38409765 -105.41108128 53.93289955 -95.4375 38 C-80.74536681 16.99162263 -59.29179781 5.7719285 -34.42456055 1.07617188 C-23.20251619 -0.72908216 -11.32733501 -0.92522734 0 0 Z M-84.3125 33.3125 C-97.61461688 48.64302956 -102.3581967 66.01839425 -101 86 C-100.10974533 88.36326221 -100.10974533 88.36326221 -99 90 C-98.3709375 88.96101563 -97.741875 87.92203125 -97.09375 86.8515625 C-92.18811905 78.8252178 -87.24905026 71.07028068 -81 64 C-80.42378906 63.34128906 -79.84757812 62.68257812 -79.25390625 62.00390625 C-69.38300301 51.45371504 -56.64617356 43.7520399 -44 37 C-42.73929688 36.31744141 -42.73929688 36.31744141 -41.453125 35.62109375 C-38.45501177 34.05091401 -36.4313534 33 -33 33 C-32.505 34.98 -32.505 34.98 -32 37 C-33.52367188 37.38285156 -33.52367188 37.38285156 -35.078125 37.7734375 C-49.78630442 41.99372416 -63.12837174 53.74708229 -74 64 C-74.76183594 64.68578125 -75.52367188 65.3715625 -76.30859375 66.078125 C-84.86523662 74.086075 -92.26444601 84.81946078 -96 96 C-96 96.66 -96 97.32 -96 98 C-79.73093116 102.9803272 -61.46374221 102.94428933 -45.875 95.8125 C-26.56020254 85.41222444 -17.268067 67.26239714 -11 47 C-6.98742752 33.09781999 -4.57231812 19.51742387 -5 5 C-34.70188057 4.24165411 -63.27715662 11.32961863 -84.3125 33.3125 Z " fill="#423F50" transform="translate(117,0)"/>
<path d="M0 0 C1 2 1 2 0.49023438 3.98022461 C-0.49354238 6.63819007 -1.48056379 9.29294123 -2.5 11.9375 C-2.86802734 12.89301758 -3.23605469 13.84853516 -3.61523438 14.83300781 C-6.36653025 21.78227923 -9.40600166 28.06141679 -14 34 C-14.59167969 34.78246094 -15.18335937 35.56492188 -15.79296875 36.37109375 C-24.73307892 47.30199134 -37.09129509 53.88172023 -51 56 C-54.02183805 56.16591214 -57.03654638 56.19018708 -60.0625 56.1875 C-60.90288818 56.18741943 -61.74327637 56.18733887 -62.60913086 56.18725586 C-77.9040305 56.04798475 -77.9040305 56.04798475 -84 53 C-81.74723518 44.69292973 -77.64757417 38.14247147 -73 31 C-71.824375 31.495 -70.64875 31.99 -69.4375 32.5 C-55.38966745 37.12389473 -38.95573398 33.3725088 -25.8125 27.5 C-14.16533432 21.28817831 -6.60354658 11.14348485 0 0 Z " fill="#45A085" transform="translate(105,45)"/>
<path d="M0 0 C0.33 0 0.66 0 1 0 C1.37125 1.794375 1.37125 1.794375 1.75 3.625 C3.12701889 9.14284167 5.95766062 13.07282699 10 17 C9.54109375 17.64066406 9.0821875 18.28132813 8.609375 18.94140625 C5.1323166 23.84288983 1.86988604 28.71940969 -1 34 C-6.11295618 25.88419653 -2.96805167 11.79158849 -1 3 C-0.67 2.01 -0.34 1.02 0 0 Z " fill="#459D83" transform="translate(19,56)"/>
</svg>
