<svg width="15" height="15" viewBox="0 0 15 15" fill="none" xmlns="http://www.w3.org/2000/svg">
<g filter="url(#filter0_di_5_23)">
<path d="M8.05722 2.10089C8.16638 2.10089 8.27262 2.06881 8.36304 2.00839C8.45386 1.94798 8.52428 1.86173 8.56594 1.76131C8.60761 1.66048 8.61844 1.55007 8.59719 1.44299C8.57594 1.33632 8.52344 1.23841 8.44678 1.16132C8.3697 1.08424 8.27137 1.03174 8.16471 1.01049C8.05805 0.989245 7.94722 1.00049 7.84681 1.04216C7.74598 1.08383 7.66015 1.15424 7.59974 1.24466C7.53933 1.33507 7.50683 1.44174 7.50683 1.55048C7.50683 1.62298 7.52099 1.69465 7.54849 1.76131C7.57641 1.82798 7.61682 1.88881 7.66807 1.94006C7.7189 1.99131 7.77973 2.03172 7.84681 2.05922C7.91347 2.08714 7.98514 2.10131 8.05722 2.10089Z" fill="#E0D5FF"/>
<path d="M4.01159 3.45628C4.08867 3.37961 4.14117 3.28128 4.16242 3.17462C4.18366 3.06795 4.17242 2.95712 4.13075 2.85671C4.08909 2.75588 4.01867 2.67005 3.92826 2.60963C3.83785 2.54921 3.73119 2.51671 3.62244 2.51671C3.5137 2.51671 3.40704 2.54921 3.31663 2.60963C3.22621 2.67005 3.15538 2.75588 3.11372 2.85671C3.07205 2.95712 3.06122 3.06795 3.08247 3.17462C3.10372 3.28128 3.15622 3.37961 3.2333 3.45628C3.28413 3.50753 3.34496 3.54836 3.41162 3.57586C3.4787 3.60336 3.54995 3.61794 3.62244 3.61794C3.69452 3.61794 3.76619 3.60336 3.83327 3.57586C3.89993 3.54836 3.96076 3.50753 4.01159 3.45628Z" fill="#E0D5FF"/>
<path d="M2.10085 7.27579C2.10085 7.16704 2.06877 7.06079 2.00836 6.96996C1.94795 6.87955 1.8617 6.80913 1.76129 6.76747C1.66046 6.7258 1.55005 6.71497 1.44297 6.73622C1.33631 6.75747 1.2384 6.80955 1.16132 6.88663C1.08424 6.96371 1.03174 7.06163 1.01049 7.16871C0.989245 7.27537 1.00049 7.3862 1.04216 7.48662C1.08382 7.58703 1.15424 7.67328 1.24465 7.7337C1.33506 7.79411 1.44172 7.82661 1.55047 7.82661C1.69671 7.82661 1.8367 7.76828 1.93961 7.66536C2.04294 7.56203 2.10085 7.42204 2.10085 7.27579Z" fill="#E0D5FF"/>
<path d="M3.45662 11.3257C3.37954 11.2486 3.28163 11.1961 3.17455 11.1749C3.06789 11.1536 2.95748 11.1649 2.85665 11.2065C2.75624 11.2482 2.66999 11.3186 2.60958 11.409C2.54917 11.4999 2.51708 11.6061 2.51708 11.7149C2.51708 11.8236 2.54917 11.9303 2.60958 12.0207C2.66999 12.1115 2.75624 12.1819 2.85665 12.2236C2.95748 12.2653 3.06789 12.2761 3.17455 12.2549C3.28163 12.2336 3.37954 12.1811 3.45662 12.1044C3.50787 12.0532 3.54828 11.9924 3.57578 11.9257C3.60369 11.859 3.61786 11.7874 3.61786 11.7149C3.61786 11.6428 3.60369 11.5711 3.57578 11.5045C3.54828 11.4374 3.50787 11.377 3.45662 11.3257Z" fill="#E0D5FF"/>
<path d="M7.27434 13.2323C7.1656 13.2323 7.05935 13.2644 6.96852 13.3253C6.87811 13.3857 6.8077 13.4715 6.76603 13.5723C6.72437 13.6727 6.71354 13.7836 6.73479 13.8902C6.75603 13.9969 6.80853 14.0952 6.88519 14.1719C6.96227 14.249 7.0606 14.3015 7.16726 14.3227C7.27392 14.344 7.38475 14.3331 7.48516 14.2915C7.58557 14.2498 7.67182 14.179 7.73223 14.0886C7.79265 13.9982 7.82515 13.8915 7.82515 13.7827C7.82473 13.6369 7.76682 13.4969 7.66349 13.3936C7.56058 13.2907 7.42058 13.2323 7.27434 13.2323Z" fill="#E0D5FF"/>
<path d="M11.325 11.879C11.2483 11.9557 11.1958 12.054 11.1746 12.1607C11.1533 12.2678 11.1641 12.3782 11.2058 12.4786C11.2475 12.5794 11.3183 12.6653 11.4087 12.7257C11.4991 12.7865 11.6054 12.8186 11.7145 12.8186C11.8233 12.8186 11.9299 12.7865 12.0203 12.7257C12.1108 12.6653 12.1812 12.5794 12.2228 12.4786C12.2645 12.3782 12.2758 12.2678 12.2545 12.1607C12.2333 12.054 12.1808 11.9557 12.1037 11.879C12.0524 11.8278 11.992 11.7874 11.9249 11.7594C11.8583 11.732 11.7866 11.7178 11.7145 11.7178C11.642 11.7178 11.5704 11.732 11.5037 11.7594C11.437 11.7874 11.3762 11.8278 11.325 11.879Z" fill="#E0D5FF"/>
<path d="M13.2324 8.05786C13.2324 8.16702 13.2649 8.27327 13.3253 8.36368C13.3857 8.45452 13.4719 8.52493 13.5724 8.5666C13.6728 8.60826 13.7836 8.6191 13.8903 8.59785C13.9973 8.5766 14.0952 8.5241 14.1723 8.44743C14.2494 8.37035 14.3015 8.27202 14.3227 8.16535C14.344 8.05869 14.3331 7.94786 14.2915 7.84744C14.2498 7.74661 14.1794 7.66078 14.089 7.60037C13.9982 7.53995 13.8919 7.50745 13.7832 7.50745C13.6369 7.50745 13.4969 7.56537 13.3936 7.6687C13.2907 7.77203 13.2324 7.91203 13.2324 8.05786Z" fill="#E0D5FF"/>
<path d="M11.8787 4.01127C11.9554 4.08793 12.0537 4.14043 12.1603 4.16168C12.2674 4.18293 12.3778 4.1721 12.4782 4.13043C12.5791 4.08877 12.6649 4.01835 12.7253 3.92752C12.7861 3.83711 12.8182 3.73086 12.8182 3.62169C12.8182 3.51295 12.7861 3.4067 12.7253 3.31587C12.6649 3.22545 12.5791 3.15504 12.4782 3.11337C12.3778 3.0717 12.2674 3.06087 12.1603 3.08212C12.0537 3.10337 11.9554 3.15545 11.8787 3.23253C11.8274 3.28378 11.787 3.3442 11.7591 3.41128C11.7316 3.47795 11.7174 3.54961 11.7174 3.62169C11.7174 3.69419 11.7316 3.76586 11.7591 3.83252C11.787 3.89919 11.8274 3.96002 11.8787 4.01127Z" fill="#E0D5FF"/>
<path d="M9.02425 3.64086C8.82385 3.75669 8.74302 3.99877 8.71385 4.22835C8.68844 4.42834 8.60094 4.61542 8.46345 4.76334C8.32637 4.91125 8.14596 5.01208 7.94847 5.05208C7.75057 5.09166 7.54516 5.06875 7.36142 4.98583C7.17726 4.9025 7.02435 4.76417 6.92311 4.58917C6.82228 4.41459 6.77895 4.21251 6.79895 4.01169C6.81895 3.81086 6.90144 3.62169 7.03477 3.47003C7.1681 3.31878 7.34559 3.21295 7.54224 3.16795C7.7389 3.12295 7.94472 3.14045 8.13055 3.21878C8.34429 3.30795 8.59469 3.35753 8.79551 3.24295C8.99675 3.12837 9.07716 2.88504 9.10633 2.65588C9.13133 2.45547 9.21883 2.26839 9.3559 2.12047C9.49339 1.97256 9.67339 1.87131 9.87129 1.83131C10.0692 1.79131 10.2746 1.81465 10.4583 1.89756C10.6425 1.98048 10.7958 2.11881 10.8967 2.2938C10.9975 2.46838 11.0412 2.67046 11.0212 2.87129C11.0012 3.07212 10.9187 3.2617 10.7854 3.41295C10.6521 3.56419 10.4746 3.67003 10.2779 3.71544C10.0813 3.76044 9.87546 3.74252 9.68922 3.66461C9.4759 3.57586 9.22549 3.52586 9.02425 3.64086Z" fill="#E0D5FF"/>
<path d="M5.78067 3.85877C5.72109 4.08252 5.83483 4.31126 5.97607 4.49418C6.0994 4.65376 6.16981 4.84792 6.17731 5.04917C6.1844 5.25083 6.12857 5.44916 6.0169 5.61707C5.90524 5.78498 5.74359 5.91373 5.55526 5.98498C5.36652 6.05623 5.16028 6.06623 4.96571 6.01415C4.77113 5.96206 4.59739 5.84998 4.4699 5.69415C4.34199 5.53832 4.26658 5.34624 4.25366 5.145C4.24116 4.94375 4.29158 4.74375 4.39865 4.57292C4.50573 4.40209 4.66364 4.26918 4.8503 4.19293C5.06445 4.1046 5.27819 3.96377 5.33569 3.74002C5.39319 3.51586 5.28153 3.28712 5.13987 3.1042C5.01654 2.94462 4.94654 2.75088 4.93946 2.54921C4.93238 2.34797 4.98862 2.14922 5.10028 1.98131C5.21195 1.8134 5.37319 1.68506 5.56193 1.61382C5.75067 1.54298 5.95691 1.53257 6.15148 1.58507C6.34605 1.63715 6.51938 1.74923 6.64729 1.90548C6.77478 2.06131 6.8502 2.25339 6.86269 2.45463C6.87561 2.65588 6.82478 2.85587 6.7177 3.0267C6.61062 3.19753 6.45272 3.33045 6.26606 3.4067C6.05399 3.49378 5.84108 3.63544 5.78067 3.85877Z" fill="#E0D5FF"/>
<path d="M3.63953 6.30831C3.75535 6.50872 3.99826 6.58955 4.22741 6.61872C4.42782 6.64413 4.61489 6.73205 4.7628 6.86913C4.91029 7.00663 5.01112 7.18704 5.05112 7.38495C5.0907 7.58286 5.06737 7.78828 4.98404 7.97202C4.90071 8.15577 4.76197 8.3091 4.58739 8.40993C4.4124 8.51076 4.21033 8.5541 4.00951 8.53368C3.80868 8.51326 3.61953 8.43077 3.46828 8.29702C3.31704 8.16369 3.21121 7.98577 3.16663 7.78911C3.12164 7.59245 3.13955 7.38662 3.2183 7.20037C3.30746 6.98704 3.35662 6.73663 3.24246 6.5358C3.12789 6.33456 2.88456 6.25414 2.65458 6.22497C2.45417 6.19956 2.2671 6.11206 2.11919 5.97456C1.9717 5.83707 1.87087 5.65665 1.83129 5.45874C1.79129 5.26083 1.81462 5.05541 1.89795 4.87167C1.98128 4.68792 2.12002 4.53459 2.2946 4.43418C2.46959 4.33335 2.67166 4.29001 2.87248 4.31001C3.07331 4.33043 3.26246 4.41293 3.4137 4.54668C3.56495 4.68042 3.67077 4.85792 3.71536 5.05458C3.76035 5.25166 3.74244 5.45749 3.66369 5.64332C3.57453 5.85665 3.52537 6.10706 3.63953 6.30831Z" fill="#E0D5FF"/>
<path d="M3.85868 9.55283C4.08284 9.61241 4.31074 9.49866 4.49448 9.35741C4.65364 9.23408 4.8478 9.16367 5.04945 9.15617C5.25069 9.14909 5.44943 9.20492 5.61734 9.31658C5.78525 9.42825 5.91358 9.58991 5.98482 9.77824C6.05607 9.96699 6.06648 10.1732 6.0144 10.3678C5.96232 10.5624 5.85025 10.7361 5.69442 10.8636C5.53818 10.9915 5.3461 11.067 5.14487 11.0799C4.94404 11.0924 4.74364 11.042 4.57281 10.9349C4.40199 10.8278 4.26908 10.6699 4.19283 10.4832C4.10492 10.2691 3.96326 10.0553 3.74035 9.99782C3.51703 9.94032 3.28746 10.052 3.10455 10.1932C2.94498 10.317 2.75082 10.3874 2.54917 10.3949C2.34751 10.4024 2.14877 10.3461 1.98044 10.2345C1.81254 10.1228 1.68379 9.96115 1.61255 9.77241C1.54088 9.58366 1.53088 9.37741 1.58296 9.18242C1.63505 8.98784 1.74712 8.81409 1.90336 8.68618C2.05961 8.55826 2.25168 8.48285 2.45334 8.46993C2.65458 8.45743 2.85498 8.50826 3.02581 8.61535C3.19663 8.72243 3.32954 8.88076 3.40579 9.06742C3.49412 9.28033 3.63494 9.49241 3.85868 9.55283Z" fill="#E0D5FF"/>
<path d="M6.30689 11.6932C6.5073 11.5774 6.58854 11.3345 6.61812 11.1053C6.64396 10.9053 6.73145 10.7182 6.86894 10.5707C7.00602 10.4232 7.18643 10.3224 7.38392 10.2828C7.58182 10.2432 7.78681 10.2666 7.97055 10.3499C8.15429 10.4328 8.3072 10.5716 8.40761 10.7461C8.50844 10.9211 8.55177 11.1228 8.53178 11.3232C8.51136 11.524 8.42886 11.7132 8.29554 11.8644C8.1618 12.0157 7.9843 12.1211 7.78806 12.1657C7.59141 12.2107 7.38558 12.1928 7.19976 12.1144C6.9856 12.0253 6.7352 11.9761 6.53521 12.0903C6.3348 12.2049 6.25273 12.4482 6.22356 12.6782C6.19815 12.8782 6.11065 13.0653 5.97316 13.2128C5.83566 13.3598 5.65567 13.4607 5.45777 13.5003C5.26028 13.5398 5.05529 13.5165 4.87155 13.4332C4.68781 13.3503 4.5349 13.2115 4.43449 13.0369C4.33366 12.8623 4.29033 12.6607 4.31032 12.4603C4.33032 12.2594 4.41282 12.0703 4.54615 11.919C4.67947 11.7678 4.85696 11.6624 5.05362 11.6174C5.24986 11.5724 5.45568 11.5899 5.64151 11.6682C5.85608 11.7578 6.10648 11.809 6.30689 11.6932Z" fill="#E0D5FF"/>
<path d="M9.55172 11.4749C9.61214 11.2507 9.49839 11.022 9.35632 10.8391C9.23257 10.6795 9.16216 10.4853 9.15466 10.2836C9.14758 10.082 9.20341 9.88324 9.31507 9.71491C9.42673 9.54699 9.58839 9.41825 9.77713 9.347C9.96587 9.27533 10.1721 9.26533 10.3671 9.31742C10.5621 9.3695 10.7354 9.48158 10.8633 9.63783C10.9912 9.79407 11.0666 9.98615 11.0796 10.1878C11.0921 10.3891 11.0412 10.5895 10.9342 10.7603C10.8271 10.9311 10.6687 11.064 10.4821 11.1403C10.2679 11.2286 10.055 11.3699 9.9967 11.5932C9.93879 11.8165 10.05 12.0461 10.1925 12.229C10.3159 12.3886 10.3867 12.5828 10.3938 12.7844C10.4013 12.9861 10.345 13.1848 10.2334 13.3528C10.1217 13.5211 9.96045 13.6498 9.7713 13.7211C9.58256 13.7923 9.37632 13.8027 9.18133 13.7507C8.98675 13.6982 8.81301 13.5861 8.6851 13.4298C8.55719 13.274 8.48178 13.0815 8.46928 12.8803C8.45636 12.679 8.50719 12.4786 8.61427 12.3078C8.72135 12.1365 8.87967 12.0036 9.06633 11.9274C9.28007 11.8394 9.49214 11.6986 9.55172 11.4749Z" fill="#E0D5FF"/>
<path d="M11.6929 9.02575C11.577 8.82576 11.335 8.74451 11.1058 8.71451C10.9058 8.68909 10.7187 8.6016 10.5713 8.46451C10.4233 8.32702 10.3225 8.14702 10.2829 7.94953C10.2429 7.75161 10.2663 7.54662 10.3492 7.36287C10.4321 7.17912 10.5708 7.02621 10.7454 6.92538C10.92 6.82455 11.1216 6.78121 11.322 6.8008C11.5229 6.8208 11.712 6.90329 11.8633 7.03663C12.0145 7.16954 12.1203 7.34704 12.1653 7.5437C12.2108 7.73995 12.1928 7.94577 12.1149 8.1316C12.0258 8.34577 11.9766 8.59618 12.0899 8.79659C12.2037 8.99659 12.4487 9.07867 12.6778 9.10783C12.8778 9.13325 13.0649 9.22075 13.2124 9.35825C13.3599 9.49533 13.4607 9.67574 13.5007 9.87324C13.5403 10.0707 13.5169 10.2761 13.434 10.4599C13.3507 10.6436 13.2124 10.7966 13.0378 10.897C12.8632 10.9978 12.6611 11.0411 12.4607 11.0211C12.2599 11.0011 12.0708 10.9186 11.9195 10.7853C11.7683 10.652 11.6629 10.4745 11.6179 10.2782C11.5729 10.0816 11.5904 9.87615 11.6687 9.69032C11.7579 9.47658 11.8087 9.22617 11.6929 9.02575Z" fill="#E0D5FF"/>
<path d="M11.4741 5.7804C11.2504 5.72082 11.0212 5.83457 10.8383 5.97665C10.6787 6.10039 10.4846 6.17081 10.2829 6.17831C10.0813 6.18539 9.88254 6.12956 9.71463 6.0179C9.54631 5.90623 9.41756 5.74457 9.34632 5.55582C9.27507 5.36708 9.26465 5.16083 9.31715 4.96583C9.36923 4.77084 9.48131 4.59709 9.63713 4.46959C9.79338 4.34168 9.98587 4.26585 10.1871 4.25335C10.3883 4.24043 10.5888 4.29126 10.7596 4.39876C10.9308 4.50584 11.0637 4.66376 11.14 4.85084C11.2279 5.065 11.3687 5.27791 11.5929 5.33583C11.8166 5.39416 12.0453 5.28249 12.2283 5.14041C12.3878 5.01708 12.582 4.94708 12.7836 4.94C12.9849 4.9325 13.1836 4.98875 13.3511 5.10041C13.519 5.21249 13.6473 5.37374 13.7186 5.56249C13.7898 5.75123 13.7998 5.95706 13.7478 6.15206C13.6953 6.34664 13.5832 6.51997 13.4274 6.64747C13.2715 6.77538 13.079 6.8508 12.8782 6.8633C12.677 6.8758 12.477 6.82496 12.3062 6.71788C12.1353 6.6108 12.0024 6.45289 11.9262 6.26622C11.8387 6.05373 11.6974 5.84082 11.4741 5.7804Z" fill="#E0D5FF"/>
<path d="M7.6664 9.31825C8.57886 9.31825 9.31882 8.57868 9.31882 7.6662C9.31882 6.75371 8.57886 6.01415 7.6664 6.01415C6.75395 6.01415 6.0144 6.75371 6.0144 7.6662C6.0144 8.57868 6.75395 9.31825 7.6664 9.31825Z" fill="#E0D5FF"/>
</g>
<defs>
<filter id="filter0_di_5_23" x="0.666667" y="0.833333" width="14" height="14" filterUnits="userSpaceOnUse" color-interpolation-filters="sRGB">
<feFlood flood-opacity="0" result="BackgroundImageFix"/>
<feColorMatrix in="SourceAlpha" type="matrix" values="0 0 0 0 0 0 0 0 0 0 0 0 0 0 0 0 0 0 127 0" result="hardAlpha"/>
<feOffset dy="0.166667"/>
<feGaussianBlur stdDeviation="0.166667"/>
<feComposite in2="hardAlpha" operator="out"/>
<feColorMatrix type="matrix" values="0 0 0 0 0 0 0 0 0 0.0417643 0 0 0 0 0.313232 0 0 0 0.2 0"/>
<feBlend mode="normal" in2="BackgroundImageFix" result="effect1_dropShadow_5_23"/>
<feBlend mode="normal" in="SourceGraphic" in2="effect1_dropShadow_5_23" result="shape"/>
<feColorMatrix in="SourceAlpha" type="matrix" values="0 0 0 0 0 0 0 0 0 0 0 0 0 0 0 0 0 0 127 0" result="hardAlpha"/>
<feOffset dx="0.166667" dy="0.333333"/>
<feGaussianBlur stdDeviation="0.325"/>
<feComposite in2="hardAlpha" operator="arithmetic" k2="-1" k3="1"/>
<feColorMatrix type="matrix" values="0 0 0 0 1 0 0 0 0 1 0 0 0 0 1 0 0 0 0.45 0"/>
<feBlend mode="normal" in2="shape" result="effect2_innerShadow_5_23"/>
</filter>
</defs>
</svg>
