<svg width="1112" height="280" viewBox="0 0 1112 280" fill="none" xmlns="http://www.w3.org/2000/svg">
<style>
	.solo-wordmark { fill: #121313; }
	@media (prefers-color-scheme: dark) {
		.solo-wordmark { fill: #EDECEC; }
	}
</style>
<path class="solo-wordmark" d="M174.75 199.88C174.75 180.68 162.46 172.61 144.03 171.08L81.81 165.32C28.04 160.33 0 139.2 0 88.12C0 37.04 34.57 9 84.11 9H221.6V57.39H87.95C68.75 57.39 56.46 67.38 56.46 86.58C56.46 105.78 69.13 115 88.34 116.54L151.71 121.92C199.72 126.14 231.21 148.04 231.21 199.5C231.21 250.96 197.8 278.62 150.56 278.62H6.91998V230.23H145.18C163.23 230.23 174.75 217.94 174.75 199.89V199.88Z"/>
<path class="solo-wordmark" d="M405.18 0C489.67 0 543.06 54.15 543.06 139.03C543.06 223.91 487.37 278.83 402.88 278.83C318.39 278.83 265 223.91 265 139.03C265 54.15 320.69 0 405.18 0ZM485.07 139.41C485.07 82.57 452.04 49.16 404.03 49.16C356.02 49.16 322.99 82.57 322.99 139.41C322.99 196.25 356.02 229.66 404.03 229.66C452.04 229.66 485.07 196.25 485.07 139.41Z"/>
<path class="solo-wordmark" d="M577 200C577 251.46 610.41 279.12 657.65 279.12H798.614V230.73H663.03C644.98 230.73 633.46 218.44 633.46 200.39V9H577V200Z"/>
<path class="solo-wordmark" d="M973.18 0C1057.67 0 1111.06 54.15 1111.06 139.03C1111.06 223.91 1055.37 278.83 970.88 278.83C886.39 278.83 833 223.91 833 139.03C833 54.15 888.69 0 973.18 0ZM1053.07 139.41C1053.07 82.57 1020.04 49.16 972.03 49.16C924.02 49.16 890.99 82.57 890.99 139.41C890.99 196.25 924.02 229.66 972.03 229.66C1020.04 229.66 1053.07 196.25 1053.07 139.41Z"/>
</svg>
