<svg width="1458" height="313" viewBox="0 0 1458 313" fill="none" xmlns="http://www.w3.org/2000/svg">
<style>
	.solo-lockup { fill: #121313; }
	@media (prefers-color-scheme: dark) {
		.solo-lockup { fill: #EDECEC; }
	}
</style>
<path class="solo-lockup" d="M157.29 0C252.093 0 312 60.786 312 156.068C312 251.35 249.513 313 154.71 313C59.9068 313 0 251.35 0 156.068C0 60.786 62.4874 0 157.29 0Z"/>
<path class="solo-lockup" d="M520.75 217.88C520.75 198.68 508.46 190.61 490.03 189.08L427.81 183.32C374.04 178.33 346 157.2 346 106.12C346 55.04 380.57 27 430.11 27H567.6V75.39H433.95C414.75 75.39 402.46 85.38 402.46 104.58C402.46 123.78 415.13 133 434.34 134.54L497.71 139.92C545.72 144.14 577.21 166.04 577.21 217.5C577.21 268.96 543.8 296.62 496.56 296.62H352.92V248.23H491.18C509.23 248.23 520.75 235.94 520.75 217.89V217.88Z"/>
<path class="solo-lockup" d="M751.18 18C835.67 18 889.06 72.15 889.06 157.03C889.06 241.91 833.37 296.83 748.88 296.83C664.39 296.83 611 241.91 611 157.03C611 72.15 666.69 18 751.18 18ZM831.07 157.41C831.07 100.57 798.04 67.16 750.03 67.16C702.02 67.16 668.99 100.57 668.99 157.41C668.99 214.25 702.02 247.66 750.03 247.66C798.04 247.66 831.07 214.25 831.07 157.41Z"/>
<path class="solo-lockup" d="M923 218C923 269.46 956.41 297.12 1003.65 297.12H1144.61V248.73H1009.03C990.98 248.73 979.46 236.44 979.46 218.39V27H923V218Z"/>
<path class="solo-lockup" d="M1319.18 18C1403.67 18 1457.06 72.15 1457.06 157.03C1457.06 241.91 1401.37 296.83 1316.88 296.83C1232.39 296.83 1179 241.91 1179 157.03C1179 72.15 1234.69 18 1319.18 18ZM1399.07 157.41C1399.07 100.57 1366.04 67.16 1318.03 67.16C1270.02 67.16 1236.99 100.57 1236.99 157.41C1236.99 214.25 1270.02 247.66 1318.03 247.66C1366.04 247.66 1399.07 214.25 1399.07 157.41Z"/>
</svg>
