<svg width="1541" height="313" viewBox="0 0 1541 313" fill="none" xmlns="http://www.w3.org/2000/svg">
<path d="M157.29 0C252.093 0 312 60.786 312 156.068C312 251.35 249.513 313 154.71 313C59.9068 313 0 251.35 0 156.068C0 60.786 62.4874 0 157.29 0Z" fill="#EDECEC"/>
<path d="M603.75 217.88C603.75 198.68 591.46 190.61 573.03 189.08L510.81 183.32C457.04 178.33 429 157.2 429 106.12C429 55.04 463.57 27 513.11 27H650.6V75.39H516.95C497.75 75.39 485.46 85.38 485.46 104.58C485.46 123.78 498.13 133 517.34 134.54L580.71 139.92C628.72 144.14 660.21 166.04 660.21 217.5C660.21 268.96 626.8 296.62 579.56 296.62H435.92V248.23H574.18C592.23 248.23 603.75 235.94 603.75 217.89V217.88Z" fill="#EDECEC"/>
<path d="M834.18 18C918.67 18 972.06 72.15 972.06 157.03C972.06 241.91 916.37 296.83 831.88 296.83C747.39 296.83 694 241.91 694 157.03C694 72.15 749.69 18 834.18 18ZM914.07 157.41C914.07 100.57 881.04 67.16 833.03 67.16C785.02 67.16 751.99 100.57 751.99 157.41C751.99 214.25 785.02 247.66 833.03 247.66C881.04 247.66 914.07 214.25 914.07 157.41Z" fill="#EDECEC"/>
<path d="M1006 218C1006 269.46 1039.41 297.12 1086.65 297.12H1227.61V248.73H1092.03C1073.98 248.73 1062.46 236.44 1062.46 218.39V27H1006V218Z" fill="#EDECEC"/>
<path d="M1402.18 18C1486.67 18 1540.06 72.15 1540.06 157.03C1540.06 241.91 1484.37 296.83 1399.88 296.83C1315.39 296.83 1262 241.91 1262 157.03C1262 72.15 1317.69 18 1402.18 18ZM1482.07 157.41C1482.07 100.57 1449.04 67.16 1401.03 67.16C1353.02 67.16 1319.99 100.57 1319.99 157.41C1319.99 214.25 1353.02 247.66 1401.03 247.66C1449.04 247.66 1482.07 214.25 1482.07 157.41Z" fill="#EDECEC"/>
</svg>
