<svg width="16" height="16" viewBox="0 0 16 16" fill="none" xmlns="http://www.w3.org/2000/svg">
<g clip-path="url(#clip0)">
<path d="M7 3H4V0H3V3H0V4H3V7H4V4H7V3Z" fill="#C5C5C5"/>
<path d="M5.5 7H5V6H5.3L6.1 5.1L6.5 5L14.5 5V6H6.7L5.9 6.9L5.5 7Z" fill="#C5C5C5"/>
<g filter="url(#filter0_d)">
<path fill-rule="evenodd" clip-rule="evenodd" d="M1 5V6V6.5V13.5L1.5 14H14.5L15 13.5V3.5L14.5 3H8V4H14V5V7V13H2V6.5V6V5H1Z" fill="#C5C5C5"/>
</g>
</g>
<defs>
<filter id="filter0_d" x="-3" y="3" width="22" height="19" filterUnits="userSpaceOnUse" color-interpolation-filters="sRGB">
<feFlood flood-opacity="0" result="BackgroundImageFix"/>
<feColorMatrix in="SourceAlpha" type="matrix" values="0 0 0 0 0 0 0 0 0 0 0 0 0 0 0 0 0 0 127 0"/>
<feOffset dy="4"/>
<feGaussianBlur stdDeviation="2"/>
<feColorMatrix type="matrix" values="0 0 0 0 0 0 0 0 0 0 0 0 0 0 0 0 0 0 0.25 0"/>
<feBlend mode="normal" in2="BackgroundImageFix" result="effect1_dropShadow"/>
<feBlend mode="normal" in="SourceGraphic" in2="effect1_dropShadow" result="shape"/>
</filter>
<clipPath id="clip0">
<rect width="16" height="16" fill="white"/>
</clipPath>
</defs>
</svg>
