<svg width="16" height="16" viewBox="0 0 16 16" fill="none" xmlns="http://www.w3.org/2000/svg">
<mask id="path-1-inside-1" fill="white">
<path fill-rule="evenodd" clip-rule="evenodd" d="M15 2L14 1L3 0.999999L2 2L2 13L3 14L14 14L15 13L15 2ZM9 2L14 2L14 13L9 13L9 2ZM8 2L3 2L3 13L8 13L8 2Z"/>
</mask>
<path fill-rule="evenodd" clip-rule="evenodd" d="M15 2L14 1L3 0.999999L2 2L2 13L3 14L14 14L15 13L15 2ZM9 2L14 2L14 13L9 13L9 2ZM8 2L3 2L3 13L8 13L8 2Z" fill="#C5C5C5"/>
<path d="M14 1L14.7071 0.292893L14.4142 -2.56055e-08L14 -4.37114e-08L14 1ZM15 2L16 2L16 1.58579L15.7071 1.29289L15 2ZM3 0.999999L3 -5.24537e-07L2.58579 -5.42642e-07L2.29289 0.292893L3 0.999999ZM2 2L1.29289 1.29289L1 1.58579L1 2L2 2ZM2 13L0.999999 13L0.999999 13.4142L1.29289 13.7071L2 13ZM3 14L2.29289 14.7071L2.58579 15L3 15L3 14ZM14 14L14 15L14.4142 15L14.7071 14.7071L14 14ZM15 13L15.7071 13.7071L16 13.4142L16 13L15 13ZM14 2L15 2L15 1L14 1L14 2ZM9 2L9 1L8 1L8 2L9 2ZM14 13L14 14L15 14L15 13L14 13ZM9 13L8 13L8 14L9 14L9 13ZM8 2L9 2L9 1L8 1L8 2ZM3 2L3 0.999999L2 0.999999L2 2L3 2ZM3 13L2 13L2 14L3 14L3 13ZM8 13L8 14L9 14L9 13L8 13ZM13.2929 1.70711L14.2929 2.70711L15.7071 1.29289L14.7071 0.292893L13.2929 1.70711ZM3 2L14 2L14 -4.37114e-08L3 -5.24537e-07L3 2ZM2.70711 2.70711L3.70711 1.70711L2.29289 0.292893L1.29289 1.29289L2.70711 2.70711ZM3 13L3 2L1 2L0.999999 13L3 13ZM3.70711 13.2929L2.70711 12.2929L1.29289 13.7071L2.29289 14.7071L3.70711 13.2929ZM14 13L3 13L3 15L14 15L14 13ZM14.2929 12.2929L13.2929 13.2929L14.7071 14.7071L15.7071 13.7071L14.2929 12.2929ZM14 2L14 13L16 13L16 2L14 2ZM14 1L9 1L9 3L14 3L14 1ZM15 13L15 2L13 2L13 13L15 13ZM9 14L14 14L14 12L9 12L9 14ZM8 2L8 13L10 13L10 2L8 2ZM8 1L3 0.999999L3 3L8 3L8 1ZM2 2L2 13L4 13L4 2L2 2ZM3 14L8 14L8 12L3 12L3 14ZM9 13L9 2L7 2L7 13L9 13Z" fill="#424242" mask="url(#path-1-inside-1)"/>
</svg>
