<svg width="16" height="16" viewBox="0 0 16 16" fill="none" xmlns="http://www.w3.org/2000/svg">
<mask id="path-1-inside-1" fill="white">
<path fill-rule="evenodd" clip-rule="evenodd" d="M3 1L2 2V13L3 14H14L15 13V2L14 1H3ZM3 7V2H14V7H3ZM3 8V13H14V8H3Z"/>
</mask>
<path fill-rule="evenodd" clip-rule="evenodd" d="M3 1L2 2V13L3 14H14L15 13V2L14 1H3ZM3 7V2H14V7H3ZM3 8V13H14V8H3Z" fill="#C5C5C5"/>
<path d="M2 2L1.29289 1.29289L1 1.58579V2H2ZM3 1V0H2.58579L2.29289 0.292893L3 1ZM2 13H1V13.4142L1.29289 13.7071L2 13ZM3 14L2.29289 14.7071L2.58579 15H3V14ZM14 14V15H14.4142L14.7071 14.7071L14 14ZM15 13L15.7071 13.7071L16 13.4142V13H15ZM15 2H16V1.58579L15.7071 1.29289L15 2ZM14 1L14.7071 0.292893L14.4142 0H14V1ZM3 2V1H2V2H3ZM3 7H2V8H3V7ZM14 2H15V1H14V2ZM14 7V8H15V7H14ZM3 8V7H2V8H3ZM3 13H2V14H3V13ZM14 13V14H15V13H14ZM14 8H15V7H14V8ZM2.70711 2.70711L3.70711 1.70711L2.29289 0.292893L1.29289 1.29289L2.70711 2.70711ZM3 13V2H1V13H3ZM3.70711 13.2929L2.70711 12.2929L1.29289 13.7071L2.29289 14.7071L3.70711 13.2929ZM14 13H3V15H14V13ZM14.2929 12.2929L13.2929 13.2929L14.7071 14.7071L15.7071 13.7071L14.2929 12.2929ZM14 2V13H16V2H14ZM13.2929 1.70711L14.2929 2.70711L15.7071 1.29289L14.7071 0.292893L13.2929 1.70711ZM3 2H14V0H3V2ZM2 2V7H4V2H2ZM14 1H3V3H14V1ZM15 7V2H13V7H15ZM3 8H14V6H3V8ZM2 8V13H4V8H2ZM3 14H14V12H3V14ZM15 13V8H13V13H15ZM14 7H3V9H14V7Z" fill="#424242" mask="url(#path-1-inside-1)"/>
</svg>
