<svg fill="none" xmlns="http://www.w3.org/2000/svg" width="16" height="16" viewBox="0 0 16 16"><path d="M8.02103 0.999901C7.02103 0.979901 6.02103 1.1799 5.10103 1.5799C1.56103 3.1299 -0.0689684 7.2599 1.48103 10.8099C2.79103 13.7899 5.98103 15.4799 9.18103 14.8799C9.32103 14.4399 9.43103 13.9699 9.43103 13.4499C9.43103 13.3799 9.43103 13.2999 9.43103 13.2299C9.43103 13.2299 9.68103 12.7999 9.88103 12.2499C10.121 11.5599 10.001 10.7999 9.57103 10.1999C9.55103 10.1699 9.52103 10.1299 9.49103 10.0899C7.00103 10.0899 5.77103 7.8299 5.46103 6.4599C5.33103 5.8999 5.23103 5.8399 4.87103 5.8399C4.22103 5.8399 3.75103 5.5699 3.75103 5.5699C3.15103 5.8399 2.88103 5.7299 2.96103 5.4499C2.70103 5.4199 2.70103 5.1299 2.86103 4.8499C3.06103 4.5099 3.47103 4.2799 3.95103 4.2799H4.21103C4.75103 4.2799 4.86103 3.9999 5.41103 4.0599C5.50103 4.0599 5.58103 4.0799 5.65103 4.0999C5.80103 3.9199 5.98103 3.8499 6.19103 3.8599C6.22103 3.8599 6.24103 3.8899 6.24103 3.9199L6.19103 4.1599C6.17103 4.2499 6.19103 4.3399 6.26103 4.3999C6.71103 4.8199 6.96103 5.5299 7.25103 6.1799C7.72103 7.1299 8.84103 8.4499 10.651 6.7599C11.921 5.5699 12.691 4.5799 13.951 4.4799C12.721 2.3699 10.481 1.0599 8.03103 1.0099M5.05103 4.4499C4.87103 4.4499 4.68103 4.5999 4.74103 4.6199C4.75103 4.6199 4.78103 4.6199 4.80103 4.6299C4.82103 4.7499 4.92103 4.8399 5.04103 4.8399C5.16103 4.8399 5.26103 4.7499 5.28103 4.6299C5.31103 4.6299 5.33103 4.6299 5.34103 4.6199C5.40103 4.5899 5.22103 4.4499 5.03103 4.4499M11.601 11.1899C11.451 11.1899 11.321 11.2899 11.271 11.4299C11.051 12.1499 10.611 13.0799 10.611 13.0799C10.611 13.0799 10.181 13.8499 9.93103 14.7099C10.191 14.6299 10.451 14.5399 10.701 14.4399C11.191 14.2199 11.661 13.9499 12.091 13.6299C12.021 13.4899 11.941 13.3499 11.861 13.2199C11.861 13.2199 11.721 12.5799 11.441 11.8899C11.481 11.7699 11.521 11.6499 11.561 11.5399C11.561 11.5399 11.591 11.5099 11.611 11.5099C11.751 11.5299 11.911 11.5499 12.081 11.5799C12.131 11.5799 12.191 11.5799 12.241 11.5899C12.311 11.5899 12.371 11.5999 12.441 11.6099C12.461 12.2599 12.741 12.8699 12.811 13.0199C13.331 12.5099 13.761 11.9199 14.101 11.2799C13.601 11.3399 12.991 11.3599 12.271 11.2799C12.211 11.2799 12.161 11.2699 12.101 11.2599C11.951 11.2399 11.801 11.2199 11.651 11.1999C11.631 11.1999 11.611 11.1999 11.591 11.1999" fill="currentColor"/></svg>