<svg fill="none" xmlns="http://www.w3.org/2000/svg" width="16" height="16" viewBox="0 0 16 16"><path d="M15.3995 7.81977L14.7695 7.43977C14.7695 7.36977 14.7595 7.29977 14.7495 7.23977L15.2995 6.73977C15.3595 6.68977 15.3795 6.60977 15.3695 6.53977C15.3595 6.46977 15.2995 6.40977 15.2295 6.37977L14.5295 6.12977C14.5095 6.05977 14.4895 5.99977 14.4695 5.92977L14.9095 5.33977C14.9495 5.27977 14.9595 5.19977 14.9395 5.12977C14.9095 5.05977 14.8495 5.00977 14.7695 4.99977L14.0395 4.88977C14.0095 4.82977 13.9795 4.76977 13.9395 4.70977L14.2595 4.03977C14.2895 3.96977 14.2895 3.88977 14.2395 3.82977C14.1995 3.76977 14.1295 3.72977 14.0495 3.73977L13.3095 3.77977C13.2695 3.72977 13.2295 3.67977 13.1795 3.62977L13.3595 2.90977C13.3795 2.83977 13.3595 2.75977 13.2995 2.70977C13.2495 2.65977 13.1695 2.63977 13.0995 2.64977L12.3795 2.82977C12.3295 2.78977 12.2795 2.74977 12.2295 2.69977L12.2695 1.95977C12.2695 1.87977 12.2395 1.80977 12.1695 1.76977C12.1095 1.72977 12.0295 1.71977 11.9595 1.74977L11.2895 2.06977C11.2295 2.03977 11.1695 2.00977 11.1095 1.96977L10.9995 1.23977C10.9895 1.16977 10.9395 1.09977 10.8695 1.06977C10.7995 1.03977 10.7195 1.04977 10.6595 1.09977L10.0695 1.53977C10.0095 1.51977 9.93953 1.49977 9.86953 1.47977L9.61953 0.779766C9.58953 0.709766 9.52953 0.659766 9.45953 0.639766C9.38953 0.629766 9.30953 0.649766 9.25953 0.709766L8.75953 1.25977C8.68953 1.25977 8.62953 1.24977 8.55953 1.23977L8.17953 0.609766C8.13953 0.549766 8.06953 0.509766 7.99953 0.509766C7.92953 0.509766 7.84953 0.549766 7.81953 0.609766L7.43953 1.23977C7.36953 1.23977 7.29953 1.24977 7.23953 1.25977L6.73953 0.709766C6.68953 0.649766 6.60953 0.629766 6.53953 0.639766C6.46953 0.649766 6.40953 0.709766 6.37953 0.779766L6.12953 1.46977C6.05953 1.48977 5.99953 1.50977 5.92953 1.52977L5.33953 1.08977C5.27953 1.04977 5.19953 1.03977 5.12953 1.05977C5.05953 1.08977 5.00953 1.14977 4.99953 1.22977L4.88953 1.95977C4.82953 1.98977 4.76953 2.01977 4.70953 2.05977L4.03953 1.73977C3.96953 1.70977 3.88953 1.70977 3.82953 1.75977C3.76953 1.79977 3.72953 1.86977 3.73953 1.94977L3.77953 2.68977C3.72953 2.72977 3.67953 2.76977 3.62953 2.81977L2.90953 2.63977C2.83953 2.61977 2.75953 2.63977 2.70953 2.69977C2.65953 2.75977 2.63953 2.82977 2.64953 2.89977L2.82953 3.61977C2.78953 3.66977 2.74953 3.71977 2.69953 3.76977L1.95953 3.72977C1.87953 3.72977 1.80953 3.75977 1.76953 3.81977C1.72953 3.87977 1.71953 3.95977 1.74953 4.02977L2.06953 4.69977C2.03953 4.75977 2.00953 4.81977 1.96953 4.87977L1.23953 4.98977C1.16953 4.99977 1.09953 5.04977 1.06953 5.11977C1.03953 5.18977 1.04953 5.26977 1.09953 5.32977L1.53953 5.91977C1.51953 5.97977 1.49953 6.04977 1.47953 6.11977L0.789531 6.36977C0.719531 6.39977 0.669531 6.45977 0.649531 6.52977C0.639531 6.59977 0.659531 6.67977 0.719531 6.72977L1.26953 7.22977C1.26953 7.29977 1.25953 7.35977 1.24953 7.42977L0.619531 7.80977C0.559531 7.84977 0.519531 7.91977 0.519531 7.98977C0.519531 8.05977 0.559531 8.13977 0.619531 8.16977L1.24953 8.54977C1.24953 8.61977 1.25953 8.68977 1.26953 8.74977L0.719531 9.24977C0.659531 9.29977 0.639531 9.37977 0.649531 9.44977C0.659531 9.51977 0.719531 9.57977 0.789531 9.60977L1.48953 9.85977C1.50953 9.92977 1.52953 9.98977 1.54953 10.0598L1.10953 10.6498C1.06953 10.7098 1.05953 10.7898 1.07953 10.8598C1.10953 10.9298 1.16953 10.9798 1.24953 10.9898L1.97953 11.0998C2.00953 11.1598 2.03953 11.2198 2.07953 11.2798L1.75953 11.9498C1.72953 12.0198 1.72953 12.0998 1.77953 12.1598C1.81953 12.2198 1.88953 12.2598 1.95953 12.2598C1.95953 12.2598 1.95953 12.2598 1.96953 12.2598L2.70953 12.2198C2.74953 12.2698 2.78953 12.3198 2.83953 12.3698L2.65953 13.0898C2.63953 13.1598 2.65953 13.2398 2.71953 13.2898C2.75953 13.3298 2.81953 13.3498 2.86953 13.3498C2.88953 13.3498 2.89953 13.3498 2.91953 13.3498L3.63953 13.1698C3.68953 13.2098 3.73953 13.2498 3.78953 13.2998L3.74953 14.0398C3.74953 14.1198 3.77953 14.1898 3.83953 14.2298C3.87953 14.2498 3.91953 14.2698 3.95953 14.2698C3.98953 14.2698 4.01953 14.2698 4.04953 14.2498L4.71953 13.9298C4.77953 13.9598 4.83953 13.9898 4.89953 14.0298L5.00953 14.7598C5.01953 14.8298 5.06953 14.8998 5.13953 14.9298C5.16953 14.9398 5.18953 14.9498 5.21953 14.9498C5.26953 14.9498 5.30953 14.9398 5.34953 14.9098L5.93953 14.4698C5.99953 14.4898 6.06953 14.5098 6.13953 14.5298L6.38953 15.2298C6.41953 15.2998 6.47953 15.3498 6.54953 15.3698C6.55953 15.3698 6.57953 15.3698 6.58953 15.3698C6.64953 15.3698 6.70953 15.3398 6.74953 15.2998L7.24953 14.7498C7.31953 14.7498 7.37953 14.7598 7.44953 14.7698L7.82953 15.3998C7.86953 15.4598 7.93953 15.4998 8.00953 15.4998C8.07953 15.4998 8.15953 15.4598 8.18953 15.3998L8.56953 14.7698C8.63953 14.7698 8.70953 14.7598 8.76953 14.7498L9.26953 15.2998C9.26953 15.2998 9.36953 15.3698 9.42953 15.3698C9.43953 15.3698 9.45953 15.3698 9.46953 15.3698C9.53953 15.3598 9.59953 15.2998 9.62953 15.2298L9.87953 14.5298C9.94953 14.5098 10.0095 14.4898 10.0795 14.4698L10.6695 14.9098C10.6695 14.9098 10.7495 14.9498 10.7995 14.9498C10.8295 14.9498 10.8595 14.9498 10.8795 14.9298C10.9495 14.8998 10.9995 14.8398 11.0095 14.7598L11.1195 14.0298C11.1795 13.9998 11.2395 13.9698 11.2995 13.9298L11.9695 14.2498C11.9695 14.2498 12.0295 14.2698 12.0595 14.2698C12.0995 14.2698 12.1395 14.2598 12.1795 14.2298C12.2395 14.1898 12.2795 14.1198 12.2795 14.0398L12.2395 13.2998C12.2895 13.2598 12.3395 13.2198 12.3895 13.1698L13.1095 13.3498C13.1095 13.3498 13.1395 13.3498 13.1595 13.3498C13.2195 13.3498 13.2695 13.3298 13.3095 13.2898C13.3595 13.2398 13.3795 13.1598 13.3695 13.0898L13.1895 12.3698C13.2295 12.3198 13.2695 12.2698 13.3195 12.2198L14.0595 12.2598C14.0595 12.2598 14.0595 12.2598 14.0695 12.2598C14.1395 12.2598 14.2095 12.2198 14.2495 12.1598C14.2895 12.0998 14.2995 12.0198 14.2695 11.9498L13.9495 11.2798C13.9795 11.2198 14.0095 11.1598 14.0495 11.0998L14.7795 10.9898C14.8495 10.9798 14.9195 10.9298 14.9495 10.8598C14.9795 10.7898 14.9695 10.7098 14.9195 10.6498L14.4795 10.0598C14.4995 9.99977 14.5195 9.92977 14.5395 9.85977L15.2395 9.60977C15.3095 9.57977 15.3595 9.51977 15.3795 9.44977C15.3895 9.37977 15.3695 9.29977 15.3095 9.24977L14.7595 8.74977C14.7595 8.67977 14.7695 8.61977 14.7795 8.54977L15.4095 8.16977C15.4695 8.12977 15.5095 8.05977 15.5095 7.98977C15.5095 7.91977 15.4695 7.83977 15.4095 7.80977L15.3995 7.81977ZM7.99953 13.4998C7.15953 13.4998 6.35953 13.3098 5.63953 12.9698L5.47953 11.9798C5.45953 11.8698 5.39953 11.7698 5.30953 11.6998C5.21953 11.6298 5.09953 11.5998 4.98953 11.6198L3.99953 11.7798C3.84953 11.6198 3.70953 11.4598 3.58953 11.2898H8.06953C8.06953 11.2898 8.13953 11.2598 8.13953 11.2198V9.64977C8.13953 9.64977 8.10953 9.57977 8.06953 9.57977H6.85953V8.57977H8.21953C8.98953 8.57977 9.12953 9.25976 9.27953 9.97976C9.40953 10.6298 9.54953 11.2898 10.2195 11.2898H12.4095C12.2795 11.4598 12.1395 11.6298 11.9995 11.7798L11.0095 11.6198C10.7795 11.5798 10.5595 11.7398 10.5195 11.9798L10.3595 12.9698C9.63953 13.3098 8.83953 13.4998 7.99953 13.4998ZM6.98953 2.58977L7.69953 3.29977C7.77953 3.37977 7.88953 3.42977 7.99953 3.42977C8.10953 3.42977 8.21953 3.38977 8.29953 3.29977L9.00953 2.58977C10.6595 2.89977 12.0495 3.93977 12.8295 5.35977L12.3795 6.24977C12.2695 6.45977 12.3595 6.71977 12.5695 6.82977L13.4595 7.28977C13.4895 7.51977 13.5095 7.75977 13.5095 7.99977C13.5095 8.13977 13.5095 8.28977 13.4895 8.42977H12.9395C12.9395 8.42977 12.8695 8.45977 12.8695 8.49977V8.78977C12.8695 9.22977 12.6595 9.51977 12.3095 9.55977C12.0195 9.58977 11.6495 9.40977 11.5895 9.06977C11.4795 8.49977 11.0795 7.96977 10.8195 7.78977C11.6395 7.30977 11.9995 6.58977 11.8095 5.81977C11.5895 4.94977 10.7295 4.29977 9.80953 4.29977H3.94953C4.73953 3.43977 5.79953 2.82977 6.98953 2.60977V2.58977ZM9.42953 6.49977C9.42953 6.62977 9.35953 6.74977 9.23953 6.83977C9.09953 6.94977 8.88953 6.99977 8.63953 6.99977H6.84953V5.99977H8.63953C9.17953 5.99977 9.42953 6.25977 9.42953 6.49977ZM3.43953 6.83977C3.64953 6.72977 3.72953 6.46977 3.62953 6.25977L3.49953 5.99977H4.42953V9.56977H2.72953C2.57953 9.06977 2.49953 8.53977 2.49953 7.99977C2.49953 7.75977 2.51953 7.51977 2.54953 7.28977L3.43953 6.82977V6.83977Z" fill="currentColor"/></svg>