<svg fill="none" xmlns="http://www.w3.org/2000/svg" width="16" height="16" viewBox="0 0 16 16"><path d="M12.9902 13.5801C12.9902 13.8801 12.1099 14.1602 11.1699 14.4102C8.60991 15.0801 4.35998 15.5 3 15.5V11.8398C3.8099 11.8398 4.89973 11.7799 6.05957 11.6699C7.78942 11.4999 9.68965 11.21 11.0996 10.8301H11.0898C12.0398 10.5701 12.9902 10.2699 12.9902 9.91992V13.5801Z" fill="currentColor"/><path d="M13 8.87012C12.9999 9.02003 12.8 9.1601 12.4902 9.29004C12.0602 9.46004 11.6297 9.5902 11.1797 9.7002C8.62965 10.3701 4.38947 10.79 3.01953 10.79C3.00972 10.78 3.00977 10.7598 3.00977 10.7598V7.12988C3.80967 7.12988 4.89973 7.06994 6.05957 6.95996C7.7894 6.78998 9.68965 6.50006 11.0996 6.12012C12.0496 5.86012 13 5.54996 13 5.20996V8.87012Z" fill="currentColor"/><path d="M13 4.16016C12.9999 4.31007 12.8 4.45014 12.4902 4.58008C12.0602 4.75008 11.6297 4.88023 11.1797 4.99023C8.62965 5.66018 4.38947 6.08008 3.01953 6.08008C3.00972 6.07002 3.00977 6.0498 3.00977 6.0498V2.41992C5.01965 2.41992 8.74959 2.05009 11.0996 1.41016C12.0496 1.15016 13 0.85 13 0.5V4.16016Z" fill="currentColor"/></svg>