<svg width="16" height="16" viewBox="0 0 16 16" fill="none" xmlns="http://www.w3.org/2000/svg">
<path fill-rule="evenodd" clip-rule="evenodd" d="M10 5H9V4H10V5V5ZM3 6H2V7H3V6V6ZM8 4H7V5H8V4V4ZM4 4H2V5H4V4V4ZM12 11H14V10H12V11V11ZM8 7H9V6H8V7V7ZM4 10H2V11H4V10V10ZM12 4H11V5H12V4V4ZM14 4H13V5H14V4V4ZM12 9H14V6H12V9V9ZM16 3V12C16 12.55 15.55 13 15 13H1C0.45 13 0 12.55 0 12V3C0 2.45 0.45 2 1 2H15C15.55 2 16 2.45 16 3V3ZM15 3H1V12H15V3V3ZM6 7H7V6H6V7V7ZM6 4H5V5H6V4V4ZM4 7H5V6H4V7V7ZM5 11H11V10H5V11V11ZM10 7H11V6H10V7V7ZM3 8H2V9H3V8V8ZM8 8V9H9V8H8V8ZM6 8V9H7V8H6V8ZM5 8H4V9H5V8V8ZM10 9H11V8H10V9V9Z" fill="#424242"/>
</svg>
