<svg xmlns="http://www.w3.org/2000/svg" width="16" height="16"><polygon fill="#2d2d30" points="13.64,7.396 12.169,2.898 10.706,3.761 11.087,2 6.557,2 6.936,3.762 5.473,2.898 4,7.396 5.682,7.554 4.513,8.561 5.013,9 2,9 2,14 7,14 7,10.747 7.978,11.606 8.82,9.725 9.661,11.602 13.144,8.562 11.968,7.554"/><g fill="#C5C5C5"><path d="M12.301 6.518l-2.772.262 2.086 1.788-1.594 1.392-1.201-2.682-1.201 2.682-1.583-1.392 2.075-1.788-2.771-.262.696-2.126 2.358 1.392-.599-2.784h2.053l-.602 2.783 2.359-1.392.696 2.127z"/><rect x="3" y="10" width="3" height="3"/></g></svg>