<svg id="Layer_1" data-name="Layer 1" xmlns="http://www.w3.org/2000/svg" width="16" height="16" viewBox="0 0 16 16"><defs><style>.cls-1{fill:#2d2d30;fill-opacity:0;}.cls-2{fill:none;}.cls-3{fill:#c5c5c5;}</style></defs><title>Search_16x</title><path id="canvas" class="cls-1" d="M16,16H0V0H16Z"/><path id="outline" class="cls-2" d="M11.11,0a5.9,5.9,0,0,1-1,11.71,5.69,5.69,0,0,1-1.91-.33L3.57,16H2.68L0,13.36V12.2L4.51,7.72A5.68,5.68,0,0,1,4.2,5.81,5.91,5.91,0,0,1,9.09,0h2"/><path id="iconBg" class="cls-3" d="M1.32,13.07l1.61,1.61L7.75,9.86a3.82,3.82,0,0,0,2.42.8,4.83,4.83,0,1,0-4.8-4.83,3.48,3.48,0,0,0,.78,2.42ZM6.44,5.83a3.7,3.7,0,0,1,3.72-3.76,3.75,3.75,0,1,1,0,7.51A3.7,3.7,0,0,1,6.44,5.83"/><path id="iconFg" class="cls-2" d="M6.44,5.83a3.7,3.7,0,0,1,3.72-3.76,3.75,3.75,0,1,1,0,7.51A3.7,3.7,0,0,1,6.44,5.83"/></svg>