<svg fill="none" height="16" viewBox="0 0 16 16" width="16" xmlns="http://www.w3.org/2000/svg"><path d="m5 1v5h-5v9h11v-2.586l1 1 4-4v-8.414zm5 3v2l-2-1.414v-.586zm-2 8h-5v-3h5z" fill="#2d2d30"/><g fill="#c5c5c5"><path d="m3 9h2v2h-2zm3 1h2v2h-2zm8-7v3h.586l.414-.414v-3.586h-9v4h1v-3z"/><path d="m9 10.414v2.586h-7v-5h6v-1h-7v7h9v-2.586zm.414-4.414h.586v-2h-2v.586z"/><path d="m13 5h-2v4l-2-2v2l3 3 3-3v-2l-2 2z"/></g><path d="m8 9.414v-1.414h-6v5h7v-2.586zm-3 1.586h-2v-2h2zm3 1h-2v-2h2zm0-7.414v-.586h6v-1h-7v3h1z" fill="#2b282e"/></svg>