<svg xmlns="http://www.w3.org/2000/svg" viewBox="0 0 16 16"><style>.st0{opacity:0}.st0,.st1{fill:#f6f6f6}.st2{fill:#424242}.st3{fill:#f0eff1}</style><g id="outline"><path class="st0" d="M0 0h16v16H0z"/><path class="st1" d="M5 1v5H0v9h11v-2.586l1 1 4-4V1H5zm5 3v2L8 4.586V4h2zm-2 8H3V9h5v3z"/></g><g id="icon_x5F_bg"><path class="st2" d="M3 9h2v2H3zM6 10h2v2H6zM14 3v3h.586L15 5.586V2H6v4h1V3z"/><path class="st2" d="M9 10.414V13H2V8h6V7H1v7h9V11.414zM9.414 6H10V4H8v.586z"/><path class="st2" d="M13 5h-2v4L9 7v2l3 3 3-3V7l-2 2z"/></g><g id="icon_x5F_fg"><path class="st3" d="M8 9.414V8H2v5h7v-2.586l-1-1zM5 11H3V9h2v2zm3 1H6v-2h2v2zM8 4.586V4h6V3H7v3h1z"/></g></svg>