<svg id="svg" version="1.1" xmlns="http://www.w3.org/2000/svg" xmlns:xlink="http://www.w3.org/1999/xlink" width="400" height="400" viewBox="0, 0, 400,400"><g id="svgg"><path id="path0" d="M186.400 95.143 C 187.937 95.612,185.447 96.035,182.713 95.770 C 181.390 95.642,180.799 95.701,181.134 95.927 C 181.562 96.218,181.536 96.339,181.001 96.544 C 179.819 96.998,178.329 96.845,178.611 96.300 C 178.753 96.025,178.532 96.213,178.119 96.718 C 177.470 97.513,177.130 97.603,175.585 97.386 C 174.422 97.223,173.986 97.267,174.334 97.512 C 174.764 97.816,174.738 97.938,174.201 98.144 C 173.289 98.494,173.280 98.491,173.092 97.700 C 172.961 97.149,172.829 97.236,172.469 98.109 C 172.090 99.031,171.843 99.176,171.006 98.966 C 170.241 98.774,170.000 98.869,170.000 99.362 C 170.000 99.867,169.727 99.963,168.770 99.795 C 167.981 99.656,167.630 99.726,167.793 99.989 C 167.937 100.221,167.678 100.400,167.200 100.400 C 166.661 100.400,166.457 100.232,166.638 99.938 C 166.811 99.659,166.748 99.585,166.479 99.751 C 166.235 99.902,166.136 100.290,166.260 100.613 C 166.413 101.011,166.222 101.200,165.666 101.200 C 165.216 101.200,164.736 101.380,164.600 101.600 C 164.464 101.820,164.083 102.000,163.753 102.000 C 163.423 102.000,163.264 101.820,163.400 101.600 C 163.536 101.380,163.457 101.200,163.224 101.200 C 162.991 101.200,162.800 101.530,162.800 101.933 C 162.800 102.416,162.048 103.060,160.600 103.818 C 159.390 104.451,158.400 105.122,158.400 105.308 C 158.400 105.495,158.221 105.537,158.002 105.401 C 157.783 105.266,157.018 105.705,156.302 106.376 C 155.586 107.047,154.775 107.597,154.500 107.598 C 154.225 107.599,154.000 107.750,154.000 107.932 C 154.000 108.115,153.505 108.519,152.900 108.830 C 152.295 109.140,151.509 109.711,151.153 110.097 C 150.797 110.484,150.292 110.800,150.029 110.800 C 149.767 110.800,149.682 111.008,149.839 111.263 C 150.036 111.583,149.848 111.654,149.231 111.492 C 148.564 111.318,148.393 111.404,148.556 111.829 C 148.676 112.143,148.601 112.400,148.387 112.400 C 148.174 112.400,148.000 112.100,148.000 111.733 C 148.000 110.985,147.586 111.235,147.454 112.063 C 147.305 113.004,146.470 114.204,146.173 113.906 C 146.015 113.748,146.131 113.300,146.431 112.910 C 146.731 112.519,146.486 112.636,145.888 113.170 C 144.648 114.275,144.550 114.471,145.400 114.145 C 145.730 114.018,146.000 114.102,146.000 114.330 C 146.000 114.559,145.669 114.851,145.264 114.980 C 144.859 115.108,144.285 115.667,143.989 116.221 C 143.679 116.800,143.218 117.139,142.904 117.019 C 142.604 116.903,142.468 116.987,142.603 117.205 C 142.737 117.422,142.627 117.600,142.357 117.600 C 142.087 117.600,141.972 117.705,142.100 117.833 C 142.507 118.241,140.764 119.672,140.148 119.436 C 139.824 119.311,139.661 119.375,139.786 119.577 C 139.911 119.779,139.827 120.060,139.600 120.200 C 139.373 120.340,139.290 120.621,139.415 120.824 C 139.745 121.359,137.548 123.424,136.818 123.267 C 136.333 123.162,136.304 123.240,136.683 123.629 C 137.253 124.216,135.924 126.400,134.996 126.400 C 134.694 126.400,134.333 126.584,134.194 126.810 C 134.055 127.035,134.089 127.170,134.270 127.110 C 134.452 127.049,134.634 127.180,134.677 127.400 C 134.719 127.620,134.508 127.777,134.208 127.750 C 133.900 127.721,133.755 127.939,133.874 128.250 C 133.991 128.552,133.871 128.800,133.609 128.800 C 133.348 128.800,133.211 129.025,133.307 129.300 C 133.402 129.575,133.147 130.229,132.740 130.754 C 132.333 131.279,132.000 131.973,132.000 132.297 C 132.000 132.667,131.767 132.796,131.374 132.645 C 130.894 132.461,130.806 132.590,131.000 133.199 C 131.334 134.254,130.839 135.082,130.315 134.343 C 130.036 133.949,129.985 134.046,130.128 134.700 C 130.236 135.194,130.162 135.700,129.962 135.823 C 129.763 135.946,129.597 135.812,129.594 135.524 C 129.589 135.136,129.491 135.152,129.217 135.587 C 128.982 135.958,129.002 136.361,129.272 136.687 C 129.692 137.193,129.242 137.417,128.200 137.219 C 127.980 137.177,128.025 137.372,128.300 137.651 C 128.968 138.331,128.932 138.800,128.210 138.800 C 127.758 138.800,127.680 139.105,127.877 140.100 C 128.099 141.220,128.052 141.332,127.538 140.910 C 127.029 140.492,126.966 140.588,127.109 141.562 C 127.201 142.191,127.080 142.827,126.838 142.976 C 126.597 143.125,126.400 143.681,126.400 144.211 C 126.400 144.850,126.220 145.106,125.867 144.970 C 125.476 144.820,125.379 145.079,125.505 145.935 C 125.600 146.579,125.480 147.227,125.238 147.376 C 124.997 147.525,124.800 148.087,124.800 148.624 C 124.800 149.161,124.620 149.600,124.400 149.600 C 124.180 149.600,124.000 150.298,124.000 151.151 C 124.000 152.004,123.761 152.901,123.468 153.143 C 123.161 153.398,123.008 154.076,123.107 154.745 C 123.200 155.383,123.080 156.027,122.838 156.176 C 122.597 156.325,122.400 157.213,122.400 158.148 C 122.400 159.296,122.140 160.128,121.600 160.708 C 120.751 161.620,120.534 162.212,121.200 161.800 C 122.068 161.263,121.590 163.909,120.700 164.570 C 120.205 164.937,120.025 165.128,120.300 164.995 C 120.647 164.827,120.800 165.148,120.800 166.043 C 120.800 166.753,120.689 167.222,120.552 167.086 C 120.416 166.950,120.056 167.087,119.752 167.390 C 119.113 168.030,119.012 168.563,119.600 168.200 C 119.820 168.064,120.000 168.143,120.000 168.376 C 120.000 169.011,119.827 169.409,119.585 169.328 C 119.467 169.289,119.331 169.729,119.283 170.306 C 119.235 170.883,119.003 171.474,118.767 171.620 C 118.532 171.766,118.374 172.136,118.417 172.443 C 118.580 173.608,118.374 174.000,117.600 174.000 C 117.160 174.000,116.800 174.191,116.800 174.424 C 116.800 174.657,116.980 174.736,117.200 174.600 C 117.420 174.464,117.600 174.633,117.600 174.976 C 117.600 175.319,117.399 175.600,117.153 175.600 C 116.904 175.600,116.799 175.953,116.916 176.400 C 117.047 176.900,116.928 177.200,116.600 177.200 C 116.272 177.200,116.153 177.500,116.284 178.000 C 116.401 178.447,116.296 178.800,116.047 178.800 C 115.801 178.800,115.600 179.160,115.600 179.600 C 115.600 180.040,115.420 180.400,115.200 180.400 C 114.980 180.400,114.800 180.198,114.800 179.951 C 114.800 179.641,114.615 179.656,114.200 180.000 C 113.556 180.535,113.358 181.397,113.966 181.021 C 114.815 180.496,114.575 181.847,113.670 182.685 C 113.127 183.188,112.827 183.600,113.004 183.600 C 113.180 183.600,112.994 183.964,112.591 184.409 C 112.025 185.035,111.778 185.103,111.503 184.709 C 111.275 184.383,111.241 184.530,111.407 185.119 C 111.552 185.633,111.454 186.294,111.184 186.619 C 110.493 187.452,109.798 187.347,110.401 186.500 C 110.675 186.115,110.421 186.313,109.835 186.939 C 109.198 187.621,108.857 188.351,108.986 188.757 C 109.127 189.201,108.647 189.977,107.601 190.999 C 106.720 191.859,106.000 192.818,106.000 193.130 C 106.000 193.560,105.869 193.590,105.463 193.252 C 104.900 192.785,104.396 193.031,104.406 193.767 C 104.409 194.005,104.587 193.930,104.800 193.600 C 105.108 193.123,105.189 193.114,105.194 193.553 C 105.201 194.234,103.681 195.600,102.915 195.600 C 102.606 195.600,102.472 195.793,102.618 196.030 C 102.765 196.266,101.938 197.358,100.781 198.455 C 99.415 199.751,98.579 200.289,98.395 199.992 C 98.199 199.675,98.036 199.729,97.868 200.166 C 97.729 200.530,97.833 200.803,98.113 200.806 C 98.421 200.810,98.379 200.955,98.000 201.200 C 97.670 201.413,97.563 201.591,97.762 201.594 C 97.961 201.597,97.646 202.011,97.062 202.513 C 96.478 203.015,96.000 203.645,96.000 203.913 C 96.000 204.181,95.809 204.400,95.576 204.400 C 95.343 204.400,95.281 204.192,95.438 203.938 C 95.616 203.650,95.548 203.585,95.255 203.766 C 94.998 203.925,94.898 204.234,95.033 204.453 C 95.353 204.972,94.010 206.454,93.504 206.140 C 93.270 205.996,93.220 206.233,93.379 206.733 C 93.568 207.328,93.409 207.713,92.822 208.079 C 92.370 208.362,92.000 208.830,92.000 209.120 C 92.000 209.410,91.820 209.536,91.600 209.400 C 91.380 209.264,91.200 209.354,91.200 209.600 C 91.200 209.846,90.992 209.919,90.738 209.762 C 90.466 209.594,90.384 209.651,90.539 209.902 C 91.030 210.695,90.354 211.636,89.453 211.416 C 88.984 211.301,88.825 211.311,89.100 211.437 C 89.923 211.815,89.664 212.474,88.800 212.200 C 88.323 212.049,88.000 212.128,88.000 212.397 C 88.000 212.644,88.180 212.736,88.400 212.600 C 88.989 212.236,88.863 213.284,88.214 214.140 C 87.885 214.574,87.451 214.755,87.165 214.578 C 86.839 214.377,86.780 214.443,86.985 214.776 C 87.304 215.292,86.467 217.286,86.040 217.028 C 85.908 216.949,85.536 217.169,85.213 217.518 C 84.693 218.080,84.704 218.122,85.313 217.889 C 85.691 217.744,86.000 217.799,86.000 218.013 C 86.000 218.226,85.750 218.400,85.443 218.400 C 85.137 218.400,84.763 218.895,84.612 219.500 C 84.461 220.105,84.054 220.915,83.707 221.300 C 83.360 221.685,83.194 222.000,83.338 222.000 C 83.482 222.000,83.240 222.360,82.800 222.800 C 82.360 223.240,82.000 223.889,82.000 224.243 C 82.000 224.634,81.778 224.800,81.431 224.667 C 81.010 224.506,80.908 224.703,81.039 225.424 C 81.136 225.961,81.032 226.400,80.808 226.400 C 80.584 226.400,80.400 226.760,80.400 227.200 C 80.400 227.640,80.136 228.000,79.813 228.000 C 79.455 228.000,79.315 228.235,79.455 228.600 C 79.828 229.572,79.256 230.726,78.766 229.989 C 78.488 229.569,78.450 229.720,78.635 230.516 C 78.823 231.324,78.751 231.600,78.372 231.516 C 78.085 231.452,77.823 231.760,77.790 232.200 C 77.660 233.941,77.136 234.845,76.542 234.352 C 76.078 233.966,76.000 234.119,76.091 235.243 C 76.180 236.346,76.069 236.578,75.500 236.482 C 75.115 236.418,74.800 236.563,74.800 236.806 C 74.800 237.049,74.980 237.136,75.200 237.000 C 75.428 236.859,75.600 237.204,75.600 237.800 C 75.600 238.396,75.428 238.741,75.200 238.600 C 74.973 238.460,74.800 238.796,74.800 239.376 C 74.800 239.939,74.620 240.400,74.400 240.400 C 74.180 240.400,74.000 240.951,74.000 241.624 C 74.000 242.337,73.833 242.744,73.600 242.600 C 73.367 242.456,73.200 242.855,73.200 243.553 C 73.200 244.213,73.020 244.864,72.800 245.000 C 72.580 245.136,72.400 245.597,72.400 246.024 C 72.400 246.451,72.220 246.800,72.000 246.800 C 71.780 246.800,71.600 247.353,71.600 248.029 C 71.600 248.704,71.318 249.539,70.974 249.883 C 70.580 250.277,70.489 250.649,70.728 250.888 C 71.145 251.305,70.876 252.894,70.435 252.622 C 70.285 252.529,69.900 252.635,69.581 252.857 C 69.139 253.164,69.120 253.310,69.500 253.464 C 70.092 253.704,70.181 255.600,69.600 255.600 C 69.380 255.600,69.200 256.230,69.200 257.000 C 69.200 257.770,69.054 258.400,68.875 258.400 C 68.697 258.400,68.543 259.385,68.533 260.589 C 68.519 262.385,68.343 262.929,67.558 263.620 C 67.031 264.082,66.806 264.358,67.057 264.233 C 67.840 263.843,68.070 265.931,67.400 267.343 C 67.058 268.065,66.815 269.183,66.862 269.828 C 67.030 272.160,66.771 274.269,66.424 273.400 C 66.248 272.960,66.149 277.280,66.205 283.000 C 66.260 288.720,66.192 294.210,66.053 295.200 C 65.710 297.637,65.920 299.205,66.558 298.961 C 67.280 298.684,67.250 301.220,66.521 302.060 C 66.135 302.505,66.087 302.807,66.374 302.984 C 66.608 303.129,66.800 303.577,66.800 303.981 C 66.800 304.384,67.072 304.819,67.405 304.946 C 67.892 305.133,67.958 305.620,67.742 307.451 C 67.546 309.125,67.597 309.649,67.938 309.439 C 68.374 309.169,68.587 309.879,68.432 311.091 C 68.397 311.360,68.654 312.015,69.001 312.546 C 69.547 313.378,69.556 313.587,69.065 314.078 C 68.610 314.533,68.595 314.779,68.988 315.316 C 69.258 315.686,69.596 315.870,69.740 315.727 C 69.983 315.484,70.185 317.941,70.021 319.140 C 69.980 319.437,70.139 319.562,70.373 319.417 C 70.640 319.252,70.800 319.611,70.800 320.376 C 70.800 321.049,71.000 321.600,71.243 321.600 C 71.517 321.600,71.590 321.984,71.436 322.600 C 71.251 323.338,71.344 323.600,71.792 323.600 C 72.201 323.600,72.400 323.993,72.400 324.800 C 72.400 325.460,72.580 326.000,72.800 326.000 C 73.020 326.000,73.200 326.450,73.200 327.000 C 73.200 327.550,73.380 328.000,73.600 328.000 C 73.820 328.000,74.000 328.450,74.000 329.000 C 74.000 329.550,74.180 330.000,74.400 330.000 C 74.620 330.000,74.800 330.360,74.800 330.800 C 74.800 331.240,74.980 331.600,75.200 331.600 C 75.420 331.600,75.600 332.050,75.600 332.600 C 75.600 333.150,75.801 333.600,76.047 333.600 C 76.308 333.600,76.414 334.017,76.301 334.603 C 76.137 335.465,76.196 335.536,76.719 335.103 C 77.245 334.669,77.300 334.751,77.120 335.700 C 76.974 336.468,77.077 336.800,77.461 336.800 C 77.853 336.800,77.958 337.173,77.826 338.100 C 77.724 338.815,77.736 339.175,77.853 338.900 C 77.971 338.625,78.188 338.400,78.336 338.400 C 78.778 338.400,79.679 340.749,79.406 341.191 C 79.267 341.416,79.356 341.600,79.605 341.600 C 80.481 341.600,81.315 342.780,80.841 343.350 C 80.510 343.750,80.622 344.064,81.301 344.639 L 82.200 345.400 81.438 344.500 C 81.019 344.005,80.878 343.600,81.124 343.600 C 81.877 343.600,82.574 345.245,81.976 345.615 C 81.632 345.827,81.779 345.971,82.435 346.064 C 83.119 346.160,83.524 346.585,83.828 347.523 C 84.063 348.251,84.418 348.823,84.618 348.793 C 84.817 348.764,85.045 348.934,85.123 349.170 C 85.211 349.434,84.988 349.493,84.547 349.324 C 83.906 349.078,83.892 349.118,84.413 349.682 C 84.736 350.031,85.101 350.256,85.224 350.182 C 85.718 349.885,87.594 352.351,87.352 352.980 C 87.079 353.693,88.295 355.312,88.848 354.970 C 89.036 354.854,89.597 355.155,90.095 355.639 C 90.786 356.310,90.835 356.460,90.300 356.272 C 89.915 356.136,89.600 356.199,89.600 356.413 C 89.600 356.626,89.979 356.800,90.443 356.800 C 91.040 356.800,91.216 356.981,91.047 357.421 C 90.916 357.762,90.953 357.952,91.130 357.843 C 91.587 357.561,101.328 367.469,101.044 367.929 C 100.915 368.138,101.122 368.555,101.504 368.855 C 102.135 369.349,102.148 369.334,101.646 368.694 C 101.149 368.061,101.185 368.003,101.996 368.126 C 102.493 368.202,103.102 368.643,103.350 369.106 C 103.597 369.569,103.980 369.934,104.200 369.919 C 104.420 369.903,104.822 370.320,105.094 370.845 C 105.366 371.370,105.591 371.652,105.594 371.471 C 105.602 371.013,106.800 372.255,106.800 372.722 C 106.800 372.931,107.074 373.330,107.409 373.608 C 107.918 374.030,107.977 374.006,107.766 373.457 C 107.419 372.551,108.125 372.633,109.000 373.600 C 109.398 374.040,109.978 374.400,110.289 374.400 C 110.674 374.400,110.783 374.686,110.631 375.300 C 110.508 375.795,110.511 375.975,110.637 375.700 C 110.971 374.973,111.729 375.086,111.447 375.821 C 111.316 376.162,111.380 376.336,111.588 376.207 C 111.979 375.966,113.354 376.618,114.313 377.500 C 114.766 377.916,114.735 378.004,114.129 378.025 C 113.555 378.045,113.600 378.131,114.337 378.426 C 114.852 378.633,115.442 378.698,115.647 378.571 C 115.852 378.444,115.970 378.579,115.910 378.870 C 115.849 379.162,116.019 379.357,116.286 379.305 C 117.258 379.114,118.886 379.998,118.658 380.593 C 118.535 380.913,118.635 381.298,118.879 381.449 C 119.148 381.615,119.211 381.541,119.038 381.262 C 118.869 380.988,119.007 380.800,119.376 380.800 C 119.719 380.800,120.000 380.967,120.000 381.172 C 120.000 381.377,120.405 381.602,120.900 381.672 C 121.541 381.763,121.766 382.030,121.683 382.600 C 121.595 383.206,121.657 383.266,121.939 382.849 C 122.175 382.499,122.509 382.424,122.855 382.643 C 123.155 382.832,123.490 383.015,123.600 383.048 C 125.698 383.677,126.108 384.092,125.100 384.571 C 124.825 384.701,125.185 384.721,125.900 384.614 C 127.015 384.448,127.200 384.539,127.200 385.259 C 127.200 385.995,127.282 386.030,127.865 385.549 C 128.384 385.121,128.567 385.110,128.698 385.500 C 128.791 385.775,129.212 386.000,129.633 386.000 C 130.055 386.000,130.400 386.160,130.400 386.357 C 130.400 386.553,130.850 386.826,131.400 386.964 C 131.950 387.102,132.400 387.375,132.400 387.570 C 132.400 387.765,132.760 387.831,133.200 387.716 C 133.647 387.599,134.000 387.704,134.000 387.953 C 134.000 388.199,134.360 388.400,134.800 388.400 C 135.333 388.400,135.600 388.667,135.600 389.200 C 135.600 389.640,135.791 390.000,136.024 390.000 C 136.257 390.000,136.336 389.820,136.200 389.600 C 136.064 389.380,136.323 389.200,136.776 389.200 C 137.683 389.200,137.889 389.806,137.100 390.154 C 136.825 390.275,137.304 390.264,138.165 390.130 C 139.573 389.911,139.700 389.961,139.443 390.631 C 139.286 391.041,139.286 391.248,139.442 391.091 C 139.598 390.935,140.003 391.030,140.340 391.303 C 140.829 391.700,140.893 391.699,140.653 391.300 C 140.285 390.688,141.275 390.631,142.405 391.200 C 142.842 391.420,143.558 391.780,143.995 392.000 C 144.432 392.220,145.141 392.400,145.571 392.400 C 146.001 392.400,146.464 392.580,146.600 392.800 C 146.736 393.020,147.387 393.200,148.047 393.200 C 148.707 393.200,149.158 393.344,149.049 393.520 C 148.941 393.696,149.219 394.069,149.668 394.349 C 150.118 394.631,150.365 394.667,150.218 394.430 C 149.684 393.565,151.910 394.010,152.570 394.900 C 152.937 395.395,153.128 395.575,152.995 395.300 C 152.835 394.971,153.085 394.800,153.727 394.800 C 154.805 394.800,155.760 395.672,155.297 396.233 C 155.133 396.430,155.367 396.285,155.816 395.910 C 156.544 395.302,156.752 395.290,157.743 395.804 C 158.355 396.121,159.157 396.357,159.527 396.327 C 160.883 396.219,161.641 396.410,161.400 396.800 C 161.246 397.050,162.063 397.200,163.576 397.200 C 164.925 397.200,166.000 397.377,166.000 397.600 C 166.000 397.820,166.889 398.000,167.976 398.000 C 169.063 398.000,170.070 398.190,170.213 398.422 C 170.374 398.681,171.476 398.768,173.086 398.647 C 175.125 398.495,175.998 398.612,177.060 399.181 C 178.292 399.841,180.732 399.801,181.424 399.109 C 181.598 398.936,174.917 394.541,173.159 393.672 C 172.572 393.382,171.755 392.834,171.345 392.455 C 170.935 392.077,169.700 391.156,168.600 390.410 C 167.500 389.663,166.510 388.948,166.400 388.821 C 166.290 388.693,165.210 387.786,164.000 386.804 C 158.073 381.994,150.770 374.190,147.299 368.955 C 139.345 356.960,134.989 345.874,132.071 330.200 C 131.284 325.976,130.968 323.684,129.987 315.087 C 129.414 310.066,129.376 286.838,129.936 283.964 C 130.168 282.774,130.566 280.450,130.820 278.800 C 133.294 262.755,138.672 249.993,153.996 223.800 C 156.268 219.917,157.172 218.354,158.363 216.253 C 158.783 215.513,159.822 213.758,160.671 212.353 C 163.295 208.016,169.430 195.573,171.250 190.900 C 171.742 189.636,172.336 188.155,172.774 187.100 C 172.979 186.605,173.364 185.480,173.629 184.600 C 173.894 183.720,174.245 182.640,174.410 182.200 C 174.574 181.760,174.930 180.590,175.201 179.600 C 175.471 178.610,175.835 177.350,176.008 176.800 C 176.392 175.583,176.978 173.010,177.601 169.800 C 177.858 168.480,178.158 167.040,178.268 166.600 C 178.379 166.160,178.630 164.270,178.827 162.400 C 180.303 148.402,180.595 146.293,181.544 142.800 C 184.756 130.981,190.127 123.147,195.402 122.588 C 202.041 121.884,208.400 116.087,208.400 110.740 C 208.400 110.553,206.585 110.400,204.366 110.400 L 200.332 110.400 200.564 107.300 C 200.828 103.767,200.542 103.834,200.096 107.409 L 199.797 109.800 193.239 109.910 L 186.680 110.020 187.012 106.510 C 187.735 98.858,187.532 95.011,186.400 94.919 L 185.400 94.839 186.400 95.143 M201.338 95.700 C 201.168 95.975,200.994 97.910,200.952 100.000 C 200.876 103.822,200.992 103.450,201.547 98.100 C 201.861 95.070,201.845 94.881,201.338 95.700 " stroke="none" fill="#94cc54" fill-rule="evenodd"></path><path id="path1" d="M257.900 0.270 C 256.855 0.366,256.000 0.614,256.000 0.822 C 256.000 1.030,255.280 1.200,254.400 1.200 C 253.520 1.200,252.800 1.380,252.800 1.600 C 252.800 1.820,252.339 2.000,251.776 2.000 C 251.196 2.000,250.860 2.173,251.000 2.400 C 251.144 2.633,250.737 2.800,250.024 2.800 C 249.351 2.800,248.800 2.980,248.800 3.200 C 248.800 3.420,248.350 3.600,247.800 3.600 C 247.250 3.600,246.800 3.780,246.800 4.000 C 246.800 4.220,246.440 4.400,246.000 4.400 C 245.560 4.400,245.200 4.580,245.200 4.800 C 245.200 5.020,244.840 5.200,244.400 5.200 C 243.960 5.200,243.600 5.380,243.600 5.600 C 243.600 5.820,243.330 6.000,243.000 6.000 C 242.670 6.000,242.400 6.180,242.400 6.400 C 242.400 6.620,242.130 6.800,241.800 6.800 C 241.470 6.800,241.200 6.980,241.200 7.200 C 241.200 7.420,240.922 7.600,240.583 7.600 C 240.244 7.600,239.749 7.783,239.483 8.007 C 237.637 9.564,237.036 10.000,236.737 10.000 C 236.148 10.000,227.299 19.059,227.015 19.951 C 226.867 20.418,226.606 20.800,226.434 20.800 C 226.262 20.800,225.797 21.520,225.400 22.400 C 225.003 23.280,224.526 24.000,224.339 24.000 C 224.153 24.000,224.000 24.360,224.000 24.800 C 224.000 25.240,223.820 25.600,223.600 25.600 C 223.380 25.600,223.200 25.870,223.200 26.200 C 223.200 26.530,223.020 26.800,222.800 26.800 C 222.580 26.800,222.400 27.160,222.400 27.600 C 222.400 28.040,222.220 28.400,222.000 28.400 C 221.780 28.400,221.600 28.760,221.600 29.200 C 221.600 29.640,221.420 30.000,221.200 30.000 C 220.980 30.000,220.800 30.540,220.800 31.200 C 220.800 31.860,220.620 32.400,220.400 32.400 C 220.180 32.400,220.000 32.760,220.000 33.200 C 220.000 33.640,219.820 34.000,219.600 34.000 C 219.380 34.000,219.200 34.540,219.200 35.200 C 219.200 35.860,219.054 36.400,218.875 36.400 C 218.696 36.400,218.506 37.255,218.453 38.300 C 218.400 39.345,218.187 40.260,217.979 40.333 C 217.349 40.555,217.536 43.090,218.200 43.345 C 218.569 43.486,218.800 44.093,218.800 44.921 C 218.800 46.248,220.016 50.568,220.870 52.274 C 221.110 52.754,221.204 53.543,221.077 54.026 C 220.951 54.509,221.062 55.137,221.324 55.420 C 221.586 55.703,222.700 56.966,223.800 58.226 C 226.921 61.800,231.212 66.000,231.742 66.000 C 232.007 66.000,232.483 66.360,232.800 66.800 C 233.117 67.240,233.657 67.600,234.000 67.600 C 234.343 67.600,234.883 67.960,235.200 68.400 C 235.517 68.840,236.057 69.200,236.400 69.200 C 236.743 69.200,237.283 69.560,237.600 70.000 C 237.917 70.440,238.497 70.800,238.888 70.800 C 239.280 70.800,239.600 70.980,239.600 71.200 C 239.600 71.420,239.836 71.600,240.125 71.600 C 240.414 71.600,241.359 71.941,242.225 72.359 C 244.987 73.689,249.964 75.200,251.585 75.200 C 252.447 75.200,253.264 75.380,253.400 75.600 C 253.536 75.820,254.897 76.000,256.424 76.000 C 258.008 76.000,259.200 76.172,259.200 76.400 C 259.200 76.644,261.067 76.800,264.000 76.800 C 266.933 76.800,268.800 76.644,268.800 76.400 C 268.800 76.175,269.925 76.000,271.376 76.000 C 272.793 76.000,274.049 75.844,274.167 75.653 C 274.285 75.462,275.331 75.181,276.491 75.030 C 278.783 74.731,283.718 73.186,283.933 72.701 C 284.007 72.535,284.303 72.400,284.593 72.400 C 285.363 72.400,290.851 69.476,291.913 68.500 C 292.212 68.225,292.602 68.000,292.778 68.000 C 292.955 68.000,293.787 67.370,294.628 66.600 C 295.469 65.830,296.300 65.200,296.476 65.200 C 297.072 65.200,310.400 51.622,310.400 51.015 C 310.400 50.909,313.294 47.907,316.831 44.345 C 320.367 40.782,323.742 37.225,324.331 36.440 C 324.919 35.655,327.515 32.901,330.100 30.318 C 334.761 25.662,335.787 24.000,334.000 24.000 C 333.560 24.000,333.200 23.820,333.200 23.600 C 333.200 23.380,332.840 23.200,332.400 23.200 C 331.960 23.200,331.600 23.020,331.600 22.800 C 331.600 22.580,331.240 22.400,330.800 22.400 C 330.360 22.400,330.000 22.220,330.000 22.000 C 330.000 21.780,329.640 21.600,329.200 21.600 C 328.760 21.600,328.400 21.420,328.400 21.200 C 328.400 20.980,328.128 20.800,327.795 20.800 C 327.462 20.800,326.877 20.632,326.495 20.426 C 326.113 20.221,325.215 19.817,324.500 19.529 C 323.785 19.240,323.200 18.869,323.200 18.702 C 323.200 18.536,322.840 18.400,322.400 18.400 C 321.960 18.400,321.600 18.220,321.600 18.000 C 321.600 17.780,321.251 17.600,320.824 17.600 C 320.397 17.600,319.936 17.420,319.800 17.200 C 319.664 16.980,319.103 16.800,318.553 16.800 C 317.988 16.800,317.660 16.626,317.800 16.400 C 317.940 16.173,317.604 16.000,317.024 16.000 C 316.461 16.000,316.000 15.820,316.000 15.600 C 316.000 15.380,315.640 15.200,315.200 15.200 C 314.760 15.200,314.400 15.020,314.400 14.800 C 314.400 14.580,314.040 14.400,313.600 14.400 C 313.160 14.400,312.800 14.220,312.800 14.000 C 312.800 13.780,312.440 13.600,312.000 13.600 C 311.560 13.600,311.200 13.420,311.200 13.200 C 311.200 12.980,310.928 12.800,310.595 12.800 C 310.262 12.800,309.677 12.634,309.295 12.431 C 306.350 10.866,300.690 8.400,300.042 8.400 C 299.605 8.400,299.136 8.220,299.000 8.000 C 298.864 7.780,298.403 7.600,297.976 7.600 C 297.549 7.600,297.200 7.420,297.200 7.200 C 297.200 6.980,296.840 6.800,296.400 6.800 C 295.960 6.800,295.600 6.620,295.600 6.400 C 295.600 6.180,295.240 6.000,294.800 6.000 C 294.360 6.000,294.000 5.820,294.000 5.600 C 294.000 5.380,293.640 5.200,293.200 5.200 C 292.760 5.200,292.400 5.059,292.400 4.887 C 292.400 4.715,291.590 4.335,290.600 4.043 C 289.610 3.751,288.800 3.352,288.800 3.156 C 288.800 2.960,288.361 2.800,287.824 2.800 C 287.287 2.800,286.736 2.620,286.600 2.400 C 286.464 2.180,285.924 2.000,285.400 2.000 C 284.876 2.000,284.336 1.820,284.200 1.600 C 284.064 1.380,283.438 1.200,282.810 1.200 C 282.181 1.200,281.595 0.984,281.507 0.720 C 281.345 0.236,262.250 -0.128,257.900 0.270 " stroke="none" fill="#2ccb6b" fill-rule="evenodd"></path><path id="path2" d="M170.900 16.220 C 169.815 17.344,169.200 18.346,169.200 18.991 C 169.200 19.546,169.020 20.000,168.800 20.000 C 168.580 20.000,168.400 20.810,168.400 21.800 C 168.400 22.790,168.580 23.600,168.800 23.600 C 169.020 23.600,169.200 23.960,169.200 24.400 C 169.200 24.840,169.380 25.200,169.600 25.200 C 169.820 25.200,170.000 25.488,170.000 25.840 C 170.000 26.191,170.540 26.983,171.200 27.600 C 171.860 28.217,172.400 28.897,172.400 29.112 C 172.400 29.327,173.163 30.290,174.097 31.252 C 175.030 32.213,175.723 33.000,175.638 33.000 C 175.552 33.000,175.611 33.405,175.768 33.900 C 175.925 34.395,176.177 34.801,176.327 34.801 C 176.477 34.802,177.050 35.792,177.600 37.000 C 178.150 38.208,178.735 39.198,178.900 39.199 C 179.065 39.199,179.200 39.560,179.200 40.000 C 179.200 40.440,179.380 40.800,179.600 40.800 C 179.820 40.800,180.000 41.160,180.000 41.600 C 180.000 42.040,180.180 42.400,180.400 42.400 C 180.620 42.400,180.800 42.749,180.800 43.176 C 180.800 43.603,180.980 44.064,181.200 44.200 C 181.420 44.336,181.600 44.876,181.600 45.400 C 181.600 45.924,181.780 46.464,182.000 46.600 C 182.220 46.736,182.400 47.276,182.400 47.800 C 182.400 48.324,182.580 48.864,182.800 49.000 C 183.020 49.136,183.200 49.766,183.200 50.400 C 183.200 51.034,183.380 51.664,183.600 51.800 C 183.820 51.936,184.000 52.656,184.000 53.400 C 184.000 54.144,184.180 54.864,184.400 55.000 C 184.620 55.136,184.800 55.867,184.800 56.624 C 184.800 57.381,184.980 58.000,185.200 58.000 C 185.422 58.000,185.600 59.059,185.600 60.376 C 185.600 61.683,185.780 62.864,186.000 63.000 C 186.220 63.136,186.400 64.911,186.400 66.944 C 186.400 68.977,186.561 70.811,186.757 71.020 C 187.220 71.513,187.434 101.925,187.007 106.510 L 186.680 110.020 193.240 109.910 L 199.800 109.800 200.090 107.800 C 200.249 106.700,200.538 103.585,200.732 100.877 C 200.926 98.170,201.291 95.749,201.543 95.497 C 202.142 94.898,202.199 66.800,201.600 66.800 C 201.369 66.800,201.200 65.541,201.200 63.824 C 201.200 62.187,201.020 60.736,200.800 60.600 C 200.580 60.464,200.400 59.373,200.400 58.176 C 200.400 56.979,200.220 56.000,200.000 56.000 C 199.780 56.000,199.600 55.100,199.600 54.000 C 199.600 52.900,199.780 52.000,200.000 52.000 C 200.220 52.000,200.400 52.180,200.400 52.400 C 200.400 52.620,201.120 52.800,202.000 52.800 C 202.880 52.800,203.600 52.980,203.600 53.200 C 203.600 53.420,204.219 53.600,204.976 53.600 C 205.733 53.600,206.464 53.780,206.600 54.000 C 206.736 54.220,208.421 54.400,210.344 54.400 C 212.378 54.400,214.026 54.586,214.285 54.845 C 214.709 55.269,215.515 55.225,219.304 54.571 C 221.316 54.224,221.313 54.243,219.972 50.454 C 219.327 48.633,218.800 46.457,218.800 45.620 C 218.800 43.561,218.341 43.295,214.398 43.073 C 210.281 42.842,205.539 42.084,205.020 41.573 C 204.811 41.368,204.226 41.200,203.720 41.200 C 203.214 41.200,202.800 41.020,202.800 40.800 C 202.800 40.580,202.440 40.400,202.000 40.400 C 201.560 40.400,201.200 40.220,201.200 40.000 C 201.200 39.780,200.840 39.600,200.400 39.600 C 199.960 39.600,199.600 39.420,199.600 39.200 C 199.600 38.980,199.240 38.800,198.800 38.800 C 198.360 38.800,198.000 38.620,198.000 38.400 C 198.000 38.180,197.759 38.000,197.464 38.000 C 196.688 38.000,193.200 34.596,193.200 33.840 C 193.200 33.488,193.020 33.200,192.800 33.200 C 192.580 33.200,192.400 32.840,192.400 32.400 C 192.400 31.960,192.243 31.600,192.050 31.600 C 191.858 31.600,191.600 31.105,191.478 30.500 C 191.246 29.352,188.161 24.298,187.551 24.067 C 187.358 23.993,187.200 23.667,187.200 23.341 C 187.200 23.015,186.300 21.871,185.200 20.800 C 184.100 19.729,183.200 18.640,183.200 18.380 C 183.200 17.763,180.397 15.200,179.722 15.200 C 179.435 15.200,179.200 15.020,179.200 14.800 C 179.200 14.563,177.853 14.412,175.900 14.429 L 172.600 14.458 170.900 16.220 " stroke="none" fill="#b3541c" fill-rule="evenodd"></path><path id="path3" d="M201.843 98.111 C 201.363 103.880,200.872 108.174,200.589 109.086 C 200.319 109.956,200.387 109.973,204.452 110.086 C 209.150 110.215,209.321 110.359,208.365 113.366 C 206.586 118.971,199.838 123.600,193.448 123.600 C 192.516 123.600,190.787 125.222,189.183 127.600 C 188.663 128.370,188.140 129.090,188.019 129.200 C 187.805 129.395,187.446 130.004,186.037 132.555 C 182.694 138.610,181.262 144.941,179.604 161.000 C 179.354 163.420,178.985 166.120,178.785 167.000 C 178.584 167.880,178.041 170.468,177.578 172.752 C 177.115 175.035,176.589 177.285,176.410 177.752 C 176.230 178.218,175.867 179.410,175.603 180.400 C 175.338 181.390,174.960 182.513,174.761 182.895 C 174.562 183.277,174.400 183.864,174.400 184.200 C 174.400 184.536,174.241 185.123,174.047 185.505 C 173.601 186.382,173.114 187.575,171.970 190.600 C 170.100 195.541,163.629 208.886,161.950 211.262 C 161.538 211.846,161.200 212.412,161.200 212.521 C 161.200 212.629,160.468 213.923,159.574 215.395 C 156.585 220.315,155.966 221.395,155.736 222.100 C 155.610 222.485,155.348 222.800,155.153 222.800 C 154.959 222.800,154.800 222.983,154.800 223.207 C 154.800 223.431,154.080 224.800,153.200 226.248 C 152.320 227.697,151.600 228.939,151.600 229.009 C 151.600 229.079,150.578 230.906,149.329 233.068 C 145.249 240.132,141.434 247.476,139.495 252.000 C 139.165 252.770,138.585 254.120,138.207 255.000 C 137.828 255.880,137.366 256.960,137.181 257.400 C 132.894 267.554,130.411 280.881,130.109 295.360 C 129.745 312.803,131.435 327.973,135.262 341.600 C 135.479 342.370,135.757 343.450,135.882 344.000 C 136.006 344.550,136.231 345.180,136.382 345.400 C 136.532 345.620,136.900 346.610,137.198 347.600 C 137.495 348.590,137.888 349.571,138.070 349.780 C 138.251 349.989,138.400 350.405,138.400 350.705 C 138.400 351.503,141.414 357.932,143.789 362.200 C 149.361 372.214,159.632 383.499,169.200 390.121 C 170.190 390.806,171.318 391.661,171.707 392.019 C 172.095 392.378,172.905 392.921,173.507 393.226 C 174.108 393.531,175.897 394.640,177.482 395.690 C 179.067 396.741,180.531 397.600,180.734 397.600 C 180.938 397.600,181.654 398.161,182.325 398.848 L 183.545 400.095 199.272 399.853 C 207.923 399.720,215.352 399.600,215.782 399.587 C 216.211 399.573,216.770 399.391,217.023 399.181 C 217.276 398.971,218.504 398.775,219.751 398.747 C 220.998 398.718,222.115 398.538,222.233 398.347 C 222.351 398.156,223.247 398.000,224.224 398.000 C 225.201 398.000,226.000 397.820,226.000 397.600 C 226.000 397.380,226.889 397.200,227.976 397.200 C 229.063 397.200,230.064 397.020,230.200 396.800 C 230.336 396.580,231.067 396.400,231.824 396.400 C 232.581 396.400,233.200 396.220,233.200 396.000 C 233.200 395.780,233.335 395.621,233.500 395.647 C 234.642 395.828,236.407 395.535,236.200 395.200 C 236.050 394.958,236.604 394.800,237.600 394.800 C 238.596 394.800,239.150 394.642,239.000 394.400 C 238.853 394.162,239.329 394.000,240.176 394.000 C 240.959 394.000,241.600 393.820,241.600 393.600 C 241.600 393.380,242.320 393.200,243.200 393.200 C 244.080 393.200,244.800 393.020,244.800 392.800 C 244.800 392.580,245.160 392.400,245.600 392.400 C 246.040 392.400,246.400 392.231,246.400 392.025 C 246.400 391.818,247.204 391.528,248.187 391.381 C 249.170 391.234,250.185 390.859,250.444 390.547 C 250.706 390.231,251.241 390.086,251.656 390.218 C 252.065 390.348,252.400 390.281,252.400 390.070 C 252.400 389.755,253.119 389.438,254.800 389.015 C 256.132 388.679,257.913 387.783,257.755 387.527 C 257.644 387.347,257.908 387.200,258.343 387.200 C 258.778 387.200,259.196 387.012,259.273 386.782 C 259.349 386.552,259.802 386.335,260.278 386.299 C 260.755 386.263,261.056 386.091,260.949 385.917 C 260.769 385.627,261.368 385.437,262.100 385.553 C 262.265 385.579,262.400 385.420,262.400 385.200 C 262.400 384.980,262.749 384.800,263.176 384.800 C 263.603 384.800,264.064 384.620,264.200 384.400 C 264.336 384.180,264.807 384.000,265.247 384.000 C 265.687 384.000,265.936 383.820,265.800 383.600 C 265.590 383.260,266.549 383.005,266.929 383.300 C 266.999 383.355,267.372 383.085,267.757 382.700 C 268.142 382.315,269.299 381.517,270.328 380.927 C 272.762 379.531,275.764 377.481,275.933 377.100 C 276.007 376.935,276.335 376.800,276.662 376.800 C 277.341 376.800,278.400 375.857,278.400 375.252 C 278.400 375.029,278.608 374.719,278.862 374.562 C 279.175 374.368,279.215 374.457,278.985 374.838 C 278.600 375.476,279.961 374.535,280.485 373.800 C 280.642 373.580,280.957 373.378,281.185 373.350 C 281.413 373.322,281.810 373.278,282.067 373.250 C 282.323 373.223,282.416 373.082,282.272 372.939 C 281.932 372.599,284.367 370.802,285.178 370.794 C 285.726 370.788,285.728 370.741,285.200 370.400 C 284.687 370.069,284.702 370.011,285.300 370.006 C 285.685 370.003,286.000 369.820,286.000 369.600 C 286.000 369.380,286.186 369.200,286.413 369.200 C 286.956 369.200,289.370 366.777,289.710 365.891 C 289.856 365.511,290.206 365.200,290.487 365.200 C 291.183 365.199,293.251 363.384,292.926 363.060 C 292.783 362.917,292.977 362.800,293.357 362.800 C 293.737 362.800,293.954 362.649,293.840 362.465 C 293.726 362.280,294.615 361.065,295.816 359.765 C 297.017 358.464,298.000 357.254,298.000 357.076 C 298.000 356.898,298.154 356.848,298.342 356.964 C 298.529 357.080,298.885 356.731,299.133 356.187 C 299.380 355.644,299.767 355.200,299.991 355.200 C 300.216 355.200,300.400 354.900,300.400 354.533 C 300.400 354.167,300.530 353.997,300.689 354.156 C 300.848 354.315,301.355 353.670,301.816 352.723 C 302.276 351.775,302.866 351.045,303.127 351.100 C 303.387 351.155,303.600 350.964,303.600 350.675 C 303.600 350.387,303.955 349.770,304.388 349.305 C 304.943 348.710,305.032 348.400,304.688 348.261 C 304.419 348.152,304.524 348.049,304.924 348.032 C 305.322 348.014,305.544 347.832,305.417 347.627 C 305.290 347.422,305.505 347.017,305.893 346.727 C 306.282 346.437,306.658 345.930,306.730 345.600 C 306.801 345.270,307.028 344.940,307.232 344.866 C 307.437 344.792,307.503 344.567,307.379 344.366 C 307.255 344.165,307.343 344.000,307.576 344.000 C 307.809 344.000,308.000 343.655,308.000 343.233 C 308.000 342.812,308.143 342.407,308.319 342.333 C 308.494 342.260,309.035 341.345,309.521 340.300 C 310.007 339.255,310.594 338.400,310.826 338.400 C 311.058 338.400,311.149 338.240,311.028 338.045 C 310.907 337.850,311.075 337.470,311.400 337.200 C 311.725 336.930,311.892 336.548,311.770 336.352 C 311.649 336.155,311.831 335.886,312.175 335.754 C 312.519 335.622,312.800 335.084,312.800 334.557 C 312.800 334.031,312.999 333.600,313.243 333.600 C 313.486 333.600,313.584 333.335,313.460 333.012 C 313.336 332.688,313.496 332.161,313.817 331.840 C 314.138 331.519,314.400 330.985,314.400 330.652 C 314.400 330.319,314.580 329.936,314.800 329.800 C 315.020 329.664,315.200 329.113,315.200 328.576 C 315.200 328.039,315.380 327.600,315.600 327.600 C 315.820 327.600,316.000 327.251,316.000 326.824 C 316.000 326.397,316.180 325.936,316.400 325.800 C 316.620 325.664,316.800 325.113,316.800 324.576 C 316.800 324.039,316.980 323.600,317.200 323.600 C 317.420 323.600,317.600 322.970,317.600 322.200 C 317.600 321.430,317.741 320.800,317.913 320.800 C 318.085 320.800,318.265 320.323,318.313 319.740 C 318.361 319.158,318.576 318.469,318.791 318.211 C 319.049 317.901,319.021 317.581,318.710 317.270 C 318.350 316.910,318.356 316.800,318.738 316.800 C 319.011 316.800,319.206 316.575,319.170 316.300 C 319.038 315.283,319.211 314.760,319.600 315.000 C 319.838 315.147,320.000 314.679,320.000 313.847 C 320.000 313.077,320.137 312.362,320.305 312.259 C 320.473 312.155,320.657 311.025,320.713 309.747 C 320.770 308.469,320.993 307.247,321.208 307.032 C 321.424 306.816,321.600 305.806,321.600 304.787 C 321.600 303.767,321.735 302.798,321.900 302.632 C 322.065 302.466,322.215 301.491,322.234 300.465 C 322.322 295.654,322.540 292.400,322.774 292.400 C 322.915 292.400,323.023 290.167,323.015 287.438 C 323.005 284.242,322.858 282.561,322.600 282.715 C 322.380 282.846,322.445 282.651,322.745 282.282 C 323.283 281.618,323.093 279.600,322.492 279.600 C 322.332 279.600,322.224 277.575,322.254 275.101 C 322.289 272.154,322.141 270.365,321.825 269.914 C 321.541 269.509,321.397 268.306,321.475 267.001 C 321.567 265.475,321.450 264.717,321.103 264.584 C 320.764 264.454,320.630 263.676,320.696 262.217 C 320.749 261.021,320.615 259.933,320.397 259.798 C 320.179 259.663,320.000 258.933,320.000 258.176 C 320.000 257.419,319.820 256.800,319.600 256.800 C 319.380 256.800,319.200 256.095,319.200 255.233 C 319.200 254.372,319.016 253.605,318.791 253.530 C 318.567 253.456,318.358 252.721,318.327 251.897 C 318.296 251.074,318.120 250.400,317.935 250.400 C 317.751 250.400,317.600 249.986,317.600 249.480 C 317.600 248.974,317.375 248.318,317.100 248.021 C 316.782 247.679,316.769 247.577,317.065 247.743 C 317.320 247.886,317.185 247.291,316.765 246.421 C 316.344 245.551,316.000 244.560,316.000 244.219 C 316.000 243.879,315.820 243.600,315.600 243.600 C 315.380 243.600,315.200 243.060,315.200 242.400 C 315.200 241.740,315.020 241.200,314.800 241.200 C 314.580 241.200,314.400 240.660,314.400 240.000 C 314.400 239.340,314.220 238.800,314.000 238.800 C 313.780 238.800,313.600 238.440,313.600 238.000 C 313.600 237.560,313.420 237.200,313.200 237.200 C 312.980 237.200,312.800 236.765,312.800 236.233 C 312.800 235.702,312.612 235.204,312.382 235.127 C 312.152 235.051,311.935 234.591,311.898 234.105 C 311.861 233.619,311.602 233.133,311.322 233.026 C 311.025 232.911,310.920 232.533,311.070 232.115 C 311.212 231.722,311.182 231.532,311.003 231.694 C 310.613 232.048,309.600 230.215,309.600 229.154 C 309.600 228.739,309.420 228.400,309.200 228.400 C 308.980 228.400,308.797 227.995,308.794 227.500 C 308.789 226.772,308.714 226.715,308.400 227.200 C 308.098 227.668,308.011 227.557,308.006 226.700 C 308.003 226.095,307.826 225.600,307.613 225.600 C 307.399 225.600,307.328 225.332,307.454 225.003 C 307.585 224.663,307.408 224.301,307.042 224.161 C 306.689 224.025,306.400 223.574,306.400 223.157 C 306.400 222.741,306.223 222.400,306.008 222.400 C 305.792 222.400,305.492 221.910,305.342 221.311 C 305.192 220.712,304.693 219.888,304.234 219.480 C 303.775 219.073,303.670 218.877,304.000 219.046 C 304.633 219.371,304.160 218.609,302.896 217.269 C 302.619 216.976,302.512 216.542,302.658 216.306 C 302.804 216.070,302.761 215.975,302.562 216.096 C 302.363 216.217,301.968 216.065,301.684 215.758 C 301.381 215.430,301.342 215.200,301.588 215.200 C 301.858 215.200,301.835 214.925,301.523 214.426 C 301.257 214.000,300.934 213.717,300.805 213.797 C 300.676 213.877,300.345 213.436,300.071 212.816 C 299.797 212.197,299.039 211.132,298.386 210.449 C 297.734 209.766,297.200 209.114,297.200 209.000 C 297.200 208.886,296.660 208.228,296.000 207.537 C 295.340 206.846,294.800 206.117,294.800 205.917 C 294.800 205.717,294.592 205.681,294.338 205.838 C 294.066 206.007,293.984 205.949,294.140 205.697 C 294.375 205.316,293.098 203.697,290.322 200.856 C 289.815 200.337,289.445 199.752,289.500 199.556 C 289.555 199.360,289.319 199.200,288.976 199.200 C 288.633 199.200,288.452 199.039,288.574 198.842 C 288.696 198.645,288.515 198.376,288.172 198.245 C 287.830 198.113,287.664 197.820,287.804 197.593 C 287.945 197.366,287.821 197.230,287.530 197.290 C 287.236 197.351,287.060 197.132,287.133 196.800 C 287.207 196.470,287.140 196.326,286.986 196.481 C 286.713 196.753,285.548 195.854,285.594 195.406 C 285.636 194.994,284.602 194.082,284.300 194.266 C 284.135 194.365,284.000 194.244,284.000 193.995 C 284.000 193.746,283.775 193.315,283.500 193.037 C 283.225 192.759,282.650 192.063,282.223 191.490 C 281.796 190.917,281.301 190.538,281.123 190.648 C 280.945 190.757,280.800 190.606,280.800 190.312 C 280.800 190.017,280.440 189.517,280.000 189.200 C 279.560 188.883,279.200 188.343,279.200 188.000 C 279.200 187.657,278.840 187.117,278.400 186.800 C 277.960 186.483,277.600 185.943,277.600 185.600 C 277.600 185.257,277.240 184.717,276.800 184.400 C 276.360 184.083,276.000 183.503,276.000 183.112 C 276.000 182.720,275.861 182.400,275.691 182.400 C 275.380 182.400,274.279 180.421,273.841 179.075 C 273.702 178.646,273.413 178.468,273.135 178.640 C 272.815 178.838,272.748 178.713,272.926 178.250 C 273.150 177.666,272.658 176.258,272.000 175.600 C 271.405 175.005,270.800 173.483,270.800 172.582 C 270.800 171.998,270.627 171.660,270.400 171.800 C 270.176 171.938,270.000 171.629,270.000 171.099 C 270.000 170.577,269.632 169.389,269.183 168.458 C 268.733 167.528,268.328 166.252,268.283 165.622 C 268.237 164.993,268.065 164.561,267.900 164.663 C 267.627 164.831,267.421 163.282,267.563 162.130 C 267.595 161.872,267.436 161.546,267.211 161.407 C 266.985 161.267,266.800 160.454,266.800 159.600 C 266.800 158.746,266.620 157.936,266.400 157.800 C 266.180 157.664,266.000 156.933,266.000 156.176 C 266.000 155.345,265.802 154.798,265.500 154.794 C 265.132 154.789,265.143 154.697,265.543 154.444 C 265.921 154.204,265.951 154.017,265.643 153.826 C 265.399 153.676,265.200 152.858,265.200 152.010 C 265.200 151.161,265.022 150.407,264.803 150.333 C 264.585 150.260,264.367 149.718,264.319 149.129 C 264.270 148.540,264.088 148.145,263.915 148.252 C 263.742 148.360,263.600 147.907,263.600 147.247 C 263.600 146.587,263.420 145.936,263.200 145.800 C 262.980 145.664,262.800 145.191,262.800 144.748 C 262.800 144.305,262.528 143.671,262.196 143.339 C 261.864 143.007,261.696 142.569,261.822 142.365 C 261.948 142.161,261.759 141.702,261.402 141.345 C 261.046 140.989,260.852 140.441,260.972 140.128 C 261.093 139.812,261.014 139.667,260.795 139.803 C 260.573 139.940,260.400 139.588,260.400 139.000 C 260.400 138.404,260.228 138.059,260.000 138.200 C 259.773 138.340,259.600 138.004,259.600 137.424 C 259.600 136.861,259.420 136.400,259.200 136.400 C 258.980 136.400,258.800 136.040,258.800 135.600 C 258.800 135.160,258.641 134.800,258.447 134.800 C 258.130 134.800,257.754 133.974,257.391 132.479 C 257.199 131.686,255.940 129.839,255.354 129.489 C 255.067 129.319,254.930 128.927,255.048 128.619 C 255.179 128.278,254.820 127.826,254.132 127.466 C 253.509 127.140,253.057 126.811,253.126 126.736 C 253.420 126.417,252.580 124.919,251.535 123.900 C 250.915 123.295,250.574 122.800,250.778 122.800 C 250.981 122.800,250.260 121.888,249.174 120.773 C 248.088 119.659,247.200 118.494,247.200 118.186 C 247.200 117.827,246.960 117.717,246.534 117.881 C 246.146 118.029,245.970 117.973,246.111 117.744 C 246.244 117.529,245.824 116.915,245.177 116.381 C 244.529 115.846,244.000 115.224,244.000 114.999 C 244.000 114.774,243.595 114.405,243.100 114.180 C 242.605 113.955,242.245 113.552,242.300 113.285 C 242.355 113.018,242.175 112.845,241.900 112.900 C 241.625 112.955,241.439 112.793,241.487 112.539 C 241.535 112.286,240.955 111.785,240.200 111.427 C 239.444 111.068,238.645 110.465,238.425 110.087 C 238.205 109.709,238.019 109.575,238.012 109.789 C 238.005 110.003,237.720 109.778,237.377 109.289 C 237.035 108.800,236.432 108.400,236.038 108.400 C 235.645 108.400,235.127 107.995,234.888 107.500 C 234.649 107.005,234.442 106.844,234.427 107.142 C 234.411 107.468,233.959 107.228,233.296 106.542 C 232.689 105.914,231.926 105.341,231.600 105.268 C 231.274 105.195,230.916 105.015,230.804 104.868 C 230.422 104.366,228.813 103.600,228.139 103.600 C 227.769 103.600,227.584 103.483,227.727 103.339 C 228.027 103.040,226.184 102.000,225.354 102.000 C 225.049 102.000,224.800 101.820,224.800 101.600 C 224.800 101.380,224.429 101.200,223.976 101.200 C 223.523 101.200,223.264 101.020,223.400 100.800 C 223.536 100.580,223.287 100.400,222.847 100.400 C 222.407 100.400,221.936 100.220,221.800 100.000 C 221.664 99.780,221.103 99.600,220.553 99.600 C 219.988 99.600,219.660 99.426,219.800 99.200 C 219.938 98.976,219.626 98.800,219.090 98.800 C 218.564 98.800,218.010 98.677,217.859 98.526 C 217.415 98.082,214.676 97.213,213.700 97.206 C 213.205 97.203,212.800 97.020,212.800 96.800 C 212.800 96.580,212.091 96.400,211.224 96.400 C 210.357 96.400,209.536 96.220,209.400 96.000 C 209.264 95.780,208.253 95.600,207.153 95.600 C 206.053 95.600,205.240 95.459,205.347 95.286 C 205.454 95.113,204.771 94.938,203.829 94.897 L 202.117 94.822 201.843 98.111 M92.873 206.200 C 92.622 206.750,92.483 207.200,92.563 207.200 C 92.643 207.200,93.003 206.750,93.363 206.200 C 93.724 205.650,93.863 205.200,93.673 205.200 C 93.484 205.200,93.123 205.650,92.873 206.200 M65.563 276.833 C 65.543 276.925,65.462 277.630,65.382 278.400 L 65.238 279.800 65.642 278.456 C 65.864 277.717,65.945 277.012,65.823 276.889 C 65.700 276.767,65.584 276.742,65.563 276.833 " stroke="none" fill="#a4e464" fill-rule="evenodd"></path><path id="path4" d="M182.766 95.221 C 181.983 95.705,182.978 95.969,184.972 95.806 C 186.916 95.648,187.961 95.228,186.567 95.166 C 186.145 95.147,185.219 95.089,184.509 95.036 C 183.799 94.984,183.015 95.067,182.766 95.221 M179.024 96.213 C 178.284 96.772,178.304 96.800,179.424 96.794 C 180.976 96.786,181.936 96.215,181.001 95.856 C 180.090 95.506,179.916 95.538,179.024 96.213 M201.452 98.753 C 201.298 100.597,201.252 102.185,201.349 102.283 C 201.600 102.533,202.126 96.577,201.910 95.932 C 201.812 95.639,201.606 96.909,201.452 98.753 M175.709 96.926 C 175.908 97.523,177.683 97.551,177.880 96.961 C 177.963 96.710,177.496 96.507,176.788 96.487 C 176.001 96.465,175.608 96.624,175.709 96.926 M173.200 97.800 C 173.200 98.473,173.545 98.549,174.334 98.050 C 174.759 97.780,174.732 97.660,174.201 97.456 C 173.270 97.099,173.200 97.123,173.200 97.800 M170.610 98.384 C 170.497 98.566,170.690 98.826,171.038 98.959 C 171.702 99.214,172.400 98.959,172.400 98.462 C 172.400 98.049,170.858 97.982,170.610 98.384 M168.900 99.065 C 168.139 99.372,168.303 99.822,169.200 99.890 C 169.657 99.924,170.000 99.704,170.000 99.375 C 170.000 98.783,169.764 98.716,168.900 99.065 M164.000 101.200 C 163.219 101.811,163.148 101.984,163.676 101.991 C 164.048 101.996,164.464 101.820,164.600 101.600 C 164.736 101.380,165.197 101.200,165.624 101.200 C 166.051 101.200,166.400 101.020,166.400 100.800 C 166.400 100.142,165.069 100.363,164.000 101.200 M161.258 102.675 C 160.980 102.974,160.583 103.113,160.376 102.985 C 160.169 102.857,160.000 102.943,160.000 103.176 C 160.000 103.409,159.775 103.606,159.500 103.613 C 158.477 103.639,157.409 104.769,157.921 105.281 C 158.185 105.545,158.400 105.582,158.400 105.364 C 158.400 105.147,159.390 104.451,160.600 103.818 C 161.810 103.185,162.800 102.547,162.800 102.400 C 162.800 101.932,161.783 102.114,161.258 102.675 M200.867 105.200 C 200.824 106.190,200.696 107.450,200.583 108.000 L 200.377 109.000 200.807 108.015 C 201.044 107.474,201.171 106.214,201.091 105.215 L 200.944 103.400 200.867 105.200 M155.886 106.078 C 155.356 106.608,154.748 106.983,154.535 106.912 C 154.322 106.841,153.663 107.327,153.071 107.991 C 151.865 109.344,152.179 109.638,153.508 108.400 C 153.980 107.960,154.509 107.594,154.683 107.587 C 155.202 107.567,157.311 105.578,157.070 105.337 C 156.948 105.215,156.415 105.548,155.886 106.078 M150.491 109.521 C 149.519 110.364,149.361 110.800,150.029 110.800 C 150.649 110.800,151.689 109.666,151.523 109.170 C 151.443 108.928,151.003 109.077,150.491 109.521 M204.300 110.291 C 206.555 110.366,208.400 110.575,208.400 110.754 C 208.400 116.087,202.032 121.884,195.402 122.588 C 191.068 123.048,186.676 128.339,183.394 137.052 C 180.990 143.437,180.510 146.086,178.842 162.200 C 178.637 164.180,178.379 166.160,178.268 166.600 C 178.158 167.040,177.858 168.480,177.601 169.800 C 176.978 173.010,176.392 175.583,176.008 176.800 C 175.835 177.350,175.471 178.610,175.201 179.600 C 174.930 180.590,174.574 181.760,174.410 182.200 C 174.245 182.640,173.894 183.720,173.629 184.600 C 173.364 185.480,172.979 186.605,172.774 187.100 C 172.568 187.595,172.244 188.405,172.054 188.900 C 169.709 194.990,163.763 207.242,160.671 212.353 C 159.822 213.758,158.783 215.513,158.363 216.253 C 157.172 218.354,156.268 219.917,153.996 223.800 C 138.672 249.993,133.294 262.755,130.820 278.800 C 130.566 280.450,130.168 282.774,129.936 283.964 C 129.376 286.838,129.414 310.066,129.987 315.087 C 130.968 323.684,131.284 325.976,132.071 330.200 C 134.989 345.874,139.345 356.960,147.299 368.955 C 150.770 374.190,158.073 381.994,164.000 386.804 C 165.210 387.786,166.290 388.693,166.400 388.821 C 166.510 388.948,167.500 389.663,168.600 390.410 C 169.700 391.156,170.935 392.077,171.345 392.455 C 171.755 392.834,172.572 393.382,173.159 393.672 C 173.747 393.962,175.900 395.279,177.944 396.599 L 181.661 398.998 180.531 399.481 C 179.432 399.950,179.453 399.964,181.303 399.982 C 183.433 400.002,183.392 399.031,181.219 397.934 C 180.658 397.651,178.940 396.601,177.400 395.600 C 175.860 394.599,174.108 393.531,173.507 393.226 C 172.905 392.921,172.095 392.378,171.707 392.019 C 171.318 391.661,170.190 390.806,169.200 390.121 C 159.632 383.499,149.361 372.214,143.789 362.200 C 141.414 357.932,138.400 351.503,138.400 350.705 C 138.400 350.405,138.251 349.989,138.070 349.780 C 137.888 349.571,137.495 348.590,137.198 347.600 C 136.900 346.610,136.532 345.620,136.382 345.400 C 136.231 345.180,136.006 344.550,135.882 344.000 C 135.757 343.450,135.479 342.370,135.262 341.600 C 127.562 314.181,128.381 278.244,137.181 257.400 C 137.693 256.187,138.724 253.776,139.448 252.100 C 141.492 247.365,145.230 240.165,149.329 233.068 C 150.578 230.906,151.600 229.079,151.600 229.009 C 151.600 228.939,152.320 227.697,153.200 226.248 C 154.080 224.800,154.800 223.431,154.800 223.207 C 154.800 222.983,154.959 222.800,155.153 222.800 C 155.348 222.800,155.610 222.485,155.736 222.100 C 155.966 221.395,156.585 220.315,159.574 215.395 C 160.468 213.923,161.200 212.629,161.200 212.521 C 161.200 212.412,161.538 211.846,161.950 211.262 C 163.629 208.886,170.100 195.541,171.970 190.600 C 173.114 187.575,173.601 186.382,174.047 185.505 C 174.241 185.123,174.400 184.536,174.400 184.200 C 174.400 183.864,174.562 183.277,174.761 182.895 C 174.960 182.513,175.338 181.390,175.603 180.400 C 175.867 179.410,176.230 178.218,176.410 177.752 C 176.589 177.285,177.115 175.035,177.578 172.752 C 178.041 170.468,178.584 167.880,178.785 167.000 C 178.985 166.120,179.354 163.420,179.604 161.000 C 181.262 144.941,182.694 138.610,186.037 132.555 C 187.446 130.004,187.805 129.395,188.019 129.200 C 188.140 129.090,188.663 128.370,189.183 127.600 C 190.787 125.222,192.516 123.600,193.448 123.600 C 199.838 123.600,206.586 118.971,208.365 113.366 C 209.328 110.335,209.164 110.203,204.395 110.177 L 200.200 110.154 204.300 110.291 M146.153 113.300 C 145.718 113.795,144.788 114.650,144.085 115.200 C 143.382 115.750,142.806 116.436,142.804 116.724 C 142.802 117.012,142.620 117.136,142.400 117.000 C 142.180 116.864,142.000 116.900,142.000 117.080 C 142.000 117.261,141.505 117.942,140.900 118.594 C 140.295 119.247,139.800 119.905,139.800 120.057 C 139.800 120.209,139.423 120.663,138.963 121.066 C 138.502 121.470,137.890 122.250,137.602 122.800 C 137.239 123.493,137.593 123.273,138.754 122.085 C 139.675 121.142,140.321 120.197,140.191 119.985 C 140.060 119.773,140.143 119.600,140.376 119.600 C 140.911 119.600,142.401 118.135,142.137 117.870 C 142.028 117.762,142.284 117.564,142.706 117.430 C 143.127 117.296,143.711 116.740,144.004 116.193 C 144.296 115.647,144.657 115.200,144.806 115.200 C 145.131 115.200,146.386 114.075,147.150 113.100 C 147.956 112.070,147.079 112.246,146.153 113.300 M135.700 125.010 C 134.725 126.052,134.593 126.400,135.173 126.400 C 135.378 126.400,135.930 125.860,136.400 125.200 C 137.417 123.771,136.973 123.651,135.700 125.010 M133.843 127.659 C 132.901 128.759,133.330 129.083,134.404 128.082 C 134.875 127.644,135.099 127.185,134.901 127.063 C 134.704 126.941,134.228 127.209,133.843 127.659 M132.034 130.545 C 131.126 132.014,130.975 132.800,131.600 132.800 C 131.820 132.800,132.000 132.554,132.000 132.254 C 132.000 131.954,132.363 131.246,132.807 130.682 C 133.251 130.118,133.446 129.552,133.241 129.425 C 133.036 129.299,132.493 129.802,132.034 130.545 M130.157 133.833 C 130.291 134.181,130.400 134.551,130.400 134.656 C 130.400 134.761,130.580 134.736,130.800 134.600 C 131.437 134.206,131.263 133.200,130.557 133.200 C 130.135 133.200,129.998 133.418,130.157 133.833 M128.400 136.987 C 128.400 137.344,128.635 137.485,128.998 137.346 C 129.326 137.219,129.496 136.955,129.374 136.758 C 129.025 136.193,128.400 136.340,128.400 136.987 M127.600 138.400 C 127.600 138.620,127.870 138.800,128.200 138.800 C 128.530 138.800,128.800 138.620,128.800 138.400 C 128.800 138.180,128.530 138.000,128.200 138.000 C 127.870 138.000,127.600 138.180,127.600 138.400 M127.169 139.700 C 127.153 139.755,127.074 140.147,126.994 140.570 C 126.915 140.994,126.541 141.916,126.162 142.618 C 125.709 143.460,125.588 144.152,125.808 144.648 C 126.107 145.323,126.157 145.298,126.304 144.400 C 126.394 143.850,126.632 143.229,126.834 143.020 C 127.035 142.811,127.200 142.215,127.200 141.696 C 127.200 141.169,127.377 140.862,127.600 141.000 C 127.820 141.136,128.000 140.877,128.000 140.424 C 128.000 139.787,127.323 139.198,127.169 139.700 M124.874 146.457 C 124.818 147.191,124.942 147.560,125.191 147.405 C 125.674 147.107,125.738 145.733,125.283 145.451 C 125.109 145.344,124.925 145.796,124.874 146.457 M124.110 148.800 C 124.143 149.240,124.312 149.600,124.485 149.600 C 124.658 149.600,124.800 149.240,124.800 148.800 C 124.800 148.360,124.631 148.000,124.425 148.000 C 124.219 148.000,124.077 148.360,124.110 148.800 M123.505 150.800 C 123.052 152.339,123.116 153.444,123.629 152.931 C 123.865 152.695,124.000 151.894,123.929 151.151 C 123.808 149.879,123.783 149.859,123.505 150.800 M122.400 155.000 C 122.400 155.863,122.561 156.347,122.800 156.200 C 123.020 156.064,123.200 155.524,123.200 155.000 C 123.200 154.476,123.020 153.936,122.800 153.800 C 122.561 153.653,122.400 154.137,122.400 155.000 M121.886 157.084 C 121.463 157.737,121.670 160.490,122.109 160.051 C 122.299 159.861,122.397 159.007,122.327 158.153 C 122.251 157.222,122.074 156.794,121.886 157.084 M121.100 161.828 C 120.935 161.996,120.800 162.679,120.800 163.347 C 120.800 164.214,120.923 164.437,121.231 164.129 C 121.468 163.892,121.603 163.208,121.531 162.610 C 121.459 162.012,121.265 161.661,121.100 161.828 M120.219 165.300 C 120.052 165.685,120.052 166.315,120.219 166.700 C 120.603 167.581,120.974 166.481,120.691 165.300 C 120.532 164.633,120.509 164.633,120.219 165.300 M119.410 168.384 C 119.250 168.642,119.222 168.955,119.346 169.079 C 119.470 169.203,119.308 169.681,118.986 170.142 C 118.301 171.119,118.240 171.600,118.800 171.600 C 119.020 171.600,119.200 171.299,119.200 170.931 C 119.200 170.564,119.461 169.975,119.780 169.622 C 120.130 169.236,120.229 168.770,120.030 168.448 C 119.784 168.051,119.626 168.035,119.410 168.384 M117.856 172.678 C 117.475 173.059,117.547 174.000,117.957 174.000 C 118.448 174.000,118.842 172.873,118.438 172.624 C 118.259 172.513,117.996 172.537,117.856 172.678 M115.475 178.414 C 114.720 179.492,114.594 180.400,115.200 180.400 C 115.420 180.400,115.600 180.055,115.600 179.633 C 115.600 179.212,115.807 178.798,116.060 178.713 C 116.313 178.629,116.437 178.310,116.335 178.005 C 116.202 177.605,115.962 177.719,115.475 178.414 M112.853 182.583 C 112.164 183.604,111.600 184.538,111.600 184.658 C 111.600 184.778,111.210 185.424,110.733 186.094 C 110.160 186.899,110.058 187.248,110.433 187.124 C 110.745 187.021,111.196 186.547,111.436 186.071 C 111.675 185.595,112.198 184.844,112.598 184.403 C 112.997 183.961,113.180 183.600,113.004 183.600 C 112.827 183.600,113.141 183.176,113.701 182.657 C 114.320 182.083,114.598 181.521,114.412 181.220 C 114.206 180.885,113.702 181.326,112.853 182.583 M108.683 188.963 C 108.087 189.474,107.600 190.016,107.600 190.166 C 107.600 190.316,107.124 190.880,106.542 191.419 C 105.959 191.959,105.660 192.400,105.875 192.400 C 106.341 192.400,110.166 188.433,109.929 188.196 C 109.839 188.106,109.278 188.451,108.683 188.963 M104.945 193.400 C 104.818 193.730,104.453 194.000,104.134 194.000 C 103.814 194.000,103.657 194.169,103.785 194.375 C 103.912 194.582,103.698 194.936,103.308 195.163 C 102.919 195.390,102.797 195.581,103.039 195.588 C 103.654 195.605,105.200 194.204,105.200 193.629 C 105.200 193.367,105.380 193.264,105.600 193.400 C 105.820 193.536,106.000 193.457,106.000 193.224 C 106.000 192.584,105.207 192.716,104.945 193.400 M101.700 196.217 C 101.425 196.519,101.200 196.984,101.200 197.250 C 101.200 197.516,101.086 197.619,100.946 197.479 C 100.719 197.253,98.400 199.826,98.400 200.304 C 98.400 200.597,99.619 199.600,101.355 197.886 C 102.243 197.009,102.758 196.204,102.555 196.009 C 102.357 195.818,101.979 195.909,101.700 196.217 M97.200 201.312 C 97.200 201.593,96.840 202.083,96.400 202.400 C 95.960 202.717,95.597 203.162,95.593 203.388 C 95.589 203.615,95.139 204.224,94.593 204.742 C 94.047 205.260,93.601 205.890,93.602 206.142 C 93.603 206.394,94.143 206.025,94.802 205.322 C 95.461 204.619,96.000 203.904,96.000 203.734 C 96.000 203.565,96.478 203.015,97.062 202.513 C 97.646 202.011,97.961 201.597,97.762 201.594 C 97.563 201.591,97.670 201.413,98.000 201.200 C 98.513 200.869,98.498 200.811,97.900 200.806 C 97.515 200.803,97.200 201.030,97.200 201.312 M91.694 208.222 C 90.976 208.974,90.403 209.691,90.421 209.816 C 90.439 209.941,89.947 210.679,89.327 211.457 C 88.707 212.234,88.200 213.019,88.200 213.202 C 88.200 213.384,87.766 213.909,87.236 214.369 C 86.706 214.829,86.388 215.321,86.530 215.463 C 86.672 215.605,86.493 215.936,86.133 216.199 C 85.745 216.484,85.641 216.778,85.879 216.925 C 86.099 217.061,86.532 216.684,86.840 216.086 C 87.148 215.489,87.715 214.651,88.100 214.225 C 88.485 213.798,88.800 213.295,88.800 213.106 C 88.800 212.918,89.236 212.328,89.769 211.795 C 90.302 211.262,90.855 210.457,90.998 210.007 C 91.141 209.557,91.425 209.292,91.629 209.418 C 91.833 209.544,92.000 209.410,92.000 209.120 C 92.000 208.830,92.360 208.368,92.800 208.093 C 93.576 207.608,93.907 206.772,93.300 206.827 C 93.135 206.843,92.412 207.470,91.694 208.222 M85.267 217.369 C 85.413 217.533,85.233 217.982,84.867 218.367 C 83.895 219.389,83.000 220.770,83.000 221.248 C 83.000 221.477,82.730 221.876,82.400 222.134 C 82.070 222.392,81.741 222.871,81.668 223.198 C 81.595 223.525,81.415 223.884,81.268 223.996 C 80.716 224.416,80.824 225.166,81.405 224.943 C 81.732 224.817,82.000 224.464,82.000 224.157 C 82.000 223.851,82.360 223.240,82.800 222.800 C 83.240 222.360,83.482 222.000,83.338 222.000 C 83.194 222.000,83.360 221.685,83.707 221.300 C 84.054 220.915,84.461 220.105,84.612 219.500 C 84.763 218.895,85.137 218.400,85.443 218.400 C 86.136 218.400,86.171 217.746,85.500 217.359 C 85.225 217.201,85.120 217.206,85.267 217.369 M80.000 226.320 C 80.000 226.716,79.784 227.256,79.520 227.520 C 79.147 227.893,79.191 228.000,79.720 228.000 C 80.133 228.000,80.400 227.686,80.400 227.200 C 80.400 226.760,80.580 226.400,80.800 226.400 C 81.020 226.400,81.200 226.220,81.200 226.000 C 81.200 225.780,80.930 225.600,80.600 225.600 C 80.270 225.600,80.000 225.924,80.000 226.320 M79.100 228.631 C 78.935 228.797,78.800 229.263,78.800 229.667 C 78.800 230.070,78.625 230.400,78.410 230.400 C 78.196 230.400,77.741 230.940,77.400 231.600 C 76.951 232.469,76.914 232.800,77.266 232.800 C 77.534 232.800,77.421 233.043,77.015 233.339 C 76.580 233.657,76.402 234.080,76.581 234.369 C 76.917 234.912,78.089 233.035,77.908 232.245 C 77.851 232.000,77.960 231.766,78.148 231.723 C 78.651 231.611,79.649 229.542,79.515 228.890 C 79.452 228.581,79.265 228.464,79.100 228.631 M75.600 235.805 C 75.600 236.138,75.380 236.764,75.110 237.195 C 74.723 237.815,74.723 238.083,75.110 238.470 C 75.497 238.857,75.600 238.737,75.600 237.904 C 75.600 237.323,75.780 236.736,76.000 236.600 C 76.220 236.464,76.400 236.093,76.400 235.776 C 76.400 235.459,76.220 235.200,76.000 235.200 C 75.780 235.200,75.600 235.472,75.600 235.805 M74.000 239.600 C 74.000 240.040,74.180 240.400,74.400 240.400 C 74.620 240.400,74.800 240.040,74.800 239.600 C 74.800 239.160,74.620 238.800,74.400 238.800 C 74.180 238.800,74.000 239.160,74.000 239.600 M73.200 241.776 C 73.200 242.093,73.380 242.464,73.600 242.600 C 73.820 242.736,74.000 242.477,74.000 242.024 C 74.000 241.571,73.820 241.200,73.600 241.200 C 73.380 241.200,73.200 241.459,73.200 241.776 M72.517 243.051 C 72.655 243.189,72.505 243.931,72.184 244.700 C 71.496 246.346,71.456 246.800,72.000 246.800 C 72.220 246.800,72.400 246.451,72.400 246.024 C 72.400 245.597,72.580 245.136,72.800 245.000 C 73.359 244.655,73.302 242.800,72.733 242.800 C 72.477 242.800,72.380 242.913,72.517 243.051 M71.067 247.867 C 70.652 248.282,70.753 249.600,71.200 249.600 C 71.420 249.600,71.600 249.150,71.600 248.600 C 71.600 247.553,71.508 247.426,71.067 247.867 M70.000 251.327 C 70.000 252.596,70.636 253.071,70.913 252.010 C 71.026 251.581,70.866 251.021,70.559 250.766 C 70.105 250.389,70.000 250.495,70.000 251.327 M69.200 254.600 C 69.200 255.150,69.380 255.600,69.600 255.600 C 69.820 255.600,70.000 255.150,70.000 254.600 C 70.000 254.050,69.820 253.600,69.600 253.600 C 69.380 253.600,69.200 254.050,69.200 254.600 M68.542 257.200 C 68.516 257.860,68.652 258.400,68.847 258.400 C 69.041 258.400,69.200 257.860,69.200 257.200 C 69.200 256.540,69.063 256.000,68.896 256.000 C 68.728 256.000,68.569 256.540,68.542 257.200 M68.080 259.680 C 67.501 260.259,67.434 263.200,68.000 263.200 C 68.220 263.200,68.419 262.885,68.442 262.500 C 68.580 260.232,68.628 259.200,68.596 259.200 C 68.576 259.200,68.344 259.416,68.080 259.680 M67.071 264.607 C 66.743 265.683,66.850 268.017,67.216 267.790 C 67.749 267.460,68.005 265.684,67.656 264.740 C 67.331 263.862,67.301 263.855,67.071 264.607 M66.372 269.000 C 65.931 272.633,66.357 275.582,66.848 272.303 C 67.005 271.260,66.983 269.910,66.801 269.303 C 66.532 268.411,66.450 268.353,66.372 269.000 M65.445 279.500 C 65.081 281.927,65.250 296.800,65.642 296.800 C 66.071 296.800,66.108 296.061,66.187 285.900 C 66.244 278.488,65.962 276.053,65.445 279.500 M66.267 299.067 C 65.681 299.652,65.966 302.527,66.560 302.033 C 66.868 301.778,67.102 300.946,67.081 300.184 C 67.043 298.837,66.812 298.521,66.267 299.067 M66.806 306.100 C 66.816 308.139,67.445 308.750,67.767 307.033 C 68.045 305.554,67.845 304.800,67.176 304.800 C 66.969 304.800,66.803 305.385,66.806 306.100 M67.870 309.486 C 67.457 310.155,67.716 311.959,68.254 312.165 C 68.519 312.267,68.684 312.811,68.623 313.375 C 68.503 314.463,68.970 314.776,69.327 313.846 C 69.444 313.541,69.267 312.903,68.934 312.427 C 68.601 311.952,68.410 311.346,68.509 311.081 C 68.770 310.384,68.198 308.956,67.870 309.486 M69.467 315.867 C 69.017 316.316,69.170 317.878,69.708 318.324 C 70.107 318.655,70.184 318.409,70.066 317.173 C 69.907 315.503,69.883 315.451,69.467 315.867 M70.134 319.827 C 70.002 320.172,70.098 320.658,70.347 320.907 C 70.684 321.244,70.800 321.084,70.800 320.280 C 70.800 319.077,70.501 318.873,70.134 319.827 M70.800 322.424 C 70.800 322.877,70.980 323.136,71.200 323.000 C 71.420 322.864,71.600 322.493,71.600 322.176 C 71.600 321.859,71.420 321.600,71.200 321.600 C 70.980 321.600,70.800 321.971,70.800 322.424 M71.600 324.400 C 71.600 324.840,71.780 325.200,72.000 325.200 C 72.220 325.200,72.400 324.840,72.400 324.400 C 72.400 323.960,72.220 323.600,72.000 323.600 C 71.780 323.600,71.600 323.960,71.600 324.400 M72.400 326.800 C 72.400 327.240,72.580 327.600,72.800 327.600 C 73.020 327.600,73.200 327.240,73.200 326.800 C 73.200 326.360,73.020 326.000,72.800 326.000 C 72.580 326.000,72.400 326.360,72.400 326.800 M73.292 329.000 C 73.337 329.550,73.515 330.000,73.687 330.000 C 73.859 330.000,74.000 330.360,74.000 330.800 C 74.000 331.240,74.180 331.600,74.400 331.600 C 74.620 331.600,74.800 331.960,74.800 332.400 C 74.800 332.840,74.980 333.200,75.200 333.200 C 75.420 333.200,75.600 332.840,75.600 332.400 C 75.600 331.960,75.420 331.600,75.200 331.600 C 74.980 331.600,74.800 331.240,74.800 330.800 C 74.800 330.360,74.620 330.000,74.400 330.000 C 74.180 330.000,74.000 329.550,74.000 329.000 C 74.000 328.450,73.822 328.000,73.604 328.000 C 73.387 328.000,73.246 328.450,73.292 329.000 M75.600 333.920 C 75.600 334.500,76.594 336.394,76.900 336.397 C 77.065 336.399,77.200 336.029,77.200 335.576 C 77.200 335.123,77.020 334.864,76.800 335.000 C 76.580 335.136,76.400 334.877,76.400 334.424 C 76.400 333.971,76.220 333.600,76.000 333.600 C 75.780 333.600,75.600 333.744,75.600 333.920 M78.426 339.650 C 78.882 340.545,79.353 341.180,79.472 341.062 C 79.794 340.740,78.688 338.443,78.103 338.218 C 77.784 338.096,77.904 338.628,78.426 339.650 M80.163 342.729 C 80.484 343.350,81.027 344.091,81.369 344.374 C 81.711 344.658,81.893 345.050,81.772 345.245 C 81.651 345.440,81.743 345.600,81.976 345.600 C 82.635 345.600,82.477 344.877,81.633 344.033 C 81.212 343.612,80.963 343.170,81.081 343.052 C 81.304 342.829,80.236 341.600,79.818 341.600 C 79.687 341.600,79.842 342.108,80.163 342.729 M82.800 346.989 C 83.350 347.580,83.743 348.185,83.673 348.332 C 83.604 348.480,83.948 348.866,84.437 349.191 C 85.107 349.636,85.284 349.653,85.154 349.261 C 85.058 348.974,84.828 348.799,84.642 348.870 C 84.457 348.942,84.101 348.372,83.852 347.605 C 83.571 346.736,83.098 346.154,82.600 346.062 C 81.871 345.927,81.889 346.009,82.800 346.989 M85.343 350.533 C 85.484 350.936,85.600 351.467,85.600 351.713 C 85.600 352.023,85.748 352.012,86.083 351.677 C 86.460 351.300,86.404 351.042,85.826 350.497 C 85.122 349.833,85.099 349.835,85.343 350.533 M86.475 352.025 C 86.571 352.314,86.886 352.629,87.175 352.725 C 87.475 352.825,87.625 352.675,87.525 352.375 C 87.429 352.086,87.114 351.771,86.825 351.675 C 86.525 351.575,86.375 351.725,86.475 352.025 M87.600 353.463 C 87.600 353.993,89.995 356.400,90.523 356.400 C 90.758 356.400,90.512 356.002,89.975 355.516 C 89.439 355.029,88.685 354.282,88.300 353.854 C 87.915 353.427,87.600 353.251,87.600 353.463 M90.400 357.424 C 90.400 357.767,90.580 357.936,90.800 357.800 C 91.020 357.664,91.200 357.740,91.200 357.968 C 91.200 358.196,92.437 359.640,93.949 361.176 C 95.461 362.712,96.586 364.095,96.449 364.249 C 96.312 364.402,96.425 364.399,96.700 364.241 C 96.975 364.082,97.200 364.146,97.200 364.382 C 97.200 364.959,99.665 367.174,100.324 367.188 C 100.612 367.195,100.736 367.380,100.600 367.600 C 100.464 367.820,100.500 368.000,100.680 368.000 C 101.014 368.000,102.219 369.012,104.893 371.538 C 106.324 372.890,107.582 373.125,106.248 371.790 C 105.891 371.434,105.597 371.291,105.594 371.471 C 105.591 371.652,105.366 371.370,105.094 370.845 C 104.822 370.320,104.450 369.960,104.268 370.045 C 104.085 370.130,103.702 369.764,103.416 369.231 C 103.131 368.697,102.645 368.224,102.336 368.179 C 101.772 368.096,91.516 357.913,91.267 357.188 C 91.052 356.564,90.400 356.742,90.400 357.424 M107.600 373.219 C 107.600 373.449,108.163 373.944,108.850 374.319 C 109.538 374.693,110.520 375.405,111.032 375.900 C 111.545 376.395,112.130 376.800,112.333 376.800 C 112.536 376.800,112.926 377.070,113.200 377.400 C 113.474 377.730,113.959 378.000,114.278 378.000 C 114.775 378.000,114.772 377.915,114.257 377.400 C 113.927 377.070,113.491 376.800,113.288 376.800 C 113.085 376.800,112.354 376.260,111.663 375.600 C 110.972 374.940,110.254 374.400,110.066 374.400 C 109.878 374.400,109.398 374.040,109.000 373.600 C 108.210 372.727,107.600 372.561,107.600 373.219 M116.400 379.573 C 116.400 379.808,116.670 380.000,117.000 380.000 C 117.330 380.000,117.600 380.159,117.600 380.353 C 117.600 380.548,117.915 380.818,118.300 380.954 C 118.685 381.089,119.225 381.305,119.500 381.434 C 119.775 381.562,120.000 381.472,120.000 381.233 C 120.000 380.995,119.795 380.800,119.544 380.800 C 119.293 380.800,118.888 380.548,118.644 380.240 C 118.061 379.506,116.400 379.012,116.400 379.573 M120.400 382.000 C 120.400 382.220,120.760 382.400,121.200 382.400 C 121.640 382.400,122.000 382.538,122.000 382.706 C 122.000 382.972,124.868 384.400,125.403 384.400 C 125.975 384.400,125.484 383.663,124.791 383.482 C 124.346 383.365,123.851 383.235,123.691 383.191 C 123.531 383.148,122.922 382.772,122.338 382.356 C 121.170 381.524,120.400 381.383,120.400 382.000 M126.000 385.000 C 125.584 385.501,125.642 385.600,126.351 385.600 C 126.839 385.600,127.200 385.345,127.200 385.000 C 127.200 384.670,127.042 384.400,126.849 384.400 C 126.656 384.400,126.274 384.670,126.000 385.000 M127.867 385.467 C 127.420 385.913,127.568 386.400,128.149 386.400 C 128.765 386.400,132.068 387.801,132.521 388.255 C 133.250 388.983,135.600 389.516,135.600 388.953 C 135.600 388.649,135.240 388.400,134.800 388.400 C 134.360 388.400,134.000 388.199,134.000 387.953 C 134.000 387.704,133.647 387.599,133.200 387.716 C 132.760 387.831,132.400 387.765,132.400 387.570 C 132.400 387.375,131.950 387.102,131.400 386.964 C 130.850 386.826,130.400 386.553,130.400 386.357 C 130.400 386.160,130.040 386.000,129.600 386.000 C 129.160 386.000,128.800 385.820,128.800 385.600 C 128.800 385.145,128.265 385.068,127.867 385.467 M136.200 389.600 C 136.336 389.820,136.707 390.000,137.024 390.000 C 137.341 390.000,137.600 389.820,137.600 389.600 C 137.600 389.380,137.229 389.200,136.776 389.200 C 136.323 389.200,136.064 389.380,136.200 389.600 M138.000 390.353 C 138.000 390.548,138.434 390.790,138.963 390.891 C 139.654 391.023,139.868 390.923,139.721 390.538 C 139.494 389.947,138.000 389.787,138.000 390.353 M140.600 391.200 C 140.736 391.420,141.161 391.600,141.544 391.600 C 141.927 391.600,142.437 391.797,142.678 392.038 C 142.918 392.278,143.449 392.396,143.858 392.299 C 144.556 392.134,144.553 392.107,143.800 391.833 C 143.360 391.673,142.687 391.375,142.305 391.171 C 141.383 390.678,140.289 390.697,140.600 391.200 M145.020 392.752 C 145.830 393.501,148.458 394.102,148.917 393.643 C 149.241 393.319,149.023 393.200,148.104 393.200 C 147.413 393.200,146.736 393.020,146.600 392.800 C 146.464 392.580,145.967 392.400,145.496 392.400 C 144.982 392.400,144.792 392.541,145.020 392.752 M149.849 394.320 C 149.741 394.496,150.285 394.683,151.059 394.735 C 151.948 394.795,152.371 394.677,152.209 394.415 C 151.908 393.927,150.136 393.856,149.849 394.320 M153.000 395.200 C 153.136 395.420,153.676 395.600,154.200 395.600 C 154.724 395.600,155.275 395.798,155.425 396.040 C 155.579 396.289,156.192 396.382,156.836 396.253 C 157.654 396.089,158.097 396.219,158.410 396.713 C 158.716 397.194,158.800 397.220,158.692 396.800 C 158.472 395.949,156.747 395.146,156.169 395.626 C 155.861 395.881,155.538 395.807,155.204 395.405 C 154.653 394.741,152.598 394.550,153.000 395.200 M159.398 396.403 C 159.062 396.946,160.229 397.355,161.100 397.000 C 161.743 396.738,161.734 396.687,161.000 396.385 C 159.904 395.935,159.686 395.937,159.398 396.403 M163.200 397.600 C 163.200 397.820,163.830 398.000,164.600 398.000 C 165.370 398.000,166.000 397.820,166.000 397.600 C 166.000 397.380,165.370 397.200,164.600 397.200 C 163.830 397.200,163.200 397.380,163.200 397.600 M167.000 398.400 C 167.136 398.620,167.967 398.800,168.847 398.800 C 169.812 398.800,170.349 398.641,170.200 398.400 C 170.064 398.180,169.233 398.000,168.353 398.000 C 167.388 398.000,166.851 398.159,167.000 398.400 M172.404 398.752 C 170.947 399.165,171.844 399.470,174.800 399.569 C 176.836 399.638,177.296 399.551,176.922 399.170 C 176.353 398.592,173.803 398.356,172.404 398.752 " stroke="none" fill="#9cd457" fill-rule="evenodd"></path></g></svg>