<svg xmlns="http://www.w3.org/2000/svg" viewBox="0 0 16 16" enable-background="new 0 0 16 16" height="16" width="16"><path fill="#F6F6F6" d="M13.5 4.2C13.1 2.1 10.8 0 9.3 0H6.7c-.4 0-.6.2-.6.2C4 .8 2.5 2.7 2.5 4.9c0 .5-.1 2.3 1.7 3.8.5.5 1.2 2 1.3 2.4v3.3L7.1 16h2l1.5-1.6V11c.1-.4.8-1.9 1.3-2.3 1.1-.9 1.5-1.9 1.6-2.7V4.2z"/><g><g fill="#848484"><path d="M6.5 12h3v1h-3zM7.5 15h1.1l.9-1h-3z"/></g><path fill="#fc0" d="M12.6 5c0-2.3-1.8-4.1-4.1-4.1-.1 0-1.4.1-1.4.1-2.1.3-3.7 2-3.7 4 0 .1-.2 1.6 1.4 3 .7.7 1.5 2.4 1.6 2.9l.1.1h3l.1-.2c.1-.5.9-2.2 1.6-2.9 1.6-1.3 1.4-2.8 1.4-2.9zm-3 1l-.5 3h-.6V6c1.1 0 .9-1 .9-1H6.5v.1c0 .2.1.9 1 .9v3H7l-.2-.7L6.5 6c-.7 0-.9-.4-1-.7v-.4c0-.8.9-.9.9-.9h3.1s1 .1 1 1c0 0 .1 1-.9 1z"/></g><path fill="#F0EFF1" d="M10.5 5c0-.9-1-1-1-1H6.4s-.9.1-.9.9v.4c0 .3.3.7.9.7l.4 2.3.2.7h.5V6c-1 0-1-.7-1-.9V5h3s.1 1-.9 1v3h.6l.5-3c.9 0 .8-1 .8-1z"/></svg>