<svg fill="none" height="28" viewBox="0 0 28 28" width="28" xmlns="http://www.w3.org/2000/svg"><path d="m21.6623 16.3901 3.3377-.5562v-3.6662l-3.333-.5563c-.1446-.4632-.3308-.9123-.5563-1.342l1.9643-2.74997-2.5929-2.59286-2.7531 1.96586c-.2153-.11314-.4117-.24986-.6411-.34414-.2295-.09429-.4715-.13672-.6978-.209l-.5562-3.33929h-3.6662l-.5563 3.333c-.4632.14457-.9123.33075-1.342.55629l-2.74997-1.96429-2.59286 2.59286 1.96586 2.75314c-.11314.2153-.24986.4117-.34414.6411-.09429.2295-.13672.4715-.209.6978l-3.33929.5562v3.6662l3.333.5563c.1446.4632.33078.9123.55629 1.342l-1.96429 2.75 2.59286 2.5928 2.75314-1.9674c.2153.1131.4117.2499.6411.3457.2295.0959.4715.1367.6978.209l.5562 3.3393h3.6662l.5563-3.333c.4632-.1446.9123-.3308 1.342-.5563l2.75 1.9643 2.5928-2.5929-1.9674-2.7531c.1131-.2153.2499-.4133.3441-.6427.0943-.2294.1399-.4636.2122-.6962zm-7.6623 1.0859c-.6875 0-1.3595-.2039-1.9312-.5858-.5716-.382-1.0171-.9248-1.2802-1.56-.2631-.6351-.3319-1.3341-.1978-2.0083.1341-.6743.4652-1.2937.9513-1.7798s1.1055-.8172 1.7798-.9513c.6742-.1341 1.3732-.0653 2.0083.1978.6352.2631 1.178.7086 1.56 1.2802.3819.5717.5858 1.2437.5858 1.9312 0 .9219-.3662 1.806-1.0181 2.4579s-1.536 1.0181-2.4579 1.0181z" fill="#fff"/></svg>