<svg xmlns="http://www.w3.org/2000/svg" viewBox="0 0 38 38"><style>.st0{fill:#f6f6f6;fill-opacity:0}.st1{display:none}.st2{display:inline;fill:#f6f6f6}.st3{fill:#424242}</style><title>configure</title><path class="st0" d="M27 11v16H11V11h16z" id="canvas"/><g id="outline" class="st1" style="display: none;"><path class="st2" d="M27 21l-2.2.4 1.3 1.8-2.8 2.8-1.8-1.3L21 27h-4l-.4-2.2-1.8 1.3-2.8-2.8 1.3-1.8L11 21v-4l2.2-.4-1.3-1.8 2.8-2.8 1.8 1.3.5-2.3h4l.4 2.2 1.8-1.3 2.8 2.8-1.3 1.8 2.3.5v4z"/></g><path class="st3" d="M24.6 20.7l2.4-.4v-2.7l-2.4-.4c-.1-.3-.2-.7-.4-1l1.4-2-1.9-1.9-2 1.4c-.2-.1-.3-.2-.5-.3-.2-.1-.3-.1-.5-.2l-.4-2.2h-2.7l-.4 2.4c-.3.1-.7.2-1 .4l-2-1.4-1.9 1.9 1.4 2c-.1.2-.2.3-.3.5-.1.2-.1.3-.2.5l-2.2.4v2.7l2.4.4c.1.3.2.7.4 1l-1.4 2 1.9 1.9 2-1.4c.2.1.3.2.5.3.2.1.3.1.5.2l.4 2.4h2.7l.4-2.4c.3-.1.7-.2 1-.4l2 1.4 1.9-1.9-1.4-2c.1-.2.2-.3.3-.5-.1-.3-.1-.5 0-.7zm-5.6.8c-1.4 0-2.5-1.1-2.5-2.5s1.1-2.5 2.5-2.5 2.5 1.1 2.5 2.5-1.1 2.5-2.5 2.5z" id="iconBg"/></svg>