<svg xmlns="http://www.w3.org/2000/svg" width="32" height="32"><path d="M27.459 14.902l-10.439-10.439c-.296-.294-.672-.452-1.089-.452-.417 0-.793.157-1.089.452l-2.248 2.247 2.549 2.549c.249-.112.522-.177.813-.177 1.106 0 2.002.896 2.002 2.002 0 .291-.064.565-.176.814l2.311 2.336c.25-.111.633-.234.923-.234 1.106 0 2 .911 2 2.016s-.894 1.969-2 1.969c-1.105-.001-2.016-.751-2.016-1.985 0-.28.016-.462.119-.704l-2.373-2.374-.023.007v6.274c.747.295 1.277 1.026 1.277 1.875 0 1.105-.878 2.016-1.984 2.016-1.104 0-2.031-.926-2.031-2.031 0-.846.535-1.564 1.28-1.857l.001-6.25c-.762-.282-1.309-1.009-1.309-1.871 0-.28.059-.546.162-.788l-2.555-2.557-7.115 7.114c-.599.601-.601 1.576.001 2.178l10.44 10.518c.296.295.671.45 1.089.45.415 0 .796-.159 1.089-.45l10.391-10.471c.601-.599.599-1.576 0-2.177z" fill="#fff"/></svg>