<svg xmlns="http://www.w3.org/2000/svg" width="16" height="16"><path fill="#C5C5C5" d="M15 4v6h-2.276c.113-.318.187-.653.226-1h1.05v-5h-2v-2h-4v2.051c-.347.038-.681.112-1 .225v-3.276h5l3 3zm-7 8.949v1.051h-6v-7h2.276c.126-.354.28-.693.485-1h-3.761v9h8v-2.051c-.166.02-.329.051-.5.051l-.5-.051z"/><path fill="#75BEFF" d="M12 8.5c0-1.933-1.567-3.5-3.5-3.5s-3.5 1.567-3.5 3.5 1.567 3.5 3.5 3.5c.711 0 1.369-.215 1.922-.578l3.578 3.578 1-1-3.578-3.578c.363-.553.578-1.211.578-1.922zm-3.5 2.5c-1.381 0-2.5-1.119-2.5-2.5s1.119-2.5 2.5-2.5 2.5 1.119 2.5 2.5-1.119 2.5-2.5 2.5z"/></svg>