<svg fill="none" height="16" viewBox="0 0 16 16" width="16" xmlns="http://www.w3.org/2000/svg"><path clip-rule="evenodd" d="m6 12h-1c-.27-.02-.48-.11-.69-.31s-.3-.42-.31-.69v-6.28c.59-.34 1-.98 1-1.72 0-1.11-.89-2-2-2s-2 .89-2 2c0 .73.41 1.38 1 1.72v6.28c.03.78.34 1.47.94 2.06s1.28.91 2.06.94c0 0 1.02 0 1 0v2l3-3-3-3zm-3-10.2c.66 0 1.2.55 1.2 1.2s-.55 1.2-1.2 1.2-1.2-.55-1.2-1.2.55-1.2 1.2-1.2zm11 9.48c0-1.73 0-6.28 0-6.28-.03-.78-.34-1.47-.94-2.06s-1.28-.91-2.06-.94h-1v-2l-3 3 3 3v-2h1c.27.02.48.11.69.31s.3.42.31.69v6.28c-.59.34-1 .98-1 1.72 0 1.11.89 2 2 2s2-.89 2-2c0-.73-.41-1.38-1-1.72zm-1 2.92c-.66 0-1.2-.55-1.2-1.2s.55-1.2 1.2-1.2 1.2.55 1.2 1.2-.55 1.2-1.2 1.2z" fill="#c5c5c5" fill-rule="evenodd"/></svg>