<svg width="16" height="16" viewBox="0 0 16 16" fill="none" xmlns="http://www.w3.org/2000/svg">
<path style="fill: #C5C5C5 !important;" d="M11 7.394L13.0177 9.41086L12.4109 10.0169L11.4286 9.03457V12.2857H8V11.4286H10.5714V9.03457L9.58914 10.0169L8.98229 9.41086L11 7.394ZM14 3.53686V8.85714H13.1429V4.57143H11.4286V2.85714H9.71429V8H8.85714V2H12.4631L14 3.53686ZM12.9654 3.71429L12.2857 3.03457V3.71429H12.9654ZM2 12.2857H7.14286V11.4286H2V12.2857ZM2 14H7.14286V13.1429H2V14ZM2 10.5714H7.14286V9.71429H2V10.5714Z"/>
<path style="fill: #75BEFF !important;" d="M11 7.38538L13.0177 9.40223L12.4109 10.0082L11.4286 9.02595V12.2771H8V11.4199H10.5714V9.02595L9.58914 10.0082L8.98229 9.40223L11 7.38538Z"/>
</svg>
