<svg width="16" height="16" viewBox="0 0 16 16" fill="none" xmlns="http://www.w3.org/2000/svg">
<path fill-rule="evenodd" clip-rule="evenodd" d="M5.56253 2.5158C3.46348 3.45013 2 5.55417 2 8.00002C2 11.3137 4.68629 14 8 14C11.3137 14 14 11.3137 14 8.00002C14 5.32522 12.2497 3.05922 9.83199 2.28485L9.52968 3.23835C11.5429 3.88457 13 5.77213 13 8.00002C13 10.7614 10.7614 13 8 13C5.23858 13 3 10.7614 3 8.00002C3 6.31107 3.83742 4.8177 5.11969 3.91248L5.56253 2.5158Z" fill="#C5C5C5"/>
<path fill-rule="evenodd" clip-rule="evenodd" d="M5 3H2V2H5.5L6 2.5V6H5V3Z" fill="#C5C5C5"/>
</svg>
