<svg width="16" height="16" viewBox="0 0 16 16" fill="none" xmlns="http://www.w3.org/2000/svg">
<path fill-rule="evenodd" clip-rule="evenodd" d="M7.50001 1C6.21443 1 4.95772 1.38123 3.8888 2.09546C2.81988 2.80969 1.98679 3.82485 1.49482 5.01257C1.00285 6.20029 0.874083 7.50719 1.12489 8.76807C1.37569 10.0289 1.99478 11.1872 2.90382 12.0962C3.81286 13.0052 4.97107 13.6243 6.23194 13.8751C7.49282 14.1259 8.79972 13.9972 9.98744 13.5052C11.1752 13.0133 12.1903 12.1801 12.9045 11.1112C13.6188 10.0423 14 8.78558 14 7.5C14 5.77609 13.3152 4.1228 12.0962 2.90381C10.8772 1.68482 9.22392 1 7.50001 1ZM7.50001 13C6.41221 13 5.34881 12.6775 4.44434 12.0731C3.53987 11.4688 2.83493 10.6097 2.41865 9.60474C2.00237 8.59974 1.89344 7.4939 2.10566 6.427C2.31788 5.36011 2.84172 4.38015 3.61091 3.61096C4.3801 2.84177 5.36012 2.31793 6.42701 2.10571C7.49391 1.89349 8.59975 2.00242 9.60474 2.4187C10.6097 2.83498 11.4687 3.53987 12.0731 4.44434C12.6774 5.34881 13 6.4122 13 7.5C13 8.95869 12.4206 10.3576 11.3891 11.389C10.3577 12.4205 8.9587 13 7.50001 13ZM9.04999 4.57994C8.87722 4.40004 8.6697 4.25723 8.44 4.16002C8.151 4.04431 7.84117 3.98979 7.53003 3.99999C7.22804 3.9945 6.92825 4.05246 6.65002 4.17003C6.41146 4.27028 6.19928 4.42423 6.03003 4.61998C5.86442 4.8001 5.73536 5.01066 5.65002 5.23998C5.57068 5.47292 5.52028 5.7147 5.5 5.95995H6.72998C6.73725 5.74494 6.82673 5.54098 6.97998 5.39C7.05193 5.31511 7.13924 5.25671 7.2359 5.21874C7.33256 5.18076 7.43629 5.16414 7.53998 5.17003C7.62942 5.15581 7.72056 5.15581 7.81 5.17003C7.89216 5.2011 7.96708 5.24877 8.03003 5.31004C8.0995 5.37016 8.15422 5.4454 8.19 5.53001C8.23097 5.62465 8.25141 5.72683 8.25 5.82994C8.25037 6.00265 8.21283 6.17333 8.14001 6.32994C8.06739 6.49283 7.97681 6.6472 7.87 6.79002L7.52002 7.20995C7.40002 7.33995 7.27998 7.47998 7.16998 7.61998C7.06332 7.75933 6.97279 7.91024 6.90002 8.06993C6.83065 8.22732 6.79648 8.39797 6.79999 8.56993V9.22997H8V8.73998C8.00339 8.59331 8.04105 8.44943 8.10999 8.31993C8.19183 8.17576 8.28551 8.03871 8.39001 7.91002L8.75 7.46996C8.88106 7.31855 9.00134 7.15818 9.10999 6.98998C9.22491 6.81846 9.31894 6.63376 9.39001 6.43993C9.46294 6.23444 9.50013 6.01808 9.5 5.80003C9.50178 5.57285 9.46807 5.34675 9.40002 5.12999C9.32451 4.9235 9.20506 4.7358 9.04999 4.57994ZM6.8 9.82996H7.97V11H6.8V9.82996Z" fill="#C5C5C5"/>
</svg>
