<svg width="16" height="16" viewBox="0 0 16 16" fill="none" xmlns="http://www.w3.org/2000/svg">
<path fill-rule="evenodd" clip-rule="evenodd" d="M8.6 0.999985C10.2 1.09999 11.7 1.89999 12.8 2.99999C14.1 4.39999 14.8 6.09999 14.8 8.09999C14.8 9.69999 14.2 11.2 13.2 12.5C12.2 13.7 10.8 14.6 9.2 14.9C7.6 15.2 6 15 4.6 14.2C3.2 13.4 2.1 12.2 1.5 10.7C0.899997 9.19999 0.799997 7.49999 1.3 5.99999C1.8 4.39999 2.7 3.09999 4.1 2.19999C5.4 1.29999 7 0.899985 8.6 0.999985ZM9.1 13.9C10.4 13.6 11.6 12.9 12.5 11.8C13.3 10.7 13.8 9.39999 13.7 7.99999C13.7 6.39999 13.1 4.79999 12 3.69999C11 2.69999 9.8 2.09999 8.4 1.99999C7.1 1.89999 5.7 2.19999 4.6 2.99999C3.5 3.79999 2.7 4.89999 2.3 6.29999C1.9 7.59999 1.9 8.99999 2.5 10.3C3.1 11.6 4 12.6 5.2 13.3C6.4 14 7.8 14.2 9.1 13.9ZM7.89999 7.5L10.3 5L11 5.7L8.59999 8.2L11 10.7L10.3 11.4L7.89999 8.9L5.49999 11.4L4.79999 10.7L7.19999 8.2L4.79999 5.7L5.49999 5L7.89999 7.5Z" fill="#F48771"/>
</svg>
