
<svg width="16" height="16" viewBox="0 0 16 16" fill="none" xmlns="http://www.w3.org/2000/svg">
<path fill-rule="evenodd" clip-rule="evenodd" d="M7.67 14.72H8.38L10.1 13H12.5L13 12.5V10.08L14.74 8.36004V7.65004L13.03 5.93004V3.49004L12.53 3.00004H10.1L8.38 1.29004H7.67L6 3.00004H3.53L3 3.50004V5.93004L1.31 7.65004V8.36004L3 10.08V12.5L3.53 13H6L7.67 14.72ZM6.16 12H4V9.87004L3.88 9.52004L2.37 8.00004L3.85 6.49004L4 6.14004V4.00004H6.16L6.52 3.86004L8 2.35004L9.54 3.86004L9.89 4.00004H12V6.14004L12.17 6.49004L13.69 8.00004L12.14 9.52004L12 9.87004V12H9.89L9.51 12.15L8 13.66L6.52 12.14L6.16 12ZM6.73004 10.4799H7.44004L11.21 6.71L10.5 6L7.09004 9.41991L5.71 8.03984L5 8.74984L6.73004 10.4799Z" fill="#C5C5C5"/>
</svg>
