<svg width="16" height="16" viewBox="0 0 16 16" fill="none" 
    xmlns="http://www.w3.org/2000/svg">
    <path fill-rule="evenodd" clip-rule="evenodd" d="M7.67 14.72H8.38L10.1 13H12.5L13 12.5V10.08L14.74 8.36004V7.65004L13.03 5.93004V3.49004L12.53 3.00004H10.1L8.38 1.29004H7.67L6 3.00004H3.53L3 3.50004V5.93004L1.31 7.65004V8.36004L3 10.08V12.5L3.53 13H6L7.67 14.72ZM6.16 12H4V9.87004L3.88 9.52004L2.37 8.00004L3.85 6.49004L4 6.14004V4.00004H6.16L6.52 3.86004L8 2.35004L9.54 3.86004L9.89 4.00004H12V6.14004L12.17 6.49004L13.69 8.00004L12.14 9.52004L12 9.87004V12H9.89L9.51 12.15L8 13.66L6.52 12.14L6.16 12ZM7.60288 6.14101C7.54621 6.22606 7.50337 6.32292 7.47465 6.43203C7.44526 6.54079 7.42468 6.64661 7.41299 6.74891L7.40808 6.79186H6.51332L6.51619 6.74069C6.53447 6.41473 6.60464 6.12645 6.72787 5.87687C6.78019 5.76916 6.84468 5.66329 6.92117 5.55926C7.00224 5.45324 7.10082 5.35923 7.21549 5.27864C7.33383 5.19457 7.47018 5.12809 7.62404 5.07882C7.78275 5.02596 7.96334 5 8.16511 5C8.44581 5 8.68831 5.04573 8.89098 5.13921C9.09163 5.22877 9.25661 5.34985 9.38469 5.50292C9.5119 5.65495 9.60489 5.82866 9.66367 6.02356C9.72201 6.21701 9.75116 6.41655 9.75116 6.62201C9.75116 6.81343 9.71872 6.99327 9.65345 7.1611C9.58933 7.32596 9.50992 7.48175 9.41521 7.62841C9.32115 7.77101 9.21774 7.90792 9.10551 8.03835C8.99509 8.16668 8.89371 8.29042 8.80136 8.40959C8.70988 8.52467 8.63315 8.6383 8.57169 8.74952C8.51214 8.85728 8.48332 8.96318 8.48332 9.06777V9.54783H7.59513V9.00932C7.59513 8.84135 7.62627 8.6862 7.68922 8.54455C7.75366 8.4034 7.83362 8.26953 7.92863 8.14386C8.02547 8.01676 8.12847 7.89406 8.2374 7.77606C8.34426 7.66029 8.44365 7.54161 8.53558 7.42003C8.62919 7.30008 8.70548 7.17399 8.76373 7.04293C8.82348 6.9149 8.85397 6.77427 8.85397 6.62201C8.85397 6.50659 8.83811 6.40079 8.80687 6.30424L8.80647 6.303C8.77825 6.20707 8.73432 6.12583 8.67649 6.05974C8.61866 5.99089 8.5471 5.93848 8.46108 5.90241L8.45931 5.90167C8.377 5.86326 8.27937 5.84324 8.16511 5.84324C8.02809 5.84324 7.91599 5.87172 7.82635 5.92596C7.73629 5.9823 7.66193 6.0539 7.60288 6.14101ZM8.5 11H7.6118V10.1118H8.5V11Z" fill="#C5C5C5"/>
</svg>
