<svg width="14" height="14" viewBox="0 0 14 14" fill="none" xmlns="http://www.w3.org/2000/svg">
<path d="M2.48201 6.043L0.221008 3.774L0.927008 3.068L2.00001 4.138V2.524C1.99922 2.329 2.0369 2.13576 2.11088 1.95533C2.18487 1.77491 2.29371 1.61085 2.43118 1.47254C2.56865 1.33424 2.73205 1.2244 2.91202 1.14932C3.09199 1.07424 3.285 1.0354 3.48001 1.035H5.98001V2H3.48001C3.34489 2.0062 3.2174 2.0644 3.12421 2.16244C3.03102 2.26047 2.97935 2.39075 2.98001 2.526L2.98801 4.126L4.00001 3.119L4.70001 3.819L2.48201 6.043Z" fill="white"/>
<path d="M0 7V13.979H10.021V7H0ZM9 13H1V8H9V13Z" fill="white"/>
<path d="M4.94 5L3.94 6H11V11V11.979H12.021V5H4.94Z" fill="white"/>
<path d="M8.01702 11.915C7.74759 12.0062 7.46442 12.0502 7.18002 12.045C6.90075 12.0522 6.62397 11.9908 6.37402 11.866C6.15449 11.7534 5.9745 11.5765 5.85802 11.359C5.73538 11.1251 5.67381 10.864 5.67902 10.6C5.67391 10.3127 5.74278 10.029 5.87902 9.77601C6.00881 9.53917 6.2048 9.34527 6.44302 9.21801C6.70188 9.08215 6.9907 9.01338 7.28302 9.01801C7.53066 9.01731 7.77737 9.04857 8.01702 9.11101V9.92401C7.92668 9.87081 7.82845 9.83233 7.72602 9.81001C7.61378 9.78242 7.49859 9.76865 7.38302 9.76901C7.27978 9.76316 7.17644 9.77841 7.0793 9.81383C6.98216 9.84925 6.89326 9.90409 6.81802 9.97501C6.74723 10.0492 6.69236 10.137 6.65676 10.2331C6.62116 10.3293 6.6056 10.4316 6.61102 10.534C6.60565 10.6355 6.62127 10.7369 6.65688 10.8321C6.6925 10.9272 6.74735 11.014 6.81802 11.087C6.89213 11.1556 6.97925 11.2087 7.07424 11.2431C7.16923 11.2774 7.27015 11.2924 7.37102 11.287C7.59617 11.2843 7.81751 11.2284 8.01702 11.124V11.915Z" fill="white"/>
<path d="M8.029 3.489L7.913 4H7L7.729 1H9.015L9.708 4H8.808L8.689 3.489H8.029ZM8.19 2.789H8.524L8.359 2.056L8.19 2.789Z" fill="white"/>
<path d="M12.457 4.01899H11.024V1.01899H12.115C12.3036 1.00994 12.4923 1.03327 12.673 1.08799C12.8007 1.14095 12.9065 1.23583 12.973 1.35699C13.0551 1.50587 13.0958 1.67403 13.091 1.84399C13.0972 1.97556 13.0761 2.107 13.029 2.22999C12.9804 2.33235 12.9125 2.42436 12.829 2.50099C12.9295 2.58106 13.0131 2.68032 13.075 2.79299C13.1312 2.92104 13.1572 3.06029 13.151 3.19999C13.1619 3.41417 13.0952 3.62511 12.963 3.79399C12.9017 3.86797 12.8241 3.92677 12.7364 3.9658C12.6486 4.00483 12.553 4.02304 12.457 4.01899ZM11.95 1.62399H11.926V2.20799H11.95C11.9872 2.2115 12.0248 2.20755 12.0605 2.19639C12.0962 2.18523 12.1294 2.16708 12.158 2.14299C12.2062 2.08189 12.2288 2.00444 12.221 1.92699C12.2293 1.84372 12.2081 1.76016 12.161 1.69099C12.1323 1.66597 12.0987 1.64711 12.0624 1.63558C12.0261 1.62406 11.9879 1.62011 11.95 1.62399V1.62399ZM11.942 2.71499H11.926V3.35899H11.954C11.9936 3.36305 12.0336 3.35902 12.0716 3.34716C12.1096 3.3353 12.1447 3.31585 12.175 3.28999C12.2256 3.22194 12.2488 3.13735 12.24 3.05299C12.2498 2.9601 12.2268 2.8667 12.175 2.78899C12.1435 2.76099 12.1065 2.73993 12.0664 2.72718C12.0262 2.71443 11.9838 2.71028 11.942 2.71499V2.71499Z" fill="white"/>
<path d="M3.015 11.507L2.9 12.013H2L2.722 9.04297H3.992L4.678 12.013H3.778L3.66 11.507H3.015ZM3.174 10.807H3.505L3.342 10.081L3.174 10.807Z" fill="white"/>
</svg>
