<svg width="16" height="16" viewBox="0 0 16 16" fill="none" xmlns="http://www.w3.org/2000/svg">
<path d="M8.386 11.402L7.495 9.052H3.933L3.095 11.402H2L5.217 3H6.237L9.477 11.402H8.386ZM5.855 4.588L5.811 4.453L5.773 4.297L5.744 4.145L5.72 4.019H5.697L5.676 4.145L5.644 4.297L5.606 4.453L5.562 4.588L4.255 8.162H7.173L5.855 4.588V4.588Z" fill="white"/>
<path d="M13.795 11.402V10.464H13.772C13.573 10.816 13.316 11.084 13.001 11.27C12.686 11.456 12.328 11.548 11.926 11.548C11.613 11.548 11.338 11.503 11.1 11.413C10.862 11.323 10.662 11.201 10.502 11.047C10.342 10.893 10.221 10.709 10.139 10.496C10.057 10.283 10.015 10.054 10.015 9.808C10.015 9.546 10.054 9.306 10.132 9.087C10.21 8.868 10.33 8.675 10.492 8.507C10.654 8.339 10.859 8.199 11.107 8.088C11.355 7.977 11.651 7.898 11.995 7.851L13.806 7.599C13.806 7.326 13.777 7.092 13.718 6.899C13.659 6.706 13.575 6.548 13.466 6.427C13.357 6.306 13.225 6.217 13.07 6.16C12.915 6.103 12.745 6.075 12.557 6.075C12.194 6.075 11.843 6.139 11.505 6.268C11.167 6.397 10.867 6.578 10.601 6.808V5.824C10.683 5.765 10.797 5.703 10.944 5.636C11.091 5.569 11.256 5.508 11.439 5.451C11.622 5.394 11.817 5.347 12.022 5.31C12.227 5.273 12.429 5.254 12.628 5.254C13.327 5.254 13.857 5.448 14.216 5.837C14.575 6.226 14.755 6.779 14.755 7.498V11.4H13.795V11.402ZM12.341 8.572C12.068 8.607 11.843 8.657 11.667 8.721C11.491 8.785 11.354 8.865 11.257 8.958C11.16 9.051 11.092 9.163 11.055 9.292C11.018 9.421 11 9.568 11 9.732C11 9.873 11.025 10.003 11.076 10.125C11.127 10.247 11.2 10.352 11.296 10.441C11.392 10.53 11.511 10.601 11.653 10.652C11.795 10.703 11.961 10.728 12.148 10.728C12.39 10.728 12.613 10.683 12.816 10.593C13.019 10.503 13.194 10.379 13.34 10.221C13.486 10.063 13.601 9.877 13.683 9.664C13.765 9.451 13.806 9.222 13.806 8.976V8.367L12.341 8.572V8.572Z" fill="white"/>
</svg>
