<svg width="16" height="16" viewBox="0 0 16 16" fill="none" xmlns="http://www.w3.org/2000/svg">
<path fill-rule="evenodd" clip-rule="evenodd" d="M5.13096 2.875H6.32272L9.65912 11.527H8.29966L7.40866 9.177H4.02108L3.18308 11.527H1.81824L5.13096 2.875ZM5.70845 4.54189L5.67942 4.63096L4.43376 8.037H6.99362L5.73767 4.63125L5.85495 4.588L5.7361 4.62674L5.70845 4.54189ZM13.78 10.7135V11.396H14.99V7.369C14.99 6.62986 14.8047 6.04244 14.4179 5.62322C14.0282 5.20099 13.46 5 12.738 5C12.531 5 12.3216 5.01976 12.1098 5.05799C11.9003 5.09581 11.7002 5.14397 11.5118 5.20266C11.3252 5.26079 11.1551 5.32356 11.0022 5.39326C10.852 5.46168 10.7296 5.52762 10.638 5.59353L10.586 5.63095V6.95233L10.7928 6.77355C11.0479 6.55298 11.3353 6.37955 11.6596 6.25578C11.9832 6.13228 12.319 6.071 12.667 6.071C12.8424 6.071 12.9976 6.09709 13.1369 6.14832C13.2731 6.19841 13.3879 6.27598 13.4831 6.38166C13.5772 6.4861 13.6535 6.6267 13.7085 6.80654C13.7552 6.95934 13.7826 7.14413 13.7893 7.36142L12.0879 7.59818C11.7353 7.64637 11.4273 7.72794 11.1659 7.84491C10.9056 7.96145 10.6867 8.11008 10.512 8.29123C10.3378 8.47191 10.2083 8.68015 10.1242 8.91606C10.0409 9.15009 10 9.40448 10 9.679C10 9.93956 10.0445 10.1839 10.1323 10.4119C10.2207 10.6414 10.3517 10.841 10.5253 11.0081C10.6993 11.1755 10.9144 11.3059 11.1658 11.4009C11.4207 11.4973 11.7112 11.544 12.036 11.544C12.4579 11.544 12.8383 11.4472 13.1746 11.2486C13.4069 11.1115 13.6086 10.9329 13.78 10.7135ZM12.5699 8.42636L12.5698 8.42638L12.569 8.42764L12.4683 8.56679L12.4669 8.56699C12.1994 8.60128 11.9841 8.64968 11.8197 8.70947C11.6547 8.76949 11.5344 8.84167 11.4535 8.91923C11.3723 8.99712 11.316 9.08994 11.2852 9.19746C11.2521 9.31283 11.235 9.44782 11.235 9.603C11.235 9.7287 11.2572 9.84217 11.3013 9.94779C11.3455 10.0535 11.4083 10.1437 11.491 10.2203C11.5733 10.2966 11.6772 10.3594 11.8053 10.4054C11.9306 10.4504 12.0817 10.474 12.258 10.474C12.4842 10.474 12.6897 10.432 12.8753 10.3497C13.0634 10.2664 13.2242 10.1522 13.3582 10.0072C13.493 9.86131 13.5998 9.68902 13.6763 9.49009C13.7524 9.29247 13.791 9.07881 13.791 8.847V8.38171L12.4683 8.56679C12.5096 8.51596 12.5428 8.4697 12.569 8.42764L12.5699 8.42636Z" fill="white"/>
</svg>
