<svg width="16" height="16" viewBox="0 0 16 16" fill="none" xmlns="http://www.w3.org/2000/svg">
<path d="M11.4998 8C10.69 8.00006 9.90534 8.28088 9.27944 8.79462C8.65354 9.30835 8.22513 10.0232 8.06721 10.8174C7.90929 11.6116 8.03163 12.436 8.41339 13.1501C8.79514 13.8642 9.41269 14.4238 10.1608 14.7337C10.9089 15.0435 11.7413 15.0843 12.5162 14.8492C13.2911 14.6141 13.9604 14.1176 14.4103 13.4443C14.8601 12.771 15.0625 11.9626 14.9831 11.1568C14.9037 10.3509 14.5474 9.59754 13.9748 9.025C13.6497 8.7 13.2639 8.44221 12.8392 8.26634C12.4145 8.09047 11.9594 7.99997 11.4998 8ZM8.99975 12V11H13.9998V12H8.99975Z" fill="white"/>
<path fill-rule="evenodd" clip-rule="evenodd" d="M8.97467 7.77539C8.87274 7.33126 8.47506 7 8 7C7.44772 7 7 7.44772 7 8C7 8.47506 7.33126 8.87275 7.77539 8.97468C7.58488 9.25567 7.42645 9.5578 7.3035 9.87538C6.54233 9.59258 6 8.85962 6 8C6 6.89543 6.89543 6 8 6C8.85962 6 9.59258 6.54233 9.87538 7.3035C9.5595 7.42579 9.2572 7.58382 8.97467 7.77539ZM9.96902 8.3526C9.72426 8.47166 9.49264 8.61963 9.27944 8.79462C8.88675 9.11694 8.5718 9.51843 8.35261 9.96902C9.17455 9.82281 9.82281 9.17455 9.96902 8.3526Z" fill="white"/>
<path fill-rule="evenodd" clip-rule="evenodd" d="M6.59373 1L6.10564 3.42309L4.03374 2.05164L2.05916 4.0122L3.44042 6.06938L1 6.554V9.3312L3.45077 9.91521L2.05916 11.9878L4.03374 13.9484L6.10564 12.5769L6.59373 15H8.67158C8.32524 14.7201 8.02115 14.3894 7.77033 14.0178H7.40466L6.92747 11.6488L6.12544 11.3834L4.15978 12.6845L3.33203 11.8627L4.64247 9.91096L4.37907 9.12638L1.98918 8.55688V7.35917L4.37512 6.88537L4.64247 6.08904L3.33203 4.13734L4.15978 3.31546L6.12544 4.6166L6.92747 4.35115L7.40466 1.98215H8.5954L9.07259 4.35115L9.87462 4.6166L11.8403 3.31546L12.668 4.13734L11.3576 6.08904L11.6249 6.88537L14.0109 7.35917V7.76563C14.2512 7.92724 14.476 8.11207 14.6818 8.31786C14.7945 8.43053 14.9007 8.54865 15.0001 8.67162V6.554L12.5596 6.06938L13.9409 4.0122L11.9663 2.05164L9.89442 3.42309L9.40633 1H6.59373ZM14.3546 9.4748C14.2415 9.31534 14.1145 9.16478 13.9748 9.025C13.8331 8.88334 13.6799 8.75445 13.5169 8.63955L11.6249 9.01526L11.3576 9.81159L12.1555 11H13.3444L12.5596 9.83125L14.3546 9.4748ZM13.8285 12H12.4296L11.8403 12.5852L10.9563 12H9.00186L8.68392 13.5784C8.91803 13.8956 9.20382 14.1706 9.52878 14.3921L9.91208 12.4892L11.9663 13.849L13.8285 12Z" fill="white"/>
</svg>
