<svg width="16" height="16" viewBox="0 0 16 16" fill="none" xmlns="http://www.w3.org/2000/svg">
<path fill-rule="evenodd" clip-rule="evenodd" d="M12.525 5.626C12.6684 5.89946 12.7869 6.18528 12.879 6.48L15 6.834V8.67151C14.9005 8.5484 14.7944 8.43039 14.682 8.31804C14.2642 7.90017 13.7681 7.5687 13.2221 7.34255C12.6762 7.1164 12.091 7 11.5 7C11.0111 7 10.5262 7.07967 10.0641 7.23524C9.99507 7.05185 9.90224 6.87828 9.788 6.719C9.78077 6.70911 9.77383 6.69907 9.76691 6.68905C9.75563 6.67274 9.74439 6.65649 9.732 6.641C9.69 6.587 9.64 6.532 9.597 6.487C9.57475 6.46371 9.54794 6.43774 9.52323 6.41381C9.5002 6.3915 9.47899 6.37096 9.465 6.356C9.436 6.325 9.4 6.296 9.365 6.268C9.2898 6.20804 9.21062 6.15325 9.128 6.104L9.086 6.078C8.97781 6.01709 8.86475 5.96525 8.748 5.923C8.50849 5.83457 8.25531 5.78887 8 5.788C7.64523 5.7874 7.29555 5.87234 6.98059 6.03561C6.66562 6.19888 6.39466 6.43568 6.19066 6.72593C5.98666 7.01618 5.85564 7.35133 5.8087 7.70297C5.76176 8.05462 5.80028 8.4124 5.921 8.746H5.927C5.99662 8.93522 6.09148 9.11417 6.209 9.278C6.21743 9.28953 6.22546 9.30125 6.23344 9.31292C6.24347 9.32755 6.25343 9.34209 6.264 9.356C6.30316 9.40635 6.35102 9.45757 6.39135 9.50074C6.39428 9.50387 6.39716 9.50696 6.4 9.51L6.40313 9.51335C6.44465 9.55784 6.49684 9.61376 6.53 9.644C6.56399 9.67499 6.59997 9.70398 6.63596 9.73297L6.636 9.733C6.71095 9.79253 6.78979 9.84698 6.872 9.896C6.886 9.905 6.9 9.914 6.915 9.922C7.01705 9.97963 7.12345 10.0291 7.23324 10.0701C7.07898 10.5304 7 11.0132 7 11.5C7 12.091 7.1164 12.6762 7.34255 13.2221C7.5687 13.7681 7.90017 14.2642 8.31804 14.682C8.42981 14.7944 8.54725 14.9005 8.66982 15H6.833L6.479 12.876C6.327 12.83 5.764 12.595 5.627 12.523L3.875 13.774L2.225 12.124L3.475 10.374C3.33117 10.1007 3.21267 9.81488 3.121 9.52L1 9.166V6.833L3.124 6.479C3.17 6.327 3.405 5.764 3.478 5.627L2.226 3.875L3.876 2.225L5.626 3.475C5.89926 3.33117 6.18512 3.21267 6.48 3.121L6.834 1H9.167L9.521 3.124C9.673 3.17 10.236 3.405 10.373 3.477L12.125 2.226L13.775 3.876L12.525 5.626Z" fill="white"/>
<path d="M11.5 8C10.6903 8.00006 9.90559 8.28088 9.27968 8.79462C8.65378 9.30835 8.22537 10.0232 8.06746 10.8174C7.90954 11.6116 8.03188 12.436 8.41363 13.1501C8.79539 13.8642 9.41293 14.4238 10.1611 14.7337C10.9092 15.0435 11.7416 15.0843 12.5164 14.8492C13.2913 14.6141 13.9607 14.1176 14.4105 13.4443C14.8603 12.771 15.0628 11.9626 14.9834 11.1568C14.904 10.3509 14.5476 9.59754 13.975 9.025C13.65 8.7 13.2641 8.44221 12.8394 8.26634C12.4148 8.09047 11.9596 7.99997 11.5 8ZM9 12V11H14V12H9Z" fill="white"/>
</svg>
