<svg width="16" height="16" viewBox="0 0 16 16" fill="none" xmlns="http://www.w3.org/2000/svg">
<path d="M3.5 8C3.5 8.09889 3.47068 8.19556 3.41574 8.27779C3.36079 8.36001 3.28271 8.4241 3.19134 8.46194C3.09998 8.49978 2.99945 8.50969 2.90246 8.49039C2.80547 8.4711 2.71637 8.42348 2.64645 8.35355C2.57652 8.28363 2.5289 8.19454 2.50961 8.09755C2.49032 8.00055 2.50022 7.90002 2.53806 7.80866C2.5759 7.7173 2.63999 7.63921 2.72222 7.58427C2.80444 7.52932 2.90111 7.5 3 7.5C3.13261 7.5 3.25979 7.55268 3.35355 7.64645C3.44732 7.74022 3.5 7.86739 3.5 8Z" fill="white" stroke="white"/>
<path d="M8.5 8C8.5 8.09889 8.47068 8.19556 8.41574 8.27779C8.36079 8.36001 8.28271 8.4241 8.19134 8.46194C8.09998 8.49978 7.99945 8.50969 7.90246 8.49039C7.80547 8.4711 7.71637 8.42348 7.64645 8.35355C7.57652 8.28363 7.5289 8.19454 7.50961 8.09755C7.49032 8.00055 7.50022 7.90002 7.53806 7.80866C7.5759 7.7173 7.63999 7.63921 7.72222 7.58427C7.80444 7.52932 7.90111 7.5 8 7.5C8.13261 7.5 8.25979 7.55268 8.35355 7.64645C8.44732 7.74022 8.5 7.86739 8.5 8Z" fill="white" stroke="white"/>
<path d="M13.5 8C13.5 8.09889 13.4707 8.19556 13.4157 8.27779C13.3608 8.36001 13.2827 8.4241 13.1913 8.46194C13.1 8.49978 12.9994 8.50969 12.9025 8.49039C12.8055 8.4711 12.7164 8.42348 12.6464 8.35355C12.5765 8.28363 12.5289 8.19454 12.5096 8.09755C12.4903 8.00055 12.5002 7.90002 12.5381 7.80866C12.5759 7.71729 12.64 7.63921 12.7222 7.58427C12.8044 7.52932 12.9011 7.5 13 7.5C13.1326 7.5 13.2598 7.55268 13.3536 7.64645C13.4473 7.74022 13.5 7.86739 13.5 8Z" fill="white" stroke="white"/>
</svg>
