<svg width="16" height="16" viewBox="0 0 16 16" fill="none" xmlns="http://www.w3.org/2000/svg">
<path fill-rule="evenodd" clip-rule="evenodd" d="M1.875 1.875H6.25V6.25H5.375V3.45234C3.80577 4.36009 2.75 6.05675 2.75 7.99999C2.75 10.8995 5.10051 13.25 8 13.25C10.8995 13.25 13.25 10.8995 13.25 7.99999C13.25 5.66346 11.7236 3.68343 9.61362 3.00263L9.89758 2.17461C12.3515 2.97341 14.125 5.27958 14.125 7.99999C14.125 11.3827 11.3827 14.125 8 14.125C4.61726 14.125 1.875 11.3827 1.875 7.99999C1.875 5.77196 3.06463 3.82179 4.84334 2.75H1.875V1.875Z" fill="white"/>
</svg>
