<svg width="16" height="16" viewBox="0 0 16 16" fill="none" xmlns="http://www.w3.org/2000/svg">
<path d="M5.48199 6.008L3.22099 3.739L3.92699 3.033L4.99999 4.1V2.489C4.99907 2.29396 5.03666 2.10066 5.1106 1.92018C5.18454 1.73969 5.29338 1.57558 5.43087 1.43725C5.56837 1.29892 5.73182 1.18908 5.91185 1.11405C6.09188 1.03902 6.28495 1.00026 6.47999 1H8.97999V1.965H6.47999C6.34479 1.97095 6.21716 2.02908 6.12391 2.12716C6.03067 2.22525 5.97909 2.35567 5.97999 2.491L5.98799 4.091L6.99999 3.084L7.69999 3.784L5.48199 6.008Z" fill="white"/>
<path fill-rule="evenodd" clip-rule="evenodd" d="M3 14.979V7H12V14.979H3ZM7.99545 13.0449C8.37331 13.0517 8.7495 12.9932 9.10745 12.8719L9.11245 11.8249C8.84743 11.9635 8.55346 12.0375 8.25445 12.0409C8.11854 12.0495 7.98233 12.0298 7.85445 11.9829C7.72644 11.9403 7.60988 11.8689 7.51368 11.7742C7.41749 11.6796 7.34421 11.5642 7.29945 11.4369C7.25177 11.3093 7.23133 11.173 7.23945 11.0369C7.23162 10.9009 7.25205 10.7647 7.29945 10.6369C7.36887 10.4413 7.50156 10.2744 7.67653 10.1626C7.8515 10.0509 8.05874 10.0006 8.26545 10.0199C8.41875 10.0194 8.57154 10.0375 8.72045 10.0739C8.85673 10.1036 8.98739 10.1549 9.10745 10.2259V9.13994C8.78911 9.05709 8.46139 9.01575 8.13245 9.01694C7.74379 9.0103 7.3597 9.10143 7.01545 9.28194C6.69913 9.45144 6.43891 9.70923 6.26645 10.0239C6.08437 10.3615 5.99274 10.7405 6.00045 11.1239C5.99353 11.475 6.07539 11.822 6.23845 12.1329C6.39316 12.4222 6.63249 12.6574 6.92445 12.8069C7.25648 12.973 7.62432 13.0548 7.99545 13.0449Z" fill="white"/>
<path d="M11.9 4.99998H10V1.01998H11.447C11.697 1.00799 11.9473 1.03877 12.187 1.11098C12.3574 1.18043 12.4987 1.30651 12.587 1.46798C12.6959 1.6655 12.7501 1.88851 12.744 2.11398C12.752 2.28846 12.7241 2.46273 12.662 2.62598C12.5972 2.76188 12.5069 2.88408 12.396 2.98598C12.5299 3.09169 12.6411 3.22331 12.723 3.37298C12.7969 3.54306 12.8311 3.72772 12.823 3.91298C12.8373 4.19719 12.7485 4.47701 12.573 4.70098C12.4919 4.79978 12.3887 4.87826 12.2719 4.93017C12.1551 4.98208 12.0277 5.00599 11.9 4.99998ZM11.228 1.82198H11.2V2.59998H11.231C11.2806 2.60476 11.3306 2.59932 11.378 2.58398C11.4253 2.56973 11.4692 2.5459 11.507 2.51398C11.5711 2.43277 11.6012 2.32991 11.591 2.22698C11.6021 2.11648 11.5737 2.00562 11.511 1.91398C11.4728 1.88091 11.4283 1.85597 11.3802 1.84067C11.332 1.82537 11.2813 1.82003 11.231 1.82498L11.228 1.82198ZM11.218 3.26898H11.2V4.12398H11.237C11.2895 4.12915 11.3426 4.12371 11.393 4.10798C11.4434 4.0923 11.49 4.06644 11.53 4.03198C11.5972 3.94189 11.6279 3.82974 11.616 3.71798C11.6292 3.59484 11.5988 3.47098 11.53 3.36798C11.4884 3.33067 11.4393 3.30271 11.386 3.28598C11.3328 3.26885 11.2766 3.26306 11.221 3.26898H11.218Z" fill="white"/>
</svg>
