<svg xmlns="http://www.w3.org/2000/svg" viewBox="0 0 16 16"><style>.icon-canvas-transparent{opacity:0;fill:#f6f6f6}.icon-vs-out{fill:#f6f6f6}.icon-vs-action-orange{fill:#c27d1a}</style><path class="icon-canvas-transparent" d="M16 16H0V0h16v16z" id="canvas"/><path class="icon-vs-out" d="M16 6.586l-3-3L11.586 5H9.414l1-1-4-4h-.828L0 5.586v.828l4 4L6.414 8H7v5h1.586l3 3h.828L16 12.414v-.828L13.914 9.5 16 7.414v-.828z" id="outline"/><path class="icon-vs-action-orange" d="M13 10l2 2-3 3-2-2 1-1H8V7H6L4 9 1 6l5-5 3 3-2 2h5l1-1 2 2-3 3-2-2 1-1H9v4l2.999.002L13 10z" id="iconBg"/></svg>