<svg xmlns="http://www.w3.org/2000/svg" viewBox="0 0 16 16"><style>.icon-canvas-transparent{opacity:0;fill:#2d2d30}.icon-vs-out{fill:#2d2d30}.icon-vs-fg{fill:#2b282e}.icon-vs-action-orange{fill:#e8ab53}</style><path class="icon-canvas-transparent" d="M16 16H0V0h16v16z" id="canvas"/><path class="icon-vs-out" d="M14.414 1L16 2.586v5.828L14.414 10H10v3.416L8.414 15H1.586L0 13.416v-5.83L1.586 6H6V2.586L7.586 1h6.828z" id="outline"/><path class="icon-vs-fg" d="M2 13h6V8H2v5zm1-4h4v1H3V9zm0 2h4v1H3v-1zm11-5V3H8v3h.414L9 6.586V6h4v1H9.414l.586.586V8h4V6zm-1-1H9V4h4v1z" id="iconFg"/><path class="icon-vs-action-orange" d="M3 11h4.001v1H3v-1zm0-1h4.001V9H3v1zm6-2v5l-1 1H2l-1-1V8l1-1h6l1 1zM8 8H2v5h6V8zm1-2l1 1h3V6H9zm0-1h4V4H9v1zm5-3H8L7 3v3h1V3h6v5h-4v1h4l1-1V3l-1-1z" id="iconBg"/></svg>