<svg xmlns="http://www.w3.org/2000/svg" viewBox="0 0 16 16"><style>.icon-canvas-transparent{opacity:0;fill:#2d2d30}.icon-vs-out{fill:#2d2d30}.icon-vs-bg{fill:#c5c5c5}.icon-vs-fg{fill:#2b282e}.icon-vs-action-blue{fill:#75beff}</style><path class="icon-canvas-transparent" d="M16 16H0V0h16v16z" id="canvas"/><path class="icon-vs-out" d="M14 4.556V13c0 .97-.701 2-2 2H4c-.97 0-2-.701-2-2V6.649A3.495 3.495 0 0 1 0 3.5C0 1.57 1.57 0 3.5 0H5v1h5.061L14 4.556z" id="outline" style="display: none;"/><path class="icon-vs-bg" d="M13 5v8s-.035 1-1.035 1h-8S3 14 3 13V9h1v4h8V6H9.397l.517-.52L9 4.572V3H7.419L6.413 2h3.228L13 5z" id="iconBg"/><path class="icon-vs-fg" d="M7.419 3H9v1.572L7.419 3zm1.978 3L6.416 9H4v4h8V6H9.397z" id="iconFg" style="display: none;"/><path class="icon-vs-action-blue" d="M5.988 6H3.5a2.5 2.5 0 1 1 0-5H4v1h-.5C2.673 2 2 2.673 2 3.5S2.673 5 3.5 5h2.513L4 3h2l2.5 2.484L6 8H4l1.988-2z" id="colorAction"/></svg>