<svg xmlns="http://www.w3.org/2000/svg" viewBox="0 0 16 16"><style>.icon-canvas-transparent{opacity:0;fill:#2d2d30}.icon-vs-out{fill:#2d2d30}.icon-vs-bg{fill:#c5c5c5}.icon-vs-fg{fill:#2b282e}</style><path class="icon-canvas-transparent" d="M16 16H0V0h16v16z" id="canvas"/><path class="icon-vs-out" d="M16 5V2H9V1H0v14h13v-3h3V9h-1V6H9V5h7zm-8 7V9h1v3H8z" id="outline"/><path class="icon-vs-fg" d="M2 3h5v1H2V3z" id="iconFg"/><path class="icon-vs-bg" d="M15 4h-5V3h5v1zm-1 3h-2v1h2V7zm-4 0H1v1h9V7zm2 6H1v1h11v-1zm-5-3H1v1h6v-1zm8 0h-5v1h5v-1zM8 2v3H1V2h7zM7 3H2v1h5V3z" id="iconBg"/></svg>