<svg width="502" height="318" viewBox="0 0 502 318" fill="none" xmlns="http://www.w3.org/2000/svg">
<g clip-path="url(#clip0)">
<g filter="url(#filter0_d)">
<rect width="192" height="268" transform="translate(0 22)" fill="#252526"/>
<path d="M16.5027 48.8941C16.5739 50.033 17.5305 50.7626 18.9542 50.7626C20.4757 50.7626 21.4278 49.9974 21.4278 48.7828C21.4278 47.8218 20.885 47.2924 19.5681 46.9765L18.8607 46.803C18.0243 46.5984 17.6862 46.3314 17.6862 45.8643C17.6862 45.2636 18.2112 44.8766 18.9987 44.8766C19.7461 44.8766 20.2622 45.2503 20.3556 45.8598H21.3255C21.2677 44.7876 20.3156 44.0313 19.012 44.0313C17.6106 44.0313 16.6763 44.7876 16.6763 45.9176C16.6763 46.8519 17.2057 47.4036 18.3669 47.6839L19.1944 47.8841C20.0442 48.0888 20.4179 48.4002 20.4179 48.903C20.4179 49.4902 19.8306 49.9129 19.0298 49.9129C18.1711 49.9129 17.575 49.5169 17.4904 48.8941H16.5027ZM25.4764 44.0313C23.6345 44.0313 22.4778 45.3259 22.4778 47.3947C22.4778 49.4591 23.6079 50.7626 25.4764 50.7626C27.3317 50.7626 28.4706 49.4546 28.4706 47.3947C28.4706 45.3304 27.3228 44.0313 25.4764 44.0313ZM25.4764 44.9122C26.691 44.9122 27.4518 45.8732 27.4518 47.3947C27.4518 48.903 26.6955 49.8817 25.4764 49.8817C24.2396 49.8817 23.4966 48.903 23.4966 47.3947C23.4966 45.8732 24.2619 44.9122 25.4764 44.9122ZM30.8108 44.187H29.8143V48.3958C29.8143 49.7839 30.8064 50.7626 32.4125 50.7626C34.0275 50.7626 35.0152 49.7839 35.0152 48.3958V44.187H34.0186V48.3157C34.0186 49.2322 33.4358 49.8773 32.4125 49.8773C31.3937 49.8773 30.8108 49.2322 30.8108 48.3157V44.187ZM37.6179 48.1377H39.0238L40.3318 50.6069H41.4841L40.0426 47.982C40.8256 47.7195 41.2883 47.0166 41.2883 46.149C41.2883 44.9522 40.4564 44.187 39.1617 44.187H36.6213V50.6069H37.6179V48.1377ZM37.6179 45.0234H39.0238C39.7934 45.0234 40.265 45.4549 40.265 46.1712C40.265 46.9053 39.8201 47.3191 39.0505 47.3191H37.6179V45.0234ZM45.3414 50.7626C46.774 50.7626 47.8284 49.9396 48.0064 48.6894H47.0142C46.8363 49.419 46.1912 49.8773 45.3414 49.8773C44.1846 49.8773 43.4639 48.9252 43.4639 47.3992C43.4639 45.8732 44.1846 44.9166 45.3369 44.9166C46.1823 44.9166 46.8274 45.4238 47.0142 46.2202H48.0064C47.8462 44.9344 46.7517 44.0313 45.3369 44.0313C43.5529 44.0313 42.4451 45.3215 42.4451 47.3992C42.4451 49.4724 43.5573 50.7626 45.3414 50.7626ZM53.3941 49.7483H50.3154V47.7507H53.2295V46.9231H50.3154V45.0456H53.3941V44.187H49.3188V50.6069H53.3941V49.7483ZM59.9609 50.7626C61.3935 50.7626 62.4479 49.9396 62.6259 48.6894H61.6338C61.4558 49.419 60.8107 49.8773 59.9609 49.8773C58.8042 49.8773 58.0834 48.9252 58.0834 47.3992C58.0834 45.8732 58.8042 44.9166 59.9565 44.9166C60.8018 44.9166 61.4469 45.4238 61.6338 46.2202H62.6259C62.4657 44.9344 61.3713 44.0313 59.9565 44.0313C58.1724 44.0313 57.0646 45.3215 57.0646 47.3992C57.0646 49.4724 58.1769 50.7626 59.9609 50.7626ZM66.6745 44.0313C64.8326 44.0313 63.6759 45.3259 63.6759 47.3947C63.6759 49.4591 64.8059 50.7626 66.6745 50.7626C68.5298 50.7626 69.6687 49.4546 69.6687 47.3947C69.6687 45.3304 68.5209 44.0313 66.6745 44.0313ZM66.6745 44.9122C67.8891 44.9122 68.6499 45.8732 68.6499 47.3947C68.6499 48.903 67.8936 49.8817 66.6745 49.8817C65.4377 49.8817 64.6947 48.903 64.6947 47.3947C64.6947 45.8732 65.4599 44.9122 66.6745 44.9122ZM71.9911 50.6069V45.9443H72.0623L75.359 50.6069H76.2577V44.187H75.2879V48.8585H75.2167L71.9199 44.187H71.0212V50.6069H71.9911ZM80.4977 50.6069V45.0456H82.5131V44.187H77.4812V45.0456H79.5011V50.6069H80.4977ZM84.7332 48.1377H86.1391L87.4471 50.6069H88.5994L87.1579 47.982C87.9409 47.7195 88.4036 47.0166 88.4036 46.149C88.4036 44.9522 87.5716 44.187 86.277 44.187H83.7366V50.6069H84.7332V48.1377ZM84.7332 45.0234H86.1391C86.9087 45.0234 87.3803 45.4549 87.3803 46.1712C87.3803 46.9053 86.9354 47.3191 86.1657 47.3191H84.7332V45.0234ZM92.559 44.0313C90.7171 44.0313 89.5604 45.3259 89.5604 47.3947C89.5604 49.4591 90.6904 50.7626 92.559 50.7626C94.4143 50.7626 95.5532 49.4546 95.5532 47.3947C95.5532 45.3304 94.4054 44.0313 92.559 44.0313ZM92.559 44.9122C93.7736 44.9122 94.5344 45.8732 94.5344 47.3947C94.5344 48.903 93.778 49.8817 92.559 49.8817C91.3222 49.8817 90.5792 48.903 90.5792 47.3947C90.5792 45.8732 91.3444 44.9122 92.559 44.9122ZM100.91 49.7394H97.9023V44.187H96.9057V50.6069H100.91V49.7394Z" fill="#CCCCCC"/>
<rect width="192" height="28" transform="translate(16 69)" fill="#3C3C3C"/>
<path d="M32.4165 88V78.8403H30.7534L27.8335 86.0068H27.7256L24.812 78.8403H23.1489V88H24.4692V81.2905H24.5581L27.2432 87.835H28.3223L31.0073 81.2905H31.0962V88H32.4165ZM39.0879 86.1528C38.834 86.7114 38.269 87.0161 37.4438 87.0161C36.3521 87.0161 35.6475 86.229 35.603 84.9785V84.915H40.4844V84.4453C40.4844 82.2871 39.3228 80.9731 37.3994 80.9731C35.4507 80.9731 34.2129 82.376 34.2129 84.5659C34.2129 86.7686 35.4253 88.1333 37.4058 88.1333C38.9863 88.1333 40.1035 87.3716 40.4019 86.1528H39.0879ZM37.3931 82.084C38.4023 82.084 39.0625 82.814 39.0942 83.9312H35.603C35.6792 82.8203 36.3838 82.084 37.3931 82.084ZM41.9634 83.0361C41.9634 84.0581 42.5728 84.6421 43.8867 84.9468L45.0928 85.2324C45.7847 85.3975 46.1084 85.6768 46.1084 86.1084C46.1084 86.6733 45.5054 87.0669 44.6548 87.0669C43.8296 87.0669 43.3218 86.7305 43.1504 86.1909H41.7856C41.9062 87.3906 42.979 88.1333 44.623 88.1333C46.2734 88.1333 47.4858 87.2637 47.4858 85.9814C47.4858 84.9785 46.8701 84.4136 45.5562 84.1089L44.4072 83.8423C43.6582 83.6646 43.3091 83.3979 43.3091 82.9727C43.3091 82.4141 43.8867 82.0396 44.6484 82.0396C45.4229 82.0396 45.918 82.376 46.0449 82.8901H47.3525C47.2192 81.6968 46.2036 80.9731 44.6484 80.9731C43.0869 80.9731 41.9634 81.8364 41.9634 83.0361ZM48.8442 83.0361C48.8442 84.0581 49.4536 84.6421 50.7676 84.9468L51.9736 85.2324C52.6655 85.3975 52.9893 85.6768 52.9893 86.1084C52.9893 86.6733 52.3862 87.0669 51.5356 87.0669C50.7104 87.0669 50.2026 86.7305 50.0312 86.1909H48.6665C48.7871 87.3906 49.8599 88.1333 51.5039 88.1333C53.1543 88.1333 54.3667 87.2637 54.3667 85.9814C54.3667 84.9785 53.751 84.4136 52.437 84.1089L51.2881 83.8423C50.5391 83.6646 50.1899 83.3979 50.1899 82.9727C50.1899 82.4141 50.7676 82.0396 51.5293 82.0396C52.3037 82.0396 52.7988 82.376 52.9258 82.8901H54.2334C54.1001 81.6968 53.0845 80.9731 51.5293 80.9731C49.9678 80.9731 48.8442 81.8364 48.8442 83.0361ZM57.9214 88.1143C58.8291 88.1143 59.5845 87.7207 59.9971 87.0225H60.105V88H61.4189V83.2837C61.4189 81.8364 60.4414 80.9731 58.7085 80.9731C57.1406 80.9731 56.0234 81.7285 55.8838 82.8901H57.2041C57.3564 82.3887 57.8833 82.103 58.645 82.103C59.5781 82.103 60.0605 82.5283 60.0605 83.2837V83.8867L58.188 84.001C56.5439 84.1025 55.6172 84.8198 55.6172 86.0576C55.6172 87.3145 56.5884 88.1143 57.9214 88.1143ZM58.2705 87.0161C57.5278 87.0161 56.9883 86.6416 56.9883 86.0005C56.9883 85.3721 57.4199 85.0356 58.3721 84.9722L60.0605 84.8579V85.4546C60.0605 86.3433 59.2988 87.0161 58.2705 87.0161ZM66.2749 90.6343C68.23 90.6343 69.4678 89.6377 69.4678 88.0698V81.1064H68.1602V82.2046H68.0522C67.665 81.4556 66.8335 80.9858 65.8813 80.9858C64.1167 80.9858 63.0122 82.376 63.0122 84.4644C63.0122 86.5337 64.104 87.8984 65.8687 87.8984C66.8208 87.8984 67.5825 87.4858 68.0015 86.7368H68.103V88.0635C68.103 88.9966 67.4302 89.5552 66.2939 89.5552C65.3735 89.5552 64.7959 89.2251 64.6816 88.7046H63.2852C63.4312 89.8662 64.5483 90.6343 66.2749 90.6343ZM66.2559 86.7686C65.0815 86.7686 64.4214 85.8735 64.4214 84.4644C64.4214 83.0552 65.0815 82.1538 66.2559 82.1538C67.4175 82.1538 68.1284 83.0552 68.1284 84.4644C68.1284 85.8735 67.4238 86.7686 66.2559 86.7686ZM75.9805 86.1528C75.7266 86.7114 75.1616 87.0161 74.3364 87.0161C73.2446 87.0161 72.54 86.229 72.4956 84.9785V84.915H77.377V84.4453C77.377 82.2871 76.2153 80.9731 74.292 80.9731C72.3433 80.9731 71.1055 82.376 71.1055 84.5659C71.1055 86.7686 72.3179 88.1333 74.2983 88.1333C75.8789 88.1333 76.9961 87.3716 77.2944 86.1528H75.9805ZM74.2856 82.084C75.2949 82.084 75.9551 82.814 75.9868 83.9312H72.4956C72.5718 82.8203 73.2764 82.084 74.2856 82.084ZM83.0708 84.1787C83.0708 86.4829 83.6675 88.3682 84.9053 89.9551H86.1113C85.1909 88.7871 84.48 86.3496 84.48 84.1724C84.48 82.0078 85.1973 79.564 86.1113 78.4023H84.9053C83.6675 79.9829 83.0708 81.8745 83.0708 84.1787ZM90.7896 82.4204V84.4199H89.9199C88.8853 84.4263 88.041 85.2388 88.041 86.2798C88.041 87.3208 88.8789 88.165 89.9199 88.165C90.9546 88.165 91.7988 87.3208 91.7988 86.2798V85.4229H93.7729V86.2798C93.7729 87.3208 94.6172 88.165 95.6519 88.165C96.6929 88.165 97.5371 87.3208 97.5371 86.2798C97.5371 85.2388 96.6929 84.4263 95.6519 84.4199H94.7886V82.4204H95.6519C96.6929 82.4204 97.5371 81.6016 97.5371 80.5605C97.5371 79.5195 96.6929 78.6753 95.6519 78.6753C94.6172 78.6753 93.7729 79.5195 93.7729 80.5605V81.4238H91.7988V80.5605C91.7988 79.5195 90.9546 78.6753 89.9199 78.6753C88.8789 78.6753 88.041 79.5195 88.041 80.5605C88.041 81.6016 88.8853 82.4204 89.9199 82.4204H90.7896ZM89.9326 81.4365C89.4502 81.4365 89.0566 81.043 89.0566 80.5605C89.0566 80.0845 89.4502 79.6909 89.9199 79.6909C90.3896 79.6909 90.7896 80.0845 90.7896 80.5732V81.4365H89.9326ZM95.6392 81.4365H94.7886V80.5732C94.7886 80.0845 95.1821 79.6909 95.6519 79.6909C96.1279 79.6909 96.5151 80.0845 96.5151 80.5605C96.5151 81.043 96.1279 81.4365 95.6392 81.4365ZM91.7988 84.4326V82.4141H93.7729V84.4326H91.7988ZM89.9326 85.4038H90.7896V86.2607C90.7896 86.7495 90.3896 87.1431 89.9199 87.1431C89.4502 87.1431 89.0566 86.7559 89.0566 86.2734C89.0566 85.7974 89.4502 85.4038 89.9326 85.4038ZM95.6392 85.4038C96.1279 85.4038 96.5151 85.7974 96.5151 86.2734C96.5151 86.7559 96.1279 87.1431 95.6519 87.1431C95.1821 87.1431 94.7886 86.7495 94.7886 86.2607V85.4038H95.6392ZM105.77 86.7749H101.377V83.9248H105.535V82.7441H101.377V80.0654H105.77V78.8403H99.9556V88H105.77V86.7749ZM107.668 88H109.033V83.9565C109.033 82.8457 109.674 82.1602 110.683 82.1602C111.692 82.1602 112.175 82.7188 112.175 83.8613V88H113.54V83.5376C113.54 81.8936 112.689 80.9731 111.146 80.9731C110.105 80.9731 109.42 81.4365 109.083 82.1982H108.982V81.1064H107.668V88ZM115.945 79.3672V81.1255H114.847V82.2173H115.945V86.1846C115.945 87.5112 116.548 88.0444 118.065 88.0444C118.332 88.0444 118.586 88.0127 118.808 87.9746V86.8892C118.618 86.9082 118.497 86.9209 118.288 86.9209C117.608 86.9209 117.31 86.5972 117.31 85.8545V82.2173H118.808V81.1255H117.31V79.3672H115.945ZM124.87 86.1528C124.616 86.7114 124.051 87.0161 123.226 87.0161C122.134 87.0161 121.43 86.229 121.385 84.9785V84.915H126.267V84.4453C126.267 82.2871 125.105 80.9731 123.182 80.9731C121.233 80.9731 119.995 82.376 119.995 84.5659C119.995 86.7686 121.208 88.1333 123.188 88.1333C124.769 88.1333 125.886 87.3716 126.184 86.1528H124.87ZM123.175 82.084C124.185 82.084 124.845 82.814 124.876 83.9312H121.385C121.461 82.8203 122.166 82.084 123.175 82.084ZM127.904 88H129.269V83.8804C129.269 82.9092 129.999 82.2427 131.034 82.2427C131.275 82.2427 131.681 82.2871 131.795 82.3188V81.0366C131.649 81.0049 131.389 80.9858 131.186 80.9858C130.285 80.9858 129.517 81.4746 129.32 82.1538H129.218V81.1064H127.904V88ZM137.146 79.3672V81.1255H136.048V82.2173H137.146V86.1846C137.146 87.5112 137.75 88.0444 139.267 88.0444C139.533 88.0444 139.787 88.0127 140.009 87.9746V86.8892C139.819 86.9082 139.698 86.9209 139.489 86.9209C138.81 86.9209 138.511 86.5972 138.511 85.8545V82.2173H140.009V81.1255H138.511V79.3672H137.146ZM144.459 88.1333C146.478 88.1333 147.715 86.7812 147.715 84.5532C147.715 82.3252 146.471 80.9731 144.459 80.9731C142.44 80.9731 141.196 82.3315 141.196 84.5532C141.196 86.7812 142.434 88.1333 144.459 88.1333ZM144.459 86.9717C143.272 86.9717 142.605 86.0894 142.605 84.5532C142.605 83.0171 143.272 82.1284 144.459 82.1284C145.64 82.1284 146.312 83.0171 146.312 84.5532C146.312 86.083 145.64 86.9717 144.459 86.9717Z" fill="#A5A5A5"/>
<path d="M21.984 119.064L26.336 114.712L26.96 115.336L22.288 119.992H21.664L17.008 115.336L17.616 114.712L21.984 119.064Z" fill="#808080"/>
<path d="M42.9067 121.222C44.9507 121.222 46.4551 120.048 46.709 118.264H45.2935C45.0396 119.305 44.1191 119.959 42.9067 119.959C41.2563 119.959 40.228 118.601 40.228 116.423C40.228 114.246 41.2563 112.881 42.9004 112.881C44.1064 112.881 45.0269 113.605 45.2935 114.741H46.709C46.4805 112.907 44.9189 111.618 42.9004 111.618C40.355 111.618 38.7744 113.459 38.7744 116.423C38.7744 119.381 40.3613 121.222 42.9067 121.222ZM48.4863 121H49.8511V116.963C49.8511 115.884 50.4731 115.167 51.5903 115.167C52.5552 115.167 53.0693 115.731 53.0693 116.868V121H54.4341V116.544C54.4341 114.913 53.5264 113.979 52.0537 113.979C51.0127 113.979 50.2827 114.437 49.9463 115.205H49.8384V111.402H48.4863V121ZM58.2681 121.114C59.1758 121.114 59.9312 120.721 60.3438 120.022H60.4517V121H61.7656V116.284C61.7656 114.836 60.7881 113.973 59.0552 113.973C57.4873 113.973 56.3701 114.729 56.2305 115.89H57.5508C57.7031 115.389 58.23 115.103 58.9917 115.103C59.9248 115.103 60.4072 115.528 60.4072 116.284V116.887L58.5347 117.001C56.8906 117.103 55.9639 117.82 55.9639 119.058C55.9639 120.314 56.9351 121.114 58.2681 121.114ZM58.6172 120.016C57.8745 120.016 57.335 119.642 57.335 119C57.335 118.372 57.7666 118.036 58.7188 117.972L60.4072 117.858V118.455C60.4072 119.343 59.6455 120.016 58.6172 120.016ZM63.708 121H65.0728V116.957C65.0728 115.846 65.7139 115.16 66.7231 115.16C67.7324 115.16 68.2148 115.719 68.2148 116.861V121H69.5796V116.538C69.5796 114.894 68.729 113.973 67.1865 113.973C66.1455 113.973 65.46 114.437 65.1235 115.198H65.022V114.106H63.708V121ZM74.4165 123.634C76.3716 123.634 77.6094 122.638 77.6094 121.07V114.106H76.3018V115.205H76.1938C75.8066 114.456 74.9751 113.986 74.0229 113.986C72.2583 113.986 71.1538 115.376 71.1538 117.464C71.1538 119.534 72.2456 120.898 74.0103 120.898C74.9624 120.898 75.7241 120.486 76.1431 119.737H76.2446V121.063C76.2446 121.997 75.5718 122.555 74.4355 122.555C73.5151 122.555 72.9375 122.225 72.8232 121.705H71.4268C71.5728 122.866 72.6899 123.634 74.4165 123.634ZM74.3975 119.769C73.2231 119.769 72.563 118.874 72.563 117.464C72.563 116.055 73.2231 115.154 74.3975 115.154C75.5591 115.154 76.27 116.055 76.27 117.464C76.27 118.874 75.5654 119.769 74.3975 119.769ZM84.1221 119.153C83.8682 119.711 83.3032 120.016 82.478 120.016C81.3862 120.016 80.6816 119.229 80.6372 117.979V117.915H85.5186V117.445C85.5186 115.287 84.3569 113.973 82.4336 113.973C80.4849 113.973 79.2471 115.376 79.2471 117.566C79.2471 119.769 80.4595 121.133 82.4399 121.133C84.0205 121.133 85.1377 120.372 85.436 119.153H84.1221ZM82.4272 115.084C83.4365 115.084 84.0967 115.814 84.1284 116.931H80.6372C80.7134 115.82 81.418 115.084 82.4272 115.084ZM86.9976 116.036C86.9976 117.058 87.6069 117.642 88.9209 117.947L90.127 118.232C90.8188 118.397 91.1426 118.677 91.1426 119.108C91.1426 119.673 90.5396 120.067 89.689 120.067C88.8638 120.067 88.356 119.73 88.1846 119.191H86.8198C86.9404 120.391 88.0132 121.133 89.6572 121.133C91.3076 121.133 92.52 120.264 92.52 118.981C92.52 117.979 91.9043 117.414 90.5903 117.109L89.4414 116.842C88.6924 116.665 88.3433 116.398 88.3433 115.973C88.3433 115.414 88.9209 115.04 89.6826 115.04C90.457 115.04 90.9521 115.376 91.0791 115.89H92.3867C92.2534 114.697 91.2378 113.973 89.6826 113.973C88.1211 113.973 86.9976 114.836 86.9976 116.036Z" fill="#A0A0A0"/>
<path d="M20 135.976V135H19.904C19.5947 135 19.2907 135.064 18.992 135.192C18.704 135.309 18.448 135.48 18.224 135.704C18.0107 135.928 17.8453 136.184 17.728 136.472C17.632 136.739 17.568 137.016 17.536 137.304C17.504 137.592 17.4933 137.88 17.504 138.168C17.5253 138.456 17.536 138.744 17.536 139.032C17.536 139.235 17.4933 139.427 17.408 139.608C17.2587 139.971 17.0027 140.232 16.64 140.392C16.4693 140.467 16.288 140.504 16.096 140.504H16V141.496H16.096C16.288 141.496 16.4693 141.533 16.64 141.608C16.8213 141.693 16.976 141.8 17.104 141.928C17.232 142.067 17.3333 142.221 17.408 142.392V142.408C17.4933 142.579 17.536 142.765 17.536 142.968C17.536 143.256 17.5253 143.549 17.504 143.848C17.4933 144.136 17.504 144.424 17.536 144.712C17.568 144.989 17.632 145.261 17.728 145.528C17.8347 145.805 18 146.061 18.224 146.296C18.448 146.52 18.704 146.696 18.992 146.824C19.2907 146.941 19.5947 147 19.904 147H20V146.008H19.904C19.712 146.008 19.5253 145.971 19.344 145.896C19.1733 145.821 19.0187 145.715 18.88 145.576C18.752 145.437 18.6507 145.283 18.576 145.112C18.5013 144.931 18.464 144.739 18.464 144.536C18.464 144.291 18.4693 144.067 18.48 143.864C18.4907 143.64 18.4907 143.421 18.48 143.208C18.48 142.995 18.464 142.781 18.432 142.568C18.4 142.355 18.3413 142.152 18.256 141.96C18.096 141.576 17.8507 141.256 17.52 141C17.8507 140.744 18.096 140.424 18.256 140.04C18.3413 139.859 18.4 139.661 18.432 139.448C18.464 139.235 18.48 139.021 18.48 138.808C18.4907 138.584 18.4907 138.36 18.48 138.136C18.4693 137.912 18.464 137.688 18.464 137.464C18.464 137.165 18.544 136.893 18.704 136.648C18.864 136.403 19.0773 136.221 19.344 136.104C19.5253 136.019 19.712 135.976 19.904 135.976H20ZM24 146.008V147H24.096C24.4053 147 24.704 146.941 24.992 146.824C25.2907 146.696 25.552 146.52 25.776 146.296C26 146.061 26.1653 145.805 26.272 145.528C26.368 145.272 26.432 144.995 26.464 144.696C26.496 144.419 26.5013 144.136 26.48 143.848C26.4693 143.549 26.464 143.256 26.464 142.968C26.464 142.765 26.5067 142.573 26.592 142.392C26.7413 142.029 26.9973 141.768 27.36 141.608C27.5307 141.533 27.712 141.496 27.904 141.496H28V140.504H27.904C27.712 140.504 27.5307 140.467 27.36 140.392C27.1787 140.317 27.024 140.211 26.896 140.072C26.7573 139.933 26.656 139.779 26.592 139.608V139.592C26.5067 139.421 26.464 139.235 26.464 139.032C26.464 138.744 26.4693 138.456 26.48 138.168C26.5013 137.88 26.496 137.587 26.464 137.288C26.432 137.011 26.368 136.739 26.272 136.472C26.1547 136.184 25.984 135.928 25.76 135.704C25.5467 135.48 25.2907 135.309 24.992 135.192C24.704 135.064 24.4053 135 24.096 135H24V135.992H24.096C24.288 135.992 24.4693 136.029 24.64 136.104C24.8213 136.179 24.976 136.285 25.104 136.424C25.232 136.552 25.3333 136.707 25.408 136.888C25.4933 137.069 25.536 137.261 25.536 137.464C25.5253 137.709 25.52 137.933 25.52 138.136C25.5093 138.36 25.504 138.584 25.504 138.808C25.5147 139.021 25.536 139.235 25.568 139.448C25.6 139.651 25.6587 139.848 25.744 140.04C25.904 140.424 26.1493 140.744 26.48 141C26.1493 141.256 25.904 141.576 25.744 141.96C25.6587 142.152 25.6 142.355 25.568 142.568C25.536 142.771 25.5147 142.984 25.504 143.208C25.504 143.421 25.5093 143.64 25.52 143.864C25.5307 144.088 25.536 144.312 25.536 144.536C25.536 144.835 25.456 145.107 25.296 145.352C25.136 145.597 24.9227 145.779 24.656 145.896C24.4747 145.981 24.288 146.024 24.096 146.024H24V146.008Z" fill="#CBCB41"/>
<rect x="38" y="137.5" width="46" height="7" rx="3.5" fill="white" fill-opacity="0.16"/>
<path d="M20 159.976V159H19.904C19.5947 159 19.2907 159.064 18.992 159.192C18.704 159.309 18.448 159.48 18.224 159.704C18.0107 159.928 17.8453 160.184 17.728 160.472C17.632 160.739 17.568 161.016 17.536 161.304C17.504 161.592 17.4933 161.88 17.504 162.168C17.5253 162.456 17.536 162.744 17.536 163.032C17.536 163.235 17.4933 163.427 17.408 163.608C17.2587 163.971 17.0027 164.232 16.64 164.392C16.4693 164.467 16.288 164.504 16.096 164.504H16V165.496H16.096C16.288 165.496 16.4693 165.533 16.64 165.608C16.8213 165.693 16.976 165.8 17.104 165.928C17.232 166.067 17.3333 166.221 17.408 166.392V166.408C17.4933 166.579 17.536 166.765 17.536 166.968C17.536 167.256 17.5253 167.549 17.504 167.848C17.4933 168.136 17.504 168.424 17.536 168.712C17.568 168.989 17.632 169.261 17.728 169.528C17.8347 169.805 18 170.061 18.224 170.296C18.448 170.52 18.704 170.696 18.992 170.824C19.2907 170.941 19.5947 171 19.904 171H20V170.008H19.904C19.712 170.008 19.5253 169.971 19.344 169.896C19.1733 169.821 19.0187 169.715 18.88 169.576C18.752 169.437 18.6507 169.283 18.576 169.112C18.5013 168.931 18.464 168.739 18.464 168.536C18.464 168.291 18.4693 168.067 18.48 167.864C18.4907 167.64 18.4907 167.421 18.48 167.208C18.48 166.995 18.464 166.781 18.432 166.568C18.4 166.355 18.3413 166.152 18.256 165.96C18.096 165.576 17.8507 165.256 17.52 165C17.8507 164.744 18.096 164.424 18.256 164.04C18.3413 163.859 18.4 163.661 18.432 163.448C18.464 163.235 18.48 163.021 18.48 162.808C18.4907 162.584 18.4907 162.36 18.48 162.136C18.4693 161.912 18.464 161.688 18.464 161.464C18.464 161.165 18.544 160.893 18.704 160.648C18.864 160.403 19.0773 160.221 19.344 160.104C19.5253 160.019 19.712 159.976 19.904 159.976H20ZM24 170.008V171H24.096C24.4053 171 24.704 170.941 24.992 170.824C25.2907 170.696 25.552 170.52 25.776 170.296C26 170.061 26.1653 169.805 26.272 169.528C26.368 169.272 26.432 168.995 26.464 168.696C26.496 168.419 26.5013 168.136 26.48 167.848C26.4693 167.549 26.464 167.256 26.464 166.968C26.464 166.765 26.5067 166.573 26.592 166.392C26.7413 166.029 26.9973 165.768 27.36 165.608C27.5307 165.533 27.712 165.496 27.904 165.496H28V164.504H27.904C27.712 164.504 27.5307 164.467 27.36 164.392C27.1787 164.317 27.024 164.211 26.896 164.072C26.7573 163.933 26.656 163.779 26.592 163.608V163.592C26.5067 163.421 26.464 163.235 26.464 163.032C26.464 162.744 26.4693 162.456 26.48 162.168C26.5013 161.88 26.496 161.587 26.464 161.288C26.432 161.011 26.368 160.739 26.272 160.472C26.1547 160.184 25.984 159.928 25.76 159.704C25.5467 159.48 25.2907 159.309 24.992 159.192C24.704 159.064 24.4053 159 24.096 159H24V159.992H24.096C24.288 159.992 24.4693 160.029 24.64 160.104C24.8213 160.179 24.976 160.285 25.104 160.424C25.232 160.552 25.3333 160.707 25.408 160.888C25.4933 161.069 25.536 161.261 25.536 161.464C25.5253 161.709 25.52 161.933 25.52 162.136C25.5093 162.36 25.504 162.584 25.504 162.808C25.5147 163.021 25.536 163.235 25.568 163.448C25.6 163.651 25.6587 163.848 25.744 164.04C25.904 164.424 26.1493 164.744 26.48 165C26.1493 165.256 25.904 165.576 25.744 165.96C25.6587 166.152 25.6 166.355 25.568 166.568C25.536 166.771 25.5147 166.984 25.504 167.208C25.504 167.421 25.5093 167.64 25.52 167.864C25.5307 168.088 25.536 168.312 25.536 168.536C25.536 168.835 25.456 169.107 25.296 169.352C25.136 169.597 24.9227 169.779 24.656 169.896C24.4747 169.981 24.288 170.024 24.096 170.024H24V170.008Z" fill="#CBCB41"/>
<rect x="38" y="161.5" width="70" height="7" rx="3.5" fill="white" fill-opacity="0.16"/>
<path d="M21.76 186.38H19.62V192.74H18.06V186.38H15.94V185.24H21.68V186.38H21.76ZM26.56 190.82C26.56 190.673 26.5333 190.547 26.48 190.44C26.4267 190.333 26.3533 190.227 26.26 190.12C26.18 190.053 26.06 189.98 25.9 189.9C25.7933 189.86 25.6067 189.787 25.34 189.68L25.18 189.62C24.3133 189.367 23.6267 189.053 23.12 188.68C22.6667 188.293 22.44 187.813 22.44 187.24C22.44 186.613 22.7133 186.113 23.26 185.74C23.7533 185.367 24.4067 185.18 25.22 185.18C26.0467 185.18 26.7267 185.413 27.26 185.88C27.7533 186.32 28 186.86 28 187.5H26.56C26.56 187.313 26.5267 187.153 26.46 187.02C26.4067 186.887 26.3133 186.753 26.18 186.62C25.9133 186.42 25.58 186.32 25.18 186.32C24.78 186.32 24.4733 186.4 24.26 186.56C24.0467 186.72 23.94 186.947 23.94 187.24C23.94 187.48 24.0667 187.693 24.32 187.88C24.4267 187.96 24.5867 188.04 24.8 188.12C24.96 188.187 25.2133 188.273 25.56 188.38C26.3733 188.62 26.9933 188.927 27.42 189.3C27.8467 189.66 28.06 190.167 28.06 190.82C28.06 191.14 27.9933 191.433 27.86 191.7C27.74 191.953 27.56 192.16 27.32 192.32C26.8133 192.693 26.1467 192.88 25.32 192.88C24.44 192.88 23.7267 192.667 23.18 192.24C22.5533 191.747 22.2667 191.147 22.32 190.44H23.82C23.82 190.867 23.9667 191.2 24.26 191.44C24.38 191.533 24.54 191.607 24.74 191.66C24.94 191.713 25.1533 191.74 25.38 191.74C25.8333 191.74 26.1467 191.66 26.32 191.5C26.48 191.247 26.56 191.02 26.56 190.82Z" fill="#519ABA"/>
<rect x="38" y="185.5" width="43" height="7" rx="3.5" fill="white" fill-opacity="0.16"/>
<path d="M21.76 210.38H19.62V216.74H18.06V210.38H15.94V209.24H21.68V210.38H21.76ZM26.56 214.82C26.56 214.673 26.5333 214.547 26.48 214.44C26.4267 214.333 26.3533 214.227 26.26 214.12C26.18 214.053 26.06 213.98 25.9 213.9C25.7933 213.86 25.6067 213.787 25.34 213.68L25.18 213.62C24.3133 213.367 23.6267 213.053 23.12 212.68C22.6667 212.293 22.44 211.813 22.44 211.24C22.44 210.613 22.7133 210.113 23.26 209.74C23.7533 209.367 24.4067 209.18 25.22 209.18C26.0467 209.18 26.7267 209.413 27.26 209.88C27.7533 210.32 28 210.86 28 211.5H26.56C26.56 211.313 26.5267 211.153 26.46 211.02C26.4067 210.887 26.3133 210.753 26.18 210.62C25.9133 210.42 25.58 210.32 25.18 210.32C24.78 210.32 24.4733 210.4 24.26 210.56C24.0467 210.72 23.94 210.947 23.94 211.24C23.94 211.48 24.0667 211.693 24.32 211.88C24.4267 211.96 24.5867 212.04 24.8 212.12C24.96 212.187 25.2133 212.273 25.56 212.38C26.3733 212.62 26.9933 212.927 27.42 213.3C27.8467 213.66 28.06 214.167 28.06 214.82C28.06 215.14 27.9933 215.433 27.86 215.7C27.74 215.953 27.56 216.16 27.32 216.32C26.8133 216.693 26.1467 216.88 25.32 216.88C24.44 216.88 23.7267 216.667 23.18 216.24C22.5533 215.747 22.2667 215.147 22.32 214.44H23.82C23.82 214.867 23.9667 215.2 24.26 215.44C24.38 215.533 24.54 215.607 24.74 215.66C24.94 215.713 25.1533 215.74 25.38 215.74C25.8333 215.74 26.1467 215.66 26.32 215.5C26.48 215.247 26.56 215.02 26.56 214.82Z" fill="#519ABA"/>
<rect x="38" y="209.5" width="73" height="7" rx="3.5" fill="white" fill-opacity="0.16"/>
</g>
<g clip-path="url(#clip1)" filter="url(#filter1_d)">
<rect width="379" height="318" transform="translate(123)" fill="#252526"/>
<rect width="517" height="35" transform="translate(123)" fill="#252526"/>
<rect width="103" height="35" transform="translate(123)" fill="#1E1E1E"/>
<rect x="135" y="14" width="79" height="7" rx="3.5" fill="white" fill-opacity="0.12"/>
<rect x="143" y="59" width="83" height="8" rx="4" fill="#007ACC"/>
<g clip-path="url(#clip2)">
<rect width="379" height="24" transform="translate(123 158)" fill="#415C26" fill-opacity="0.75"/>
<path d="M151 168.992V170H145V176H144.008V170H138.008V168.992H144.008V162.992H145V168.992H151Z" fill="white"/>
<path d="M169.217 173.666C168.928 173.834 168.629 173.959 168.32 174.041C168.016 174.127 167.703 174.17 167.383 174.17C166.367 174.17 165.572 173.865 164.998 173.256C164.428 172.646 164.143 171.803 164.143 170.725C164.143 169.646 164.428 168.803 164.998 168.193C165.572 167.584 166.367 167.279 167.383 167.279C167.699 167.279 168.008 167.32 168.309 167.402C168.609 167.484 168.912 167.611 169.217 167.783V168.914C168.932 168.66 168.645 168.477 168.355 168.363C168.07 168.25 167.746 168.193 167.383 168.193C166.707 168.193 166.188 168.412 165.824 168.85C165.461 169.287 165.279 169.912 165.279 170.725C165.279 171.533 165.461 172.158 165.824 172.6C166.191 173.037 166.711 173.256 167.383 173.256C167.758 173.256 168.094 173.199 168.391 173.086C168.688 172.969 168.963 172.789 169.217 172.547V173.666ZM173.84 168.193C173.293 168.193 172.879 168.406 172.598 168.832C172.316 169.258 172.176 169.889 172.176 170.725C172.176 171.557 172.316 172.188 172.598 172.617C172.879 173.043 173.293 173.256 173.84 173.256C174.391 173.256 174.807 173.043 175.088 172.617C175.369 172.188 175.51 171.557 175.51 170.725C175.51 169.889 175.369 169.258 175.088 168.832C174.807 168.406 174.391 168.193 173.84 168.193ZM173.84 167.279C174.75 167.279 175.445 167.574 175.926 168.164C176.41 168.754 176.652 169.607 176.652 170.725C176.652 171.846 176.412 172.701 175.932 173.291C175.451 173.877 174.754 174.17 173.84 174.17C172.93 174.17 172.234 173.877 171.754 173.291C171.273 172.701 171.033 171.846 171.033 170.725C171.033 169.607 171.273 168.754 171.754 168.164C172.234 167.574 172.93 167.279 173.84 167.279ZM183.619 169.934V174H182.535V169.934C182.535 169.344 182.432 168.91 182.225 168.633C182.018 168.355 181.693 168.217 181.252 168.217C180.748 168.217 180.359 168.396 180.086 168.756C179.816 169.111 179.682 169.623 179.682 170.291V174H178.604V167.438H179.682V168.422C179.873 168.047 180.133 167.764 180.461 167.572C180.789 167.377 181.178 167.279 181.627 167.279C182.295 167.279 182.793 167.5 183.121 167.941C183.453 168.379 183.619 169.043 183.619 169.934ZM190.393 167.666V168.721C190.084 168.541 189.773 168.406 189.461 168.316C189.148 168.227 188.83 168.182 188.506 168.182C188.018 168.182 187.652 168.262 187.41 168.422C187.172 168.578 187.053 168.818 187.053 169.143C187.053 169.436 187.143 169.654 187.322 169.799C187.502 169.943 187.949 170.084 188.664 170.221L189.098 170.303C189.633 170.404 190.037 170.607 190.311 170.912C190.588 171.217 190.727 171.613 190.727 172.102C190.727 172.75 190.496 173.258 190.035 173.625C189.574 173.988 188.934 174.17 188.113 174.17C187.789 174.17 187.449 174.135 187.094 174.064C186.738 173.998 186.354 173.896 185.939 173.76V172.646C186.342 172.854 186.727 173.01 187.094 173.115C187.461 173.217 187.809 173.268 188.137 173.268C188.613 173.268 188.982 173.172 189.244 172.98C189.506 172.785 189.637 172.514 189.637 172.166C189.637 171.666 189.158 171.32 188.201 171.129L188.154 171.117L187.75 171.035C187.129 170.914 186.676 170.711 186.391 170.426C186.105 170.137 185.963 169.744 185.963 169.248C185.963 168.619 186.176 168.135 186.602 167.795C187.027 167.451 187.635 167.279 188.424 167.279C188.775 167.279 189.113 167.312 189.438 167.379C189.762 167.441 190.08 167.537 190.393 167.666ZM195.52 165.574V167.438H197.969V168.275H195.52V171.838C195.52 172.322 195.611 172.66 195.795 172.852C195.979 173.043 196.299 173.139 196.756 173.139H197.969V174H196.65C195.842 174 195.271 173.838 194.939 173.514C194.607 173.189 194.441 172.631 194.441 171.838V168.275H192.689V167.438H194.441V165.574H195.52Z" fill="#40A6FF"/>
<path d="M209.682 164.297H212.166V165.135H210.76V174.158H212.166V174.996H209.682V164.297ZM281.277 171.885H283.105V173.438L281.805 175.963L280.633 175.969L281.277 173.438V171.885ZM384.133 164.297V174.996H381.648V174.158H383.055V165.135H381.648V164.297H384.133ZM394.891 171.07H401.084V172.061H394.891V171.07ZM394.891 168.311H401.084V169.301H394.891V168.311ZM471.689 164.309C471.17 165.199 470.781 166.088 470.523 166.975C470.27 167.857 470.143 168.748 470.143 169.646C470.143 170.541 470.27 171.432 470.523 172.318C470.781 173.205 471.17 174.098 471.689 174.996H470.752C470.162 174.066 469.723 173.162 469.434 172.283C469.145 171.4 469 170.521 469 169.646C469 168.775 469.145 167.898 469.434 167.016C469.723 166.133 470.162 165.23 470.752 164.309H471.689ZM475.949 164.309H476.887C477.477 165.23 477.916 166.133 478.205 167.016C478.494 167.898 478.639 168.775 478.639 169.646C478.639 170.525 478.494 171.406 478.205 172.289C477.916 173.172 477.477 174.074 476.887 174.996H475.949C476.469 174.09 476.855 173.193 477.109 172.307C477.367 171.42 477.496 170.533 477.496 169.646C477.496 168.756 477.367 167.867 477.109 166.98C476.855 166.094 476.469 165.203 475.949 164.309ZM483.73 171.885H485.559V173.438L484.404 175.676H483.15L483.73 173.438V171.885ZM483.654 167.443H485.482V169.559H483.654V167.443Z" fill="white"/>
<path d="M219.83 173.666C219.541 173.834 219.242 173.959 218.934 174.041C218.629 174.127 218.316 174.17 217.996 174.17C216.98 174.17 216.186 173.865 215.611 173.256C215.041 172.646 214.756 171.803 214.756 170.725C214.756 169.646 215.041 168.803 215.611 168.193C216.186 167.584 216.98 167.279 217.996 167.279C218.312 167.279 218.621 167.32 218.922 167.402C219.223 167.484 219.525 167.611 219.83 167.783V168.914C219.545 168.66 219.258 168.477 218.969 168.363C218.684 168.25 218.359 168.193 217.996 168.193C217.32 168.193 216.801 168.412 216.438 168.85C216.074 169.287 215.893 169.912 215.893 170.725C215.893 171.533 216.074 172.158 216.438 172.6C216.805 173.037 217.324 173.256 217.996 173.256C218.371 173.256 218.707 173.199 219.004 173.086C219.301 172.969 219.576 172.789 219.83 172.547V173.666ZM224.957 170.701H224.6C223.971 170.701 223.496 170.812 223.176 171.035C222.859 171.254 222.701 171.582 222.701 172.02C222.701 172.414 222.82 172.721 223.059 172.939C223.297 173.158 223.627 173.268 224.049 173.268C224.643 173.268 225.109 173.062 225.449 172.652C225.789 172.238 225.961 171.668 225.965 170.941V170.701H224.957ZM227.049 170.256V174H225.965V173.027C225.734 173.418 225.443 173.707 225.092 173.895C224.744 174.078 224.32 174.17 223.82 174.17C223.152 174.17 222.619 173.982 222.221 173.607C221.822 173.229 221.623 172.723 221.623 172.09C221.623 171.359 221.867 170.805 222.355 170.426C222.848 170.047 223.568 169.857 224.518 169.857H225.965V169.688C225.961 169.164 225.828 168.785 225.566 168.551C225.305 168.312 224.887 168.193 224.312 168.193C223.945 168.193 223.574 168.246 223.199 168.352C222.824 168.457 222.459 168.611 222.104 168.814V167.736C222.502 167.584 222.883 167.471 223.246 167.396C223.613 167.318 223.969 167.279 224.312 167.279C224.855 167.279 225.318 167.359 225.701 167.52C226.088 167.68 226.4 167.92 226.639 168.24C226.787 168.436 226.893 168.678 226.955 168.967C227.018 169.252 227.049 169.682 227.049 170.256ZM234.842 168.791C234.611 168.611 234.377 168.48 234.139 168.398C233.9 168.316 233.639 168.275 233.354 168.275C232.682 168.275 232.168 168.486 231.812 168.908C231.457 169.33 231.279 169.939 231.279 170.736V174H230.195V167.438H231.279V168.721C231.459 168.256 231.734 167.9 232.105 167.654C232.48 167.404 232.924 167.279 233.436 167.279C233.701 167.279 233.949 167.312 234.18 167.379C234.41 167.445 234.631 167.549 234.842 167.689V168.791ZM238.902 165.574V167.438H241.352V168.275H238.902V171.838C238.902 172.322 238.994 172.66 239.178 172.852C239.361 173.043 239.682 173.139 240.139 173.139H241.352V174H240.033C239.225 174 238.654 173.838 238.322 173.514C237.99 173.189 237.824 172.631 237.824 171.838V168.275H236.072V167.438H237.824V165.574H238.902ZM243.713 165.252H248.57V166.248H246.736V173.004H248.57V174H243.713V173.004H245.547V166.248H243.713V165.252ZM253.363 165.574V167.438H255.812V168.275H253.363V171.838C253.363 172.322 253.455 172.66 253.639 172.852C253.822 173.043 254.143 173.139 254.6 173.139H255.812V174H254.494C253.686 174 253.115 173.838 252.783 173.514C252.451 173.189 252.285 172.631 252.285 171.838V168.275H250.533V167.438H252.285V165.574H253.363ZM263.559 170.18V170.707H258.889V170.742C258.857 171.637 259.027 172.279 259.398 172.67C259.773 173.061 260.301 173.256 260.98 173.256C261.324 173.256 261.684 173.201 262.059 173.092C262.434 172.982 262.834 172.816 263.26 172.594V173.666C262.85 173.834 262.453 173.959 262.07 174.041C261.691 174.127 261.324 174.17 260.969 174.17C259.949 174.17 259.152 173.865 258.578 173.256C258.004 172.643 257.717 171.799 257.717 170.725C257.717 169.678 257.998 168.842 258.561 168.217C259.123 167.592 259.873 167.279 260.811 167.279C261.646 167.279 262.305 167.562 262.785 168.129C263.27 168.695 263.527 169.379 263.559 170.18ZM262.48 169.863C262.434 169.41 262.268 169.02 261.982 168.691C261.701 168.359 261.295 168.193 260.764 168.193C260.244 168.193 259.816 168.365 259.48 168.709C259.145 169.053 258.961 169.439 258.93 169.869L262.48 169.863ZM268.188 168.105C268.32 167.824 268.488 167.617 268.691 167.484C268.898 167.348 269.146 167.279 269.436 167.279C269.963 167.279 270.334 167.484 270.549 167.895C270.768 168.301 270.877 169.068 270.877 170.197V174H269.893V170.244C269.893 169.318 269.84 168.744 269.734 168.521C269.633 168.295 269.445 168.182 269.172 168.182C268.859 168.182 268.645 168.303 268.527 168.545C268.414 168.783 268.357 169.35 268.357 170.244V174H267.373V170.244C267.373 169.307 267.316 168.729 267.203 168.51C267.094 168.291 266.895 168.182 266.605 168.182C266.32 168.182 266.121 168.303 266.008 168.545C265.898 168.783 265.844 169.35 265.844 170.244V174H264.865V167.438H265.844V168C265.973 167.766 266.133 167.588 266.324 167.467C266.52 167.342 266.74 167.279 266.986 167.279C267.283 167.279 267.529 167.348 267.725 167.484C267.924 167.621 268.078 167.828 268.188 168.105ZM277.158 167.666V168.721C276.85 168.541 276.539 168.406 276.227 168.316C275.914 168.227 275.596 168.182 275.271 168.182C274.783 168.182 274.418 168.262 274.176 168.422C273.938 168.578 273.818 168.818 273.818 169.143C273.818 169.436 273.908 169.654 274.088 169.799C274.268 169.943 274.715 170.084 275.43 170.221L275.863 170.303C276.398 170.404 276.803 170.607 277.076 170.912C277.354 171.217 277.492 171.613 277.492 172.102C277.492 172.75 277.262 173.258 276.801 173.625C276.34 173.988 275.699 174.17 274.879 174.17C274.555 174.17 274.215 174.135 273.859 174.064C273.504 173.998 273.119 173.896 272.705 173.76V172.646C273.107 172.854 273.492 173.01 273.859 173.115C274.227 173.217 274.574 173.268 274.902 173.268C275.379 173.268 275.748 173.172 276.01 172.98C276.271 172.785 276.402 172.514 276.402 172.166C276.402 171.666 275.924 171.32 274.967 171.129L274.92 171.117L274.516 171.035C273.895 170.914 273.441 170.711 273.156 170.426C272.871 170.137 272.729 169.744 272.729 169.248C272.729 168.619 272.941 168.135 273.367 167.795C273.793 167.451 274.4 167.279 275.189 167.279C275.541 167.279 275.879 167.312 276.203 167.379C276.527 167.441 276.846 167.537 277.158 167.666Z" fill="#75BEFF"/>
<path d="M298.85 167.666V168.721C298.541 168.541 298.23 168.406 297.918 168.316C297.605 168.227 297.287 168.182 296.963 168.182C296.475 168.182 296.109 168.262 295.867 168.422C295.629 168.578 295.51 168.818 295.51 169.143C295.51 169.436 295.6 169.654 295.779 169.799C295.959 169.943 296.406 170.084 297.121 170.221L297.555 170.303C298.09 170.404 298.494 170.607 298.768 170.912C299.045 171.217 299.184 171.613 299.184 172.102C299.184 172.75 298.953 173.258 298.492 173.625C298.031 173.988 297.391 174.17 296.57 174.17C296.246 174.17 295.906 174.135 295.551 174.064C295.195 173.998 294.811 173.896 294.396 173.76V172.646C294.799 172.854 295.184 173.01 295.551 173.115C295.918 173.217 296.266 173.268 296.594 173.268C297.07 173.268 297.439 173.172 297.701 172.98C297.963 172.785 298.094 172.514 298.094 172.166C298.094 171.666 297.615 171.32 296.658 171.129L296.611 171.117L296.207 171.035C295.586 170.914 295.133 170.711 294.848 170.426C294.562 170.137 294.42 169.744 294.42 169.248C294.42 168.619 294.633 168.135 295.059 167.795C295.484 167.451 296.092 167.279 296.881 167.279C297.232 167.279 297.57 167.312 297.895 167.379C298.219 167.441 298.537 167.537 298.85 167.666ZM306.941 170.18V170.707H302.271V170.742C302.24 171.637 302.41 172.279 302.781 172.67C303.156 173.061 303.684 173.256 304.363 173.256C304.707 173.256 305.066 173.201 305.441 173.092C305.816 172.982 306.217 172.816 306.643 172.594V173.666C306.232 173.834 305.836 173.959 305.453 174.041C305.074 174.127 304.707 174.17 304.352 174.17C303.332 174.17 302.535 173.865 301.961 173.256C301.387 172.643 301.1 171.799 301.1 170.725C301.1 169.678 301.381 168.842 301.943 168.217C302.506 167.592 303.256 167.279 304.193 167.279C305.029 167.279 305.688 167.562 306.168 168.129C306.652 168.695 306.91 169.379 306.941 170.18ZM305.863 169.863C305.816 169.41 305.65 169.02 305.365 168.691C305.084 168.359 304.678 168.193 304.146 168.193C303.627 168.193 303.199 168.365 302.863 168.709C302.527 169.053 302.344 169.439 302.312 169.869L305.863 169.863ZM311.207 165.574V167.438H313.656V168.275H311.207V171.838C311.207 172.322 311.299 172.66 311.482 172.852C311.666 173.043 311.986 173.139 312.443 173.139H313.656V174H312.338C311.529 174 310.959 173.838 310.627 173.514C310.295 173.189 310.129 172.631 310.129 171.838V168.275H308.377V167.438H310.129V165.574H311.207ZM321.127 173.689C320.826 173.85 320.518 173.969 320.201 174.047C319.885 174.129 319.549 174.17 319.193 174.17C318.072 174.17 317.201 173.773 316.58 172.98C315.963 172.188 315.654 171.072 315.654 169.635C315.654 168.205 315.965 167.092 316.586 166.295C317.211 165.494 318.08 165.094 319.193 165.094C319.549 165.094 319.885 165.135 320.201 165.217C320.518 165.295 320.826 165.414 321.127 165.574V166.787C320.838 166.549 320.527 166.367 320.195 166.242C319.863 166.117 319.529 166.055 319.193 166.055C318.424 166.055 317.848 166.352 317.465 166.945C317.082 167.539 316.891 168.436 316.891 169.635C316.891 170.83 317.082 171.725 317.465 172.318C317.848 172.912 318.424 173.209 319.193 173.209C319.537 173.209 319.873 173.146 320.201 173.021C320.533 172.896 320.842 172.715 321.127 172.477V173.689ZM326.184 170.701H325.826C325.197 170.701 324.723 170.812 324.402 171.035C324.086 171.254 323.928 171.582 323.928 172.02C323.928 172.414 324.047 172.721 324.285 172.939C324.523 173.158 324.854 173.268 325.275 173.268C325.869 173.268 326.336 173.062 326.676 172.652C327.016 172.238 327.188 171.668 327.191 170.941V170.701H326.184ZM328.275 170.256V174H327.191V173.027C326.961 173.418 326.67 173.707 326.318 173.895C325.971 174.078 325.547 174.17 325.047 174.17C324.379 174.17 323.846 173.982 323.447 173.607C323.049 173.229 322.85 172.723 322.85 172.09C322.85 171.359 323.094 170.805 323.582 170.426C324.074 170.047 324.795 169.857 325.744 169.857H327.191V169.688C327.188 169.164 327.055 168.785 326.793 168.551C326.531 168.312 326.113 168.193 325.539 168.193C325.172 168.193 324.801 168.246 324.426 168.352C324.051 168.457 323.686 168.611 323.33 168.814V167.736C323.729 167.584 324.109 167.471 324.473 167.396C324.84 167.318 325.195 167.279 325.539 167.279C326.082 167.279 326.545 167.359 326.928 167.52C327.314 167.68 327.627 167.92 327.865 168.24C328.014 168.436 328.119 168.678 328.182 168.967C328.244 169.252 328.275 169.682 328.275 170.256ZM336.068 168.791C335.838 168.611 335.604 168.48 335.365 168.398C335.127 168.316 334.865 168.275 334.58 168.275C333.908 168.275 333.395 168.486 333.039 168.908C332.684 169.33 332.506 169.939 332.506 170.736V174H331.422V167.438H332.506V168.721C332.686 168.256 332.961 167.9 333.332 167.654C333.707 167.404 334.15 167.279 334.662 167.279C334.928 167.279 335.176 167.312 335.406 167.379C335.637 167.445 335.857 167.549 336.068 167.689V168.791ZM340.129 165.574V167.438H342.578V168.275H340.129V171.838C340.129 172.322 340.221 172.66 340.404 172.852C340.588 173.043 340.908 173.139 341.365 173.139H342.578V174H341.26C340.451 174 339.881 173.838 339.549 173.514C339.217 173.189 339.051 172.631 339.051 171.838V168.275H337.299V167.438H339.051V165.574H340.129ZM344.939 165.252H349.797V166.248H347.963V173.004H349.797V174H344.939V173.004H346.773V166.248H344.939V165.252ZM354.59 165.574V167.438H357.039V168.275H354.59V171.838C354.59 172.322 354.682 172.66 354.865 172.852C355.049 173.043 355.369 173.139 355.826 173.139H357.039V174H355.721C354.912 174 354.342 173.838 354.01 173.514C353.678 173.189 353.512 172.631 353.512 171.838V168.275H351.76V167.438H353.512V165.574H354.59ZM364.785 170.18V170.707H360.115V170.742C360.084 171.637 360.254 172.279 360.625 172.67C361 173.061 361.527 173.256 362.207 173.256C362.551 173.256 362.91 173.201 363.285 173.092C363.66 172.982 364.061 172.816 364.486 172.594V173.666C364.076 173.834 363.68 173.959 363.297 174.041C362.918 174.127 362.551 174.17 362.195 174.17C361.176 174.17 360.379 173.865 359.805 173.256C359.23 172.643 358.943 171.799 358.943 170.725C358.943 169.678 359.225 168.842 359.787 168.217C360.35 167.592 361.1 167.279 362.037 167.279C362.873 167.279 363.531 167.562 364.012 168.129C364.496 168.695 364.754 169.379 364.785 170.18ZM363.707 169.863C363.66 169.41 363.494 169.02 363.209 168.691C362.928 168.359 362.521 168.193 361.99 168.193C361.471 168.193 361.043 168.365 360.707 168.709C360.371 169.053 360.188 169.439 360.156 169.869L363.707 169.863ZM369.414 168.105C369.547 167.824 369.715 167.617 369.918 167.484C370.125 167.348 370.373 167.279 370.662 167.279C371.189 167.279 371.561 167.484 371.775 167.895C371.994 168.301 372.104 169.068 372.104 170.197V174H371.119V170.244C371.119 169.318 371.066 168.744 370.961 168.521C370.859 168.295 370.672 168.182 370.398 168.182C370.086 168.182 369.871 168.303 369.754 168.545C369.641 168.783 369.584 169.35 369.584 170.244V174H368.6V170.244C368.6 169.307 368.543 168.729 368.43 168.51C368.32 168.291 368.121 168.182 367.832 168.182C367.547 168.182 367.348 168.303 367.234 168.545C367.125 168.783 367.07 169.35 367.07 170.244V174H366.092V167.438H367.07V168C367.199 167.766 367.359 167.588 367.551 167.467C367.746 167.342 367.967 167.279 368.213 167.279C368.51 167.279 368.756 167.348 368.951 167.484C369.15 167.621 369.305 167.828 369.414 168.105ZM378.385 167.666V168.721C378.076 168.541 377.766 168.406 377.453 168.316C377.141 168.227 376.822 168.182 376.498 168.182C376.01 168.182 375.645 168.262 375.402 168.422C375.164 168.578 375.045 168.818 375.045 169.143C375.045 169.436 375.135 169.654 375.314 169.799C375.494 169.943 375.941 170.084 376.656 170.221L377.09 170.303C377.625 170.404 378.029 170.607 378.303 170.912C378.58 171.217 378.719 171.613 378.719 172.102C378.719 172.75 378.488 173.258 378.027 173.625C377.566 173.988 376.926 174.17 376.105 174.17C375.781 174.17 375.441 174.135 375.086 174.064C374.73 173.998 374.346 173.896 373.932 173.76V172.646C374.334 172.854 374.719 173.01 375.086 173.115C375.453 173.217 375.801 173.268 376.129 173.268C376.605 173.268 376.975 173.172 377.236 172.98C377.498 172.785 377.629 172.514 377.629 172.166C377.629 171.666 377.15 171.32 376.193 171.129L376.146 171.117L375.742 171.035C375.121 170.914 374.668 170.711 374.383 170.426C374.098 170.137 373.955 169.744 373.955 169.248C373.955 168.619 374.168 168.135 374.594 167.795C375.02 167.451 375.627 167.279 376.416 167.279C376.768 167.279 377.105 167.312 377.43 167.379C377.754 167.441 378.072 167.537 378.385 167.666ZM409.979 171.516V167.449H411.057V171.516C411.057 172.105 411.16 172.539 411.367 172.816C411.578 173.094 411.902 173.232 412.34 173.232C412.848 173.232 413.236 173.055 413.506 172.699C413.775 172.34 413.91 171.826 413.91 171.158V167.449H414.994V174H413.91V173.016C413.719 173.395 413.457 173.682 413.125 173.877C412.797 174.072 412.412 174.17 411.971 174.17C411.299 174.17 410.799 173.951 410.471 173.514C410.143 173.072 409.979 172.406 409.979 171.516ZM421.768 167.666V168.721C421.459 168.541 421.148 168.406 420.836 168.316C420.523 168.227 420.205 168.182 419.881 168.182C419.393 168.182 419.027 168.262 418.785 168.422C418.547 168.578 418.428 168.818 418.428 169.143C418.428 169.436 418.518 169.654 418.697 169.799C418.877 169.943 419.324 170.084 420.039 170.221L420.473 170.303C421.008 170.404 421.412 170.607 421.686 170.912C421.963 171.217 422.102 171.613 422.102 172.102C422.102 172.75 421.871 173.258 421.41 173.625C420.949 173.988 420.309 174.17 419.488 174.17C419.164 174.17 418.824 174.135 418.469 174.064C418.113 173.998 417.729 173.896 417.314 173.76V172.646C417.717 172.854 418.102 173.01 418.469 173.115C418.836 173.217 419.184 173.268 419.512 173.268C419.988 173.268 420.357 173.172 420.619 172.98C420.881 172.785 421.012 172.514 421.012 172.166C421.012 171.666 420.533 171.32 419.576 171.129L419.529 171.117L419.125 171.035C418.504 170.914 418.051 170.711 417.766 170.426C417.48 170.137 417.338 169.744 417.338 169.248C417.338 168.619 417.551 168.135 417.977 167.795C418.402 167.451 419.01 167.279 419.799 167.279C420.15 167.279 420.488 167.312 420.812 167.379C421.137 167.441 421.455 167.537 421.768 167.666ZM429.859 170.18V170.707H425.189V170.742C425.158 171.637 425.328 172.279 425.699 172.67C426.074 173.061 426.602 173.256 427.281 173.256C427.625 173.256 427.984 173.201 428.359 173.092C428.734 172.982 429.135 172.816 429.561 172.594V173.666C429.15 173.834 428.754 173.959 428.371 174.041C427.992 174.127 427.625 174.17 427.27 174.17C426.25 174.17 425.453 173.865 424.879 173.256C424.305 172.643 424.018 171.799 424.018 170.725C424.018 169.678 424.299 168.842 424.861 168.217C425.424 167.592 426.174 167.279 427.111 167.279C427.947 167.279 428.605 167.562 429.086 168.129C429.57 168.695 429.828 169.379 429.859 170.18ZM428.781 169.863C428.734 169.41 428.568 169.02 428.283 168.691C428.002 168.359 427.596 168.193 427.064 168.193C426.545 168.193 426.117 168.365 425.781 168.709C425.445 169.053 425.262 169.439 425.23 169.869L428.781 169.863ZM436.457 165.551V166.752C436.098 166.521 435.736 166.348 435.373 166.23C435.014 166.113 434.65 166.055 434.283 166.055C433.725 166.055 433.283 166.186 432.959 166.447C432.635 166.705 432.473 167.055 432.473 167.496C432.473 167.883 432.578 168.178 432.789 168.381C433.004 168.584 433.402 168.754 433.984 168.891L434.605 169.031C435.426 169.223 436.023 169.523 436.398 169.934C436.773 170.344 436.961 170.902 436.961 171.609C436.961 172.441 436.703 173.076 436.188 173.514C435.672 173.951 434.922 174.17 433.938 174.17C433.527 174.17 433.115 174.125 432.701 174.035C432.287 173.949 431.871 173.818 431.453 173.643V172.383C431.902 172.668 432.326 172.877 432.725 173.01C433.127 173.143 433.531 173.209 433.938 173.209C434.535 173.209 435 173.076 435.332 172.811C435.664 172.541 435.83 172.166 435.83 171.686C435.83 171.248 435.715 170.914 435.484 170.684C435.258 170.453 434.861 170.275 434.295 170.15L433.662 170.004C432.85 169.82 432.26 169.543 431.893 169.172C431.525 168.801 431.342 168.303 431.342 167.678C431.342 166.896 431.604 166.271 432.127 165.803C432.654 165.33 433.354 165.094 434.225 165.094C434.561 165.094 434.914 165.133 435.285 165.211C435.656 165.285 436.047 165.398 436.457 165.551ZM441.355 165.574V167.438H443.805V168.275H441.355V171.838C441.355 172.322 441.447 172.66 441.631 172.852C441.814 173.043 442.135 173.139 442.592 173.139H443.805V174H442.486C441.678 174 441.107 173.838 440.775 173.514C440.443 173.189 440.277 172.631 440.277 171.838V168.275H438.525V167.438H440.277V165.574H441.355ZM449.102 170.701H448.744C448.115 170.701 447.641 170.812 447.32 171.035C447.004 171.254 446.846 171.582 446.846 172.02C446.846 172.414 446.965 172.721 447.203 172.939C447.441 173.158 447.771 173.268 448.193 173.268C448.787 173.268 449.254 173.062 449.594 172.652C449.934 172.238 450.105 171.668 450.109 170.941V170.701H449.102ZM451.193 170.256V174H450.109V173.027C449.879 173.418 449.588 173.707 449.236 173.895C448.889 174.078 448.465 174.17 447.965 174.17C447.297 174.17 446.764 173.982 446.365 173.607C445.967 173.229 445.768 172.723 445.768 172.09C445.768 171.359 446.012 170.805 446.5 170.426C446.992 170.047 447.713 169.857 448.662 169.857H450.109V169.688C450.105 169.164 449.973 168.785 449.711 168.551C449.449 168.312 449.031 168.193 448.457 168.193C448.09 168.193 447.719 168.246 447.344 168.352C446.969 168.457 446.604 168.611 446.248 168.814V167.736C446.646 167.584 447.027 167.471 447.391 167.396C447.758 167.318 448.113 167.279 448.457 167.279C449 167.279 449.463 167.359 449.846 167.52C450.232 167.68 450.545 167.92 450.783 168.24C450.932 168.436 451.037 168.678 451.1 168.967C451.162 169.252 451.193 169.682 451.193 170.256ZM455.816 165.574V167.438H458.266V168.275H455.816V171.838C455.816 172.322 455.908 172.66 456.092 172.852C456.275 173.043 456.596 173.139 457.053 173.139H458.266V174H456.947C456.139 174 455.568 173.838 455.236 173.514C454.904 173.189 454.738 172.631 454.738 171.838V168.275H452.986V167.438H454.738V165.574H455.816ZM466.012 170.18V170.707H461.342V170.742C461.311 171.637 461.48 172.279 461.852 172.67C462.227 173.061 462.754 173.256 463.434 173.256C463.777 173.256 464.137 173.201 464.512 173.092C464.887 172.982 465.287 172.816 465.713 172.594V173.666C465.303 173.834 464.906 173.959 464.523 174.041C464.145 174.127 463.777 174.17 463.422 174.17C462.402 174.17 461.605 173.865 461.031 173.256C460.457 172.643 460.17 171.799 460.17 170.725C460.17 169.678 460.451 168.842 461.014 168.217C461.576 167.592 462.326 167.279 463.264 167.279C464.1 167.279 464.758 167.562 465.238 168.129C465.723 168.695 465.98 169.379 466.012 170.18ZM464.934 169.863C464.887 169.41 464.721 169.02 464.436 168.691C464.154 168.359 463.748 168.193 463.217 168.193C462.697 168.193 462.27 168.365 461.934 168.709C461.598 169.053 461.414 169.439 461.383 169.869L464.934 169.863Z" fill="#D7BA7D"/>
<g clip-path="url(#clip3)">
<rect width="65" height="24" transform="translate(214 158)" fill="#637E3A" fill-opacity="0.4"/>
</g>
<g clip-path="url(#clip4)">
<rect width="87" height="24" transform="translate(293 158)" fill="#637E3A" fill-opacity="0.4"/>
</g>
</g>
<rect x="143" y="279" width="65" height="8" rx="4" fill="#007ACC"/>
<rect x="143" y="212" width="115" height="8" rx="4" fill="#B180D7"/>
<rect x="143" y="231" width="74" height="8" rx="4" fill="#B180D7"/>
<rect x="232" y="59" width="42" height="8" rx="4" fill="#D7BA7D"/>
<rect x="214" y="279" width="108" height="8" rx="4" fill="#D7BA7D"/>
<rect x="164" y="78" width="74" height="8" rx="4" fill="#007ACC"/>
<rect x="143" y="97" width="75" height="8" rx="4" fill="#007ACC"/>
<rect x="244" y="78" width="58" height="8" rx="4" fill="#D88E73"/>
<g clip-path="url(#clip5)">
<rect width="379" height="24" transform="translate(123 134)" fill="#A31515" fill-opacity="0.75"/>
<path d="M169.217 149.666C168.928 149.834 168.629 149.959 168.32 150.041C168.016 150.127 167.703 150.17 167.383 150.17C166.367 150.17 165.572 149.865 164.998 149.256C164.428 148.646 164.143 147.803 164.143 146.725C164.143 145.646 164.428 144.803 164.998 144.193C165.572 143.584 166.367 143.279 167.383 143.279C167.699 143.279 168.008 143.32 168.309 143.402C168.609 143.484 168.912 143.611 169.217 143.783V144.914C168.932 144.66 168.645 144.477 168.355 144.363C168.07 144.25 167.746 144.193 167.383 144.193C166.707 144.193 166.188 144.412 165.824 144.85C165.461 145.287 165.279 145.912 165.279 146.725C165.279 147.533 165.461 148.158 165.824 148.6C166.191 149.037 166.711 149.256 167.383 149.256C167.758 149.256 168.094 149.199 168.391 149.086C168.688 148.969 168.963 148.789 169.217 148.547V149.666ZM173.84 144.193C173.293 144.193 172.879 144.406 172.598 144.832C172.316 145.258 172.176 145.889 172.176 146.725C172.176 147.557 172.316 148.188 172.598 148.617C172.879 149.043 173.293 149.256 173.84 149.256C174.391 149.256 174.807 149.043 175.088 148.617C175.369 148.188 175.51 147.557 175.51 146.725C175.51 145.889 175.369 145.258 175.088 144.832C174.807 144.406 174.391 144.193 173.84 144.193ZM173.84 143.279C174.75 143.279 175.445 143.574 175.926 144.164C176.41 144.754 176.652 145.607 176.652 146.725C176.652 147.846 176.412 148.701 175.932 149.291C175.451 149.877 174.754 150.17 173.84 150.17C172.93 150.17 172.234 149.877 171.754 149.291C171.273 148.701 171.033 147.846 171.033 146.725C171.033 145.607 171.273 144.754 171.754 144.164C172.234 143.574 172.93 143.279 173.84 143.279ZM183.619 145.934V150H182.535V145.934C182.535 145.344 182.432 144.91 182.225 144.633C182.018 144.355 181.693 144.217 181.252 144.217C180.748 144.217 180.359 144.396 180.086 144.756C179.816 145.111 179.682 145.623 179.682 146.291V150H178.604V143.438H179.682V144.422C179.873 144.047 180.133 143.764 180.461 143.572C180.789 143.377 181.178 143.279 181.627 143.279C182.295 143.279 182.793 143.5 183.121 143.941C183.453 144.379 183.619 145.043 183.619 145.934ZM190.393 143.666V144.721C190.084 144.541 189.773 144.406 189.461 144.316C189.148 144.227 188.83 144.182 188.506 144.182C188.018 144.182 187.652 144.262 187.41 144.422C187.172 144.578 187.053 144.818 187.053 145.143C187.053 145.436 187.143 145.654 187.322 145.799C187.502 145.943 187.949 146.084 188.664 146.221L189.098 146.303C189.633 146.404 190.037 146.607 190.311 146.912C190.588 147.217 190.727 147.613 190.727 148.102C190.727 148.75 190.496 149.258 190.035 149.625C189.574 149.988 188.934 150.17 188.113 150.17C187.789 150.17 187.449 150.135 187.094 150.064C186.738 149.998 186.354 149.896 185.939 149.76V148.646C186.342 148.854 186.727 149.01 187.094 149.115C187.461 149.217 187.809 149.268 188.137 149.268C188.613 149.268 188.982 149.172 189.244 148.98C189.506 148.785 189.637 148.514 189.637 148.166C189.637 147.666 189.158 147.32 188.201 147.129L188.154 147.117L187.75 147.035C187.129 146.914 186.676 146.711 186.391 146.426C186.105 146.137 185.963 145.744 185.963 145.248C185.963 144.619 186.176 144.135 186.602 143.795C187.027 143.451 187.635 143.279 188.424 143.279C188.775 143.279 189.113 143.312 189.438 143.379C189.762 143.441 190.08 143.537 190.393 143.666ZM195.52 141.574V143.438H197.969V144.275H195.52V147.838C195.52 148.322 195.611 148.66 195.795 148.852C195.979 149.043 196.299 149.139 196.756 149.139H197.969V150H196.65C195.842 150 195.271 149.838 194.939 149.514C194.607 149.189 194.441 148.631 194.441 147.838V144.275H192.689V143.438H194.441V141.574H195.52Z" fill="#40A6FF"/>
<path d="M209.682 140.297H212.166V141.135H210.76V150.158H212.166V150.996H209.682V140.297ZM252.355 147.885H254.184V149.438L252.883 151.963L251.711 151.969L252.355 149.438V147.885ZM326.289 140.297V150.996H323.805V150.158H325.211V141.135H323.805V140.297H326.289ZM337.047 147.07H343.24V148.061H337.047V147.07ZM337.047 144.311H343.24V145.301H337.047V144.311ZM413.846 140.309C413.326 141.199 412.938 142.088 412.68 142.975C412.426 143.857 412.299 144.748 412.299 145.646C412.299 146.541 412.426 147.432 412.68 148.318C412.938 149.205 413.326 150.098 413.846 150.996H412.908C412.318 150.066 411.879 149.162 411.59 148.283C411.301 147.4 411.156 146.521 411.156 145.646C411.156 144.775 411.301 143.898 411.59 143.016C411.879 142.133 412.318 141.23 412.908 140.309H413.846ZM419.676 141.123C420.609 141.123 421.314 141.504 421.791 142.266C422.271 143.027 422.512 144.154 422.512 145.646C422.512 147.139 422.271 148.266 421.791 149.027C421.314 149.789 420.609 150.17 419.676 150.17C418.742 150.17 418.037 149.789 417.561 149.027C417.084 148.266 416.846 147.139 416.846 145.646C416.846 144.154 417.084 143.027 417.561 142.266C418.037 141.504 418.742 141.123 419.676 141.123ZM419.676 149.232C420.23 149.232 420.643 148.938 420.912 148.348C421.186 147.758 421.322 146.857 421.322 145.646C421.322 145.002 421.283 144.42 421.205 143.9L418.416 148.266C418.709 148.91 419.129 149.232 419.676 149.232ZM419.676 142.061C419.125 142.061 418.713 142.355 418.439 142.945C418.17 143.535 418.035 144.436 418.035 145.646C418.035 146.197 418.072 146.713 418.146 147.193L420.877 142.84C420.58 142.32 420.18 142.061 419.676 142.061ZM425.336 140.309H426.273C426.863 141.23 427.303 142.133 427.592 143.016C427.881 143.898 428.025 144.775 428.025 145.646C428.025 146.525 427.881 147.406 427.592 148.289C427.303 149.172 426.863 150.074 426.273 150.996H425.336C425.855 150.09 426.242 149.193 426.496 148.307C426.754 147.42 426.883 146.533 426.883 145.646C426.883 144.756 426.754 143.867 426.496 142.98C426.242 142.094 425.855 141.203 425.336 140.309ZM433.117 147.885H434.945V149.438L433.791 151.676H432.537L433.117 149.438V147.885ZM433.041 143.443H434.869V145.559H433.041V143.443Z" fill="white"/>
<path d="M219.83 149.666C219.541 149.834 219.242 149.959 218.934 150.041C218.629 150.127 218.316 150.17 217.996 150.17C216.98 150.17 216.186 149.865 215.611 149.256C215.041 148.646 214.756 147.803 214.756 146.725C214.756 145.646 215.041 144.803 215.611 144.193C216.186 143.584 216.98 143.279 217.996 143.279C218.312 143.279 218.621 143.32 218.922 143.402C219.223 143.484 219.525 143.611 219.83 143.783V144.914C219.545 144.66 219.258 144.477 218.969 144.363C218.684 144.25 218.359 144.193 217.996 144.193C217.32 144.193 216.801 144.412 216.438 144.85C216.074 145.287 215.893 145.912 215.893 146.725C215.893 147.533 216.074 148.158 216.438 148.6C216.805 149.037 217.324 149.256 217.996 149.256C218.371 149.256 218.707 149.199 219.004 149.086C219.301 148.969 219.576 148.789 219.83 148.547V149.666ZM224.453 144.193C223.906 144.193 223.492 144.406 223.211 144.832C222.93 145.258 222.789 145.889 222.789 146.725C222.789 147.557 222.93 148.188 223.211 148.617C223.492 149.043 223.906 149.256 224.453 149.256C225.004 149.256 225.42 149.043 225.701 148.617C225.982 148.188 226.123 147.557 226.123 146.725C226.123 145.889 225.982 145.258 225.701 144.832C225.42 144.406 225.004 144.193 224.453 144.193ZM224.453 143.279C225.363 143.279 226.059 143.574 226.539 144.164C227.023 144.754 227.266 145.607 227.266 146.725C227.266 147.846 227.025 148.701 226.545 149.291C226.064 149.877 225.367 150.17 224.453 150.17C223.543 150.17 222.848 149.877 222.367 149.291C221.887 148.701 221.646 147.846 221.646 146.725C221.646 145.607 221.887 144.754 222.367 144.164C222.848 143.574 223.543 143.279 224.453 143.279ZM229.217 147.516V143.449H230.295V147.516C230.295 148.105 230.398 148.539 230.605 148.816C230.816 149.094 231.141 149.232 231.578 149.232C232.086 149.232 232.475 149.055 232.744 148.699C233.014 148.34 233.148 147.826 233.148 147.158V143.449H234.232V150H233.148V149.016C232.957 149.395 232.695 149.682 232.363 149.877C232.035 150.072 231.65 150.17 231.209 150.17C230.537 150.17 230.037 149.951 229.709 149.514C229.381 149.072 229.217 148.406 229.217 147.516ZM241.463 145.934V150H240.379V145.934C240.379 145.344 240.275 144.91 240.068 144.633C239.861 144.355 239.537 144.217 239.096 144.217C238.592 144.217 238.203 144.396 237.93 144.756C237.66 145.111 237.525 145.623 237.525 146.291V150H236.447V143.438H237.525V144.422C237.717 144.047 237.977 143.764 238.305 143.572C238.633 143.377 239.021 143.279 239.471 143.279C240.139 143.279 240.637 143.5 240.965 143.941C241.297 144.379 241.463 145.043 241.463 145.934ZM246.133 141.574V143.438H248.582V144.275H246.133V147.838C246.133 148.322 246.225 148.66 246.408 148.852C246.592 149.043 246.912 149.139 247.369 149.139H248.582V150H247.264C246.455 150 245.885 149.838 245.553 149.514C245.221 149.189 245.055 148.631 245.055 147.838V144.275H243.303V143.438H245.055V141.574H246.133Z" fill="#75BEFF"/>
<path d="M269.928 143.666V144.721C269.619 144.541 269.309 144.406 268.996 144.316C268.684 144.227 268.365 144.182 268.041 144.182C267.553 144.182 267.188 144.262 266.945 144.422C266.707 144.578 266.588 144.818 266.588 145.143C266.588 145.436 266.678 145.654 266.857 145.799C267.037 145.943 267.484 146.084 268.199 146.221L268.633 146.303C269.168 146.404 269.572 146.607 269.846 146.912C270.123 147.217 270.262 147.613 270.262 148.102C270.262 148.75 270.031 149.258 269.57 149.625C269.109 149.988 268.469 150.17 267.648 150.17C267.324 150.17 266.984 150.135 266.629 150.064C266.273 149.998 265.889 149.896 265.475 149.76V148.646C265.877 148.854 266.262 149.01 266.629 149.115C266.996 149.217 267.344 149.268 267.672 149.268C268.148 149.268 268.518 149.172 268.779 148.98C269.041 148.785 269.172 148.514 269.172 148.166C269.172 147.666 268.693 147.32 267.736 147.129L267.689 147.117L267.285 147.035C266.664 146.914 266.211 146.711 265.926 146.426C265.641 146.137 265.498 145.744 265.498 145.248C265.498 144.619 265.711 144.135 266.137 143.795C266.562 143.451 267.17 143.279 267.959 143.279C268.311 143.279 268.648 143.312 268.973 143.379C269.297 143.441 269.615 143.537 269.928 143.666ZM278.02 146.18V146.707H273.35V146.742C273.318 147.637 273.488 148.279 273.859 148.67C274.234 149.061 274.762 149.256 275.441 149.256C275.785 149.256 276.145 149.201 276.52 149.092C276.895 148.982 277.295 148.816 277.721 148.594V149.666C277.311 149.834 276.914 149.959 276.531 150.041C276.152 150.127 275.785 150.17 275.43 150.17C274.41 150.17 273.613 149.865 273.039 149.256C272.465 148.643 272.178 147.799 272.178 146.725C272.178 145.678 272.459 144.842 273.021 144.217C273.584 143.592 274.334 143.279 275.271 143.279C276.107 143.279 276.766 143.562 277.246 144.129C277.73 144.695 277.988 145.379 278.02 146.18ZM276.941 145.863C276.895 145.41 276.729 145.02 276.443 144.691C276.162 144.359 275.756 144.193 275.225 144.193C274.705 144.193 274.277 144.365 273.941 144.709C273.605 145.053 273.422 145.439 273.391 145.869L276.941 145.863ZM282.285 141.574V143.438H284.734V144.275H282.285V147.838C282.285 148.322 282.377 148.66 282.561 148.852C282.744 149.043 283.064 149.139 283.521 149.139H284.734V150H283.416C282.607 150 282.037 149.838 281.705 149.514C281.373 149.189 281.207 148.631 281.207 147.838V144.275H279.455V143.438H281.207V141.574H282.285ZM292.205 149.689C291.904 149.85 291.596 149.969 291.279 150.047C290.963 150.129 290.627 150.17 290.271 150.17C289.15 150.17 288.279 149.773 287.658 148.98C287.041 148.188 286.732 147.072 286.732 145.635C286.732 144.205 287.043 143.092 287.664 142.295C288.289 141.494 289.158 141.094 290.271 141.094C290.627 141.094 290.963 141.135 291.279 141.217C291.596 141.295 291.904 141.414 292.205 141.574V142.787C291.916 142.549 291.605 142.367 291.273 142.242C290.941 142.117 290.607 142.055 290.271 142.055C289.502 142.055 288.926 142.352 288.543 142.945C288.16 143.539 287.969 144.436 287.969 145.635C287.969 146.83 288.16 147.725 288.543 148.318C288.926 148.912 289.502 149.209 290.271 149.209C290.615 149.209 290.951 149.146 291.279 149.021C291.611 148.896 291.92 148.715 292.205 148.477V149.689ZM296.758 144.193C296.211 144.193 295.797 144.406 295.516 144.832C295.234 145.258 295.094 145.889 295.094 146.725C295.094 147.557 295.234 148.188 295.516 148.617C295.797 149.043 296.211 149.256 296.758 149.256C297.309 149.256 297.725 149.043 298.006 148.617C298.287 148.188 298.428 147.557 298.428 146.725C298.428 145.889 298.287 145.258 298.006 144.832C297.725 144.406 297.309 144.193 296.758 144.193ZM296.758 143.279C297.668 143.279 298.363 143.574 298.844 144.164C299.328 144.754 299.57 145.607 299.57 146.725C299.57 147.846 299.33 148.701 298.85 149.291C298.369 149.877 297.672 150.17 296.758 150.17C295.848 150.17 295.152 149.877 294.672 149.291C294.191 148.701 293.951 147.846 293.951 146.725C293.951 145.607 294.191 144.754 294.672 144.164C295.152 143.574 295.848 143.279 296.758 143.279ZM301.521 147.516V143.449H302.6V147.516C302.6 148.105 302.703 148.539 302.91 148.816C303.121 149.094 303.445 149.232 303.883 149.232C304.391 149.232 304.779 149.055 305.049 148.699C305.318 148.34 305.453 147.826 305.453 147.158V143.449H306.537V150H305.453V149.016C305.262 149.395 305 149.682 304.668 149.877C304.34 150.072 303.955 150.17 303.514 150.17C302.842 150.17 302.342 149.951 302.014 149.514C301.686 149.072 301.521 148.406 301.521 147.516ZM313.768 145.934V150H312.684V145.934C312.684 145.344 312.58 144.91 312.373 144.633C312.166 144.355 311.842 144.217 311.4 144.217C310.896 144.217 310.508 144.396 310.234 144.756C309.965 145.111 309.83 145.623 309.83 146.291V150H308.752V143.438H309.83V144.422C310.021 144.047 310.281 143.764 310.609 143.572C310.938 143.377 311.326 143.279 311.775 143.279C312.443 143.279 312.941 143.5 313.27 143.941C313.602 144.379 313.768 145.043 313.768 145.934ZM318.438 141.574V143.438H320.887V144.275H318.438V147.838C318.438 148.322 318.529 148.66 318.713 148.852C318.896 149.043 319.217 149.139 319.674 149.139H320.887V150H319.568C318.76 150 318.189 149.838 317.857 149.514C317.525 149.189 317.359 148.631 317.359 147.838V144.275H315.607V143.438H317.359V141.574H318.438ZM352.135 147.516V143.449H353.213V147.516C353.213 148.105 353.316 148.539 353.523 148.816C353.734 149.094 354.059 149.232 354.496 149.232C355.004 149.232 355.393 149.055 355.662 148.699C355.932 148.34 356.066 147.826 356.066 147.158V143.449H357.15V150H356.066V149.016C355.875 149.395 355.613 149.682 355.281 149.877C354.953 150.072 354.568 150.17 354.127 150.17C353.455 150.17 352.955 149.951 352.627 149.514C352.299 149.072 352.135 148.406 352.135 147.516ZM363.924 143.666V144.721C363.615 144.541 363.305 144.406 362.992 144.316C362.68 144.227 362.361 144.182 362.037 144.182C361.549 144.182 361.184 144.262 360.941 144.422C360.703 144.578 360.584 144.818 360.584 145.143C360.584 145.436 360.674 145.654 360.854 145.799C361.033 145.943 361.48 146.084 362.195 146.221L362.629 146.303C363.164 146.404 363.568 146.607 363.842 146.912C364.119 147.217 364.258 147.613 364.258 148.102C364.258 148.75 364.027 149.258 363.566 149.625C363.105 149.988 362.465 150.17 361.645 150.17C361.32 150.17 360.98 150.135 360.625 150.064C360.27 149.998 359.885 149.896 359.471 149.76V148.646C359.873 148.854 360.258 149.01 360.625 149.115C360.992 149.217 361.34 149.268 361.668 149.268C362.145 149.268 362.514 149.172 362.775 148.98C363.037 148.785 363.168 148.514 363.168 148.166C363.168 147.666 362.689 147.32 361.732 147.129L361.686 147.117L361.281 147.035C360.66 146.914 360.207 146.711 359.922 146.426C359.637 146.137 359.494 145.744 359.494 145.248C359.494 144.619 359.707 144.135 360.133 143.795C360.559 143.451 361.166 143.279 361.955 143.279C362.307 143.279 362.645 143.312 362.969 143.379C363.293 143.441 363.611 143.537 363.924 143.666ZM372.016 146.18V146.707H367.346V146.742C367.314 147.637 367.484 148.279 367.855 148.67C368.23 149.061 368.758 149.256 369.438 149.256C369.781 149.256 370.141 149.201 370.516 149.092C370.891 148.982 371.291 148.816 371.717 148.594V149.666C371.307 149.834 370.91 149.959 370.527 150.041C370.148 150.127 369.781 150.17 369.426 150.17C368.406 150.17 367.609 149.865 367.035 149.256C366.461 148.643 366.174 147.799 366.174 146.725C366.174 145.678 366.455 144.842 367.018 144.217C367.58 143.592 368.33 143.279 369.268 143.279C370.104 143.279 370.762 143.562 371.242 144.129C371.727 144.695 371.984 145.379 372.016 146.18ZM370.938 145.863C370.891 145.41 370.725 145.02 370.439 144.691C370.158 144.359 369.752 144.193 369.221 144.193C368.701 144.193 368.273 144.365 367.938 144.709C367.602 145.053 367.418 145.439 367.387 145.869L370.938 145.863ZM378.613 141.551V142.752C378.254 142.521 377.893 142.348 377.529 142.23C377.17 142.113 376.807 142.055 376.439 142.055C375.881 142.055 375.439 142.186 375.115 142.447C374.791 142.705 374.629 143.055 374.629 143.496C374.629 143.883 374.734 144.178 374.945 144.381C375.16 144.584 375.559 144.754 376.141 144.891L376.762 145.031C377.582 145.223 378.18 145.523 378.555 145.934C378.93 146.344 379.117 146.902 379.117 147.609C379.117 148.441 378.859 149.076 378.344 149.514C377.828 149.951 377.078 150.17 376.094 150.17C375.684 150.17 375.271 150.125 374.857 150.035C374.443 149.949 374.027 149.818 373.609 149.643V148.383C374.059 148.668 374.482 148.877 374.881 149.01C375.283 149.143 375.688 149.209 376.094 149.209C376.691 149.209 377.156 149.076 377.488 148.811C377.82 148.541 377.986 148.166 377.986 147.686C377.986 147.248 377.871 146.914 377.641 146.684C377.414 146.453 377.018 146.275 376.451 146.15L375.818 146.004C375.006 145.82 374.416 145.543 374.049 145.172C373.682 144.801 373.498 144.303 373.498 143.678C373.498 142.896 373.76 142.271 374.283 141.803C374.811 141.33 375.51 141.094 376.381 141.094C376.717 141.094 377.07 141.133 377.441 141.211C377.812 141.285 378.203 141.398 378.613 141.551ZM383.512 141.574V143.438H385.961V144.275H383.512V147.838C383.512 148.322 383.604 148.66 383.787 148.852C383.971 149.043 384.291 149.139 384.748 149.139H385.961V150H384.643C383.834 150 383.264 149.838 382.932 149.514C382.6 149.189 382.434 148.631 382.434 147.838V144.275H380.682V143.438H382.434V141.574H383.512ZM391.258 146.701H390.9C390.271 146.701 389.797 146.812 389.477 147.035C389.16 147.254 389.002 147.582 389.002 148.02C389.002 148.414 389.121 148.721 389.359 148.939C389.598 149.158 389.928 149.268 390.35 149.268C390.943 149.268 391.41 149.062 391.75 148.652C392.09 148.238 392.262 147.668 392.266 146.941V146.701H391.258ZM393.35 146.256V150H392.266V149.027C392.035 149.418 391.744 149.707 391.393 149.895C391.045 150.078 390.621 150.17 390.121 150.17C389.453 150.17 388.92 149.982 388.521 149.607C388.123 149.229 387.924 148.723 387.924 148.09C387.924 147.359 388.168 146.805 388.656 146.426C389.148 146.047 389.869 145.857 390.818 145.857H392.266V145.688C392.262 145.164 392.129 144.785 391.867 144.551C391.605 144.312 391.188 144.193 390.613 144.193C390.246 144.193 389.875 144.246 389.5 144.352C389.125 144.457 388.76 144.611 388.404 144.814V143.736C388.803 143.584 389.184 143.471 389.547 143.396C389.914 143.318 390.27 143.279 390.613 143.279C391.156 143.279 391.619 143.359 392.002 143.52C392.389 143.68 392.701 143.92 392.939 144.24C393.088 144.436 393.193 144.678 393.256 144.967C393.318 145.252 393.35 145.682 393.35 146.256ZM397.973 141.574V143.438H400.422V144.275H397.973V147.838C397.973 148.322 398.064 148.66 398.248 148.852C398.432 149.043 398.752 149.139 399.209 149.139H400.422V150H399.104C398.295 150 397.725 149.838 397.393 149.514C397.061 149.189 396.895 148.631 396.895 147.838V144.275H395.143V143.438H396.895V141.574H397.973ZM408.168 146.18V146.707H403.498V146.742C403.467 147.637 403.637 148.279 404.008 148.67C404.383 149.061 404.91 149.256 405.59 149.256C405.934 149.256 406.293 149.201 406.668 149.092C407.043 148.982 407.443 148.816 407.869 148.594V149.666C407.459 149.834 407.062 149.959 406.68 150.041C406.301 150.127 405.934 150.17 405.578 150.17C404.559 150.17 403.762 149.865 403.188 149.256C402.613 148.643 402.326 147.799 402.326 146.725C402.326 145.678 402.607 144.842 403.17 144.217C403.732 143.592 404.482 143.279 405.42 143.279C406.256 143.279 406.914 143.562 407.395 144.129C407.879 144.695 408.137 145.379 408.168 146.18ZM407.09 145.863C407.043 145.41 406.877 145.02 406.592 144.691C406.311 144.359 405.904 144.193 405.373 144.193C404.854 144.193 404.426 144.365 404.09 144.709C403.754 145.053 403.57 145.439 403.539 145.869L407.09 145.863Z" fill="#D7BA7D"/>
<path d="M150 146.036V147.028H139.008V146.036H150Z" fill="white"/>
<g clip-path="url(#clip6)">
<rect width="36" height="24" transform="translate(214 134)" fill="#DD1A1A" fill-opacity="0.4"/>
</g>
<g clip-path="url(#clip7)">
<rect width="58" height="24" transform="translate(264 134)" fill="#DD1A1A" fill-opacity="0.4"/>
</g>
<g clip-path="url(#clip8)">
<rect width="7" height="24" transform="translate(416 134)" fill="#DD1A1A" fill-opacity="0.4"/>
</g>
</g>
</g>
</g>
<defs>
<filter id="filter0_d" x="-8" y="16" width="240" height="284" filterUnits="userSpaceOnUse" color-interpolation-filters="sRGB">
<feFlood flood-opacity="0" result="BackgroundImageFix"/>
<feColorMatrix in="SourceAlpha" type="matrix" values="0 0 0 0 0 0 0 0 0 0 0 0 0 0 0 0 0 0 127 0"/>
<feOffset dy="2"/>
<feGaussianBlur stdDeviation="4"/>
<feColorMatrix type="matrix" values="0 0 0 0 0 0 0 0 0 0 0 0 0 0 0 0 0 0 0.4 0"/>
<feBlend mode="normal" in2="BackgroundImageFix" result="effect1_dropShadow"/>
<feBlend mode="normal" in="SourceGraphic" in2="effect1_dropShadow" result="shape"/>
</filter>
<filter id="filter1_d" x="111" y="-10" width="403" height="342" filterUnits="userSpaceOnUse" color-interpolation-filters="sRGB">
<feFlood flood-opacity="0" result="BackgroundImageFix"/>
<feColorMatrix in="SourceAlpha" type="matrix" values="0 0 0 0 0 0 0 0 0 0 0 0 0 0 0 0 0 0 127 0"/>
<feOffset dy="2"/>
<feGaussianBlur stdDeviation="6"/>
<feColorMatrix type="matrix" values="0 0 0 0 0 0 0 0 0 0 0 0 0 0 0 0 0 0 0.6 0"/>
<feBlend mode="normal" in2="BackgroundImageFix" result="effect1_dropShadow"/>
<feBlend mode="normal" in="SourceGraphic" in2="effect1_dropShadow" result="shape"/>
</filter>
<clipPath id="clip0">
<rect width="502" height="318" fill="white"/>
</clipPath>
<clipPath id="clip1">
<rect width="379" height="318" fill="white" transform="translate(123)"/>
</clipPath>
<clipPath id="clip2">
<rect width="379" height="24" fill="white" transform="translate(123 158)"/>
</clipPath>
<clipPath id="clip3">
<rect width="65" height="24" fill="white" transform="translate(214 158)"/>
</clipPath>
<clipPath id="clip4">
<rect width="87" height="24" fill="white" transform="translate(293 158)"/>
</clipPath>
<clipPath id="clip5">
<rect width="379" height="24" fill="white" transform="translate(123 134)"/>
</clipPath>
<clipPath id="clip6">
<rect width="36" height="24" fill="white" transform="translate(214 134)"/>
</clipPath>
<clipPath id="clip7">
<rect width="58" height="24" fill="white" transform="translate(264 134)"/>
</clipPath>
<clipPath id="clip8">
<rect width="7" height="24" fill="white" transform="translate(416 134)"/>
</clipPath>
</defs>
</svg>
