<svg width="406" height="362" viewBox="0 0 406 362" fill="none" xmlns="http://www.w3.org/2000/svg">
<g clip-path="url(#clip0)">
<rect width="198" height="318" transform="translate(207.634 20)" fill="#1E1E1E"/>
<rect width="336" height="35" transform="translate(207.634 20)" fill="#252526"/>
<g clip-path="url(#clip1)">
<rect width="103" height="35" transform="translate(207.634 20)" fill="#1E1E1E"/>
<rect x="219.634" y="34" width="79" height="7" rx="3.5" fill="white" fill-opacity="0.12"/>
</g>
<rect x="250.634" y="73" width="55" height="7" rx="3.5" fill="white" fill-opacity="0.16"/>
<rect x="250.634" y="92" width="55" height="7" rx="3.5" fill="white" fill-opacity="0.16"/>
<rect x="250.634" y="149" width="72" height="7" rx="3.5" fill="white" fill-opacity="0.16"/>
<rect x="328.634" y="149" width="26" height="7" rx="3.5" fill="white" fill-opacity="0.16"/>
<rect x="250.634" y="269" width="72" height="7" rx="3.5" fill="white" fill-opacity="0.16"/>
<rect x="328.634" y="269" width="26" height="7" rx="3.5" fill="white" fill-opacity="0.16"/>
<rect x="267.634" y="168" width="30" height="7" rx="3.5" fill="white" fill-opacity="0.16"/>
<rect x="277.634" y="187" width="30" height="7" rx="3.5" fill="white" fill-opacity="0.16"/>
<rect x="313.634" y="187" width="41" height="7" rx="3.5" fill="white" fill-opacity="0.16"/>
<rect x="267.634" y="206" width="30" height="7" rx="3.5" fill="white" fill-opacity="0.16"/>
<rect x="258.634" y="225" width="31" height="7" rx="3.5" fill="white" fill-opacity="0.16"/>
<rect x="311.634" y="73" width="52" height="7" rx="3.5" fill="white" fill-opacity="0.16"/>
<rect x="311.634" y="92" width="74" height="7" rx="3.5" fill="white" fill-opacity="0.16"/>
<rect x="304.634" y="168" width="59" height="7" rx="3.5" fill="white" fill-opacity="0.16"/>
</g>
<g filter="url(#filter0_d)">
<rect x="10" y="8" width="210.268" height="342" fill="#292929"/>
<path d="M30.8806 35.7485H27.8019V33.7509H30.716V32.9234H27.8019V31.0459H30.8806V30.1872H26.8053V36.6072H30.8806V35.7485ZM31.9128 36.6072H33.0161L34.6133 34.1914H34.689L36.2639 36.6072H37.4296L35.2896 33.4083L37.4696 30.1872H36.3485L34.7602 32.6386H34.6845L33.1229 30.1872H31.935L34.0572 33.3772L31.9128 36.6072ZM38.6753 30.1872V36.6072H39.6719V34.4138H41.1579C42.4169 34.4138 43.3067 33.5507 43.3067 32.3139C43.3067 31.0503 42.4436 30.1872 41.189 30.1872H38.6753ZM39.6719 31.0281H40.9265C41.803 31.0281 42.2879 31.4819 42.2879 32.3139C42.2879 33.1191 41.7852 33.5774 40.9265 33.5774H39.6719V31.0281ZM48.5967 35.7396H45.5891V30.1872H44.5925V36.6072H48.5967V35.7396ZM52.3561 30.0315C50.5142 30.0315 49.3574 31.3262 49.3574 33.395C49.3574 35.4593 50.4875 36.7629 52.3561 36.7629C54.2113 36.7629 55.3503 35.4549 55.3503 33.395C55.3503 31.3306 54.2024 30.0315 52.3561 30.0315ZM52.3561 30.9124C53.5707 30.9124 54.3315 31.8734 54.3315 33.395C54.3315 34.9032 53.5751 35.882 52.3561 35.882C51.1193 35.882 50.3763 34.9032 50.3763 33.395C50.3763 31.8734 51.1415 30.9124 52.3561 30.9124ZM57.6994 34.138H59.1053L60.4133 36.6072H61.5656L60.1241 33.9822C60.9071 33.7198 61.3698 33.0168 61.3698 32.1492C61.3698 30.9525 60.5379 30.1872 59.2432 30.1872H56.7028V36.6072H57.6994V34.138ZM57.6994 31.0236H59.1053C59.875 31.0236 60.3466 31.4552 60.3466 32.1715C60.3466 32.9056 59.9017 33.3193 59.132 33.3193H57.6994V31.0236ZM66.8644 35.7485H63.7857V33.7509H66.6998V32.9234H63.7857V31.0459H66.8644V30.1872H62.7891V36.6072H66.8644V35.7485ZM69.3025 34.138H70.7084L72.0164 36.6072H73.1687L71.7272 33.9822C72.5102 33.7198 72.9729 33.0168 72.9729 32.1492C72.9729 30.9525 72.141 30.1872 70.8463 30.1872H68.3059V36.6072H69.3025V34.138ZM69.3025 31.0236H70.7084C71.478 31.0236 71.9496 31.4552 71.9496 32.1715C71.9496 32.9056 71.5047 33.3193 70.7351 33.3193H69.3025V31.0236ZM75.0239 33.3327C75.4021 33.3327 75.6779 33.0524 75.6779 32.692C75.6779 32.3317 75.4021 32.0514 75.0239 32.0514C74.6502 32.0514 74.3699 32.3317 74.3699 32.692C74.3699 33.0524 74.6502 33.3327 75.0239 33.3327ZM75.0239 36.6739C75.4021 36.6739 75.6779 36.3936 75.6779 36.0333C75.6779 35.6729 75.4021 35.3926 75.0239 35.3926C74.6502 35.3926 74.3699 35.6729 74.3699 36.0333C74.3699 36.3936 74.6502 36.6739 75.0239 36.6739ZM86.2533 36.6072V30.1872H85.0876L83.0411 35.2102H82.9655L80.9233 30.1872H79.7577V36.6072H80.6831V31.9045H80.7454L82.6273 36.4915H83.3837L85.2656 31.9045H85.3279V36.6072H86.2533ZM90.6311 36.6072V33.9778L92.8957 30.1872H91.7879L90.1729 32.9857H90.0973L88.4823 30.1872H87.3745L89.6346 33.9778V36.6072H90.6311ZM96.1791 34.4627V33.5774H93.2605V34.4627H96.1791ZM101.674 36.6072H102.733L100.415 30.1872H99.3424L97.0244 36.6072H98.0477L98.6394 34.8721H101.086L101.674 36.6072ZM99.8273 31.3217H99.9029L100.833 34.0712H98.893L99.8273 31.3217ZM103.854 30.1872V36.6072H104.85V34.4138H106.336C107.595 34.4138 108.485 33.5507 108.485 32.3139C108.485 31.0503 107.622 30.1872 106.367 30.1872H103.854ZM104.85 31.0281H106.105C106.981 31.0281 107.466 31.4819 107.466 32.3139C107.466 33.1191 106.964 33.5774 106.105 33.5774H104.85V31.0281ZM109.771 30.1872V36.6072H110.767V34.4138H112.253C113.513 34.4138 114.402 33.5507 114.402 32.3139C114.402 31.0503 113.539 30.1872 112.285 30.1872H109.771ZM110.767 31.0281H112.022C112.899 31.0281 113.384 31.4819 113.384 32.3139C113.384 33.1191 112.881 33.5774 112.022 33.5774H110.767V31.0281Z" fill="#CCCCCC"/>
<path d="M31.984 61.0998L36.336 56.7478L36.96 57.3718L32.288 62.0278H31.664L27.008 57.3718L27.616 56.7478L31.984 61.0998Z" fill="#808080"/>
<rect x="48" y="55.5358" width="42" height="7" rx="3.5" fill="white" fill-opacity="0.16"/>
<path d="M43.984 85.0998L48.336 80.7478L48.96 81.3718L44.288 86.0278H43.664L39.008 81.3718L39.616 80.7478L43.984 85.0998Z" fill="#808080"/>
<rect x="60" y="79.5358" width="42" height="7" rx="3.5" fill="white" fill-opacity="0.16"/>
<rect width="210.268" height="24" transform="translate(10 95.0358)" fill="#062F4A"/>
<path d="M43.76 104.416H41.62V110.776H40.06V104.416H37.94V103.276H43.68V104.416H43.76ZM48.56 108.856C48.56 108.709 48.5333 108.582 48.48 108.476C48.4267 108.369 48.3533 108.262 48.26 108.156C48.18 108.089 48.06 108.016 47.9 107.936C47.7933 107.896 47.6067 107.822 47.34 107.716L47.18 107.656C46.3133 107.402 45.6267 107.089 45.12 106.716C44.6667 106.329 44.44 105.849 44.44 105.276C44.44 104.649 44.7133 104.149 45.26 103.776C45.7533 103.402 46.4067 103.216 47.22 103.216C48.0467 103.216 48.7267 103.449 49.26 103.916C49.7533 104.356 50 104.896 50 105.536H48.56C48.56 105.349 48.5267 105.189 48.46 105.056C48.4067 104.922 48.3133 104.789 48.18 104.656C47.9133 104.456 47.58 104.356 47.18 104.356C46.78 104.356 46.4733 104.436 46.26 104.596C46.0467 104.756 45.94 104.982 45.94 105.276C45.94 105.516 46.0667 105.729 46.32 105.916C46.4267 105.996 46.5867 106.076 46.8 106.156C46.96 106.222 47.2133 106.309 47.56 106.416C48.3733 106.656 48.9933 106.962 49.42 107.336C49.8467 107.696 50.06 108.202 50.06 108.856C50.06 109.176 49.9933 109.469 49.86 109.736C49.74 109.989 49.56 110.196 49.32 110.356C48.8133 110.729 48.1467 110.916 47.32 110.916C46.44 110.916 45.7267 110.702 45.18 110.276C44.5533 109.782 44.2667 109.182 44.32 108.476H45.82C45.82 108.902 45.9667 109.236 46.26 109.476C46.38 109.569 46.54 109.642 46.74 109.696C46.94 109.749 47.1533 109.776 47.38 109.776C47.8333 109.776 48.1467 109.696 48.32 109.536C48.48 109.282 48.56 109.056 48.56 108.856Z" fill="#519ABA"/>
<path d="M62.9009 111.15C63.8086 111.15 64.564 110.756 64.9766 110.058H65.0845V111.036H66.3984V106.319C66.3984 104.872 65.4209 104.009 63.688 104.009C62.1201 104.009 61.0029 104.764 60.8633 105.926H62.1836C62.3359 105.424 62.8628 105.139 63.6245 105.139C64.5576 105.139 65.04 105.564 65.04 106.319V106.922L63.1675 107.037C61.5234 107.138 60.5967 107.856 60.5967 109.093C60.5967 110.35 61.5679 111.15 62.9009 111.15ZM63.25 110.052C62.5073 110.052 61.9678 109.677 61.9678 109.036C61.9678 108.408 62.3994 108.071 63.3516 108.008L65.04 107.894V108.49C65.04 109.379 64.2783 110.052 63.25 110.052ZM71.9272 104.022C70.9878 104.022 70.1753 104.498 69.7563 105.285H69.6548V104.142H68.3408V113.334H69.7056V109.995H69.8135C70.1753 110.725 70.9561 111.15 71.9399 111.15C73.6855 111.15 74.7964 109.766 74.7964 107.589C74.7964 105.399 73.6855 104.022 71.9272 104.022ZM71.54 109.982C70.3975 109.982 69.6802 109.062 69.6802 107.589C69.6802 106.11 70.3975 105.19 71.5464 105.19C72.7017 105.19 73.3936 106.091 73.3936 107.589C73.3936 109.087 72.7017 109.982 71.54 109.982ZM80.0269 104.022C79.0874 104.022 78.2749 104.498 77.856 105.285H77.7544V104.142H76.4404V113.334H77.8052V109.995H77.9131C78.2749 110.725 79.0557 111.15 80.0396 111.15C81.7852 111.15 82.896 109.766 82.896 107.589C82.896 105.399 81.7852 104.022 80.0269 104.022ZM79.6396 109.982C78.4971 109.982 77.7798 109.062 77.7798 107.589C77.7798 106.11 78.4971 105.19 79.646 105.19C80.8013 105.19 81.4932 106.091 81.4932 107.589C81.4932 109.087 80.8013 109.982 79.6396 109.982ZM85.4478 111.131C85.9873 111.131 86.3809 110.731 86.3809 110.217C86.3809 109.703 85.9873 109.303 85.4478 109.303C84.9146 109.303 84.5146 109.703 84.5146 110.217C84.5146 110.731 84.9146 111.131 85.4478 111.131ZM88.7549 102.403V104.161H87.6567V105.253H88.7549V109.22C88.7549 110.547 89.3579 111.08 90.875 111.08C91.1416 111.08 91.3955 111.048 91.6177 111.01V109.925C91.4272 109.944 91.3066 109.957 91.0972 109.957C90.418 109.957 90.1196 109.633 90.1196 108.89V105.253H91.6177V104.161H90.1196V102.403H88.7549ZM92.9634 106.072C92.9634 107.094 93.5728 107.678 94.8867 107.983L96.0928 108.268C96.7847 108.433 97.1084 108.713 97.1084 109.144C97.1084 109.709 96.5054 110.103 95.6548 110.103C94.8296 110.103 94.3218 109.766 94.1504 109.227H92.7856C92.9062 110.426 93.979 111.169 95.623 111.169C97.2734 111.169 98.4858 110.299 98.4858 109.017C98.4858 108.014 97.8701 107.449 96.5562 107.145L95.4072 106.878C94.6582 106.7 94.3091 106.434 94.3091 106.008C94.3091 105.45 94.8867 105.075 95.6484 105.075C96.4229 105.075 96.918 105.412 97.0449 105.926H98.3525C98.2192 104.733 97.2036 104.009 95.6484 104.009C94.0869 104.009 92.9634 104.872 92.9634 106.072ZM102.542 108.567L104.053 111.048H105.621L103.316 107.564L105.595 104.155H104.072L102.599 106.618H102.491L101.006 104.155H99.4126L101.723 107.614L99.4316 111.048H100.93L102.44 108.567H102.542Z" fill="white"/>
<path d="M40.44 135.596L40.94 133.096H39.38V131.776H41.26L41.56 130.216H39.94V128.916H41.88L42.38 126.476H44.12L43.62 128.916H45.38L45.88 126.476H47.62L47.12 128.916H48.68V130.216H46.88L46.5 131.776H48.12V133.096H46.26L45.76 135.596H44L44.5 133.096H42.76L42.26 135.596H40.44ZM44.76 131.796L45.06 130.216H43.32L43 131.796H44.76Z" fill="#519ABA"/>
<path d="M62.9009 135.15C63.8086 135.15 64.564 134.756 64.9766 134.058H65.0845V135.036H66.3984V130.319C66.3984 128.872 65.4209 128.009 63.688 128.009C62.1201 128.009 61.0029 128.764 60.8633 129.926H62.1836C62.3359 129.424 62.8628 129.139 63.6245 129.139C64.5576 129.139 65.04 129.564 65.04 130.319V130.922L63.1675 131.037C61.5234 131.138 60.5967 131.856 60.5967 133.093C60.5967 134.35 61.5679 135.15 62.9009 135.15ZM63.25 134.052C62.5073 134.052 61.9678 133.677 61.9678 133.036C61.9678 132.408 62.3994 132.071 63.3516 132.008L65.04 131.894V132.49C65.04 133.379 64.2783 134.052 63.25 134.052ZM71.9272 128.022C70.9878 128.022 70.1753 128.498 69.7563 129.285H69.6548V128.142H68.3408V137.334H69.7056V133.995H69.8135C70.1753 134.725 70.9561 135.15 71.9399 135.15C73.6855 135.15 74.7964 133.766 74.7964 131.589C74.7964 129.399 73.6855 128.022 71.9272 128.022ZM71.54 133.982C70.3975 133.982 69.6802 133.062 69.6802 131.589C69.6802 130.11 70.3975 129.19 71.5464 129.19C72.7017 129.19 73.3936 130.091 73.3936 131.589C73.3936 133.087 72.7017 133.982 71.54 133.982ZM80.0269 128.022C79.0874 128.022 78.2749 128.498 77.856 129.285H77.7544V128.142H76.4404V137.334H77.8052V133.995H77.9131C78.2749 134.725 79.0557 135.15 80.0396 135.15C81.7852 135.15 82.896 133.766 82.896 131.589C82.896 129.399 81.7852 128.022 80.0269 128.022ZM79.6396 133.982C78.4971 133.982 77.7798 133.062 77.7798 131.589C77.7798 130.11 78.4971 129.19 79.646 129.19C80.8013 129.19 81.4932 130.091 81.4932 131.589C81.4932 133.087 80.8013 133.982 79.6396 133.982ZM85.4478 135.131C85.9873 135.131 86.3809 134.731 86.3809 134.217C86.3809 133.703 85.9873 133.303 85.4478 133.303C84.9146 133.303 84.5146 133.703 84.5146 134.217C84.5146 134.731 84.9146 135.131 85.4478 135.131ZM94.0869 130.358C93.9092 129.018 92.8618 128.009 91.1289 128.009C89.1167 128.009 87.8916 129.374 87.8916 131.564C87.8916 133.798 89.123 135.169 91.1353 135.169C92.8428 135.169 93.9092 134.211 94.0869 132.852H92.7603C92.5825 133.601 91.9922 134.007 91.1289 134.007C89.9927 134.007 89.2881 133.087 89.2881 131.564C89.2881 130.072 89.9863 129.171 91.1289 129.171C92.043 129.171 92.6016 129.685 92.7603 130.358H94.0869ZM95.4897 130.072C95.4897 131.094 96.0991 131.678 97.4131 131.983L98.6191 132.268C99.311 132.433 99.6348 132.713 99.6348 133.144C99.6348 133.709 99.0317 134.103 98.1812 134.103C97.356 134.103 96.8481 133.766 96.6768 133.227H95.312C95.4326 134.426 96.5054 135.169 98.1494 135.169C99.7998 135.169 101.012 134.299 101.012 133.017C101.012 132.014 100.396 131.449 99.0825 131.145L97.9336 130.878C97.1846 130.7 96.8354 130.434 96.8354 130.008C96.8354 129.45 97.4131 129.075 98.1748 129.075C98.9492 129.075 99.4443 129.412 99.5713 129.926H100.879C100.746 128.733 99.73 128.009 98.1748 128.009C96.6133 128.009 95.4897 128.872 95.4897 130.072ZM102.371 130.072C102.371 131.094 102.98 131.678 104.294 131.983L105.5 132.268C106.192 132.433 106.516 132.713 106.516 133.144C106.516 133.709 105.913 134.103 105.062 134.103C104.237 134.103 103.729 133.766 103.558 133.227H102.193C102.313 134.426 103.386 135.169 105.03 135.169C106.681 135.169 107.893 134.299 107.893 133.017C107.893 132.014 107.277 131.449 105.963 131.145L104.814 130.878C104.065 130.7 103.716 130.434 103.716 130.008C103.716 129.45 104.294 129.075 105.056 129.075C105.83 129.075 106.325 129.412 106.452 129.926H107.76C107.626 128.733 106.611 128.009 105.056 128.009C103.494 128.009 102.371 128.872 102.371 130.072Z" fill="#A0A0A0"/>
<path d="M34.08 155.052L29.712 150.7L30.336 150.076L35.008 154.748V155.372L30.336 160.028L29.712 159.42L34.08 155.068V155.052Z" fill="#808080"/>
<rect x="48" y="151.536" width="70" height="7" rx="3.5" fill="white" fill-opacity="0.16"/>
<path d="M34.08 179.052L29.712 174.7L30.336 174.076L35.008 178.748V179.372L30.336 184.028L29.712 183.42L34.08 179.068V179.052Z" fill="#808080"/>
<rect x="48" y="175.536" width="93" height="7" rx="3.5" fill="white" fill-opacity="0.16"/>
<path d="M26.38 203.156V202.976C26.3933 202.869 26.4267 202.776 26.48 202.696C26.52 202.642 26.58 202.569 26.66 202.476L26.82 202.296L29.94 199.156L29.96 199.176C29.9867 199.176 30 199.189 30 199.216L31.12 200.356C31.1867 200.409 31.1867 200.469 31.12 200.536C31.0933 200.722 31.1133 200.902 31.18 201.076C31.2467 201.249 31.3533 201.382 31.5 201.476C31.5533 201.502 31.5867 201.536 31.6 201.576C31.6133 201.602 31.62 201.649 31.62 201.716V204.476C31.62 204.556 31.58 204.636 31.5 204.716C31.34 204.822 31.22 204.962 31.14 205.136C31.0733 205.309 31.0667 205.489 31.12 205.676C31.1867 205.849 31.2933 205.996 31.44 206.116C31.5867 206.236 31.7533 206.296 31.94 206.296C32.1267 206.296 32.2933 206.242 32.44 206.136C32.5867 206.029 32.6867 205.889 32.74 205.716C32.8067 205.529 32.8133 205.349 32.76 205.176C32.7067 205.002 32.6 204.849 32.44 204.716C32.3867 204.689 32.3533 204.662 32.34 204.636C32.3267 204.596 32.32 204.542 32.32 204.476V201.656H32.38L33.38 202.656C33.4067 202.682 33.42 202.716 33.42 202.756L33.44 202.796V203.156C33.4667 203.409 33.5733 203.609 33.76 203.756C33.96 203.889 34.1867 203.942 34.44 203.916C34.6933 203.876 34.8933 203.749 35.04 203.536C35.2 203.322 35.2467 203.096 35.18 202.856C35.1533 202.642 35.0333 202.469 34.82 202.336C34.62 202.189 34.4067 202.129 34.18 202.156C34.1 202.156 34.02 202.136 33.94 202.096L32.88 201.036C32.84 200.996 32.82 200.936 32.82 200.856C32.86 200.669 32.8333 200.489 32.74 200.316C32.6467 200.142 32.5133 200.016 32.34 199.936C32.1667 199.842 31.9933 199.816 31.82 199.856C31.6867 199.856 31.62 199.836 31.62 199.796C31.1267 199.289 30.7533 198.929 30.5 198.716C30.4333 198.662 30.4333 198.602 30.5 198.536C30.6467 198.429 30.8333 198.242 31.06 197.976L31.32 197.716C31.6933 197.342 32.0667 197.342 32.44 197.716L37.18 202.476C37.5667 202.849 37.5667 203.222 37.18 203.596L32.54 208.256C32.42 208.376 32.3333 208.456 32.28 208.496C32.1733 208.589 32.06 208.642 31.94 208.656H31.82L31.72 208.616C31.56 208.549 31.4467 208.482 31.38 208.416L31 208.036C30.6267 207.689 30.3533 207.416 30.18 207.216L26.76 203.796C26.7333 203.729 26.6733 203.642 26.58 203.536C26.46 203.376 26.3933 203.249 26.38 203.156Z" fill="#6D8086"/>
<rect x="48" y="199.536" width="63" height="7" rx="3.5" fill="white" fill-opacity="0.16"/>
<path d="M34.56 231.276C34.48 231.409 34.3933 231.562 34.3 231.736C34.22 231.896 34.18 232.036 34.18 232.156L34 234.096C34 234.322 33.8933 234.469 33.68 234.536C33.5333 234.576 33.3067 234.649 33 234.756C32.6933 234.862 32.4667 234.936 32.32 234.976H31.62C31.6067 234.976 31.5667 234.969 31.5 234.956C31.4333 234.929 31.3933 234.916 31.38 234.916C30.8733 234.742 30.52 234.596 30.32 234.476C30.1867 234.342 30.12 234.236 30.12 234.156C30.08 233.822 30.06 233.342 30.06 232.716C30.06 232.382 30.0467 232.142 30.02 231.996C29.9667 231.729 29.8533 231.516 29.68 231.356V231.276C31.2533 231.716 32.88 231.716 34.56 231.276ZM35.5 223.356C35.4733 223.636 35.4267 224.069 35.36 224.656C35.3067 225.242 35.2733 225.682 35.26 225.976L34.82 230.536C34.82 230.922 34.6067 231.149 34.18 231.216C33.7267 231.309 33.1267 231.396 32.38 231.476C31.4467 231.542 30.5733 231.456 29.76 231.216C29.6133 231.189 29.5067 231.122 29.44 231.016C29.4 230.949 29.36 230.829 29.32 230.656C29.32 230.402 29.2733 230.116 29.18 229.796L28.94 227.476C28.94 227.449 28.9267 227.416 28.9 227.376C28.8867 227.336 28.88 227.309 28.88 227.296C28.8533 226.856 28.7733 226.216 28.64 225.376L28.5 224.356C28.46 224.142 28.44 223.829 28.44 223.416C30.8667 223.922 33.22 223.902 35.5 223.356ZM28.44 222.976C28.6 222.896 28.7267 222.856 28.82 222.856L30.56 222.656C30.5867 222.656 30.64 222.636 30.72 222.596L30.82 222.536C30.78 222.429 30.7333 222.269 30.68 222.056C30.6267 221.802 30.5733 221.609 30.52 221.476C30.44 221.276 30.3267 221.109 30.18 220.976C30.02 220.802 29.78 220.542 29.46 220.196C29.1533 219.836 28.92 219.576 28.76 219.416C28.8933 219.269 28.9867 219.182 29.04 219.156C29.0933 219.116 29.14 219.109 29.18 219.136C29.2333 219.162 29.32 219.236 29.44 219.356L29.68 219.596C29.8667 219.809 30.0133 219.956 30.12 220.036C30.8267 220.609 31.2467 221.336 31.38 222.216C31.4333 222.402 31.5067 222.522 31.6 222.576C31.6933 222.629 31.8267 222.656 32 222.656L35.12 222.856C35.1867 222.856 35.2867 222.876 35.42 222.916L35.56 222.976C35.2267 223.229 34.5 223.402 33.38 223.496C32.3533 223.589 31.3333 223.589 30.32 223.496C29.2667 223.389 28.64 223.216 28.44 222.976Z" fill="#CC3E44"/>
<rect x="48" y="223.536" width="47" height="7" rx="3.5" fill="white" fill-opacity="0.16"/>
<path d="M30 246.012V245.036H29.904C29.5947 245.036 29.2907 245.1 28.992 245.228C28.704 245.345 28.448 245.516 28.224 245.74C28.0107 245.964 27.8453 246.22 27.728 246.508C27.632 246.774 27.568 247.052 27.536 247.34C27.504 247.628 27.4933 247.916 27.504 248.204C27.5253 248.492 27.536 248.78 27.536 249.068C27.536 249.27 27.4933 249.462 27.408 249.644C27.2587 250.006 27.0027 250.268 26.64 250.428C26.4693 250.502 26.288 250.54 26.096 250.54H26V251.532H26.096C26.288 251.532 26.4693 251.569 26.64 251.644C26.8213 251.729 26.976 251.836 27.104 251.964C27.232 252.102 27.3333 252.257 27.408 252.428V252.444C27.4933 252.614 27.536 252.801 27.536 253.004C27.536 253.292 27.5253 253.585 27.504 253.884C27.4933 254.172 27.504 254.46 27.536 254.748C27.568 255.025 27.632 255.297 27.728 255.564C27.8347 255.841 28 256.097 28.224 256.332C28.448 256.556 28.704 256.732 28.992 256.86C29.2907 256.977 29.5947 257.036 29.904 257.036H30V256.044H29.904C29.712 256.044 29.5253 256.006 29.344 255.932C29.1733 255.857 29.0187 255.75 28.88 255.612C28.752 255.473 28.6507 255.318 28.576 255.148C28.5013 254.966 28.464 254.774 28.464 254.572C28.464 254.326 28.4693 254.102 28.48 253.9C28.4907 253.676 28.4907 253.457 28.48 253.244C28.48 253.03 28.464 252.817 28.432 252.604C28.4 252.39 28.3413 252.188 28.256 251.996C28.096 251.612 27.8507 251.292 27.52 251.036C27.8507 250.78 28.096 250.46 28.256 250.076C28.3413 249.894 28.4 249.697 28.432 249.484C28.464 249.27 28.48 249.057 28.48 248.844C28.4907 248.62 28.4907 248.396 28.48 248.172C28.4693 247.948 28.464 247.724 28.464 247.5C28.464 247.201 28.544 246.929 28.704 246.684C28.864 246.438 29.0773 246.257 29.344 246.14C29.5253 246.054 29.712 246.012 29.904 246.012H30ZM34 256.044V257.036H34.096C34.4053 257.036 34.704 256.977 34.992 256.86C35.2907 256.732 35.552 256.556 35.776 256.332C36 256.097 36.1653 255.841 36.272 255.564C36.368 255.308 36.432 255.03 36.464 254.732C36.496 254.454 36.5013 254.172 36.48 253.884C36.4693 253.585 36.464 253.292 36.464 253.004C36.464 252.801 36.5067 252.609 36.592 252.428C36.7413 252.065 36.9973 251.804 37.36 251.644C37.5307 251.569 37.712 251.532 37.904 251.532H38V250.54H37.904C37.712 250.54 37.5307 250.502 37.36 250.428C37.1787 250.353 37.024 250.246 36.896 250.108C36.7573 249.969 36.656 249.814 36.592 249.644V249.628C36.5067 249.457 36.464 249.27 36.464 249.068C36.464 248.78 36.4693 248.492 36.48 248.204C36.5013 247.916 36.496 247.622 36.464 247.324C36.432 247.046 36.368 246.774 36.272 246.508C36.1547 246.22 35.984 245.964 35.76 245.74C35.5467 245.516 35.2907 245.345 34.992 245.228C34.704 245.1 34.4053 245.036 34.096 245.036H34V246.028H34.096C34.288 246.028 34.4693 246.065 34.64 246.14C34.8213 246.214 34.976 246.321 35.104 246.46C35.232 246.588 35.3333 246.742 35.408 246.924C35.4933 247.105 35.536 247.297 35.536 247.5C35.5253 247.745 35.52 247.969 35.52 248.172C35.5093 248.396 35.504 248.62 35.504 248.844C35.5147 249.057 35.536 249.27 35.568 249.484C35.6 249.686 35.6587 249.884 35.744 250.076C35.904 250.46 36.1493 250.78 36.48 251.036C36.1493 251.292 35.904 251.612 35.744 251.996C35.6587 252.188 35.6 252.39 35.568 252.604C35.536 252.806 35.5147 253.02 35.504 253.244C35.504 253.457 35.5093 253.676 35.52 253.9C35.5307 254.124 35.536 254.348 35.536 254.572C35.536 254.87 35.456 255.142 35.296 255.388C35.136 255.633 34.9227 255.814 34.656 255.932C34.4747 256.017 34.288 256.06 34.096 256.06H34V256.044Z" fill="#CBCB41"/>
<rect x="48" y="247.536" width="58" height="7" rx="3.5" fill="white" fill-opacity="0.16"/>
<path d="M29.5 280.156C29.3933 280.102 29.3133 280.022 29.26 279.916C29.22 279.876 29.1933 279.856 29.18 279.856C29.18 279.856 29.1667 279.876 29.14 279.916C29.1133 279.956 29.0867 280.016 29.06 280.096C29.0467 280.176 29.0267 280.242 29 280.296C28.9067 280.602 28.7733 280.809 28.6 280.916C28.4267 281.022 28.1867 281.042 27.88 280.976C27.8 280.976 27.6733 280.936 27.5 280.856C27.2467 280.722 27.1867 280.536 27.32 280.296C27.32 280.269 27.3267 280.236 27.34 280.196C27.3667 280.156 27.38 280.122 27.38 280.096C27.1533 280.096 27.0067 279.996 26.94 279.796C26.78 279.369 26.7267 278.996 26.78 278.676C26.8333 278.342 27.0133 278.022 27.32 277.716L27.36 277.636C27.4133 277.542 27.44 277.469 27.44 277.416C27.44 276.962 27.4867 276.569 27.58 276.236C27.6867 275.836 27.8667 275.476 28.12 275.156C28.3333 274.876 28.5867 274.649 28.88 274.476C28.9333 274.449 28.96 274.416 28.96 274.376C28.9733 274.336 28.9667 274.282 28.94 274.216C28.7133 273.936 28.5667 273.602 28.5 273.216C28.4733 273.109 28.48 272.989 28.52 272.856C28.5467 272.762 28.6 272.636 28.68 272.476L28.76 272.296C28.84 272.202 28.9 272.156 28.94 272.156C29.06 272.129 29.22 272.042 29.42 271.896L29.56 271.796C29.9733 271.369 30.4933 271.156 31.12 271.156C31.1867 271.156 31.2333 271.149 31.26 271.136C31.3 271.109 31.32 271.076 31.32 271.036C31.3733 270.782 31.4933 270.536 31.68 270.296L31.88 270.096C31.9467 270.029 32.0133 270.002 32.08 270.016C32.16 270.016 32.22 270.062 32.26 270.156C32.34 270.302 32.44 270.509 32.56 270.776L32.68 271.036C32.7467 271.142 32.8133 271.162 32.88 271.096C33.04 271.029 33.1467 270.996 33.2 270.996C33.2533 270.982 33.2933 270.996 33.32 271.036C33.3467 271.076 33.3867 271.182 33.44 271.356C33.76 272.689 33.5533 273.936 32.82 275.096C32.7933 275.136 32.7467 275.202 32.68 275.296C32.6267 275.376 32.5867 275.442 32.56 275.496C32.5333 275.549 32.52 275.596 32.52 275.636C32.5333 275.676 32.5667 275.729 32.62 275.796C32.9 276.036 33.1333 276.322 33.32 276.656C33.5067 276.989 33.6267 277.342 33.68 277.716C33.7467 278.182 33.7467 278.642 33.68 279.096C33.6533 279.216 33.6533 279.289 33.68 279.316C33.7067 279.329 33.7733 279.322 33.88 279.296C34.3467 279.149 34.76 278.956 35.12 278.716L35.28 278.636C35.52 278.489 35.7067 278.389 35.84 278.336C36.04 278.242 36.24 278.182 36.44 278.156H36.62C36.7533 278.129 36.86 278.136 36.94 278.176C37.0333 278.202 37.1067 278.256 37.16 278.336C37.2267 278.416 37.26 278.502 37.26 278.596C37.26 278.782 37.1533 278.909 36.94 278.976C36.3933 279.082 35.8267 279.349 35.24 279.776C34.6667 280.189 33.98 280.502 33.18 280.716C33.1533 280.716 33.1133 280.729 33.06 280.756C33.0067 280.782 32.9667 280.816 32.94 280.856C32.8467 280.922 32.7467 280.969 32.64 280.996C32.5733 281.022 32.4667 281.042 32.32 281.056L32.12 281.096L31.96 281.116C31.16 281.182 30.5467 281.216 30.12 281.216C29.88 281.216 29.6733 281.196 29.5 281.156C29.26 281.076 29.1133 280.956 29.06 280.796C28.9933 280.542 29.06 280.349 29.26 280.216C29.3 280.216 29.3467 280.209 29.4 280.196C29.4533 280.169 29.4867 280.156 29.5 280.156Z" fill="#519ABA"/>
<rect x="48" y="271.536" width="71" height="7" rx="3.5" fill="white" fill-opacity="0.16"/>
<rect x="9" y="7" width="212.268" height="344" stroke="#007ACC" stroke-width="2" stroke-dasharray="6 4"/>
</g>
<g filter="url(#filter1_d)">
<path d="M168.134 242.5C168.134 240.291 169.925 238.5 172.134 238.5H320.134C322.343 238.5 324.134 240.291 324.134 242.5V287.5C324.134 289.709 322.343 291.5 320.134 291.5H172.134C169.925 291.5 168.134 289.709 168.134 287.5V242.5Z" fill="#333333"/>
<path d="M205.878 257.488H195.702L194.43 256.216L193.902 256H186.39L185.646 256.744V273.256L186.39 274H205.902L206.646 273.256V258.256L205.878 257.488ZM205.11 270.232V272.488H187.11V263.488H193.854L194.382 263.272L195.678 261.976H205.134L205.11 270.232ZM205.11 260.488H195.366L194.838 260.728L193.566 262.024H187.134V257.512H193.566L194.838 258.784L195.39 259.024H205.134L205.11 260.488Z" fill="white"/>
<path d="M219.962 273.5H222.482V265.684C222.482 264.02 223.642 262.719 225.177 262.719C226.677 262.719 227.638 263.621 227.638 265.074V273.5H230.111V265.449C230.111 263.914 231.177 262.719 232.806 262.719C234.458 262.719 235.279 263.574 235.279 265.332V273.5H237.798V264.723C237.798 262.074 236.298 260.527 233.72 260.527C231.951 260.527 230.486 261.43 229.841 262.801H229.642C229.08 261.43 227.873 260.527 226.126 260.527C224.427 260.527 223.138 261.371 222.576 262.801H222.388V260.773H219.962V273.5ZM242.181 278.117C244.783 278.117 245.99 277.145 247.08 274.086L251.837 260.773H249.166L245.978 270.969H245.779L242.58 260.773H239.837L244.455 273.535L244.267 274.191C243.833 275.539 243.154 276.043 241.958 276.043C241.724 276.043 241.337 276.031 241.138 275.996V278.059C241.373 278.094 241.97 278.117 242.181 278.117ZM261.845 267.852V265.52H254.158V267.852H261.845ZM269.076 273.711C270.751 273.711 272.146 272.984 272.908 271.695H273.107V273.5H275.533V264.793C275.533 262.121 273.728 260.527 270.529 260.527C267.634 260.527 265.572 261.922 265.314 264.066H267.751C268.033 263.141 269.005 262.613 270.412 262.613C272.134 262.613 273.025 263.398 273.025 264.793V265.906L269.568 266.117C266.533 266.305 264.822 267.629 264.822 269.914C264.822 272.234 266.615 273.711 269.076 273.711ZM269.72 271.684C268.349 271.684 267.353 270.992 267.353 269.809C267.353 268.648 268.15 268.027 269.908 267.91L273.025 267.699V268.801C273.025 270.441 271.619 271.684 269.72 271.684ZM285.74 260.551C284.005 260.551 282.505 261.43 281.732 262.883H281.544V260.773H279.119V277.742H281.638V271.578H281.837C282.505 272.926 283.947 273.711 285.763 273.711C288.986 273.711 291.037 271.156 291.037 267.137C291.037 263.094 288.986 260.551 285.74 260.551ZM285.025 271.555C282.916 271.555 281.591 269.855 281.591 267.137C281.591 264.406 282.916 262.707 285.037 262.707C287.169 262.707 288.447 264.371 288.447 267.137C288.447 269.902 287.169 271.555 285.025 271.555ZM300.693 260.551C298.958 260.551 297.458 261.43 296.685 262.883H296.498V260.773H294.072V277.742H296.591V271.578H296.791C297.458 272.926 298.9 273.711 300.716 273.711C303.939 273.711 305.99 271.156 305.99 267.137C305.99 263.094 303.939 260.551 300.693 260.551ZM299.978 271.555C297.869 271.555 296.544 269.855 296.544 267.137C296.544 264.406 297.869 262.707 299.99 262.707C302.123 262.707 303.4 264.371 303.4 267.137C303.4 269.902 302.123 271.555 299.978 271.555Z" fill="white"/>
</g>
<g filter="url(#filter2_d)">
<path fill-rule="evenodd" clip-rule="evenodd" d="M206.634 306C206.634 310.97 210.664 315 215.634 315V315C220.604 315 224.634 310.97 224.634 306V306C224.634 301.029 220.604 297 215.634 297V297C210.664 297 206.634 301.029 206.634 306" fill="#3794FF"/>
<path fill-rule="evenodd" clip-rule="evenodd" d="M216.634 305V302C216.634 301.448 216.186 301 215.634 301C215.082 301 214.634 301.448 214.634 302V305H211.634C211.082 305 210.634 305.448 210.634 306C210.634 306.552 211.082 307 211.634 307H214.634V310C214.634 310.552 215.082 311 215.634 311C216.186 311 216.634 310.552 216.634 310V307H219.634C220.186 307 220.634 306.552 220.634 306C220.634 305.448 220.186 305 219.634 305H216.634Z" fill="white"/>
<path fill-rule="evenodd" clip-rule="evenodd" d="M205.634 299.5V283.5L217.234 295.108H210.188L210.037 295.232L205.634 299.5Z" fill="white"/>
<path fill-rule="evenodd" clip-rule="evenodd" d="M206.634 285.8V297L209.603 294.131L209.763 293.992L214.799 294L206.634 285.8Z" fill="black"/>
</g>
<defs>
<filter id="filter0_d" x="0" y="0" width="230.268" height="362" filterUnits="userSpaceOnUse" color-interpolation-filters="sRGB">
<feFlood flood-opacity="0" result="BackgroundImageFix"/>
<feColorMatrix in="SourceAlpha" type="matrix" values="0 0 0 0 0 0 0 0 0 0 0 0 0 0 0 0 0 0 127 0"/>
<feOffset dy="2"/>
<feGaussianBlur stdDeviation="4"/>
<feColorMatrix type="matrix" values="0 0 0 0 0 0 0 0 0 0 0 0 0 0 0 0 0 0 0.4 0"/>
<feBlend mode="normal" in2="BackgroundImageFix" result="effect1_dropShadow"/>
<feBlend mode="normal" in="SourceGraphic" in2="effect1_dropShadow" result="shape"/>
</filter>
<filter id="filter1_d" x="156.134" y="228.5" width="180" height="77" filterUnits="userSpaceOnUse" color-interpolation-filters="sRGB">
<feFlood flood-opacity="0" result="BackgroundImageFix"/>
<feColorMatrix in="SourceAlpha" type="matrix" values="0 0 0 0 0 0 0 0 0 0 0 0 0 0 0 0 0 0 127 0"/>
<feOffset dy="2"/>
<feGaussianBlur stdDeviation="6"/>
<feColorMatrix type="matrix" values="0 0 0 0 0 0 0 0 0 0 0 0 0 0 0 0 0 0 0.6 0"/>
<feBlend mode="normal" in2="BackgroundImageFix" result="effect1_dropShadow"/>
<feBlend mode="normal" in="SourceGraphic" in2="effect1_dropShadow" result="shape"/>
</filter>
<filter id="filter2_d" x="203.834" y="282.7" width="22.6" height="35.1" filterUnits="userSpaceOnUse" color-interpolation-filters="sRGB">
<feFlood flood-opacity="0" result="BackgroundImageFix"/>
<feColorMatrix in="SourceAlpha" type="matrix" values="0 0 0 0 0 0 0 0 0 0 0 0 0 0 0 0 0 0 127 0"/>
<feOffset dy="1"/>
<feGaussianBlur stdDeviation="0.9"/>
<feColorMatrix type="matrix" values="0 0 0 0 0 0 0 0 0 0 0 0 0 0 0 0 0 0 0.65 0"/>
<feBlend mode="normal" in2="BackgroundImageFix" result="effect1_dropShadow"/>
<feBlend mode="normal" in="SourceGraphic" in2="effect1_dropShadow" result="shape"/>
</filter>
<clipPath id="clip0">
<rect width="198" height="318" fill="white" transform="translate(207.634 20)"/>
</clipPath>
<clipPath id="clip1">
<rect width="103" height="35" fill="white" transform="translate(207.634 20)"/>
</clipPath>
</defs>
</svg>
