<svg viewBox="0 0 410 370" fill="none" xmlns="http://www.w3.org/2000/svg">
<g clip-path="url(#clip0)">
<rect width="198" height="318" transform="translate(212 24)" fill="var(--vscode-editor-background, #1e1e1e)"/>
<rect width="336" height="35" transform="translate(212 24)" fill="var(--vscode-editorGroupHeader-tabsBackground, #252526)"/>
<rect width="103" height="35" transform="translate(212 24)" fill="var(--vscode-tab-activeBackground, #1e1e1e)"/>
<rect x="224" y="38" width="79" height="7" rx="3.5" fill="var(--vscode-foreground)" fill-opacity="0.25"/>
<rect x="255" y="77" width="55" height="7" rx="3.5" fill="var(--vscode-foreground)" fill-opacity="0.25"/>
<rect x="255" y="96" width="55" height="7" rx="3.5" fill="var(--vscode-foreground)" fill-opacity="0.25"/>
<rect x="255" y="153" width="72" height="7" rx="3.5" fill="var(--vscode-foreground)" fill-opacity="0.25"/>
<rect x="333" y="153" width="26" height="7" rx="3.5" fill="var(--vscode-foreground)" fill-opacity="0.25"/>
<rect x="255" y="273" width="72" height="7" rx="3.5" fill="var(--vscode-foreground)" fill-opacity="0.25"/>
<rect x="333" y="273" width="26" height="7" rx="3.5" fill="var(--vscode-foreground)" fill-opacity="0.25"/>
<rect x="272" y="172" width="30" height="7" rx="3.5" fill="var(--vscode-foreground)" fill-opacity="0.25"/>
<rect x="282" y="191" width="30" height="7" rx="3.5" fill="var(--vscode-foreground)" fill-opacity="0.25"/>
<rect x="318" y="191" width="41" height="7" rx="3.5" fill="var(--vscode-foreground)" fill-opacity="0.25"/>
<rect x="272" y="210" width="30" height="7" rx="3.5" fill="var(--vscode-foreground)" fill-opacity="0.25"/>
<rect x="263" y="229" width="31" height="7" rx="3.5" fill="var(--vscode-foreground)" fill-opacity="0.25"/>
<rect x="316" y="77" width="52" height="7" rx="3.5" fill="var(--vscode-foreground)" fill-opacity="0.25"/>
<rect x="316" y="96" width="74" height="7" rx="3.5" fill="var(--vscode-foreground)" fill-opacity="0.25"/>
<rect x="309" y="172" width="59" height="7" rx="3.5" fill="var(--vscode-foreground)" fill-opacity="0.25"/>
</g>
<g filter="url(#filter0_d)">
<rect x="13" y="11" width="212.268" height="344" fill="var(--vscode-editorGroupHeader-tabsBackground, #252526)"/>
<path d="M34.8806 39.7485H31.8019V37.7509H34.716V36.9234H31.8019V35.0459H34.8806V34.1872H30.8053V40.6072H34.8806V39.7485ZM35.9128 40.6072H37.0161L38.6133 38.1914H38.689L40.2639 40.6072H41.4296L39.2896 37.4083L41.4696 34.1872H40.3485L38.7602 36.6386H38.6845L37.1229 34.1872H35.935L38.0572 37.3772L35.9128 40.6072ZM42.6753 34.1872V40.6072H43.6719V38.4138H45.1579C46.4169 38.4138 47.3067 37.5507 47.3067 36.3139C47.3067 35.0503 46.4436 34.1872 45.189 34.1872H42.6753ZM43.6719 35.0281H44.9265C45.803 35.0281 46.2879 35.4819 46.2879 36.3139C46.2879 37.1191 45.7852 37.5774 44.9265 37.5774H43.6719V35.0281ZM52.5967 39.7396H49.5891V34.1872H48.5925V40.6072H52.5967V39.7396ZM56.3561 34.0315C54.5142 34.0315 53.3574 35.3262 53.3574 37.395C53.3574 39.4593 54.4875 40.7629 56.3561 40.7629C58.2113 40.7629 59.3503 39.4549 59.3503 37.395C59.3503 35.3306 58.2024 34.0315 56.3561 34.0315ZM56.3561 34.9124C57.5707 34.9124 58.3315 35.8734 58.3315 37.395C58.3315 38.9032 57.5751 39.882 56.3561 39.882C55.1193 39.882 54.3763 38.9032 54.3763 37.395C54.3763 35.8734 55.1415 34.9124 56.3561 34.9124ZM61.6994 38.138H63.1053L64.4133 40.6072H65.5656L64.1241 37.9822C64.9071 37.7198 65.3698 37.0168 65.3698 36.1492C65.3698 34.9525 64.5379 34.1872 63.2432 34.1872H60.7028V40.6072H61.6994V38.138ZM61.6994 35.0236H63.1053C63.875 35.0236 64.3466 35.4552 64.3466 36.1715C64.3466 36.9056 63.9017 37.3193 63.132 37.3193H61.6994V35.0236ZM70.8644 39.7485H67.7857V37.7509H70.6998V36.9234H67.7857V35.0459H70.8644V34.1872H66.7891V40.6072H70.8644V39.7485ZM73.3025 38.138H74.7084L76.0164 40.6072H77.1687L75.7272 37.9822C76.5102 37.7198 76.9729 37.0168 76.9729 36.1492C76.9729 34.9525 76.141 34.1872 74.8463 34.1872H72.3059V40.6072H73.3025V38.138ZM73.3025 35.0236H74.7084C75.478 35.0236 75.9496 35.4552 75.9496 36.1715C75.9496 36.9056 75.5047 37.3193 74.7351 37.3193H73.3025V35.0236ZM79.0239 37.3327C79.4021 37.3327 79.6779 37.0524 79.6779 36.692C79.6779 36.3317 79.4021 36.0514 79.0239 36.0514C78.6502 36.0514 78.3699 36.3317 78.3699 36.692C78.3699 37.0524 78.6502 37.3327 79.0239 37.3327ZM79.0239 40.6739C79.4021 40.6739 79.6779 40.3936 79.6779 40.0333C79.6779 39.6729 79.4021 39.3926 79.0239 39.3926C78.6502 39.3926 78.3699 39.6729 78.3699 40.0333C78.3699 40.3936 78.6502 40.6739 79.0239 40.6739ZM90.2533 40.6072V34.1872H89.0876L87.0411 39.2102H86.9655L84.9233 34.1872H83.7577V40.6072H84.6831V35.9045H84.7454L86.6273 40.4915H87.3837L89.2656 35.9045H89.3279V40.6072H90.2533ZM94.6311 40.6072V37.9778L96.8957 34.1872H95.7879L94.1729 36.9857H94.0973L92.4823 34.1872H91.3745L93.6346 37.9778V40.6072H94.6311ZM100.179 38.4627V37.5774H97.2605V38.4627H100.179ZM105.674 40.6072H106.733L104.415 34.1872H103.342L101.024 40.6072H102.048L102.639 38.8721H105.086L105.674 40.6072ZM103.827 35.3217H103.903L104.833 38.0712H102.893L103.827 35.3217ZM107.854 34.1872V40.6072H108.85V38.4138H110.336C111.595 38.4138 112.485 37.5507 112.485 36.3139C112.485 35.0503 111.622 34.1872 110.367 34.1872H107.854ZM108.85 35.0281H110.105C110.981 35.0281 111.466 35.4819 111.466 36.3139C111.466 37.1191 110.964 37.5774 110.105 37.5774H108.85V35.0281ZM113.771 34.1872V40.6072H114.767V38.4138H116.253C117.513 38.4138 118.402 37.5507 118.402 36.3139C118.402 35.0503 117.539 34.1872 116.285 34.1872H113.771ZM114.767 35.0281H116.022C116.899 35.0281 117.384 35.4819 117.384 36.3139C117.384 37.1191 116.881 37.5774 116.022 37.5774H114.767V35.0281Z" fill="var(--vscode-foreground)"/>
<path d="M35.984 65.0998L40.336 60.7478L40.96 61.3718L36.288 66.0278H35.664L31.008 61.3718L31.616 60.7478L35.984 65.0998Z" fill="var(--vscode-foreground)"/>
<rect x="52" y="59.5358" width="42" height="7" rx="3.5" fill="var(--vscode-foreground)" fill-opacity="0.25"/>
<path d="M47.984 89.0998L52.336 84.7478L52.96 85.3718L48.288 90.0278H47.664L43.008 85.3718L43.616 84.7478L47.984 89.0998Z" fill="var(--vscode-foreground)"/>
<rect x="64" y="83.5358" width="42" height="7" rx="3.5" fill="var(--vscode-foreground)" fill-opacity="0.25"/>
<rect width="210.268" height="24" transform="translate(14 99.0358)" fill="var(--vscode-list-activeSelectionBackground)"/>
<path d="M47.76 108.416H45.62V114.776H44.06V108.416H41.94V107.276H47.68V108.416H47.76ZM52.56 112.856C52.56 112.709 52.5333 112.582 52.48 112.476C52.4267 112.369 52.3533 112.262 52.26 112.156C52.18 112.089 52.06 112.016 51.9 111.936C51.7933 111.896 51.6067 111.822 51.34 111.716L51.18 111.656C50.3133 111.402 49.6267 111.089 49.12 110.716C48.6667 110.329 48.44 109.849 48.44 109.276C48.44 108.649 48.7133 108.149 49.26 107.776C49.7533 107.402 50.4067 107.216 51.22 107.216C52.0467 107.216 52.7267 107.449 53.26 107.916C53.7533 108.356 54 108.896 54 109.536H52.56C52.56 109.349 52.5267 109.189 52.46 109.056C52.4067 108.922 52.3133 108.789 52.18 108.656C51.9133 108.456 51.58 108.356 51.18 108.356C50.78 108.356 50.4733 108.436 50.26 108.596C50.0467 108.756 49.94 108.982 49.94 109.276C49.94 109.516 50.0667 109.729 50.32 109.916C50.4267 109.996 50.5867 110.076 50.8 110.156C50.96 110.222 51.2133 110.309 51.56 110.416C52.3733 110.656 52.9933 110.962 53.42 111.336C53.8467 111.696 54.06 112.202 54.06 112.856C54.06 113.176 53.9933 113.469 53.86 113.736C53.74 113.989 53.56 114.196 53.32 114.356C52.8133 114.729 52.1467 114.916 51.32 114.916C50.44 114.916 49.7267 114.702 49.18 114.276C48.5533 113.782 48.2667 113.182 48.32 112.476H49.82C49.82 112.902 49.9667 113.236 50.26 113.476C50.38 113.569 50.54 113.642 50.74 113.696C50.94 113.749 51.1533 113.776 51.38 113.776C51.8333 113.776 52.1467 113.696 52.32 113.536C52.48 113.282 52.56 113.056 52.56 112.856Z" fill="#519ABA"/>
<path d="M66.9009 115.15C67.8086 115.15 68.564 114.756 68.9766 114.058H69.0845V115.036H70.3984V110.319C70.3984 108.872 69.4209 108.009 67.688 108.009C66.1201 108.009 65.0029 108.764 64.8633 109.926H66.1836C66.3359 109.424 66.8628 109.139 67.6245 109.139C68.5576 109.139 69.04 109.564 69.04 110.319V110.922L67.1675 111.037C65.5234 111.138 64.5967 111.856 64.5967 113.093C64.5967 114.35 65.5679 115.15 66.9009 115.15ZM67.25 114.052C66.5073 114.052 65.9678 113.677 65.9678 113.036C65.9678 112.408 66.3994 112.071 67.3516 112.008L69.04 111.894V112.49C69.04 113.379 68.2783 114.052 67.25 114.052ZM75.9272 108.022C74.9878 108.022 74.1753 108.498 73.7563 109.285H73.6548V108.142H72.3408V117.334H73.7056V113.995H73.8135C74.1753 114.725 74.9561 115.15 75.9399 115.15C77.6855 115.15 78.7964 113.766 78.7964 111.589C78.7964 109.399 77.6855 108.022 75.9272 108.022ZM75.54 113.982C74.3975 113.982 73.6802 113.062 73.6802 111.589C73.6802 110.11 74.3975 109.19 75.5464 109.19C76.7017 109.19 77.3936 110.091 77.3936 111.589C77.3936 113.087 76.7017 113.982 75.54 113.982ZM84.0269 108.022C83.0874 108.022 82.2749 108.498 81.856 109.285H81.7544V108.142H80.4404V117.334H81.8052V113.995H81.9131C82.2749 114.725 83.0557 115.15 84.0396 115.15C85.7852 115.15 86.896 113.766 86.896 111.589C86.896 109.399 85.7852 108.022 84.0269 108.022ZM83.6396 113.982C82.4971 113.982 81.7798 113.062 81.7798 111.589C81.7798 110.11 82.4971 109.19 83.646 109.19C84.8013 109.19 85.4932 110.091 85.4932 111.589C85.4932 113.087 84.8013 113.982 83.6396 113.982ZM89.4478 115.131C89.9873 115.131 90.3809 114.731 90.3809 114.217C90.3809 113.703 89.9873 113.303 89.4478 113.303C88.9146 113.303 88.5146 113.703 88.5146 114.217C88.5146 114.731 88.9146 115.131 89.4478 115.131ZM92.7549 106.403V108.161H91.6567V109.253H92.7549V113.22C92.7549 114.547 93.3579 115.08 94.875 115.08C95.1416 115.08 95.3955 115.048 95.6177 115.01V113.925C95.4272 113.944 95.3066 113.957 95.0972 113.957C94.418 113.957 94.1196 113.633 94.1196 112.89V109.253H95.6177V108.161H94.1196V106.403H92.7549ZM96.9634 110.072C96.9634 111.094 97.5728 111.678 98.8867 111.983L100.093 112.268C100.785 112.433 101.108 112.713 101.108 113.144C101.108 113.709 100.505 114.103 99.6548 114.103C98.8296 114.103 98.3218 113.766 98.1504 113.227H96.7856C96.9062 114.426 97.979 115.169 99.623 115.169C101.273 115.169 102.486 114.299 102.486 113.017C102.486 112.014 101.87 111.449 100.556 111.145L99.4072 110.878C98.6582 110.7 98.3091 110.434 98.3091 110.008C98.3091 109.45 98.8867 109.075 99.6484 109.075C100.423 109.075 100.918 109.412 101.045 109.926H102.353C102.219 108.733 101.204 108.009 99.6484 108.009C98.0869 108.009 96.9634 108.872 96.9634 110.072ZM106.542 112.567L108.053 115.048H109.621L107.316 111.564L109.595 108.155H108.072L106.599 110.618H106.491L105.006 108.155H103.413L105.723 111.614L103.432 115.048H104.93L106.44 112.567H106.542Z" fill="var(--vscode-list-activeSelectionForeground)"/>
<path d="M44.44 139.596L44.94 137.096H43.38V135.776H45.26L45.56 134.216H43.94V132.916H45.88L46.38 130.476H48.12L47.62 132.916H49.38L49.88 130.476H51.62L51.12 132.916H52.68V134.216H50.88L50.5 135.776H52.12V137.096H50.26L49.76 139.596H48L48.5 137.096H46.76L46.26 139.596H44.44ZM48.76 135.796L49.06 134.216H47.32L47 135.796H48.76Z" fill="#519ABA"/>
<path d="M66.9009 139.15C67.8086 139.15 68.564 138.756 68.9766 138.058H69.0845V139.036H70.3984V134.319C70.3984 132.872 69.4209 132.009 67.688 132.009C66.1201 132.009 65.0029 132.764 64.8633 133.926H66.1836C66.3359 133.424 66.8628 133.139 67.6245 133.139C68.5576 133.139 69.04 133.564 69.04 134.319V134.922L67.1675 135.037C65.5234 135.138 64.5967 135.856 64.5967 137.093C64.5967 138.35 65.5679 139.15 66.9009 139.15ZM67.25 138.052C66.5073 138.052 65.9678 137.677 65.9678 137.036C65.9678 136.408 66.3994 136.071 67.3516 136.008L69.04 135.894V136.49C69.04 137.379 68.2783 138.052 67.25 138.052ZM75.9272 132.022C74.9878 132.022 74.1753 132.498 73.7563 133.285H73.6548V132.142H72.3408V141.334H73.7056V137.995H73.8135C74.1753 138.725 74.9561 139.15 75.9399 139.15C77.6855 139.15 78.7964 137.766 78.7964 135.589C78.7964 133.399 77.6855 132.022 75.9272 132.022ZM75.54 137.982C74.3975 137.982 73.6802 137.062 73.6802 135.589C73.6802 134.11 74.3975 133.19 75.5464 133.19C76.7017 133.19 77.3936 134.091 77.3936 135.589C77.3936 137.087 76.7017 137.982 75.54 137.982ZM84.0269 132.022C83.0874 132.022 82.2749 132.498 81.856 133.285H81.7544V132.142H80.4404V141.334H81.8052V137.995H81.9131C82.2749 138.725 83.0557 139.15 84.0396 139.15C85.7852 139.15 86.896 137.766 86.896 135.589C86.896 133.399 85.7852 132.022 84.0269 132.022ZM83.6396 137.982C82.4971 137.982 81.7798 137.062 81.7798 135.589C81.7798 134.11 82.4971 133.19 83.646 133.19C84.8013 133.19 85.4932 134.091 85.4932 135.589C85.4932 137.087 84.8013 137.982 83.6396 137.982ZM89.4478 139.131C89.9873 139.131 90.3809 138.731 90.3809 138.217C90.3809 137.703 89.9873 137.303 89.4478 137.303C88.9146 137.303 88.5146 137.703 88.5146 138.217C88.5146 138.731 88.9146 139.131 89.4478 139.131ZM98.0869 134.358C97.9092 133.018 96.8618 132.009 95.1289 132.009C93.1167 132.009 91.8916 133.374 91.8916 135.564C91.8916 137.798 93.123 139.169 95.1353 139.169C96.8428 139.169 97.9092 138.211 98.0869 136.852H96.7603C96.5825 137.601 95.9922 138.007 95.1289 138.007C93.9927 138.007 93.2881 137.087 93.2881 135.564C93.2881 134.072 93.9863 133.171 95.1289 133.171C96.043 133.171 96.6016 133.685 96.7603 134.358H98.0869ZM99.4897 134.072C99.4897 135.094 100.099 135.678 101.413 135.983L102.619 136.268C103.311 136.433 103.635 136.713 103.635 137.144C103.635 137.709 103.032 138.103 102.181 138.103C101.356 138.103 100.848 137.766 100.677 137.227H99.312C99.4326 138.426 100.505 139.169 102.149 139.169C103.8 139.169 105.012 138.299 105.012 137.017C105.012 136.014 104.396 135.449 103.083 135.145L101.934 134.878C101.185 134.7 100.835 134.434 100.835 134.008C100.835 133.45 101.413 133.075 102.175 133.075C102.949 133.075 103.444 133.412 103.571 133.926H104.879C104.746 132.733 103.73 132.009 102.175 132.009C100.613 132.009 99.4897 132.872 99.4897 134.072ZM106.371 134.072C106.371 135.094 106.98 135.678 108.294 135.983L109.5 136.268C110.192 136.433 110.516 136.713 110.516 137.144C110.516 137.709 109.913 138.103 109.062 138.103C108.237 138.103 107.729 137.766 107.558 137.227H106.193C106.313 138.426 107.386 139.169 109.03 139.169C110.681 139.169 111.893 138.299 111.893 137.017C111.893 136.014 111.277 135.449 109.963 135.145L108.814 134.878C108.065 134.7 107.716 134.434 107.716 134.008C107.716 133.45 108.294 133.075 109.056 133.075C109.83 133.075 110.325 133.412 110.452 133.926H111.76C111.626 132.733 110.611 132.009 109.056 132.009C107.494 132.009 106.371 132.872 106.371 134.072Z" fill="var(--vscode-foreground)"/>
<path d="M38.08 159.052L33.712 154.7L34.336 154.076L39.008 158.748V159.372L34.336 164.028L33.712 163.42L38.08 159.068V159.052Z" fill="var(--vscode-foreground)"/>
<rect x="52" y="155.536" width="70" height="7" rx="3.5" fill="var(--vscode-foreground)" fill-opacity="0.25"/>
<path d="M38.08 183.052L33.712 178.7L34.336 178.076L39.008 182.748V183.372L34.336 188.028L33.712 187.42L38.08 183.068V183.052Z" fill="var(--vscode-foreground)"/>
<rect x="52" y="179.536" width="93" height="7" rx="3.5" fill="var(--vscode-foreground)" fill-opacity="0.25"/>
<path d="M30.38 207.156V206.976C30.3933 206.869 30.4267 206.776 30.48 206.696C30.52 206.642 30.58 206.569 30.66 206.476L30.82 206.296L33.94 203.156L33.96 203.176C33.9867 203.176 34 203.189 34 203.216L35.12 204.356C35.1867 204.409 35.1867 204.469 35.12 204.536C35.0933 204.722 35.1133 204.902 35.18 205.076C35.2467 205.249 35.3533 205.382 35.5 205.476C35.5533 205.502 35.5867 205.536 35.6 205.576C35.6133 205.602 35.62 205.649 35.62 205.716V208.476C35.62 208.556 35.58 208.636 35.5 208.716C35.34 208.822 35.22 208.962 35.14 209.136C35.0733 209.309 35.0667 209.489 35.12 209.676C35.1867 209.849 35.2933 209.996 35.44 210.116C35.5867 210.236 35.7533 210.296 35.94 210.296C36.1267 210.296 36.2933 210.242 36.44 210.136C36.5867 210.029 36.6867 209.889 36.74 209.716C36.8067 209.529 36.8133 209.349 36.76 209.176C36.7067 209.002 36.6 208.849 36.44 208.716C36.3867 208.689 36.3533 208.662 36.34 208.636C36.3267 208.596 36.32 208.542 36.32 208.476V205.656H36.38L37.38 206.656C37.4067 206.682 37.42 206.716 37.42 206.756L37.44 206.796V207.156C37.4667 207.409 37.5733 207.609 37.76 207.756C37.96 207.889 38.1867 207.942 38.44 207.916C38.6933 207.876 38.8933 207.749 39.04 207.536C39.2 207.322 39.2467 207.096 39.18 206.856C39.1533 206.642 39.0333 206.469 38.82 206.336C38.62 206.189 38.4067 206.129 38.18 206.156C38.1 206.156 38.02 206.136 37.94 206.096L36.88 205.036C36.84 204.996 36.82 204.936 36.82 204.856C36.86 204.669 36.8333 204.489 36.74 204.316C36.6467 204.142 36.5133 204.016 36.34 203.936C36.1667 203.842 35.9933 203.816 35.82 203.856C35.6867 203.856 35.62 203.836 35.62 203.796C35.1267 203.289 34.7533 202.929 34.5 202.716C34.4333 202.662 34.4333 202.602 34.5 202.536C34.6467 202.429 34.8333 202.242 35.06 201.976L35.32 201.716C35.6933 201.342 36.0667 201.342 36.44 201.716L41.18 206.476C41.5667 206.849 41.5667 207.222 41.18 207.596L36.54 212.256C36.42 212.376 36.3333 212.456 36.28 212.496C36.1733 212.589 36.06 212.642 35.94 212.656H35.82L35.72 212.616C35.56 212.549 35.4467 212.482 35.38 212.416L35 212.036C34.6267 211.689 34.3533 211.416 34.18 211.216L30.76 207.796C30.7333 207.729 30.6733 207.642 30.58 207.536C30.46 207.376 30.3933 207.249 30.38 207.156Z" fill="#6D8086"/>
<rect x="52" y="203.536" width="63" height="7" rx="3.5" fill="var(--vscode-foreground)" fill-opacity="0.25"/>
<path d="M38.56 235.276C38.48 235.409 38.3933 235.562 38.3 235.736C38.22 235.896 38.18 236.036 38.18 236.156L38 238.096C38 238.322 37.8933 238.469 37.68 238.536C37.5333 238.576 37.3067 238.649 37 238.756C36.6933 238.862 36.4667 238.936 36.32 238.976H35.62C35.6067 238.976 35.5667 238.969 35.5 238.956C35.4333 238.929 35.3933 238.916 35.38 238.916C34.8733 238.742 34.52 238.596 34.32 238.476C34.1867 238.342 34.12 238.236 34.12 238.156C34.08 237.822 34.06 237.342 34.06 236.716C34.06 236.382 34.0467 236.142 34.02 235.996C33.9667 235.729 33.8533 235.516 33.68 235.356V235.276C35.2533 235.716 36.88 235.716 38.56 235.276ZM39.5 227.356C39.4733 227.636 39.4267 228.069 39.36 228.656C39.3067 229.242 39.2733 229.682 39.26 229.976L38.82 234.536C38.82 234.922 38.6067 235.149 38.18 235.216C37.7267 235.309 37.1267 235.396 36.38 235.476C35.4467 235.542 34.5733 235.456 33.76 235.216C33.6133 235.189 33.5067 235.122 33.44 235.016C33.4 234.949 33.36 234.829 33.32 234.656C33.32 234.402 33.2733 234.116 33.18 233.796L32.94 231.476C32.94 231.449 32.9267 231.416 32.9 231.376C32.8867 231.336 32.88 231.309 32.88 231.296C32.8533 230.856 32.7733 230.216 32.64 229.376L32.5 228.356C32.46 228.142 32.44 227.829 32.44 227.416C34.8667 227.922 37.22 227.902 39.5 227.356ZM32.44 226.976C32.6 226.896 32.7267 226.856 32.82 226.856L34.56 226.656C34.5867 226.656 34.64 226.636 34.72 226.596L34.82 226.536C34.78 226.429 34.7333 226.269 34.68 226.056C34.6267 225.802 34.5733 225.609 34.52 225.476C34.44 225.276 34.3267 225.109 34.18 224.976C34.02 224.802 33.78 224.542 33.46 224.196C33.1533 223.836 32.92 223.576 32.76 223.416C32.8933 223.269 32.9867 223.182 33.04 223.156C33.0933 223.116 33.14 223.109 33.18 223.136C33.2333 223.162 33.32 223.236 33.44 223.356L33.68 223.596C33.8667 223.809 34.0133 223.956 34.12 224.036C34.8267 224.609 35.2467 225.336 35.38 226.216C35.4333 226.402 35.5067 226.522 35.6 226.576C35.6933 226.629 35.8267 226.656 36 226.656L39.12 226.856C39.1867 226.856 39.2867 226.876 39.42 226.916L39.56 226.976C39.2267 227.229 38.5 227.402 37.38 227.496C36.3533 227.589 35.3333 227.589 34.32 227.496C33.2667 227.389 32.64 227.216 32.44 226.976Z" fill="#CC3E44"/>
<rect x="52" y="227.536" width="47" height="7" rx="3.5" fill="var(--vscode-foreground)" fill-opacity="0.25"/>
<path d="M34 250.012V249.036H33.904C33.5947 249.036 33.2907 249.1 32.992 249.228C32.704 249.345 32.448 249.516 32.224 249.74C32.0107 249.964 31.8453 250.22 31.728 250.508C31.632 250.774 31.568 251.052 31.536 251.34C31.504 251.628 31.4933 251.916 31.504 252.204C31.5253 252.492 31.536 252.78 31.536 253.068C31.536 253.27 31.4933 253.462 31.408 253.644C31.2587 254.006 31.0027 254.268 30.64 254.428C30.4693 254.502 30.288 254.54 30.096 254.54H30V255.532H30.096C30.288 255.532 30.4693 255.569 30.64 255.644C30.8213 255.729 30.976 255.836 31.104 255.964C31.232 256.102 31.3333 256.257 31.408 256.428V256.444C31.4933 256.614 31.536 256.801 31.536 257.004C31.536 257.292 31.5253 257.585 31.504 257.884C31.4933 258.172 31.504 258.46 31.536 258.748C31.568 259.025 31.632 259.297 31.728 259.564C31.8347 259.841 32 260.097 32.224 260.332C32.448 260.556 32.704 260.732 32.992 260.86C33.2907 260.977 33.5947 261.036 33.904 261.036H34V260.044H33.904C33.712 260.044 33.5253 260.006 33.344 259.932C33.1733 259.857 33.0187 259.75 32.88 259.612C32.752 259.473 32.6507 259.318 32.576 259.148C32.5013 258.966 32.464 258.774 32.464 258.572C32.464 258.326 32.4693 258.102 32.48 257.9C32.4907 257.676 32.4907 257.457 32.48 257.244C32.48 257.03 32.464 256.817 32.432 256.604C32.4 256.39 32.3413 256.188 32.256 255.996C32.096 255.612 31.8507 255.292 31.52 255.036C31.8507 254.78 32.096 254.46 32.256 254.076C32.3413 253.894 32.4 253.697 32.432 253.484C32.464 253.27 32.48 253.057 32.48 252.844C32.4907 252.62 32.4907 252.396 32.48 252.172C32.4693 251.948 32.464 251.724 32.464 251.5C32.464 251.201 32.544 250.929 32.704 250.684C32.864 250.438 33.0773 250.257 33.344 250.14C33.5253 250.054 33.712 250.012 33.904 250.012H34ZM38 260.044V261.036H38.096C38.4053 261.036 38.704 260.977 38.992 260.86C39.2907 260.732 39.552 260.556 39.776 260.332C40 260.097 40.1653 259.841 40.272 259.564C40.368 259.308 40.432 259.03 40.464 258.732C40.496 258.454 40.5013 258.172 40.48 257.884C40.4693 257.585 40.464 257.292 40.464 257.004C40.464 256.801 40.5067 256.609 40.592 256.428C40.7413 256.065 40.9973 255.804 41.36 255.644C41.5307 255.569 41.712 255.532 41.904 255.532H42V254.54H41.904C41.712 254.54 41.5307 254.502 41.36 254.428C41.1787 254.353 41.024 254.246 40.896 254.108C40.7573 253.969 40.656 253.814 40.592 253.644V253.628C40.5067 253.457 40.464 253.27 40.464 253.068C40.464 252.78 40.4693 252.492 40.48 252.204C40.5013 251.916 40.496 251.622 40.464 251.324C40.432 251.046 40.368 250.774 40.272 250.508C40.1547 250.22 39.984 249.964 39.76 249.74C39.5467 249.516 39.2907 249.345 38.992 249.228C38.704 249.1 38.4053 249.036 38.096 249.036H38V250.028H38.096C38.288 250.028 38.4693 250.065 38.64 250.14C38.8213 250.214 38.976 250.321 39.104 250.46C39.232 250.588 39.3333 250.742 39.408 250.924C39.4933 251.105 39.536 251.297 39.536 251.5C39.5253 251.745 39.52 251.969 39.52 252.172C39.5093 252.396 39.504 252.62 39.504 252.844C39.5147 253.057 39.536 253.27 39.568 253.484C39.6 253.686 39.6587 253.884 39.744 254.076C39.904 254.46 40.1493 254.78 40.48 255.036C40.1493 255.292 39.904 255.612 39.744 255.996C39.6587 256.188 39.6 256.39 39.568 256.604C39.536 256.806 39.5147 257.02 39.504 257.244C39.504 257.457 39.5093 257.676 39.52 257.9C39.5307 258.124 39.536 258.348 39.536 258.572C39.536 258.87 39.456 259.142 39.296 259.388C39.136 259.633 38.9227 259.814 38.656 259.932C38.4747 260.017 38.288 260.06 38.096 260.06H38V260.044Z" fill="#CBCB41"/>
<rect x="52" y="251.536" width="58" height="7" rx="3.5" fill="var(--vscode-foreground)" fill-opacity="0.25"/>
<path d="M33.5 284.156C33.3933 284.102 33.3133 284.022 33.26 283.916C33.22 283.876 33.1933 283.856 33.18 283.856C33.18 283.856 33.1667 283.876 33.14 283.916C33.1133 283.956 33.0867 284.016 33.06 284.096C33.0467 284.176 33.0267 284.242 33 284.296C32.9067 284.602 32.7733 284.809 32.6 284.916C32.4267 285.022 32.1867 285.042 31.88 284.976C31.8 284.976 31.6733 284.936 31.5 284.856C31.2467 284.722 31.1867 284.536 31.32 284.296C31.32 284.269 31.3267 284.236 31.34 284.196C31.3667 284.156 31.38 284.122 31.38 284.096C31.1533 284.096 31.0067 283.996 30.94 283.796C30.78 283.369 30.7267 282.996 30.78 282.676C30.8333 282.342 31.0133 282.022 31.32 281.716L31.36 281.636C31.4133 281.542 31.44 281.469 31.44 281.416C31.44 280.962 31.4867 280.569 31.58 280.236C31.6867 279.836 31.8667 279.476 32.12 279.156C32.3333 278.876 32.5867 278.649 32.88 278.476C32.9333 278.449 32.96 278.416 32.96 278.376C32.9733 278.336 32.9667 278.282 32.94 278.216C32.7133 277.936 32.5667 277.602 32.5 277.216C32.4733 277.109 32.48 276.989 32.52 276.856C32.5467 276.762 32.6 276.636 32.68 276.476L32.76 276.296C32.84 276.202 32.9 276.156 32.94 276.156C33.06 276.129 33.22 276.042 33.42 275.896L33.56 275.796C33.9733 275.369 34.4933 275.156 35.12 275.156C35.1867 275.156 35.2333 275.149 35.26 275.136C35.3 275.109 35.32 275.076 35.32 275.036C35.3733 274.782 35.4933 274.536 35.68 274.296L35.88 274.096C35.9467 274.029 36.0133 274.002 36.08 274.016C36.16 274.016 36.22 274.062 36.26 274.156C36.34 274.302 36.44 274.509 36.56 274.776L36.68 275.036C36.7467 275.142 36.8133 275.162 36.88 275.096C37.04 275.029 37.1467 274.996 37.2 274.996C37.2533 274.982 37.2933 274.996 37.32 275.036C37.3467 275.076 37.3867 275.182 37.44 275.356C37.76 276.689 37.5533 277.936 36.82 279.096C36.7933 279.136 36.7467 279.202 36.68 279.296C36.6267 279.376 36.5867 279.442 36.56 279.496C36.5333 279.549 36.52 279.596 36.52 279.636C36.5333 279.676 36.5667 279.729 36.62 279.796C36.9 280.036 37.1333 280.322 37.32 280.656C37.5067 280.989 37.6267 281.342 37.68 281.716C37.7467 282.182 37.7467 282.642 37.68 283.096C37.6533 283.216 37.6533 283.289 37.68 283.316C37.7067 283.329 37.7733 283.322 37.88 283.296C38.3467 283.149 38.76 282.956 39.12 282.716L39.28 282.636C39.52 282.489 39.7067 282.389 39.84 282.336C40.04 282.242 40.24 282.182 40.44 282.156H40.62C40.7533 282.129 40.86 282.136 40.94 282.176C41.0333 282.202 41.1067 282.256 41.16 282.336C41.2267 282.416 41.26 282.502 41.26 282.596C41.26 282.782 41.1533 282.909 40.94 282.976C40.3933 283.082 39.8267 283.349 39.24 283.776C38.6667 284.189 37.98 284.502 37.18 284.716C37.1533 284.716 37.1133 284.729 37.06 284.756C37.0067 284.782 36.9667 284.816 36.94 284.856C36.8467 284.922 36.7467 284.969 36.64 284.996C36.5733 285.022 36.4667 285.042 36.32 285.056L36.12 285.096L35.96 285.116C35.16 285.182 34.5467 285.216 34.12 285.216C33.88 285.216 33.6733 285.196 33.5 285.156C33.26 285.076 33.1133 284.956 33.06 284.796C32.9933 284.542 33.06 284.349 33.26 284.216C33.3 284.216 33.3467 284.209 33.4 284.196C33.4533 284.169 33.4867 284.156 33.5 284.156Z" fill="#519ABA"/>
<rect x="52" y="275.536" width="71" height="7" rx="3.5" fill="var(--vscode-foreground)" fill-opacity="0.25"/>
<rect x="13" y="11" width="212.268" height="344" stroke="var(--vscode-focusBorder)" stroke-width="2" stroke-dasharray="6 4"/>
</g>
<g filter="url(#filter1_d)">
<path d="M172.134 246.5C172.134 244.291 173.925 242.5 176.134 242.5H324.134C326.343 242.5 328.134 244.291 328.134 246.5V291.5C328.134 293.709 326.343 295.5 324.134 295.5H176.134C173.925 295.5 172.134 293.709 172.134 291.5V246.5Z" fill="var(--vscode-debugToolBar-background)"/>
<path d="M209.878 261.488H199.702L198.43 260.216L197.902 260H190.39L189.646 260.744V277.256L190.39 278H209.902L210.646 277.256V262.256L209.878 261.488ZM209.11 274.232V276.488H191.11V267.488H197.854L198.382 267.272L199.678 265.976H209.134L209.11 274.232ZM209.11 264.488H199.366L198.838 264.728L197.566 266.024H191.134V261.512H197.566L198.838 262.784L199.39 263.024H209.134L209.11 264.488Z" fill="var(--vscode-foreground)"/>
<path d="M223.962 277.5H226.482V269.684C226.482 268.02 227.642 266.719 229.177 266.719C230.677 266.719 231.638 267.621 231.638 269.074V277.5H234.111V269.449C234.111 267.914 235.177 266.719 236.806 266.719C238.458 266.719 239.279 267.574 239.279 269.332V277.5H241.798V268.723C241.798 266.074 240.298 264.527 237.72 264.527C235.951 264.527 234.486 265.43 233.841 266.801H233.642C233.08 265.43 231.873 264.527 230.126 264.527C228.427 264.527 227.138 265.371 226.576 266.801H226.388V264.773H223.962V277.5ZM246.181 282.117C248.783 282.117 249.99 281.145 251.08 278.086L255.837 264.773H253.166L249.978 274.969H249.779L246.58 264.773H243.837L248.455 277.535L248.267 278.191C247.833 279.539 247.154 280.043 245.958 280.043C245.724 280.043 245.337 280.031 245.138 279.996V282.059C245.373 282.094 245.97 282.117 246.181 282.117ZM265.845 271.852V269.52H258.158V271.852H265.845ZM273.076 277.711C274.751 277.711 276.146 276.984 276.908 275.695H277.107V277.5H279.533V268.793C279.533 266.121 277.728 264.527 274.529 264.527C271.634 264.527 269.572 265.922 269.314 268.066H271.751C272.033 267.141 273.005 266.613 274.412 266.613C276.134 266.613 277.025 267.398 277.025 268.793V269.906L273.568 270.117C270.533 270.305 268.822 271.629 268.822 273.914C268.822 276.234 270.615 277.711 273.076 277.711ZM273.72 275.684C272.349 275.684 271.353 274.992 271.353 273.809C271.353 272.648 272.15 272.027 273.908 271.91L277.025 271.699V272.801C277.025 274.441 275.619 275.684 273.72 275.684ZM289.74 264.551C288.005 264.551 286.505 265.43 285.732 266.883H285.544V264.773H283.119V281.742H285.638V275.578H285.837C286.505 276.926 287.947 277.711 289.763 277.711C292.986 277.711 295.037 275.156 295.037 271.137C295.037 267.094 292.986 264.551 289.74 264.551ZM289.025 275.555C286.916 275.555 285.591 273.855 285.591 271.137C285.591 268.406 286.916 266.707 289.037 266.707C291.169 266.707 292.447 268.371 292.447 271.137C292.447 273.902 291.169 275.555 289.025 275.555ZM304.693 264.551C302.958 264.551 301.458 265.43 300.685 266.883H300.498V264.773H298.072V281.742H300.591V275.578H300.791C301.458 276.926 302.9 277.711 304.716 277.711C307.939 277.711 309.99 275.156 309.99 271.137C309.99 267.094 307.939 264.551 304.693 264.551ZM303.978 275.555C301.869 275.555 300.544 273.855 300.544 271.137C300.544 268.406 301.869 266.707 303.99 266.707C306.123 266.707 307.4 268.371 307.4 271.137C307.4 273.902 306.123 275.555 303.978 275.555Z" fill="var(--vscode-foreground)"/>
</g>
<g filter="url(#filter2_d)">
<path fill-rule="evenodd" clip-rule="evenodd" d="M210.634 310C210.634 314.97 214.664 319 219.634 319C224.604 319 228.634 314.97 228.634 310C228.634 305.029 224.604 301 219.634 301C214.664 301 210.634 305.029 210.634 310Z" fill="var(--vscode-button-background)"/>
<path fill-rule="evenodd" clip-rule="evenodd" d="M220.634 309V306C220.634 305.448 220.186 305 219.634 305C219.082 305 218.634 305.448 218.634 306V309H215.634C215.082 309 214.634 309.448 214.634 310C214.634 310.552 215.082 311 215.634 311H218.634V314C218.634 314.552 219.082 315 219.634 315C220.186 315 220.634 314.552 220.634 314V311H223.634C224.186 311 224.634 310.552 224.634 310C224.634 309.448 224.186 309 223.634 309H220.634Z" fill="var(--vscode-button-foreground)"/>
<path fill-rule="evenodd" clip-rule="evenodd" d="M209.634 303.5V287.5L221.234 299.108H214.188L214.037 299.232L209.634 303.5Z" fill="white"/>
<path fill-rule="evenodd" clip-rule="evenodd" d="M210.634 289.8V301L213.603 298.131L213.763 297.992L218.799 298L210.634 289.8Z" fill="black"/>
</g>
<defs>
<filter id="filter0_d" x="0" y="0" width="238.268" height="370" filterUnits="userSpaceOnUse" color-interpolation-filters="sRGB">
<feFlood flood-opacity="0" result="BackgroundImageFix"/>
<feColorMatrix in="SourceAlpha" type="matrix" values="0 0 0 0 0 0 0 0 0 0 0 0 0 0 0 0 0 0 127 0"/>
<feOffset dy="2"/>
<feGaussianBlur stdDeviation="6"/>
<feColorMatrix type="matrix" values="0 0 0 0 0 0 0 0 0 0 0 0 0 0 0 0 0 0 0.6 0"/>
<feBlend mode="normal" in2="BackgroundImageFix" result="effect1_dropShadow"/>
<feBlend mode="normal" in="SourceGraphic" in2="effect1_dropShadow" result="shape"/>
</filter>
<filter id="filter1_d" x="160.134" y="232.5" width="180" height="77" filterUnits="userSpaceOnUse" color-interpolation-filters="sRGB">
<feFlood flood-opacity="0" result="BackgroundImageFix"/>
<feColorMatrix in="SourceAlpha" type="matrix" values="0 0 0 0 0 0 0 0 0 0 0 0 0 0 0 0 0 0 127 0"/>
<feOffset dy="2"/>
<feGaussianBlur stdDeviation="6"/>
<feColorMatrix type="matrix" values="0 0 0 0 0 0 0 0 0 0 0 0 0 0 0 0 0 0 0.6 0"/>
<feBlend mode="normal" in2="BackgroundImageFix" result="effect1_dropShadow"/>
<feBlend mode="normal" in="SourceGraphic" in2="effect1_dropShadow" result="shape"/>
</filter>
<filter id="filter2_d" x="207.834" y="286.7" width="22.6" height="35.1" filterUnits="userSpaceOnUse" color-interpolation-filters="sRGB">
<feFlood flood-opacity="0" result="BackgroundImageFix"/>
<feColorMatrix in="SourceAlpha" type="matrix" values="0 0 0 0 0 0 0 0 0 0 0 0 0 0 0 0 0 0 127 0"/>
<feOffset dy="1"/>
<feGaussianBlur stdDeviation="0.9"/>
<feColorMatrix type="matrix" values="0 0 0 0 0 0 0 0 0 0 0 0 0 0 0 0 0 0 0.65 0"/>
<feBlend mode="normal" in2="BackgroundImageFix" result="effect1_dropShadow"/>
<feBlend mode="normal" in="SourceGraphic" in2="effect1_dropShadow" result="shape"/>
</filter>
<clipPath id="clip0">
<rect width="198" height="318" fill="white" transform="translate(212 24)"/>
</clipPath>
</defs>
</svg>
