<svg width="502" height="329" viewBox="0 0 502 329" fill="none" xmlns="http://www.w3.org/2000/svg">
<rect width="502" height="39" fill="#303031"/>
<g clip-path="url(#clip0)">
<rect width="119.931" height="39.2998" fill="#1E1E1E"/>
<path d="M23.2342 17.0299H21.0942V23.3899H19.5342V17.0299H17.4142V15.8899H23.1542V17.0299H23.2342ZM28.0342 21.4699C28.0342 21.3232 28.0075 21.1966 27.9542 21.0899C27.9008 20.9832 27.8275 20.8766 27.7342 20.7699C27.6542 20.7032 27.5342 20.6299 27.3742 20.5499C27.2675 20.5099 27.0808 20.4366 26.8142 20.3299L26.6542 20.2699C25.7875 20.0166 25.1008 19.7032 24.5942 19.3299C24.1408 18.9432 23.9142 18.4632 23.9142 17.8899C23.9142 17.2632 24.1875 16.7632 24.7342 16.3899C25.2275 16.0166 25.8808 15.8299 26.6942 15.8299C27.5208 15.8299 28.2008 16.0632 28.7342 16.5299C29.2275 16.9699 29.4742 17.5099 29.4742 18.1499H28.0342C28.0342 17.9632 28.0008 17.8032 27.9342 17.6699C27.8808 17.5366 27.7875 17.4032 27.6542 17.2699C27.3875 17.0699 27.0542 16.9699 26.6542 16.9699C26.2542 16.9699 25.9475 17.0499 25.7342 17.2099C25.5208 17.3699 25.4142 17.5966 25.4142 17.8899C25.4142 18.1299 25.5408 18.3432 25.7942 18.5299C25.9008 18.6099 26.0608 18.6899 26.2742 18.7699C26.4342 18.8366 26.6875 18.9232 27.0342 19.0299C27.8475 19.2699 28.4675 19.5766 28.8942 19.9499C29.3208 20.3099 29.5342 20.8166 29.5342 21.4699C29.5342 21.7899 29.4675 22.0832 29.3342 22.3499C29.2142 22.6032 29.0342 22.8099 28.7942 22.9699C28.2875 23.3432 27.6208 23.5299 26.7942 23.5299C25.9142 23.5299 25.2008 23.3166 24.6542 22.8899C24.0275 22.3966 23.7408 21.7966 23.7942 21.0899H25.2942C25.2942 21.5166 25.4408 21.8499 25.7342 22.0899C25.8542 22.1832 26.0142 22.2566 26.2142 22.3099C26.4142 22.3632 26.6275 22.3899 26.8542 22.3899C27.3075 22.3899 27.6208 22.3099 27.7942 22.1499C27.9542 21.8966 28.0342 21.6699 28.0342 21.4699Z" fill="#519ABA"/>
<path d="M45.0432 24.6499H46.554L43.2468 15.4902H41.717L38.4099 24.6499H39.8699L40.7141 22.1743H44.2053L45.0432 24.6499ZM42.4089 17.1089H42.5168L43.8435 21.0317H41.0759L42.4089 17.1089ZM51.5813 17.6357C50.6418 17.6357 49.8293 18.1118 49.4104 18.8989H49.3088V17.7563H47.9949V26.9478H49.3596V23.6089H49.4675C49.8293 24.3389 50.6101 24.7642 51.594 24.7642C53.3396 24.7642 54.4504 23.3804 54.4504 21.2031C54.4504 19.0132 53.3396 17.6357 51.5813 17.6357ZM51.1941 23.5962C50.0515 23.5962 49.3342 22.6758 49.3342 21.2031C49.3342 19.7241 50.0515 18.8037 51.2004 18.8037C52.3557 18.8037 53.0476 19.7051 53.0476 21.2031C53.0476 22.7012 52.3557 23.5962 51.1941 23.5962ZM59.6809 17.6357C58.7415 17.6357 57.929 18.1118 57.51 18.8989H57.4084V17.7563H56.0945V26.9478H57.4592V23.6089H57.5671C57.929 24.3389 58.7097 24.7642 59.6936 24.7642C61.4392 24.7642 62.55 23.3804 62.55 21.2031C62.55 19.0132 61.4392 17.6357 59.6809 17.6357ZM59.2937 23.5962C58.1511 23.5962 57.4338 22.6758 57.4338 21.2031C57.4338 19.7241 58.1511 18.8037 59.3 18.8037C60.4553 18.8037 61.1472 19.7051 61.1472 21.2031C61.1472 22.7012 60.4553 23.5962 59.2937 23.5962ZM65.1018 24.7451C65.6414 24.7451 66.0349 24.3452 66.0349 23.8311C66.0349 23.3169 65.6414 22.917 65.1018 22.917C64.5686 22.917 64.1687 23.3169 64.1687 23.8311C64.1687 24.3452 64.5686 24.7451 65.1018 24.7451ZM68.4089 16.0171V17.7754H67.3108V18.8672H68.4089V22.8345C68.4089 24.1611 69.012 24.6943 70.5291 24.6943C70.7957 24.6943 71.0496 24.6626 71.2717 24.6245V23.5391C71.0813 23.5581 70.9607 23.5708 70.7512 23.5708C70.072 23.5708 69.7737 23.2471 69.7737 22.5044V18.8672H71.2717V17.7754H69.7737V16.0171H68.4089ZM72.6174 19.686C72.6174 20.708 73.2268 21.292 74.5408 21.5967L75.7468 21.8823C76.4387 22.0474 76.7625 22.3267 76.7625 22.7583C76.7625 23.3232 76.1594 23.7168 75.3088 23.7168C74.4836 23.7168 73.9758 23.3804 73.8044 22.8408H72.4397C72.5603 24.0405 73.6331 24.7832 75.2771 24.7832C76.9275 24.7832 78.1399 23.9136 78.1399 22.6313C78.1399 21.6284 77.5242 21.0635 76.2102 20.7588L75.0613 20.4922C74.3123 20.3145 73.9631 20.0479 73.9631 19.6226C73.9631 19.064 74.5408 18.6895 75.3025 18.6895C76.0769 18.6895 76.572 19.0259 76.699 19.54H78.0066C77.8733 18.3467 76.8577 17.623 75.3025 17.623C73.741 17.623 72.6174 18.4863 72.6174 19.686ZM82.196 22.1807L83.7068 24.6626H85.2747L82.9705 21.1777L85.2493 17.769H83.7258L82.2532 20.2319H82.1453L80.6599 17.769H79.0667L81.3772 21.2285L79.0857 24.6626H80.5837L82.0945 22.1807H82.196Z" fill="white"/>
<path d="M98.457 20.3539L102.105 24.0019L102.809 23.2979L99.161 19.6499L102.809 16.0019L102.105 15.2979L98.457 18.9459L94.809 15.2979L94.105 16.0019L97.753 19.6499L94.105 23.2979L94.809 24.0019L98.457 20.3539Z" fill="#CCCCCC"/>
</g>
<g clip-path="url(#clip1)">
<g opacity="0.5" clip-path="url(#clip2)">
<rect width="122.931" height="39.2998" transform="translate(252)" fill="#1E1E1E"/>
<path d="M271.914 24.2099L272.414 21.7099H270.854V20.3899H272.734L273.034 18.8299H271.414V17.5299H273.354L273.854 15.0899H275.594L275.094 17.5299H276.854L277.354 15.0899H279.094L278.594 17.5299H280.154V18.8299H278.354L277.974 20.3899H279.594V21.7099H277.734L277.234 24.2099H275.474L275.974 21.7099H274.234L273.734 24.2099H271.914ZM276.234 20.4099L276.534 18.8299H274.794L274.474 20.4099H276.234Z" fill="#519ABA"/>
<path d="M297.043 24.6499H298.554L295.247 15.4902H293.717L290.41 24.6499H291.87L292.714 22.1743H296.205L297.043 24.6499ZM294.409 17.1089H294.517L295.844 21.0317H293.076L294.409 17.1089ZM303.581 17.6357C302.642 17.6357 301.829 18.1118 301.41 18.8989H301.309V17.7563H299.995V26.9478H301.36V23.6089H301.468C301.829 24.3389 302.61 24.7642 303.594 24.7642C305.34 24.7642 306.45 23.3804 306.45 21.2031C306.45 19.0132 305.34 17.6357 303.581 17.6357ZM303.194 23.5962C302.052 23.5962 301.334 22.6758 301.334 21.2031C301.334 19.7241 302.052 18.8037 303.2 18.8037C304.356 18.8037 305.048 19.7051 305.048 21.2031C305.048 22.7012 304.356 23.5962 303.194 23.5962ZM311.681 17.6357C310.741 17.6357 309.929 18.1118 309.51 18.8989H309.408V17.7563H308.094V26.9478H309.459V23.6089H309.567C309.929 24.3389 310.71 24.7642 311.694 24.7642C313.439 24.7642 314.55 23.3804 314.55 21.2031C314.55 19.0132 313.439 17.6357 311.681 17.6357ZM311.294 23.5962C310.151 23.5962 309.434 22.6758 309.434 21.2031C309.434 19.7241 310.151 18.8037 311.3 18.8037C312.455 18.8037 313.147 19.7051 313.147 21.2031C313.147 22.7012 312.455 23.5962 311.294 23.5962ZM317.102 24.7451C317.641 24.7451 318.035 24.3452 318.035 23.8311C318.035 23.3169 317.641 22.917 317.102 22.917C316.569 22.917 316.169 23.3169 316.169 23.8311C316.169 24.3452 316.569 24.7451 317.102 24.7451ZM325.741 19.9717C325.563 18.6323 324.516 17.623 322.783 17.623C320.771 17.623 319.546 18.9878 319.546 21.1777C319.546 23.4121 320.777 24.7832 322.789 24.7832C324.497 24.7832 325.563 23.8247 325.741 22.4663H324.414C324.237 23.2153 323.646 23.6216 322.783 23.6216C321.647 23.6216 320.942 22.7012 320.942 21.1777C320.942 19.686 321.64 18.7847 322.783 18.7847C323.697 18.7847 324.256 19.2988 324.414 19.9717H325.741ZM327.144 19.686C327.144 20.708 327.753 21.292 329.067 21.5967L330.273 21.8823C330.965 22.0474 331.289 22.3267 331.289 22.7583C331.289 23.3232 330.686 23.7168 329.835 23.7168C329.01 23.7168 328.502 23.3804 328.331 22.8408H326.966C327.087 24.0405 328.159 24.7832 329.803 24.7832C331.454 24.7832 332.666 23.9136 332.666 22.6313C332.666 21.6284 332.051 21.0635 330.737 20.7588L329.588 20.4922C328.839 20.3145 328.49 20.0479 328.49 19.6226C328.49 19.064 329.067 18.6895 329.829 18.6895C330.603 18.6895 331.098 19.0259 331.225 19.54H332.533C332.4 18.3467 331.384 17.623 329.829 17.623C328.267 17.623 327.144 18.4863 327.144 19.686ZM334.025 19.686C334.025 20.708 334.634 21.292 335.948 21.5967L337.154 21.8823C337.846 22.0474 338.17 22.3267 338.17 22.7583C338.17 23.3232 337.567 23.7168 336.716 23.7168C335.891 23.7168 335.383 23.3804 335.212 22.8408H333.847C333.968 24.0405 335.04 24.7832 336.684 24.7832C338.335 24.7832 339.547 23.9136 339.547 22.6313C339.547 21.6284 338.931 21.0635 337.617 20.7588L336.469 20.4922C335.719 20.3145 335.37 20.0479 335.37 19.6226C335.37 19.064 335.948 18.6895 336.71 18.6895C337.484 18.6895 337.979 19.0259 338.106 19.54H339.414C339.281 18.3467 338.265 17.623 336.71 17.623C335.148 17.623 334.025 18.4863 334.025 19.686Z" fill="white"/>
<path d="M353.457 20.3539L357.105 24.0019L357.809 23.2979L354.161 19.6499L357.809 16.0019L357.105 15.2979L353.457 18.9459L349.809 15.2979L349.105 16.0019L352.753 19.6499L349.105 23.2979L349.809 24.0019L353.457 20.3539Z" fill="#CCCCCC"/>
</g>
</g>
<path d="M0 39H502V326C502 327.105 501.105 328 500 328H2.00002C0.895446 328 0 327.105 0 326V39Z" fill="#252526"/>
<rect x="24" y="63" width="75" height="8" rx="4" fill="#B180D7"/>
<rect x="276" y="63" width="34" height="8" rx="4" fill="#B180D7"/>
<rect x="24" y="82" width="75" height="8" rx="4" fill="#B180D7"/>
<rect x="276" y="282" width="98" height="8" rx="4" fill="#007ACC"/>
<rect x="342" y="196" width="98" height="8" rx="4" fill="#B180D7"/>
<rect x="276" y="215" width="64" height="8" rx="4" fill="#B180D7"/>
<rect x="276" y="234" width="41" height="8" rx="4" fill="#B180D7"/>
<rect x="346" y="215" width="64" height="8" rx="4" fill="#F14C4C"/>
<rect x="323" y="234" width="87" height="8" rx="4" fill="#F14C4C"/>
<rect x="380" y="282" width="60" height="8" rx="4" fill="#D7BA7D"/>
<rect x="276" y="196" width="60" height="8" rx="4" fill="#D7BA7D"/>
<rect x="24" y="275" width="98.1333" height="8" rx="4" fill="#B180D7"/>
<rect x="129.311" y="275" width="35.437" height="8" rx="4" fill="#D7BA7D"/>
<rect x="105" y="63" width="71" height="8" rx="4" fill="#8ADDFF"/>
<rect x="316" y="63" width="107" height="8" rx="4" fill="#8ADDFF"/>
<rect x="105" y="82" width="101" height="8" rx="4" fill="#8ADDFF"/>
<path d="M30.5625 130.18V130.707H25.8926V130.742C25.8613 131.637 26.0312 132.279 26.4023 132.67C26.7773 133.061 27.3047 133.256 27.9844 133.256C28.3281 133.256 28.6875 133.201 29.0625 133.092C29.4375 132.982 29.8379 132.816 30.2637 132.594V133.666C29.8535 133.834 29.457 133.959 29.0742 134.041C28.6953 134.127 28.3281 134.17 27.9727 134.17C26.9531 134.17 26.1562 133.865 25.582 133.256C25.0078 132.643 24.7207 131.799 24.7207 130.725C24.7207 129.678 25.002 128.842 25.5645 128.217C26.127 127.592 26.877 127.279 27.8145 127.279C28.6504 127.279 29.3086 127.562 29.7891 128.129C30.2734 128.695 30.5312 129.379 30.5625 130.18ZM29.4844 129.863C29.4375 129.41 29.2715 129.02 28.9863 128.691C28.7051 128.359 28.2988 128.193 27.7676 128.193C27.248 128.193 26.8203 128.365 26.4844 128.709C26.1484 129.053 25.9648 129.439 25.9336 129.869L29.4844 129.863ZM37.7812 127.438L35.4316 130.578L38.0098 134H36.7617L34.8398 131.369L32.9238 134H31.6758L34.2539 130.578L31.9043 127.438H33.0996L34.8398 129.811L36.5684 127.438H37.7812ZM40.6582 133.174V136.496H39.5742V127.438H40.6582V128.275C40.8379 127.951 41.0762 127.705 41.373 127.537C41.6738 127.365 42.0195 127.279 42.4102 127.279C43.2031 127.279 43.8242 127.586 44.2734 128.199C44.7266 128.812 44.9531 129.662 44.9531 130.748C44.9531 131.814 44.7266 132.652 44.2734 133.262C43.8203 133.867 43.1992 134.17 42.4102 134.17C42.0117 134.17 41.6621 134.086 41.3613 133.918C41.0645 133.746 40.8301 133.498 40.6582 133.174ZM43.8223 130.725C43.8223 129.889 43.6895 129.258 43.4238 128.832C43.1621 128.406 42.7715 128.193 42.252 128.193C41.7285 128.193 41.332 128.408 41.0625 128.838C40.793 129.264 40.6582 129.893 40.6582 130.725C40.6582 131.553 40.793 132.182 41.0625 132.611C41.332 133.041 41.7285 133.256 42.252 133.256C42.7715 133.256 43.1621 133.043 43.4238 132.617C43.6895 132.191 43.8223 131.561 43.8223 130.725ZM49.3008 128.193C48.7539 128.193 48.3398 128.406 48.0586 128.832C47.7773 129.258 47.6367 129.889 47.6367 130.725C47.6367 131.557 47.7773 132.188 48.0586 132.617C48.3398 133.043 48.7539 133.256 49.3008 133.256C49.8516 133.256 50.2676 133.043 50.5488 132.617C50.8301 132.188 50.9707 131.557 50.9707 130.725C50.9707 129.889 50.8301 129.258 50.5488 128.832C50.2676 128.406 49.8516 128.193 49.3008 128.193ZM49.3008 127.279C50.2109 127.279 50.9062 127.574 51.3867 128.164C51.8711 128.754 52.1133 129.607 52.1133 130.725C52.1133 131.846 51.873 132.701 51.3926 133.291C50.9121 133.877 50.2148 134.17 49.3008 134.17C48.3906 134.17 47.6953 133.877 47.2148 133.291C46.7344 132.701 46.4941 131.846 46.4941 130.725C46.4941 129.607 46.7344 128.754 47.2148 128.164C47.6953 127.574 48.3906 127.279 49.3008 127.279ZM59.6895 128.791C59.459 128.611 59.2246 128.48 58.9863 128.398C58.748 128.316 58.4863 128.275 58.2012 128.275C57.5293 128.275 57.0156 128.486 56.6602 128.908C56.3047 129.33 56.127 129.939 56.127 130.736V134H55.043V127.438H56.127V128.721C56.3066 128.256 56.582 127.9 56.9531 127.654C57.3281 127.404 57.7715 127.279 58.2832 127.279C58.5488 127.279 58.7969 127.312 59.0273 127.379C59.2578 127.445 59.4785 127.549 59.6895 127.689V128.791ZM63.75 125.574V127.438H66.1992V128.275H63.75V131.838C63.75 132.322 63.8418 132.66 64.0254 132.852C64.209 133.043 64.5293 133.139 64.9863 133.139H66.1992V134H64.8809C64.0723 134 63.502 133.838 63.1699 133.514C62.8379 133.189 62.6719 132.631 62.6719 131.838V128.275H60.9199V127.438H62.6719V125.574H63.75ZM45.2285 146.791C44.998 146.611 44.7637 146.48 44.5254 146.398C44.2871 146.316 44.0254 146.275 43.7402 146.275C43.0684 146.275 42.5547 146.486 42.1992 146.908C41.8438 147.33 41.666 147.939 41.666 148.736V152H40.582V145.438H41.666V146.721C41.8457 146.256 42.1211 145.9 42.4922 145.654C42.8672 145.404 43.3105 145.279 43.8223 145.279C44.0879 145.279 44.3359 145.312 44.5664 145.379C44.7969 145.445 45.0176 145.549 45.2285 145.689V146.791ZM52.2539 148.18V148.707H47.584V148.742C47.5527 149.637 47.7227 150.279 48.0938 150.67C48.4688 151.061 48.9961 151.256 49.6758 151.256C50.0195 151.256 50.3789 151.201 50.7539 151.092C51.1289 150.982 51.5293 150.816 51.9551 150.594V151.666C51.5449 151.834 51.1484 151.959 50.7656 152.041C50.3867 152.127 50.0195 152.17 49.6641 152.17C48.6445 152.17 47.8477 151.865 47.2734 151.256C46.6992 150.643 46.4121 149.799 46.4121 148.725C46.4121 147.678 46.6934 146.842 47.2559 146.217C47.8184 145.592 48.5684 145.279 49.5059 145.279C50.3418 145.279 51 145.562 51.4805 146.129C51.9648 146.695 52.2227 147.379 52.2539 148.18ZM51.1758 147.863C51.1289 147.41 50.9629 147.02 50.6777 146.691C50.3965 146.359 49.9902 146.193 49.459 146.193C48.9395 146.193 48.5117 146.365 48.1758 146.709C47.8398 147.053 47.6562 147.439 47.625 147.869L51.1758 147.863ZM56.5195 143.574V145.438H58.9688V146.275H56.5195V149.838C56.5195 150.322 56.6113 150.66 56.7949 150.852C56.9785 151.043 57.2988 151.139 57.7559 151.139H58.9688V152H57.6504C56.8418 152 56.2715 151.838 55.9395 151.514C55.6074 151.189 55.4414 150.631 55.4414 149.838V146.275H53.6895V145.438H55.4414V143.574H56.5195ZM61.2949 149.516V145.449H62.373V149.516C62.373 150.105 62.4766 150.539 62.6836 150.816C62.8945 151.094 63.2188 151.232 63.6562 151.232C64.1641 151.232 64.5527 151.055 64.8223 150.699C65.0918 150.34 65.2266 149.826 65.2266 149.158V145.449H66.3105V152H65.2266V151.016C65.0352 151.395 64.7734 151.682 64.4414 151.877C64.1133 152.072 63.7285 152.17 63.2871 152.17C62.6152 152.17 62.1152 151.951 61.7871 151.514C61.459 151.072 61.2949 150.406 61.2949 149.516ZM74.1504 146.791C73.9199 146.611 73.6855 146.48 73.4473 146.398C73.209 146.316 72.9473 146.275 72.6621 146.275C71.9902 146.275 71.4766 146.486 71.1211 146.908C70.7656 147.33 70.5879 147.939 70.5879 148.736V152H69.5039V145.438H70.5879V146.721C70.7676 146.256 71.043 145.9 71.4141 145.654C71.7891 145.404 72.2324 145.279 72.7441 145.279C73.0098 145.279 73.2578 145.312 73.4883 145.379C73.7188 145.445 73.9395 145.549 74.1504 145.689V146.791ZM80.7715 147.934V152H79.6875V147.934C79.6875 147.344 79.584 146.91 79.377 146.633C79.1699 146.355 78.8457 146.217 78.4043 146.217C77.9004 146.217 77.5117 146.396 77.2383 146.756C76.9688 147.111 76.834 147.623 76.834 148.291V152H75.7559V145.438H76.834V146.422C77.0254 146.047 77.2852 145.764 77.6133 145.572C77.9414 145.377 78.3301 145.279 78.7793 145.279C79.4473 145.279 79.9453 145.5 80.2734 145.941C80.6055 146.379 80.7715 147.043 80.7715 147.934Z" fill="#C586C0"/>
<path d="M147.434 131.07H153.627V132.061H147.434V131.07ZM147.434 128.311H153.627V129.301H147.434V128.311ZM166.389 124.309C165.869 125.199 165.48 126.088 165.223 126.975C164.969 127.857 164.842 128.748 164.842 129.646C164.842 130.541 164.969 131.432 165.223 132.318C165.48 133.205 165.869 134.098 166.389 134.996H165.451C164.861 134.066 164.422 133.162 164.133 132.283C163.844 131.4 163.699 130.521 163.699 129.646C163.699 128.775 163.844 127.898 164.133 127.016C164.422 126.133 164.861 125.23 165.451 124.309H166.389ZM170.648 124.309H171.586C172.176 125.23 172.615 126.133 172.904 127.016C173.193 127.898 173.338 128.775 173.338 129.646C173.338 130.525 173.193 131.406 172.904 132.289C172.615 133.172 172.176 134.074 171.586 134.996H170.648C171.168 134.09 171.555 133.193 171.809 132.307C172.066 131.42 172.195 130.533 172.195 129.646C172.195 128.756 172.066 127.867 171.809 126.98C171.555 126.094 171.168 125.203 170.648 124.309ZM210.809 134.299V135.143H210.434C209.461 135.143 208.809 134.998 208.477 134.709C208.148 134.42 207.984 133.844 207.984 132.98V131.809C207.984 131.383 207.863 131.016 207.621 130.707C207.383 130.398 207.012 130.244 206.508 130.244H205.793V129.406H206.508C207.059 129.406 207.441 129.275 207.656 129.014C207.875 128.752 207.984 128.367 207.984 127.859V126.336C207.984 125.473 208.148 124.898 208.477 124.613C208.809 124.324 209.461 124.18 210.434 124.18H210.809V125.018H210.398C209.852 125.018 209.494 125.104 209.326 125.275C209.162 125.443 209.08 125.805 209.08 126.359V127.93C209.08 128.617 208.945 129.08 208.676 129.318C208.406 129.553 207.881 129.723 207.1 129.828C207.857 129.918 208.377 130.092 208.658 130.35C208.939 130.604 209.08 131.064 209.08 131.732V132.957C209.08 133.516 209.162 133.879 209.326 134.047C209.494 134.215 209.852 134.299 210.398 134.299H210.809ZM94.084 142.309C93.5645 143.199 93.1758 144.088 92.918 144.975C92.6641 145.857 92.5371 146.748 92.5371 147.646C92.5371 148.541 92.6641 149.432 92.918 150.318C93.1758 151.205 93.5645 152.098 94.084 152.996H93.1465C92.5566 152.066 92.1172 151.162 91.8281 150.283C91.5391 149.4 91.3945 148.521 91.3945 147.646C91.3945 146.775 91.5391 145.898 91.8281 145.016C92.1172 144.133 92.5566 143.23 93.1465 142.309H94.084ZM59.6309 164.369L54.6504 166.244L59.6309 168.102V169.174L53.4375 166.725V165.752L59.6309 163.303V164.369ZM82.3594 164.369V163.303L88.5527 165.752V166.725L82.3594 169.174V168.102L87.3398 166.244L82.3594 164.369ZM74.0918 182.369L69.1113 184.244L74.0918 186.102V187.174L67.8984 184.725V183.752L74.0918 181.303V182.369ZM89.5898 182.369V181.303L95.7832 183.752V184.725L89.5898 187.174V186.102L94.5703 184.244L89.5898 182.369ZM146.396 182.369L141.416 184.244L146.396 186.102V187.174L140.203 184.725V183.752L146.396 181.303V182.369ZM152.127 179.252H153.24L148.635 189.113H147.516L152.127 179.252ZM169.125 182.369V181.303L175.318 183.752V184.725L169.125 187.174V186.102L174.105 184.244L169.125 182.369ZM59.6309 200.369L54.6504 202.244L59.6309 204.102V205.174L53.4375 202.725V201.752L59.6309 199.303V200.369ZM65.3613 197.252H66.4746L61.8691 207.113H60.75L65.3613 197.252ZM89.5898 200.369V199.303L95.7832 201.752V202.725L89.5898 205.174V204.102L94.5703 202.244L89.5898 200.369ZM40.5 214.309H41.4375C42.0273 215.23 42.4668 216.133 42.7559 217.016C43.0449 217.898 43.1895 218.775 43.1895 219.646C43.1895 220.525 43.0449 221.406 42.7559 222.289C42.4668 223.172 42.0273 224.074 41.4375 224.996H40.5C41.0195 224.09 41.4062 223.193 41.6602 222.307C41.918 221.42 42.0469 220.533 42.0469 219.646C42.0469 218.756 41.918 217.867 41.6602 216.98C41.4062 216.094 41.0195 215.203 40.5 214.309ZM48.2812 221.885H50.1094V223.438L48.9551 225.676H47.7012L48.2812 223.438V221.885ZM48.2051 217.443H50.0332V219.559H48.2051V217.443ZM25.6934 242.299C26.2402 242.299 26.5957 242.215 26.7598 242.047C26.9277 241.879 27.0117 241.516 27.0117 240.957V239.732C27.0117 239.064 27.1523 238.604 27.4336 238.35C27.7148 238.092 28.2344 237.918 28.9922 237.828C28.2109 237.723 27.6855 237.553 27.416 237.318C27.1465 237.08 27.0117 236.617 27.0117 235.93V234.359C27.0117 233.805 26.9277 233.443 26.7598 233.275C26.5957 233.104 26.2402 233.018 25.6934 233.018H25.2832V232.18H25.6582C26.6309 232.18 27.2812 232.324 27.6094 232.613C27.9414 232.898 28.1074 233.473 28.1074 234.336V235.859C28.1074 236.367 28.2148 236.752 28.4297 237.014C28.6484 237.275 29.0332 237.406 29.584 237.406H30.2988V238.244H29.584C29.0801 238.244 28.707 238.398 28.4648 238.707C28.2266 239.016 28.1074 239.383 28.1074 239.809V240.98C28.1074 241.844 27.9414 242.42 27.6094 242.709C27.2812 242.998 26.6309 243.143 25.6582 243.143H25.2832V242.299H25.6934Z" fill="#D4D4D4"/>
<path d="M80.8301 133.666C80.541 133.834 80.2422 133.959 79.9336 134.041C79.6289 134.127 79.3164 134.17 78.9961 134.17C77.9805 134.17 77.1855 133.865 76.6113 133.256C76.041 132.646 75.7559 131.803 75.7559 130.725C75.7559 129.646 76.041 128.803 76.6113 128.193C77.1855 127.584 77.9805 127.279 78.9961 127.279C79.3125 127.279 79.6211 127.32 79.9219 127.402C80.2227 127.484 80.5254 127.611 80.8301 127.783V128.914C80.5449 128.66 80.2578 128.477 79.9688 128.363C79.6836 128.25 79.3594 128.193 78.9961 128.193C78.3203 128.193 77.8008 128.412 77.4375 128.85C77.0742 129.287 76.8926 129.912 76.8926 130.725C76.8926 131.533 77.0742 132.158 77.4375 132.6C77.8047 133.037 78.3242 133.256 78.9961 133.256C79.3711 133.256 79.707 133.199 80.0039 133.086C80.3008 132.969 80.5762 132.789 80.8301 132.547V133.666ZM85.4531 128.193C84.9062 128.193 84.4922 128.406 84.2109 128.832C83.9297 129.258 83.7891 129.889 83.7891 130.725C83.7891 131.557 83.9297 132.188 84.2109 132.617C84.4922 133.043 84.9062 133.256 85.4531 133.256C86.0039 133.256 86.4199 133.043 86.7012 132.617C86.9824 132.188 87.123 131.557 87.123 130.725C87.123 129.889 86.9824 129.258 86.7012 128.832C86.4199 128.406 86.0039 128.193 85.4531 128.193ZM85.4531 127.279C86.3633 127.279 87.0586 127.574 87.5391 128.164C88.0234 128.754 88.2656 129.607 88.2656 130.725C88.2656 131.846 88.0254 132.701 87.5449 133.291C87.0645 133.877 86.3672 134.17 85.4531 134.17C84.543 134.17 83.8477 133.877 83.3672 133.291C82.8867 132.701 82.6465 131.846 82.6465 130.725C82.6465 129.607 82.8867 128.754 83.3672 128.164C83.8477 127.574 84.543 127.279 85.4531 127.279ZM95.2324 129.934V134H94.1484V129.934C94.1484 129.344 94.0449 128.91 93.8379 128.633C93.6309 128.355 93.3066 128.217 92.8652 128.217C92.3613 128.217 91.9727 128.396 91.6992 128.756C91.4297 129.111 91.2949 129.623 91.2949 130.291V134H90.2168V127.438H91.2949V128.422C91.4863 128.047 91.7461 127.764 92.0742 127.572C92.4023 127.377 92.791 127.279 93.2402 127.279C93.9082 127.279 94.4062 127.5 94.7344 127.941C95.0664 128.379 95.2324 129.043 95.2324 129.934ZM102.006 127.666V128.721C101.697 128.541 101.387 128.406 101.074 128.316C100.762 128.227 100.443 128.182 100.119 128.182C99.6309 128.182 99.2656 128.262 99.0234 128.422C98.7852 128.578 98.666 128.818 98.666 129.143C98.666 129.436 98.7559 129.654 98.9355 129.799C99.1152 129.943 99.5625 130.084 100.277 130.221L100.711 130.303C101.246 130.404 101.65 130.607 101.924 130.912C102.201 131.217 102.34 131.613 102.34 132.102C102.34 132.75 102.109 133.258 101.648 133.625C101.188 133.988 100.547 134.17 99.7266 134.17C99.4023 134.17 99.0625 134.135 98.707 134.064C98.3516 133.998 97.9668 133.896 97.5527 133.76V132.646C97.9551 132.854 98.3398 133.01 98.707 133.115C99.0742 133.217 99.4219 133.268 99.75 133.268C100.227 133.268 100.596 133.172 100.857 132.98C101.119 132.785 101.25 132.514 101.25 132.166C101.25 131.666 100.771 131.32 99.8145 131.129L99.7676 131.117L99.3633 131.035C98.7422 130.914 98.2891 130.711 98.0039 130.426C97.7188 130.137 97.5762 129.744 97.5762 129.248C97.5762 128.619 97.7891 128.135 98.2148 127.795C98.6406 127.451 99.248 127.279 100.037 127.279C100.389 127.279 100.727 127.312 101.051 127.379C101.375 127.441 101.693 127.537 102.006 127.666ZM107.133 125.574V127.438H109.582V128.275H107.133V131.838C107.133 132.322 107.225 132.66 107.408 132.852C107.592 133.043 107.912 133.139 108.369 133.139H109.582V134H108.264C107.455 134 106.885 133.838 106.553 133.514C106.221 133.189 106.055 132.631 106.055 131.838V128.275H104.303V127.438H106.055V125.574H107.133ZM183.586 131.07H189.779V132.061H183.586V131.07ZM183.586 128.311H189.779V129.301H183.586V128.311ZM190.816 128.369V127.303L197.01 129.752V130.725L190.816 133.174V132.102L195.797 130.244L190.816 128.369ZM65.1797 164.275V160.883H66.2578V170H65.1797V169.174C65 169.498 64.7598 169.746 64.459 169.918C64.1621 170.086 63.8184 170.17 63.4277 170.17C62.6348 170.17 62.0098 169.863 61.5527 169.25C61.0996 168.633 60.873 167.783 60.873 166.701C60.873 165.635 61.1016 164.799 61.5586 164.193C62.0156 163.584 62.6387 163.279 63.4277 163.279C63.8223 163.279 64.1699 163.365 64.4707 163.537C64.7715 163.705 65.0078 163.951 65.1797 164.275ZM62.0098 166.725C62.0098 167.561 62.1426 168.191 62.4082 168.617C62.6738 169.043 63.0664 169.256 63.5859 169.256C64.1055 169.256 64.5 169.041 64.7695 168.611C65.043 168.182 65.1797 167.553 65.1797 166.725C65.1797 165.893 65.043 165.264 64.7695 164.838C64.5 164.408 64.1055 164.193 63.5859 164.193C63.0664 164.193 62.6738 164.406 62.4082 164.832C62.1426 165.258 62.0098 165.889 62.0098 166.725ZM69.2344 163.461H71.9941V169.162H74.1328V170H68.7773V169.162H70.916V164.299H69.2344V163.461ZM70.916 160.912H71.9941V162.271H70.916V160.912ZM75.1992 163.438H76.3184L78.2227 168.945L80.1328 163.438H81.252L78.9199 170H77.5312L75.1992 163.438ZM80.7715 183.934V188H79.6875V183.934C79.6875 183.344 79.584 182.91 79.377 182.633C79.1699 182.355 78.8457 182.217 78.4043 182.217C77.9004 182.217 77.5117 182.396 77.2383 182.756C76.9688 183.111 76.834 183.623 76.834 184.291V188H75.7559V178.883H76.834V182.422C77.0254 182.047 77.2852 181.764 77.6133 181.572C77.9414 181.377 78.3301 181.279 78.7793 181.279C79.4473 181.279 79.9453 181.5 80.2734 181.941C80.6055 182.379 80.7715 183.043 80.7715 183.934ZM83.4258 187.01H85.2656V180.4L83.0625 181.461V180.324L85.2539 179.281H86.4375V187.01H88.2539V188H83.4258V187.01ZM160.307 183.934V188H159.223V183.934C159.223 183.344 159.119 182.91 158.912 182.633C158.705 182.355 158.381 182.217 157.939 182.217C157.436 182.217 157.047 182.396 156.773 182.756C156.504 183.111 156.369 183.623 156.369 184.291V188H155.291V178.883H156.369V182.422C156.561 182.047 156.82 181.764 157.148 181.572C157.477 181.377 157.865 181.279 158.314 181.279C158.982 181.279 159.48 181.5 159.809 181.941C160.141 182.379 160.307 183.043 160.307 183.934ZM162.961 187.01H164.801V180.4L162.598 181.461V180.324L164.789 179.281H165.973V187.01H167.789V188H162.961V187.01ZM72.4102 200.275V196.883H73.4883V206H72.4102V205.174C72.2305 205.498 71.9902 205.746 71.6895 205.918C71.3926 206.086 71.0488 206.17 70.6582 206.17C69.8652 206.17 69.2402 205.863 68.7832 205.25C68.3301 204.633 68.1035 203.783 68.1035 202.701C68.1035 201.635 68.332 200.799 68.7891 200.193C69.2461 199.584 69.8691 199.279 70.6582 199.279C71.0527 199.279 71.4004 199.365 71.7012 199.537C72.002 199.705 72.2383 199.951 72.4102 200.275ZM69.2402 202.725C69.2402 203.561 69.373 204.191 69.6387 204.617C69.9043 205.043 70.2969 205.256 70.8164 205.256C71.3359 205.256 71.7305 205.041 72 204.611C72.2734 204.182 72.4102 203.553 72.4102 202.725C72.4102 201.893 72.2734 201.264 72 200.838C71.7305 200.408 71.3359 200.193 70.8164 200.193C70.2969 200.193 69.9043 200.406 69.6387 200.832C69.373 201.258 69.2402 201.889 69.2402 202.725ZM76.4648 199.461H79.2246V205.162H81.3633V206H76.0078V205.162H78.1465V200.299H76.4648V199.461ZM78.1465 196.912H79.2246V198.271H78.1465V196.912ZM82.4297 199.438H83.5488L85.4531 204.945L87.3633 199.438H88.4824L86.1504 206H84.7617L82.4297 199.438Z" fill="#569CD6"/>
<path d="M121.605 126.295L120.357 130.771H122.854L121.605 126.295ZM120.891 125.252H122.326L125.004 134H123.779L123.135 131.721H120.07L119.438 134H118.213L120.891 125.252ZM127.424 133.174V136.496H126.34V127.438H127.424V128.275C127.604 127.951 127.842 127.705 128.139 127.537C128.439 127.365 128.785 127.279 129.176 127.279C129.969 127.279 130.59 127.586 131.039 128.199C131.492 128.812 131.719 129.662 131.719 130.748C131.719 131.814 131.492 132.652 131.039 133.262C130.586 133.867 129.965 134.17 129.176 134.17C128.777 134.17 128.428 134.086 128.127 133.918C127.83 133.746 127.596 133.498 127.424 133.174ZM130.588 130.725C130.588 129.889 130.455 129.258 130.189 128.832C129.928 128.406 129.537 128.193 129.018 128.193C128.494 128.193 128.098 128.408 127.828 128.838C127.559 129.264 127.424 129.893 127.424 130.725C127.424 131.553 127.559 132.182 127.828 132.611C128.098 133.041 128.494 133.256 129.018 133.256C129.537 133.256 129.928 133.043 130.189 132.617C130.455 132.191 130.588 131.561 130.588 130.725ZM134.654 133.174V136.496H133.57V127.438H134.654V128.275C134.834 127.951 135.072 127.705 135.369 127.537C135.67 127.365 136.016 127.279 136.406 127.279C137.199 127.279 137.82 127.586 138.27 128.199C138.723 128.812 138.949 129.662 138.949 130.748C138.949 131.814 138.723 132.652 138.27 133.262C137.816 133.867 137.195 134.17 136.406 134.17C136.008 134.17 135.658 134.086 135.357 133.918C135.061 133.746 134.826 133.498 134.654 133.174ZM137.818 130.725C137.818 129.889 137.686 129.258 137.42 128.832C137.158 128.406 136.768 128.193 136.248 128.193C135.725 128.193 135.328 128.408 135.059 128.838C134.789 129.264 134.654 129.893 134.654 130.725C134.654 131.553 134.789 132.182 135.059 132.611C135.328 133.041 135.725 133.256 136.248 133.256C136.768 133.256 137.158 133.043 137.42 132.617C137.686 132.191 137.818 131.561 137.818 130.725Z" fill="#DCDCAA"/>
<path d="M96.5156 179.281H98.0977L99.6094 183.723L101.133 179.281H102.721V188H101.625V180.295L100.066 184.889H99.1699L97.6055 180.295V188H96.5156V179.281ZM108.562 185.891C108.383 186.348 108.154 186.949 107.877 187.695C107.49 188.727 107.23 189.355 107.098 189.582C106.918 189.887 106.693 190.115 106.424 190.268C106.154 190.42 105.84 190.496 105.48 190.496H104.613V189.594H105.252C105.568 189.594 105.816 189.502 105.996 189.318C106.176 189.135 106.404 188.66 106.682 187.895L104.145 181.438H105.287L107.232 186.57L109.148 181.438H110.291L108.562 185.891ZM122.109 184.701H121.752C121.123 184.701 120.648 184.812 120.328 185.035C120.012 185.254 119.854 185.582 119.854 186.02C119.854 186.414 119.973 186.721 120.211 186.939C120.449 187.158 120.779 187.268 121.201 187.268C121.795 187.268 122.262 187.062 122.602 186.652C122.941 186.238 123.113 185.668 123.117 184.941V184.701H122.109ZM124.201 184.256V188H123.117V187.027C122.887 187.418 122.596 187.707 122.244 187.895C121.896 188.078 121.473 188.17 120.973 188.17C120.305 188.17 119.771 187.982 119.373 187.607C118.975 187.229 118.775 186.723 118.775 186.09C118.775 185.359 119.02 184.805 119.508 184.426C120 184.047 120.721 183.857 121.67 183.857H123.117V183.688C123.113 183.164 122.98 182.785 122.719 182.551C122.457 182.312 122.039 182.193 121.465 182.193C121.098 182.193 120.727 182.246 120.352 182.352C119.977 182.457 119.611 182.611 119.256 182.814V181.736C119.654 181.584 120.035 181.471 120.398 181.396C120.766 181.318 121.121 181.279 121.465 181.279C122.008 181.279 122.471 181.359 122.854 181.52C123.24 181.68 123.553 181.92 123.791 182.24C123.939 182.436 124.045 182.678 124.107 182.967C124.17 183.252 124.201 183.682 124.201 184.256ZM127.424 187.174V190.496H126.34V181.438H127.424V182.275C127.604 181.951 127.842 181.705 128.139 181.537C128.439 181.365 128.785 181.279 129.176 181.279C129.969 181.279 130.59 181.586 131.039 182.199C131.492 182.812 131.719 183.662 131.719 184.748C131.719 185.814 131.492 186.652 131.039 187.262C130.586 187.867 129.965 188.17 129.176 188.17C128.777 188.17 128.428 188.086 128.127 187.918C127.83 187.746 127.596 187.498 127.424 187.174ZM130.588 184.725C130.588 183.889 130.455 183.258 130.189 182.832C129.928 182.406 129.537 182.193 129.018 182.193C128.494 182.193 128.098 182.408 127.828 182.838C127.559 183.264 127.424 183.893 127.424 184.725C127.424 185.553 127.559 186.182 127.828 186.611C128.098 187.041 128.494 187.256 129.018 187.256C129.537 187.256 129.928 187.043 130.189 186.617C130.455 186.191 130.588 185.561 130.588 184.725ZM134.654 187.174V190.496H133.57V181.438H134.654V182.275C134.834 181.951 135.072 181.705 135.369 181.537C135.67 181.365 136.016 181.279 136.406 181.279C137.199 181.279 137.82 181.586 138.27 182.199C138.723 182.812 138.949 183.662 138.949 184.748C138.949 185.814 138.723 186.652 138.27 187.262C137.816 187.867 137.195 188.17 136.406 188.17C136.008 188.17 135.658 188.086 135.357 187.918C135.061 187.746 134.826 187.498 134.654 187.174ZM137.818 184.725C137.818 183.889 137.686 183.258 137.42 182.832C137.158 182.406 136.768 182.193 136.248 182.193C135.725 182.193 135.328 182.408 135.059 182.838C134.789 183.264 134.654 183.893 134.654 184.725C134.654 185.553 134.789 186.182 135.059 186.611C135.328 187.041 135.725 187.256 136.248 187.256C136.768 187.256 137.158 187.043 137.42 186.617C137.686 186.191 137.818 185.561 137.818 184.725Z" fill="white"/>
<path d="M278.279 115.633H280.342V118H278.279V115.633ZM286.84 110.295L285.592 114.771H288.088L286.84 110.295ZM286.125 109.252H287.561L290.238 118H289.014L288.369 115.721H285.305L284.672 118H283.447L286.125 109.252ZM292.658 117.174V120.496H291.574V111.438H292.658V112.275C292.838 111.951 293.076 111.705 293.373 111.537C293.674 111.365 294.02 111.279 294.41 111.279C295.203 111.279 295.824 111.586 296.273 112.199C296.727 112.812 296.953 113.662 296.953 114.748C296.953 115.814 296.727 116.652 296.273 117.262C295.82 117.867 295.199 118.17 294.41 118.17C294.012 118.17 293.662 118.086 293.361 117.918C293.064 117.746 292.83 117.498 292.658 117.174ZM295.822 114.725C295.822 113.889 295.689 113.258 295.424 112.832C295.162 112.406 294.771 112.193 294.252 112.193C293.729 112.193 293.332 112.408 293.062 112.838C292.793 113.264 292.658 113.893 292.658 114.725C292.658 115.553 292.793 116.182 293.062 116.611C293.332 117.041 293.729 117.256 294.252 117.256C294.771 117.256 295.162 117.043 295.424 116.617C295.689 116.191 295.822 115.561 295.822 114.725ZM299.889 117.174V120.496H298.805V111.438H299.889V112.275C300.068 111.951 300.307 111.705 300.604 111.537C300.904 111.365 301.25 111.279 301.641 111.279C302.434 111.279 303.055 111.586 303.504 112.199C303.957 112.812 304.184 113.662 304.184 114.748C304.184 115.814 303.957 116.652 303.504 117.262C303.051 117.867 302.43 118.17 301.641 118.17C301.242 118.17 300.893 118.086 300.592 117.918C300.295 117.746 300.061 117.498 299.889 117.174ZM303.053 114.725C303.053 113.889 302.92 113.258 302.654 112.832C302.393 112.406 302.002 112.193 301.482 112.193C300.959 112.193 300.562 112.408 300.293 112.838C300.023 113.264 299.889 113.893 299.889 114.725C299.889 115.553 300.023 116.182 300.293 116.611C300.562 117.041 300.959 117.256 301.482 117.256C302.002 117.256 302.393 117.043 302.654 116.617C302.92 116.191 303.053 115.561 303.053 114.725Z" fill="#D7BA7D"/>
<path d="M318.199 118.299V119.143H317.824C316.852 119.143 316.199 118.998 315.867 118.709C315.539 118.42 315.375 117.844 315.375 116.98V115.809C315.375 115.383 315.254 115.016 315.012 114.707C314.773 114.398 314.402 114.244 313.898 114.244H313.184V113.406H313.898C314.449 113.406 314.832 113.275 315.047 113.014C315.266 112.752 315.375 112.367 315.375 111.859V110.336C315.375 109.473 315.539 108.898 315.867 108.613C316.199 108.324 316.852 108.18 317.824 108.18H318.199V109.018H317.789C317.242 109.018 316.885 109.104 316.717 109.275C316.553 109.443 316.471 109.805 316.471 110.359V111.93C316.471 112.617 316.336 113.08 316.066 113.318C315.797 113.553 315.271 113.723 314.49 113.828C315.248 113.918 315.768 114.092 316.049 114.35C316.33 114.604 316.471 115.064 316.471 115.732V116.957C316.471 117.516 316.553 117.879 316.717 118.047C316.885 118.215 317.242 118.299 317.789 118.299H318.199ZM365.279 129.443H367.107V131.559H365.279V129.443ZM365.279 133.867H367.107V136H365.279V133.867ZM423.199 133.885H425.027V135.438L423.873 137.676H422.619L423.199 135.438V133.885ZM423.123 129.443H424.951V131.559H423.123V129.443ZM277.693 154.299C278.24 154.299 278.596 154.215 278.76 154.047C278.928 153.879 279.012 153.516 279.012 152.957V151.732C279.012 151.064 279.152 150.604 279.434 150.35C279.715 150.092 280.234 149.918 280.992 149.828C280.211 149.723 279.686 149.553 279.416 149.318C279.146 149.08 279.012 148.617 279.012 147.93V146.359C279.012 145.805 278.928 145.443 278.76 145.275C278.596 145.104 278.24 145.018 277.693 145.018H277.283V144.18H277.658C278.631 144.18 279.281 144.324 279.609 144.613C279.941 144.898 280.107 145.473 280.107 146.336V147.859C280.107 148.367 280.215 148.752 280.43 149.014C280.648 149.275 281.033 149.406 281.584 149.406H282.299V150.244H281.584C281.08 150.244 280.707 150.398 280.465 150.707C280.227 151.016 280.107 151.383 280.107 151.809V152.98C280.107 153.844 279.941 154.42 279.609 154.709C279.281 154.998 278.631 155.143 277.658 155.143H277.283V154.299H277.693Z" fill="#D4D4D4"/>
<path d="M294.059 127.574V129.438H296.508V130.275H294.059V133.838C294.059 134.322 294.15 134.66 294.334 134.852C294.518 135.043 294.838 135.139 295.295 135.139H296.508V136H295.189C294.381 136 293.811 135.838 293.479 135.514C293.146 135.189 292.98 134.631 292.98 133.838V130.275H291.229V129.438H292.98V127.574H294.059ZM304.254 132.18V132.707H299.584V132.742C299.553 133.637 299.723 134.279 300.094 134.67C300.469 135.061 300.996 135.256 301.676 135.256C302.02 135.256 302.379 135.201 302.754 135.092C303.129 134.982 303.529 134.816 303.955 134.594V135.666C303.545 135.834 303.148 135.959 302.766 136.041C302.387 136.127 302.02 136.17 301.664 136.17C300.645 136.17 299.848 135.865 299.273 135.256C298.699 134.643 298.412 133.799 298.412 132.725C298.412 131.678 298.693 130.842 299.256 130.217C299.818 129.592 300.568 129.279 301.506 129.279C302.342 129.279 303 129.562 303.48 130.129C303.965 130.695 304.223 131.379 304.254 132.18ZM303.176 131.863C303.129 131.41 302.963 131.02 302.678 130.691C302.396 130.359 301.99 130.193 301.459 130.193C300.939 130.193 300.512 130.365 300.176 130.709C299.84 131.053 299.656 131.439 299.625 131.869L303.176 131.863ZM311.473 129.438L309.123 132.578L311.701 136H310.453L308.531 133.369L306.615 136H305.367L307.945 132.578L305.596 129.438H306.791L308.531 131.811L310.26 129.438H311.473ZM315.75 127.574V129.438H318.199V130.275H315.75V133.838C315.75 134.322 315.842 134.66 316.025 134.852C316.209 135.043 316.529 135.139 316.986 135.139H318.199V136H316.881C316.072 136 315.502 135.838 315.17 135.514C314.838 135.189 314.672 134.631 314.672 133.838V130.275H312.92V129.438H314.672V127.574H315.75ZM319.98 131.758H326.191V132.748H319.98V131.758ZM330.727 132.701H330.369C329.74 132.701 329.266 132.812 328.945 133.035C328.629 133.254 328.471 133.582 328.471 134.02C328.471 134.414 328.59 134.721 328.828 134.939C329.066 135.158 329.396 135.268 329.818 135.268C330.412 135.268 330.879 135.062 331.219 134.652C331.559 134.238 331.73 133.668 331.734 132.941V132.701H330.727ZM332.818 132.256V136H331.734V135.027C331.504 135.418 331.213 135.707 330.861 135.895C330.514 136.078 330.09 136.17 329.59 136.17C328.922 136.17 328.389 135.982 327.99 135.607C327.592 135.229 327.393 134.723 327.393 134.09C327.393 133.359 327.637 132.805 328.125 132.426C328.617 132.047 329.338 131.857 330.287 131.857H331.734V131.688C331.73 131.164 331.598 130.785 331.336 130.551C331.074 130.312 330.656 130.193 330.082 130.193C329.715 130.193 329.344 130.246 328.969 130.352C328.594 130.457 328.229 130.611 327.873 130.814V129.736C328.271 129.584 328.652 129.471 329.016 129.396C329.383 129.318 329.738 129.279 330.082 129.279C330.625 129.279 331.088 129.359 331.471 129.52C331.857 129.68 332.17 129.92 332.408 130.24C332.557 130.436 332.662 130.678 332.725 130.967C332.787 131.252 332.818 131.682 332.818 132.256ZM338.057 133.627C338.057 134.111 338.145 134.477 338.32 134.723C338.5 134.969 338.764 135.092 339.111 135.092H340.371V136H339.006C338.361 136 337.861 135.795 337.506 135.385C337.154 134.971 336.979 134.385 336.979 133.627V127.691H335.25V126.848H338.057V133.627ZM342.926 129.461H345.686V135.162H347.824V136H342.469V135.162H344.607V130.299H342.926V129.461ZM344.607 126.912H345.686V128.271H344.607V126.912ZM353.332 132.666C353.332 131.857 353.199 131.244 352.934 130.826C352.672 130.404 352.289 130.193 351.785 130.193C351.258 130.193 350.855 130.404 350.578 130.826C350.301 131.244 350.162 131.857 350.162 132.666C350.162 133.475 350.301 134.092 350.578 134.518C350.859 134.939 351.266 135.15 351.797 135.15C352.293 135.15 352.672 134.938 352.934 134.512C353.199 134.086 353.332 133.471 353.332 132.666ZM354.41 135.578C354.41 136.562 354.178 137.309 353.713 137.816C353.248 138.324 352.564 138.578 351.662 138.578C351.365 138.578 351.055 138.551 350.73 138.496C350.406 138.441 350.082 138.361 349.758 138.256V137.189C350.141 137.369 350.488 137.502 350.801 137.588C351.113 137.674 351.4 137.717 351.662 137.717C352.244 137.717 352.668 137.559 352.934 137.242C353.199 136.926 353.332 136.424 353.332 135.736V135.689V134.957C353.16 135.324 352.926 135.598 352.629 135.777C352.332 135.957 351.971 136.047 351.545 136.047C350.779 136.047 350.168 135.74 349.711 135.127C349.254 134.514 349.025 133.693 349.025 132.666C349.025 131.635 349.254 130.812 349.711 130.199C350.168 129.586 350.779 129.279 351.545 129.279C351.967 129.279 352.324 129.363 352.617 129.531C352.91 129.699 353.148 129.959 353.332 130.311V129.461H354.41V135.578ZM361.693 131.934V136H360.609V131.934C360.609 131.344 360.506 130.91 360.299 130.633C360.092 130.355 359.768 130.217 359.326 130.217C358.822 130.217 358.434 130.396 358.16 130.756C357.891 131.111 357.756 131.623 357.756 132.291V136H356.678V129.438H357.756V130.422C357.947 130.047 358.207 129.764 358.535 129.572C358.863 129.377 359.252 129.279 359.701 129.279C360.369 129.279 360.867 129.5 361.195 129.941C361.527 130.379 361.693 131.043 361.693 131.934Z" fill="#9CDCFE"/>
<path d="M383.443 135.666C383.154 135.834 382.855 135.959 382.547 136.041C382.242 136.127 381.93 136.17 381.609 136.17C380.594 136.17 379.799 135.865 379.225 135.256C378.654 134.646 378.369 133.803 378.369 132.725C378.369 131.646 378.654 130.803 379.225 130.193C379.799 129.584 380.594 129.279 381.609 129.279C381.926 129.279 382.234 129.32 382.535 129.402C382.836 129.484 383.139 129.611 383.443 129.783V130.914C383.158 130.66 382.871 130.477 382.582 130.363C382.297 130.25 381.973 130.193 381.609 130.193C380.934 130.193 380.414 130.412 380.051 130.85C379.688 131.287 379.506 131.912 379.506 132.725C379.506 133.533 379.688 134.158 380.051 134.6C380.418 135.037 380.938 135.256 381.609 135.256C381.984 135.256 382.32 135.199 382.617 135.086C382.914 134.969 383.189 134.789 383.443 134.547V135.666ZM391.02 132.18V132.707H386.35V132.742C386.318 133.637 386.488 134.279 386.859 134.67C387.234 135.061 387.762 135.256 388.441 135.256C388.785 135.256 389.145 135.201 389.52 135.092C389.895 134.982 390.295 134.816 390.721 134.594V135.666C390.311 135.834 389.914 135.959 389.531 136.041C389.152 136.127 388.785 136.17 388.43 136.17C387.41 136.17 386.613 135.865 386.039 135.256C385.465 134.643 385.178 133.799 385.178 132.725C385.178 131.678 385.459 130.842 386.021 130.217C386.584 129.592 387.334 129.279 388.271 129.279C389.107 129.279 389.766 129.562 390.246 130.129C390.73 130.695 390.988 131.379 391.02 132.18ZM389.941 131.863C389.895 131.41 389.729 131.02 389.443 130.691C389.162 130.359 388.756 130.193 388.225 130.193C387.705 130.193 387.277 130.365 386.941 130.709C386.605 131.053 386.422 131.439 386.391 131.869L389.941 131.863ZM397.846 131.934V136H396.762V131.934C396.762 131.344 396.658 130.91 396.451 130.633C396.244 130.355 395.92 130.217 395.479 130.217C394.975 130.217 394.586 130.396 394.312 130.756C394.043 131.111 393.908 131.623 393.908 132.291V136H392.83V129.438H393.908V130.422C394.1 130.047 394.359 129.764 394.688 129.572C395.016 129.377 395.404 129.279 395.854 129.279C396.521 129.279 397.02 129.5 397.348 129.941C397.68 130.379 397.846 131.043 397.846 131.934ZM402.516 127.574V129.438H404.965V130.275H402.516V133.838C402.516 134.322 402.607 134.66 402.791 134.852C402.975 135.043 403.295 135.139 403.752 135.139H404.965V136H403.646C402.838 136 402.268 135.838 401.936 135.514C401.604 135.189 401.438 134.631 401.438 133.838V130.275H399.686V129.438H401.438V127.574H402.516ZM412.711 132.18V132.707H408.041V132.742C408.01 133.637 408.18 134.279 408.551 134.67C408.926 135.061 409.453 135.256 410.133 135.256C410.477 135.256 410.836 135.201 411.211 135.092C411.586 134.982 411.986 134.816 412.412 134.594V135.666C412.002 135.834 411.605 135.959 411.223 136.041C410.844 136.127 410.477 136.17 410.121 136.17C409.102 136.17 408.305 135.865 407.73 135.256C407.156 134.643 406.869 133.799 406.869 132.725C406.869 131.678 407.15 130.842 407.713 130.217C408.275 129.592 409.025 129.279 409.963 129.279C410.799 129.279 411.457 129.562 411.938 130.129C412.422 130.695 412.68 131.379 412.711 132.18ZM411.633 131.863C411.586 131.41 411.42 131.02 411.135 130.691C410.854 130.359 410.447 130.193 409.916 130.193C409.396 130.193 408.969 130.365 408.633 130.709C408.297 131.053 408.113 131.439 408.082 131.869L411.633 131.863ZM420.146 130.791C419.916 130.611 419.682 130.48 419.443 130.398C419.205 130.316 418.943 130.275 418.658 130.275C417.986 130.275 417.473 130.486 417.117 130.908C416.762 131.33 416.584 131.939 416.584 132.736V136H415.5V129.438H416.584V130.721C416.764 130.256 417.039 129.9 417.41 129.654C417.785 129.404 418.229 129.279 418.74 129.279C419.006 129.279 419.254 129.312 419.484 129.379C419.715 129.445 419.936 129.549 420.146 129.689V130.791Z" fill="#CE9178"/>
<rect width="1" height="329" transform="translate(251)" fill="#333333"/>
<defs>
<clipPath id="clip0">
<rect width="119.931" height="39.2998" fill="white"/>
</clipPath>
<clipPath id="clip1">
<rect width="122.931" height="39.2998" fill="white" transform="translate(252)"/>
</clipPath>
<clipPath id="clip2">
<rect width="122.931" height="39.2998" fill="white" transform="translate(252)"/>
</clipPath>
</defs>
</svg>
