<svg width="16" height="16" viewBox="0 0 16 16" fill="none" xmlns="http://www.w3.org/2000/svg">
<path d="M14.9991 5.50086C15.0304 6.61914 14.634 7.70724 13.8907 8.54338C13.1475 9.37951 12.1134 9.90076 10.9991 10.0009C10.9909 9.65846 10.9232 9.3201 10.7991 9.00086C11.6689 8.91142 12.4755 8.50543 13.0655 7.86012C13.6555 7.21481 13.9878 6.37517 13.9991 5.50086C13.9959 4.59897 13.6452 3.733 13.0201 3.08289C12.395 2.43277 11.5434 2.04849 10.6423 2.00987C9.74125 1.97125 8.85994 2.28127 8.18148 2.87552C7.50302 3.46977 7.07959 4.30255 6.99915 5.20086C6.67717 5.08644 6.34037 5.01908 5.99915 5.00086C6.14761 3.90646 6.68305 2.90139 7.50851 2.16765C8.33397 1.4339 9.39488 1.01999 10.4991 1.00086C11.0908 0.99835 11.6771 1.11303 12.2242 1.33829C12.7713 1.56354 13.2684 1.89491 13.6867 2.31328C14.1051 2.73164 14.4365 3.22872 14.6617 3.77582C14.887 4.32292 15.0017 4.90921 14.9991 5.50086ZM5.49915 6.00086C4.60913 6.00086 3.7391 6.26478 2.99908 6.75925C2.25906 7.25372 1.68228 7.95652 1.34169 8.77879C1.0011 9.60106 0.91198 10.5059 1.08561 11.3788C1.25925 12.2517 1.68783 13.0535 2.31717 13.6828C2.9465 14.3122 3.74833 14.7408 4.62124 14.9144C5.49416 15.088 6.39896 14.9989 7.22122 14.6583C8.04349 14.3177 8.74629 13.741 9.24076 13.0009C9.73523 12.2609 9.99915 11.3909 9.99915 10.5009C9.99915 9.90992 9.88275 9.32475 9.65661 8.77879C9.43046 8.23282 9.09899 7.73675 8.68113 7.31888C8.26326 6.90102 7.76719 6.56955 7.22122 6.34341C6.67526 6.11726 6.0901 6.00086 5.49915 6.00086Z" fill="white"/>
</svg>
