<svg width="16" height="16" viewBox="0 0 16 16" fill="none" xmlns="http://www.w3.org/2000/svg">
<g clip-path="url(#clip0)">
<path d="M14.654 3.82885C14.3087 2.99182 13.7226 2.27619 12.9701 1.77271C12.2175 1.26923 11.3324 1.00058 10.427 1.00085H10.408C9.32152 1.01636 8.27452 1.41038 7.44742 2.115C6.62031 2.81961 6.06492 3.79069 5.87695 4.86085C6.36401 4.88597 6.84557 4.97576 7.30895 5.12785C7.42811 4.34736 7.83711 3.64047 8.45436 3.14817C9.07162 2.65587 9.85177 2.41435 10.6392 2.47176C11.4267 2.52918 12.1635 2.88133 12.7028 3.45796C13.2421 4.03459 13.5443 4.79333 13.549 5.58285C13.5406 6.3328 13.267 7.05556 12.7766 7.62302C12.2863 8.19047 11.6108 8.56594 10.87 8.68285C11.0242 9.14936 11.116 9.63424 11.143 10.1249C12.233 9.97784 13.2302 9.43257 13.9421 8.59411C14.6541 7.75566 15.0306 6.68336 14.999 5.58385C15.0012 4.98179 14.8839 4.38528 14.654 3.82885Z" fill="white"/>
<path d="M9.82198 8.65788C9.35631 7.53452 8.46353 6.6421 7.33998 6.17688C6.64279 5.8928 5.88689 5.78285 5.13766 5.85655C4.38844 5.93025 3.66845 6.18539 3.03998 6.59988C2.28583 7.10358 1.69796 7.81956 1.35068 8.65732C1.00339 9.49508 0.912293 10.417 1.08889 11.3065C1.26549 12.1961 1.70186 13.0133 2.34284 13.6548C2.98381 14.2964 3.80061 14.7335 4.68998 14.9109C4.98639 14.9695 5.28783 14.999 5.58998 14.9989C6.34356 14.9976 7.08522 14.8107 7.74942 14.4547C8.41362 14.0987 8.9799 13.5846 9.39824 12.9578C9.81657 12.331 10.0741 11.6108 10.148 10.8608C10.2219 10.1109 10.1099 9.35429 9.82198 8.65788V8.65788Z" fill="white"/>
</g>
<defs>
<clipPath id="clip0">
<rect width="14" height="13.998" fill="white" transform="translate(0.999023 1.00085)"/>
</clipPath>
</defs>
</svg>
