<svg width="16" height="16" viewBox="0 0 16 16" fill="none" xmlns="http://www.w3.org/2000/svg">
<path d="M8 4C8.36719 4 8.72135 4.04818 9.0625 4.14453C9.40365 4.23828 9.72135 4.3724 10.0156 4.54688C10.3125 4.72135 10.582 4.93099 10.8242 5.17578C11.069 5.41797 11.2786 5.6875 11.4531 5.98438C11.6276 6.27865 11.7617 6.59635 11.8555 6.9375C11.9518 7.27865 12 7.63281 12 8C12 8.36719 11.9518 8.72135 11.8555 9.0625C11.7617 9.40365 11.6276 9.72266 11.4531 10.0195C11.2786 10.3138 11.069 10.5833 10.8242 10.8281C10.582 11.0703 10.3125 11.2786 10.0156 11.4531C9.72135 11.6276 9.40365 11.763 9.0625 11.8594C8.72135 11.9531 8.36719 12 8 12C7.63281 12 7.27865 11.9531 6.9375 11.8594C6.59635 11.763 6.27734 11.6276 5.98047 11.4531C5.6862 11.2786 5.41667 11.0703 5.17188 10.8281C4.92969 10.5833 4.72135 10.3138 4.54688 10.0195C4.3724 9.72266 4.23698 9.40365 4.14063 9.0625C4.04688 8.72135 4 8.36719 4 8C4 7.63281 4.04688 7.27865 4.14063 6.9375C4.23698 6.59635 4.3724 6.27865 4.54688 5.98438C4.72135 5.6875 4.92969 5.41797 5.17188 5.17578C5.41667 4.93099 5.6862 4.72135 5.98047 4.54688C6.27734 4.3724 6.59635 4.23828 6.9375 4.14453C7.27865 4.04818 7.63281 4 8 4ZM8 11.5C8.32292 11.5 8.63281 11.4583 8.92969 11.375C9.22917 11.2917 9.50781 11.1745 9.76563 11.0234C10.026 10.8698 10.2617 10.6875 10.4727 10.4766C10.6862 10.263 10.8685 10.0273 11.0195 9.76953C11.1732 9.50911 11.2917 9.23047 11.375 8.93359C11.4583 8.63411 11.5 8.32292 11.5 8C11.5 7.67708 11.4583 7.36719 11.375 7.07031C11.2917 6.77083 11.1732 6.49219 11.0195 6.23438C10.8685 5.97396 10.6862 5.73828 10.4727 5.52734C10.2617 5.3138 10.026 5.13151 9.76563 4.98047C9.50781 4.82682 9.22917 4.70833 8.92969 4.625C8.63281 4.54167 8.32292 4.5 8 4.5C7.67708 4.5 7.36589 4.54167 7.06641 4.625C6.76953 4.70833 6.49089 4.82682 6.23047 4.98047C5.97266 5.13151 5.73698 5.3138 5.52344 5.52734C5.3125 5.73828 5.13021 5.97396 4.97656 6.23438C4.82552 6.49219 4.70833 6.77083 4.625 7.07031C4.54167 7.36719 4.5 7.67708 4.5 8C4.5 8.32292 4.54167 8.63411 4.625 8.93359C4.70833 9.23047 4.82552 9.50911 4.97656 9.76953C5.13021 10.0273 5.3125 10.263 5.52344 10.4766C5.73698 10.6875 5.97266 10.8698 6.23047 11.0234C6.49089 11.1745 6.76953 11.2917 7.06641 11.375C7.36589 11.4583 7.67708 11.5 8 11.5Z" fill="white"/>
</svg>
