<svg width="16" height="16" viewBox="0 0 16 16" fill="none" xmlns="http://www.w3.org/2000/svg">
<path fill-rule="evenodd" clip-rule="evenodd" d="M12.8288 8L8.45377 13H3V3H8.45377L12.8288 8ZM9.07868 9.38893C9.35338 8.9778 9.5 8.49445 9.5 8C9.5 7.33696 9.23661 6.70107 8.76777 6.23223C8.29893 5.76339 7.66304 5.5 7 5.5C6.50555 5.5 6.0222 5.64662 5.61108 5.92133C5.19995 6.19603 4.87952 6.58648 4.6903 7.04329C4.50108 7.50011 4.45157 8.00277 4.54804 8.48773C4.6445 8.97268 4.8826 9.41814 5.23223 9.76777C5.58187 10.1174 6.02732 10.3555 6.51228 10.452C6.99723 10.5484 7.4999 10.4989 7.95671 10.3097C8.41353 10.1205 8.80397 9.80005 9.07868 9.38893Z" fill="white"/>
</svg>
