<svg width="16" height="16" viewBox="0 0 16 16" fill="none" xmlns="http://www.w3.org/2000/svg">
<path fill-rule="evenodd" clip-rule="evenodd" d="M12.8288 8L8.45377 13H3V3H8.45377L12.8288 8ZM8 12L11.5 8L8 4H4V12H8Z" fill="white"/>
<path d="M9 8C9 8.39556 8.8827 8.78224 8.66294 9.11114C8.44318 9.44004 8.13082 9.69638 7.76537 9.84776C7.39992 9.99913 6.99778 10.0387 6.60982 9.96157C6.22186 9.8844 5.86549 9.69392 5.58579 9.41421C5.30608 9.13451 5.1156 8.77814 5.03843 8.39018C4.96126 8.00222 5.00087 7.60009 5.15224 7.23463C5.30362 6.86918 5.55996 6.55682 5.88886 6.33706C6.21776 6.1173 6.60444 6 7 6C7.53043 6 8.03914 6.21071 8.41421 6.58579C8.78929 6.96086 9 7.46957 9 8Z" fill="white"/>
</svg>
