<svg width="16" height="16" viewBox="0 0 16 16" fill="none" xmlns="http://www.w3.org/2000/svg">
<path fill-rule="evenodd" clip-rule="evenodd" d="M13.6172 3.84375C13.5169 3.5293 13.3665 3.23991 13.166 2.97559L14.5195 1.61523L13.9043 1L12.5439 2.35352C12.2796 2.15299 11.9902 2.0026 11.6758 1.90234C11.3659 1.79753 11.0446 1.74512 10.7119 1.74512C10.3063 1.74512 9.91439 1.82259 9.53613 1.97754C9.16243 2.13249 8.83203 2.35352 8.54492 2.64062L7 4.19238L11.3271 8.51953L12.8789 6.97461C13.166 6.6875 13.387 6.3571 13.542 5.9834C13.6969 5.60514 13.7744 5.21322 13.7744 4.80762C13.7744 4.47493 13.722 4.15365 13.6172 3.84375ZM7.9043 10.6416L9.3877 9.09668L8.77246 8.47461L7.28223 10.0264L5.42285 8.16699L6.91309 6.61523L6.29102 6L4.80762 7.54492L4.19238 6.92969L2.64062 8.47461C2.35352 8.76172 2.13249 9.0944 1.97754 9.47266C1.82259 9.84635 1.74512 10.236 1.74512 10.6416C1.74512 10.9743 1.79525 11.2979 1.89551 11.6123C2.00033 11.9222 2.15299 12.2093 2.35352 12.4736L1 13.834L1.61523 14.4492L2.97559 13.0957C3.23991 13.2962 3.52702 13.4489 3.83691 13.5537C4.15137 13.654 4.47493 13.7041 4.80762 13.7041C5.21322 13.7041 5.60286 13.6266 5.97656 13.4717C6.35482 13.3167 6.6875 13.0957 6.97461 12.8086L8.51953 11.2568L7.9043 10.6416Z" fill="#F48771"/>
</svg>
