<svg width="16" height="16" viewBox="0 0 16 16" fill="none" xmlns="http://www.w3.org/2000/svg">
<path fill-rule="evenodd" clip-rule="evenodd" d="M2.02047 12.5129L3.59996 10.1436L3.48714 9.80516L0.666626 9.12823V6.87182L3.48714 6.30772L3.59996 5.96926L2.02047 3.60002L3.59996 2.02053L5.96919 3.60002L6.30766 3.4872L6.87176 0.666687H9.12817L9.69227 3.4872L10.0307 3.60002L12.4 2.02053L13.9795 3.60002L12.4 5.96926L12.5128 6.30772L15.3333 6.87182V9.12823L12.5128 9.69234L12.4 10.0308L13.9795 12.4L12.4 13.9795L10.0307 12.4L9.69227 12.6257L9.12817 15.4462H6.87176L6.30766 12.6257L5.96919 12.5129L3.59996 14.0923L2.02047 12.5129ZM7.99996 10.6667C9.47272 10.6667 10.6666 9.47278 10.6666 8.00002C10.6666 6.52726 9.47272 5.33335 7.99996 5.33335C6.5272 5.33335 5.33329 6.52726 5.33329 8.00002C5.33329 9.47278 6.5272 10.6667 7.99996 10.6667Z" fill="white"/>
</svg>
