<svg width="16" height="16" viewBox="0 0 16 16" fill="none" xmlns="http://www.w3.org/2000/svg">
<path fill-rule="evenodd" clip-rule="evenodd" d="M6.10564 3.42309L6.59373 1H9.40633L9.89442 3.42309L11.9663 2.05164L13.9409 4.0122L12.5596 6.06938L15.0001 6.554V9.34663L12.5596 9.83125L13.9409 11.8884L11.9663 13.849L9.91208 12.4892L9.40633 15H6.59373L6.10564 12.5769L4.03374 13.9484L2.05916 11.9878L3.45077 9.91521L1 9.3312V6.554L3.44042 6.06938L2.05916 4.0122L4.03374 2.05164L6.10564 3.42309ZM8.5954 1.98215H7.40466L6.92747 4.35115L6.12544 4.6166L4.15978 3.31546L3.33203 4.13734L4.64247 6.08904L4.37512 6.88537L1.98918 7.35917V8.55688L4.37907 9.12638L4.64247 9.91096L3.33203 11.8627L4.15978 12.6845L6.12544 11.3834L6.92747 11.6488L7.40466 14.0178H8.5954L9.05648 11.7288L9.80154 11.2357L11.8403 12.5852L12.668 11.7633L11.3576 9.81159L11.6249 9.01526L14.0109 8.54146V7.35917L11.6249 6.88537L11.3576 6.08904L12.668 4.13734L11.8403 3.31546L9.87462 4.6166L9.07259 4.35115L8.5954 1.98215Z" fill="white"/>
<path fill-rule="evenodd" clip-rule="evenodd" d="M8 9C8.55228 9 9 8.55228 9 8C9 7.44772 8.55228 7 8 7C7.44772 7 7 7.44772 7 8C7 8.55228 7.44772 9 8 9ZM8 10C9.10457 10 10 9.10457 10 8C10 6.89543 9.10457 6 8 6C6.89543 6 6 6.89543 6 8C6 9.10457 6.89543 10 8 10Z" fill="white"/>
</svg>
