<svg width="16" height="16" viewBox="0 0 16 16" fill="none" xmlns="http://www.w3.org/2000/svg">
<path fill-rule="evenodd" clip-rule="evenodd" d="M2 7.5L2 3L3.5 3L3.5 7.5L2 7.5Z" fill="#89D185"/>
<path fill-rule="evenodd" clip-rule="evenodd" d="M2 6L6.5 6L6.5 7.5L2 7.5L2 6Z" fill="#89D185"/>
<path fill-rule="evenodd" clip-rule="evenodd" d="M8.49997 12.5C10.9853 12.5 13 10.4853 13 8C13 5.51472 10.9853 3.5 8.49997 3.5C6.77248 3.5 5.27233 4.47341 4.51812 5.90166L2.67285 6.5642C3.31632 3.94385 5.68114 2 8.49997 2C11.8137 2 14.5 4.68629 14.5 8C14.5 11.3137 11.8137 14 8.49997 14C6.19202 14 4.18842 12.6969 3.18479 10.7863L4.61522 10.2727C5.39647 11.6052 6.84373 12.5 8.49997 12.5Z" fill="#89D185"/>
</svg>
