<svg width="16" height="16" viewBox="0 0 16 16" fill="none" xmlns="http://www.w3.org/2000/svg">
<path d="M8 1C8.64258 1 9.26237 1.08431 9.85938 1.25293C10.4564 1.41699 11.0146 1.65169 11.5342 1.95703C12.0537 2.25781 12.5254 2.6224 12.9492 3.05078C13.3776 3.47461 13.7422 3.94629 14.043 4.46582C14.3483 4.98535 14.583 5.54362 14.7471 6.14062C14.9157 6.73763 15 7.35742 15 8C15 8.64258 14.9157 9.26237 14.7471 9.85938C14.583 10.4564 14.3483 11.0146 14.043 11.5342C13.7422 12.0537 13.3776 12.5277 12.9492 12.9561C12.5254 13.3799 12.0537 13.7445 11.5342 14.0498C11.0146 14.3506 10.4564 14.5853 9.85938 14.7539C9.26237 14.918 8.64258 15 8 15C7.21615 15 6.46191 14.8747 5.7373 14.624C5.01725 14.3734 4.35872 14.0225 3.76172 13.5713C3.16927 13.1156 2.6543 12.5732 2.2168 11.9443C1.78385 11.3154 1.46484 10.6227 1.25977 9.86621L2.10059 9.63379C2.28288 10.2946 2.56315 10.9007 2.94141 11.4521C3.32422 11.999 3.77539 12.4707 4.29492 12.8672C4.81445 13.2637 5.39095 13.5736 6.02441 13.7969C6.65788 14.0156 7.31641 14.125 8 14.125C8.56055 14.125 9.10059 14.0521 9.62012 13.9062C10.1442 13.7604 10.6318 13.5553 11.083 13.291C11.5387 13.0221 11.9535 12.7008 12.3271 12.3271C12.7008 11.9535 13.0199 11.541 13.2842 11.0898C13.5531 10.6341 13.7604 10.1465 13.9062 9.62695C14.0521 9.10742 14.125 8.5651 14.125 8C14.125 7.43945 14.0521 6.89941 13.9062 6.37988C13.7604 5.85579 13.5531 5.36816 13.2842 4.91699C13.0199 4.46126 12.7008 4.04655 12.3271 3.67285C11.9535 3.29915 11.5387 2.98014 11.083 2.71582C10.6318 2.44694 10.1442 2.23958 9.62012 2.09375C9.10059 1.94792 8.56055 1.875 8 1.875C7.41211 1.875 6.84017 1.95703 6.28418 2.12109C5.72819 2.28516 5.20866 2.51986 4.72559 2.8252C4.24707 3.13053 3.81413 3.49967 3.42676 3.93262C3.03939 4.361 2.72038 4.8418 2.46973 5.375H4.5V6.25H1V2.75H1.875V4.62305C2.18034 4.0625 2.55176 3.55892 2.98926 3.1123C3.42676 2.66569 3.90983 2.28743 4.43848 1.97754C4.97168 1.66309 5.53906 1.42155 6.14062 1.25293C6.74219 1.08431 7.36198 1 8 1Z" fill="#89D185"/>
</svg>
