<svg width="16" height="16" viewBox="0 0 16 16" fill="none" xmlns="http://www.w3.org/2000/svg">
<path d="M2.63462 3.22156C2.66932 3.1845 2.70446 3.1478 2.74004 3.11148C3.17644 2.66599 3.65978 2.28725 4.18952 1.97663C4.72209 1.66263 5.28876 1.42152 5.88832 1.25346C6.49192 1.08427 7.11298 1 7.75 1C8.39021 1 9.01106 1.084 9.61089 1.25323C10.205 1.41668 10.7632 1.65104 11.2836 1.95676C11.8033 2.2578 12.2755 2.62276 12.6993 3.05074C13.1273 3.47452 13.4922 3.9467 13.7932 4.46637C14.099 4.98686 14.3333 5.54497 14.4968 6.13915C14.666 6.73896 14.75 7.35981 14.75 8C14.75 8.64019 14.666 9.26104 14.4968 9.86085C14.3333 10.455 14.099 11.0131 13.7932 11.5336C13.4921 12.0535 13.1271 12.5277 12.6993 12.9556C12.2756 13.3793 11.8039 13.7438 11.2852 14.0487L11.2821 14.0504C10.7625 14.3513 10.2055 14.5851 9.61271 14.7526L9.60903 14.7536C9.00973 14.9183 8.38953 15 7.75 15C6.96789 15 6.21209 14.8748 5.48533 14.6234C4.76866 14.3739 4.10981 14.0233 3.51309 13.5723L3.50943 13.5695C2.91766 13.1143 2.40424 12.5732 1.96963 11.9484L1.96813 11.9463C1.5616 11.3557 1.25576 10.7099 1.05031 10.0114L2.87507 9.54034C3.02674 10.025 3.24283 10.4708 3.52313 10.8799C3.84508 11.3394 4.2227 11.7336 4.6566 12.0647C5.08973 12.3953 5.57126 12.6547 6.10375 12.8425C6.63031 13.0242 7.17817 13.1154 7.75 13.1154C8.22015 13.1154 8.66958 13.0543 9.09997 12.9335L9.10114 12.9332C9.54169 12.8106 9.9484 12.6392 10.323 12.4198C10.7044 12.1947 11.0509 11.9262 11.3635 11.6135C11.6764 11.3007 11.9426 10.9564 12.1631 10.58L12.1639 10.5785C12.388 10.1988 12.5612 9.79186 12.6835 9.35628C12.8042 8.92627 12.8654 8.47477 12.8654 8C12.8654 7.52985 12.8043 7.08042 12.6835 6.65003L12.6832 6.64886C12.5609 6.2095 12.388 5.80374 12.1652 5.42981L12.1619 5.42432C11.9414 5.04417 11.6756 4.69849 11.3635 4.38646C11.0515 4.07442 10.7058 3.80857 10.3257 3.58808L10.3202 3.58488C9.94624 3.36203 9.5405 3.18909 9.10114 3.06683L9.09997 3.0665C8.66958 2.94569 8.22015 2.88462 7.75 2.88462C7.25818 2.88462 6.7816 2.95313 6.31856 3.08976C5.85274 3.22722 5.41912 3.42321 5.01615 3.67779C4.61715 3.93252 4.2552 4.24089 3.92983 4.60454L3.92794 4.60665C3.80375 4.74398 3.68795 4.88788 3.58052 5.03846H5.26593V6.92308H0.75V2.03486H2.63462V3.22156Z" fill="#89D185"/>
</svg>
