<svg width="16" height="16" viewBox="0 0 16 16" fill="none" xmlns="http://www.w3.org/2000/svg">
<path d="M8 14C9.10457 14 10 13.1046 10 12C10 10.8954 9.10457 10 8 10C6.89543 10 6 10.8954 6 12C6 13.1046 6.89543 14 8 14Z" fill="#75BEFF"/>
<mask id="path-2-outside-1" maskUnits="userSpaceOnUse" x="1" y="1" width="14" height="7" fill="black">
<rect fill="white" x="1" y="1" width="14" height="7"/>
<path fill-rule="evenodd" clip-rule="evenodd" d="M13 2H14V6H14.0035V7H14H13.7558H13H12.7358H9.37988V6H12.3843C11.6045 4.4259 9.89397 3.33334 7.90917 3.33334C5.34 3.33334 3.23028 5.16396 3.00407 7.5H2C2.2275 4.55454 4.84849 2.33334 7.90917 2.33334C10.0379 2.33334 11.954 3.40785 13 5.0532V2Z"/>
</mask>
<path fill-rule="evenodd" clip-rule="evenodd" d="M13 2H14V6H14.0035V7H14H13.7558H13H12.7358H9.37988V6H12.3843C11.6045 4.4259 9.89397 3.33334 7.90917 3.33334C5.34 3.33334 3.23028 5.16396 3.00407 7.5H2C2.2275 4.55454 4.84849 2.33334 7.90917 2.33334C10.0379 2.33334 11.954 3.40785 13 5.0532V2Z" fill="#75BEFF"/>
<path d="M14 2H14.25V1.75H14V2ZM13 2V1.75H12.75V2H13ZM14 6H13.75V6.25H14V6ZM14.0035 6H14.2535V5.75H14.0035V6ZM14.0035 7V7.25H14.2535V7H14.0035ZM9.37988 7H9.12988V7.25H9.37988V7ZM9.37988 6V5.75H9.12988V6H9.37988ZM12.3843 6V6.25H12.7872L12.6083 5.88902L12.3843 6ZM3.00407 7.5V7.75H3.23103L3.2529 7.5241L3.00407 7.5ZM2 7.5L1.75074 7.48075L1.72995 7.75H2V7.5ZM13 5.0532L12.789 5.18732L13.25 5.91244V5.0532H13ZM14 1.75H13V2.25H14V1.75ZM14.25 6V2H13.75V6H14.25ZM14.0035 5.75H14V6.25H14.0035V5.75ZM14.2535 7V6H13.7535V7H14.2535ZM14 7.25H14.0035V6.75H14V7.25ZM13.7558 7.25H14V6.75H13.7558V7.25ZM13 7.25H13.7558V6.75H13V7.25ZM12.7358 7.25H13V6.75H12.7358V7.25ZM9.37988 7.25H12.7358V6.75H9.37988V7.25ZM9.12988 6V7H9.62988V6H9.12988ZM12.3843 5.75H9.37988V6.25H12.3843V5.75ZM7.90917 3.58334C9.80263 3.58334 11.4243 4.62529 12.1603 6.11098L12.6083 5.88902C11.7848 4.22651 9.9853 3.08334 7.90917 3.08334V3.58334ZM3.2529 7.5241C3.46544 5.32932 5.45512 3.58334 7.90917 3.58334V3.08334C5.22488 3.08334 2.99513 4.99861 2.75523 7.4759L3.2529 7.5241ZM2 7.75H3.00407V7.25H2V7.75ZM7.90917 2.08334C4.73318 2.08334 1.98944 4.39036 1.75074 7.48075L2.24926 7.51925C2.46556 4.71873 4.96379 2.58334 7.90917 2.58334V2.08334ZM13.211 4.91908C12.1179 3.19966 10.1212 2.08334 7.90917 2.08334V2.58334C9.9547 2.58334 11.7901 3.61604 12.789 5.18732L13.211 4.91908ZM12.75 2V5.0532H13.25V2H12.75Z" fill="#75BEFF" mask="url(#path-2-outside-1)"/>
</svg>
