<svg width="16" height="16" viewBox="0 0 16 16" fill="none" xmlns="http://www.w3.org/2000/svg">
<path d="M8 14C9.10457 14 10 13.1046 10 12C10 10.8954 9.10457 10 8 10C6.89543 10 6 10.8954 6 12C6 13.1046 6.89543 14 8 14Z" fill="#75BEFF"/>
<path fill-rule="evenodd" clip-rule="evenodd" d="M13 2H14V6H14.0035V7H14H13.7558H13H12.7358H9.37988V6H12.3843C11.6045 4.4259 9.89397 3.33334 7.90917 3.33334C5.34 3.33334 3.23028 5.16396 3.00407 7.5H2C2.2275 4.55454 4.84849 2.33334 7.90917 2.33334C10.0379 2.33334 11.954 3.40785 13 5.0532V2Z" fill="#75BEFF"/>
</svg>
