<svg width="16" height="16" viewBox="0 0 16 16" fill="none" xmlns="http://www.w3.org/2000/svg">
<g clip-path="url(#clip0)">
<path fill-rule="evenodd" clip-rule="evenodd" d="M11.8843 5.62364L10.6732 4.4125L8.50351 6.57009V0H6.78922V6.5532L4.64027 4.41232L3.42859 5.624L7.66387 9.85928L11.8843 5.62364ZM10.6726 4.81602L10.6729 4.81624L10.6726 4.816L10.6726 4.81602ZM7.66494 9.45342L7.66347 9.45482L7.66351 9.45486L7.66494 9.45342ZM8.21779 0.571429V7.25708L8.21773 7.25714V0.571429H8.21779ZM7.07487 7.24108L4.64065 4.816L4.64062 4.81603L7.07487 7.24114V7.24108Z" fill="#75BEFF"/>
<path d="M7.65681 16C8.91917 16 9.94252 14.9766 9.94252 13.7143C9.94252 12.4519 8.91917 11.4286 7.65681 11.4286C6.39444 11.4286 5.37109 12.4519 5.37109 13.7143C5.37109 14.9766 6.39444 16 7.65681 16Z" fill="#75BEFF"/>
</g>
<defs>
<clipPath id="clip0">
<rect width="16" height="16" fill="white"/>
</clipPath>
</defs>
</svg>
