<svg width="16" height="16" viewBox="0 0 16 16" fill="none" xmlns="http://www.w3.org/2000/svg">
<path fill-rule="evenodd" clip-rule="evenodd" d="M13 2H15V8H9.42188V6.5V6H12.0159C11.2149 4.99558 9.92312 4.33334 8.44928 4.33334C6.11034 4.33334 4.24071 5.99467 4.04185 8.04819L3.99809 8.5H2L2.04159 7.9615C2.29148 4.72617 5.15799 2.33334 8.44928 2.33334C10.1984 2.33334 11.8219 3.00618 13 4.12085V2ZM10.7217 13C10.7217 14.1046 9.82632 15 8.72175 15C7.61718 15 6.72175 14.1046 6.72175 13C6.72175 11.8954 7.61718 11 8.72175 11C9.82632 11 10.7217 11.8954 10.7217 13Z" fill="#75BEFF"/>
</svg>
