<svg width="16" height="16" viewBox="0 0 16 16" fill="none" xmlns="http://www.w3.org/2000/svg">
<g clip-path="url(#clip0)">
<path fill-rule="evenodd" clip-rule="evenodd" d="M11.8843 4.23565L10.6732 5.44678L8.50351 3.28919V9.85928H6.78922V3.30609L4.64027 5.44697L3.42859 4.23528L7.66387 2.86102e-06L11.8843 4.23565ZM10.6726 5.04326L10.6729 5.04304L10.6726 5.04328L10.6726 5.04326ZM7.66494 0.405865L7.66347 0.40446L7.66351 0.404428L7.66494 0.405865ZM8.21779 9.28785V2.60221L8.21773 2.60215V9.28785H8.21779ZM7.07487 2.6182L4.64065 5.04328L4.64062 5.04326L7.07487 2.61815V2.6182Z" fill="#75BEFF"/>
<path d="M7.65681 16C8.91917 16 9.94252 14.9766 9.94252 13.7143C9.94252 12.4519 8.91917 11.4286 7.65681 11.4286C6.39444 11.4286 5.37109 12.4519 5.37109 13.7143C5.37109 14.9766 6.39444 16 7.65681 16Z" fill="#75BEFF"/>
</g>
<defs>
<clipPath id="clip0">
<rect width="16" height="16" fill="white"/>
</clipPath>
</defs>
</svg>
