<svg xmlns="http://www.w3.org/2000/svg" width="24" height="24" viewBox="0 0 16 16" enable-background="new 0 0 16 16"><g><path fill="#fc0" d="M8 1c-3.866 0-7 3.134-7 7s3.134 7 7 7 7-3.134 7-7-3.134-7-7-7z"/><path fill="#424242" d="M11 6.5c0 .5-.447.5-1 .5s-1 0-1-.5c0-1.104 1-1.5 1-1.5s1 .396 1 1.5z"/><path fill="#424242" d="M10.943 9.025c-.457 1.177-1.644 2.058-2.943 2.058s-2.455-.881-2.899-2.058h-.952c.455 1.709 1.999 2.975 3.851 2.975 1.853 0 3.396-1.266 3.851-2.975h-.908z"/><path fill="#424242" d="M7 6.5s-.447.5-1 .5-1 0-1-.5c0-1.104 1-1.5 1-1.5s1 .396 1 1.5z"/></g></svg>