<svg xmlns="http://www.w3.org/2000/svg" width="16" height="16"><path fill="#fff" d="M8 1c-3.866 0-7 3.134-7 7s3.134 7 7 7 7-3.134 7-7-3.134-7-7-7zm2.45 2.8c.58 0 1.05.627 1.05 1.4 0 .773-.47 1.4-1.05 1.4-.58 0-1.05-.627-1.05-1.4 0-.773.47-1.4 1.05-1.4zm-4.9 0c.58 0 1.05.627 1.05 1.4 0 .773-.47 1.4-1.05 1.4s-1.05-.627-1.05-1.4c0-.773.47-1.4 1.05-1.4zm6.901 5.775c-.668 1.884-2.456 3.15-4.451 3.15-1.995 0-3.784-1.266-4.451-3.149-.097-.273.046-.573.319-.67.275-.097.574.047.67.32.519 1.465 1.91 2.45 3.461 2.45s2.941-.984 3.461-2.45c.097-.273.4-.417.67-.32.274.096.418.396.321.669z"/></svg>