<?xml version="1.0" encoding="UTF-8" standalone="no"?>
<svg
   xmlns:svg="http://www.w3.org/2000/svg"
   xmlns="http://www.w3.org/2000/svg"
   viewBox="0 0 47.5 47.5"
   style="enable-background:new 0 0 47.5 47.5;"
   xml:space="preserve"
   version="1.1"
   id="svg2">
   <defs
     id="defs6"><clipPath
       id="clipPath16"
       clipPathUnits="userSpaceOnUse"><path
         id="path18"
         d="M 0,38 38,38 38,0 0,0 0,38 Z" /></clipPath></defs><g
     transform="matrix(0.80794894,0,0,-0.80794894,8.3989702,39.100875)"
     id="g10"><path
       style="fill:#d97634;fill-opacity:1;fill-rule:nonzero;stroke:none;stroke-width:1.16677928"
       d="m 11.999379,34.168717 c -5.8338968,0 -12.83353334,-7.050477 -12.83353334,-18.669265 0,-17.5016888 10.49991974,-17.5015545 19.83415534,-17.5015545 9.334234,0 19.834155,-0.0013 19.834155,17.5015545 0,9.466081 -4.666079,18.669265 -12.833534,18.669265 H 19.000001 Z M 9.8219085,28.335806 c 0.6106645,-1.45e-4 1.2234815,-0.43404 1.6866925,-1.297457 l 2.521579,-4.704688 c 0.927589,-1.725667 -0.354676,-3.136458 -2.851584,-3.136458 H 8.465221 c -2.4957412,0 -3.7796593,1.410791 -2.8544027,3.136458 l 2.5272188,4.707509 c 0.4626269,0.862834 1.0732087,1.294782 1.6838714,1.294636 z m 18.3561835,0 c 0.610517,-1.45e-4 1.220662,-0.43404 1.683872,-1.297457 l 2.524398,-4.704688 c 0.926424,-1.725667 -0.357496,-3.136458 -2.854403,-3.136458 h -2.710553 c -2.494576,0 -3.780827,1.410791 -2.854404,3.136458 l 2.527218,4.707509 c 0.463211,0.862834 1.073355,1.294782 1.683872,1.294636 z M 18.153833,18.999763 h 2.002595 c 1.843513,0 2.791856,-1.041553 2.106957,-2.315677 l -1.864389,-3.474927 c -0.683731,-1.272955 -1.80283,-1.272955 -2.48773,0 l -1.864388,3.474927 c -0.683733,1.274124 0.264612,2.315677 2.106955,2.315677 z M 4.9987577,13.166853 c 0,-2e-6 5.8337873,-3.5003125 14.0012433,-3.5003125 1.647492,0 3.191933,0.1459592 4.620072,0.3723145 0.761906,-2.6847601 2.84047,-3.141547 4.71315,-0.95617 0.723402,0.8447497 1.093027,1.704336 1.133864,2.484912 2.225048,0.821412 3.534157,1.599256 3.534157,1.599256 0,-9.3342354 -10.500905,-9.3360434 -14.001243,-9.3360434 -1.331296,0 -3.675608,0.0056 -6.069838,0.5189824 0.0035,0.3780359 -0.02298,0.7787055 -0.112822,1.2325824 C 12.238617,8.4701537 10.347378,9.413537 8.614711,7.6808686 8.2763453,7.3425028 8.0484075,6.9767853 7.8757248,6.603417 6.1838948,7.9872166 4.9987577,10.048051 4.9987577,13.166853 Z"
       id="path22" /><g
       transform="matrix(1.1667793,0,0,1.1667793,22.352157,33.892992)"
       id="g28"><path
         id="path30"
         style="fill:#3f7123;fill-opacity:1;fill-rule:nonzero;stroke:none"
         d="m 0,0 c 0.069,-0.42 -0.222,-0.764 -0.647,-0.764 h -4.452 c -0.425,0 -0.717,0.344 -0.647,0.764 L -5,4.472 c 0.07,0.42 0.476,0.764 0.901,0.764 h 2.452 c 0.425,0 0.832,-0.344 0.901,-0.764 z" /></g><g
       transform="matrix(1.1667793,0,0,1.1667793,16.666441,33.001339)"
       id="g32"><path
         id="path34"
         style="fill:#5c913b;fill-opacity:1;fill-rule:nonzero;stroke:none"
         d="m 0,0 c 0,0 2,5 8,5 5,0 7,-5 7,-5 z" /></g></g></svg>