<svg xmlns="http://www.w3.org/2000/svg" viewBox="0 0 16 16"><title>BrandTwitter_white_16x</title><path d="M16,16H0V0H16Z" fill="#f6f6f6" opacity="0"/><path d="M14.362,4.737l.01.425A9.276,9.276,0,0,1,5.032,14.5,9.293,9.293,0,0,1,0,13.027a6.67,6.67,0,0,0,.783.046A6.584,6.584,0,0,0,4.86,11.667a3.286,3.286,0,0,1-3.066-2.28,3.284,3.284,0,0,0,1.482-.056A3.284,3.284,0,0,1,.642,6.113V6.071a3.269,3.269,0,0,0,1.487.41A3.285,3.285,0,0,1,1.114,2.1,9.316,9.316,0,0,0,7.88,5.529a3.284,3.284,0,0,1,5.593-2.993,6.577,6.577,0,0,0,2.085-.8,3.292,3.292,0,0,1-1.443,1.816A6.574,6.574,0,0,0,16,3.038a6.685,6.685,0,0,1-1.638,1.7Z" fill="#fff"/></svg>