<svg width="16" height="16" viewBox="0 0 16 16" fill="none" xmlns="http://www.w3.org/2000/svg">
<path d="M5.48195 6.008L3.22095 3.739L3.92695 3.033L4.99995 4.1V2.489C4.99903 2.29396 5.03661 2.10066 5.11055 1.92018C5.18449 1.73969 5.29333 1.57558 5.43083 1.43725C5.56832 1.29892 5.73177 1.18908 5.9118 1.11405C6.09184 1.03902 6.28491 1.00026 6.47995 1H8.97995V1.965H6.47995C6.34474 1.97095 6.21711 2.02908 6.12387 2.12716C6.03063 2.22525 5.97904 2.35567 5.97995 2.491L5.98795 4.091L6.99995 3.084L7.69995 3.784L5.48195 6.008Z" fill="white"/>
<path d="M3 7V14.979H12.021V7H3ZM11 14H4V8H11V14Z" fill="white"/>
<path d="M9.10745 12.8719C8.7495 12.9932 8.37331 13.0517 7.99545 13.0449C7.62432 13.0548 7.25648 12.973 6.92445 12.8069C6.63249 12.6574 6.39316 12.4222 6.23845 12.1329C6.07539 11.822 5.99353 11.475 6.00045 11.1239C5.99274 10.7405 6.08437 10.3615 6.26645 10.0239C6.43891 9.70923 6.69913 9.45144 7.01545 9.28194C7.3597 9.10143 7.7438 9.0103 8.13245 9.01694C8.46139 9.01575 8.78911 9.05709 9.10745 9.13994V10.2259C8.98739 10.1549 8.85673 10.1036 8.72045 10.0739C8.57154 10.0375 8.41875 10.0194 8.26545 10.0199C8.05874 10.0006 7.8515 10.0509 7.67653 10.1626C7.50156 10.2744 7.36887 10.4413 7.29945 10.6369C7.25205 10.7647 7.23162 10.9009 7.23945 11.0369C7.23133 11.173 7.25177 11.3093 7.29945 11.4369C7.34421 11.5642 7.41749 11.6796 7.51368 11.7742C7.60988 11.8689 7.72644 11.9403 7.85445 11.9829C7.98233 12.0298 8.11854 12.0495 8.25445 12.0409C8.55346 12.0375 8.84743 11.9635 9.11245 11.8249L9.10745 12.8719Z" fill="white"/>
<path d="M11.9 5.00001H10V1.02001H11.447C11.697 1.00802 11.9473 1.0388 12.187 1.11101C12.3574 1.18046 12.4987 1.30654 12.587 1.46801C12.6959 1.66553 12.7501 1.88854 12.744 2.11401C12.752 2.28849 12.7241 2.46276 12.662 2.62601C12.5972 2.76191 12.5069 2.88411 12.396 2.98601C12.5299 3.09172 12.6411 3.22334 12.723 3.37301C12.7969 3.54309 12.8311 3.72776 12.823 3.91301C12.8373 4.19722 12.7485 4.47704 12.573 4.70101C12.4919 4.79981 12.3887 4.87829 12.2719 4.9302C12.1551 4.98211 12.0277 5.00602 11.9 5.00001ZM11.228 1.82201H11.2V2.60001H11.231C11.2806 2.60479 11.3306 2.59935 11.378 2.58401C11.4253 2.56976 11.4692 2.54593 11.507 2.51401C11.5711 2.4328 11.6012 2.32994 11.591 2.22701C11.6021 2.11651 11.5737 2.00565 11.511 1.91401C11.4728 1.88094 11.4283 1.856 11.3802 1.8407C11.332 1.8254 11.2813 1.82006 11.231 1.82501L11.228 1.82201ZM11.218 3.26901H11.2V4.12401H11.237C11.2895 4.12918 11.3426 4.12374 11.393 4.10801C11.4434 4.09234 11.49 4.06647 11.53 4.03201C11.5972 3.94192 11.6279 3.82978 11.616 3.71801C11.6292 3.59487 11.5988 3.47101 11.53 3.36801C11.4884 3.3307 11.4393 3.30274 11.386 3.28601C11.3328 3.26888 11.2766 3.26309 11.221 3.26901H11.218Z" fill="white"/>
</svg>
