<svg width="16" height="16" viewBox="0 0 16 16" fill="none" xmlns="http://www.w3.org/2000/svg">
<path d="M1 11.5V10.625H9.75V11.5H1ZM1 7.125H15V8H1V7.125ZM12.375 3.625V4.5H1V3.625H12.375Z" fill="white"/>
<path d="M1 11.5H0.5V12H1V11.5ZM1 10.625V10.125H0.5V10.625H1ZM9.75 10.625H10.25V10.125H9.75V10.625ZM9.75 11.5V12H10.25V11.5H9.75ZM1 7.125V6.625H0.5V7.125H1ZM15 7.125H15.5V6.625H15V7.125ZM15 8V8.5H15.5V8H15ZM1 8H0.5V8.5H1V8ZM12.375 3.625H12.875V3.125H12.375V3.625ZM12.375 4.5V5H12.875V4.5H12.375ZM1 4.5H0.5V5H1V4.5ZM1 3.625V3.125H0.5V3.625H1ZM1.5 11.5V10.625H0.5V11.5H1.5ZM1 11.125H9.75V10.125H1V11.125ZM9.25 10.625V11.5H10.25V10.625H9.25ZM9.75 11H1V12H9.75V11ZM1 7.625H15V6.625H1V7.625ZM14.5 7.125V8H15.5V7.125H14.5ZM15 7.5H1V8.5H15V7.5ZM1.5 8V7.125H0.5V8H1.5ZM11.875 3.625V4.5H12.875V3.625H11.875ZM12.375 4H1V5H12.375V4ZM1.5 4.5V3.625H0.5V4.5H1.5ZM1 4.125H12.375V3.125H1V4.125Z" fill="white"/>
</svg>
