<?xml version="1.0" encoding="UTF-8" standalone="no"?>
<!DOCTYPE svg PUBLIC "-//W3C//DTD SVG 1.1//EN" "http://www.w3.org/Graphics/SVG/1.1/DTD/svg11.dtd">
<svg width="100%" height="100%" viewBox="0 0 261 260" version="1.1" xmlns="http://www.w3.org/2000/svg" xmlns:xlink="http://www.w3.org/1999/xlink" xml:space="preserve" style="fill-rule:evenodd;clip-rule:evenodd;stroke-linejoin:round;stroke-miterlimit:1.41421;">
    <g transform="matrix(1,0,0,1,-879,-85)">
        <g transform="matrix(2.18487,0,0,2.18487,-1105.77,-365.084)">
            <path d="M998.014,308.205L998.014,206L1027.76,218.376L1027.76,312.624L998.014,325L908.764,294.95L998.014,308.205ZM939.441,263.274L922.983,275.668L916.201,273.403L932.944,256.853L916.201,240.303L922.983,238.038L939.441,250.431L966.774,223.412C966.774,223.412 983.139,230.368 983.139,230.368L983.139,283.336L966.774,290.292L939.441,263.274ZM947.969,256.852L966.774,271.013L966.774,242.691L947.969,256.852Z" style="fill-opacity:0.301961;"/>
        </g>
    </g>
</svg>
