<svg width="16" height="16" viewBox="0 0 16 16" fill="none" xmlns="http://www.w3.org/2000/svg">
<path d="M2.56461 12.1067L4.00106 9.95201L3.89845 9.6442L1.33337 9.02858V6.97652L3.89845 6.4635L4.00106 6.15569L2.56461 4.00103L4.00106 2.56458L6.15572 4.00103L6.46353 3.89842L6.97655 1.33334H9.02861L9.54163 3.89842L9.84944 4.00103L12.0041 2.56458L13.4406 4.00103L12.0041 6.15569L12.1067 6.4635L14.6718 6.97652V9.02858L12.1067 9.5416L12.0041 9.84941L13.4406 12.0041L12.0041 13.4405L9.84944 12.0041L9.54163 12.2093L9.02861 14.7744H6.97655L6.46353 12.2093L6.15572 12.1067L4.00106 13.5431L2.56461 12.1067Z" stroke="white"/>
<circle cx="8.00004" cy="8.00001" r="2.16667" stroke="white"/>
</svg>
