<svg width="16" height="16" viewBox="0 0 16 16" fill="none" xmlns="http://www.w3.org/2000/svg">
<path d="M14 7V15H2V7H4V5.07812C4 4.51562 4.10156 3.98698 4.30469 3.49219C4.50781 2.9974 4.78906 2.5651 5.14844 2.19531C5.50781 1.82552 5.92969 1.53385 6.41406 1.32031C6.90365 1.10677 7.43229 1 8 1C8.56771 1 9.09375 1.10677 9.57812 1.32031C10.0677 1.53385 10.4922 1.82552 10.8516 2.19531C11.2109 2.5651 11.4922 2.9974 11.6953 3.49219C11.8984 3.98698 12 4.51562 12 5.07812V7H14ZM5 7H11V5.07812C11 4.65625 10.9245 4.26042 10.7734 3.89062C10.6224 3.51562 10.4115 3.1875 10.1406 2.90625C9.875 2.625 9.55729 2.40365 9.1875 2.24219C8.82292 2.08073 8.42708 2 8 2C7.57292 2 7.17448 2.08073 6.80469 2.24219C6.4401 2.40365 6.1224 2.625 5.85156 2.90625C5.58594 3.1875 5.3776 3.51562 5.22656 3.89062C5.07552 4.26042 5 4.65625 5 5.07812V7ZM13 8H3V14H13V8Z" fill="white"/>
</svg>
