<svg width="16" height="16" viewBox="0 0 16 16" fill="none" xmlns="http://www.w3.org/2000/svg">
<path d="M14 8V15H2V8H11V5C11 4.57292 10.9219 4.17708 10.7656 3.8125C10.6146 3.44792 10.4036 3.13281 10.1328 2.86719C9.86719 2.59635 9.55208 2.38542 9.1875 2.23438C8.82292 2.07812 8.42708 2 8 2C7.57292 2 7.17708 2.07812 6.8125 2.23438C6.44792 2.38542 6.13021 2.59635 5.85938 2.86719C5.59375 3.13281 5.38281 3.44792 5.22656 3.8125C5.07552 4.17708 5 4.57292 5 5H4C4 4.43229 4.10156 3.90625 4.30469 3.42188C4.50781 2.93229 4.78906 2.50781 5.14844 2.14844C5.50781 1.78906 5.92969 1.50781 6.41406 1.30469C6.90365 1.10156 7.43229 1 8 1C8.56771 1 9.09375 1.10156 9.57812 1.30469C10.0677 1.50781 10.4922 1.78906 10.8516 2.14844C11.2109 2.50781 11.4922 2.93229 11.6953 3.42188C11.8984 3.90625 12 4.43229 12 5V8H14ZM13 9H3V14H13V9Z" fill="white"/>
</svg>
