<svg width="128" height="128" viewBox="0 0 128 128" fill="none" xmlns="http://www.w3.org/2000/svg">
<path d="M6 93.2529V37.8398H10C10 40.8834 11.5856 43.6395 14.084 45.1855L14.3291 45.332L14.333 45.334L60.667 72.0713V116.347C60.6669 118.957 59.2702 121.374 57.0039 122.689C54.7312 124.009 51.9403 124.01 49.667 122.692L9.66699 99.5986L9.45215 99.4697C7.30992 98.1291 6 95.7813 6 93.2529ZM10 93.2529C10 94.4295 10.6306 95.5326 11.6709 96.1367L51.667 119.228L51.6709 119.23C52.7033 119.83 53.9637 119.83 54.9961 119.23C56.0363 118.626 56.6669 117.523 56.667 116.347V74.3818L12.334 48.7988C11.4848 48.3111 10.703 47.7295 10 47.0713V93.2529Z" fill="#3C3C3C"/>
<path d="M56.667 11.6533C56.6669 10.4769 56.0363 9.37358 54.9961 8.76956C53.9638 8.17014 52.7032 8.17019 51.6709 8.76956L51.666 8.77248L14.333 30.3194C11.6446 31.8825 10.0002 34.7424 10 37.8399C10 40.8835 11.5854 43.6405 14.084 45.1865L14.3291 45.3321L14.333 45.335L56.667 69.7637V11.6533ZM60.667 76.6905L12.3379 48.8008C8.47075 46.5817 6 42.4312 6 37.8399C6.00017 33.3128 8.40716 29.1347 12.3291 26.8574L12.334 26.8545L49.6621 5.31155C51.9363 3.99105 54.7297 3.99021 57.0039 5.31057C59.2701 6.62645 60.6669 9.04345 60.667 11.6533V76.6905Z" fill="#3C3C3C"/>
<path d="M67.3334 11.6533C67.3335 9.0435 68.7293 6.62647 70.9955 5.31057C73.2697 3.99008 76.063 3.99021 78.3373 5.31057L78.3363 5.31155L118.333 28.4014L118.337 28.4043C120.604 29.7203 122 32.1371 122 34.7471V90.1602H118C118 87.0185 116.31 84.1823 113.671 82.668L113.666 82.6651L67.3334 55.9014V11.6533ZM71.3334 53.5928L115.662 79.1992L116.021 79.4121C116.734 79.8534 117.396 80.3622 118 80.9278V34.7471C118 33.5706 117.37 32.4674 116.329 31.8633L76.3334 8.77248L76.3295 8.76956C75.2971 8.17014 74.0366 8.17019 73.0043 8.76956C71.964 9.37357 71.3335 10.4768 71.3334 11.6533V53.5928Z" fill="#3C3C3C"/>
<path d="M118 90.1599C118 87.0182 116.31 84.1829 113.671 82.6686L113.666 82.6657L71.3334 58.2106V116.346C71.3334 117.523 71.964 118.626 73.0043 119.23C74.0366 119.83 75.2971 119.83 76.3295 119.23L76.3334 119.228L113.667 97.6813C116.361 96.1153 118 93.3052 118 90.1599ZM122 90.1599C122 94.7459 119.588 98.8687 115.671 101.143L115.666 101.145L78.3363 122.689L78.3373 122.69C76.0631 124.01 73.2696 124.011 70.9955 122.69C68.7292 121.374 67.3334 118.956 67.3334 116.346V51.2819L115.662 79.1989L116.021 79.4128C119.682 81.678 122 85.7121 122 90.1599Z" fill="#3C3C3C"/>
</svg>
