<svg xmlns="http://www.w3.org/2000/svg" width="32" height="32"><defs><clipPath><path d="M.06 91.886h91.828v-91.886h-91.828v91.886z"/></clipPath><clipPath id="a"><path d="M0 0h92v92h-92v-92z"/></clipPath></defs><path d="M28.497 14.84l-11.354-11.353c-.653-.654-1.714-.654-2.368 0l-2.357 2.358 2.99 2.991c.695-.235 1.492-.077 2.046.477.557.558.713 1.361.473 2.059l2.882 2.882c.698-.241 1.502-.085 2.059.473.778.778.778 2.039 0 2.818-.779.779-2.04.779-2.819 0-.586-.586-.73-1.446-.434-2.167l-2.688-2.688v7.074c.19.094.369.219.527.377.778.778.778 2.039 0 2.819-.778.778-2.04.778-2.818 0-.778-.779-.778-2.04 0-2.819.192-.192.415-.338.653-.435v-7.14c-.237-.097-.46-.241-.653-.435-.589-.589-.731-1.455-.429-2.179l-2.948-2.949-7.785 7.785c-.654.655-.654 1.715 0 2.369l11.354 11.353c.654.654 1.714.654 2.369 0l11.3-11.301c.654-.654.654-1.715 0-2.369" fill="#424242" clip-path="url(#a)"/></svg>