<svg width="16" height="16" viewBox="0 0 16 16" fill="none" xmlns="http://www.w3.org/2000/svg">
<path fill-rule="evenodd" clip-rule="evenodd" d="M9.88465 1.69445L8.57246 3H11.346C11.5656 3 11.783 3.04327 11.9858 3.12734C12.1886 3.2114 12.3729 3.33461 12.5281 3.48993C12.6833 3.64525 12.8063 3.82963 12.8902 4.03253C12.9741 4.23543 13.0172 4.45287 13.017 4.67243L12.517 4.672H13.017V4.67243V10.4539C13.8823 10.6794 14.521 11.4661 14.521 12.402C14.521 13.5138 13.6198 14.415 12.508 14.415C11.3963 14.415 10.495 13.5138 10.495 12.402C10.495 11.4596 11.1426 10.6685 12.017 10.4493V4.672V4.67158C12.0171 4.58341 11.9998 4.4961 11.9661 4.41462C11.9324 4.33314 11.883 4.25911 11.8207 4.19674C11.7584 4.13437 11.6844 4.08489 11.6029 4.05114C11.5215 4.01738 11.4342 4 11.346 4H8.53857L9.83833 5.34332L9.11967 6.03868L7.00067 3.84868L7.00735 3.14655L9.17935 0.98555L9.88465 1.69445ZM11.495 12.402C11.495 11.8425 11.9485 11.389 12.508 11.389C13.0675 11.389 13.521 11.8425 13.521 12.402C13.521 12.9615 13.0675 13.415 12.508 13.415C11.9485 13.415 11.495 12.9615 11.495 12.402ZM2.499 3.513C2.499 2.95354 2.95254 2.5 3.512 2.5C4.07147 2.5 4.525 2.95354 4.525 3.513C4.525 4.07247 4.07147 4.526 3.512 4.526C2.95254 4.526 2.499 4.07247 2.499 3.513ZM3.512 1.5C2.40025 1.5 1.499 2.40125 1.499 3.513C1.499 4.44783 2.13622 5.23382 3 5.46031V11.307C3 11.7502 3.17605 12.1752 3.48942 12.4886C3.8028 12.802 4.22782 12.978 4.671 12.978H7.44813L6.13543 14.2835L6.84057 14.9925L9.01257 12.8325L9.01941 12.1304L6.90041 9.93939L6.18159 10.6346L7.48086 11.978H4.671C4.49304 11.978 4.32237 11.9073 4.19653 11.7815C4.07069 11.6556 4 11.485 4 11.307V5.46645C4.87595 5.24833 5.525 4.45646 5.525 3.513C5.525 2.40125 4.62375 1.5 3.512 1.5Z" fill="#424242"/>
</svg>
