<svg xmlns="http://www.w3.org/2000/svg" viewBox="0 0 16 16"><defs><style>.icon-canvas-transparent,.icon-vs-out{fill:#f6f6f6;}.icon-canvas-transparent{opacity:0;}.icon-vs-bg{fill:#424242;}.icon-vs-action-blue{fill:#00539c;}</style></defs><title>Compare_16x</title><g id="canvas"><path class="icon-canvas-transparent" d="M16,0V16H0V0Z"/></g><g id="outline" style="display: none;"><path class="icon-vs-out" d="M16,11H12.121l1.939,1.94a1.5,1.5,0,1,1-2.12,2.12L9.433,12.554A4.4,4.4,0,0,1,9,12.735V16H0V5H4.706A4.445,4.445,0,0,1,7,4.051V0h5.621L16,3.379Z" style="display: none;"/></g><g id="iconBg"><path class="icon-vs-bg" d="M15,3.793V10H11.735a4.4,4.4,0,0,0,.237-1H14V4.207L11.793,2H9V4.276a4.485,4.485,0,0,0-1-.225V1h4.207ZM7,12.949V14H2V7H3.276a4.493,4.493,0,0,1,.486-1H1v9H8V12.972A4.612,4.612,0,0,1,7.5,13,4.342,4.342,0,0,1,7,12.949Z"/></g><g id="colorAction"><path class="icon-vs-action-blue" d="M13.354,13.646l-3-3a.545.545,0,0,0-.071-.047A3.462,3.462,0,0,0,11,8.5,3.5,3.5,0,1,0,7.5,12a3.462,3.462,0,0,0,2.1-.717.57.57,0,0,0,.047.07l3,3a.5.5,0,1,0,.708-.707ZM7.5,11A2.5,2.5,0,1,1,10,8.5,2.5,2.5,0,0,1,7.5,11Z"/></g></svg>