<svg width="16" height="16" viewBox="0 0 16 16" fill="none" xmlns="http://www.w3.org/2000/svg">
<path d="M12.508 13.915C13.3436 13.915 14.021 13.2376 14.021 12.402C14.021 11.5664 13.3436 10.889 12.508 10.889C11.6724 10.889 10.995 11.5664 10.995 12.402C10.995 13.2376 11.6724 13.915 12.508 13.915Z" stroke="#424242" stroke-miterlimit="10"/>
<path d="M12.517 11.043V4.672C12.5171 4.51814 12.4869 4.36576 12.4281 4.22357C12.3694 4.08138 12.2831 3.95217 12.1744 3.84333C12.0656 3.73449 11.9365 3.64814 11.7944 3.58923C11.6522 3.53032 11.4999 3.5 11.346 3.5H7.793" stroke="#424242" stroke-miterlimit="10"/>
<path d="M9.479 5.691L7.36 3.501L9.532 1.34" stroke="#424242" stroke-linejoin="bevel"/>
<path d="M3.512 5.09C4.34761 5.09 5.025 4.4126 5.025 3.577C5.025 2.74139 4.34761 2.064 3.512 2.064C2.67639 2.064 1.999 2.74139 1.999 3.577C1.999 4.4126 2.67639 5.09 3.512 5.09Z" stroke="#424242" stroke-miterlimit="10"/>
<path d="M3.5 4.936V11.307C3.5 11.6176 3.62337 11.9154 3.84298 12.135C4.06258 12.3546 4.36043 12.478 4.671 12.478H8.227" stroke="#424242" stroke-miterlimit="10"/>
<path d="M6.541 10.287L8.66 12.478L6.488 14.638" stroke="#424242" stroke-linejoin="bevel"/>
</svg>
