<svg id="Layer_1" xmlns="http://www.w3.org/2000/svg" width="260" height="260" viewBox="0 0 260 260"><style>.st0{opacity:.25}.st1{opacity:3e-2}.st2{fill:#fff}</style><path d="M194 2L92.4 103.6 27.6 53.2 2 66v128l25.6 12.8 64.8-50.4L194 258l64-25.6V27.6L194 2zM27 169V91l39 39-39 39zm99.4-39L194 77v106l-67.6-53z" class="st0"/><path class="st1 st2" d="M194 2l64 25.6v204.8L194 258 92.4 156.4l-64.8 50.4L2 194V66l25.6-12.8 64.8 50.4L194 2m0 181V77l-67.6 53 67.6 53M27 169l39-39-39-39v78M193.8.8l-.5.5-101 101-64.1-49.9-.5-.4-.6.3L1.6 65.1l-.6.3v129.2l.6.3 25.6 12.8.6.3.5-.4 64.1-49.9 101 101 .5.5.6-.2 64-25.6.6-.3V26.9l-.6-.3-64-25.6-.7-.2zM128 130l65-50.9V181l-65-51zM28 166.6V93.4L64.6 130 28 166.6z"/></svg>