<svg xmlns="http://www.w3.org/2000/svg" xmlns:xlink="http://www.w3.org/1999/xlink" width="100%" height="100%" version="1.1" viewBox="0 0 260 260" xml:space="preserve" style="fill-rule:evenodd;clip-rule:evenodd;stroke-linejoin:round;stroke-miterlimit:1.41421"><g><g><g><g opacity=".3"><g><path d="M841,1317L596,1317L596,1101L841,1101L841,1317ZM601.654,1106.79L601.654,1311.21L835.346,1311.21L835.346,1106.79L601.654,1106.79Z" transform="matrix(1,0,0,1,-875,-1078) matrix(1,0,0,1,0,999) matrix(1,0,0,1,286,2.27374e-13) matrix(1.06122,0,0,1.03704,-43.4898,-1044.78)"/></g><g transform="matrix(1,0,0,1,-875,-1078) matrix(1,0,0,1,0,999) matrix(1,0,0,1,286,2.27374e-13) matrix(1,0,0,1,1,-999)"><rect width="18" height="216" x="665" y="1100"/></g><g transform="matrix(1,0,0,1,-875,-1078) matrix(1,0,0,1,0,999) matrix(1,0,0,1,286,2.27374e-13) matrix(1,0,0,1,0,-1000)"><rect width="70" height="18" x="701" y="1121"/></g><g transform="matrix(1,0,0,1,-875,-1078) matrix(1,0,0,1,0,999) matrix(1,0,0,1,286,2.27374e-13) matrix(1,0,0,1,0,-860)"><rect width="70" height="18" x="701" y="1121"/></g><g transform="matrix(1,0,0,1,-875,-1078) matrix(1,0,0,1,0,999) matrix(1,0,0,1,286,2.27374e-13) matrix(1.25714,0,0,1,-162.757,-965)"><rect width="70" height="18" x="701" y="1121"/></g><g transform="matrix(1,0,0,1,-875,-1078) matrix(1,0,0,1,0,999) matrix(1,0,0,1,286,2.27374e-13) matrix(1.25714,0,0,1,-162.757,-930)"><rect width="70" height="18" x="701" y="1121"/></g><g transform="matrix(1,0,0,1,-875,-1078) matrix(1,0,0,1,0,999) matrix(1,0,0,1,286,2.27374e-13) matrix(1.25714,0,0,1,-162.757,-895)"><rect width="70" height="18" x="701" y="1121"/></g></g></g></g></g></svg>