<svg width="1024" height="1024" viewBox="0 0 1024 1024" fill="none" xmlns="http://www.w3.org/2000/svg">
<path fill-rule="evenodd" clip-rule="evenodd" d="M512 272C512.147 272 512.295 272 512.443 272V272C630.843 272.072 632.106 276.973 655.38 367.325L655.38 367.327C660.791 388.332 667.392 413.956 676.93 445.211C705.802 539.814 711.284 553.626 717.592 569.517C722.403 581.638 727.694 594.969 744.209 646.279C781.44 761.944 737.38 912.626 512.443 919.972V920C512.295 919.995 512.147 919.991 512 919.986C511.853 919.991 511.705 919.995 511.557 920V919.972C286.62 912.626 242.56 761.944 279.791 646.279C296.306 594.969 301.597 581.638 306.408 569.517C312.716 553.626 318.198 539.814 347.07 445.211C356.609 413.955 363.209 388.331 368.62 367.326L368.62 367.325C391.894 276.973 393.157 272.072 511.557 272V272C511.705 272 511.853 272 512 272Z" fill="#3C3C3C"/>
<circle cx="630" cy="534" r="26" fill="#626262"/>
<path fill-rule="evenodd" clip-rule="evenodd" d="M573.249 255.663L572.778 256.078C572.761 255.923 572.743 255.745 572.723 255.543C572.528 255.498 572.355 255.457 572.205 255.421L572.671 255.005C571.676 244.259 568.386 188.289 603.026 150.232C638.314 111.464 714.063 116.672 726.323 117.795L726.528 117.612L728.07 117.648C728.07 117.648 726.79 205.431 680.263 238.549C638.361 268.377 583.699 258.017 573.249 255.663Z" fill="#3C3C3C"/>
<path d="M692 694.077C692 755.196 608 800 608 800C608 800 656 755.196 656 694.077C656 632.958 612.8 608.706 644 597.639C675.2 586.573 692 632.958 692 694.077Z" fill="#626262"/>
</svg>
