<svg width="260" height="260" viewBox="0 0 260 260" fill="none" xmlns="http://www.w3.org/2000/svg">
<path d="M220 16H40C17.909 16 0 33.909 0 56V204C0 226.091 17.909 244 40 244H220C242.091 244 260 226.091 260 204V56C260 33.909 242.091 16 220 16ZM12 204V56C12 40.561 24.561 28 40 28H75V232H40C24.561 232 12 219.439 12 204ZM248 204C248 219.439 235.439 232 220 232H87V28H220C235.439 28 248 40.561 248 56V204ZM112 58C112 54.686 114.686 52 118 52H187C190.314 52 193 54.686 193 58C193 61.314 190.314 64 187 64H118C114.686 64 112 61.314 112 58ZM193 202C193 205.314 190.314 208 187 208H118C114.686 208 112 205.314 112 202C112 198.686 114.686 196 118 196H187C190.314 196 193 198.686 193 202ZM222 94C222 97.314 219.314 100 216 100H147C143.686 100 141 97.314 141 94C141 90.686 143.686 88 147 88H216C219.314 88 222 90.686 222 94ZM222 130C222 133.314 219.314 136 216 136H147C143.686 136 141 133.314 141 130C141 126.686 143.686 124 147 124H216C219.314 124 222 126.686 222 130ZM222 166C222 169.314 219.314 172 216 172H147C143.686 172 141 169.314 141 166C141 162.686 143.686 160 147 160H216C219.314 160 222 162.686 222 166Z" fill="#3C3C3C"/>
</svg>
