<svg width="366" height="337" viewBox="0 0 366 337" fill="none" xmlns="http://www.w3.org/2000/svg">
<path d="M186.823 287.207H192.136L194.197 282.309L227.079 204.164L227.087 204.144L227.095 204.125C228.382 201.021 230.185 196.684 232.506 191.113C234.389 186.59 236.355 181.776 238.403 176.672C238.399 178.257 238.397 179.842 238.397 181.428C238.397 190.408 238.461 198.939 238.591 207.021C238.721 215.083 238.915 221.659 239.18 226.716C239.18 226.728 239.181 226.739 239.181 226.75L241.499 279.557L241.835 287.207H249.492H309.452H317.936L317.438 278.737L309.701 147.134L301.964 15.5305L301.522 8H293.978H240.207H234.781L232.774 13.0417L172.454 164.601C170.31 169.724 167.746 176.541 164.771 184.991C164.406 186.028 164.041 187.074 163.678 188.128C163.272 186.94 162.864 185.765 162.455 184.603C159.479 176.151 157.062 169.517 155.213 164.739L155.199 164.703L155.185 164.667L94.838 13.0417L92.8314 8H87.4051H32.4736H24.9301L24.4874 15.5305L9.01379 278.737L8.51588 287.207H17H75.7998H83.5126L83.7945 279.499L85.726 226.699C85.9902 221.889 86.1843 215.445 86.3133 207.41C86.443 199.327 86.5077 190.731 86.5077 181.622V181.569V181.516V181.462V181.409V181.356V181.303V181.25V181.197V181.144V181.091V181.037V180.984V180.931V180.878V180.825V180.772V180.719V180.666V180.613V180.559V180.506V180.453V180.4V180.347V180.294V180.241V180.188V180.135V180.082V180.029V179.976V179.923V179.869V179.816V179.763V179.71V179.657V179.604V179.551V179.498V179.445V179.392V179.339V179.286V179.233V179.18V179.127V179.074V179.021V178.968V178.915V178.862V178.809V178.756V178.703V178.65V178.597V178.544V178.491V178.438V178.385V178.332V178.279V178.226V178.173V178.12V178.067V178.014V177.961V177.908V177.855V177.803V177.75V177.697V177.644V177.591V177.538V177.485V177.432V177.379V177.326V177.273V177.22V177.167V177.115V177.062V177.009V176.956V176.903V176.85V176.797V176.744V176.691V176.639V176.586V176.533V176.48V176.427V176.374V176.321V176.268V176.216V176.163V176.11V176.057V176.004V175.951V175.899V175.846V175.793V175.74V175.687V175.634V175.582V175.529V175.476V175.423V175.37V175.367C86.6999 175.873 86.8917 176.378 87.0831 176.882C89.7993 184.031 92.2608 190.411 94.4669 196.02C96.6613 201.598 98.1195 205.359 98.8651 207.357L98.9337 207.541L99.0113 207.721L131.119 282.368L133.201 287.207H138.468H186.823Z" stroke="#ddd" stroke-width="16"/>
<rect x="317.021" y="287.531" width="40.9796" height="40.9796" stroke="#ddd" stroke-width="16"/>
</svg>
