<?xml version="1.0" encoding="utf-8"?>
<!-- Generator: Adobe Illustrator 19.2.0, SVG Export Plug-In . SVG Version: 6.00 Build 0)  -->
<svg version="1.1" xmlns="http://www.w3.org/2000/svg" xmlns:xlink="http://www.w3.org/1999/xlink" x="0px" y="0px"
	 viewBox="0 0 16 16" style="enable-background:new 0 0 16 16;" xml:space="preserve">
<style type="text/css">
	.st0{fill:#C5C5C5;}
</style>
<g id="outline">
</g>
<g id="icon_x5F_bg">
	<path class="st0" d="M7.6,5H3c0,0-1,0-1,1c0,0.8,0,5.4,0,8c0,1,1,1,1,1s1.5,0,3,0s3,0,3,0s1,0,1-1c0-2.6,0-6.9,0-6.9L7.6,5z M9,14
		H3V6h4v2h2V14z"/>
	<path class="st0" d="M9.6,3H5c0,0-1,0-1,1h5v0.9L10.2,6H11v7c1,0,1-1,1-1V5.1L9.6,3z"/>
	<path class="st0" d="M11.6,1H7c0,0-1,0-1,1h5v0.9L12.2,4H13v7c1,0,1-1,1-1V3.1L11.6,1z"/>
</g>
<g id="color_x5F_action">
</g>
<g id="icon_x5F_fg">
</g>
</svg>
