<?xml version="1.0" encoding="utf-8"?>
<!-- Generator: Adobe Illustrator 19.1.0, SVG Export Plug-In . SVG Version: 6.00 Build 0)  -->
<svg version="1.1" xmlns="http://www.w3.org/2000/svg" xmlns:xlink="http://www.w3.org/1999/xlink" x="0px" y="0px"
	 viewBox="0 0 10.3 10" style="enable-background:new 0 0 10.3 10;" xml:space="preserve">
<style type="text/css">
	.st0{display:none;}
	.st1{display:inline;opacity:0.2;fill:#ED1C24;}
	.st2{display:inline;opacity:0.43;fill:#39B54A;}
	.st3{fill:#353535;}
	.st4{fill:#FFFFFF;}
	.st5{display:inline;opacity:0.8;fill:#353535;}
	.st6{display:inline;}
	.st7{display:inline;opacity:0.8;fill:#321F5A;}
	.st8{opacity:0.15;fill:#353535;}
	.st9{display:inline;opacity:0.34;}
	.st10{fill:#070909;}
	.st11{fill:#333333;}
	.st12{fill:#7551A0;}
	.st13{fill:#D2D2D2;}
	.st14{fill:#E6E7E8;}
	.st15{fill:#3076BC;}
	.st16{display:none;fill:#3076BC;}
	.st17{display:inline;fill:#321F5A;}
	.st18{fill:#D63F26;}
	.st19{display:none;fill:none;stroke:#BCBEC0;stroke-miterlimit:10;}
	.st20{opacity:0.52;}
	.st21{fill:none;stroke:#BE1E2D;stroke-miterlimit:10;}
	.st22{fill:#BE1E2D;}
	.st23{display:none;opacity:0.2;}
	.st24{display:inline;opacity:0.2;}
	.st25{fill:#656565;}
	.st26{fill:#D1D3D4;}
	.st27{fill:#EEEEEE;}
	.st28{display:none;fill-rule:evenodd;clip-rule:evenodd;fill:#F4F4F4;}
	.st29{fill:#505150;}
	.st30{display:none;fill:#BFD8E8;}
	.st31{fill:#224096;}
	.st32{fill:#17244E;}
	.st33{display:inline;fill:#353535;}
	.st34{display:none;fill:#F1F2F2;}
	.st35{fill:#009444;}
	.st36{fill:none;stroke:#505150;stroke-miterlimit:10;}
	.st37{fill:#B9D532;}
	.st38{fill:none;stroke:#D9D9D8;stroke-width:0.72;stroke-linejoin:round;stroke-miterlimit:10;}
	.st39{fill:none;stroke:#D2D2D2;stroke-miterlimit:10;}
	.st40{display:inline;fill:#333333;}
	.st41{display:inline;fill:#7551A0;}
	.st42{display:inline;fill:#D2D2D2;}
	.st43{fill-rule:evenodd;clip-rule:evenodd;fill:#EEEEEE;}
	.st44{fill:#321F5A;}
	.st45{fill:none;stroke:#BCBEC0;stroke-miterlimit:10;}
	.st46{opacity:0.53;fill:#FFFFFF;}
	.st47{fill:none;stroke:#ED1C24;stroke-miterlimit:10;}
	.st48{fill:#ED1C24;}
	.st49{display:inline;opacity:0.1;fill:#E71E27;}
	.st50{display:inline;opacity:0.3;}
	.st51{fill:#E71E27;}
	.st52{display:inline;opacity:0.2;fill:#E71E27;}
	.st53{display:inline;fill:none;stroke:#ED1C24;stroke-miterlimit:10;}
	.st54{fill:none;stroke:#2E3192;stroke-miterlimit:10;}
	.st55{fill:#2E3192;}
	.st56{fill:none;stroke:#FFF200;stroke-miterlimit:10;}
	.st57{fill:#FFF200;}
</style>
<g id="grids">
</g>
<g id="Layer_2" class="st0">
</g>
<g id="home">
</g>
<g id="VSOdetails">
	<g id="overview2">
	</g>
</g>
<g id="reviews">
</g>
<g id="QA_2">
</g>
<g id="CARDS-RL">
	<g>
		<g>
			<path class="st13" d="M8,9.7c-0.1,0-0.2,0-0.2-0.1L5.1,7.8L2.5,9.6c-0.1,0.1-0.3,0.1-0.5,0C1.9,9.5,1.9,9.4,1.9,9.2l1-3.1
				L0.3,4.2C0.2,4.1,0.1,4,0.2,3.8c0.1-0.2,0.2-0.3,0.4-0.3h3.2l1-3.1C4.8,0.3,5,0.2,5.1,0.2c0.2,0,0.3,0.1,0.4,0.3l1,3.1h3.2
				c0.2,0,0.3,0.1,0.4,0.3c0.1,0.2,0,0.3-0.1,0.5L7.4,6.1l1,3.1c0.1,0.2,0,0.3-0.1,0.5C8.2,9.7,8.1,9.7,8,9.7z"/>
		</g>
	</g>
</g>
<g id="sticky">
</g>
<g id="REDLINES" class="st0">
</g>
</svg>
