<svg xmlns="http://www.w3.org/2000/svg" width="32" height="32"><path d="M18.461 10.959h-2.538l2.538 2.539h-4.23c-2.337 0-4.23 1.893-4.23 4.23 0 2.336 1.894 4.23 4.23 4.23v-1.691c-1.402 0-2.539-1.139-2.539-2.539 0-1.402 1.137-2.539 2.539-2.539h4.23l-2.538 2.539h2.538l3.385-3.385-3.385-3.384zm-2.461-8.918c-7.72 0-14 6.271-14 13.979 0 7.709 6.28 13.98 14 13.98s14-6.271 14-13.979c0-7.709-6.28-13.98-14-13.98zm0 25.959c-6.617 0-12-5.374-12-11.979s5.383-11.98 12-11.98 12 5.374 12 11.979-5.383 11.98-12 11.98z" fill="#fff"/></svg>