<svg xmlns="http://www.w3.org/2000/svg" viewBox="0 0 16 16"><circle cx="8" cy="8" r="6.5" fill="none" stroke="#424242"/><path d="M7.25 4.074A4.011 4.011 0 0 0 4.076 7.25h1.03A2.985 2.985 0 0 1 7.25 5.106zm1.5 0v1.031a2.985 2.985 0 0 1 2.144 2.145h1.03A4.011 4.011 0 0 0 8.75 4.074zM4.076 8.75a4.012 4.012 0 0 0 3.174 3.176v-1.031A2.985 2.985 0 0 1 5.106 8.75zm6.819 0a2.985 2.985 0 0 1-2.145 2.144v1.032a4.011 4.011 0 0 0 3.174-3.176z" color="#000" fill="#424242" solid-color="#000"/><path d="M3 8h3M8 10v3M10 8h3M8 3v3" fill="none" stroke="388a34"/></svg>
