<svg width="26" height="16" viewBox="0 0 26 16" fill="none" xmlns="http://www.w3.org/2000/svg">
<path fill-rule="evenodd" clip-rule="evenodd" d="M7 8.25008H4.08333V11.1667H2.91667V8.25008H0V7.08341H2.91667V4.16675H4.08333V7.08341H7V8.25008V8.25008Z" fill="white"/>
<path fill-rule="evenodd" clip-rule="evenodd" d="M18 0C13.58 0 10 3.58 10 8C10 12.42 13.58 16 18 16C22.42 16 26 12.42 26 8C26 3.58 22.42 0 18 0V0ZM22.81 12.81C22.18 13.44 21.45 13.92 20.64 14.26C19.81 14.62 18.92 14.79 18 14.79C17.08 14.79 16.19 14.62 15.36 14.26C14.55 13.92 13.81 13.43 13.19 12.81C12.57 12.19 12.08 11.45 11.74 10.64C11.38 9.81 11.21 8.92 11.21 8C11.21 7.08 11.38 6.19 11.74 5.36C12.08 4.55 12.57 3.81 13.19 3.19C13.81 2.57 14.55 2.08 15.36 1.74C16.19 1.38 17.08 1.21 18 1.21C18.92 1.21 19.81 1.38 20.64 1.74C21.45 2.08 22.19 2.57 22.81 3.19C23.43 3.81 23.92 4.55 24.26 5.36C24.62 6.19 24.79 7.08 24.79 8C24.79 8.92 24.62 9.81 24.26 10.64C23.92 11.45 23.43 12.19 22.81 12.81V12.81ZM14 6.8V6.21C14 5.55 14.53 5.02 15.2 5.02H15.79C16.45 5.02 16.98 5.55 16.98 6.21V6.8C16.98 7.47 16.45 8 15.79 8H15.2C14.53 8 14 7.47 14 6.8V6.8ZM19 6.8V6.21C19 5.55 19.53 5.02 20.2 5.02H20.79C21.45 5.02 21.98 5.55 21.98 6.21V6.8C21.98 7.47 21.45 8 20.79 8H20.2C19.53 8 19 7.47 19 6.8V6.8ZM23 10C22.28 11.88 20.09 13 18 13C15.91 13 13.72 11.87 13 10C12.86 9.61 13.23 9 13.66 9H22.25C22.66 9 23.14 9.61 23 10V10Z" fill="white"/>
</svg>
