<svg width="16" height="16" viewBox="0 0 16 16" fill="none" xmlns="http://www.w3.org/2000/svg">
<path fill-rule="evenodd" clip-rule="evenodd" d="M13 0H12V3H9V4H12V7H13V4H16V3H13V0ZM5 8C5 8.55229 4.55228 9 4 9C3.44772 9 3 8.55229 3 8C3 7.44772 3.44772 7 4 7C4.55228 7 5 7.44772 5 8ZM9 9C9.55229 9 10 8.55229 10 8C10 7.44772 9.55229 7 9 7C8.44771 7 8 7.44772 8 8C8 8.55229 8.44771 9 9 9ZM8.67198 10.7388C8.24133 11.4922 7.42996 12 6.5 12C5.6403 12 4.88195 11.566 4.43204 10.9052L3.56421 11.4063C4.18842 12.3656 5.27013 13 6.5 13C7.80007 13 8.93458 12.2911 9.53815 11.2389L8.67198 10.7388ZM8 3.17393C7.51848 3.06019 7.01627 3 6.5 3C2.91015 3 0 5.91015 0 9.5C0 13.0899 2.91015 16 6.5 16C10.0899 16 13 13.0899 13 9.5C13 8.98373 12.9398 8.48152 12.8261 8H11.793C11.9278 8.47683 12 8.97999 12 9.5C12 12.5376 9.53757 15 6.5 15C3.46243 15 1 12.5376 1 9.5C1 6.46243 3.46243 4 6.5 4C7.02001 4 7.52317 4.07217 8 4.20703V3.17393Z" fill="white"/>
</svg>
