<svg id="Layer_1" enable-background="new 0 0 150 150" height="512" viewBox="0 0 150 150" width="512" xmlns="http://www.w3.org/2000/svg"><g><path d="m37.549 101.412h-18.863v45.353c0 1.784 7.843 3.235 17.51 3.235s17.51-1.451 17.51-3.235v-45.353z" fill="#d15241"/><path d="m36.196 98.176c-9.667 0-17.51 1.451-17.51 3.235s7.843 3.255 17.51 3.255 17.51-1.451 17.51-3.255-7.843-3.235-17.51-3.235z" fill="#e56353"/><path d="m79.706 66.118h-18.863v80.647c0 1.784 7.843 3.235 17.51 3.235s17.51-1.451 17.51-3.235v-80.647z" fill="#f7be56"/><path d="m78.353 62.882c-9.667 0-17.51 1.451-17.51 3.235s7.843 3.255 17.51 3.255 17.51-1.451 17.51-3.255c0-1.803-7.843-3.235-17.51-3.235z" fill="#fcd462"/><path d="m121.863 44.549h-18.863v102.216c0 1.784 7.843 3.235 17.51 3.235s17.51-1.451 17.51-3.235v-102.216z" fill="#2d93ba"/><path d="m120.51 41.314c-9.667 0-17.51 1.451-17.51 3.235s7.843 3.255 17.51 3.255 17.51-1.451 17.51-3.255-7.844-3.235-17.51-3.235z" fill="#27a2db"/><path d="m89.353 3.294 1.078 7.765 9.883-1.373-28.02 33.667-25.784-6.039-34.53 36 5.667 5.431 31.431-32.784 26.157 6.117 29.863-35.902v7.236h7.843v-23.412z" fill="#ebf0f3"/></g></svg>