<svg width="16" height="16" viewBox="0 0 16 16" fill="none" xmlns="http://www.w3.org/2000/svg">
<g opacity="0.5">
<path fill-rule="evenodd" clip-rule="evenodd" d="M8.00001 2.50708L9.27957 6.7217H13.652L10.1146 9.47221L11.4215 13.7769L8.00001 11.1165L4.57849 13.7769L5.8854 9.47221L2.34805 6.7217H6.72045L8.00001 2.50708ZM7.26846 7.6229H4.90113L6.81634 9.1121L6.0848 11.5217L8.00001 10.0325L9.91523 11.5217L9.18368 9.1121L11.0989 7.6229H8.73156L8.00001 5.21332L7.26846 7.6229Z" fill="#C5C5C5"/>
<path fill-rule="evenodd" clip-rule="evenodd" d="M8 1L9.59454 6.25211H15L10.6269 9.65247L12.2504 15L8 11.695L3.7496 15L5.37311 9.65247L1 6.25211H6.40546L8 1ZM6.72044 6.72168H2.34804L5.88539 9.4722L4.57848 13.7769L8 11.1164L11.4215 13.7769L10.1146 9.4722L13.652 6.72168H9.27956L8 2.50706L6.72044 6.72168Z" fill="#C5C5C5"/>
</g>
</svg>
