<!-- Copyright 2000-2024 JetBrains s.r.o. and contributors. Use of this source code is governed by the Apache 2.0 license. -->
<svg width="16" height="16" viewBox="0 0 16 16" fill="none" xmlns="http://www.w3.org/2000/svg">
<path d="M9.5 3.5H9C9 3.77614 9.22386 4 9.5 4V3.5ZM12.5 3.5H13C13 3.22386 12.7761 3 12.5 3V3.5ZM12.5 6.5H12C12 6.77614 12.2239 7 12.5 7V6.5ZM12.5 10.5V10C12.2239 10 12 10.2239 12 10.5H12.5ZM12.5 13.5V14C12.7761 14 13 13.7761 13 13.5H12.5ZM2.5 13.5H2C2 13.7761 2.22386 14 2.5 14V13.5ZM5.5 3.5V4C5.77614 4 6 3.77614 6 3.5H5.5ZM2.5 3.5V3C2.22386 3 2 3.22386 2 3.5H2.5ZM2.5 6.5H2C2 6.77614 2.22386 7 2.5 7V6.5ZM2.5 10.5V10C2.22386 10 2 10.2239 2 10.5H2.5ZM7.5 0C6.11929 0 5 1.11929 5 2.5H6C6 1.67157 6.67157 1 7.5 1V0ZM10 2.5C10 1.11929 8.88071 0 7.5 0V1C8.32843 1 9 1.67157 9 2.5H10ZM10 3.5V2.5H9V3.5H10ZM12.5 3H9.5V4H12.5V3ZM13 6.5V3.5H12V6.5H13ZM12.5 7H13.5V6H12.5V7ZM13.5 7C14.3284 7 15 7.67157 15 8.5H16C16 7.11929 14.8807 6 13.5 6V7ZM15 8.5C15 9.32843 14.3284 10 13.5 10V11C14.8807 11 16 9.88071 16 8.5H15ZM13.5 10H12.5V11H13.5V10ZM13 13.5V10.5H12V13.5H13ZM2.5 14H12.5V13H2.5V14ZM5.5 3H2.5V4H5.5V3ZM5 2.5V3.5H6V2.5H5ZM2 3.5V6.5H3V3.5H2ZM2 10.5V13.5H3V10.5H2ZM2.5 7H3.5V6H2.5V7ZM3.5 10H2.5V11H3.5V10ZM5 8.5C5 9.32843 4.32843 10 3.5 10V11C4.88071 11 6 9.88071 6 8.5H5ZM3.5 7C4.32843 7 5 7.67157 5 8.5H6C6 7.11929 4.88071 6 3.5 6V7Z" fill="#548AF7"/>
</svg>
