<!-- Copyright 2000-2023 JetBrains s.r.o. and contributors. Use of this source code is governed by the Apache 2.0 license. -->
<svg width="16" height="16" viewBox="0 0 16 16" fill="none" xmlns="http://www.w3.org/2000/svg">
<path d="M3 5.82843V11C3 12.1046 3.89543 13 5 13H10C11.1046 13 12 12.1046 12 11V3C12 1.89543 11.1046 1 10 1H7.82843C7.29799 1 6.78929 1.21071 6.41421 1.58579L3.58579 4.41421C3.21071 4.78929 3 5.29799 3 5.82843Z" fill="#43454A"/>
<path fill-rule="evenodd" clip-rule="evenodd" d="M3 11V5.82843C3 5.29799 3.21071 4.78929 3.58579 4.41421L6.41421 1.58579C6.78929 1.21071 7.29799 1 7.82843 1H10C11.1046 1 12 1.89543 12 3V11C12 12.1046 11.1046 13 10 13H5C3.89543 13 3 12.1046 3 11ZM4 6V11C4 11.5523 4.44772 12 5 12H10C10.5523 12 11 11.5523 11 11V3C11 2.44772 10.5523 2 10 2H8V4.5C8 5.32843 7.32843 6 6.5 6H4ZM4.41421 5L7 2.41421V4.5C7 4.77614 6.77614 5 6.5 5H4.41421Z" fill="#CED0D6"/>
<path d="M14 3.5C14 3.22386 13.7761 3 13.5 3C13.2239 3 13 3.22386 13 3.5V13C13 13.5523 12.5523 14 12 14H5.5C5.22386 14 5 14.2239 5 14.5C5 14.7761 5.22386 15 5.5 15H12C13.1046 15 14 14.1046 14 13V3.5Z" fill="#CED0D6"/>
</svg>
