<!-- Copyright 2000-2024 JetBrains s.r.o. and contributors. Use of this source code is governed by the Apache 2.0 license. -->
<svg width="16" height="16" viewBox="0 0 16 16" fill="none" xmlns="http://www.w3.org/2000/svg">
<path d="M12.8536 3.14645C13.0488 3.34171 13.0488 3.65829 12.8536 3.85355L11.4393 5.26777C11.2441 5.46303 10.9275 5.46303 10.7322 5.26777C10.537 5.0725 10.537 4.75592 10.7322 4.56066L12.1464 3.14645C12.3417 2.95118 12.6583 2.95118 12.8536 3.14645Z" fill="#CED0D6"/>
<path d="M10.0251 5.97487C10.2204 6.17014 10.2204 6.48672 10.0251 6.68198L8.61091 8.09619C8.41565 8.29146 8.09907 8.29146 7.90381 8.09619C7.70854 7.90093 7.70854 7.58435 7.90381 7.38909L9.31802 5.97487C9.51328 5.77961 9.82986 5.77961 10.0251 5.97487Z" fill="#CED0D6"/>
<path d="M7.1967 8.8033C7.39196 8.99856 7.39196 9.31515 7.1967 9.51041L5.78249 10.9246C5.58722 11.1199 5.27064 11.1199 5.07538 10.9246C4.88012 10.7294 4.88012 10.4128 5.07538 10.2175L6.48959 8.8033C6.68485 8.60804 7.00144 8.60804 7.1967 8.8033Z" fill="#CED0D6"/>
<path d="M3.5 5C3.77614 5 4 5.22386 4 5.5V7.5C4 7.77614 3.77614 8 3.5 8C3.22386 8 3 7.77614 3 7.5V5.5C3 5.22386 3.22386 5 3.5 5Z" fill="#CED0D6"/>
<path d="M3.5 9C3.77614 9 4 9.22386 4 9.5V12H6.5C6.77614 12 7 12.2239 7 12.5C7 12.7761 6.77614 13 6.5 13H3.5C3.22386 13 3 12.7761 3 12.5V9.5C3 9.22386 3.22386 9 3.5 9Z" fill="#CED0D6"/>
<path d="M8 12.5C8 12.2239 8.22386 12 8.5 12H10.5C10.7761 12 11 12.2239 11 12.5C11 12.7761 10.7761 13 10.5 13H8.5C8.22386 13 8 12.7761 8 12.5Z" fill="#CED0D6"/>
</svg>
