<svg fill="none" height="28" viewBox="0 0 28 28" width="28" xmlns="http://www.w3.org/2000/svg"><path d="m17.1249 2c-4.9127 0-8.89701 3.98533-8.89701 8.899 0 1.807.54686 3.4801 1.47014 4.8853 0 0-5.562 5.5346-7.20564 7.2056-1.644662 1.6701 1.0156 4.1304 2.63997 2.4442 1.62538-1.6832 7.10824-7.1072 7.10824-7.1072 1.4042.9243 3.0793 1.4711 4.8843 1.4711 4.9157 0 8.9-3.9873 8.9-8.899.001-4.91469-3.9843-8.899-8.9-8.899zm0 15.2544c-3.5095 0-6.3565-2.8449-6.3565-6.3554 0-3.51049 2.846-6.35643 6.3565-6.35643 3.5125 0 6.3574 2.84493 6.3574 6.35643 0 3.5105-2.8449 6.3554-6.3574 6.3554z" fill="#fff"/></svg>