<svg xmlns="http://www.w3.org/2000/svg" width="32" height="32"><path d="M19.23 4.095c-4.842 0-8.769 3.928-8.769 8.771 0 1.781.539 3.43 1.449 4.815 0 0-5.482 5.455-7.102 7.102-1.621 1.646 1.001 4.071 2.602 2.409 1.602-1.659 7.006-7.005 7.006-7.005 1.384.911 3.035 1.45 4.814 1.45 4.845 0 8.772-3.93 8.772-8.771.001-4.844-3.927-8.771-8.772-8.771zm0 15.035c-3.459 0-6.265-2.804-6.265-6.264 0-3.46 2.805-6.265 6.265-6.265 3.462 0 6.266 2.804 6.266 6.265 0 3.46-2.804 6.264-6.266 6.264z" fill="#fff"/></svg>