<?xml version="1.0" encoding="UTF-8" standalone="no"?>
<!DOCTYPE svg PUBLIC "-//W3C//DTD SVG 1.1//EN" "http://www.w3.org/Graphics/SVG/1.1/DTD/svg11.dtd">
<svg width="100%" height="100%" viewBox="0 0 260 260" version="1.1" xmlns="http://www.w3.org/2000/svg" xmlns:xlink="http://www.w3.org/1999/xlink" xml:space="preserve" style="fill-rule:evenodd;clip-rule:evenodd;stroke-linejoin:round;stroke-miterlimit:1.41421;">
    <g transform="matrix(1,0,0,1,-1169,-1078)">
        <g transform="matrix(1,0,0,1,0,999)">
            <g transform="matrix(1,0,0,1,580,2.27374e-13)">
                <g fill="#d9d9d9">
                    <g transform="matrix(1.06122,0,0,1.03704,-43.4898,-1044.78)">
                        <path d="M841,1317L596,1317L596,1101L841,1101L841,1317ZM601.654,1106.79L601.654,1311.21L835.346,1311.21L835.346,1106.79L601.654,1106.79Z"/>
                    </g>
                    <g transform="matrix(1,0,0,1,1,-999)">
                        <rect x="665" y="1100" width="18" height="216"/>
                    </g>
                    <g transform="matrix(1,0,0,1,0,-1000)">
                        <rect x="701" y="1121" width="70" height="18"/>
                    </g>
                    <g transform="matrix(1,0,0,1,0,-860)">
                        <rect x="701" y="1121" width="70" height="18"/>
                    </g>
                    <g transform="matrix(1.25714,0,0,1,-162.757,-965)">
                        <rect x="701" y="1121" width="70" height="18"/>
                    </g>
                    <g transform="matrix(1.25714,0,0,1,-162.757,-930)">
                        <rect x="701" y="1121" width="70" height="18"/>
                    </g>
                    <g transform="matrix(1.25714,0,0,1,-162.757,-895)">
                        <rect x="701" y="1121" width="70" height="18"/>
                    </g>
                </g>
            </g>
        </g>
    </g>
</svg>
