<svg version="1.1" viewBox="0 0 24 24" xmlns="http://www.w3.org/2000/svg"><path d="m5 3h2v2h-2v5a2 2 0 0 1 -2 2 2 2 0 0 1 2 2v5h2v2h-2c-1.07-.27-2-.9-2-2v-4a2 2 0 0 0 -2 -2h-1v-2h1a2 2 0 0 0 2 -2v-4a2 2 0 0 1 2 -2m14 0a2 2 0 0 1 2 2v4a2 2 0 0 0 2 2h1v2h-1a2 2 0 0 0 -2 2v4a2 2 0 0 1 -2 2h-2v-2h2v-5a2 2 0 0 1 2 -2 2 2 0 0 1 -2 -2v-5h-2v-2h2m-7 12a1 1 0 0 1 1 1 1 1 0 0 1 -1 1 1 1 0 0 1 -1 -1 1 1 0 0 1 1 -1m-4 0a1 1 0 0 1 1 1 1 1 0 0 1 -1 1 1 1 0 0 1 -1 -1 1 1 0 0 1 1 -1m8 0a1 1 0 0 1 1 1 1 1 0 0 1 -1 1 1 1 0 0 1 -1 -1 1 1 0 0 1 1 -1z" style="fill:#f44336"/></svg>
