<svg xmlns="http://www.w3.org/2000/svg" viewBox="0 0 16 16"><defs><style>.canvas{fill:none;opacity:0;}.dark-default{fill:#c5c5c5;fill-rule:evenodd;}</style></defs><title>ungroup-by-ref-type_16x</title><g id="canvas"><path class="canvas" d="M16,16H0V0H16Z"/></g><g id="Layer_1" data-name="Layer 1"><path class="dark-default" d="M2.86,1,4.93,3.08l-.7.7L3,2.56V7H2V2.55L.79,3.78.08,3.07,2.15,1ZM15,3V7H11V6H9V7H6V4H9V5h2V3ZM8,5H7V6H8Zm6-1H12V6h2ZM11,9h4v4H11V11H9v1H6V9H9v1h2ZM8,10H7v1H8Zm4,2h2V10H12ZM3,13.45V9H2v4.44L.78,12.22l-.71.7L2.15,15h.7l2.07-2.07-.7-.71Z"/></g></svg>
