<?xml version="1.0" encoding="utf-8"?>
<!-- Generator: Adobe Illustrator 19.2.0, SVG Export Plug-In . SVG Version: 6.00 Build 0)  -->
<svg version="1.1" id="Layer_1" xmlns="http://www.w3.org/2000/svg" xmlns:xlink="http://www.w3.org/1999/xlink" x="0px" y="0px"
	 viewBox="0 0 16 16" style="enable-background:new 0 0 16 16;" xml:space="preserve">
<style type="text/css">
	.st0{fill:#424242;}
</style>
<path id="iconBg" class="st0" d="M6,12H5V6h1V12z M8,6H7v6h1V6z M10,6H9v6h1V6z M13,3v1h-1v10c0,0.6-0.4,1-1,1H4c-0.6,0-1-0.4-1-1V4
	H2V3h3V2c0-0.6,0.4-1,1-1h3c0.6,0,1,0.4,1,1v1H13z M6,3h3V2H6V3z M11,4H4v10h7V4z"/>
</svg>
