<svg id="svg2" xmlns="http://www.w3.org/2000/svg" xmlns:xlink="http://www.w3.org/1999/xlink" width="128" height="128" viewBox="0 0 128 128"><defs><style>.cls-1{fill:url(#Unbenannter_Verlauf);}.cls-2{fill:url(#Unbenannter_Verlauf_2);}</style><linearGradient id="Unbenannter_Verlauf" x1="198.69" y1="-219.67" x2="307.7" y2="-313.46" gradientTransform="matrix(0.56, 0, 0, -0.57, -106.08, -113.76)" gradientUnits="userSpaceOnUse"><stop offset="0" stop-color="#5a9fd4"/><stop offset="1" stop-color="#306998"/></linearGradient><linearGradient id="Unbenannter_Verlauf_2" x1="349.85" y1="-370.23" x2="310.92" y2="-315.15" gradientTransform="matrix(0.56, 0, 0, -0.57, -106.08, -113.76)" gradientUnits="userSpaceOnUse"><stop offset="0" stop-color="#ffd43b"/><stop offset="1" stop-color="#ffe873"/></linearGradient></defs><title>python-logo-generic</title><g id="g2303"><path id="path1948" class="cls-1" d="M63.34,7.81A76.56,76.56,0,0,0,50.53,8.9c-11.35,2-13.41,6.2-13.41,13.94V33.06H63.93v3.41H27.06c-7.79,0-14.62,4.68-16.75,13.59-2.46,10.21-2.57,16.59,0,27.25,1.91,7.94,6.46,13.59,14.25,13.59h9.22V78.65A17,17,0,0,1,50.53,62H77.31A13.51,13.51,0,0,0,90.71,48.37V22.84c0-7.27-6.13-12.72-13.41-13.94A83.63,83.63,0,0,0,63.34,7.81ZM48.84,16a5.11,5.11,0,1,1-5,5.12A5.09,5.09,0,0,1,48.84,16Z"/><path id="path1950" class="cls-2" d="M94.06,36.46V48.37c0,9.23-7.83,17-16.75,17H50.53A13.68,13.68,0,0,0,37.12,79v25.53c0,7.27,6.32,11.54,13.41,13.63a44.86,44.86,0,0,0,26.78,0c6.75-2,13.41-5.89,13.41-13.62V94.31H63.93V90.9h40.19c7.79,0,10.7-5.44,13.41-13.59,2.8-8.4,2.68-16.48,0-27.25-1.93-7.76-5.6-13.59-13.41-13.59H94.06ZM79,101.12a5.11,5.11,0,1,1-5,5.09A5.06,5.06,0,0,1,79,101.12Z"/></g></svg>