<?xml version="1.0" encoding="utf-8"?>
<!-- Generator: Adobe Illustrator 19.2.0, SVG Export Plug-In . SVG Version: 6.00 Build 0)  -->
<svg version="1.1" id="Layer_1" xmlns="http://www.w3.org/2000/svg" xmlns:xlink="http://www.w3.org/1999/xlink" x="0px" y="0px"
	 viewBox="0 0 16 16" style="enable-background:new 0 0 16 16;" xml:space="preserve">
<style type="text/css">
	.st0{fill:#424242;}
</style>
<path class="st0" d="M10,3V2c0-0.6-0.4-1-1-1H6C5.4,1,5,1.4,5,2v1H2v1h1v10c0,0.6,0.4,1,1,1h7c0.6,0,1-0.4,1-1V4h1V3H10z M6,12H5V6
	h1V12z M6,2h3v1H6V2z M8,12H7V6h1V12z M10,12H9V6h1V12z"/>
</svg>
