<svg xmlns="http://www.w3.org/2000/svg" viewBox="0 0 16 16"><defs><style>.icon-canvas-transparent,.icon-vs-out{fill:#252526;}.icon-canvas-transparent{opacity:0;}.icon-vs-bg{fill:#c5c5c5;}</style></defs><title>breakpoints-activate</title><g id="canvas"><path class="icon-canvas-transparent" d="M16,0V16H0V0Z"/></g><g id="outline" style="display: none;"><path class="icon-vs-out" d="M16,5.5A5.536,5.536,0,0,1,11,11a5.536,5.536,0,0,1-5.5,5A5.549,5.549,0,0,1,0,10.5,5.465,5.465,0,0,1,5,5a5.512,5.512,0,0,1,11,.5Z"/></g><g id="iconBg"><path class="icon-vs-bg" d="M15,5.5A4.395,4.395,0,0,1,11,10a2.957,2.957,0,0,0-.2-1A3.565,3.565,0,0,0,14,5.5a3.507,3.507,0,0,0-7-.3A3.552,3.552,0,0,0,6,5a4.622,4.622,0,0,1,4.5-4A4.481,4.481,0,0,1,15,5.5ZM5.5,6A4.5,4.5,0,1,0,10,10.5,4.5,4.5,0,0,0,5.5,6Z"/></g></svg>
