<svg width="16" height="16" viewBox="0 0 16 16" fill="none" xmlns="http://www.w3.org/2000/svg">
<path fill-rule="evenodd" clip-rule="evenodd" d="M11.3259 10.2223C11.7654 9.56448 12 8.79112 12 8C12.0001 7.47467 11.8968 6.95447 11.6958 6.4691C11.4948 5.98374 11.2002 5.54273 10.8287 5.17126C10.4573 4.7998 10.0163 4.50517 9.5309 4.3042C9.04553 4.10323 8.52533 3.99986 8 4C7.20888 4 6.43552 4.2346 5.77772 4.67412C5.11992 5.11365 4.60723 5.73836 4.30448 6.46927C4.00173 7.20017 3.92252 8.00444 4.07686 8.78036C4.2312 9.55628 4.61216 10.269 5.17157 10.8284C5.73098 11.3878 6.44372 11.7688 7.21964 11.9231C7.99556 12.0775 8.79983 11.9983 9.53073 11.6955C10.2616 11.3928 10.8864 10.8801 11.3259 10.2223ZM8.4 9.6H7.6V10.4H8.4V9.6ZM7.6 8.8V5.6H8.4V8.8H7.6Z" fill="#E51400"/>
</svg>
