<svg width="16" height="16" viewBox="0 0 16 16" fill="none" xmlns="http://www.w3.org/2000/svg">
<path fill-rule="evenodd" clip-rule="evenodd" d="M8 11.4286C9.89355 11.4286 11.4286 9.89355 11.4286 8C11.4286 6.10645 9.89355 4.57143 8 4.57143C6.10645 4.57143 4.57143 6.10645 4.57143 8C4.57143 9.89355 6.10645 11.4286 8 11.4286ZM8 12C10.2091 12 12 10.2091 12 8C12 5.79086 10.2091 4 8 4C5.79086 4 4 5.79086 4 8C4 10.2091 5.79086 12 8 12ZM9.71429 6.85714V7.42857H6.28571V6.85714H9.71429ZM9.71429 9.14286V8.57143H6.28571V9.14286H9.71429Z" fill="#C5C5C5"/>
</svg>
