<svg width="16" height="16" viewBox="0 0 16 16" fill="none" xmlns="http://www.w3.org/2000/svg">
<path d="M8 4C8.36719 4 8.72135 4.04818 9.0625 4.14453C9.40365 4.23828 9.72135 4.3724 10.0156 4.54688C10.3125 4.72135 10.582 4.93099 10.8242 5.17578C11.069 5.41797 11.2786 5.6875 11.4531 5.98438C11.6276 6.27865 11.7617 6.59635 11.8555 6.9375C11.9518 7.27865 12 7.63281 12 8C12 8.36719 11.9518 8.72135 11.8555 9.0625C11.7617 9.40365 11.6276 9.72266 11.4531 10.0195C11.2786 10.3138 11.069 10.5833 10.8242 10.8281C10.582 11.0703 10.3125 11.2786 10.0156 11.4531C9.72135 11.6276 9.40365 11.763 9.0625 11.8594C8.72135 11.9531 8.36719 12 8 12C7.63281 12 7.27865 11.9531 6.9375 11.8594C6.59635 11.763 6.27734 11.6276 5.98047 11.4531C5.6862 11.2786 5.41667 11.0703 5.17188 10.8281C4.92969 10.5833 4.72135 10.3138 4.54688 10.0195C4.3724 9.72266 4.23698 9.40365 4.14062 9.0625C4.04688 8.72135 4 8.36719 4 8C4 7.63281 4.04688 7.27865 4.14062 6.9375C4.23698 6.59635 4.3724 6.27865 4.54688 5.98438C4.72135 5.6875 4.92969 5.41797 5.17188 5.17578C5.41667 4.93099 5.6862 4.72135 5.98047 4.54688C6.27734 4.3724 6.59635 4.23828 6.9375 4.14453C7.27865 4.04818 7.63281 4 8 4Z" fill="#E51400"/>
</svg>
