<svg width="16" height="16" viewBox="0 0 16 16" fill="none" xmlns="http://www.w3.org/2000/svg">
<path fill-rule="evenodd" clip-rule="evenodd" d="M6.58826 1L6.10195 3.41434L4.03758 2.04783L2.05537 4.01601L3.43166 6.06585L1 6.54874V9.33633L3.44228 9.91833L2.05537 11.984L4.03758 13.9522L6.10195 12.5857L6.58826 15H9.41174L9.91569 12.4981L11.9624 13.8529L13.9446 11.8847L12.5683 9.8349L15 9.35201V6.54874L12.5683 6.06585L13.9446 4.01601L11.9624 2.04783L9.89805 3.41434L9.41174 1H6.58826ZM7.41258 1.99814H8.58742L9.0636 4.36219L9.87354 4.63026L11.8343 3.33234L12.6509 4.14318L11.3437 6.09013L11.6136 6.89418L13.9945 7.36699V8.53376L11.6136 9.00657L11.3437 9.81062L12.6509 11.7576L11.8343 12.5684L9.79924 11.2213L9.04722 11.7191L8.58742 14.0019H7.41258L6.9364 11.6378L6.12646 11.3697L4.16571 12.6677L3.34909 11.8568L4.65631 9.90987L4.3904 9.11777L2.00547 8.54944V7.36699L4.38639 6.89418L4.65631 6.09013L3.34909 4.14318L4.16571 3.33234L6.12646 4.63026L6.9364 4.36219L7.41258 1.99814ZM6.5 8C6.5 7.17157 7.17157 6.5 8 6.5C8.82843 6.5 9.5 7.17157 9.5 8C9.5 8.82843 8.82843 9.5 8 9.5C7.17157 9.5 6.5 8.82843 6.5 8ZM8 5.5C6.61929 5.5 5.5 6.61929 5.5 8C5.5 9.38071 6.61929 10.5 8 10.5C9.38071 10.5 10.5 9.38071 10.5 8C10.5 6.61929 9.38071 5.5 8 5.5Z" fill="#C5C5C5"/>
</svg>
