<svg width="16" height="16" viewBox="0 0 16 16" fill="none" xmlns="http://www.w3.org/2000/svg">
<path fill-rule="evenodd" clip-rule="evenodd" d="M8 4.99849C6.3423 4.99849 4.99847 6.34232 4.99847 8.00002C4.99847 9.65771 6.3423 11.0015 8 11.0015C9.65769 11.0015 11.0015 9.65771 11.0015 8.00002C11.0015 6.34232 9.65769 4.99849 8 4.99849ZM6.00342 8.00002C6.00342 6.89734 6.89732 6.00345 8 6.00345C9.10267 6.00345 9.99657 6.89734 9.99657 8.00002C9.99657 9.10269 9.10267 9.99658 8 9.99658C6.89732 9.99658 6.00342 9.10269 6.00342 8.00002Z" fill="#424242"/>
<path fill-rule="evenodd" clip-rule="evenodd" d="M9.89605 3.42252L9.41155 1L6.58845 1.00002L6.10395 3.42254L4.04837 2.05215L2.05214 4.04839L3.42252 6.10396L1 6.58846V9.41156L3.42253 9.89606L2.05214 11.9516L4.04838 13.9479L6.10395 12.5775L6.58845 15H9.41155L9.89606 12.5775L11.9516 13.9479L13.9479 11.9516L12.5775 9.89606L15 9.41156V6.58846L12.5775 6.10396L13.9479 4.04837L11.9516 2.05214L9.89605 3.42252ZM11.3207 6.17737L11.6369 6.94069L13.995 7.41232V8.5877L11.6369 9.05932L11.3207 9.82262L12.6547 11.8236L11.8236 12.6547L9.82263 11.3207L9.05931 11.6369L8.58769 13.9951H7.41231L6.94068 11.6369L6.17738 11.3207L4.17643 12.6547L3.34531 11.8236L4.67929 9.82263L4.36309 9.05932L2.00495 8.5877V7.41232L4.36309 6.94069L4.67928 6.17739L3.34531 4.17643L4.17642 3.34532L6.17737 4.67928L6.94069 4.36313L7.41231 2.00497L8.58769 2.00496L9.05931 4.36311L9.82263 4.67927L11.8236 3.3453L12.6547 4.17642L11.3207 6.17737Z" fill="#424242"/>
</svg>
