<svg width="16" height="16" viewBox="0 0 16 16" fill="none" xmlns="http://www.w3.org/2000/svg">
<path fill-rule="evenodd" clip-rule="evenodd" d="M8.48852 3.17865L12.7072 7.99999L8.48852 12.8213H3.17865V3.17865H8.48852ZM7.93627 11.6043L11.09 7.99999L7.93627 4.39569H4.39569V11.6043H7.93627ZM8.4402 8.98081C8.62562 8.70331 8.72459 8.37706 8.72459 8.04331C8.72459 7.59576 8.5468 7.16655 8.23034 6.85009C7.91388 6.53362 7.48466 6.35584 7.03712 6.35584C6.70337 6.35584 6.37711 6.45481 6.09961 6.64023C5.82211 6.82565 5.60582 7.08919 5.4781 7.39754C5.35038 7.70588 5.31696 8.04518 5.38207 8.37251C5.44719 8.69985 5.6079 9.00053 5.8439 9.23653C6.0799 9.47252 6.38057 9.63324 6.70791 9.69835C7.03525 9.76346 7.37454 9.73004 7.68289 9.60232C7.99123 9.4746 8.25478 9.25832 8.4402 8.98081Z" fill="#FFCC00"/>
<path fill-rule="evenodd" clip-rule="evenodd" d="M12.9446 8L8.5696 13H3V3H8.5696L12.9446 8ZM8.48853 3.17866H3.17866V12.8213H8.48853L12.7072 8L8.48853 3.17866ZM10.8526 8L7.85521 11.4256H4.57436V4.57436H7.85521L10.8526 8ZM7.93628 4.3957L11.5161 8L7.93628 11.6043H4.3957V4.3957H7.93628ZM8.7246 8.04332C8.7246 8.37707 8.62563 8.70332 8.44021 8.98082C8.25479 9.25833 7.99124 9.47461 7.6829 9.60233C7.37455 9.73006 7.03526 9.76347 6.70792 9.69836C6.38058 9.63325 6.07991 9.47253 5.84391 9.23654C5.60791 9.00054 5.4472 8.69986 5.38208 8.37253C5.31697 8.04519 5.35039 7.70589 5.47811 7.39755C5.60583 7.08921 5.82212 6.82566 6.09962 6.64024C6.37712 6.45482 6.70338 6.35585 7.03713 6.35585C7.48467 6.35585 7.91389 6.53363 8.23035 6.8501C8.54681 7.16656 8.7246 7.59577 8.7246 8.04332Z" fill="#FFCC00"/>
</svg>
