<svg width="16" height="16" viewBox="0 0 16 16" fill="none" xmlns="http://www.w3.org/2000/svg">
<path fill-rule="evenodd" clip-rule="evenodd" d="M14.9496 1.7333L14.2163 1L12.8797 2.33662C12.6307 2.16187 12.3612 2.02826 12.0712 1.93578C11.7498 1.82708 11.4166 1.77273 11.0716 1.77273C10.651 1.77273 10.2445 1.85307 9.85228 2.01376C9.46474 2.17445 9.1221 2.40366 8.82436 2.7014L7.22222 4.31063L11.7096 8.79804L13.3189 7.1959C13.6166 6.89816 13.8458 6.55552 14.0065 6.16798C14.1672 5.77572 14.2475 5.36927 14.2475 4.94865C14.2475 4.60365 14.1932 4.27046 14.0845 3.94909C13.9818 3.62693 13.8283 3.33015 13.6241 3.05873L14.9496 1.7333ZM9.54875 9.24531L9.76438 9.46094L8.19331 11.032L8.79803 11.6367L7.19589 13.246C6.89815 13.5437 6.55314 13.7729 6.16088 13.9336C5.77334 14.0943 5.36926 14.1746 4.94864 14.1746C4.60363 14.1746 4.26808 14.1226 3.94198 14.0187C3.65208 13.9206 3.3814 13.7822 3.12995 13.6034L1.7333 15L1.65939 14.9261L1.63802 14.9473L1 14.3093L1.02126 14.288L1 14.2667L2.38839 12.8783C2.18794 12.6098 2.0347 12.3188 1.92867 12.0054C1.8247 11.6793 1.77271 11.3437 1.77271 10.9987C1.77271 10.5781 1.85306 10.174 2.01374 9.78647C2.17443 9.3942 2.40365 9.0492 2.70139 8.75146L4.31062 7.14932L4.82875 7.66745L6.39982 6.09638L6.63811 6.33467L7.13209 6.82322L7.12943 6.82599L7.13312 6.82968L6.95075 7.01204L5.58666 8.43245L7.45647 10.3023L9.03109 8.72764L9.05767 8.75423L9.06033 8.75146L9.54875 9.24531Z" fill="#F48771"/>
</svg>
