<svg width="16" height="16" viewBox="0 0 16 16" fill="none" xmlns="http://www.w3.org/2000/svg">
<path fill-rule="evenodd" clip-rule="evenodd" d="M2 7.5L2 3L3.5 3L3.5 7.5L2 7.5Z" fill="#89D185"/>
<path fill-rule="evenodd" clip-rule="evenodd" d="M2 6L6.5 6L6.5 7.5L2 7.5L2 6Z" fill="#89D185"/>
<path fill-rule="evenodd" clip-rule="evenodd" d="M8.49998 12.5C10.9853 12.5 13 10.4853 13 8C13 5.51472 10.9853 3.5 8.49998 3.5C6.63198 3.5 5.02982 4.63819 4.34919 6.2589L2.60324 6.88578C3.12555 4.10447 5.567 2 8.49998 2C11.8137 2 14.5 4.68629 14.5 8C14.5 11.3137 11.8137 14 8.49998 14C6.19203 14 4.18843 12.6969 3.1848 10.7863L4.61523 10.2727C5.39648 11.6052 6.84374 12.5 8.49998 12.5Z" fill="#89D185"/>
</svg>
