<svg width="16" height="16" viewBox="0 0 16 16" fill="none" xmlns="http://www.w3.org/2000/svg">
<path d="M10 8C10 8.39556 9.8827 8.78224 9.66294 9.11114C9.44318 9.44004 9.13082 9.69638 8.76537 9.84776C8.39992 9.99913 7.99778 10.0387 7.60982 9.96157C7.22186 9.8844 6.86549 9.69392 6.58579 9.41421C6.30608 9.13451 6.1156 8.77814 6.03843 8.39018C5.96126 8.00222 6.00087 7.60009 6.15224 7.23463C6.30362 6.86918 6.55996 6.55682 6.88886 6.33706C7.21776 6.1173 7.60444 6 8 6C8.53043 6 9.03914 6.21071 9.41421 6.58579C9.78929 6.96086 10 7.46957 10 8Z" fill="#E51400"/>
<path fill-rule="evenodd" clip-rule="evenodd" d="M3 3.25L4.25 2H9.30677L10.2355 2.41331L14.4986 7.14518L14.5 8.81702L10.2368 13.5647L9.30677 13.9796H4.25L3 12.7296V3.25ZM4.25 12.7296V3.25H9.30677L13.5699 7.98187L9.30677 12.7296H4.25Z" fill="#89D185"/>
</svg>
