<svg width="16" height="16" viewBox="0 0 16 16" fill="none" xmlns="http://www.w3.org/2000/svg">
<path fill-rule="evenodd" clip-rule="evenodd" d="M14.25 5.75V1.75H12.75V4.2916C11.605 2.93303 9.83901 2.08334 7.90917 2.08334C4.73318 2.08334 1.98943 4.39036 1.75074 7.48075L1.72994 7.75H3.23102L3.2529 7.5241C3.46544 5.32932 5.45511 3.58334 7.90917 3.58334C9.64522 3.58334 11.1528 4.45925 11.9587 5.75H9.12988V7.25H13.292L14.2535 6.27493V5.75H14.25ZM8 14C9.10457 14 10 13.1046 10 12C10 10.8954 9.10457 10 8 10C6.89543 10 6 10.8954 6 12C6 13.1046 6.89543 14 8 14Z" fill="#FFFFFF"/>
</svg>
