<svg width="16" height="16" viewBox="0 0 16 16" fill="none" xmlns="http://www.w3.org/2000/svg">
<path fill-rule="evenodd" clip-rule="evenodd" d="M11.3988 5.92068L10.339 4.86094L8.44055 6.74883V1H6.94055V6.73405L5.06022 4.86078L4 5.921L7.70587 9.62687L11.3988 5.92068ZM10.3385 5.21402L10.3387 5.21417L10.3386 5.214L10.3385 5.21402ZM7.70637 9.27218L7.70554 9.27298L7.70555 9.273L7.70637 9.27218ZM8.19055 1.5V7.34996L8.19052 7.35V1.50001H7.19055V1.5H8.19055ZM5.06055 5.214L7.19052 7.33596V7.336L5.06053 5.21402L5.06055 5.214Z" fill="#75BEFF"/>
<path d="M7.69971 15C8.80428 15 9.69971 14.1046 9.69971 13C9.69971 11.8954 8.80428 11 7.69971 11C6.59514 11 5.69971 11.8954 5.69971 13C5.69971 14.1046 6.59514 15 7.69971 15Z" fill="#75BEFF"/>
</svg>
