<svg width="16" height="16" viewBox="0 0 16 16" fill="none" xmlns="http://www.w3.org/2000/svg">
<path fill-rule="evenodd" clip-rule="evenodd" d="M1.75 5.75V1.75H3.25V4.2916C4.39501 2.93303 6.16099 2.08334 8.09083 2.08334C11.2668 2.08334 14.0106 4.39036 14.2493 7.48075L14.2701 7.75H12.769L12.7471 7.5241C12.5346 5.32932 10.5449 3.58334 8.09083 3.58334C6.35478 3.58334 4.84718 4.45925 4.04125 5.75H6.87012V7.25H2.708L1.74652 6.27493V5.75H1.75ZM8 14C6.89543 14 6 13.1046 6 12C6 10.8954 6.89543 10 8 10C9.10457 10 10 10.8954 10 12C10 13.1046 9.10457 14 8 14Z" fill="#75BEFF"/>
</svg>
