<svg width="16" height="16" viewBox="0 0 16 16" fill="none" xmlns="http://www.w3.org/2000/svg">
<path d="M8.69922 11C7.59465 11 6.69922 11.8954 6.69922 13C6.69922 14.1046 7.59465 15 8.69922 15C9.80379 15 10.6992 14.1046 10.6992 13C10.6992 11.8954 9.80379 11 8.69922 11Z" fill="#007ACC"/>
<path fill-rule="evenodd" clip-rule="evenodd" d="M5.00014 4.70621L6.05988 5.76595L7.95837 3.87806L7.95837 9.62689L9.45837 9.62689L9.45837 3.89284L11.3387 5.76611L12.3989 4.70589L8.69305 1.00002L5.00014 4.70621ZM6.06039 5.41287L6.0602 5.41272L6.06037 5.41289L6.06039 5.41287ZM8.69256 1.35471L8.69339 1.35391L8.69337 1.35389L8.69256 1.35471ZM8.20837 8.37689L8.20837 3.27693L8.20841 3.27689L8.20841 8.37689L8.20837 8.37689ZM9.20841 3.29093L11.3384 5.41289L11.3384 5.41287L9.20841 3.29089L9.20841 3.29093Z" fill="#007ACC"/>
</svg>
