<svg width="16" height="16" viewBox="0 0 16 16" fill="none" xmlns="http://www.w3.org/2000/svg">
<path d="M6.5 12C6.5 12.8284 7.17157 13.5 8 13.5C8.82843 13.5 9.5 12.8284 9.5 12C9.5 11.1716 8.82843 10.5 8 10.5C7.17157 10.5 6.5 11.1716 6.5 12Z" fill="#75BEFF" stroke="#75BEFF"/>
<mask id="path-2-outside-1" maskUnits="userSpaceOnUse" x="1" y="1" width="14" height="7" fill="black">
<rect fill="white" x="1" y="1" width="14" height="7"/>
<path fill-rule="evenodd" clip-rule="evenodd" d="M3 2H2V6H1.99652V7H2H2.24417H3H3.26417H6.62012V6H3.61567C4.39545 4.4259 6.10603 3.33334 8.09083 3.33334C10.66 3.33334 12.7697 5.16396 12.9959 7.5H14C13.7725 4.55454 11.1515 2.33334 8.09083 2.33334C5.96206 2.33334 4.046 3.40785 3 5.0532V2Z"/>
</mask>
<path fill-rule="evenodd" clip-rule="evenodd" d="M3 2H2V6H1.99652V7H2H2.24417H3H3.26417H6.62012V6H3.61567C4.39545 4.4259 6.10603 3.33334 8.09083 3.33334C10.66 3.33334 12.7697 5.16396 12.9959 7.5H14C13.7725 4.55454 11.1515 2.33334 8.09083 2.33334C5.96206 2.33334 4.046 3.40785 3 5.0532V2Z" fill="#75BEFF"/>
<path d="M2 2H1.75V1.75H2V2ZM3 2V1.75H3.25V2H3ZM2 6H2.25V6.25H2V6ZM1.99652 6H1.74652V5.75H1.99652V6ZM1.99652 7V7.25H1.74652V7H1.99652ZM6.62012 7H6.87012V7.25H6.62012V7ZM6.62012 6V5.75H6.87012V6H6.62012ZM3.61567 6V6.25H3.21283L3.39165 5.88902L3.61567 6ZM12.9959 7.5V7.75H12.769L12.7471 7.5241L12.9959 7.5ZM14 7.5L14.2493 7.48075L14.2701 7.75H14V7.5ZM3 5.0532L3.21098 5.18732L2.75 5.91244V5.0532H3ZM2 1.75H3V2.25H2V1.75ZM1.75 6V2H2.25V6H1.75ZM1.99652 5.75H2V6.25H1.99652V5.75ZM1.74652 7V6H2.24652V7H1.74652ZM2 7.25H1.99652V6.75H2V7.25ZM2.24417 7.25H2V6.75H2.24417V7.25ZM3 7.25H2.24417V6.75H3V7.25ZM3.26417 7.25H3V6.75H3.26417V7.25ZM6.62012 7.25H3.26417V6.75H6.62012V7.25ZM6.87012 6V7H6.37012V6H6.87012ZM3.61567 5.75H6.62012V6.25H3.61567V5.75ZM8.09083 3.58334C6.19737 3.58334 4.57567 4.62529 3.83969 6.11098L3.39165 5.88902C4.21523 4.22651 6.0147 3.08334 8.09083 3.08334V3.58334ZM12.7471 7.5241C12.5346 5.32932 10.5449 3.58334 8.09083 3.58334V3.08334C10.7751 3.08334 13.0049 4.99861 13.2448 7.4759L12.7471 7.5241ZM14 7.75H12.9959V7.25H14V7.75ZM8.09083 2.08334C11.2668 2.08334 14.0106 4.39036 14.2493 7.48075L13.7507 7.51925C13.5344 4.71873 11.0362 2.58334 8.09083 2.58334V2.08334ZM2.78902 4.91908C3.88211 3.19966 5.87882 2.08334 8.09083 2.08334V2.58334C6.0453 2.58334 4.20989 3.61604 3.21098 5.18732L2.78902 4.91908ZM3.25 2V5.0532H2.75V2H3.25Z" fill="#75BEFF" mask="url(#path-2-outside-1)"/>
</svg>
