<svg width="16" height="16" viewBox="0 0 16 16" fill="none" xmlns="http://www.w3.org/2000/svg">
<path d="M14.9991 5.5009C15.0303 6.61917 14.6339 7.70727 13.8907 8.54341C13.1475 9.37954 12.1133 9.90079 10.9991 10.0009C10.9909 9.65849 10.9232 9.32013 10.7991 9.00089C11.6689 8.91145 12.4755 8.50547 13.0655 7.86015C13.6555 7.21484 13.9878 6.3752 13.9991 5.5009C13.9958 4.599 13.6452 3.73303 13.0201 3.08292C12.3949 2.4328 11.5434 2.04852 10.6423 2.0099C9.74123 1.97128 8.85991 2.2813 8.18146 2.87555C7.503 3.4698 7.07956 4.30258 6.99912 5.20089C6.67714 5.08647 6.34034 5.01911 5.99912 5.0009C6.14758 3.90649 6.68302 2.90142 7.50848 2.16768C8.33394 1.43393 9.39486 1.02002 10.4991 1.00089C11.0908 0.998381 11.6771 1.11306 12.2242 1.33832C12.7713 1.56357 13.2683 1.89494 13.6867 2.31331C14.1051 2.73167 14.4364 3.22875 14.6617 3.77585C14.887 4.32295 15.0016 4.90924 14.9991 5.5009ZM5.49912 6.0009C4.60911 6.0009 3.73908 6.26482 2.99906 6.75928C2.25904 7.25375 1.68226 7.95655 1.34166 8.77882C1.00107 9.60109 0.911955 10.5059 1.08559 11.3788C1.25922 12.2517 1.68781 13.0535 2.31714 13.6829C2.94648 14.3122 3.7483 14.7408 4.62122 14.9144C5.49413 15.0881 6.39893 14.9989 7.2212 14.6584C8.04347 14.3178 8.74627 13.741 9.24074 13.001C9.7352 12.2609 9.99912 11.3909 9.99912 10.5009C9.99912 9.90995 9.88273 9.32478 9.65658 8.77882C9.43044 8.23285 9.09897 7.73678 8.6811 7.31891C8.26324 6.90105 7.76716 6.56958 7.2212 6.34344C6.67523 6.11729 6.09007 6.0009 5.49912 6.0009Z" fill="white"/>
</svg>
