<svg width="16" height="16" viewBox="0 0 16 16" fill="none" xmlns="http://www.w3.org/2000/svg">
<path d="M11 2H9V3H10V3.586V4V4.414V6H13V13H5V8H4V14H14V5L11 2Z" fill="#C5C5C5"/>
<path d="M7.08971 4.65186L8 4.50014V3.50029L7.091 3.34857C7.05157 3.22225 7.00079 3.09975 6.93929 2.98257L7.475 2.23257L6.76786 1.52543L6.017 2.06157C5.95829 2.03071 5.90471 1.99343 5.84214 1.96771C5.77957 1.942 5.71357 1.93043 5.65186 1.91071L5.50014 1H4.50029L4.34857 1.909C4.22224 1.94843 4.09974 1.99921 3.98257 2.06071L3.23257 1.525L2.52543 2.23214L3.06157 2.983C3.03071 3.04171 2.99343 3.09529 2.96771 3.15786C2.942 3.22043 2.93043 3.28643 2.91071 3.34814L2 3.49986V4.49971L2.909 4.65143C2.94844 4.77775 2.99921 4.90025 3.06071 5.01743L2.525 5.76743L3.23214 6.47457L3.983 5.938C4.04171 5.96886 4.09529 6.00614 4.15786 6.03229C4.22043 6.05843 4.28643 6.06957 4.34814 6.08929L4.49986 7H5.49971L5.65143 6.091C5.77775 6.05157 5.90025 6.00079 6.01743 5.93929L6.76743 6.475L7.47457 5.76786L6.938 5.017C6.96886 4.95829 7.00614 4.90429 7.03186 4.84171C7.05757 4.77914 7.07 4.71529 7.08971 4.65186ZM5 4.948C4.8125 4.948 4.62922 4.8924 4.47332 4.78823C4.31742 4.68407 4.19591 4.53601 4.12416 4.36278C4.05241 4.18956 4.03364 3.99895 4.07022 3.81505C4.10679 3.63116 4.19708 3.46224 4.32966 3.32966C4.46224 3.19708 4.63116 3.10679 4.81505 3.07022C4.99895 3.03364 5.18956 3.05241 5.36278 3.12416C5.53601 3.19591 5.68407 3.31742 5.78823 3.47332C5.8924 3.62922 5.948 3.8125 5.948 4C5.948 4.25143 5.84812 4.49255 5.67034 4.67034C5.49255 4.84812 5.25143 4.948 5 4.948Z" fill="#75BEFF"/>
</svg>
