<svg xmlns="http://www.w3.org/2000/svg" width="300" height="40"><path d="M288.483 33c-.772 0-1.497-.123-2.153-.365-.678-.253-1.27-.617-1.76-1.084-.5-.475-.892-1.049-1.163-1.704-.27-.644-.407-1.371-.407-2.158 0-.517.061-1.018.178-1.49.116-.47.29-.925.516-1.348.225-.422.508-.815.844-1.167.334-.352.717-.656 1.139-.905.416-.246.881-.44 1.38-.576.493-.134 1.026-.202 1.587-.202.705 0 1.382.109 2.013.324.642.217 1.218.538 1.708.955.501.425.903.948 1.193 1.556.294.623.442 1.316.442 2.064 0 .619-.09 1.185-.268 1.679-.178.492-.42.92-.721 1.275-.331.377-.699.658-1.104.847l-.048.022v1.53l-.587.266c-.128.059-.288.117-.474.179-.193.062-.404.114-.645.159-.229.04-.477.076-.753.103-.27.027-.578.04-.917.04z" fill="#2D2D2D"/><path d="M291.716 24.041c-.396-.336-.856-.593-1.384-.771-.527-.18-1.09-.271-1.689-.271-.473 0-.912.055-1.324.167-.414.112-.791.27-1.135.473-.342.202-.65.446-.922.733-.273.286-.502.602-.686.949-.186.347-.33.722-.428 1.119-.1.399-.148.814-.148 1.247 0 .652.109 1.247.332 1.776.219.531.53.984.928 1.361.396.378.871.667 1.416.87.548.202 1.152.304 1.808.304.302 0 .577-.011.823-.035.246-.023.468-.056.664-.091.195-.036.366-.078.514-.125l.375-.14v-.854l-.463.184c-.16.056-.336.104-.521.143-.188.037-.387.069-.604.089-.213.024-.448.034-.7.034-.562 0-1.064-.088-1.509-.264-.442-.176-.816-.421-1.125-.731-.309-.314-.545-.687-.708-1.124-.161-.435-.243-.913-.243-1.432 0-.545.09-1.053.273-1.522.182-.471.435-.879.758-1.225.324-.345.708-.617 1.155-.815.446-.196.934-.294 1.457-.294.419 0 .798.044 1.122.136.329.091.62.215.871.369.254.158.465.339.643.547.179.209.324.432.438.667.113.237.193.48.246.731.051.254.076.5.076.741 0 .344-.033.653-.102.926-.068.274-.158.503-.269.694-.11.189-.239.335-.386.434s-.295.148-.453.148l-.215-.045c-.066-.029-.119-.08-.166-.156-.046-.075-.082-.177-.107-.306-.025-.126-.039-.292-.039-.492l.018-.325.041-.53.055-.644.058-.647.048-.546.027-.344h-.919l-.054.6h-.021c-.025-.103-.07-.195-.136-.281-.063-.083-.141-.155-.233-.216-.091-.061-.193-.106-.307-.141-.115-.033-.238-.048-.369-.048-.337 0-.646.07-.924.216-.281.144-.518.344-.721.599-.201.254-.355.556-.465.905-.115.35-.17.726-.17 1.134 0 .344.045.645.135.901.088.26.211.473.359.646.153.171.329.3.534.382.2.086.415.129.641.129.176 0 .342-.027.499-.081.154-.052.302-.13.432-.232.134-.104.248-.23.348-.38.102-.149.182-.323.236-.52h.027c0 .376.101.674.307.893.207.22.502.33.889.33.292 0 .58-.064.863-.198.283-.132.536-.328.762-.586.223-.262.404-.583.543-.966.138-.384.208-.83.208-1.34 0-.605-.117-1.15-.345-1.634-.231-.482-.546-.891-.939-1.225m-2.368 3.774c-.056.277-.136.517-.246.719-.109.203-.246.363-.407.481-.163.115-.354.176-.572.176-.12 0-.236-.025-.344-.078-.108-.052-.206-.13-.289-.232-.081-.103-.148-.234-.198-.39-.046-.156-.07-.337-.07-.547 0-.237.027-.481.08-.729.056-.247.137-.473.25-.677.109-.2.25-.363.416-.492.165-.127.361-.191.582-.191.123 0 .234.021.34.063.107.042.198.107.279.196.08.087.145.197.189.33.043.134.07.294.07.48 0 .317-.031.615-.08.891" fill="#C5C5C5"/><path d="M288.483 13c-.772 0-1.497-.123-2.153-.365-.678-.253-1.27-.617-1.76-1.084-.5-.475-.892-1.049-1.163-1.704-.269-.644-.407-1.371-.407-2.159 0-.517.061-1.018.178-1.49.116-.47.29-.925.516-1.348.225-.422.508-.815.844-1.167.334-.352.717-.656 1.139-.905.416-.246.881-.44 1.38-.576.492-.134 1.025-.202 1.586-.202.705 0 1.382.109 2.013.324.642.217 1.218.538 1.708.955.501.425.903.948 1.193 1.556.295.624.443 1.317.443 2.065 0 .619-.09 1.185-.268 1.679-.178.492-.42.92-.721 1.275-.331.377-.699.658-1.104.847l-.048.022v1.53l-.587.266c-.128.059-.288.117-.474.179-.193.062-.404.114-.645.159-.229.04-.477.076-.753.103-.27.027-.578.04-.917.04z" fill="#F3F3F3"/><path d="M291.716 4.041c-.396-.336-.856-.593-1.384-.771-.527-.179-1.09-.27-1.689-.27-.473 0-.912.055-1.324.167-.414.112-.791.27-1.135.473-.342.202-.65.446-.922.733-.273.286-.502.602-.686.949-.186.347-.33.722-.428 1.119-.099.4-.148.815-.148 1.247 0 .652.109 1.247.332 1.776.219.531.53.984.928 1.361.396.378.871.667 1.416.87.548.202 1.152.304 1.808.304.302 0 .577-.011.823-.035.246-.023.468-.056.664-.091.195-.036.366-.078.514-.125l.375-.14v-.854l-.463.184c-.16.056-.336.104-.521.143-.188.037-.387.069-.604.089-.213.024-.448.034-.7.034-.562 0-1.064-.088-1.509-.264-.442-.176-.816-.421-1.125-.731-.309-.314-.545-.687-.708-1.124-.161-.435-.243-.913-.243-1.432 0-.545.09-1.053.273-1.522.182-.471.435-.879.758-1.225.324-.345.708-.617 1.155-.815.446-.196.934-.294 1.457-.294.419 0 .798.044 1.122.136.329.091.62.215.871.369.254.158.465.339.643.547.179.209.324.432.438.667.113.237.193.48.246.731.051.254.076.5.076.741 0 .344-.033.653-.102.926-.068.274-.158.503-.269.694-.11.189-.239.335-.386.434s-.295.148-.453.148l-.215-.045c-.066-.029-.119-.08-.166-.156-.046-.075-.082-.177-.107-.306-.025-.126-.039-.292-.039-.492l.018-.325.041-.53.055-.644.058-.647.048-.546.027-.344h-.919l-.054.6h-.021c-.025-.103-.07-.195-.136-.281-.063-.083-.141-.155-.233-.216-.091-.061-.193-.106-.307-.141-.115-.033-.238-.048-.369-.048-.337 0-.646.07-.924.216-.281.144-.518.344-.721.599-.201.254-.355.556-.465.905-.115.35-.17.726-.17 1.134 0 .344.045.645.135.901.088.26.211.473.359.646.153.171.329.3.534.382.2.086.415.129.641.129.176 0 .342-.027.499-.081.154-.052.302-.13.432-.232.134-.104.248-.23.348-.38.102-.149.182-.323.236-.52h.027c0 .376.101.674.307.893.207.22.502.33.889.33.292 0 .58-.064.863-.198.283-.132.536-.328.762-.586.223-.262.404-.583.543-.966.138-.385.208-.831.208-1.341 0-.605-.117-1.15-.345-1.634-.231-.482-.546-.891-.939-1.225m-2.368 3.774c-.056.277-.136.517-.246.719-.109.203-.246.363-.407.481-.163.115-.354.176-.572.176-.12 0-.236-.025-.344-.078-.108-.052-.206-.13-.289-.232-.081-.103-.148-.234-.198-.39-.046-.156-.07-.337-.07-.547 0-.237.027-.481.08-.729.056-.247.137-.473.25-.677.109-.2.25-.363.416-.492.165-.127.361-.191.582-.191.123 0 .234.021.34.063.107.042.198.107.279.196.08.087.145.197.189.33.043.134.07.294.07.48 0 .317-.031.615-.08.891" fill="#424242"/><path d="M264 37v-14h8.625l3.375 3.556v10.444h-12z" fill="#2D2D2D"/><path d="M272 24h-7v12h10v-9l-3-3zm2 11h-8v-10h5v3h3v7z" fill="#C5C5C5"/><polygon points="266,25 271,25 271,28 274,28 274,35 266,35" fill="#2D2D2D"/><path d="M264 17v-14h8.625l3.375 3.556v10.444h-12z" fill="#F3F3F3"/><path d="M272 4h-7v12h10v-9l-3-3zm2 11h-8v-10h5v3h3v7z" fill="#424242"/><polygon points="266,5 271,5 271,8 274,8 274,15 266,15" fill="#F0EFF1"/><polygon points="247,34 247,30 245,30 245,26 255,26 255,34" fill="#2D2D2D"/><path d="M254 29h-8v-2h8v2zm0 1h-6v1h6v-1zm0 2h-6v1h6v-1z" fill="#C5C5C5"/><polygon points="247,14 247,10 245,10 245,6 255,6 255,14" fill="#F3F3F3"/><path d="M254 9h-8v-2h8v2zm0 1h-6v1h6v-1zm0 2h-6v1h6v-1z" fill="#424242"/><path d="M230.5 22c-4.143 0-7.5 3.357-7.5 7.5s3.357 7.5 7.5 7.5 7.5-3.357 7.5-7.5-3.357-7.5-7.5-7.5zm0 11c-1.933 0-3.5-1.566-3.5-3.5s1.567-3.5 3.5-3.5 3.5 1.566 3.5 3.5-1.567 3.5-3.5 3.5z" fill="#2D2D2D"/><path d="M224.025 29c.108-1.418.669-2.708 1.542-3.726l1.431 1.431c-.516.646-.851 1.43-.947 2.295h-2.026zm2.973 3.295c-.516-.646-.851-1.43-.947-2.295h-2.025c.108 1.418.669 2.707 1.542 3.726l1.43-1.431zm4.002-9.27v2.025c.865.097 1.649.432 2.295.947l1.431-1.431c-1.018-.872-2.308-1.432-3.726-1.541zm-3.295 2.973c.646-.516 1.43-.851 2.295-.947v-2.025c-1.418.108-2.708.669-3.726 1.542l1.431 1.43zm6.297.707c.516.646.851 1.43.947 2.295h2.025c-.108-1.418-.669-2.708-1.542-3.726l-1.43 1.431zm-4.002 7.244c-.865-.097-1.649-.432-2.295-.947l-1.431 1.431c1.018.873 2.307 1.434 3.726 1.542v-2.026zm4.949-3.949c-.097.865-.432 1.648-.947 2.295l1.431 1.431c.873-1.019 1.434-2.308 1.542-3.726h-2.026zm-1.654 3.002c-.646.516-1.43.851-2.295.947v2.025c1.419-.108 2.708-.669 3.726-1.542l-1.431-1.43z" fill="#C5C5C5"/><path d="M230.5 2c-4.143 0-7.5 3.358-7.5 7.5 0 4.143 3.357 7.5 7.5 7.5s7.5-3.357 7.5-7.5c0-4.142-3.357-7.5-7.5-7.5zm0 11c-1.933 0-3.5-1.566-3.5-3.5 0-1.933 1.567-3.5 3.5-3.5s3.5 1.567 3.5 3.5c0 1.934-1.567 3.5-3.5 3.5z" fill="#F3F3F3"/><path d="M224.025 9c.108-1.418.669-2.708 1.542-3.726l1.431 1.431c-.516.646-.851 1.43-.947 2.294h-2.026zm2.973 3.295c-.516-.646-.851-1.43-.947-2.295h-2.025c.108 1.418.669 2.707 1.542 3.726l1.43-1.431zm4.002-9.27v2.025c.865.097 1.649.432 2.295.948l1.431-1.431c-1.018-.873-2.308-1.433-3.726-1.542zm-3.295 2.974c.646-.516 1.43-.851 2.295-.948v-2.026c-1.418.108-2.708.669-3.726 1.542l1.431 1.432zm6.297.707c.516.646.851 1.43.947 2.294h2.025c-.108-1.418-.669-2.708-1.542-3.726l-1.43 1.432zm-4.002 7.243c-.865-.097-1.649-.432-2.295-.947l-1.431 1.431c1.018.873 2.307 1.434 3.726 1.542v-2.026zm4.949-3.949c-.097.865-.432 1.648-.947 2.295l1.431 1.431c.873-1.019 1.434-2.308 1.542-3.726h-2.026zm-1.654 3.002c-.646.516-1.43.851-2.295.947v2.025c1.419-.108 2.708-.669 3.726-1.542l-1.431-1.43z" fill="#424242"/><rect x="202" y="23" width="16" height="14" fill="#2D2D2D"/><path d="M203 24v12h14v-12h-14zm13 11h-12v-10h12v10zm-6-7v-1h-1v5h3v-4h-2zm1 3h-1v-2h1v2zm3-2v2h1v1h-2v-4h2v1h-1zm-6-1v4h-3v-2h1v1h1v-1h-1v-1h-1v-1h3z" fill="#C5C5C5"/><path d="M210 29h1v2h-1v-2zm-3 2v-1h-1v1h1zm9-6v10h-12v-10h12zm-8 3h-3v1h1v1h-1v2h3v-4zm4 0h-2v-1h-1v5h3v-4zm3 0h-2v4h2v-1h-1v-2h1v-1z" fill="#2D2D2D"/><rect x="202" y="3" width="16" height="14" fill="#F3F3F3"/><path d="M203 4v12h14v-12h-14zm13 11h-12v-10h12v10zm-6-7v-1h-1v5h3v-4h-2zm1 3h-1v-2h1v2zm3-2v2h1v1h-2v-4h2v1h-1zm-6-1v4h-3v-2h1v1h1v-1h-1v-1h-1v-1h3z" fill="#424242"/><path d="M210 9h1v2h-1v-2zm-3 2v-1h-1v1h1zm9-6v10h-12v-10h12zm-8 3h-3v1h1v1h-1v2h3v-4zm4 0h-2v-1h-1v5h3v-4zm3 0h-2v4h2v-1h-1v-2h1v-1z" fill="#F0EFF1"/><path d="M196.652 32.5c.811-.537 1.348-1.457 1.348-2.5 0-1.654-1.346-3-3-3-.771 0-1.468.301-2 .779v-5.779h-11v12h3.764l-1.452.727 1.481 1.48c.322.322.803.5 1.354.5.436 0 .897-.111 1.301-.313l3.144-1.572c.134.053.271.098.414.127l-.005.051c0 1.654 1.346 3 3 3s3-1.346 3-3c-.001-1.043-.538-1.963-1.349-2.5z" fill="#2D2D2D"/><path d="M195 33c-.293 0-.569.066-.82.18l-.25-.25c.042-.137.07-.279.07-.43s-.028-.293-.07-.43l.25-.25c.251.113.527.18.82.18 1.104 0 2-.896 2-2 0-1.105-.896-2-2-2s-2 .895-2 2c0 .293.066.568.18.82l-.25.25c-.137-.043-.279-.07-.43-.07-.337 0-.645.115-.895.303l-2.607-1.305-.999-.5c-.552-.275-1.223-.275-1.499.002l-.5.5 5 2.5-5 2.5.5.5c.276.275.947.275 1.5 0l1-.5 2.605-1.303c.25.188.558.303.895.303.15 0 .293-.029.43-.07l.25.25c-.114.25-.18.527-.18.82 0 1.104.896 2 2 2s2-.896 2-2c0-1.105-.896-2-2-2zm0-4c.553 0 1 .447 1 1 0 .551-.447 1-1 1s-1-.449-1-1c0-.553.447-1 1-1zm-2.5 4c-.276 0-.5-.225-.5-.5 0-.277.224-.5.5-.5s.5.223.5.5c0 .275-.224.5-.5.5zm2.5 3c-.553 0-1-.449-1-1 0-.553.447-1 1-1s1 .447 1 1c0 .551-.447 1-1 1zm-3-13v7.051c-.142.029-.279.07-.413.123l-.587-.174v-6h-7v7h-1v-8h9zm-8 10h-1v-1h1v1zm2-1h-1v1h1v-1zm2 0h-1v1h1v-1z" fill="#C5C5C5"/><path d="M185.793 28.793l-1.793 1.207v-6h7v5.381l-2.554-.777c-.816-.409-1.99-.475-2.653.189zm-.793 2.207h.764l-.764-.383v.383zm11 4c0 .551-.447 1-1 1s-1-.449-1-1c0-.553.447-1 1-1s1 .447 1 1zm-3.5-3c-.276 0-.5.223-.5.5 0 .275.224.5.5.5s.5-.225.5-.5c0-.277-.224-.5-.5-.5zm2.5-3c-.553 0-1 .447-1 1 0 .551.447 1 1 1s1-.449 1-1c0-.553-.447-1-1-1z" fill="#2D2D2D"/><path d="M196.652 12.5c.811-.538 1.348-1.458 1.348-2.5 0-1.654-1.346-3-3-3-.771 0-1.468.301-2 .779v-5.779h-11v12h3.764l-1.452.727 1.481 1.48c.322.322.803.5 1.354.5.436 0 .897-.111 1.301-.313l3.144-1.572c.134.053.271.098.414.127l-.005.051c0 1.654 1.346 3 3 3s3-1.346 3-3c-.001-1.043-.538-1.963-1.349-2.5z" fill="#F3F3F3"/><path d="M195 13c-.293 0-.569.066-.82.18l-.25-.25c.042-.137.07-.279.07-.43s-.028-.293-.07-.43l.25-.25c.251.113.527.18.82.18 1.104 0 2-.896 2-2 0-1.105-.896-2-2-2s-2 .895-2 2c0 .293.066.568.18.82l-.25.25c-.137-.043-.279-.07-.43-.07-.337 0-.645.115-.895.303l-2.607-1.304-.999-.5c-.552-.275-1.223-.275-1.499.002l-.5.499 5 2.5-5 2.5.5.5c.276.275.947.275 1.5 0l1-.5 2.605-1.303c.25.188.558.303.895.303.15 0 .293-.029.43-.07l.25.25c-.113.25-.18.527-.18.82 0 1.104.896 2 2 2s2-.896 2-2c0-1.106-.896-2-2-2zm0-4c.553 0 1 .447 1 1 0 .551-.447 1-1 1s-1-.449-1-1c0-.553.447-1 1-1zm-2.5 4c-.276 0-.5-.225-.5-.5 0-.277.224-.5.5-.5s.5.223.5.5c0 .275-.224.5-.5.5zm2.5 3c-.553 0-1-.449-1-1 0-.553.447-1 1-1s1 .447 1 1c0 .55-.447 1-1 1zm-3-13v7.051c-.142.029-.279.07-.413.123l-.587-.174v-6h-7v7h-1v-8h9zm-8 10h-1v-1h1v1zm2-1h-1v1h1v-1zm2 0h-1v1h1v-1z" fill="#424242"/><path d="M185.793 8.793l-1.793 1.207v-6h7v5.381l-2.554-.777c-.816-.409-1.99-.475-2.653.189zm-.793 2.207h.764l-.764-.383v.383zm11 4c0 .551-.447 1-1 1s-1-.449-1-1c0-.553.447-1 1-1s1 .447 1 1zm-3.5-3c-.276 0-.5.223-.5.5 0 .275.224.5.5.5s.5-.225.5-.5c0-.278-.224-.5-.5-.5zm2.5-3c-.553 0-1 .447-1 1 0 .551.447 1 1 1s1-.449 1-1c0-.553-.447-1-1-1z" fill="#F0EFF1"/><path d="M178 27v-3h-7v-1h-9v14h13v-3h3v-3h-1v-3h-6v-1h7zm-8 7v-3h1v3h-1z" fill="#2D2D2D"/><path d="M177 26h-5v-1h5v1zm-1 3h-2v1h2v-1zm-4 0h-9v1h9v-1zm2 6h-11v1h11v-1zm-5-3h-6v1h6v-1zm8 0h-5v1h5v-1zm-7-8v3h-7v-3h7zm-1 1h-5v1h5v-1z" fill="#C5C5C5"/><rect x="164" y="25" width="5" height="1" fill="#2D2D2D"/><path d="M178 7v-3h-7v-1h-9v14h13v-3h3v-3h-1v-3h-6v-1h7zm-8 7v-3h1v3h-1z" fill="#F3F3F3"/><path d="M177 6h-5v-1h5v1zm-1 3h-2v1h2v-1zm-4 0h-9v1h9v-1zm2 6h-11v1h11v-1zm-5-3h-6v1h6v-1zm8 0h-5v1h5v-1zm-7-8v3h-7v-3h7zm-1 1h-5v1h5v-1z" fill="#424242"/><rect x="164" y="5" width="5" height="1" fill="#F0EFF1"/><polygon points="154.414,24 149.586,24 148,25.586 148,28 144,28 144,35 152,35 152,31 154.414,31 156,29.414 156,25.586" fill="#2D2D2D"/><g fill="#75BEFF"><path d="M154 25h-4l-1 1v2h5v1h-2v1h2l1-1v-3l-1-1zm0 2h-4v-1h4v1zM145 34h6v-5h-6v5zm1-3h4v1h-4v-1z"/></g><g fill="#2D2D2D"><rect x="146" y="31" width="4" height="1"/><rect x="150" y="26" width="4" height="1"/><rect x="152" y="28" width="2" height="1"/></g><polygon points="154.414,4 149.586,4 148,5.586 148,8 144,8 144,15 152,15 152,11 154.414,11 156,9.414 156,5.586" fill="#F3F3F3"/><g fill="#00539C"><path d="M154 5h-4l-1 1v2h5v1h-2v1h2l1-1v-3l-1-1zm0 2h-4v-1h4v1zM145 14h6v-5h-6v5zm1-3h4v1h-4v-1z"/></g><g fill="#F0EFF1"><rect x="146" y="11" width="4" height="1"/><rect x="150" y="6" width="4" height="1"/><rect x="152" y="8" width="2" height="1"/></g><path d="M138 24h-15v4h-1v8h8v-6h8v-6zm-11 9h-2v-2h2v2z" fill="#2D2D2D"/><path d="M137 29h-7v-1h-6v-3h1v2h1v-2h1v2h1v-2h1v2h1v-2h1v2h1v-2h1v2h1v-2h1v2h1v-2h1v4zm-12 1v-1h-2v6h2v-1h-1v-4h1zm2 4v1h2v-6h-2v1h1v4h-1z" fill="#C5C5C5"/><path d="M125 27v-2h1v2h-1zm3 0v-2h-1v2h1zm2 0v-2h-1v2h1zm2 0v-2h-1v2h1zm2 0v-2h-1v2h1zm2 0v-2h-1v2h1z" fill="#2D2D2D"/><path d="M138 4h-15v4h-1v8h8v-6h8v-6zm-11 9h-2v-2h2v2z" fill="#F3F3F3"/><path d="M137 9h-7v-1h-6v-3h1v2h1v-2h1v2h1v-2h1v2h1v-2h1v2h1v-2h1v2h1v-2h1v2h1v-2h1v4zm-12 1v-1h-2v6h2v-1h-1v-4h1zm2 4v1h2v-6h-2v1h1v4h-1z" fill="#424242"/><path d="M125 7v-2h1v2h-1zm3 0v-2h-1v2h1zm2 0v-2h-1v2h1zm2 0v-2h-1v2h1zm2 0v-2h-1v2h1zm2 0v-2h-1v2h1z" fill="#F0EFF1"/><path d="M110.449 23c-1.637 0-3.075.797-3.987 2.012l.001.002c-.628.836-1.014 1.863-1.014 2.986 0 .469.067.933.2 1.385l-2.907 2.908c-.687.686-1.253 2.161 0 3.414.609.609 1.244.736 1.67.736.958 0 1.621-.613 1.744-.736l2.907-2.908c.453.133.917.201 1.386.201 1.123 0 2.149-.387 2.985-1.014l.002.001c1.216-.912 2.013-2.352 2.013-3.987 0-2.762-2.238-5-5-5z" fill="#2D2D2D"/><path d="M114.09 26.359l-2.641 2.641-2-2 2.641-2.641c-.502-.227-1.055-.359-1.641-.359-2.209 0-4 1.791-4 4 0 .586.133 1.139.359 1.64l-3.359 3.36s-1 1 0 2h2l3.359-3.36c.502.227 1.055.36 1.641.36 2.209 0 4-1.791 4-4 0-.586-.133-1.139-.359-1.641z" fill="#C5C5C5"/><path d="M110.449 3c-1.637 0-3.075.797-3.987 2.012l.001.002c-.628.836-1.014 1.863-1.014 2.986 0 .469.067.933.2 1.385l-2.907 2.908c-.687.686-1.253 2.161 0 3.414.609.609 1.244.736 1.67.736.958 0 1.621-.613 1.744-.736l2.907-2.908c.453.133.917.201 1.386.201 1.123 0 2.149-.387 2.985-1.014l.002.001c1.216-.912 2.013-2.352 2.013-3.987 0-2.762-2.238-5-5-5z" fill="#F3F3F3"/><path d="M114.09 6.359l-2.641 2.641-2-2 2.641-2.641c-.502-.226-1.055-.359-1.641-.359-2.209 0-4 1.791-4 4 0 .586.133 1.139.359 1.64l-3.359 3.36s-1 1 0 2h2l3.359-3.36c.502.227 1.055.36 1.641.36 2.209 0 4-1.791 4-4 0-.586-.133-1.139-.359-1.641z" fill="#424242"/><path d="M89 33h1v-1c0-.537.741-1.613 1-2-.259-.389-1-1.467-1-2v-1h-1v-3h1c1.969.021 3 1.277 3 3v1l1 1v2l-1 1v1c0 1.709-1.031 2.979-3 3h-1v-3zm-2 0h-1v-1c0-.537-.741-1.613-1-2 .259-.389 1-1.467 1-2v-1h1v-3h-1c-1.969.021-3 1.277-3 3v1l-1 1v2l1 1v1c0 1.709 1.317 2.979 3.286 3h.714v-3z" fill="#2D2D2D"/><path d="M91 33v-1c0-.834.496-1.738 1-2-.504-.27-1-1.168-1-2v-1c0-.84-.584-1-1-1v-1c2.083 0 2 1.166 2 2v1c0 .969.703.98 1 1v2c-.322.02-1 .053-1 1v1c0 .834.083 2-2 2v-1c.833 0 1-1 1-1zm-6 0v-1c0-.834-.496-1.738-1-2 .504-.27 1-1.168 1-2v-1c0-.84.584-1 1-1v-1c-2.083 0-2 1.166-2 2v1c0 .969-.703.98-1 1v2c.322.02 1 .053 1 1v1c0 .834-.083 2 2 2v-1c-.833 0-1-1-1-1z" fill="#C5C5C5"/><path d="M89 13h1v-1c0-.537.741-1.613 1-2-.259-.389-1-1.467-1-2v-1h-1v-3h1c1.969.021 3 1.277 3 3v1l1 1v2l-1 1v1c0 1.709-1.031 2.979-3 3h-1v-3zm-2 0h-1v-1c0-.537-.741-1.613-1-2 .259-.389 1-1.467 1-2v-1h1v-3h-1c-1.969.021-3 1.277-3 3v1l-1 1v2l1 1v1c0 1.709 1.317 2.979 3.286 3h.714v-3z" fill="#F3F3F3"/><path d="M91 13v-1c0-.834.496-1.738 1-2-.504-.27-1-1.168-1-2v-1c0-.84-.584-1-1-1v-1c2.083 0 2 1.166 2 2v1c0 .969.703.98 1 1v2c-.322.02-1 .053-1 1v1c0 .834.083 2-2 2v-1c.833 0 1-1 1-1zm-6 0v-1c0-.834-.496-1.738-1-2 .504-.27 1-1.168 1-2v-1c0-.84.584-1 1-1v-1c-2.083 0-2 1.166-2 2v1c0 .969-.703.98-1 1v2c.322.02 1 .053 1 1v1c0 .834-.083 2 2 2v-1c-.833 0-1-1-1-1z" fill="#424242"/><path d="M73.5 34c-1.914 0-3.601-1.242-4.227-3h-1.683c-.524.91-1.503 1.5-2.591 1.5-1.654 0-3-1.346-3-3s1.346-3 3-3c1.088 0 2.066.588 2.591 1.5h1.683c.626-1.76 2.313-3 4.227-3 2.481 0 4.5 2.018 4.5 4.5 0 2.48-2.019 4.5-4.5 4.5z" fill="#2D2D2D"/><path d="M73.5 26c-1.759 0-3.204 1.308-3.449 3h-3.122c-.223-.861-.998-1.5-1.929-1.5-1.104 0-2 .895-2 2 0 1.104.896 2 2 2 .931 0 1.706-.639 1.929-1.5h3.122c.245 1.691 1.69 3 3.449 3 1.93 0 3.5-1.57 3.5-3.5 0-1.931-1.57-3.5-3.5-3.5zm0 5c-.827 0-1.5-.674-1.5-1.5 0-.828.673-1.5 1.5-1.5s1.5.672 1.5 1.5c0 .826-.673 1.5-1.5 1.5z" fill="#75BEFF"/><circle cx="73.5" cy="29.5" r="1.5" fill="#2D2D2D"/><path d="M73.5 14c-1.914 0-3.601-1.242-4.227-3h-1.683c-.524.91-1.503 1.5-2.591 1.5-1.654 0-3-1.346-3-3s1.346-3 3-3c1.088 0 2.066.588 2.591 1.5h1.683c.626-1.76 2.313-3 4.227-3 2.481 0 4.5 2.018 4.5 4.5 0 2.48-2.019 4.5-4.5 4.5z" fill="#F3F3F3"/><path d="M73.5 6c-1.759 0-3.204 1.308-3.449 3h-3.122c-.223-.861-.998-1.5-1.929-1.5-1.104 0-2 .895-2 2 0 1.104.896 2 2 2 .931 0 1.706-.639 1.929-1.5h3.122c.245 1.691 1.69 3 3.449 3 1.93 0 3.5-1.57 3.5-3.5 0-1.931-1.57-3.5-3.5-3.5zm0 5c-.827 0-1.5-.674-1.5-1.5 0-.828.673-1.5 1.5-1.5s1.5.672 1.5 1.5c0 .826-.673 1.5-1.5 1.5z" fill="#00539C"/><circle cx="73.5" cy="9.5" r="1.5" fill="#F0EFF1"/><path d="M58 28.586l-3-3-1.414 1.414h-2.172l1-1-4-4h-.828l-5.586 5.586v.828l4 4 2.414-2.414h.586v5h1.586l3 3h.828l3.586-3.586v-.828l-2.086-2.086 2.086-2.086v-.828z" fill="#2D2D2D"/><polygon points="53.998,33.002 51,33 51,29 53,29 52,30 54,32 57,29 55,27 54,28 49,28 51,26 48,23 43,28 46,31 48,29 50,29 50,34 53,34 52,35 54,37 57,34 55,32" fill="#C27D1A"/><path d="M58 8.586l-3-3-1.414 1.414h-2.172l1-1-4-4h-.828l-5.586 5.586v.828l4 4 2.414-2.414h.586v5h1.586l3 3h.828l3.586-3.586v-.828l-2.086-2.086 2.086-2.086v-.828z" fill="#F3F3F3"/><polygon points="53.998,13.002 51,13 51,9 53,9 52,10 54,12 57,9 55,7 54,8 49,8 51,6 48,3 43,8 46,11 48,9 50,9 50,14 53,14 52,15 54,17 57,14 55,12" fill="#C27D1A"/><path d="M29.263 24l4.737 2.369v5.236l-6.791 3.395h-.42l-4.789-2.395v-5.236l6.739-3.369h.524z" fill="#2D2D2D"/><path d="M23 28v4l4 2 6-3v-4l-4-2-6 3zm4 1l-2-1 4-2 2 1-4 2z" fill="#75BEFF"/><path d="M29 26l2 1-4 2-2-1 4-2z" fill="#2D2D2D"/><path d="M29.263 4l4.737 2.369v5.236l-6.791 3.395h-.42l-4.789-2.395v-5.236l6.739-3.369h.524z" fill="#F3F3F3"/><path d="M23 8v4l4 2 6-3v-4l-4-2-6 3zm4 1l-2-1 4-2 2 1-4 2z" fill="#00539C"/><path d="M29 6l2 1-4 2-2-1 4-2z" fill="#F0EFF1"/><polygon points="2,27.308 2,32.692 7.209,36 7.791,36 13,32.692 13,27.308 7.791,24 7.209,24" fill="#2D2D2D"/><path d="M7.5 25l-4.5 2.857v4.285l4.5 2.858 4.5-2.857v-4.285l-4.5-2.858zm-.5 8.498l-3-1.905v-2.815l3 1.905v2.815zm-2.358-5.498l2.858-1.815 2.858 1.815-2.858 1.815-2.858-1.815zm6.358 3.593l-3 1.905v-2.815l3-1.905v2.815z" fill="#B180D7"/><polygon points="10.358,28 7.5,29.815 4.642,28 7.5,26.185" fill="#2D2D2D"/><polygon points="4,28.777 7,30.683 7,33.498 4,31.593" fill="#2D2D2D"/><polygon points="8,33.498 8,30.683 11,28.777 11,31.593" fill="#2D2D2D"/><polygon points="2,7.308 2,12.692 7.209,16 7.791,16 13,12.692 13,7.308 7.791,4 7.209,4" fill="#F3F3F3"/><path d="M7.5 5l-4.5 2.857v4.285l4.5 2.858 4.5-2.857v-4.286l-4.5-2.857zm-.5 8.498l-3-1.905v-2.816l3 1.905v2.816zm-2.358-5.498l2.858-1.815 2.858 1.815-2.858 1.815-2.858-1.815zm6.358 3.593l-3 1.905v-2.815l3-1.905v2.815z" fill="#652D90"/><polygon points="10.358,8 7.5,9.815 4.642,8 7.5,6.185" fill="#F0EFF1"/><polygon points="4,8.777 7,10.683 7,13.498 4,11.593" fill="#F0EFF1"/><polygon points="8,13.498 8,10.683 11,8.777 11,11.593" fill="#F0EFF1"/></svg>