<svg width="300" height="40" viewBox="0 0 300 40" fill="none" xmlns="http://www.w3.org/2000/svg">
<path fill-rule="evenodd" clip-rule="evenodd" d="M4 26.8575L4.4855 26L9.4855 23H10.5145L15.5145 26L16 26.8575V32.8575L15.5145 33.715L10.5145 36.715H9.4855L4.4855 33.715L4 32.8575V26.8575ZM9.5 35.5575L5 32.8575V27.6998L9.5 30.1543V35.5575ZM10.5 35.5575L15 32.8575V27.6998L10.5 30.1543V35.5575ZM10 23.8575L5.25913 26.702L10 29.2879L14.7409 26.702L10 23.8575Z" fill="#B180D7"/>
<path fill-rule="evenodd" clip-rule="evenodd" d="M4 6.85749L4.4855 6L9.4855 3H10.5145L15.5145 6L16 6.85749V12.8575L15.5145 13.715L10.5145 16.715H9.4855L4.4855 13.715L4 12.8575V6.85749ZM9.5 15.5575L5 12.8575V7.69975L9.5 10.1543V15.5575ZM10.5 15.5575L15 12.8575V7.69975L10.5 10.1543V15.5575ZM10 3.85749L5.25913 6.70201L10 9.28794L14.7409 6.70201L10 3.85749Z" fill="#652D90"/>
<path fill-rule="evenodd" clip-rule="evenodd" d="M23 28.3944L23.5528 27.5L30.5528 24H31.4472L36.4472 26.5L37 27.3944V31.8944L36.4472 32.7889L29.4472 36.2889H28.5528L23.5528 33.7889L23 32.8944V28.3944ZM28.5 35.1444L24 32.8944V29.1709L28.5 31.2164V35.1444ZM29.5 35.1444L36 31.8944V28.1795L29.5 31.2129V35.1444ZM31 24.8944L24.3373 28.2258L28.9972 30.344L35.6706 27.2297L31 24.8944Z" fill="#75BEFF"/>
<path fill-rule="evenodd" clip-rule="evenodd" d="M23 8.39443L23.5528 7.5L30.5528 4H31.4472L36.4472 6.5L37 7.39443V11.8944L36.4472 12.7889L29.4472 16.2889H28.5528L23.5528 13.7889L23 12.8944V8.39443ZM28.5 15.1444L24 12.8944V9.17094L28.5 11.2164V15.1444ZM29.5 15.1444L36 11.8944V8.17954L29.5 11.2129V15.1444ZM31 4.89443L24.3373 8.22579L28.9972 10.344L35.6706 7.22973L31 4.89443Z" fill="#007ACC"/>
<path fill-rule="evenodd" clip-rule="evenodd" d="M45.3536 28.6464L44.0607 27.3535L47.3536 24.0607L48.6465 25.3535L45.3536 28.6464ZM47 23L43 27V27.7071L45 29.7071H45.7071L46.8536 28.5606V34.3535L47.3536 34.8535H52.0097V35.3741L53.343 36.7074H54.0501L56.7168 34.0407V33.3336L55.3835 32.0003H54.6763L52.8231 33.8535H47.8536V29.8935H52.0097V30.374L53.343 31.7073H54.0501L56.7168 29.0407V28.3336L55.3835 27.0002H54.6763L52.863 28.8136H47.8536V27.5606L49.7071 25.7071V25L47.7071 23H47ZM53.0703 30.0205L53.6966 30.6467L55.6561 28.6871L55.0299 28.0609L53.0703 30.0205ZM53.0703 35.0205L53.6966 35.6467L55.6561 33.6872L55.0299 33.061L53.0703 35.0205Z" fill="#EE9D28"/>
<path fill-rule="evenodd" clip-rule="evenodd" d="M45.3536 8.64642L44.0607 7.35353L47.3536 4.06065L48.6465 5.35354L45.3536 8.64642ZM47 3L43 6.99998V7.70708L45 9.70707H45.7071L46.8536 8.56063V14.3535L47.3536 14.8535H52.0097V15.3741L53.343 16.7074H54.0501L56.7168 14.0407V13.3336L55.3835 12.0003H54.6763L52.8231 13.8535H47.8536V9.89355H52.0097V10.374L53.343 11.7073H54.0501L56.7168 9.04068V8.33357L55.3835 7.00024H54.6763L52.863 8.81356H47.8536V7.56064L49.7071 5.70709V4.99999L47.7071 3H47ZM53.0703 10.0205L53.6966 10.6467L55.6561 8.68713L55.0299 8.0609L53.0703 10.0205ZM53.0703 15.0205L53.6966 15.6467L55.6561 13.6872L55.0299 13.061L53.0703 15.0205Z" fill="#D67E00"/>
<path fill-rule="evenodd" clip-rule="evenodd" d="M88 24.9836V24.9718V24H87.9108C87.5974 24 87.2941 24.0616 87.0013 24.1847C86.7082 24.308 86.4494 24.4847 86.2258 24.715C86.0031 24.9442 85.8379 25.195 85.7328 25.4677L85.7323 25.469C85.6338 25.7352 85.5681 26.012 85.5353 26.2992L85.5352 26.3005C85.5068 26.5805 85.4987 26.8684 85.5108 27.1643C85.5227 27.4538 85.5287 27.7433 85.5287 28.0328C85.5287 28.2356 85.4897 28.4259 85.412 28.6051L85.4116 28.606C85.3369 28.783 85.2342 28.9387 85.1032 29.0736C84.9764 29.2041 84.8247 29.3106 84.6467 29.3925C84.4706 29.4695 84.285 29.5082 84.0892 29.5082H84V29.6V30.4V30.4918H84.0892C84.2847 30.4918 84.47 30.5324 84.646 30.6133L84.6474 30.614C84.8246 30.6916 84.9758 30.7976 85.1022 30.9316L85.1041 30.9335C85.2343 31.0637 85.3366 31.2187 85.4113 31.3994L85.412 31.4011C85.4899 31.5805 85.5287 31.7688 85.5287 31.9672C85.5287 32.2567 85.5227 32.5462 85.5108 32.8357C85.4987 33.1316 85.5068 33.4215 85.5352 33.7055L85.5354 33.7072C85.5682 33.9903 85.6339 34.265 85.7323 34.531L85.7328 34.5323C85.8379 34.805 86.0031 35.0558 86.2258 35.285C86.4494 35.5153 86.7082 35.692 87.0013 35.8153C87.2941 35.9384 87.5974 36 87.9108 36H88V35.2V35.0164H87.9108C87.7109 35.0164 87.5235 34.9777 87.3476 34.9008C87.174 34.8191 87.0219 34.7126 86.8909 34.5818C86.7639 34.4469 86.661 34.2911 86.5822 34.1137C86.5084 33.9346 86.4713 33.744 86.4713 33.541C86.4713 33.3127 86.4753 33.0885 86.4832 32.8686C86.4912 32.6411 86.4913 32.4195 86.4832 32.2039C86.4791 31.9825 86.4608 31.7688 86.4282 31.5631C86.3951 31.3502 86.3392 31.1476 86.2604 30.9554C86.1809 30.7616 86.0726 30.5775 85.9362 30.403C85.8235 30.2588 85.6854 30.1246 85.5228 30C85.6854 29.8754 85.8235 29.7412 85.9362 29.597C86.0726 29.4225 86.1809 29.2384 86.2604 29.0446C86.3391 28.8526 86.3951 28.6517 86.4283 28.4428C86.4608 28.2333 86.4791 28.0197 86.4832 27.8022C86.4913 27.5826 86.4913 27.3611 86.4832 27.1375C86.4753 26.9134 86.4713 26.6872 86.4713 26.459C86.4713 26.2602 86.5083 26.0715 86.5824 25.8921C86.6614 25.7103 86.7642 25.5548 86.8909 25.4244C87.0219 25.2894 87.1746 25.1827 87.348 25.1051C87.5238 25.0243 87.7111 24.9836 87.9108 24.9836H88ZM92 35.0164V35.0282V36H92.0892C92.4026 36 92.7059 35.9384 92.9987 35.8153C93.2918 35.692 93.5506 35.5153 93.7742 35.285C93.9969 35.0558 94.1621 34.805 94.2672 34.5323L94.2677 34.531C94.3662 34.2648 94.4319 33.988 94.4647 33.7008L94.4648 33.6995C94.4932 33.4195 94.5013 33.1316 94.4892 32.8357C94.4773 32.5462 94.4713 32.2567 94.4713 31.9672C94.4713 31.7644 94.5103 31.5741 94.588 31.3949L94.5884 31.394C94.6631 31.217 94.7658 31.0613 94.8968 30.9264C95.0236 30.7959 95.1753 30.6894 95.3533 30.6075C95.5294 30.5305 95.715 30.4918 95.9108 30.4918H96V30.4V29.6V29.5082H95.9108C95.7153 29.5082 95.53 29.4676 95.354 29.3867L95.3526 29.386C95.1754 29.3084 95.0242 29.2024 94.8978 29.0684L94.8959 29.0665C94.7657 28.9363 94.6634 28.7813 94.5887 28.6006L94.588 28.5989C94.5101 28.4195 94.4713 28.2312 94.4713 28.0328C94.4713 27.7433 94.4773 27.4538 94.4892 27.1643C94.5013 26.8684 94.4932 26.5785 94.4648 26.2945L94.4646 26.2928C94.4318 26.0097 94.3661 25.735 94.2677 25.469L94.2672 25.4677C94.1621 25.195 93.9969 24.9442 93.7742 24.715C93.5506 24.4847 93.2918 24.308 92.9987 24.1847C92.7059 24.0616 92.4026 24 92.0892 24H92V24.8V24.9836H92.0892C92.2891 24.9836 92.4765 25.0223 92.6524 25.0992C92.826 25.1809 92.9781 25.2874 93.1091 25.4182C93.2361 25.5531 93.339 25.7089 93.4178 25.8863C93.4916 26.0654 93.5287 26.256 93.5287 26.459C93.5287 26.6873 93.5247 26.9115 93.5168 27.1314C93.5088 27.3589 93.5087 27.5805 93.5168 27.7961C93.5209 28.0175 93.5392 28.2312 93.5718 28.4369C93.6049 28.6498 93.6608 28.8524 93.7396 29.0446C93.8191 29.2384 93.9274 29.4225 94.0638 29.597C94.1765 29.7412 94.3146 29.8754 94.4772 30C94.3146 30.1246 94.1765 30.2588 94.0638 30.403C93.9274 30.5775 93.8191 30.7616 93.7396 30.9554C93.6609 31.1474 93.6049 31.3483 93.5717 31.5572C93.5392 31.7667 93.5209 31.9803 93.5168 32.1978C93.5087 32.4174 93.5087 32.6389 93.5168 32.8625C93.5247 33.0866 93.5287 33.3128 93.5287 33.541C93.5287 33.7398 93.4917 33.9285 93.4176 34.1079C93.3386 34.2897 93.2358 34.4452 93.1091 34.5756C92.9781 34.7106 92.8254 34.8173 92.652 34.8949C92.4762 34.9757 92.2889 35.0164 92.0892 35.0164H92Z" fill="#C5C5C5"/>
<path fill-rule="evenodd" clip-rule="evenodd" d="M88 4.98361V4.97184V4H87.9108C87.5974 4 87.2941 4.06161 87.0013 4.18473C86.7082 4.30798 86.4494 4.48474 86.2258 4.71498C86.0031 4.94422 85.8379 5.19498 85.7328 5.46766L85.7323 5.46898C85.6338 5.7352 85.5681 6.01201 85.5353 6.29917L85.5352 6.30053C85.5068 6.5805 85.4987 6.86844 85.5108 7.16428C85.5227 7.45379 85.5287 7.74329 85.5287 8.03279C85.5287 8.23556 85.4897 8.42594 85.412 8.60507L85.4116 8.60601C85.3369 8.78296 85.2342 8.93866 85.1032 9.07359C84.9764 9.20405 84.8247 9.31055 84.6467 9.3925C84.4706 9.46954 84.285 9.5082 84.0892 9.5082H84V9.6V10.4V10.4918H84.0892C84.2847 10.4918 84.47 10.5324 84.646 10.6133L84.6474 10.614C84.8246 10.6916 84.9758 10.7976 85.1022 10.9316L85.1041 10.9335C85.2343 11.0637 85.3366 11.2187 85.4113 11.3994L85.412 11.4011C85.4899 11.5805 85.5287 11.7688 85.5287 11.9672C85.5287 12.2567 85.5227 12.5462 85.5108 12.8357C85.4987 13.1316 85.5068 13.4215 85.5352 13.7055L85.5354 13.7072C85.5682 13.9903 85.6339 14.265 85.7323 14.531L85.7328 14.5323C85.8379 14.805 86.0031 15.0558 86.2258 15.285C86.4494 15.5153 86.7082 15.692 87.0013 15.8153C87.2941 15.9384 87.5974 16 87.9108 16H88V15.2V15.0164H87.9108C87.7109 15.0164 87.5235 14.9777 87.3476 14.9008C87.174 14.8191 87.0219 14.7126 86.8909 14.5818C86.7639 14.4469 86.661 14.2911 86.5822 14.1137C86.5084 13.9346 86.4713 13.744 86.4713 13.541C86.4713 13.3127 86.4753 13.0885 86.4832 12.8686C86.4912 12.6411 86.4913 12.4195 86.4832 12.2039C86.4791 11.9825 86.4608 11.7688 86.4282 11.5631C86.3951 11.3502 86.3392 11.1476 86.2604 10.9554C86.1809 10.7616 86.0726 10.5775 85.9362 10.403C85.8235 10.2588 85.6854 10.1246 85.5228 10C85.6854 9.87538 85.8235 9.74119 85.9362 9.59702C86.0726 9.42254 86.1809 9.23843 86.2604 9.04464C86.3391 8.85263 86.3951 8.65175 86.4283 8.44285C86.4608 8.2333 86.4791 8.01973 86.4832 7.80219C86.4913 7.58262 86.4913 7.36105 86.4832 7.13749C86.4753 6.9134 86.4713 6.68725 86.4713 6.45902C86.4713 6.26019 86.5083 6.07152 86.5824 5.89205C86.6614 5.71034 86.7642 5.55475 86.8909 5.42437C87.0219 5.28942 87.1746 5.18275 87.348 5.10513C87.5238 5.02427 87.7111 4.98361 87.9108 4.98361H88ZM92 15.0164V15.0282V16H92.0892C92.4026 16 92.7059 15.9384 92.9987 15.8153C93.2918 15.692 93.5506 15.5153 93.7742 15.285C93.9969 15.0558 94.1621 14.805 94.2672 14.5323L94.2677 14.531C94.3662 14.2648 94.4319 13.988 94.4647 13.7008L94.4648 13.6995C94.4932 13.4195 94.5013 13.1316 94.4892 12.8357C94.4773 12.5462 94.4713 12.2567 94.4713 11.9672C94.4713 11.7644 94.5103 11.5741 94.588 11.3949L94.5884 11.394C94.6631 11.217 94.7658 11.0613 94.8968 10.9264C95.0236 10.7959 95.1753 10.6894 95.3533 10.6075C95.5294 10.5305 95.715 10.4918 95.9108 10.4918H96V10.4V9.6V9.5082H95.9108C95.7153 9.5082 95.53 9.46762 95.354 9.38666L95.3526 9.38604C95.1754 9.30844 95.0242 9.20238 94.8978 9.06839L94.8959 9.06648C94.7657 8.9363 94.6634 8.78129 94.5887 8.60058L94.588 8.59892C94.5101 8.41953 94.4713 8.23117 94.4713 8.03279C94.4713 7.74329 94.4773 7.45379 94.4892 7.16428C94.5013 6.86842 94.4932 6.57848 94.4648 6.29454L94.4646 6.29285C94.4318 6.00971 94.3661 5.73502 94.2677 5.46897L94.2672 5.46766C94.1621 5.19499 93.9969 4.94422 93.7742 4.71498C93.5506 4.48474 93.2918 4.30798 92.9987 4.18473C92.7059 4.06161 92.4026 4 92.0892 4H92V4.8V4.98361H92.0892C92.2891 4.98361 92.4765 5.0223 92.6524 5.09917C92.826 5.18092 92.9781 5.28736 93.1091 5.41823C93.2361 5.55305 93.339 5.70889 93.4178 5.88628C93.4916 6.0654 93.5287 6.25596 93.5287 6.45902C93.5287 6.68727 93.5247 6.91145 93.5168 7.13142C93.5088 7.35894 93.5087 7.58049 93.5168 7.79605C93.5209 8.01754 93.5392 8.23117 93.5718 8.43688C93.6049 8.64976 93.6608 8.85243 93.7396 9.04464C93.8191 9.23843 93.9274 9.42254 94.0638 9.59702C94.1765 9.74119 94.3146 9.87538 94.4772 10C94.3146 10.1246 94.1765 10.2588 94.0638 10.403C93.9274 10.5775 93.8191 10.7616 93.7396 10.9554C93.6609 11.1474 93.6049 11.3483 93.5717 11.5572C93.5392 11.7667 93.5209 11.9803 93.5168 12.1978C93.5087 12.4174 93.5087 12.6389 93.5168 12.8625C93.5247 13.0866 93.5287 13.3128 93.5287 13.541C93.5287 13.7398 93.4917 13.9285 93.4176 14.1079C93.3386 14.2897 93.2358 14.4452 93.1091 14.5756C92.9781 14.7106 92.8254 14.8173 92.652 14.8949C92.4762 14.9757 92.2889 15.0164 92.0892 15.0164H92Z" fill="#424242"/>
<path fill-rule="evenodd" clip-rule="evenodd" d="M73.5 27C72.1193 27 71 28.1193 71 29.5C71 30.8807 72.1193 32 73.5 32C74.8807 32 76 30.8807 76 29.5C76 28.1193 74.8807 27 73.5 27ZM70.0354 30C70.2781 31.6961 71.7368 33 73.5 33C75.433 33 77 31.433 77 29.5C77 27.567 75.433 26 73.5 26C71.7368 26 70.2781 27.3039 70.0354 29H66.937C66.715 28.1374 65.9319 27.5 65 27.5C63.8954 27.5 63 28.3954 63 29.5C63 30.6046 63.8954 31.5 65 31.5C65.9319 31.5 66.715 30.8626 66.937 30H70.0354Z" fill="#75BEFF"/>
<path fill-rule="evenodd" clip-rule="evenodd" d="M73.5 7C72.1193 7 71 8.11929 71 9.5C71 10.8807 72.1193 12 73.5 12C74.8807 12 76 10.8807 76 9.5C76 8.11929 74.8807 7 73.5 7ZM70.0354 10C70.2781 11.6961 71.7368 13 73.5 13C75.433 13 77 11.433 77 9.5C77 7.567 75.433 6 73.5 6C71.7368 6 70.2781 7.30385 70.0354 9H66.937C66.715 8.13739 65.9319 7.5 65 7.5C63.8954 7.5 63 8.39543 63 9.5C63 10.6046 63.8954 11.5 65 11.5C65.9319 11.5 66.715 10.8626 66.937 10H70.0354Z" fill="#007ACC"/>
<path d="M104.807 36.9754C104.571 36.9721 104.338 36.9211 104.122 36.8254C103.907 36.7297 103.712 36.5913 103.552 36.4186C103.239 36.1334 103.044 35.7408 103.008 35.3189C102.966 34.8828 103.093 34.4473 103.361 34.1013C104.568 32.8289 106.947 30.4494 108.678 28.7548C108.31 27.7589 108.327 26.6613 108.726 25.6774C109.055 24.8588 109.639 24.1681 110.391 23.7081C110.982 23.3171 111.66 23.0794 112.366 23.0167C113.071 22.954 113.781 23.0682 114.431 23.3489L115.048 23.6162L112.182 26.5674L113.437 27.8258L116.381 24.9489L116.648 25.5679C116.874 26.0898 116.993 26.6512 117 27.2196C117.006 27.788 116.9 28.3521 116.687 28.8791C116.476 29.4003 116.162 29.8737 115.765 30.2712C115.539 30.4917 115.29 30.6865 115.022 30.8522C114.467 31.2228 113.832 31.4564 113.17 31.5338C112.507 31.6112 111.835 31.5303 111.21 31.2976C110.112 32.4113 107.371 35.1704 105.891 36.5522C105.594 36.8219 105.208 36.9726 104.807 36.9754ZM112.745 23.928C112.087 23.9264 111.444 24.1202 110.896 24.4848C110.683 24.6152 110.484 24.769 110.305 24.9433C109.828 25.4242 109.509 26.0395 109.392 26.7067C109.274 27.3739 109.364 28.061 109.648 28.6759L109.783 28.9729L109.55 29.2003C107.812 30.8967 105.281 33.4201 104.065 34.7045C103.956 34.8658 103.91 35.0608 103.934 35.2535C103.959 35.4463 104.052 35.6238 104.197 35.7532C104.28 35.8462 104.382 35.9211 104.495 35.9731C104.596 36.0184 104.704 36.043 104.814 36.0455C104.981 36.0413 105.14 35.977 105.264 35.8646C106.837 34.3964 109.876 31.3264 110.768 30.4243L110.997 30.1933L111.292 30.3278C111.806 30.5673 112.373 30.6698 112.938 30.6255C113.503 30.5811 114.047 30.3913 114.517 30.0745C114.731 29.9426 114.93 29.7869 115.109 29.6105C115.418 29.3015 115.663 28.9337 115.829 28.5287C115.994 28.1237 116.077 27.6897 116.072 27.2523C116.072 27.0366 116.05 26.8215 116.008 26.6101L113.431 29.1251L110.879 26.5776L113.394 23.9883C113.18 23.9467 112.963 23.9265 112.745 23.928Z" fill="#C5C5C5"/>
<path d="M104.807 16.9754C104.571 16.9721 104.338 16.9211 104.122 16.8254C103.907 16.7297 103.712 16.5913 103.552 16.4186C103.239 16.1334 103.044 15.7408 103.008 15.3189C102.966 14.8828 103.093 14.4473 103.361 14.1013C104.568 12.8289 106.947 10.4494 108.678 8.75479C108.31 7.75887 108.327 6.66127 108.726 5.67739C109.055 4.85876 109.639 4.16805 110.391 3.70807C110.982 3.31706 111.66 3.07944 112.366 3.01673C113.071 2.95402 113.781 3.06819 114.431 3.34892L115.048 3.6162L112.182 6.56738L113.437 7.82582L116.381 4.94887L116.648 5.56788C116.874 6.08976 116.993 6.65119 117 7.21961C117.006 7.78802 116.9 8.35211 116.687 8.87915C116.476 9.40029 116.162 9.87368 115.765 10.2712C115.539 10.4917 115.29 10.6865 115.022 10.8522C114.467 11.2228 113.832 11.4564 113.17 11.5338C112.507 11.6112 111.835 11.5303 111.21 11.2976C110.112 12.4113 107.371 15.1704 105.891 16.5522C105.594 16.8219 105.208 16.9726 104.807 16.9754ZM112.745 3.92802C112.087 3.92637 111.444 4.12018 110.896 4.48485C110.683 4.6152 110.484 4.76897 110.305 4.9433C109.828 5.42423 109.509 6.03953 109.392 6.70669C109.274 7.37385 109.364 8.06098 109.648 8.67591L109.783 8.97288L109.55 9.20025C107.812 10.8967 105.281 13.4201 104.065 14.7045C103.956 14.8658 103.91 15.0608 103.934 15.2535C103.959 15.4463 104.052 15.6238 104.197 15.7532C104.28 15.8462 104.382 15.9211 104.495 15.9731C104.596 16.0184 104.704 16.043 104.814 16.0455C104.981 16.0413 105.14 15.977 105.264 15.8646C106.837 14.3964 109.876 11.3264 110.768 10.4243L110.997 10.1933L111.292 10.3278C111.806 10.5673 112.373 10.6698 112.938 10.6255C113.503 10.5811 114.047 10.3913 114.517 10.0745C114.731 9.9426 114.93 9.78694 115.109 9.61045C115.418 9.30153 115.663 8.93374 115.829 8.52874C115.994 8.12375 116.077 7.68974 116.072 7.25228C116.072 7.03662 116.05 6.82148 116.008 6.61007L113.431 9.12508L110.879 6.57759L113.394 3.98834C113.18 3.94674 112.963 3.92653 112.745 3.92802Z" fill="#424242"/>
<path fill-rule="evenodd" clip-rule="evenodd" d="M149 25L150 24H156L157 25V30L156 31H152V30H156V25H150V28H149V25ZM150 29L151 30V31V35L150 36H144L143 35V30L144 29H149H150ZM150 30V31V35H144V30H149H150ZM151.414 29L151 28.5858V28H155V29H151.414ZM151 26H155V27H151V26ZM149 32H145V33H149V32Z" fill="#75BEFF"/>
<path fill-rule="evenodd" clip-rule="evenodd" d="M149 5L150 4H156L157 5V10L156 11H152V10H156V5H150V8H149V5ZM150 9L151 10V11V15L150 16H144L143 15V10L144 9H149H150ZM150 10V11V15H144V10H149H150ZM151.414 9L151 8.58579V8H155V9H151.414ZM151 6H155V7H151V6ZM149 12H145V13H149V12Z" fill="#007ACC"/>
<path d="M177 6H172V5H177V6ZM176 9H174V10H176V9ZM172 9H163V10H172V9ZM174 15H163V16H174V15ZM169 12H163V13H169V12ZM177 12H172V13H177V12ZM170 4V7H163V4H170ZM169 5H164V6H169V5Z" fill="#C5C5C5"/>
<path d="M177 26H172V25H177V26ZM176 29H174V30H176V29ZM172 29H163V30H172V29ZM174 35H163V36H174V35ZM169 32H163V33H169V32ZM177 32H172V33H177V32ZM170 24V27H163V24H170ZM169 25H164V26H169V25Z" fill="#424242"/>
<path fill-rule="evenodd" clip-rule="evenodd" d="M209.223 32.933C209.549 33.1254 209.922 33.2231 210.3 33.215C210.638 33.2218 210.973 33.1492 211.277 33.003C211.582 32.8567 211.848 32.6409 212.054 32.373C212.509 31.7652 212.74 31.0187 212.708 30.26C212.741 29.5862 212.537 28.9221 212.132 28.383C211.936 28.1416 211.686 27.9496 211.402 27.8223C211.118 27.695 210.809 27.636 210.498 27.65C210.075 27.647 209.66 27.7608 209.298 27.979C209.183 28.0481 209.075 28.1278 208.975 28.217V25.475H207.984V33.1H208.979V32.756C209.055 32.8217 209.137 32.8809 209.223 32.933ZM209.85 28.7001C210.036 28.621 210.238 28.5868 210.44 28.6C210.613 28.5945 210.784 28.6305 210.94 28.705C211.096 28.7795 211.232 28.8902 211.336 29.028C211.593 29.3905 211.718 29.8295 211.693 30.273C211.72 30.7975 211.58 31.317 211.293 31.757C211.188 31.9153 211.045 32.0447 210.878 32.1335C210.71 32.2223 210.523 32.2675 210.333 32.265C210.149 32.2732 209.966 32.24 209.797 32.1678C209.628 32.0956 209.478 31.9863 209.357 31.848C209.102 31.5596 208.965 31.1851 208.975 30.8V30.2C208.963 29.7833 209.103 29.3765 209.368 29.055C209.499 28.9006 209.664 28.7791 209.85 28.7001ZM205.289 27.675C204.97 27.6793 204.654 27.734 204.352 27.837C204.064 27.9229 203.793 28.0583 203.552 28.237L203.452 28.314V29.514L203.875 29.155C204.246 28.8048 204.731 28.6015 205.241 28.583C205.366 28.5716 205.492 28.5915 205.607 28.6407C205.722 28.6899 205.824 28.767 205.902 28.865C206.052 29.0971 206.132 29.3675 206.133 29.644L204.9 29.825C204.394 29.8778 203.915 30.0777 203.522 30.4C203.367 30.5518 203.243 30.7327 203.158 30.9324C203.073 31.132 203.028 31.3464 203.026 31.5634C203.024 31.7804 203.065 31.9957 203.146 32.1969C203.228 32.3981 203.348 32.5813 203.5 32.736C203.669 32.8904 203.866 33.01 204.081 33.0879C204.296 33.1659 204.525 33.2005 204.753 33.19C205.147 33.1931 205.533 33.0774 205.86 32.858C205.962 32.7897 206.057 32.7131 206.146 32.629V33.073H207.087V29.715C207.121 29.1742 206.954 28.6399 206.618 28.215C206.45 28.0329 206.243 27.89 206.014 27.7967C205.784 27.7034 205.537 27.6618 205.289 27.675ZM206.146 30.716C206.166 31.1343 206.026 31.5446 205.755 31.864C205.637 32.0005 205.49 32.1092 205.325 32.1821C205.16 32.2551 204.98 32.2906 204.8 32.286C204.69 32.2945 204.58 32.2812 204.476 32.2469C204.372 32.2125 204.275 32.1579 204.192 32.086C204.061 31.9346 203.989 31.7409 203.989 31.5405C203.989 31.3401 204.061 31.1464 204.192 30.995C204.473 30.8213 204.792 30.7184 205.122 30.695L206.142 30.547L206.146 30.716ZM214.459 33.0325C214.766 33.1638 215.098 33.2261 215.432 33.215C215.927 33.227 216.415 33.1006 216.842 32.85L216.965 32.775L216.978 32.768V31.615L216.532 31.935C216.216 32.1592 215.836 32.2747 215.448 32.264C215.25 32.2719 215.052 32.2342 214.87 32.1538C214.689 32.0733 214.528 31.9523 214.4 31.8C214.114 31.4245 213.973 30.9591 214 30.488C213.974 29.9873 214.135 29.4948 214.453 29.107C214.593 28.9411 214.77 28.8091 214.968 28.7213C215.167 28.6335 215.383 28.592 215.6 28.6C215.944 28.5984 216.281 28.6953 216.571 28.879L217 29.144V27.97L216.831 27.897C216.463 27.7343 216.064 27.6502 215.661 27.65C215.3 27.6399 214.941 27.7076 214.608 27.8486C214.275 27.9896 213.976 28.2005 213.732 28.467C213.226 29.0268 212.958 29.7619 212.985 30.516C212.957 31.2235 213.196 31.9157 213.654 32.455C213.877 32.704 214.152 32.9012 214.459 33.0325Z" fill="#C5C5C5"/>
<path fill-rule="evenodd" clip-rule="evenodd" d="M209.223 12.933C209.549 13.1254 209.922 13.2231 210.3 13.215C210.638 13.2218 210.973 13.1492 211.277 13.003C211.582 12.8567 211.848 12.6409 212.054 12.373C212.509 11.7652 212.74 11.0187 212.708 10.26C212.741 9.58622 212.537 8.9221 212.132 8.38298C211.936 8.14161 211.686 7.94957 211.402 7.82228C211.118 7.69498 210.809 7.63597 210.498 7.64997C210.075 7.64699 209.66 7.76085 209.298 7.97898C209.183 8.04807 209.075 8.12775 208.975 8.21698V5.47498H207.984V13.1H208.979V12.756C209.055 12.8217 209.137 12.8809 209.223 12.933ZM209.85 8.70006C210.036 8.62105 210.238 8.58677 210.44 8.59998C210.613 8.59452 210.784 8.63054 210.94 8.70501C211.096 8.77948 211.232 8.89023 211.336 9.02798C211.593 9.39053 211.718 9.82951 211.693 10.273C211.72 10.7975 211.58 11.317 211.293 11.757C211.188 11.9153 211.045 12.0447 210.878 12.1335C210.71 12.2223 210.523 12.2675 210.333 12.265C210.149 12.2732 209.966 12.24 209.797 12.1678C209.628 12.0956 209.478 11.9863 209.357 11.848C209.102 11.5596 208.965 11.1851 208.975 10.8V10.2C208.963 9.78332 209.103 9.3765 209.368 9.05498C209.499 8.90064 209.664 8.77908 209.85 8.70006ZM205.289 7.67499C204.97 7.67933 204.654 7.734 204.352 7.83699C204.064 7.92293 203.793 8.05828 203.552 8.23699L203.452 8.31399V9.51399L203.875 9.15499C204.246 8.80478 204.731 8.60146 205.241 8.58299C205.366 8.57164 205.492 8.59147 205.607 8.64068C205.722 8.6899 205.824 8.76697 205.902 8.86499C206.052 9.0971 206.132 9.36754 206.133 9.64399L204.9 9.82499C204.394 9.87781 203.915 10.0777 203.522 10.4C203.367 10.5518 203.243 10.7327 203.158 10.9324C203.073 11.132 203.028 11.3464 203.026 11.5634C203.024 11.7804 203.065 11.9957 203.146 12.1969C203.228 12.3981 203.348 12.5813 203.5 12.736C203.669 12.8904 203.866 13.01 204.081 13.0879C204.296 13.1659 204.525 13.2005 204.753 13.19C205.147 13.1931 205.533 13.0774 205.86 12.858C205.962 12.7897 206.057 12.7131 206.146 12.629V13.073H207.087V9.71499C207.121 9.17422 206.954 8.63988 206.618 8.21499C206.45 8.03285 206.243 7.89003 206.014 7.7967C205.784 7.70336 205.537 7.66181 205.289 7.67499ZM206.146 10.716C206.166 11.1343 206.026 11.5446 205.755 11.864C205.637 12.0005 205.49 12.1092 205.325 12.1821C205.16 12.2551 204.98 12.2906 204.8 12.286C204.69 12.2945 204.58 12.2812 204.476 12.2469C204.372 12.2125 204.275 12.1579 204.192 12.086C204.061 11.9346 203.989 11.7409 203.989 11.5405C203.989 11.3401 204.061 11.1464 204.192 10.995C204.473 10.8213 204.792 10.7184 205.122 10.695L206.142 10.547L206.146 10.716ZM214.459 13.0325C214.766 13.1638 215.098 13.2261 215.432 13.215C215.927 13.227 216.415 13.1006 216.842 12.85L216.965 12.775L216.978 12.768V11.615L216.532 11.935C216.216 12.1592 215.836 12.2747 215.448 12.264C215.25 12.2719 215.052 12.2342 214.87 12.1538C214.689 12.0733 214.528 11.9523 214.4 11.8C214.114 11.4245 213.973 10.9591 214 10.488C213.974 9.98732 214.135 9.49475 214.453 9.10704C214.593 8.94105 214.77 8.80914 214.968 8.7213C215.167 8.63346 215.383 8.592 215.6 8.60004C215.944 8.59844 216.281 8.69525 216.571 8.87904L217 9.14404V7.97004L216.831 7.89704C216.463 7.73432 216.064 7.6502 215.661 7.65004C215.3 7.63991 214.941 7.70762 214.608 7.84859C214.275 7.98956 213.976 8.20048 213.732 8.46704C213.226 9.02683 212.958 9.76186 212.985 10.516C212.957 11.2235 213.196 11.9157 213.654 12.455C213.877 12.704 214.152 12.9012 214.459 13.0325Z" fill="#424242"/>
<path fill-rule="evenodd" clip-rule="evenodd" d="M266 3L265 4V16L266 17H275L276 16V7L275.707 6.29289L272.707 3.29289L272 3H266ZM266 16V4L271 4V8H275V16H266ZM275 7L272 4V7L275 7Z" fill="#424242"/>
<path fill-rule="evenodd" clip-rule="evenodd" d="M266 23L265 24V36L266 37H275L276 36V27L275.707 26.2929L272.707 23.2929L272 23H266ZM266 36V24L271 24V28H275V36H266ZM275 27L272 24V27L275 27Z" fill="#C5C5C5"/>
<path fill-rule="evenodd" clip-rule="evenodd" d="M130 24L129 25V28H130V25H136V30H132V31H136L137 30V25L136 24H130ZM131 30L130 29H129H124L123 30V35L124 36H130L131 35V31V30ZM130 31V30H129H124V35H130V31ZM131 28.5858L131.414 29H135V28H131V28.5858ZM135 26H131V27H135V26ZM129 31H125V32H129V31ZM125 33H129V34H125V33Z" fill="#EE9D28"/>
<path fill-rule="evenodd" clip-rule="evenodd" d="M130 4L129 5V8H130V5H136V10H132V11H136L137 10V5L136 4H130ZM131 10L130 9H129H124L123 10V15L124 16H130L131 15V11V10ZM130 11V10H129H124V15H130V11ZM131 8.58579L131.414 9H135V8H131V8.58579ZM135 6H131V7H135V6ZM129 11H125V12H129V11ZM125 13H129V14H125V13Z" fill="#D67E00"/>
<path fill-rule="evenodd" clip-rule="evenodd" d="M246 3L245 4V16L246 17H254L255 16V4L254 3H246ZM246 5V4H254V16H246V15H248V14H246V12H250V11H246V9H248V8H246V6H250V5H246Z" fill="#424242"/>
<path fill-rule="evenodd" clip-rule="evenodd" d="M246 23L245 24V36L246 37H254L255 36V24L254 23H246ZM246 25V24H254V36H246V35H248V34H246V32H250V31H246V29H248V28H246V26H250V25H246Z" fill="#C5C5C5"/>
</svg>
