<svg xmlns="http://www.w3.org/2000/svg" width="526" height="328" fill="none" viewBox="0 0 526 328"><g><g filter="url(#filter0_d_1724_12223)"><rect width="192" height="268" fill="var(--vscode-sideBar-background, #252526)" transform="translate(8 28)"/><g><g><path fill="var(--vscode-sideBarTitle-foreground, #CCCCCC)" d="M25.8019 54.1377H27.2078L28.5158 56.6069H29.6681L28.2266 53.982C29.0096 53.7195 29.4723 53.0166 29.4723 52.149C29.4723 50.9522 28.6403 50.187 27.3457 50.187H24.8053V56.6069H25.8019V54.1377ZM25.8019 51.0234H27.2078C27.9774 51.0234 28.449 51.4549 28.449 52.1712C28.449 52.9053 28.0041 53.3191 27.2344 53.3191H25.8019V51.0234ZM31.8792 50.187H30.8827V54.3958C30.8827 55.7839 31.8748 56.7626 33.4809 56.7626C35.0959 56.7626 36.0836 55.7839 36.0836 54.3958V50.187H35.087V54.3157C35.087 55.2322 34.5042 55.8773 33.4809 55.8773C32.4621 55.8773 31.8792 55.2322 31.8792 54.3157V50.187ZM38.6596 56.6069V51.9443H38.7308L42.0275 56.6069H42.9262V50.187H41.9563V54.8585H41.8851L38.5884 50.187H37.6897V56.6069H38.6596ZM51.1881 56.6069H52.2469L49.929 50.187H48.8568L46.5388 56.6069H47.5621L48.1538 54.8718H50.6008L51.1881 56.6069ZM49.3417 51.3215H49.4173L50.3472 54.071H48.4074L49.3417 51.3215ZM54.338 56.6069V51.9443H54.4092L57.7059 56.6069H58.6046V50.187H57.6347V54.8585H57.5635L54.2668 50.187H53.3681V56.6069H54.338ZM60.2196 50.187V56.6069H62.5375C64.4506 56.6069 65.5584 55.4235 65.5584 53.3814C65.5584 51.3615 64.4417 50.187 62.5375 50.187H60.2196ZM61.2162 51.0456H62.4263C63.7566 51.0456 64.5441 51.9132 64.5441 53.3947C64.5441 54.8896 63.7699 55.7483 62.4263 55.7483H61.2162V51.0456ZM69.4024 50.187V56.6069H71.7204C73.6334 56.6069 74.7413 55.4235 74.7413 53.3814C74.7413 51.3615 73.6245 50.187 71.7204 50.187H69.4024ZM70.399 51.0456H71.6091C72.9394 51.0456 73.7269 51.9132 73.7269 53.3947C73.7269 54.8896 72.9527 55.7483 71.6091 55.7483H70.399V51.0456ZM80.1691 55.7483H77.0903V53.7507H80.0045V52.9231H77.0903V51.0456H80.1691V50.187H76.0938V56.6069H80.1691V55.7483ZM84.2488 56.6069C85.6191 56.6069 86.4422 55.9218 86.4422 54.7917C86.4422 53.9509 85.8638 53.3369 84.9963 53.2435V53.1678C85.628 53.0611 86.1219 52.4604 86.1219 51.7886C86.1219 50.8009 85.3967 50.187 84.191 50.187H81.6106V56.6069H84.2488ZM82.6071 51.0011H83.9597C84.6982 51.0011 85.1298 51.3526 85.1298 51.9621C85.1298 52.5895 84.6715 52.9187 83.7906 52.9187H82.6071V51.0011ZM82.6071 55.7928V53.6795H83.9908C84.9295 53.6795 85.4234 54.0354 85.4234 54.7294C85.4234 55.4235 84.9473 55.7928 84.0486 55.7928H82.6071ZM88.7112 50.187H87.7146V54.3958C87.7146 55.7839 88.7068 56.7626 90.3129 56.7626C91.9279 56.7626 92.9156 55.7839 92.9156 54.3958V50.187H91.919V54.3157C91.919 55.2322 91.3362 55.8773 90.3129 55.8773C89.2941 55.8773 88.7112 55.2322 88.7112 54.3157V50.187ZM99.9984 54.0799V53.2835H97.3646V54.0888H99.0196V54.2311C99.0107 55.2144 98.29 55.8773 97.24 55.8773C96.0343 55.8773 95.278 54.9296 95.278 53.3903C95.278 51.8732 96.0299 50.9166 97.2178 50.9166C98.0942 50.9166 98.7038 51.3482 98.9529 52.1446H99.9539C99.7359 50.8499 98.6771 50.0313 97.2178 50.0313C95.4204 50.0313 94.2592 51.3526 94.2592 53.3947C94.2592 55.4635 95.407 56.7626 97.2267 56.7626C98.9084 56.7626 99.9984 55.7082 99.9984 54.0799Z"/></g></g><g><g><path fill="gray" d="M29.984 81.064L34.336 76.712L34.96 77.336L30.288 81.992H29.664L25.008 77.336L25.616 76.712L29.984 81.064Z"/><path fill="var(--vscode-sideBarTitle-foreground, #FFFFFF)" d="M50.0649 82L52.1787 75.6587H50.7505L49.3354 80.5498H49.2563L47.8149 75.6587H46.3164L48.4609 82H50.0649ZM56.7666 82H58.2036L56.002 75.6587H54.4419L52.2402 82H53.5718L54.0596 80.4619H56.2876L56.7666 82ZM55.1406 76.9463H55.2197L56.0063 79.4688H54.3452L55.1406 76.9463ZM60.6118 79.6797H61.6973L62.8794 82H64.3823L63.0464 79.4819C63.7759 79.1963 64.1978 78.4932 64.1978 77.6802C64.1978 76.4277 63.3408 75.6587 61.9478 75.6587H59.2847V82H60.6118V79.6797ZM60.6118 76.6958H61.7632C62.4224 76.6958 62.8354 77.0825 62.8354 77.6978C62.8354 78.3262 62.4443 78.6909 61.7764 78.6909H60.6118V76.6958ZM66.8608 82V75.6587H65.5337V82H66.8608ZM72.4727 82H73.9097L71.708 75.6587H70.1479L67.9463 82H69.2778L69.7656 80.4619H71.9937L72.4727 82ZM70.8467 76.9463H70.9258L71.7124 79.4688H70.0513L70.8467 76.9463ZM77.8384 82C79.1919 82 80.0312 81.3013 80.0312 80.1851C80.0312 79.3677 79.4204 78.7393 78.5811 78.6733V78.5942C79.2314 78.4976 79.728 77.9131 79.728 77.2407C79.728 76.2607 78.9941 75.6587 77.7637 75.6587H74.9907V82H77.8384ZM76.3179 76.6431H77.4253C78.0581 76.6431 78.4229 76.9507 78.4229 77.4692C78.4229 77.9966 78.0317 78.2954 77.3154 78.2954H76.3179V76.6431ZM76.3179 81.0112V79.1699H77.4692C78.2515 79.1699 78.6777 79.4863 78.6777 80.0796C78.6777 80.686 78.2646 81.0112 77.5 81.0112H76.3179ZM85.3794 80.8838H82.5581V75.6587H81.231V82H85.3794V80.8838ZM90.7847 80.9058H87.9106V79.3018H90.6221V78.2822H87.9106V76.7529H90.7847V75.6587H86.5835V82H90.7847V80.9058ZM91.8965 80.2466C91.9448 81.4199 92.9248 82.1626 94.4365 82.1626C96.0273 82.1626 97.0073 81.3804 97.0073 80.1147C97.0073 79.1348 96.458 78.5854 95.1836 78.313L94.4189 78.1504C93.6763 77.9878 93.373 77.7549 93.373 77.355C93.373 76.8584 93.8125 76.5376 94.4761 76.5376C95.1177 76.5376 95.5835 76.876 95.645 77.3945H96.8931C96.8535 76.2739 95.8647 75.4961 94.4673 75.4961C93.0039 75.4961 92.0415 76.2783 92.0415 77.4604C92.0415 78.4229 92.6084 79.0161 93.7642 79.2622L94.5903 79.4424C95.3682 79.6138 95.6846 79.8555 95.6846 80.2729C95.6846 80.7651 95.1968 81.1123 94.5068 81.1123C93.7598 81.1123 93.2412 80.7739 93.1797 80.2466H91.8965Z"/></g></g><g><path fill="gray" d="M32.08 103.016L27.712 98.664L28.336 98.04L33.008 102.712V103.336L28.336 107.992L27.712 107.384L32.08 103.032V103.016Z"/><rect width="27" height="7" x="46" y="99.5" fill="#B180D7" rx="3.5"/><rect width="70" height="7" x="79" y="99.5" fill="var(--vscode-list-deemphasizedForeground, #FFFFFF)" fill-opacity=".16" rx="3.5"/></g><g><path fill="gray" d="M32.08 127.016L27.712 122.664L28.336 122.04L33.008 126.712V127.336L28.336 131.992L27.712 131.384L32.08 127.032V127.016Z"/><rect width="27" height="7" x="46" y="123.5" fill="#B180D7" rx="3.5"/><rect width="61" height="7" x="79" y="123.5" fill="var(--vscode-list-deemphasizedForeground, #FFFFFF)" fill-opacity=".16" rx="3.5"/></g><g><path fill="gray" d="M32.08 151.016L27.712 146.664L28.336 146.04L33.008 150.712V151.336L28.336 155.992L27.712 155.384L32.08 151.032V151.016Z"/><rect width="40" height="7" x="46" y="147.5" fill="#B180D7" rx="3.5"/><rect width="34" height="7" x="92" y="147.5" fill="var(--vscode-list-deemphasizedForeground, #FFFFFF)" fill-opacity=".16" rx="3.5"/></g><g><g><path fill="gray" d="M32.08 175.016L27.712 170.664L28.336 170.04L33.008 174.712V175.336L28.336 179.992L27.712 179.384L32.08 175.032V175.016Z"/><path fill="var(--vscode-sideBarTitle-foreground, #FFFFFF)" d="M50.5044 173.729H50.5747L51.7744 178H53.0181L54.7012 171.659H53.3301L52.3501 176.189H52.2798L51.1021 171.659H49.9814L48.8257 176.189H48.7554L47.7666 171.659H46.3867L48.0654 178H49.3179L50.5044 173.729ZM59.4033 178H60.8403L58.6387 171.659H57.0786L54.877 178H56.2085L56.6963 176.462H58.9243L59.4033 178ZM57.7773 172.946H57.8564L58.6431 175.469H56.9819L57.7773 172.946ZM64.1011 178V172.753H66.0039V171.659H60.8711V172.753H62.7739V178H64.1011ZM69.6514 178.163C71.1807 178.163 72.2969 177.235 72.4067 175.882H71.1147C70.9873 176.581 70.416 177.029 69.6558 177.029C68.6538 177.029 68.0342 176.185 68.0342 174.827C68.0342 173.469 68.6538 172.625 69.6514 172.625C70.4072 172.625 70.9829 173.109 71.1104 173.843H72.4023C72.3057 172.48 71.1543 171.496 69.6514 171.496C67.8101 171.496 66.6763 172.766 66.6763 174.827C66.6763 176.888 67.8145 178.163 69.6514 178.163ZM79.1392 178V171.659H77.812V174.234H74.9556V171.659H73.6284V178H74.9556V175.328H77.812V178H79.1392Z"/></g></g><g><g><path fill="gray" d="M29.984 201.064L34.336 196.712L34.96 197.336L30.288 201.992H29.664L25.008 197.336L25.616 196.712L29.984 201.064Z"/><path fill="var(--vscode-sideBarTitle-foreground, #FFFFFF)" d="M49.4629 202.163C50.9922 202.163 52.1084 201.235 52.2183 199.882H50.9263C50.7988 200.581 50.2275 201.029 49.4673 201.029C48.4653 201.029 47.8457 200.185 47.8457 198.827C47.8457 197.469 48.4653 196.625 49.4629 196.625C50.2188 196.625 50.7944 197.109 50.9219 197.843H52.2139C52.1172 196.48 50.9658 195.496 49.4629 195.496C47.6216 195.496 46.4878 196.766 46.4878 198.827C46.4878 200.888 47.626 202.163 49.4629 202.163ZM57.3115 202H58.7485L56.5469 195.659H54.9868L52.7852 202H54.1167L54.6045 200.462H56.8325L57.3115 202ZM55.6855 196.946H55.7646L56.5513 199.469H54.8901L55.6855 196.946ZM63.978 200.884H61.1567V195.659H59.8296V202H63.978V200.884ZM69.3306 200.884H66.5093V195.659H65.1821V202H69.3306V200.884ZM72.5693 200.247C72.6177 201.42 73.5977 202.163 75.1094 202.163C76.7002 202.163 77.6802 201.38 77.6802 200.115C77.6802 199.135 77.1309 198.585 75.8564 198.313L75.0918 198.15C74.3491 197.988 74.0459 197.755 74.0459 197.355C74.0459 196.858 74.4854 196.538 75.1489 196.538C75.7905 196.538 76.2563 196.876 76.3179 197.395H77.5659C77.5264 196.274 76.5376 195.496 75.1401 195.496C73.6768 195.496 72.7144 196.278 72.7144 197.46C72.7144 198.423 73.2812 199.016 74.437 199.262L75.2632 199.442C76.041 199.614 76.3574 199.855 76.3574 200.273C76.3574 200.765 75.8696 201.112 75.1797 201.112C74.4326 201.112 73.9141 200.774 73.8525 200.247H72.5693ZM81.8022 202V196.753H83.7051V195.659H78.5723V196.753H80.4751V202H81.8022ZM88.2666 202H89.7036L87.502 195.659H85.9419L83.7402 202H85.0718L85.5596 200.462H87.7876L88.2666 202ZM86.6406 196.946H86.7197L87.5063 199.469H85.8452L86.6406 196.946ZM93.1885 202.163C94.7178 202.163 95.834 201.235 95.9438 199.882H94.6519C94.5244 200.581 93.9531 201.029 93.1929 201.029C92.1909 201.029 91.5713 200.185 91.5713 198.827C91.5713 197.469 92.1909 196.625 93.1885 196.625C93.9443 196.625 94.52 197.109 94.6475 197.843H95.9395C95.8428 196.48 94.6914 195.496 93.1885 195.496C91.3472 195.496 90.2134 196.766 90.2134 198.827C90.2134 200.888 91.3516 202.163 93.1885 202.163ZM98.4927 202V200.062L99.1211 199.306L100.962 202H102.553L100.079 198.436L102.391 195.659H100.914L98.5718 198.506H98.4927V195.659H97.1655V202H98.4927Z"/></g></g><g><path fill="gray" d="M32.08 223.016L27.712 218.664L28.336 218.04L33.008 222.712V223.336L28.336 227.992L27.712 227.384L32.08 223.032V223.016Z"/><rect width="70" height="7" x="46" y="219.5" fill="var(--vscode-list-deemphasizedForeground, #FFFFFF)" fill-opacity=".16" rx="3.5"/></g><g><path fill="gray" d="M32.08 247.016L27.712 242.664L28.336 242.04L33.008 246.712V247.336L28.336 251.992L27.712 251.384L32.08 247.032V247.016Z"/><rect width="48" height="7" x="46" y="243.5" fill="var(--vscode-list-deemphasizedForeground, #FFFFFF)" fill-opacity=".16" rx="3.5"/></g><g><path fill="gray" d="M32.08 271.016L27.712 266.664L28.336 266.04L33.008 270.712V271.336L28.336 275.992L27.712 275.384L32.08 271.032V271.016Z"/><rect width="46" height="7" x="46" y="267.5" fill="var(--vscode-list-deemphasizedForeground, #FFFFFF)" fill-opacity=".16" rx="3.5"/></g></g><g filter="url(#filter1_d_1724_12223)"><rect width="379" height="296" fill="var(--vscode-quickInput-background, #252526)" transform="translate(131 14)"/><g><rect width="379" height="35" fill="var(--vscode-editorGroupHeader-tabsBackground, #292929)" transform="translate(131 14)"/><g clip-path="url(#clip0_1724_12223)"><g><rect width="103" height="35" fill="var(--vscode-tab-activeBackground, #1E1E1E)" transform="translate(131 14)"/><rect width="79" height="7" x="143" y="28" fill="var(--vscode-tab-inactiveForeground, #FFFFFF)" fill-opacity=".12" rx="3.5"/></g></g></g><g><g><rect width="379" height="24" fill="#552" transform="translate(131 95)"/><path fill="#FF0" d="M151.496 106.152L147.24 101.416L146.312 101H141.256L140.008 102.248V111.736L141.256 112.984H146.312L147.24 112.552L151.496 107.816V106.152ZM146.312 111.736H141.256V102.248H146.312L150.568 106.984L146.312 111.736Z"/><g><path fill="#9CDCFE" d="M177.217 110.666C176.928 110.834 176.629 110.959 176.32 111.041C176.016 111.127 175.703 111.17 175.383 111.17C174.367 111.17 173.572 110.865 172.998 110.256C172.428 109.646 172.143 108.803 172.143 107.725C172.143 106.646 172.428 105.803 172.998 105.193C173.572 104.584 174.367 104.279 175.383 104.279C175.699 104.279 176.008 104.32 176.309 104.402C176.609 104.484 176.912 104.611 177.217 104.783V105.914C176.932 105.66 176.645 105.477 176.355 105.363C176.07 105.25 175.746 105.193 175.383 105.193C174.707 105.193 174.188 105.412 173.824 105.85C173.461 106.287 173.279 106.912 173.279 107.725C173.279 108.533 173.461 109.158 173.824 109.6C174.191 110.037 174.711 110.256 175.383 110.256C175.758 110.256 176.094 110.199 176.391 110.086C176.688 109.969 176.963 109.789 177.217 109.547V110.666ZM181.84 105.193C181.293 105.193 180.879 105.406 180.598 105.832C180.316 106.258 180.176 106.889 180.176 107.725C180.176 108.557 180.316 109.188 180.598 109.617C180.879 110.043 181.293 110.256 181.84 110.256C182.391 110.256 182.807 110.043 183.088 109.617C183.369 109.188 183.51 108.557 183.51 107.725C183.51 106.889 183.369 106.258 183.088 105.832C182.807 105.406 182.391 105.193 181.84 105.193ZM181.84 104.279C182.75 104.279 183.445 104.574 183.926 105.164C184.41 105.754 184.652 106.607 184.652 107.725C184.652 108.846 184.412 109.701 183.932 110.291C183.451 110.877 182.754 111.17 181.84 111.17C180.93 111.17 180.234 110.877 179.754 110.291C179.273 109.701 179.033 108.846 179.033 107.725C179.033 106.607 179.273 105.754 179.754 105.164C180.234 104.574 180.93 104.279 181.84 104.279ZM191.619 106.934V111H190.535V106.934C190.535 106.344 190.432 105.91 190.225 105.633C190.018 105.355 189.693 105.217 189.252 105.217C188.748 105.217 188.359 105.396 188.086 105.756C187.816 106.111 187.682 106.623 187.682 107.291V111H186.604V104.438H187.682V105.422C187.873 105.047 188.133 104.764 188.461 104.572C188.789 104.377 189.178 104.279 189.627 104.279C190.295 104.279 190.793 104.5 191.121 104.941C191.453 105.379 191.619 106.043 191.619 106.934ZM198.393 104.666V105.721C198.084 105.541 197.773 105.406 197.461 105.316C197.148 105.227 196.83 105.182 196.506 105.182C196.018 105.182 195.652 105.262 195.41 105.422C195.172 105.578 195.053 105.818 195.053 106.143C195.053 106.436 195.143 106.654 195.322 106.799C195.502 106.943 195.949 107.084 196.664 107.221L197.098 107.303C197.633 107.404 198.037 107.607 198.311 107.912C198.588 108.217 198.727 108.613 198.727 109.102C198.727 109.75 198.496 110.258 198.035 110.625C197.574 110.988 196.934 111.17 196.113 111.17C195.789 111.17 195.449 111.135 195.094 111.064C194.738 110.998 194.354 110.896 193.939 110.76V109.646C194.342 109.854 194.727 110.01 195.094 110.115C195.461 110.217 195.809 110.268 196.137 110.268C196.613 110.268 196.982 110.172 197.244 109.98C197.506 109.785 197.637 109.514 197.637 109.166C197.637 108.666 197.158 108.32 196.201 108.129L196.154 108.117L195.75 108.035C195.129 107.914 194.676 107.711 194.391 107.426C194.105 107.137 193.963 106.744 193.963 106.248C193.963 105.619 194.176 105.135 194.602 104.795C195.027 104.451 195.635 104.279 196.424 104.279C196.775 104.279 197.113 104.312 197.438 104.379C197.762 104.441 198.08 104.537 198.393 104.666ZM203.531 105.193C202.984 105.193 202.57 105.406 202.289 105.832C202.008 106.258 201.867 106.889 201.867 107.725C201.867 108.557 202.008 109.188 202.289 109.617C202.57 110.043 202.984 110.256 203.531 110.256C204.082 110.256 204.498 110.043 204.779 109.617C205.061 109.188 205.201 108.557 205.201 107.725C205.201 106.889 205.061 106.258 204.779 105.832C204.498 105.406 204.082 105.193 203.531 105.193ZM203.531 104.279C204.441 104.279 205.137 104.574 205.617 105.164C206.102 105.754 206.344 106.607 206.344 107.725C206.344 108.846 206.104 109.701 205.623 110.291C205.143 110.877 204.445 111.17 203.531 111.17C202.621 111.17 201.926 110.877 201.445 110.291C200.965 109.701 200.725 108.846 200.725 107.725C200.725 106.607 200.965 105.754 201.445 105.164C201.926 104.574 202.621 104.279 203.531 104.279ZM211.365 108.627C211.365 109.111 211.453 109.477 211.629 109.723C211.809 109.969 212.072 110.092 212.42 110.092H213.68V111H212.314C211.67 111 211.17 110.795 210.814 110.385C210.463 109.971 210.287 109.385 210.287 108.627V102.691H208.559V101.848H211.365V108.627ZM220.945 107.18V107.707H216.275V107.742C216.244 108.637 216.414 109.279 216.785 109.67C217.16 110.061 217.688 110.256 218.367 110.256C218.711 110.256 219.07 110.201 219.445 110.092C219.82 109.982 220.221 109.816 220.646 109.594V110.666C220.236 110.834 219.84 110.959 219.457 111.041C219.078 111.127 218.711 111.17 218.355 111.17C217.336 111.17 216.539 110.865 215.965 110.256C215.391 109.643 215.104 108.799 215.104 107.725C215.104 106.678 215.385 105.842 215.947 105.217C216.51 104.592 217.26 104.279 218.197 104.279C219.033 104.279 219.691 104.562 220.172 105.129C220.656 105.695 220.914 106.379 220.945 107.18ZM219.867 106.863C219.82 106.41 219.654 106.02 219.369 105.691C219.088 105.359 218.682 105.193 218.15 105.193C217.631 105.193 217.203 105.365 216.867 105.709C216.531 106.053 216.348 106.439 216.316 106.869L219.867 106.863Z"/><path fill="#D7BA7D" d="M223.893 108.633H225.955V111H223.893V108.633ZM233.057 108.627C233.057 109.111 233.145 109.477 233.32 109.723C233.5 109.969 233.764 110.092 234.111 110.092H235.371V111H234.006C233.361 111 232.861 110.795 232.506 110.385C232.154 109.971 231.979 109.385 231.979 108.627V102.691H230.25V101.848H233.057V108.627ZM239.684 105.193C239.137 105.193 238.723 105.406 238.441 105.832C238.16 106.258 238.02 106.889 238.02 107.725C238.02 108.557 238.16 109.188 238.441 109.617C238.723 110.043 239.137 110.256 239.684 110.256C240.234 110.256 240.65 110.043 240.932 109.617C241.213 109.188 241.354 108.557 241.354 107.725C241.354 106.889 241.213 106.258 240.932 105.832C240.65 105.406 240.234 105.193 239.684 105.193ZM239.684 104.279C240.594 104.279 241.289 104.574 241.77 105.164C242.254 105.754 242.496 106.607 242.496 107.725C242.496 108.846 242.256 109.701 241.775 110.291C241.295 110.877 240.598 111.17 239.684 111.17C238.773 111.17 238.078 110.877 237.598 110.291C237.117 109.701 236.877 108.846 236.877 107.725C236.877 106.607 237.117 105.754 237.598 105.164C238.078 104.574 238.773 104.279 239.684 104.279ZM248.332 107.666C248.332 106.857 248.199 106.244 247.934 105.826C247.672 105.404 247.289 105.193 246.785 105.193C246.258 105.193 245.855 105.404 245.578 105.826C245.301 106.244 245.162 106.857 245.162 107.666C245.162 108.475 245.301 109.092 245.578 109.518C245.859 109.939 246.266 110.15 246.797 110.15C247.293 110.15 247.672 109.938 247.934 109.512C248.199 109.086 248.332 108.471 248.332 107.666ZM249.41 110.578C249.41 111.562 249.178 112.309 248.713 112.816C248.248 113.324 247.564 113.578 246.662 113.578C246.365 113.578 246.055 113.551 245.73 113.496C245.406 113.441 245.082 113.361 244.758 113.256V112.189C245.141 112.369 245.488 112.502 245.801 112.588C246.113 112.674 246.4 112.717 246.662 112.717C247.244 112.717 247.668 112.559 247.934 112.242C248.199 111.926 248.332 111.424 248.332 110.736V110.689V109.957C248.16 110.324 247.926 110.598 247.629 110.777C247.332 110.957 246.971 111.047 246.545 111.047C245.779 111.047 245.168 110.74 244.711 110.127C244.254 109.514 244.025 108.693 244.025 107.666C244.025 106.635 244.254 105.812 244.711 105.199C245.168 104.586 245.779 104.279 246.545 104.279C246.967 104.279 247.324 104.363 247.617 104.531C247.91 104.699 248.148 104.959 248.332 105.311V104.461H249.41V110.578Z"/><path fill="#FFF" d="M255.545 101.309C255.025 102.199 254.637 103.088 254.379 103.975C254.125 104.857 253.998 105.748 253.998 106.646C253.998 107.541 254.125 108.432 254.379 109.318C254.637 110.205 255.025 111.098 255.545 111.996H254.607C254.018 111.066 253.578 110.162 253.289 109.283C253 108.4 252.855 107.521 252.855 106.646C252.855 105.775 253 104.898 253.289 104.016C253.578 103.133 254.018 102.23 254.607 101.309H255.545ZM353.801 101.309H354.738C355.328 102.23 355.768 103.133 356.057 104.016C356.346 104.898 356.49 105.775 356.49 106.646C356.49 107.525 356.346 108.406 356.057 109.289C355.768 110.172 355.328 111.074 354.738 111.996H353.801C354.32 111.09 354.707 110.193 354.961 109.307C355.219 108.42 355.348 107.533 355.348 106.646C355.348 105.756 355.219 104.867 354.961 103.98C354.707 103.094 354.32 102.203 353.801 101.309ZM361.582 108.885H363.41V110.438L362.256 112.676H361.002L361.582 110.438V108.885ZM361.506 104.443H363.334V106.559H361.506V104.443Z"/><path fill="#D88E73" d="M261.955 105.334H260.479V104.121L261.627 101.883H262.529L261.955 104.121V105.334ZM265.799 102.252H266.988V105.604H270.229V102.252H271.418V111H270.229V106.6H266.988V111H265.799V102.252ZM278.789 107.18V107.707H274.119V107.742C274.088 108.637 274.258 109.279 274.629 109.67C275.004 110.061 275.531 110.256 276.211 110.256C276.555 110.256 276.914 110.201 277.289 110.092C277.664 109.982 278.064 109.816 278.49 109.594V110.666C278.08 110.834 277.684 110.959 277.301 111.041C276.922 111.127 276.555 111.17 276.199 111.17C275.18 111.17 274.383 110.865 273.809 110.256C273.234 109.643 272.947 108.799 272.947 107.725C272.947 106.678 273.229 105.842 273.791 105.217C274.354 104.592 275.104 104.279 276.041 104.279C276.877 104.279 277.535 104.562 278.016 105.129C278.5 105.695 278.758 106.379 278.789 107.18ZM277.711 106.863C277.664 106.41 277.498 106.02 277.213 105.691C276.932 105.359 276.525 105.193 275.994 105.193C275.475 105.193 275.047 105.365 274.711 105.709C274.375 106.053 274.191 106.439 274.16 106.869L277.711 106.863ZM283.67 108.627C283.67 109.111 283.758 109.477 283.934 109.723C284.113 109.969 284.377 110.092 284.725 110.092H285.984V111H284.619C283.975 111 283.475 110.795 283.119 110.385C282.768 109.971 282.592 109.385 282.592 108.627V102.691H280.863V101.848H283.67V108.627ZM290.9 108.627C290.9 109.111 290.988 109.477 291.164 109.723C291.344 109.969 291.607 110.092 291.955 110.092H293.215V111H291.85C291.205 111 290.705 110.795 290.35 110.385C289.998 109.971 289.822 109.385 289.822 108.627V102.691H288.094V101.848H290.9V108.627ZM297.527 105.193C296.98 105.193 296.566 105.406 296.285 105.832C296.004 106.258 295.863 106.889 295.863 107.725C295.863 108.557 296.004 109.188 296.285 109.617C296.566 110.043 296.98 110.256 297.527 110.256C298.078 110.256 298.494 110.043 298.775 109.617C299.057 109.188 299.197 108.557 299.197 107.725C299.197 106.889 299.057 106.258 298.775 105.832C298.494 105.406 298.078 105.193 297.527 105.193ZM297.527 104.279C298.438 104.279 299.133 104.574 299.613 105.164C300.098 105.754 300.34 106.607 300.34 107.725C300.34 108.846 300.1 109.701 299.619 110.291C299.139 110.877 298.441 111.17 297.527 111.17C296.617 111.17 295.922 110.877 295.441 110.291C294.961 109.701 294.721 108.846 294.721 107.725C294.721 106.607 294.961 105.754 295.441 105.164C295.922 104.574 296.617 104.279 297.527 104.279ZM308.379 102.252H309.533L310.371 109.354L311.367 104.654H312.604L313.611 109.365L314.449 102.252H315.604L314.297 111H313.178L311.988 105.803L310.805 111H309.686L308.379 102.252ZM319.219 105.193C318.672 105.193 318.258 105.406 317.977 105.832C317.695 106.258 317.555 106.889 317.555 107.725C317.555 108.557 317.695 109.188 317.977 109.617C318.258 110.043 318.672 110.256 319.219 110.256C319.77 110.256 320.186 110.043 320.467 109.617C320.748 109.188 320.889 108.557 320.889 107.725C320.889 106.889 320.748 106.258 320.467 105.832C320.186 105.406 319.77 105.193 319.219 105.193ZM319.219 104.279C320.129 104.279 320.824 104.574 321.305 105.164C321.789 105.754 322.031 106.607 322.031 107.725C322.031 108.846 321.791 109.701 321.311 110.291C320.83 110.877 320.133 111.17 319.219 111.17C318.309 111.17 317.613 110.877 317.133 110.291C316.652 109.701 316.412 108.846 316.412 107.725C316.412 106.607 316.652 105.754 317.133 105.164C317.613 104.574 318.309 104.279 319.219 104.279ZM329.607 105.791C329.377 105.611 329.143 105.48 328.904 105.398C328.666 105.316 328.404 105.275 328.119 105.275C327.447 105.275 326.934 105.486 326.578 105.908C326.223 106.33 326.045 106.939 326.045 107.736V111H324.961V104.438H326.045V105.721C326.225 105.256 326.5 104.9 326.871 104.654C327.246 104.404 327.689 104.279 328.201 104.279C328.467 104.279 328.715 104.312 328.945 104.379C329.176 104.445 329.396 104.549 329.607 104.689V105.791ZM334.283 108.627C334.283 109.111 334.371 109.477 334.547 109.723C334.727 109.969 334.99 110.092 335.338 110.092H336.598V111H335.232C334.588 111 334.088 110.795 333.732 110.385C333.381 109.971 333.205 109.385 333.205 108.627V102.691H331.477V101.848H334.283V108.627ZM342.328 105.275V101.883H343.406V111H342.328V110.174C342.148 110.498 341.908 110.746 341.607 110.918C341.311 111.086 340.967 111.17 340.576 111.17C339.783 111.17 339.158 110.863 338.701 110.25C338.248 109.633 338.021 108.783 338.021 107.701C338.021 106.635 338.25 105.799 338.707 105.193C339.164 104.584 339.787 104.279 340.576 104.279C340.971 104.279 341.318 104.365 341.619 104.537C341.92 104.705 342.156 104.951 342.328 105.275ZM339.158 107.725C339.158 108.561 339.291 109.191 339.557 109.617C339.822 110.043 340.215 110.256 340.734 110.256C341.254 110.256 341.648 110.041 341.918 109.611C342.191 109.182 342.328 108.553 342.328 107.725C342.328 106.893 342.191 106.264 341.918 105.838C341.648 105.408 341.254 105.193 340.734 105.193C340.215 105.193 339.822 105.406 339.557 105.832C339.291 106.258 339.158 106.889 339.158 107.725ZM347.818 101.883H349.295V103.09L348.141 105.334H347.244L347.818 103.09V101.883Z"/></g><circle cx="145" cy="107" r="2" fill="red"/></g></g><rect width="65.307" height="8" x="150.757" y="71" fill="#73C991" opacity=".5" rx="4"/><rect width="159" height="8" x="222" y="71" fill="#73C991" opacity=".5" rx="4"/></g></g><defs><filter id="filter0_d_1724_12223" width="208" height="284" x="0" y="22" color-interpolation-filters="sRGB" filterUnits="userSpaceOnUse"><feFlood flood-opacity="0" result="BackgroundImageFix"/><feColorMatrix in="SourceAlpha" result="hardAlpha" type="matrix" values="0 0 0 0 0 0 0 0 0 0 0 0 0 0 0 0 0 0 127 0"/><feOffset dy="2"/><feGaussianBlur stdDeviation="4"/><feColorMatrix type="matrix" values="0 0 0 0 0 0 0 0 0 0 0 0 0 0 0 0 0 0 0.4 0"/><feBlend in2="BackgroundImageFix" mode="normal" result="effect1_dropShadow_1724_12223"/><feBlend in="SourceGraphic" in2="effect1_dropShadow_1724_12223" mode="normal" result="shape"/></filter><filter id="filter1_d_1724_12223" width="411" height="328" x="115" y="0" color-interpolation-filters="sRGB" filterUnits="userSpaceOnUse"><feFlood flood-opacity="0" result="BackgroundImageFix"/><feColorMatrix in="SourceAlpha" result="hardAlpha" type="matrix" values="0 0 0 0 0 0 0 0 0 0 0 0 0 0 0 0 0 0 127 0"/><feOffset dy="2"/><feGaussianBlur stdDeviation="8"/><feColorMatrix type="matrix" values="0 0 0 0 0 0 0 0 0 0 0 0 0 0 0 0 0 0 0.36 0"/><feBlend in2="BackgroundImageFix" mode="normal" result="effect1_dropShadow_1724_12223"/><feBlend in="SourceGraphic" in2="effect1_dropShadow_1724_12223" mode="normal" result="shape"/></filter><clipPath id="clip0_1724_12223"><rect width="103" height="35" fill="#FFF" transform="translate(131 14)"/></clipPath></defs></svg>