<svg width="526" height="350" viewBox="0 0 526 350" fill="none" xmlns="http://www.w3.org/2000/svg">
<g filter="url(#filter0_d_2_491)">
<rect width="192" height="268" transform="translate(8 36)" fill="#252526"/>
<path d="M25.8019 62.1379H27.2078L28.5158 64.6071H29.6681L28.2266 61.9822C29.0096 61.7197 29.4723 61.0168 29.4723 60.1492C29.4723 58.9524 28.6403 58.1872 27.3457 58.1872H24.8053V64.6071H25.8019V62.1379ZM25.8019 59.0236H27.2078C27.9774 59.0236 28.449 59.4552 28.449 60.1715C28.449 60.9055 28.0041 61.3193 27.2344 61.3193H25.8019V59.0236ZM31.8792 58.1872H30.8827V62.396C30.8827 63.7841 31.8748 64.7629 33.4809 64.7629C35.0959 64.7629 36.0836 63.7841 36.0836 62.396V58.1872H35.087V62.3159C35.087 63.2324 34.5042 63.8775 33.4809 63.8775C32.4621 63.8775 31.8792 63.2324 31.8792 62.3159V58.1872ZM38.6596 64.6071V59.9446H38.7308L42.0275 64.6071H42.9262V58.1872H41.9563V62.8587H41.8851L38.5884 58.1872H37.6897V64.6071H38.6596ZM51.1881 64.6071H52.2469L49.929 58.1872H48.8568L46.5388 64.6071H47.5621L48.1538 62.872H50.6008L51.1881 64.6071ZM49.3417 59.3217H49.4173L50.3472 62.0712H48.4074L49.3417 59.3217ZM54.338 64.6071V59.9446H54.4092L57.7059 64.6071H58.6046V58.1872H57.6347V62.8587H57.5635L54.2668 58.1872H53.3681V64.6071H54.338ZM60.2196 58.1872V64.6071H62.5375C64.4506 64.6071 65.5584 63.4237 65.5584 61.3816C65.5584 59.3617 64.4417 58.1872 62.5375 58.1872H60.2196ZM61.2162 59.0459H62.4263C63.7566 59.0459 64.5441 59.9134 64.5441 61.3949C64.5441 62.8898 63.7699 63.7485 62.4263 63.7485H61.2162V59.0459ZM69.4024 58.1872V64.6071H71.7204C73.6334 64.6071 74.7413 63.4237 74.7413 61.3816C74.7413 59.3617 73.6245 58.1872 71.7204 58.1872H69.4024ZM70.399 59.0459H71.6091C72.9394 59.0459 73.7269 59.9134 73.7269 61.3949C73.7269 62.8898 72.9527 63.7485 71.6091 63.7485H70.399V59.0459ZM80.1691 63.7485H77.0903V61.7509H80.0045V60.9233H77.0903V59.0459H80.1691V58.1872H76.0938V64.6071H80.1691V63.7485ZM84.2488 64.6071C85.6191 64.6071 86.4422 63.922 86.4422 62.7919C86.4422 61.9511 85.8638 61.3371 84.9963 61.2437V61.168C85.628 61.0613 86.1219 60.4606 86.1219 59.7888C86.1219 58.8012 85.3967 58.1872 84.191 58.1872H81.6106V64.6071H84.2488ZM82.6071 59.0014H83.9597C84.6982 59.0014 85.1298 59.3528 85.1298 59.9624C85.1298 60.5897 84.6715 60.9189 83.7906 60.9189H82.6071V59.0014ZM82.6071 63.793V61.6797H83.9908C84.9295 61.6797 85.4234 62.0356 85.4234 62.7297C85.4234 63.4237 84.9473 63.793 84.0486 63.793H82.6071ZM88.7112 58.1872H87.7146V62.396C87.7146 63.7841 88.7068 64.7629 90.3129 64.7629C91.9279 64.7629 92.9156 63.7841 92.9156 62.396V58.1872H91.919V62.3159C91.919 63.2324 91.3362 63.8775 90.3129 63.8775C89.2941 63.8775 88.7112 63.2324 88.7112 62.3159V58.1872ZM99.9984 62.0801V61.2837H97.3646V62.089H99.0196V62.2314C99.0107 63.2146 98.29 63.8775 97.24 63.8775C96.0343 63.8775 95.278 62.9299 95.278 61.3905C95.278 59.8734 96.0299 58.9168 97.2178 58.9168C98.0942 58.9168 98.7038 59.3484 98.9529 60.1448H99.9539C99.7359 58.8501 98.6771 58.0315 97.2178 58.0315C95.4204 58.0315 94.2592 59.3528 94.2592 61.3949C94.2592 63.4637 95.407 64.7629 97.2267 64.7629C98.9084 64.7629 99.9984 63.7084 99.9984 62.0801Z" fill="#CCCCCC"/>
<path d="M30 89.08L34.32 84.7067L34.96 85.3467L30.2667 89.9867H29.68L24.9867 85.3467L25.6267 84.7067L30 89.08Z" fill="#808080"/>
<path d="M50.0649 90L52.1787 83.6587H50.7505L49.3354 88.5498H49.2563L47.8149 83.6587H46.3164L48.4609 90H50.0649ZM56.7666 90H58.2036L56.002 83.6587H54.4419L52.2402 90H53.5718L54.0596 88.4619H56.2876L56.7666 90ZM55.1406 84.9463H55.2197L56.0063 87.4688H54.3452L55.1406 84.9463ZM60.6118 87.6797H61.6973L62.8794 90H64.3823L63.0464 87.4819C63.7759 87.1963 64.1978 86.4932 64.1978 85.6802C64.1978 84.4277 63.3408 83.6587 61.9478 83.6587H59.2847V90H60.6118V87.6797ZM60.6118 84.6958H61.7632C62.4224 84.6958 62.8354 85.0825 62.8354 85.6978C62.8354 86.3262 62.4443 86.6909 61.7764 86.6909H60.6118V84.6958ZM66.8608 90V83.6587H65.5337V90H66.8608ZM72.4727 90H73.9097L71.708 83.6587H70.1479L67.9463 90H69.2778L69.7656 88.4619H71.9937L72.4727 90ZM70.8467 84.9463H70.9258L71.7124 87.4688H70.0513L70.8467 84.9463ZM77.8384 90C79.1919 90 80.0312 89.3013 80.0312 88.1851C80.0312 87.3677 79.4204 86.7393 78.5811 86.6733V86.5942C79.2314 86.4976 79.728 85.9131 79.728 85.2407C79.728 84.2607 78.9941 83.6587 77.7637 83.6587H74.9907V90H77.8384ZM76.3179 84.6431H77.4253C78.0581 84.6431 78.4229 84.9507 78.4229 85.4692C78.4229 85.9966 78.0317 86.2954 77.3154 86.2954H76.3179V84.6431ZM76.3179 89.0112V87.1699H77.4692C78.2515 87.1699 78.6777 87.4863 78.6777 88.0796C78.6777 88.686 78.2646 89.0112 77.5 89.0112H76.3179ZM85.3794 88.8838H82.5581V83.6587H81.231V90H85.3794V88.8838ZM90.7847 88.9058H87.9106V87.3018H90.6221V86.2822H87.9106V84.7529H90.7847V83.6587H86.5835V90H90.7847V88.9058ZM91.8965 88.2466C91.9448 89.4199 92.9248 90.1626 94.4365 90.1626C96.0273 90.1626 97.0073 89.3804 97.0073 88.1147C97.0073 87.1348 96.458 86.5854 95.1836 86.313L94.4189 86.1504C93.6763 85.9878 93.373 85.7549 93.373 85.355C93.373 84.8584 93.8125 84.5376 94.4761 84.5376C95.1177 84.5376 95.5835 84.876 95.645 85.3945H96.8931C96.8535 84.2739 95.8647 83.4961 94.4673 83.4961C93.0039 83.4961 92.0415 84.2783 92.0415 85.4604C92.0415 86.4229 92.6084 87.0161 93.7642 87.2622L94.5903 87.4424C95.3682 87.6138 95.6846 87.8555 95.6846 88.2729C95.6846 88.7651 95.1968 89.1123 94.5068 89.1123C93.7598 89.1123 93.2412 88.7739 93.1797 88.2466H91.8965Z" fill="white"/>
<path d="M32.08 111L27.7067 106.68L28.3467 106.04L32.9867 110.733V111.32L28.3467 116.013L27.7067 115.373L32.08 111Z" fill="#808080"/>
<rect x="46" y="107.5" width="27" height="7" rx="3.5" fill="#B180D7"/>
<rect x="79" y="107.5" width="70" height="7" rx="3.5" fill="white" fill-opacity="0.16"/>
<path d="M32.08 135L27.7067 130.68L28.3467 130.04L32.9867 134.733V135.32L28.3467 140.013L27.7067 139.373L32.08 135Z" fill="#808080"/>
<rect x="46" y="131.5" width="27" height="7" rx="3.5" fill="#B180D7"/>
<rect x="79" y="131.5" width="61" height="7" rx="3.5" fill="white" fill-opacity="0.16"/>
<path d="M32.08 159L27.7067 154.68L28.3467 154.04L32.9867 158.733V159.32L28.3467 164.013L27.7067 163.373L32.08 159Z" fill="#808080"/>
<rect x="46" y="155.5" width="40" height="7" rx="3.5" fill="#B180D7"/>
<rect x="92" y="155.5" width="34" height="7" rx="3.5" fill="white" fill-opacity="0.16"/>
<path d="M32.08 183L27.7067 178.68L28.3467 178.04L32.9867 182.733V183.32L28.3467 188.013L27.7067 187.373L32.08 183Z" fill="#808080"/>
<path d="M50.5044 181.729H50.5747L51.7744 186H53.0181L54.7012 179.659H53.3301L52.3501 184.189H52.2798L51.1021 179.659H49.9814L48.8257 184.189H48.7554L47.7666 179.659H46.3867L48.0654 186H49.3179L50.5044 181.729ZM59.4033 186H60.8403L58.6387 179.659H57.0786L54.877 186H56.2085L56.6963 184.462H58.9243L59.4033 186ZM57.7773 180.946H57.8564L58.6431 183.469H56.9819L57.7773 180.946ZM64.1011 186V180.753H66.0039V179.659H60.8711V180.753H62.7739V186H64.1011ZM69.6514 186.163C71.1807 186.163 72.2969 185.235 72.4067 183.882H71.1147C70.9873 184.581 70.416 185.029 69.6558 185.029C68.6538 185.029 68.0342 184.185 68.0342 182.827C68.0342 181.469 68.6538 180.625 69.6514 180.625C70.4072 180.625 70.9829 181.109 71.1104 181.843H72.4023C72.3057 180.48 71.1543 179.496 69.6514 179.496C67.8101 179.496 66.6763 180.766 66.6763 182.827C66.6763 184.888 67.8145 186.163 69.6514 186.163ZM79.1392 186V179.659H77.812V182.234H74.9556V179.659H73.6284V186H74.9556V183.328H77.812V186H79.1392Z" fill="white"/>
<path d="M30 209.08L34.32 204.707L34.96 205.347L30.2667 209.987H29.68L24.9867 205.347L25.6267 204.707L30 209.08Z" fill="#808080"/>
<path d="M49.4629 210.163C50.9922 210.163 52.1084 209.235 52.2183 207.882H50.9263C50.7988 208.581 50.2275 209.029 49.4673 209.029C48.4653 209.029 47.8457 208.185 47.8457 206.827C47.8457 205.469 48.4653 204.625 49.4629 204.625C50.2188 204.625 50.7944 205.109 50.9219 205.843H52.2139C52.1172 204.48 50.9658 203.496 49.4629 203.496C47.6216 203.496 46.4878 204.766 46.4878 206.827C46.4878 208.888 47.626 210.163 49.4629 210.163ZM57.3115 210H58.7485L56.5469 203.659H54.9868L52.7852 210H54.1167L54.6045 208.462H56.8325L57.3115 210ZM55.6855 204.946H55.7646L56.5513 207.469H54.8901L55.6855 204.946ZM63.978 208.884H61.1567V203.659H59.8296V210H63.978V208.884ZM69.3306 208.884H66.5093V203.659H65.1821V210H69.3306V208.884ZM72.5693 208.247C72.6177 209.42 73.5977 210.163 75.1094 210.163C76.7002 210.163 77.6802 209.38 77.6802 208.115C77.6802 207.135 77.1309 206.585 75.8564 206.313L75.0918 206.15C74.3491 205.988 74.0459 205.755 74.0459 205.355C74.0459 204.858 74.4854 204.538 75.1489 204.538C75.7905 204.538 76.2563 204.876 76.3179 205.395H77.5659C77.5264 204.274 76.5376 203.496 75.1401 203.496C73.6768 203.496 72.7144 204.278 72.7144 205.46C72.7144 206.423 73.2812 207.016 74.437 207.262L75.2632 207.442C76.041 207.614 76.3574 207.855 76.3574 208.273C76.3574 208.765 75.8696 209.112 75.1797 209.112C74.4326 209.112 73.9141 208.774 73.8525 208.247H72.5693ZM81.8022 210V204.753H83.7051V203.659H78.5723V204.753H80.4751V210H81.8022ZM88.2666 210H89.7036L87.502 203.659H85.9419L83.7402 210H85.0718L85.5596 208.462H87.7876L88.2666 210ZM86.6406 204.946H86.7197L87.5063 207.469H85.8452L86.6406 204.946ZM93.1885 210.163C94.7178 210.163 95.834 209.235 95.9438 207.882H94.6519C94.5244 208.581 93.9531 209.029 93.1929 209.029C92.1909 209.029 91.5713 208.185 91.5713 206.827C91.5713 205.469 92.1909 204.625 93.1885 204.625C93.9443 204.625 94.52 205.109 94.6475 205.843H95.9395C95.8428 204.48 94.6914 203.496 93.1885 203.496C91.3472 203.496 90.2134 204.766 90.2134 206.827C90.2134 208.888 91.3516 210.163 93.1885 210.163ZM98.4927 210V208.062L99.1211 207.306L100.962 210H102.553L100.079 206.436L102.391 203.659H100.914L98.5718 206.506H98.4927V203.659H97.1655V210H98.4927Z" fill="white"/>
<path d="M32.08 231L27.7067 226.68L28.3467 226.04L32.9867 230.733V231.32L28.3467 236.013L27.7067 235.373L32.08 231Z" fill="#808080"/>
<rect x="46" y="227.5" width="70" height="7" rx="3.5" fill="white" fill-opacity="0.16"/>
<path d="M32.08 255L27.7067 250.68L28.3467 250.04L32.9867 254.733V255.32L28.3467 260.013L27.7067 259.373L32.08 255Z" fill="#808080"/>
<rect x="46" y="251.5" width="48" height="7" rx="3.5" fill="white" fill-opacity="0.16"/>
<path d="M32.08 279L27.7067 274.68L28.3467 274.04L32.9867 278.733V279.32L28.3467 284.013L27.7067 283.373L32.08 279Z" fill="#808080"/>
<rect x="46" y="275.5" width="46" height="7" rx="3.5" fill="white" fill-opacity="0.16"/>
</g>
<g filter="url(#filter1_d_2_491)">
<rect width="379" height="318" transform="translate(131 14)" fill="#252526"/>
<rect width="379" height="35" transform="translate(131 14)" fill="#292929"/>
<g clip-path="url(#clip0_2_491)">
<rect width="103" height="35" transform="translate(131 14)" fill="#1E1E1E"/>
<rect x="143" y="28" width="79" height="7" rx="3.5" fill="white" fill-opacity="0.12"/>
</g>
<rect x="151" y="73" width="83" height="8" rx="4" fill="#75BEFF"/>
<rect x="151" y="93" width="65" height="8" rx="4" fill="#75BEFF"/>
<rect x="151" y="113" width="83" height="8" rx="4" fill="#75BEFF"/>
<rect width="379" height="24" transform="translate(131 151)" fill="#555522"/>
<path d="M151.507 162.147L147.24 157.4L146.333 156.973H141.267L139.987 158.253V167.747L141.267 168.973H146.333L147.24 168.547L151.507 163.8V162.147ZM146.333 167.747H141.267V158.253H146.333L150.547 163L146.333 167.747Z" fill="#FFFF00"/>
<path d="M176.508 165.783C176.242 165.885 175.969 165.959 175.688 166.006C175.41 166.057 175.123 166.082 174.826 166.082C173.896 166.082 173.18 165.83 172.676 165.326C172.176 164.822 171.926 164.086 171.926 163.117C171.926 162.652 171.998 162.23 172.143 161.852C172.287 161.473 172.49 161.148 172.752 160.879C173.014 160.609 173.326 160.402 173.689 160.258C174.053 160.109 174.453 160.035 174.891 160.035C175.195 160.035 175.48 160.057 175.746 160.1C176.012 160.143 176.266 160.213 176.508 160.311V161.283C176.254 161.15 175.994 161.055 175.729 160.996C175.467 160.934 175.195 160.902 174.914 160.902C174.652 160.902 174.404 160.953 174.17 161.055C173.939 161.152 173.736 161.295 173.561 161.482C173.385 161.67 173.246 161.898 173.145 162.168C173.043 162.438 172.992 162.742 172.992 163.082C172.992 163.793 173.164 164.326 173.508 164.682C173.855 165.033 174.336 165.209 174.949 165.209C175.227 165.209 175.494 165.178 175.752 165.115C176.014 165.053 176.266 164.959 176.508 164.834V165.783ZM183.656 163.012C183.656 163.469 183.592 163.889 183.463 164.271C183.334 164.65 183.148 164.977 182.906 165.25C182.664 165.52 182.369 165.73 182.021 165.883C181.674 166.031 181.279 166.105 180.838 166.105C180.416 166.105 180.037 166.041 179.701 165.912C179.369 165.779 179.086 165.586 178.852 165.332C178.621 165.078 178.443 164.764 178.318 164.389C178.197 164.014 178.137 163.582 178.137 163.094C178.137 162.637 178.201 162.221 178.33 161.846C178.459 161.467 178.645 161.143 178.887 160.873C179.129 160.6 179.424 160.389 179.771 160.24C180.119 160.088 180.514 160.012 180.955 160.012C181.377 160.012 181.754 160.078 182.086 160.211C182.422 160.34 182.705 160.531 182.936 160.785C183.17 161.035 183.348 161.348 183.469 161.723C183.594 162.098 183.656 162.527 183.656 163.012ZM182.613 163.059C182.613 162.695 182.572 162.379 182.49 162.109C182.412 161.836 182.299 161.609 182.15 161.43C182.002 161.246 181.82 161.109 181.605 161.02C181.395 160.926 181.158 160.879 180.896 160.879C180.592 160.879 180.33 160.939 180.111 161.061C179.896 161.178 179.719 161.336 179.578 161.535C179.441 161.734 179.34 161.967 179.273 162.232C179.211 162.494 179.18 162.77 179.18 163.059C179.18 163.422 179.219 163.74 179.297 164.014C179.379 164.287 179.494 164.516 179.643 164.699C179.791 164.879 179.971 165.016 180.182 165.109C180.393 165.199 180.631 165.244 180.896 165.244C181.201 165.244 181.461 165.186 181.676 165.068C181.895 164.947 182.072 164.787 182.209 164.588C182.35 164.389 182.451 164.158 182.514 163.896C182.58 163.631 182.613 163.352 182.613 163.059ZM185.133 160.117H186.041L186.082 161.066C186.254 160.863 186.42 160.695 186.58 160.562C186.74 160.426 186.896 160.316 187.049 160.234C187.205 160.152 187.363 160.096 187.523 160.064C187.684 160.029 187.85 160.012 188.021 160.012C188.627 160.012 189.084 160.191 189.393 160.551C189.705 160.906 189.861 161.443 189.861 162.162V166H188.842V162.244C188.842 161.783 188.756 161.443 188.584 161.225C188.412 161.002 188.156 160.891 187.816 160.891C187.691 160.891 187.568 160.91 187.447 160.949C187.33 160.984 187.207 161.049 187.078 161.143C186.949 161.232 186.809 161.355 186.656 161.512C186.508 161.668 186.34 161.863 186.152 162.098V166H185.133V160.117ZM196.389 164.395C196.389 164.602 196.354 164.787 196.283 164.951C196.213 165.115 196.117 165.262 195.996 165.391C195.875 165.516 195.734 165.623 195.574 165.713C195.414 165.803 195.242 165.877 195.059 165.936C194.879 165.994 194.693 166.037 194.502 166.064C194.311 166.092 194.123 166.105 193.939 166.105C193.541 166.105 193.174 166.088 192.838 166.053C192.506 166.018 192.18 165.961 191.859 165.883V164.945C192.203 165.043 192.545 165.117 192.885 165.168C193.225 165.219 193.562 165.244 193.898 165.244C194.387 165.244 194.748 165.178 194.982 165.045C195.217 164.912 195.334 164.723 195.334 164.477C195.334 164.371 195.314 164.277 195.275 164.195C195.24 164.109 195.174 164.029 195.076 163.955C194.979 163.877 194.826 163.797 194.619 163.715C194.416 163.633 194.137 163.539 193.781 163.434C193.516 163.355 193.27 163.268 193.043 163.17C192.82 163.068 192.627 162.949 192.463 162.812C192.299 162.676 192.17 162.516 192.076 162.332C191.982 162.148 191.936 161.932 191.936 161.682C191.936 161.518 191.973 161.338 192.047 161.143C192.125 160.947 192.256 160.766 192.439 160.598C192.623 160.43 192.871 160.291 193.184 160.182C193.496 160.068 193.887 160.012 194.355 160.012C194.586 160.012 194.842 160.025 195.123 160.053C195.404 160.076 195.697 160.119 196.002 160.182V161.09C195.682 161.012 195.377 160.955 195.088 160.92C194.803 160.881 194.555 160.861 194.344 160.861C194.09 160.861 193.875 160.881 193.699 160.92C193.527 160.959 193.387 161.014 193.277 161.084C193.172 161.15 193.096 161.23 193.049 161.324C193.002 161.414 192.979 161.512 192.979 161.617C192.979 161.723 192.998 161.818 193.037 161.904C193.08 161.99 193.156 162.074 193.266 162.156C193.379 162.234 193.535 162.314 193.734 162.396C193.934 162.475 194.193 162.561 194.514 162.654C194.861 162.756 195.154 162.863 195.393 162.977C195.631 163.086 195.824 163.209 195.973 163.346C196.121 163.482 196.227 163.637 196.289 163.809C196.355 163.98 196.389 164.176 196.389 164.395ZM203.449 163.012C203.449 163.469 203.385 163.889 203.256 164.271C203.127 164.65 202.941 164.977 202.699 165.25C202.457 165.52 202.162 165.73 201.814 165.883C201.467 166.031 201.072 166.105 200.631 166.105C200.209 166.105 199.83 166.041 199.494 165.912C199.162 165.779 198.879 165.586 198.645 165.332C198.414 165.078 198.236 164.764 198.111 164.389C197.99 164.014 197.93 163.582 197.93 163.094C197.93 162.637 197.994 162.221 198.123 161.846C198.252 161.467 198.438 161.143 198.68 160.873C198.922 160.6 199.217 160.389 199.564 160.24C199.912 160.088 200.307 160.012 200.748 160.012C201.17 160.012 201.547 160.078 201.879 160.211C202.215 160.34 202.498 160.531 202.729 160.785C202.963 161.035 203.141 161.348 203.262 161.723C203.387 162.098 203.449 162.527 203.449 163.012ZM202.406 163.059C202.406 162.695 202.365 162.379 202.283 162.109C202.205 161.836 202.092 161.609 201.943 161.43C201.795 161.246 201.613 161.109 201.398 161.02C201.188 160.926 200.951 160.879 200.689 160.879C200.385 160.879 200.123 160.939 199.904 161.061C199.689 161.178 199.512 161.336 199.371 161.535C199.234 161.734 199.133 161.967 199.066 162.232C199.004 162.494 198.973 162.77 198.973 163.059C198.973 163.422 199.012 163.74 199.09 164.014C199.172 164.287 199.287 164.516 199.436 164.699C199.584 164.879 199.764 165.016 199.975 165.109C200.186 165.199 200.424 165.244 200.689 165.244C200.994 165.244 201.254 165.186 201.469 165.068C201.688 164.947 201.865 164.787 202.002 164.588C202.143 164.389 202.244 164.158 202.307 163.896C202.373 163.631 202.406 163.352 202.406 163.059ZM206.93 158.559H205.189V157.721H207.961V165.15H209.713V166H204.996V165.15H206.93V158.559ZM216.492 162.748C216.492 162.893 216.49 163.014 216.486 163.111C216.482 163.209 216.477 163.301 216.469 163.387H212.338C212.338 163.988 212.506 164.451 212.842 164.775C213.178 165.096 213.662 165.256 214.295 165.256C214.467 165.256 214.639 165.25 214.811 165.238C214.982 165.223 215.148 165.203 215.309 165.18C215.469 165.156 215.621 165.131 215.766 165.104C215.914 165.072 216.051 165.039 216.176 165.004V165.842C215.898 165.92 215.584 165.982 215.232 166.029C214.885 166.08 214.523 166.105 214.148 166.105C213.645 166.105 213.211 166.037 212.848 165.9C212.484 165.764 212.186 165.566 211.951 165.309C211.721 165.047 211.549 164.729 211.436 164.354C211.326 163.975 211.271 163.547 211.271 163.07C211.271 162.656 211.33 162.266 211.447 161.898C211.568 161.527 211.742 161.203 211.969 160.926C212.199 160.645 212.48 160.422 212.812 160.258C213.145 160.094 213.521 160.012 213.943 160.012C214.354 160.012 214.717 160.076 215.033 160.205C215.35 160.334 215.615 160.518 215.83 160.756C216.049 160.99 216.213 161.277 216.322 161.617C216.436 161.953 216.492 162.33 216.492 162.748ZM215.432 162.602C215.443 162.34 215.418 162.102 215.355 161.887C215.293 161.668 215.195 161.48 215.062 161.324C214.934 161.168 214.771 161.047 214.576 160.961C214.381 160.871 214.154 160.826 213.896 160.826C213.674 160.826 213.471 160.869 213.287 160.955C213.104 161.041 212.945 161.162 212.812 161.318C212.68 161.475 212.572 161.662 212.49 161.881C212.408 162.1 212.357 162.34 212.338 162.602H215.432ZM220.436 164.154C220.568 164.154 220.693 164.18 220.811 164.23C220.932 164.281 221.035 164.352 221.121 164.441C221.211 164.531 221.281 164.637 221.332 164.758C221.383 164.875 221.408 165.002 221.408 165.139C221.408 165.271 221.383 165.396 221.332 165.514C221.281 165.631 221.211 165.734 221.121 165.824C221.035 165.91 220.932 165.979 220.811 166.029C220.693 166.08 220.568 166.105 220.436 166.105C220.299 166.105 220.172 166.08 220.055 166.029C219.938 165.979 219.834 165.91 219.744 165.824C219.658 165.734 219.59 165.631 219.539 165.514C219.488 165.396 219.463 165.271 219.463 165.139C219.463 165.002 219.488 164.875 219.539 164.758C219.59 164.637 219.658 164.531 219.744 164.441C219.834 164.352 219.938 164.281 220.055 164.23C220.172 164.18 220.299 164.154 220.436 164.154ZM226.723 158.559H224.982V157.721H227.754V165.15H229.506V166H224.789V165.15H226.723V158.559ZM236.438 163.012C236.438 163.469 236.373 163.889 236.244 164.271C236.115 164.65 235.93 164.977 235.688 165.25C235.445 165.52 235.15 165.73 234.803 165.883C234.455 166.031 234.061 166.105 233.619 166.105C233.197 166.105 232.818 166.041 232.482 165.912C232.15 165.779 231.867 165.586 231.633 165.332C231.402 165.078 231.225 164.764 231.1 164.389C230.979 164.014 230.918 163.582 230.918 163.094C230.918 162.637 230.982 162.221 231.111 161.846C231.24 161.467 231.426 161.143 231.668 160.873C231.91 160.6 232.205 160.389 232.553 160.24C232.9 160.088 233.295 160.012 233.736 160.012C234.158 160.012 234.535 160.078 234.867 160.211C235.203 160.34 235.486 160.531 235.717 160.785C235.951 161.035 236.129 161.348 236.25 161.723C236.375 162.098 236.438 162.527 236.438 163.012ZM235.395 163.059C235.395 162.695 235.354 162.379 235.271 162.109C235.193 161.836 235.08 161.609 234.932 161.43C234.783 161.246 234.602 161.109 234.387 161.02C234.176 160.926 233.939 160.879 233.678 160.879C233.373 160.879 233.111 160.939 232.893 161.061C232.678 161.178 232.5 161.336 232.359 161.535C232.223 161.734 232.121 161.967 232.055 162.232C231.992 162.494 231.961 162.77 231.961 163.059C231.961 163.422 232 163.74 232.078 164.014C232.16 164.287 232.275 164.516 232.424 164.699C232.572 164.879 232.752 165.016 232.963 165.109C233.174 165.199 233.412 165.244 233.678 165.244C233.982 165.244 234.242 165.186 234.457 165.068C234.676 164.947 234.854 164.787 234.99 164.588C235.131 164.389 235.232 164.158 235.295 163.896C235.361 163.631 235.395 163.352 235.395 163.059ZM242.15 160.949C242.26 161.086 242.344 161.246 242.402 161.43C242.465 161.609 242.496 161.805 242.496 162.016C242.496 162.32 242.439 162.6 242.326 162.854C242.217 163.104 242.061 163.318 241.857 163.498C241.654 163.678 241.41 163.818 241.125 163.92C240.844 164.018 240.533 164.066 240.193 164.066C239.947 164.066 239.717 164.041 239.502 163.99C239.287 163.936 239.117 163.869 238.992 163.791C238.918 163.9 238.855 164.004 238.805 164.102C238.754 164.199 238.729 164.309 238.729 164.43C238.729 164.578 238.799 164.701 238.939 164.799C239.084 164.896 239.273 164.949 239.508 164.957L241.055 165.016C241.348 165.023 241.617 165.061 241.863 165.127C242.113 165.193 242.326 165.289 242.502 165.414C242.682 165.539 242.82 165.693 242.918 165.877C243.02 166.061 243.07 166.273 243.07 166.516C243.07 166.777 243.014 167.025 242.9 167.26C242.787 167.494 242.611 167.699 242.373 167.875C242.139 168.055 241.84 168.197 241.477 168.303C241.113 168.408 240.682 168.461 240.182 168.461C239.705 168.461 239.299 168.422 238.963 168.344C238.631 168.27 238.357 168.164 238.143 168.027C237.928 167.895 237.771 167.734 237.674 167.547C237.576 167.363 237.527 167.16 237.527 166.938C237.527 166.652 237.594 166.402 237.727 166.188C237.859 165.973 238.064 165.766 238.342 165.566C238.24 165.52 238.152 165.461 238.078 165.391C238.004 165.32 237.943 165.244 237.896 165.162C237.85 165.076 237.814 164.986 237.791 164.893C237.768 164.799 237.756 164.707 237.756 164.617C237.756 164.363 237.814 164.131 237.932 163.92C238.053 163.709 238.195 163.51 238.359 163.322C238.285 163.232 238.219 163.145 238.16 163.059C238.105 162.973 238.057 162.881 238.014 162.783C237.975 162.682 237.943 162.574 237.92 162.461C237.9 162.344 237.891 162.211 237.891 162.062C237.891 161.758 237.945 161.48 238.055 161.23C238.168 160.977 238.324 160.76 238.523 160.58C238.727 160.4 238.969 160.262 239.25 160.164C239.535 160.062 239.85 160.012 240.193 160.012C240.338 160.012 240.477 160.021 240.609 160.041C240.742 160.061 240.859 160.086 240.961 160.117H243.094V160.949H242.15ZM238.611 166.85C238.611 167.127 238.756 167.328 239.045 167.453C239.334 167.582 239.736 167.646 240.252 167.646C240.576 167.646 240.848 167.617 241.066 167.559C241.289 167.5 241.467 167.422 241.6 167.324C241.736 167.23 241.834 167.121 241.893 166.996C241.951 166.875 241.98 166.75 241.98 166.621C241.98 166.383 241.883 166.207 241.688 166.094C241.492 165.98 241.193 165.914 240.791 165.895L239.256 165.842C239.127 165.928 239.02 166.012 238.934 166.094C238.852 166.176 238.787 166.258 238.74 166.34C238.693 166.426 238.66 166.51 238.641 166.592C238.621 166.678 238.611 166.764 238.611 166.85ZM238.922 162.039C238.922 162.227 238.953 162.398 239.016 162.555C239.078 162.711 239.166 162.844 239.279 162.953C239.393 163.062 239.525 163.148 239.678 163.211C239.834 163.27 240.006 163.299 240.193 163.299C240.396 163.299 240.576 163.266 240.732 163.199C240.893 163.129 241.025 163.035 241.131 162.918C241.24 162.801 241.322 162.666 241.377 162.514C241.436 162.361 241.465 162.203 241.465 162.039C241.465 161.852 241.434 161.68 241.371 161.523C241.309 161.367 241.221 161.234 241.107 161.125C240.994 161.016 240.859 160.932 240.703 160.873C240.551 160.811 240.381 160.779 240.193 160.779C239.99 160.779 239.809 160.814 239.648 160.885C239.492 160.955 239.359 161.049 239.25 161.166C239.145 161.279 239.062 161.412 239.004 161.564C238.949 161.717 238.922 161.875 238.922 162.039Z" fill="#D7BA7D"/>
<path d="M248.033 168.461C246.232 166.793 245.332 164.949 245.332 162.93C245.332 162.457 245.379 161.986 245.473 161.518C245.57 161.045 245.725 160.572 245.936 160.1C246.15 159.627 246.432 159.154 246.779 158.682C247.131 158.209 247.557 157.74 248.057 157.275L248.648 157.879C247.133 159.375 246.375 161.033 246.375 162.854C246.375 163.76 246.566 164.631 246.949 165.467C247.332 166.303 247.898 167.092 248.648 167.834L248.033 168.461ZM255.305 166V161.775C255.305 161.592 255.297 161.441 255.281 161.324C255.27 161.207 255.248 161.115 255.217 161.049C255.189 160.979 255.152 160.93 255.105 160.902C255.062 160.875 255.008 160.861 254.941 160.861C254.863 160.861 254.791 160.885 254.725 160.932C254.658 160.979 254.586 161.055 254.508 161.16C254.434 161.266 254.35 161.406 254.256 161.582C254.166 161.754 254.059 161.967 253.934 162.221V166H253.002V161.887C253.002 161.672 252.994 161.498 252.979 161.365C252.967 161.232 252.945 161.129 252.914 161.055C252.887 160.98 252.85 160.93 252.803 160.902C252.756 160.875 252.699 160.861 252.633 160.861C252.562 160.861 252.496 160.881 252.434 160.92C252.371 160.959 252.301 161.029 252.223 161.131C252.148 161.232 252.064 161.371 251.971 161.547C251.877 161.723 251.766 161.947 251.637 162.221V166H250.699V160.117H251.479L251.525 161.236C251.627 161.014 251.725 160.824 251.818 160.668C251.916 160.512 252.016 160.387 252.117 160.293C252.219 160.195 252.326 160.125 252.439 160.082C252.557 160.035 252.686 160.012 252.826 160.012C253.143 160.012 253.383 160.115 253.547 160.322C253.711 160.529 253.793 160.85 253.793 161.283C253.887 161.08 253.979 160.9 254.068 160.744C254.158 160.584 254.254 160.451 254.355 160.346C254.461 160.236 254.576 160.154 254.701 160.1C254.826 160.041 254.971 160.012 255.135 160.012C255.873 160.012 256.242 160.58 256.242 161.717V166H255.305ZM262.365 164.395C262.365 164.602 262.33 164.787 262.26 164.951C262.189 165.115 262.094 165.262 261.973 165.391C261.852 165.516 261.711 165.623 261.551 165.713C261.391 165.803 261.219 165.877 261.035 165.936C260.855 165.994 260.67 166.037 260.479 166.064C260.287 166.092 260.1 166.105 259.916 166.105C259.518 166.105 259.15 166.088 258.814 166.053C258.482 166.018 258.156 165.961 257.836 165.883V164.945C258.18 165.043 258.521 165.117 258.861 165.168C259.201 165.219 259.539 165.244 259.875 165.244C260.363 165.244 260.725 165.178 260.959 165.045C261.193 164.912 261.311 164.723 261.311 164.477C261.311 164.371 261.291 164.277 261.252 164.195C261.217 164.109 261.15 164.029 261.053 163.955C260.955 163.877 260.803 163.797 260.596 163.715C260.393 163.633 260.113 163.539 259.758 163.434C259.492 163.355 259.246 163.268 259.02 163.17C258.797 163.068 258.604 162.949 258.439 162.812C258.275 162.676 258.146 162.516 258.053 162.332C257.959 162.148 257.912 161.932 257.912 161.682C257.912 161.518 257.949 161.338 258.023 161.143C258.102 160.947 258.232 160.766 258.416 160.598C258.6 160.43 258.848 160.291 259.16 160.182C259.473 160.068 259.863 160.012 260.332 160.012C260.562 160.012 260.818 160.025 261.1 160.053C261.381 160.076 261.674 160.119 261.979 160.182V161.09C261.658 161.012 261.354 160.955 261.064 160.92C260.779 160.881 260.531 160.861 260.32 160.861C260.066 160.861 259.852 160.881 259.676 160.92C259.504 160.959 259.363 161.014 259.254 161.084C259.148 161.15 259.072 161.23 259.025 161.324C258.979 161.414 258.955 161.512 258.955 161.617C258.955 161.723 258.975 161.818 259.014 161.904C259.057 161.99 259.133 162.074 259.242 162.156C259.355 162.234 259.512 162.314 259.711 162.396C259.91 162.475 260.17 162.561 260.49 162.654C260.838 162.756 261.131 162.863 261.369 162.977C261.607 163.086 261.801 163.209 261.949 163.346C262.098 163.482 262.203 163.637 262.266 163.809C262.332 163.98 262.365 164.176 262.365 164.395ZM268.541 160.949C268.65 161.086 268.734 161.246 268.793 161.43C268.855 161.609 268.887 161.805 268.887 162.016C268.887 162.32 268.83 162.6 268.717 162.854C268.607 163.104 268.451 163.318 268.248 163.498C268.045 163.678 267.801 163.818 267.516 163.92C267.234 164.018 266.924 164.066 266.584 164.066C266.338 164.066 266.107 164.041 265.893 163.99C265.678 163.936 265.508 163.869 265.383 163.791C265.309 163.9 265.246 164.004 265.195 164.102C265.145 164.199 265.119 164.309 265.119 164.43C265.119 164.578 265.189 164.701 265.33 164.799C265.475 164.896 265.664 164.949 265.898 164.957L267.445 165.016C267.738 165.023 268.008 165.061 268.254 165.127C268.504 165.193 268.717 165.289 268.893 165.414C269.072 165.539 269.211 165.693 269.309 165.877C269.41 166.061 269.461 166.273 269.461 166.516C269.461 166.777 269.404 167.025 269.291 167.26C269.178 167.494 269.002 167.699 268.764 167.875C268.529 168.055 268.23 168.197 267.867 168.303C267.504 168.408 267.072 168.461 266.572 168.461C266.096 168.461 265.689 168.422 265.354 168.344C265.021 168.27 264.748 168.164 264.533 168.027C264.318 167.895 264.162 167.734 264.064 167.547C263.967 167.363 263.918 167.16 263.918 166.938C263.918 166.652 263.984 166.402 264.117 166.188C264.25 165.973 264.455 165.766 264.732 165.566C264.631 165.52 264.543 165.461 264.469 165.391C264.395 165.32 264.334 165.244 264.287 165.162C264.24 165.076 264.205 164.986 264.182 164.893C264.158 164.799 264.146 164.707 264.146 164.617C264.146 164.363 264.205 164.131 264.322 163.92C264.443 163.709 264.586 163.51 264.75 163.322C264.676 163.232 264.609 163.145 264.551 163.059C264.496 162.973 264.447 162.881 264.404 162.783C264.365 162.682 264.334 162.574 264.311 162.461C264.291 162.344 264.281 162.211 264.281 162.062C264.281 161.758 264.336 161.48 264.445 161.23C264.559 160.977 264.715 160.76 264.914 160.58C265.117 160.4 265.359 160.262 265.641 160.164C265.926 160.062 266.24 160.012 266.584 160.012C266.729 160.012 266.867 160.021 267 160.041C267.133 160.061 267.25 160.086 267.352 160.117H269.484V160.949H268.541ZM265.002 166.85C265.002 167.127 265.146 167.328 265.436 167.453C265.725 167.582 266.127 167.646 266.643 167.646C266.967 167.646 267.238 167.617 267.457 167.559C267.68 167.5 267.857 167.422 267.99 167.324C268.127 167.23 268.225 167.121 268.283 166.996C268.342 166.875 268.371 166.75 268.371 166.621C268.371 166.383 268.273 166.207 268.078 166.094C267.883 165.98 267.584 165.914 267.182 165.895L265.646 165.842C265.518 165.928 265.41 166.012 265.324 166.094C265.242 166.176 265.178 166.258 265.131 166.34C265.084 166.426 265.051 166.51 265.031 166.592C265.012 166.678 265.002 166.764 265.002 166.85ZM265.312 162.039C265.312 162.227 265.344 162.398 265.406 162.555C265.469 162.711 265.557 162.844 265.67 162.953C265.783 163.062 265.916 163.148 266.068 163.211C266.225 163.27 266.396 163.299 266.584 163.299C266.787 163.299 266.967 163.266 267.123 163.199C267.283 163.129 267.416 163.035 267.521 162.918C267.631 162.801 267.713 162.666 267.768 162.514C267.826 162.361 267.855 162.203 267.855 162.039C267.855 161.852 267.824 161.68 267.762 161.523C267.699 161.367 267.611 161.234 267.498 161.125C267.385 161.016 267.25 160.932 267.094 160.873C266.941 160.811 266.771 160.779 266.584 160.779C266.381 160.779 266.199 160.814 266.039 160.885C265.883 160.955 265.75 161.049 265.641 161.166C265.535 161.279 265.453 161.412 265.395 161.564C265.34 161.717 265.312 161.875 265.312 162.039ZM272.104 157.275C273.904 158.943 274.805 160.799 274.805 162.842C274.805 163.264 274.762 163.701 274.676 164.154C274.59 164.607 274.443 165.072 274.236 165.549C274.029 166.021 273.75 166.502 273.398 166.99C273.051 167.479 272.611 167.969 272.08 168.461L271.488 167.857C272.25 167.104 272.818 166.316 273.193 165.496C273.568 164.676 273.756 163.816 273.756 162.918C273.756 161.059 273 159.387 271.488 157.902L272.104 157.275Z" fill="white"/>
<circle cx="145" cy="163" r="2" fill="#FF0000"/>
<rect x="151" y="205" width="65" height="8" rx="4" fill="#75BEFF"/>
<rect x="151" y="225" width="47" height="8" rx="4" fill="#D7BA7D"/>
<rect x="151" y="277" width="31" height="8" rx="4" fill="#D7BA7D"/>
<rect x="240" y="73" width="42" height="8" rx="4" fill="#CC6633"/>
<rect x="222" y="93" width="42" height="8" rx="4" fill="#CC6633"/>
<rect x="240" y="113" width="42" height="8" rx="4" fill="#D7BA7D"/>
<rect x="222" y="205" width="78" height="8" rx="4" fill="#D7BA7D"/>
<rect x="204" y="225" width="73" height="8" rx="4" fill="#CC6633"/>
<rect x="188" y="277" width="54" height="8" rx="4" fill="#CC6633"/>
</g>
<g filter="url(#filter2_d_2_491)">
<rect x="383" y="216" width="98" height="88" rx="8" fill="#252526"/>
<path d="M415.516 274V262.496H427.332V258.395H415.516V250.055H428.445V245.816H410.477V274H415.516ZM443.738 274.703C449.891 274.703 454.012 270.66 454.012 264.762C454.012 259.098 450.105 255.484 445.281 255.484C442.41 255.484 440.34 256.461 439.09 258.199H438.758L439.539 249.957H452.508V245.816H435.613L434.07 262.203H438.641C439.598 260.348 441.453 259.234 443.855 259.234C446.961 259.234 449.148 261.48 449.148 264.84C449.148 268.297 446.961 270.602 443.719 270.602C440.848 270.602 438.68 268.863 438.367 266.227H433.66C433.875 271.168 437.918 274.703 443.738 274.703Z" fill="#CCCCCC"/>
</g>
<defs>
<filter id="filter0_d_2_491" x="0" y="30" width="208" height="284" filterUnits="userSpaceOnUse" color-interpolation-filters="sRGB">
<feFlood flood-opacity="0" result="BackgroundImageFix"/>
<feColorMatrix in="SourceAlpha" type="matrix" values="0 0 0 0 0 0 0 0 0 0 0 0 0 0 0 0 0 0 127 0" result="hardAlpha"/>
<feOffset dy="2"/>
<feGaussianBlur stdDeviation="4"/>
<feColorMatrix type="matrix" values="0 0 0 0 0 0 0 0 0 0 0 0 0 0 0 0 0 0 0.4 0"/>
<feBlend mode="normal" in2="BackgroundImageFix" result="effect1_dropShadow_2_491"/>
<feBlend mode="normal" in="SourceGraphic" in2="effect1_dropShadow_2_491" result="shape"/>
</filter>
<filter id="filter1_d_2_491" x="115" y="0" width="411" height="350" filterUnits="userSpaceOnUse" color-interpolation-filters="sRGB">
<feFlood flood-opacity="0" result="BackgroundImageFix"/>
<feColorMatrix in="SourceAlpha" type="matrix" values="0 0 0 0 0 0 0 0 0 0 0 0 0 0 0 0 0 0 127 0" result="hardAlpha"/>
<feOffset dy="2"/>
<feGaussianBlur stdDeviation="8"/>
<feColorMatrix type="matrix" values="0 0 0 0 0 0 0 0 0 0 0 0 0 0 0 0 0 0 0.36 0"/>
<feBlend mode="normal" in2="BackgroundImageFix" result="effect1_dropShadow_2_491"/>
<feBlend mode="normal" in="SourceGraphic" in2="effect1_dropShadow_2_491" result="shape"/>
</filter>
<filter id="filter2_d_2_491" x="367" y="202" width="130" height="120" filterUnits="userSpaceOnUse" color-interpolation-filters="sRGB">
<feFlood flood-opacity="0" result="BackgroundImageFix"/>
<feColorMatrix in="SourceAlpha" type="matrix" values="0 0 0 0 0 0 0 0 0 0 0 0 0 0 0 0 0 0 127 0" result="hardAlpha"/>
<feOffset dy="2"/>
<feGaussianBlur stdDeviation="8"/>
<feColorMatrix type="matrix" values="0 0 0 0 0 0 0 0 0 0 0 0 0 0 0 0 0 0 0.36 0"/>
<feBlend mode="normal" in2="BackgroundImageFix" result="effect1_dropShadow_2_491"/>
<feBlend mode="normal" in="SourceGraphic" in2="effect1_dropShadow_2_491" result="shape"/>
</filter>
<clipPath id="clip0_2_491">
<rect width="103" height="35" fill="white" transform="translate(131 14)"/>
</clipPath>
</defs>
</svg>
