<svg width="583" height="287" viewBox="0 0 583 287" fill="none" xmlns="http://www.w3.org/2000/svg">
  <g filter="url(#filter0_d_1720_12308)">
    <rect width="520" height="255" transform="translate(16 14)" fill="var(--vscode-quickInput-background, #252526)" />
    <g>
      <g>
        <g>
          <g>
            <path d="M40.4912 37V30.2861H42.9243V29.2495H36.8496V30.2861H39.2881V37H40.4912ZM49.3213 35.9634H45.6045V33.5518H49.1226V32.5527H45.6045V30.2861H49.3213V29.2495H44.4014V37H49.3213V35.9634ZM52.2646 34.019H53.9619L55.541 37H56.9321L55.1919 33.8311C56.1372 33.5142 56.6958 32.6655 56.6958 31.6182C56.6958 30.1733 55.6914 29.2495 54.1284 29.2495H51.0615V37H52.2646V34.019ZM52.2646 30.2593H53.9619C54.8911 30.2593 55.4604 30.7803 55.4604 31.645C55.4604 32.5312 54.9233 33.0308 53.9941 33.0308H52.2646V30.2593ZM66.251 37V29.2495H64.8438L62.373 35.3135H62.2817L59.8164 29.2495H58.4092V37H59.5264V31.3228H59.6016L61.8735 36.8604H62.7866L65.0586 31.3228H65.1338V37H66.251ZM69.3984 37V29.2495H68.1953V37H69.3984ZM72.5137 37V31.3711H72.5996L76.5796 37H77.6646V29.2495H76.4937V34.8892H76.4077L72.4277 29.2495H71.3428V37H72.5137ZM84.6309 37H85.9092L83.1108 29.2495H81.8164L79.0181 37H80.2534L80.9678 34.9053H83.9219L84.6309 37ZM82.4019 30.6191H82.4932L83.6157 33.9385H81.2739L82.4019 30.6191ZM92.0967 35.9526H88.4658V29.2495H87.2627V37H92.0967V35.9526Z" fill="var(--vscode-panelTitle-activeForeground, #FFFFFF)" />
            <rect x="36" y="48" width="57" height="1" fill="var(--vscode-panelTitle-activeForeground, #E7E7E7)" />
          </g>
        </g>
      </g>
      <g>
        <rect x="117" y="31" width="40" height="6" rx="3" fill="var(--vscode-list-deemphasizedForeground, #FFFFFF)" fill-opacity="0.16" />
      </g>
      <g>
        <rect x="181" y="31" width="50" height="6" rx="3" fill="var(--vscode-list-deemphasizedForeground, #FFFFFF)" fill-opacity="0.16" />
      </g>
      <g>
        <rect x="255" y="31" width="40" height="6" rx="3" fill="var(--vscode-list-deemphasizedForeground, #FFFFFF)" fill-opacity="0.16" />
      </g>
    </g>
    <g>
      <path d="M42.876 82.42C43.212 82.42 43.536 82.24 44.112 81.688L47.496 78.4L44.04 75.04C43.548 74.56 43.2 74.38 42.876 74.38C42.312 74.38 41.772 74.956 41.772 75.46C41.772 75.616 41.82 75.784 41.928 75.964C42.036 76.144 42.252 76.384 42.576 76.696L43.164 77.26H38.208C37.752 77.26 37.416 77.296 37.224 77.368C36.84 77.524 36.612 77.824 36.612 78.4C36.612 78.688 36.672 78.916 36.78 79.072C36.996 79.408 37.296 79.54 38.208 79.54H43.164C42.648 80.008 41.772 80.776 41.772 81.34C41.772 81.856 42.324 82.42 42.876 82.42Z" fill="#F14C4C" />
      <path d="M57.6661 77.3418V82H56.2806V75.4545H57.6552V76.3273H57.9279C58.0661 76.0218 58.237 75.7855 58.4406 75.6182C58.6443 75.4509 58.8697 75.3673 59.117 75.3673C59.3788 75.3673 59.6043 75.4509 59.7934 75.6182C59.9825 75.7782 60.1134 76.0145 60.1861 76.3273H60.4588C60.5897 76.0218 60.7679 75.7855 60.9934 75.6182C61.2188 75.4509 61.4734 75.3673 61.757 75.3673C62.0915 75.3673 62.357 75.5091 62.5534 75.7927C62.757 76.0691 62.8588 76.4473 62.8588 76.9273V82H61.4734V77.2109C61.4734 76.9636 61.4406 76.7782 61.3752 76.6545C61.3097 76.5236 61.2152 76.4582 61.0915 76.4582C60.9752 76.4582 60.8406 76.5382 60.6879 76.6982C60.5352 76.8509 60.3897 77.0655 60.2515 77.3418V82H58.8879V77.2109C58.8879 76.9636 58.8515 76.7782 58.7788 76.6545C58.7134 76.5236 58.6225 76.4582 58.5061 76.4582C58.3897 76.4582 58.2552 76.5345 58.1025 76.6873C57.957 76.8327 57.8115 77.0509 57.6661 77.3418ZM65.394 84.28C65.1831 84.28 64.9613 84.2691 64.7285 84.2473C64.5031 84.2255 64.2667 84.1964 64.0194 84.16L64.1613 82.9055C64.4158 82.9564 64.6449 82.9927 64.8485 83.0145C65.0522 83.0436 65.234 83.0582 65.394 83.0582C65.7649 83.0582 66.0631 82.9709 66.2885 82.7964C66.5213 82.6218 66.7067 82.3091 66.8449 81.8582L66.8667 81.7818H65.9722L63.9213 75.4545H65.6231L67.2049 80.6909L68.8413 75.4545H70.4776L68.274 82.0218C68.0049 82.8436 67.6449 83.4255 67.194 83.7673C66.7431 84.1091 66.1431 84.28 65.394 84.28ZM71.7364 78.8909V77.4182H77.9546V78.8909H71.7364ZM82.4643 80.8436C82.9225 80.8436 83.2571 80.7455 83.468 80.5491C83.6862 80.3527 83.7952 80.0327 83.7952 79.5891V77.8873C83.7952 77.4727 83.708 77.1673 83.5334 76.9709C83.3589 76.7745 83.1007 76.6764 82.7589 76.6764C82.4752 76.6764 82.2062 76.7455 81.9516 76.8836C81.7043 77.0218 81.4462 77.2364 81.1771 77.5273V80.4945C81.3807 80.6109 81.5807 80.6982 81.7771 80.7564C81.9734 80.8145 82.2025 80.8436 82.4643 80.8436ZM82.6716 82.0873C82.4243 82.0873 82.1698 82.0618 81.908 82.0109C81.6462 81.9673 81.4025 81.8982 81.1771 81.8036V84.1818H79.5407V75.4545H81.1771V76.6H81.5043C81.6789 76.2145 81.9407 75.9091 82.2898 75.6836C82.6389 75.4582 83.0243 75.3455 83.4462 75.3455C84.0571 75.3455 84.5407 75.5564 84.8971 75.9782C85.2534 76.3927 85.4316 76.96 85.4316 77.68V79.6109C85.4316 80.3673 85.1843 80.9709 84.6898 81.4218C84.1952 81.8655 83.5225 82.0873 82.6716 82.0873ZM87.5631 82V75.4545H89.1995V76.6H89.5268C89.6868 76.1636 89.9304 75.8473 90.2577 75.6509C90.5922 75.4473 90.9886 75.3455 91.4468 75.3455C91.9704 75.3455 92.385 75.5091 92.6904 75.8364C93.0031 76.1564 93.1595 76.6109 93.1595 77.2V78.3018H91.654V77.7018C91.654 77.3673 91.5777 77.1127 91.425 76.9382C91.2795 76.7636 91.0395 76.6764 90.705 76.6764C90.414 76.6764 90.1377 76.7491 89.8759 76.8945C89.6213 77.0327 89.3959 77.2618 89.1995 77.5818V82H87.5631ZM97.7674 82.1091C96.8365 82.1091 96.1129 81.8945 95.5965 81.4655C95.0801 81.0291 94.8219 80.4182 94.8219 79.6327V77.8655C94.8219 77.0655 95.0801 76.4473 95.5965 76.0109C96.1201 75.5673 96.8474 75.3455 97.7783 75.3455C98.7092 75.3455 99.4292 75.5709 99.9383 76.0218C100.455 76.4655 100.713 77.0873 100.713 77.8873V79.6545C100.713 80.4327 100.455 81.0364 99.9383 81.4655C99.4219 81.8945 98.6983 82.1091 97.7674 82.1091ZM97.7674 80.8545C98.2183 80.8545 98.5492 80.7527 98.7601 80.5491C98.971 80.3382 99.0765 80.0145 99.0765 79.5782V77.9091C99.0765 77.4582 98.971 77.1273 98.7601 76.9164C98.5492 76.7055 98.2183 76.6 97.7674 76.6C97.3165 76.6 96.9856 76.7055 96.7747 76.9164C96.5638 77.1273 96.4583 77.4545 96.4583 77.8982V79.5455C96.4583 79.9964 96.5638 80.3273 96.7747 80.5382C96.9856 80.7491 97.3165 80.8545 97.7674 80.8545ZM104.295 84.28C103.983 84.28 103.67 84.2618 103.357 84.2255C103.052 84.1964 102.739 84.1345 102.419 84.04L102.637 82.8291C102.921 82.9236 103.186 82.9818 103.433 83.0036C103.681 83.0327 103.917 83.0473 104.143 83.0473C104.601 83.0473 104.961 82.9564 105.223 82.7745C105.492 82.5927 105.626 82.2945 105.626 81.88V76.7091H102.746V75.4545H107.263V82.0436C107.263 82.7709 106.99 83.3236 106.444 83.7018C105.899 84.0873 105.183 84.28 104.295 84.28ZM106.379 74.3636C106.03 74.3636 105.746 74.3091 105.528 74.2C105.317 74.0909 105.212 73.9018 105.212 73.6327V73.5127C105.212 73.2364 105.317 73.0436 105.528 72.9345C105.746 72.8182 106.03 72.76 106.379 72.76C106.728 72.76 107.008 72.8182 107.219 72.9345C107.437 73.0436 107.546 73.2364 107.546 73.5127V73.6327C107.546 73.9018 107.437 74.0909 107.219 74.2C107.001 74.3091 106.721 74.3636 106.379 74.3636ZM116.081 80.5055C115.841 81.0945 115.503 81.5091 115.067 81.7491C114.638 81.9891 113.976 82.1091 113.081 82.1091C112.194 82.1091 111.474 81.9018 110.921 81.4873C110.376 81.0655 110.103 80.44 110.103 79.6109V77.8655C110.103 77.0509 110.369 76.4291 110.9 76C111.438 75.5636 112.158 75.3455 113.06 75.3455C113.969 75.3455 114.685 75.5636 115.209 76C115.732 76.4364 115.994 77.0727 115.994 77.9091V79.0545H111.74V79.6873C111.74 80.1164 111.849 80.4364 112.067 80.6473C112.285 80.8582 112.63 80.9636 113.103 80.9636C113.518 80.9636 113.841 80.9018 114.074 80.7782C114.314 80.6545 114.51 80.4327 114.663 80.1127L116.081 80.5055ZM111.74 77.7564V78.0945H114.358V77.8545C114.358 77.3527 114.256 76.9964 114.052 76.7855C113.849 76.5673 113.514 76.4582 113.049 76.4582C112.583 76.4582 112.249 76.56 112.045 76.7636C111.841 76.9673 111.74 77.2982 111.74 77.7564ZM120.82 82.1091C119.817 82.1091 119.053 81.8945 118.529 81.4655C118.006 81.0291 117.744 80.4 117.744 79.5782V77.8764C117.744 77.0545 118.006 76.4291 118.529 76C119.053 75.5636 119.813 75.3455 120.809 75.3455C121.733 75.3455 122.424 75.5491 122.882 75.9564C123.347 76.3636 123.62 76.9455 123.7 77.7018L122.118 77.8218C122.089 77.3855 121.966 77.0727 121.747 76.8836C121.537 76.6945 121.209 76.6 120.766 76.6C120.286 76.6 119.933 76.7055 119.707 76.9164C119.489 77.1273 119.38 77.4727 119.38 77.9527V79.5236C119.38 79.9891 119.493 80.3273 119.718 80.5382C119.944 80.7491 120.3 80.8545 120.787 80.8545C121.224 80.8545 121.547 80.7782 121.758 80.6255C121.969 80.4655 122.089 80.2073 122.118 79.8509L123.7 79.9709C123.649 80.6618 123.402 81.1927 122.958 81.5636C122.522 81.9273 121.809 82.1091 120.82 82.1091ZM129.475 82.1091C128.661 82.1091 128.028 81.9164 127.577 81.5309C127.134 81.1455 126.912 80.5782 126.912 79.8291V76.7091H125.221V75.4545H126.912V73.2727H128.548V75.4545H131.166V76.7091H128.548V79.6218C128.548 80.0364 128.646 80.3418 128.843 80.5382C129.039 80.7273 129.315 80.8218 129.672 80.8218C129.897 80.8218 130.126 80.8073 130.359 80.7782C130.592 80.7418 130.821 80.6836 131.046 80.6036L131.264 81.8473C131.068 81.92 130.814 81.9818 130.501 82.0327C130.195 82.0836 129.854 82.1091 129.475 82.1091Z" fill="#29B7DA" />
      <path d="M240.212 82V75.4545H241.303V76.5455H241.63C241.79 76.1745 242.041 75.8836 242.383 75.6727C242.725 75.4545 243.114 75.3455 243.55 75.3455C244.205 75.3455 244.721 75.5455 245.099 75.9455C245.477 76.3455 245.667 76.8909 245.667 77.5818V82H244.576V77.8C244.576 77.3418 244.463 76.9927 244.237 76.7527C244.019 76.5055 243.703 76.3818 243.288 76.3818C242.961 76.3818 242.627 76.48 242.285 76.6764C241.95 76.8727 241.623 77.1564 241.303 77.5273V82H240.212ZM250.58 82.1091C249.7 82.1091 249.024 81.8982 248.551 81.4764C248.085 81.0473 247.853 80.4327 247.853 79.6327V77.8655C247.853 77.0582 248.089 76.4364 248.562 76C249.034 75.5636 249.711 75.3455 250.591 75.3455C251.464 75.3455 252.133 75.5636 252.598 76C253.071 76.4364 253.307 77.0582 253.307 77.8655V79.6327C253.307 80.4327 253.071 81.0473 252.598 81.4764C252.133 81.8982 251.46 82.1091 250.58 82.1091ZM250.58 81.1273C251.133 81.1273 251.544 81.0036 251.813 80.7564C252.082 80.5091 252.216 80.1345 252.216 79.6327V77.8655C252.216 77.3418 252.082 76.9564 251.813 76.7091C251.544 76.4545 251.133 76.3273 250.58 76.3273C250.027 76.3273 249.616 76.4545 249.347 76.7091C249.078 76.9564 248.944 77.3418 248.944 77.8655V79.6327C248.944 80.1345 249.078 80.5091 249.347 80.7564C249.616 81.0036 250.027 81.1273 250.58 81.1273ZM257.893 81.0727C258.25 81.0727 258.588 80.9782 258.908 80.7891C259.228 80.6 259.544 80.3127 259.857 79.9273V76.72C259.631 76.5818 259.391 76.48 259.137 76.4145C258.882 76.3418 258.61 76.3055 258.319 76.3055C257.73 76.3055 257.293 76.4364 257.01 76.6982C256.726 76.9527 256.584 77.3418 256.584 77.8655V79.6218C256.584 80.1091 256.693 80.4727 256.911 80.7127C257.13 80.9527 257.457 81.0727 257.893 81.0727ZM259.53 80.9091C259.341 81.2873 259.079 81.5818 258.744 81.7927C258.41 82.0036 258.035 82.1091 257.621 82.1091C256.944 82.1091 256.421 81.8909 256.05 81.4545C255.679 81.0182 255.493 80.4073 255.493 79.6218V77.8436C255.493 77.0509 255.741 76.4364 256.235 76C256.73 75.5636 257.421 75.3455 258.308 75.3455C258.562 75.3455 258.824 75.3745 259.093 75.4327C259.362 75.4836 259.617 75.5564 259.857 75.6509V73.2727H260.948V82H259.857V80.9091H259.53ZM268.61 80.56C268.414 81.1055 268.116 81.5018 267.716 81.7491C267.316 81.9891 266.701 82.1091 265.872 82.1091C265.007 82.1091 264.334 81.9018 263.854 81.4873C263.374 81.0655 263.134 80.4436 263.134 79.6218V77.8655C263.134 77.0218 263.385 76.3927 263.887 75.9782C264.396 75.5564 265.058 75.3455 265.872 75.3455C266.694 75.3455 267.352 75.56 267.847 75.9891C268.341 76.4109 268.588 77.0618 268.588 77.9418V78.9455H264.225V79.6327C264.225 80.1782 264.359 80.5745 264.628 80.8218C264.905 81.0618 265.316 81.1818 265.861 81.1818C266.385 81.1818 266.767 81.1091 267.007 80.9636C267.247 80.8182 267.428 80.5818 267.552 80.2545L268.61 80.56ZM264.225 77.8655V78.1273H267.498V77.9636C267.498 77.3745 267.359 76.9455 267.083 76.6764C266.814 76.4073 266.407 76.2727 265.861 76.2727C265.316 76.2727 264.905 76.4036 264.628 76.6655C264.359 76.92 264.225 77.32 264.225 77.8655ZM278.088 78.7273V77.6364H284.197V78.7273H278.088ZM285.728 78.7273V77.6364H291.838V78.7273H285.728ZM297.1 82H295.736L293.413 75.4545H294.602L296.435 81.1164L298.267 75.4545H299.424L297.1 82ZM306.813 80.56C306.617 81.1055 306.319 81.5018 305.919 81.7491C305.519 81.9891 304.904 82.1091 304.075 82.1091C303.21 82.1091 302.537 81.9018 302.057 81.4873C301.577 81.0655 301.337 80.4436 301.337 79.6218V77.8655C301.337 77.0218 301.588 76.3927 302.09 75.9782C302.599 75.5564 303.261 75.3455 304.075 75.3455C304.897 75.3455 305.555 75.56 306.05 75.9891C306.544 76.4109 306.792 77.0618 306.792 77.9418V78.9455H302.428V79.6327C302.428 80.1782 302.562 80.5745 302.832 80.8218C303.108 81.0618 303.519 81.1818 304.064 81.1818C304.588 81.1818 304.97 81.1091 305.21 80.9636C305.45 80.8182 305.632 80.5818 305.755 80.2545L306.813 80.56ZM302.428 77.8655V78.1273H305.701V77.9636C305.701 77.3745 305.562 76.9455 305.286 76.6764C305.017 76.4073 304.61 76.2727 304.064 76.2727C303.519 76.2727 303.108 76.4036 302.832 76.6655C302.562 76.92 302.428 77.32 302.428 77.8655ZM309.523 82V75.4545H310.614V76.5455H310.941C311.094 76.1309 311.327 75.8291 311.639 75.64C311.952 75.4436 312.33 75.3455 312.774 75.3455C313.261 75.3455 313.669 75.5091 313.996 75.8364C314.323 76.1564 314.487 76.6109 314.487 77.2V78.1818H313.45V77.5927C313.45 77.1782 313.356 76.8727 313.167 76.6764C312.985 76.48 312.705 76.3818 312.327 76.3818C311.985 76.3818 311.672 76.4655 311.389 76.6327C311.112 76.8 310.854 77.0618 310.614 77.4182V82H309.523ZM319.433 82.1091C318.88 82.1091 318.346 82.0291 317.829 81.8691C317.313 81.7018 316.836 81.4473 316.4 81.1055L316.891 80.2436C317.247 80.5345 317.644 80.7564 318.08 80.9091C318.524 81.0545 318.975 81.1273 319.433 81.1273C319.811 81.1273 320.171 81.0691 320.513 80.9527C320.862 80.8364 321.036 80.5891 321.036 80.2109C321.036 79.8982 320.895 79.6764 320.611 79.5455C320.327 79.4145 319.807 79.3018 319.051 79.2073C318.251 79.1127 317.644 78.9273 317.229 78.6509C316.822 78.3673 316.618 77.9236 316.618 77.32C316.618 76.6655 316.866 76.1745 317.36 75.8473C317.855 75.5127 318.429 75.3455 319.084 75.3455C319.6 75.3455 320.095 75.4327 320.567 75.6073C321.047 75.7818 321.491 76.0291 321.898 76.3491L321.407 77.2109C321.073 76.9418 320.709 76.7273 320.316 76.5673C319.924 76.4073 319.513 76.3273 319.084 76.3273C318.735 76.3273 318.415 76.3927 318.124 76.5236C317.84 76.6545 317.698 76.8945 317.698 77.2436C317.698 77.5418 317.829 77.76 318.091 77.8982C318.36 78.0291 318.873 78.1418 319.629 78.2364C320.458 78.3309 321.08 78.5345 321.495 78.8473C321.909 79.1527 322.116 79.5818 322.116 80.1345C322.116 80.8182 321.84 81.32 321.287 81.64C320.735 81.9527 320.116 82.1091 319.433 82.1091ZM324.259 82V81.0182H326.441V76.4364H324.259V75.4545H327.532V81.0182H329.713V82H324.259ZM326.986 74.2545C326.71 74.2545 326.484 74.2109 326.31 74.1236C326.143 74.0364 326.059 73.8727 326.059 73.6327V73.5564C326.059 73.3091 326.143 73.1418 326.31 73.0545C326.484 72.96 326.71 72.9127 326.986 72.9127C327.263 72.9127 327.484 72.96 327.652 73.0545C327.826 73.1418 327.913 73.3091 327.913 73.5564V73.6327C327.913 73.8727 327.826 74.0364 327.652 74.1236C327.477 74.2109 327.255 74.2545 326.986 74.2545ZM334.627 82.1091C333.747 82.1091 333.07 81.8982 332.598 81.4764C332.132 81.0473 331.9 80.4327 331.9 79.6327V77.8655C331.9 77.0582 332.136 76.4364 332.609 76C333.081 75.5636 333.758 75.3455 334.638 75.3455C335.51 75.3455 336.18 75.5636 336.645 76C337.118 76.4364 337.354 77.0582 337.354 77.8655V79.6327C337.354 80.4327 337.118 81.0473 336.645 81.4764C336.18 81.8982 335.507 82.1091 334.627 82.1091ZM334.627 81.1273C335.18 81.1273 335.59 81.0036 335.86 80.7564C336.129 80.5091 336.263 80.1345 336.263 79.6327V77.8655C336.263 77.3418 336.129 76.9564 335.86 76.7091C335.59 76.4545 335.18 76.3273 334.627 76.3273C334.074 76.3273 333.663 76.4545 333.394 76.7091C333.125 76.9564 332.99 77.3418 332.99 77.8655V79.6327C332.99 80.1345 333.125 80.5091 333.394 80.7564C333.663 81.0036 334.074 81.1273 334.627 81.1273ZM339.54 82V75.4545H340.631V76.5455H340.958C341.118 76.1745 341.369 75.8836 341.711 75.6727C342.053 75.4545 342.442 75.3455 342.878 75.3455C343.533 75.3455 344.049 75.5455 344.427 75.9455C344.806 76.3455 344.995 76.8909 344.995 77.5818V82H343.904V77.8C343.904 77.3418 343.791 76.9927 343.566 76.7527C343.347 76.5055 343.031 76.3818 342.616 76.3818C342.289 76.3818 341.955 76.48 341.613 76.6764C341.278 76.8727 340.951 77.1564 340.631 77.5273V82H339.54ZM40.4945 118H39.1309L36.8073 111.455H37.9964L39.8291 117.116L41.6618 111.455H42.8182L40.4945 118ZM45.0588 118V117.018H47.4588V110.582H47.1424C46.8952 111.018 46.5752 111.327 46.1824 111.509C45.797 111.691 45.3497 111.738 44.8406 111.651L44.7315 110.582C45.2915 110.647 45.8043 110.571 46.2697 110.353C46.7352 110.127 47.1424 109.767 47.4915 109.273H48.5497V117.018H50.7315V118H45.0588ZM55.0994 118.109C54.074 118.109 53.3249 117.829 52.8522 117.269C52.3867 116.702 52.154 115.942 52.154 114.989V112.338C52.154 111.32 52.4085 110.538 52.9176 109.993C53.434 109.44 54.1685 109.164 55.1212 109.164C55.9867 109.164 56.6376 109.324 57.074 109.644C57.5103 109.956 57.8013 110.465 57.9467 111.171L56.7576 111.422C56.6631 110.978 56.5103 110.655 56.2994 110.451C56.0885 110.247 55.6885 110.145 55.0994 110.145C54.4303 110.145 53.954 110.316 53.6703 110.658C53.3867 110.993 53.2449 111.553 53.2449 112.338V113.385H53.4631C53.6594 113.124 53.9067 112.92 54.2049 112.775C54.5103 112.629 54.914 112.556 55.4158 112.556C56.2885 112.556 56.9431 112.796 57.3794 113.276C57.8231 113.756 58.0449 114.378 58.0449 115.142V115.382C58.0449 116.262 57.7903 116.938 57.2812 117.411C56.7722 117.876 56.0449 118.109 55.0994 118.109ZM55.0885 117.127C55.7213 117.127 56.1867 116.989 56.4849 116.713C56.7831 116.429 56.9322 115.993 56.9322 115.404V115.262C56.9322 114.673 56.7831 114.24 56.4849 113.964C56.1867 113.68 55.7213 113.538 55.0885 113.538C54.4558 113.538 53.9903 113.68 53.6922 113.964C53.394 114.24 53.2449 114.673 53.2449 115.262V115.404C53.2449 115.993 53.394 116.429 53.6922 116.713C53.9903 116.989 54.4558 117.127 55.0885 117.127ZM62.751 118.109C62.3873 118.109 62.0928 118.029 61.8673 117.869C61.6419 117.702 61.5291 117.44 61.5291 117.084V116.778C61.5291 116.422 61.6419 116.16 61.8673 115.993C62.0928 115.818 62.3873 115.731 62.751 115.731C63.1146 115.731 63.4055 115.818 63.6237 115.993C63.8491 116.16 63.9619 116.422 63.9619 116.778V117.084C63.9619 117.44 63.8491 117.702 63.6237 117.869C63.3982 118.029 63.1073 118.109 62.751 118.109ZM67.9807 118V117.018H70.3807V110.582H70.0643C69.817 111.018 69.497 111.327 69.1043 111.509C68.7189 111.691 68.2716 111.738 67.7625 111.651L67.6534 110.582C68.2134 110.647 68.7261 110.571 69.1916 110.353C69.657 110.127 70.0643 109.767 70.4134 109.273H71.4716V117.018H73.6534V118H67.9807ZM76.1668 114.727H79.1122V110.407L76.1668 114.727ZM81.5122 115.709H80.2031V118H79.1122V115.709H74.9668V114.727L78.6213 109.273H80.2031V114.727H81.5122V115.709ZM85.6728 118.109C85.3092 118.109 85.0147 118.029 84.7892 117.869C84.5638 117.702 84.451 117.44 84.451 117.084V116.778C84.451 116.422 84.5638 116.16 84.7892 115.993C85.0147 115.818 85.3092 115.731 85.6728 115.731C86.0365 115.731 86.3274 115.818 86.5456 115.993C86.771 116.16 86.8838 116.422 86.8838 116.778V117.084C86.8838 117.44 86.771 117.702 86.5456 117.869C86.3201 118.029 86.0292 118.109 85.6728 118.109ZM93.3026 118.109C92.3426 118.109 91.6116 117.789 91.1098 117.149C90.608 116.502 90.3571 115.56 90.3571 114.324V112.993C90.3571 111.742 90.608 110.793 91.1098 110.145C91.6116 109.491 92.3462 109.164 93.3135 109.164C94.2735 109.164 95.0007 109.491 95.4953 110.145C95.9971 110.793 96.248 111.742 96.248 112.993V114.324C96.248 115.56 95.9971 116.502 95.4953 117.149C94.9935 117.789 94.2626 118.109 93.3026 118.109ZM93.3026 117.127C93.9644 117.127 94.4371 116.909 94.7207 116.473C95.0116 116.036 95.1571 115.32 95.1571 114.324V112.993C95.1571 111.975 95.0116 111.247 94.7207 110.811C94.4371 110.367 93.9644 110.145 93.3026 110.145C92.6407 110.145 92.1644 110.367 91.8735 110.811C91.5898 111.247 91.448 111.975 91.448 112.993V114.324C91.448 115.32 91.5898 116.036 91.8735 116.473C92.1644 116.909 92.6407 117.127 93.3026 117.127ZM93.3026 114.487C93.0698 114.487 92.8807 114.447 92.7353 114.367C92.5898 114.287 92.5171 114.135 92.5171 113.909V113.375C92.5171 113.156 92.5898 113.007 92.7353 112.927C92.8807 112.84 93.0698 112.796 93.3026 112.796C93.5353 112.796 93.7207 112.84 93.8589 112.927C94.0044 113.007 94.0771 113.156 94.0771 113.375V113.909C94.0771 114.135 94.0044 114.287 93.8589 114.367C93.7135 114.447 93.528 114.487 93.3026 114.487ZM36 126.727H43.6364V138.727H36V126.727Z" fill="var(--vscode-terminal-foreground, #CCCCCC)" />
      <path d="M146.993 82.4036C146.993 83 146.771 83.4618 146.328 83.7891C145.884 84.1236 145.313 84.2909 144.615 84.2909H142.651C141.888 84.2909 141.291 84.1491 140.862 83.8655C140.44 83.5891 140.229 83.2109 140.229 82.7309C140.229 82.3745 140.335 82.0873 140.546 81.8691C140.757 81.6509 141.033 81.5236 141.375 81.4873V81.2691C141.113 81.2036 140.895 81.0873 140.72 80.92C140.546 80.7527 140.458 80.4945 140.458 80.1455C140.458 79.7818 140.578 79.4764 140.818 79.2291C141.066 78.9745 141.411 78.8255 141.855 78.7818V78.5745C141.484 78.4727 141.215 78.3091 141.048 78.0836C140.888 77.8509 140.808 77.6 140.808 77.3309V77.1782C140.808 76.6473 141.037 76.2291 141.495 75.9236C141.953 75.6109 142.553 75.4545 143.295 75.4545H146.862V76.5455L145.117 76.3164V76.5236C145.393 76.5964 145.611 76.7418 145.771 76.96C145.938 77.1709 146.022 77.3964 146.022 77.6364V77.8C146.022 78.3236 145.8 78.7345 145.357 79.0327C144.92 79.3309 144.306 79.48 143.513 79.48H142.378C142.16 79.48 141.989 79.5236 141.866 79.6109C141.749 79.6982 141.691 79.8473 141.691 80.0582C141.691 80.2618 141.76 80.4109 141.898 80.5055C142.037 80.6 142.237 80.6473 142.498 80.6473H144.702C145.378 80.6473 145.928 80.7891 146.349 81.0727C146.778 81.3564 146.993 81.8 146.993 82.4036ZM143.426 78.5745C143.797 78.5745 144.069 78.5018 144.244 78.3564C144.426 78.2109 144.517 78.0036 144.517 77.7345V77.2873C144.517 77.0255 144.426 76.8255 144.244 76.6873C144.062 76.5491 143.789 76.48 143.426 76.48C143.055 76.48 142.778 76.5491 142.597 76.6873C142.422 76.8255 142.335 77.0255 142.335 77.2873V77.7345C142.335 78.0036 142.422 78.2109 142.597 78.3564C142.778 78.5018 143.055 78.5745 143.426 78.5745ZM142.651 83.2545H144.669C144.953 83.2545 145.182 83.2073 145.357 83.1127C145.538 83.0182 145.629 82.8364 145.629 82.5673C145.629 82.2982 145.546 82.1164 145.378 82.0218C145.211 81.9273 144.993 81.88 144.724 81.88H141.8V82.5127C141.8 82.76 141.869 82.9455 142.008 83.0691C142.153 83.1927 142.368 83.2545 142.651 83.2545ZM148.361 82V80.7455H150.434V76.7091H148.361V75.4545H152.07V80.7455H154.143V82H148.361ZM151.317 74.3636C150.968 74.3636 150.685 74.3091 150.466 74.2C150.255 74.0909 150.15 73.9018 150.15 73.6327V73.5127C150.15 73.2364 150.255 73.0436 150.466 72.9345C150.685 72.8182 150.968 72.76 151.317 72.76C151.666 72.76 151.946 72.8182 152.157 72.9345C152.375 73.0436 152.485 73.2364 152.485 73.5127V73.6327C152.485 73.9018 152.375 74.0909 152.157 74.2C151.939 74.3091 151.659 74.3636 151.317 74.3636ZM160.038 82.1091C159.223 82.1091 158.591 81.9164 158.14 81.5309C157.696 81.1455 157.474 80.5782 157.474 79.8291V76.7091H155.783V75.4545H157.474V73.2727H159.111V75.4545H161.729V76.7091H159.111V79.6218C159.111 80.0364 159.209 80.3418 159.405 80.5382C159.601 80.7273 159.878 80.8218 160.234 80.8218C160.46 80.8218 160.689 80.8073 160.921 80.7782C161.154 80.7418 161.383 80.6836 161.609 80.6036L161.827 81.8473C161.631 81.92 161.376 81.9818 161.063 82.0327C160.758 82.0836 160.416 82.1091 160.038 82.1091ZM166.544 77.7673C166.144 77.7673 165.817 77.6836 165.562 77.5164C165.315 77.3491 165.191 77.0982 165.191 76.7636V76.1855C165.191 75.8509 165.315 75.5964 165.562 75.4218C165.817 75.2473 166.144 75.16 166.544 75.16C166.944 75.16 167.268 75.2473 167.515 75.4218C167.762 75.5964 167.886 75.8509 167.886 76.1855V76.7636C167.886 77.0982 167.758 77.3491 167.504 77.5164C167.257 77.6836 166.937 77.7673 166.544 77.7673ZM166.544 82.0764C166.144 82.0764 165.817 81.9927 165.562 81.8255C165.315 81.6582 165.191 81.4073 165.191 81.0727V80.4945C165.191 80.16 165.315 79.9055 165.562 79.7309C165.817 79.5564 166.144 79.4691 166.544 79.4691C166.944 79.4691 167.268 79.5564 167.515 79.7309C167.762 79.9055 167.886 80.16 167.886 80.4945V81.0727C167.886 81.4073 167.758 81.6582 167.504 81.8255C167.257 81.9927 166.937 82.0764 166.544 82.0764ZM176.519 84.2909C175.057 84.0218 173.981 83.3782 173.29 82.36C172.606 81.3418 172.265 80.1309 172.265 78.7273C172.265 77.3455 172.606 76.1418 173.29 75.1164C173.981 74.0836 175.057 73.4327 176.519 73.1636L176.683 74.2982C175.65 74.5673 174.926 75.0909 174.512 75.8691C174.105 76.6473 173.901 77.6 173.901 78.7273C173.901 79.8545 174.105 80.8 174.512 81.5636C174.926 82.3273 175.65 82.8436 176.683 83.1127L176.519 84.2909Z" fill="#3B8EEA" />
      <path d="M179.916 77.3418V82H178.531V75.4545H179.905V76.3273H180.178C180.316 76.0218 180.487 75.7855 180.691 75.6182C180.894 75.4509 181.12 75.3673 181.367 75.3673C181.629 75.3673 181.854 75.4509 182.043 75.6182C182.232 75.7782 182.363 76.0145 182.436 76.3273H182.709C182.84 76.0218 183.018 75.7855 183.243 75.6182C183.469 75.4509 183.723 75.3673 184.007 75.3673C184.342 75.3673 184.607 75.5091 184.803 75.7927C185.007 76.0691 185.109 76.4473 185.109 76.9273V82H183.723V77.2109C183.723 76.9636 183.691 76.7782 183.625 76.6545C183.56 76.5236 183.465 76.4582 183.342 76.4582C183.225 76.4582 183.091 76.5382 182.938 76.6982C182.785 76.8509 182.64 77.0655 182.502 77.3418V82H181.138V77.2109C181.138 76.9636 181.102 76.7782 181.029 76.6545C180.963 76.5236 180.872 76.4582 180.756 76.4582C180.64 76.4582 180.505 76.5345 180.352 76.6873C180.207 76.8327 180.062 77.0509 179.916 77.3418ZM188.702 80.9855C189.008 80.9855 189.291 80.9382 189.553 80.8436C189.815 80.7418 190.055 80.5855 190.273 80.3745V79.3164H188.637C188.368 79.3164 188.153 79.3745 187.993 79.4909C187.84 79.6073 187.764 79.8327 187.764 80.1673C187.764 80.4291 187.837 80.6327 187.982 80.7782C188.128 80.9164 188.368 80.9855 188.702 80.9855ZM188.342 82.1091C187.746 82.1091 187.244 81.9491 186.837 81.6291C186.437 81.3091 186.237 80.84 186.237 80.2218C186.237 79.6255 186.44 79.1673 186.848 78.8473C187.255 78.52 187.775 78.3564 188.408 78.3564H190.273V77.5164C190.273 77.1891 190.175 76.9491 189.979 76.7964C189.782 76.6436 189.488 76.5673 189.095 76.5673C188.695 76.5673 188.397 76.6364 188.2 76.7745C188.004 76.9055 187.855 77.1782 187.753 77.5927L186.389 77.32C186.535 76.6218 186.822 76.12 187.251 75.8145C187.68 75.5018 188.306 75.3455 189.128 75.3455C189.979 75.3455 190.644 75.5164 191.124 75.8582C191.611 76.2 191.855 76.7309 191.855 77.4509V80.0909C191.855 80.4255 191.953 80.6327 192.149 80.7127C192.346 80.7927 192.629 80.8073 193 80.7564V81.9891C192.469 82.0982 192.011 82.0836 191.626 81.9455C191.248 81.8 191.011 81.4727 190.917 80.9636H190.644C190.426 81.2764 190.113 81.5455 189.706 81.7709C189.299 81.9964 188.844 82.1091 188.342 82.1091ZM197.15 82.0873C196.583 82.0873 196.026 82.0109 195.481 81.8582C194.943 81.6982 194.463 81.4655 194.041 81.16L194.532 80.08C194.925 80.3564 195.354 80.5673 195.819 80.7127C196.292 80.8582 196.743 80.9309 197.172 80.9309C197.528 80.9309 197.823 80.88 198.056 80.7782C198.296 80.6691 198.416 80.4691 198.416 80.1782C198.416 79.9091 198.306 79.7164 198.088 79.6C197.87 79.4836 197.481 79.3891 196.921 79.3164C196.056 79.2218 195.394 79.04 194.936 78.7709C194.485 78.4945 194.259 78.0436 194.259 77.4182C194.259 76.7636 194.51 76.2545 195.012 75.8909C195.521 75.5273 196.161 75.3455 196.932 75.3455C197.412 75.3455 197.896 75.4218 198.383 75.5745C198.87 75.7273 199.314 75.9382 199.714 76.2073L199.277 77.2436C198.906 77.0036 198.525 76.8218 198.132 76.6982C197.739 76.5673 197.354 76.5018 196.976 76.5018C196.663 76.5018 196.401 76.56 196.19 76.6764C195.986 76.7855 195.885 76.9745 195.885 77.2436C195.885 77.5127 196.005 77.7018 196.245 77.8109C196.492 77.92 196.921 78.0109 197.532 78.0836C198.376 78.1855 199.005 78.3927 199.419 78.7055C199.834 79.0109 200.041 79.4473 200.041 80.0145C200.041 80.6909 199.768 81.2073 199.223 81.5636C198.685 81.9127 197.994 82.0873 197.15 82.0873ZM205.882 82.1091C205.067 82.1091 204.434 81.9164 203.983 81.5309C203.54 81.1455 203.318 80.5782 203.318 79.8291V76.7091H201.627V75.4545H203.318V73.2727H204.954V75.4545H207.573V76.7091H204.954V79.6218C204.954 80.0364 205.053 80.3418 205.249 80.5382C205.445 80.7273 205.722 80.8218 206.078 80.8218C206.303 80.8218 206.533 80.8073 206.765 80.7782C206.998 80.7418 207.227 80.6836 207.453 80.6036L207.671 81.8473C207.474 81.92 207.22 81.9818 206.907 82.0327C206.602 82.0836 206.26 82.1091 205.882 82.1091ZM215.41 80.5055C215.17 81.0945 214.831 81.5091 214.395 81.7491C213.966 81.9891 213.304 82.1091 212.41 82.1091C211.522 82.1091 210.802 81.9018 210.25 81.4873C209.704 81.0655 209.431 80.44 209.431 79.6109V77.8655C209.431 77.0509 209.697 76.4291 210.228 76C210.766 75.5636 211.486 75.3455 212.388 75.3455C213.297 75.3455 214.013 75.5636 214.537 76C215.06 76.4364 215.322 77.0727 215.322 77.9091V79.0545H211.068V79.6873C211.068 80.1164 211.177 80.4364 211.395 80.6473C211.613 80.8582 211.959 80.9636 212.431 80.9636C212.846 80.9636 213.17 80.9018 213.402 80.7782C213.642 80.6545 213.839 80.4327 213.991 80.1127L215.41 80.5055ZM211.068 77.7564V78.0945H213.686V77.8545C213.686 77.3527 213.584 76.9964 213.38 76.7855C213.177 76.5673 212.842 76.4582 212.377 76.4582C211.911 76.4582 211.577 76.56 211.373 76.7636C211.17 76.9673 211.068 77.2982 211.068 77.7564ZM217.454 82V75.4545H219.09V76.6H219.417C219.577 76.1636 219.821 75.8473 220.148 75.6509C220.483 75.4473 220.879 75.3455 221.337 75.3455C221.861 75.3455 222.276 75.5091 222.581 75.8364C222.894 76.1564 223.05 76.6109 223.05 77.2V78.3018H221.545V77.7018C221.545 77.3673 221.468 77.1127 221.316 76.9382C221.17 76.7636 220.93 76.6764 220.596 76.6764C220.305 76.6764 220.028 76.7491 219.766 76.8945C219.512 77.0327 219.286 77.2618 219.09 77.5818V82H217.454Z" fill="#EE4B4B" />
      <path d="M225.313 84.2909L225.149 83.1127C226.182 82.8436 226.902 82.32 227.309 81.5418C227.723 80.7636 227.931 79.8255 227.931 78.7273C227.931 77.6582 227.723 76.72 227.309 75.9127C226.902 75.1055 226.182 74.5673 225.149 74.2982L225.313 73.1636C226.774 73.4327 227.847 74.0836 228.531 75.1164C229.222 76.1491 229.567 77.3527 229.567 78.7273C229.567 80.1309 229.222 81.3418 228.531 82.36C227.847 83.3782 226.774 84.0218 225.313 84.2909Z" fill="#398AE4" />
    </g>
    <g>
      <rect width="1" height="216" transform="translate(432 53)" fill="var(--vscode-panel-border, #454545)" />
    </g>
    <g>
      <g>
        <rect width="103" height="22" transform="translate(433 53)" fill="var(--vscode-list-inactiveSelectionBackground, #3A3D41)" />
        <g>
          <g>
            <path d="M450.027 57.0133L449.013 57.9733V69.9733L450.027 70.9867H462.027L462.987 69.9733V57.9733L462.027 57.0133H450.027ZM450.027 69.9733V57.9733H462.027V69.9733H450.027ZM453.76 67.3067L454.453 68.0533L457.973 64.5333V63.9467L454.453 60.4267L453.76 61.12L456.853 64.2667L453.76 67.3067Z" fill="var(--vscode-editor-foreground, #CCCCCC)" />
          </g>
          <g>
            <path d="M470.832 69H476.303V67.9019H472.545V67.7939L476.265 63.0522V62.1064H470.857V63.2046H474.634V63.3062L470.832 68.105V69ZM477.966 64.0361C477.966 65.0581 478.576 65.6421 479.89 65.9468L481.096 66.2324C481.788 66.3975 482.111 66.6768 482.111 67.1084C482.111 67.6733 481.508 68.0669 480.658 68.0669C479.833 68.0669 479.325 67.7305 479.153 67.1909H477.789C477.909 68.3906 478.982 69.1333 480.626 69.1333C482.276 69.1333 483.489 68.2637 483.489 66.9814C483.489 65.9785 482.873 65.4136 481.559 65.1089L480.41 64.8423C479.661 64.6646 479.312 64.3979 479.312 63.9727C479.312 63.4141 479.89 63.0396 480.651 63.0396C481.426 63.0396 481.921 63.376 482.048 63.8901H483.355C483.222 62.6968 482.207 61.9731 480.651 61.9731C479.09 61.9731 477.966 62.8364 477.966 64.0361ZM485.196 69H486.561V64.9629C486.561 63.8838 487.183 63.1665 488.3 63.1665C489.265 63.1665 489.779 63.7314 489.779 64.8677V69H491.144V64.5439C491.144 62.9126 490.236 61.9795 488.764 61.9795C487.723 61.9795 486.993 62.4365 486.656 63.2046H486.548V59.4023H485.196V69Z" fill="var(--vscode-editor-foreground, #CCCCCC)" />
          </g>
        </g>
      </g>
    </g>
    <g>
      <g>
        <g>
          <g>
            <path d="M450.027 79.0133L449.013 79.9733V91.9733L450.027 92.9867H462.027L462.987 91.9733V79.9733L462.027 79.0133H450.027ZM450.027 91.9733V79.9733H462.027V91.9733H450.027ZM453.76 89.3067L454.453 90.0533L457.973 86.5333V85.9467L454.453 82.4267L453.76 83.12L456.853 86.2667L453.76 89.3067Z" fill="var(--vscode-editor-foreground, #CCCCCC)" />
          </g>
          <g>
            <path d="M474.653 91.1143C476.398 91.1143 477.509 89.7241 477.509 87.5532C477.509 85.3633 476.405 83.9858 474.653 83.9858C473.707 83.9858 472.895 84.4492 472.526 85.1982H472.418V81.4023H471.054V91H472.368V89.9082H472.469C472.882 90.6699 473.688 91.1143 474.653 91.1143ZM474.259 85.1538C475.415 85.1538 476.106 86.0615 476.106 87.5532C476.106 89.0449 475.415 89.9463 474.259 89.9463C473.11 89.9463 472.399 89.0322 472.393 87.5532C472.399 86.0742 473.117 85.1538 474.259 85.1538ZM481.064 91.1143C481.972 91.1143 482.727 90.7207 483.14 90.0225H483.248V91H484.562V86.2837C484.562 84.8364 483.584 83.9731 481.851 83.9731C480.283 83.9731 479.166 84.7285 479.026 85.8901H480.347C480.499 85.3887 481.026 85.103 481.788 85.103C482.721 85.103 483.203 85.5283 483.203 86.2837V86.8867L481.331 87.001C479.687 87.1025 478.76 87.8198 478.76 89.0576C478.76 90.3145 479.731 91.1143 481.064 91.1143ZM481.413 90.0161C480.67 90.0161 480.131 89.6416 480.131 89.0005C480.131 88.3721 480.562 88.0356 481.515 87.9722L483.203 87.8579V88.4546C483.203 89.3433 482.441 90.0161 481.413 90.0161ZM486.345 86.0361C486.345 87.0581 486.955 87.6421 488.269 87.9468L489.475 88.2324C490.167 88.3975 490.49 88.6768 490.49 89.1084C490.49 89.6733 489.887 90.0669 489.037 90.0669C488.211 90.0669 487.704 89.7305 487.532 89.1909H486.167C486.288 90.3906 487.361 91.1333 489.005 91.1333C490.655 91.1333 491.868 90.2637 491.868 88.9814C491.868 87.9785 491.252 87.4136 489.938 87.1089L488.789 86.8423C488.04 86.6646 487.691 86.3979 487.691 85.9727C487.691 85.4141 488.269 85.0396 489.03 85.0396C489.805 85.0396 490.3 85.376 490.427 85.8901H491.734C491.601 84.6968 490.585 83.9731 489.03 83.9731C487.469 83.9731 486.345 84.8364 486.345 86.0361ZM493.575 91H494.94V86.9629C494.94 85.8838 495.562 85.1665 496.679 85.1665C497.644 85.1665 498.158 85.7314 498.158 86.8677V91H499.523V86.5439C499.523 84.9126 498.615 83.9795 497.143 83.9795C496.102 83.9795 495.372 84.4365 495.035 85.2046H494.927V81.4023H493.575V91Z" fill="var(--vscode-editor-foreground, #CCCCCC)" />
          </g>
        </g>
      </g>
    </g>
    <g>
      <g>
        <path d="M508.093 33L503.56 37.5333L504.467 38.44L509 33.9067L513.533 38.44L514.44 37.5333L509.907 33L514.44 28.4667L513.533 27.56L509 32.0933L504.467 27.56L503.56 28.4667L508.093 33Z" fill="var(--vscode-editor-foreground, #CCCCCC)" />
      </g>
    </g>
    <g>
      <g>
        <path d="M483 30.92L478.68 35.2933L478.04 34.6533L482.733 30.0133H483.32L488.013 34.6533L487.373 35.2933L483 30.92Z" fill="var(--vscode-editor-foreground, #CCCCCC)" />
      </g>
    </g>
    <g>
      <path d="M463.027 32.9867V34H457V39.9733H455.987V34H450.013V32.9867H455.987V27.0133H457V32.9867H463.027Z" fill="var(--vscode-editor-foreground, #CCCCCC)" />
    </g>
  </g>
  <defs>
    <filter id="filter0_d_1720_12308" x="0" y="0" width="583" height="287" filterUnits="userSpaceOnUse" color-interpolation-filters="sRGB">
      <feFlood flood-opacity="0" result="BackgroundImageFix" />
      <feColorMatrix in="SourceAlpha" type="matrix" values="0 0 0 0 0 0 0 0 0 0 0 0 0 0 0 0 0 0 127 0" result="hardAlpha" />
      <feOffset dy="2" />
      <feGaussianBlur stdDeviation="8" />
      <feColorMatrix type="matrix" values="0 0 0 0 0 0 0 0 0 0 0 0 0 0 0 0 0 0 0.36 0" />
      <feBlend mode="normal" in2="BackgroundImageFix" result="effect1_dropShadow_1720_12308" />
      <feBlend mode="normal" in="SourceGraphic" in2="effect1_dropShadow_1720_12308" result="shape" />
    </filter>
  </defs>
</svg>