<svg width="568" height="363" viewBox="0 0 568 363" fill="none" xmlns="http://www.w3.org/2000/svg">
<g filter="url(#filter0_d_3_232)">
<g clip-path="url(#clip0_3_232)">
<rect x="16" y="14" width="536" height="331" rx="2" fill="#1E1E1E"/>
<rect x="401" y="274" width="77" height="59" rx="2" stroke="#3C3C3C" stroke-width="2" stroke-linecap="round" stroke-dasharray="5 5"/>
<rect x="16" y="14" width="379" height="267" rx="2" stroke="#3C3C3C" stroke-width="2" stroke-linecap="round" stroke-dasharray="5 5"/>
<g filter="url(#filter1_d_3_232)">
<g clip-path="url(#clip1_3_232)">
<rect x="36" y="36" width="431" height="287" rx="4" fill="#1E1E1E"/>
<path d="M36 40C36 37.7909 37.7909 36 40 36H463C465.209 36 467 37.7909 467 40V56H36V40Z" fill="#303031"/>
<rect width="72" height="15" transform="translate(78 41)" fill="#3C3C3C"/>
<rect x="86.4062" y="46" width="55.3408" height="4.90362" rx="2.45181" fill="#303031"/>
<circle cx="65.4118" cy="46.4265" r="2.42647" fill="#40C8AE"/>
<circle cx="56.9198" cy="46.4265" r="2.42647" fill="#D7BA7D"/>
<circle cx="48.4265" cy="46.4269" r="2.42647" fill="#F14C4C"/>
<rect x="63" y="230" width="303" height="8" rx="4" fill="white" fill-opacity="0.16"/>
<rect x="63" y="245" width="212.281" height="8" rx="4" fill="white" fill-opacity="0.16"/>
<rect x="282.281" y="245" width="58.0599" height="8" rx="4" fill="#007ACC"/>
<rect x="63" y="285" width="99.7904" height="8" rx="4" fill="white" fill-opacity="0.16"/>
<rect x="63" y="300" width="50" height="8" rx="4" fill="white" fill-opacity="0.16"/>
<rect x="185" y="300" width="181" height="8" rx="4" fill="white" fill-opacity="0.16"/>
<rect x="120" y="300" width="58.0599" height="8" rx="4" fill="#007ACC"/>
<rect x="63" y="145" width="160" height="8" rx="4" fill="white" fill-opacity="0.16"/>
<rect x="295" y="145" width="71" height="8" rx="4" fill="white" fill-opacity="0.16"/>
<rect x="230" y="145" width="58.0599" height="8" rx="4" fill="#007ACC"/>
<rect x="63" y="175" width="281.228" height="8" rx="4" fill="white" fill-opacity="0.16"/>
<rect x="63" y="190" width="100" height="8" rx="4" fill="#6C6CC4"/>
<rect x="63" y="160" width="303" height="8" rx="4" fill="white" fill-opacity="0.16"/>
<g filter="url(#filter2_d_3_232)">
<mask id="mask0_3_232" style="mask-type:alpha" maskUnits="userSpaceOnUse" x="64" y="73" width="14" height="14">
<path fill-rule="evenodd" clip-rule="evenodd" d="M73.9277 86.9044C74.1482 86.9903 74.3996 86.9848 74.6221 86.8777L77.5045 85.4908C77.8074 85.345 78 85.0385 78 84.7022V75.2979C78 74.9616 77.8074 74.6551 77.5045 74.5093L74.6221 73.1223C74.3301 72.9818 73.9882 73.0162 73.7319 73.2026C73.6953 73.2292 73.6604 73.2589 73.6277 73.2917L68.1097 78.3258L65.7062 76.5013C65.4825 76.3315 65.1695 76.3454 64.9617 76.5345L64.1908 77.2357C63.9366 77.4669 63.9364 77.8668 64.1902 78.0984L66.2746 80L64.1902 81.9017C63.9364 82.1332 63.9366 82.5331 64.1908 82.7643L64.9617 83.4656C65.1695 83.6546 65.4825 83.6685 65.7062 83.4987L68.1097 81.6742L73.6277 86.7083C73.7149 86.7957 73.8174 86.8615 73.9277 86.9044ZM74.5021 76.8219L70.3153 80L74.5021 83.1782V76.8219Z" fill="white"/>
</mask>
<g mask="url(#mask0_3_232)">
<path d="M77.5046 74.5115L74.62 73.1226C74.2861 72.9618 73.8871 73.0296 73.625 73.2917L64.1818 81.9016C63.9278 82.1332 63.9281 82.5331 64.1825 82.7643L64.9538 83.4656C65.1617 83.6546 65.4749 83.6685 65.6988 83.4987L77.0706 74.8718C77.4521 74.5824 78 74.8545 78 75.3333V75.2999C78 74.9637 77.8075 74.6573 77.5046 74.5115Z" fill="#0065A9"/>
<g filter="url(#filter3_d_3_232)">
<path d="M77.5046 85.4885L74.62 86.8774C74.2861 87.0382 73.8871 86.9704 73.625 86.7084L64.1818 78.0984C63.9278 77.8668 63.9281 77.4669 64.1825 77.2357L64.9538 76.5345C65.1617 76.3454 65.4749 76.3315 65.6988 76.5014L77.0706 85.1282C77.4521 85.4177 78 85.1455 78 84.6667V84.7002C78 85.0363 77.8075 85.3427 77.5046 85.4885Z" fill="#007ACC"/>
</g>
<g filter="url(#filter4_d_3_232)">
<path d="M74.6201 86.8777C74.2861 87.0383 73.8871 86.9704 73.625 86.7083C73.9479 87.0312 74.5 86.8026 74.5 86.3459V73.6541C74.5 73.1975 73.9479 72.9688 73.625 73.2917C73.8871 73.0296 74.2861 72.9617 74.6201 73.1223L77.5042 74.5093C77.8073 74.6551 78 74.9616 78 75.2979V84.7022C78 85.0385 77.8073 85.345 77.5042 85.4908L74.6201 86.8777Z" fill="#1F9CF0"/>
</g>
<g style="mix-blend-mode:overlay" opacity="0.25">
<path fill-rule="evenodd" clip-rule="evenodd" d="M73.9192 86.9044C74.1397 86.9903 74.3911 86.9848 74.6137 86.8777L77.496 85.4908C77.7989 85.345 77.9915 85.0385 77.9915 84.7022V75.2979C77.9915 74.9616 77.7989 74.6551 77.496 74.5093L74.6137 73.1223C74.3216 72.9818 73.9798 73.0162 73.7234 73.2026C73.6868 73.2292 73.6519 73.2589 73.6192 73.2917L68.1012 78.3258L65.6977 76.5013C65.474 76.3315 65.161 76.3454 64.9532 76.5345L64.1823 77.2357C63.9282 77.4669 63.9279 77.8668 64.1817 78.0984L66.2661 80L64.1817 81.9017C63.9279 82.1332 63.9282 82.5331 64.1823 82.7643L64.9532 83.4656C65.161 83.6546 65.474 83.6685 65.6977 83.4987L68.1012 81.6742L73.6192 86.7083C73.7065 86.7957 73.809 86.8615 73.9192 86.9044ZM74.4936 76.8219L70.3068 80L74.4936 83.1782V76.8219Z" fill="url(#paint0_linear_3_232)"/>
</g>
</g>
</g>
<path d="M65.2598 100.681V119H68.5352V112.944H72.5088C76.2158 112.944 78.8057 110.469 78.8057 106.851C78.8057 103.169 76.3047 100.681 72.6484 100.681H65.2598ZM68.5352 103.359H71.7852C74.1465 103.359 75.4795 104.578 75.4795 106.851C75.4795 109.06 74.1084 110.304 71.7725 110.304H68.5352V103.359ZM83.9727 124.027C87.083 124.027 88.5684 122.897 89.749 119.482L94.7637 105.124H91.4375L88.2002 116.017H87.9844L84.7344 105.124H81.2812L86.2451 119.051L86.0801 119.698C85.6738 121.006 84.9248 121.514 83.5918 121.514C83.376 121.514 82.9062 121.501 82.7285 121.476V123.977C82.9316 124.015 83.7822 124.027 83.9727 124.027ZM98.4834 101.722V105.213H96.2871V107.663H98.4834V115.318C98.4834 117.997 99.7529 119.063 102.939 119.063C103.549 119.063 104.133 119.013 104.59 118.924V116.512C104.209 116.55 103.968 116.575 103.523 116.575C102.203 116.575 101.619 115.953 101.619 114.569V107.663H104.59V105.213H101.619V101.722H98.4834ZM107.865 119H111.014V110.938C111.014 108.907 112.169 107.549 114.238 107.549C116.066 107.549 117.031 108.641 117.031 110.786V119H120.18V110.05C120.18 106.749 118.377 104.87 115.406 104.87C113.337 104.87 111.852 105.81 111.191 107.371H110.963V99.7539H107.865V119ZM129.904 119.279C134.056 119.279 136.582 116.562 136.582 112.056C136.582 107.574 134.043 104.857 129.904 104.857C125.778 104.857 123.227 107.587 123.227 112.056C123.227 116.562 125.74 119.279 129.904 119.279ZM129.904 116.702C127.708 116.702 126.451 115.001 126.451 112.068C126.451 109.136 127.708 107.435 129.904 107.435C132.088 107.435 133.345 109.136 133.345 112.068C133.345 115.001 132.101 116.702 129.904 116.702ZM139.756 119H142.904V110.913C142.904 108.831 144.085 107.523 145.964 107.523C147.881 107.523 148.77 108.603 148.77 110.761V119H151.918V110.024C151.918 106.724 150.229 104.857 147.132 104.857C145.062 104.857 143.666 105.797 143.006 107.346H142.79V105.124H139.756V119ZM164.182 102.801C165.223 102.801 166.073 101.976 166.073 100.935C166.073 99.9062 165.223 99.0684 164.182 99.0684C163.153 99.0684 162.303 99.9062 162.303 100.935C162.303 101.976 163.153 102.801 164.182 102.801ZM162.62 119H165.756V105.124H162.62V119ZM169.666 119H172.814V110.913C172.814 108.831 173.995 107.523 175.874 107.523C177.791 107.523 178.68 108.603 178.68 110.761V119H181.828V110.024C181.828 106.724 180.14 104.857 177.042 104.857C174.973 104.857 173.576 105.797 172.916 107.346H172.7V105.124H169.666V119ZM201.633 119L207.968 100.681H204.477L199.906 115.255H199.69L195.082 100.681H191.464L197.862 119H201.633ZM210.113 114.036C210.278 117.35 213.059 119.457 217.261 119.457C221.704 119.457 224.459 117.248 224.459 113.693C224.459 110.913 222.897 109.364 219.178 108.514L217.07 108.031C214.798 107.498 213.871 106.774 213.871 105.518C213.871 103.931 215.268 102.89 217.375 102.89C219.381 102.89 220.803 103.918 221.031 105.556H224.167C224.015 102.42 221.234 100.224 217.388 100.224C213.287 100.224 210.57 102.433 210.57 105.733C210.57 108.45 212.132 110.088 215.458 110.85L217.832 111.396C220.181 111.941 221.184 112.754 221.184 114.087C221.184 115.648 219.622 116.778 217.464 116.778C215.141 116.778 213.516 115.712 213.312 114.036H210.113ZM242.715 119.457C246.942 119.457 250.04 116.956 250.472 113.249H247.247C246.803 115.306 245.038 116.613 242.715 116.613C239.592 116.613 237.649 114.011 237.649 109.834C237.649 105.67 239.592 103.067 242.702 103.067C245.013 103.067 246.777 104.502 247.234 106.711H250.459C250.078 102.915 246.866 100.224 242.702 100.224C237.51 100.224 234.298 103.893 234.298 109.847C234.298 115.775 237.522 119.457 242.715 119.457ZM259.777 119.279C263.929 119.279 266.455 116.562 266.455 112.056C266.455 107.574 263.916 104.857 259.777 104.857C255.651 104.857 253.1 107.587 253.1 112.056C253.1 116.562 255.613 119.279 259.777 119.279ZM259.777 116.702C257.581 116.702 256.324 115.001 256.324 112.068C256.324 109.136 257.581 107.435 259.777 107.435C261.961 107.435 263.218 109.136 263.218 112.068C263.218 115.001 261.974 116.702 259.777 116.702ZM274.656 119.229C276.586 119.229 278.186 118.327 278.973 116.804H279.188V119H282.235V99.7539H279.087V107.333H278.871C278.135 105.81 276.561 104.896 274.656 104.896C271.152 104.896 268.943 107.663 268.943 112.056C268.943 116.461 271.14 119.229 274.656 119.229ZM275.634 107.523C277.792 107.523 279.125 109.263 279.125 112.068C279.125 114.887 277.805 116.613 275.634 116.613C273.476 116.613 272.168 114.912 272.168 112.068C272.168 109.237 273.488 107.523 275.634 107.523ZM295.261 115.204C294.804 116.245 293.725 116.829 292.163 116.829C290.094 116.829 288.761 115.356 288.685 113.008V112.843H298.384V111.84C298.384 107.485 296.01 104.857 292.049 104.857C288.024 104.857 285.523 107.663 285.523 112.119C285.523 116.562 287.986 119.279 292.074 119.279C295.35 119.279 297.673 117.705 298.244 115.204H295.261ZM292.036 107.308C293.928 107.308 295.172 108.641 295.235 110.748H288.697C288.837 108.666 290.157 107.308 292.036 107.308Z" fill="white"/>
</g>
</g>
<rect x="437" y="248" width="65" height="43" fill="#1E1E1E"/>
<path d="M434.067 245.79L436.467 243.123H501.533L503.933 245.79V290.59L501.533 293.256H436.467L434.067 290.59V245.79ZM439.133 250.856V288.19H499.133V250.856L470.6 272.723H467.4L439.133 250.856ZM494.067 248.19H443.933L469 267.656L494.067 248.19Z" fill="#CCCCCC"/>
<path d="M544.238 172.867H479.172L476.772 175.533V220.6L479.172 223H491.705V235.533L495.972 237.4L510.372 223H544.238L546.638 220.6V175.533L544.238 172.867ZM541.838 217.933H509.305L507.438 218.733L496.772 229.4V220.6L494.105 217.933H481.838V177.933H541.838V217.933Z" fill="#CCCCCC"/>
</g>
</g>
<defs>
<filter id="filter0_d_3_232" x="0" y="0" width="568" height="363" filterUnits="userSpaceOnUse" color-interpolation-filters="sRGB">
<feFlood flood-opacity="0" result="BackgroundImageFix"/>
<feColorMatrix in="SourceAlpha" type="matrix" values="0 0 0 0 0 0 0 0 0 0 0 0 0 0 0 0 0 0 127 0" result="hardAlpha"/>
<feOffset dy="2"/>
<feGaussianBlur stdDeviation="8"/>
<feColorMatrix type="matrix" values="0 0 0 0 0 0 0 0 0 0 0 0 0 0 0 0 0 0 0.36 0"/>
<feBlend mode="normal" in2="BackgroundImageFix" result="effect1_dropShadow_3_232"/>
<feBlend mode="normal" in="SourceGraphic" in2="effect1_dropShadow_3_232" result="shape"/>
</filter>
<filter id="filter1_d_3_232" x="24" y="26" width="455" height="311" filterUnits="userSpaceOnUse" color-interpolation-filters="sRGB">
<feFlood flood-opacity="0" result="BackgroundImageFix"/>
<feColorMatrix in="SourceAlpha" type="matrix" values="0 0 0 0 0 0 0 0 0 0 0 0 0 0 0 0 0 0 127 0" result="hardAlpha"/>
<feOffset dy="2"/>
<feGaussianBlur stdDeviation="6"/>
<feColorMatrix type="matrix" values="0 0 0 0 0 0 0 0 0 0 0 0 0 0 0 0 0 0 0.6 0"/>
<feBlend mode="normal" in2="BackgroundImageFix" result="effect1_dropShadow_3_232"/>
<feBlend mode="normal" in="SourceGraphic" in2="effect1_dropShadow_3_232" result="shape"/>
</filter>
<filter id="filter2_d_3_232" x="62.1284" y="71.7523" width="17.7432" height="17.7432" filterUnits="userSpaceOnUse" color-interpolation-filters="sRGB">
<feFlood flood-opacity="0" result="BackgroundImageFix"/>
<feColorMatrix in="SourceAlpha" type="matrix" values="0 0 0 0 0 0 0 0 0 0 0 0 0 0 0 0 0 0 127 0" result="hardAlpha"/>
<feOffset dy="0.623874"/>
<feGaussianBlur stdDeviation="0.935811"/>
<feColorMatrix type="matrix" values="0 0 0 0 0 0 0 0 0 0 0 0 0 0 0 0 0 0 0.25 0"/>
<feBlend mode="normal" in2="BackgroundImageFix" result="effect1_dropShadow_3_232"/>
<feBlend mode="normal" in="SourceGraphic" in2="effect1_dropShadow_3_232" result="shape"/>
</filter>
<filter id="filter3_d_3_232" x="59.6244" y="72.0156" width="22.7427" height="19.3153" filterUnits="userSpaceOnUse" color-interpolation-filters="sRGB">
<feFlood flood-opacity="0" result="BackgroundImageFix"/>
<feColorMatrix in="SourceAlpha" type="matrix" values="0 0 0 0 0 0 0 0 0 0 0 0 0 0 0 0 0 0 127 0" result="hardAlpha"/>
<feOffset/>
<feGaussianBlur stdDeviation="2.18356"/>
<feColorMatrix type="matrix" values="0 0 0 0 0 0 0 0 0 0 0 0 0 0 0 0 0 0 0.25 0"/>
<feBlend mode="overlay" in2="BackgroundImageFix" result="effect1_dropShadow_3_232"/>
<feBlend mode="normal" in="SourceGraphic" in2="effect1_dropShadow_3_232" result="shape"/>
</filter>
<filter id="filter4_d_3_232" x="69.2579" y="68.669" width="13.1092" height="22.6621" filterUnits="userSpaceOnUse" color-interpolation-filters="sRGB">
<feFlood flood-opacity="0" result="BackgroundImageFix"/>
<feColorMatrix in="SourceAlpha" type="matrix" values="0 0 0 0 0 0 0 0 0 0 0 0 0 0 0 0 0 0 127 0" result="hardAlpha"/>
<feOffset/>
<feGaussianBlur stdDeviation="2.18356"/>
<feColorMatrix type="matrix" values="0 0 0 0 0 0 0 0 0 0 0 0 0 0 0 0 0 0 0.25 0"/>
<feBlend mode="overlay" in2="BackgroundImageFix" result="effect1_dropShadow_3_232"/>
<feBlend mode="normal" in="SourceGraphic" in2="effect1_dropShadow_3_232" result="shape"/>
</filter>
<linearGradient id="paint0_linear_3_232" x1="70.9915" y1="73.0361" x2="70.9915" y2="86.9639" gradientUnits="userSpaceOnUse">
<stop stop-color="white"/>
<stop offset="1" stop-color="white" stop-opacity="0"/>
</linearGradient>
<clipPath id="clip0_3_232">
<rect x="16" y="14" width="536" height="331" rx="2" fill="white"/>
</clipPath>
<clipPath id="clip1_3_232">
<rect x="36" y="36" width="431" height="287" rx="4" fill="white"/>
</clipPath>
</defs>
</svg>
