<svg width="16" height="16" viewBox="0 0 16 16" fill="none" xmlns="http://www.w3.org/2000/svg">
<path fill-rule="evenodd" clip-rule="evenodd" d="M14.5 1H6.5L6 1.5V2H7H8H14V8V9V10H14.5L15 9.5V1.5L14.5 1ZM8 3H7H6H5H4.5L4 3.5V4H5H7H12V10V11V12H12.5L13 11.5V11V10V9V8V3.5L12.5 3H8ZM11 13.5V12V11V10V5.5L10.5 5H7H5H4H2.5L2 5.5V13.5L2.5 14H10.5L11 13.5ZM5.7445 9.32581L4.17419 7.7555L4.92969 7L6.5 8.57031L8.07031 7L8.82581 7.7555L7.2555 9.32581L8.99994 11.0703L8.24444 11.8258L6.5 10.0813L4.75556 11.8258L4.00006 11.0703L5.7445 9.32581Z" fill="white"/>
</svg>
