<svg width="16" height="16" viewBox="0 0 16 16" fill="none" xmlns="http://www.w3.org/2000/svg">
<path fill-rule="evenodd" clip-rule="evenodd" d="M2.0206 12.5129L3.60008 10.1436L3.48726 9.80516L0.666748 9.12823V6.87182L3.48726 6.30772L3.60008 5.96926L2.0206 3.60002L3.60008 2.02053L5.96932 3.60002L6.30778 3.4872L6.87188 0.666687H9.12829L9.6924 3.4872L10.0309 3.60002L12.4001 2.02053L13.9796 3.60002L12.4001 5.96926L12.5129 6.30772L15.3334 6.87182V9.12823L12.5129 9.69234L12.4001 10.0308L13.9796 12.4L12.4001 13.9795L10.0309 12.4L9.6924 12.6257L9.12829 15.4462H6.87188L6.30778 12.6257L5.96932 12.5129L3.60008 14.0923L2.0206 12.5129ZM8.00008 10.6667C9.47284 10.6667 10.6667 9.47278 10.6667 8.00002C10.6667 6.52726 9.47284 5.33335 8.00008 5.33335C6.52732 5.33335 5.33342 6.52726 5.33342 8.00002C5.33342 9.47278 6.52732 10.6667 8.00008 10.6667Z" fill="white"/>
</svg>
