<svg width="16" height="16" viewBox="0 0 16 16" fill="none" xmlns="http://www.w3.org/2000/svg">
<path fill-rule="evenodd" clip-rule="evenodd" d="M12.2383 3.75307C11.2561 2.77279 9.96435 2.16331 8.58318 2.02842C7.20177 1.89351 5.8163 2.24171 4.66282 3.0137C3.50933 3.7857 2.65917 4.93373 2.25717 6.26222C1.85517 7.59072 1.92619 9.0175 2.45814 10.2995C2.99008 11.5815 3.95005 12.6394 5.1745 13.2931C6.39895 13.9467 7.81215 14.1556 9.17333 13.8841C10.5345 13.6127 11.7595 12.8778 12.6396 11.8045C13.5196 10.7313 14.0004 9.38617 14 7.99829C13.9978 6.40584 13.3643 4.87923 12.2383 3.75307ZM12.9453 3.04585C11.7993 1.90184 10.292 1.19055 8.68038 1.03316C7.06873 0.875761 5.45236 1.28199 4.10662 2.18265C2.76089 3.08331 1.76903 4.42268 1.30003 5.97259C0.831027 7.52251 0.913887 9.18708 1.53449 10.6828C2.1551 12.1784 3.27506 13.4127 4.70359 14.1752C6.13211 14.9378 7.78084 15.1815 9.36889 14.8648C10.9569 14.5482 12.3861 13.6907 13.4129 12.4385C14.4396 11.1864 15.0005 9.61695 15 7.99764C14.9976 6.14013 14.2587 4.35938 12.9453 3.04585Z" fill="white"/>
<rect x="7.46143" y="6.38461" width="1.07692" height="5.38462" fill="white"/>
<path d="M7.46143 5.30768H8.53835V4.23076H7.46143V5.30768Z" fill="white"/>
</svg>
