<svg width="16" height="16" viewBox="0 0 16 16" fill="none" xmlns="http://www.w3.org/2000/svg">
<path d="M15.68 8.18184C15.68 7.61456 15.6291 7.06912 15.5346 6.54544H8V9.64H12.3054C12.12 10.64 11.5564 11.4873 10.7091 12.0546V14.0618H13.2946C14.8073 12.6691 15.68 10.6182 15.68 8.18184Z" fill="#4285F4"/>
<path d="M7.99995 16C10.16 16 11.9708 15.2836 13.2944 14.0618L10.709 12.0545C9.99267 12.5345 9.07627 12.8181 7.99995 12.8181C5.91627 12.8181 4.15267 11.4109 3.52355 9.51999H0.85083V11.5927C2.16723 14.2073 4.87267 16 7.99995 16Z" fill="#34A853"/>
<path d="M3.5236 9.52001C3.3636 9.04001 3.27272 8.52729 3.27272 8.00001C3.27272 7.47273 3.3636 6.96001 3.5236 6.48001V4.40729H0.85088C0.30912 5.48729 0 6.70913 0 8.00001C0 9.29089 0.30912 10.5127 0.85088 11.5927L3.5236 9.52001Z" fill="#FBBC04"/>
<path d="M7.99995 3.18184C9.17443 3.18184 10.229 3.58544 11.0581 4.37816L13.3527 2.0836C11.9672 0.79272 10.1563 0 7.99995 0C4.87267 0 2.16723 1.79272 0.85083 4.40728L3.52355 6.48C4.15267 4.58912 5.91627 3.18184 7.99995 3.18184Z" fill="#E94235"/>
</svg>
