<svg xmlns="http://www.w3.org/2000/svg" viewBox="0 0 16 16"><defs><style>.icon-canvas-transparent,.icon-vs-out{fill:#f6f6f6;}.icon-canvas-transparent{opacity:0;}.icon-vs-bg{fill:#424242;}.icon-vs-action-blue{fill:#00539c;}</style></defs><title>PreviewInRightPanel_16x</title><g id="canvas"><path class="icon-canvas-transparent" d="M16,0V16H0V0Z"/></g><g id="outline" style="display: none;"><path class="icon-vs-out" d="M16,1V15H10.121l-.56.561a1.5,1.5,0,0,1-2.122,0A1.469,1.469,0,0,1,7.1,15H0V1Z" style="display: none;"/></g><g id="iconBg"><path class="icon-vs-bg" d="M1,2V14H7.1a1.469,1.469,0,0,1,.341-.561L9,11.88V5h5V7.351a3.515,3.515,0,0,1,1,.707V2ZM7,13H2V5H7Z"/></g><g id="colorAction"><path class="icon-vs-action-blue" d="M12.5,8a2.5,2.5,0,0,0-2.084,3.877l-2.27,2.269a.5.5,0,0,0,.708.708l2.269-2.27A2.5,2.5,0,1,0,12.5,8Zm0,4A1.5,1.5,0,1,1,14,10.5,1.5,1.5,0,0,1,12.5,12Z"/></g></svg>