<svg width="16" height="16" viewBox="0 0 16 16" fill="none" xmlns="http://www.w3.org/2000/svg">
<path fill-rule="evenodd" clip-rule="evenodd" d="M11.219 8.35484C11.6063 8.12309 12.049 8.00047 12.5003 8C12.8904 7.99939 13.2753 8.0901 13.6241 8.26486C13.9729 8.43963 14.276 8.6936 14.5091 9.00646C14.7421 9.31933 14.8987 9.6824 14.9664 10.0666C15.034 10.4509 15.0108 10.8456 14.8985 11.2192C14.7863 11.5929 14.5882 11.9351 14.32 12.2184C14.0518 12.5018 13.7211 12.7185 13.3542 12.8511C12.9873 12.9837 12.5944 13.0287 12.207 12.9823C11.8197 12.9359 11.4485 12.7995 11.1233 12.584L8.7683 14.9399L8.06055 14.2322L10.4163 11.877C10.1677 11.5003 10.0258 11.0634 10.0054 10.6126C9.98511 10.1618 10.0872 9.71384 10.3009 9.31634C10.5145 8.91885 10.8318 8.58659 11.219 8.35484ZM11.667 11.7472C11.9136 11.912 12.2036 12 12.5003 12C12.8981 12 13.2797 11.842 13.561 11.5607C13.8423 11.2794 14.0003 10.8978 14.0003 10.5C14.0003 10.2033 13.9123 9.91332 13.7475 9.66665C13.5827 9.41997 13.3484 9.22772 13.0743 9.11418C12.8002 9.00065 12.4986 8.97095 12.2077 9.02883C11.9167 9.0867 11.6494 9.22956 11.4396 9.43934C11.2299 9.64912 11.087 9.9164 11.0291 10.2074C10.9712 10.4983 11.001 10.7999 11.1145 11.074C11.228 11.3481 11.4203 11.5824 11.667 11.7472Z" fill="#C5C5C5"/>
<path fill-rule="evenodd" clip-rule="evenodd" d="M9 1H15V8.04596C14.7308 7.77219 14.4175 7.54378 14.0723 7.37081C14.0483 7.35879 14.0242 7.34706 14 7.33561V2H9V11.8792L8 12.8789V2H3V13H7.87887L6.87861 14H2V13V4V3V1H8H9ZM9.70818 14H8.29417L9.29388 13H10.7079L9.70818 14ZM15 10.6493C14.9885 10.8419 14.9547 11.0332 14.8988 11.2192C14.7865 11.5929 14.5884 11.9351 14.3202 12.2184C14.2215 12.3227 14.1143 12.418 14 12.5033V10.5405C14.0004 10.527 14.0005 10.5135 14.0005 10.5C14.0005 10.4865 14.0004 10.473 14 10.4595V8.49666C14.1929 8.64065 14.3646 8.8122 14.5093 9.00646C14.7424 9.31933 14.899 9.6824 14.9666 10.0666C14.9832 10.1608 14.9943 10.2557 15 10.3507V10.6493Z" fill="#C5C5C5"/>
</svg>
