<svg xmlns="http://www.w3.org/2000/svg" viewBox="0 0 16 16"><defs><style>.icon-canvas-transparent,.icon-vs-out{fill:#252526;}.icon-canvas-transparent{opacity:0;}.icon-vs-bg{fill:#c5c5c5;}.icon-vs-action-blue{fill:#75beff;}</style></defs><title>SwitchToPreview_16x</title><g id="canvas"><path class="icon-canvas-transparent" d="M16,0V16H0V0Z"/></g><g id="outline" style="display: none;"><path class="icon-vs-out" d="M16,4V16H5V9.121l-1.939,1.94A1.5,1.5,0,0,1,.939,8.939L3.446,6.433A4.4,4.4,0,0,1,3,4.5,4.488,4.488,0,0,1,11.949,4Z" style="display: none;"/></g><g id="iconBg"><path class="icon-vs-bg" d="M12,10h1v3H12Zm0-3h-.762a4.5,4.5,0,0,1-.944,1H12Zm-2,6h1V11H10Zm2-8h-.051a4.485,4.485,0,0,1-.225,1H14v8H7V8.972a4.4,4.4,0,0,1-1-.237V15h9V5ZM9,12H8v1H9Zm1-3H8v1h2Z"/></g><g id="colorAction"><path class="icon-vs-action-blue" d="M7.5,1A3.5,3.5,0,0,0,4,4.5a3.463,3.463,0,0,0,.707,2.086L1.646,9.646a.5.5,0,0,0,.708.708l3.06-3.061A3.463,3.463,0,0,0,7.5,8a3.5,3.5,0,0,0,0-7Zm0,6A2.5,2.5,0,1,1,10,4.5,2.5,2.5,0,0,1,7.5,7Z"/></g></svg>