<svg width="16" height="16" viewBox="0 0 16 16" fill="none" xmlns="http://www.w3.org/2000/svg">
<path fill-rule="evenodd" clip-rule="evenodd" d="M11.219 8.35484C11.6063 8.12309 12.049 8.00047 12.5003 8C12.8904 7.99939 13.2753 8.0901 13.6241 8.26486C13.9729 8.43963 14.276 8.6936 14.5091 9.00646C14.7421 9.31933 14.8987 9.6824 14.9664 10.0666C15.034 10.4509 15.0108 10.8456 14.8985 11.2192C14.7863 11.5929 14.5882 11.9351 14.32 12.2184C14.0518 12.5018 13.7211 12.7185 13.3542 12.8511C12.9873 12.9837 12.5944 13.0287 12.207 12.9823C11.8197 12.9359 11.4485 12.7995 11.1233 12.584L8.7683 14.9399L8.06055 14.2322L10.4163 11.877C10.1677 11.5003 10.0258 11.0634 10.0054 10.6126C9.98511 10.1618 10.0872 9.71384 10.3009 9.31634C10.5145 8.91885 10.8318 8.58659 11.219 8.35484ZM11.667 11.7472C11.9136 11.912 12.2036 12 12.5003 12C12.8981 12 13.2797 11.842 13.561 11.5607C13.8423 11.2794 14.0003 10.8978 14.0003 10.5C14.0003 10.2033 13.9123 9.91332 13.7475 9.66665C13.5827 9.41997 13.3484 9.22772 13.0743 9.11418C12.8002 9.00065 12.4986 8.97095 12.2077 9.02883C11.9167 9.0867 11.6494 9.22956 11.4396 9.43934C11.2299 9.64912 11.087 9.9164 11.0291 10.2074C10.9712 10.4983 11.001 10.7999 11.1145 11.074C11.228 11.3481 11.4203 11.5824 11.667 11.7472Z" fill="#424242"/>
<path fill-rule="evenodd" clip-rule="evenodd" d="M13 1L14 2V7.33573C13.6829 7.18584 13.3457 7.08481 13 7.03533V2L8 2L8 12.8787L6.87837 14H2L1 13V2L2 1H13ZM9.70794 14H9.70785L10 13.7077V13.7079L9.70794 14ZM13 10.5174C13.0002 10.5116 13.0003 10.5058 13.0003 10.5C13.0003 10.4942 13.0002 10.4884 13 10.4826V10.5174ZM2 2L7 2L7 13H2L2 2Z" fill="#424242"/>
</svg>
