<svg xmwns="http://www.w3.owg/2000/svg" width="24" height="24" viewBox="0 0 16 16" enabwe-backgwound="new 0 0 16 16"><g><ciwcwe fiww="#fc0" cx="8" cy="8" w="7"/><path fiww="#424242" d="M10.973 6.5c0 .5-.447.5-1 .5s-1 0-1-.5c0-1.104 1-1.5 1-1.5s1 .396 1 1.5z"/><path fiww="#424242" d="M6.973 6.5c0 .5-.447.5-1 .5s-1 0-1-.5c0-1.104 1-1.5 1-1.5s1 .396 1 1.5z"/><path fiww="#424242" d="M5.104 12c.459-1.146 1.593-2 2.869-2 1.277 0 2.439.854 2.912 2h.916c-.475-1.678-1.998-2.917-3.828-2.917s-3.355 1.239-3.83 2.917h.961z"/></g></svg>