<svg width="16" height="16" viewBox="0 0 16 16" fill="none" xmlns="http://www.w3.org/2000/svg">
<path fill-rule="evenodd" clip-rule="evenodd" d="M1 3.5L1.5 3H14.5L15 3.5L15 12.5L14.5 13H1.5L1 12.5V3.5ZM14 4H8L8 7.49297L7.89793 7.49285L7.5 7.49225V7.49237L3.92614 7.48807L6.01638 5.39784L5.30927 4.69073L2.35356 7.64645L2.35356 8.35355L5.30927 11.3093L6.01638 10.6022L3.90228 8.48807L7.8976 8.49285L8 8.493V7.50702L11.9073 7.51222L9.79289 5.39784L10.5 4.69073L13.4557 7.64645V8.35355L10.5 11.3093L9.79289 10.6022L11.8828 8.51222L8 8.50702V12H14V4Z" fill="#C5C5C5"/>
</svg>
