<svg width="16" height="16" viewBox="0 0 16 16" fill="none" xmlns="http://www.w3.org/2000/svg">
<path fill-rule="evenodd" clip-rule="evenodd" d="M3.35356 6.64642L2.06066 5.35353L5.35356 2.06065L6.64645 3.35354L3.35356 6.64642ZM5 1L1 4.99998V5.70708L3 7.70707H3.70711L4.85355 6.56063V12.3535L5.35355 12.8535H10.0097V13.3741L11.343 14.7074H12.0501L14.7168 12.0407V11.3336L13.3835 10.0003H12.6763L10.8231 11.8535H5.85355V7.89355H10.0097V8.37401L11.343 9.70734H12.0501L14.7168 7.04068V6.33357L13.3835 5.00024H12.6763L10.863 6.81356H5.85355V5.56064L7.70711 3.70709V2.99999L5.70711 1H5ZM11.0703 8.02046L11.6966 8.64668L13.6561 6.68713L13.0299 6.0609L11.0703 8.02046ZM11.0703 13.0205L11.6966 13.6467L13.6561 11.6872L13.0299 11.061L11.0703 13.0205Z" fill="#D67E00"/>
</svg>
