<svg width="16" height="16" viewBox="0 0 16 16" fill="none" xmlns="http://www.w3.org/2000/svg">
<path fill-rule="evenodd" clip-rule="evenodd" d="M11.0703 8.02046L11.6966 8.64668L13.6561 6.68713L13.0299 6.0609L11.0703 8.02046ZM10.0097 7.6669L12.6763 5.00024H13.3835L14.7168 6.33357V7.04068L12.0501 9.70734H11.343L10.0097 8.37401V7.6669Z" fill="#D67E00"/>
<path fill-rule="evenodd" clip-rule="evenodd" d="M11.0703 13.0205L11.6966 13.6467L13.6561 11.6872L13.0299 11.061L11.0703 13.0205ZM10.0097 12.667L12.6763 10.0003H13.3835L14.7168 11.3336V12.0407L12.0501 14.7074H11.343L10.0097 13.3741V12.667Z" fill="#D67E00"/>
<path fill-rule="evenodd" clip-rule="evenodd" d="M4.85355 12.3535V5.35358H5.85355V11.8535H11.0235V12.8535H5.35355L4.85355 12.3535Z" fill="#D67E00"/>
<path fill-rule="evenodd" clip-rule="evenodd" d="M11.0227 7.89353H5.35331V6.81354H11.0227V7.89353Z" fill="#D67E00"/>
<path fill-rule="evenodd" clip-rule="evenodd" d="M2.06066 5.35353L3.35356 6.64642L6.64645 3.35354L5.35356 2.06065L2.06066 5.35353ZM1 4.99998L5 1H5.70711L7.70711 2.99999V3.70709L3.70711 7.70707H3L1 5.70708V4.99998Z" fill="#D67E00"/>
</svg>
