<svg width="16" height="16" viewBox="0 0 16 16" fill="none" xmlns="http://www.w3.org/2000/svg">
<path fill-rule="evenodd" clip-rule="evenodd" d="M6.6 11.7673C7.32871 11.0383 7.32871 9.85638 6.6 9.12742C5.87083 8.39845 4.68913 8.39845 3.95996 9.12742C2.91812 10.2249 1.10411 9.93901 1.0129 8.42853C1.00434 8.28679 1 8.1439 1 8C1 4.13399 4.13405 1 8 1C11.866 1 15 4.13399 15 8C15 11.866 11.866 15 8 15C7.79774 15 7.59749 14.9914 7.39959 14.9746C5.80646 14.8393 5.4986 12.9263 6.6 11.7673ZM6.96675 13.5434C6.90251 13.2464 6.98821 12.815 7.31819 12.4632C8.42629 11.3429 8.42264 9.53623 7.30723 8.42043L7.30701 8.42021C6.18734 7.30085 4.37262 7.30085 3.25295 8.42021L3.24371 8.42945L3.23471 8.43893C2.93903 8.7504 2.57091 8.82599 2.3325 8.77668C2.21936 8.75328 2.15021 8.70667 2.10979 8.66161C2.07393 8.62162 2.02146 8.54016 2.01108 8.36826C2.00373 8.24656 2 8.12378 2 8C2 4.68628 4.68633 2 8 2C11.3137 2 14 4.68628 14 8C14 11.3137 11.3137 14 8 14C7.82602 14 7.654 13.9926 7.48421 13.9782C7.28992 13.9617 7.18488 13.8987 7.12414 13.8429C7.05831 13.7824 6.99767 13.6864 6.96675 13.5434ZM5 6C5.55228 6 6 5.55228 6 5C6 4.44772 5.55228 4 5 4C4.44772 4 4 4.44772 4 5C4 5.55228 4.44772 6 5 6ZM12 11C12 11.5523 11.5523 12 11 12C10.4477 12 10 11.5523 10 11C10 10.4477 10.4477 10 11 10C11.5523 10 12 10.4477 12 11ZM8 5C8.55228 5 9 4.55228 9 4C9 3.44772 8.55228 3 8 3C7.44772 3 7 3.44772 7 4C7 4.55228 7.44772 5 8 5ZM13 8C13 8.55228 12.5523 9 12 9C11.4477 9 11 8.55228 11 8C11 7.44772 11.4477 7 12 7C12.5523 7 13 7.44772 13 8ZM11 6C11.5523 6 12 5.55228 12 5C12 4.44772 11.5523 4 11 4C10.4477 4 10 4.44772 10 5C10 5.55228 10.4477 6 11 6Z" fill="#424242"/>
</svg>
