<svg width="16" height="16" viewBox="0 0 16 16" fill="none" xmlns="http://www.w3.org/2000/svg">
<path fill-rule="evenodd" clip-rule="evenodd" d="M3 9H7V10H3V9ZM7 11H3V12H7V11Z" fill="#D67E00"/>
<path fill-rule="evenodd" clip-rule="evenodd" d="M1 8L2 7H8L9 8V13L8 14H2L1 13V8ZM2 8V13H8V8H2Z" fill="#D67E00"/>
<path fill-rule="evenodd" clip-rule="evenodd" d="M1 8L2 7H8L9 8V13L8 14H2L1 13V8ZM2 8V13H8V8H2Z" fill="#D67E00"/>
<path fill-rule="evenodd" clip-rule="evenodd" d="M7 3L8 2H14L15 3V8L14 9H10V8H14V3H8V6H7V3ZM9 9V8H8V7H7V8H8V9H9ZM9.41421 7L9 6.58579V6H13V7H9.41421ZM9 4H13V5H9V4Z" fill="#D67E00"/>
</svg>
