<svg width="16" height="16" viewBox="0 0 16 16" fill="none" xmlns="http://www.w3.org/2000/svg">
<path fill-rule="evenodd" clip-rule="evenodd" d="M11.5 5C10.1193 5 9 6.11929 9 7.5C9 8.88071 10.1193 10 11.5 10C12.8807 10 14 8.88071 14 7.5C14 6.11929 12.8807 5 11.5 5ZM8.03544 8C8.27806 9.69615 9.73676 11 11.5 11C13.433 11 15 9.433 15 7.5C15 5.567 13.433 4 11.5 4C9.73676 4 8.27806 5.30385 8.03544 7H4.93699C4.71497 6.13739 3.93192 5.5 3 5.5C1.89543 5.5 1 6.39543 1 7.5C1 8.60457 1.89543 9.5 3 9.5C3.93192 9.5 4.71497 8.86261 4.93699 8H8.03544Z" fill="#75BEFF"/>
</svg>
