<svg width="16" height="16" viewBox="0 0 16 16" fill="none" xmlns="http://www.w3.org/2000/svg">
<path fill-rule="evenodd" clip-rule="evenodd" d="M2.87289 1.10023C3.20768 1.23579 3.47545 1.498 3.61802 1.82988C3.69032 1.99959 3.72675 2.18242 3.72502 2.36688C3.72617 2.54999 3.68975 2.7314 3.61802 2.89988C3.51299 3.14567 3.33782 3.35503 3.11442 3.50177C2.89102 3.64851 2.6293 3.72612 2.36202 3.72488C2.17924 3.72592 1.99818 3.68951 1.83002 3.61788C1.58298 3.51406 1.37227 3.33932 1.22453 3.11575C1.0768 2.89219 0.998666 2.62984 1.00002 2.36188C0.99913 2.17921 1.03519 1.99825 1.10602 1.82988C1.24337 1.50314 1.50328 1.24323 1.83002 1.10588C2.16332 0.966692 2.53809 0.964661 2.87289 1.10023ZM2.57502 2.86488C2.7054 2.80913 2.80927 2.70526 2.86502 2.57488C2.8929 2.50838 2.90718 2.43698 2.90702 2.36488C2.90813 2.2654 2.88215 2.1675 2.83185 2.08167C2.78156 1.99584 2.70884 1.92531 2.62151 1.87767C2.53418 1.83002 2.43553 1.80705 2.33614 1.81121C2.23674 1.81537 2.14035 1.8465 2.05731 1.90128C1.97426 1.95606 1.9077 2.03241 1.86475 2.12215C1.8218 2.21188 1.80409 2.31161 1.81352 2.41065C1.82294 2.50968 1.85915 2.60428 1.91825 2.6843C1.97736 2.76433 2.05713 2.82675 2.14902 2.86488C2.28549 2.92089 2.43854 2.92089 2.57502 2.86488ZM6.42995 1.1095L1.10967 6.42977L1.79557 7.11567L7.11584 1.7954L6.42995 1.1095ZM11.5 8.99999H12.5V11.5H15V12.5H12.5V15H11.5V12.5H9V11.5H11.5V8.99999ZM5.76777 9.52509L6.47487 10.2322L4.70711 12L6.47487 13.7677L5.76777 14.4748L4 12.7071L2.23223 14.4748L1.52513 13.7677L3.29289 12L1.52513 10.2322L2.23223 9.52509L4 11.2929L5.76777 9.52509ZM7.11802 5.32988C7.01442 5.08268 6.83973 4.87183 6.61612 4.72406C6.3925 4.57629 6.13004 4.49826 5.86202 4.49988C5.67935 4.49899 5.49839 4.53505 5.33002 4.60588C5.00328 4.74323 4.74337 5.00314 4.60602 5.32988C4.53588 5.49478 4.49897 5.67191 4.49741 5.8511C4.49586 6.0303 4.52967 6.20804 4.59693 6.37414C4.66419 6.54024 4.76356 6.69143 4.88936 6.81906C5.01516 6.94669 5.1649 7.04823 5.33002 7.11788C5.49867 7.18848 5.67968 7.22484 5.86252 7.22484C6.04535 7.22484 6.22636 7.18848 6.39502 7.11788C6.64201 7.01388 6.8527 6.83913 7.00058 6.61563C7.14845 6.39213 7.22689 6.12987 7.22602 5.86188C7.22655 5.67905 7.1898 5.49803 7.11802 5.32988ZM6.36502 6.07488C6.33766 6.13937 6.29829 6.19808 6.24902 6.24788C6.19908 6.29724 6.14042 6.33691 6.07602 6.36488C6.00854 6.39297 5.93611 6.40725 5.86302 6.40688C5.78991 6.40744 5.71744 6.39315 5.65002 6.36488C5.58541 6.33729 5.52668 6.29757 5.47702 6.24788C5.42691 6.19856 5.38713 6.13975 5.36002 6.07488C5.30401 5.9384 5.30401 5.78536 5.36002 5.64888C5.41536 5.51846 5.51941 5.41477 5.65002 5.35988C5.71737 5.33126 5.78984 5.31663 5.86302 5.31688C5.93618 5.31685 6.0086 5.33147 6.07602 5.35988C6.14037 5.38749 6.19904 5.42682 6.24902 5.47588C6.29786 5.52603 6.33716 5.58465 6.36502 5.64888C6.3934 5.7163 6.40802 5.78872 6.40802 5.86188C6.40802 5.93503 6.3934 6.00745 6.36502 6.07488ZM14 3H10V4H14V3Z" fill="#C5C5C5"/>
</svg>
