<svg width="16" height="16" viewBox="0 0 16 16" fill="none" xmlns="http://www.w3.org/2000/svg">
<g clip-path="url(#clip0)">
<path fill-rule="evenodd" clip-rule="evenodd" d="M12.5 9H11.5V11.5H9V12.5H11.5V15H12.5V12.5H15V11.5H12.5V9Z" fill="#75BEFF"/>
<path fill-rule="evenodd" clip-rule="evenodd" d="M6.47487 10.2322L5.76777 9.52509L4 11.2929L2.23223 9.52509L1.52513 10.2322L3.29289 12L1.52513 13.7677L2.23223 14.4748L4 12.7071L5.76777 14.4748L6.47487 13.7677L4.70711 12L6.47487 10.2322Z" fill="#75BEFF"/>
<path d="M6.42995 1.10948L1.10968 6.42975L1.79557 7.11564L7.11585 1.79537L6.42995 1.10948Z" fill="#75BEFF"/>
<path d="M3.61802 1.82988C3.47545 1.498 3.20768 1.23579 2.87289 1.10023C2.53809 0.964661 2.16332 0.966692 1.83002 1.10588C1.50328 1.24323 1.24337 1.50314 1.10602 1.82988C1.03519 1.99825 0.99913 2.17921 1.00002 2.36188C0.998666 2.62984 1.0768 2.89219 1.22453 3.11575C1.37227 3.33932 1.58298 3.51406 1.83002 3.61788C1.99818 3.68951 2.17924 3.72592 2.36202 3.72488C2.6293 3.72612 2.89102 3.64851 3.11442 3.50177C3.33782 3.35503 3.51299 3.14567 3.61802 2.89988C3.68975 2.7314 3.72617 2.54999 3.72502 2.36688C3.72675 2.18242 3.69032 1.99959 3.61802 1.82988V1.82988ZM2.86502 2.57488C2.80927 2.70526 2.7054 2.80913 2.57502 2.86488C2.43854 2.92089 2.28549 2.92089 2.14902 2.86488C2.05713 2.82675 1.97736 2.76433 1.91825 2.6843C1.85915 2.60428 1.82294 2.50968 1.81352 2.41065C1.80409 2.31161 1.8218 2.21188 1.86475 2.12215C1.9077 2.03241 1.97426 1.95606 2.05731 1.90128C2.14035 1.8465 2.23674 1.81537 2.33614 1.81121C2.43553 1.80705 2.53418 1.83002 2.62151 1.87767C2.70884 1.92531 2.78156 1.99584 2.83185 2.08167C2.88215 2.1675 2.90813 2.2654 2.90702 2.36488C2.90718 2.43698 2.8929 2.50838 2.86502 2.57488V2.57488Z" fill="#75BEFF"/>
<path d="M7.11803 5.3299C7.01443 5.08271 6.83974 4.87185 6.61613 4.72408C6.39252 4.57631 6.13005 4.49829 5.86203 4.4999C5.67936 4.49902 5.49841 4.53507 5.33003 4.6059C5.00329 4.74326 4.74339 5.00317 4.60603 5.3299C4.53589 5.49481 4.49899 5.67193 4.49743 5.85113C4.49587 6.03032 4.52969 6.20806 4.59694 6.37416C4.6642 6.54026 4.76358 6.69146 4.88937 6.81908C5.01517 6.94671 5.16492 7.04826 5.33003 7.1179C5.49868 7.1885 5.67969 7.22486 5.86253 7.22486C6.04537 7.22486 6.22638 7.1885 6.39503 7.1179C6.64202 7.0139 6.85272 6.83915 7.00059 6.61565C7.14846 6.39215 7.2269 6.12989 7.22603 5.8619C7.22656 5.67907 7.18981 5.49805 7.11803 5.3299V5.3299ZM6.36503 6.0749C6.33767 6.1394 6.29831 6.1981 6.24903 6.2479C6.19909 6.29726 6.14043 6.33693 6.07603 6.3649C6.00855 6.39299 5.93612 6.40727 5.86303 6.4069C5.78992 6.40747 5.71745 6.39318 5.65003 6.3649C5.58542 6.33731 5.52669 6.29759 5.47703 6.2479C5.42692 6.19858 5.38715 6.13977 5.36003 6.0749C5.30402 5.93843 5.30402 5.78538 5.36003 5.6489C5.41538 5.51848 5.51942 5.4148 5.65003 5.3599C5.71738 5.33128 5.78985 5.31665 5.86303 5.3169C5.93619 5.31687 6.00861 5.3315 6.07603 5.3599C6.14039 5.38751 6.19905 5.42685 6.24903 5.4759C6.29787 5.52605 6.33718 5.58468 6.36503 5.6489C6.39341 5.71633 6.40803 5.78875 6.40803 5.8619C6.40803 5.93506 6.39341 6.00748 6.36503 6.0749V6.0749Z" fill="#75BEFF"/>
<path d="M10 3H14V4H10V3Z" fill="#75BEFF"/>
</g>
<defs>
<clipPath id="clip0">
<rect width="16" height="16" fill="white"/>
</clipPath>
</defs>
</svg>
