<svg width="16" height="16" viewBox="0 0 16 16" fill="none" xmlns="http://www.w3.org/2000/svg">
<path fill-rule="evenodd" clip-rule="evenodd" d="M5.91421 6L8.06065 3.85356L8.06065 3.14645L5.91421 1L5.2071 1.70711L6 2.50001V2.50004L6.49996 3H6.49999L6.49999 3H3.5C2.83696 3 2.20107 3.2634 1.73223 3.73224C1.26339 4.20108 1 4.83696 1 5.5C1 6.16305 1.26339 6.79893 1.73223 7.26777C2.20107 7.73661 2.83696 8 3.5 8H4V7H3.5C3.10218 7 2.72064 6.84197 2.43934 6.56066C2.15804 6.27936 2 5.89783 2 5.5C2 5.10218 2.15804 4.72065 2.43934 4.43934C2.72064 4.15804 3.10218 4 3.5 4H6.49999L5.2071 5.29289L5.91421 6ZM5.91421 7.41424L5 6.50003V9.00003V14.5L5.5 15H14.5L15 14.5V6L14.9 5.6L11.5 2.1L11.2 2H8.32838L9.06065 2.73227V3H11L14 6.1V14H6V7.32845L5.91421 7.41424Z" fill="#424242"/>
<path fill-rule="evenodd" clip-rule="evenodd" d="M11 3H10V7H14V6H11V3Z" fill="#424242"/>
</svg>
