<svg xmlns="http://www.w3.org/2000/svg" viewBox="0 0 16 16"><style>.icon-canvas-transparent{opacity:0;fill:#2d2d30}.icon-vs-out{fill:#2d2d30}.icon-vs-bg{fill:#c5c5c5}.icon-vs-fg{fill:#2b282e}</style><path class="icon-canvas-transparent" d="M16 16H0V0h16v16z" id="canvas"/><path class="icon-vs-out" d="M16 11.013H1V4h15v7.013z" id="outline"/><path class="icon-vs-fg" d="M8 9H7V6h3v3H9V7H8v2zM4 7h1v2h1V6H3v3h1V7zm8 0h1v2h1V6h-3v3h1V7z" id="iconFg"/><path class="icon-vs-bg" d="M2 5v5h13V5H2zm4 4H5V7H4v2H3V6h3v3zm4 0H9V7H8v2H7V6h3v3zm4 0h-1V7h-1v2h-1V6h3v3z" id="iconBg"/></svg>