<svg xmlns="http://www.w3.org/2000/svg" viewBox="0 0 16 16"><style>.icon-canvas-transparent{opacity:0;fill:#f6f6f6}.icon-vs-out{fill:#f6f6f6}.icon-vs-bg{fill:#424242}.icon-vs-fg{fill:#f0eff1}</style><path class="icon-canvas-transparent" d="M16 16H0V0h16v16z" id="canvas"/><path class="icon-vs-out" d="M16 15H0V1h16v14z" id="outline"/><path class="icon-vs-fg" d="M9.229 7.354c.035.146.052.31.052.494 0 .234-.02.441-.06.621-.039.18-.095.328-.168.445a.687.687 0 0 1-.914.281.76.76 0 0 1-.237-.207.988.988 0 0 1-.154-.306 1.262 1.262 0 0 1-.057-.381v-.506c0-.17.02-.326.061-.465s.096-.258.168-.359a.756.756 0 0 1 .257-.232c.1-.055.21-.082.331-.082a.646.646 0 0 1 .571.32c.067.105.116.23.15.377zm-5.126.869a.557.557 0 0 0-.196.132c-.047.053-.08.112-.097.18s-.028.147-.028.233a.513.513 0 0 0 .157.39.528.528 0 0 0 .186.113.682.682 0 0 0 .242.041.76.76 0 0 0 .593-.271.897.897 0 0 0 .165-.295c.038-.113.059-.234.059-.365v-.346l-.761.11a1.29 1.29 0 0 0-.32.078zM14 3v10H2V3h12zM5.962 7.469c0-.238-.027-.451-.083-.637a1.286 1.286 0 0 0-.249-.471 1.08 1.08 0 0 0-.424-.295 1.644 1.644 0 0 0-.608-.101c-.119 0-.241.012-.368.033a3.213 3.213 0 0 0-.673.195 1.313 1.313 0 0 0-.212.114v.768c.158-.132.341-.235.544-.313.204-.078.413-.117.627-.117.213 0 .377.063.494.186.116.125.174.324.174.6l-1.03.154c-.205.026-.38.077-.526.151a1.083 1.083 0 0 0-.563.66A1.562 1.562 0 0 0 3 8.857c0 .17.025.323.074.463a.945.945 0 0 0 .568.596c.139.057.297.084.478.084.229 0 .431-.053.604-.16a1.3 1.3 0 0 0 .439-.463h.014v.529h.785V7.469zM10 7.861a3.54 3.54 0 0 0-.074-.734 2.047 2.047 0 0 0-.228-.611 1.203 1.203 0 0 0-.394-.416 1.03 1.03 0 0 0-.574-.153c-.123 0-.234.018-.336.051a1 1 0 0 0-.278.147 1.153 1.153 0 0 0-.225.222 2.022 2.022 0 0 0-.181.289h-.013V5H7v4.887h.697v-.485h.013c.044.082.095.158.151.229.057.07.119.133.191.186a.835.835 0 0 0 .238.121.943.943 0 0 0 .293.042c.23 0 .434-.053.609-.16a1.34 1.34 0 0 0 .443-.443c.12-.188.211-.412.272-.672A3.62 3.62 0 0 0 10 7.861zm3-1.658a.7.7 0 0 0-.106-.066 1.183 1.183 0 0 0-.142-.063 1.233 1.233 0 0 0-.363-.065c-.209 0-.399.051-.569.15a1.355 1.355 0 0 0-.433.424c-.118.182-.21.402-.273.66a3.63 3.63 0 0 0-.008 1.615c.06.23.143.43.252.602.109.168.241.303.396.396a.972.972 0 0 0 .524.144c.158 0 .296-.021.413-.068.117-.045.219-.108.309-.184v-.77a1.094 1.094 0 0 1-.288.225.819.819 0 0 1-.158.068.48.48 0 0 1-.153.027.62.62 0 0 1-.274-.074c-.241-.136-.423-.479-.423-1.146 0-.715.206-1.12.469-1.301.077-.032.153-.064.238-.064.113 0 .22.027.317.082.096.057.188.131.272.223v-.815z" id="iconFg"/><path class="icon-vs-bg" d="M1 2v12h14V2H1zm13 11H2V3h12v10zM5.63 6.361a1.08 1.08 0 0 0-.424-.295 1.644 1.644 0 0 0-.608-.101c-.119 0-.241.012-.368.033a3.213 3.213 0 0 0-.673.195 1.313 1.313 0 0 0-.212.114v.768c.158-.132.341-.235.544-.313.204-.078.413-.117.627-.117.213 0 .377.063.494.186.116.125.174.324.174.6l-1.03.154c-.205.026-.38.077-.526.151a1.083 1.083 0 0 0-.563.66A1.562 1.562 0 0 0 3 8.857c0 .17.025.323.074.463a.945.945 0 0 0 .568.596c.139.057.297.084.478.084.229 0 .431-.053.604-.16a1.3 1.3 0 0 0 .439-.463h.014v.529h.785V7.469c0-.238-.027-.451-.083-.637a1.286 1.286 0 0 0-.249-.471zm-.446 2.02c0 .131-.02.252-.059.365a.897.897 0 0 1-.165.295.758.758 0 0 1-.593.272.682.682 0 0 1-.242-.041.507.507 0 0 1-.302-.286.583.583 0 0 1-.041-.218c0-.086.01-.164.027-.232s.051-.127.098-.18a.546.546 0 0 1 .196-.133c.083-.033.189-.061.32-.078l.761-.109v.345zm4.514-1.865a1.203 1.203 0 0 0-.394-.416 1.03 1.03 0 0 0-.574-.153c-.123 0-.234.018-.336.051a1 1 0 0 0-.278.147 1.153 1.153 0 0 0-.225.222 2.022 2.022 0 0 0-.181.289h-.013V5H7v4.887h.697v-.485h.013c.044.082.095.158.151.229.057.07.119.133.191.186a.835.835 0 0 0 .238.121.943.943 0 0 0 .293.042c.23 0 .434-.053.609-.16a1.34 1.34 0 0 0 .443-.443c.12-.188.211-.412.272-.672A3.62 3.62 0 0 0 10 7.861a3.54 3.54 0 0 0-.074-.734 2.047 2.047 0 0 0-.228-.611zm-.476 1.953c-.039.18-.095.328-.168.445a.755.755 0 0 1-.264.266.687.687 0 0 1-.651.015.76.76 0 0 1-.237-.207.988.988 0 0 1-.154-.306 1.262 1.262 0 0 1-.057-.381v-.506c0-.17.02-.326.061-.465s.096-.258.168-.359a.756.756 0 0 1 .257-.232c.1-.055.21-.082.331-.082a.646.646 0 0 1 .571.32c.066.105.116.23.15.377.035.146.052.31.052.494 0 .234-.019.441-.059.621zm3.672-2.332a.7.7 0 0 1 .106.066v.814a1.178 1.178 0 0 0-.273-.223.645.645 0 0 0-.317-.081c-.085 0-.161.032-.238.064-.263.181-.469.586-.469 1.301 0 .668.182 1.011.423 1.146.084.04.171.074.274.074.049 0 .101-.01.153-.027a.856.856 0 0 0 .158-.068 1.16 1.16 0 0 0 .288-.225v.77c-.09.076-.192.139-.309.184a1.098 1.098 0 0 1-.412.068.974.974 0 0 1-.523-.143 1.257 1.257 0 0 1-.396-.396 2.098 2.098 0 0 1-.252-.602 3.118 3.118 0 0 1-.088-.754c0-.316.032-.604.096-.861.063-.258.155-.479.273-.66.119-.182.265-.322.433-.424a1.102 1.102 0 0 1 1.073-.023z" id="iconBg"/></svg>