<svg width="16" height="16" viewBox="0 0 16 16" fill="none" xmlns="http://www.w3.org/2000/svg">
<path d="M11 4V6H10V5.5C10 5.22386 9.77614 5 9.5 5H8.479V10.5C8.479 10.7761 8.70286 11 8.979 11H9.479V12H6.479V11H6.979C7.25515 11 7.479 10.7761 7.479 10.5V5H6.5C6.22386 5 6 5.22386 6 5.5V6H5V4H11Z" fill="#424242"/>
<path fill-rule="evenodd" clip-rule="evenodd" d="M13.9142 8.0481L12.4519 6.58581L13.159 5.87871L14.9749 7.69454V8.40165L13.2071 10.1694L12.5 9.46231L13.9142 8.0481Z" fill="#424242"/>
<path fill-rule="evenodd" clip-rule="evenodd" d="M2.08578 8.00002L3.54807 9.4623L2.84097 10.1694L1.02512 8.35357V7.64647L2.79288 5.8787L3.49999 6.58581L2.08578 8.00002Z" fill="#424242"/>
</svg>
