<svg width="16" height="16" viewBox="0 0 16 16" fill="none" xmlns="http://www.w3.org/2000/svg">
<path fill-rule="evenodd" clip-rule="evenodd" d="M11 6H10V5.5C10 5.22386 9.77616 5 9.50001 5H8.47902V10.5C8.47902 10.7761 8.70288 11 8.97902 11H9.47902V12H6.47902V11H6.97902C7.25516 11 7.47902 10.7761 7.47902 10.5V5H6.50001C6.22387 5 6.00001 5.22386 6.00001 5.5V6H5.00001V4H11V6ZM13.9142 8.0481L12.4519 6.58581L13.159 5.87871L14.9749 7.69454V8.40165L13.2071 10.1694L12.5 9.46231L13.9142 8.0481ZM3.5481 9.4623L2.08581 8.00002L3.50002 6.58581L2.79291 5.8787L1.02515 7.64647V8.35357L2.841 10.1694L3.5481 9.4623Z" fill="#C5C5C5"/>
</svg>
