<svg width="16" height="16" viewBox="0 0 16 16" fill="none" xmlns="http://www.w3.org/2000/svg">
<path fill-rule="evenodd" clip-rule="evenodd" d="M1 4.5L1.5 4H4V5H2V12H4V13H1.5L1 12.5V4.5ZM15 12.5L14.5 13H12V12H14L14 5L12 5V4H14.5L15 4.5L15 12.5ZM4.29693 7L8.79693 5L9.25725 5.02816L11.7572 6.52816L12 6.95691V9.45691L11.7031 9.91381L7.20307 11.9138L6.74275 11.8857L4.24275 10.3857L4 9.95691V7.45691L4.29693 7ZM5 9.67381V8.34L6.74275 9.38565L7.20307 9.41381L11 7.72629V9.13197L7.03441 10.8945L5 9.67381ZM8.96559 6.01936L10.4178 6.89071L7.03441 8.39445L5.58216 7.52311L8.96559 6.01936Z" fill="#75BEFF"/>
<path d="M6.5 9H7.5V11H6.5V9Z" fill="#75BEFF"/>
</svg>
