<svg xmlns="http://www.w3.org/2000/svg" width="16" height="16" fill="none" viewBox="0 0 16 16"><path fill="#424242" fill-rule="evenodd" d="M1.01087 2.5L1.51087 2H6.50713L6.86068 2.14645L7.71349 2.99925H14.5011L15.0011 3.49925V8.99512L14.9903 9.00599V13.5021L14.4903 14.0021H1.5L1 13.5021V6.50735L1.01087 6.49648V2.5ZM14.0011 3.99925V5.00311H7.5005L7.14695 5.14956L6.28915 6.00735H2.01087V3H6.30002L7.15283 3.8528L7.50638 3.99925H14.0011ZM6.49626 7.00735H2.01087V7.49588H1.99963V11.4929H2V13.0021H13.9903V11.4929H13.9906V7.49588H13.9903V6.00311H7.70761L6.84981 6.8609L6.49626 7.00735Z" clip-rule="evenodd"/></svg>