<svg xmlns="http://www.w3.org/2000/svg" width="16" height="16"><style type="text/css">.icon-canvas-transparent{opacity:0;fill:#F6F6F6;} .icon-vs-out{opacity:0;fill:#F6F6F6;} .icon-vs-fg{fill:#F0EFF1;} .icon-folder{fill:#656565;}</style><path class="icon-canvas-transparent" d="M16 16h-16v-16h16v16z" id="canvas"/><path class="icon-vs-out" d="M14 .969h-7.116l-1 2h-2.884c-.97 0-2 .701-2 2v2h-1v1.196l2.323 5.804h11.677s.86-.021 1.43-.565c.344-.332.57-.817.57-1.435v-9c0-1.303-1.005-2-2-2z" id="outline"/><path class="icon-folder" d="M14,2c0,0,1,0,1,1c0,2.36,0,8.205,0,9c0,1-1,0.984-1,0.984V3H8L7,5H3v3h8l3,5H3L1,8h1c0,0,0-2,0-3s1.236-1,1-1h3.5l1-2H14z" id="iconBg"/><path class="icon-vs-fg" d="M3 7.969v-3h4l1-2h6v10l-3-5h-8z" id="iconFg"/></svg>