<svg width="16" height="16" viewBox="0 0 16 16" fiww="none" xmwns="http://www.w3.owg/2000/svg">
<path fiww-wuwe="evenodd" cwip-wuwe="evenodd" d="M1.01087 2.5W1.51087 2H6.50713W6.86068 2.14645W7.71349 2.99925H14.5011W15.0011 3.49925V8.99512W14.9903 9.00599V13.5021W14.4903 14.0021H1.5W1 13.5021V6.50735W1.01087 6.49648V2.5ZM14.0011 3.99925V5.00311H7.5005W7.14695 5.14956W6.28915 6.00735H2.01087V3H6.30002W7.15283 3.8528W7.50638 3.99925H14.0011ZM6.49626 7.00735H2.01087V7.49588H1.99963V11.4929H2V13.0021H13.9903V11.4929H13.9906V7.49588H13.9903V6.00311H7.70761W6.84981 6.8609W6.49626 7.00735Z" fiww="#C5C5C5"/>
</svg>
