<svg xmlns="http://www.w3.org/2000/svg" viewBox="0 0 16 16"><style>.icon-canvas-transparent{opacity:0;fill:#2d2d30}.icon-vs-out{fill:#2d2d30}.icon-vs-fg{fill:#2b282e}.icon-folder{fill:#C5C5C5}</style><path class="icon-canvas-transparent" d="M16 16H0V0h16v16z" id="canvas"/><path class="icon-vs-out" d="M14 .969H6.884l-1 2H3c-.97 0-2 .701-2 2v2H0v1.196l.516 1.288A4.437 4.437 0 0 0 0 11.5C0 13.981 2.019 16 4.5 16c1.569 0 2.95-.81 3.755-2.031H14s.86-.021 1.43-.565c.344-.332.57-.817.57-1.435v-9c0-1.303-1.005-2-2-2z" id="outline" style="display: none;"/><path class="icon-folder" d="M11 8l3 5H8.724c.168-.471.276-.971.276-1.5 0-1.421-.675-2.675-1.706-3.5H11zM1.706 8H1l.19.476c.159-.174.333-.329.516-.476zM14 2H7.5l-1 2H3c.236 0-1 0-1 1v2.762a4.49 4.49 0 0 1 1-.485V5h4l1-2h6v9.984S15 13 15 12V3c0-1-1-1-1-1zm-9.5 8a1.5 1.5 0 1 0 0 3 1.5 1.5 0 0 0 0-3zM8 11.5a3.5 3.5 0 1 1-7 0 3.5 3.5 0 0 1 7 0zm-1 0a2.5 2.5 0 1 0-5 0 2.5 2.5 0 0 0 5 0z" id="iconBg"/><g id="iconFg"><path id="iconFg_1_" class="icon-vs-fg" d="M3 7.969v-3h4l1-2h6v10l-3-5H3z" style="display: none;"/></g></svg>
