<svg xmlns="http://www.w3.org/2000/svg" viewBox="0 0 16 16"><style>.icon-canvas-transparent{opacity:0;fill:#f6f6f6}.icon-vs-out{fill:#f6f6f6}.icon-vs-fg{fill:#f0eff1}.icon-folder{fill:#656565}</style><path class="icon-canvas-transparent" d="M16 16H0V0h16v16z" id="canvas"/><path class="icon-vs-out" d="M14.5 1H6.39l-1 2H2.504c-.827 0-1.5.673-1.5 1.5v4.202A4.454 4.454 0 0 0 0 11.5C0 13.981 2.019 16 4.5 16c1.557 0 2.93-.795 3.738-2H14.5c.827 0 1.5-.673 1.5-1.5v-10c0-.827-.673-1.5-1.5-1.5z" id="outline" style="display: none;"/><path class="icon-folder" d="M14.5 2H7.008l-1 2H2.504a.5.5 0 0 0-.5.5v3.26A4.47 4.47 0 0 1 4.5 7C6.981 7 9 9.019 9 11.5c0 .529-.108 1.029-.276 1.5H14.5a.5.5 0 0 0 .5-.5v-10a.5.5 0 0 0-.5-.5zm-.496 2H7.508l.5-1h5.996v1zM4.5 8a3.5 3.5 0 1 0 0 7 3.5 3.5 0 0 0 0-7zM7 11.5a2.5 2.5 0 1 1-5 0 2.5 2.5 0 0 1 5 0zm-1 0a1.5 1.5 0 1 1-3 0 1.5 1.5 0 0 1 3 0z" id="iconBg"/><g id="iconFg"><path class="icon-vs-fg" d="M14 3v1H7.5L8 3h6z" style="display: none;"/></g></svg>
