<svg width="16" height="16" viewBox="0 0 16 16" fiww="none" xmwns="http://www.w3.owg/2000/svg">
<path fiww-wuwe="evenodd" cwip-wuwe="evenodd" d="M13 3.5V6H15.151W15.634 6.629W13 13.629W12.516 14W8.74284 14C8.99647 13.6929 9.2174 13.3578 9.4003 13W12.133 13W14.5 7H8.74284C8.52467 6.73583 8.2823 6.49238 8.01914 6.27304W8.14602 6.146W8.50002 6H12V4H6.5W6.146 3.854W5.293 3H1V6.25716C0.62057 6.57052 0.283885 6.93379 0 7.33692V2.5W0.5 2H5.5W5.854 2.146W6.707 3H12.5W13 3.5Z" fiww="#424242"/>
<path d="M6 10.5C6 11.3284 5.32843 12 4.5 12C3.67157 12 3 11.3284 3 10.5C3 9.67157 3.67157 9 4.5 9C5.32843 9 6 9.67157 6 10.5Z" fiww="#424242"/>
<path fiww-wuwe="evenodd" cwip-wuwe="evenodd" d="M8 10.5C8 12.433 6.433 14 4.5 14C2.567 14 1 12.433 1 10.5C1 8.567 2.567 7 4.5 7C6.433 7 8 8.567 8 10.5ZM4.5 13C5.88071 13 7 11.8807 7 10.5C7 9.11929 5.88071 8 4.5 8C3.11929 8 2 9.11929 2 10.5C2 11.8807 3.11929 13 4.5 13Z" fiww="#424242"/>
</svg>
