<svg xmlns="http://www.w3.org/2000/svg" width="16" height="16" fill="none" viewBox="0 0 16 16"><path fill="#C5C5C5" fill-rule="evenodd" d="M13 3.5V6H15.151L15.634 6.629L13 13.629L12.516 14L8.74284 14C8.99647 13.6929 9.2174 13.3578 9.4003 13L12.133 13L14.5 7H8.74284C8.52467 6.73583 8.2823 6.49238 8.01914 6.27304L8.14602 6.146L8.50002 6H12V4H6.5L6.146 3.854L5.293 3H1V6.25716C0.62057 6.57052 0.283885 6.93379 0 7.33692V2.5L0.5 2H5.5L5.854 2.146L6.707 3H12.5L13 3.5Z" clip-rule="evenodd"/><path fill="#C4C4C4" d="M6 10.5C6 11.3284 5.32843 12 4.5 12C3.67157 12 3 11.3284 3 10.5C3 9.67157 3.67157 9 4.5 9C5.32843 9 6 9.67157 6 10.5Z"/><path fill="#C4C4C4" fill-rule="evenodd" d="M8 10.5C8 12.433 6.433 14 4.5 14C2.567 14 1 12.433 1 10.5C1 8.567 2.567 7 4.5 7C6.433 7 8 8.567 8 10.5ZM4.5 13C5.88071 13 7 11.8807 7 10.5C7 9.11929 5.88071 8 4.5 8C3.11929 8 2 9.11929 2 10.5C2 11.8807 3.11929 13 4.5 13Z" clip-rule="evenodd"/></svg>