<svg width="280" height="182" viewBox="0 0 280 182" fill="none" xmlns="http://www.w3.org/2000/svg">
<g clip-path="url(#clip0_hc_light)">
<rect width="280" height="182" rx="4" fill="white"/>
<rect width="64" height="182" fill="white"/>
<rect x="5" y="5" width="22" height="3" rx="1" fill="#292929" fill-opacity="0.85"/>
<rect x="42.25" y="3.75" width="17.5" height="6.5" rx="1.75" fill="white" stroke="#0F4A85" stroke-width="0.5"/>
<rect x="49" y="6.5" width="4" height="1" fill="#292929" fill-opacity="0.85"/>
<rect x="50.5" y="5" width="1" height="4" fill="#292929" fill-opacity="0.85"/>
<rect x="5" y="16" width="28" height="2" rx="1" fill="#292929" fill-opacity="0.7"/>
<circle cx="7.5" cy="26.5" r="1.5" fill="#292929" fill-opacity="0.7"/>
<rect x="12" y="24.5" width="46" height="2" rx="1" fill="#292929" fill-opacity="0.85"/>
<rect x="12" y="29.5" width="36" height="1.5" rx="0.75" fill="#292929" fill-opacity="0.8"/>
<circle cx="7.5" cy="42.5" r="1.5" fill="#0F4A85"/>
<rect x="12" y="40.5" width="46" height="2" rx="1" fill="#292929" fill-opacity="0.85"/>
<rect x="12" y="45.5" width="36" height="1.5" rx="0.75" fill="#292929" fill-opacity="0.8"/>
<circle cx="7.5" cy="58.5" r="1.5" fill="#292929" fill-opacity="0.7"/>
<rect x="12" y="56.5" width="46" height="2" rx="1" fill="#292929" fill-opacity="0.85"/>
<rect x="12" y="61.5" width="36" height="1.5" rx="0.75" fill="#292929" fill-opacity="0.8"/>
<rect x="5" y="70" width="28" height="2" rx="1" fill="#292929" fill-opacity="0.7"/>
<circle cx="7.5" cy="80.5" r="1.5" fill="#292929" fill-opacity="0.7"/>
<rect x="12" y="78.5" width="46" height="2" rx="1" fill="#292929" fill-opacity="0.85"/>
<rect x="12" y="83.5" width="36" height="1.5" rx="0.75" fill="#292929" fill-opacity="0.8"/>
<rect x="3" y="92" width="58" height="14" rx="2" fill="#D4E5F7"/>
<circle cx="7.5" cy="96.5" r="1.5" fill="#292929" fill-opacity="0.7"/>
<rect x="12" y="94.5" width="46" height="2" rx="1" fill="#292929"/>
<rect x="12" y="99.5" width="36" height="1.5" rx="0.75" fill="#292929" fill-opacity="0.8"/>
<circle cx="7.5" cy="112.5" r="1.5" fill="#0F4A85"/>
<rect x="12" y="110.5" width="46" height="2" rx="1" fill="#292929" fill-opacity="0.85"/>
<rect x="12" y="115.5" width="36" height="1.5" rx="0.75" fill="#292929" fill-opacity="0.8"/>
<rect x="5" y="124" width="28" height="2" rx="1" fill="#292929" fill-opacity="0.7"/>
<circle cx="7.5" cy="134.5" r="1.5" fill="#292929" fill-opacity="0.7"/>
<rect x="12" y="132.5" width="46" height="2" rx="1" fill="#292929" fill-opacity="0.85"/>
<rect x="12" y="137.5" width="36" height="1.5" rx="0.75" fill="#292929" fill-opacity="0.8"/>
<circle cx="7.5" cy="150.5" r="1.5" fill="#292929" fill-opacity="0.7"/>
<rect x="12" y="148.5" width="46" height="2" rx="1" fill="#292929" fill-opacity="0.85"/>
<rect x="12" y="153.5" width="36" height="1.5" rx="0.75" fill="#292929" fill-opacity="0.8"/>
<path d="M64 0H280V16H64V0Z" fill="white"/>
<rect x="72" y="7" width="80" height="2.5" rx="1.25" fill="#292929" fill-opacity="0.9"/>
<rect x="156" y="7.25" width="50" height="2" rx="1" fill="#292929" fill-opacity="0.8"/>
<rect x="192" y="24" width="80" height="10" rx="5" fill="white"/>
<rect x="198" y="28.2" width="68" height="1.6" rx="0.8" fill="#292929" fill-opacity="0.9"/>
<rect x="72" y="40" width="170" height="1.8" rx="0.9" fill="#292929" fill-opacity="0.85"/>
<rect x="72" y="44.5" width="140" height="1.8" rx="0.9" fill="#292929" fill-opacity="0.85"/>
<rect x="72" y="49" width="100" height="1.8" rx="0.9" fill="#292929" fill-opacity="0.85"/>
<circle cx="76.75" cy="59.25" r="0.75" fill="#292929" fill-opacity="0.85"/>
<rect x="81" y="58" width="120" height="1.6" rx="0.8" fill="#292929" fill-opacity="0.85"/>
<circle cx="76.75" cy="64.25" r="0.75" fill="#292929" fill-opacity="0.85"/>
<rect x="81" y="63" width="106" height="1.6" rx="0.8" fill="#292929" fill-opacity="0.85"/>
<circle cx="76.75" cy="69.25" r="0.75" fill="#292929" fill-opacity="0.85"/>
<rect x="81" y="68" width="92" height="1.6" rx="0.8" fill="#292929" fill-opacity="0.85"/>
<rect x="222" y="78" width="50" height="10" rx="5" fill="white"/>
<rect x="228" y="82.2" width="38" height="1.6" rx="0.8" fill="#292929" fill-opacity="0.9"/>
<rect x="72.25" y="94.25" width="199.5" height="13.5" rx="2.75" fill="white" stroke="#0F4A85" stroke-width="0.5"/>
<rect x="76" y="99" width="140" height="1.6" rx="0.8" fill="#292929" fill-opacity="0.85"/>
<rect x="72.375" y="152.375" width="199.25" height="25.25" rx="3.625" fill="white" stroke="#0F4A85" stroke-width="0.75"/>
<rect x="77" y="158" width="110" height="1.8" rx="0.9" fill="#292929" fill-opacity="0.85"/>
<circle cx="78.75" cy="172.75" r="1.75" fill="#292929" fill-opacity="0.9"/>
<rect x="84" y="171.6" width="18" height="2.2" rx="1.1" fill="#292929" fill-opacity="0.9"/>
<rect x="105" y="171.6" width="12" height="2.2" rx="1.1" fill="#292929" fill-opacity="0.9"/>
<circle cx="265.5" cy="172.5" r="2.5" fill="#0F4A85"/>
<path d="M280 16V17H67C65.8954 17 65 17.8954 65 19V182H64V19C64 17.3431 65.3431 16 67 16H280Z" fill="#0F4A85"/>
</g>
<defs>
<clipPath id="clip0_hc_light">
<rect width="280" height="182" rx="4" fill="white"/>
</clipPath>
</defs>
</svg>
