<svg xmlns="http://www.w3.org/2000/svg" viewBox="0 0 16 16"><style>.icon-canvas-transparent{opacity:0;fill:#2d2d30}.icon-vs-out{fill:#2d2d30}.icon-vs-fg{fill:#2b282e}.icon-vs-action-purple{fill:#b180d7}</style><path class="icon-canvas-transparent" d="M16 16H0V0h16v16z" id="canvas"/><path class="icon-vs-out" d="M15 3.349v8.403L8.975 16H8.07L1 11.582V3.327L7.595 0h1.118L15 3.349z" id="outline"/><path class="icon-vs-fg" d="M12.715 4.398L8.487 7.02 3.565 4.272l4.578-2.309 4.572 2.435zM3 5.102l5 2.792v5.705l-5-3.125V5.102zm6 8.434V7.878l4-2.48v5.317l-4 2.821z" id="iconFg"/><path class="icon-vs-action-purple" d="M8.156.837L2 3.942v7.085L8.517 15.1 14 11.233V3.95L8.156.837zm4.559 3.561L8.487 7.02 3.565 4.272l4.578-2.309 4.572 2.435zM3 5.102l5 2.792v5.705l-5-3.125V5.102zm6 8.434V7.878l4-2.48v5.317l-4 2.821z" id="iconBg"/></svg>