<svg xmlns="http://www.w3.org/2000/svg" viewBox="0 0 16 16"><style>.icon-canvas-transparent{opacity:0;fill:#2d2d30}.icon-vs-out{fill:#2d2d30}.icon-vs-bg{fill:#c5c5c5}</style><path class="icon-canvas-transparent" d="M16 16H0V0h16v16z" id="canvas"/><path class="icon-vs-out" d="M16 10c0 2.205-1.794 4-4 4-1.858 0-3.411-1.279-3.858-3h-.978l2.318 4H0v-1.703l2-3.408V0h11v6.142c1.721.447 3 2 3 3.858z" id="outline"/><path class="icon-vs-bg" d="M12 1v4.75A4.255 4.255 0 0 0 7.75 10h-.732L4.275 5.269 3 7.442V1h9zM7.747 14L4.269 8 .748 14h6.999zM15 10a3 3 0 1 1-6 0 3 3 0 0 1 6 0z" id="iconBg"/></svg>