<svg xmlns="http://www.w3.org/2000/svg" width="380" height="40" viewBox="0 0 380 40" enable-background="new 0 0 380 40"><path fill="#2D2D30" d="M365 24v8.8l-1 1.6V36h8v-1h4V24z"/><path fill="#C5C5C5" d="M365 35l3-5 3 5zM370.082 31.33C370.388 30 371.577 29 373 29c.77 0 1.468.3 2 .78V25h-9v6.2l2-3.2 2.082 3.33z"/><circle cx="372.938" cy="32" r="2.063" fill="#C5C5C5"/><path fill="#F6F6F6" d="M365 4v8.8l-1 1.6V16h8v-1h4V4z"/><path d="M365 15l3-5 3 5h-6zm5.082-3.67C370.388 10 371.577 9 373 9c.77 0 1.468.3 2 .78V5h-9v6.2l2-3.2 2.082 3.33zm2.856-1.392c-1.14 0-2.063.923-2.063 2.063 0 1.14.923 2.064 2.063 2.064 1.14 0 2.063-.923 2.063-2.063 0-1.14-.923-2.062-2.062-2.062z" fill="#424242"/><path fill="#2D2D30" d="M342 24h16v12h-16z"/><path fill="#C5C5C5" d="M353 27l3 3-3 3h-2l2-2h-3v-2h3l-2-2zM343 25h14v10h-14zM356 26h-6v3h-3l2-2h-2l-3 3 3 3h2l-2-2h3v3h6v-4z"/><path fill="#2B282E" d="M350 31h-3l2 2h-2l-3-3 3-3h2l-2 2h3zM351 33l2-2h-3v3h6v-4l-3 3zM356 26v4l-3-3h-2l2 2h-3v-3zM350 29v2z"/><path d="M358 16h-16V4h16v12z" fill="#F6F6F6"/><path d="M353 7l3 3-3 3h-2l2-2h-3V9h3l-2-2h2zm4-2v10h-14V5h14zm-1 1h-6v3h-3l2-2h-2l-3 3 3 3h2l-2-2h3v3h6V6z" fill="#424242"/><path d="M350 11h-3l2 2h-2l-3-3 3-3h2l-2 2h3v2zm1 2l2-2h-3v3h6v-4l-3 3h-2zm5-7v4l-3-3h-2l2 2h-3V6h6zm-6 3v2-2z" fill="#F0EFF1"/><path fill="#2D2D30" d="M333 27v-2h-6v2h-2v6h2v2h6v-2h2v-6z"/><path fill="#C5C5C5" d="M334 29v-1h-2v-2h-1v2h-2v-2h-1v2h-2v1h2v2h-2v1h2v2h1v-2h2v2h1v-2h2v-1h-2v-2z"/><path fill="#2D2D30" d="M329 29h2v2h-2z"/><path fill="#F6F6F6" d="M333 7V5h-6v2h-2v6h2v2h6v-2h2V7z"/><path d="M334 9V8h-2V6h-1v2h-2V6h-1v2h-2v1h2v2h-2v1h2v2h1v-2h2v2h1v-2h2v-1h-2V9h2zm-3 2h-2V9h2v2z" fill="#424242"/><g fill="#424242"><path d="M306 26v-1h-3v10.006h3v-.99h-2V26zM310 26v-1h3v10.006h-3v-.99h2V26z"/></g><g fill="#424242"><path d="M306 6V5h-3v10.006h3v-.99h-2V6zM310 6V5h3v10.006h-3v-.99h2V6z"/></g><path fill="#2D2D30" d="M292.414 24h-4.828L286 25.586V28h-2.414L282 29.586v3.828L283.586 35h4.828L290 33.414V31h2.414L294 29.414v-3.828z"/><path fill="#E8AB53" d="M288 29h-4l-1 1v3l1 1h4l1-1v-3zM284 32h4v1h-4zM284 30h4v1h-4zM292 25h-4l-1 1v2h5v1h-2.586l.586.586V30h2l1-1v-3zM288 26h4v1h-4z"/><path fill="#2B282E" d="M292 28v1h-2.586l-1-1zM288 26h4v1h-4zM284 32h4v1h-4zM284 30h4v1h-4z"/><path fill="#F6F6F6" d="M292.414 4h-4.828L286 5.586V8h-2.414L282 9.586v3.828L283.586 15h4.828L290 13.414V11h2.414L294 9.414V5.586z"/><path d="M288 9h-4l-1 1v3l1 1h4l1-1v-3l-1-1zm0 4h-4v-1h4v1zm0-2h-4v-1h4v1zM292 5h-4l-1 1v2h5v1h-2.586l.586.586V10h2l1-1V6l-1-1zm0 2h-4V6h4v1z" fill="#C27D1A"/><path d="M292 8v1h-2.586l-1-1H292zm0-2h-4v1h4V6zm-4 6h-4v1h4v-1zm0-2h-4v1h4v-1z" fill="#F0EFF1"/><path fill="#2D2D30" d="M265 35V24h6.414L275 27.586V35z"/><path fill="#C5C5C5" d="M271 25h-5v9h8v-6zM273 29v4h-6v-7h4v2h2z"/><path fill="#2B282E" d="M273 29v4h-6v-7h4v2h2z"/><path d="M265 15V4h6.414L275 7.586V15h-10z" fill="#F6F6F6"/><path d="M271 5h-5v9h8V8l-3-3zm2 4v4h-6V6h4v2h2v1z" fill="#424242"/><path fill="#F0EFF1" d="M273 9v4h-6V6h4v2h2z"/><path fill="#2D2D30" d="M247 34v-4h-2v-4h10v8z"/><path fill="#C5C5C5" d="M246 27h8v2h-8zM248 30h6v1h-6zM248 32h6v1h-6z"/><path fill="#F6F6F6" d="M247 14v-4h-2V6h10v8z"/><path d="M254 9h-8V7h8v2zm0 1h-6v1h6v-1zm0 2h-6v1h6v-1z" fill="#424242"/><path d="M230.7 35.992c-3.334 0-6.7-1.703-6.7-5.51 0-4.173 4.968-6.48 8.402-6.48 1.07 0 1.867.243 2.37.724.657.63.79 1.298.785 1.746-.013 1.174-.905 2.146-1.823 3.008 1.408.194 2.09 1.142 2.254 2.036.297 1.603-.805 3.37-2.507 4.022-.762.293-1.75.454-2.78.454z" fill="#2D2D30"/><path d="M232.647 30.482s-1.91.458-.478-.916c1.216-1.167 3.343-2.747 1.91-4.12-1.434-1.375-9.08.456-9.08 5.036 0 4.58 5.735 5.038 8.124 4.122 2.39-.915 2.867-4.578-.477-4.122z" fill="#C5C5C5"/><circle cx="227.375" cy="31.343" r="1.041" fill="#C5C5C5"/><circle cx="228.417" cy="28.343" r="1.041" fill="#C5C5C5"/><circle cx="231.403" cy="27.134" r="1.041" fill="#C5C5C5"/><circle cx="231.402" cy="27.134" r="1.041" fill="#2B282E"/><circle cx="228.416" cy="28.343" r="1.041" fill="#2B282E"/><circle cx="227.375" cy="31.343" r="1.041" fill="#2B282E"/><path d="M230.7 15.992c-3.334 0-6.7-1.703-6.7-5.51C224 6.31 228.968 4 232.402 4c1.07 0 1.867.244 2.37.725.657.63.79 1.298.785 1.746-.013 1.175-.905 2.147-1.823 3.01 1.408.193 2.09 1.14 2.254 2.035.297 1.603-.805 3.37-2.507 4.022-.762.294-1.75.455-2.78.455z" fill="#F6F6F6"/><path d="M232.647 10.482s-1.91.458-.478-.916c1.216-1.167 3.343-2.747 1.91-4.12-1.434-1.375-9.08.456-9.08 5.036 0 4.58 5.735 5.038 8.124 4.122 2.39-.915 2.867-4.578-.477-4.122zm-5.272 1.902c-.574 0-1.04-.467-1.04-1.04 0-.576.466-1.043 1.04-1.043s1.04.467 1.04 1.043c.002.574-.465 1.04-1.04 1.04zm1.042-3c-.574 0-1.04-.466-1.04-1.04 0-.576.466-1.042 1.04-1.042s1.04.466 1.04 1.04c0 .575-.466 1.042-1.04 1.042zm1.945-2.25c0-.575.467-1.04 1.04-1.04s1.042.465 1.042 1.04-.467 1.04-1.04 1.04-1.042-.465-1.042-1.04z" fill="#424242"/><g fill="#F0EFF1"><circle cx="231.402" cy="7.134" r="1.041"/><circle cx="228.416" cy="8.343" r="1.041"/><circle cx="227.375" cy="11.343" r="1.041"/></g><path fill="#2D2D30" d="M202 23h16v14h-16z"/><path fill="#C5C5C5" d="M203 24h14v12h-14zM204 25h12v10h-12zM210 28v-1h-1v5h3v-4zM210 29h1v2h-1zM214 29v2h1v1h-2v-4h2v1zM208 28v4h-3v-2h1v1h1v-1h-1v-1h-1v-1z"/><path fill="#2B282E" d="M204 25h12v10h-12z"/><path fill="#C5C5C5" d="M208 28h-3v1h1v1h-1v2h3zM212 28h-2v-1h-1v5h3zM215 28h-2v4h2v-1h-1v-2h1z"/><path fill="#2B282E" d="M206 30h1v1h-1zM210 29h1v2h-1z"/><path fill="#F6F6F6" d="M202 3h16v14h-16z"/><path d="M203 4v12h14V4h-14zm13 11h-12V5h12v10zm-6-7V7h-1v5h3V8h-2zm1 3h-1V9h1v2zm3-2v2h1v1h-2V8h2v1h-1zm-6-1v4h-3v-2h1v1h1v-1h-1V9h-1V8h3z" fill="#424242"/><path d="M210 9h1v2h-1V9zm-3 2v-1h-1v1h1zm9-6v10h-12V5h12zm-8 3h-3v1h1v1h-1v2h3V8zm4 0h-2V7h-1v5h3V8zm3 0h-2v4h2v-1h-1V9h1V8z" fill="#F0EFF1"/><path fill="#2D2D30" d="M185 24h11v12h-11z"/><path fill="#C5C5C5" d="M194 33v-7h-7v7h-1v-8h9v8zM186 34h1v1h-1zM188 34h1v1h-1zM190 34h1v1h-1zM192 34h1v1h-1zM194 34h1v1h-1z"/><path fill="#2B282E" d="M187 26h7v7h-7z"/><path fill="#F6F6F6" d="M185 4h11v12h-11z"/><path d="M194 13V6h-7v7h-1V5h9v8h-1zm-7 2h-1v-1h1v1zm2-1h-1v1h1v-1zm2 0h-1v1h1v-1zm2 1h-1v-1h1v1zm2-1h-1v1h1v-1z" fill="#424242"/><path d="M187 13V6h7v7h-7z" fill="#F0EFF1"/><path fill="#2D2D30" d="M164 35V24h7v1h5v3h-5v1h5v6z"/><path fill="#C5C5C5" d="M171 26h4v1h-4zM173 30h2v1h-2zM165 30h6v1h-6zM165 33h4v1h-4zM171 33h4v1h-4zM165 25h5v3h-5zM166 26h3v1h-3z"/><path fill="#2B282E" d="M166 26h3v1h-3z"/><path fill="#F6F6F6" d="M164 15V4h7v1h5v3h-5v1h5v6z"/><path d="M175 7h-4V6h4v1zm0 3h-2v1h2v-1zm-4 0h-6v1h6v-1zm-2 3h-4v1h4v-1zm6 0h-4v1h4v-1zm-5-8v3h-5V5h5zm-1 1h-3v1h3V6z" fill="#424242"/><path fill="#F0EFF1" d="M166 6h3v1h-3z"/><path fill="#2D2D30" d="M154.414 24h-4.828L148 25.586V28h-4v7h8v-4h2.414L156 29.414v-3.828z"/><path fill="#75BEFF" d="M154 25h-4l-1 1v2h5v1h-2v1h2l1-1v-3z"/><path fill="#00539C" d="M150 26h4v1h-4z"/><path fill="#75BEFF" d="M145 29h6v5h-6z"/><path fill="#00539C" d="M146 31h4v1h-4z"/><path fill="#2B282E" d="M146 31h4v1h-4zM150 26h4v1h-4zM152 28h2v1h-2z"/><path fill="#F6F6F6" d="M154.414 4h-4.828L148 5.586V8h-4v7h8v-4h2.414L156 9.414V5.586z"/><g fill="#00539C"><path d="M154 5h-4l-1 1v2h5v1h-2v1h2l1-1V6l-1-1zm0 2h-4V6h4v1zM145 14h6V9h-6v5zm1-3h4v1h-4v-1z"/></g><g fill="#F0EFF1"><path d="M146 11h4v1h-4zM150 6h4v1h-4zM152 8h2v1h-2z"/></g><path fill="#2D2D30" d="M125 27h11v6h-11z"/><path fill="#C5C5C5" d="M126 28h9v4h-9z"/><path fill="#2B282E" d="M127 30h1v1h-1zM129 30h1v1h-1zM131 30h1v1h-1zM133 30h1v1h-1zM127 29h3v1h-3zM131 29h3v1h-3z"/><path fill="#F6F6F6" d="M125 7h11v6h-11z"/><path fill="#424242" d="M126 8h9v4h-9z"/><path fill="#F0EFF1" d="M127 10h1v1h-1zM129 10h1v1h-1zM131 10h1v1h-1zM133 10h1v1h-1zM127 9h3v1h-3zM131 9h3v1h-3z"/><path d="M110.45 23c-1.638 0-3.076.797-3.988 2.012v.002c-.627.836-1.013 1.863-1.013 2.986 0 .47.066.933.2 1.385l-2.908 2.908c-.687.686-1.253 2.16 0 3.414.61.61 1.244.736 1.67.736.958 0 1.62-.613 1.744-.736l2.907-2.908c.453.132.917.2 1.386.2 1.122 0 2.148-.387 2.984-1.014h.002c1.216-.91 2.013-2.35 2.013-3.986 0-2.762-2.24-5-5-5z" fill="#2D2D30"/><path d="M114.09 26.36L111.45 29l-2-2 2.64-2.64c-.502-.228-1.055-.36-1.64-.36-2.21 0-4 1.79-4 4 0 .586.132 1.14.358 1.64l-3.36 3.36s-1 1 0 2 2 0 2 0l3.36-3.36c.502.227 1.055.36 1.64.36 2.21 0 4-1.79 4-4 0-.586-.132-1.14-.358-1.64z" fill="#C5C5C5"/><path d="M110.45 3c-1.638 0-3.076.797-3.988 2.012v.002c-.627.836-1.013 1.863-1.013 2.986 0 .47.066.933.2 1.385l-2.908 2.908c-.687.686-1.253 2.16 0 3.414.61.61 1.244.736 1.67.736.958 0 1.62-.613 1.744-.736l2.907-2.908c.453.132.917.2 1.386.2 1.122 0 2.148-.387 2.984-1.014h.002c1.216-.91 2.013-2.35 2.013-3.986 0-2.762-2.24-5-5-5z" fill="#F6F6F6"/><path d="M114.09 6.36L111.45 9l-2-2 2.64-2.64c-.502-.227-1.055-.36-1.64-.36-2.21 0-4 1.79-4 4 0 .586.132 1.14.358 1.64l-3.36 3.36s-1 1 0 2 2 0 2 0l3.36-3.36c.502.227 1.055.36 1.64.36 2.21 0 4-1.79 4-4 0-.586-.132-1.14-.358-1.64z" fill="#424242"/><path d="M89 33h1v-1c0-.537.74-1.613 1-2-.26-.39-1-1.467-1-2v-1h-1v-3h1c1.97.02 3 1.277 3 3 0 0-.004.965 0 1l1 1v2l-1 1c-.003.03 0 1 0 1 0 1.71-1.03 2.98-3 3h-1v-3zM87 33h-1v-1c0-.537-.74-1.613-1-2 .26-.39 1-1.467 1-2v-1h1v-3h-1c-1.97.02-3 1.277-3 3 0 0 .004.965 0 1l-1 1v2l1 1c.003.03 0 1 0 1 0 1.71 1.317 2.98 3.286 3H87v-3z" fill="#2D2D30"/><path d="M91 33v-1c0-.834.496-1.738 1-2-.504-.27-1-1.168-1-2v-1c0-.84-.584-1-1-1v-1c2.083 0 2 1.166 2 2v1c0 .97.703.98 1 1v2c-.322.02-1 .053-1 1v1c0 .834.083 2-2 2v-1c.833 0 1-1 1-1zM85 33v-1c0-.834-.496-1.738-1-2 .504-.27 1-1.168 1-2v-1c0-.84.584-1 1-1v-1c-2.083 0-2 1.166-2 2v1c0 .97-.703.98-1 1v2c.322.02 1 .053 1 1v1c0 .834-.083 2 2 2v-1c-.833 0-1-1-1-1z" fill="#C5C5C5"/><path d="M89 13h1v-1c0-.537.74-1.613 1-2-.26-.39-1-1.467-1-2V7h-1V4h1c1.97.02 3 1.277 3 3 0 0-.004.965 0 1l1 1v2l-1 1c-.003.03 0 1 0 1 0 1.71-1.03 2.98-3 3h-1v-3zm-2 0h-1v-1c0-.537-.74-1.613-1-2 .26-.39 1-1.467 1-2V7h1V4h-1c-1.97.02-3 1.277-3 3 0 0 .004.965 0 1l-1 1v2l1 1c.003.03 0 1 0 1 0 1.71 1.317 2.98 3.286 3H87v-3z" fill="#F6F6F6"/><path d="M91 13v-1c0-.834.496-1.738 1-2-.504-.27-1-1.168-1-2V7c0-.84-.584-1-1-1V5c2.083 0 2 1.166 2 2v1c0 .97.703.98 1 1v2c-.322.02-1 .053-1 1v1c0 .834.083 2-2 2v-1c.833 0 1-1 1-1zm-6 0v-1c0-.834-.496-1.738-1-2 .504-.27 1-1.168 1-2V7c0-.84.584-1 1-1V5c-2.083 0-2 1.166-2 2v1c0 .97-.703.98-1 1v2c.322.02 1 .053 1 1v1c0 .834-.083 2 2 2v-1c-.833 0-1-1-1-1z" fill="#424242"/><path d="M73.5 34c-1.914 0-3.6-1.242-4.227-3H67.59c-.524.91-1.503 1.5-2.59 1.5-1.655 0-3-1.346-3-3s1.345-3 3-3c1.087 0 2.065.588 2.59 1.5h1.683c.626-1.76 2.313-3 4.227-3 2.48 0 4.5 2.018 4.5 4.5 0 2.48-2.02 4.5-4.5 4.5z" fill="#2D2D30"/><path d="M73.5 26c-1.76 0-3.204 1.308-3.45 3h-3.12c-.224-.86-1-1.5-1.93-1.5-1.104 0-2 .895-2 2 0 1.104.896 2 2 2 .93 0 1.706-.64 1.93-1.5h3.12c.246 1.69 1.69 3 3.45 3 1.93 0 3.5-1.57 3.5-3.5S75.43 26 73.5 26z" fill="#75BEFF"/><circle cx="73.5" cy="29.5" r="1.5" fill="#75BEFF"/><circle cx="73.5" cy="29.5" r="1.5" fill="#2B282E"/><path d="M73.5 14c-1.914 0-3.6-1.242-4.227-3H67.59c-.524.91-1.503 1.5-2.59 1.5-1.655 0-3-1.346-3-3s1.345-3 3-3c1.087 0 2.065.588 2.59 1.5h1.683c.626-1.76 2.313-3 4.227-3C75.98 5 78 7.018 78 9.5c0 2.48-2.02 4.5-4.5 4.5z" fill="#F6F6F6"/><path d="M73.5 6c-1.76 0-3.204 1.308-3.45 3h-3.12c-.224-.86-1-1.5-1.93-1.5-1.104 0-2 .895-2 2 0 1.104.896 2 2 2 .93 0 1.706-.64 1.93-1.5h3.12c.246 1.69 1.69 3 3.45 3 1.93 0 3.5-1.57 3.5-3.5S75.43 6 73.5 6zm0 5c-.827 0-1.5-.674-1.5-1.5 0-.828.673-1.5 1.5-1.5s1.5.672 1.5 1.5c0 .826-.673 1.5-1.5 1.5z" fill="#00539C"/><circle cx="73.5" cy="9.5" r="1.5" fill="#F0EFF1"/><path fill="#2D2D30" d="M58 28.586l-3-3L53.586 27h-2.172l1-1-4-4h-.828L42 27.586v.828l4 4L48.414 30H49v5h1.586l3 3h.828L58 34.414v-.828L55.914 31.5 58 29.414z"/><path fill="#E8AB53" d="M53.998 33.002L51 33v-4h2l-1 1 2 2 3-3-2-2-1 1h-5l2-2-3-3-5 5 3 3 2-2h2v5h3l-1 1 2 2 3-3-2-2z"/><path d="M58 8.586l-3-3L53.586 7h-2.172l1-1-4-4h-.828L42 7.586v.828l4 4L48.414 10H49v5h1.586l3 3h.828L58 14.414v-.828L55.914 11.5 58 9.414v-.828z" fill="#F6F6F6"/><path fill="#C27D1A" d="M53.998 13.002L51 13V9h2l-1 1 2 2 3-3-2-2-1 1h-5l2-2-3-3-5 5 3 3 2-2h2v5h3l-1 1 2 2 3-3-2-2z"/><path fill="#2D2D30" d="M29.263 24L34 26.37v5.235L27.21 35h-.42L22 32.605V27.37L28.74 24z"/><path fill="#75BEFF" d="M23 28v4l4 2 6-3v-4l-4-2zM27 29l-2-1 4-2 2 1z"/><path fill="#2B282E" d="M29 26l2 1-4 2-2-1z"/><path d="M29.263 4L34 6.37v5.235L27.21 15h-.42L22 12.606V7.37L28.74 4h.523z" fill="#F6F6F6"/><path d="M23 8v4l4 2 6-3V7l-4-2-6 3zm4 1l-2-1 4-2 2 1-4 2z" fill="#00539C"/><path d="M29 6l2 1-4 2-2-1 4-2z" fill="#F0EFF1"/><path fill="#2D2D30" d="M2 27.308v5.384L7.21 36h.58L13 32.692v-5.384L7.79 24h-.58z"/><path fill="#B180D7" d="M7.5 25L3 27.857v4.286L7.5 35l4.5-2.857v-4.286zM7 33.498l-3-1.905v-2.816l3 1.906zM4.642 28L7.5 26.185 10.358 28 7.5 29.815zM11 31.593l-3 1.905v-2.815l3-1.906z"/><path fill="#2B282E" d="M10.358 28L7.5 29.815 4.642 28 7.5 26.185zM4 28.777l3 1.906v2.815l-3-1.905zM8 33.498v-2.815l3-1.906v2.816z"/><path fill="#F6F6F6" d="M2 7.308v5.384L7.21 16h.58L13 12.692V7.308L7.79 4h-.58z"/><path d="M7.5 5L3 7.857v4.285L7.5 15l4.5-2.857V7.857L7.5 5zM7 13.498l-3-1.905V8.777l3 1.905v2.816zM4.642 8L7.5 6.185 10.358 8 7.5 9.815 4.642 8zM11 11.593l-3 1.905v-2.815l3-1.905v2.815z" fill="#652D90"/><path fill="#F0EFF1" d="M10.358 8L7.5 9.815 4.642 8 7.5 6.185zM4 8.777l3 1.906v2.815l-3-1.905zM8 13.498v-2.815l3-1.906v2.816z"/></svg>