<svg xmlns="http://www.w3.org/2000/svg" viewBox="0 0 16 16"><style>.icon-canvas-transparent{opacity:0;fill:#2d2d30}.icon-vs-out{fill:#2d2d30}.icon-vs-bg{fill:#c5c5c5}.icon-vs-fg{fill:#2b282e}</style><path class="icon-canvas-transparent" d="M16 16H0V0h16v16z" id="canvas"/><path class="icon-vs-out" d="M16 14H0V2h16v12z" id="outline"/><path class="icon-vs-bg" d="M11 5l3 3-3 3H9l2-2H8V7h3L9 5h2zm4-2v10H1V3h14zm-1 1H8v3H5l2-2H5L2 8l3 3h2L5 9h3v3h6V4z" id="iconBg"/><path class="icon-vs-fg" d="M8 9H5l2 2H5L2 8l3-3h2L5 7h3v2zm1 2l2-2H8v3h6V8l-3 3H9zm5-7v4l-3-3H9l2 2H8V4h6zM8 7v2h-.001L8 7z" id="iconFg"/></svg>