<svg xmlns="http://www.w3.org/2000/svg" width="16" height="16" viewBox="0 0 16 16">
  <title>Csharp(GrayDark)</title>
  <g>
    <rect width="16" height="16" fill="#ffe3ff" opacity="0"/>
    <g>
      <path d="M15.615,11.429,16,6.61V5.571h-.962L15.244,3H9.637L9.505,4.647l-.112-.222C8.71,3.069,6.47,3,6.028,3,3.6,3,1,4.445,1,8.5S3.6,14,6.028,14a4.587,4.587,0,0,0,2.805-.962L8.756,14h5.607l.206-2.571Z" fill="#252525"/>
      <path d="M4.029,8.5c0,2.194,1.124,3.057,2.19,3.057a2.555,2.555,0,0,0,1.69-.547l.473,1.015A3.055,3.055,0,0,1,6.029,13C4.881,13,2,12.613,2,8.5S4.881,4,6.029,4c.739,0,2.128.194,2.471.875L7.909,5.99a2.5,2.5,0,0,0-1.69-.547C5.077,5.443,4.029,6.258,4.029,8.5Zm10.877-.75L15,6.571H13.954L14.16,4h-1.2l-.206,2.571h-1.2L11.76,4h-1.2l-.206,2.571H9.309L9.214,7.75H10.26l-.12,1.5H9.094L9,10.429h1.046L9.84,13h1.2l.206-2.571h1.2L12.24,13h1.2l.206-2.571h1.046l.094-1.179H13.74l.12-1.5ZM12.54,9.25h-1.2l.12-1.5h1.2Z" fill="#86d086"/>
    </g>
  </g>
</svg>
