<svg xmlns="http://www.w3.org/2000/svg" width="16" height="16" viewBox="0 0 16 16">
  <title>Razor(GrayDark)</title>
  <g>
    <rect width="16" height="16" fill="#ffe3ff" opacity="0"/>
    <g>
      <rect width="16" height="16" fill="#ffe5ff" opacity="0"/>
      <path d="M7.956,15a6.9,6.9,0,0,1-5.018-1.892A6.611,6.611,0,0,1,1,8.19,7.045,7.045,0,0,1,3.021,3.058,6.935,6.935,0,0,1,8.16,1a7.054,7.054,0,0,1,4.848,1.728A5.886,5.886,0,0,1,15,7.321,5.376,5.376,0,0,1,13.878,10.8,3,3,0,0,1,12,11.924V14.19l-.635.249A9.348,9.348,0,0,1,7.956,15Z" fill="#252525"/>
      <path d="M11,12.391a6.953,6.953,0,0,1-2.854.543,4.751,4.751,0,0,1-3.532-1.321A4.718,4.718,0,0,1,3.3,8.139,5.107,5.107,0,0,1,4.665,4.5,4.508,4.508,0,0,1,8.1,3.051a4.614,4.614,0,0,1,3.382,1.2,4.159,4.159,0,0,1,1.22,3.1,4.253,4.253,0,0,1-.452,2.091,1.047,1.047,0,0,1-1.085.614c-.5,0-.855-.286-.75-1.395,0-.044.114-1.66.342-3.66H9.55c-.058,1-.1,1-.109,1H9.419c-.078,0-.25-.487-.517-.658a1.667,1.667,0,0,0-.91-.278,2.652,2.652,0,0,0-2.159.982,3.769,3.769,0,0,0-.819,2.488,2.6,2.6,0,0,0,.6,1.8,2.209,2.209,0,0,0,1.572.884c1.02,0,1.7-.217,2.054-1.217h.036c.005,1,.566,1.216,1.682,1.216a2.468,2.468,0,0,0,2.145-.937,4.542,4.542,0,0,0,.9-2.9A4.963,4.963,0,0,0,12.343,3.5,6.064,6.064,0,0,0,8.16,2.014,5.941,5.941,0,0,0,3.733,3.766,6.048,6.048,0,0,0,2,8.193a5.623,5.623,0,0,0,1.638,4.2A5.907,5.907,0,0,0,7.956,14,8.349,8.349,0,0,0,11,13.508ZM8.815,9.3a1.427,1.427,0,0,1-1.267.757,1.072,1.072,0,0,1-.885-.417A1.774,1.774,0,0,1,6.332,8.5a3.1,3.1,0,0,1,.491-1.793,1.5,1.5,0,0,1,1.293-.72q1.164,0,1.165,1.306A3.79,3.79,0,0,1,8.815,9.3Z" fill="#c674d3"/>
    </g>
  </g>
</svg>
