<svg xmlns="http://www.w3.org/2000/svg" width="16" height="16" viewBox="0 0 16 16">
  <title>CsharpProject(Gray)</title>
  <g>
    <rect width="16" height="16" fill="#ffe3ff" opacity="0"/>
    <g>
      <g>
        <rect y="1" width="14" height="12" fill="#f4f4f4"/>
        <rect x="1" y="2" width="12" height="10" fill="#323232"/>
        <rect x="1" y="2" width="12" height="3" fill="#323232"/>
        <rect x="2" y="5" width="11" height="7" fill="#ebebeb"/>
      </g>
      <g>
        <path d="M16,8h-.783l.172-2h-5.01l-.07.819-.265-.188A4.3,4.3,0,0,0,7.726,6C3.9,6,3.043,8.436,3,10.521,3.043,12.564,3.9,15,7.726,15a4.721,4.721,0,0,0,1.916-.4l-.035.4h5.01l.172-2h.872L16,9.048Z" fill="#f4f4f4"/>
        <path d="M5.664,10.5c.02,2.2,1.744,2.222,2.024,2.222a3.036,3.036,0,0,0,1.781-.581v1.412A3.378,3.378,0,0,1,7.73,14c-1.06,0-3.65-.03-3.723-3.5C4.08,7.03,6.67,7,7.73,7a3.378,3.378,0,0,1,1.739.447V8.859a3.036,3.036,0,0,0-1.781-.581C7.408,8.278,5.684,8.3,5.664,10.5Zm8.379-.5-.086,1h.872l-.086,1h-.872L13.7,14h-1l.171-2h-1L11.7,14h-1l.171-2H10l.086-1h.871l.086-1h-.872l.086-1h.872L11.3,7h1l-.171,2h1L13.3,7h1l-.171,2H15l-.086,1Zm-1,0h-1l-.086,1h1Z" fill="#388a34"/>
      </g>
    </g>
  </g>
</svg>
