<!-- Copyright 2000-2021 JetBrains s.r.o. and contributors. Use of this source code is governed by the Apache 2.0 license. -->
<svg width="16" height="16" viewBox="0 0 16 16" fill="none" xmlns="http://www.w3.org/2000/svg">
<path d="M7.99237 15L2.94069 13.6005L1.81494 1H14.1849L13.058 13.5985L7.99237 15Z" fill="#264DE4"/>
<path d="M12.0933 12.7963L13.0563 2.03027H8V13.9288L12.0933 12.7963Z" fill="#2965F1"/>
<path d="M4.39575 6.70361L4.53455 8.249H8.00001V6.70361H4.39575Z" fill="#EBEBEB"/>
<path d="M4.1167 3.57568L4.25747 5.1211H7.99984V3.57568H7.99449H4.1167Z" fill="#EBEBEB"/>
<path d="M8.00002 10.7172L7.99324 10.719L6.26856 10.2543L6.15831 9.02173H5.32025H4.60376L4.82072 11.4482L7.9929 12.327L8.00002 12.3251V10.7172Z" fill="#EBEBEB"/>
<path d="M11.5943 6.70361L11.8739 3.57568H7.99463V5.1211H10.1768L10.0358 6.70361H7.99463V8.249H9.90155L9.7218 10.2533L7.99463 10.7185V12.3263L11.1693 11.4482L11.1926 11.1871L11.5565 7.1186L11.5943 6.70361Z" fill="white"/>
</svg>
