<!-- Copyright 2000-2023 JetBrains s.r.o. and contributors. Use of this source code is governed by the Apache 2.0 license. -->
<svg width="16" height="16" viewBox="0 0 16 16" fill="none" xmlns="http://www.w3.org/2000/svg">
<rect x="2.5" y="2.5" width="11" height="11" rx="1.5" fill="#F2FCF3" stroke="#208A3C"/>
<path d="M6.18477 11.155C6.7081 11.465 7.29644 11.62 7.94977 11.62C8.5731 11.62 9.13309 11.4817 9.62977 11.205C10.1297 10.925 10.5197 10.54 10.7997 10.05C11.0831 9.55667 11.2247 9.00335 11.2247 8.39001V7.83H8.34977V8.825H10.0139C9.98788 9.13355 9.89316 9.41189 9.72977 9.66C9.54977 9.93334 9.30477 10.1467 8.99477 10.3C8.6881 10.45 8.34477 10.525 7.96477 10.525C7.54144 10.525 7.16144 10.4183 6.82477 10.205C6.4881 9.98834 6.22477 9.69001 6.03477 9.31001C5.8481 8.92668 5.75477 8.49 5.75477 8C5.75477 7.51 5.8481 7.07501 6.03477 6.695C6.22477 6.31167 6.48644 6.01335 6.81977 5.8C7.15644 5.58334 7.53477 5.475 7.95477 5.475C8.2881 5.475 8.59809 5.54 8.88477 5.67C9.17477 5.8 9.41477 5.975 9.60477 6.195C9.7981 6.415 9.9231 6.66 9.97977 6.93H11.1847C11.1281 6.45667 10.9497 6.02667 10.6497 5.64C10.3497 5.25 9.9631 4.94334 9.48977 4.72C9.01644 4.49334 8.5031 4.38 7.94977 4.38C7.29644 4.38 6.7081 4.53667 6.18477 4.85C5.66144 5.16 5.25144 5.59167 4.95477 6.145C4.6581 6.695 4.50977 7.31334 4.50977 8C4.50977 8.68667 4.6581 9.30667 4.95477 9.86C5.25144 10.41 5.66144 10.8417 6.18477 11.155Z" fill="#208A3C"/>
</svg>
