<!-- Copyright 2000-2023 JetBrains s.r.o. and contributors. Use of this source code is governed by the Apache 2.0 license. -->
<svg width="16" height="16" viewBox="0 0 16 16" fill="none" xmlns="http://www.w3.org/2000/svg">
<path d="M6.36812 4.9736C6.62969 4.77016 6.67681 4.39319 6.47337 4.13163C6.26992 3.87006 5.89296 3.82294 5.63139 4.02638L0.522461 7.99999L5.63139 11.9736C5.89296 12.177 6.26992 12.1299 6.47337 11.8684C6.67681 11.6068 6.62969 11.2298 6.36812 11.0264L2.47705 7.99999L6.36812 4.9736Z" fill="#57965C"/>
<path d="M9.63139 4.9736C9.36983 4.77016 9.3227 4.39319 9.52615 4.13163C9.72959 3.87006 10.1066 3.82294 10.3681 4.02638L15.4771 7.99999L10.3681 11.9736C10.1066 12.177 9.72959 12.1299 9.52615 11.8684C9.3227 11.6068 9.36983 11.2298 9.63139 11.0264L13.5225 7.99999L9.63139 4.9736Z" fill="#57965C"/>
</svg>
