<svg width="16" height="16" viewBox="0 0 16 16" fill="none" xmlns="http://www.w3.org/2000/svg">
<path d="M4 4V12C4 13.1046 4.89543 14 6 14H10C11.1046 14 12 13.1046 12 12V4C12 2.89543 11.1046 2 10 2H6C4.89543 2 4 2.89543 4 4Z" fill="#EBECF0"/>
<path fill-rule="evenodd" clip-rule="evenodd" d="M5 4V12C5 12.5523 5.44772 13 6 13H10C10.5523 13 11 12.5523 11 12V4C11 3.44772 10.5523 3 10 3H6C5.44772 3 5 3.44772 5 4ZM4 12V4C4 2.89543 4.89543 2 6 2H10C11.1046 2 12 2.89543 12 4V12C12 13.1046 11.1046 14 10 14H6C4.89543 14 4 13.1046 4 12Z" fill="#6C707E"/>
<path fill-rule="evenodd" clip-rule="evenodd" d="M1 4.5C1 4.22386 1.22386 4 1.5 4H3.99998V5H1.5C1.22386 5 1 4.77614 1 4.5ZM12 4H14.5C14.7761 4 15 4.22386 15 4.5C15 4.77614 14.7761 5 14.5 5H12V4ZM1 8C1 7.72386 1.22386 7.5 1.5 7.5H3.99998V8.5H1.5C1.22386 8.5 1 8.27614 1 8ZM12 7.5H14.5C14.7761 7.5 15 7.72386 15 8C15 8.27614 14.7761 8.5 14.5 8.5H12V7.5ZM1 11.5C1 11.2239 1.22386 11 1.5 11H3.99998V12H1.5C1.22386 12 1 11.7761 1 11.5ZM12 11H14.5C14.7761 11 15 11.2239 15 11.5C15 11.7761 14.7761 12 14.5 12H12V11Z" fill="#6C707E"/>
</svg>
