<?xml version="1.0" encoding="UTF-8"?>
<svg width="16" height="16" viewBox="0 -0.5 12 17" version="1.1" xmlns="http://www.w3.org/2000/svg">
  <g>
    <path style="stroke:none;fill-rule:evenodd;fill:rgb(82.745098%,21.960784%,20%);fill-opacity:1;" d="M 11.796875 7.714844 C 11.796875 10.882812 9.195312 13.449219 5.988281 13.449219 C 2.78125 13.449219 0.179688 10.882812 0.179688 7.714844 C 0.179688 4.546875 2.78125 1.976562 5.988281 1.976562 C 9.195312 1.976562 11.796875 4.546875 11.796875 7.714844 "/>
    <path style="stroke:none;fill-rule:nonzero;fill:rgb(93.72549%,23.921569%,22.745098%);fill-opacity:1;" d="M 0.417969 9.132812 C 0.417969 9.132812 -0.00390625 3.152344 5.703125 2.980469 L 5.304688 2.339844 L 2.210938 3.34375 L 1.324219 4.328125 L 0.550781 5.757812 L 0.105469 7.425781 L 0.238281 8.535156 "/>
    <path style="stroke:none;fill-rule:nonzero;fill:rgb(13.72549%,12.156863%,12.54902%);fill-opacity:1;" d="M 2.011719 3.800781 C 0.992188 4.808594 0.359375 6.195312 0.359375 7.734375 C 0.359375 9.273438 0.992188 10.664062 2.011719 11.671875 C 3.03125 12.675781 4.433594 13.296875 5.988281 13.296875 C 7.542969 13.296875 8.945312 12.675781 9.964844 11.671875 C 10.984375 10.664062 11.613281 9.273438 11.613281 7.734375 C 11.613281 6.195312 10.984375 4.808594 9.964844 3.800781 C 8.945312 2.792969 7.542969 2.171875 5.988281 2.171875 C 4.433594 2.171875 3.03125 2.792969 2.011719 3.800781 Z M 1.753906 11.914062 C 0.667969 10.84375 0 9.367188 0 7.734375 C 0 6.105469 0.667969 4.625 1.753906 3.558594 C 2.835938 2.488281 4.332031 1.824219 5.988281 1.824219 C 7.640625 1.824219 9.140625 2.488281 10.222656 3.558594 C 11.304688 4.625 11.976562 6.105469 11.976562 7.734375 C 11.976562 9.367188 11.304688 10.84375 10.222656 11.914062 C 9.140625 12.984375 7.640625 13.648438 5.988281 13.648438 C 4.332031 13.648438 2.835938 12.984375 1.753906 11.914062 "/>
    <path style="stroke:none;fill-rule:evenodd;fill:rgb(94.117647%,83.921569%,71.764706%);fill-opacity:1;" d="M 8.433594 7.746094 L 7.546875 7.875 L 6.351562 8.003906 L 5.578125 8.023438 L 4.828125 8.003906 L 4.25 7.832031 L 3.742188 7.296875 L 3.34375 6.207031 L 3.253906 5.972656 L 2.722656 5.800781 L 2.414062 5.308594 L 2.195312 4.605469 L 2.4375 3.984375 L 3.011719 3.792969 L 3.476562 4.007812 L 3.699219 4.476562 L 3.964844 4.433594 L 4.050781 4.328125 L 3.964844 3.835938 L 3.941406 3.214844 L 4.074219 2.359375 L 4.070312 1.871094 L 4.472656 1.25 L 5.179688 0.757812 L 6.417969 0.246094 L 7.789062 0.4375 L 8.984375 1.269531 L 9.539062 2.125 L 9.894531 2.746094 L 9.980469 4.285156 L 9.714844 5.609375 L 9.230469 6.785156 L 8.765625 7.402344 "/>
    <path style="stroke:none;fill-rule:evenodd;fill:rgb(20%,31.372549%,38.039216%);fill-opacity:1;" d="M 7.679688 11.441406 L 4.515625 11.570312 L 4.515625 12.082031 L 4.78125 13.878906 L 4.648438 14.027344 L 2.4375 13.300781 L 2.28125 13.042969 L 2.0625 10.628906 L 1.550781 9.175781 L 1.441406 8.835938 L 3.210938 7.660156 L 3.765625 7.445312 L 4.25 8.023438 L 4.671875 8.386719 L 5.15625 8.535156 L 5.378906 8.601562 L 5.644531 9.710938 L 5.84375 9.945312 L 6.351562 9.777344 L 6 10.4375 L 7.921875 11.3125 L 7.679688 11.441406 "/>
    <path style="stroke:none;fill-rule:evenodd;fill:rgb(42.745098%,41.960784%,42.745098%);fill-opacity:1;" d="M 2.4375 3.984375 L 3.011719 3.792969 L 3.476562 4.007812 L 3.699219 4.476562 L 3.964844 4.433594 L 4.03125 4.175781 L 3.898438 3.6875 L 4.03125 2.511719 L 3.917969 1.871094 L 4.316406 1.421875 L 5.179688 0.757812 L 4.9375 0.4375 L 3.71875 1.015625 L 3.210938 1.398438 L 2.921875 1.996094 L 2.480469 2.574219 L 2.347656 3.257812 L 2.4375 3.984375 "/>
    <path style="stroke:none;fill-rule:evenodd;fill:rgb(86.27451%,85.098039%,84.705882%);fill-opacity:1;" d="M 3.34375 1.976562 C 3.34375 1.976562 3.675781 1.1875 5.003906 0.800781 C 6.332031 0.417969 5.070312 0.523438 5.070312 0.523438 L 3.632812 1.058594 L 3.078125 1.589844 L 2.835938 2.019531 L 3.34375 1.976562 "/>
    <path style="stroke:none;fill-rule:evenodd;fill:rgb(86.27451%,85.098039%,84.705882%);fill-opacity:1;" d="M 2.679688 3.835938 C 2.679688 3.835938 2.214844 2.339844 3.984375 2.125 L 3.917969 1.871094 L 2.703125 2.148438 L 2.347656 3.257812 L 2.4375 3.984375 L 2.679688 3.835938 "/>
    <path style="stroke:none;fill-rule:evenodd;fill:rgb(96.862745%,89.411765%,80.392157%);fill-opacity:1;" d="M 3.386719 5.824219 L 3.679688 5.550781 C 3.679688 5.550781 3.808594 5.566406 3.832031 5.714844 C 3.851562 5.867188 3.917969 7.210938 4.871094 7.9375 C 4.957031 8.003906 4.164062 7.832031 4.164062 7.832031 L 3.453125 6.761719 "/>
    <path style="stroke:none;fill-rule:evenodd;fill:rgb(96.862745%,89.411765%,80.392157%);fill-opacity:1;" d="M 7.460938 5.417969 C 7.460938 5.417969 7.511719 4.769531 7.691406 4.820312 C 7.871094 4.867188 7.871094 5.042969 7.871094 5.042969 C 7.871094 5.042969 7.433594 5.316406 7.460938 5.417969 "/>
    <path style="stroke:none;fill-rule:nonzero;fill:rgb(96.862745%,89.411765%,80.392157%);fill-opacity:1;" d="M 9.296875 3.042969 C 9.296875 3.042969 8.929688 3.121094 8.898438 3.429688 C 8.863281 3.738281 9.296875 3.492188 9.363281 3.472656 "/>
    <path style="stroke:none;fill-rule:nonzero;fill:rgb(96.862745%,89.411765%,80.392157%);fill-opacity:1;" d="M 6.617188 3.066406 C 6.617188 3.066406 6.132812 3.128906 6.132812 3.429688 C 6.132812 3.730469 6.683594 3.707031 6.839844 3.578125 "/>
    <path style="stroke:none;fill-rule:evenodd;fill:rgb(96.862745%,89.411765%,80.392157%);fill-opacity:1;" d="M 3.609375 4.453125 C 3.609375 4.453125 2.769531 3.964844 2.679688 4.433594 C 2.589844 4.902344 2.394531 5.246094 2.8125 5.738281 L 2.527344 5.652344 L 2.261719 4.988281 L 2.171875 4.347656 L 2.679688 3.835938 L 3.253906 3.878906 L 3.585938 4.132812 L 3.609375 4.453125 "/>
    <path style="stroke:none;fill-rule:evenodd;fill:rgb(96.862745%,89.411765%,80.392157%);fill-opacity:1;" d="M 4.007812 3.109375 C 4.007812 3.109375 4.382812 1.230469 6.285156 0.867188 C 7.851562 0.566406 8.675781 0.929688 8.984375 1.269531 C 8.984375 1.269531 7.589844 -0.332031 6.265625 0.160156 C 4.9375 0.652344 3.964844 1.550781 3.984375 2.125 C 4.023438 3.109375 4.007812 3.109375 4.007812 3.109375 "/>
    <path style="stroke:none;fill-rule:evenodd;fill:rgb(96.862745%,89.411765%,80.392157%);fill-opacity:1;" d="M 9.140625 1.484375 C 9.140625 1.484375 8.5 1.464844 8.476562 2.019531 C 8.476562 2.019531 8.476562 2.105469 8.519531 2.191406 C 8.519531 2.191406 9.03125 1.632812 9.339844 1.933594 "/>
    <path style="stroke:none;fill-rule:evenodd;fill:rgb(96.862745%,89.411765%,80.392157%);fill-opacity:1;" d="M 6.332031 2.246094 C 6.332031 2.246094 6.21875 1.394531 5.46875 1.890625 C 4.980469 2.210938 5.027344 2.660156 5.113281 2.746094 C 5.203125 2.832031 5.179688 3.003906 5.246094 2.886719 C 5.3125 2.765625 5.289062 2.382812 5.535156 2.277344 C 5.777344 2.167969 6.175781 2.050781 6.332031 2.246094 "/>
    <path style="stroke:none;fill-rule:evenodd;fill:rgb(28.627451%,44.705882%,54.509804%);fill-opacity:1;" d="M 4.25 8.023438 L 2.171875 8.921875 C 2.171875 8.921875 3.035156 12.234375 2.589844 13.257812 L 2.28125 13.152344 L 2.261719 11.890625 L 1.683594 9.496094 L 1.441406 8.835938 L 3.609375 7.425781 L 4.25 8.023438 "/>
    <path style="stroke:none;fill-rule:evenodd;fill:rgb(28.627451%,44.705882%,54.509804%);fill-opacity:1;" d="M 4.464844 9.855469 L 4.761719 10.203125 L 4.761719 11.484375 L 4.40625 11.484375 C 4.40625 11.484375 4.363281 10.585938 4.363281 10.480469 C 4.363281 10.375 4.40625 9.988281 4.40625 9.988281 "/>
    <path style="stroke:none;fill-rule:evenodd;fill:rgb(28.627451%,44.705882%,54.509804%);fill-opacity:1;" d="M 4.472656 11.675781 L 3.476562 11.71875 L 3.765625 11.914062 L 4.472656 12.019531 "/>
    <path style="stroke:none;fill-rule:evenodd;fill:rgb(20%,31.372549%,38.039216%);fill-opacity:1;" d="M 7.878906 11.464844 L 8.699219 11.441406 L 8.898438 13.40625 L 8.054688 13.515625 L 7.878906 11.464844 "/>
    <path style="stroke:none;fill-rule:evenodd;fill:rgb(20%,31.372549%,38.039216%);fill-opacity:1;" d="M 8.101562 11.464844 L 9.339844 11.398438 C 9.339844 11.398438 9.847656 10.160156 9.847656 10.097656 C 9.847656 10.03125 10.289062 8.300781 10.289062 8.300781 L 9.296875 7.296875 L 9.097656 7.125 L 8.566406 7.640625 L 8.566406 9.625 L 8.101562 11.464844 "/>
    <path style="stroke:none;fill-rule:evenodd;fill:rgb(28.627451%,44.705882%,54.509804%);fill-opacity:1;" d="M 8.652344 11.3125 L 7.878906 11.464844 L 7.988281 12.0625 C 8.277344 12.191406 8.765625 11.847656 8.765625 11.847656 "/>
    <path style="stroke:none;fill-rule:evenodd;fill:rgb(28.627451%,44.705882%,54.509804%);fill-opacity:1;" d="M 8.675781 7.574219 L 10.222656 8.6875 L 10.269531 8.171875 L 9.097656 7.125 L 8.675781 7.574219 "/>
    <path style="stroke:none;fill-rule:evenodd;fill:rgb(100%,100%,100%);fill-opacity:1;" d="M 5.238281 15.671875 L 4.78125 13.878906 L 4.554688 12.554688 L 4.515625 11.570312 L 6.589844 11.464844 L 7.878906 11.464844 L 7.761719 13.707031 L 7.960938 15.4375 L 7.9375 15.757812 L 6.257812 15.886719 L 5.238281 15.671875 "/>
    <path style="stroke:none;fill-rule:evenodd;fill:rgb(86.27451%,85.098039%,84.705882%);fill-opacity:1;" d="M 7.589844 11.441406 C 7.589844 11.441406 7.480469 13.664062 7.8125 15.246094 C 7.8125 15.246094 7.148438 15.652344 6.175781 15.757812 L 8.035156 15.695312 L 8.253906 15.566406 L 7.988281 12.0625 L 7.921875 11.3125 "/>
    <path style="stroke:none;fill-rule:evenodd;fill:rgb(100%,100%,100%);fill-opacity:1;" d="M 8.933594 13.238281 L 9.796875 13.003906 L 11.433594 12.917969 L 11.679688 12.191406 L 11.234375 10.929688 L 10.726562 10.867188 L 10.019531 11.078125 L 9.339844 11.398438 L 8.980469 11.335938 L 8.699219 11.441406 "/>
    <path style="stroke:none;fill-rule:evenodd;fill:rgb(86.27451%,85.098039%,84.705882%);fill-opacity:1;" d="M 8.917969 12.808594 C 8.917969 12.808594 9.496094 12.554688 9.582031 12.574219 L 9.339844 11.398438 L 9.628906 11.292969 C 9.628906 11.292969 9.828125 12.402344 9.828125 12.53125 C 9.828125 12.53125 11.066406 12.597656 11.175781 12.597656 C 11.175781 12.597656 11.441406 12.105469 11.375 11.589844 L 11.617188 12.277344 L 11.640625 12.660156 L 11.285156 13.171875 L 10.886719 13.257812 L 10.222656 13.238281 L 10.003906 12.960938 L 9.230469 13.066406 L 8.984375 13.152344 "/>
    <path style="stroke:none;fill-rule:nonzero;fill:rgb(100%,100%,100%);fill-opacity:1;" d="M 8.050781 11.292969 L 7.5625 10.097656 L 7.054688 9.390625 C 7.054688 9.390625 7.164062 9.09375 7.320312 9.09375 C 7.476562 9.09375 7.828125 9.09375 7.828125 9.09375 L 8.316406 9.261719 L 8.269531 10.054688 L 8.050781 11.292969 "/>
    <path style="stroke:none;fill-rule:evenodd;fill:rgb(86.27451%,85.098039%,84.705882%);fill-opacity:1;" d="M 8.144531 10.886719 C 8.144531 10.886719 7.527344 9.734375 7.527344 9.5625 C 7.527344 9.5625 7.636719 9.304688 7.789062 9.371094 C 7.945312 9.433594 8.277344 9.605469 8.277344 9.605469 L 8.277344 9.199219 L 7.527344 9.050781 L 7.015625 9.113281 L 7.878906 11.078125 L 8.054688 11.101562 "/>
    <path style="stroke:none;fill-rule:nonzero;fill:rgb(100%,100%,100%);fill-opacity:1;" d="M 5.4375 8.066406 L 4.828125 8.003906 L 4.25 7.832031 L 4.25 8.023438 L 4.53125 8.324219 L 5.417969 8.707031 "/>
    <path style="stroke:none;fill-rule:evenodd;fill:rgb(86.27451%,85.098039%,84.705882%);fill-opacity:1;" d="M 4.449219 8.128906 C 4.449219 8.128906 5.136719 8.410156 5.355469 8.34375 L 5.378906 8.601562 L 4.761719 8.472656 L 4.382812 8.214844 L 4.449219 8.128906 "/>
    <path style="stroke:none;fill-rule:evenodd;fill:rgb(82.745098%,21.960784%,20%);fill-opacity:1;" d="M 8.933594 9.164062 C 8.558594 9.152344 8.21875 9.109375 7.921875 9.03125 C 7.941406 8.914062 7.902344 8.796875 7.933594 8.710938 C 8.015625 8.65625 8.15625 8.65625 8.28125 8.640625 C 8.171875 8.589844 8.019531 8.570312 7.894531 8.601562 C 7.890625 8.519531 7.855469 8.46875 7.832031 8.402344 C 8.042969 8.332031 8.539062 7.855469 8.820312 8.011719 C 8.953125 8.085938 9.011719 8.515625 9.023438 8.726562 C 9.03125 8.898438 9.003906 9.074219 8.933594 9.164062 "/>
    <path style="fill:none;stroke-width:2;stroke-linecap:butt;stroke-linejoin:miter;stroke:rgb(82.745098%,21.960784%,20%);stroke-opacity:1;stroke-miterlimit:4;" d="M 134.599479 106.640625 C 128.949479 106.823438 123.829167 107.49375 119.35625 108.7125 C 119.650521 110.540625 119.061979 112.36875 119.532813 113.709375 C 120.76875 114.5625 122.8875 114.5625 124.770833 114.80625 C 123.122917 115.598438 120.827604 115.903125 118.944271 115.415625 C 118.885417 116.695312 118.355729 117.4875 118.002604 118.523438 C 121.180729 119.620313 128.655208 127.054688 132.892708 124.617188 C 134.89375 123.459375 135.776563 116.75625 135.953125 113.465625 C 136.070833 110.784375 135.658854 108.042188 134.599479 106.640625 Z M 134.599479 106.640625 " transform="matrix(0.0663717,0,0,-0.0641026,0,16)"/>
    <path style="stroke:none;fill-rule:evenodd;fill:rgb(82.745098%,21.960784%,20%);fill-opacity:1;" d="M 7.136719 8.570312 C 7.136719 8.597656 7.136719 8.628906 7.132812 8.65625 C 7.015625 8.730469 6.828125 8.726562 6.699219 8.789062 C 6.886719 8.796875 7.039062 8.84375 7.167969 8.90625 C 7.164062 8.972656 7.160156 9.042969 7.160156 9.113281 C 6.945312 9.253906 6.746094 9.464844 6.496094 9.597656 C 6.375 9.660156 5.957031 9.824219 5.828125 9.796875 C 5.757812 9.78125 5.75 9.691406 5.71875 9.613281 C 5.660156 9.4375 5.519531 9.160156 5.507812 8.898438 C 5.488281 8.566406 5.457031 8.011719 5.824219 8.082031 C 6.125 8.136719 6.46875 8.269531 6.699219 8.390625 C 6.839844 8.464844 6.921875 8.554688 7.136719 8.570312 "/>
    <path style="fill:none;stroke-width:2;stroke-linecap:butt;stroke-linejoin:miter;stroke:rgb(82.745098%,21.960784%,20%);stroke-opacity:1;stroke-miterlimit:4;" d="M 107.526563 115.903125 C 107.526563 115.476562 107.526563 114.989063 107.467708 114.5625 C 105.702083 113.404688 102.877083 113.465625 100.934896 112.490625 C 103.759896 112.36875 106.055208 111.6375 107.997396 110.6625 C 107.938542 109.626563 107.879688 108.529688 107.879688 107.432813 C 104.642708 105.239063 101.641146 101.948438 97.874479 99.876563 C 96.05 98.901563 89.752604 96.342188 87.810417 96.76875 C 86.751042 97.0125 86.633333 98.414062 86.1625 99.632812 C 85.279688 102.375 83.160938 106.701563 82.984375 110.784375 C 82.690104 115.964063 82.219271 124.617188 87.751563 123.520313 C 92.283333 122.667188 97.4625 120.595313 100.934896 118.70625 C 103.053646 117.548438 104.289583 116.146875 107.526563 115.903125 Z M 107.526563 115.903125 " transform="matrix(0.0663717,0,0,-0.0641026,0,16)"/>
    <path style="stroke:none;fill-rule:evenodd;fill:rgb(82.745098%,21.960784%,20%);fill-opacity:1;" d="M 7.351562 8.96875 C 7.316406 8.785156 7.28125 8.734375 7.292969 8.578125 C 7.792969 8.257812 7.886719 9.128906 7.351562 8.96875 "/>
    <path style="fill:none;stroke-width:2;stroke-linecap:butt;stroke-linejoin:miter;stroke:rgb(82.745098%,21.960784%,20%);stroke-opacity:1;stroke-miterlimit:4;" d="M 110.763542 109.6875 C 110.233854 112.551563 109.704167 113.34375 109.880729 115.78125 C 117.414063 120.778125 118.826563 107.189063 110.763542 109.6875 Z M 110.763542 109.6875 " transform="matrix(0.0663717,0,0,-0.0641026,0,16)"/>
    <path style="stroke:none;fill-rule:evenodd;fill:rgb(93.72549%,23.921569%,22.745098%);fill-opacity:1;" d="M 8.070312 9.113281 C 8.070312 9.113281 7.917969 8.898438 8.027344 8.835938 C 8.136719 8.769531 8.25 8.835938 8.316406 8.730469 C 8.382812 8.621094 8.316406 8.558594 8.335938 8.429688 C 8.359375 8.300781 8.46875 8.28125 8.582031 8.257812 C 8.691406 8.238281 9 8.195312 9.046875 8.300781 L 8.914062 7.917969 L 8.648438 7.832031 L 7.804688 8.300781 L 7.761719 8.535156 L 7.761719 9.007812 "/>
    <path style="stroke:none;fill-rule:evenodd;fill:rgb(93.72549%,23.921569%,22.745098%);fill-opacity:1;" d="M 5.75 9.820312 C 5.722656 9.484375 5.695312 9.152344 5.664062 8.820312 C 5.617188 8.320312 5.785156 8.410156 6.234375 8.410156 C 6.300781 8.410156 6.652344 8.488281 6.679688 8.535156 C 6.796875 8.773438 6.476562 8.722656 6.816406 8.902344 C 7.105469 9.050781 7.613281 8.808594 7.496094 8.472656 C 7.429688 8.398438 7.15625 8.449219 7.058594 8.398438 C 6.886719 8.3125 6.714844 8.226562 6.542969 8.140625 C 6.320312 8.03125 5.8125 7.871094 5.578125 8.023438 C 4.984375 8.414062 5.617188 9.386719 5.828125 9.796875 "/>
    <path style="stroke:none;fill-rule:evenodd;fill:rgb(13.72549%,12.156863%,12.54902%);fill-opacity:1;" d="M 6.332031 2.246094 C 5.726562 2.113281 5.429688 2.492188 5.246094 2.886719 C 5.082031 2.847656 5.148438 2.632812 5.1875 2.523438 C 5.296875 2.238281 5.730469 1.855469 6.085938 1.90625 C 6.238281 1.929688 6.445312 2.0625 6.332031 2.246094 "/>
    <path style="stroke:none;fill-rule:evenodd;fill:rgb(13.72549%,12.156863%,12.54902%);fill-opacity:1;" d="M 9.269531 2.910156 C 9.277344 2.910156 9.289062 2.910156 9.296875 2.914062 C 9.433594 3.1875 9.550781 3.476562 9.722656 3.714844 C 9.609375 3.976562 8.851562 4.203125 8.863281 3.738281 C 9.027344 3.671875 9.308594 3.726562 9.453125 3.636719 C 9.371094 3.414062 9.25 3.226562 9.269531 2.910156 "/>
    <path style="stroke:none;fill-rule:evenodd;fill:rgb(13.72549%,12.156863%,12.54902%);fill-opacity:1;" d="M 6.640625 2.917969 C 6.769531 3.148438 6.8125 3.386719 6.996094 3.5625 C 7.078125 3.636719 7.238281 3.734375 7.160156 3.949219 C 7.140625 4 7.003906 4.113281 6.925781 4.136719 C 6.636719 4.21875 5.96875 4.15625 6.195312 3.808594 C 6.433594 3.820312 6.753906 3.957031 6.929688 3.789062 C 6.792969 3.582031 6.550781 3.164062 6.640625 2.917969 "/>
    <path style="stroke:none;fill-rule:evenodd;fill:rgb(13.72549%,12.156863%,12.54902%);fill-opacity:1;" d="M 9.160156 5.246094 C 8.730469 5.511719 8.246094 5.804688 7.539062 5.738281 C 7.386719 5.609375 7.328125 5.328125 7.476562 5.140625 C 7.550781 5.265625 7.503906 5.5 7.71875 5.535156 C 8.121094 5.601562 8.585938 5.300781 8.875 5.191406 C 9.054688 4.902344 8.863281 4.792969 8.699219 4.605469 C 8.367188 4.21875 7.925781 3.742188 7.941406 3.164062 C 8.074219 3.070312 8.085938 3.308594 8.105469 3.351562 C 8.277344 3.742188 8.714844 4.242188 9.03125 4.574219 C 9.109375 4.660156 9.238281 4.738281 9.25 4.792969 C 9.292969 4.949219 9.144531 5.140625 9.160156 5.246094 "/>
    <path style="stroke:none;fill-rule:evenodd;fill:rgb(13.72549%,12.156863%,12.54902%);fill-opacity:1;" d="M 3.457031 4.960938 C 3.324219 4.886719 3.289062 4.558594 3.132812 4.550781 C 2.902344 4.535156 2.945312 4.976562 2.945312 5.234375 C 2.789062 5.097656 2.761719 4.671875 2.875 4.457031 C 2.746094 4.394531 2.6875 4.523438 2.613281 4.570312 C 2.707031 3.914062 3.609375 4.265625 3.457031 4.960938 "/>
    <path style="stroke:none;fill-rule:evenodd;fill:rgb(13.72549%,12.156863%,12.54902%);fill-opacity:1;" d="M 9.4375 5.519531 C 9.234375 5.886719 8.949219 6.296875 8.359375 6.308594 C 8.347656 6.1875 8.339844 6.007812 8.359375 5.933594 C 8.8125 5.890625 9.089844 5.671875 9.4375 5.519531 "/>
    <path style="stroke:none;fill-rule:evenodd;fill:rgb(13.72549%,12.156863%,12.54902%);fill-opacity:1;" d="M 6.605469 5.757812 C 6.984375 5.949219 7.675781 5.96875 8.1875 5.957031 C 8.214844 6.0625 8.214844 6.199219 8.214844 6.328125 C 7.558594 6.363281 6.777344 6.203125 6.605469 5.757812 "/>
    <path style="stroke:none;fill-rule:evenodd;fill:rgb(13.72549%,12.156863%,12.54902%);fill-opacity:1;" d="M 6.535156 6.113281 C 6.792969 6.746094 7.691406 6.675781 8.445312 6.65625 C 8.414062 6.738281 8.339844 6.835938 8.25 6.871094 C 8.007812 6.964844 7.339844 7.039062 7.003906 6.867188 C 6.792969 6.757812 6.65625 6.507812 6.539062 6.363281 C 6.480469 6.292969 6.203125 6.113281 6.535156 6.113281 "/>
    <path style="stroke:none;fill-rule:evenodd;fill:rgb(50.588235%,69.019608%,76.862745%);fill-opacity:1;" d="M 9.128906 9.601562 C 8.824219 10.105469 8.53125 10.625 8.167969 11.074219 C 8.320312 10.640625 8.386719 9.917969 8.410156 9.367188 C 8.726562 9.222656 9 9.398438 9.128906 9.601562 "/>
    <path style="stroke:none;fill-rule:evenodd;fill:rgb(13.72549%,12.156863%,12.54902%);fill-opacity:1;" d="M 10.777344 11.417969 C 10.433594 11.484375 10.191406 11.808594 9.859375 11.785156 C 10.042969 11.535156 10.363281 11.429688 10.777344 11.417969 "/>
    <path style="stroke:none;fill-rule:evenodd;fill:rgb(13.72549%,12.156863%,12.54902%);fill-opacity:1;" d="M 10.925781 11.9375 C 10.648438 11.964844 10.320312 12.007812 10.035156 11.988281 C 10.171875 11.789062 10.6875 11.855469 10.925781 11.9375 "/>
    <path style="stroke:none;fill-rule:evenodd;fill:rgb(13.72549%,12.156863%,12.54902%);fill-opacity:1;" d="M 11.023438 12.382812 C 10.710938 12.390625 10.320312 12.382812 10.023438 12.359375 C 10.199219 12.175781 10.820312 12.292969 11.023438 12.382812 "/>
    <path style="stroke:none;fill-rule:evenodd;fill:rgb(86.27451%,85.098039%,84.705882%);fill-opacity:1;" d="M 8.539062 13.605469 C 8.585938 13.984375 8.742188 14.371094 8.722656 14.785156 C 8.546875 14.84375 8.449219 14.890625 8.214844 14.890625 C 8.199219 14.539062 8.148438 13.996094 8.164062 13.660156 C 8.28125 13.667969 8.449219 13.582031 8.539062 13.605469 "/>
    <path style="stroke:none;fill-rule:evenodd;fill:rgb(94.117647%,83.921569%,71.764706%);fill-opacity:1;" d="M 8.035156 7.996094 C 7.875 8.097656 7.742188 8.21875 7.589844 8.324219 C 7.253906 8.34375 7.074219 8.304688 6.824219 8.117188 C 6.832031 8.101562 6.855469 8.109375 6.855469 8.089844 C 7.214844 8.246094 7.671875 8.027344 8.035156 7.996094 "/>
    <path style="stroke:none;fill-rule:evenodd;fill:rgb(50.588235%,69.019608%,76.862745%);fill-opacity:1;" d="M 6.148438 10.359375 C 6.246094 9.949219 6.632812 9.734375 6.984375 9.507812 C 7.347656 9.949219 7.566406 10.523438 7.8125 11.074219 C 7.238281 10.90625 6.652344 10.636719 6.148438 10.359375 "/>
    <path style="stroke:none;fill-rule:evenodd;fill:rgb(13.72549%,12.156863%,12.54902%);fill-opacity:1;" d="M 8.164062 13.660156 C 8.148438 13.996094 8.199219 14.539062 8.214844 14.890625 C 8.449219 14.890625 8.546875 14.84375 8.722656 14.785156 C 8.742188 14.371094 8.585938 13.984375 8.539062 13.605469 C 8.449219 13.582031 8.28125 13.667969 8.164062 13.660156 Z M 4.546875 11.738281 C 4.699219 13.101562 4.921875 14.242188 5.328125 15.449219 C 6.234375 15.714844 7.320312 15.734375 8.121094 15.496094 C 7.972656 14.816406 8.039062 13.988281 7.953125 13.265625 C 7.886719 12.71875 7.921875 12.167969 7.832031 11.613281 C 6.863281 11.417969 5.496094 11.566406 4.546875 11.738281 Z M 8.058594 11.621094 C 8.050781 12.207031 8.085938 12.78125 8.132812 13.367188 C 8.367188 13.332031 8.523438 13.3125 8.738281 13.265625 C 8.667969 12.703125 8.679688 12.070312 8.535156 11.570312 C 8.371094 11.570312 8.226562 11.570312 8.058594 11.621094 Z M 9.238281 11.527344 C 9.128906 11.503906 9 11.527344 8.894531 11.527344 C 8.945312 12.003906 9.066406 12.53125 9.105469 13.03125 C 9.273438 13.035156 9.359375 12.960938 9.496094 12.933594 C 9.503906 12.496094 9.457031 11.890625 9.238281 11.527344 Z M 11.023438 13.101562 C 11.367188 13.019531 11.585938 12.613281 11.488281 12.191406 C 11.425781 11.910156 11.308594 11.378906 11.183594 11.199219 C 11.09375 11.066406 10.847656 10.890625 10.648438 11.011719 C 10.328125 11.210938 9.761719 11.269531 9.527344 11.511719 C 9.644531 11.890625 9.679688 12.410156 9.726562 12.886719 C 10.128906 12.910156 10.625 12.78125 10.957031 12.921875 C 10.726562 12.992188 10.421875 12.992188 10.222656 13.101562 C 10.386719 13.175781 10.773438 13.160156 11.023438 13.101562 Z M 7.8125 11.074219 C 7.566406 10.523438 7.347656 9.949219 6.984375 9.507812 C 6.632812 9.734375 6.246094 9.949219 6.148438 10.359375 C 6.652344 10.636719 7.238281 10.90625 7.8125 11.074219 Z M 8.410156 9.367188 C 8.386719 9.917969 8.320312 10.640625 8.167969 11.074219 C 8.53125 10.625 8.824219 10.105469 9.128906 9.601562 C 9 9.398438 8.726562 9.222656 8.410156 9.367188 Z M 7.730469 9.132812 C 7.59375 9.121094 7.476562 9.285156 7.296875 9.214844 C 7.257812 9.257812 7.21875 9.304688 7.179688 9.347656 C 7.574219 9.808594 7.753906 10.460938 8.058594 11 C 8.21875 10.480469 8.203125 9.914062 8.238281 9.347656 C 8.011719 9.359375 7.886719 9.148438 7.730469 9.132812 Z M 7.292969 8.578125 C 7.28125 8.734375 7.316406 8.785156 7.351562 8.96875 C 7.886719 9.128906 7.792969 8.257812 7.292969 8.578125 Z M 6.699219 8.390625 C 6.46875 8.269531 6.125 8.136719 5.824219 8.082031 C 5.457031 8.011719 5.488281 8.566406 5.507812 8.898438 C 5.519531 9.160156 5.660156 9.4375 5.71875 9.613281 C 5.75 9.691406 5.757812 9.78125 5.828125 9.796875 C 5.957031 9.824219 6.375 9.660156 6.496094 9.597656 C 6.746094 9.464844 6.945312 9.253906 7.160156 9.113281 C 7.160156 9.042969 7.164062 8.972656 7.167969 8.90625 C 7.039062 8.84375 6.886719 8.796875 6.699219 8.789062 C 6.828125 8.726562 7.015625 8.730469 7.132812 8.65625 C 7.136719 8.628906 7.136719 8.597656 7.136719 8.570312 C 6.921875 8.554688 6.839844 8.464844 6.699219 8.390625 Z M 4.496094 8.003906 C 4.304688 8.191406 5.035156 8.445312 5.265625 8.460938 C 5.265625 8.339844 5.335938 8.230469 5.320312 8.144531 C 5.046875 8.097656 4.683594 8.128906 4.496094 8.003906 Z M 6.855469 8.089844 C 6.855469 8.109375 6.832031 8.101562 6.824219 8.117188 C 7.074219 8.304688 7.253906 8.34375 7.589844 8.324219 C 7.742188 8.21875 7.875 8.097656 8.035156 7.996094 C 7.671875 8.027344 7.214844 8.246094 6.855469 8.089844 Z M 9.023438 8.726562 C 9.011719 8.515625 8.953125 8.085938 8.820312 8.011719 C 8.539062 7.855469 8.042969 8.332031 7.832031 8.402344 C 7.855469 8.46875 7.890625 8.519531 7.894531 8.601562 C 8.019531 8.570312 8.171875 8.589844 8.28125 8.640625 C 8.15625 8.65625 8.015625 8.65625 7.933594 8.710938 C 7.902344 8.796875 7.941406 8.914062 7.921875 9.03125 C 8.21875 9.109375 8.558594 9.152344 8.933594 9.164062 C 9.003906 9.074219 9.03125 8.898438 9.023438 8.726562 Z M 4.171875 8.183594 C 4.113281 8.144531 3.707031 7.632812 3.652344 7.652344 C 2.914062 7.933594 2.226562 8.417969 1.609375 8.878906 C 2.199219 10.09375 2.433594 11.582031 2.476562 13.015625 C 3.148438 13.320312 3.738281 13.757812 4.648438 13.804688 C 4.542969 13.082031 4.449219 12.441406 4.386719 11.761719 C 4.160156 11.667969 3.832031 11.765625 3.617188 11.730469 C 3.613281 11.484375 3.945312 11.621094 3.972656 11.457031 C 3.992188 11.328125 3.789062 11.320312 3.855469 11.117188 C 4.023438 11.175781 4.109375 11.308594 4.289062 11.355469 C 4.453125 11.011719 4.289062 10.402344 4.3125 10.113281 C 4.316406 10.058594 4.339844 9.8125 4.464844 9.855469 C 4.574219 9.894531 4.457031 10.507812 4.472656 10.78125 C 4.480469 11.035156 4.4375 11.277344 4.542969 11.433594 C 5.425781 11.320312 6.320312 11.246094 7.273438 11.21875 C 7.066406 11.132812 6.816406 11.050781 6.542969 10.902344 C 6.394531 10.820312 5.925781 10.652344 5.886719 10.515625 C 5.816406 10.300781 6.0625 10.183594 6.105469 10 C 5.660156 10.234375 5.574219 9.773438 5.46875 9.449219 C 5.375 9.15625 5.320312 8.9375 5.296875 8.765625 C 4.914062 8.589844 4.503906 8.410156 4.171875 8.183594 Z M 8.632812 7.714844 C 9.246094 7.425781 9.355469 8.789062 9.117188 9.226562 C 9.152344 9.359375 9.28125 9.40625 9.332031 9.527344 C 8.992188 10.117188 8.609375 10.671875 8.261719 11.257812 C 8.519531 11.101562 8.890625 11.226562 9.199219 11.109375 C 9.308594 11.070312 9.390625 10.820312 9.476562 10.625 C 9.707031 10.078125 9.953125 9.394531 10.0625 8.875 C 10.085938 8.757812 10.152344 8.5 10.136719 8.394531 C 10.109375 8.207031 9.847656 8.066406 9.710938 7.949219 C 9.464844 7.734375 9.308594 7.542969 9.046875 7.34375 C 8.945312 7.492188 8.71875 7.59375 8.632812 7.714844 Z M 2.769531 2.460938 C 2.476562 2.769531 2.539062 3.351562 2.574219 3.765625 C 3.101562 3.445312 3.804688 3.792969 3.796875 4.339844 C 4.050781 4.332031 3.890625 4.035156 3.847656 3.84375 C 3.699219 3.214844 4.097656 2.535156 3.863281 1.960938 C 3.414062 1.996094 3.039062 2.171875 2.769531 2.460938 Z M 4.863281 0.65625 C 4.199219 0.839844 3.351562 1.304688 3.082031 1.878906 C 3.292969 1.847656 3.4375 1.746094 3.644531 1.734375 C 3.722656 1.726562 3.828125 1.765625 3.917969 1.742188 C 4.097656 1.699219 4.25 1.308594 4.382812 1.164062 C 4.515625 1.023438 4.675781 0.964844 4.785156 0.835938 C 4.855469 0.800781 4.957031 0.804688 4.960938 0.703125 C 4.929688 0.671875 4.898438 0.648438 4.863281 0.65625 Z M 8.308594 0.828125 C 7.621094 0.453125 6.457031 0.171875 5.726562 0.523438 C 5.136719 0.808594 4.339844 1.277344 4.070312 1.871094 C 4.324219 2.445312 3.992188 2.972656 3.972656 3.558594 C 3.960938 3.867188 4.125 4.136719 4.136719 4.476562 C 4.050781 4.613281 3.785156 4.632812 3.601562 4.621094 C 3.539062 4.324219 3.429688 3.988281 3.113281 3.953125 C 2.660156 3.90625 2.332031 4.265625 2.3125 4.644531 C 2.285156 5.085938 2.664062 5.820312 3.195312 5.769531 C 3.402344 5.75 3.453125 5.550781 3.679688 5.550781 C 3.800781 5.785156 3.488281 5.859375 3.457031 6.027344 C 3.449219 6.070312 3.484375 6.238281 3.503906 6.320312 C 3.601562 6.707031 3.816406 7.207031 4.03125 7.5 C 4.300781 7.875 4.828125 7.929688 5.398438 7.96875 C 5.5 7.753906 5.878906 7.773438 6.121094 7.828125 C 5.828125 7.714844 5.554688 7.445312 5.332031 7.203125 C 5.070312 6.929688 4.808594 6.632812 4.792969 6.269531 C 5.285156 6.929688 5.691406 7.5 6.582031 7.789062 C 7.257812 8.007812 8.042969 7.691406 8.5625 7.339844 C 8.777344 7.191406 8.90625 6.960938 9.058594 6.75 C 9.628906 5.953125 9.898438 4.820312 9.839844 3.722656 C 9.8125 3.265625 9.816406 2.816406 9.65625 2.511719 C 9.492188 2.191406 8.9375 1.90625 8.609375 2.195312 C 8.550781 1.886719 8.882812 1.691406 9.269531 1.804688 C 8.992188 1.457031 8.703125 1.042969 8.308594 0.828125 Z M 9.585938 11.054688 C 10.125 10.800781 11.125 10.363281 11.464844 11.058594 C 11.585938 11.3125 11.734375 11.746094 11.796875 12.011719 C 11.886719 12.382812 11.699219 13.167969 11.300781 13.292969 C 10.953125 13.402344 10.542969 13.394531 10.121094 13.3125 C 10.070312 13.273438 10.015625 13.203125 9.976562 13.132812 C 9.675781 13.121094 9.394531 13.148438 9.15625 13.265625 C 9.175781 13.484375 9.027344 13.515625 8.886719 13.5625 C 8.78125 13.964844 9.09375 14.488281 9.019531 14.851562 C 8.964844 15.113281 8.632812 15.152344 8.390625 15.203125 C 8.382812 15.347656 8.398438 15.46875 8.417969 15.589844 C 8.359375 15.789062 8.109375 15.902344 7.875 15.929688 C 7.09375 16.019531 5.90625 16.0625 5.15625 15.800781 C 4.949219 15.304688 4.78125 14.703125 4.609375 14.136719 C 3.875 14.210938 3.285156 13.828125 2.726562 13.582031 C 2.53125 13.492188 2.265625 13.445312 2.191406 13.296875 C 2.121094 13.152344 2.152344 12.878906 2.132812 12.617188 C 2.089844 11.953125 2.050781 11.3125 1.871094 10.628906 C 1.789062 10.324219 1.644531 10.054688 1.546875 9.761719 C 1.457031 9.488281 1.292969 9.148438 1.253906 8.878906 C 1.191406 8.472656 1.585938 8.453125 1.835938 8.277344 C 2.222656 8.007812 2.53125 7.855469 2.949219 7.613281 C 3.074219 7.539062 3.453125 7.359375 3.496094 7.273438 C 3.578125 7.105469 3.347656 6.871094 3.285156 6.742188 C 3.1875 6.535156 3.136719 6.359375 3.125 6.152344 C 2.769531 6.097656 2.503906 5.894531 2.339844 5.667969 C 2.074219 5.289062 1.886719 4.585938 2.121094 4.054688 C 2.136719 4.011719 2.226562 3.929688 2.242188 3.867188 C 2.269531 3.738281 2.191406 3.570312 2.1875 3.433594 C 2.164062 2.742188 2.308594 2.144531 2.792969 1.9375 C 2.988281 1.179688 3.691406 0.929688 4.351562 0.554688 C 4.597656 0.414062 4.871094 0.324219 5.152344 0.226562 C 6.160156 -0.132812 7.710938 -0.0664062 8.546875 0.546875 C 8.902344 0.804688 9.472656 1.355469 9.671875 1.75 C 10.210938 2.796875 10.171875 4.546875 9.796875 5.820312 C 9.746094 5.992188 9.671875 6.246094 9.570312 6.449219 C 9.5 6.59375 9.277344 6.878906 9.304688 7.007812 C 9.332031 7.136719 9.808594 7.488281 9.914062 7.582031 C 10.097656 7.753906 10.445312 7.980469 10.476562 8.199219 C 10.503906 8.429688 10.371094 8.746094 10.300781 8.96875 C 10.070312 9.710938 9.847656 10.394531 9.585938 11.054688 "/>
    <path style="stroke:none;fill-rule:evenodd;fill:rgb(96.862745%,89.411765%,80.392157%);fill-opacity:1;" d="M 6.007812 5.917969 C 6.035156 5.882812 6.195312 5.824219 6.417969 5.929688 C 6.417969 5.929688 6.152344 5.972656 6.175781 6.398438 L 6.066406 6.378906 C 6.066406 6.378906 5.949219 5.992188 6.007812 5.917969 "/>
    <path style="stroke:none;fill-rule:evenodd;fill:rgb(11.372549%,9.803922%,9.803922%);fill-opacity:1;" d="M 7.945312 9.59375 C 7.945312 9.660156 7.890625 9.710938 7.824219 9.710938 C 7.757812 9.710938 7.703125 9.660156 7.703125 9.59375 C 7.703125 9.527344 7.757812 9.476562 7.824219 9.476562 C 7.890625 9.476562 7.945312 9.527344 7.945312 9.59375 "/>
    <path style="stroke:none;fill-rule:evenodd;fill:rgb(11.372549%,9.803922%,9.803922%);fill-opacity:1;" d="M 8.066406 10.140625 C 8.066406 10.203125 8.011719 10.257812 7.945312 10.257812 C 7.878906 10.257812 7.824219 10.203125 7.824219 10.140625 C 7.824219 10.074219 7.878906 10.019531 7.945312 10.019531 C 8.011719 10.019531 8.066406 10.074219 8.066406 10.140625 "/>
  </g>
</svg>
