<!-- Copyright 2000-2022 JetBrains s.r.o. and contributors. Use of this source code is governed by the Apache 2.0 license. -->
<svg width="16" height="16" viewBox="0 0 16 16" fill="none" xmlns="http://www.w3.org/2000/svg">
<path d="M13.3337 12.6314C13.6699 12.9396 13.4519 13.5 12.9958 13.5H3C2.72386 13.5 2.5 13.2761 2.5 13V3C2.5 2.72386 2.72386 2.5 3 2.5H12.9958C13.4519 2.5 13.6699 3.06044 13.3337 3.36858L8.68333 7.63142C8.46715 7.82959 8.46715 8.17041 8.68333 8.36858L13.3337 12.6314Z" fill="#EEE0FF"/>
<path fill-rule="evenodd" clip-rule="evenodd" d="M2 3C2 2.44772 2.44771 2 3 2H12.9958C13.9079 2 14.3439 3.12089 13.6716 3.73715L9.0212 8L13.6716 12.2628C14.3439 12.8791 13.9079 14 12.9958 14H3C2.44771 14 2 13.5523 2 13V3ZM12.9958 3L3 3V13H12.9958L8.34547 8.73715C7.91311 8.34082 7.9131 7.65918 8.34547 7.26285L12.9958 3Z" fill="#955AE0"/>
</svg>
