<svg width="16" height="16" viewBox="0 0 16 16" fill="none" xmlns="http://www.w3.org/2000/svg">
<path d="M15.0001 2.9999C15.0048 3.26334 14.9555 3.52496 14.8551 3.7686C14.7548 4.01224 14.6056 4.23274 14.4168 4.41649C14.04 4.79015 13.5309 4.9998 13.0002 4.9998C12.4696 4.9998 11.9604 4.79015 11.5836 4.41649C11.3948 4.23274 11.2456 4.01224 11.1453 3.7686C11.0449 3.52496 10.9956 3.26334 11.0003 2.9999C10.9956 2.73645 11.0449 2.47484 11.1453 2.2312C11.2456 1.98756 11.3948 1.76706 11.5836 1.58331C11.9604 1.20965 12.4696 1 13.0002 1C13.5309 1 14.04 1.20965 14.4168 1.58331C14.6056 1.76706 14.7548 1.98756 14.8551 2.2312C14.9555 2.47484 15.0048 2.73645 15.0001 2.9999Z" fill="#3574F0"/>
<path d="M10.3962 5.60394C9.89085 5.08464 9.28447 4.67439 8.61446 4.39851C7.94445 4.12262 7.22501 3.98695 6.50053 3.99987C5.77607 3.98696 5.05664 4.12263 4.38664 4.39851C3.71664 4.6744 3.11027 5.08465 2.60495 5.60394C2.08564 6.10927 1.67538 6.71564 1.39949 7.38566C1.1236 8.05567 0.987929 8.77511 1.00084 9.49959C0.987929 10.2241 1.1236 10.9435 1.39949 11.6135C1.67538 12.2835 2.08564 12.8899 2.60495 13.3952C3.11026 13.9145 3.71663 14.3248 4.38663 14.6007C5.05664 14.8765 5.77607 15.0122 6.50053 14.9993C7.22501 15.0122 7.94445 14.8765 8.61447 14.6007C9.28448 14.3248 9.89086 13.9145 10.3962 13.3952C10.9155 12.8899 11.3257 12.2835 11.6016 11.6135C11.8775 10.9435 12.0132 10.2241 12.0003 9.49959C12.0132 8.77511 11.8775 8.05567 11.6016 7.38566C11.3257 6.71564 10.9155 6.10927 10.3962 5.60394ZM9.41707 9.41625C9.04029 9.7899 8.53113 9.99956 8.00049 9.99956C7.46984 9.99956 6.96069 9.7899 6.5839 9.41625C6.21025 9.03946 6.00059 8.5303 6.00059 7.99965C6.00059 7.469 6.21025 6.95984 6.5839 6.58305C6.9607 6.20941 7.46985 5.99976 8.00049 5.99976C8.53113 5.99976 9.04028 6.20941 9.41707 6.58305C9.79073 6.95984 10.0004 7.469 10.0004 7.99965C10.0004 8.5303 9.79073 9.03946 9.41707 9.41625Z" fill="#3574F0"/>
</svg>
