<svg xmlns="http://www.w3.org/2000/svg" viewBox="0 0 24 24"><path d="m12.019 15.021.003-.008c-.005-.021-.006-.026-.003.008z"/><path fill="#ff9800" d="M4.51 3.273a2.523 2.523 0 0 0-2.524 2.523V11.3c.361-.13.88-.898 1.043-1.085.285-.327.337-.743.478-1.006C3.83 8.612 3.886 8.2 4.62 8.2c.342 0 .478.08.71.39.16.216.438.615.568.882.15.307.396.724.503.808.08.062.16.11.233.137.119.044.218-.037.297-.1.102-.082.145-.247.24-.467.135-.317.283-.697.367-.83.146-.23.195-.501.352-.633.232-.195.535-.208.618-.225.466-.092.677.225.907.43.15.133.355.403.5.765.114.283.26.544.32.707.059.158.203.41.289.713.077.275.286.486.365.616 0 0 .121.34.858.65.16.067.482.176.674.246.32.116.63.101 1.025.054.281 0 .434-.408.562-.734.075-.193.148-.745.197-.902.048-.153-.064-.27.031-.405.112-.156.178-.164.242-.368.138-.436.936-.458 1.384-.458.374 0 .327.363.96.239.364-.072.714.046 1.1.149.324.086.63.184.812.398.119.139.412.834.113.863.029.035.05.099.104.134-.067.262-.357.075-.518.041-.217-.045-.37.007-.583.101-.363.162-.894.143-1.21.407-.27.223-.269.721-.394 1 0 0-.348.895-1.106 1.443-.194.14-.574.477-1.4.605a5.309 5.309 0 0 1-1.1.043c-.186-.009-.362-.018-.549-.02-.11-.002-.48-.013-.461.022l-.041.103.024.138c.015.083.019.149.022.225.006.157-.013.32-.005.478.017.328.138.627.154.958.017.368.199.758.375 1.059.067.114.169.128.213.269.052.161.003.333.028.505.1.668.292 1.366.592 1.97a.16.16 0 0 0 .008.014c.371-.062.743-.196 1.226-.267.885-.132 2.115-.064 2.906-.138 2-.188 3.085.82 4.882.407V5.796a2.523 2.523 0 0 0-2.523-2.523zm-.907 11.144c-.015 0-.03 0-.046.003-.159.025-.313.08-.412.24-.08.13-.108.355-.164.505-.064.175-.176.338-.274.505-.18.305-.504.581-.644.879-.028.06-.053.13-.076.2v3.402c.163.028.333.062.524.113 1.407.375 1.75.407 3.13.25l.13-.018c.105-.22.187-.968.255-1.2.054-.178.127-.32.155-.5.026-.173-.003-.337-.017-.493-.04-.393.285-.533.44-.87.14-.304.22-.651.336-.963.11-.298.284-.721.579-.872-.036-.041-.617-.06-.772-.076a5.064 5.064 0 0 1-.5-.07c-.314-.064-.656-.126-.965-.2a10.15 10.15 0 0 1-.947-.328c-.298-.138-.503-.497-.732-.507zm5.737.83c-.74.149-.97.876-1.32 1.451-.192.319-.396.59-.548.928-.14.312-.128.657-.368.924a2.55 2.55 0 0 0-.528.922c-.023.067-.088.776-.158.943l1.101-.078c1.026.07.73.464 2.332.378l2.529-.078a7.127 7.127 0 0 0-.228-.588c-.07-.147-.16-.434-.218-.56a3.536 3.536 0 0 0-.309-.526c-.184-.215-.227-.23-.28-.503-.095-.473-.344-1.33-.637-1.923-.151-.306-.403-.562-.634-.784-.2-.195-.655-.522-.734-.505z"/></svg>