<svg xmlns="http://www.w3.org/2000/svg" viewBox="0 0 24 24"><path fill="#ff9800" d="M2.222 3.198v5.667c.255-.092.621-.635.736-.766.2-.231.237-.525.337-.71.228-.422.267-.712.786-.712.241 0 .337.055.5.275.114.152.31.434.402.622.106.217.279.511.355.57a.638.638 0 0 0 .164.097c.084.032.154-.026.21-.07.072-.058.103-.175.169-.33.096-.224.2-.492.26-.586.102-.162.137-.354.248-.447.164-.137.377-.147.436-.158.329-.065.478.158.64.303.106.094.25.285.354.54.08.2.182.384.225.5.041.11.143.289.204.502.055.194.202.343.258.435 0 0 .085.24.605.459.113.047.34.124.476.174.226.082.445.071.723.038.199 0 .307-.288.397-.518.053-.136.105-.526.14-.637.033-.108-.046-.191.021-.286.079-.11.126-.116.171-.26.098-.307.66-.323.977-.323.264 0 .23.256.678.169.256-.05.503.033.776.105.229.06.444.13.573.281.084.098.291.588.08.61.02.024.035.069.073.093-.047.185-.252.053-.366.03-.153-.032-.261.005-.41.07-.257.115-.632.102-.856.288-.19.157-.189.51-.277.706 0 0-.246.632-.781 1.018-.137.1-.405.337-.989.427a3.72 3.72 0 0 1-.775.031c-.132-.006-.256-.013-.388-.015-.077 0-.338-.009-.325.016l-.03.073.017.097c.011.059.014.105.016.16.004.11-.009.225-.003.337.011.231.097.442.108.676.012.26.14.535.265.747.047.081.12.09.15.19.037.114.003.235.02.357a4.726 4.726 0 0 0 .423 1.4c.263-.044.525-.138.866-.189.624-.092 1.493-.045 2.05-.097 1.413-.133 2.179.58 3.447.288V3.198H2.223zm1.141 7.866c-.01 0-.022 0-.033.002-.112.018-.22.056-.29.17-.057.091-.076.25-.116.356-.046.123-.124.239-.194.356-.127.216-.355.41-.454.62-.02.044-.037.092-.054.142v2.401c.115.02.235.044.37.08.993.265 1.236.287 2.21.176l.091-.012c.075-.155.132-.684.18-.847.038-.126.09-.226.11-.354.018-.121-.002-.237-.013-.348-.027-.276.202-.375.311-.613.099-.215.156-.46.237-.68.078-.21.2-.509.409-.615-.025-.03-.435-.043-.544-.054a3.572 3.572 0 0 1-.354-.05c-.221-.045-.463-.088-.68-.14a7.166 7.166 0 0 1-.67-.233c-.21-.097-.354-.35-.516-.357zm4.05.586c-.523.105-.686.618-.932 1.024-.136.225-.28.416-.387.655-.1.22-.09.464-.26.652a1.8 1.8 0 0 0-.372.65c-.016.048-.062.549-.112.667l.777-.055c.724.05.515.327 1.646.266l1.785-.055a5.028 5.028 0 0 0-.161-.415c-.05-.103-.113-.306-.154-.395a2.396 2.396 0 0 0-.218-.37c-.13-.153-.16-.164-.198-.356a6.354 6.354 0 0 0-.449-1.358c-.107-.215-.285-.397-.447-.553-.142-.137-.463-.368-.518-.357zm10.365-4.848v2h2v10h-10v-2h-2v4h14v-14z"/></svg>