<svg xmlns="http://www.w3.org/2000/svg" width="16" height="16" viewBox="0 0 16 16">
  <g fill="none" transform="translate(1 1)">
    <path fill="#DD3735" d="M2.73744304,5.78129114 C2.75622785,5.79546835 2.78883544,5.80468354 2.75622785,5.83268354 C2.73283544,5.86529114 2.70483544,5.89329114 2.68622785,5.93068354 C2.66762025,5.96346835 2.65362025,5.97268354 2.62562025,5.94946835 C2.66283544,5.88868354 2.70005063,5.83250633 2.73726582,5.78111392 L2.73744304,5.78129114 Z M12.1112405,10.675443 C12.1112405,10.6892658 12.1158481,10.698481 12.1158481,10.7126582 C12.1252405,10.6940506 12.1252405,10.6846582 12.1300253,10.675443 L12.1112405,10.675443 Z M11.1599494,12.5385063 L10.3483038,8.03688608 C10.334481,8.0324557 10.3158734,8.02324051 10.2830886,8.0138481 C10.292481,8.0324557 10.2972658,8.0464557 10.3018734,8.0604557 C10.3249114,8.0558481 10.334481,8.0558481 10.3436962,8.05124051 C10.3436962,8.04663291 10.3436962,8.04202532 10.348481,8.03706329 L11.1601266,12.539038 L11.1599494,12.5385063 Z M10.320481,7.02356962 C10.3158734,7.03739241 10.3158734,7.05156962 10.3158734,7.06556962 C10.3158734,7.05139241 10.3158734,7.03721519 10.3208354,7.02339241 L10.320481,7.02356962 Z M10.3158734,7.154 L10.3158734,7.12121519 C10.3022278,7.12582278 10.2882278,7.12582278 10.269443,7.13060759 C10.2928354,7.13946835 10.3162278,7.14443038 10.3162278,7.15364557 L10.3158734,7.154 Z"/>
    <path fill="#DD3A0A" d="M13.9486076,6.01946835 C13.9393924,5.83729114 13.9347848,5.65511392 13.916,5.47311392 C13.8833924,5.2255443 13.8507848,4.97336709 13.7947848,4.73058228 C13.7527848,4.52979747 13.6831392,4.33822785 13.612962,4.14683544 C13.5243544,3.92265823 13.4357468,3.69387342 13.3237468,3.47908861 C13.1419241,3.13351899 12.9041013,2.82516456 12.6848861,2.50298734 C12.5399241,2.29741772 12.3534937,2.12941772 12.2134937,1.91924051 C12.1342785,1.7978481 12.0176709,1.69524051 11.9010633,1.60202532 C11.7144557,1.45227848 11.5186329,1.31670886 11.3228101,1.18610127 C11.1735949,1.08331646 11.0243797,0.985316456 10.8655949,0.896531646 C10.7397722,0.826177215 10.604557,0.770177215 10.4739494,0.709392405 C10.3247342,0.639392405 10.1801266,0.55521519 10.0123038,0.522607595 C9.97012658,0.513746835 9.93291139,0.49956962 9.89091139,0.485392405 C9.7836962,0.448177215 9.68108861,0.406177215 9.5736962,0.373392405 C9.41065823,0.322 9.25205063,0.261392405 9.08405063,0.21921519 C8.92136709,0.17721519 8.75336709,0.149392405 8.58536709,0.125822785 C8.39893671,0.0983544304 8.20789873,0.0886075949 8.02111392,0.0703544304 C7.89989873,0.0561772152 7.77868354,0.0423544304 7.66207595,0.0377468354 C7.48486076,0.0285316456 7.30303797,0.0285316456 7.12582278,0.0239240506 C7.03721519,0.0191392405 6.944,0.00974683544 6.85539241,0.0145316456 C6.72017722,0.0191392405 6.58496203,0.0331392405 6.44956962,0.0517468354 C6.31913924,0.0659240506 6.18853165,0.0889620253 6.06270886,0.107924051 C5.90906329,0.126531646 5.75524051,0.135924051 5.60124051,0.154708861 C5.45663291,0.173493671 5.30741772,0.201493671 5.16298734,0.224886076 C5.11159494,0.234278481 5.06020253,0.252886076 5.00881013,0.262101266 C4.89716456,0.285493671 4.78055696,0.294886076 4.66855696,0.332278481 C4.4683038,0.393240506 4.26751899,0.463417722 4.0716962,0.537848101 C3.8896962,0.612632911 3.71248101,0.692025316 3.54005063,0.785417722 C3.36283544,0.883240506 3.19483544,0.999848101 3.02701266,1.11220253 C2.86822785,1.21959494 2.70979747,1.33159494 2.55562025,1.45298734 C2.40675949,1.56994937 2.26675949,1.70055696 2.13136709,1.83134177 C2.05693671,1.90577215 1.9961519,1.99473418 1.9261519,2.07873418 C1.80972152,2.2143038 1.69311392,2.34491139 1.58111392,2.48508861 C1.48825316,2.60205063 1.40389873,2.72326582 1.31529114,2.84483544 C1.15703797,3.05926582 1.02182278,3.28822785 0.896,3.51718987 C0.844607595,3.61058228 0.798,3.70397468 0.751392405,3.79718987 C0.681392405,3.93718987 0.60678481,4.07275949 0.54156962,4.2175443 C0.49478481,4.31572152 0.45756962,4.42311392 0.42956962,4.53050633 C0.364531646,4.75946835 0.299139241,4.99303797 0.238531646,5.22164557 C0.182531646,5.42721519 0.168531646,5.642 0.164101266,5.85217722 C0.159316456,6.03896203 0.177924051,6.22113924 0.196531646,6.40792405 C0.201316456,6.45470886 0.173493671,6.51070886 0.229139241,6.54792405 C0.210531646,6.59931646 0.224531646,6.62767089 0.252177215,6.63653165 C0.219924051,6.68792405 0.26635443,6.72088608 0.247924051,6.76767089 C0.243139241,6.77688608 0.262101266,6.79549367 0.270962025,6.80949367 C0.270962025,6.82367089 0.266531646,6.84227848 0.270962025,6.85627848 C0.275924051,6.89827848 0.294531646,6.94027848 0.294531646,6.98706329 C0.294531646,7.01967089 0.32235443,7.05706329 0.331746835,7.0898481 C0.33635443,7.10367089 0.331746835,7.12706329 0.32235443,7.1364557 C0.29435443,7.16906329 0.298962025,7.19706329 0.340962025,7.2158481 C0.364531646,7.2764557 0.355139241,7.3044557 0.350531646,7.33281013 C0.359746835,7.37463291 0.345746835,7.38863291 0.350531646,7.39802532 C0.387746835,7.47281013 0.401924051,7.55681013 0.40635443,7.64081013 C0.40635443,7.65959494 0.415746835,7.67837975 0.425139241,7.70159494 C0.429746835,7.70159494 0.425139241,7.79020253 0.425139241,7.79020253 C0.448177215,7.77637975 0.467139241,7.77177215 0.49035443,7.76237975 C0.504531646,7.82298734 0.51835443,7.87934177 0.536962025,7.93073418 C0.56035443,7.96794937 0.56035443,7.98637975 0.551139241,7.99098734 C0.569746835,8.07498734 0.578962025,8.15437975 0.611392405,8.23377215 C0.611392405,8.14516456 0.602531646,8.05655696 0.58835443,7.97237975 C0.65356962,7.99577215 0.70956962,8.01898734 0.746962025,8.01898734 C0.751746835,8.00481013 0.75635443,7.98637975 0.761139241,7.97698734 C0.733139241,7.94916456 0.709746835,7.90716456 0.681746835,7.87916456 C0.691139241,7.91637975 0.681746835,7.93055696 0.681746835,7.94473418 C0.663139241,7.93516456 0.639746835,7.92577215 0.616531646,7.91637975 C0.635139241,7.89334177 0.653746835,7.86977215 0.681746835,7.84194937 C0.681746835,7.79977215 0.658708861,7.76220253 0.593139241,7.76698734 C0.621139241,7.75777215 0.649139241,7.74394937 0.681746835,7.73437975 C0.733139241,7.70655696 0.677139241,7.65516456 0.677139241,7.58977215 C0.681746835,7.51055696 0.635139241,7.43116456 0.621139241,7.34698734 C0.597746835,7.21637975 0.602531646,7.02020253 0.588531646,6.88941772 C0.560531646,6.86602532 0.537139241,6.92663291 0.532531646,6.93141772 C0.546708861,7.04341772 0.560531646,7.15541772 0.569746835,7.26759494 C0.541924051,7.17420253 0.523139241,7.07141772 0.499924051,6.95924051 C0.495139241,6.99202532 0.490531646,7.00602532 0.490531646,7.02481013 C0.467493671,7.0478481 0.485924051,7.07620253 0.499924051,7.10881013 C0.467316456,7.09463291 0.429924051,7.09959494 0.429924051,7.09959494 L0.429924051,7.23037975 C0.383493671,7.18359494 0.369670886,7.14637975 0.346101266,7.11341772 C0.336886076,7.07620253 0.331924051,7.03898734 0.323063291,7.00177215 C0.331924051,6.97820253 0.323063291,6.96420253 0.323063291,6.95037975 C0.318101266,6.91741772 0.313493671,6.88020253 0.308886076,6.83802532 C0.313493671,6.83341772 0.304278481,6.76359494 0.304278481,6.76359494 C0.341493671,6.76802532 0.365063291,6.7724557 0.388278481,6.7724557 C0.341670886,6.71220253 0.374101266,6.67463291 0.393063291,6.63724051 C0.402455696,6.6184557 0.435063291,6.61420253 0.444455696,6.59506329 C0.481670886,6.52506329 0.542455696,6.46924051 0.542455696,6.38027848 C0.542455696,6.33827848 0.556632911,6.29167089 0.561063291,6.24949367 C0.570455696,6.17010127 0.579670886,6.09070886 0.584101266,6.01131646 C0.593670886,5.90853165 0.584101266,5.80574684 0.607670886,5.70774684 C0.645240506,5.54470886 0.691848101,5.38113924 0.743063291,5.21756962 C0.780278481,5.10060759 0.822455696,4.98896203 0.868886076,4.872 C0.938886076,4.68982278 1.00427848,4.50764557 1.09288608,4.33503797 C1.21870886,4.08268354 1.36331646,3.83989873 1.50331646,3.59250633 C1.59192405,3.43832911 1.68513924,3.2935443 1.78331646,3.1441519 C1.87635443,2.99936709 1.96939241,2.84997468 2.07696203,2.71440506 C2.22635443,2.52301266 2.38956962,2.34544304 2.57139241,2.18665823 C2.758,2.01865823 2.93521519,1.84587342 3.13564557,1.6916962 C3.39650633,1.49037975 3.67189873,1.31316456 3.96536709,1.15898734 C4.20336709,1.03316456 4.45040506,0.934632911 4.69762025,0.841240506 C4.85622785,0.780632911 5.02865823,0.752632911 5.19205063,0.701240506 C5.37848101,0.640455696 5.56508861,0.612632911 5.76091139,0.607848101 C5.88673418,0.603063291 6.00812658,0.589063291 6.13394937,0.575063291 C6.24594937,0.566202532 6.35777215,0.556632911 6.47916456,0.542632911 C6.46498734,0.561240506 6.46037975,0.570632911 6.45577215,0.579848101 C6.40473418,0.654632911 6.34873418,0.729417722 6.29734177,0.804025316 C6.25534177,0.864810127 6.20873418,0.930202532 6.16673418,0.990810127 C6.09194937,1.08916456 6.01255696,1.18716456 5.94273418,1.28994937 C5.83551899,1.44412658 5.73751899,1.60291139 5.62551899,1.75691139 C5.51387342,1.9063038 5.39248101,2.04648101 5.27587342,2.19108861 C5.12205063,2.39205063 4.97744304,2.59744304 4.82362025,2.79822785 C4.68362025,2.98962025 4.53475949,3.1721519 4.39936709,3.3635443 C4.2781519,3.53136709 4.17075949,3.70911392 4.0541519,3.8815443 C3.88172152,4.13850633 3.70911392,4.39050633 3.53668354,4.64746835 C3.40129114,4.84346835 3.26607595,5.03503797 3.12625316,5.23121519 C3.11686076,5.24539241 3.10286076,5.24964557 3.08903797,5.25903797 C3.05182278,5.31964557 3.05182278,5.35243038 3.03764557,5.38043038 C3.00043038,5.45043038 2.96321519,5.52043038 2.92103797,5.586 C2.89764557,5.62321519 2.86503797,5.65582278 2.83703797,5.69321519 C2.83243038,5.63721519 2.91146835,5.60921519 2.87425316,5.53903797 C2.85121519,5.57660759 2.82764557,5.60921519 2.80443038,5.64660759 L2.74843038,5.75825316 C2.76703797,5.77243038 2.79982278,5.78182278 2.76703797,5.80964557 C2.75286076,5.83321519 2.73903797,5.86103797 2.72503797,5.88460759 C2.74843038,5.87043038 2.76225316,5.85660759 2.77643038,5.83782278 C2.77643038,5.88921519 2.74843038,5.93103797 2.72503797,5.97303797 C2.70643038,6.01025316 2.65982278,6.03860759 2.62721519,6.06643038 C2.63182278,6.07121519 2.66443038,6.08521519 2.66921519,6.08982278 C2.71121519,6.07564557 2.72521519,6.05260759 2.73,6.06643038 C2.74417722,6.04782278 2.758,6.03382278 2.76260759,6.01982278 C2.78103797,5.97303797 2.80903797,5.93582278 2.85564557,5.91703797 C2.87443038,5.90764557 2.88825316,5.89364557 2.90225316,5.87982278 C3.04225316,5.73486076 3.18686076,5.59486076 3.31268354,5.44068354 C3.50868354,5.20232911 3.68589873,4.95511392 3.87268354,4.71232911 C3.95172152,4.6095443 4.04511392,4.50675949 4.12893671,4.40858228 C4.14275949,4.51597468 4.1335443,4.61858228 4.12893671,4.71693671 C4.11475949,4.8895443 4.1055443,5.06250633 4.09172152,5.23972152 C4.08693671,5.30972152 4.09172152,5.37972152 4.08693671,5.44989873 C4.08693671,5.46850633 4.07275949,5.48250633 4.07275949,5.50129114 C4.07275949,5.54789873 4.08693671,5.59929114 4.08693671,5.64607595 C4.07275949,5.81886076 4.05397468,5.98686076 4.03997468,6.15964557 C4.03518987,6.19686076 4.05379747,6.23443038 4.06301266,6.26721519 C4.03997468,6.51921519 4.09136709,6.78556962 4.04918987,7.05174684 C4.08179747,7.00035443 4.09118987,6.96774684 4.09118987,6.93513924 C4.09562025,6.90713924 4.09118987,6.87913924 4.09118987,6.84653165 L4.09118987,6.79974684 C4.09562025,6.71556962 4.11422785,6.62696203 4.10501266,6.54278481 C4.09562025,6.44939241 4.09562025,6.36078481 4.11440506,6.272 C4.12379747,6.23478481 4.10979747,6.188 4.13318987,6.14121519 L4.13318987,6.21121519 C4.12858228,6.47703797 4.13797468,6.74339241 4.10075949,7.00956962 C4.09597468,7.03296203 4.11493671,7.07513924 4.0635443,7.07035443 C4.02136709,7.15435443 4.07275949,7.21513924 4.02632911,7.26174684 C4.01675949,7.27113924 4.03518987,7.31313924 4.03997468,7.34113924 C4.02118987,7.39731646 4.02118987,7.39731646 4.04918987,7.40192405 C4.05379747,7.50470886 4.06336709,7.59792405 4.06779747,7.69610127 C4.14222785,7.51888608 4.10501266,7.33635443 4.13797468,7.15417722 C4.14258228,7.22896203 4.14736709,7.30374684 4.14258228,7.38278481 C4.14258228,7.50453165 4.13797468,7.62113924 4.13336709,7.74253165 C4.13336709,7.76592405 4.12858228,7.78931646 4.12397468,7.81270886 C4.10979747,7.87827848 4.10536709,7.94349367 4.08197468,8.00410127 C4.06336709,8.05088608 4.07275949,8.12106329 4.07275949,8.17688608 L4.07275949,8.35463291 C4.09136709,8.43402532 4.06797468,8.47602532 4.08197468,8.52263291 C4.06779747,8.56959494 4.06336709,8.58359494 4.06779747,8.59759494 L4.08197468,8.66759494 C4.17536709,8.65820253 4.13336709,8.72837975 4.17058228,8.76559494 C4.14258228,8.80316456 4.15197468,8.81698734 4.15197468,8.83594937 C4.15197468,8.87794937 4.1475443,8.91534177 4.14275949,8.95734177 C4.14275949,9.06473418 4.1381519,9.17212658 4.1381519,9.27491139 C4.1381519,9.28908861 4.14275949,9.30273418 4.14275949,9.31673418 C4.14275949,9.3263038 4.1381519,9.44787342 4.1381519,9.44787342 C4.1475443,9.4616962 4.1381519,9.4756962 4.12397468,9.4896962 C4.1195443,9.4896962 4.1055443,8.89655696 4.1055443,8.89655696 L4.0355443,8.89655696 C4.02632911,9.17655696 4.04972152,9.42873418 3.99832911,9.69048101 C3.94232911,9.69491139 3.92389873,9.7043038 3.86293671,9.7043038 C3.71832911,9.7043038 3.57372152,9.7043038 3.42911392,9.70891139 C3.25650633,9.70891139 3.08886076,9.71351899 2.91607595,9.71351899 C2.83243038,9.71351899 2.74382278,9.72308861 2.65982278,9.72308861 C2.54782278,9.72308861 2.43121519,9.70891139 2.31956962,9.70891139 C2.14678481,9.70891139 1.97896203,9.72308861 1.80635443,9.7276962 C1.68053165,9.7323038 1.55470886,9.7323038 1.42888608,9.73708861 C1.34470886,9.74151899 1.26053165,9.74594937 1.17688608,9.75551899 C1.13967089,9.76012658 1.10688608,9.77412658 1.06027848,9.78812658 C1.04610127,9.78812658 1.01367089,9.78351899 0.985848101,9.78812658 C0.938886076,9.79751899 0.897240506,9.82534177 0.850278481,9.83491139 C0.780278481,9.84908861 0.761670886,9.86751899 0.770886076,9.9376962 L0.770886076,9.9843038 C0.766278481,9.99351899 0.873670886,9.97012658 0.873670886,9.97012658 C0.864101266,9.97012658 0.859493671,9.99812658 0.845316456,10.021519 C0.882886076,10.0073418 0.906101266,9.99812658 0.929493671,9.98891139 C0.999493671,10.0216962 1.06010127,10.0030886 1.11592405,10.0172658 C1.29774684,10.0636962 1.48417722,10.0828354 1.67060759,10.1010886 C1.792,10.110481 1.90860759,10.1152658 2.02982278,10.1196962 C2.20225316,10.1290886 2.37486076,10.138481 2.54729114,10.138481 C2.69189873,10.138481 2.83189873,10.1243038 2.9761519,10.1243038 C3.17640506,10.1243038 3.37736709,10.133519 3.57779747,10.138481 C3.61979747,10.138481 3.66640506,10.133519 3.71301266,10.133519 L4.05326582,10.133519 C4.35665823,10.1243038 4.6596962,10.1193418 4.96291139,10.110481 C5.1356962,10.105519 5.31291139,10.0963038 5.48534177,10.091519 L6.01698734,10.0773418 C6.22220253,10.0727342 6.42741772,10.0727342 6.62802532,10.068481 C6.7818481,10.068481 6.93106329,10.0631646 7.08524051,10.0587342 C7.25749367,10.0541266 7.43470886,10.0401266 7.60731646,10.0309114 C7.70070886,10.0261266 7.79410127,10.0167342 7.88731646,10.007519 C7.99931646,9.9983038 8.11592405,9.98448101 8.22756962,9.9796962 C8.39556962,9.97012658 8.56817722,9.96551899 8.73617722,9.95612658 C8.946,9.9423038 9.15582278,9.9236962 9.37025316,9.91891139 C9.56625316,9.9096962 9.76668354,9.9143038 9.96268354,9.9096962 C10.1352911,9.90491139 10.3078987,9.89551899 10.4851139,9.89091139 L10.7792911,9.87673418 C10.7792911,9.87673418 10.9749367,9.87212658 11.0729367,9.86255696 C11.2407595,9.85334177 11.4085823,9.83473418 11.5765823,9.83012658 C11.6836203,9.82534177 11.7910127,9.83012658 11.8982278,9.82534177 C12.0706582,9.82073418 12.2478734,9.81116456 12.420481,9.81116456 C12.485519,9.81116456 12.555519,9.82073418 12.639519,9.82534177 C12.6023038,9.85812658 12.5789114,9.87673418 12.5509114,9.90012658 C12.569519,9.90473418 12.5881266,9.9143038 12.6069114,9.92351899 C12.5789114,9.94212658 12.555519,9.94655696 12.532481,9.94655696 C12.5229114,9.97012658 12.513519,9.97951899 12.5041266,10.0263038 L12.5881266,10.0263038 C12.555519,10.0263038 12.527519,10.0683038 12.4949114,10.0963038 C12.4576962,10.0867342 12.4249114,10.0963038 12.4063038,10.1476962 C12.4389114,10.1661266 12.4343038,10.1801266 12.4296962,10.1990886 C12.3736962,10.217519 12.3316962,10.2363038 12.3552658,10.2969114 C12.3363038,10.3061266 12.3130886,10.315519 12.2896962,10.329519 C12.2666582,10.3667342 12.224481,10.3761266 12.2336962,10.427519 C12.252481,10.4319494 12.2709114,10.4416962 12.2850886,10.4459494 C12.2616962,10.4553418 12.238481,10.4693418 12.2150886,10.478557 C12.1312658,10.5299494 12.1686582,10.5533418 12.1872658,10.5767342 C12.1730886,10.5861266 12.1592658,10.5953418 12.1452658,10.6001266 C12.154481,10.6421266 12.1683038,10.651519 12.1730886,10.651519 C12.154481,10.6653418 12.1310886,10.6841266 12.1030886,10.707519 C12.0889114,10.749519 12.0703038,10.7681266 12.0516962,10.7961266 C12.0330886,10.8241266 12.0236962,10.8616962 12.0003038,10.889519 C11.902481,10.9970886 11.832481,11.123443 11.7066582,11.2072658 C11.6598734,11.2400506 11.6180506,11.2820506 11.5760506,11.3242278 C11.4920506,11.403443 11.417443,11.4922278 11.3288354,11.5670127 C11.2124051,11.6650127 11.0913671,11.7536203 10.9651899,11.8424051 C10.8115443,11.9497975 10.6577215,12.0571899 10.5037215,12.1599747 C10.4197215,12.2157975 10.3265063,12.2577975 10.2378987,12.3091899 C10.1492911,12.3605823 10.0652911,12.4073671 9.97668354,12.4585823 C9.92068354,12.4957975 9.86929114,12.5471899 9.80868354,12.5755443 C9.65486076,12.6411139 9.49146835,12.6969367 9.33303797,12.7577215 C9.17886076,12.8232911 9.06721519,12.8791139 8.95060759,12.9211139 C8.84339241,12.9583291 8.73139241,12.9866835 8.61956962,13.0097215 C8.58235443,13.0192911 8.54017722,13.0097215 8.49817722,13.0145063 C8.41878481,13.0286835 8.33956962,13.0474684 8.26017722,13.0566835 C8.05496203,13.0846835 7.84974684,13.1034684 7.64470886,13.1314684 C7.52331646,13.1456456 7.40670886,13.1686835 7.28549367,13.1828608 C7.20167089,13.1874684 7.11306329,13.1782532 7.02906329,13.1782532 C6.9684557,13.1782532 6.90324051,13.1924304 6.8424557,13.183038 C6.74463291,13.1688608 6.64663291,13.1458228 6.54863291,13.127038 C6.52559494,13.1224304 6.49263291,13.1128608 6.47420253,13.1224304 C6.43698734,13.1412152 6.40402532,13.1132152 6.36663291,13.1224304 C6.34359494,13.1272152 6.32020253,13.1082532 6.29681013,13.1082532 C6.27802532,13.1038228 6.25463291,13.1132152 6.23124051,13.1082532 C6.1798481,13.0944304 6.13341772,13.0758228 6.07706329,13.0804304 C6.02159494,13.085038 5.96541772,13.057038 5.90516456,13.0432152 C5.82098734,13.0244304 5.74212658,13.006 5.65777215,12.987038 C5.62534177,12.9776456 5.59751899,12.9636456 5.56473418,12.945038 C5.44334177,12.945038 5.36394937,12.9404304 5.28934177,12.9122532 C5.22412658,12.8892152 5.16351899,12.8564304 5.09351899,12.8658228 C5.07508861,12.8704304 5.06108861,12.8612152 5.04212658,12.8612152 C5.02794937,12.8424304 5.0143038,12.805038 5.00048101,12.805038 C4.90726582,12.8098228 4.85126582,12.7306076 4.77187342,12.707038 C4.73005063,12.6928608 4.69744304,12.6462532 4.65544304,12.6322532 C4.55265823,12.5902532 4.46901266,12.5016456 4.35240506,12.4876456 C4.31518987,12.4828608 4.27797468,12.4642532 4.23579747,12.4504304 C4.24997468,12.4688608 4.25883544,12.4828608 4.27301266,12.4968608 C4.13779747,12.4312911 4.01197468,12.3568608 3.88597468,12.2866835 C3.8675443,12.2820759 3.8535443,12.2636456 3.8395443,12.2540759 L3.71372152,12.1700759 C3.64372152,12.1842532 3.61572152,12.1558987 3.59675949,12.1466835 C3.47093671,12.0580759 3.32650633,12.0018987 3.20511392,11.9038987 C3.15372152,11.8617215 3.09346835,11.8337215 3.05625316,11.7823291 C2.99068354,11.7029367 2.91146835,11.6469367 2.82286076,11.6003291 C2.75303797,11.5631139 2.68782278,11.5209367 2.62260759,11.4789367 C2.58982278,11.4555443 2.55703797,11.4275443 2.55703797,11.3761519 C2.55703797,11.3433671 2.54321519,11.3105823 2.50121519,11.3293671 C2.48260759,11.3013671 2.464,11.2687595 2.44060759,11.2593671 C2.38460759,11.2363291 2.34739241,11.1937975 2.30539241,11.1565823 C2.26339241,11.1193671 2.23096203,11.0679747 2.17956962,11.0493671 C2.08617722,11.0121519 2.03017722,10.9327595 1.97435443,10.8673671 C1.84356962,10.7131899 1.72696203,10.5448354 1.60574684,10.3817975 C1.59635443,10.3676203 1.57774684,10.3582278 1.56374684,10.3442278 C1.58235443,10.3956203 1.60574684,10.4376203 1.62896203,10.4842278 C1.58253165,10.4656203 1.54992405,10.4328354 1.52192405,10.4002278 C1.51713924,10.4050127 1.84356962,10.9419747 1.84356962,10.9419747 C1.87192405,10.9839747 1.89496203,11.0261519 1.92296203,11.0681519 C1.85296203,11.0727595 1.80635443,11.0353671 1.78296203,10.9933671 C1.74113924,10.9189367 1.69435443,10.8721519 1.60113924,10.8817215 C1.59192405,10.8487595 1.58253165,10.8113671 1.57810127,10.7789367 C1.55913924,10.7789367 1.54531646,10.7789367 1.51253165,10.7741519 C1.57810127,10.8769367 1.63392405,10.9655443 1.69453165,11.0683291 C1.67096203,11.0541519 1.65731646,11.0449367 1.64756962,11.0403291 C1.73139241,11.1289367 1.792,11.2411139 1.89921519,11.2972911 C1.92260759,11.4045063 2.04382278,11.4558987 2.07182278,11.5586835 C2.04878481,11.5538987 2.02964557,11.5492911 2.00625316,11.5445063 C1.96903797,11.4978987 1.92703797,11.4512911 1.88521519,11.3998987 C1.89443038,11.4325063 1.90825316,11.4605063 1.92703797,11.4838987 C1.98303797,11.5538987 2.03443038,11.6238987 2.09964557,11.6846835 C2.12303797,11.7084304 2.15564557,11.7178228 2.15564557,11.7598228 C2.19286076,11.7784304 2.20703797,11.7828608 2.22086076,11.7828608 C2.23043038,11.8112152 2.21643038,11.8532152 2.27225316,11.8438228 C2.30946835,11.9138228 2.34668354,11.9138228 2.39807595,11.8906076 C2.45886076,11.9513924 2.49164557,11.9561772 2.53346835,11.918962 C2.53346835,11.942 2.53807595,11.9653924 2.53807595,11.9841772 C2.55668354,11.9747848 2.55225316,11.9607848 2.55225316,11.9373924 C2.57529114,11.956 2.58946835,11.9653924 2.59868354,11.9746076 C2.64529114,12.0401772 2.68729114,12.1007848 2.75250633,12.1521772 C2.84111392,12.226962 2.92050633,12.3063544 3.0041519,12.3763544 C3.1675443,12.5119241 3.34972152,12.6241013 3.53136709,12.7267089 C3.75536709,12.8528861 3.96997468,12.9882785 4.19840506,13.1094937 C4.47344304,13.2544557 4.76726582,13.3526329 5.0703038,13.4226329 C5.1823038,13.4460253 5.28951899,13.4692405 5.4016962,13.4970633 C5.49916456,13.5254177 5.59734177,13.5674177 5.69534177,13.5906329 C5.84455696,13.6234177 5.99837975,13.6514177 6.14759494,13.6792405 C6.18002532,13.6840253 6.21316456,13.6888101 6.25037975,13.6934177 C6.29202532,13.7028101 6.34324051,13.6840253 6.35263291,13.6982025 C6.37602532,13.7354177 6.39463291,13.7166329 6.42263291,13.7120253 C6.45524051,13.7026329 6.49263291,13.7026329 6.5298481,13.7026329 C6.6604557,13.7072405 6.78627848,13.7352405 6.91688608,13.7260253 C6.94524051,13.7260253 6.98706329,13.7024557 7.0104557,13.7490633 C7.05227848,13.7304557 7.07567089,13.7304557 7.09427848,13.7260253 C7.09924051,13.7678481 7.09427848,13.7678481 7.08541772,13.7724557 C7.0758481,13.7770633 7.0618481,13.7818481 7.04324051,13.7958481 C7.21106329,13.8284557 7.36967089,13.8330633 7.50931646,13.7958481 C7.75210127,13.8144557 7.96192405,13.7864557 8.16253165,13.7164557 C8.18113924,13.7398481 8.19513924,13.7724557 8.22313924,13.7258481 C8.23235443,13.7116709 8.25574684,13.7068861 8.27453165,13.7022785 C8.31635443,13.6928861 8.36774684,13.6742785 8.40496203,13.6881013 C8.44713924,13.7022785 8.46113924,13.6650633 8.49356962,13.6650633 C8.54974684,13.6650633 8.60096203,13.6602785 8.65235443,13.6508861 C8.68035443,13.6462785 8.70835443,13.6322785 8.74096203,13.6228861 C8.70374684,13.6039241 8.66653165,13.5993165 8.63817722,13.5993165 C8.69435443,13.5713165 8.74556962,13.5479241 8.79696203,13.5248861 C8.78756962,13.5387089 8.77817722,13.5573165 8.75974684,13.5573165 L8.82478481,13.5573165 C8.81060759,13.5573165 8.792,13.5993165 8.76878481,13.6273165 C8.93643038,13.5853165 9.09025316,13.5479241 9.23964557,13.5103544 C9.18825316,13.4125316 9.29546835,13.4453165 9.33286076,13.3891392 C9.28625316,13.4033165 9.23964557,13.4171392 9.19286076,13.4263544 C9.35146835,13.3471392 9.51468354,13.2771392 9.67311392,13.2071392 C9.65007595,13.2351392 9.62172152,13.2491392 9.58007595,13.2727089 C9.60807595,13.2771392 9.62668354,13.2771392 9.64068354,13.2815696 C9.71511392,13.3051392 9.69668354,13.2351392 9.71989873,13.192962 C9.80850633,13.192962 9.84572152,13.1791392 9.88772152,13.164962 C9.93432911,13.1507848 9.98093671,13.136962 10.0277215,13.1183544 C10.1021519,13.0857468 10.1721519,13.0439241 10.2467595,13.0067089 C10.2609367,13.0017468 10.2839747,13.0067089 10.3027595,13.0067089 C10.3541519,12.9737468 10.3725823,12.9457468 10.3865823,12.9503544 C10.4521519,12.9597468 10.4982278,12.9361772 10.5170127,12.8759241 C10.5496203,12.8523544 10.5730127,12.8337468 10.5962278,12.8195696 C10.6986582,12.7635696 10.796481,12.7075696 10.8992658,12.6515696 C10.936481,12.6515696 10.9552658,12.6515696 10.964481,12.6467848 C11.025443,12.6184304 11.081443,12.5861772 11.1372658,12.5533924 C11.1230886,12.5487848 11.0906582,12.5303544 11.0906582,12.5303544 C11.1370886,12.5207848 11.1509114,12.5161772 11.1792658,12.5067848 C11.2909114,12.3756456 11.4450886,12.287038 11.561519,12.1842532 C11.6129114,12.1796456 11.6129114,12.1656456 11.6129114,12.1564304 C11.6313418,12.133038 11.6501266,12.105038 11.6731646,12.0862532 C11.7759494,11.9928608 11.8875949,11.9134684 11.9809873,11.8154684 C12.1162025,11.6797215 12.2468101,11.5395443 12.3680253,11.3947595 C12.4796709,11.2639747 12.5920253,11.1333671 12.6852405,10.9885823 C12.8158481,10.7877975 12.9276709,10.5822278 13.0442785,10.3718734 C13.1282785,10.2226582 13.2028861,10.0732658 13.2870633,9.92387342 C13.2959241,9.9096962 13.3148861,9.89108861 13.3288861,9.89108861 C13.4547089,9.87691139 13.5808861,9.86805063 13.7021013,9.85387342 C13.7301013,9.84926582 13.7627089,9.83083544 13.7907089,9.81665823 C13.7765316,9.79326582 13.7673165,9.76526582 13.7534937,9.74187342 C13.7347089,9.71351899 13.7067089,9.69048101 13.6879241,9.66212658 C13.6694937,9.63908861 13.6554937,9.61073418 13.6414937,9.58291139 C13.6273165,9.55987342 13.6134937,9.54108861 13.5994937,9.51734177 C13.5711392,9.46594937 13.5433165,9.41455696 13.5197468,9.35891139 C13.5151392,9.34473418 13.5055696,9.3216962 13.5105316,9.30751899 C13.5945316,9.12551899 13.6271392,8.92934177 13.7063544,8.74716456 C13.7855696,8.56037975 13.8091392,8.35020253 13.8463544,8.14941772 C13.878962,7.95802532 13.8977468,7.76663291 13.9207848,7.57524051 C13.934962,7.4398481 13.9535696,7.30906329 13.958,7.17367089 C13.9863544,6.95888608 13.9767848,6.75792405 13.9721772,6.55696203 C13.9675696,6.37974684 13.958,6.19756962 13.9491392,6.02 L13.9486076,6.01946835 Z M2.24797468,11.7679747 C2.21536709,11.7307595 2.18736709,11.6885823 2.15475949,11.6513671 L2.16893671,11.6371899 C2.21979747,11.6933671 2.27118987,11.7493671 2.32240506,11.8101519 C2.29440506,11.7959747 2.26179747,11.7867595 2.24797468,11.7679747 Z M2.32240506,11.8101519 C2.33658228,11.8053671 2.35075949,11.8053671 2.36458228,11.8007595 C2.37875949,11.8241519 2.38797468,11.8521519 2.40179747,11.8801519 C2.33658228,11.8753671 2.30397468,11.8473671 2.32258228,11.8101519 L2.32240506,11.8101519 Z M7.17278481,13.7387848 L7.17278481,13.7246076 C7.26139241,13.7153924 7.34521519,13.706 7.43382278,13.6967848 L7.43382278,13.7104304 C7.34521519,13.7246076 7.26139241,13.7334684 7.17278481,13.7384304 L7.17278481,13.7387848 Z M8.34772152,13.6173924 C8.28268354,13.6315696 8.21268354,13.640962 8.14746835,13.6503544 C8.12407595,13.654962 8.09607595,13.6783544 8.08686076,13.6361772 C8.07746835,13.640962 8.06807595,13.640962 8.05886076,13.6457468 C8.08189873,13.7155696 8.13807595,13.6595696 8.18468354,13.6875696 C8.08189873,13.7017468 7.98443038,13.710962 7.88625316,13.7247848 L7.88625316,13.7155696 C7.91460759,13.710962 7.94703797,13.7061772 7.97486076,13.7013924 L7.97486076,13.6875696 C7.92843038,13.6827848 7.88182278,13.6781772 7.83486076,13.6781772 C7.82121519,13.6781772 7.80243038,13.696962 7.78843038,13.7015696 C7.76982278,13.7061772 7.75121519,13.710962 7.72782278,13.710962 C7.64860759,13.7155696 7.56939241,13.7155696 7.49460759,13.7201772 C7.48982278,13.7201772 7.48043038,13.7155696 7.47582278,13.7155696 L7.47582278,13.7013924 C7.78825316,13.6595696 8.09607595,13.6175696 8.40850633,13.5755696 C8.41329114,13.5847848 8.41329114,13.5941772 8.41789873,13.6033924 C8.38989873,13.6033924 8.37129114,13.6131392 8.34789873,13.6175696 L8.34772152,13.6173924 Z M8.41789873,13.570962 C8.52529114,13.5567848 8.62346835,13.5475696 8.72589873,13.5337468 C8.51146835,13.5943544 8.44146835,13.6035696 8.41807595,13.570962 L8.41789873,13.570962 Z M4.35594937,4.14222785 C4.50481013,3.93665823 4.65898734,3.73108861 4.80820253,3.52108861 C4.85481013,3.45994937 4.89202532,3.39455696 4.93863291,3.33394937 C4.95281013,3.31516456 4.97141772,3.30594937 4.99463291,3.28716456 L4.99002532,3.2783038 C5.00863291,3.25473418 5.02724051,3.23577215 5.03663291,3.21734177 C5.06037975,3.18012658 5.07437975,3.13794937 5.09298734,3.09594937 C5.09759494,3.08708861 5.11159494,3.0776962 5.11159494,3.0776962 C5.17716456,3.1103038 5.17716456,3.04048101 5.20020253,3.01691139 C5.24220253,2.97012658 5.28420253,2.91891139 5.32141772,2.87212658 C5.34941772,2.83491139 5.37741772,2.80212658 5.40081013,2.76012658 C5.40541772,2.74594937 5.39141772,2.72291139 5.38663291,2.70394937 L5.37281013,2.70394937 C5.38698734,2.69473418 5.40081013,2.68091139 5.41481013,2.67134177 C5.41941772,2.67134177 5.41941772,2.67134177 5.42402532,2.66673418 C5.45202532,2.62455696 5.48002532,2.58255696 5.50802532,2.54516456 C5.5638481,2.47073418 5.6244557,2.39594937 5.68967089,2.33073418 C5.6804557,2.35377215 5.67106329,2.37734177 5.66167089,2.39594937 C5.6664557,2.39594937 5.6664557,2.40073418 5.67106329,2.40073418 C5.72706329,2.32594937 5.78767089,2.25594937 5.84367089,2.18098734 C5.83888608,2.17655696 5.83427848,2.17177215 5.82949367,2.17177215 C5.8064557,2.19516456 5.78767089,2.21855696 5.76427848,2.24194937 C5.75967089,2.23716456 5.75506329,2.23255696 5.75010127,2.23255696 C5.79706329,2.17177215 5.84367089,2.11116456 5.89010127,2.04116456 C5.89949367,2.05534177 5.90888608,2.07377215 5.92731646,2.11116456 C5.94627848,2.06455696 5.96488608,2.03194937 5.97870886,1.99916456 C5.96488608,2.01334177 5.94627848,2.02716456 5.93227848,2.04134177 L5.91810127,2.02716456 L6.00210127,1.90134177 C6.09070886,1.77516456 6.17931646,1.64437975 6.26792405,1.51820253 C6.30070886,1.47159494 6.34235443,1.43420253 6.37070886,1.38741772 C6.45931646,1.21020253 6.59931646,1.0698481 6.70635443,0.906455696 C6.72974684,0.873848101 6.76235443,0.845848101 6.79035443,0.817848101 C6.81339241,0.789493671 6.83235443,0.799063291 6.85096203,0.822455696 C6.97678481,0.981240506 7.10260759,1.14463291 7.22843038,1.30341772 C7.322,1.42037975 7.41521519,1.53202532 7.50382278,1.65359494 C7.61103797,1.80316456 7.71364557,1.95255696 7.82103797,2.10194937 C7.94225316,2.27473418 8.06346835,2.44751899 8.18007595,2.62473418 C8.35729114,2.88648101 8.52511392,3.14805063 8.70232911,3.40944304 C8.83293671,3.60083544 8.9635443,3.78779747 9.08936709,3.97918987 L8.85118987,3.97918987 C8.6321519,3.97475949 8.4081519,3.9561519 8.18911392,3.96536709 C7.89068354,3.9795443 7.58764557,4.0121519 7.28921519,4.0355443 C6.91139241,4.06832911 6.52896203,4.07275949 6.15149367,4.07275949 C6.01592405,4.07275949 5.88070886,4.09172152 5.74567089,4.10111392 C5.58227848,4.11032911 5.42367089,4.11972152 5.2604557,4.1241519 C5.06906329,4.13372152 4.88298734,4.13832911 4.69159494,4.14311392 C4.58420253,4.14772152 4.47237975,4.14311392 4.35577215,4.14311392 L4.35594937,4.14222785 Z M9.70483544,6.29007595 L9.70483544,6.33225316 C9.70022785,6.33225316 9.69562025,6.33703797 9.68622785,6.33703797 C9.66762025,6.27146835 9.64901266,6.20129114 9.62562025,6.13589873 C9.57901266,6.00032911 9.52762025,5.86475949 9.44362025,5.7435443 C9.35005063,5.61293671 9.26640506,5.47772152 9.17283544,5.3421519 C9.14979747,5.30936709 9.11683544,5.28136709 9.08883544,5.2535443 C8.99083544,5.14597468 8.89283544,5.03379747 8.76701266,4.95458228 C8.58040506,4.83762025 8.38918987,4.73962025 8.18397468,4.65544304 C8.12797468,4.63240506 8.07675949,4.60405063 8.02093671,4.57144304 L8.13258228,4.57144304 L8.93005063,4.55726582 C9.10265823,4.55283544 9.27065823,4.55283544 9.44308861,4.54344304 C9.48491139,4.54344304 9.5083038,4.55762025 9.5316962,4.59483544 C9.57351899,4.66483544 9.61551899,4.73483544 9.66212658,4.80501266 C9.66691139,4.81422785 9.6763038,4.82805063 9.6763038,4.84222785 C9.6763038,4.94501266 9.6763038,5.05240506 9.68091139,5.15518987 C9.68534177,5.26258228 9.69508861,5.36536709 9.69934177,5.47275949 C9.69934177,5.5801519 9.68994937,5.6921519 9.69473418,5.8041519 C9.69951899,5.96311392 9.70412658,6.12668354 9.70412658,6.28972152 L9.70483544,6.29007595 Z M4.68681013,4.72632911 C4.90602532,4.71693671 5.11567089,4.70293671 5.3304557,4.6935443 C5.49792405,4.6841519 5.67070886,4.67936709 5.83835443,4.6701519 C5.90835443,4.66572152 5.97374684,4.66129114 6.04356962,4.6701519 C5.96913924,4.70772152 5.89435443,4.74511392 5.82913924,4.79172152 C5.74513924,4.84772152 5.66610127,4.92232911 5.58192405,4.98311392 C5.49774684,5.04372152 5.42313924,5.11850633 5.35331646,5.19789873 C5.26470886,5.30511392 5.16670886,5.39850633 5.07331646,5.50129114 C5.00774684,5.57607595 4.93331646,5.64607595 4.87749367,5.72546835 C4.79827848,5.82825316 4.72827848,5.93989873 4.65367089,6.05686076 C4.67706329,5.61311392 4.70506329,5.17432911 4.68627848,4.72597468 L4.68681013,4.72632911 Z M7.73225316,9.21873418 C7.58286076,9.25594937 7.42921519,9.29812658 7.27503797,9.31673418 C7.14460759,9.33551899 7.00921519,9.33091139 6.874,9.33091139 C6.75243038,9.33091139 6.63582278,9.3263038 6.51460759,9.31673418 C6.37939241,9.30291139 6.24417722,9.28891139 6.11356962,9.22812658 C6.00139241,9.17673418 5.88496203,9.13012658 5.77331646,9.07394937 C5.66096203,9.01794937 5.54913924,8.95273418 5.46496203,8.84994937 C5.40470886,8.77498734 5.32053165,8.71437975 5.24592405,8.64898734 C5.26010127,8.70498734 5.29253165,8.75177215 5.34392405,8.78437975 C5.32053165,8.81237975 5.28792405,8.79855696 5.24113924,8.72359494 C5.22731646,8.73298734 5.21331646,8.73777215 5.20392405,8.74237975 C5.21810127,8.70959494 5.23192405,8.67681013 5.24592405,8.64898734 C5.22731646,8.61177215 5.20392405,8.56959494 5.18531646,8.53202532 C5.14810127,8.47141772 5.11088608,8.40620253 5.07810127,8.34541772 C5.06870886,8.33124051 5.06870886,8.31741772 5.05949367,8.30341772 C5.03610127,8.27541772 5.01270886,8.24724051 4.99392405,8.21924051 C4.95670886,8.16341772 4.92410127,8.10281013 4.87749367,8.04663291 C4.87749367,8.06081013 4.88227848,8.07463291 4.88227848,8.09341772 C4.87749367,8.09341772 4.87288608,8.09802532 4.87288608,8.09802532 L4.77470886,7.8598481 C4.77010127,7.8598481 4.77010127,7.8598481 4.76549367,7.8644557 L4.84931646,8.17281013 C4.84470886,8.17281013 4.84010127,8.17724051 4.83513924,8.17724051 C4.82149367,8.15881013 4.80749367,8.14002532 4.79792405,8.11698734 C4.78870886,8.07941772 4.76070886,8.07941772 4.73767089,8.09341772 C4.72349367,8.10281013 4.71410127,8.13541772 4.71888608,8.14941772 C4.75167089,8.22881013 4.78888608,8.30820253 4.82627848,8.38759494 C4.83549367,8.41559494 4.84488608,8.43898734 4.85888608,8.46698734 C4.86367089,8.47637975 4.87767089,8.48559494 4.87767089,8.49959494 C4.8964557,8.53681013 4.9104557,8.57402532 4.93367089,8.60698734 C4.97567089,8.66298734 5.02227848,8.71898734 5.06427848,8.77498734 C5.10592405,8.83098734 5.14313924,8.89194937 5.18053165,8.94777215 C5.18513924,8.95716456 5.19913924,8.95716456 5.20356962,8.96194937 C5.22713924,9.03194937 5.30635443,9.08316456 5.36235443,9.05516456 C5.37653165,9.16255696 5.49296203,9.19994937 5.53956962,9.30273418 C5.48356962,9.27934177 5.44174684,9.26073418 5.40435443,9.24194937 C5.39956962,9.24655696 5.39956962,9.25116456 5.39478481,9.26055696 C5.45078481,9.28855696 5.50678481,9.31655696 5.55782278,9.34916456 C5.60478481,9.37751899 5.65139241,9.40534177 5.69339241,9.43777215 C5.74939241,9.48916456 5.81478481,9.51751899 5.89364557,9.53594937 C5.88939241,9.52177215 5.88478481,9.51698734 5.88478481,9.51698734 C6.01521519,9.57777215 6.15060759,9.64316456 6.25303797,9.69420253 C5.768,9.70377215 5.25035443,9.71316456 4.71392405,9.72255696 C4.71392405,9.63394937 4.70931646,9.54977215 4.70931646,9.46098734 C4.70931646,9.42377215 4.71853165,9.39098734 4.71374684,9.35359494 C4.69956962,9.13916456 4.69956962,8.92402532 4.67174684,8.7138481 C4.64392405,8.4898481 4.64392405,8.27027848 4.64870886,8.04574684 C4.65313924,7.92470886 4.64392405,7.79870886 4.63913924,7.67713924 C4.63913924,7.51374684 4.63913924,7.35460759 4.64410127,7.19156962 C4.64410127,7.16817722 4.65349367,7.14956962 4.66288608,7.126 L4.67706329,7.126 C4.68149367,7.13556962 4.67706329,7.14956962 4.68592405,7.15435443 C4.70010127,7.16853165 4.72349367,7.19156962 4.73288608,7.18696203 C4.76070886,7.16817722 4.80270886,7.14974684 4.81210127,7.12139241 C4.83513924,7.06556962 4.84470886,7.00478481 4.84470886,6.94878481 C4.84470886,6.90696203 4.86349367,6.87896203 4.88192405,6.85078481 C4.89149367,6.83660759 4.89610127,6.82278481 4.90549367,6.80417722 C4.88688608,6.79 4.86827848,6.78078481 4.84488608,6.76217722 C4.86367089,6.71078481 4.85906329,6.65 4.92906329,6.62217722 C4.93827848,6.61739241 4.93827848,6.59382278 4.94324051,6.58 C4.94767089,6.54225316 4.95210127,6.50025316 4.95706329,6.46303797 C4.96627848,6.47721519 4.97124051,6.48164557 4.98010127,6.49086076 C4.98506329,6.48164557 4.98967089,6.47668354 4.98967089,6.47668354 C4.98967089,6.45825316 4.98506329,6.42086076 4.98967089,6.42086076 C5.04567089,6.41146835 5.02227848,6.35086076 5.05027848,6.32286076 C5.05470886,6.31789873 5.04549367,6.30389873 5.04549367,6.29450633 C5.04549367,6.28529114 5.04549367,6.27146835 5.05010127,6.27146835 C5.11513924,6.25729114 5.10592405,6.18729114 5.14792405,6.15450633 C5.16210127,6.14511392 5.16653165,6.13146835 5.18513924,6.10789873 C5.22235443,6.17311392 5.15713924,6.20589873 5.15253165,6.25250633 C5.23156962,6.20589873 5.25496203,6.09389873 5.20835443,6.06111392 C5.22696203,6.04693671 5.24556962,6.02850633 5.25974684,6.00972152 C5.31113924,5.95372152 5.36678481,5.90232911 5.41356962,5.84632911 C5.44635443,5.80450633 5.46496203,5.75311392 5.49756962,5.71111392 C5.51635443,5.68772152 5.55356962,5.66911392 5.58156962,5.65493671 C5.66556962,5.60850633 5.74460759,5.55711392 5.796,5.47772152 C5.80539241,5.46832911 5.81939241,5.45911392 5.83321519,5.44972152 C5.84739241,5.44032911 5.87539241,5.44032911 5.88,5.42632911 C5.88478481,5.41711392 5.87078481,5.39372152 5.86139241,5.37972152 C5.87982278,5.37032911 5.89860759,5.35172152 5.93582278,5.33293671 C5.92164557,5.36093671 5.91721519,5.37972152 5.90782278,5.39850633 L5.93086076,5.4215443 C5.97303797,5.38893671 6.03825316,5.35172152 6.08025316,5.32372152 C6.08025316,5.31929114 6.05686076,5.30068354 6.05686076,5.30068354 C6.02903797,5.31486076 5.98703797,5.33789873 5.94521519,5.35668354 C5.95407595,5.34250633 5.95407595,5.33329114 5.95939241,5.32868354 C6.02443038,5.28668354 6.08964557,5.24468354 6.15964557,5.21172152 C6.32268354,5.13729114 6.48607595,5.06250633 6.64929114,4.99250633 C6.67729114,4.97832911 6.71486076,4.98789873 6.74729114,4.98789873 C6.76111392,4.98789873 6.77032911,4.98789873 6.78450633,4.98329114 C6.85893671,4.95989873 6.93372152,4.93650633 7.00832911,4.91772152 C7.04075949,4.90850633 7.07797468,4.90389873 7.11111392,4.90389873 C7.25058228,4.90832911 7.39058228,4.90832911 7.53040506,4.91772152 C7.59101266,4.92232911 7.64701266,4.93632911 7.70301266,4.95493671 C7.77283544,4.97850633 7.84744304,5.01111392 7.91283544,5.0435443 C7.99205063,5.08607595 8.06665823,5.13250633 8.14144304,5.18389873 C8.27665823,5.27250633 8.40248101,5.37068354 8.5376962,5.45007595 C8.6683038,5.52946835 8.77091139,5.63686076 8.85491139,5.75843038 C8.9576962,5.90303797 9.07412658,6.03382278 9.12073418,6.21121519 L9.19055696,6.51956962 C9.20473418,6.57556962 9.23734177,6.63156962 9.22334177,6.69678481 C9.19977215,6.81374684 9.18116456,6.93513924 9.16255696,7.05192405 C9.15334177,7.09888608 9.14394937,7.1458481 9.14873418,7.19192405 C9.15759494,7.33724051 9.10177215,7.46306329 9.04594937,7.5938481 C9.02716456,7.6358481 8.99916456,7.67802532 8.97594937,7.72463291 C8.98055696,7.72924051 9.00855696,7.74341772 9.01316456,7.74341772 L9.05516456,7.65941772 C9.05994937,7.65941772 9.05994937,7.65941772 9.06455696,7.66420253 C9.04116456,7.72941772 9.02255696,7.79959494 8.99898734,7.86498734 C8.94334177,8.00977215 8.88734177,8.15916456 8.81734177,8.29916456 C8.78012658,8.37855696 8.71455696,8.44394937 8.66812658,8.51891139 C8.6216962,8.58412658 8.5843038,8.65412658 8.5376962,8.71491139 C8.4956962,8.7663038 8.45387342,8.8176962 8.3976962,8.85491139 C8.27187342,8.9483038 8.14126582,9.0416962 8.00605063,9.11648101 C7.92222785,9.16787342 7.82422785,9.19587342 7.73101266,9.21926582 L7.73225316,9.21873418 Z M5.2464557,8.97063291 L5.2418481,8.97541772 C5.23210127,8.97081013 5.21810127,8.96620253 5.20888608,8.95681013 L5.09688608,8.7884557 C5.08767089,8.77463291 5.08270886,8.76063291 5.08767089,8.74202532 C5.13906329,8.82141772 5.1904557,8.89620253 5.24627848,8.97063291 L5.2464557,8.97063291 Z M8.14746835,9.61037975 C8.35711392,9.52177215 8.52972152,9.39594937 8.68797468,9.25098734 C8.7115443,9.22759494 8.73475949,9.20437975 8.76275949,9.18541772 C8.95875949,9.06420253 9.10301266,8.89602532 9.23379747,8.70924051 C9.38301266,8.4944557 9.48101266,8.25167089 9.60240506,8.02288608 C9.61162025,8.00410127 9.62083544,7.98567089 9.63022785,7.97149367 C9.62083544,8.5038481 9.68162025,9.02681013 9.75144304,9.55455696 C9.22458228,9.57316456 8.6881519,9.59177215 8.14729114,9.61055696 L8.14746835,9.61037975 Z M12.8761013,9.47037975 C12.8714937,9.47977215 12.8619241,9.48916456 12.8574937,9.49873418 C12.8527089,9.48916456 12.8527089,9.47516456 12.8481013,9.45620253 C12.8201013,9.53116456 12.7594937,9.49377215 12.7174937,9.49377215 C12.4658481,9.49855696 12.2092405,9.49855696 11.9572405,9.49855696 C11.7148101,9.49855696 11.4677722,9.49855696 11.2253418,9.50281013 C11.1459494,9.50281013 11.0619494,9.52141772 10.982557,9.52620253 C10.791519,9.53541772 10.6003038,9.54037975 10.4090886,9.54481013 C10.3949114,9.54481013 10.3810886,9.52177215 10.3576962,9.50298734 C10.3530886,9.51237975 10.343519,9.52637975 10.3296962,9.54498734 C10.3247342,9.53577215 10.315519,9.52655696 10.3061266,9.51255696 C10.301519,9.52673418 10.2967342,9.54055696 10.2919494,9.54977215 L10.278481,9.54977215 C10.2690886,9.48455696 10.250481,9.42394937 10.250481,9.35837975 C10.250481,9.21837975 10.2646582,9.07837975 10.2690886,8.93802532 C10.2738734,8.87281013 10.2690886,8.81220253 10.2690886,8.75124051 C10.2878734,8.76541772 10.3018734,8.77481013 10.320481,8.7884557 C10.3296962,8.77020253 10.3390886,8.75620253 10.348481,8.74237975 C10.348481,8.74237975 10.3390886,8.73741772 10.3296962,8.72820253 C10.338557,8.72341772 10.3481266,8.71402532 10.3481266,8.70941772 C10.3527342,8.69524051 10.3623038,8.68141772 10.3623038,8.67220253 C10.3623038,8.63941772 10.3527342,8.61141772 10.3481266,8.58359494 C10.3527342,8.58359494 10.3573418,8.58359494 10.3623038,8.57863291 L10.3901266,8.71863291 L10.4043038,8.71863291 C10.385519,8.68620253 10.4461266,8.65802532 10.3949114,8.62081013 C10.3903038,8.61602532 10.399519,8.58802532 10.399519,8.57402532 C10.3853418,8.54620253 10.376481,8.51820253 10.3623038,8.48081013 C10.3669114,8.47620253 10.3809114,8.47141772 10.3949114,8.46663291 C10.3763038,8.45741772 10.3623038,8.44820253 10.3483038,8.44359494 C10.3949114,8.40141772 10.3949114,8.37802532 10.3529114,8.33141772 C10.362481,8.32698734 10.3716962,8.32698734 10.3716962,8.32255696 C10.3716962,8.28037975 10.3716962,8.23837975 10.362481,8.19673418 C10.3530886,8.14959494 10.3766582,8.09394937 10.306481,8.06559494 C10.3110886,8.07977215 10.3158734,8.08898734 10.3250886,8.10281013 C10.3250886,8.10281013 10.3109114,8.10759494 10.2970886,8.11698734 C10.236481,8.06081013 10.2740506,7.9858481 10.2598734,7.90202532 C10.292481,7.91141772 10.3158734,7.92081013 10.3390886,7.93037975 C10.3296962,7.89741772 10.306481,7.86002532 10.292481,7.81802532 L10.273519,7.81802532 L10.273519,7.50967089 C10.273519,7.5144557 10.3061266,7.5144557 10.3249114,7.51924051 C10.3249114,7.5144557 10.3293418,7.5098481 10.3293418,7.50506329 C10.3151646,7.4864557 10.296557,7.4678481 10.2779494,7.4444557 L10.2873418,7.43506329 C10.2501266,7.38863291 10.2687342,7.32341772 10.2687342,7.30924051 L10.2687342,6.98227848 C10.315519,7.02906329 10.2456962,7.08967089 10.315519,7.11767089 L10.315519,7.07106329 L10.3107342,7.07106329 C10.3061266,7.00106329 10.3061266,6.93106329 10.301519,6.86088608 L10.2923038,6.86088608 C10.287519,6.8704557 10.287519,6.87506329 10.2827342,6.8844557 L10.273519,6.8844557 L10.301519,5.76835443 C10.3481266,5.82896203 10.3993418,5.88531646 10.4319494,5.94556962 C10.5393418,6.14192405 10.6791646,6.31010127 10.8097722,6.48749367 C10.9217722,6.64167089 11.0242025,6.80967089 11.1269873,6.9684557 C11.2528101,7.1598481 11.3740253,7.35124051 11.5000253,7.54263291 C11.5932405,7.68759494 11.6914177,7.83237975 11.7888861,7.97255696 C11.8774937,8.09837975 11.9710633,8.21994937 12.0642785,8.34151899 C12.1433165,8.44891139 12.2273165,8.5563038 12.3065316,8.6636962 C12.3999241,8.79448101 12.4931392,8.92508861 12.5865316,9.05126582 C12.632962,9.11648101 12.6843544,9.18187342 12.7353924,9.24726582 C12.7637468,9.28448101 12.8055696,9.31283544 12.8335696,9.33587342 C12.8291392,9.33587342 12.8243544,9.33587342 12.8151392,9.33126582 C12.8293165,9.34987342 12.8381772,9.36387342 12.8477468,9.37326582 C12.8991392,9.40126582 12.9037468,9.42926582 12.8757468,9.47144304 L12.8761013,9.47037975 Z M13.1139241,8.30324051 L13.1139241,8.2704557 C13.1139241,8.27967089 13.1185316,8.29349367 13.1139241,8.30306329 L13.1139241,8.30324051 Z M13.2725316,6.244 C13.2677468,6.244 13.2399241,6.21564557 13.2353165,6.21103797 C13.2305316,6.22521519 13.2353165,6.23903797 13.2259241,6.25782278 C13.2211392,6.244 13.1887089,6.24860759 13.1887089,6.23478481 C13.1839241,6.3 13.2165316,6.36539241 13.2117468,6.43078481 C13.2259241,6.42139241 13.2817468,6.41660759 13.2957468,6.40278481 C13.3005316,6.40739241 13.3099241,6.412 13.3145316,6.412 C13.2211392,6.48217722 13.2445316,6.552 13.2865316,6.63174684 C13.2957468,6.65017722 13.3237468,6.68756962 13.2957468,6.72496203 C13.2865316,6.73435443 13.3005316,6.76217722 13.3051392,6.78574684 L13.3187848,6.78574684 L13.3187848,6.79460759 L13.2767848,6.80878481 C13.2675696,6.79460759 13.2117468,6.76696203 13.2117468,6.74321519 L13.2117468,6.98174684 C13.2583544,6.99592405 13.2583544,7.06113924 13.276962,7.09392405 C13.2867089,7.07974684 13.2911392,7.07035443 13.2959241,7.05670886 L13.3007089,7.06096203 C13.2959241,7.08896203 13.2913165,7.11696203 13.2819241,7.14513924 C13.2727089,7.18696203 13.2633165,7.22435443 13.2588861,7.26635443 C13.2588861,7.27096203 13.2677468,7.28053165 13.2677468,7.28496203 C13.2167089,7.40192405 13.2447089,7.53235443 13.2261013,7.65356962 C13.2119241,7.74217722 13.2261013,7.83610127 13.2167089,7.92931646 C13.2071392,8.00870886 13.1883544,8.09270886 13.1699241,8.17210127 C13.1651392,8.18627848 13.1557468,8.19070886 13.1327089,8.20010127 C13.1419241,8.14410127 13.1373165,8.10670886 13.1279241,8.05531646 C13.122962,8.05531646 13.0623544,8.02270886 13.0575696,8.02270886 C13.0575696,8.08827848 13.0947848,8.17688608 13.108962,8.25131646 C13.0947848,8.24670886 13.038962,8.21410127 13.0345316,8.21410127 C13.024962,8.27010127 13.024962,8.34488608 13.0203544,8.40549367 C13.0155696,8.45227848 12.9737468,8.49410127 12.968962,8.54549367 C12.968962,8.5738481 13.0015696,8.59227848 12.996962,8.63906329 L13.0341772,8.63906329 C13.0341772,8.5458481 13.0763544,8.4618481 13.0763544,8.36367089 L13.0901772,8.36367089 C13.094962,8.37306329 13.108962,8.3824557 13.1043544,8.38706329 C13.094962,8.4384557 13.076,8.4944557 13.080962,8.5458481 C13.080962,8.5738481 13.104,8.6018481 13.0951392,8.6344557 C13.0855696,8.66281013 13.080962,8.69063291 13.0761772,8.73263291 C13.0713924,8.70924051 13.0667848,8.70002532 13.0667848,8.68602532 C13.0621772,8.68602532 13.0201772,8.68124051 13.0153924,8.68124051 C13.0107848,8.70924051 13.0481772,8.73724051 13.0433924,8.76063291 C13.0387848,8.76524051 13.0341772,8.76524051 13.0247848,8.77002532 L12.870962,8.54567089 C12.7493924,8.3684557 12.6281772,8.19070886 12.506962,8.00870886 C12.4741772,7.96192405 12.4461772,7.91531646 12.4227848,7.86870886 C12.2783544,7.62096203 12.1197468,7.38278481 11.9425316,7.154 C11.8074937,6.98139241 11.6997468,6.79425316 11.5739241,6.61260759 C11.4576709,6.43982278 11.3410633,6.27164557 11.2244557,6.09868354 C11.1824557,6.04286076 11.1312405,5.99146835 11.0938481,5.93068354 C10.9728101,5.73929114 10.8652405,5.54311392 10.7443797,5.35172152 C10.6415949,5.19275949 10.5299494,5.03858228 10.422557,4.88458228 C10.3853418,4.83318987 10.3481266,4.77701266 10.310557,4.72101266 C10.3059494,4.7121519 10.3013418,4.70275949 10.3013418,4.68875949 C10.2919494,4.58597468 10.282557,4.48318987 10.2779494,4.38518987 C10.2779494,4.29179747 10.2873418,4.19840506 10.2873418,4.10022785 L10.2873418,4.01622785 C10.2873418,3.99283544 10.2917722,3.97422785 10.2917722,3.95065823 C10.2962025,3.94622785 10.3009873,3.93683544 10.3055949,3.93222785 C10.1703797,3.93222785 10.0303797,3.92726582 9.89516456,3.93222785 C9.80655696,3.93665823 9.75994937,3.89926582 9.69934177,3.83387342 C9.52212658,3.63308861 9.39151899,3.4043038 9.2376962,3.18951899 C9.09308861,2.98394937 8.94387342,2.78298734 8.79465823,2.58220253 C8.67326582,2.41881013 8.55187342,2.26002532 8.43083544,2.09663291 C8.29544304,1.9098481 8.16501266,1.72306329 8.02501266,1.53627848 C7.85701266,1.31227848 7.68440506,1.08792405 7.51197468,0.863924051 C7.43222785,0.761139241 7.34362025,0.663139241 7.25501266,0.55556962 C7.31579747,0.565139241 7.37197468,0.57435443 7.42779747,0.579139241 L7.65179747,0.593316456 C7.81962025,0.606962025 7.98744304,0.61635443 8.15508861,0.639392405 C8.29508861,0.65835443 8.43508861,0.68635443 8.5796962,0.70956962 C8.8876962,0.760962025 9.19073418,0.845139241 9.48455696,0.943139241 C9.65716456,0.999139241 9.82481013,1.07392405 9.99316456,1.14392405 C10.3706329,1.29810127 10.7298481,1.48488608 11.0842785,1.68088608 C11.1959241,1.74167089 11.2614937,1.83967089 11.3451392,1.9284557 C11.4665316,2.05463291 11.5879241,2.18063291 11.7043544,2.31124051 C11.8393924,2.46541772 11.9652152,2.62420253 12.096,2.78298734 C12.2124304,2.92298734 12.3334684,3.06298734 12.4504304,3.20334177 C12.4876456,3.24534177 12.516,3.29673418 12.5482532,3.34334177 C12.6226835,3.45551899 12.7068608,3.56308861 12.7720759,3.6843038 C12.8185063,3.77326582 12.8465063,3.87605063 12.8791139,3.97405063 C12.9255443,4.11883544 12.9723291,4.25883544 13.0191139,4.40362025 C13.0515443,4.51101266 13.0793671,4.62336709 13.1027595,4.73501266 C13.1215443,4.80997468 13.1169367,4.88918987 13.1399747,4.96362025 C13.1683291,5.0621519 13.1399747,5.16918987 13.1683291,5.2675443 C13.1727595,5.27693671 13.1771899,5.29093671 13.1821519,5.30032911 C13.2007595,5.31875949 13.2147595,5.3375443 13.1867595,5.3655443 C13.1823291,5.3701519 13.1823291,5.38858228 13.1867595,5.40275949 C13.1963291,5.3935443 13.2009367,5.3841519 13.2103291,5.3701519 C13.2103291,5.3795443 13.2147595,5.38432911 13.2147595,5.38875949 C13.2147595,5.40718987 13.2099747,5.42597468 13.2147595,5.44458228 C13.2147595,5.45379747 13.2239747,5.46762025 13.2285823,5.47718987 C13.2379747,5.46762025 13.2471899,5.46301266 13.2657975,5.44883544 C13.3077975,5.60779747 13.3125823,5.76658228 13.3125823,5.92997468 C13.3125823,6.0841519 13.3404051,6.23832911 13.2753671,6.38772152 C13.2891899,6.33632911 13.2565823,6.28936709 13.2705823,6.24275949 L13.2725316,6.244 Z"/>
    <path fill="#DD3735" d="M11.0293418,12.6740759 C10.9779494,12.7112911 10.926557,12.7440759 10.8613418,12.7580759 C10.8563797,12.7534684 10.8563797,12.7486835 10.8517722,12.7438987 C10.9031646,12.7112911 10.9589873,12.6786835 11.0103797,12.6458987 C11.0151646,12.6547595 11.024557,12.6643291 11.0291646,12.6737215 L11.0293418,12.6740759 Z M2.28518987,6.34607595 C2.33658228,6.28103797 2.38797468,6.21564557 2.44362025,6.15025316 C2.44805063,6.15486076 2.48526582,6.16443038 2.49005063,6.16886076 C2.43865823,6.23443038 2.36865823,6.32303797 2.31744304,6.39303797 C2.30787342,6.38364557 2.29387342,6.35103797 2.28465823,6.34625316 L2.28518987,6.34607595 Z M0.960506329,8.63481013 C0.923291139,8.55541772 0.886075949,8.47124051 0.848860759,8.39202532 C0.853468354,8.38724051 0.886075949,8.37324051 0.890683544,8.37324051 C0.942075949,8.44767089 0.965113924,8.53627848 1.00268354,8.61602532 C1.00268354,8.61602532 0.965468354,8.63463291 0.960683544,8.63463291 L0.960506329,8.63481013 Z M2.14997468,6.39303797 C2.12197468,6.43521519 2.09397468,6.482 2.06597468,6.52417722 C2.06136709,6.51921519 2.00997468,6.54260759 2.00536709,6.538 C2.03336709,6.496 2.10318987,6.42103797 2.13118987,6.37921519 C2.13597468,6.38382278 2.14058228,6.38860759 2.14997468,6.39339241 L2.14997468,6.39303797 Z M10.530481,12.8658228 C10.5349114,12.8658228 10.5349114,12.8612152 10.5396962,12.8612152 C10.5723038,12.8658228 10.609519,12.8704304 10.6469114,12.8704304 C10.5859494,12.9124304 10.548557,12.9076456 10.5299494,12.8658228 L10.530481,12.8658228 Z M2.15883544,6.58921519 C2.16379747,6.57503797 2.17301266,6.56121519 2.18240506,6.54721519 C2.19162025,6.54721519 2.20544304,6.54243038 2.20544304,6.54243038 C2.22440506,6.50982278 2.22440506,6.48643038 2.24301266,6.45843038 C2.23840506,6.45382278 2.23362025,6.45382278 2.22883544,6.44903797 C2.20101266,6.46817722 2.17301266,6.49156962 2.14501266,6.51017722 C2.15440506,6.51939241 2.15440506,6.52435443 2.15440506,6.53356962 C2.11718987,6.52878481 2.10301266,6.54774684 2.08440506,6.59878481 C2.07979747,6.61296203 2.05640506,6.61756962 2.03301266,6.636 C2.02840506,6.64556962 2.02379747,6.66896203 2.01440506,6.69217722 L2.01918987,6.69713924 C2.00979747,6.70653165 1.99579747,6.71131646 1.99579747,6.71131646 C1.96779747,6.73913924 1.93518987,6.76270886 1.90718987,6.79053165 C1.90258228,6.80470886 1.89797468,6.81853165 1.89797468,6.83253165 C1.93075949,6.79992405 1.98658228,6.73913924 2.02858228,6.70174684 L2.03336709,6.70653165 C2.05197468,6.67853165 2.06597468,6.65053165 2.08475949,6.62253165 C2.08918987,6.62713924 2.08918987,6.63174684 2.09397468,6.63670886 C2.07979747,6.67392405 2.06597468,6.71574684 2.05197468,6.75313924 C2.04222785,6.75774684 2.02822785,6.76731646 2.02822785,6.76253165 C2.00962025,6.77670886 1.99562025,6.79513924 1.97683544,6.80913924 L1.89301266,6.86513924 C1.84640506,6.90713924 1.79979747,6.94435443 1.74840506,6.98653165 C1.71579747,7.03792405 1.68318987,7.08453165 1.64562025,7.14531646 C1.70179747,7.13113924 1.71579747,7.15470886 1.71118987,7.20149367 C1.77640506,7.21070886 1.78118987,7.15949367 1.79979747,7.12210127 C1.80440506,7.11253165 1.80918987,7.09374684 1.81840506,7.08913924 C1.86040506,7.05192405 1.90701266,7.01931646 1.95362025,6.98192405 C1.96301266,6.97253165 1.96301266,6.95356962 1.96301266,6.93974684 C1.96301266,6.93513924 1.93944304,6.93513924 1.92544304,6.93035443 C1.96744304,6.88356962 2.02822785,6.80453165 2.07005063,6.75313924 C2.09344304,6.73896203 2.11665823,6.72017722 2.11665823,6.70617722 C2.11205063,6.65478481 2.14465823,6.64096203 2.18222785,6.62217722 C2.16344304,6.608 2.15865823,6.59435443 2.15865823,6.58974684 L2.15883544,6.58921519 Z"/>
    <path fill="#DD3735" d="M2.25240506,6.53782278 C2.23379747,6.57043038 2.21518987,6.59843038 2.19658228,6.63121519 L2.16858228,6.61703797 C2.14997468,6.72425316 2.08458228,6.81764557 2.01936709,6.83625316 C2.03797468,6.84564557 2.05658228,6.85503797 2.07075949,6.85043038 C2.08458228,6.84564557 2.09379747,6.82207595 2.10318987,6.80825316 L2.22901266,6.62607595 L2.27118987,6.55589873 L2.25258228,6.53729114 L2.25240506,6.53782278 Z M0.69964557,8.5878481 C0.723037975,8.5878481 0.74643038,8.5924557 0.774075949,8.5924557 C0.774075949,8.5738481 0.79764557,8.57827848 0.79764557,8.5598481 L0.811822785,8.5598481 C0.811822785,8.58324051 0.81643038,8.6018481 0.81643038,8.62541772 L0.718607595,8.62541772 C0.713822785,8.62063291 0.69521519,8.5924557 0.699822785,8.5878481 L0.69964557,8.5878481 Z M0.66243038,8.37306329 C0.648253165,8.35888608 0.62521519,8.34506329 0.62521519,8.33106329 C0.62043038,8.31263291 0.63443038,8.28941772 0.648253165,8.26602532 C0.657822785,8.29863291 0.66243038,8.32663291 0.67164557,8.35941772 C0.666860759,8.3638481 0.662253165,8.36863291 0.662253165,8.37324051 L0.66243038,8.37306329 Z M0.779037975,8.07410127 C0.79764557,8.12124051 0.816253165,8.17263291 0.835037975,8.21941772 C0.83043038,8.21941772 0.80243038,8.23359494 0.797822785,8.23802532 C0.77921519,8.19124051 0.755822785,8.1398481 0.73721519,8.09324051 C0.741822785,8.08863291 0.769822785,8.0744557 0.77921519,8.0744557 L0.779037975,8.07410127 Z M11.1603038,12.5388608 C11.1833418,12.5296456 11.2113418,12.5246835 11.2489114,12.5158228 C11.2067342,12.5482532 11.1741266,12.5716456 11.1461266,12.5996456 C11.1413418,12.595038 11.1367342,12.5902532 11.1319494,12.5902532 C11.1413418,12.5716456 11.1507342,12.5576456 11.1603038,12.5388608 Z M5.42810127,2.67134177 C5.45592405,2.65255696 5.47949367,2.63855696 5.50731646,2.61994937 L5.51653165,2.62916456 C5.48817722,2.66637975 5.46513924,2.70359494 5.43235443,2.75055696 C5.42774684,2.71812658 5.42774684,2.69916456 5.42296203,2.67612658 C5.41835443,2.67612658 5.42296203,2.67612658 5.42774684,2.67151899 L5.42810127,2.67134177 Z M6.79443038,5.0341519 C6.83643038,5.01536709 6.87843038,4.99693671 6.92964557,4.97336709 C6.92503797,5.00136709 6.92503797,5.0201519 6.92503797,5.03893671 C6.91086076,5.0341519 6.89225316,5.02936709 6.87825316,5.02936709 C6.85025316,5.0341519 6.79886076,5.0715443 6.77546835,5.0761519 C6.77103797,5.0761519 6.79425316,5.03893671 6.79425316,5.0341519 L6.79443038,5.0341519 Z M10.2926582,8.99420253 C10.3018734,9.04081013 10.390481,9.06420253 10.3018734,9.11081013 C10.3160506,9.12055696 10.3296962,9.12498734 10.3436962,9.13455696 C10.3436962,9.13934177 10.3390886,9.14873418 10.334481,9.15334177 C10.3250886,9.15777215 10.306481,9.16716456 10.2972658,9.16220253 C10.292481,9.16220253 10.2830886,9.14377215 10.2830886,9.13437975 C10.2830886,9.09237975 10.2878734,9.05037975 10.292481,8.99437975 L10.2926582,8.99420253 Z"/>
  </g>
</svg>
