<!-- Copyright 2000-2024 JetBrains s.r.o. and contributors. Use of this source code is governed by the Apache 2.0 license. -->
<svg width="16" height="16" viewBox="0 0 16 16" fill="none" xmlns="http://www.w3.org/2000/svg">
<path fill-rule="evenodd" clip-rule="evenodd" d="M8.00001 1C11 1 11 2 11 4L11 6.5C11 7.32843 10.3284 8 9.5 8H6.5C5.11929 8 4 9.11929 4 10.5V11C2 11 1 11 1 7.99999C1 4.99999 2 4.99998 4 4.99998L7.5 5C7.77614 5 8 4.77614 8 4.5C8 4.22386 7.77614 4 7.5 4H5.00001C5.00001 2 5.00001 1 8.00001 1ZM6.5 3C6.77614 3 7 2.77614 7 2.5C7 2.22386 6.77614 2 6.5 2C6.22386 2 6 2.22386 6 2.5C6 2.77614 6.22386 3 6.5 3Z" fill="#548AF7"/>
<path fill-rule="evenodd" clip-rule="evenodd" d="M15.3798 12.7116C15.5435 12.8689 15.5436 13.1309 15.3799 13.2883L12.6774 15.8875C12.4232 16.1319 12 15.9518 12 15.5992L12 10.4037C12 10.0512 12.423 9.87106 12.6772 10.1153L15.3798 12.7116Z" fill="#57965C"/>
<path fill-rule="evenodd" clip-rule="evenodd" d="M7.62255 13.2884C7.45909 13.131 7.45916 12.8693 7.62271 12.712L10.3216 10.1164C10.5757 9.87198 10.9989 10.0521 10.9989 10.4047V15.5988C10.9989 15.9515 10.5755 16.1315 10.3214 15.8869L7.62255 13.2884Z" fill="#DB5C5C"/>
<path d="M12 6.5V5C14 5.00001 15 5.00002 15 7.99999C15 9.2804 14.8178 10.0144 14.4535 10.4352L13.37 9.39427C13.0864 9.12185 12.7428 9.0003 12.4062 9.0011L10.5859 9.00183C10.2513 9.00268 9.91013 9.12458 9.6284 9.39554L6.92953 11.9912C6.35704 12.5417 6.35679 13.4577 6.92897 14.0086L7.95856 14.9999C5.00001 14.9907 4.99947 13.9907 5.00001 12L5 10.5C5 9.67157 5.67157 9 6.5 9H9.5C10.8807 9 12 7.88071 12 6.5Z" fill="#F2C55C"/>
</svg>
