<!-- Copyright 2000-2024 JetBrains s.r.o. and contributors. Use of this source code is governed by the Apache 2.0 license. -->
<svg width="16" height="16" viewBox="0 0 16 16" fill="none" xmlns="http://www.w3.org/2000/svg">
<path fill-rule="evenodd" clip-rule="evenodd" d="M8.00001 1C11 1 11 2 11 4L11 6.5C11 7.32843 10.3284 8 9.5 8H6.5C5.11929 8 4 9.11929 4 10.5V11C2 11 1 11 1 7.99999C1 4.99999 2 4.99998 4 4.99998L7.5 5C7.77614 5 8 4.77614 8 4.5C8 4.22386 7.77614 4 7.5 4H5.00001C5.00001 2 5.00001 1 8.00001 1ZM6.5 3C6.77614 3 7 2.77614 7 2.5C7 2.22386 6.77614 2 6.5 2C6.22386 2 6 2.22386 6 2.5C6 2.77614 6.22386 3 6.5 3Z" fill="#548AF7"/>
<path fill-rule="evenodd" clip-rule="evenodd" d="M12.1464 9.14645C12.3417 8.95118 12.6583 8.95118 12.8536 9.14645L15.8536 12.1464C16.0488 12.3417 16.0488 12.6583 15.8536 12.8536L12.8536 15.8536C12.6583 16.0488 12.3417 16.0488 12.1464 15.8536C11.9512 15.6583 11.9512 15.3417 12.1464 15.1464L14.7929 12.5L12.1464 9.85355C11.9512 9.65829 11.9512 9.34171 12.1464 9.14645Z" fill="#CED0D6"/>
<path fill-rule="evenodd" clip-rule="evenodd" d="M12 6.5V5C14 5.00001 15 5.00002 15 7.99999C15 8.73029 14.9407 9.28284 14.8222 9.7009L13.5607 8.43934C12.9749 7.85355 12.0251 7.85355 11.4393 8.43934C10.8536 9.02513 10.8536 9.97487 11.4393 10.5607L11.8787 11L8.5 11C8.22386 11 8 11.2239 8 11.5C8 11.7761 8.22386 12 8.5 12L11 12C11 14 11 15 8.00001 15C5.00001 15 4.99946 14 5.00001 12L5 10.5C5 9.67157 5.67157 9 6.5 9H9.5C10.8807 9 12 7.88071 12 6.5ZM10 13.5C10 13.7761 9.77614 14 9.5 14C9.22386 14 9 13.7761 9 13.5C9 13.2239 9.22386 13 9.5 13C9.77614 13 10 13.2239 10 13.5Z" fill="#F2C55C"/>
</svg>
