<svg xmlns="http://www.w3.org/2000/svg" width="16" height="16" viewBox="0 0 16 16">
  <path fill="#EB4548" fill-rule="evenodd" d="M10.5600526,12.1005598 C8.91093881,13.0877359 6.64345153,13.1891631 4.36218335,12.1759894 C2.51508404,11.3616424 0.982471817,9.93616891 0,8.30747485 C0.471589299,8.71464836 1.02176504,9.04053364 1.61123399,9.32540864 C3.96713102,10.4696687 6.32253335,10.3913098 7.98012769,9.32833794 C7.97906762,9.32723945 7.97836091,9.32650713 7.97765419,9.32540864 C5.6197077,7.45211753 3.61547084,5.00871027 2.12218718,3.0134868 C1.80766475,2.68767476 1.5718701,2.28042801 1.33607545,1.91393523 C3.14381087,3.62428369 6.01274589,5.7824498 7.03429892,6.39357624 C4.87317187,4.03145721 2.94738012,1.09958819 3.02582521,1.18087643 C6.44490063,4.76451601 9.62828741,6.80074975 9.62828741,6.80074975 C9.73358758,6.86226518 9.81485953,6.91352803 9.88023044,6.95929843 C9.94913492,6.77768147 10.0095588,6.5891074 10.0604421,6.39357624 C10.6106179,4.31669837 9.98199705,1.95457935 8.60638103,0 C11.7894145,1.99540655 13.6759837,5.74180568 12.8897659,8.87762762 C12.8692713,8.96221133 12.8470098,9.04569654 12.8229816,9.12771711 C12.8321689,9.13906817 12.8413561,9.15078539 12.8505434,9.16286878 C14.4222721,11.1991025 13.9901174,13.3572686 13.7936513,12.9500951 C12.9410026,11.2210723 11.3625601,11.749812 10.5600879,12.1005964 L10.5600526,12.1005598 Z" transform="translate(1 1)"/>
</svg>
