<svg width="16" height="16" viewBox="0 0 16 16" fill="none" xmlns="http://www.w3.org/2000/svg">
<path d="M12.5081 13.915C13.3437 13.915 14.0211 13.2376 14.0211 12.402C14.0211 11.5664 13.3437 10.889 12.5081 10.889C11.6725 10.889 10.9951 11.5664 10.9951 12.402C10.9951 13.2376 11.6725 13.915 12.5081 13.915Z" stroke="white" stroke-miterlimit="10"/>
<path d="M12.517 11.043V4.672C12.5171 4.51814 12.4869 4.36576 12.4281 4.22357C12.3693 4.08138 12.2831 3.95217 12.1743 3.84333C12.0656 3.73449 11.9365 3.64814 11.7943 3.58923C11.6522 3.53032 11.4998 3.5 11.346 3.5H7.79297" stroke="white" stroke-miterlimit="10"/>
<path d="M9.47911 5.69103L7.36011 3.50103L9.53211 1.34003" stroke="white" stroke-linejoin="bevel"/>
<path d="M3.51202 5.09003C4.34763 5.09003 5.02502 4.41263 5.02502 3.57703C5.02502 2.74142 4.34763 2.06403 3.51202 2.06403C2.67642 2.06403 1.99902 2.74142 1.99902 3.57703C1.99902 4.41263 2.67642 5.09003 3.51202 5.09003Z" stroke="white" stroke-miterlimit="10"/>
<path d="M3.5 4.93604V11.307C3.5 11.6176 3.62337 11.9155 3.84298 12.1351C4.06258 12.3547 4.36043 12.478 4.671 12.478H8.227" stroke="white" stroke-miterlimit="10"/>
<path d="M6.54104 10.287L8.66004 12.478L6.48804 14.638" stroke="white" stroke-linejoin="bevel"/>
<circle cx="3.5" cy="3.5" r="1.5" fill="white"/>
<circle cx="12.5" cy="12.5" r="1.5" fill="white"/>
</svg>
