<svg width="16" height="16" viewBox="0 0 16 16" fill="none" xmlns="http://www.w3.org/2000/svg">
<path fill-rule="evenodd" clip-rule="evenodd" d="M11.9961 4.034L11.9951 4.035L11.9961 4.036V4.034Z" fill="white"/>
<path d="M4 6C3.80222 6 3.60888 5.94135 3.44443 5.83147C3.27998 5.72159 3.15181 5.56541 3.07612 5.38268C3.00043 5.19996 2.98063 4.99889 3.01921 4.80491C3.0578 4.61093 3.15304 4.43275 3.29289 4.29289C3.43275 4.15304 3.61093 4.0578 3.80491 4.01922C3.99889 3.98063 4.19996 4.00043 4.38268 4.07612C4.56541 4.15181 4.72159 4.27998 4.83147 4.44443C4.94135 4.60888 5 4.80222 5 5C5 5.26522 4.89464 5.51957 4.70711 5.70711C4.51957 5.89464 4.26522 6 4 6ZM4 7C4.39556 7 4.78224 6.8827 5.11114 6.66294C5.44004 6.44318 5.69638 6.13082 5.84776 5.76537C5.99913 5.39992 6.03874 4.99778 5.96157 4.60982C5.8844 4.22186 5.69392 3.86549 5.41421 3.58579C5.13451 3.30608 4.77814 3.1156 4.39018 3.03843C4.00222 2.96126 3.60009 3.00087 3.23463 3.15224C2.86918 3.30362 2.55682 3.55996 2.33706 3.88886C2.1173 4.21776 2 4.60444 2 5C2 5.53043 2.21071 6.03914 2.58579 6.41421C2.96086 6.78929 3.46957 7 4 7Z" fill="white"/>
<path fill-rule="evenodd" clip-rule="evenodd" d="M7.13 12H5.18C5.09184 11.9998 5.00456 11.9825 4.923 11.949C4.75841 11.8804 4.62758 11.7496 4.559 11.585C4.52562 11.5034 4.50831 11.4162 4.508 11.328V11.328L4.5 6H3.5V11.328C3.50026 11.5482 3.54395 11.7661 3.62857 11.9694C3.71319 12.1726 3.83708 12.3572 3.99313 12.5125C4.14919 12.6678 4.33435 12.7908 4.53801 12.8745C4.74167 12.9581 4.95983 13.0008 5.18 13H7.355L6 14.288L6.683 15L9.2 12.5L6.7 10L6.017 10.712L7.355 12H7.13Z" fill="white"/>
<path d="M12 11C12.1978 11 12.3911 11.0586 12.5556 11.1685C12.72 11.2784 12.8482 11.4346 12.9239 11.6173C12.9996 11.8 13.0194 12.0011 12.9808 12.1951C12.9422 12.3891 12.847 12.5673 12.7071 12.7071C12.5673 12.847 12.3891 12.9422 12.1951 12.9808C12.0011 13.0194 11.8 12.9996 11.6173 12.9239C11.4346 12.8482 11.2784 12.72 11.1685 12.5556C11.0587 12.3911 11 12.1978 11 12C11 11.7348 11.1054 11.4804 11.2929 11.2929C11.4804 11.1054 11.7348 11 12 11V11ZM12 10C11.6044 10 11.2178 10.1173 10.8889 10.3371C10.56 10.5568 10.3036 10.8692 10.1522 11.2346C10.0009 11.6001 9.96126 12.0022 10.0384 12.3902C10.1156 12.7781 10.3061 13.1345 10.5858 13.4142C10.8655 13.6939 11.2219 13.8844 11.6098 13.9616C11.9978 14.0387 12.3999 13.9991 12.7654 13.8478C13.1308 13.6964 13.4432 13.44 13.6629 13.1111C13.8827 12.7822 14 12.3956 14 12C14 11.4696 13.7893 10.9609 13.4142 10.5858C13.0391 10.2107 12.5304 10 12 10Z" fill="white"/>
<path fill-rule="evenodd" clip-rule="evenodd" d="M8.87005 5H10.82C10.9082 5.0002 10.9955 5.01753 11.077 5.051C11.2416 5.11958 11.3725 5.25041 11.441 5.415C11.4744 5.49659 11.4917 5.58385 11.492 5.672V5.672L11.5 11H12.5V5.672C12.4998 5.45183 12.4561 5.23387 12.3715 5.03061C12.2869 4.82735 12.163 4.64278 12.0069 4.48747C11.8509 4.33216 11.6657 4.20916 11.462 4.12551C11.2584 4.04186 11.0402 3.99921 10.82 4H8.64505L10 2.712L9.31705 2L6.80005 4.5L9.30005 7L9.98305 6.288L8.64505 5H8.87005Z" fill="white"/>
</svg>
