<svg width="16" height="16" viewBox="0 0 16 16" fill="none" xmlns="http://www.w3.org/2000/svg">
<path fill-rule="evenodd" clip-rule="evenodd" d="M12 9C10.3304 9 9 10.3304 9 12C9 13.6696 10.3304 15 12 15C13.6696 15 15 13.6696 15 12C15 10.3304 13.6696 9 12 9ZM11.2028 12.4712L10.704 14L12 13.024L13.3054 14L12.7972 12.4712L14 11.6394H12.5361L12 10L11.4732 11.6394H10L11.2028 12.4712Z" fill="#007ACC"/>
<path fill-rule="evenodd" clip-rule="evenodd" d="M11.1708 8.08474C9.85081 8.35911 8.77687 9.27684 8.28696 10.5H6.40867V12.7012C6.40867 12.7823 6.4372 12.8512 6.49888 12.9127C6.56058 12.9741 6.63007 13.0028 6.71205 13.0028H8.12487C8.21364 13.3513 8.34773 13.6809 8.52059 13.9851C8.45462 13.9951 8.38715 14 8.31823 14H6.71205C6.53223 14 6.36223 13.9663 6.20306 13.8984C6.04564 13.8311 5.90753 13.7388 5.78961 13.6213C5.67168 13.5038 5.57895 13.3661 5.51141 13.2091C5.44311 13.0503 5.40927 12.8807 5.40927 12.7012V11.1009C5.40927 10.622 5.31772 10.1795 5.13553 9.77209C4.95683 9.36336 4.69832 8.99156 4.35953 8.65806C3.92468 8.22903 3.58896 7.75003 3.35361 7.22134C3.11756 6.69107 3 6.11672 3 5.49953C3 5.08664 3.05342 4.68802 3.16048 4.30397C3.26728 3.92089 3.41907 3.56286 3.61595 3.23018C3.81257 2.89377 4.04777 2.58911 4.32146 2.31641C4.59503 2.04383 4.89858 1.80953 5.23195 1.61364C5.56979 1.41764 5.93146 1.2662 6.31578 1.15983C6.70106 1.0532 7.10094 1 7.51514 1C7.92934 1 8.32923 1.0532 8.71451 1.15983C9.09883 1.2662 9.45803 1.41739 9.79183 1.61351C10.1294 1.80938 10.4351 2.0437 10.7088 2.31641C10.9825 2.5891 11.2177 2.89376 11.4143 3.23016C11.6112 3.56285 11.763 3.92088 11.8698 4.30397C11.9769 4.68802 12.0303 5.08664 12.0303 5.49953C12.0303 6.11672 11.9127 6.69107 11.6767 7.22134C11.5412 7.52562 11.3725 7.81344 11.1708 8.08474Z" fill="#007ACC"/>
</svg>
