<svg width="554" height="337" viewBox="0 0 554 337" fill="none" xmlns="http://www.w3.org/2000/svg">
  <g opacity="0.4">
    <g filter="url(#filter0_d_30214831)">
      <rect width="519" height="134" transform="translate(12 189)" fill="var(--vscode-editorGroupHeader-tabsBackground, #292929)" />
      <rect x="25" y="221" width="4" height="90" rx="2" fill="var(--vscode-focusBorder, #007FD4)" />
      <path d="M40.7867 225.973L39.9867 226.4V238.4L40.7867 238.827L49.8 232.853V232L40.7867 225.973ZM41 237.493V227.36L48.6267 232.427L41 237.493Z" fill="var(--vscode-menu-foreground, #CCCCCC)" />
      <path d="M63 234.08L67.32 229.707L67.96 230.347L63.2667 234.987H62.68L57.9867 230.347L58.6267 229.707L63 234.08Z" fill="var(--vscode-menu-foreground, #CCCCCC)" />
      <rect x="75.5" y="221.5" width="440" height="59" fill="var(--vscode-notificationCenterHeader-background, #303031)" stroke="#424750" />
      <rect x="374.5" y="205.5" width="152" height="28" fill="var(--vscode-editor-background, #292929)" stroke="#424750" />
      <path d="M408.76 213.013L408.013 213.44V225.44L408.76 225.813L417.773 219.84V218.987L408.76 213.013ZM409.027 224.48V214.347L416.6 219.413L409.027 224.48ZM419.16 220H419.853L422.36 222.507L421.667 223.2L420.013 221.547V226.987H419V221.547L417.347 223.2L416.653 222.507L419.16 220Z" fill="var(--vscode-menu-foreground, #CCCCCC)" />
      <path d="M432.813 213.013L432.013 213.44V225.44L432.813 225.813L441.827 219.84V218.987L432.813 213.013ZM433.027 224.48V214.347L440.6 219.413L433.027 224.48ZM443.853 226.987H443.16L440.653 224.48L441.347 223.787L443 225.44V220H444.013V225.44L445.667 223.787L446.36 224.533L443.853 226.987Z" fill="var(--vscode-menu-foreground, #CCCCCC)" />
      <path d="M483 220C483 220.284 482.893 220.533 482.68 220.747C482.502 220.924 482.271 221.013 481.987 221.013C481.702 221.013 481.471 220.924 481.293 220.747C481.116 220.533 481.027 220.284 481.027 220C481.027 219.716 481.116 219.484 481.293 219.307C481.471 219.093 481.702 218.987 481.987 218.987C482.271 218.987 482.502 219.093 482.68 219.307C482.893 219.484 483 219.716 483 220ZM488.013 220C488.013 220.284 487.907 220.533 487.693 220.747C487.516 220.924 487.284 221.013 487 221.013C486.716 221.013 486.467 220.924 486.253 220.747C486.076 220.533 485.987 220.284 485.987 220C485.987 219.716 486.076 219.484 486.253 219.307C486.467 219.093 486.716 218.987 487 218.987C487.284 218.987 487.516 219.093 487.693 219.307C487.907 219.484 488.013 219.716 488.013 220ZM493.027 220C493.027 220.284 492.92 220.533 492.707 220.747C492.529 220.924 492.298 221.013 492.013 221.013C491.729 221.013 491.48 220.924 491.267 220.747C491.089 220.533 491 220.284 491 220C491 219.716 491.089 219.484 491.267 219.307C491.48 219.093 491.729 218.987 492.013 218.987C492.298 218.987 492.529 219.093 492.707 219.307C492.92 219.484 493.027 219.716 493.027 220Z" fill="var(--vscode-menu-foreground, #CCCCCC)" />
      <path d="M513.027 214.987H516.013V216H515V225.013L513.987 225.973H507L505.987 225.013V216H505.027V214.987H508.013V213.973C508.013 213.724 508.102 213.511 508.28 213.333C508.493 213.12 508.742 213.013 509.027 213.013H512.013C512.298 213.013 512.529 213.12 512.707 213.333C512.92 213.511 513.027 213.724 513.027 213.973V214.987ZM512.013 213.973H509.027V214.987H512.013V213.973ZM507 225.013H513.987V216H507V225.013ZM509.027 217.013H508.013V224H509.027V217.013ZM509.987 217.013H511V224H509.987V217.013ZM512.013 217.013H513.027V224H512.013V217.013Z" fill="var(--vscode-menu-foreground, #CCCCCC)" />
      <path d="M389.027 221.973V221.013H397.987V221.973H389.027ZM393.027 217.973H397.987V218.987H393.027V217.973ZM397.987 214.987V216H389.027V214.987H397.987ZM389.027 224V225.013H397.987V224H389.027ZM384.013 214.773L384.76 214.4L390.147 217.973V218.773L384.76 222.4L384.013 221.973V214.773ZM385.027 215.733V221.013L388.973 218.4L385.027 215.733Z" fill="var(--vscode-menu-foreground, #CCCCCC)" />
      <path d="M469.027 213.013H457.987L457.027 213.973V225.013L457.987 225.973H469.027L469.987 225.013V213.973L469.027 213.013ZM469.027 225.013H457.987V220H469.027V225.013ZM469.027 218.987H457.987V213.973H469.027V218.987Z" fill="var(--vscode-menu-foreground, #CCCCCC)" />
      <path d="M88.6582 241.309V246H87.6545V239.455H88.6582V240.327H88.8764C89.0145 240.022 89.1964 239.782 89.4218 239.607C89.6473 239.433 89.8836 239.345 90.1309 239.345C90.4145 239.345 90.6509 239.433 90.84 239.607C91.0364 239.775 91.1709 240.015 91.2436 240.327H91.4836C91.6218 240.022 91.8073 239.782 92.04 239.607C92.28 239.433 92.5345 239.345 92.8036 239.345C93.1673 239.345 93.4545 239.495 93.6655 239.793C93.8764 240.084 93.9818 240.48 93.9818 240.982V246H92.9782V241.156C92.9782 240.829 92.9345 240.582 92.8473 240.415C92.76 240.247 92.6327 240.164 92.4655 240.164C92.3273 240.164 92.1527 240.265 91.9418 240.469C91.7382 240.673 91.5309 240.953 91.32 241.309V246H90.3164V241.156C90.3164 240.829 90.2691 240.582 90.1745 240.415C90.0873 240.247 89.96 240.164 89.7927 240.164C89.6473 240.164 89.4764 240.262 89.28 240.458C89.0909 240.655 88.8836 240.938 88.6582 241.309ZM98.5461 246.109C97.9934 246.109 97.4588 246.029 96.9424 245.869C96.4261 245.702 95.9497 245.447 95.5134 245.105L96.0043 244.244C96.3606 244.535 96.757 244.756 97.1934 244.909C97.637 245.055 98.0879 245.127 98.5461 245.127C98.9243 245.127 99.2843 245.069 99.6261 244.953C99.9752 244.836 100.15 244.589 100.15 244.211C100.15 243.898 100.008 243.676 99.7243 243.545C99.4406 243.415 98.9206 243.302 98.1643 243.207C97.3643 243.113 96.757 242.927 96.3424 242.651C95.9352 242.367 95.7315 241.924 95.7315 241.32C95.7315 240.665 95.9788 240.175 96.4734 239.847C96.9679 239.513 97.5424 239.345 98.197 239.345C98.7134 239.345 99.2079 239.433 99.6806 239.607C100.161 239.782 100.604 240.029 101.012 240.349L100.521 241.211C100.186 240.942 99.8224 240.727 99.4297 240.567C99.037 240.407 98.6261 240.327 98.197 240.327C97.8479 240.327 97.5279 240.393 97.237 240.524C96.9534 240.655 96.8115 240.895 96.8115 241.244C96.8115 241.542 96.9424 241.76 97.2043 241.898C97.4734 242.029 97.9861 242.142 98.7424 242.236C99.5715 242.331 100.193 242.535 100.608 242.847C101.022 243.153 101.23 243.582 101.23 244.135C101.23 244.818 100.953 245.32 100.401 245.64C99.8479 245.953 99.2297 246.109 98.5461 246.109ZM109.372 246.524C109.372 247.113 109.154 247.553 108.718 247.844C108.289 248.142 107.761 248.291 107.136 248.291H105.085C104.43 248.291 103.889 248.16 103.459 247.898C103.038 247.636 102.827 247.233 102.827 246.687C102.827 246.338 102.918 246.062 103.099 245.858C103.289 245.647 103.561 245.527 103.918 245.498V245.269C103.663 245.225 103.452 245.12 103.285 244.953C103.125 244.785 103.045 244.527 103.045 244.178C103.045 243.865 103.143 243.585 103.339 243.338C103.536 243.084 103.867 242.938 104.332 242.902V242.695C103.976 242.578 103.736 242.404 103.612 242.171C103.489 241.931 103.427 241.702 103.427 241.484V241.189C103.427 240.687 103.641 240.273 104.07 239.945C104.499 239.618 105.103 239.455 105.881 239.455H109.099V240.436L107.409 240.185V240.382C107.699 240.462 107.918 240.615 108.063 240.84C108.216 241.065 108.292 241.291 108.292 241.516V241.8C108.292 242.302 108.099 242.709 107.714 243.022C107.329 243.327 106.703 243.48 105.838 243.48H104.518C104.321 243.48 104.172 243.531 104.07 243.633C103.969 243.727 103.918 243.891 103.918 244.124C103.918 244.349 103.987 244.52 104.125 244.636C104.27 244.745 104.485 244.8 104.769 244.8H107.245C107.856 244.8 108.361 244.935 108.761 245.204C109.169 245.473 109.372 245.913 109.372 246.524ZM105.881 242.651C106.325 242.651 106.663 242.571 106.896 242.411C107.129 242.251 107.245 242 107.245 241.658V241.309C107.245 240.967 107.129 240.72 106.896 240.567C106.663 240.407 106.325 240.327 105.881 240.327C105.438 240.327 105.099 240.407 104.867 240.567C104.634 240.72 104.518 240.967 104.518 241.309V241.658C104.518 242 104.634 242.251 104.867 242.411C105.099 242.571 105.438 242.651 105.881 242.651ZM105.063 247.418H107.278C107.605 247.418 107.87 247.356 108.074 247.233C108.278 247.109 108.379 246.895 108.379 246.589C108.379 246.298 108.285 246.091 108.096 245.967C107.914 245.844 107.678 245.782 107.387 245.782H103.918V246.524C103.918 246.822 104.016 247.044 104.212 247.189C104.409 247.342 104.692 247.418 105.063 247.418ZM134.502 259.309V264H133.498V257.455H134.502V258.327H134.72C134.858 258.022 135.04 257.782 135.266 257.607C135.491 257.433 135.727 257.345 135.975 257.345C136.258 257.345 136.495 257.433 136.684 257.607C136.88 257.775 137.015 258.015 137.087 258.327H137.327C137.466 258.022 137.651 257.782 137.884 257.607C138.124 257.433 138.378 257.345 138.647 257.345C139.011 257.345 139.298 257.495 139.509 257.793C139.72 258.084 139.826 258.48 139.826 258.982V264H138.822V259.156C138.822 258.829 138.778 258.582 138.691 258.415C138.604 258.247 138.476 258.164 138.309 258.164C138.171 258.164 137.996 258.265 137.786 258.469C137.582 258.673 137.375 258.953 137.164 259.309V264H136.16V259.156C136.16 258.829 136.113 258.582 136.018 258.415C135.931 258.247 135.804 258.164 135.636 258.164C135.491 258.164 135.32 258.262 135.124 258.458C134.935 258.655 134.727 258.938 134.502 259.309ZM144.39 264.109C143.837 264.109 143.303 264.029 142.786 263.869C142.27 263.702 141.793 263.447 141.357 263.105L141.848 262.244C142.204 262.535 142.601 262.756 143.037 262.909C143.481 263.055 143.932 263.127 144.39 263.127C144.768 263.127 145.128 263.069 145.47 262.953C145.819 262.836 145.993 262.589 145.993 262.211C145.993 261.898 145.852 261.676 145.568 261.545C145.284 261.415 144.764 261.302 144.008 261.207C143.208 261.113 142.601 260.927 142.186 260.651C141.779 260.367 141.575 259.924 141.575 259.32C141.575 258.665 141.823 258.175 142.317 257.847C142.812 257.513 143.386 257.345 144.041 257.345C144.557 257.345 145.052 257.433 145.524 257.607C146.004 257.782 146.448 258.029 146.855 258.349L146.364 259.211C146.03 258.942 145.666 258.727 145.273 258.567C144.881 258.407 144.47 258.327 144.041 258.327C143.692 258.327 143.372 258.393 143.081 258.524C142.797 258.655 142.655 258.895 142.655 259.244C142.655 259.542 142.786 259.76 143.048 259.898C143.317 260.029 143.83 260.142 144.586 260.236C145.415 260.331 146.037 260.535 146.452 260.847C146.866 261.153 147.073 261.582 147.073 262.135C147.073 262.818 146.797 263.32 146.244 263.64C145.692 263.953 145.073 264.109 144.39 264.109ZM155.216 264.524C155.216 265.113 154.998 265.553 154.561 265.844C154.132 266.142 153.605 266.291 152.98 266.291H150.929C150.274 266.291 149.732 266.16 149.303 265.898C148.881 265.636 148.67 265.233 148.67 264.687C148.67 264.338 148.761 264.062 148.943 263.858C149.132 263.647 149.405 263.527 149.761 263.498V263.269C149.507 263.225 149.296 263.12 149.129 262.953C148.969 262.785 148.889 262.527 148.889 262.178C148.889 261.865 148.987 261.585 149.183 261.338C149.38 261.084 149.71 260.938 150.176 260.902V260.695C149.82 260.578 149.58 260.404 149.456 260.171C149.332 259.931 149.27 259.702 149.27 259.484V259.189C149.27 258.687 149.485 258.273 149.914 257.945C150.343 257.618 150.947 257.455 151.725 257.455H154.943V258.436L153.252 258.185V258.382C153.543 258.462 153.761 258.615 153.907 258.84C154.06 259.065 154.136 259.291 154.136 259.516V259.8C154.136 260.302 153.943 260.709 153.558 261.022C153.172 261.327 152.547 261.48 151.681 261.48H150.361C150.165 261.48 150.016 261.531 149.914 261.633C149.812 261.727 149.761 261.891 149.761 262.124C149.761 262.349 149.83 262.52 149.969 262.636C150.114 262.745 150.329 262.8 150.612 262.8H153.089C153.7 262.8 154.205 262.935 154.605 263.204C155.012 263.473 155.216 263.913 155.216 264.524ZM151.725 260.651C152.169 260.651 152.507 260.571 152.74 260.411C152.972 260.251 153.089 260 153.089 259.658V259.309C153.089 258.967 152.972 258.72 152.74 258.567C152.507 258.407 152.169 258.327 151.725 258.327C151.281 258.327 150.943 258.407 150.71 258.567C150.478 258.72 150.361 258.967 150.361 259.309V259.658C150.361 260 150.478 260.251 150.71 260.411C150.943 260.571 151.281 260.651 151.725 260.651ZM150.907 265.418H153.121C153.449 265.418 153.714 265.356 153.918 265.233C154.121 265.109 154.223 264.895 154.223 264.589C154.223 264.298 154.129 264.091 153.94 263.967C153.758 263.844 153.521 263.782 153.23 263.782H149.761V264.524C149.761 264.822 149.86 265.044 150.056 265.189C150.252 265.342 150.536 265.418 150.907 265.418Z" fill="#9CDCFE" />
      <path d="M118.326 241.2V240.109H124.435V241.2H118.326ZM118.326 244.255V243.164H124.435V244.255H118.326ZM131.203 266.291C130.061 266.022 129.138 265.4 128.432 264.425C127.734 263.451 127.385 262.218 127.385 260.727C127.385 259.236 127.734 258.004 128.432 257.029C129.138 256.055 130.061 255.433 131.203 255.164L131.312 256.015C130.338 256.284 129.621 256.847 129.163 257.705C128.705 258.556 128.476 259.564 128.476 260.727C128.476 261.891 128.705 262.902 129.163 263.76C129.621 264.611 130.338 265.171 131.312 265.44L131.203 266.291ZM157.402 266.291L157.293 265.44C158.267 265.171 158.984 264.607 159.442 263.749C159.9 262.884 160.129 261.876 160.129 260.727C160.129 259.578 159.9 258.575 159.442 257.716C158.984 256.851 158.267 256.284 157.293 256.015L157.402 255.164C158.544 255.433 159.464 256.058 160.162 257.04C160.867 258.015 161.22 259.244 161.22 260.727C161.22 262.211 160.867 263.44 160.162 264.415C159.464 265.396 158.544 266.022 157.402 266.291Z" fill="#D4D4D4" />
      <path d="M137.753 241.636L137.426 237.273H139.171L138.844 241.636H137.753ZM134.48 241.636L134.153 237.273H135.898L135.571 241.636H134.48ZM145.59 246L144.303 240.796L143.015 246H141.924L140.746 237.273H141.826L142.612 244.396L143.757 239.455H144.903L146.048 244.396L146.833 237.273H147.859L146.681 246H145.59ZM154.692 244.56C154.496 245.105 154.198 245.502 153.798 245.749C153.398 245.989 152.783 246.109 151.954 246.109C151.089 246.109 150.416 245.902 149.936 245.487C149.456 245.065 149.216 244.444 149.216 243.622V241.865C149.216 241.022 149.467 240.393 149.969 239.978C150.478 239.556 151.14 239.345 151.954 239.345C152.776 239.345 153.434 239.56 153.929 239.989C154.423 240.411 154.67 241.062 154.67 241.942V242.945H150.307V243.633C150.307 244.178 150.441 244.575 150.71 244.822C150.987 245.062 151.398 245.182 151.943 245.182C152.467 245.182 152.849 245.109 153.089 244.964C153.329 244.818 153.51 244.582 153.634 244.255L154.692 244.56ZM150.307 241.865V242.127H153.58V241.964C153.58 241.375 153.441 240.945 153.165 240.676C152.896 240.407 152.489 240.273 151.943 240.273C151.398 240.273 150.987 240.404 150.71 240.665C150.441 240.92 150.307 241.32 150.307 241.865ZM156.857 246V245.018H159.038V238.255H156.857V237.273H160.129V245.018H162.311V246H156.857ZM167.377 246.109C166.424 246.109 165.704 245.902 165.217 245.487C164.737 245.065 164.497 244.447 164.497 243.633V241.865C164.497 241.036 164.737 240.411 165.217 239.989C165.704 239.56 166.421 239.345 167.366 239.345C168.21 239.345 168.857 239.538 169.308 239.924C169.766 240.302 170.021 240.858 170.072 241.593L169.003 241.658C168.974 241.207 168.824 240.873 168.555 240.655C168.286 240.436 167.886 240.327 167.355 240.327C166.759 240.327 166.315 240.455 166.024 240.709C165.734 240.956 165.588 241.342 165.588 241.865V243.633C165.588 244.135 165.734 244.509 166.024 244.756C166.323 245.004 166.774 245.127 167.377 245.127C167.901 245.127 168.297 245.036 168.566 244.855C168.835 244.665 168.981 244.385 169.003 244.015L170.072 244.08C170.021 244.749 169.77 245.255 169.319 245.596C168.868 245.938 168.221 246.109 167.377 246.109ZM174.865 246.109C173.985 246.109 173.309 245.898 172.836 245.476C172.371 245.047 172.138 244.433 172.138 243.633V241.865C172.138 241.058 172.374 240.436 172.847 240C173.32 239.564 173.996 239.345 174.876 239.345C175.749 239.345 176.418 239.564 176.883 240C177.356 240.436 177.592 241.058 177.592 241.865V243.633C177.592 244.433 177.356 245.047 176.883 245.476C176.418 245.898 175.745 246.109 174.865 246.109ZM174.865 245.127C175.418 245.127 175.829 245.004 176.098 244.756C176.367 244.509 176.501 244.135 176.501 243.633V241.865C176.501 241.342 176.367 240.956 176.098 240.709C175.829 240.455 175.418 240.327 174.865 240.327C174.312 240.327 173.901 240.455 173.632 240.709C173.363 240.956 173.229 241.342 173.229 241.865V243.633C173.229 244.135 173.363 244.509 173.632 244.756C173.901 245.004 174.312 245.127 174.865 245.127ZM180.346 241.309V246H179.342V239.455H180.346V240.327H180.564C180.702 240.022 180.884 239.782 181.109 239.607C181.335 239.433 181.571 239.345 181.818 239.345C182.102 239.345 182.338 239.433 182.527 239.607C182.724 239.775 182.858 240.015 182.931 240.327H183.171C183.309 240.022 183.495 239.782 183.728 239.607C183.968 239.433 184.222 239.345 184.491 239.345C184.855 239.345 185.142 239.495 185.353 239.793C185.564 240.084 185.669 240.48 185.669 240.982V246H184.666V241.156C184.666 240.829 184.622 240.582 184.535 240.415C184.447 240.247 184.32 240.164 184.153 240.164C184.015 240.164 183.84 240.265 183.629 240.469C183.426 240.673 183.218 240.953 183.008 241.309V246H182.004V241.156C182.004 240.829 181.957 240.582 181.862 240.415C181.775 240.247 181.647 240.164 181.48 240.164C181.335 240.164 181.164 240.262 180.967 240.458C180.778 240.655 180.571 240.938 180.346 241.309ZM192.895 244.56C192.699 245.105 192.401 245.502 192.001 245.749C191.601 245.989 190.986 246.109 190.157 246.109C189.292 246.109 188.619 245.902 188.139 245.487C187.659 245.065 187.419 244.444 187.419 243.622V241.865C187.419 241.022 187.67 240.393 188.172 239.978C188.681 239.556 189.343 239.345 190.157 239.345C190.979 239.345 191.637 239.56 192.132 239.989C192.626 240.411 192.874 241.062 192.874 241.942V242.945H188.51V243.633C188.51 244.178 188.644 244.575 188.914 244.822C189.19 245.062 189.601 245.182 190.146 245.182C190.67 245.182 191.052 245.109 191.292 244.964C191.532 244.818 191.714 244.582 191.837 244.255L192.895 244.56ZM188.51 241.865V242.127H191.783V241.964C191.783 241.375 191.644 240.945 191.368 240.676C191.099 240.407 190.692 240.273 190.146 240.273C189.601 240.273 189.19 240.404 188.914 240.665C188.644 240.92 188.51 241.32 188.51 241.865ZM206.508 246.098C205.788 246.098 205.228 245.92 204.828 245.564C204.428 245.207 204.228 244.662 204.228 243.927V240.436H202.373V239.455H204.228V237.273H205.318V239.455H208.155V240.436H205.318V243.829C205.318 244.251 205.424 244.564 205.635 244.767C205.846 244.971 206.158 245.073 206.573 245.073C206.849 245.073 207.108 245.055 207.348 245.018C207.588 244.975 207.817 244.92 208.035 244.855L208.253 245.847C208.006 245.92 207.74 245.978 207.457 246.022C207.18 246.073 206.864 246.098 206.508 246.098ZM213.068 246.109C212.188 246.109 211.512 245.898 211.039 245.476C210.574 245.047 210.341 244.433 210.341 243.633V241.865C210.341 241.058 210.577 240.436 211.05 240C211.523 239.564 212.199 239.345 213.079 239.345C213.952 239.345 214.621 239.564 215.086 240C215.559 240.436 215.795 241.058 215.795 241.865V243.633C215.795 244.433 215.559 245.047 215.086 245.476C214.621 245.898 213.948 246.109 213.068 246.109ZM213.068 245.127C213.621 245.127 214.032 245.004 214.301 244.756C214.57 244.509 214.705 244.135 214.705 243.633V241.865C214.705 241.342 214.57 240.956 214.301 240.709C214.032 240.455 213.621 240.327 213.068 240.327C212.515 240.327 212.105 240.455 211.835 240.709C211.566 240.956 211.432 241.342 211.432 241.865V243.633C211.432 244.135 211.566 244.509 211.835 244.756C212.105 245.004 212.515 245.127 213.068 245.127ZM229.517 246L226.604 238.647V246H225.622V237.273H227.117L230.095 244.789V237.273H231.077V246H229.517ZM235.99 246.109C235.11 246.109 234.434 245.898 233.961 245.476C233.496 245.047 233.263 244.433 233.263 243.633V241.865C233.263 241.058 233.499 240.436 233.972 240C234.445 239.564 235.121 239.345 236.001 239.345C236.874 239.345 237.543 239.564 238.008 240C238.481 240.436 238.717 241.058 238.717 241.865V243.633C238.717 244.433 238.481 245.047 238.008 245.476C237.543 245.898 236.87 246.109 235.99 246.109ZM235.99 245.127C236.543 245.127 236.954 245.004 237.223 244.756C237.492 244.509 237.626 244.135 237.626 243.633V241.865C237.626 241.342 237.492 240.956 237.223 240.709C236.954 240.455 236.543 240.327 235.99 240.327C235.437 240.327 235.026 240.455 234.757 240.709C234.488 240.956 234.354 241.342 234.354 241.865V243.633C234.354 244.135 234.488 244.509 234.757 244.756C235.026 245.004 235.437 245.127 235.99 245.127ZM244.711 246.098C243.991 246.098 243.431 245.92 243.031 245.564C242.631 245.207 242.431 244.662 242.431 243.927V240.436H240.576V239.455H242.431V237.273H243.522V239.455H246.358V240.436H243.522V243.829C243.522 244.251 243.627 244.564 243.838 244.767C244.049 244.971 244.362 245.073 244.776 245.073C245.052 245.073 245.311 245.055 245.551 245.018C245.791 244.975 246.02 244.92 246.238 244.855L246.456 245.847C246.209 245.92 245.943 245.978 245.66 246.022C245.383 246.073 245.067 246.098 244.711 246.098ZM254.02 244.56C253.824 245.105 253.526 245.502 253.126 245.749C252.726 245.989 252.111 246.109 251.282 246.109C250.417 246.109 249.744 245.902 249.264 245.487C248.784 245.065 248.544 244.444 248.544 243.622V241.865C248.544 241.022 248.795 240.393 249.297 239.978C249.806 239.556 250.468 239.345 251.282 239.345C252.104 239.345 252.762 239.56 253.257 239.989C253.751 240.411 253.999 241.062 253.999 241.942V242.945H249.635V243.633C249.635 244.178 249.769 244.575 250.039 244.822C250.315 245.062 250.726 245.182 251.271 245.182C251.795 245.182 252.177 245.109 252.417 244.964C252.657 244.818 252.839 244.582 252.962 244.255L254.02 244.56ZM249.635 241.865V242.127H252.908V241.964C252.908 241.375 252.769 240.945 252.493 240.676C252.224 240.407 251.817 240.273 251.271 240.273C250.726 240.273 250.315 240.404 250.039 240.665C249.769 240.92 249.635 241.32 249.635 241.865ZM258.825 246.109C258.388 246.109 257.937 246.044 257.472 245.913C257.006 245.782 256.577 245.593 256.185 245.345V237.273H257.276V240.545H257.603C257.792 240.167 258.054 239.873 258.388 239.662C258.723 239.451 259.097 239.345 259.512 239.345C260.188 239.345 260.712 239.564 261.083 240C261.454 240.436 261.639 241.047 261.639 241.833V243.611C261.639 244.404 261.392 245.018 260.897 245.455C260.403 245.891 259.712 246.109 258.825 246.109ZM258.814 245.149C259.403 245.149 259.839 245.022 260.123 244.767C260.406 244.505 260.548 244.113 260.548 243.589V241.844C260.548 241.349 260.439 240.982 260.221 240.742C260.003 240.502 259.676 240.382 259.239 240.382C258.883 240.382 258.545 240.476 258.225 240.665C257.905 240.855 257.588 241.142 257.276 241.527V244.735C257.508 244.873 257.748 244.978 257.996 245.051C258.25 245.116 258.523 245.149 258.814 245.149ZM266.553 246.109C265.673 246.109 264.996 245.898 264.523 245.476C264.058 245.047 263.825 244.433 263.825 243.633V241.865C263.825 241.058 264.062 240.436 264.534 240C265.007 239.564 265.683 239.345 266.563 239.345C267.436 239.345 268.105 239.564 268.571 240C269.043 240.436 269.28 241.058 269.28 241.865V243.633C269.28 244.433 269.043 245.047 268.571 245.476C268.105 245.898 267.433 246.109 266.553 246.109ZM266.553 245.127C267.105 245.127 267.516 245.004 267.785 244.756C268.054 244.509 268.189 244.135 268.189 243.633V241.865C268.189 241.342 268.054 240.956 267.785 240.709C267.516 240.455 267.105 240.327 266.553 240.327C266 240.327 265.589 240.455 265.32 240.709C265.051 240.956 264.916 241.342 264.916 241.865V243.633C264.916 244.135 265.051 244.509 265.32 244.756C265.589 245.004 266 245.127 266.553 245.127ZM274.193 246.109C273.313 246.109 272.637 245.898 272.164 245.476C271.699 245.047 271.466 244.433 271.466 243.633V241.865C271.466 241.058 271.702 240.436 272.175 240C272.648 239.564 273.324 239.345 274.204 239.345C275.077 239.345 275.746 239.564 276.211 240C276.684 240.436 276.92 241.058 276.92 241.865V243.633C276.92 244.433 276.684 245.047 276.211 245.476C275.746 245.898 275.073 246.109 274.193 246.109ZM274.193 245.127C274.746 245.127 275.157 245.004 275.426 244.756C275.695 244.509 275.83 244.135 275.83 243.633V241.865C275.83 241.342 275.695 240.956 275.426 240.709C275.157 240.455 274.746 240.327 274.193 240.327C273.64 240.327 273.23 240.455 272.96 240.709C272.691 240.956 272.557 241.342 272.557 241.865V243.633C272.557 244.135 272.691 244.509 272.96 244.756C273.23 245.004 273.64 245.127 274.193 245.127ZM280.743 243.022V246H279.652V237.273H280.743V242.105H281.299L283.394 239.455H284.725L282.161 242.498L284.692 246H283.448L281.299 243.022H280.743ZM289.562 246.109C289.009 246.109 288.474 246.029 287.958 245.869C287.442 245.702 286.965 245.447 286.529 245.105L287.02 244.244C287.376 244.535 287.773 244.756 288.209 244.909C288.653 245.055 289.104 245.127 289.562 245.127C289.94 245.127 290.3 245.069 290.642 244.953C290.991 244.836 291.165 244.589 291.165 244.211C291.165 243.898 291.024 243.676 290.74 243.545C290.456 243.415 289.936 243.302 289.18 243.207C288.38 243.113 287.773 242.927 287.358 242.651C286.951 242.367 286.747 241.924 286.747 241.32C286.747 240.665 286.994 240.175 287.489 239.847C287.984 239.513 288.558 239.345 289.213 239.345C289.729 239.345 290.224 239.433 290.696 239.607C291.176 239.782 291.62 240.029 292.027 240.349L291.536 241.211C291.202 240.942 290.838 240.727 290.445 240.567C290.053 240.407 289.642 240.327 289.213 240.327C288.864 240.327 288.544 240.393 288.253 240.524C287.969 240.655 287.827 240.895 287.827 241.244C287.827 241.542 287.958 241.76 288.22 241.898C288.489 242.029 289.002 242.142 289.758 242.236C290.587 242.331 291.209 242.535 291.624 242.847C292.038 243.153 292.245 243.582 292.245 244.135C292.245 244.818 291.969 245.32 291.416 245.64C290.864 245.953 290.245 246.109 289.562 246.109ZM302.028 246V245.018H304.21V240.436H302.028V239.455H305.301V245.018H307.483V246H302.028ZM304.756 238.255C304.479 238.255 304.254 238.211 304.079 238.124C303.912 238.036 303.828 237.873 303.828 237.633V237.556C303.828 237.309 303.912 237.142 304.079 237.055C304.254 236.96 304.479 236.913 304.756 236.913C305.032 236.913 305.254 236.96 305.421 237.055C305.596 237.142 305.683 237.309 305.683 237.556V237.633C305.683 237.873 305.596 238.036 305.421 238.124C305.247 238.211 305.025 238.255 304.756 238.255ZM309.669 246V239.455H310.76V240.545H311.087C311.247 240.175 311.498 239.884 311.84 239.673C312.182 239.455 312.571 239.345 313.007 239.345C313.662 239.345 314.178 239.545 314.556 239.945C314.934 240.345 315.124 240.891 315.124 241.582V246H314.033V241.8C314.033 241.342 313.92 240.993 313.694 240.753C313.476 240.505 313.16 240.382 312.745 240.382C312.418 240.382 312.084 240.48 311.742 240.676C311.407 240.873 311.08 241.156 310.76 241.527V246H309.669ZM328.256 246H327.11L324.296 237.273H325.474L327.699 244.615L329.925 237.273H331.07L328.256 246ZM335.46 246.065C334.805 246.065 334.195 245.96 333.627 245.749C333.06 245.538 332.551 245.153 332.1 244.593L332.885 243.851C333.191 244.265 333.555 244.575 333.976 244.778C334.405 244.982 334.911 245.084 335.493 245.084C336.031 245.084 336.464 244.96 336.791 244.713C337.125 244.458 337.293 244.116 337.293 243.687C337.293 243.273 337.151 242.956 336.867 242.738C336.584 242.513 336.024 242.276 335.187 242.029C334.125 241.724 333.402 241.393 333.016 241.036C332.631 240.68 332.438 240.175 332.438 239.52C332.438 238.764 332.689 238.193 333.191 237.807C333.7 237.422 334.315 237.229 335.035 237.229C335.645 237.229 336.224 237.338 336.769 237.556C337.322 237.767 337.809 238.145 338.231 238.691L337.478 239.444C337.187 239.029 336.824 238.72 336.387 238.516C335.951 238.313 335.507 238.211 335.056 238.211C334.598 238.211 334.231 238.305 333.955 238.495C333.678 238.676 333.54 238.985 333.54 239.422C333.54 239.807 333.689 240.113 333.987 240.338C334.293 240.556 334.889 240.793 335.776 241.047C336.78 241.338 337.464 241.658 337.827 242.007C338.198 242.349 338.384 242.847 338.384 243.502C338.384 244.338 338.085 244.975 337.489 245.411C336.893 245.847 336.216 246.065 335.46 246.065ZM350.709 246.109C349.69 246.109 348.927 245.851 348.418 245.335C347.909 244.811 347.654 244.025 347.654 242.978V240.338C347.654 239.276 347.909 238.484 348.418 237.96C348.927 237.429 349.694 237.164 350.719 237.164C351.723 237.164 352.465 237.4 352.945 237.873C353.432 238.338 353.705 239.087 353.763 240.12L352.672 240.229C352.599 239.444 352.421 238.902 352.138 238.604C351.861 238.298 351.385 238.145 350.709 238.145C349.989 238.145 349.479 238.313 349.181 238.647C348.89 238.975 348.745 239.538 348.745 240.338V242.978C348.745 243.764 348.89 244.32 349.181 244.647C349.479 244.967 349.989 245.127 350.709 245.127C351.385 245.127 351.861 244.982 352.138 244.691C352.421 244.393 352.599 243.858 352.672 243.087L353.763 243.196C353.705 244.215 353.432 244.956 352.945 245.422C352.465 245.88 351.719 246.109 350.709 246.109ZM358.24 246.109C357.36 246.109 356.684 245.898 356.211 245.476C355.746 245.047 355.513 244.433 355.513 243.633V241.865C355.513 241.058 355.749 240.436 356.222 240C356.695 239.564 357.371 239.345 358.251 239.345C359.124 239.345 359.793 239.564 360.258 240C360.731 240.436 360.967 241.058 360.967 241.865V243.633C360.967 244.433 360.731 245.047 360.258 245.476C359.793 245.898 359.12 246.109 358.24 246.109ZM358.24 245.127C358.793 245.127 359.204 245.004 359.473 244.756C359.742 244.509 359.876 244.135 359.876 243.633V241.865C359.876 241.342 359.742 240.956 359.473 240.709C359.204 240.455 358.793 240.327 358.24 240.327C357.687 240.327 357.276 240.455 357.007 240.709C356.738 240.956 356.604 241.342 356.604 241.865V243.633C356.604 244.135 356.738 244.509 357.007 244.756C357.276 245.004 357.687 245.127 358.24 245.127ZM365.553 245.073C365.91 245.073 366.248 244.978 366.568 244.789C366.888 244.6 367.204 244.313 367.517 243.927V240.72C367.292 240.582 367.052 240.48 366.797 240.415C366.543 240.342 366.27 240.305 365.979 240.305C365.39 240.305 364.953 240.436 364.67 240.698C364.386 240.953 364.244 241.342 364.244 241.865V243.622C364.244 244.109 364.353 244.473 364.572 244.713C364.79 244.953 365.117 245.073 365.553 245.073ZM367.19 244.909C367.001 245.287 366.739 245.582 366.404 245.793C366.07 246.004 365.695 246.109 365.281 246.109C364.604 246.109 364.081 245.891 363.71 245.455C363.339 245.018 363.153 244.407 363.153 243.622V241.844C363.153 241.051 363.401 240.436 363.895 240C364.39 239.564 365.081 239.345 365.968 239.345C366.223 239.345 366.484 239.375 366.753 239.433C367.023 239.484 367.277 239.556 367.517 239.651V237.273H368.608V246H367.517V244.909H367.19ZM376.27 244.56C376.074 245.105 375.776 245.502 375.376 245.749C374.976 245.989 374.361 246.109 373.532 246.109C372.667 246.109 371.994 245.902 371.514 245.487C371.034 245.065 370.794 244.444 370.794 243.622V241.865C370.794 241.022 371.045 240.393 371.547 239.978C372.056 239.556 372.718 239.345 373.532 239.345C374.354 239.345 375.012 239.56 375.507 239.989C376.001 240.411 376.249 241.062 376.249 241.942V242.945H371.885V243.633C371.885 244.178 372.019 244.575 372.289 244.822C372.565 245.062 372.976 245.182 373.521 245.182C374.045 245.182 374.427 245.109 374.667 244.964C374.907 244.818 375.089 244.582 375.212 244.255L376.27 244.56ZM371.885 241.865V242.127H375.158V241.964C375.158 241.375 375.019 240.945 374.743 240.676C374.474 240.407 374.067 240.273 373.521 240.273C372.976 240.273 372.565 240.404 372.289 240.665C372.019 240.92 371.885 241.32 371.885 241.865ZM380.726 242.727L380.398 237.273H381.926L381.598 242.727H380.726ZM381.173 246.109C380.809 246.109 380.54 246.036 380.366 245.891C380.198 245.738 380.115 245.505 380.115 245.193V244.887C380.115 244.567 380.198 244.331 380.366 244.178C380.54 244.025 380.809 243.949 381.173 243.949C381.536 243.949 381.802 244.025 381.969 244.178C382.136 244.331 382.22 244.567 382.22 244.887V245.193C382.22 245.505 382.133 245.738 381.958 245.891C381.791 246.036 381.529 246.109 381.173 246.109ZM389.893 241.636L389.566 237.273H391.312L390.984 241.636H389.893ZM386.621 241.636L386.293 237.273H388.039L387.712 241.636H386.621Z" fill="var(--vscode-debugTokenExpression-string, #CE9178)" />
      <path d="M90.72 263.149C91.3309 263.149 91.7709 263.025 92.04 262.778C92.3164 262.531 92.4545 262.135 92.4545 261.589V259.822C92.4545 259.32 92.3491 258.956 92.1382 258.731C91.9345 258.498 91.6036 258.382 91.1455 258.382C90.7818 258.382 90.4436 258.473 90.1309 258.655C89.8182 258.836 89.5018 259.127 89.1818 259.527V262.735C89.4073 262.873 89.64 262.978 89.88 263.051C90.1273 263.116 90.4073 263.149 90.72 263.149ZM90.7309 264.109C90.4836 264.109 90.2218 264.08 89.9455 264.022C89.6764 263.971 89.4218 263.898 89.1818 263.804V266.182H88.0909V257.455H89.1818V258.545H89.5091C89.6909 258.175 89.9527 257.884 90.2945 257.673C90.6436 257.455 91.0182 257.345 91.4182 257.345C92.0727 257.345 92.5891 257.571 92.9673 258.022C93.3527 258.465 93.5455 259.069 93.5455 259.833V261.611C93.5455 262.382 93.2909 262.993 92.7818 263.444C92.28 263.887 91.5964 264.109 90.7309 264.109ZM96.277 264V257.455H97.3679V258.545H97.6952C97.8479 258.131 98.0806 257.829 98.3934 257.64C98.7061 257.444 99.0843 257.345 99.5279 257.345C100.015 257.345 100.422 257.509 100.75 257.836C101.077 258.156 101.241 258.611 101.241 259.2V260.182H100.204V259.593C100.204 259.178 100.11 258.873 99.9206 258.676C99.7388 258.48 99.4588 258.382 99.0806 258.382C98.7388 258.382 98.4261 258.465 98.1424 258.633C97.8661 258.8 97.6079 259.062 97.3679 259.418V264H96.277ZM103.372 264V263.018H105.554V258.436H103.372V257.455H106.645V263.018H108.827V264H103.372ZM106.099 256.255C105.823 256.255 105.598 256.211 105.423 256.124C105.256 256.036 105.172 255.873 105.172 255.633V255.556C105.172 255.309 105.256 255.142 105.423 255.055C105.598 254.96 105.823 254.913 106.099 254.913C106.376 254.913 106.598 254.96 106.765 255.055C106.939 255.142 107.027 255.309 107.027 255.556V255.633C107.027 255.873 106.939 256.036 106.765 256.124C106.59 256.211 106.369 256.255 106.099 256.255ZM111.013 264V257.455H112.104V258.545H112.431C112.591 258.175 112.842 257.884 113.184 257.673C113.526 257.455 113.915 257.345 114.351 257.345C115.006 257.345 115.522 257.545 115.9 257.945C116.278 258.345 116.467 258.891 116.467 259.582V264H115.376V259.8C115.376 259.342 115.264 258.993 115.038 258.753C114.82 258.505 114.504 258.382 114.089 258.382C113.762 258.382 113.427 258.48 113.086 258.676C112.751 258.873 112.424 259.156 112.104 259.527V264H111.013ZM122.461 264.098C121.741 264.098 121.181 263.92 120.781 263.564C120.381 263.207 120.181 262.662 120.181 261.927V258.436H118.326V257.455H120.181V255.273H121.272V257.455H124.108V258.436H121.272V261.829C121.272 262.251 121.377 262.564 121.588 262.767C121.799 262.971 122.112 263.073 122.526 263.073C122.802 263.073 123.061 263.055 123.301 263.018C123.541 262.975 123.77 262.92 123.988 262.855L124.206 263.847C123.959 263.92 123.693 263.978 123.41 264.022C123.133 264.073 122.817 264.098 122.461 264.098Z" fill="var(--vscode-debugConsole-warningForeground, #DCDCAA)" />
      <path d="M80.1055 306L78.8182 300.796L77.5309 306H76.44L75.2618 297.273H76.3418L77.1273 304.396L78.2727 299.455H79.4182L80.5636 304.396L81.3491 297.273H82.3745L81.1964 306H80.1055ZM89.2079 304.56C89.0115 305.105 88.7134 305.502 88.3134 305.749C87.9134 305.989 87.2988 306.109 86.4697 306.109C85.6043 306.109 84.9315 305.902 84.4515 305.487C83.9715 305.065 83.7315 304.444 83.7315 303.622V301.865C83.7315 301.022 83.9824 300.393 84.4843 299.978C84.9934 299.556 85.6552 299.345 86.4697 299.345C87.2915 299.345 87.9497 299.56 88.4443 299.989C88.9388 300.411 89.1861 301.062 89.1861 301.942V302.945H84.8224V303.633C84.8224 304.178 84.957 304.575 85.2261 304.822C85.5024 305.062 85.9134 305.182 86.4588 305.182C86.9824 305.182 87.3643 305.109 87.6043 304.964C87.8443 304.818 88.0261 304.582 88.1497 304.255L89.2079 304.56ZM84.8224 301.865V302.127H88.0952V301.964C88.0952 301.375 87.957 300.945 87.6806 300.676C87.4115 300.407 87.0043 300.273 86.4588 300.273C85.9134 300.273 85.5024 300.404 85.2261 300.665C84.957 300.92 84.8224 301.32 84.8224 301.865ZM91.3722 306V305.018H93.554V298.255H91.3722V297.273H94.6449V305.018H96.8267V306H91.3722ZM101.893 306.109C100.94 306.109 100.22 305.902 99.7328 305.487C99.2528 305.065 99.0128 304.447 99.0128 303.633V301.865C99.0128 301.036 99.2528 300.411 99.7328 299.989C100.22 299.56 100.936 299.345 101.882 299.345C102.726 299.345 103.373 299.538 103.824 299.924C104.282 300.302 104.536 300.858 104.587 301.593L103.518 301.658C103.489 301.207 103.34 300.873 103.071 300.655C102.802 300.436 102.402 300.327 101.871 300.327C101.275 300.327 100.831 300.455 100.54 300.709C100.249 300.956 100.104 301.342 100.104 301.865V303.633C100.104 304.135 100.249 304.509 100.54 304.756C100.838 305.004 101.289 305.127 101.893 305.127C102.416 305.127 102.813 305.036 103.082 304.855C103.351 304.665 103.496 304.385 103.518 304.015L104.587 304.08C104.536 304.749 104.286 305.255 103.835 305.596C103.384 305.938 102.736 306.109 101.893 306.109ZM109.381 306.109C108.501 306.109 107.824 305.898 107.352 305.476C106.886 305.047 106.653 304.433 106.653 303.633V301.865C106.653 301.058 106.89 300.436 107.363 300C107.835 299.564 108.512 299.345 109.392 299.345C110.264 299.345 110.933 299.564 111.399 300C111.872 300.436 112.108 301.058 112.108 301.865V303.633C112.108 304.433 111.872 305.047 111.399 305.476C110.933 305.898 110.261 306.109 109.381 306.109ZM109.381 305.127C109.933 305.127 110.344 305.004 110.613 304.756C110.883 304.509 111.017 304.135 111.017 303.633V301.865C111.017 301.342 110.883 300.956 110.613 300.709C110.344 300.455 109.933 300.327 109.381 300.327C108.828 300.327 108.417 300.455 108.148 300.709C107.879 300.956 107.744 301.342 107.744 301.865V303.633C107.744 304.135 107.879 304.509 108.148 304.756C108.417 305.004 108.828 305.127 109.381 305.127ZM114.861 301.309V306H113.858V299.455H114.861V300.327H115.079C115.218 300.022 115.399 299.782 115.625 299.607C115.85 299.433 116.087 299.345 116.334 299.345C116.618 299.345 116.854 299.433 117.043 299.607C117.239 299.775 117.374 300.015 117.447 300.327H117.687C117.825 300.022 118.01 299.782 118.243 299.607C118.483 299.433 118.738 299.345 119.007 299.345C119.37 299.345 119.658 299.495 119.869 299.793C120.079 300.084 120.185 300.48 120.185 300.982V306H119.181V301.156C119.181 300.829 119.138 300.582 119.05 300.415C118.963 300.247 118.836 300.164 118.669 300.164C118.53 300.164 118.356 300.265 118.145 300.469C117.941 300.673 117.734 300.953 117.523 301.309V306H116.519V301.156C116.519 300.829 116.472 300.582 116.378 300.415C116.29 300.247 116.163 300.164 115.996 300.164C115.85 300.164 115.679 300.262 115.483 300.458C115.294 300.655 115.087 300.938 114.861 301.309ZM127.411 304.56C127.215 305.105 126.916 305.502 126.516 305.749C126.116 305.989 125.502 306.109 124.673 306.109C123.807 306.109 123.135 305.902 122.655 305.487C122.175 305.065 121.935 304.444 121.935 303.622V301.865C121.935 301.022 122.186 300.393 122.687 299.978C123.196 299.556 123.858 299.345 124.673 299.345C125.495 299.345 126.153 299.56 126.647 299.989C127.142 300.411 127.389 301.062 127.389 301.942V302.945H123.026V303.633C123.026 304.178 123.16 304.575 123.429 304.822C123.706 305.062 124.116 305.182 124.662 305.182C125.186 305.182 125.567 305.109 125.807 304.964C126.047 304.818 126.229 304.582 126.353 304.255L127.411 304.56ZM123.026 301.865V302.127H126.298V301.964C126.298 301.375 126.16 300.945 125.884 300.676C125.615 300.407 125.207 300.273 124.662 300.273C124.116 300.273 123.706 300.404 123.429 300.665C123.16 300.92 123.026 301.32 123.026 301.865ZM141.023 306.098C140.303 306.098 139.743 305.92 139.343 305.564C138.943 305.207 138.743 304.662 138.743 303.927V300.436H136.889V299.455H138.743V297.273H139.834V299.455H142.67V300.436H139.834V303.829C139.834 304.251 139.94 304.564 140.15 304.767C140.361 304.971 140.674 305.073 141.089 305.073C141.365 305.073 141.623 305.055 141.863 305.018C142.103 304.975 142.332 304.92 142.55 304.855L142.769 305.847C142.521 305.92 142.256 305.978 141.972 306.022C141.696 306.073 141.38 306.098 141.023 306.098ZM147.584 306.109C146.704 306.109 146.027 305.898 145.555 305.476C145.089 305.047 144.857 304.433 144.857 303.633V301.865C144.857 301.058 145.093 300.436 145.566 300C146.038 299.564 146.715 299.345 147.595 299.345C148.467 299.345 149.137 299.564 149.602 300C150.075 300.436 150.311 301.058 150.311 301.865V303.633C150.311 304.433 150.075 305.047 149.602 305.476C149.137 305.898 148.464 306.109 147.584 306.109ZM147.584 305.127C148.137 305.127 148.547 305.004 148.817 304.756C149.086 304.509 149.22 304.135 149.22 303.633V301.865C149.22 301.342 149.086 300.956 148.817 300.709C148.547 300.455 148.137 300.327 147.584 300.327C147.031 300.327 146.62 300.455 146.351 300.709C146.082 300.956 145.947 301.342 145.947 301.865V303.633C145.947 304.135 146.082 304.509 146.351 304.756C146.62 305.004 147.031 305.127 147.584 305.127ZM164.032 306L161.12 298.647V306H160.138V297.273H161.632L164.611 304.789V297.273H165.592V306H164.032ZM170.506 306.109C169.626 306.109 168.949 305.898 168.477 305.476C168.011 305.047 167.778 304.433 167.778 303.633V301.865C167.778 301.058 168.015 300.436 168.488 300C168.96 299.564 169.637 299.345 170.517 299.345C171.389 299.345 172.058 299.564 172.524 300C172.997 300.436 173.233 301.058 173.233 301.865V303.633C173.233 304.433 172.997 305.047 172.524 305.476C172.058 305.898 171.386 306.109 170.506 306.109ZM170.506 305.127C171.058 305.127 171.469 305.004 171.738 304.756C172.008 304.509 172.142 304.135 172.142 303.633V301.865C172.142 301.342 172.008 300.956 171.738 300.709C171.469 300.455 171.058 300.327 170.506 300.327C169.953 300.327 169.542 300.455 169.273 300.709C169.004 300.956 168.869 301.342 168.869 301.865V303.633C168.869 304.135 169.004 304.509 169.273 304.756C169.542 305.004 169.953 305.127 170.506 305.127ZM179.226 306.098C178.506 306.098 177.946 305.92 177.546 305.564C177.146 305.207 176.946 304.662 176.946 303.927V300.436H175.092V299.455H176.946V297.273H178.037V299.455H180.874V300.436H178.037V303.829C178.037 304.251 178.143 304.564 178.354 304.767C178.564 304.971 178.877 305.073 179.292 305.073C179.568 305.073 179.826 305.055 180.066 305.018C180.306 304.975 180.535 304.92 180.754 304.855L180.972 305.847C180.724 305.92 180.459 305.978 180.175 306.022C179.899 306.073 179.583 306.098 179.226 306.098ZM188.536 304.56C188.34 305.105 188.041 305.502 187.641 305.749C187.241 305.989 186.627 306.109 185.798 306.109C184.932 306.109 184.26 305.902 183.78 305.487C183.3 305.065 183.06 304.444 183.06 303.622V301.865C183.06 301.022 183.311 300.393 183.812 299.978C184.321 299.556 184.983 299.345 185.798 299.345C186.62 299.345 187.278 299.56 187.772 299.989C188.267 300.411 188.514 301.062 188.514 301.942V302.945H184.151V303.633C184.151 304.178 184.285 304.575 184.554 304.822C184.831 305.062 185.241 305.182 185.787 305.182C186.311 305.182 186.692 305.109 186.932 304.964C187.172 304.818 187.354 304.582 187.478 304.255L188.536 304.56ZM184.151 301.865V302.127H187.423V301.964C187.423 301.375 187.285 300.945 187.009 300.676C186.74 300.407 186.332 300.273 185.787 300.273C185.241 300.273 184.831 300.404 184.554 300.665C184.285 300.92 184.151 301.32 184.151 301.865ZM193.34 306.109C192.904 306.109 192.453 306.044 191.988 305.913C191.522 305.782 191.093 305.593 190.7 305.345V297.273H191.791V300.545H192.118C192.308 300.167 192.569 299.873 192.904 299.662C193.238 299.451 193.613 299.345 194.028 299.345C194.704 299.345 195.228 299.564 195.598 300C195.969 300.436 196.155 301.047 196.155 301.833V303.611C196.155 304.404 195.908 305.018 195.413 305.455C194.918 305.891 194.228 306.109 193.34 306.109ZM193.329 305.149C193.918 305.149 194.355 305.022 194.638 304.767C194.922 304.505 195.064 304.113 195.064 303.589V301.844C195.064 301.349 194.955 300.982 194.737 300.742C194.518 300.502 194.191 300.382 193.755 300.382C193.398 300.382 193.06 300.476 192.74 300.665C192.42 300.855 192.104 301.142 191.791 301.527V304.735C192.024 304.873 192.264 304.978 192.511 305.051C192.766 305.116 193.038 305.149 193.329 305.149ZM201.068 306.109C200.188 306.109 199.512 305.898 199.039 305.476C198.574 305.047 198.341 304.433 198.341 303.633V301.865C198.341 301.058 198.577 300.436 199.05 300C199.523 299.564 200.199 299.345 201.079 299.345C201.952 299.345 202.621 299.564 203.086 300C203.559 300.436 203.795 301.058 203.795 301.865V303.633C203.795 304.433 203.559 305.047 203.086 305.476C202.621 305.898 201.948 306.109 201.068 306.109ZM201.068 305.127C201.621 305.127 202.032 305.004 202.301 304.756C202.57 304.509 202.705 304.135 202.705 303.633V301.865C202.705 301.342 202.57 300.956 202.301 300.709C202.032 300.455 201.621 300.327 201.068 300.327C200.515 300.327 200.105 300.455 199.835 300.709C199.566 300.956 199.432 301.342 199.432 301.865V303.633C199.432 304.135 199.566 304.509 199.835 304.756C200.105 305.004 200.515 305.127 201.068 305.127ZM208.709 306.109C207.829 306.109 207.152 305.898 206.68 305.476C206.214 305.047 205.982 304.433 205.982 303.633V301.865C205.982 301.058 206.218 300.436 206.691 300C207.163 299.564 207.84 299.345 208.72 299.345C209.592 299.345 210.262 299.564 210.727 300C211.2 300.436 211.436 301.058 211.436 301.865V303.633C211.436 304.433 211.2 305.047 210.727 305.476C210.262 305.898 209.589 306.109 208.709 306.109ZM208.709 305.127C209.262 305.127 209.672 305.004 209.942 304.756C210.211 304.509 210.345 304.135 210.345 303.633V301.865C210.345 301.342 210.211 300.956 209.942 300.709C209.672 300.455 209.262 300.327 208.709 300.327C208.156 300.327 207.745 300.455 207.476 300.709C207.207 300.956 207.072 301.342 207.072 301.865V303.633C207.072 304.135 207.207 304.509 207.476 304.756C207.745 305.004 208.156 305.127 208.709 305.127ZM215.259 303.022V306H214.168V297.273H215.259V302.105H215.815L217.909 299.455H219.24L216.677 302.498L219.208 306H217.964L215.815 303.022H215.259ZM224.077 306.109C223.525 306.109 222.99 306.029 222.474 305.869C221.957 305.702 221.481 305.447 221.045 305.105L221.536 304.244C221.892 304.535 222.288 304.756 222.725 304.909C223.168 305.055 223.619 305.127 224.077 305.127C224.456 305.127 224.816 305.069 225.157 304.953C225.506 304.836 225.681 304.589 225.681 304.211C225.681 303.898 225.539 303.676 225.256 303.545C224.972 303.415 224.452 303.302 223.696 303.207C222.896 303.113 222.288 302.927 221.874 302.651C221.466 302.367 221.263 301.924 221.263 301.32C221.263 300.665 221.51 300.175 222.005 299.847C222.499 299.513 223.074 299.345 223.728 299.345C224.245 299.345 224.739 299.433 225.212 299.607C225.692 299.782 226.136 300.029 226.543 300.349L226.052 301.211C225.717 300.942 225.354 300.727 224.961 300.567C224.568 300.407 224.157 300.327 223.728 300.327C223.379 300.327 223.059 300.393 222.768 300.524C222.485 300.655 222.343 300.895 222.343 301.244C222.343 301.542 222.474 301.76 222.736 301.898C223.005 302.029 223.517 302.142 224.274 302.236C225.103 302.331 225.725 302.535 226.139 302.847C226.554 303.153 226.761 303.582 226.761 304.135C226.761 304.818 226.485 305.32 225.932 305.64C225.379 305.953 224.761 306.109 224.077 306.109ZM236.544 306V305.018H238.726V300.436H236.544V299.455H239.817V305.018H241.999V306H236.544ZM239.271 298.255C238.995 298.255 238.769 298.211 238.595 298.124C238.428 298.036 238.344 297.873 238.344 297.633V297.556C238.344 297.309 238.428 297.142 238.595 297.055C238.769 296.96 238.995 296.913 239.271 296.913C239.548 296.913 239.769 296.96 239.937 297.055C240.111 297.142 240.199 297.309 240.199 297.556V297.633C240.199 297.873 240.111 298.036 239.937 298.124C239.762 298.211 239.54 298.255 239.271 298.255ZM244.185 306V299.455H245.276V300.545H245.603C245.763 300.175 246.014 299.884 246.356 299.673C246.697 299.455 247.086 299.345 247.523 299.345C248.177 299.345 248.694 299.545 249.072 299.945C249.45 300.345 249.639 300.891 249.639 301.582V306H248.548V301.8C248.548 301.342 248.436 300.993 248.21 300.753C247.992 300.505 247.676 300.382 247.261 300.382C246.934 300.382 246.599 300.48 246.257 300.676C245.923 300.873 245.596 301.156 245.276 301.527V306H244.185ZM262.771 306H261.626L258.811 297.273H259.99L262.215 304.615L264.44 297.273H265.586L262.771 306ZM269.976 306.065C269.321 306.065 268.71 305.96 268.143 305.749C267.576 305.538 267.067 305.153 266.616 304.593L267.401 303.851C267.707 304.265 268.07 304.575 268.492 304.778C268.921 304.982 269.427 305.084 270.008 305.084C270.547 305.084 270.979 304.96 271.307 304.713C271.641 304.458 271.808 304.116 271.808 303.687C271.808 303.273 271.667 302.956 271.383 302.738C271.099 302.513 270.539 302.276 269.703 302.029C268.641 301.724 267.917 301.393 267.532 301.036C267.147 300.68 266.954 300.175 266.954 299.52C266.954 298.764 267.205 298.193 267.707 297.807C268.216 297.422 268.83 297.229 269.55 297.229C270.161 297.229 270.739 297.338 271.285 297.556C271.837 297.767 272.325 298.145 272.747 298.691L271.994 299.444C271.703 299.029 271.339 298.72 270.903 298.516C270.467 298.313 270.023 298.211 269.572 298.211C269.114 298.211 268.747 298.305 268.47 298.495C268.194 298.676 268.056 298.985 268.056 299.422C268.056 299.807 268.205 300.113 268.503 300.338C268.808 300.556 269.405 300.793 270.292 301.047C271.296 301.338 271.979 301.658 272.343 302.007C272.714 302.349 272.899 302.847 272.899 303.502C272.899 304.338 272.601 304.975 272.005 305.411C271.408 305.847 270.732 306.065 269.976 306.065ZM285.224 306.109C284.206 306.109 283.442 305.851 282.933 305.335C282.424 304.811 282.17 304.025 282.17 302.978V300.338C282.17 299.276 282.424 298.484 282.933 297.96C283.442 297.429 284.21 297.164 285.235 297.164C286.239 297.164 286.981 297.4 287.461 297.873C287.948 298.338 288.221 299.087 288.279 300.12L287.188 300.229C287.115 299.444 286.937 298.902 286.653 298.604C286.377 298.298 285.901 298.145 285.224 298.145C284.504 298.145 283.995 298.313 283.697 298.647C283.406 298.975 283.261 299.538 283.261 300.338V302.978C283.261 303.764 283.406 304.32 283.697 304.647C283.995 304.967 284.504 305.127 285.224 305.127C285.901 305.127 286.377 304.982 286.653 304.691C286.937 304.393 287.115 303.858 287.188 303.087L288.279 303.196C288.221 304.215 287.948 304.956 287.461 305.422C286.981 305.88 286.235 306.109 285.224 306.109ZM292.756 306.109C291.876 306.109 291.199 305.898 290.727 305.476C290.261 305.047 290.028 304.433 290.028 303.633V301.865C290.028 301.058 290.265 300.436 290.738 300C291.21 299.564 291.887 299.345 292.767 299.345C293.639 299.345 294.308 299.564 294.774 300C295.247 300.436 295.483 301.058 295.483 301.865V303.633C295.483 304.433 295.247 305.047 294.774 305.476C294.308 305.898 293.636 306.109 292.756 306.109ZM292.756 305.127C293.308 305.127 293.719 305.004 293.988 304.756C294.258 304.509 294.392 304.135 294.392 303.633V301.865C294.392 301.342 294.258 300.956 293.988 300.709C293.719 300.455 293.308 300.327 292.756 300.327C292.203 300.327 291.792 300.455 291.523 300.709C291.254 300.956 291.119 301.342 291.119 301.865V303.633C291.119 304.135 291.254 304.509 291.523 304.756C291.792 305.004 292.203 305.127 292.756 305.127ZM300.069 305.073C300.425 305.073 300.764 304.978 301.084 304.789C301.404 304.6 301.72 304.313 302.033 303.927V300.72C301.807 300.582 301.567 300.48 301.313 300.415C301.058 300.342 300.785 300.305 300.494 300.305C299.905 300.305 299.469 300.436 299.185 300.698C298.902 300.953 298.76 301.342 298.76 301.865V303.622C298.76 304.109 298.869 304.473 299.087 304.713C299.305 304.953 299.633 305.073 300.069 305.073ZM301.705 304.909C301.516 305.287 301.254 305.582 300.92 305.793C300.585 306.004 300.211 306.109 299.796 306.109C299.12 306.109 298.596 305.891 298.225 305.455C297.854 305.018 297.669 304.407 297.669 303.622V301.844C297.669 301.051 297.916 300.436 298.411 300C298.905 299.564 299.596 299.345 300.484 299.345C300.738 299.345 301 299.375 301.269 299.433C301.538 299.484 301.793 299.556 302.033 299.651V297.273H303.124V306H302.033V304.909H301.705ZM310.786 304.56C310.59 305.105 310.291 305.502 309.891 305.749C309.491 305.989 308.877 306.109 308.048 306.109C307.182 306.109 306.51 305.902 306.03 305.487C305.55 305.065 305.31 304.444 305.31 303.622V301.865C305.31 301.022 305.561 300.393 306.062 299.978C306.571 299.556 307.233 299.345 308.048 299.345C308.87 299.345 309.528 299.56 310.022 299.989C310.517 300.411 310.764 301.062 310.764 301.942V302.945H306.401V303.633C306.401 304.178 306.535 304.575 306.804 304.822C307.081 305.062 307.491 305.182 308.037 305.182C308.561 305.182 308.942 305.109 309.182 304.964C309.422 304.818 309.604 304.582 309.728 304.255L310.786 304.56ZM306.401 301.865V302.127H309.673V301.964C309.673 301.375 309.535 300.945 309.259 300.676C308.99 300.407 308.582 300.273 308.037 300.273C307.491 300.273 307.081 300.404 306.804 300.665C306.535 300.92 306.401 301.32 306.401 301.865ZM315.241 302.727L314.914 297.273H316.441L316.114 302.727H315.241ZM315.688 306.109C315.325 306.109 315.056 306.036 314.881 305.891C314.714 305.738 314.63 305.505 314.63 305.193V304.887C314.63 304.567 314.714 304.331 314.881 304.178C315.056 304.025 315.325 303.949 315.688 303.949C316.052 303.949 316.318 304.025 316.485 304.178C316.652 304.331 316.736 304.567 316.736 304.887V305.193C316.736 305.505 316.648 305.738 316.474 305.891C316.307 306.036 316.045 306.109 315.688 306.109Z" fill="var(--vscode-menu-foreground, #CCCCCC)" />
      <path d="M51.7166 278.818V269.727H54.8984V270.545H52.6257V278.109H54.8984V278.818H51.7166ZM57.4474 277V276.182H59.4474V270.818H59.1838C58.9777 271.182 58.7111 271.439 58.3838 271.591C58.0626 271.742 57.6899 271.782 57.2656 271.709L57.1747 270.818C57.6414 270.873 58.0687 270.809 58.4565 270.627C58.8444 270.439 59.1838 270.139 59.4747 269.727H60.3565V276.182H62.1747V277H57.4474ZM63.9964 278.818V278.109H66.2692V270.545H63.9964V269.727H67.1783V278.818H63.9964Z" fill="var(--vscode-editorOverviewRuler-bracketMatchForeground, #A0A0A0)" />
    </g>
  </g>
  <rect width="520" height="39" transform="translate(12)" fill="var(--vscode-sideBar-background, #252526)" />
  <g clip-path="url(#clip0_30214831)">
    <rect width="115.654" height="39.2998" transform="translate(12)" fill="var(--vscode-editor-background, #1E1E1E)" />
    <rect x="25.4741" y="15.7197" width="88.7052" height="7.85995" rx="3.92998" fill="var(--vscode-list-activeSelectionIconForeground, #FFFFFF)" fill-opacity="0.12" />
  </g>
  <g filter="url(#filter1_d_30214831)">
    <rect width="425" height="182" transform="translate(60 20)" fill="var(--vscode-sideBar-background, #252526)" />
    <rect x="67.5" y="27.5" width="410" height="25" fill="var(--vscode-checkbox-background, #3C3C3C)" />
    <path d="M73.168 43.3242V44.708L79.4648 41.9595V40.7598L73.168 38.0239V39.4204L77.8779 41.3691V41.4326L73.168 43.3242ZM81.1533 42.6768C81.1533 44.2129 82.2896 45.2222 83.9463 45.2222C85.7109 45.2222 86.7773 44.1748 86.7773 42.353V35.8403H85.3555V42.3467C85.3555 43.394 84.8413 43.9526 83.9336 43.9526C83.1211 43.9526 82.5688 43.4385 82.5498 42.6768H81.1533ZM94.7373 38.1064H93.3726V42.1499C93.3726 43.2607 92.7695 43.9336 91.665 43.9336C90.6621 43.9336 90.2114 43.3877 90.2114 42.2451V38.1064H88.8467V42.5815C88.8467 44.2002 89.6973 45.1333 91.2271 45.1333C92.2744 45.1333 92.979 44.689 93.3154 43.9082H93.4233V45H94.7373V38.1064ZM100.304 37.9858C99.3647 37.9858 98.5522 38.4619 98.1333 39.249H98.0317V38.1064H96.7178V47.2979H98.0825V43.959H98.1904C98.5522 44.689 99.333 45.1143 100.317 45.1143C102.062 45.1143 103.173 43.7305 103.173 41.5532C103.173 39.3633 102.062 37.9858 100.304 37.9858ZM99.917 43.9463C98.7744 43.9463 98.0571 43.0259 98.0571 41.5532C98.0571 40.0742 98.7744 39.1538 99.9233 39.1538C101.079 39.1538 101.771 40.0552 101.771 41.5532C101.771 43.0513 101.079 43.9463 99.917 43.9463ZM105.236 47.501C106.646 47.501 107.299 46.9741 107.89 45.3174L110.467 38.1064H109.02L107.293 43.6289H107.185L105.452 38.1064H103.967L106.468 45.019L106.366 45.3745C106.131 46.1045 105.763 46.3774 105.116 46.3774C104.989 46.3774 104.779 46.3711 104.671 46.3521V47.4692C104.798 47.4883 105.122 47.501 105.236 47.501ZM112.346 36.3672V38.1255H111.248V39.2173H112.346V43.1846C112.346 44.5112 112.949 45.0444 114.466 45.0444C114.732 45.0444 114.986 45.0127 115.208 44.9746V43.8892C115.018 43.9082 114.897 43.9209 114.688 43.9209C114.009 43.9209 113.71 43.5972 113.71 42.8545V39.2173H115.208V38.1255H113.71V36.3672H112.346ZM121.271 43.1528C121.017 43.7114 120.452 44.0161 119.626 44.0161C118.535 44.0161 117.83 43.229 117.786 41.9785V41.915H122.667V41.4453C122.667 39.2871 121.505 37.9731 119.582 37.9731C117.633 37.9731 116.396 39.376 116.396 41.5659C116.396 43.7686 117.608 45.1333 119.588 45.1333C121.169 45.1333 122.286 44.3716 122.584 43.1528H121.271ZM119.576 39.084C120.585 39.084 121.245 39.814 121.277 40.9312H117.786C117.862 39.8203 118.566 39.084 119.576 39.084ZM124.305 45H125.669V40.8804C125.669 39.9092 126.399 39.2427 127.434 39.2427C127.675 39.2427 128.082 39.2871 128.196 39.3188V38.0366C128.05 38.0049 127.79 37.9858 127.586 37.9858C126.685 37.9858 125.917 38.4746 125.72 39.1538H125.619V38.1064H124.305V45Z" fill="var(--vscode-menu-foreground, #CCCCCC)" />
    <rect x="67.5" y="27.5" width="410" height="25" stroke="var(--vscode-focusBorder, #007FD4)" />
    <rect opacity="0.4" x="72" y="66" width="38" height="6" rx="3" fill="var(--vscode-menu-foreground, #CCCCCC)" />
    <rect opacity="0.4" x="147" y="66" width="105" height="6" rx="3" fill="var(--vscode-menu-foreground, #CCCCCC)" />
    <rect x="114" y="66" width="29" height="6" rx="3" fill="var(--vscode-banner-iconForeground, #3794FF)" fill-opacity="0.6" />
    <rect width="425" height="24" transform="translate(60 82)" fill="var(--vscode-list-activeSelectionBackground, #062F4A)" />
    <path d="M72.4824 96.353C72.4824 98.1177 73.7139 99.2349 75.5928 99.2349C77.5352 99.2349 78.7031 98.1304 78.7031 96.1816V89.8403H76.7861V96.1689C76.7861 97.0894 76.3545 97.5781 75.5674 97.5781C74.8311 97.5781 74.3486 97.0957 74.3359 96.353H72.4824ZM87.082 92.0112H85.2349V96.0483C85.2349 97.0068 84.7397 97.5972 83.8193 97.5972C82.9688 97.5972 82.5308 97.0957 82.5308 96.1055V92.0112H80.6836V96.5625C80.6836 98.1875 81.623 99.146 83.1338 99.146C84.1938 99.146 84.8477 98.689 85.1777 97.8765H85.292V99H87.082V92.0112ZM92.979 91.897C92.0142 91.897 91.2207 92.373 90.8398 93.1602H90.7256V92.0112H88.9355V101.317H90.7827V97.9336H90.897C91.2397 98.6699 92.0078 99.1079 93.0107 99.1079C94.7627 99.1079 95.8354 97.7495 95.8354 95.5024C95.8354 93.249 94.75 91.897 92.979 91.897ZM92.3506 97.6162C91.373 97.6162 90.7637 96.8164 90.7637 95.5088C90.7637 94.2012 91.373 93.395 92.3569 93.395C93.3408 93.395 93.9375 94.1885 93.9375 95.5024C93.9375 96.8228 93.3472 97.6162 92.3506 97.6162ZM97.9175 101.539C99.6631 101.539 100.52 100.917 101.117 99.1333L103.529 92.0112H101.574L100.101 97.3433H99.9868L98.5142 92.0112H96.4766L98.9331 99.0381L98.8696 99.3047C98.7173 99.8696 98.3237 100.098 97.6318 100.098C97.5557 100.098 97.2764 100.092 97.2129 100.079V101.52C97.2891 101.533 97.8477 101.539 97.9175 101.539ZM105.344 90.3418V92.0747H104.252V93.4775H105.344V97.1147C105.344 98.4731 106.017 99.0254 107.718 99.0254C108.074 99.0254 108.417 98.9873 108.645 98.9429V97.5781C108.467 97.5972 108.34 97.6099 108.099 97.6099C107.471 97.6099 107.191 97.3179 107.191 96.6895V93.4775H108.645V92.0747H107.191V90.3418H105.344ZM114.663 97.0259C114.466 97.502 113.964 97.7686 113.234 97.7686C112.27 97.7686 111.66 97.1021 111.635 96.0356V95.9404H116.44V95.3882C116.44 93.1792 115.221 91.8589 113.158 91.8589C111.076 91.8589 109.794 93.2681 109.794 95.5405C109.794 97.8003 111.051 99.146 113.184 99.146C114.897 99.146 116.11 98.3271 116.383 97.0259H114.663ZM113.165 93.2363C114.028 93.2363 114.586 93.833 114.625 94.7915H111.641C111.705 93.8521 112.308 93.2363 113.165 93.2363ZM117.957 99H119.804V95.0898C119.804 94.106 120.496 93.5029 121.505 93.5029C121.804 93.5029 122.235 93.5537 122.381 93.6045V91.9795C122.223 91.9287 121.912 91.897 121.658 91.897C120.769 91.897 120.045 92.4238 119.861 93.1221H119.747V92.0112H117.957V99Z" fill="var(--vscode-list-activeSelectionForeground, #3794FF)" />
    <path d="M124.952 94.6519C125.638 94.6519 126.076 94.1948 126.076 93.5728C126.076 92.9507 125.638 92.5 124.952 92.5C124.273 92.5 123.829 92.9507 123.829 93.5728C123.829 94.1948 124.273 94.6519 124.952 94.6519ZM124.952 99.1587C125.638 99.1587 126.076 98.7017 126.076 98.0796C126.076 97.4575 125.638 97.0068 124.952 97.0068C124.273 97.0068 123.829 97.4575 123.829 98.0796C123.829 98.7017 124.273 99.1587 124.952 99.1587ZM135.673 99.2222C137.717 99.2222 139.222 98.0479 139.476 96.2642H138.06C137.806 97.3052 136.886 97.959 135.673 97.959C134.023 97.959 132.995 96.6006 132.995 94.4233C132.995 92.2461 134.023 90.8813 135.667 90.8813C136.873 90.8813 137.793 91.605 138.06 92.7412H139.476C139.247 90.9067 137.686 89.6182 135.667 89.6182C133.122 89.6182 131.541 91.459 131.541 94.4233C131.541 97.3813 133.128 99.2222 135.673 99.2222ZM141.189 99H142.554V94.8804C142.554 93.9092 143.284 93.2427 144.319 93.2427C144.56 93.2427 144.966 93.2871 145.081 93.3188V92.0366C144.935 92.0049 144.674 91.9858 144.471 91.9858C143.57 91.9858 142.802 92.4746 142.605 93.1538H142.503V92.1064H141.189V99ZM150.749 97.1528C150.495 97.7114 149.93 98.0161 149.105 98.0161C148.013 98.0161 147.309 97.229 147.264 95.9785V95.915H152.146V95.4453C152.146 93.2871 150.984 91.9731 149.061 91.9731C147.112 91.9731 145.874 93.376 145.874 95.5659C145.874 97.7686 147.086 99.1333 149.067 99.1333C150.647 99.1333 151.765 98.3716 152.063 97.1528H150.749ZM149.054 93.084C150.063 93.084 150.724 93.814 150.755 94.9312H147.264C147.34 93.8203 148.045 93.084 149.054 93.084ZM155.694 99.1143C156.602 99.1143 157.357 98.7207 157.77 98.0225H157.877V99H159.191V94.2837C159.191 92.8364 158.214 91.9731 156.481 91.9731C154.913 91.9731 153.796 92.7285 153.656 93.8901H154.977C155.129 93.3887 155.656 93.103 156.417 93.103C157.351 93.103 157.833 93.5283 157.833 94.2837V94.8867L155.96 95.001C154.316 95.1025 153.39 95.8198 153.39 97.0576C153.39 98.3145 154.361 99.1143 155.694 99.1143ZM156.043 98.0161C155.3 98.0161 154.761 97.6416 154.761 97.0005C154.761 96.3721 155.192 96.0356 156.145 95.9722L157.833 95.8579V96.4546C157.833 97.3433 157.071 98.0161 156.043 98.0161ZM161.616 90.3672V92.1255H160.518V93.2173H161.616V97.1846C161.616 98.5112 162.219 99.0444 163.736 99.0444C164.003 99.0444 164.257 99.0127 164.479 98.9746V97.8892C164.289 97.9082 164.168 97.9209 163.958 97.9209C163.279 97.9209 162.981 97.5972 162.981 96.8545V93.2173H164.479V92.1255H162.981V90.3672H161.616ZM170.541 97.1528C170.287 97.7114 169.722 98.0161 168.897 98.0161C167.805 98.0161 167.101 97.229 167.056 95.9785V95.915H171.938V95.4453C171.938 93.2871 170.776 91.9731 168.853 91.9731C166.904 91.9731 165.666 93.376 165.666 95.5659C165.666 97.7686 166.878 99.1333 168.859 99.1333C170.439 99.1333 171.557 98.3716 171.855 97.1528H170.541ZM168.846 93.084C169.855 93.084 170.516 93.814 170.547 94.9312H167.056C167.132 93.8203 167.837 93.084 168.846 93.084ZM178.672 99V92.3477H178.774L183.478 99H184.76V89.8403H183.376V96.5054H183.274L178.571 89.8403H177.289V99H178.672ZM191.438 97.1528C191.184 97.7114 190.619 98.0161 189.793 98.0161C188.702 98.0161 187.997 97.229 187.953 95.9785V95.915H192.834V95.4453C192.834 93.2871 191.672 91.9731 189.749 91.9731C187.8 91.9731 186.562 93.376 186.562 95.5659C186.562 97.7686 187.775 99.1333 189.755 99.1333C191.336 99.1333 192.453 98.3716 192.751 97.1528H191.438ZM189.743 93.084C190.752 93.084 191.412 93.814 191.444 94.9312H187.953C188.029 93.8203 188.733 93.084 189.743 93.084ZM203.422 92.1064H202.057L200.826 97.4258H200.718L199.296 92.1064H197.988L196.566 97.4258H196.465L195.227 92.1064H193.843L195.748 99H197.15L198.572 93.8584H198.68L200.108 99H201.524L203.422 92.1064ZM207.916 96.6768C207.916 98.2129 209.052 99.2222 210.709 99.2222C212.474 99.2222 213.54 98.1748 213.54 96.353V89.8403H212.118V96.3467C212.118 97.394 211.604 97.9526 210.696 97.9526C209.884 97.9526 209.332 97.4385 209.312 96.6768H207.916ZM221.5 92.1064H220.135V96.1499C220.135 97.2607 219.532 97.9336 218.428 97.9336C217.425 97.9336 216.974 97.3877 216.974 96.2451V92.1064H215.609V96.5815C215.609 98.2002 216.46 99.1333 217.99 99.1333C219.037 99.1333 219.742 98.689 220.078 97.9082H220.186V99H221.5V92.1064ZM227.067 91.9858C226.127 91.9858 225.315 92.4619 224.896 93.249H224.794V92.1064H223.48V101.298H224.845V97.959H224.953C225.315 98.689 226.096 99.1143 227.08 99.1143C228.825 99.1143 229.936 97.7305 229.936 95.5532C229.936 93.3633 228.825 91.9858 227.067 91.9858ZM226.68 97.9463C225.537 97.9463 224.82 97.0259 224.82 95.5532C224.82 94.0742 225.537 93.1538 226.686 93.1538C227.841 93.1538 228.533 94.0552 228.533 95.5532C228.533 97.0513 227.841 97.9463 226.68 97.9463ZM231.999 101.501C233.408 101.501 234.062 100.974 234.652 99.3174L237.229 92.1064H235.782L234.056 97.6289H233.948L232.215 92.1064H230.729L233.23 99.019L233.129 99.3745C232.894 100.104 232.526 100.377 231.878 100.377C231.751 100.377 231.542 100.371 231.434 100.352V101.469C231.561 101.488 231.885 101.501 231.999 101.501ZM239.108 90.3672V92.1255H238.01V93.2173H239.108V97.1846C239.108 98.5112 239.711 99.0444 241.229 99.0444C241.495 99.0444 241.749 99.0127 241.971 98.9746V97.8892C241.781 97.9082 241.66 97.9209 241.451 97.9209C240.771 97.9209 240.473 97.5972 240.473 96.8545V93.2173H241.971V92.1255H240.473V90.3672H239.108ZM248.033 97.1528C247.779 97.7114 247.214 98.0161 246.389 98.0161C245.297 98.0161 244.593 97.229 244.548 95.9785V95.915H249.43V95.4453C249.43 93.2871 248.268 91.9731 246.345 91.9731C244.396 91.9731 243.158 93.376 243.158 95.5659C243.158 97.7686 244.371 99.1333 246.351 99.1333C247.932 99.1333 249.049 98.3716 249.347 97.1528H248.033ZM246.338 93.084C247.348 93.084 248.008 93.814 248.04 94.9312H244.548C244.625 93.8203 245.329 93.084 246.338 93.084ZM251.067 99H252.432V94.8804C252.432 93.9092 253.162 93.2427 254.197 93.2427C254.438 93.2427 254.844 93.2871 254.958 93.3188V92.0366C254.812 92.0049 254.552 91.9858 254.349 91.9858C253.448 91.9858 252.68 92.4746 252.483 93.1538H252.381V92.1064H251.067V99ZM261.37 99V92.3477H261.471L266.175 99H267.457V89.8403H266.073V96.5054H265.972L261.268 89.8403H259.986V99H261.37ZM272.522 99.1333C274.541 99.1333 275.779 97.7812 275.779 95.5532C275.779 93.3252 274.535 91.9731 272.522 91.9731C270.504 91.9731 269.26 93.3315 269.26 95.5532C269.26 97.7812 270.498 99.1333 272.522 99.1333ZM272.522 97.9717C271.335 97.9717 270.669 97.0894 270.669 95.5532C270.669 94.0171 271.335 93.1284 272.522 93.1284C273.703 93.1284 274.376 94.0171 274.376 95.5532C274.376 97.083 273.703 97.9717 272.522 97.9717ZM277.905 90.3672V92.1255H276.807V93.2173H277.905V97.1846C277.905 98.5112 278.508 99.0444 280.025 99.0444C280.292 99.0444 280.546 99.0127 280.768 98.9746V97.8892C280.578 97.9082 280.457 97.9209 280.248 97.9209C279.568 97.9209 279.27 97.5972 279.27 96.8545V93.2173H280.768V92.1255H279.27V90.3672H277.905ZM286.83 97.1528C286.576 97.7114 286.011 98.0161 285.186 98.0161C284.094 98.0161 283.39 97.229 283.345 95.9785V95.915H288.227V95.4453C288.227 93.2871 287.065 91.9731 285.142 91.9731C283.193 91.9731 281.955 93.376 281.955 95.5659C281.955 97.7686 283.167 99.1333 285.148 99.1333C286.729 99.1333 287.846 98.3716 288.144 97.1528H286.83ZM285.135 93.084C286.145 93.084 286.805 93.814 286.836 94.9312H283.345C283.421 93.8203 284.126 93.084 285.135 93.084ZM293.527 99.1143C295.272 99.1143 296.383 97.7241 296.383 95.5532C296.383 93.3633 295.279 91.9858 293.527 91.9858C292.581 91.9858 291.769 92.4492 291.4 93.1982H291.292V89.4023H289.928V99H291.242V97.9082H291.343C291.756 98.6699 292.562 99.1143 293.527 99.1143ZM293.133 93.1538C294.289 93.1538 294.98 94.0615 294.98 95.5532C294.98 97.0449 294.289 97.9463 293.133 97.9463C291.984 97.9463 291.273 97.0322 291.267 95.5532C291.273 94.0742 291.991 93.1538 293.133 93.1538ZM300.947 99.1333C302.966 99.1333 304.204 97.7812 304.204 95.5532C304.204 93.3252 302.959 91.9731 300.947 91.9731C298.929 91.9731 297.685 93.3315 297.685 95.5532C297.685 97.7812 298.922 99.1333 300.947 99.1333ZM300.947 97.9717C299.76 97.9717 299.094 97.0894 299.094 95.5532C299.094 94.0171 299.76 93.1284 300.947 93.1284C302.128 93.1284 302.801 94.0171 302.801 95.5532C302.801 97.083 302.128 97.9717 300.947 97.9717ZM308.768 99.1333C310.786 99.1333 312.024 97.7812 312.024 95.5532C312.024 93.3252 310.78 91.9731 308.768 91.9731C306.749 91.9731 305.505 93.3315 305.505 95.5532C305.505 97.7812 306.743 99.1333 308.768 99.1333ZM308.768 97.9717C307.581 97.9717 306.914 97.0894 306.914 95.5532C306.914 94.0171 307.581 93.1284 308.768 93.1284C309.948 93.1284 310.621 94.0171 310.621 95.5532C310.621 97.083 309.948 97.9717 308.768 97.9717ZM315.204 95.0137H315.096V89.4023H313.731V99H315.096V96.4927L315.699 95.915L318.073 99H319.749L316.715 95.0581L319.559 92.1064H317.946L315.204 95.0137Z" fill="var(--vscode-list-activeSelectionForeground, #E3E3E3)" />
    <rect opacity="0.4" x="72" y="116" width="62.5" height="6" rx="3" fill="var(--vscode-menu-foreground, #CCCCCC)" />
    <rect x="138.5" y="116" width="29" height="6" rx="3" fill="var(--vscode-banner-iconForeground, #3794FF)" fill-opacity="0.6" />
    <rect opacity="0.4" x="171.5" y="116" width="62.5" height="6" rx="3" fill="var(--vscode-menu-foreground, #CCCCCC)" />
    <rect opacity="0.4" x="72" y="138" width="41" height="6" rx="3" fill="var(--vscode-menu-foreground, #CCCCCC)" />
    <rect opacity="0.4" x="117" y="138" width="69" height="6" rx="3" fill="var(--vscode-menu-foreground, #CCCCCC)" />
    <rect x="190" y="138" width="26" height="6" rx="3" fill="var(--vscode-banner-iconForeground, #3794FF)" fill-opacity="0.6" />
    <rect x="72" y="160" width="26" height="6" rx="3" fill="var(--vscode-banner-iconForeground, #3794FF)" fill-opacity="0.6" />
    <rect opacity="0.4" x="102" y="160" width="164" height="6" rx="3" fill="var(--vscode-menu-foreground, #CCCCCC)" />
    <rect opacity="0.4" x="72" y="182" width="46" height="6" rx="3" fill="var(--vscode-menu-foreground, #CCCCCC)" />
    <rect x="122" y="182" width="29" height="6" rx="3" fill="var(--vscode-banner-iconForeground, #3794FF)" fill-opacity="0.6" />
    <rect opacity="0.4" x="155" y="182" width="46" height="6" rx="3" fill="var(--vscode-menu-foreground, #CCCCCC)" />
  </g>
  <defs>
    <filter id="filter0_d_30214831" x="0" y="179" width="543" height="158" filterUnits="userSpaceOnUse" color-interpolation-filters="sRGB">
      <feFlood flood-opacity="0" result="BackgroundImageFix" />
      <feColorMatrix in="SourceAlpha" type="matrix" values="0 0 0 0 0 0 0 0 0 0 0 0 0 0 0 0 0 0 127 0" result="hardAlpha" />
      <feOffset dy="2" />
      <feGaussianBlur stdDeviation="6" />
      <feColorMatrix type="matrix" values="0 0 0 0 0 0 0 0 0 0 0 0 0 0 0 0 0 0 0.6 0" />
      <feBlend mode="normal" in2="BackgroundImageFix" result="effect1_dropShadow_30214831" />
      <feBlend mode="normal" in="SourceGraphic" in2="effect1_dropShadow_30214831" result="shape" />
    </filter>
    <filter id="filter1_d_30214831" x="48" y="10" width="449" height="206" filterUnits="userSpaceOnUse" color-interpolation-filters="sRGB">
      <feFlood flood-opacity="0" result="BackgroundImageFix" />
      <feColorMatrix in="SourceAlpha" type="matrix" values="0 0 0 0 0 0 0 0 0 0 0 0 0 0 0 0 0 0 127 0" result="hardAlpha" />
      <feOffset dy="2" />
      <feGaussianBlur stdDeviation="6" />
      <feColorMatrix type="matrix" values="0 0 0 0 0 0 0 0 0 0 0 0 0 0 0 0 0 0 0.6 0" />
      <feBlend mode="normal" in2="BackgroundImageFix" result="effect1_dropShadow_30214831" />
      <feBlend mode="normal" in="SourceGraphic" in2="effect1_dropShadow_30214831" result="shape" />
    </filter>
    <clipPath id="clip0_30214831">
      <rect width="115.654" height="39.2998" fill="var(--vscode-list-activeSelectionIconForeground, #FFFFFF)" transform="translate(12)" />
    </clipPath>
  </defs>
</svg>