<svg width="566" height="187" viewBox="0 0 566 187" fill="none" xmlns="http://www.w3.org/2000/svg">
  <rect width="502" height="39" transform="translate(32)" fill="var(--vscode-editorGroupHeader-tabsBackground, #292929)" />
  <g clip-path="url(#clip0_30614476)">
    <rect width="136.145" height="39.2998" transform="translate(32)" fill="var(--vscode-tab-activeBackground, #252526)" />
    <path d="M55.6541 14.0294C56.0008 14.0294 56.2941 14.1561 56.5341 14.4094C56.7875 14.6494 56.9141 14.9427 56.9141 15.2894V24.0094C56.9141 24.3561 56.7875 24.6561 56.5341 24.9094C56.2941 25.1494 56.0008 25.2694 55.6541 25.2694H49.7341C49.3875 25.2694 49.0875 25.1494 48.8341 24.9094C48.5941 24.6561 48.4741 24.3561 48.4741 24.0094V15.2894C48.4741 14.9427 48.5941 14.6494 48.8341 14.4094C49.0875 14.1561 49.3875 14.0294 49.7341 14.0294H55.6541ZM57.4741 21.3294H57.8941C58.0008 21.3294 58.0941 21.3694 58.1741 21.4494C58.2541 21.5161 58.3008 21.6027 58.3141 21.7094V22.6094C58.3141 22.7161 58.2808 22.8094 58.2141 22.8894C58.1475 22.9561 58.0608 23.0027 57.9541 23.0294H57.4741V21.3294H57.8941H57.4741ZM57.4741 19.0894H57.8941C58.0008 19.0894 58.0941 19.1227 58.1741 19.1894C58.2541 19.2561 58.3008 19.3427 58.3141 19.4494V20.3494C58.3141 20.4561 58.2808 20.5494 58.2141 20.6294C58.1475 20.7094 58.0608 20.7561 57.9541 20.7694H57.4741V19.0894H57.8941H57.4741ZM57.4741 16.8294H57.8941C58.0008 16.8294 58.0941 16.8694 58.1741 16.9494C58.2541 17.0161 58.3008 17.1027 58.3141 17.2094V18.1094C58.3141 18.2161 58.2808 18.3094 58.2141 18.3894C58.1475 18.4561 58.0608 18.5027 57.9541 18.5294H57.4741V16.8294H57.8941H57.4741ZM54.5141 15.9894H50.8741C50.7675 15.9894 50.6741 16.0294 50.5941 16.1094C50.5141 16.1761 50.4675 16.2561 50.4541 16.3494L50.4341 17.2694C50.4341 17.3627 50.4675 17.4494 50.5341 17.5294C50.6141 17.6094 50.7075 17.6561 50.8141 17.6694L54.5141 17.6894C54.6208 17.6894 54.7141 17.6561 54.7941 17.5894C54.8741 17.5094 54.9208 17.4161 54.9341 17.3094L54.9541 16.4094C54.9541 16.2894 54.9075 16.1894 54.8141 16.1094C54.7341 16.0294 54.6341 15.9894 54.5141 15.9894Z" fill="#519ABA" />
    <rect x="65.9656" y="15.7197" width="88.7052" height="7.85995" rx="3.92998" fill="var(--vscode-foreground, #FFFFFF)" fill-opacity="0.12" />
  </g>
  <g filter="url(#filter0_d_30614476)">
    <rect width="542" height="134" transform="translate(12 39)" fill="var(--vscode-editor-background, #292929)" />
    <rect x="25" y="71" width="4" height="90" rx="2" fill="var(--vscode-focusBorder, #007FD4)" />
    <path d="M40.7867 75.9733L39.9867 76.4V88.4L40.7867 88.8267L49.8 82.8533V82L40.7867 75.9733ZM41 87.4933V77.36L48.6267 82.4267L41 87.4933Z" fill="var(--vscode-foreground, #CCCCCC)" />
    <path d="M63 84.08L67.32 79.7067L67.96 80.3467L63.2667 84.9867H62.68L57.9867 80.3467L58.6267 79.7067L63 84.08Z" fill="var(--vscode-foreground, #CCCCCC)" />
    <rect x="75.5" y="71.5" width="460" height="59" fill="var(--vscode-sideBar-background, #303031)" stroke="var(--vscode-notebook-cellBorderColor, #37373d)" />
    <rect x="374.5" y="55.5" width="152" height="28" fill="var(--vscode-sideBar-background, #303031)" stroke="var(--vscode-notebook-cellBorderColor, #37373d)" />
    <path d="M408.76 63.0133L408.013 63.44V75.44L408.76 75.8133L417.773 69.84V68.9867L408.76 63.0133ZM409.027 74.48V64.3467L416.6 69.4133L409.027 74.48ZM419.16 70H419.853L422.36 72.5067L421.667 73.2L420.013 71.5467V76.9867H419V71.5467L417.347 73.2L416.653 72.5067L419.16 70Z" fill="var(--vscode-foreground, #CCCCCC)" />
    <path d="M432.813 63.0133L432.013 63.44V75.44L432.813 75.8133L441.827 69.84V68.9867L432.813 63.0133ZM433.027 74.48V64.3467L440.6 69.4133L433.027 74.48ZM443.853 76.9867H443.16L440.653 74.48L441.347 73.7867L443 75.44V70H444.013V75.44L445.667 73.7867L446.36 74.5333L443.853 76.9867Z" fill="var(--vscode-foreground, #CCCCCC)" />
    <path d="M483 70C483 70.2844 482.893 70.5333 482.68 70.7467C482.502 70.9244 482.271 71.0133 481.987 71.0133C481.702 71.0133 481.471 70.9244 481.293 70.7467C481.116 70.5333 481.027 70.2844 481.027 70C481.027 69.7156 481.116 69.4844 481.293 69.3067C481.471 69.0933 481.702 68.9867 481.987 68.9867C482.271 68.9867 482.502 69.0933 482.68 69.3067C482.893 69.4844 483 69.7156 483 70ZM488.013 70C488.013 70.2844 487.907 70.5333 487.693 70.7467C487.516 70.9244 487.284 71.0133 487 71.0133C486.716 71.0133 486.467 70.9244 486.253 70.7467C486.076 70.5333 485.987 70.2844 485.987 70C485.987 69.7156 486.076 69.4844 486.253 69.3067C486.467 69.0933 486.716 68.9867 487 68.9867C487.284 68.9867 487.516 69.0933 487.693 69.3067C487.907 69.4844 488.013 69.7156 488.013 70ZM493.027 70C493.027 70.2844 492.92 70.5333 492.707 70.7467C492.529 70.9244 492.298 71.0133 492.013 71.0133C491.729 71.0133 491.48 70.9244 491.267 70.7467C491.089 70.5333 491 70.2844 491 70C491 69.7156 491.089 69.4844 491.267 69.3067C491.48 69.0933 491.729 68.9867 492.013 68.9867C492.298 68.9867 492.529 69.0933 492.707 69.3067C492.92 69.4844 493.027 69.7156 493.027 70Z" fill="var(--vscode-foreground, #CCCCCC)" />
    <path d="M513.027 64.9867H516.013V66H515V75.0133L513.987 75.9733H507L505.987 75.0133V66H505.027V64.9867H508.013V63.9733C508.013 63.7244 508.102 63.5111 508.28 63.3333C508.493 63.12 508.742 63.0133 509.027 63.0133H512.013C512.298 63.0133 512.529 63.12 512.707 63.3333C512.92 63.5111 513.027 63.7244 513.027 63.9733V64.9867ZM512.013 63.9733H509.027V64.9867H512.013V63.9733ZM507 75.0133H513.987V66H507V75.0133ZM509.027 67.0133H508.013V74H509.027V67.0133ZM509.987 67.0133H511V74H509.987V67.0133ZM512.013 67.0133H513.027V74H512.013V67.0133Z" fill="var(--vscode-foreground, #CCCCCC)" />
    <path d="M389.027 71.9733V71.0133H397.987V71.9733H389.027ZM393.027 67.9733H397.987V68.9867H393.027V67.9733ZM397.987 64.9867V66H389.027V64.9867H397.987ZM389.027 74V75.0133H397.987V74H389.027ZM384.013 64.7733L384.76 64.4L390.147 67.9733V68.7733L384.76 72.4L384.013 71.9733V64.7733ZM385.027 65.7333V71.0133L388.973 68.4L385.027 65.7333Z" fill="var(--vscode-foreground, #CCCCCC)" />
    <path d="M469.027 63.0133H457.987L457.027 63.9733V75.0133L457.987 75.9733H469.027L469.987 75.0133V63.9733L469.027 63.0133ZM469.027 75.0133H457.987V70H469.027V75.0133ZM469.027 68.9867H457.987V63.9733H469.027V68.9867Z" fill="var(--vscode-foreground, #CCCCCC)" />
    <path d="M88.6582 91.3091V96H87.6545V89.4545H88.6582V90.3273H88.8764C89.0145 90.0218 89.1964 89.7818 89.4218 89.6073C89.6473 89.4327 89.8836 89.3455 90.1309 89.3455C90.4145 89.3455 90.6509 89.4327 90.84 89.6073C91.0364 89.7745 91.1709 90.0145 91.2436 90.3273H91.4836C91.6218 90.0218 91.8073 89.7818 92.04 89.6073C92.28 89.4327 92.5345 89.3455 92.8036 89.3455C93.1673 89.3455 93.4545 89.4945 93.6655 89.7927C93.8764 90.0836 93.9818 90.48 93.9818 90.9818V96H92.9782V91.1564C92.9782 90.8291 92.9345 90.5818 92.8473 90.4145C92.76 90.2473 92.6327 90.1636 92.4655 90.1636C92.3273 90.1636 92.1527 90.2655 91.9418 90.4691C91.7382 90.6727 91.5309 90.9527 91.32 91.3091V96H90.3164V91.1564C90.3164 90.8291 90.2691 90.5818 90.1745 90.4145C90.0873 90.2473 89.96 90.1636 89.7927 90.1636C89.6473 90.1636 89.4764 90.2618 89.28 90.4582C89.0909 90.6545 88.8836 90.9382 88.6582 91.3091ZM98.5461 96.1091C97.9934 96.1091 97.4588 96.0291 96.9424 95.8691C96.4261 95.7018 95.9497 95.4473 95.5134 95.1055L96.0043 94.2436C96.3606 94.5345 96.757 94.7564 97.1934 94.9091C97.637 95.0545 98.0879 95.1273 98.5461 95.1273C98.9243 95.1273 99.2843 95.0691 99.6261 94.9527C99.9752 94.8364 100.15 94.5891 100.15 94.2109C100.15 93.8982 100.008 93.6764 99.7243 93.5455C99.4406 93.4145 98.9206 93.3018 98.1643 93.2073C97.3643 93.1127 96.757 92.9273 96.3424 92.6509C95.9352 92.3673 95.7315 91.9236 95.7315 91.32C95.7315 90.6655 95.9788 90.1745 96.4734 89.8473C96.9679 89.5127 97.5424 89.3455 98.197 89.3455C98.7134 89.3455 99.2079 89.4327 99.6806 89.6073C100.161 89.7818 100.604 90.0291 101.012 90.3491L100.521 91.2109C100.186 90.9418 99.8224 90.7273 99.4297 90.5673C99.037 90.4073 98.6261 90.3273 98.197 90.3273C97.8479 90.3273 97.5279 90.3927 97.237 90.5236C96.9534 90.6545 96.8115 90.8945 96.8115 91.2436C96.8115 91.5418 96.9424 91.76 97.2043 91.8982C97.4734 92.0291 97.9861 92.1418 98.7424 92.2364C99.5715 92.3309 100.193 92.5345 100.608 92.8473C101.022 93.1527 101.23 93.5818 101.23 94.1345C101.23 94.8182 100.953 95.32 100.401 95.64C99.8479 95.9527 99.2297 96.1091 98.5461 96.1091ZM109.372 96.5236C109.372 97.1127 109.154 97.5527 108.718 97.8436C108.289 98.1418 107.761 98.2909 107.136 98.2909H105.085C104.43 98.2909 103.889 98.16 103.459 97.8982C103.038 97.6364 102.827 97.2327 102.827 96.6873C102.827 96.3382 102.918 96.0618 103.099 95.8582C103.289 95.6473 103.561 95.5273 103.918 95.4982V95.2691C103.663 95.2255 103.452 95.12 103.285 94.9527C103.125 94.7855 103.045 94.5273 103.045 94.1782C103.045 93.8655 103.143 93.5855 103.339 93.3382C103.536 93.0836 103.867 92.9382 104.332 92.9018V92.6945C103.976 92.5782 103.736 92.4036 103.612 92.1709C103.489 91.9309 103.427 91.7018 103.427 91.4836V91.1891C103.427 90.6873 103.641 90.2727 104.07 89.9455C104.499 89.6182 105.103 89.4545 105.881 89.4545H109.099V90.4364L107.409 90.1855V90.3818C107.699 90.4618 107.918 90.6145 108.063 90.84C108.216 91.0655 108.292 91.2909 108.292 91.5164V91.8C108.292 92.3018 108.099 92.7091 107.714 93.0218C107.329 93.3273 106.703 93.48 105.838 93.48H104.518C104.321 93.48 104.172 93.5309 104.07 93.6327C103.969 93.7273 103.918 93.8909 103.918 94.1236C103.918 94.3491 103.987 94.52 104.125 94.6364C104.27 94.7455 104.485 94.8 104.769 94.8H107.245C107.856 94.8 108.361 94.9345 108.761 95.2036C109.169 95.4727 109.372 95.9127 109.372 96.5236ZM105.881 92.6509C106.325 92.6509 106.663 92.5709 106.896 92.4109C107.129 92.2509 107.245 92 107.245 91.6582V91.3091C107.245 90.9673 107.129 90.72 106.896 90.5673C106.663 90.4073 106.325 90.3273 105.881 90.3273C105.438 90.3273 105.099 90.4073 104.867 90.5673C104.634 90.72 104.518 90.9673 104.518 91.3091V91.6582C104.518 92 104.634 92.2509 104.867 92.4109C105.099 92.5709 105.438 92.6509 105.881 92.6509ZM105.063 97.4182H107.278C107.605 97.4182 107.87 97.3564 108.074 97.2327C108.278 97.1091 108.379 96.8945 108.379 96.5891C108.379 96.2982 108.285 96.0909 108.096 95.9673C107.914 95.8436 107.678 95.7818 107.387 95.7818H103.918V96.5236C103.918 96.8218 104.016 97.0436 104.212 97.1891C104.409 97.3418 104.692 97.4182 105.063 97.4182ZM134.502 109.309V114H133.498V107.455H134.502V108.327H134.72C134.858 108.022 135.04 107.782 135.266 107.607C135.491 107.433 135.727 107.345 135.975 107.345C136.258 107.345 136.495 107.433 136.684 107.607C136.88 107.775 137.015 108.015 137.087 108.327H137.327C137.466 108.022 137.651 107.782 137.884 107.607C138.124 107.433 138.378 107.345 138.647 107.345C139.011 107.345 139.298 107.495 139.509 107.793C139.72 108.084 139.826 108.48 139.826 108.982V114H138.822V109.156C138.822 108.829 138.778 108.582 138.691 108.415C138.604 108.247 138.476 108.164 138.309 108.164C138.171 108.164 137.996 108.265 137.786 108.469C137.582 108.673 137.375 108.953 137.164 109.309V114H136.16V109.156C136.16 108.829 136.113 108.582 136.018 108.415C135.931 108.247 135.804 108.164 135.636 108.164C135.491 108.164 135.32 108.262 135.124 108.458C134.935 108.655 134.727 108.938 134.502 109.309ZM144.39 114.109C143.837 114.109 143.303 114.029 142.786 113.869C142.27 113.702 141.793 113.447 141.357 113.105L141.848 112.244C142.204 112.535 142.601 112.756 143.037 112.909C143.481 113.055 143.932 113.127 144.39 113.127C144.768 113.127 145.128 113.069 145.47 112.953C145.819 112.836 145.993 112.589 145.993 112.211C145.993 111.898 145.852 111.676 145.568 111.545C145.284 111.415 144.764 111.302 144.008 111.207C143.208 111.113 142.601 110.927 142.186 110.651C141.779 110.367 141.575 109.924 141.575 109.32C141.575 108.665 141.823 108.175 142.317 107.847C142.812 107.513 143.386 107.345 144.041 107.345C144.557 107.345 145.052 107.433 145.524 107.607C146.004 107.782 146.448 108.029 146.855 108.349L146.364 109.211C146.03 108.942 145.666 108.727 145.273 108.567C144.881 108.407 144.47 108.327 144.041 108.327C143.692 108.327 143.372 108.393 143.081 108.524C142.797 108.655 142.655 108.895 142.655 109.244C142.655 109.542 142.786 109.76 143.048 109.898C143.317 110.029 143.83 110.142 144.586 110.236C145.415 110.331 146.037 110.535 146.452 110.847C146.866 111.153 147.073 111.582 147.073 112.135C147.073 112.818 146.797 113.32 146.244 113.64C145.692 113.953 145.073 114.109 144.39 114.109ZM155.216 114.524C155.216 115.113 154.998 115.553 154.561 115.844C154.132 116.142 153.605 116.291 152.98 116.291H150.929C150.274 116.291 149.732 116.16 149.303 115.898C148.881 115.636 148.67 115.233 148.67 114.687C148.67 114.338 148.761 114.062 148.943 113.858C149.132 113.647 149.405 113.527 149.761 113.498V113.269C149.507 113.225 149.296 113.12 149.129 112.953C148.969 112.785 148.889 112.527 148.889 112.178C148.889 111.865 148.987 111.585 149.183 111.338C149.38 111.084 149.71 110.938 150.176 110.902V110.695C149.82 110.578 149.58 110.404 149.456 110.171C149.332 109.931 149.27 109.702 149.27 109.484V109.189C149.27 108.687 149.485 108.273 149.914 107.945C150.343 107.618 150.947 107.455 151.725 107.455H154.943V108.436L153.252 108.185V108.382C153.543 108.462 153.761 108.615 153.907 108.84C154.06 109.065 154.136 109.291 154.136 109.516V109.8C154.136 110.302 153.943 110.709 153.558 111.022C153.172 111.327 152.547 111.48 151.681 111.48H150.361C150.165 111.48 150.016 111.531 149.914 111.633C149.812 111.727 149.761 111.891 149.761 112.124C149.761 112.349 149.83 112.52 149.969 112.636C150.114 112.745 150.329 112.8 150.612 112.8H153.089C153.7 112.8 154.205 112.935 154.605 113.204C155.012 113.473 155.216 113.913 155.216 114.524ZM151.725 110.651C152.169 110.651 152.507 110.571 152.74 110.411C152.972 110.251 153.089 110 153.089 109.658V109.309C153.089 108.967 152.972 108.72 152.74 108.567C152.507 108.407 152.169 108.327 151.725 108.327C151.281 108.327 150.943 108.407 150.71 108.567C150.478 108.72 150.361 108.967 150.361 109.309V109.658C150.361 110 150.478 110.251 150.71 110.411C150.943 110.571 151.281 110.651 151.725 110.651ZM150.907 115.418H153.121C153.449 115.418 153.714 115.356 153.918 115.233C154.121 115.109 154.223 114.895 154.223 114.589C154.223 114.298 154.129 114.091 153.94 113.967C153.758 113.844 153.521 113.782 153.23 113.782H149.761V114.524C149.761 114.822 149.86 115.044 150.056 115.189C150.252 115.342 150.536 115.418 150.907 115.418Z" fill="var(--vscode-debugIcon-continueForeground, #9CDCFE)" />
    <path d="M118.326 91.2V90.1091H124.435V91.2H118.326ZM118.326 94.2545V93.1636H124.435V94.2545H118.326ZM131.203 116.291C130.061 116.022 129.138 115.4 128.432 114.425C127.734 113.451 127.385 112.218 127.385 110.727C127.385 109.236 127.734 108.004 128.432 107.029C129.138 106.055 130.061 105.433 131.203 105.164L131.312 106.015C130.338 106.284 129.621 106.847 129.163 107.705C128.705 108.556 128.476 109.564 128.476 110.727C128.476 111.891 128.705 112.902 129.163 113.76C129.621 114.611 130.338 115.171 131.312 115.44L131.203 116.291ZM157.402 116.291L157.293 115.44C158.267 115.171 158.984 114.607 159.442 113.749C159.9 112.884 160.129 111.876 160.129 110.727C160.129 109.578 159.9 108.575 159.442 107.716C158.984 106.851 158.267 106.284 157.293 106.015L157.402 105.164C158.544 105.433 159.464 106.058 160.162 107.04C160.867 108.015 161.22 109.244 161.22 110.727C161.22 112.211 160.867 113.44 160.162 114.415C159.464 115.396 158.544 116.022 157.402 116.291Z" fill="var(--vscode-foreground, #D4D4D4)" />
    <path d="M137.753 91.6364L137.426 87.2727H139.171L138.844 91.6364H137.753ZM134.48 91.6364L134.153 87.2727H135.898L135.571 91.6364H134.48ZM145.59 96L144.303 90.7964L143.015 96H141.924L140.746 87.2727H141.826L142.612 94.3964L143.757 89.4545H144.903L146.048 94.3964L146.833 87.2727H147.859L146.681 96H145.59ZM154.692 94.56C154.496 95.1055 154.198 95.5018 153.798 95.7491C153.398 95.9891 152.783 96.1091 151.954 96.1091C151.089 96.1091 150.416 95.9018 149.936 95.4873C149.456 95.0655 149.216 94.4436 149.216 93.6218V91.8655C149.216 91.0218 149.467 90.3927 149.969 89.9782C150.478 89.5564 151.14 89.3455 151.954 89.3455C152.776 89.3455 153.434 89.56 153.929 89.9891C154.423 90.4109 154.67 91.0618 154.67 91.9418V92.9455H150.307V93.6327C150.307 94.1782 150.441 94.5745 150.71 94.8218C150.987 95.0618 151.398 95.1818 151.943 95.1818C152.467 95.1818 152.849 95.1091 153.089 94.9636C153.329 94.8182 153.51 94.5818 153.634 94.2545L154.692 94.56ZM150.307 91.8655V92.1273H153.58V91.9636C153.58 91.3745 153.441 90.9455 153.165 90.6764C152.896 90.4073 152.489 90.2727 151.943 90.2727C151.398 90.2727 150.987 90.4036 150.71 90.6655C150.441 90.92 150.307 91.32 150.307 91.8655ZM156.857 96V95.0182H159.038V88.2545H156.857V87.2727H160.129V95.0182H162.311V96H156.857ZM167.377 96.1091C166.424 96.1091 165.704 95.9018 165.217 95.4873C164.737 95.0655 164.497 94.4473 164.497 93.6327V91.8655C164.497 91.0364 164.737 90.4109 165.217 89.9891C165.704 89.56 166.421 89.3455 167.366 89.3455C168.21 89.3455 168.857 89.5382 169.308 89.9236C169.766 90.3018 170.021 90.8582 170.072 91.5927L169.003 91.6582C168.974 91.2073 168.824 90.8727 168.555 90.6545C168.286 90.4364 167.886 90.3273 167.355 90.3273C166.759 90.3273 166.315 90.4545 166.024 90.7091C165.734 90.9564 165.588 91.3418 165.588 91.8655V93.6327C165.588 94.1345 165.734 94.5091 166.024 94.7564C166.323 95.0036 166.774 95.1273 167.377 95.1273C167.901 95.1273 168.297 95.0364 168.566 94.8545C168.835 94.6655 168.981 94.3855 169.003 94.0145L170.072 94.08C170.021 94.7491 169.77 95.2545 169.319 95.5964C168.868 95.9382 168.221 96.1091 167.377 96.1091ZM174.865 96.1091C173.985 96.1091 173.309 95.8982 172.836 95.4764C172.371 95.0473 172.138 94.4327 172.138 93.6327V91.8655C172.138 91.0582 172.374 90.4364 172.847 90C173.32 89.5636 173.996 89.3455 174.876 89.3455C175.749 89.3455 176.418 89.5636 176.883 90C177.356 90.4364 177.592 91.0582 177.592 91.8655V93.6327C177.592 94.4327 177.356 95.0473 176.883 95.4764C176.418 95.8982 175.745 96.1091 174.865 96.1091ZM174.865 95.1273C175.418 95.1273 175.829 95.0036 176.098 94.7564C176.367 94.5091 176.501 94.1345 176.501 93.6327V91.8655C176.501 91.3418 176.367 90.9564 176.098 90.7091C175.829 90.4545 175.418 90.3273 174.865 90.3273C174.312 90.3273 173.901 90.4545 173.632 90.7091C173.363 90.9564 173.229 91.3418 173.229 91.8655V93.6327C173.229 94.1345 173.363 94.5091 173.632 94.7564C173.901 95.0036 174.312 95.1273 174.865 95.1273ZM180.346 91.3091V96H179.342V89.4545H180.346V90.3273H180.564C180.702 90.0218 180.884 89.7818 181.109 89.6073C181.335 89.4327 181.571 89.3455 181.818 89.3455C182.102 89.3455 182.338 89.4327 182.527 89.6073C182.724 89.7745 182.858 90.0145 182.931 90.3273H183.171C183.309 90.0218 183.495 89.7818 183.728 89.6073C183.968 89.4327 184.222 89.3455 184.491 89.3455C184.855 89.3455 185.142 89.4945 185.353 89.7927C185.564 90.0836 185.669 90.48 185.669 90.9818V96H184.666V91.1564C184.666 90.8291 184.622 90.5818 184.535 90.4145C184.447 90.2473 184.32 90.1636 184.153 90.1636C184.015 90.1636 183.84 90.2655 183.629 90.4691C183.426 90.6727 183.218 90.9527 183.008 91.3091V96H182.004V91.1564C182.004 90.8291 181.957 90.5818 181.862 90.4145C181.775 90.2473 181.647 90.1636 181.48 90.1636C181.335 90.1636 181.164 90.2618 180.967 90.4582C180.778 90.6545 180.571 90.9382 180.346 91.3091ZM192.895 94.56C192.699 95.1055 192.401 95.5018 192.001 95.7491C191.601 95.9891 190.986 96.1091 190.157 96.1091C189.292 96.1091 188.619 95.9018 188.139 95.4873C187.659 95.0655 187.419 94.4436 187.419 93.6218V91.8655C187.419 91.0218 187.67 90.3927 188.172 89.9782C188.681 89.5564 189.343 89.3455 190.157 89.3455C190.979 89.3455 191.637 89.56 192.132 89.9891C192.626 90.4109 192.874 91.0618 192.874 91.9418V92.9455H188.51V93.6327C188.51 94.1782 188.644 94.5745 188.914 94.8218C189.19 95.0618 189.601 95.1818 190.146 95.1818C190.67 95.1818 191.052 95.1091 191.292 94.9636C191.532 94.8182 191.714 94.5818 191.837 94.2545L192.895 94.56ZM188.51 91.8655V92.1273H191.783V91.9636C191.783 91.3745 191.644 90.9455 191.368 90.6764C191.099 90.4073 190.692 90.2727 190.146 90.2727C189.601 90.2727 189.19 90.4036 188.914 90.6655C188.644 90.92 188.51 91.32 188.51 91.8655ZM206.508 96.0982C205.788 96.0982 205.228 95.92 204.828 95.5636C204.428 95.2073 204.228 94.6618 204.228 93.9273V90.4364H202.373V89.4545H204.228V87.2727H205.318V89.4545H208.155V90.4364H205.318V93.8291C205.318 94.2509 205.424 94.5636 205.635 94.7673C205.846 94.9709 206.158 95.0727 206.573 95.0727C206.849 95.0727 207.108 95.0545 207.348 95.0182C207.588 94.9745 207.817 94.92 208.035 94.8545L208.253 95.8473C208.006 95.92 207.74 95.9782 207.457 96.0218C207.18 96.0727 206.864 96.0982 206.508 96.0982ZM213.068 96.1091C212.188 96.1091 211.512 95.8982 211.039 95.4764C210.574 95.0473 210.341 94.4327 210.341 93.6327V91.8655C210.341 91.0582 210.577 90.4364 211.05 90C211.523 89.5636 212.199 89.3455 213.079 89.3455C213.952 89.3455 214.621 89.5636 215.086 90C215.559 90.4364 215.795 91.0582 215.795 91.8655V93.6327C215.795 94.4327 215.559 95.0473 215.086 95.4764C214.621 95.8982 213.948 96.1091 213.068 96.1091ZM213.068 95.1273C213.621 95.1273 214.032 95.0036 214.301 94.7564C214.57 94.5091 214.705 94.1345 214.705 93.6327V91.8655C214.705 91.3418 214.57 90.9564 214.301 90.7091C214.032 90.4545 213.621 90.3273 213.068 90.3273C212.515 90.3273 212.105 90.4545 211.835 90.7091C211.566 90.9564 211.432 91.3418 211.432 91.8655V93.6327C211.432 94.1345 211.566 94.5091 211.835 94.7564C212.105 95.0036 212.515 95.1273 213.068 95.1273ZM229.517 96L226.604 88.6473V96H225.622V87.2727H227.117L230.095 94.7891V87.2727H231.077V96H229.517ZM235.99 96.1091C235.11 96.1091 234.434 95.8982 233.961 95.4764C233.496 95.0473 233.263 94.4327 233.263 93.6327V91.8655C233.263 91.0582 233.499 90.4364 233.972 90C234.445 89.5636 235.121 89.3455 236.001 89.3455C236.874 89.3455 237.543 89.5636 238.008 90C238.481 90.4364 238.717 91.0582 238.717 91.8655V93.6327C238.717 94.4327 238.481 95.0473 238.008 95.4764C237.543 95.8982 236.87 96.1091 235.99 96.1091ZM235.99 95.1273C236.543 95.1273 236.954 95.0036 237.223 94.7564C237.492 94.5091 237.626 94.1345 237.626 93.6327V91.8655C237.626 91.3418 237.492 90.9564 237.223 90.7091C236.954 90.4545 236.543 90.3273 235.99 90.3273C235.437 90.3273 235.026 90.4545 234.757 90.7091C234.488 90.9564 234.354 91.3418 234.354 91.8655V93.6327C234.354 94.1345 234.488 94.5091 234.757 94.7564C235.026 95.0036 235.437 95.1273 235.99 95.1273ZM244.711 96.0982C243.991 96.0982 243.431 95.92 243.031 95.5636C242.631 95.2073 242.431 94.6618 242.431 93.9273V90.4364H240.576V89.4545H242.431V87.2727H243.522V89.4545H246.358V90.4364H243.522V93.8291C243.522 94.2509 243.627 94.5636 243.838 94.7673C244.049 94.9709 244.362 95.0727 244.776 95.0727C245.052 95.0727 245.311 95.0545 245.551 95.0182C245.791 94.9745 246.02 94.92 246.238 94.8545L246.456 95.8473C246.209 95.92 245.943 95.9782 245.66 96.0218C245.383 96.0727 245.067 96.0982 244.711 96.0982ZM254.02 94.56C253.824 95.1055 253.526 95.5018 253.126 95.7491C252.726 95.9891 252.111 96.1091 251.282 96.1091C250.417 96.1091 249.744 95.9018 249.264 95.4873C248.784 95.0655 248.544 94.4436 248.544 93.6218V91.8655C248.544 91.0218 248.795 90.3927 249.297 89.9782C249.806 89.5564 250.468 89.3455 251.282 89.3455C252.104 89.3455 252.762 89.56 253.257 89.9891C253.751 90.4109 253.999 91.0618 253.999 91.9418V92.9455H249.635V93.6327C249.635 94.1782 249.769 94.5745 250.039 94.8218C250.315 95.0618 250.726 95.1818 251.271 95.1818C251.795 95.1818 252.177 95.1091 252.417 94.9636C252.657 94.8182 252.839 94.5818 252.962 94.2545L254.02 94.56ZM249.635 91.8655V92.1273H252.908V91.9636C252.908 91.3745 252.769 90.9455 252.493 90.6764C252.224 90.4073 251.817 90.2727 251.271 90.2727C250.726 90.2727 250.315 90.4036 250.039 90.6655C249.769 90.92 249.635 91.32 249.635 91.8655ZM258.825 96.1091C258.388 96.1091 257.937 96.0436 257.472 95.9127C257.006 95.7818 256.577 95.5927 256.185 95.3455V87.2727H257.276V90.5455H257.603C257.792 90.1673 258.054 89.8727 258.388 89.6618C258.723 89.4509 259.097 89.3455 259.512 89.3455C260.188 89.3455 260.712 89.5636 261.083 90C261.454 90.4364 261.639 91.0473 261.639 91.8327V93.6109C261.639 94.4036 261.392 95.0182 260.897 95.4545C260.403 95.8909 259.712 96.1091 258.825 96.1091ZM258.814 95.1491C259.403 95.1491 259.839 95.0218 260.123 94.7673C260.406 94.5055 260.548 94.1127 260.548 93.5891V91.8436C260.548 91.3491 260.439 90.9818 260.221 90.7418C260.003 90.5018 259.676 90.3818 259.239 90.3818C258.883 90.3818 258.545 90.4764 258.225 90.6655C257.905 90.8545 257.588 91.1418 257.276 91.5273V94.7345C257.508 94.8727 257.748 94.9782 257.996 95.0509C258.25 95.1164 258.523 95.1491 258.814 95.1491ZM266.553 96.1091C265.673 96.1091 264.996 95.8982 264.523 95.4764C264.058 95.0473 263.825 94.4327 263.825 93.6327V91.8655C263.825 91.0582 264.062 90.4364 264.534 90C265.007 89.5636 265.683 89.3455 266.563 89.3455C267.436 89.3455 268.105 89.5636 268.571 90C269.043 90.4364 269.28 91.0582 269.28 91.8655V93.6327C269.28 94.4327 269.043 95.0473 268.571 95.4764C268.105 95.8982 267.433 96.1091 266.553 96.1091ZM266.553 95.1273C267.105 95.1273 267.516 95.0036 267.785 94.7564C268.054 94.5091 268.189 94.1345 268.189 93.6327V91.8655C268.189 91.3418 268.054 90.9564 267.785 90.7091C267.516 90.4545 267.105 90.3273 266.553 90.3273C266 90.3273 265.589 90.4545 265.32 90.7091C265.051 90.9564 264.916 91.3418 264.916 91.8655V93.6327C264.916 94.1345 265.051 94.5091 265.32 94.7564C265.589 95.0036 266 95.1273 266.553 95.1273ZM274.193 96.1091C273.313 96.1091 272.637 95.8982 272.164 95.4764C271.699 95.0473 271.466 94.4327 271.466 93.6327V91.8655C271.466 91.0582 271.702 90.4364 272.175 90C272.648 89.5636 273.324 89.3455 274.204 89.3455C275.077 89.3455 275.746 89.5636 276.211 90C276.684 90.4364 276.92 91.0582 276.92 91.8655V93.6327C276.92 94.4327 276.684 95.0473 276.211 95.4764C275.746 95.8982 275.073 96.1091 274.193 96.1091ZM274.193 95.1273C274.746 95.1273 275.157 95.0036 275.426 94.7564C275.695 94.5091 275.83 94.1345 275.83 93.6327V91.8655C275.83 91.3418 275.695 90.9564 275.426 90.7091C275.157 90.4545 274.746 90.3273 274.193 90.3273C273.64 90.3273 273.23 90.4545 272.96 90.7091C272.691 90.9564 272.557 91.3418 272.557 91.8655V93.6327C272.557 94.1345 272.691 94.5091 272.96 94.7564C273.23 95.0036 273.64 95.1273 274.193 95.1273ZM280.743 93.0218V96H279.652V87.2727H280.743V92.1055H281.299L283.394 89.4545H284.725L282.161 92.4982L284.692 96H283.448L281.299 93.0218H280.743ZM289.562 96.1091C289.009 96.1091 288.474 96.0291 287.958 95.8691C287.442 95.7018 286.965 95.4473 286.529 95.1055L287.02 94.2436C287.376 94.5345 287.773 94.7564 288.209 94.9091C288.653 95.0545 289.104 95.1273 289.562 95.1273C289.94 95.1273 290.3 95.0691 290.642 94.9527C290.991 94.8364 291.165 94.5891 291.165 94.2109C291.165 93.8982 291.024 93.6764 290.74 93.5455C290.456 93.4145 289.936 93.3018 289.18 93.2073C288.38 93.1127 287.773 92.9273 287.358 92.6509C286.951 92.3673 286.747 91.9236 286.747 91.32C286.747 90.6655 286.994 90.1745 287.489 89.8473C287.984 89.5127 288.558 89.3455 289.213 89.3455C289.729 89.3455 290.224 89.4327 290.696 89.6073C291.176 89.7818 291.62 90.0291 292.027 90.3491L291.536 91.2109C291.202 90.9418 290.838 90.7273 290.445 90.5673C290.053 90.4073 289.642 90.3273 289.213 90.3273C288.864 90.3273 288.544 90.3927 288.253 90.5236C287.969 90.6545 287.827 90.8945 287.827 91.2436C287.827 91.5418 287.958 91.76 288.22 91.8982C288.489 92.0291 289.002 92.1418 289.758 92.2364C290.587 92.3309 291.209 92.5345 291.624 92.8473C292.038 93.1527 292.245 93.5818 292.245 94.1345C292.245 94.8182 291.969 95.32 291.416 95.64C290.864 95.9527 290.245 96.1091 289.562 96.1091ZM302.028 96V95.0182H304.21V90.4364H302.028V89.4545H305.301V95.0182H307.483V96H302.028ZM304.756 88.2545C304.479 88.2545 304.254 88.2109 304.079 88.1236C303.912 88.0364 303.828 87.8727 303.828 87.6327V87.5564C303.828 87.3091 303.912 87.1418 304.079 87.0545C304.254 86.96 304.479 86.9127 304.756 86.9127C305.032 86.9127 305.254 86.96 305.421 87.0545C305.596 87.1418 305.683 87.3091 305.683 87.5564V87.6327C305.683 87.8727 305.596 88.0364 305.421 88.1236C305.247 88.2109 305.025 88.2545 304.756 88.2545ZM309.669 96V89.4545H310.76V90.5455H311.087C311.247 90.1745 311.498 89.8836 311.84 89.6727C312.182 89.4545 312.571 89.3455 313.007 89.3455C313.662 89.3455 314.178 89.5455 314.556 89.9455C314.934 90.3455 315.124 90.8909 315.124 91.5818V96H314.033V91.8C314.033 91.3418 313.92 90.9927 313.694 90.7527C313.476 90.5055 313.16 90.3818 312.745 90.3818C312.418 90.3818 312.084 90.48 311.742 90.6764C311.407 90.8727 311.08 91.1564 310.76 91.5273V96H309.669ZM328.256 96H327.11L324.296 87.2727H325.474L327.699 94.6145L329.925 87.2727H331.07L328.256 96ZM335.46 96.0655C334.805 96.0655 334.195 95.96 333.627 95.7491C333.06 95.5382 332.551 95.1527 332.1 94.5927L332.885 93.8509C333.191 94.2655 333.555 94.5745 333.976 94.7782C334.405 94.9818 334.911 95.0836 335.493 95.0836C336.031 95.0836 336.464 94.96 336.791 94.7127C337.125 94.4582 337.293 94.1164 337.293 93.6873C337.293 93.2727 337.151 92.9564 336.867 92.7382C336.584 92.5127 336.024 92.2764 335.187 92.0291C334.125 91.7236 333.402 91.3927 333.016 91.0364C332.631 90.68 332.438 90.1745 332.438 89.52C332.438 88.7636 332.689 88.1927 333.191 87.8073C333.7 87.4218 334.315 87.2291 335.035 87.2291C335.645 87.2291 336.224 87.3382 336.769 87.5564C337.322 87.7673 337.809 88.1455 338.231 88.6909L337.478 89.4436C337.187 89.0291 336.824 88.72 336.387 88.5164C335.951 88.3127 335.507 88.2109 335.056 88.2109C334.598 88.2109 334.231 88.3055 333.955 88.4945C333.678 88.6764 333.54 88.9855 333.54 89.4218C333.54 89.8073 333.689 90.1127 333.987 90.3382C334.293 90.5564 334.889 90.7927 335.776 91.0473C336.78 91.3382 337.464 91.6582 337.827 92.0073C338.198 92.3491 338.384 92.8473 338.384 93.5018C338.384 94.3382 338.085 94.9745 337.489 95.4109C336.893 95.8473 336.216 96.0655 335.46 96.0655ZM350.709 96.1091C349.69 96.1091 348.927 95.8509 348.418 95.3345C347.909 94.8109 347.654 94.0255 347.654 92.9782V90.3382C347.654 89.2764 347.909 88.4836 348.418 87.96C348.927 87.4291 349.694 87.1636 350.719 87.1636C351.723 87.1636 352.465 87.4 352.945 87.8727C353.432 88.3382 353.705 89.0873 353.763 90.12L352.672 90.2291C352.599 89.4436 352.421 88.9018 352.138 88.6036C351.861 88.2982 351.385 88.1455 350.709 88.1455C349.989 88.1455 349.479 88.3127 349.181 88.6473C348.89 88.9745 348.745 89.5382 348.745 90.3382V92.9782C348.745 93.7636 348.89 94.32 349.181 94.6473C349.479 94.9673 349.989 95.1273 350.709 95.1273C351.385 95.1273 351.861 94.9818 352.138 94.6909C352.421 94.3927 352.599 93.8582 352.672 93.0873L353.763 93.1964C353.705 94.2145 353.432 94.9564 352.945 95.4218C352.465 95.88 351.719 96.1091 350.709 96.1091ZM358.24 96.1091C357.36 96.1091 356.684 95.8982 356.211 95.4764C355.746 95.0473 355.513 94.4327 355.513 93.6327V91.8655C355.513 91.0582 355.749 90.4364 356.222 90C356.695 89.5636 357.371 89.3455 358.251 89.3455C359.124 89.3455 359.793 89.5636 360.258 90C360.731 90.4364 360.967 91.0582 360.967 91.8655V93.6327C360.967 94.4327 360.731 95.0473 360.258 95.4764C359.793 95.8982 359.12 96.1091 358.24 96.1091ZM358.24 95.1273C358.793 95.1273 359.204 95.0036 359.473 94.7564C359.742 94.5091 359.876 94.1345 359.876 93.6327V91.8655C359.876 91.3418 359.742 90.9564 359.473 90.7091C359.204 90.4545 358.793 90.3273 358.24 90.3273C357.687 90.3273 357.276 90.4545 357.007 90.7091C356.738 90.9564 356.604 91.3418 356.604 91.8655V93.6327C356.604 94.1345 356.738 94.5091 357.007 94.7564C357.276 95.0036 357.687 95.1273 358.24 95.1273ZM365.553 95.0727C365.91 95.0727 366.248 94.9782 366.568 94.7891C366.888 94.6 367.204 94.3127 367.517 93.9273V90.72C367.292 90.5818 367.052 90.48 366.797 90.4145C366.543 90.3418 366.27 90.3055 365.979 90.3055C365.39 90.3055 364.953 90.4364 364.67 90.6982C364.386 90.9527 364.244 91.3418 364.244 91.8655V93.6218C364.244 94.1091 364.353 94.4727 364.572 94.7127C364.79 94.9527 365.117 95.0727 365.553 95.0727ZM367.19 94.9091C367.001 95.2873 366.739 95.5818 366.404 95.7927C366.07 96.0036 365.695 96.1091 365.281 96.1091C364.604 96.1091 364.081 95.8909 363.71 95.4545C363.339 95.0182 363.153 94.4073 363.153 93.6218V91.8436C363.153 91.0509 363.401 90.4364 363.895 90C364.39 89.5636 365.081 89.3455 365.968 89.3455C366.223 89.3455 366.484 89.3745 366.753 89.4327C367.023 89.4836 367.277 89.5564 367.517 89.6509V87.2727H368.608V96H367.517V94.9091H367.19ZM376.27 94.56C376.074 95.1055 375.776 95.5018 375.376 95.7491C374.976 95.9891 374.361 96.1091 373.532 96.1091C372.667 96.1091 371.994 95.9018 371.514 95.4873C371.034 95.0655 370.794 94.4436 370.794 93.6218V91.8655C370.794 91.0218 371.045 90.3927 371.547 89.9782C372.056 89.5564 372.718 89.3455 373.532 89.3455C374.354 89.3455 375.012 89.56 375.507 89.9891C376.001 90.4109 376.249 91.0618 376.249 91.9418V92.9455H371.885V93.6327C371.885 94.1782 372.019 94.5745 372.289 94.8218C372.565 95.0618 372.976 95.1818 373.521 95.1818C374.045 95.1818 374.427 95.1091 374.667 94.9636C374.907 94.8182 375.089 94.5818 375.212 94.2545L376.27 94.56ZM371.885 91.8655V92.1273H375.158V91.9636C375.158 91.3745 375.019 90.9455 374.743 90.6764C374.474 90.4073 374.067 90.2727 373.521 90.2727C372.976 90.2727 372.565 90.4036 372.289 90.6655C372.019 90.92 371.885 91.32 371.885 91.8655ZM380.726 92.7273L380.398 87.2727H381.926L381.598 92.7273H380.726ZM381.173 96.1091C380.809 96.1091 380.54 96.0364 380.366 95.8909C380.198 95.7382 380.115 95.5055 380.115 95.1927V94.8873C380.115 94.5673 380.198 94.3309 380.366 94.1782C380.54 94.0255 380.809 93.9491 381.173 93.9491C381.536 93.9491 381.802 94.0255 381.969 94.1782C382.136 94.3309 382.22 94.5673 382.22 94.8873V95.1927C382.22 95.5055 382.133 95.7382 381.958 95.8909C381.791 96.0364 381.529 96.1091 381.173 96.1091ZM389.893 91.6364L389.566 87.2727H391.312L390.984 91.6364H389.893ZM386.621 91.6364L386.293 87.2727H388.039L387.712 91.6364H386.621Z" fill="var(--vscode-debugTokenExpression-string, #CE9178)" />
    <path d="M90.72 113.149C91.3309 113.149 91.7709 113.025 92.04 112.778C92.3164 112.531 92.4545 112.135 92.4545 111.589V109.822C92.4545 109.32 92.3491 108.956 92.1382 108.731C91.9345 108.498 91.6036 108.382 91.1455 108.382C90.7818 108.382 90.4436 108.473 90.1309 108.655C89.8182 108.836 89.5018 109.127 89.1818 109.527V112.735C89.4073 112.873 89.64 112.978 89.88 113.051C90.1273 113.116 90.4073 113.149 90.72 113.149ZM90.7309 114.109C90.4836 114.109 90.2218 114.08 89.9455 114.022C89.6764 113.971 89.4218 113.898 89.1818 113.804V116.182H88.0909V107.455H89.1818V108.545H89.5091C89.6909 108.175 89.9527 107.884 90.2945 107.673C90.6436 107.455 91.0182 107.345 91.4182 107.345C92.0727 107.345 92.5891 107.571 92.9673 108.022C93.3527 108.465 93.5455 109.069 93.5455 109.833V111.611C93.5455 112.382 93.2909 112.993 92.7818 113.444C92.28 113.887 91.5964 114.109 90.7309 114.109ZM96.277 114V107.455H97.3679V108.545H97.6952C97.8479 108.131 98.0806 107.829 98.3934 107.64C98.7061 107.444 99.0843 107.345 99.5279 107.345C100.015 107.345 100.422 107.509 100.75 107.836C101.077 108.156 101.241 108.611 101.241 109.2V110.182H100.204V109.593C100.204 109.178 100.11 108.873 99.9206 108.676C99.7388 108.48 99.4588 108.382 99.0806 108.382C98.7388 108.382 98.4261 108.465 98.1424 108.633C97.8661 108.8 97.6079 109.062 97.3679 109.418V114H96.277ZM103.372 114V113.018H105.554V108.436H103.372V107.455H106.645V113.018H108.827V114H103.372ZM106.099 106.255C105.823 106.255 105.598 106.211 105.423 106.124C105.256 106.036 105.172 105.873 105.172 105.633V105.556C105.172 105.309 105.256 105.142 105.423 105.055C105.598 104.96 105.823 104.913 106.099 104.913C106.376 104.913 106.598 104.96 106.765 105.055C106.939 105.142 107.027 105.309 107.027 105.556V105.633C107.027 105.873 106.939 106.036 106.765 106.124C106.59 106.211 106.369 106.255 106.099 106.255ZM111.013 114V107.455H112.104V108.545H112.431C112.591 108.175 112.842 107.884 113.184 107.673C113.526 107.455 113.915 107.345 114.351 107.345C115.006 107.345 115.522 107.545 115.9 107.945C116.278 108.345 116.467 108.891 116.467 109.582V114H115.376V109.8C115.376 109.342 115.264 108.993 115.038 108.753C114.82 108.505 114.504 108.382 114.089 108.382C113.762 108.382 113.427 108.48 113.086 108.676C112.751 108.873 112.424 109.156 112.104 109.527V114H111.013ZM122.461 114.098C121.741 114.098 121.181 113.92 120.781 113.564C120.381 113.207 120.181 112.662 120.181 111.927V108.436H118.326V107.455H120.181V105.273H121.272V107.455H124.108V108.436H121.272V111.829C121.272 112.251 121.377 112.564 121.588 112.767C121.799 112.971 122.112 113.073 122.526 113.073C122.802 113.073 123.061 113.055 123.301 113.018C123.541 112.975 123.77 112.92 123.988 112.855L124.206 113.847C123.959 113.92 123.693 113.978 123.41 114.022C123.133 114.073 122.817 114.098 122.461 114.098Z" fill="var(--vscode-debugConsole-warningForeground, #DCDCAA)" />
    <path d="M80.1055 156L78.8182 150.796L77.5309 156H76.44L75.2618 147.273H76.3418L77.1273 154.396L78.2727 149.455H79.4182L80.5636 154.396L81.3491 147.273H82.3745L81.1964 156H80.1055ZM89.2079 154.56C89.0115 155.105 88.7134 155.502 88.3134 155.749C87.9134 155.989 87.2988 156.109 86.4697 156.109C85.6043 156.109 84.9315 155.902 84.4515 155.487C83.9715 155.065 83.7315 154.444 83.7315 153.622V151.865C83.7315 151.022 83.9824 150.393 84.4843 149.978C84.9934 149.556 85.6552 149.345 86.4697 149.345C87.2915 149.345 87.9497 149.56 88.4443 149.989C88.9388 150.411 89.1861 151.062 89.1861 151.942V152.945H84.8224V153.633C84.8224 154.178 84.957 154.575 85.2261 154.822C85.5024 155.062 85.9134 155.182 86.4588 155.182C86.9824 155.182 87.3643 155.109 87.6043 154.964C87.8443 154.818 88.0261 154.582 88.1497 154.255L89.2079 154.56ZM84.8224 151.865V152.127H88.0952V151.964C88.0952 151.375 87.957 150.945 87.6806 150.676C87.4115 150.407 87.0043 150.273 86.4588 150.273C85.9134 150.273 85.5024 150.404 85.2261 150.665C84.957 150.92 84.8224 151.32 84.8224 151.865ZM91.3722 156V155.018H93.554V148.255H91.3722V147.273H94.6449V155.018H96.8267V156H91.3722ZM101.893 156.109C100.94 156.109 100.22 155.902 99.7328 155.487C99.2528 155.065 99.0128 154.447 99.0128 153.633V151.865C99.0128 151.036 99.2528 150.411 99.7328 149.989C100.22 149.56 100.936 149.345 101.882 149.345C102.726 149.345 103.373 149.538 103.824 149.924C104.282 150.302 104.536 150.858 104.587 151.593L103.518 151.658C103.489 151.207 103.34 150.873 103.071 150.655C102.802 150.436 102.402 150.327 101.871 150.327C101.275 150.327 100.831 150.455 100.54 150.709C100.249 150.956 100.104 151.342 100.104 151.865V153.633C100.104 154.135 100.249 154.509 100.54 154.756C100.838 155.004 101.289 155.127 101.893 155.127C102.416 155.127 102.813 155.036 103.082 154.855C103.351 154.665 103.496 154.385 103.518 154.015L104.587 154.08C104.536 154.749 104.286 155.255 103.835 155.596C103.384 155.938 102.736 156.109 101.893 156.109ZM109.381 156.109C108.501 156.109 107.824 155.898 107.352 155.476C106.886 155.047 106.653 154.433 106.653 153.633V151.865C106.653 151.058 106.89 150.436 107.363 150C107.835 149.564 108.512 149.345 109.392 149.345C110.264 149.345 110.933 149.564 111.399 150C111.872 150.436 112.108 151.058 112.108 151.865V153.633C112.108 154.433 111.872 155.047 111.399 155.476C110.933 155.898 110.261 156.109 109.381 156.109ZM109.381 155.127C109.933 155.127 110.344 155.004 110.613 154.756C110.883 154.509 111.017 154.135 111.017 153.633V151.865C111.017 151.342 110.883 150.956 110.613 150.709C110.344 150.455 109.933 150.327 109.381 150.327C108.828 150.327 108.417 150.455 108.148 150.709C107.879 150.956 107.744 151.342 107.744 151.865V153.633C107.744 154.135 107.879 154.509 108.148 154.756C108.417 155.004 108.828 155.127 109.381 155.127ZM114.861 151.309V156H113.858V149.455H114.861V150.327H115.079C115.218 150.022 115.399 149.782 115.625 149.607C115.85 149.433 116.087 149.345 116.334 149.345C116.618 149.345 116.854 149.433 117.043 149.607C117.239 149.775 117.374 150.015 117.447 150.327H117.687C117.825 150.022 118.01 149.782 118.243 149.607C118.483 149.433 118.738 149.345 119.007 149.345C119.37 149.345 119.658 149.495 119.869 149.793C120.079 150.084 120.185 150.48 120.185 150.982V156H119.181V151.156C119.181 150.829 119.138 150.582 119.05 150.415C118.963 150.247 118.836 150.164 118.669 150.164C118.53 150.164 118.356 150.265 118.145 150.469C117.941 150.673 117.734 150.953 117.523 151.309V156H116.519V151.156C116.519 150.829 116.472 150.582 116.378 150.415C116.29 150.247 116.163 150.164 115.996 150.164C115.85 150.164 115.679 150.262 115.483 150.458C115.294 150.655 115.087 150.938 114.861 151.309ZM127.411 154.56C127.215 155.105 126.916 155.502 126.516 155.749C126.116 155.989 125.502 156.109 124.673 156.109C123.807 156.109 123.135 155.902 122.655 155.487C122.175 155.065 121.935 154.444 121.935 153.622V151.865C121.935 151.022 122.186 150.393 122.687 149.978C123.196 149.556 123.858 149.345 124.673 149.345C125.495 149.345 126.153 149.56 126.647 149.989C127.142 150.411 127.389 151.062 127.389 151.942V152.945H123.026V153.633C123.026 154.178 123.16 154.575 123.429 154.822C123.706 155.062 124.116 155.182 124.662 155.182C125.186 155.182 125.567 155.109 125.807 154.964C126.047 154.818 126.229 154.582 126.353 154.255L127.411 154.56ZM123.026 151.865V152.127H126.298V151.964C126.298 151.375 126.16 150.945 125.884 150.676C125.615 150.407 125.207 150.273 124.662 150.273C124.116 150.273 123.706 150.404 123.429 150.665C123.16 150.92 123.026 151.32 123.026 151.865ZM141.023 156.098C140.303 156.098 139.743 155.92 139.343 155.564C138.943 155.207 138.743 154.662 138.743 153.927V150.436H136.889V149.455H138.743V147.273H139.834V149.455H142.67V150.436H139.834V153.829C139.834 154.251 139.94 154.564 140.15 154.767C140.361 154.971 140.674 155.073 141.089 155.073C141.365 155.073 141.623 155.055 141.863 155.018C142.103 154.975 142.332 154.92 142.55 154.855L142.769 155.847C142.521 155.92 142.256 155.978 141.972 156.022C141.696 156.073 141.38 156.098 141.023 156.098ZM147.584 156.109C146.704 156.109 146.027 155.898 145.555 155.476C145.089 155.047 144.857 154.433 144.857 153.633V151.865C144.857 151.058 145.093 150.436 145.566 150C146.038 149.564 146.715 149.345 147.595 149.345C148.467 149.345 149.137 149.564 149.602 150C150.075 150.436 150.311 151.058 150.311 151.865V153.633C150.311 154.433 150.075 155.047 149.602 155.476C149.137 155.898 148.464 156.109 147.584 156.109ZM147.584 155.127C148.137 155.127 148.547 155.004 148.817 154.756C149.086 154.509 149.22 154.135 149.22 153.633V151.865C149.22 151.342 149.086 150.956 148.817 150.709C148.547 150.455 148.137 150.327 147.584 150.327C147.031 150.327 146.62 150.455 146.351 150.709C146.082 150.956 145.947 151.342 145.947 151.865V153.633C145.947 154.135 146.082 154.509 146.351 154.756C146.62 155.004 147.031 155.127 147.584 155.127ZM164.032 156L161.12 148.647V156H160.138V147.273H161.632L164.611 154.789V147.273H165.592V156H164.032ZM170.506 156.109C169.626 156.109 168.949 155.898 168.477 155.476C168.011 155.047 167.778 154.433 167.778 153.633V151.865C167.778 151.058 168.015 150.436 168.488 150C168.96 149.564 169.637 149.345 170.517 149.345C171.389 149.345 172.058 149.564 172.524 150C172.997 150.436 173.233 151.058 173.233 151.865V153.633C173.233 154.433 172.997 155.047 172.524 155.476C172.058 155.898 171.386 156.109 170.506 156.109ZM170.506 155.127C171.058 155.127 171.469 155.004 171.738 154.756C172.008 154.509 172.142 154.135 172.142 153.633V151.865C172.142 151.342 172.008 150.956 171.738 150.709C171.469 150.455 171.058 150.327 170.506 150.327C169.953 150.327 169.542 150.455 169.273 150.709C169.004 150.956 168.869 151.342 168.869 151.865V153.633C168.869 154.135 169.004 154.509 169.273 154.756C169.542 155.004 169.953 155.127 170.506 155.127ZM179.226 156.098C178.506 156.098 177.946 155.92 177.546 155.564C177.146 155.207 176.946 154.662 176.946 153.927V150.436H175.092V149.455H176.946V147.273H178.037V149.455H180.874V150.436H178.037V153.829C178.037 154.251 178.143 154.564 178.354 154.767C178.564 154.971 178.877 155.073 179.292 155.073C179.568 155.073 179.826 155.055 180.066 155.018C180.306 154.975 180.535 154.92 180.754 154.855L180.972 155.847C180.724 155.92 180.459 155.978 180.175 156.022C179.899 156.073 179.583 156.098 179.226 156.098ZM188.536 154.56C188.34 155.105 188.041 155.502 187.641 155.749C187.241 155.989 186.627 156.109 185.798 156.109C184.932 156.109 184.26 155.902 183.78 155.487C183.3 155.065 183.06 154.444 183.06 153.622V151.865C183.06 151.022 183.311 150.393 183.812 149.978C184.321 149.556 184.983 149.345 185.798 149.345C186.62 149.345 187.278 149.56 187.772 149.989C188.267 150.411 188.514 151.062 188.514 151.942V152.945H184.151V153.633C184.151 154.178 184.285 154.575 184.554 154.822C184.831 155.062 185.241 155.182 185.787 155.182C186.311 155.182 186.692 155.109 186.932 154.964C187.172 154.818 187.354 154.582 187.478 154.255L188.536 154.56ZM184.151 151.865V152.127H187.423V151.964C187.423 151.375 187.285 150.945 187.009 150.676C186.74 150.407 186.332 150.273 185.787 150.273C185.241 150.273 184.831 150.404 184.554 150.665C184.285 150.92 184.151 151.32 184.151 151.865ZM193.34 156.109C192.904 156.109 192.453 156.044 191.988 155.913C191.522 155.782 191.093 155.593 190.7 155.345V147.273H191.791V150.545H192.118C192.308 150.167 192.569 149.873 192.904 149.662C193.238 149.451 193.613 149.345 194.028 149.345C194.704 149.345 195.228 149.564 195.598 150C195.969 150.436 196.155 151.047 196.155 151.833V153.611C196.155 154.404 195.908 155.018 195.413 155.455C194.918 155.891 194.228 156.109 193.34 156.109ZM193.329 155.149C193.918 155.149 194.355 155.022 194.638 154.767C194.922 154.505 195.064 154.113 195.064 153.589V151.844C195.064 151.349 194.955 150.982 194.737 150.742C194.518 150.502 194.191 150.382 193.755 150.382C193.398 150.382 193.06 150.476 192.74 150.665C192.42 150.855 192.104 151.142 191.791 151.527V154.735C192.024 154.873 192.264 154.978 192.511 155.051C192.766 155.116 193.038 155.149 193.329 155.149ZM201.068 156.109C200.188 156.109 199.512 155.898 199.039 155.476C198.574 155.047 198.341 154.433 198.341 153.633V151.865C198.341 151.058 198.577 150.436 199.05 150C199.523 149.564 200.199 149.345 201.079 149.345C201.952 149.345 202.621 149.564 203.086 150C203.559 150.436 203.795 151.058 203.795 151.865V153.633C203.795 154.433 203.559 155.047 203.086 155.476C202.621 155.898 201.948 156.109 201.068 156.109ZM201.068 155.127C201.621 155.127 202.032 155.004 202.301 154.756C202.57 154.509 202.705 154.135 202.705 153.633V151.865C202.705 151.342 202.57 150.956 202.301 150.709C202.032 150.455 201.621 150.327 201.068 150.327C200.515 150.327 200.105 150.455 199.835 150.709C199.566 150.956 199.432 151.342 199.432 151.865V153.633C199.432 154.135 199.566 154.509 199.835 154.756C200.105 155.004 200.515 155.127 201.068 155.127ZM208.709 156.109C207.829 156.109 207.152 155.898 206.68 155.476C206.214 155.047 205.982 154.433 205.982 153.633V151.865C205.982 151.058 206.218 150.436 206.691 150C207.163 149.564 207.84 149.345 208.72 149.345C209.592 149.345 210.262 149.564 210.727 150C211.2 150.436 211.436 151.058 211.436 151.865V153.633C211.436 154.433 211.2 155.047 210.727 155.476C210.262 155.898 209.589 156.109 208.709 156.109ZM208.709 155.127C209.262 155.127 209.672 155.004 209.942 154.756C210.211 154.509 210.345 154.135 210.345 153.633V151.865C210.345 151.342 210.211 150.956 209.942 150.709C209.672 150.455 209.262 150.327 208.709 150.327C208.156 150.327 207.745 150.455 207.476 150.709C207.207 150.956 207.072 151.342 207.072 151.865V153.633C207.072 154.135 207.207 154.509 207.476 154.756C207.745 155.004 208.156 155.127 208.709 155.127ZM215.259 153.022V156H214.168V147.273H215.259V152.105H215.815L217.909 149.455H219.24L216.677 152.498L219.208 156H217.964L215.815 153.022H215.259ZM224.077 156.109C223.525 156.109 222.99 156.029 222.474 155.869C221.957 155.702 221.481 155.447 221.045 155.105L221.536 154.244C221.892 154.535 222.288 154.756 222.725 154.909C223.168 155.055 223.619 155.127 224.077 155.127C224.456 155.127 224.816 155.069 225.157 154.953C225.506 154.836 225.681 154.589 225.681 154.211C225.681 153.898 225.539 153.676 225.256 153.545C224.972 153.415 224.452 153.302 223.696 153.207C222.896 153.113 222.288 152.927 221.874 152.651C221.466 152.367 221.263 151.924 221.263 151.32C221.263 150.665 221.51 150.175 222.005 149.847C222.499 149.513 223.074 149.345 223.728 149.345C224.245 149.345 224.739 149.433 225.212 149.607C225.692 149.782 226.136 150.029 226.543 150.349L226.052 151.211C225.717 150.942 225.354 150.727 224.961 150.567C224.568 150.407 224.157 150.327 223.728 150.327C223.379 150.327 223.059 150.393 222.768 150.524C222.485 150.655 222.343 150.895 222.343 151.244C222.343 151.542 222.474 151.76 222.736 151.898C223.005 152.029 223.517 152.142 224.274 152.236C225.103 152.331 225.725 152.535 226.139 152.847C226.554 153.153 226.761 153.582 226.761 154.135C226.761 154.818 226.485 155.32 225.932 155.64C225.379 155.953 224.761 156.109 224.077 156.109ZM236.544 156V155.018H238.726V150.436H236.544V149.455H239.817V155.018H241.999V156H236.544ZM239.271 148.255C238.995 148.255 238.769 148.211 238.595 148.124C238.428 148.036 238.344 147.873 238.344 147.633V147.556C238.344 147.309 238.428 147.142 238.595 147.055C238.769 146.96 238.995 146.913 239.271 146.913C239.548 146.913 239.769 146.96 239.937 147.055C240.111 147.142 240.199 147.309 240.199 147.556V147.633C240.199 147.873 240.111 148.036 239.937 148.124C239.762 148.211 239.54 148.255 239.271 148.255ZM244.185 156V149.455H245.276V150.545H245.603C245.763 150.175 246.014 149.884 246.356 149.673C246.697 149.455 247.086 149.345 247.523 149.345C248.177 149.345 248.694 149.545 249.072 149.945C249.45 150.345 249.639 150.891 249.639 151.582V156H248.548V151.8C248.548 151.342 248.436 150.993 248.21 150.753C247.992 150.505 247.676 150.382 247.261 150.382C246.934 150.382 246.599 150.48 246.257 150.676C245.923 150.873 245.596 151.156 245.276 151.527V156H244.185ZM262.771 156H261.626L258.811 147.273H259.99L262.215 154.615L264.44 147.273H265.586L262.771 156ZM269.976 156.065C269.321 156.065 268.71 155.96 268.143 155.749C267.576 155.538 267.067 155.153 266.616 154.593L267.401 153.851C267.707 154.265 268.07 154.575 268.492 154.778C268.921 154.982 269.427 155.084 270.008 155.084C270.547 155.084 270.979 154.96 271.307 154.713C271.641 154.458 271.808 154.116 271.808 153.687C271.808 153.273 271.667 152.956 271.383 152.738C271.099 152.513 270.539 152.276 269.703 152.029C268.641 151.724 267.917 151.393 267.532 151.036C267.147 150.68 266.954 150.175 266.954 149.52C266.954 148.764 267.205 148.193 267.707 147.807C268.216 147.422 268.83 147.229 269.55 147.229C270.161 147.229 270.739 147.338 271.285 147.556C271.837 147.767 272.325 148.145 272.747 148.691L271.994 149.444C271.703 149.029 271.339 148.72 270.903 148.516C270.467 148.313 270.023 148.211 269.572 148.211C269.114 148.211 268.747 148.305 268.47 148.495C268.194 148.676 268.056 148.985 268.056 149.422C268.056 149.807 268.205 150.113 268.503 150.338C268.808 150.556 269.405 150.793 270.292 151.047C271.296 151.338 271.979 151.658 272.343 152.007C272.714 152.349 272.899 152.847 272.899 153.502C272.899 154.338 272.601 154.975 272.005 155.411C271.408 155.847 270.732 156.065 269.976 156.065ZM285.224 156.109C284.206 156.109 283.442 155.851 282.933 155.335C282.424 154.811 282.17 154.025 282.17 152.978V150.338C282.17 149.276 282.424 148.484 282.933 147.96C283.442 147.429 284.21 147.164 285.235 147.164C286.239 147.164 286.981 147.4 287.461 147.873C287.948 148.338 288.221 149.087 288.279 150.12L287.188 150.229C287.115 149.444 286.937 148.902 286.653 148.604C286.377 148.298 285.901 148.145 285.224 148.145C284.504 148.145 283.995 148.313 283.697 148.647C283.406 148.975 283.261 149.538 283.261 150.338V152.978C283.261 153.764 283.406 154.32 283.697 154.647C283.995 154.967 284.504 155.127 285.224 155.127C285.901 155.127 286.377 154.982 286.653 154.691C286.937 154.393 287.115 153.858 287.188 153.087L288.279 153.196C288.221 154.215 287.948 154.956 287.461 155.422C286.981 155.88 286.235 156.109 285.224 156.109ZM292.756 156.109C291.876 156.109 291.199 155.898 290.727 155.476C290.261 155.047 290.028 154.433 290.028 153.633V151.865C290.028 151.058 290.265 150.436 290.738 150C291.21 149.564 291.887 149.345 292.767 149.345C293.639 149.345 294.308 149.564 294.774 150C295.247 150.436 295.483 151.058 295.483 151.865V153.633C295.483 154.433 295.247 155.047 294.774 155.476C294.308 155.898 293.636 156.109 292.756 156.109ZM292.756 155.127C293.308 155.127 293.719 155.004 293.988 154.756C294.258 154.509 294.392 154.135 294.392 153.633V151.865C294.392 151.342 294.258 150.956 293.988 150.709C293.719 150.455 293.308 150.327 292.756 150.327C292.203 150.327 291.792 150.455 291.523 150.709C291.254 150.956 291.119 151.342 291.119 151.865V153.633C291.119 154.135 291.254 154.509 291.523 154.756C291.792 155.004 292.203 155.127 292.756 155.127ZM300.069 155.073C300.425 155.073 300.764 154.978 301.084 154.789C301.404 154.6 301.72 154.313 302.033 153.927V150.72C301.807 150.582 301.567 150.48 301.313 150.415C301.058 150.342 300.785 150.305 300.494 150.305C299.905 150.305 299.469 150.436 299.185 150.698C298.902 150.953 298.76 151.342 298.76 151.865V153.622C298.76 154.109 298.869 154.473 299.087 154.713C299.305 154.953 299.633 155.073 300.069 155.073ZM301.705 154.909C301.516 155.287 301.254 155.582 300.92 155.793C300.585 156.004 300.211 156.109 299.796 156.109C299.12 156.109 298.596 155.891 298.225 155.455C297.854 155.018 297.669 154.407 297.669 153.622V151.844C297.669 151.051 297.916 150.436 298.411 150C298.905 149.564 299.596 149.345 300.484 149.345C300.738 149.345 301 149.375 301.269 149.433C301.538 149.484 301.793 149.556 302.033 149.651V147.273H303.124V156H302.033V154.909H301.705ZM310.786 154.56C310.59 155.105 310.291 155.502 309.891 155.749C309.491 155.989 308.877 156.109 308.048 156.109C307.182 156.109 306.51 155.902 306.03 155.487C305.55 155.065 305.31 154.444 305.31 153.622V151.865C305.31 151.022 305.561 150.393 306.062 149.978C306.571 149.556 307.233 149.345 308.048 149.345C308.87 149.345 309.528 149.56 310.022 149.989C310.517 150.411 310.764 151.062 310.764 151.942V152.945H306.401V153.633C306.401 154.178 306.535 154.575 306.804 154.822C307.081 155.062 307.491 155.182 308.037 155.182C308.561 155.182 308.942 155.109 309.182 154.964C309.422 154.818 309.604 154.582 309.728 154.255L310.786 154.56ZM306.401 151.865V152.127H309.673V151.964C309.673 151.375 309.535 150.945 309.259 150.676C308.99 150.407 308.582 150.273 308.037 150.273C307.491 150.273 307.081 150.404 306.804 150.665C306.535 150.92 306.401 151.32 306.401 151.865ZM315.241 152.727L314.914 147.273H316.441L316.114 152.727H315.241ZM315.688 156.109C315.325 156.109 315.056 156.036 314.881 155.891C314.714 155.738 314.63 155.505 314.63 155.193V154.887C314.63 154.567 314.714 154.331 314.881 154.178C315.056 154.025 315.325 153.949 315.688 153.949C316.052 153.949 316.318 154.025 316.485 154.178C316.652 154.331 316.736 154.567 316.736 154.887V155.193C316.736 155.505 316.648 155.738 316.474 155.891C316.307 156.036 316.045 156.109 315.688 156.109Z" fill="var(--vscode-foreground, #CCCCCC)" />
    <path d="M51.7166 128.818V119.727H54.8984V120.545H52.6257V128.109H54.8984V128.818H51.7166ZM57.4474 127V126.182H59.4474V120.818H59.1838C58.9777 121.182 58.7111 121.439 58.3838 121.591C58.0626 121.742 57.6899 121.782 57.2656 121.709L57.1747 120.818C57.6414 120.873 58.0687 120.809 58.4565 120.627C58.8444 120.439 59.1838 120.139 59.4747 119.727H60.3565V126.182H62.1747V127H57.4474ZM63.9964 128.818V128.109H66.2692V120.545H63.9964V119.727H67.1783V128.818H63.9964Z" fill="var(--vscode-foreground, #A0A0A0)" />
  </g>
  <defs>
    <filter id="filter0_d_30614476" x="0" y="29" width="566" height="158" filterUnits="userSpaceOnUse" color-interpolation-filters="sRGB">
      <feFlood flood-opacity="0" result="BackgroundImageFix" />
      <feColorMatrix in="SourceAlpha" type="matrix" values="0 0 0 0 0 0 0 0 0 0 0 0 0 0 0 0 0 0 127 0" result="hardAlpha" />
      <feOffset dy="2" />
      <feGaussianBlur stdDeviation="6" />
      <feColorMatrix type="matrix" values="0 0 0 0 0 0 0 0 0 0 0 0 0 0 0 0 0 0 0.6 0" />
      <feBlend mode="normal" in2="BackgroundImageFix" result="effect1_dropShadow_30614476" />
      <feBlend mode="normal" in="SourceGraphic" in2="effect1_dropShadow_30614476" result="shape" />
    </filter>
    <clipPath id="clip0_30614476">
      <rect width="136.145" height="39.2998" fill="var(--vscode-list-activeSelectionIconForeground, #FFFFFF)" transform="translate(32)" />
    </clipPath>
  </defs>
</svg>