<svg width="526" height="353" viewBox="0 0 526 353" fill="none" xmlns="http://www.w3.org/2000/svg">
  <g filter="url(#filter0_d_30214690)">
    <rect width="502" height="39" transform="translate(12 10)" fill="var(--vscode-editorGroupHeader-tabsBackground, #252526)" />
    <g clip-path="url(#clip0_30214690)">
      <rect width="114.931" height="39.2998" transform="translate(12 10)" fill="var(--vscode-tab-activeBackground, #1E1E1E)" />
      <path d="M35.2341 29.3299H33.9741C33.5341 29.3299 33.1808 29.4632 32.9141 29.7299C32.6608 29.9832 32.5341 30.3299 32.5341 30.7699V31.8899C32.5341 32.0232 32.4741 32.0899 32.3541 32.0899H31.7941C31.2075 32.0899 30.7875 31.8366 30.5341 31.3299C30.3341 30.9166 30.2341 30.5432 30.2341 30.2099C30.1541 29.3832 30.2141 28.6966 30.4141 28.1499C30.6275 27.5099 31.0208 27.1366 31.5941 27.0299H35.2141C35.3475 27.0299 35.4141 27.0099 35.4141 26.9699V26.6499L35.3341 26.6099C35.2808 26.5966 35.2475 26.5899 35.2341 26.5899H33.0941C33.0008 26.5899 32.9341 26.5699 32.8941 26.5299C32.8675 26.4899 32.8541 26.4232 32.8541 26.3299V25.5299C32.8541 25.0632 33.0408 24.7699 33.4141 24.6499C33.8275 24.4766 34.1408 24.3699 34.3541 24.3299C35.1541 24.1966 35.9008 24.2166 36.5941 24.3899C36.9408 24.4699 37.2341 24.5966 37.4741 24.7699C37.6208 24.9166 37.7208 25.0499 37.7741 25.1699C37.8541 25.3166 37.8808 25.4766 37.8541 25.6499V27.8899C37.8541 28.3299 37.7341 28.6699 37.4941 28.9099C37.2541 29.1499 36.9141 29.2699 36.4741 29.2699C36.1808 29.3099 35.7675 29.3299 35.2341 29.3299ZM33.4741 25.5899C33.4741 25.7232 33.5208 25.8432 33.6141 25.9499C33.7075 26.0432 33.8208 26.0899 33.9541 26.0899C34.0875 26.0899 34.2075 26.0366 34.3141 25.9299C34.4208 25.8232 34.4741 25.7099 34.4741 25.5899C34.4741 25.4699 34.4208 25.3632 34.3141 25.2699C34.2208 25.1766 34.1075 25.1166 33.9741 25.0899C33.8275 25.0899 33.7075 25.1432 33.6141 25.2499C33.5208 25.3432 33.4741 25.4566 33.4741 25.5899ZM35.7341 29.9699H36.9741C37.4141 29.9699 37.7608 29.8432 38.0141 29.5899C38.2808 29.3232 38.4141 28.9699 38.4141 28.5299V27.3899C38.4141 27.2699 38.4741 27.2099 38.5941 27.2099H39.1541C39.7408 27.2099 40.1608 27.4632 40.4141 27.9699C40.6275 28.3832 40.7341 28.7566 40.7341 29.0899C40.8008 29.9166 40.7341 30.6032 40.5341 31.1499C40.3208 31.7899 39.9275 32.1632 39.3541 32.2699H35.7341C35.6008 32.2699 35.5341 32.2899 35.5341 32.3299V32.6499L35.6141 32.6899C35.6675 32.7032 35.7075 32.7099 35.7341 32.7099H37.8541C37.9475 32.7099 38.0075 32.7299 38.0341 32.7699C38.0741 32.8099 38.0941 32.8766 38.0941 32.9699V33.7699C38.0941 34.2366 37.9075 34.5299 37.5341 34.6499C37.1208 34.8099 36.8075 34.9166 36.5941 34.9699C35.7941 35.1032 35.0475 35.0766 34.3541 34.8899C34.0075 34.8232 33.7141 34.7032 33.4741 34.5299C33.3275 34.3832 33.2275 34.2499 33.1741 34.1299C33.0941 33.9832 33.0675 33.8232 33.0941 33.6499V31.3899C33.0941 30.9632 33.2141 30.6299 33.4541 30.3899C33.6941 30.1499 34.0341 30.0299 34.4741 30.0299C34.7675 29.9899 35.1875 29.9699 35.7341 29.9699ZM37.4741 33.7099C37.4741 33.5766 37.4275 33.4632 37.3341 33.3699C37.2408 33.2632 37.1275 33.2099 36.9941 33.2099C36.8608 33.2099 36.7408 33.2632 36.6341 33.3699C36.5275 33.4766 36.4741 33.5899 36.4741 33.7099C36.4741 33.8299 36.5208 33.9366 36.6141 34.0299C36.7208 34.1232 36.8408 34.1832 36.9741 34.2099C37.1208 34.2099 37.2408 34.1632 37.3341 34.0699C37.4275 33.9632 37.4741 33.8432 37.4741 33.7099Z" fill="#519ABA" />
      <path d="M52.8667 34.7642C53.7744 34.7642 54.5298 34.3706 54.9424 33.6724H55.0503V34.6499H56.3643V29.9336C56.3643 28.4863 55.3867 27.623 53.6538 27.623C52.0859 27.623 50.9688 28.3784 50.8291 29.54H52.1494C52.3018 29.0386 52.8286 28.7529 53.5903 28.7529C54.5234 28.7529 55.0059 29.1782 55.0059 29.9336V30.5366L53.1333 30.6509C51.4893 30.7524 50.5625 31.4697 50.5625 32.7075C50.5625 33.9644 51.5337 34.7642 52.8667 34.7642ZM53.2158 33.666C52.4731 33.666 51.9336 33.2915 51.9336 32.6504C51.9336 32.022 52.3652 31.6855 53.3174 31.6221L55.0059 31.5078V32.1045C55.0059 32.9932 54.2441 33.666 53.2158 33.666ZM61.8931 27.6357C60.9536 27.6357 60.1411 28.1118 59.7222 28.8989H59.6206V27.7563H58.3066V36.9478H59.6714V33.6089H59.7793C60.1411 34.3389 60.9219 34.7642 61.9058 34.7642C63.6514 34.7642 64.7622 33.3804 64.7622 31.2031C64.7622 29.0132 63.6514 27.6357 61.8931 27.6357ZM61.5059 33.5962C60.3633 33.5962 59.646 32.6758 59.646 31.2031C59.646 29.7241 60.3633 28.8037 61.5122 28.8037C62.6675 28.8037 63.3594 29.7051 63.3594 31.2031C63.3594 32.7012 62.6675 33.5962 61.5059 33.5962ZM69.9927 27.6357C69.0532 27.6357 68.2407 28.1118 67.8218 28.8989H67.7202V27.7563H66.4062V36.9478H67.771V33.6089H67.8789C68.2407 34.3389 69.0215 34.7642 70.0054 34.7642C71.751 34.7642 72.8618 33.3804 72.8618 31.2031C72.8618 29.0132 71.751 27.6357 69.9927 27.6357ZM69.6055 33.5962C68.4629 33.5962 67.7456 32.6758 67.7456 31.2031C67.7456 29.7241 68.4629 28.8037 69.6118 28.8037C70.7671 28.8037 71.459 29.7051 71.459 31.2031C71.459 32.7012 70.7671 33.5962 69.6055 33.5962ZM75.4136 34.7451C75.9531 34.7451 76.3467 34.3452 76.3467 33.8311C76.3467 33.3169 75.9531 32.917 75.4136 32.917C74.8804 32.917 74.4805 33.3169 74.4805 33.8311C74.4805 34.3452 74.8804 34.7451 75.4136 34.7451ZM82.0405 27.6357C81.1011 27.6357 80.2886 28.1118 79.8696 28.8989H79.7681V27.7563H78.4541V36.9478H79.8188V33.6089H79.9268C80.2886 34.3389 81.0693 34.7642 82.0532 34.7642C83.7988 34.7642 84.9097 33.3804 84.9097 31.2031C84.9097 29.0132 83.7988 27.6357 82.0405 27.6357ZM81.6533 33.5962C80.5107 33.5962 79.7935 32.6758 79.7935 31.2031C79.7935 29.7241 80.5107 28.8037 81.6597 28.8037C82.8149 28.8037 83.5068 29.7051 83.5068 31.2031C83.5068 32.7012 82.8149 33.5962 81.6533 33.5962ZM86.9727 37.1509C88.3818 37.1509 89.0356 36.624 89.626 34.9673L92.2031 27.7563H90.7559L89.0293 33.2788H88.9214L87.1885 27.7563H85.7031L88.2041 34.6689L88.1025 35.0244C87.8677 35.7544 87.4995 36.0273 86.8521 36.0273C86.7251 36.0273 86.5156 36.021 86.4077 36.002V37.1191C86.5347 37.1382 86.8584 37.1509 86.9727 37.1509Z" fill="var(--vscode-tab-activeForeground, #FFFFFF)" />
      <path d="M105.457 30.3539L109.105 34.0019L109.809 33.2979L106.161 29.6499L109.809 26.0019L109.105 25.2979L105.457 28.9459L101.809 25.2979L101.105 26.0019L104.753 29.6499L101.105 33.2979L101.809 34.0019L105.457 30.3539Z" fill="var(--vscode-foreground, #CCCCCC)" />
    </g>
    <g clip-path="url(#clip1_30214690)">
      <g opacity="0.5" clip-path="url(#clip2_30214690)">
        <rect width="143.931" height="39.2998" transform="translate(264 10)" fill="var(--vscode-tab-inactiveBackground, #1E1E1E)" />
        <path d="M285.852 30.4099H294.092V31.4899H285.852V30.4099ZM285.852 27.7899H290.452V28.8899H285.852V27.7899ZM285.852 25.1899H294.092V26.2899H285.852V25.1899ZM285.852 33.0099H291.972V34.1099H285.852V33.0099Z" fill="#D4D7D6" />
        <path d="M309.537 34.6499V25.4902H308.115V34.6499H309.537ZM311.676 34.6499H313.041V30.6064C313.041 29.4956 313.682 28.8101 314.691 28.8101C315.7 28.8101 316.183 29.3687 316.183 30.5112V34.6499H317.547V30.1875C317.547 28.5435 316.697 27.623 315.154 27.623C314.113 27.623 313.428 28.0864 313.091 28.8481H312.99V27.7563H311.676V34.6499ZM319.953 26.0171V27.7754H318.855V28.8672H319.953V32.8345C319.953 34.1611 320.556 34.6943 322.073 34.6943C322.34 34.6943 322.594 34.6626 322.816 34.6245V33.5391C322.625 33.5581 322.505 33.5708 322.295 33.5708C321.616 33.5708 321.318 33.2471 321.318 32.5044V28.8672H322.816V27.7754H321.318V26.0171H319.953ZM328.878 32.8027C328.624 33.3613 328.059 33.666 327.234 33.666C326.142 33.666 325.438 32.8789 325.393 31.6284V31.5649H330.274V31.0952C330.274 28.937 329.113 27.623 327.189 27.623C325.241 27.623 324.003 29.0259 324.003 31.2158C324.003 33.4185 325.215 34.7832 327.196 34.7832C328.776 34.7832 329.894 34.0215 330.192 32.8027H328.878ZM327.183 28.7339C328.192 28.7339 328.853 29.4639 328.884 30.5811H325.393C325.469 29.4702 326.174 28.7339 327.183 28.7339ZM331.912 34.6499H333.277V30.5303C333.277 29.5591 334.007 28.8926 335.042 28.8926C335.283 28.8926 335.689 28.937 335.803 28.9688V27.6865C335.657 27.6548 335.397 27.6357 335.194 27.6357C334.292 27.6357 333.524 28.1245 333.328 28.8037H333.226V27.7563H331.912V34.6499ZM338.977 34.7642C339.885 34.7642 340.64 34.3706 341.053 33.6724H341.161V34.6499H342.475V29.9336C342.475 28.4863 341.497 27.623 339.764 27.623C338.196 27.623 337.079 28.3784 336.939 29.54H338.26C338.412 29.0386 338.939 28.7529 339.701 28.7529C340.634 28.7529 341.116 29.1782 341.116 29.9336V30.5366L339.244 30.6509C337.6 30.7524 336.673 31.4697 336.673 32.7075C336.673 33.9644 337.644 34.7642 338.977 34.7642ZM339.326 33.666C338.583 33.666 338.044 33.2915 338.044 32.6504C338.044 32.022 338.476 31.6855 339.428 31.6221L341.116 31.5078V32.1045C341.116 32.9932 340.354 33.666 339.326 33.666ZM350.27 29.9717C350.092 28.6323 349.044 27.623 347.312 27.623C345.299 27.623 344.074 28.9878 344.074 31.1777C344.074 33.4121 345.306 34.7832 347.318 34.7832C349.025 34.7832 350.092 33.8247 350.27 32.4663H348.943C348.765 33.2153 348.175 33.6216 347.312 33.6216C346.175 33.6216 345.471 32.7012 345.471 31.1777C345.471 29.686 346.169 28.7847 347.312 28.7847C348.226 28.7847 348.784 29.2988 348.943 29.9717H350.27ZM352.415 26.0171V27.7754H351.317V28.8672H352.415V32.8345C352.415 34.1611 353.018 34.6943 354.535 34.6943C354.802 34.6943 355.056 34.6626 355.278 34.6245V33.5391C355.087 33.5581 354.967 33.5708 354.757 33.5708C354.078 33.5708 353.78 33.2471 353.78 32.5044V28.8672H355.278V27.7754H353.78V26.0171H352.415ZM357.588 26.5249C358.064 26.5249 358.452 26.1377 358.452 25.668C358.452 25.1919 358.064 24.8047 357.588 24.8047C357.112 24.8047 356.725 25.1919 356.725 25.668C356.725 26.1377 357.112 26.5249 357.588 26.5249ZM356.909 34.6499H358.268V27.7563H356.909V34.6499ZM366.126 27.7563H364.679L362.965 33.2534H362.857L361.137 27.7563H359.677L362.171 34.6499H363.638L366.126 27.7563ZM371.775 32.8027C371.521 33.3613 370.957 33.666 370.131 33.666C369.04 33.666 368.335 32.8789 368.291 31.6284V31.5649H373.172V31.0952C373.172 28.937 372.01 27.623 370.087 27.623C368.138 27.623 366.9 29.0259 366.9 31.2158C366.9 33.4185 368.113 34.7832 370.093 34.7832C371.674 34.7832 372.791 34.0215 373.089 32.8027H371.775ZM370.081 28.7339C371.09 28.7339 371.75 29.4639 371.782 30.5811H368.291C368.367 29.4702 369.071 28.7339 370.081 28.7339Z" fill="var(--vscode-tab-inactiveForeground, #FFFFFF)" />
        <path d="M386.457 30.3539L390.105 34.0019L390.809 33.2979L387.161 29.6499L390.809 26.0019L390.105 25.2979L386.457 28.9459L382.809 25.2979L382.105 26.0019L385.753 29.6499L382.105 33.2979L382.809 34.0019L386.457 30.3539Z" fill="var(--vscode-foreground, #CCCCCC)" />
      </g>
    </g>
    <path d="M12 49H514V336C514 337.105 513.105 338 512 338H14C12.8954 338 12 337.105 12 336V49Z" fill="var(--vscode-editor-background, #1E1E1E)" />
    <rect x="36" y="145" width="32" height="4" rx="2" fill="var(--vscode-editorOverviewRuler-commonContentForeground, #606060)" />
    <rect x="72" y="145" width="52" height="4" rx="2" fill="var(--vscode-editorOverviewRuler-commonContentForeground, #606060)" />
    <rect x="128" y="145" width="36" height="4" rx="2" fill="var(--vscode-editorOverviewRuler-commonContentForeground, #606060)" />
    <path d="M40.5273 82.8364L40.6473 80.4364H39.12L39 82.8364H40.5273ZM40.3636 86L40.4727 83.8182H38.9455L38.8364 86H37.8545L37.9636 83.8182H36.5455V82.8364H38.0182L38.1382 80.4364H36.5455V79.4545H38.1818L38.2909 77.2727H39.2727L39.1636 79.4545H40.6909L40.8 77.2727H41.7818L41.6727 79.4545H43.0909V80.4364H41.6291L41.5091 82.8364H43.0909V83.8182H41.4545L41.3455 86H40.3636ZM53.4085 81.1127C52.9067 81.1127 52.4994 80.9745 52.1867 80.6982C51.874 80.4218 51.7176 79.9964 51.7176 79.4218V78.7673C51.7176 78.1855 51.874 77.7564 52.1867 77.48C52.4994 77.1964 52.9067 77.0545 53.4085 77.0545C53.9103 77.0545 54.314 77.1964 54.6194 77.48C54.9322 77.7564 55.0885 78.1855 55.0885 78.7673V79.4218C55.0885 79.9964 54.9322 80.4218 54.6194 80.6982C54.314 80.9745 53.9103 81.1127 53.4085 81.1127ZM53.4085 80.2291C53.6267 80.2291 53.7976 80.1673 53.9212 80.0436C54.0449 79.92 54.1067 79.72 54.1067 79.4436V78.7455C54.1067 78.4691 54.0449 78.2655 53.9212 78.1345C53.7976 78.0036 53.6267 77.9382 53.4085 77.9382C53.1903 77.9382 53.0158 78.0036 52.8849 78.1345C52.7613 78.2655 52.6994 78.4691 52.6994 78.7455V79.4436C52.6994 79.72 52.7613 79.92 52.8849 80.0436C53.0158 80.1673 53.1903 80.2291 53.4085 80.2291ZM51.7722 84.1673L57.8813 78.3964L58.4813 79.0291L52.3613 84.8L51.7722 84.1673ZM56.8013 86.24C56.2994 86.24 55.8922 86.1018 55.5794 85.8255C55.2667 85.5491 55.1103 85.1236 55.1103 84.5491V83.8945C55.1103 83.3127 55.2667 82.8836 55.5794 82.6073C55.8922 82.3236 56.2994 82.1818 56.8013 82.1818C57.3031 82.1818 57.7067 82.3236 58.0122 82.6073C58.3249 82.8836 58.4813 83.3127 58.4813 83.8945V84.5491C58.4813 85.1236 58.3249 85.5491 58.0122 85.8255C57.7067 86.1018 57.3031 86.24 56.8013 86.24ZM56.8013 85.3564C57.0194 85.3564 57.1903 85.2945 57.314 85.1709C57.4376 85.0473 57.4994 84.8473 57.4994 84.5709V83.8727C57.4994 83.5964 57.4376 83.3927 57.314 83.2618C57.1903 83.1309 57.0194 83.0655 56.8013 83.0655C56.5831 83.0655 56.4085 83.1309 56.2776 83.2618C56.154 83.3927 56.0922 83.5964 56.0922 83.8727V84.5709C56.0922 84.8473 56.154 85.0473 56.2776 85.1709C56.4085 85.2945 56.5831 85.3564 56.8013 85.3564ZM61.0491 81.1127C60.5473 81.1127 60.1401 80.9745 59.8273 80.6982C59.5146 80.4218 59.3582 79.9964 59.3582 79.4218V78.7673C59.3582 78.1855 59.5146 77.7564 59.8273 77.48C60.1401 77.1964 60.5473 77.0545 61.0491 77.0545C61.551 77.0545 61.9546 77.1964 62.2601 77.48C62.5728 77.7564 62.7291 78.1855 62.7291 78.7673V79.4218C62.7291 79.9964 62.5728 80.4218 62.2601 80.6982C61.9546 80.9745 61.551 81.1127 61.0491 81.1127ZM61.0491 80.2291C61.2673 80.2291 61.4382 80.1673 61.5619 80.0436C61.6855 79.92 61.7473 79.72 61.7473 79.4436V78.7455C61.7473 78.4691 61.6855 78.2655 61.5619 78.1345C61.4382 78.0036 61.2673 77.9382 61.0491 77.9382C60.831 77.9382 60.6564 78.0036 60.5255 78.1345C60.4019 78.2655 60.3401 78.4691 60.3401 78.7455V79.4436C60.3401 79.72 60.4019 79.92 60.5255 80.0436C60.6564 80.1673 60.831 80.2291 61.0491 80.2291ZM59.4128 84.1673L65.5219 78.3964L66.1219 79.0291L60.0019 84.8L59.4128 84.1673ZM64.4419 86.24C63.9401 86.24 63.5328 86.1018 63.2201 85.8255C62.9073 85.5491 62.751 85.1236 62.751 84.5491V83.8945C62.751 83.3127 62.9073 82.8836 63.2201 82.6073C63.5328 82.3236 63.9401 82.1818 64.4419 82.1818C64.9437 82.1818 65.3473 82.3236 65.6528 82.6073C65.9655 82.8836 66.1219 83.3127 66.1219 83.8945V84.5491C66.1219 85.1236 65.9655 85.5491 65.6528 85.8255C65.3473 86.1018 64.9437 86.24 64.4419 86.24ZM64.4419 85.3564C64.6601 85.3564 64.831 85.2945 64.9546 85.1709C65.0782 85.0473 65.1401 84.8473 65.1401 84.5709V83.8727C65.1401 83.5964 65.0782 83.3927 64.9546 83.2618C64.831 83.1309 64.6601 83.0655 64.4419 83.0655C64.2237 83.0655 64.0491 83.1309 63.9182 83.2618C63.7946 83.3927 63.7328 83.5964 63.7328 83.8727V84.5709C63.7328 84.8473 63.7946 85.0473 63.9182 85.1709C64.0491 85.2945 64.2237 85.3564 64.4419 85.3564ZM40.5273 172.836L40.6473 170.436H39.12L39 172.836H40.5273ZM40.3636 176L40.4727 173.818H38.9455L38.8364 176H37.8545L37.9636 173.818H36.5455V172.836H38.0182L38.1382 170.436H36.5455V169.455H38.1818L38.2909 167.273H39.2727L39.1636 169.455H40.6909L40.8 167.273H41.7818L41.6727 169.455H43.0909V170.436H41.6291L41.5091 172.836H43.0909V173.818H41.4545L41.3455 176H40.3636ZM53.4085 171.113C52.9067 171.113 52.4994 170.975 52.1867 170.698C51.874 170.422 51.7176 169.996 51.7176 169.422V168.767C51.7176 168.185 51.874 167.756 52.1867 167.48C52.4994 167.196 52.9067 167.055 53.4085 167.055C53.9103 167.055 54.314 167.196 54.6194 167.48C54.9322 167.756 55.0885 168.185 55.0885 168.767V169.422C55.0885 169.996 54.9322 170.422 54.6194 170.698C54.314 170.975 53.9103 171.113 53.4085 171.113ZM53.4085 170.229C53.6267 170.229 53.7976 170.167 53.9212 170.044C54.0449 169.92 54.1067 169.72 54.1067 169.444V168.745C54.1067 168.469 54.0449 168.265 53.9212 168.135C53.7976 168.004 53.6267 167.938 53.4085 167.938C53.1903 167.938 53.0158 168.004 52.8849 168.135C52.7613 168.265 52.6994 168.469 52.6994 168.745V169.444C52.6994 169.72 52.7613 169.92 52.8849 170.044C53.0158 170.167 53.1903 170.229 53.4085 170.229ZM51.7722 174.167L57.8813 168.396L58.4813 169.029L52.3613 174.8L51.7722 174.167ZM56.8013 176.24C56.2994 176.24 55.8922 176.102 55.5794 175.825C55.2667 175.549 55.1103 175.124 55.1103 174.549V173.895C55.1103 173.313 55.2667 172.884 55.5794 172.607C55.8922 172.324 56.2994 172.182 56.8013 172.182C57.3031 172.182 57.7067 172.324 58.0122 172.607C58.3249 172.884 58.4813 173.313 58.4813 173.895V174.549C58.4813 175.124 58.3249 175.549 58.0122 175.825C57.7067 176.102 57.3031 176.24 56.8013 176.24ZM56.8013 175.356C57.0194 175.356 57.1903 175.295 57.314 175.171C57.4376 175.047 57.4994 174.847 57.4994 174.571V173.873C57.4994 173.596 57.4376 173.393 57.314 173.262C57.1903 173.131 57.0194 173.065 56.8013 173.065C56.5831 173.065 56.4085 173.131 56.2776 173.262C56.154 173.393 56.0922 173.596 56.0922 173.873V174.571C56.0922 174.847 56.154 175.047 56.2776 175.171C56.4085 175.295 56.5831 175.356 56.8013 175.356ZM61.0491 171.113C60.5473 171.113 60.1401 170.975 59.8273 170.698C59.5146 170.422 59.3582 169.996 59.3582 169.422V168.767C59.3582 168.185 59.5146 167.756 59.8273 167.48C60.1401 167.196 60.5473 167.055 61.0491 167.055C61.551 167.055 61.9546 167.196 62.2601 167.48C62.5728 167.756 62.7291 168.185 62.7291 168.767V169.422C62.7291 169.996 62.5728 170.422 62.2601 170.698C61.9546 170.975 61.551 171.113 61.0491 171.113ZM61.0491 170.229C61.2673 170.229 61.4382 170.167 61.5619 170.044C61.6855 169.92 61.7473 169.72 61.7473 169.444V168.745C61.7473 168.469 61.6855 168.265 61.5619 168.135C61.4382 168.004 61.2673 167.938 61.0491 167.938C60.831 167.938 60.6564 168.004 60.5255 168.135C60.4019 168.265 60.3401 168.469 60.3401 168.745V169.444C60.3401 169.72 60.4019 169.92 60.5255 170.044C60.6564 170.167 60.831 170.229 61.0491 170.229ZM59.4128 174.167L65.5219 168.396L66.1219 169.029L60.0019 174.8L59.4128 174.167ZM64.4419 176.24C63.9401 176.24 63.5328 176.102 63.2201 175.825C62.9073 175.549 62.751 175.124 62.751 174.549V173.895C62.751 173.313 62.9073 172.884 63.2201 172.607C63.5328 172.324 63.9401 172.182 64.4419 172.182C64.9437 172.182 65.3473 172.324 65.6528 172.607C65.9655 172.884 66.1219 173.313 66.1219 173.895V174.549C66.1219 175.124 65.9655 175.549 65.6528 175.825C65.3473 176.102 64.9437 176.24 64.4419 176.24ZM64.4419 175.356C64.6601 175.356 64.831 175.295 64.9546 175.171C65.0782 175.047 65.1401 174.847 65.1401 174.571V173.873C65.1401 173.596 65.0782 173.393 64.9546 173.262C64.831 173.131 64.6601 173.065 64.4419 173.065C64.2237 173.065 64.0491 173.131 63.9182 173.262C63.7946 173.393 63.7328 173.596 63.7328 173.873V174.571C63.7328 174.847 63.7946 175.047 63.9182 175.171C64.0491 175.295 64.2237 175.356 64.4419 175.356Z" fill="var(--vscode-editorIndentGuide-activeBackground, #6B737C)" />
    <path d="M37.6582 99.3091V104H36.6545V97.4545H37.6582V98.3273H37.8764C38.0145 98.0218 38.1964 97.7818 38.4218 97.6073C38.6473 97.4327 38.8836 97.3455 39.1309 97.3455C39.4145 97.3455 39.6509 97.4327 39.84 97.6073C40.0364 97.7745 40.1709 98.0145 40.2436 98.3273H40.4836C40.6218 98.0218 40.8073 97.7818 41.04 97.6073C41.28 97.4327 41.5345 97.3455 41.8036 97.3455C42.1673 97.3455 42.4545 97.4945 42.6655 97.7927C42.8764 98.0836 42.9818 98.48 42.9818 98.9818V104H41.9782V99.1564C41.9782 98.8291 41.9345 98.5818 41.8473 98.4145C41.76 98.2473 41.6327 98.1636 41.4655 98.1636C41.3273 98.1636 41.1527 98.2655 40.9418 98.4691C40.7382 98.6727 40.5309 98.9527 40.32 99.3091V104H39.3164V99.1564C39.3164 98.8291 39.2691 98.5818 39.1745 98.4145C39.0873 98.2473 38.96 98.1636 38.7927 98.1636C38.6473 98.1636 38.4764 98.2618 38.28 98.4582C38.0909 98.6545 37.8836 98.9382 37.6582 99.3091ZM47.5461 104.109C46.9934 104.109 46.4588 104.029 45.9424 103.869C45.4261 103.702 44.9497 103.447 44.5134 103.105L45.0043 102.244C45.3606 102.535 45.757 102.756 46.1934 102.909C46.637 103.055 47.0879 103.127 47.5461 103.127C47.9243 103.127 48.2843 103.069 48.6261 102.953C48.9752 102.836 49.1497 102.589 49.1497 102.211C49.1497 101.898 49.0079 101.676 48.7243 101.545C48.4406 101.415 47.9206 101.302 47.1643 101.207C46.3643 101.113 45.757 100.927 45.3424 100.651C44.9352 100.367 44.7315 99.9236 44.7315 99.32C44.7315 98.6655 44.9788 98.1745 45.4734 97.8473C45.9679 97.5127 46.5424 97.3455 47.197 97.3455C47.7134 97.3455 48.2079 97.4327 48.6806 97.6073C49.1606 97.7818 49.6043 98.0291 50.0115 98.3491L49.5206 99.2109C49.1861 98.9418 48.8224 98.7273 48.4297 98.5673C48.037 98.4073 47.6261 98.3273 47.197 98.3273C46.8479 98.3273 46.5279 98.3927 46.237 98.5236C45.9534 98.6545 45.8115 98.8945 45.8115 99.2436C45.8115 99.5418 45.9424 99.76 46.2043 99.8982C46.4734 100.029 46.9861 100.142 47.7424 100.236C48.5715 100.331 49.1934 100.535 49.6079 100.847C50.0224 101.153 50.2297 101.582 50.2297 102.135C50.2297 102.818 49.9534 103.32 49.4006 103.64C48.8479 103.953 48.2297 104.109 47.5461 104.109ZM58.3722 104.524C58.3722 105.113 58.154 105.553 57.7176 105.844C57.2885 106.142 56.7613 106.291 56.1358 106.291H54.0849C53.4303 106.291 52.8885 106.16 52.4594 105.898C52.0376 105.636 51.8267 105.233 51.8267 104.687C51.8267 104.338 51.9176 104.062 52.0994 103.858C52.2885 103.647 52.5613 103.527 52.9176 103.498V103.269C52.6631 103.225 52.4522 103.12 52.2849 102.953C52.1249 102.785 52.0449 102.527 52.0449 102.178C52.0449 101.865 52.1431 101.585 52.3394 101.338C52.5358 101.084 52.8667 100.938 53.3322 100.902V100.695C52.9758 100.578 52.7358 100.404 52.6122 100.171C52.4885 99.9309 52.4267 99.7018 52.4267 99.4836V99.1891C52.4267 98.6873 52.6413 98.2727 53.0703 97.9455C53.4994 97.6182 54.1031 97.4545 54.8813 97.4545H58.0994V98.4364L56.4085 98.1855V98.3818C56.6994 98.4618 56.9176 98.6145 57.0631 98.84C57.2158 99.0655 57.2922 99.2909 57.2922 99.5164V99.8C57.2922 100.302 57.0994 100.709 56.714 101.022C56.3285 101.327 55.7031 101.48 54.8376 101.48H53.5176C53.3212 101.48 53.1722 101.531 53.0703 101.633C52.9685 101.727 52.9176 101.891 52.9176 102.124C52.9176 102.349 52.9867 102.52 53.1249 102.636C53.2703 102.745 53.4849 102.8 53.7685 102.8H56.2449C56.8558 102.8 57.3613 102.935 57.7613 103.204C58.1685 103.473 58.3722 103.913 58.3722 104.524ZM54.8813 100.651C55.3249 100.651 55.6631 100.571 55.8958 100.411C56.1285 100.251 56.2449 100 56.2449 99.6582V99.3091C56.2449 98.9673 56.1285 98.72 55.8958 98.5673C55.6631 98.4073 55.3249 98.3273 54.8813 98.3273C54.4376 98.3273 54.0994 98.4073 53.8667 98.5673C53.634 98.72 53.5176 98.9673 53.5176 99.3091V99.6582C53.5176 100 53.634 100.251 53.8667 100.411C54.0994 100.571 54.4376 100.651 54.8813 100.651ZM54.0631 105.418H56.2776C56.6049 105.418 56.8703 105.356 57.074 105.233C57.2776 105.109 57.3794 104.895 57.3794 104.589C57.3794 104.298 57.2849 104.091 57.0958 103.967C56.914 103.844 56.6776 103.782 56.3867 103.782H52.9176V104.524C52.9176 104.822 53.0158 105.044 53.2122 105.189C53.4085 105.342 53.6922 105.418 54.0631 105.418ZM83.5019 189.309V194H82.4983V187.455H83.5019V188.327H83.7201C83.8583 188.022 84.0401 187.782 84.2656 187.607C84.491 187.433 84.7274 187.345 84.9747 187.345C85.2583 187.345 85.4947 187.433 85.6837 187.607C85.8801 187.775 86.0147 188.015 86.0874 188.327H86.3274C86.4656 188.022 86.651 187.782 86.8838 187.607C87.1238 187.433 87.3783 187.345 87.6474 187.345C88.011 187.345 88.2983 187.495 88.5092 187.793C88.7201 188.084 88.8256 188.48 88.8256 188.982V194H87.8219V189.156C87.8219 188.829 87.7783 188.582 87.691 188.415C87.6037 188.247 87.4765 188.164 87.3092 188.164C87.171 188.164 86.9965 188.265 86.7856 188.469C86.5819 188.673 86.3747 188.953 86.1638 189.309V194H85.1601V189.156C85.1601 188.829 85.1128 188.582 85.0183 188.415C84.931 188.247 84.8037 188.164 84.6365 188.164C84.491 188.164 84.3201 188.262 84.1237 188.458C83.9347 188.655 83.7274 188.938 83.5019 189.309ZM93.3898 194.109C92.8371 194.109 92.3026 194.029 91.7862 193.869C91.2698 193.702 90.7935 193.447 90.3571 193.105L90.848 192.244C91.2044 192.535 91.6007 192.756 92.0371 192.909C92.4807 193.055 92.9316 193.127 93.3898 193.127C93.768 193.127 94.128 193.069 94.4698 192.953C94.8189 192.836 94.9935 192.589 94.9935 192.211C94.9935 191.898 94.8516 191.676 94.568 191.545C94.2844 191.415 93.7644 191.302 93.008 191.207C92.208 191.113 91.6007 190.927 91.1862 190.651C90.7789 190.367 90.5753 189.924 90.5753 189.32C90.5753 188.665 90.8226 188.175 91.3171 187.847C91.8116 187.513 92.3862 187.345 93.0407 187.345C93.5571 187.345 94.0516 187.433 94.5244 187.607C95.0044 187.782 95.448 188.029 95.8553 188.349L95.3644 189.211C95.0298 188.942 94.6662 188.727 94.2735 188.567C93.8807 188.407 93.4698 188.327 93.0407 188.327C92.6916 188.327 92.3716 188.393 92.0807 188.524C91.7971 188.655 91.6553 188.895 91.6553 189.244C91.6553 189.542 91.7862 189.76 92.048 189.898C92.3171 190.029 92.8298 190.142 93.5862 190.236C94.4153 190.331 95.0371 190.535 95.4516 190.847C95.8662 191.153 96.0735 191.582 96.0735 192.135C96.0735 192.818 95.7971 193.32 95.2444 193.64C94.6916 193.953 94.0735 194.109 93.3898 194.109ZM104.216 194.524C104.216 195.113 103.998 195.553 103.561 195.844C103.132 196.142 102.605 196.291 101.98 196.291H99.9286C99.2741 196.291 98.7323 196.16 98.3032 195.898C97.8814 195.636 97.6705 195.233 97.6705 194.687C97.6705 194.338 97.7614 194.062 97.9432 193.858C98.1323 193.647 98.405 193.527 98.7614 193.498V193.269C98.5068 193.225 98.2959 193.12 98.1286 192.953C97.9686 192.785 97.8886 192.527 97.8886 192.178C97.8886 191.865 97.9868 191.585 98.1832 191.338C98.3795 191.084 98.7105 190.938 99.1759 190.902V190.695C98.8195 190.578 98.5795 190.404 98.4559 190.171C98.3323 189.931 98.2705 189.702 98.2705 189.484V189.189C98.2705 188.687 98.485 188.273 98.9141 187.945C99.3432 187.618 99.9468 187.455 100.725 187.455H103.943V188.436L102.252 188.185V188.382C102.543 188.462 102.761 188.615 102.907 188.84C103.06 189.065 103.136 189.291 103.136 189.516V189.8C103.136 190.302 102.943 190.709 102.558 191.022C102.172 191.327 101.547 191.48 100.681 191.48H99.3614C99.165 191.48 99.0159 191.531 98.9141 191.633C98.8123 191.727 98.7614 191.891 98.7614 192.124C98.7614 192.349 98.8305 192.52 98.9686 192.636C99.1141 192.745 99.3286 192.8 99.6123 192.8H102.089C102.7 192.8 103.205 192.935 103.605 193.204C104.012 193.473 104.216 193.913 104.216 194.524ZM100.725 190.651C101.169 190.651 101.507 190.571 101.74 190.411C101.972 190.251 102.089 190 102.089 189.658V189.309C102.089 188.967 101.972 188.72 101.74 188.567C101.507 188.407 101.169 188.327 100.725 188.327C100.281 188.327 99.9432 188.407 99.7105 188.567C99.4777 188.72 99.3614 188.967 99.3614 189.309V189.658C99.3614 190 99.4777 190.251 99.7105 190.411C99.9432 190.571 100.281 190.651 100.725 190.651ZM99.9068 195.418H102.121C102.449 195.418 102.714 195.356 102.918 195.233C103.121 195.109 103.223 194.895 103.223 194.589C103.223 194.298 103.129 194.091 102.94 193.967C102.758 193.844 102.521 193.782 102.23 193.782H98.7614V194.524C98.7614 194.822 98.8595 195.044 99.0559 195.189C99.2523 195.342 99.5359 195.418 99.9068 195.418Z" fill="var(--vscode-debugIcon-continueForeground, #9CDCFE)" />
    <path d="M67.3261 99.2V98.1091H73.4352V99.2H67.3261ZM67.3261 102.255V101.164H73.4352V102.255H67.3261ZM80.2031 196.291C79.0613 196.022 78.1377 195.4 77.4322 194.425C76.734 193.451 76.3849 192.218 76.3849 190.727C76.3849 189.236 76.734 188.004 77.4322 187.029C78.1377 186.055 79.0613 185.433 80.2031 185.164L80.3122 186.015C79.3377 186.284 78.6213 186.847 78.1631 187.705C77.7049 188.556 77.4759 189.564 77.4759 190.727C77.4759 191.891 77.7049 192.902 78.1631 193.76C78.6213 194.611 79.3377 195.171 80.3122 195.44L80.2031 196.291ZM106.402 196.291L106.293 195.44C107.267 195.171 107.984 194.607 108.442 193.749C108.9 192.884 109.129 191.876 109.129 190.727C109.129 189.578 108.9 188.575 108.442 187.716C107.984 186.851 107.267 186.284 106.293 186.015L106.402 185.164C107.544 185.433 108.464 186.058 109.162 187.04C109.867 188.015 110.22 189.244 110.22 190.727C110.22 192.211 109.867 193.44 109.162 194.415C108.464 195.396 107.544 196.022 106.402 196.291Z" fill="var(--vscode-editor-foreground, #D4D4D4)" />
    <path d="M86.7528 99.6364L86.4256 95.2727H88.171L87.8438 99.6364H86.7528ZM83.4801 99.6364L83.1528 95.2727H84.8983L84.571 99.6364H83.4801ZM90.5753 104V95.2727H91.6662V98.7636H94.9389V95.2727H96.0298V104H94.9389V99.7455H91.6662V104H90.5753ZM103.692 102.56C103.496 103.105 103.198 103.502 102.798 103.749C102.398 103.989 101.783 104.109 100.954 104.109C100.089 104.109 99.4159 103.902 98.9359 103.487C98.4559 103.065 98.2159 102.444 98.2159 101.622V99.8655C98.2159 99.0218 98.4668 98.3927 98.9686 97.9782C99.4777 97.5564 100.14 97.3455 100.954 97.3455C101.776 97.3455 102.434 97.56 102.929 97.9891C103.423 98.4109 103.67 99.0618 103.67 99.9418V100.945H99.3068V101.633C99.3068 102.178 99.4414 102.575 99.7105 102.822C99.9868 103.062 100.398 103.182 100.943 103.182C101.467 103.182 101.849 103.109 102.089 102.964C102.329 102.818 102.51 102.582 102.634 102.255L103.692 102.56ZM99.3068 99.8655V100.127H102.58V99.9636C102.58 99.3745 102.441 98.9455 102.165 98.6764C101.896 98.4073 101.489 98.2727 100.943 98.2727C100.398 98.2727 99.9868 98.4036 99.7105 98.6655C99.4414 98.92 99.3068 99.32 99.3068 99.8655ZM105.857 104V103.018H108.038V96.2545H105.857V95.2727H109.129V103.018H111.311V104H105.857ZM113.497 104V103.018H115.679V96.2545H113.497V95.2727H116.77V103.018H118.952V104H113.497ZM123.865 104.109C122.985 104.109 122.309 103.898 121.836 103.476C121.371 103.047 121.138 102.433 121.138 101.633V99.8655C121.138 99.0582 121.374 98.4364 121.847 98C122.32 97.5636 122.996 97.3455 123.876 97.3455C124.749 97.3455 125.418 97.5636 125.883 98C126.356 98.4364 126.592 99.0582 126.592 99.8655V101.633C126.592 102.433 126.356 103.047 125.883 103.476C125.418 103.898 124.745 104.109 123.865 104.109ZM123.865 103.127C124.418 103.127 124.829 103.004 125.098 102.756C125.367 102.509 125.501 102.135 125.501 101.633V99.8655C125.501 99.3418 125.367 98.9564 125.098 98.7091C124.829 98.4545 124.418 98.3273 123.865 98.3273C123.312 98.3273 122.901 98.4545 122.632 98.7091C122.363 98.9564 122.229 99.3418 122.229 99.8655V101.633C122.229 102.135 122.363 102.509 122.632 102.756C122.901 103.004 123.312 103.127 123.865 103.127ZM136.419 104V103.018H138.601V96.2545H136.419V95.2727H141.874V96.2545H139.692V103.018H141.874V104H136.419ZM144.06 104V97.4545H145.151V98.5455H145.478C145.638 98.1745 145.889 97.8836 146.231 97.6727C146.572 97.4545 146.961 97.3455 147.398 97.3455C148.052 97.3455 148.569 97.5455 148.947 97.9455C149.325 98.3455 149.514 98.8909 149.514 99.5818V104H148.423V99.8C148.423 99.3418 148.311 98.9927 148.085 98.7527C147.867 98.5055 147.551 98.3818 147.136 98.3818C146.809 98.3818 146.474 98.48 146.132 98.6764C145.798 98.8727 145.471 99.1564 145.151 99.5273V104H144.06ZM155.508 104.098C154.788 104.098 154.228 103.92 153.828 103.564C153.428 103.207 153.228 102.662 153.228 101.927V98.4364H151.373V97.4545H153.228V95.2727H154.318V97.4545H157.155V98.4364H154.318V101.829C154.318 102.251 154.424 102.564 154.635 102.767C154.846 102.971 155.158 103.073 155.573 103.073C155.849 103.073 156.108 103.055 156.348 103.018C156.588 102.975 156.817 102.92 157.035 102.855L157.253 103.847C157.006 103.92 156.74 103.978 156.457 104.022C156.18 104.073 155.864 104.098 155.508 104.098ZM164.817 102.56C164.621 103.105 164.323 103.502 163.923 103.749C163.523 103.989 162.908 104.109 162.079 104.109C161.214 104.109 160.541 103.902 160.061 103.487C159.581 103.065 159.341 102.444 159.341 101.622V99.8655C159.341 99.0218 159.592 98.3927 160.094 97.9782C160.603 97.5564 161.265 97.3455 162.079 97.3455C162.901 97.3455 163.559 97.56 164.054 97.9891C164.548 98.4109 164.795 99.0618 164.795 99.9418V100.945H160.432V101.633C160.432 102.178 160.566 102.575 160.835 102.822C161.112 103.062 161.523 103.182 162.068 103.182C162.592 103.182 162.974 103.109 163.214 102.964C163.454 102.818 163.635 102.582 163.759 102.255L164.817 102.56ZM160.432 99.8655V100.127H163.705V99.9636C163.705 99.3745 163.566 98.9455 163.29 98.6764C163.021 98.4073 162.614 98.2727 162.068 98.2727C161.523 98.2727 161.112 98.4036 160.835 98.6655C160.566 98.92 160.432 99.32 160.432 99.8655ZM167.527 104V97.4545H168.618V98.5455H168.945C169.098 98.1309 169.331 97.8291 169.643 97.64C169.956 97.4436 170.334 97.3455 170.778 97.3455C171.265 97.3455 171.672 97.5091 172 97.8364C172.327 98.1564 172.491 98.6109 172.491 99.2V100.182H171.454V99.5927C171.454 99.1782 171.36 98.8727 171.171 98.6764C170.989 98.48 170.709 98.3818 170.331 98.3818C169.989 98.3818 169.676 98.4655 169.392 98.6327C169.116 98.8 168.858 99.0618 168.618 99.4182V104H167.527ZM176.564 103.171C176.942 103.171 177.291 103.105 177.611 102.975C177.931 102.836 178.208 102.6 178.44 102.265V101.218H176.477C176.164 101.218 175.902 101.291 175.691 101.436C175.488 101.575 175.386 101.822 175.386 102.178C175.386 102.491 175.473 102.735 175.648 102.909C175.829 103.084 176.135 103.171 176.564 103.171ZM176.422 104.109C175.869 104.109 175.375 103.964 174.939 103.673C174.509 103.375 174.295 102.898 174.295 102.244C174.295 101.669 174.48 101.218 174.851 100.891C175.229 100.564 175.669 100.4 176.171 100.4H178.44V99.4618C178.44 99.1127 178.324 98.8364 178.091 98.6327C177.859 98.4291 177.506 98.3273 177.033 98.3273C176.553 98.3273 176.193 98.4 175.953 98.5455C175.72 98.6836 175.535 98.9964 175.397 99.4836L174.437 99.2218C174.56 98.6036 174.837 98.1382 175.266 97.8255C175.702 97.5055 176.284 97.3455 177.011 97.3455C177.731 97.3455 178.331 97.5091 178.811 97.8364C179.291 98.1564 179.531 98.6545 179.531 99.3309V102.255C179.531 102.647 179.64 102.895 179.859 102.996C180.077 103.091 180.404 103.102 180.84 103.029V104.033C180.389 104.098 179.964 104.069 179.564 103.945C179.171 103.815 178.957 103.469 178.92 102.909H178.702C178.499 103.244 178.193 103.527 177.786 103.76C177.379 103.993 176.924 104.109 176.422 104.109ZM185.143 104.109C184.19 104.109 183.47 103.902 182.983 103.487C182.503 103.065 182.263 102.447 182.263 101.633V99.8655C182.263 99.0364 182.503 98.4109 182.983 97.9891C183.47 97.56 184.186 97.3455 185.132 97.3455C185.976 97.3455 186.623 97.5382 187.074 97.9236C187.532 98.3018 187.786 98.8582 187.837 99.5927L186.768 99.6582C186.739 99.2073 186.59 98.8727 186.321 98.6545C186.052 98.4364 185.652 98.3273 185.121 98.3273C184.525 98.3273 184.081 98.4545 183.79 98.7091C183.499 98.9564 183.354 99.3418 183.354 99.8655V101.633C183.354 102.135 183.499 102.509 183.79 102.756C184.088 103.004 184.539 103.127 185.143 103.127C185.666 103.127 186.063 103.036 186.332 102.855C186.601 102.665 186.746 102.385 186.768 102.015L187.837 102.08C187.786 102.749 187.536 103.255 187.085 103.596C186.634 103.938 185.986 104.109 185.143 104.109ZM193.711 104.098C192.991 104.098 192.431 103.92 192.031 103.564C191.631 103.207 191.431 102.662 191.431 101.927V98.4364H189.576V97.4545H191.431V95.2727H192.522V97.4545H195.358V98.4364H192.522V101.829C192.522 102.251 192.627 102.564 192.838 102.767C193.049 102.971 193.362 103.073 193.776 103.073C194.052 103.073 194.311 103.055 194.551 103.018C194.791 102.975 195.02 102.92 195.238 102.855L195.456 103.847C195.209 103.92 194.943 103.978 194.66 104.022C194.383 104.073 194.067 104.098 193.711 104.098ZM197.544 104V103.018H199.726V98.4364H197.544V97.4545H200.817V103.018H202.999V104H197.544ZM200.271 96.2545C199.995 96.2545 199.769 96.2109 199.595 96.1236C199.428 96.0364 199.344 95.8727 199.344 95.6327V95.5564C199.344 95.3091 199.428 95.1418 199.595 95.0545C199.769 94.96 199.995 94.9127 200.271 94.9127C200.548 94.9127 200.769 94.96 200.937 95.0545C201.111 95.1418 201.199 95.3091 201.199 95.5564V95.6327C201.199 95.8727 201.111 96.0364 200.937 96.1236C200.762 96.2109 200.54 96.2545 200.271 96.2545ZM208.588 104H207.225L204.901 97.4545H206.09L207.923 103.116L209.756 97.4545H210.912L208.588 104ZM218.302 102.56C218.105 103.105 217.807 103.502 217.407 103.749C217.007 103.989 216.393 104.109 215.563 104.109C214.698 104.109 214.025 103.902 213.545 103.487C213.065 103.065 212.825 102.444 212.825 101.622V99.8655C212.825 99.0218 213.076 98.3927 213.578 97.9782C214.087 97.5564 214.749 97.3455 215.563 97.3455C216.385 97.3455 217.043 97.56 217.538 97.9891C218.033 98.4109 218.28 99.0618 218.28 99.9418V100.945H213.916V101.633C213.916 102.178 214.051 102.575 214.32 102.822C214.596 103.062 215.007 103.182 215.553 103.182C216.076 103.182 216.458 103.109 216.698 102.964C216.938 102.818 217.12 102.582 217.243 102.255L218.302 102.56ZM213.916 99.8655V100.127H217.189V99.9636C217.189 99.3745 217.051 98.9455 216.774 98.6764C216.505 98.4073 216.098 98.2727 215.553 98.2727C215.007 98.2727 214.596 98.4036 214.32 98.6655C214.051 98.92 213.916 99.32 213.916 99.8655ZM41.1055 122L39.8182 116.796L38.5309 122H37.44L36.2618 113.273H37.3418L38.1273 120.396L39.2727 115.455H40.4182L41.5636 120.396L42.3491 113.273H43.3745L42.1964 122H41.1055ZM44.7315 122V121.018H46.9134V116.436H44.7315V115.455H48.0043V121.018H50.1861V122H44.7315ZM47.4588 114.255C47.1824 114.255 46.957 114.211 46.7824 114.124C46.6152 114.036 46.5315 113.873 46.5315 113.633V113.556C46.5315 113.309 46.6152 113.142 46.7824 113.055C46.957 112.96 47.1824 112.913 47.4588 112.913C47.7352 112.913 47.957 112.96 48.1243 113.055C48.2988 113.142 48.3861 113.309 48.3861 113.556V113.633C48.3861 113.873 48.2988 114.036 48.1243 114.124C47.9497 114.211 47.7279 114.255 47.4588 114.255ZM52.3722 122V115.455H53.4631V116.545H53.7903C53.9503 116.175 54.2013 115.884 54.5431 115.673C54.8849 115.455 55.274 115.345 55.7103 115.345C56.3649 115.345 56.8813 115.545 57.2594 115.945C57.6376 116.345 57.8267 116.891 57.8267 117.582V122H56.7358V117.8C56.7358 117.342 56.6231 116.993 56.3976 116.753C56.1794 116.505 55.8631 116.382 55.4485 116.382C55.1213 116.382 54.7867 116.48 54.4449 116.676C54.1103 116.873 53.7831 117.156 53.4631 117.527V122H52.3722ZM62.4128 121.073C62.7691 121.073 63.1073 120.978 63.4273 120.789C63.7473 120.6 64.0637 120.313 64.3764 119.927V116.72C64.151 116.582 63.911 116.48 63.6564 116.415C63.4019 116.342 63.1291 116.305 62.8382 116.305C62.2491 116.305 61.8128 116.436 61.5291 116.698C61.2455 116.953 61.1037 117.342 61.1037 117.865V119.622C61.1037 120.109 61.2128 120.473 61.431 120.713C61.6491 120.953 61.9764 121.073 62.4128 121.073ZM64.0491 120.909C63.8601 121.287 63.5982 121.582 63.2637 121.793C62.9291 122.004 62.5546 122.109 62.1401 122.109C61.4637 122.109 60.9401 121.891 60.5691 121.455C60.1982 121.018 60.0128 120.407 60.0128 119.622V117.844C60.0128 117.051 60.2601 116.436 60.7546 116C61.2491 115.564 61.9401 115.345 62.8273 115.345C63.0819 115.345 63.3437 115.375 63.6128 115.433C63.8819 115.484 64.1364 115.556 64.3764 115.651V113.273H65.4673V122H64.3764V120.909H64.0491ZM70.3807 122.109C69.5007 122.109 68.8243 121.898 68.3516 121.476C67.8861 121.047 67.6534 120.433 67.6534 119.633V117.865C67.6534 117.058 67.8898 116.436 68.3625 116C68.8352 115.564 69.5116 115.345 70.3916 115.345C71.2643 115.345 71.9334 115.564 72.3989 116C72.8716 116.436 73.108 117.058 73.108 117.865V119.633C73.108 120.433 72.8716 121.047 72.3989 121.476C71.9334 121.898 71.2607 122.109 70.3807 122.109ZM70.3807 121.127C70.9334 121.127 71.3443 121.004 71.6134 120.756C71.8825 120.509 72.017 120.135 72.017 119.633V117.865C72.017 117.342 71.8825 116.956 71.6134 116.709C71.3443 116.455 70.9334 116.327 70.3807 116.327C69.828 116.327 69.417 116.455 69.148 116.709C68.8789 116.956 68.7443 117.342 68.7443 117.865V119.633C68.7443 120.135 68.8789 120.509 69.148 120.756C69.417 121.004 69.828 121.127 70.3807 121.127ZM78.9813 122L78.0213 117.735L77.1049 122H75.8613L74.6286 115.455H75.6759L76.5049 121.204L77.3559 116.545H78.6431L79.5704 121.029L80.3668 115.455H81.414L80.1813 122H78.9813ZM85.2256 118.727L84.8983 113.273H86.4256L86.0983 118.727H85.2256ZM85.6728 122.109C85.3092 122.109 85.0401 122.036 84.8656 121.891C84.6983 121.738 84.6147 121.505 84.6147 121.193V120.887C84.6147 120.567 84.6983 120.331 84.8656 120.178C85.0401 120.025 85.3092 119.949 85.6728 119.949C86.0365 119.949 86.3019 120.025 86.4692 120.178C86.6365 120.331 86.7201 120.567 86.7201 120.887V121.193C86.7201 121.505 86.6328 121.738 86.4583 121.891C86.291 122.036 86.0292 122.109 85.6728 122.109ZM94.3935 117.636L94.0662 113.273H95.8116L95.4844 117.636H94.3935ZM91.1207 117.636L90.7935 113.273H92.5389L92.2116 117.636H91.1207Z" fill="var(--vscode-debugTokenExpression-string, #CE9178)" />
    <path d="M39.72 193.149C40.3309 193.149 40.7709 193.025 41.04 192.778C41.3164 192.531 41.4545 192.135 41.4545 191.589V189.822C41.4545 189.32 41.3491 188.956 41.1382 188.731C40.9345 188.498 40.6036 188.382 40.1455 188.382C39.7818 188.382 39.4436 188.473 39.1309 188.655C38.8182 188.836 38.5018 189.127 38.1818 189.527V192.735C38.4073 192.873 38.64 192.978 38.88 193.051C39.1273 193.116 39.4073 193.149 39.72 193.149ZM39.7309 194.109C39.4836 194.109 39.2218 194.08 38.9455 194.022C38.6764 193.971 38.4218 193.898 38.1818 193.804V196.182H37.0909V187.455H38.1818V188.545H38.5091C38.6909 188.175 38.9527 187.884 39.2945 187.673C39.6436 187.455 40.0182 187.345 40.4182 187.345C41.0727 187.345 41.5891 187.571 41.9673 188.022C42.3527 188.465 42.5455 189.069 42.5455 189.833V191.611C42.5455 192.382 42.2909 192.993 41.7818 193.444C41.28 193.887 40.5964 194.109 39.7309 194.109ZM45.277 194V187.455H46.3679V188.545H46.6952C46.8479 188.131 47.0806 187.829 47.3934 187.64C47.7061 187.444 48.0843 187.345 48.5279 187.345C49.0152 187.345 49.4224 187.509 49.7497 187.836C50.077 188.156 50.2406 188.611 50.2406 189.2V190.182H49.2043V189.593C49.2043 189.178 49.1097 188.873 48.9206 188.676C48.7388 188.48 48.4588 188.382 48.0806 188.382C47.7388 188.382 47.4261 188.465 47.1424 188.633C46.8661 188.8 46.6079 189.062 46.3679 189.418V194H45.277ZM52.3722 194V193.018H54.554V188.436H52.3722V187.455H55.6449V193.018H57.8267V194H52.3722ZM55.0994 186.255C54.8231 186.255 54.5976 186.211 54.4231 186.124C54.2558 186.036 54.1722 185.873 54.1722 185.633V185.556C54.1722 185.309 54.2558 185.142 54.4231 185.055C54.5976 184.96 54.8231 184.913 55.0994 184.913C55.3758 184.913 55.5976 184.96 55.7649 185.055C55.9394 185.142 56.0267 185.309 56.0267 185.556V185.633C56.0267 185.873 55.9394 186.036 55.7649 186.124C55.5903 186.211 55.3685 186.255 55.0994 186.255ZM60.0128 194V187.455H61.1037V188.545H61.431C61.591 188.175 61.8419 187.884 62.1837 187.673C62.5255 187.455 62.9146 187.345 63.351 187.345C64.0055 187.345 64.5219 187.545 64.9001 187.945C65.2782 188.345 65.4673 188.891 65.4673 189.582V194H64.3764V189.8C64.3764 189.342 64.2637 188.993 64.0382 188.753C63.8201 188.505 63.5037 188.382 63.0891 188.382C62.7619 188.382 62.4273 188.48 62.0855 188.676C61.751 188.873 61.4237 189.156 61.1037 189.527V194H60.0128ZM71.4607 194.098C70.7407 194.098 70.1807 193.92 69.7807 193.564C69.3807 193.207 69.1807 192.662 69.1807 191.927V188.436H67.3261V187.455H69.1807V185.273H70.2716V187.455H73.108V188.436H70.2716V191.829C70.2716 192.251 70.377 192.564 70.588 192.767C70.7989 192.971 71.1116 193.073 71.5261 193.073C71.8025 193.073 72.0607 193.055 72.3007 193.018C72.5407 192.975 72.7698 192.92 72.988 192.855L73.2061 193.847C72.9589 193.92 72.6934 193.978 72.4098 194.022C72.1334 194.073 71.817 194.098 71.4607 194.098Z" fill="#DCDCAA" />
    <rect x="36" y="157" width="211" height="2" fill="var(--vscode-focusBorder, #3794FF)" />
    <rect x="36" y="205" width="211" height="2" fill="var(--vscode-focusBorder, #3794FF)" />
    <path d="M286.658 96.3091V101H285.655V94.4545H286.658V95.3273H286.876C287.015 95.0218 287.196 94.7818 287.422 94.6073C287.647 94.4327 287.884 94.3455 288.131 94.3455C288.415 94.3455 288.651 94.4327 288.84 94.6073C289.036 94.7745 289.171 95.0145 289.244 95.3273H289.484C289.622 95.0218 289.807 94.7818 290.04 94.6073C290.28 94.4327 290.535 94.3455 290.804 94.3455C291.167 94.3455 291.455 94.4945 291.665 94.7927C291.876 95.0836 291.982 95.48 291.982 95.9818V101H290.978V96.1564C290.978 95.8291 290.935 95.5818 290.847 95.4145C290.76 95.2473 290.633 95.1636 290.465 95.1636C290.327 95.1636 290.153 95.2655 289.942 95.4691C289.738 95.6727 289.531 95.9527 289.32 96.3091V101H288.316V96.1564C288.316 95.8291 288.269 95.5818 288.175 95.4145C288.087 95.2473 287.96 95.1636 287.793 95.1636C287.647 95.1636 287.476 95.2618 287.28 95.4582C287.091 95.6545 286.884 95.9382 286.658 96.3091ZM296.546 101.109C295.993 101.109 295.459 101.029 294.942 100.869C294.426 100.702 293.95 100.447 293.513 100.105L294.004 99.2436C294.361 99.5345 294.757 99.7564 295.193 99.9091C295.637 100.055 296.088 100.127 296.546 100.127C296.924 100.127 297.284 100.069 297.626 99.9527C297.975 99.8364 298.15 99.5891 298.15 99.2109C298.15 98.8982 298.008 98.6764 297.724 98.5455C297.441 98.4145 296.921 98.3018 296.164 98.2073C295.364 98.1127 294.757 97.9273 294.342 97.6509C293.935 97.3673 293.732 96.9236 293.732 96.32C293.732 95.6655 293.979 95.1745 294.473 94.8473C294.968 94.5127 295.542 94.3455 296.197 94.3455C296.713 94.3455 297.208 94.4327 297.681 94.6073C298.161 94.7818 298.604 95.0291 299.012 95.3491L298.521 96.2109C298.186 95.9418 297.822 95.7273 297.43 95.5673C297.037 95.4073 296.626 95.3273 296.197 95.3273C295.848 95.3273 295.528 95.3927 295.237 95.5236C294.953 95.6545 294.812 95.8945 294.812 96.2436C294.812 96.5418 294.942 96.76 295.204 96.8982C295.473 97.0291 295.986 97.1418 296.742 97.2364C297.572 97.3309 298.193 97.5345 298.608 97.8473C299.022 98.1527 299.23 98.5818 299.23 99.1345C299.23 99.8182 298.953 100.32 298.401 100.64C297.848 100.953 297.23 101.109 296.546 101.109ZM307.372 101.524C307.372 102.113 307.154 102.553 306.718 102.844C306.289 103.142 305.761 103.291 305.136 103.291H303.085C302.43 103.291 301.889 103.16 301.459 102.898C301.038 102.636 300.827 102.233 300.827 101.687C300.827 101.338 300.918 101.062 301.099 100.858C301.289 100.647 301.561 100.527 301.918 100.498V100.269C301.663 100.225 301.452 100.12 301.285 99.9527C301.125 99.7855 301.045 99.5273 301.045 99.1782C301.045 98.8655 301.143 98.5855 301.339 98.3382C301.536 98.0836 301.867 97.9382 302.332 97.9018V97.6945C301.976 97.5782 301.736 97.4036 301.612 97.1709C301.489 96.9309 301.427 96.7018 301.427 96.4836V96.1891C301.427 95.6873 301.641 95.2727 302.07 94.9455C302.499 94.6182 303.103 94.4545 303.881 94.4545H307.099V95.4364L305.409 95.1855V95.3818C305.699 95.4618 305.918 95.6145 306.063 95.84C306.216 96.0655 306.292 96.2909 306.292 96.5164V96.8C306.292 97.3018 306.099 97.7091 305.714 98.0218C305.329 98.3273 304.703 98.48 303.838 98.48H302.518C302.321 98.48 302.172 98.5309 302.07 98.6327C301.969 98.7273 301.918 98.8909 301.918 99.1236C301.918 99.3491 301.987 99.52 302.125 99.6364C302.27 99.7455 302.485 99.8 302.769 99.8H305.245C305.856 99.8 306.361 99.9345 306.761 100.204C307.169 100.473 307.372 100.913 307.372 101.524ZM303.881 97.6509C304.325 97.6509 304.663 97.5709 304.896 97.4109C305.129 97.2509 305.245 97 305.245 96.6582V96.3091C305.245 95.9673 305.129 95.72 304.896 95.5673C304.663 95.4073 304.325 95.3273 303.881 95.3273C303.438 95.3273 303.099 95.4073 302.867 95.5673C302.634 95.72 302.518 95.9673 302.518 96.3091V96.6582C302.518 97 302.634 97.2509 302.867 97.4109C303.099 97.5709 303.438 97.6509 303.881 97.6509ZM303.063 102.418H305.278C305.605 102.418 305.87 102.356 306.074 102.233C306.278 102.109 306.379 101.895 306.379 101.589C306.379 101.298 306.285 101.091 306.096 100.967C305.914 100.844 305.678 100.782 305.387 100.782H301.918V101.524C301.918 101.822 302.016 102.044 302.212 102.189C302.409 102.342 302.692 102.418 303.063 102.418ZM316.326 96.2V95.1091H322.435V96.2H316.326ZM316.326 99.2545V98.1636H322.435V99.2545H316.326Z" fill="var(--vscode-editor-foreground, #D4D4D4)" />
    <path d="M335.753 96.6364L335.426 92.2727H337.171L336.844 96.6364H335.753ZM332.48 96.6364L332.153 92.2727H333.898L333.571 96.6364H332.48ZM339.575 101V92.2727H340.666V95.7636H343.939V92.2727H345.03V101H343.939V96.7455H340.666V101H339.575ZM352.692 99.56C352.496 100.105 352.198 100.502 351.798 100.749C351.398 100.989 350.783 101.109 349.954 101.109C349.089 101.109 348.416 100.902 347.936 100.487C347.456 100.065 347.216 99.4436 347.216 98.6218V96.8655C347.216 96.0218 347.467 95.3927 347.969 94.9782C348.478 94.5564 349.14 94.3455 349.954 94.3455C350.776 94.3455 351.434 94.56 351.929 94.9891C352.423 95.4109 352.67 96.0618 352.67 96.9418V97.9455H348.307V98.6327C348.307 99.1782 348.441 99.5745 348.71 99.8218C348.987 100.062 349.398 100.182 349.943 100.182C350.467 100.182 350.849 100.109 351.089 99.9636C351.329 99.8182 351.51 99.5818 351.634 99.2545L352.692 99.56ZM348.307 96.8655V97.1273H351.58V96.9636C351.58 96.3745 351.441 95.9455 351.165 95.6764C350.896 95.4073 350.489 95.2727 349.943 95.2727C349.398 95.2727 348.987 95.4036 348.71 95.6655C348.441 95.92 348.307 96.32 348.307 96.8655ZM354.857 101V100.018H357.038V93.2545H354.857V92.2727H358.129V100.018H360.311V101H354.857ZM362.497 101V100.018H364.679V93.2545H362.497V92.2727H365.77V100.018H367.952V101H362.497ZM372.865 101.109C371.985 101.109 371.309 100.898 370.836 100.476C370.371 100.047 370.138 99.4327 370.138 98.6327V96.8655C370.138 96.0582 370.374 95.4364 370.847 95C371.32 94.5636 371.996 94.3455 372.876 94.3455C373.749 94.3455 374.418 94.5636 374.883 95C375.356 95.4364 375.592 96.0582 375.592 96.8655V98.6327C375.592 99.4327 375.356 100.047 374.883 100.476C374.418 100.898 373.745 101.109 372.865 101.109ZM372.865 100.127C373.418 100.127 373.829 100.004 374.098 99.7564C374.367 99.5091 374.501 99.1345 374.501 98.6327V96.8655C374.501 96.3418 374.367 95.9564 374.098 95.7091C373.829 95.4545 373.418 95.3273 372.865 95.3273C372.312 95.3273 371.901 95.4545 371.632 95.7091C371.363 95.9564 371.229 96.3418 371.229 96.8655V98.6327C371.229 99.1345 371.363 99.5091 371.632 99.7564C371.901 100.004 372.312 100.127 372.865 100.127ZM385.419 101V100.018H387.601V93.2545H385.419V92.2727H390.874V93.2545H388.692V100.018H390.874V101H385.419ZM393.06 101V94.4545H394.151V95.5455H394.478C394.638 95.1745 394.889 94.8836 395.231 94.6727C395.572 94.4545 395.961 94.3455 396.398 94.3455C397.052 94.3455 397.569 94.5455 397.947 94.9455C398.325 95.3455 398.514 95.8909 398.514 96.5818V101H397.423V96.8C397.423 96.3418 397.311 95.9927 397.085 95.7527C396.867 95.5055 396.551 95.3818 396.136 95.3818C395.809 95.3818 395.474 95.48 395.132 95.6764C394.798 95.8727 394.471 96.1564 394.151 96.5273V101H393.06ZM404.508 101.098C403.788 101.098 403.228 100.92 402.828 100.564C402.428 100.207 402.228 99.6618 402.228 98.9273V95.4364H400.373V94.4545H402.228V92.2727H403.318V94.4545H406.155V95.4364H403.318V98.8291C403.318 99.2509 403.424 99.5636 403.635 99.7673C403.846 99.9709 404.158 100.073 404.573 100.073C404.849 100.073 405.108 100.055 405.348 100.018C405.588 99.9745 405.817 99.92 406.035 99.8545L406.253 100.847C406.006 100.92 405.74 100.978 405.457 101.022C405.18 101.073 404.864 101.098 404.508 101.098ZM413.817 99.56C413.621 100.105 413.323 100.502 412.923 100.749C412.523 100.989 411.908 101.109 411.079 101.109C410.214 101.109 409.541 100.902 409.061 100.487C408.581 100.065 408.341 99.4436 408.341 98.6218V96.8655C408.341 96.0218 408.592 95.3927 409.094 94.9782C409.603 94.5564 410.265 94.3455 411.079 94.3455C411.901 94.3455 412.559 94.56 413.054 94.9891C413.548 95.4109 413.795 96.0618 413.795 96.9418V97.9455H409.432V98.6327C409.432 99.1782 409.566 99.5745 409.835 99.8218C410.112 100.062 410.523 100.182 411.068 100.182C411.592 100.182 411.974 100.109 412.214 99.9636C412.454 99.8182 412.635 99.5818 412.759 99.2545L413.817 99.56ZM409.432 96.8655V97.1273H412.705V96.9636C412.705 96.3745 412.566 95.9455 412.29 95.6764C412.021 95.4073 411.614 95.2727 411.068 95.2727C410.523 95.2727 410.112 95.4036 409.835 95.6655C409.566 95.92 409.432 96.32 409.432 96.8655ZM416.527 101V94.4545H417.618V95.5455H417.945C418.098 95.1309 418.331 94.8291 418.643 94.64C418.956 94.4436 419.334 94.3455 419.778 94.3455C420.265 94.3455 420.672 94.5091 421 94.8364C421.327 95.1564 421.491 95.6109 421.491 96.2V97.1818H420.454V96.5927C420.454 96.1782 420.36 95.8727 420.171 95.6764C419.989 95.48 419.709 95.3818 419.331 95.3818C418.989 95.3818 418.676 95.4655 418.392 95.6327C418.116 95.8 417.858 96.0618 417.618 96.4182V101H416.527ZM425.564 100.171C425.942 100.171 426.291 100.105 426.611 99.9745C426.931 99.8364 427.208 99.6 427.44 99.2655V98.2182H425.477C425.164 98.2182 424.902 98.2909 424.691 98.4364C424.488 98.5745 424.386 98.8218 424.386 99.1782C424.386 99.4909 424.473 99.7345 424.648 99.9091C424.829 100.084 425.135 100.171 425.564 100.171ZM425.422 101.109C424.869 101.109 424.375 100.964 423.939 100.673C423.509 100.375 423.295 99.8982 423.295 99.2436C423.295 98.6691 423.48 98.2182 423.851 97.8909C424.229 97.5636 424.669 97.4 425.171 97.4H427.44V96.4618C427.44 96.1127 427.324 95.8364 427.091 95.6327C426.859 95.4291 426.506 95.3273 426.033 95.3273C425.553 95.3273 425.193 95.4 424.953 95.5455C424.72 95.6836 424.535 95.9964 424.397 96.4836L423.437 96.2218C423.56 95.6036 423.837 95.1382 424.266 94.8255C424.702 94.5055 425.284 94.3455 426.011 94.3455C426.731 94.3455 427.331 94.5091 427.811 94.8364C428.291 95.1564 428.531 95.6545 428.531 96.3309V99.2545C428.531 99.6473 428.64 99.8945 428.859 99.9964C429.077 100.091 429.404 100.102 429.84 100.029V101.033C429.389 101.098 428.964 101.069 428.564 100.945C428.171 100.815 427.957 100.469 427.92 99.9091H427.702C427.499 100.244 427.193 100.527 426.786 100.76C426.379 100.993 425.924 101.109 425.422 101.109ZM434.143 101.109C433.19 101.109 432.47 100.902 431.983 100.487C431.503 100.065 431.263 99.4473 431.263 98.6327V96.8655C431.263 96.0364 431.503 95.4109 431.983 94.9891C432.47 94.56 433.186 94.3455 434.132 94.3455C434.976 94.3455 435.623 94.5382 436.074 94.9236C436.532 95.3018 436.786 95.8582 436.837 96.5927L435.768 96.6582C435.739 96.2073 435.59 95.8727 435.321 95.6545C435.052 95.4364 434.652 95.3273 434.121 95.3273C433.525 95.3273 433.081 95.4545 432.79 95.7091C432.499 95.9564 432.354 96.3418 432.354 96.8655V98.6327C432.354 99.1345 432.499 99.5091 432.79 99.7564C433.088 100.004 433.539 100.127 434.143 100.127C434.666 100.127 435.063 100.036 435.332 99.8545C435.601 99.6655 435.746 99.3855 435.768 99.0145L436.837 99.08C436.786 99.7491 436.536 100.255 436.085 100.596C435.634 100.938 434.986 101.109 434.143 101.109ZM442.711 101.098C441.991 101.098 441.431 100.92 441.031 100.564C440.631 100.207 440.431 99.6618 440.431 98.9273V95.4364H438.576V94.4545H440.431V92.2727H441.522V94.4545H444.358V95.4364H441.522V98.8291C441.522 99.2509 441.627 99.5636 441.838 99.7673C442.049 99.9709 442.362 100.073 442.776 100.073C443.052 100.073 443.311 100.055 443.551 100.018C443.791 99.9745 444.02 99.92 444.238 99.8545L444.456 100.847C444.209 100.92 443.943 100.978 443.66 101.022C443.383 101.073 443.067 101.098 442.711 101.098ZM446.544 101V100.018H448.726V95.4364H446.544V94.4545H449.817V100.018H451.999V101H446.544ZM449.271 93.2545C448.995 93.2545 448.769 93.2109 448.595 93.1236C448.428 93.0364 448.344 92.8727 448.344 92.6327V92.5564C448.344 92.3091 448.428 92.1418 448.595 92.0545C448.769 91.96 448.995 91.9127 449.271 91.9127C449.548 91.9127 449.769 91.96 449.937 92.0545C450.111 92.1418 450.199 92.3091 450.199 92.5564V92.6327C450.199 92.8727 450.111 93.0364 449.937 93.1236C449.762 93.2109 449.54 93.2545 449.271 93.2545ZM457.588 101H456.225L453.901 94.4545H455.09L456.923 100.116L458.756 94.4545H459.912L457.588 101ZM467.302 99.56C467.105 100.105 466.807 100.502 466.407 100.749C466.007 100.989 465.393 101.109 464.563 101.109C463.698 101.109 463.025 100.902 462.545 100.487C462.065 100.065 461.825 99.4436 461.825 98.6218V96.8655C461.825 96.0218 462.076 95.3927 462.578 94.9782C463.087 94.5564 463.749 94.3455 464.563 94.3455C465.385 94.3455 466.043 94.56 466.538 94.9891C467.033 95.4109 467.28 96.0618 467.28 96.9418V97.9455H462.916V98.6327C462.916 99.1782 463.051 99.5745 463.32 99.8218C463.596 100.062 464.007 100.182 464.553 100.182C465.076 100.182 465.458 100.109 465.698 99.9636C465.938 99.8182 466.12 99.5818 466.243 99.2545L467.302 99.56ZM462.916 96.8655V97.1273H466.189V96.9636C466.189 96.3745 466.051 95.9455 465.774 95.6764C465.505 95.4073 465.098 95.2727 464.553 95.2727C464.007 95.2727 463.596 95.4036 463.32 95.6655C463.051 95.92 462.916 96.32 462.916 96.8655ZM290.105 119L288.818 113.796L287.531 119H286.44L285.262 110.273H286.342L287.127 117.396L288.273 112.455H289.418L290.564 117.396L291.349 110.273H292.375L291.196 119H290.105ZM293.732 119V118.018H295.913V113.436H293.732V112.455H297.004V118.018H299.186V119H293.732ZM296.459 111.255C296.182 111.255 295.957 111.211 295.782 111.124C295.615 111.036 295.532 110.873 295.532 110.633V110.556C295.532 110.309 295.615 110.142 295.782 110.055C295.957 109.96 296.182 109.913 296.459 109.913C296.735 109.913 296.957 109.96 297.124 110.055C297.299 110.142 297.386 110.309 297.386 110.556V110.633C297.386 110.873 297.299 111.036 297.124 111.124C296.95 111.211 296.728 111.255 296.459 111.255ZM301.372 119V112.455H302.463V113.545H302.79C302.95 113.175 303.201 112.884 303.543 112.673C303.885 112.455 304.274 112.345 304.71 112.345C305.365 112.345 305.881 112.545 306.259 112.945C306.638 113.345 306.827 113.891 306.827 114.582V119H305.736V114.8C305.736 114.342 305.623 113.993 305.398 113.753C305.179 113.505 304.863 113.382 304.449 113.382C304.121 113.382 303.787 113.48 303.445 113.676C303.11 113.873 302.783 114.156 302.463 114.527V119H301.372ZM311.413 118.073C311.769 118.073 312.107 117.978 312.427 117.789C312.747 117.6 313.064 117.313 313.376 116.927V113.72C313.151 113.582 312.911 113.48 312.656 113.415C312.402 113.342 312.129 113.305 311.838 113.305C311.249 113.305 310.813 113.436 310.529 113.698C310.246 113.953 310.104 114.342 310.104 114.865V116.622C310.104 117.109 310.213 117.473 310.431 117.713C310.649 117.953 310.976 118.073 311.413 118.073ZM313.049 117.909C312.86 118.287 312.598 118.582 312.264 118.793C311.929 119.004 311.555 119.109 311.14 119.109C310.464 119.109 309.94 118.891 309.569 118.455C309.198 118.018 309.013 117.407 309.013 116.622V114.844C309.013 114.051 309.26 113.436 309.755 113C310.249 112.564 310.94 112.345 311.827 112.345C312.082 112.345 312.344 112.375 312.613 112.433C312.882 112.484 313.136 112.556 313.376 112.651V110.273H314.467V119H313.376V117.909H313.049ZM319.381 119.109C318.501 119.109 317.824 118.898 317.352 118.476C316.886 118.047 316.653 117.433 316.653 116.633V114.865C316.653 114.058 316.89 113.436 317.363 113C317.835 112.564 318.512 112.345 319.392 112.345C320.264 112.345 320.933 112.564 321.399 113C321.872 113.436 322.108 114.058 322.108 114.865V116.633C322.108 117.433 321.872 118.047 321.399 118.476C320.933 118.898 320.261 119.109 319.381 119.109ZM319.381 118.127C319.933 118.127 320.344 118.004 320.613 117.756C320.883 117.509 321.017 117.135 321.017 116.633V114.865C321.017 114.342 320.883 113.956 320.613 113.709C320.344 113.455 319.933 113.327 319.381 113.327C318.828 113.327 318.417 113.455 318.148 113.709C317.879 113.956 317.744 114.342 317.744 114.865V116.633C317.744 117.135 317.879 117.509 318.148 117.756C318.417 118.004 318.828 118.127 319.381 118.127ZM327.981 119L327.021 114.735L326.105 119H324.861L323.629 112.455H324.676L325.505 118.204L326.356 113.545H327.643L328.57 118.029L329.367 112.455H330.414L329.181 119H327.981ZM334.226 115.727L333.898 110.273H335.426L335.098 115.727H334.226ZM334.673 119.109C334.309 119.109 334.04 119.036 333.866 118.891C333.698 118.738 333.615 118.505 333.615 118.193V117.887C333.615 117.567 333.698 117.331 333.866 117.178C334.04 117.025 334.309 116.949 334.673 116.949C335.036 116.949 335.302 117.025 335.469 117.178C335.636 117.331 335.72 117.567 335.72 117.887V118.193C335.72 118.505 335.633 118.738 335.458 118.891C335.291 119.036 335.029 119.109 334.673 119.109ZM343.393 114.636L343.066 110.273H344.812L344.484 114.636H343.393ZM340.121 114.636L339.793 110.273H341.539L341.212 114.636H340.121Z" fill="var(--vscode-debugTokenExpression-string, #CE9178)" />
    <path d="M349.954 119.109C349.59 119.109 349.296 119.029 349.07 118.869C348.845 118.702 348.732 118.44 348.732 118.084V117.778C348.732 117.422 348.845 117.16 349.07 116.993C349.296 116.818 349.59 116.731 349.954 116.731C350.318 116.731 350.609 116.818 350.827 116.993C351.052 117.16 351.165 117.422 351.165 117.778V118.084C351.165 118.44 351.052 118.702 350.827 118.869C350.601 119.029 350.31 119.109 349.954 119.109ZM354.595 119.109C354.231 119.109 353.937 119.029 353.711 118.869C353.486 118.702 353.373 118.44 353.373 118.084V117.778C353.373 117.422 353.486 117.16 353.711 116.993C353.937 116.818 354.231 116.731 354.595 116.731C354.958 116.731 355.249 116.818 355.467 116.993C355.693 117.16 355.806 117.422 355.806 117.778V118.084C355.806 118.44 355.693 118.702 355.467 118.869C355.242 119.029 354.951 119.109 354.595 119.109ZM359.235 119.109C358.872 119.109 358.577 119.029 358.352 118.869C358.126 118.702 358.014 118.44 358.014 118.084V117.778C358.014 117.422 358.126 117.16 358.352 116.993C358.577 116.818 358.872 116.731 359.235 116.731C359.599 116.731 359.89 116.818 360.108 116.993C360.334 117.16 360.446 117.422 360.446 117.778V118.084C360.446 118.44 360.334 118.702 360.108 118.869C359.883 119.029 359.592 119.109 359.235 119.109Z" fill="var(--vscode-editorCodeLens-foreground, #808080)" />
    <rect x="276" y="128" width="226" height="1" fill="var(--vscode-editorWidget-border, #3A3D41)" />
    <rect x="276" y="57" width="32" height="8" rx="4" fill="var(--vscode-editorOverviewRuler-commonContentForeground, #606060)" />
    <rect x="316" y="57" width="40" height="8" rx="4" fill="var(--vscode-editorOverviewRuler-commonContentForeground, #606060)" />
    <rect x="364" y="57" width="36" height="8" rx="4" fill="var(--vscode-editorOverviewRuler-commonContentForeground, #606060)" />
    <path d="M288.72 173.149C289.331 173.149 289.771 173.025 290.04 172.778C290.316 172.531 290.455 172.135 290.455 171.589V169.822C290.455 169.32 290.349 168.956 290.138 168.731C289.935 168.498 289.604 168.382 289.145 168.382C288.782 168.382 288.444 168.473 288.131 168.655C287.818 168.836 287.502 169.127 287.182 169.527V172.735C287.407 172.873 287.64 172.978 287.88 173.051C288.127 173.116 288.407 173.149 288.72 173.149ZM288.731 174.109C288.484 174.109 288.222 174.08 287.945 174.022C287.676 173.971 287.422 173.898 287.182 173.804V176.182H286.091V167.455H287.182V168.545H287.509C287.691 168.175 287.953 167.884 288.295 167.673C288.644 167.455 289.018 167.345 289.418 167.345C290.073 167.345 290.589 167.571 290.967 168.022C291.353 168.465 291.545 169.069 291.545 169.833V171.611C291.545 172.382 291.291 172.993 290.782 173.444C290.28 173.887 289.596 174.109 288.731 174.109ZM294.277 174V167.455H295.368V168.545H295.695C295.848 168.131 296.081 167.829 296.393 167.64C296.706 167.444 297.084 167.345 297.528 167.345C298.015 167.345 298.422 167.509 298.75 167.836C299.077 168.156 299.241 168.611 299.241 169.2V170.182H298.204V169.593C298.204 169.178 298.11 168.873 297.921 168.676C297.739 168.48 297.459 168.382 297.081 168.382C296.739 168.382 296.426 168.465 296.142 168.633C295.866 168.8 295.608 169.062 295.368 169.418V174H294.277ZM301.372 174V173.018H303.554V168.436H301.372V167.455H304.645V173.018H306.827V174H301.372ZM304.099 166.255C303.823 166.255 303.598 166.211 303.423 166.124C303.256 166.036 303.172 165.873 303.172 165.633V165.556C303.172 165.309 303.256 165.142 303.423 165.055C303.598 164.96 303.823 164.913 304.099 164.913C304.376 164.913 304.598 164.96 304.765 165.055C304.939 165.142 305.027 165.309 305.027 165.556V165.633C305.027 165.873 304.939 166.036 304.765 166.124C304.59 166.211 304.369 166.255 304.099 166.255ZM309.013 174V167.455H310.104V168.545H310.431C310.591 168.175 310.842 167.884 311.184 167.673C311.526 167.455 311.915 167.345 312.351 167.345C313.006 167.345 313.522 167.545 313.9 167.945C314.278 168.345 314.467 168.891 314.467 169.582V174H313.376V169.8C313.376 169.342 313.264 168.993 313.038 168.753C312.82 168.505 312.504 168.382 312.089 168.382C311.762 168.382 311.427 168.48 311.086 168.676C310.751 168.873 310.424 169.156 310.104 169.527V174H309.013ZM320.461 174.098C319.741 174.098 319.181 173.92 318.781 173.564C318.381 173.207 318.181 172.662 318.181 171.927V168.436H316.326V167.455H318.181V165.273H319.272V167.455H322.108V168.436H319.272V171.829C319.272 172.251 319.377 172.564 319.588 172.767C319.799 172.971 320.112 173.073 320.526 173.073C320.802 173.073 321.061 173.055 321.301 173.018C321.541 172.975 321.77 172.92 321.988 172.855L322.206 173.847C321.959 173.92 321.693 173.978 321.41 174.022C321.133 174.073 320.817 174.098 320.461 174.098Z" fill="#DCDCAA" />
    <path d="M329.203 176.291C328.061 176.022 327.138 175.4 326.432 174.425C325.734 173.451 325.385 172.218 325.385 170.727C325.385 169.236 325.734 168.004 326.432 167.029C327.138 166.055 328.061 165.433 329.203 165.164L329.312 166.015C328.338 166.284 327.621 166.847 327.163 167.705C326.705 168.556 326.476 169.564 326.476 170.727C326.476 171.891 326.705 172.902 327.163 173.76C327.621 174.611 328.338 175.171 329.312 175.44L329.203 176.291ZM332.502 169.309V174H331.498V167.455H332.502V168.327H332.72C332.858 168.022 333.04 167.782 333.266 167.607C333.491 167.433 333.727 167.345 333.975 167.345C334.258 167.345 334.495 167.433 334.684 167.607C334.88 167.775 335.015 168.015 335.087 168.327H335.327C335.466 168.022 335.651 167.782 335.884 167.607C336.124 167.433 336.378 167.345 336.647 167.345C337.011 167.345 337.298 167.495 337.509 167.793C337.72 168.084 337.826 168.48 337.826 168.982V174H336.822V169.156C336.822 168.829 336.778 168.582 336.691 168.415C336.604 168.247 336.476 168.164 336.309 168.164C336.171 168.164 335.996 168.265 335.786 168.469C335.582 168.673 335.375 168.953 335.164 169.309V174H334.16V169.156C334.16 168.829 334.113 168.582 334.018 168.415C333.931 168.247 333.804 168.164 333.636 168.164C333.491 168.164 333.32 168.262 333.124 168.458C332.935 168.655 332.727 168.938 332.502 169.309ZM342.39 174.109C341.837 174.109 341.303 174.029 340.786 173.869C340.27 173.702 339.793 173.447 339.357 173.105L339.848 172.244C340.204 172.535 340.601 172.756 341.037 172.909C341.481 173.055 341.932 173.127 342.39 173.127C342.768 173.127 343.128 173.069 343.47 172.953C343.819 172.836 343.993 172.589 343.993 172.211C343.993 171.898 343.852 171.676 343.568 171.545C343.284 171.415 342.764 171.302 342.008 171.207C341.208 171.113 340.601 170.927 340.186 170.651C339.779 170.367 339.575 169.924 339.575 169.32C339.575 168.665 339.823 168.175 340.317 167.847C340.812 167.513 341.386 167.345 342.041 167.345C342.557 167.345 343.052 167.433 343.524 167.607C344.004 167.782 344.448 168.029 344.855 168.349L344.364 169.211C344.03 168.942 343.666 168.727 343.273 168.567C342.881 168.407 342.47 168.327 342.041 168.327C341.692 168.327 341.372 168.393 341.081 168.524C340.797 168.655 340.655 168.895 340.655 169.244C340.655 169.542 340.786 169.76 341.048 169.898C341.317 170.029 341.83 170.142 342.586 170.236C343.415 170.331 344.037 170.535 344.452 170.847C344.866 171.153 345.073 171.582 345.073 172.135C345.073 172.818 344.797 173.32 344.244 173.64C343.692 173.953 343.073 174.109 342.39 174.109ZM353.216 174.524C353.216 175.113 352.998 175.553 352.561 175.844C352.132 176.142 351.605 176.291 350.98 176.291H348.929C348.274 176.291 347.732 176.16 347.303 175.898C346.881 175.636 346.67 175.233 346.67 174.687C346.67 174.338 346.761 174.062 346.943 173.858C347.132 173.647 347.405 173.527 347.761 173.498V173.269C347.507 173.225 347.296 173.12 347.129 172.953C346.969 172.785 346.889 172.527 346.889 172.178C346.889 171.865 346.987 171.585 347.183 171.338C347.38 171.084 347.71 170.938 348.176 170.902V170.695C347.82 170.578 347.58 170.404 347.456 170.171C347.332 169.931 347.27 169.702 347.27 169.484V169.189C347.27 168.687 347.485 168.273 347.914 167.945C348.343 167.618 348.947 167.455 349.725 167.455H352.943V168.436L351.252 168.185V168.382C351.543 168.462 351.761 168.615 351.907 168.84C352.06 169.065 352.136 169.291 352.136 169.516V169.8C352.136 170.302 351.943 170.709 351.558 171.022C351.172 171.327 350.547 171.48 349.681 171.48H348.361C348.165 171.48 348.016 171.531 347.914 171.633C347.812 171.727 347.761 171.891 347.761 172.124C347.761 172.349 347.83 172.52 347.969 172.636C348.114 172.745 348.329 172.8 348.612 172.8H351.089C351.7 172.8 352.205 172.935 352.605 173.204C353.012 173.473 353.216 173.913 353.216 174.524ZM349.725 170.651C350.169 170.651 350.507 170.571 350.74 170.411C350.972 170.251 351.089 170 351.089 169.658V169.309C351.089 168.967 350.972 168.72 350.74 168.567C350.507 168.407 350.169 168.327 349.725 168.327C349.281 168.327 348.943 168.407 348.71 168.567C348.478 168.72 348.361 168.967 348.361 169.309V169.658C348.361 170 348.478 170.251 348.71 170.411C348.943 170.571 349.281 170.651 349.725 170.651ZM348.907 175.418H351.121C351.449 175.418 351.714 175.356 351.918 175.233C352.121 175.109 352.223 174.895 352.223 174.589C352.223 174.298 352.129 174.091 351.94 173.967C351.758 173.844 351.521 173.782 351.23 173.782H347.761V174.524C347.761 174.822 347.86 175.044 348.056 175.189C348.252 175.342 348.536 175.418 348.907 175.418ZM355.402 176.291L355.293 175.44C356.267 175.171 356.984 174.607 357.442 173.749C357.9 172.884 358.129 171.876 358.129 170.727C358.129 169.578 357.9 168.575 357.442 167.716C356.984 166.851 356.267 166.284 355.293 166.015L355.402 165.164C356.544 165.433 357.464 166.058 358.162 167.04C358.867 168.015 359.22 169.244 359.22 170.727C359.22 172.211 358.867 173.44 358.162 174.415C357.464 175.396 356.544 176.022 355.402 176.291Z" fill="var(--vscode-editor-foreground, #D4D4D4)" />
    <path d="M365.235 174.109C364.872 174.109 364.577 174.029 364.352 173.869C364.126 173.702 364.014 173.44 364.014 173.084V172.778C364.014 172.422 364.126 172.16 364.352 171.993C364.577 171.818 364.872 171.731 365.235 171.731C365.599 171.731 365.89 171.818 366.108 171.993C366.334 172.16 366.446 172.422 366.446 172.778V173.084C366.446 173.44 366.334 173.702 366.108 173.869C365.883 174.029 365.592 174.109 365.235 174.109ZM369.876 174.109C369.512 174.109 369.218 174.029 368.992 173.869C368.767 173.702 368.654 173.44 368.654 173.084V172.778C368.654 172.422 368.767 172.16 368.992 171.993C369.218 171.818 369.512 171.731 369.876 171.731C370.24 171.731 370.531 171.818 370.749 171.993C370.974 172.16 371.087 172.422 371.087 172.778V173.084C371.087 173.44 370.974 173.702 370.749 173.869C370.523 174.029 370.232 174.109 369.876 174.109ZM374.517 174.109C374.153 174.109 373.858 174.029 373.633 173.869C373.408 173.702 373.295 173.44 373.295 173.084V172.778C373.295 172.422 373.408 172.16 373.633 171.993C373.858 171.818 374.153 171.731 374.517 171.731C374.88 171.731 375.171 171.818 375.389 171.993C375.615 172.16 375.728 172.422 375.728 172.778V173.084C375.728 173.44 375.615 173.702 375.389 173.869C375.164 174.029 374.873 174.109 374.517 174.109Z" fill="var(--vscode-editorCodeLens-foreground, #808080)" />
    <rect x="276" y="183" width="226" height="1" fill="var(--vscode-editorWidget-border, #3A3D41)" />
    <path d="M286.091 201V192.273H287.182V195.764H290.455V192.273H291.545V201H290.455V196.745H287.182V201H286.091ZM299.208 199.56C299.012 200.105 298.713 200.502 298.313 200.749C297.913 200.989 297.299 201.109 296.47 201.109C295.604 201.109 294.932 200.902 294.452 200.487C293.972 200.065 293.732 199.444 293.732 198.622V196.865C293.732 196.022 293.982 195.393 294.484 194.978C294.993 194.556 295.655 194.345 296.47 194.345C297.292 194.345 297.95 194.56 298.444 194.989C298.939 195.411 299.186 196.062 299.186 196.942V197.945H294.822V198.633C294.822 199.178 294.957 199.575 295.226 199.822C295.502 200.062 295.913 200.182 296.459 200.182C296.982 200.182 297.364 200.109 297.604 199.964C297.844 199.818 298.026 199.582 298.15 199.255L299.208 199.56ZM294.822 196.865V197.127H298.095V196.964C298.095 196.375 297.957 195.945 297.681 195.676C297.412 195.407 297.004 195.273 296.459 195.273C295.913 195.273 295.502 195.404 295.226 195.665C294.957 195.92 294.822 196.32 294.822 196.865ZM301.372 201V200.018H303.554V193.255H301.372V192.273H304.645V200.018H306.827V201H301.372ZM309.013 201V200.018H311.195V193.255H309.013V192.273H312.286V200.018H314.467V201H309.013ZM319.381 201.109C318.501 201.109 317.824 200.898 317.352 200.476C316.886 200.047 316.653 199.433 316.653 198.633V196.865C316.653 196.058 316.89 195.436 317.363 195C317.835 194.564 318.512 194.345 319.392 194.345C320.264 194.345 320.933 194.564 321.399 195C321.872 195.436 322.108 196.058 322.108 196.865V198.633C322.108 199.433 321.872 200.047 321.399 200.476C320.933 200.898 320.261 201.109 319.381 201.109ZM319.381 200.127C319.933 200.127 320.344 200.004 320.613 199.756C320.883 199.509 321.017 199.135 321.017 198.633V196.865C321.017 196.342 320.883 195.956 320.613 195.709C320.344 195.455 319.933 195.327 319.381 195.327C318.828 195.327 318.417 195.455 318.148 195.709C317.879 195.956 317.744 196.342 317.744 196.865V198.633C317.744 199.135 317.879 199.509 318.148 199.756C318.417 200.004 318.828 200.127 319.381 200.127ZM331.935 201V200.018H334.116V193.255H331.935V192.273H337.389V193.255H335.207V200.018H337.389V201H331.935ZM339.575 201V194.455H340.666V195.545H340.993C341.153 195.175 341.404 194.884 341.746 194.673C342.088 194.455 342.477 194.345 342.913 194.345C343.568 194.345 344.084 194.545 344.463 194.945C344.841 195.345 345.03 195.891 345.03 196.582V201H343.939V196.8C343.939 196.342 343.826 195.993 343.601 195.753C343.383 195.505 343.066 195.382 342.652 195.382C342.324 195.382 341.99 195.48 341.648 195.676C341.313 195.873 340.986 196.156 340.666 196.527V201H339.575ZM351.023 201.098C350.303 201.098 349.743 200.92 349.343 200.564C348.943 200.207 348.743 199.662 348.743 198.927V195.436H346.889V194.455H348.743V192.273H349.834V194.455H352.67V195.436H349.834V198.829C349.834 199.251 349.94 199.564 350.15 199.767C350.361 199.971 350.674 200.073 351.089 200.073C351.365 200.073 351.623 200.055 351.863 200.018C352.103 199.975 352.332 199.92 352.55 199.855L352.769 200.847C352.521 200.92 352.256 200.978 351.972 201.022C351.696 201.073 351.38 201.098 351.023 201.098ZM360.333 199.56C360.137 200.105 359.838 200.502 359.438 200.749C359.038 200.989 358.424 201.109 357.595 201.109C356.729 201.109 356.057 200.902 355.577 200.487C355.097 200.065 354.857 199.444 354.857 198.622V196.865C354.857 196.022 355.107 195.393 355.609 194.978C356.118 194.556 356.78 194.345 357.595 194.345C358.417 194.345 359.075 194.56 359.569 194.989C360.064 195.411 360.311 196.062 360.311 196.942V197.945H355.947V198.633C355.947 199.178 356.082 199.575 356.351 199.822C356.627 200.062 357.038 200.182 357.584 200.182C358.107 200.182 358.489 200.109 358.729 199.964C358.969 199.818 359.151 199.582 359.275 199.255L360.333 199.56ZM355.947 196.865V197.127H359.22V196.964C359.22 196.375 359.082 195.945 358.806 195.676C358.537 195.407 358.129 195.273 357.584 195.273C357.038 195.273 356.627 195.404 356.351 195.665C356.082 195.92 355.947 196.32 355.947 196.865ZM363.043 201V194.455H364.134V195.545H364.461C364.614 195.131 364.846 194.829 365.159 194.64C365.472 194.444 365.85 194.345 366.294 194.345C366.781 194.345 367.188 194.509 367.515 194.836C367.843 195.156 368.006 195.611 368.006 196.2V197.182H366.97V196.593C366.97 196.178 366.875 195.873 366.686 195.676C366.504 195.48 366.224 195.382 365.846 195.382C365.504 195.382 365.192 195.465 364.908 195.633C364.632 195.8 364.374 196.062 364.134 196.418V201H363.043ZM372.08 200.171C372.458 200.171 372.807 200.105 373.127 199.975C373.447 199.836 373.723 199.6 373.956 199.265V198.218H371.992C371.68 198.218 371.418 198.291 371.207 198.436C371.003 198.575 370.901 198.822 370.901 199.178C370.901 199.491 370.989 199.735 371.163 199.909C371.345 200.084 371.651 200.171 372.08 200.171ZM371.938 201.109C371.385 201.109 370.891 200.964 370.454 200.673C370.025 200.375 369.811 199.898 369.811 199.244C369.811 198.669 369.996 198.218 370.367 197.891C370.745 197.564 371.185 197.4 371.687 197.4H373.956V196.462C373.956 196.113 373.84 195.836 373.607 195.633C373.374 195.429 373.021 195.327 372.549 195.327C372.069 195.327 371.709 195.4 371.469 195.545C371.236 195.684 371.051 195.996 370.912 196.484L369.952 196.222C370.076 195.604 370.352 195.138 370.781 194.825C371.218 194.505 371.8 194.345 372.527 194.345C373.247 194.345 373.847 194.509 374.327 194.836C374.807 195.156 375.047 195.655 375.047 196.331V199.255C375.047 199.647 375.156 199.895 375.374 199.996C375.592 200.091 375.92 200.102 376.356 200.029V201.033C375.905 201.098 375.48 201.069 375.08 200.945C374.687 200.815 374.472 200.469 374.436 199.909H374.218C374.014 200.244 373.709 200.527 373.301 200.76C372.894 200.993 372.44 201.109 371.938 201.109ZM380.658 201.109C379.706 201.109 378.986 200.902 378.498 200.487C378.018 200.065 377.778 199.447 377.778 198.633V196.865C377.778 196.036 378.018 195.411 378.498 194.989C378.986 194.56 379.702 194.345 380.648 194.345C381.491 194.345 382.138 194.538 382.589 194.924C383.048 195.302 383.302 195.858 383.353 196.593L382.284 196.658C382.255 196.207 382.106 195.873 381.837 195.655C381.568 195.436 381.168 195.327 380.637 195.327C380.04 195.327 379.597 195.455 379.306 195.709C379.015 195.956 378.869 196.342 378.869 196.865V198.633C378.869 199.135 379.015 199.509 379.306 199.756C379.604 200.004 380.055 200.127 380.658 200.127C381.182 200.127 381.578 200.036 381.848 199.855C382.117 199.665 382.262 199.385 382.284 199.015L383.353 199.08C383.302 199.749 383.051 200.255 382.6 200.596C382.149 200.938 381.502 201.109 380.658 201.109ZM389.226 201.098C388.506 201.098 387.946 200.92 387.546 200.564C387.146 200.207 386.946 199.662 386.946 198.927V195.436H385.092V194.455H386.946V192.273H388.037V194.455H390.874V195.436H388.037V198.829C388.037 199.251 388.143 199.564 388.354 199.767C388.564 199.971 388.877 200.073 389.292 200.073C389.568 200.073 389.826 200.055 390.066 200.018C390.306 199.975 390.535 199.92 390.754 199.855L390.972 200.847C390.724 200.92 390.459 200.978 390.175 201.022C389.899 201.073 389.583 201.098 389.226 201.098ZM393.06 201V200.018H395.241V195.436H393.06V194.455H396.332V200.018H398.514V201H393.06ZM395.787 193.255C395.511 193.255 395.285 193.211 395.111 193.124C394.943 193.036 394.86 192.873 394.86 192.633V192.556C394.86 192.309 394.943 192.142 395.111 192.055C395.285 191.96 395.511 191.913 395.787 191.913C396.063 191.913 396.285 191.96 396.452 192.055C396.627 192.142 396.714 192.309 396.714 192.556V192.633C396.714 192.873 396.627 193.036 396.452 193.124C396.278 193.211 396.056 193.255 395.787 193.255ZM404.104 201H402.74L400.417 194.455H401.606L403.438 200.116L405.271 194.455H406.428L404.104 201ZM413.817 199.56C413.621 200.105 413.323 200.502 412.923 200.749C412.523 200.989 411.908 201.109 411.079 201.109C410.214 201.109 409.541 200.902 409.061 200.487C408.581 200.065 408.341 199.444 408.341 198.622V196.865C408.341 196.022 408.592 195.393 409.094 194.978C409.603 194.556 410.265 194.345 411.079 194.345C411.901 194.345 412.559 194.56 413.054 194.989C413.548 195.411 413.795 196.062 413.795 196.942V197.945H409.432V198.633C409.432 199.178 409.566 199.575 409.835 199.822C410.112 200.062 410.523 200.182 411.068 200.182C411.592 200.182 411.974 200.109 412.214 199.964C412.454 199.818 412.635 199.582 412.759 199.255L413.817 199.56ZM409.432 196.865V197.127H412.705V196.964C412.705 196.375 412.566 195.945 412.29 195.676C412.021 195.407 411.614 195.273 411.068 195.273C410.523 195.273 410.112 195.404 409.835 195.665C409.566 195.92 409.432 196.32 409.432 196.865ZM427.637 201L426.349 195.796L425.062 201H423.971L422.793 192.273H423.873L424.659 199.396L425.804 194.455H426.949L428.095 199.396L428.88 192.273H429.906L428.728 201H427.637ZM431.263 201V200.018H433.445V195.436H431.263V194.455H434.536V200.018H436.717V201H431.263ZM433.99 193.255C433.714 193.255 433.488 193.211 433.314 193.124C433.146 193.036 433.063 192.873 433.063 192.633V192.556C433.063 192.309 433.146 192.142 433.314 192.055C433.488 191.96 433.714 191.913 433.99 191.913C434.266 191.913 434.488 191.96 434.656 192.055C434.83 192.142 434.917 192.309 434.917 192.556V192.633C434.917 192.873 434.83 193.036 434.656 193.124C434.481 193.211 434.259 193.255 433.99 193.255ZM438.903 201V194.455H439.994V195.545H440.322C440.482 195.175 440.733 194.884 441.074 194.673C441.416 194.455 441.805 194.345 442.242 194.345C442.896 194.345 443.413 194.545 443.791 194.945C444.169 195.345 444.358 195.891 444.358 196.582V201H443.267V196.8C443.267 196.342 443.154 195.993 442.929 195.753C442.711 195.505 442.394 195.382 441.98 195.382C441.653 195.382 441.318 195.48 440.976 195.676C440.642 195.873 440.314 196.156 439.994 196.527V201H438.903ZM448.944 200.073C449.3 200.073 449.639 199.978 449.959 199.789C450.279 199.6 450.595 199.313 450.908 198.927V195.72C450.682 195.582 450.442 195.48 450.188 195.415C449.933 195.342 449.66 195.305 449.369 195.305C448.78 195.305 448.344 195.436 448.06 195.698C447.777 195.953 447.635 196.342 447.635 196.865V198.622C447.635 199.109 447.744 199.473 447.962 199.713C448.18 199.953 448.508 200.073 448.944 200.073ZM450.58 199.909C450.391 200.287 450.129 200.582 449.795 200.793C449.46 201.004 449.086 201.109 448.671 201.109C447.995 201.109 447.471 200.891 447.1 200.455C446.729 200.018 446.544 199.407 446.544 198.622V196.844C446.544 196.051 446.791 195.436 447.286 195C447.78 194.564 448.471 194.345 449.359 194.345C449.613 194.345 449.875 194.375 450.144 194.433C450.413 194.484 450.668 194.556 450.908 194.651V192.273H451.999V201H450.908V199.909H450.58ZM456.912 201.109C456.032 201.109 455.356 200.898 454.883 200.476C454.417 200.047 454.185 199.433 454.185 198.633V196.865C454.185 196.058 454.421 195.436 454.894 195C455.366 194.564 456.043 194.345 456.923 194.345C457.796 194.345 458.465 194.564 458.93 195C459.403 195.436 459.639 196.058 459.639 196.865V198.633C459.639 199.433 459.403 200.047 458.93 200.476C458.465 200.898 457.792 201.109 456.912 201.109ZM456.912 200.127C457.465 200.127 457.876 200.004 458.145 199.756C458.414 199.509 458.548 199.135 458.548 198.633V196.865C458.548 196.342 458.414 195.956 458.145 195.709C457.876 195.455 457.465 195.327 456.912 195.327C456.359 195.327 455.948 195.455 455.679 195.709C455.41 195.956 455.276 196.342 455.276 196.865V198.633C455.276 199.135 455.41 199.509 455.679 199.756C455.948 200.004 456.359 200.127 456.912 200.127ZM465.513 201L464.553 196.735L463.636 201H462.393L461.16 194.455H462.207L463.036 200.204L463.887 195.545H465.174L466.102 200.029L466.898 194.455H467.945L466.713 201H465.513ZM471.757 197.727L471.43 192.273H472.957L472.63 197.727H471.757ZM472.204 201.109C471.84 201.109 471.571 201.036 471.397 200.891C471.23 200.738 471.146 200.505 471.146 200.193V199.887C471.146 199.567 471.23 199.331 471.397 199.178C471.571 199.025 471.84 198.949 472.204 198.949C472.568 198.949 472.833 199.025 473 199.178C473.168 199.331 473.251 199.567 473.251 199.887V200.193C473.251 200.505 473.164 200.738 472.99 200.891C472.822 201.036 472.56 201.109 472.204 201.109Z" fill="var(--vscode-menu-foreground, #CCCCCC)" />
    <path d="M279.787 306.973L278.987 307.4V319.4L279.787 319.827L288.8 313.853V313L279.787 306.973ZM280 318.493V308.36L287.627 313.427L280 318.493Z" fill="var(--vscode-menu-foreground, #CCCCCC)" />
    <rect x="304.5" y="300.5" width="193" height="25" fill="var(--vscode-sideBar-background, #303031)" />
    <rect x="304.5" y="300.5" width="193" height="25" stroke="var(--vscode-editorGroup-border, #424750)" />
    <path d="M436.081 57.2495V65H437.284V62.3521H439.078C440.598 62.3521 441.672 61.3101 441.672 59.8169C441.672 58.2915 440.63 57.2495 439.115 57.2495H436.081ZM437.284 58.2646H438.798C439.856 58.2646 440.442 58.8125 440.442 59.8169C440.442 60.7891 439.835 61.3423 438.798 61.3423H437.284V58.2646ZM443.853 67.1162C445.045 67.1162 445.598 66.6704 446.098 65.2686L448.278 59.167H447.054L445.593 63.8398H445.501L444.035 59.167H442.778L444.895 65.0161L444.809 65.3169C444.61 65.9346 444.298 66.1655 443.75 66.1655C443.643 66.1655 443.466 66.1602 443.375 66.144V67.0894C443.482 67.1055 443.756 67.1162 443.853 67.1162ZM449.868 57.6953V59.1831H448.939V60.1069H449.868V63.4639C449.868 64.5864 450.378 65.0376 451.662 65.0376C451.888 65.0376 452.103 65.0107 452.291 64.9785V64.0601C452.129 64.0762 452.027 64.0869 451.85 64.0869C451.275 64.0869 451.023 63.813 451.023 63.1846V60.1069H452.291V59.1831H451.023V57.6953H449.868ZM453.703 65H454.858V61.584C454.858 60.6709 455.384 60.064 456.33 60.064C457.146 60.064 457.581 60.542 457.581 61.5034V65H458.736V61.2295C458.736 59.8491 457.968 59.0596 456.722 59.0596C455.841 59.0596 455.223 59.4463 454.938 60.0962H454.847V56.8789H453.703V65ZM462.834 65.1128C464.542 65.1128 465.589 63.9688 465.589 62.0835C465.589 60.1982 464.537 59.0542 462.834 59.0542C461.126 59.0542 460.073 60.2036 460.073 62.0835C460.073 63.9688 461.121 65.1128 462.834 65.1128ZM462.834 64.1299C461.83 64.1299 461.266 63.3833 461.266 62.0835C461.266 60.7837 461.83 60.0317 462.834 60.0317C463.833 60.0317 464.402 60.7837 464.402 62.0835C464.402 63.3779 463.833 64.1299 462.834 64.1299ZM466.98 65H468.135V61.5786C468.135 60.6387 468.678 60.0586 469.532 60.0586C470.386 60.0586 470.794 60.5312 470.794 61.498V65H471.949V61.2241C471.949 59.833 471.229 59.0542 469.924 59.0542C469.043 59.0542 468.463 59.4463 468.178 60.0908H468.092V59.167H466.98V65ZM478.297 61.4927H479.264C480.274 61.4927 480.897 62.0083 480.897 62.8354C480.897 63.6411 480.231 64.1782 479.28 64.1782C478.34 64.1782 477.69 63.6895 477.621 62.9268H476.466C476.53 64.291 477.658 65.188 479.296 65.188C480.913 65.188 482.132 64.2212 482.132 62.8999C482.132 61.8364 481.466 61.1489 480.435 60.9932V60.9019C481.246 60.6763 481.832 60.0586 481.837 59.124C481.842 58.0229 480.935 57.0615 479.334 57.0615C477.701 57.0615 476.691 58.0015 476.611 59.3174H477.75C477.819 58.5063 478.383 58.0498 479.264 58.0498C480.134 58.0498 480.65 58.5923 480.65 59.2744C480.65 60.021 480.07 60.5474 479.232 60.5474H478.297V61.4927ZM484.152 65.0806C484.608 65.0806 484.941 64.7422 484.941 64.3071C484.941 63.8721 484.608 63.5337 484.152 63.5337C483.701 63.5337 483.362 63.8721 483.362 64.3071C483.362 64.7422 483.701 65.0806 484.152 65.0806ZM488.889 65.1826C490.828 65.1826 491.961 63.6465 491.961 61.0146C491.961 58.415 490.715 57.0615 488.938 57.0615C487.294 57.0615 486.128 58.1841 486.128 59.7578C486.128 61.251 487.203 62.3413 488.68 62.3413C489.598 62.3413 490.339 61.9116 490.71 61.1704H490.801C490.769 63.0933 490.087 64.1675 488.9 64.1675C488.191 64.1675 487.638 63.7808 487.455 63.1416H486.241C486.472 64.3877 487.514 65.1826 488.889 65.1826ZM488.943 61.3691C487.987 61.3691 487.326 60.6978 487.326 59.7202C487.326 58.7856 488.024 58.0659 488.954 58.0659C489.877 58.0659 490.576 58.7964 490.576 59.7524C490.576 60.6924 489.894 61.3691 488.943 61.3691ZM493.895 65.0806C494.352 65.0806 494.685 64.7422 494.685 64.3071C494.685 63.8721 494.352 63.5337 493.895 63.5337C493.444 63.5337 493.105 63.8721 493.105 64.3071C493.105 64.7422 493.444 65.0806 493.895 65.0806ZM496.752 65H498.015L501.388 58.2915V57.2495H496.108V58.2646H500.168V58.3506L496.752 65Z" fill="var(--vscode-menu-foreground, #CCCCCC)" />
    <rect width="1" height="329" transform="translate(263 10)" fill="var(--vscode-editorGroup-border, #333333)" />
  </g>
  <defs>
    <filter id="filter0_d_30214690" x="0" y="0" width="526" height="353" filterUnits="userSpaceOnUse" color-interpolation-filters="sRGB">
      <feFlood flood-opacity="0" result="BackgroundImageFix" />
      <feColorMatrix in="SourceAlpha" type="matrix" values="0 0 0 0 0 0 0 0 0 0 0 0 0 0 0 0 0 0 127 0" result="hardAlpha" />
      <feOffset dy="2" />
      <feGaussianBlur stdDeviation="6" />
      <feColorMatrix type="matrix" values="0 0 0 0 0 0 0 0 0 0 0 0 0 0 0 0 0 0 0.6 0" />
      <feBlend mode="normal" in2="BackgroundImageFix" result="effect1_dropShadow_30214690" />
      <feBlend mode="normal" in="SourceGraphic" in2="effect1_dropShadow_30214690" result="shape" />
    </filter>
    <clipPath id="clip0_30214690">
      <rect width="114.931" height="39.2998" fill="var(--vscode-list-activeSelectionIconForeground, #FFFFFF)" transform="translate(12 10)" />
    </clipPath>
    <clipPath id="clip1_30214690">
      <rect width="143.931" height="39.2998" fill="var(--vscode-list-activeSelectionIconForeground, #FFFFFF)" transform="translate(264 10)" />
    </clipPath>
    <clipPath id="clip2_30214690">
      <rect width="143.931" height="39.2998" fill="var(--vscode-list-activeSelectionIconForeground, #FFFFFF)" transform="translate(264 10)" />
    </clipPath>
  </defs>
</svg>