<svg width="537" height="324" viewBox="0 0 537 324" fill="none" xmlns="http://www.w3.org/2000/svg">
<rect x="386" y="261" width="77" height="59" rx="2" stroke="var(--vscode-dropdown-border, #3c3c3c)" stroke-width="2" stroke-linecap="round" stroke-dasharray="5 5"/>
<rect x="1" y="1" width="379" height="267" rx="2" stroke="var(--vscode-dropdown-border, #3c3c3c)" stroke-width="2" stroke-linecap="round" stroke-dasharray="5 5"/>
<g filter="url(#filter0_d)">
<g clip-path="url(#clip0)">
<rect x="21" y="23" width="431" height="287" rx="4" fill="var(--vscode-editor-background, #1e1e1e)"/>
<path d="M21 27C21 24.7909 22.7909 23 25 23H448C450.209 23 452 24.7909 452 27V43H21V27Z" fill="var(--vscode-titleBar-activeBackground, #303031)"/>
<rect width="72" height="15" transform="translate(63 28)" fill="var(--vscode-tab-activeBackground, #1e1e1e)"/>
<rect x="71.4062" y="33" width="55.3408" height="4.90362" rx="2.45181" fill="var(--vscode-foreground)" fill-opacity="0.25"/>
<circle cx="50.4108" cy="33.4265" r="2.42647" fill="#40C8AE"/>
<circle cx="41.9206" cy="33.4265" r="2.42647" fill="#D7BA7D"/>
<circle cx="33.4265" cy="33.427" r="2.42647" fill="#F14C4C"/>
<rect x="48" y="217" width="303" height="8" rx="4" fill="var(--vscode-tab-activeForeground)" fill-opacity="0.16"/>
<rect x="48" y="232" width="212.281" height="8" rx="4" fill="var(--vscode-tab-activeForeground)" fill-opacity="0.16"/>
<rect x="267.281" y="232" width="58.0599" height="8" rx="4" fill="var(--vscode-textLink-foreground, #007ACC)"/>
<rect x="48" y="272" width="99.7904" height="8" rx="4" fill="var(--vscode-tab-activeForeground)" fill-opacity="0.16"/>
<rect x="48" y="287" width="50" height="8" rx="4" fill="var(--vscode-tab-activeForeground)" fill-opacity="0.16"/>
<rect x="170" y="287" width="181" height="8" rx="4" fill="var(--vscode-tab-activeForeground)" fill-opacity="0.16"/>
<rect x="105" y="287" width="58.0599" height="8" rx="4" fill="var(--vscode-textLink-foreground, #007ACC)"/>
<rect x="48" y="132" width="160" height="8" rx="4" fill="var(--vscode-tab-activeForeground)" fill-opacity="0.16"/>
<rect x="280" y="132" width="71" height="8" rx="4" fill="var(--vscode-tab-activeForeground)" fill-opacity="0.16"/>
<rect x="215" y="132" width="58.0599" height="8" rx="4" fill="var(--vscode-textLink-foreground, #007ACC)"/>
<rect x="48" y="162" width="281.228" height="8" rx="4" fill="var(--vscode-tab-activeForeground)" fill-opacity="0.16"/>
<rect x="48" y="177" width="100" height="8" rx="4" fill="#6C6CC4"/>
<rect x="48" y="147" width="303" height="8" rx="4" fill="var(--vscode-tab-activeForeground)" fill-opacity="0.16"/>
<g filter="url(#filter1_d)">
<mask id="mask0" mask-type="alpha" maskUnits="userSpaceOnUse" x="49" y="60" width="14" height="14">
<path fill-rule="evenodd" clip-rule="evenodd" d="M58.9277 73.9044C59.1482 73.9903 59.3996 73.9848 59.6221 73.8777L62.5045 72.4908C62.8074 72.3451 63 72.0385 63 71.7022V62.2979C63 61.9616 62.8074 61.6551 62.5045 61.5093L59.6221 60.1224C59.3301 59.9818 58.9882 60.0162 58.7319 60.2026C58.6953 60.2292 58.6604 60.259 58.6277 60.2917L53.1097 65.3258L50.7062 63.5014C50.4825 63.3315 50.1695 63.3455 49.9617 63.5345L49.1908 64.2357C48.9366 64.4669 48.9364 64.8668 49.1902 65.0984L51.2746 67L49.1902 68.9017C48.9364 69.1333 48.9366 69.5332 49.1908 69.7644L49.9617 70.4656C50.1695 70.6546 50.4825 70.6685 50.7062 70.4987L53.1097 68.6743L58.6277 73.7084C58.7149 73.7957 58.8174 73.8615 58.9277 73.9044ZM59.5021 63.8219L55.3153 67L59.5021 70.1782V63.8219Z" fill="white"/>
</mask>
<g mask="url(#mask0)">
<path d="M62.5053 61.5114L59.6207 60.1225C59.2868 59.9617 58.8877 60.0295 58.6257 60.2916L49.1825 68.9016C48.9285 69.1331 48.9288 69.533 49.1831 69.7642L49.9545 70.4655C50.1624 70.6545 50.4756 70.6684 50.6994 70.4986L62.0712 61.8717C62.4527 61.5823 63.0007 61.8544 63.0007 62.3332V62.2998C63.0007 61.9636 62.8081 61.6572 62.5053 61.5114Z" fill="#0065A9"/>
<g filter="url(#filter2_d)">
<path d="M62.5053 72.4886L59.6207 73.8775C59.2868 74.0383 58.8877 73.9705 58.6257 73.7084L49.1825 65.0984C48.9285 64.8668 48.9288 64.467 49.1831 64.2357L49.9545 63.5345C50.1624 63.3455 50.4756 63.3316 50.6994 63.5014L62.0712 72.1283C62.4527 72.4177 63.0007 72.1456 63.0007 71.6667V71.7002C63.0007 72.0364 62.8081 72.3428 62.5053 72.4886Z" fill="#007ACC"/>
</g>
<g filter="url(#filter3_d)">
<path d="M59.6201 73.8777C59.2861 74.0384 58.8871 73.9704 58.625 73.7084C58.9479 74.0313 59.5 73.8026 59.5 73.3459V60.6541C59.5 60.1975 58.9479 59.9688 58.625 60.2917C58.8871 60.0296 59.2861 59.9617 59.6201 60.1224L62.5042 61.5093C62.8073 61.6551 63 61.9616 63 62.2979V71.7022C63 72.0385 62.8073 72.3451 62.5042 72.4908L59.6201 73.8777Z" fill="#1F9CF0"/>
</g>
<g style="mix-blend-mode:overlay" opacity="0.25">
<path fill-rule="evenodd" clip-rule="evenodd" d="M58.9199 73.9044C59.1403 73.9903 59.3918 73.9848 59.6143 73.8777L62.4967 72.4908C62.7996 72.3451 62.9922 72.0385 62.9922 71.7022V62.2979C62.9922 61.9616 62.7996 61.6551 62.4967 61.5093L59.6143 60.1224C59.3223 59.9818 58.9804 60.0162 58.7241 60.2026C58.6875 60.2292 58.6526 60.259 58.6198 60.2917L53.1019 65.3258L50.6984 63.5014C50.4747 63.3315 50.1617 63.3455 49.9539 63.5345L49.183 64.2357C48.9288 64.4669 48.9285 64.8668 49.1824 65.0984L51.2668 67L49.1824 68.9017C48.9285 69.1333 48.9288 69.5332 49.183 69.7644L49.9539 70.4656C50.1617 70.6546 50.4747 70.6685 50.6984 70.4987L53.1019 68.6742L58.6198 73.7084C58.7071 73.7957 58.8096 73.8615 58.9199 73.9044ZM59.4943 63.8219L55.3075 67L59.4943 70.1782V63.8219Z" fill="url(#paint0_linear)"/>
</g>
</g>
</g>
<path d="M50.2598 87.6807V106H53.5352V99.9443H57.5088C61.2158 99.9443 63.8057 97.4688 63.8057 93.8506C63.8057 90.1689 61.3047 87.6807 57.6484 87.6807H50.2598ZM53.5352 90.3594H56.7852C59.1465 90.3594 60.4795 91.5781 60.4795 93.8506C60.4795 96.0596 59.1084 97.3037 56.7725 97.3037H53.5352V90.3594ZM68.9727 111.027C72.083 111.027 73.5684 109.897 74.749 106.482L79.7637 92.124H76.4375L73.2002 103.017H72.9844L69.7344 92.124H66.2812L71.2451 106.051L71.0801 106.698C70.6738 108.006 69.9248 108.514 68.5918 108.514C68.376 108.514 67.9062 108.501 67.7285 108.476V110.977C67.9316 111.015 68.7822 111.027 68.9727 111.027ZM83.4834 88.7217V92.2129H81.2871V94.6631H83.4834V102.318C83.4834 104.997 84.7529 106.063 87.9395 106.063C88.5488 106.063 89.1328 106.013 89.5898 105.924V103.512C89.209 103.55 88.9678 103.575 88.5234 103.575C87.2031 103.575 86.6191 102.953 86.6191 101.569V94.6631H89.5898V92.2129H86.6191V88.7217H83.4834ZM92.8652 106H96.0137V97.9385C96.0137 95.9072 97.1689 94.5488 99.2383 94.5488C101.066 94.5488 102.031 95.6406 102.031 97.7861V106H105.18V97.0498C105.18 93.749 103.377 91.8701 100.406 91.8701C98.3369 91.8701 96.8516 92.8096 96.1914 94.3711H95.9629V86.7539H92.8652V106ZM114.904 106.279C119.056 106.279 121.582 103.562 121.582 99.0557C121.582 94.5742 119.043 91.8574 114.904 91.8574C110.778 91.8574 108.227 94.5869 108.227 99.0557C108.227 103.562 110.74 106.279 114.904 106.279ZM114.904 103.702C112.708 103.702 111.451 102.001 111.451 99.0684C111.451 96.1357 112.708 94.4346 114.904 94.4346C117.088 94.4346 118.345 96.1357 118.345 99.0684C118.345 102.001 117.101 103.702 114.904 103.702ZM124.756 106H127.904V97.9131C127.904 95.8311 129.085 94.5234 130.964 94.5234C132.881 94.5234 133.77 95.6025 133.77 97.7607V106H136.918V97.0244C136.918 93.7236 135.229 91.8574 132.132 91.8574C130.062 91.8574 128.666 92.7969 128.006 94.3457H127.79V92.124H124.756V106ZM149.182 89.8008C150.223 89.8008 151.073 88.9756 151.073 87.9346C151.073 86.9062 150.223 86.0684 149.182 86.0684C148.153 86.0684 147.303 86.9062 147.303 87.9346C147.303 88.9756 148.153 89.8008 149.182 89.8008ZM147.62 106H150.756V92.124H147.62V106ZM154.666 106H157.814V97.9131C157.814 95.8311 158.995 94.5234 160.874 94.5234C162.791 94.5234 163.68 95.6025 163.68 97.7607V106H166.828V97.0244C166.828 93.7236 165.14 91.8574 162.042 91.8574C159.973 91.8574 158.576 92.7969 157.916 94.3457H157.7V92.124H154.666V106ZM186.633 106L192.968 87.6807H189.477L184.906 102.255H184.69L180.082 87.6807H176.464L182.862 106H186.633ZM195.113 101.036C195.278 104.35 198.059 106.457 202.261 106.457C206.704 106.457 209.459 104.248 209.459 100.693C209.459 97.9131 207.897 96.3643 204.178 95.5137L202.07 95.0312C199.798 94.498 198.871 93.7744 198.871 92.5176C198.871 90.9307 200.268 89.8896 202.375 89.8896C204.381 89.8896 205.803 90.918 206.031 92.5557H209.167C209.015 89.4199 206.234 87.2236 202.388 87.2236C198.287 87.2236 195.57 89.4326 195.57 92.7334C195.57 95.4502 197.132 97.0879 200.458 97.8496L202.832 98.3955C205.181 98.9414 206.184 99.7539 206.184 101.087C206.184 102.648 204.622 103.778 202.464 103.778C200.141 103.778 198.516 102.712 198.312 101.036H195.113ZM227.715 106.457C231.942 106.457 235.04 103.956 235.472 100.249H232.247C231.803 102.306 230.038 103.613 227.715 103.613C224.592 103.613 222.649 101.011 222.649 96.834C222.649 92.6699 224.592 90.0674 227.702 90.0674C230.013 90.0674 231.777 91.502 232.234 93.7109H235.459C235.078 89.915 231.866 87.2236 227.702 87.2236C222.51 87.2236 219.298 90.8926 219.298 96.8467C219.298 102.775 222.522 106.457 227.715 106.457ZM244.777 106.279C248.929 106.279 251.455 103.562 251.455 99.0557C251.455 94.5742 248.916 91.8574 244.777 91.8574C240.651 91.8574 238.1 94.5869 238.1 99.0557C238.1 103.562 240.613 106.279 244.777 106.279ZM244.777 103.702C242.581 103.702 241.324 102.001 241.324 99.0684C241.324 96.1357 242.581 94.4346 244.777 94.4346C246.961 94.4346 248.218 96.1357 248.218 99.0684C248.218 102.001 246.974 103.702 244.777 103.702ZM259.656 106.229C261.586 106.229 263.186 105.327 263.973 103.804H264.188V106H267.235V86.7539H264.087V94.333H263.871C263.135 92.8096 261.561 91.8955 259.656 91.8955C256.152 91.8955 253.943 94.6631 253.943 99.0557C253.943 103.461 256.14 106.229 259.656 106.229ZM260.634 94.5234C262.792 94.5234 264.125 96.2627 264.125 99.0684C264.125 101.887 262.805 103.613 260.634 103.613C258.476 103.613 257.168 101.912 257.168 99.0684C257.168 96.2373 258.488 94.5234 260.634 94.5234ZM280.261 102.204C279.804 103.245 278.725 103.829 277.163 103.829C275.094 103.829 273.761 102.356 273.685 100.008V99.8428H283.384V98.8398C283.384 94.4854 281.01 91.8574 277.049 91.8574C273.024 91.8574 270.523 94.6631 270.523 99.1191C270.523 103.562 272.986 106.279 277.074 106.279C280.35 106.279 282.673 104.705 283.244 102.204H280.261ZM277.036 94.3076C278.928 94.3076 280.172 95.6406 280.235 97.748H273.697C273.837 95.666 275.157 94.3076 277.036 94.3076Z" fill="var(--vscode-tab-activeForeground)"/>
</g>
</g>
<rect x="422" y="235" width="65" height="43" fill="var(--vscode-editor-background, #1e1e1e)"/>
<path d="M419.067 232.79L421.467 230.123H486.533L488.933 232.79V277.59L486.533 280.256H421.467L419.067 277.59V232.79ZM424.133 237.856V275.19H484.133V237.856L455.6 259.723H452.4L424.133 237.856ZM479.067 235.19H428.933L454 254.656L479.067 235.19Z" fill="var(--vscode-foreground, #CCCCCC)"/>
<path d="M529.238 159.867H464.172L461.772 162.533V207.6L464.172 210H476.705V222.533L480.972 224.4L495.372 210H529.238L531.638 207.6V162.533L529.238 159.867ZM526.838 204.933H494.305L492.438 205.733L481.772 216.4V207.6L479.105 204.933H466.838V164.933H526.838V204.933Z" fill="var(--vscode-foreground, #CCCCCC)"/>
<defs>
<filter id="filter0_d" x="9" y="13" width="455" height="311" filterUnits="userSpaceOnUse" color-interpolation-filters="sRGB">
<feFlood flood-opacity="0" result="BackgroundImageFix"/>
<feColorMatrix in="SourceAlpha" type="matrix" values="0 0 0 0 0 0 0 0 0 0 0 0 0 0 0 0 0 0 127 0" result="hardAlpha"/>
<feOffset dy="2"/>
<feGaussianBlur stdDeviation="6"/>
<feColorMatrix type="matrix" values="0 0 0 0 0 0 0 0 0 0 0 0 0 0 0 0 0 0 0.6 0"/>
<feBlend mode="normal" in2="BackgroundImageFix" result="effect1_dropShadow"/>
<feBlend mode="normal" in="SourceGraphic" in2="effect1_dropShadow" result="shape"/>
</filter>
<filter id="filter1_d" x="47.1284" y="58.7523" width="17.7432" height="17.7432" filterUnits="userSpaceOnUse" color-interpolation-filters="sRGB">
<feFlood flood-opacity="0" result="BackgroundImageFix"/>
<feColorMatrix in="SourceAlpha" type="matrix" values="0 0 0 0 0 0 0 0 0 0 0 0 0 0 0 0 0 0 127 0" result="hardAlpha"/>
<feOffset dy="0.623874"/>
<feGaussianBlur stdDeviation="0.935811"/>
<feColorMatrix type="matrix" values="0 0 0 0 0 0 0 0 0 0 0 0 0 0 0 0 0 0 0.25 0"/>
<feBlend mode="normal" in2="BackgroundImageFix" result="effect1_dropShadow"/>
<feBlend mode="normal" in="SourceGraphic" in2="effect1_dropShadow" result="shape"/>
</filter>
<filter id="filter2_d" x="44.6251" y="59.0157" width="22.7427" height="19.3153" filterUnits="userSpaceOnUse" color-interpolation-filters="sRGB">
<feFlood flood-opacity="0" result="BackgroundImageFix"/>
<feColorMatrix in="SourceAlpha" type="matrix" values="0 0 0 0 0 0 0 0 0 0 0 0 0 0 0 0 0 0 127 0" result="hardAlpha"/>
<feOffset/>
<feGaussianBlur stdDeviation="2.18356"/>
<feColorMatrix type="matrix" values="0 0 0 0 0 0 0 0 0 0 0 0 0 0 0 0 0 0 0.25 0"/>
<feBlend mode="overlay" in2="BackgroundImageFix" result="effect1_dropShadow"/>
<feBlend mode="normal" in="SourceGraphic" in2="effect1_dropShadow" result="shape"/>
</filter>
<filter id="filter3_d" x="54.2579" y="55.669" width="13.1092" height="22.6621" filterUnits="userSpaceOnUse" color-interpolation-filters="sRGB">
<feFlood flood-opacity="0" result="BackgroundImageFix"/>
<feColorMatrix in="SourceAlpha" type="matrix" values="0 0 0 0 0 0 0 0 0 0 0 0 0 0 0 0 0 0 127 0" result="hardAlpha"/>
<feOffset/>
<feGaussianBlur stdDeviation="2.18356"/>
<feColorMatrix type="matrix" values="0 0 0 0 0 0 0 0 0 0 0 0 0 0 0 0 0 0 0.25 0"/>
<feBlend mode="overlay" in2="BackgroundImageFix" result="effect1_dropShadow"/>
<feBlend mode="normal" in="SourceGraphic" in2="effect1_dropShadow" result="shape"/>
</filter>
<linearGradient id="paint0_linear" x1="55.9922" y1="60.0361" x2="55.9922" y2="73.964" gradientUnits="userSpaceOnUse">
<stop stop-color="white"/>
<stop offset="1" stop-color="white" stop-opacity="0"/>
</linearGradient>
<clipPath id="clip0">
<rect x="21" y="23" width="431" height="287" rx="4" fill="white"/>
</clipPath>
</defs>
</svg>
