<svg width="410" height="370" viewBox="0 0 410 370" fill="none" xmlns="http://www.w3.org/2000/svg">
  <g clip-path="url(#clip0_30514464)">
    <rect width="198" height="318" transform="translate(212 24)" fill="var(--vscode-editor-background, #1E1E1E)" />
    <rect width="336" height="35" transform="translate(212 24)" fill="var(--vscode-editorGroupHeader-tabsBackground, #252526)" />
    <rect width="103" height="35" transform="translate(212 24)" fill="var(--vscode-editor-background, #1E1E1E)" />
    <rect x="224" y="38" width="79" height="7" rx="3.5" fill="var(--vscode-editor-foreground, #FFFFFF)" fill-opacity="0.12" />
    <rect x="255" y="77" width="55" height="7" rx="3.5" fill="var(--vscode-editor-foreground, #FFFFFF)" fill-opacity="0.16" />
    <rect x="255" y="96" width="55" height="7" rx="3.5" fill="var(--vscode-editor-foreground, #FFFFFF)" fill-opacity="0.16" />
    <rect x="255" y="153" width="72" height="7" rx="3.5" fill="var(--vscode-editor-foreground, #FFFFFF)" fill-opacity="0.16" />
    <rect x="333" y="153" width="26" height="7" rx="3.5" fill="var(--vscode-editor-foreground, #FFFFFF)" fill-opacity="0.16" />
    <rect x="255" y="273" width="72" height="7" rx="3.5" fill="var(--vscode-editor-foreground, #FFFFFF)" fill-opacity="0.16" />
    <rect x="333" y="273" width="26" height="7" rx="3.5" fill="var(--vscode-editor-foreground, #FFFFFF)" fill-opacity="0.16" />
    <rect x="272" y="172" width="30" height="7" rx="3.5" fill="var(--vscode-editor-foreground, #FFFFFF)" fill-opacity="0.16" />
    <rect x="282" y="191" width="30" height="7" rx="3.5" fill="var(--vscode-editor-foreground, #FFFFFF)" fill-opacity="0.16" />
    <rect x="318" y="191" width="41" height="7" rx="3.5" fill="var(--vscode-editor-foreground, #FFFFFF)" fill-opacity="0.16" />
    <rect x="272" y="210" width="30" height="7" rx="3.5" fill="var(--vscode-editor-foreground, #FFFFFF)" fill-opacity="0.16" />
    <rect x="263" y="229" width="31" height="7" rx="3.5" fill="var(--vscode-editor-foreground, #FFFFFF)" fill-opacity="0.16" />
    <rect x="316" y="77" width="52" height="7" rx="3.5" fill="var(--vscode-editor-foreground, #FFFFFF)" fill-opacity="0.16" />
    <rect x="316" y="96" width="74" height="7" rx="3.5" fill="var(--vscode-editor-foreground, #FFFFFF)" fill-opacity="0.16" />
    <rect x="309" y="172" width="59" height="7" rx="3.5" fill="var(--vscode-editor-foreground, #FFFFFF)" fill-opacity="0.16" />
  </g>
  <g filter="url(#filter0_d_30514464)">
    <rect x="13" y="11" width="212.268" height="344" fill="var(--vscode-sideBar-background, #292929)" />
    <path d="M34.8806 39.7488H31.8019V37.7511H34.716V36.9236H31.8019V35.0461H34.8806V34.1875H30.8053V40.6074H34.8806V39.7488ZM35.9128 40.6074H37.0161L38.6133 38.1916H38.689L40.2639 40.6074H41.4296L39.2896 37.4086L41.4696 34.1875H40.3485L38.7602 36.6389H38.6845L37.1229 34.1875H35.935L38.0572 37.3774L35.9128 40.6074ZM42.6753 34.1875V40.6074H43.6719V38.414H45.1579C46.4169 38.414 47.3067 37.5509 47.3067 36.3141C47.3067 35.0506 46.4436 34.1875 45.189 34.1875H42.6753ZM43.6719 35.0283H44.9265C45.803 35.0283 46.2879 35.4821 46.2879 36.3141C46.2879 37.1194 45.7852 37.5776 44.9265 37.5776H43.6719V35.0283ZM52.5967 39.7399H49.5891V34.1875H48.5925V40.6074H52.5967V39.7399ZM56.3561 34.0317C54.5142 34.0317 53.3574 35.3264 53.3574 37.3952C53.3574 39.4596 54.4875 40.7631 56.3561 40.7631C58.2113 40.7631 59.3503 39.4551 59.3503 37.3952C59.3503 35.3309 58.2024 34.0317 56.3561 34.0317ZM56.3561 34.9127C57.5707 34.9127 58.3315 35.8736 58.3315 37.3952C58.3315 38.9034 57.5751 39.8822 56.3561 39.8822C55.1193 39.8822 54.3763 38.9034 54.3763 37.3952C54.3763 35.8736 55.1415 34.9127 56.3561 34.9127ZM61.6994 38.1382H63.1053L64.4133 40.6074H65.5656L64.1241 37.9825C64.9071 37.72 65.3698 37.017 65.3698 36.1495C65.3698 34.9527 64.5379 34.1875 63.2432 34.1875H60.7028V40.6074H61.6994V38.1382ZM61.6994 35.0239H63.1053C63.875 35.0239 64.3466 35.4554 64.3466 36.1717C64.3466 36.9058 63.9017 37.3196 63.132 37.3196H61.6994V35.0239ZM70.8644 39.7488H67.7857V37.7511H70.6998V36.9236H67.7857V35.0461H70.8644V34.1875H66.7891V40.6074H70.8644V39.7488ZM73.3025 38.1382H74.7084L76.0164 40.6074H77.1687L75.7272 37.9825C76.5102 37.72 76.9729 37.017 76.9729 36.1495C76.9729 34.9527 76.141 34.1875 74.8463 34.1875H72.3059V40.6074H73.3025V38.1382ZM73.3025 35.0239H74.7084C75.478 35.0239 75.9496 35.4554 75.9496 36.1717C75.9496 36.9058 75.5047 37.3196 74.7351 37.3196H73.3025V35.0239ZM79.0239 37.3329C79.4021 37.3329 79.6779 37.0526 79.6779 36.6923C79.6779 36.3319 79.4021 36.0516 79.0239 36.0516C78.6502 36.0516 78.3699 36.3319 78.3699 36.6923C78.3699 37.0526 78.6502 37.3329 79.0239 37.3329ZM79.0239 40.6742C79.4021 40.6742 79.6779 40.3939 79.6779 40.0335C79.6779 39.6731 79.4021 39.3928 79.0239 39.3928C78.6502 39.3928 78.3699 39.6731 78.3699 40.0335C78.3699 40.3939 78.6502 40.6742 79.0239 40.6742ZM90.2533 40.6074V34.1875H89.0876L87.0411 39.2104H86.9655L84.9233 34.1875H83.7577V40.6074H84.6831V35.9048H84.7454L86.6273 40.4917H87.3837L89.2656 35.9048H89.3279V40.6074H90.2533ZM94.6311 40.6074V37.978L96.8957 34.1875H95.7879L94.1729 36.9859H94.0973L92.4823 34.1875H91.3745L93.6346 37.978V40.6074H94.6311ZM100.179 38.463V37.5776H97.2605V38.463H100.179ZM105.674 40.6074H106.733L104.415 34.1875H103.342L101.024 40.6074H102.048L102.639 38.8723H105.086L105.674 40.6074ZM103.827 35.322H103.903L104.833 38.0715H102.893L103.827 35.322ZM107.854 34.1875V40.6074H108.85V38.414H110.336C111.595 38.414 112.485 37.5509 112.485 36.3141C112.485 35.0506 111.622 34.1875 110.367 34.1875H107.854ZM108.85 35.0283H110.105C110.981 35.0283 111.466 35.4821 111.466 36.3141C111.466 37.1194 110.964 37.5776 110.105 37.5776H108.85V35.0283ZM113.771 34.1875V40.6074H114.767V38.414H116.253C117.513 38.414 118.402 37.5509 118.402 36.3141C118.402 35.0506 117.539 34.1875 116.285 34.1875H113.771ZM114.767 35.0283H116.022C116.899 35.0283 117.384 35.4821 117.384 36.3141C117.384 37.1194 116.881 37.5776 116.022 37.5776H114.767V35.0283Z" fill="var(--vscode-foreground, #CCCCCC)" />
    <path d="M35.984 65.1001L40.336 60.7481L40.96 61.3721L36.288 66.0281H35.664L31.008 61.3721L31.616 60.7481L35.984 65.1001Z" fill="var(--vscode-foreground, #808080)" />
    <rect x="52" y="59.5361" width="42" height="7" rx="3.5" fill="var(--vscode-foreground, #FFFFFF)" fill-opacity="0.16" />
    <path d="M47.984 89.1001L52.336 84.7481L52.96 85.3721L48.288 90.0281H47.664L43.008 85.3721L43.616 84.7481L47.984 89.1001Z" fill="var(--vscode-foreground, #808080)" />
    <rect x="64" y="83.5361" width="42" height="7" rx="3.5" fill="var(--vscode-foreground, #FFFFFF)" fill-opacity="0.16" />
    <rect width="210.268" height="24" transform="translate(14 99.0361)" fill="var(--vscode-list-activeSelectionBackground, #062F4A)" />
    <path d="M47.76 110.716H46.5C46.06 110.716 45.7067 110.849 45.44 111.116C45.1867 111.369 45.06 111.716 45.06 112.156V113.276C45.06 113.409 45 113.476 44.88 113.476H44.32C43.7333 113.476 43.3133 113.223 43.06 112.716C42.86 112.303 42.76 111.929 42.76 111.596C42.68 110.769 42.74 110.083 42.94 109.536C43.1533 108.896 43.5467 108.523 44.12 108.416H47.74C47.8733 108.416 47.94 108.396 47.94 108.356V108.036L47.86 107.996C47.8067 107.983 47.7733 107.976 47.76 107.976H45.62C45.5267 107.976 45.46 107.956 45.42 107.916C45.3933 107.876 45.38 107.809 45.38 107.716V106.916C45.38 106.449 45.5667 106.156 45.94 106.036C46.3533 105.863 46.6667 105.756 46.88 105.716C47.68 105.583 48.4267 105.603 49.12 105.776C49.4667 105.856 49.76 105.983 50 106.156C50.1467 106.303 50.2467 106.436 50.3 106.556C50.38 106.703 50.4067 106.863 50.38 107.036V109.276C50.38 109.716 50.26 110.056 50.02 110.296C49.78 110.536 49.44 110.656 49 110.656C48.7067 110.696 48.2933 110.716 47.76 110.716ZM46 106.976C46 107.109 46.0467 107.229 46.14 107.336C46.2333 107.429 46.3467 107.476 46.48 107.476C46.6133 107.476 46.7333 107.423 46.84 107.316C46.9467 107.209 47 107.096 47 106.976C47 106.856 46.9467 106.749 46.84 106.656C46.7467 106.563 46.6333 106.503 46.5 106.476C46.3533 106.476 46.2333 106.529 46.14 106.636C46.0467 106.729 46 106.843 46 106.976ZM48.26 111.356H49.5C49.94 111.356 50.2867 111.229 50.54 110.976C50.8067 110.709 50.94 110.356 50.94 109.916V108.776C50.94 108.656 51 108.596 51.12 108.596H51.68C52.2667 108.596 52.6867 108.849 52.94 109.356C53.1533 109.769 53.26 110.143 53.26 110.476C53.3267 111.303 53.26 111.989 53.06 112.536C52.8467 113.176 52.4533 113.549 51.88 113.656H48.26C48.1267 113.656 48.06 113.676 48.06 113.716V114.036L48.14 114.076C48.1933 114.089 48.2333 114.096 48.26 114.096H50.38C50.4733 114.096 50.5333 114.116 50.56 114.156C50.6 114.196 50.62 114.263 50.62 114.356V115.156C50.62 115.623 50.4333 115.916 50.06 116.036C49.6467 116.196 49.3333 116.303 49.12 116.356C48.32 116.489 47.5733 116.463 46.88 116.276C46.5333 116.209 46.24 116.089 46 115.916C45.8533 115.769 45.7533 115.636 45.7 115.516C45.62 115.369 45.5933 115.209 45.62 115.036V112.776C45.62 112.349 45.74 112.016 45.98 111.776C46.22 111.536 46.56 111.416 47 111.416C47.2933 111.376 47.7133 111.356 48.26 111.356ZM50 115.096C50 114.963 49.9533 114.849 49.86 114.756C49.7667 114.649 49.6533 114.596 49.52 114.596C49.3867 114.596 49.2667 114.649 49.16 114.756C49.0533 114.863 49 114.976 49 115.096C49 115.216 49.0467 115.323 49.14 115.416C49.2467 115.509 49.3667 115.569 49.5 115.596C49.6467 115.596 49.7667 115.549 49.86 115.456C49.9533 115.349 50 115.229 50 115.096Z" fill="#519ABA" />
    <path d="M66.9009 115.15C67.8086 115.15 68.564 114.757 68.9766 114.059H69.0845V115.036H70.3984V110.32C70.3984 108.873 69.4209 108.009 67.688 108.009C66.1201 108.009 65.0029 108.765 64.8633 109.926H66.1836C66.3359 109.425 66.8628 109.139 67.6245 109.139C68.5576 109.139 69.04 109.564 69.04 110.32V110.923L67.1675 111.037C65.5234 111.139 64.5967 111.856 64.5967 113.094C64.5967 114.351 65.5679 115.15 66.9009 115.15ZM67.25 114.052C66.5073 114.052 65.9678 113.678 65.9678 113.037C65.9678 112.408 66.3994 112.072 67.3516 112.008L69.04 111.894V112.491C69.04 113.379 68.2783 114.052 67.25 114.052ZM75.9272 108.022C74.9878 108.022 74.1753 108.498 73.7563 109.285H73.6548V108.143H72.3408V117.334H73.7056V113.995H73.8135C74.1753 114.725 74.9561 115.15 75.9399 115.15C77.6855 115.15 78.7964 113.767 78.7964 111.589C78.7964 109.399 77.6855 108.022 75.9272 108.022ZM75.54 113.982C74.3975 113.982 73.6802 113.062 73.6802 111.589C73.6802 110.11 74.3975 109.19 75.5464 109.19C76.7017 109.19 77.3936 110.091 77.3936 111.589C77.3936 113.087 76.7017 113.982 75.54 113.982ZM84.0269 108.022C83.0874 108.022 82.2749 108.498 81.856 109.285H81.7544V108.143H80.4404V117.334H81.8052V113.995H81.9131C82.2749 114.725 83.0557 115.15 84.0396 115.15C85.7852 115.15 86.896 113.767 86.896 111.589C86.896 109.399 85.7852 108.022 84.0269 108.022ZM83.6396 113.982C82.4971 113.982 81.7798 113.062 81.7798 111.589C81.7798 110.11 82.4971 109.19 83.646 109.19C84.8013 109.19 85.4932 110.091 85.4932 111.589C85.4932 113.087 84.8013 113.982 83.6396 113.982ZM89.4478 115.131C89.9873 115.131 90.3809 114.731 90.3809 114.217C90.3809 113.703 89.9873 113.303 89.4478 113.303C88.9146 113.303 88.5146 113.703 88.5146 114.217C88.5146 114.731 88.9146 115.131 89.4478 115.131ZM96.0747 108.022C95.1353 108.022 94.3228 108.498 93.9038 109.285H93.8022V108.143H92.4883V117.334H93.853V113.995H93.9609C94.3228 114.725 95.1035 115.15 96.0874 115.15C97.833 115.15 98.9438 113.767 98.9438 111.589C98.9438 109.399 97.833 108.022 96.0747 108.022ZM95.6875 113.982C94.5449 113.982 93.8276 113.062 93.8276 111.589C93.8276 110.11 94.5449 109.19 95.6938 109.19C96.8491 109.19 97.541 110.091 97.541 111.589C97.541 113.087 96.8491 113.982 95.6875 113.982ZM101.007 117.537C102.416 117.537 103.07 117.01 103.66 115.354L106.237 108.143H104.79L103.063 113.665H102.956L101.223 108.143H99.7373L102.238 115.055L102.137 115.411C101.902 116.141 101.534 116.414 100.886 116.414C100.759 116.414 100.55 116.407 100.442 116.388V117.505C100.569 117.524 100.893 117.537 101.007 117.537Z" fill="var(--vscode-list-activeSelectionForeground, #FFFFFF)" />
    <path d="M47.76 134.716H46.5C46.06 134.716 45.7067 134.849 45.44 135.116C45.1867 135.369 45.06 135.716 45.06 136.156V137.276C45.06 137.409 45 137.476 44.88 137.476H44.32C43.7333 137.476 43.3133 137.223 43.06 136.716C42.86 136.303 42.76 135.929 42.76 135.596C42.68 134.769 42.74 134.083 42.94 133.536C43.1533 132.896 43.5467 132.523 44.12 132.416H47.74C47.8733 132.416 47.94 132.396 47.94 132.356V132.036L47.86 131.996C47.8067 131.983 47.7733 131.976 47.76 131.976H45.62C45.5267 131.976 45.46 131.956 45.42 131.916C45.3933 131.876 45.38 131.809 45.38 131.716V130.916C45.38 130.449 45.5667 130.156 45.94 130.036C46.3533 129.863 46.6667 129.756 46.88 129.716C47.68 129.583 48.4267 129.603 49.12 129.776C49.4667 129.856 49.76 129.983 50 130.156C50.1467 130.303 50.2467 130.436 50.3 130.556C50.38 130.703 50.4067 130.863 50.38 131.036V133.276C50.38 133.716 50.26 134.056 50.02 134.296C49.78 134.536 49.44 134.656 49 134.656C48.7067 134.696 48.2933 134.716 47.76 134.716ZM46 130.976C46 131.109 46.0467 131.229 46.14 131.336C46.2333 131.429 46.3467 131.476 46.48 131.476C46.6133 131.476 46.7333 131.423 46.84 131.316C46.9467 131.209 47 131.096 47 130.976C47 130.856 46.9467 130.749 46.84 130.656C46.7467 130.563 46.6333 130.503 46.5 130.476C46.3533 130.476 46.2333 130.529 46.14 130.636C46.0467 130.729 46 130.843 46 130.976ZM48.26 135.356H49.5C49.94 135.356 50.2867 135.229 50.54 134.976C50.8067 134.709 50.94 134.356 50.94 133.916V132.776C50.94 132.656 51 132.596 51.12 132.596H51.68C52.2667 132.596 52.6867 132.849 52.94 133.356C53.1533 133.769 53.26 134.143 53.26 134.476C53.3267 135.303 53.26 135.989 53.06 136.536C52.8467 137.176 52.4533 137.549 51.88 137.656H48.26C48.1267 137.656 48.06 137.676 48.06 137.716V138.036L48.14 138.076C48.1933 138.089 48.2333 138.096 48.26 138.096H50.38C50.4733 138.096 50.5333 138.116 50.56 138.156C50.6 138.196 50.62 138.263 50.62 138.356V139.156C50.62 139.623 50.4333 139.916 50.06 140.036C49.6467 140.196 49.3333 140.303 49.12 140.356C48.32 140.489 47.5733 140.463 46.88 140.276C46.5333 140.209 46.24 140.089 46 139.916C45.8533 139.769 45.7533 139.636 45.7 139.516C45.62 139.369 45.5933 139.209 45.62 139.036V136.776C45.62 136.349 45.74 136.016 45.98 135.776C46.22 135.536 46.56 135.416 47 135.416C47.2933 135.376 47.7133 135.356 48.26 135.356ZM50 139.096C50 138.963 49.9533 138.849 49.86 138.756C49.7667 138.649 49.6533 138.596 49.52 138.596C49.3867 138.596 49.2667 138.649 49.16 138.756C49.0533 138.863 49 138.976 49 139.096C49 139.216 49.0467 139.323 49.14 139.416C49.2467 139.509 49.3667 139.569 49.5 139.596C49.6467 139.596 49.7667 139.549 49.86 139.456C49.9533 139.349 50 139.229 50 139.096Z" fill="#519ABA" />
    <path d="M65.4727 130.403V132.162H64.3745V133.253H65.4727V137.221C65.4727 138.547 66.0757 139.081 67.5928 139.081C67.8594 139.081 68.1133 139.049 68.3354 139.011V137.925C68.145 137.944 68.0244 137.957 67.8149 137.957C67.1357 137.957 66.8374 137.633 66.8374 136.891V133.253H68.3354V132.162H66.8374V130.403H65.4727ZM74.3975 137.189C74.1436 137.748 73.5786 138.052 72.7534 138.052C71.6616 138.052 70.957 137.265 70.9126 136.015V135.951H75.7939V135.481C75.7939 133.323 74.6323 132.009 72.709 132.009C70.7603 132.009 69.5225 133.412 69.5225 135.602C69.5225 137.805 70.7349 139.169 72.7153 139.169C74.2959 139.169 75.4131 138.408 75.7114 137.189H74.3975ZM72.7026 133.12C73.7119 133.12 74.3721 133.85 74.4038 134.967H70.9126C70.9888 133.856 71.6934 133.12 72.7026 133.12ZM77.2729 134.072C77.2729 135.094 77.8823 135.678 79.1963 135.983L80.4023 136.269C81.0942 136.434 81.418 136.713 81.418 137.145C81.418 137.709 80.8149 138.103 79.9644 138.103C79.1392 138.103 78.6313 137.767 78.46 137.227H77.0952C77.2158 138.427 78.2886 139.169 79.9326 139.169C81.583 139.169 82.7954 138.3 82.7954 137.018C82.7954 136.015 82.1797 135.45 80.8657 135.145L79.7168 134.878C78.9678 134.701 78.6187 134.434 78.6187 134.009C78.6187 133.45 79.1963 133.076 79.958 133.076C80.7324 133.076 81.2275 133.412 81.3545 133.926H82.6621C82.5288 132.733 81.5132 132.009 79.958 132.009C78.3965 132.009 77.2729 132.873 77.2729 134.072ZM84.8711 130.403V132.162H83.7729V133.253H84.8711V137.221C84.8711 138.547 85.4741 139.081 86.9912 139.081C87.2578 139.081 87.5117 139.049 87.7339 139.011V137.925C87.5435 137.944 87.4229 137.957 87.2134 137.957C86.5342 137.957 86.2358 137.633 86.2358 136.891V133.253H87.7339V132.162H86.2358V130.403H84.8711ZM89.0796 134.072C89.0796 135.094 89.689 135.678 91.0029 135.983L92.209 136.269C92.9009 136.434 93.2246 136.713 93.2246 137.145C93.2246 137.709 92.6216 138.103 91.771 138.103C90.9458 138.103 90.438 137.767 90.2666 137.227H88.9019C89.0225 138.427 90.0952 139.169 91.7393 139.169C93.3896 139.169 94.6021 138.3 94.6021 137.018C94.6021 136.015 93.9863 135.45 92.6724 135.145L91.5234 134.878C90.7744 134.701 90.4253 134.434 90.4253 134.009C90.4253 133.45 91.0029 133.076 91.7646 133.076C92.5391 133.076 93.0342 133.412 93.1611 133.926H94.4688C94.3354 132.733 93.3198 132.009 91.7646 132.009C90.2031 132.009 89.0796 132.873 89.0796 134.072ZM97.3062 139.131C97.8457 139.131 98.2393 138.731 98.2393 138.217C98.2393 137.703 97.8457 137.303 97.3062 137.303C96.7729 137.303 96.373 137.703 96.373 138.217C96.373 138.731 96.7729 139.131 97.3062 139.131ZM103.933 132.022C102.994 132.022 102.181 132.498 101.762 133.285H101.661V132.143H100.347V141.334H101.711V137.995H101.819C102.181 138.725 102.962 139.15 103.946 139.15C105.691 139.15 106.802 137.767 106.802 135.589C106.802 133.399 105.691 132.022 103.933 132.022ZM103.546 137.982C102.403 137.982 101.686 137.062 101.686 135.589C101.686 134.11 102.403 133.19 103.552 133.19C104.708 133.19 105.399 134.091 105.399 135.589C105.399 137.087 104.708 137.982 103.546 137.982ZM108.865 141.537C110.274 141.537 110.928 141.01 111.519 139.354L114.096 132.143H112.648L110.922 137.665H110.814L109.081 132.143H107.596L110.097 139.055L109.995 139.411C109.76 140.141 109.392 140.414 108.745 140.414C108.618 140.414 108.408 140.407 108.3 140.388V141.505C108.427 141.524 108.751 141.537 108.865 141.537Z" fill="var(--vscode-foreground, #A0A0A0)" />
    <path d="M38.08 159.052L33.712 154.7L34.336 154.076L39.008 158.748V159.372L34.336 164.028L33.712 163.42L38.08 159.068V159.052Z" fill="var(--vscode-foreground, #808080)" />
    <rect x="52" y="155.536" width="70" height="7" rx="3.5" fill="var(--vscode-foreground, #FFFFFF)" fill-opacity="0.16" />
    <path d="M38.08 183.052L33.712 178.7L34.336 178.076L39.008 182.748V183.372L34.336 188.028L33.712 187.42L38.08 183.068V183.052Z" fill="var(--vscode-foreground, #808080)" />
    <rect x="52" y="179.536" width="93" height="7" rx="3.5" fill="var(--vscode-foreground, #FFFFFF)" fill-opacity="0.16" />
    <path d="M35.76 206.716H34.5C34.06 206.716 33.7067 206.849 33.44 207.116C33.1867 207.369 33.06 207.716 33.06 208.156V209.276C33.06 209.409 33 209.476 32.88 209.476H32.32C31.7333 209.476 31.3133 209.223 31.06 208.716C30.86 208.303 30.76 207.929 30.76 207.596C30.68 206.769 30.74 206.083 30.94 205.536C31.1533 204.896 31.5467 204.523 32.12 204.416H35.74C35.8733 204.416 35.94 204.396 35.94 204.356V204.036L35.86 203.996C35.8067 203.983 35.7733 203.976 35.76 203.976H33.62C33.5267 203.976 33.46 203.956 33.42 203.916C33.3933 203.876 33.38 203.809 33.38 203.716V202.916C33.38 202.449 33.5667 202.156 33.94 202.036C34.3533 201.863 34.6667 201.756 34.88 201.716C35.68 201.583 36.4267 201.603 37.12 201.776C37.4667 201.856 37.76 201.983 38 202.156C38.1467 202.303 38.2467 202.436 38.3 202.556C38.38 202.703 38.4067 202.863 38.38 203.036V205.276C38.38 205.716 38.26 206.056 38.02 206.296C37.78 206.536 37.44 206.656 37 206.656C36.7067 206.696 36.2933 206.716 35.76 206.716ZM34 202.976C34 203.109 34.0467 203.229 34.14 203.336C34.2333 203.429 34.3467 203.476 34.48 203.476C34.6133 203.476 34.7333 203.423 34.84 203.316C34.9467 203.209 35 203.096 35 202.976C35 202.856 34.9467 202.749 34.84 202.656C34.7467 202.563 34.6333 202.503 34.5 202.476C34.3533 202.476 34.2333 202.529 34.14 202.636C34.0467 202.729 34 202.843 34 202.976ZM36.26 207.356H37.5C37.94 207.356 38.2867 207.229 38.54 206.976C38.8067 206.709 38.94 206.356 38.94 205.916V204.776C38.94 204.656 39 204.596 39.12 204.596H39.68C40.2667 204.596 40.6867 204.849 40.94 205.356C41.1533 205.769 41.26 206.143 41.26 206.476C41.3267 207.303 41.26 207.989 41.06 208.536C40.8467 209.176 40.4533 209.549 39.88 209.656H36.26C36.1267 209.656 36.06 209.676 36.06 209.716V210.036L36.14 210.076C36.1933 210.089 36.2333 210.096 36.26 210.096H38.38C38.4733 210.096 38.5333 210.116 38.56 210.156C38.6 210.196 38.62 210.263 38.62 210.356V211.156C38.62 211.623 38.4333 211.916 38.06 212.036C37.6467 212.196 37.3333 212.303 37.12 212.356C36.32 212.489 35.5733 212.463 34.88 212.276C34.5333 212.209 34.24 212.089 34 211.916C33.8533 211.769 33.7533 211.636 33.7 211.516C33.62 211.369 33.5933 211.209 33.62 211.036V208.776C33.62 208.349 33.74 208.016 33.98 207.776C34.22 207.536 34.56 207.416 35 207.416C35.2933 207.376 35.7133 207.356 36.26 207.356ZM38 211.096C38 210.963 37.9533 210.849 37.86 210.756C37.7667 210.649 37.6533 210.596 37.52 210.596C37.3867 210.596 37.2667 210.649 37.16 210.756C37.0533 210.863 37 210.976 37 211.096C37 211.216 37.0467 211.323 37.14 211.416C37.2467 211.509 37.3667 211.569 37.5 211.596C37.6467 211.596 37.7667 211.549 37.86 211.456C37.9533 211.349 38 211.229 38 211.096Z" fill="#519ABA" />
    <rect x="52" y="203.536" width="63" height="7" rx="3.5" fill="var(--vscode-foreground, #FFFFFF)" fill-opacity="0.16" />
    <path d="M35.76 230.716H34.5C34.06 230.716 33.7067 230.849 33.44 231.116C33.1867 231.369 33.06 231.716 33.06 232.156V233.276C33.06 233.409 33 233.476 32.88 233.476H32.32C31.7333 233.476 31.3133 233.223 31.06 232.716C30.86 232.303 30.76 231.929 30.76 231.596C30.68 230.769 30.74 230.083 30.94 229.536C31.1533 228.896 31.5467 228.523 32.12 228.416H35.74C35.8733 228.416 35.94 228.396 35.94 228.356V228.036L35.86 227.996C35.8067 227.983 35.7733 227.976 35.76 227.976H33.62C33.5267 227.976 33.46 227.956 33.42 227.916C33.3933 227.876 33.38 227.809 33.38 227.716V226.916C33.38 226.449 33.5667 226.156 33.94 226.036C34.3533 225.863 34.6667 225.756 34.88 225.716C35.68 225.583 36.4267 225.603 37.12 225.776C37.4667 225.856 37.76 225.983 38 226.156C38.1467 226.303 38.2467 226.436 38.3 226.556C38.38 226.703 38.4067 226.863 38.38 227.036V229.276C38.38 229.716 38.26 230.056 38.02 230.296C37.78 230.536 37.44 230.656 37 230.656C36.7067 230.696 36.2933 230.716 35.76 230.716ZM34 226.976C34 227.109 34.0467 227.229 34.14 227.336C34.2333 227.429 34.3467 227.476 34.48 227.476C34.6133 227.476 34.7333 227.423 34.84 227.316C34.9467 227.209 35 227.096 35 226.976C35 226.856 34.9467 226.749 34.84 226.656C34.7467 226.563 34.6333 226.503 34.5 226.476C34.3533 226.476 34.2333 226.529 34.14 226.636C34.0467 226.729 34 226.843 34 226.976ZM36.26 231.356H37.5C37.94 231.356 38.2867 231.229 38.54 230.976C38.8067 230.709 38.94 230.356 38.94 229.916V228.776C38.94 228.656 39 228.596 39.12 228.596H39.68C40.2667 228.596 40.6867 228.849 40.94 229.356C41.1533 229.769 41.26 230.143 41.26 230.476C41.3267 231.303 41.26 231.989 41.06 232.536C40.8467 233.176 40.4533 233.549 39.88 233.656H36.26C36.1267 233.656 36.06 233.676 36.06 233.716V234.036L36.14 234.076C36.1933 234.089 36.2333 234.096 36.26 234.096H38.38C38.4733 234.096 38.5333 234.116 38.56 234.156C38.6 234.196 38.62 234.263 38.62 234.356V235.156C38.62 235.623 38.4333 235.916 38.06 236.036C37.6467 236.196 37.3333 236.303 37.12 236.356C36.32 236.489 35.5733 236.463 34.88 236.276C34.5333 236.209 34.24 236.089 34 235.916C33.8533 235.769 33.7533 235.636 33.7 235.516C33.62 235.369 33.5933 235.209 33.62 235.036V232.776C33.62 232.349 33.74 232.016 33.98 231.776C34.22 231.536 34.56 231.416 35 231.416C35.2933 231.376 35.7133 231.356 36.26 231.356ZM38 235.096C38 234.963 37.9533 234.849 37.86 234.756C37.7667 234.649 37.6533 234.596 37.52 234.596C37.3867 234.596 37.2667 234.649 37.16 234.756C37.0533 234.863 37 234.976 37 235.096C37 235.216 37.0467 235.323 37.14 235.416C37.2467 235.509 37.3667 235.569 37.5 235.596C37.6467 235.596 37.7667 235.549 37.86 235.456C37.9533 235.349 38 235.229 38 235.096Z" fill="#519ABA" />
    <rect x="52" y="227.536" width="47" height="7" rx="3.5" fill="var(--vscode-foreground, #FFFFFF)" fill-opacity="0.16" />
    <path d="M35.76 254.716H34.5C34.06 254.716 33.7067 254.849 33.44 255.116C33.1867 255.369 33.06 255.716 33.06 256.156V257.276C33.06 257.409 33 257.476 32.88 257.476H32.32C31.7333 257.476 31.3133 257.223 31.06 256.716C30.86 256.303 30.76 255.929 30.76 255.596C30.68 254.769 30.74 254.083 30.94 253.536C31.1533 252.896 31.5467 252.523 32.12 252.416H35.74C35.8733 252.416 35.94 252.396 35.94 252.356V252.036L35.86 251.996C35.8067 251.983 35.7733 251.976 35.76 251.976H33.62C33.5267 251.976 33.46 251.956 33.42 251.916C33.3933 251.876 33.38 251.809 33.38 251.716V250.916C33.38 250.449 33.5667 250.156 33.94 250.036C34.3533 249.863 34.6667 249.756 34.88 249.716C35.68 249.583 36.4267 249.603 37.12 249.776C37.4667 249.856 37.76 249.983 38 250.156C38.1467 250.303 38.2467 250.436 38.3 250.556C38.38 250.703 38.4067 250.863 38.38 251.036V253.276C38.38 253.716 38.26 254.056 38.02 254.296C37.78 254.536 37.44 254.656 37 254.656C36.7067 254.696 36.2933 254.716 35.76 254.716ZM34 250.976C34 251.109 34.0467 251.229 34.14 251.336C34.2333 251.429 34.3467 251.476 34.48 251.476C34.6133 251.476 34.7333 251.423 34.84 251.316C34.9467 251.209 35 251.096 35 250.976C35 250.856 34.9467 250.749 34.84 250.656C34.7467 250.563 34.6333 250.503 34.5 250.476C34.3533 250.476 34.2333 250.529 34.14 250.636C34.0467 250.729 34 250.843 34 250.976ZM36.26 255.356H37.5C37.94 255.356 38.2867 255.229 38.54 254.976C38.8067 254.709 38.94 254.356 38.94 253.916V252.776C38.94 252.656 39 252.596 39.12 252.596H39.68C40.2667 252.596 40.6867 252.849 40.94 253.356C41.1533 253.769 41.26 254.143 41.26 254.476C41.3267 255.303 41.26 255.989 41.06 256.536C40.8467 257.176 40.4533 257.549 39.88 257.656H36.26C36.1267 257.656 36.06 257.676 36.06 257.716V258.036L36.14 258.076C36.1933 258.089 36.2333 258.096 36.26 258.096H38.38C38.4733 258.096 38.5333 258.116 38.56 258.156C38.6 258.196 38.62 258.263 38.62 258.356V259.156C38.62 259.623 38.4333 259.916 38.06 260.036C37.6467 260.196 37.3333 260.303 37.12 260.356C36.32 260.489 35.5733 260.463 34.88 260.276C34.5333 260.209 34.24 260.089 34 259.916C33.8533 259.769 33.7533 259.636 33.7 259.516C33.62 259.369 33.5933 259.209 33.62 259.036V256.776C33.62 256.349 33.74 256.016 33.98 255.776C34.22 255.536 34.56 255.416 35 255.416C35.2933 255.376 35.7133 255.356 36.26 255.356ZM38 259.096C38 258.963 37.9533 258.849 37.86 258.756C37.7667 258.649 37.6533 258.596 37.52 258.596C37.3867 258.596 37.2667 258.649 37.16 258.756C37.0533 258.863 37 258.976 37 259.096C37 259.216 37.0467 259.323 37.14 259.416C37.2467 259.509 37.3667 259.569 37.5 259.596C37.6467 259.596 37.7667 259.549 37.86 259.456C37.9533 259.349 38 259.229 38 259.096Z" fill="#519ABA" />
    <rect x="52" y="251.536" width="58" height="7" rx="3.5" fill="var(--vscode-foreground, #FFFFFF)" fill-opacity="0.16" />
    <path d="M30.38 273.476V284.596H41.62V273.476H30.38ZM32.18 275.776H35.38V276.596H32.18V275.776ZM36.56 275.776H39.76V276.596H36.56V275.776ZM32.18 277.656H35.38V278.476H32.18V277.656ZM36.56 277.656H39.76V278.476H36.56V277.656ZM32.18 279.536H35.38V280.356H32.18V279.536ZM36.56 279.536H39.76V280.356H36.56V279.536ZM32.18 281.416H35.38V282.216H32.18V281.416ZM36.56 281.416H39.76V282.216H36.56V281.416Z" fill="#8DC149" />
    <rect x="52" y="275.536" width="71" height="7" rx="3.5" fill="var(--vscode-foreground, #FFFFFF)" fill-opacity="0.16" />
    <rect x="13" y="11" width="212.268" height="344" stroke="var(--vscode-activityBarBadge-background, #007ACC)" stroke-width="2" stroke-dasharray="6 4" />
  </g>
  <g filter="url(#filter1_d_30514464)">
    <path d="M172.134 246.5C172.134 244.291 173.925 242.5 176.134 242.5H324.134C326.343 242.5 328.134 244.291 328.134 246.5V291.5C328.134 293.709 326.343 295.5 324.134 295.5H176.134C173.925 295.5 172.134 293.709 172.134 291.5V246.5Z" fill="var(--vscode-tab-inactiveBackground, #333333)" />
    <path d="M209.894 261.48H199.734L198.454 260.2L197.894 259.96H190.374L189.654 260.76V277.24L190.374 277.96H209.894L210.614 277.24V262.28L209.894 261.48ZM209.094 274.2V276.52H191.094V267.48H197.894L198.374 267.24L199.654 265.96H209.174L209.094 274.2ZM209.094 264.52H199.334L198.854 264.76L197.574 266.04H191.174V261.48H197.574L198.854 262.76L199.414 263H209.174L209.094 264.52Z" fill="var(--vscode-tab-activeForeground, #FFFFFF)" />
    <path d="M223.962 277.5H226.482V269.684C226.482 268.02 227.642 266.719 229.177 266.719C230.677 266.719 231.638 267.621 231.638 269.074V277.5H234.111V269.449C234.111 267.914 235.177 266.719 236.806 266.719C238.458 266.719 239.279 267.574 239.279 269.332V277.5H241.798V268.723C241.798 266.074 240.298 264.527 237.72 264.527C235.951 264.527 234.486 265.43 233.841 266.801H233.642C233.08 265.43 231.873 264.527 230.126 264.527C228.427 264.527 227.138 265.371 226.576 266.801H226.388V264.773H223.962V277.5ZM246.181 282.117C248.783 282.117 249.99 281.145 251.08 278.086L255.837 264.773H253.166L249.978 274.969H249.779L246.58 264.773H243.837L248.455 277.535L248.267 278.191C247.833 279.539 247.154 280.043 245.958 280.043C245.724 280.043 245.337 280.031 245.138 279.996V282.059C245.373 282.094 245.97 282.117 246.181 282.117ZM265.845 271.852V269.52H258.158V271.852H265.845ZM273.076 277.711C274.751 277.711 276.146 276.984 276.908 275.695H277.107V277.5H279.533V268.793C279.533 266.121 277.728 264.527 274.529 264.527C271.634 264.527 269.572 265.922 269.314 268.066H271.751C272.033 267.141 273.005 266.613 274.412 266.613C276.134 266.613 277.025 267.398 277.025 268.793V269.906L273.568 270.117C270.533 270.305 268.822 271.629 268.822 273.914C268.822 276.234 270.615 277.711 273.076 277.711ZM273.72 275.684C272.349 275.684 271.353 274.992 271.353 273.809C271.353 272.648 272.15 272.027 273.908 271.91L277.025 271.699V272.801C277.025 274.441 275.619 275.684 273.72 275.684ZM289.74 264.551C288.005 264.551 286.505 265.43 285.732 266.883H285.544V264.773H283.119V281.742H285.638V275.578H285.837C286.505 276.926 287.947 277.711 289.763 277.711C292.986 277.711 295.037 275.156 295.037 271.137C295.037 267.094 292.986 264.551 289.74 264.551ZM289.025 275.555C286.916 275.555 285.591 273.855 285.591 271.137C285.591 268.406 286.916 266.707 289.037 266.707C291.169 266.707 292.447 268.371 292.447 271.137C292.447 273.902 291.169 275.555 289.025 275.555ZM304.693 264.551C302.958 264.551 301.458 265.43 300.685 266.883H300.498V264.773H298.072V281.742H300.591V275.578H300.791C301.458 276.926 302.9 277.711 304.716 277.711C307.939 277.711 309.99 275.156 309.99 271.137C309.99 267.094 307.939 264.551 304.693 264.551ZM303.978 275.555C301.869 275.555 300.544 273.855 300.544 271.137C300.544 268.406 301.869 266.707 303.99 266.707C306.123 266.707 307.4 268.371 307.4 271.137C307.4 273.902 306.123 275.555 303.978 275.555Z" fill="var(--vscode-tab-activeForeground, #FFFFFF)" />
  </g>
  <g filter="url(#filter2_d_30514464)">
    <path fill-rule="evenodd" clip-rule="evenodd" d="M210.634 310C210.634 314.97 214.664 319 219.634 319V319C224.604 319 228.634 314.97 228.634 310V310C228.634 305.029 224.604 301 219.634 301V301C214.664 301 210.634 305.029 210.634 310" fill="#3794FF" />
    <path fill-rule="evenodd" clip-rule="evenodd" d="M220.634 309V306C220.634 305.448 220.186 305 219.634 305C219.082 305 218.634 305.448 218.634 306V309H215.634C215.082 309 214.634 309.448 214.634 310C214.634 310.552 215.082 311 215.634 311H218.634V314C218.634 314.552 219.082 315 219.634 315C220.186 315 220.634 314.552 220.634 314V311H223.634C224.186 311 224.634 310.552 224.634 310C224.634 309.448 224.186 309 223.634 309H220.634Z" fill="#FFFFFF" />
    <path fill-rule="evenodd" clip-rule="evenodd" d="M209.634 303.5V287.5L221.234 299.108H214.188L214.037 299.232L209.634 303.5Z" fill="#FFFFFF" />
    <path fill-rule="evenodd" clip-rule="evenodd" d="M210.634 289.8V301L213.603 298.131L213.763 297.992L218.799 298L210.634 289.8Z" fill="#000000" />
  </g>
  <defs>
    <filter id="filter0_d_30514464" x="0" y="0" width="238.268" height="370" filterUnits="userSpaceOnUse" color-interpolation-filters="sRGB">
      <feFlood flood-opacity="0" result="BackgroundImageFix" />
      <feColorMatrix in="SourceAlpha" type="matrix" values="0 0 0 0 0 0 0 0 0 0 0 0 0 0 0 0 0 0 127 0" result="hardAlpha" />
      <feOffset dy="2" />
      <feGaussianBlur stdDeviation="6" />
      <feColorMatrix type="matrix" values="0 0 0 0 0 0 0 0 0 0 0 0 0 0 0 0 0 0 0.6 0" />
      <feBlend mode="normal" in2="BackgroundImageFix" result="effect1_dropShadow_30514464" />
      <feBlend mode="normal" in="SourceGraphic" in2="effect1_dropShadow_30514464" result="shape" />
    </filter>
    <filter id="filter1_d_30514464" x="160.134" y="232.5" width="180" height="77" filterUnits="userSpaceOnUse" color-interpolation-filters="sRGB">
      <feFlood flood-opacity="0" result="BackgroundImageFix" />
      <feColorMatrix in="SourceAlpha" type="matrix" values="0 0 0 0 0 0 0 0 0 0 0 0 0 0 0 0 0 0 127 0" result="hardAlpha" />
      <feOffset dy="2" />
      <feGaussianBlur stdDeviation="6" />
      <feColorMatrix type="matrix" values="0 0 0 0 0 0 0 0 0 0 0 0 0 0 0 0 0 0 0.6 0" />
      <feBlend mode="normal" in2="BackgroundImageFix" result="effect1_dropShadow_30514464" />
      <feBlend mode="normal" in="SourceGraphic" in2="effect1_dropShadow_30514464" result="shape" />
    </filter>
    <filter id="filter2_d_30514464" x="207.834" y="286.7" width="22.6" height="35.1" filterUnits="userSpaceOnUse" color-interpolation-filters="sRGB">
      <feFlood flood-opacity="0" result="BackgroundImageFix" />
      <feColorMatrix in="SourceAlpha" type="matrix" values="0 0 0 0 0 0 0 0 0 0 0 0 0 0 0 0 0 0 127 0" result="hardAlpha" />
      <feOffset dy="1" />
      <feGaussianBlur stdDeviation="0.9" />
      <feColorMatrix type="matrix" values="0 0 0 0 0 0 0 0 0 0 0 0 0 0 0 0 0 0 0.65 0" />
      <feBlend mode="normal" in2="BackgroundImageFix" result="effect1_dropShadow_30514464" />
      <feBlend mode="normal" in="SourceGraphic" in2="effect1_dropShadow_30514464" result="shape" />
    </filter>
    <clipPath id="clip0_30514464">
      <rect width="198" height="318" fill="#FFFFFF" transform="translate(212 24)" />
    </clipPath>
  </defs>
</svg>