<svg width="520" height="220" viewBox="0 0 520 220" fill="none" xmlns="http://www.w3.org/2000/svg">
  <g>
    <rect width="520" height="220" fill="var(--vscode-editor-background, #1E1E1E)" />
    <g clip-path="url(#clip0_1003_92672)">
      <g>
        <rect width="520" height="39" fill="var(--vscode-editorGroupHeader-tabsBackground, #252526)" />
        <g clip-path="url(#clip1_1003_92672)">
          <g>
            <rect width="115.654" height="39.2998" fill="var(--vscode-tab-activeBackground, #1E1E1E)" />
            <rect x="13.4741" y="15.72" width="88.7052" height="7.85995" rx="3.92998" fill="var(--vscode-editorHoverWidget-border, #2D2D2D)" />
          </g>
        </g>
      </g>
    </g>
    <g filter="url(#filter0_d_1003_92672)">
      <rect width="425" height="182" transform="translate(48 20)" fill="var(--vscode-quickInput-background, #252526)" />
      <g>
        <g>
          <rect x="55.5" y="27.5" width="410" height="25" fill="var(--vscode-input-background, #3C3C3C)" />
          <rect x="55.5" y="27.5" width="410" height="25" stroke="var(--vscode-focusBorder, #007FD4)" />
        </g>
      </g>
      <g>
        <g>
          <g>
            <rect x="60" y="66" width="38" height="6" rx="3" fill="var(--vscode-editorHoverWidget-border, #FFFFFF)" />
            <rect x="102" y="66" width="29" height="6" rx="3" fill="var(--vscode-textLink-foreground, #3794FF)" />
            <rect x="135" y="66" width="105" height="6" rx="3" fill="var(--vscode-editorHoverWidget-border, #FFFFFF)" />
          </g>
        </g>
        <g>
          <rect width="425" height="24" transform="translate(48 82)" fill="var(--vscode-quickInputList-focusBackground, #062F4A)" />
          <path d="M61.1489 89.8403V99H62.5708V95.8706H64.6909C66.4873 95.8706 67.7568 94.6392 67.7568 92.8745C67.7568 91.0718 66.5254 89.8403 64.7354 89.8403H61.1489ZM62.5708 91.04H64.3608C65.6113 91.04 66.3032 91.6875 66.3032 92.8745C66.3032 94.0234 65.5859 94.6772 64.3608 94.6772H62.5708V91.04ZM70.334 101.501C71.7432 101.501 72.397 100.974 72.9873 99.3174L75.5645 92.1064H74.1172L72.3906 97.6289H72.2827L70.5498 92.1064H69.0645L71.5654 99.019L71.4639 99.3745C71.229 100.104 70.8608 100.377 70.2134 100.377C70.0864 100.377 69.877 100.371 69.769 100.352V101.469C69.896 101.488 70.2197 101.501 70.334 101.501ZM77.4434 90.3672V92.1255H76.3452V93.2173H77.4434V97.1846C77.4434 98.5112 78.0464 99.0444 79.5635 99.0444C79.8301 99.0444 80.084 99.0127 80.3062 98.9746V97.8892C80.1157 97.9082 79.9951 97.9209 79.7856 97.9209C79.1064 97.9209 78.8081 97.5972 78.8081 96.8545V93.2173H80.3062V92.1255H78.8081V90.3672H77.4434ZM81.9756 99H83.3403V94.9629C83.3403 93.8838 83.9624 93.1665 85.0796 93.1665C86.0444 93.1665 86.5586 93.7314 86.5586 94.8677V99H87.9233V94.5439C87.9233 92.9126 87.0156 91.9795 85.543 91.9795C84.502 91.9795 83.772 92.4365 83.4355 93.2046H83.3276V89.4023H81.9756V99ZM92.7666 99.1333C94.7852 99.1333 96.0229 97.7812 96.0229 95.5532C96.0229 93.3252 94.7788 91.9731 92.7666 91.9731C90.748 91.9731 89.5039 93.3315 89.5039 95.5532C89.5039 97.7812 90.7417 99.1333 92.7666 99.1333ZM92.7666 97.9717C91.5796 97.9717 90.9131 97.0894 90.9131 95.5532C90.9131 94.0171 91.5796 93.1284 92.7666 93.1284C93.9473 93.1284 94.6201 94.0171 94.6201 95.5532C94.6201 97.083 93.9473 97.9717 92.7666 97.9717ZM97.667 99H99.0317V94.9565C99.0317 93.8457 99.6729 93.1602 100.682 93.1602C101.691 93.1602 102.174 93.7188 102.174 94.8613V99H103.539V94.5376C103.539 92.8936 102.688 91.9731 101.146 91.9731C100.104 91.9731 99.4189 92.4365 99.0825 93.1982H98.981V92.1064H97.667V99ZM111.042 94.855H112.184C113.377 94.855 114.114 95.4644 114.114 96.4419C114.114 97.394 113.327 98.0288 112.203 98.0288C111.092 98.0288 110.324 97.4512 110.242 96.5498H108.877C108.953 98.1621 110.286 99.2222 112.222 99.2222C114.133 99.2222 115.574 98.0796 115.574 96.5181C115.574 95.2612 114.787 94.4487 113.568 94.2646V94.1567C114.526 93.8901 115.218 93.1602 115.225 92.0557C115.231 90.7544 114.158 89.6182 112.267 89.6182C110.337 89.6182 109.144 90.729 109.048 92.2842H110.394C110.477 91.3257 111.143 90.7861 112.184 90.7861C113.212 90.7861 113.822 91.4272 113.822 92.2334C113.822 93.1157 113.136 93.7378 112.146 93.7378H111.042V94.855ZM117.96 99.0952C118.5 99.0952 118.894 98.6953 118.894 98.1812C118.894 97.667 118.5 97.2671 117.96 97.2671C117.427 97.2671 117.027 97.667 117.027 98.1812C117.027 98.6953 117.427 99.0952 117.96 99.0952ZM123.559 99.2158C125.851 99.2158 127.19 97.4004 127.19 94.29C127.19 91.2178 125.717 89.6182 123.616 89.6182C121.674 89.6182 120.296 90.9448 120.296 92.8047C120.296 94.5693 121.566 95.8579 123.312 95.8579C124.397 95.8579 125.273 95.3501 125.711 94.4741H125.819C125.781 96.7466 124.975 98.0161 123.572 98.0161C122.734 98.0161 122.08 97.5591 121.864 96.8037H120.43C120.703 98.2764 121.934 99.2158 123.559 99.2158ZM123.623 94.709C122.493 94.709 121.712 93.9155 121.712 92.7603C121.712 91.6558 122.537 90.8052 123.635 90.8052C124.727 90.8052 125.552 91.6685 125.552 92.7983C125.552 93.9092 124.746 94.709 123.623 94.709ZM129.475 99.0952C130.015 99.0952 130.408 98.6953 130.408 98.1812C130.408 97.667 130.015 97.2671 129.475 97.2671C128.942 97.2671 128.542 97.667 128.542 98.1812C128.542 98.6953 128.942 99.0952 129.475 99.0952ZM135.207 99.2222C137.34 99.2222 138.584 97.4639 138.584 94.4297C138.584 91.3892 137.321 89.6182 135.207 89.6182C133.081 89.6182 131.817 91.3892 131.817 94.4106C131.817 97.4575 133.068 99.2222 135.207 99.2222ZM135.207 98.0415C133.963 98.0415 133.252 96.772 133.252 94.4106C133.252 92.0811 133.976 90.8052 135.207 90.8052C136.438 90.8052 137.149 92.0684 137.149 94.4106C137.149 96.7783 136.451 98.0415 135.207 98.0415ZM147.35 99.2158C149.292 99.2158 150.67 97.8892 150.67 96.0293C150.67 94.2646 149.4 92.9761 147.661 92.9761C146.576 92.9761 145.693 93.4839 145.255 94.3662H145.147C145.173 92.043 146.011 90.8179 147.439 90.8179C148.302 90.8179 148.931 91.2622 149.108 92.0366H150.537C150.308 90.583 149.127 89.6182 147.407 89.6182C145.179 89.6182 143.783 91.4336 143.783 94.5439C143.783 97.6606 145.287 99.2158 147.35 99.2158ZM147.337 98.0288C146.246 98.0288 145.414 97.1655 145.414 96.0356C145.414 94.9185 146.22 94.1123 147.35 94.1123C148.48 94.1123 149.261 94.9185 149.261 96.0674C149.261 97.1782 148.429 98.0288 147.337 98.0288ZM156.688 99H158.059V97.1782H159.322V95.9722H158.059V89.8403H156.034C154.771 91.7383 153.425 93.9028 152.219 95.9722V97.1782H156.688V99ZM153.583 95.9087C154.523 94.3027 155.64 92.519 156.624 91.04H156.707V95.9976H153.583V95.9087ZM165.244 95.9404V94.6772H161.08V95.9404H165.244ZM170.913 99.1143C172.658 99.1143 173.769 97.7241 173.769 95.5532C173.769 93.3633 172.665 91.9858 170.913 91.9858C169.967 91.9858 169.154 92.4492 168.786 93.1982H168.678V89.4023H167.313V99H168.627V97.9082H168.729C169.142 98.6699 169.948 99.1143 170.913 99.1143ZM170.519 93.1538C171.674 93.1538 172.366 94.0615 172.366 95.5532C172.366 97.0449 171.674 97.9463 170.519 97.9463C169.37 97.9463 168.659 97.0322 168.653 95.5532C168.659 94.0742 169.376 93.1538 170.519 93.1538ZM176.118 90.875C176.594 90.875 176.981 90.4878 176.981 90.0181C176.981 89.542 176.594 89.1548 176.118 89.1548C175.642 89.1548 175.254 89.542 175.254 90.0181C175.254 90.4878 175.642 90.875 176.118 90.875ZM175.438 99H176.797V92.1064H175.438V99ZM179.285 90.3672V92.1255H178.187V93.2173H179.285V97.1846C179.285 98.5112 179.888 99.0444 181.405 99.0444C181.672 99.0444 181.926 99.0127 182.148 98.9746V97.8892C181.958 97.9082 181.837 97.9209 181.627 97.9209C180.948 97.9209 180.65 97.5972 180.65 96.8545V93.2173H182.148V92.1255H180.65V90.3672H179.285Z" fill="var(--vscode-list-activeSelectionForeground, #FFFFFF)" />
        </g>
        <g>
          <g>
            <rect x="60" y="116" width="62.5" height="6" rx="3" fill="var(--vscode-editorHoverWidget-border, #FFFFFF)" />
            <rect x="126.5" y="116" width="29" height="6" rx="3" fill="var(--vscode-textLink-foreground, #3794FF)" />
            <rect x="159.5" y="116" width="62.5" height="6" rx="3" fill="var(--vscode-editorHoverWidget-border, #FFFFFF)" />
          </g>
        </g>
        <g>
          <g>
            <rect x="60" y="138" width="41" height="6" rx="3" fill="var(--vscode-editorHoverWidget-border, #FFFFFF)" />
            <rect x="105" y="138" width="69" height="6" rx="3" fill="var(--vscode-editorHoverWidget-border, #FFFFFF)" />
            <rect x="178" y="138" width="26" height="6" rx="3" fill="var(--vscode-textLink-foreground, #3794FF)" />
          </g>
        </g>
        <g>
          <g>
            <rect x="60" y="160" width="26" height="6" rx="3" fill="var(--vscode-textLink-foreground, #3794FF)" />
            <rect x="90" y="160" width="164" height="6" rx="3" fill="var(--vscode-editorHoverWidget-border, #FFFFFF)" />
          </g>
        </g>
        <g>
          <g>
            <rect x="60" y="182" width="46" height="6" rx="3" fill="var(--vscode-editorHoverWidget-border, #FFFFFF)" />
            <rect x="110" y="182" width="29" height="6" rx="3" fill="var(--vscode-textLink-foreground, #3794FF)" />
            <rect x="143" y="182" width="46" height="6" rx="3" fill="var(--vscode-editorHoverWidget-border, #FFFFFF)" />
          </g>
        </g>
      </g>
    </g>
  </g>
  <defs>
    <filter id="filter0_d_1003_92672" x="32" y="6" width="457" height="214" filterUnits="userSpaceOnUse" color-interpolation-filters="sRGB">
      <feFlood flood-opacity="0" result="BackgroundImageFix" />
      <feColorMatrix in="SourceAlpha" type="matrix" values="0 0 0 0 0 0 0 0 0 0 0 0 0 0 0 0 0 0 127 0" result="hardAlpha" />
      <feOffset dy="2" />
      <feGaussianBlur stdDeviation="8" />
      <feColorMatrix type="matrix" values="0 0 0 0 0 0 0 0 0 0 0 0 0 0 0 0 0 0 0.36 0" />
      <feBlend mode="normal" in2="BackgroundImageFix" result="effect1_dropShadow_1003_92672" />
      <feBlend mode="normal" in="SourceGraphic" in2="effect1_dropShadow_1003_92672" result="shape" />
    </filter>
    <clipPath id="clip0_1003_92672">
      <rect width="520" height="220" fill="#FFFFFF" />
    </clipPath>
    <clipPath id="clip1_1003_92672">
      <rect width="115.654" height="39.2998" fill="#FFFFFF" />
    </clipPath>
  </defs>
</svg>