<svg width="522" height="342" viewBox="0 0 522 342" fill="none" xmlns="http://www.w3.org/2000/svg">
<g filter="url(#filter0_d)">
<rect width="192" height="268" transform="translate(8 32)" fill="var(--vscode-quickInput-background, #252526)"/>
<path d="M25.8019 58.138H27.2078L28.5158 60.6072H29.6681L28.2266 57.9822C29.0096 57.7198 29.4723 57.0168 29.4723 56.1492C29.4723 54.9525 28.6403 54.1872 27.3457 54.1872H24.8053V60.6072H25.8019V58.138ZM25.8019 55.0236H27.2078C27.9774 55.0236 28.449 55.4552 28.449 56.1715C28.449 56.9056 28.0041 57.3193 27.2344 57.3193H25.8019V55.0236ZM31.8792 54.1872H30.8827V58.396C30.8827 59.7841 31.8748 60.7629 33.4809 60.7629C35.0959 60.7629 36.0836 59.7841 36.0836 58.396V54.1872H35.087V58.3159C35.087 59.2324 34.5042 59.8775 33.4809 59.8775C32.4621 59.8775 31.8792 59.2324 31.8792 58.3159V54.1872ZM38.6596 60.6072V55.9446H38.7308L42.0275 60.6072H42.9262V54.1872H41.9563V58.8587H41.8851L38.5884 54.1872H37.6897V60.6072H38.6596ZM51.1881 60.6072H52.2469L49.929 54.1872H48.8568L46.5388 60.6072H47.5621L48.1538 58.8721H50.6008L51.1881 60.6072ZM49.3417 55.3217H49.4173L50.3472 58.0712H48.4074L49.3417 55.3217ZM54.338 60.6072V55.9446H54.4092L57.7059 60.6072H58.6046V54.1872H57.6347V58.8587H57.5635L54.2668 54.1872H53.3681V60.6072H54.338ZM60.2196 54.1872V60.6072H62.5375C64.4506 60.6072 65.5584 59.4237 65.5584 57.3816C65.5584 55.3618 64.4417 54.1872 62.5375 54.1872H60.2196ZM61.2162 55.0459H62.4263C63.7566 55.0459 64.5441 55.9134 64.5441 57.395C64.5441 58.8898 63.7699 59.7485 62.4263 59.7485H61.2162V55.0459ZM69.4024 54.1872V60.6072H71.7204C73.6334 60.6072 74.7413 59.4237 74.7413 57.3816C74.7413 55.3618 73.6245 54.1872 71.7204 54.1872H69.4024ZM70.399 55.0459H71.6091C72.9394 55.0459 73.7269 55.9134 73.7269 57.395C73.7269 58.8898 72.9527 59.7485 71.6091 59.7485H70.399V55.0459ZM80.1691 59.7485H77.0903V57.7509H80.0045V56.9234H77.0903V55.0459H80.1691V54.1872H76.0938V60.6072H80.1691V59.7485ZM84.2488 60.6072C85.6191 60.6072 86.4422 59.922 86.4422 58.792C86.4422 57.9511 85.8638 57.3371 84.9963 57.2437V57.1681C85.628 57.0613 86.1219 56.4607 86.1219 55.7889C86.1219 54.8012 85.3967 54.1872 84.191 54.1872H81.6106V60.6072H84.2488ZM82.6071 55.0014H83.9597C84.6982 55.0014 85.1298 55.3529 85.1298 55.9624C85.1298 56.5897 84.6715 56.9189 83.7906 56.9189H82.6071V55.0014ZM82.6071 59.793V57.6797H83.9908C84.9295 57.6797 85.4234 58.0356 85.4234 58.7297C85.4234 59.4237 84.9473 59.793 84.0486 59.793H82.6071ZM88.7112 54.1872H87.7146V58.396C87.7146 59.7841 88.7068 60.7629 90.3129 60.7629C91.9279 60.7629 92.9156 59.7841 92.9156 58.396V54.1872H91.919V58.3159C91.919 59.2324 91.3362 59.8775 90.3129 59.8775C89.2941 59.8775 88.7112 59.2324 88.7112 58.3159V54.1872ZM99.9984 58.0801V57.2837H97.3646V58.089H99.0196V58.2314C99.0107 59.2146 98.29 59.8775 97.24 59.8775C96.0343 59.8775 95.278 58.9299 95.278 57.3905C95.278 55.8734 96.0299 54.9169 97.2178 54.9169C98.0942 54.9169 98.7038 55.3484 98.9529 56.1448H99.9539C99.7359 54.8501 98.6771 54.0315 97.2178 54.0315C95.4204 54.0315 94.2592 55.3529 94.2592 57.395C94.2592 59.4638 95.407 60.7629 97.2267 60.7629C98.9084 60.7629 99.9984 59.7085 99.9984 58.0801Z" fill="var(--vscode-foreground)"/>
<path d="M29.984 85.064L34.336 80.712L34.96 81.336L30.288 85.992H29.664L25.008 81.336L25.616 80.712L29.984 85.064Z" fill="#808080"/>
<path d="M50.0649 86L52.1787 79.6587H50.7505L49.3354 84.5498H49.2563L47.8149 79.6587H46.3164L48.4609 86H50.0649ZM56.7666 86H58.2036L56.002 79.6587H54.4419L52.2402 86H53.5718L54.0596 84.4619H56.2876L56.7666 86ZM55.1406 80.9463H55.2197L56.0063 83.4688H54.3452L55.1406 80.9463ZM60.6118 83.6797H61.6973L62.8794 86H64.3823L63.0464 83.4819C63.7759 83.1963 64.1978 82.4932 64.1978 81.6802C64.1978 80.4277 63.3408 79.6587 61.9478 79.6587H59.2847V86H60.6118V83.6797ZM60.6118 80.6958H61.7632C62.4224 80.6958 62.8354 81.0825 62.8354 81.6978C62.8354 82.3262 62.4443 82.6909 61.7764 82.6909H60.6118V80.6958ZM66.8608 86V79.6587H65.5337V86H66.8608ZM72.4727 86H73.9097L71.708 79.6587H70.1479L67.9463 86H69.2778L69.7656 84.4619H71.9937L72.4727 86ZM70.8467 80.9463H70.9258L71.7124 83.4688H70.0513L70.8467 80.9463ZM77.8384 86C79.1919 86 80.0312 85.3013 80.0312 84.1851C80.0312 83.3677 79.4204 82.7393 78.5811 82.6733V82.5942C79.2314 82.4976 79.728 81.9131 79.728 81.2407C79.728 80.2607 78.9941 79.6587 77.7637 79.6587H74.9907V86H77.8384ZM76.3179 80.6431H77.4253C78.0581 80.6431 78.4229 80.9507 78.4229 81.4692C78.4229 81.9966 78.0317 82.2954 77.3154 82.2954H76.3179V80.6431ZM76.3179 85.0112V83.1699H77.4692C78.2515 83.1699 78.6777 83.4863 78.6777 84.0796C78.6777 84.686 78.2646 85.0112 77.5 85.0112H76.3179ZM85.3794 84.8838H82.5581V79.6587H81.231V86H85.3794V84.8838ZM90.7847 84.9058H87.9106V83.3018H90.6221V82.2822H87.9106V80.7529H90.7847V79.6587H86.5835V86H90.7847V84.9058ZM91.8965 84.2466C91.9448 85.4199 92.9248 86.1626 94.4365 86.1626C96.0273 86.1626 97.0073 85.3804 97.0073 84.1147C97.0073 83.1348 96.458 82.5854 95.1836 82.313L94.4189 82.1504C93.6763 81.9878 93.373 81.7549 93.373 81.355C93.373 80.8584 93.8125 80.5376 94.4761 80.5376C95.1177 80.5376 95.5835 80.876 95.645 81.3945H96.8931C96.8535 80.2739 95.8647 79.4961 94.4673 79.4961C93.0039 79.4961 92.0415 80.2783 92.0415 81.4604C92.0415 82.4229 92.6084 83.0161 93.7642 83.2622L94.5903 83.4424C95.3682 83.6138 95.6846 83.8555 95.6846 84.2729C95.6846 84.7651 95.1968 85.1123 94.5068 85.1123C93.7598 85.1123 93.2412 84.7739 93.1797 84.2466H91.8965Z" fill="var(--vscode-foreground)"/>
<path d="M32.08 107.016L27.712 102.664L28.336 102.04L33.008 106.712V107.336L28.336 111.992L27.712 111.384L32.08 107.032V107.016Z" fill="#808080"/>
<rect x="46" y="103.5" width="27" height="7" rx="3.5" fill="#B180D7"/>
<rect x="79" y="103.5" width="70" height="7" rx="3.5" fill="var(--vscode-foreground)" fill-opacity="0.25"/>
<path d="M32.08 131.016L27.712 126.664L28.336 126.04L33.008 130.712V131.336L28.336 135.992L27.712 135.384L32.08 131.032V131.016Z" fill="#808080"/>
<rect x="46" y="127.5" width="27" height="7" rx="3.5" fill="#B180D7"/>
<rect x="79" y="127.5" width="61" height="7" rx="3.5" fill="var(--vscode-foreground)" fill-opacity="0.25"/>
<path d="M32.08 155.016L27.712 150.664L28.336 150.04L33.008 154.712V155.336L28.336 159.992L27.712 159.384L32.08 155.032V155.016Z" fill="#808080"/>
<rect x="46" y="151.5" width="40" height="7" rx="3.5" fill="#B180D7"/>
<rect x="92" y="151.5" width="34" height="7" rx="3.5" fill="var(--vscode-foreground)" fill-opacity="0.25"/>
<path d="M32.08 179.016L27.712 174.664L28.336 174.04L33.008 178.712V179.336L28.336 183.992L27.712 183.384L32.08 179.032V179.016Z" fill="#808080"/>
<path d="M50.5044 177.729H50.5747L51.7744 182H53.0181L54.7012 175.659H53.3301L52.3501 180.189H52.2798L51.1021 175.659H49.9814L48.8257 180.189H48.7554L47.7666 175.659H46.3867L48.0654 182H49.3179L50.5044 177.729ZM59.4033 182H60.8403L58.6387 175.659H57.0786L54.877 182H56.2085L56.6963 180.462H58.9243L59.4033 182ZM57.7773 176.946H57.8564L58.6431 179.469H56.9819L57.7773 176.946ZM64.1011 182V176.753H66.0039V175.659H60.8711V176.753H62.7739V182H64.1011ZM69.6514 182.163C71.1807 182.163 72.2969 181.235 72.4067 179.882H71.1147C70.9873 180.581 70.416 181.029 69.6558 181.029C68.6538 181.029 68.0342 180.185 68.0342 178.827C68.0342 177.469 68.6538 176.625 69.6514 176.625C70.4072 176.625 70.9829 177.109 71.1104 177.843H72.4023C72.3057 176.48 71.1543 175.496 69.6514 175.496C67.8101 175.496 66.6763 176.766 66.6763 178.827C66.6763 180.888 67.8145 182.163 69.6514 182.163ZM79.1392 182V175.659H77.812V178.234H74.9556V175.659H73.6284V182H74.9556V179.328H77.812V182H79.1392Z" fill="var(--vscode-foreground)"/>
<path d="M29.984 205.064L34.336 200.712L34.96 201.336L30.288 205.992H29.664L25.008 201.336L25.616 200.712L29.984 205.064Z" fill="#808080"/>
<path d="M49.4629 206.163C50.9922 206.163 52.1084 205.235 52.2183 203.882H50.9263C50.7988 204.581 50.2275 205.029 49.4673 205.029C48.4653 205.029 47.8457 204.185 47.8457 202.827C47.8457 201.469 48.4653 200.625 49.4629 200.625C50.2188 200.625 50.7944 201.109 50.9219 201.843H52.2139C52.1172 200.48 50.9658 199.496 49.4629 199.496C47.6216 199.496 46.4878 200.766 46.4878 202.827C46.4878 204.888 47.626 206.163 49.4629 206.163ZM57.3115 206H58.7485L56.5469 199.659H54.9868L52.7852 206H54.1167L54.6045 204.462H56.8325L57.3115 206ZM55.6855 200.946H55.7646L56.5513 203.469H54.8901L55.6855 200.946ZM63.978 204.884H61.1567V199.659H59.8296V206H63.978V204.884ZM69.3306 204.884H66.5093V199.659H65.1821V206H69.3306V204.884ZM72.5693 204.247C72.6177 205.42 73.5977 206.163 75.1094 206.163C76.7002 206.163 77.6802 205.38 77.6802 204.115C77.6802 203.135 77.1309 202.585 75.8564 202.313L75.0918 202.15C74.3491 201.988 74.0459 201.755 74.0459 201.355C74.0459 200.858 74.4854 200.538 75.1489 200.538C75.7905 200.538 76.2563 200.876 76.3179 201.395H77.5659C77.5264 200.274 76.5376 199.496 75.1401 199.496C73.6768 199.496 72.7144 200.278 72.7144 201.46C72.7144 202.423 73.2812 203.016 74.437 203.262L75.2632 203.442C76.041 203.614 76.3574 203.855 76.3574 204.273C76.3574 204.765 75.8696 205.112 75.1797 205.112C74.4326 205.112 73.9141 204.774 73.8525 204.247H72.5693ZM81.8022 206V200.753H83.7051V199.659H78.5723V200.753H80.4751V206H81.8022ZM88.2666 206H89.7036L87.502 199.659H85.9419L83.7402 206H85.0718L85.5596 204.462H87.7876L88.2666 206ZM86.6406 200.946H86.7197L87.5063 203.469H85.8452L86.6406 200.946ZM93.1885 206.163C94.7178 206.163 95.834 205.235 95.9438 203.882H94.6519C94.5244 204.581 93.9531 205.029 93.1929 205.029C92.1909 205.029 91.5713 204.185 91.5713 202.827C91.5713 201.469 92.1909 200.625 93.1885 200.625C93.9443 200.625 94.52 201.109 94.6475 201.843H95.9395C95.8428 200.48 94.6914 199.496 93.1885 199.496C91.3472 199.496 90.2134 200.766 90.2134 202.827C90.2134 204.888 91.3516 206.163 93.1885 206.163ZM98.4927 206V204.062L99.1211 203.306L100.962 206H102.553L100.079 202.436L102.391 199.659H100.914L98.5718 202.506H98.4927V199.659H97.1655V206H98.4927Z" fill="var(--vscode-foreground)"/>
<path d="M32.08 227.016L27.712 222.664L28.336 222.04L33.008 226.712V227.336L28.336 231.992L27.712 231.384L32.08 227.032V227.016Z" fill="#808080"/>
<rect x="46" y="223.5" width="70" height="7" rx="3.5" fill="var(--vscode-foreground)" fill-opacity="0.25"/>
<path d="M32.08 251.016L27.712 246.664L28.336 246.04L33.008 250.712V251.336L28.336 255.992L27.712 255.384L32.08 251.032V251.016Z" fill="#808080"/>
<rect x="46" y="247.5" width="48" height="7" rx="3.5" fill="var(--vscode-foreground)" fill-opacity="0.25"/>
<path d="M32.08 275.016L27.712 270.664L28.336 270.04L33.008 274.712V275.336L28.336 279.992L27.712 279.384L32.08 275.032V275.016Z" fill="#808080"/>
<rect x="46" y="271.5" width="46" height="7" rx="3.5" fill="var(--vscode-foreground)" fill-opacity="0.25"/>
</g>
<g filter="url(#filter1_d)">
<rect width="379" height="318" transform="translate(131 10)" fill="var(--vscode-quickInput-background, #252526)"/>
<rect width="379" height="35" transform="translate(131 10)" fill="var(--vscode-editorGroupHeader-tabsBackground, #292929)"/>
<rect width="103" height="35" transform="translate(131 10)" fill="var(--vscode-tab-activeBackground, #1e1e1e)"/>
<rect x="143" y="24" width="79" height="7" rx="3.5" fill="var(--vscode-foreground)" fill-opacity="0.25"/>
<path fill-rule="evenodd" clip-rule="evenodd" d="M469 20.5V35.5L470 36L481.5 28.5V27.5L470 20L469 20.5ZM478.5 28L471 23V33L478.5 28Z" fill="var(--vscode-titleBar-activeForeground)"/>
<rect x="151" y="69" width="83" height="8" rx="4" fill="#75BEFF"/>
<rect x="151" y="89" width="65" height="8" rx="4" fill="#75BEFF"/>
<rect x="151" y="109" width="83" height="8" rx="4" fill="#75BEFF"/>
<rect width="379" height="24" transform="translate(131 147)" fill="var(--vscode-editor-stackFrameHighlightBackground)"/>
<path d="M151.496 158.152L147.24 153.416L146.312 153H141.256L140.008 154.248V163.736L141.256 164.984H146.312L147.24 164.552L151.496 159.816V158.152ZM146.312 163.736H141.256V154.248H146.312L150.568 158.984L146.312 163.736Z" fill="#FFFF00"/>
<path d="M173.197 162.174V165.496H172.113V156.438H173.197V157.275C173.377 156.951 173.615 156.705 173.912 156.537C174.213 156.365 174.559 156.279 174.949 156.279C175.742 156.279 176.363 156.586 176.812 157.199C177.266 157.812 177.492 158.662 177.492 159.748C177.492 160.814 177.266 161.652 176.812 162.262C176.359 162.867 175.738 163.17 174.949 163.17C174.551 163.17 174.201 163.086 173.9 162.918C173.604 162.746 173.369 162.498 173.197 162.174ZM176.361 159.725C176.361 158.889 176.229 158.258 175.963 157.832C175.701 157.406 175.311 157.193 174.791 157.193C174.268 157.193 173.871 157.408 173.602 157.838C173.332 158.264 173.197 158.893 173.197 159.725C173.197 160.553 173.332 161.182 173.602 161.611C173.871 162.041 174.268 162.256 174.791 162.256C175.311 162.256 175.701 162.043 175.963 161.617C176.229 161.191 176.361 160.561 176.361 159.725ZM184.998 157.791C184.768 157.611 184.533 157.48 184.295 157.398C184.057 157.316 183.795 157.275 183.51 157.275C182.838 157.275 182.324 157.486 181.969 157.908C181.613 158.33 181.436 158.939 181.436 159.736V163H180.352V156.438H181.436V157.721C181.615 157.256 181.891 156.9 182.262 156.654C182.637 156.404 183.08 156.279 183.592 156.279C183.857 156.279 184.105 156.312 184.336 156.379C184.566 156.445 184.787 156.549 184.998 156.689V157.791ZM187.312 156.461H190.072V162.162H192.211V163H186.855V162.162H188.994V157.299H187.312V156.461ZM188.994 153.912H190.072V155.271H188.994V153.912ZM198.85 158.934V163H197.766V158.934C197.766 158.344 197.662 157.91 197.455 157.633C197.248 157.355 196.924 157.217 196.482 157.217C195.979 157.217 195.59 157.396 195.316 157.756C195.047 158.111 194.912 158.623 194.912 159.291V163H193.834V156.438H194.912V157.422C195.104 157.047 195.363 156.764 195.691 156.572C196.02 156.377 196.408 156.279 196.857 156.279C197.525 156.279 198.023 156.5 198.352 156.941C198.684 157.379 198.85 158.043 198.85 158.934ZM203.52 154.574V156.438H205.969V157.275H203.52V160.838C203.52 161.322 203.611 161.66 203.795 161.852C203.979 162.043 204.299 162.139 204.756 162.139H205.969V163H204.65C203.842 163 203.271 162.838 202.939 162.514C202.607 162.189 202.441 161.631 202.441 160.838V157.275H200.689V156.438H202.441V154.574H203.52Z" fill="#D7BA7D"/>
<path d="M212.162 153.309C211.643 154.199 211.254 155.088 210.996 155.975C210.742 156.857 210.615 157.748 210.615 158.646C210.615 159.541 210.742 160.432 210.996 161.318C211.254 162.205 211.643 163.098 212.162 163.996H211.225C210.635 163.066 210.195 162.162 209.906 161.283C209.617 160.4 209.473 159.521 209.473 158.646C209.473 157.775 209.617 156.898 209.906 156.016C210.195 155.133 210.635 154.23 211.225 153.309H212.162ZM218.344 157.105C218.477 156.824 218.645 156.617 218.848 156.484C219.055 156.348 219.303 156.279 219.592 156.279C220.119 156.279 220.49 156.484 220.705 156.895C220.924 157.301 221.033 158.068 221.033 159.197V163H220.049V159.244C220.049 158.318 219.996 157.744 219.891 157.521C219.789 157.295 219.602 157.182 219.328 157.182C219.016 157.182 218.801 157.303 218.684 157.545C218.57 157.783 218.514 158.35 218.514 159.244V163H217.529V159.244C217.529 158.307 217.473 157.729 217.359 157.51C217.25 157.291 217.051 157.182 216.762 157.182C216.477 157.182 216.277 157.303 216.164 157.545C216.055 157.783 216 158.35 216 159.244V163H215.021V156.438H216V157C216.129 156.766 216.289 156.588 216.48 156.467C216.676 156.342 216.896 156.279 217.143 156.279C217.439 156.279 217.686 156.348 217.881 156.484C218.08 156.621 218.234 156.828 218.344 157.105ZM227.314 156.666V157.721C227.006 157.541 226.695 157.406 226.383 157.316C226.07 157.227 225.752 157.182 225.428 157.182C224.939 157.182 224.574 157.262 224.332 157.422C224.094 157.578 223.975 157.818 223.975 158.143C223.975 158.436 224.064 158.654 224.244 158.799C224.424 158.943 224.871 159.084 225.586 159.221L226.02 159.303C226.555 159.404 226.959 159.607 227.232 159.912C227.51 160.217 227.648 160.613 227.648 161.102C227.648 161.75 227.418 162.258 226.957 162.625C226.496 162.988 225.855 163.17 225.035 163.17C224.711 163.17 224.371 163.135 224.016 163.064C223.66 162.998 223.275 162.896 222.861 162.76V161.646C223.264 161.854 223.648 162.01 224.016 162.115C224.383 162.217 224.73 162.268 225.059 162.268C225.535 162.268 225.904 162.172 226.166 161.98C226.428 161.785 226.559 161.514 226.559 161.166C226.559 160.666 226.08 160.32 225.123 160.129L225.076 160.117L224.672 160.035C224.051 159.914 223.598 159.711 223.312 159.426C223.027 159.137 222.885 158.744 222.885 158.248C222.885 157.619 223.098 157.135 223.523 156.795C223.949 156.451 224.557 156.279 225.346 156.279C225.697 156.279 226.035 156.312 226.359 156.379C226.684 156.441 227.002 156.537 227.314 156.666ZM233.871 159.666C233.871 158.857 233.738 158.244 233.473 157.826C233.211 157.404 232.828 157.193 232.324 157.193C231.797 157.193 231.395 157.404 231.117 157.826C230.84 158.244 230.701 158.857 230.701 159.666C230.701 160.475 230.84 161.092 231.117 161.518C231.398 161.939 231.805 162.15 232.336 162.15C232.832 162.15 233.211 161.938 233.473 161.512C233.738 161.086 233.871 160.471 233.871 159.666ZM234.949 162.578C234.949 163.562 234.717 164.309 234.252 164.816C233.787 165.324 233.104 165.578 232.201 165.578C231.904 165.578 231.594 165.551 231.27 165.496C230.945 165.441 230.621 165.361 230.297 165.256V164.189C230.68 164.369 231.027 164.502 231.34 164.588C231.652 164.674 231.939 164.717 232.201 164.717C232.783 164.717 233.207 164.559 233.473 164.242C233.738 163.926 233.871 163.424 233.871 162.736V162.689V161.957C233.699 162.324 233.465 162.598 233.168 162.777C232.871 162.957 232.51 163.047 232.084 163.047C231.318 163.047 230.707 162.74 230.25 162.127C229.793 161.514 229.564 160.693 229.564 159.666C229.564 158.635 229.793 157.812 230.25 157.199C230.707 156.586 231.318 156.279 232.084 156.279C232.506 156.279 232.863 156.363 233.156 156.531C233.449 156.699 233.688 156.959 233.871 157.311V156.461H234.949V162.578ZM238.113 153.309H239.051C239.641 154.23 240.08 155.133 240.369 156.016C240.658 156.898 240.803 157.775 240.803 158.646C240.803 159.525 240.658 160.406 240.369 161.289C240.08 162.172 239.641 163.074 239.051 163.996H238.113C238.633 163.09 239.02 162.193 239.273 161.307C239.531 160.42 239.66 159.533 239.66 158.646C239.66 157.756 239.531 156.867 239.273 155.98C239.02 155.094 238.633 154.203 238.113 153.309Z" fill="var(--vscode-foreground)"/>
<circle cx="145" cy="159" r="2" fill="#FF0000"/>
<rect x="151" y="201" width="65" height="8" rx="4" fill="#75BEFF"/>
<rect x="151" y="221" width="47" height="8" rx="4" fill="#D7BA7D"/>
<rect x="151" y="273" width="31" height="8" rx="4" fill="#D7BA7D"/>
<rect x="240" y="69" width="42" height="8" rx="4" fill="#CC6633"/>
<rect x="222" y="89" width="42" height="8" rx="4" fill="#CC6633"/>
<rect x="240" y="109" width="42" height="8" rx="4" fill="#D7BA7D"/>
<rect x="222" y="201" width="78" height="8" rx="4" fill="#D7BA7D"/>
<rect x="204" y="221" width="73" height="8" rx="4" fill="#CC6633"/>
<rect x="188" y="273" width="54" height="8" rx="4" fill="#CC6633"/>
</g>
<g filter="url(#filter2_d)">
<rect x="383" y="212" width="98" height="88" rx="8" fill="var(--vscode-quickInput-background, #252526)"/>
<path d="M415.516 270V258.496H427.332V254.395H415.516V246.055H428.445V241.816H410.477V270H415.516ZM443.738 270.703C449.891 270.703 454.012 266.66 454.012 260.762C454.012 255.098 450.105 251.484 445.281 251.484C442.41 251.484 440.34 252.461 439.09 254.199H438.758L439.539 245.957H452.508V241.816H435.613L434.07 258.203H438.641C439.598 256.348 441.453 255.234 443.855 255.234C446.961 255.234 449.148 257.48 449.148 260.84C449.148 264.297 446.961 266.602 443.719 266.602C440.848 266.602 438.68 264.863 438.367 262.227H433.66C433.875 267.168 437.918 270.703 443.738 270.703Z" fill="var(--vscode-input-foreground)"/>
</g>
<defs>
<filter id="filter0_d" x="0" y="26" width="208" height="284" filterUnits="userSpaceOnUse" color-interpolation-filters="sRGB">
<feFlood flood-opacity="0" result="BackgroundImageFix"/>
<feColorMatrix in="SourceAlpha" type="matrix" values="0 0 0 0 0 0 0 0 0 0 0 0 0 0 0 0 0 0 127 0" result="hardAlpha"/>
<feOffset dy="2"/>
<feGaussianBlur stdDeviation="4"/>
<feColorMatrix type="matrix" values="0 0 0 0 0 0 0 0 0 0 0 0 0 0 0 0 0 0 0.4 0"/>
<feBlend mode="normal" in2="BackgroundImageFix" result="effect1_dropShadow"/>
<feBlend mode="normal" in="SourceGraphic" in2="effect1_dropShadow" result="shape"/>
</filter>
<filter id="filter1_d" x="119" y="0" width="403" height="342" filterUnits="userSpaceOnUse" color-interpolation-filters="sRGB">
<feFlood flood-opacity="0" result="BackgroundImageFix"/>
<feColorMatrix in="SourceAlpha" type="matrix" values="0 0 0 0 0 0 0 0 0 0 0 0 0 0 0 0 0 0 127 0" result="hardAlpha"/>
<feOffset dy="2"/>
<feGaussianBlur stdDeviation="6"/>
<feColorMatrix type="matrix" values="0 0 0 0 0 0 0 0 0 0 0 0 0 0 0 0 0 0 0.6 0"/>
<feBlend mode="normal" in2="BackgroundImageFix" result="effect1_dropShadow"/>
<feBlend mode="normal" in="SourceGraphic" in2="effect1_dropShadow" result="shape"/>
</filter>
<filter id="filter2_d" x="371" y="202" width="122" height="112" filterUnits="userSpaceOnUse" color-interpolation-filters="sRGB">
<feFlood flood-opacity="0" result="BackgroundImageFix"/>
<feColorMatrix in="SourceAlpha" type="matrix" values="0 0 0 0 0 0 0 0 0 0 0 0 0 0 0 0 0 0 127 0" result="hardAlpha"/>
<feOffset dy="2"/>
<feGaussianBlur stdDeviation="6"/>
<feColorMatrix type="matrix" values="0 0 0 0 0 0 0 0 0 0 0 0 0 0 0 0 0 0 0.6 0"/>
<feBlend mode="normal" in2="BackgroundImageFix" result="effect1_dropShadow"/>
<feBlend mode="normal" in="SourceGraphic" in2="effect1_dropShadow" result="shape"/>
</filter>
</defs>
</svg>
