<svg xmlns="http://www.w3.org/2000/svg" width="58" height="36"><path fill="#F0EFF1" d="M54 32v-28h-50v28h50zm-16-2h-18v-6h18v6zm6 0h-4v-6h4v6zm8 0h-6v-6h6v6zm-4-24h4v4h-4v-4zm0 6h4v4h-4v-4zm0 6h4v4h-4v-4zm-6-12h4v4h-4v-4zm0 6h4v4h-4v-4zm0 6h4v4h-4v-4zm-6-12h4v4h-4v-4zm0 6h4v4h-4v-4zm0 6h4v4h-4v-4zm-6-12h4v4h-4v-4zm0 6h4v4h-4v-4zm0 6h4v4h-4v-4zm-6-12h4v4h-4v-4zm0 6h4v4h-4v-4zm0 6h4v4h-4v-4zm-6-12h4v4h-4v-4zm0 6h4v4h-4v-4zm0 6h4v4h-4v-4zm0 12h-4v-6h4v6zm-6-24h4v4h-4v-4zm0 6h4v4h-4v-4zm0 6h4v4h-4v-4zm-6-12h4v4h-4v-4zm0 6h4v4h-4v-4zm0 6h4v4h-4v-4zm0 6h6v6h-6v-6z"/><path fill="#424242" d="M55.336 0h-53.285c-1.344 0-2.051.656-2.051 2v32c0 1.344.707 1.965 2.051 1.965l53.949.035c1.344 0 2-.656 2-2v-32c0-1.344-1.32-2-2.664-2zm-1.336 32h-50v-28h50v28z"/><rect x="6" y="12" fill="#424242" width="4" height="4"/><rect x="12" y="12" fill="#424242" width="4" height="4"/><rect x="18" y="12" fill="#424242" width="4" height="4"/><rect x="24" y="12" fill="#424242" width="4" height="4"/><rect x="30" y="12" fill="#424242" width="4" height="4"/><rect x="36" y="12" fill="#424242" width="4" height="4"/><rect x="42" y="12" fill="#424242" width="4" height="4"/><rect x="48" y="12" fill="#424242" width="4" height="4"/><rect x="6" y="6" fill="#424242" width="4" height="4"/><rect x="12" y="6" fill="#424242" width="4" height="4"/><rect x="18" y="6" fill="#424242" width="4" height="4"/><rect x="24" y="6" fill="#424242" width="4" height="4"/><rect x="30" y="6" fill="#424242" width="4" height="4"/><rect x="36" y="6" fill="#424242" width="4" height="4"/><rect x="42" y="6" fill="#424242" width="4" height="4"/><rect x="48" y="6" fill="#424242" width="4" height="4"/><rect x="6" y="18" fill="#424242" width="4" height="4"/><rect x="12" y="18" fill="#424242" width="4" height="4"/><rect x="18" y="18" fill="#424242" width="4" height="4"/><rect x="24" y="18" fill="#424242" width="4" height="4"/><rect x="30" y="18" fill="#424242" width="4" height="4"/><rect x="36" y="18" fill="#424242" width="4" height="4"/><rect x="42" y="18" fill="#424242" width="4" height="4"/><rect x="48" y="18" fill="#424242" width="4" height="4"/><rect x="6" y="24" fill="#424242" width="6" height="6"/><rect x="46" y="24" fill="#424242" width="6" height="6"/><rect x="20" y="24" fill="#424242" width="18" height="6"/><rect x="14" y="24" fill="#424242" width="4" height="6"/><rect x="40" y="24" fill="#424242" width="4" height="6"/></svg>