<svg width="53" height="36" viewBox="0 0 53 36" fill="none" xmlns="http://www.w3.org/2000/svg">
<g clip-path="url(#clip0)">
<path fill-rule="evenodd" clip-rule="evenodd" d="M48.0364 4.01042H4.00779L4.00779 32.0286H48.0364V4.01042ZM4.00779 0.0078125C1.79721 0.0078125 0.00518799 1.79984 0.00518799 4.01042V32.0286C0.00518799 34.2392 1.79721 36.0312 4.00779 36.0312H48.0364C50.247 36.0312 52.039 34.2392 52.039 32.0286V4.01042C52.039 1.79984 50.247 0.0078125 48.0364 0.0078125H4.00779ZM8.01042 8.01302H12.013V12.0156H8.01042V8.01302ZM20.0182 8.01302H16.0156V12.0156H20.0182V8.01302ZM24.0208 8.01302H28.0234V12.0156H24.0208V8.01302ZM36.0286 8.01302H32.026V12.0156H36.0286V8.01302ZM40.0312 8.01302H44.0339V12.0156H40.0312V8.01302ZM16.0156 16.0182H8.01042V20.0208H16.0156V16.0182ZM20.0182 16.0182H24.0208V20.0208H20.0182V16.0182ZM32.026 16.0182H28.0234V20.0208H32.026V16.0182ZM44.0339 16.0182V20.0208H36.0286V16.0182H44.0339ZM12.013 24.0234H8.01042V28.026H12.013V24.0234ZM16.0156 24.0234H36.0286V28.026H16.0156V24.0234ZM44.0339 24.0234H40.0312V28.026H44.0339V24.0234Z" fill="#C5C5C5"/>
</g>
<defs>
<clipPath id="clip0">
<rect width="53" height="36" fill="white"/>
</clipPath>
</defs>
</svg>
