<svg version="1.1"
	 xmlns="http://www.w3.org/2000/svg" xmlns:xlink="http://www.w3.org/1999/xlink"
	 x="0px" y="0px" width="16px" height="16px" xml:space="preserve">
<path fill="#424242" d="M15.623,15.622 C15.123,16.123 14.311,16.123 13.811,15.622 L10.519,12.330 C7.894,14.108 4.299,13.841 1.975,11.516 C-0.660,8.881 -0.660,4.610 1.975,1.974 C4.609,-0.661 8.881,-0.661 11.516,1.974 C13.841,4.299 14.108,7.894 12.331,10.519 L15.623,13.811 C16.123,14.311 16.123,15.122 15.623,15.622 ZM10.369,3.122 C8.368,1.121 5.123,1.121 3.122,3.122 C1.121,5.123 1.121,8.368 3.122,10.369 C5.123,12.370 8.368,12.370 10.369,10.369 C12.370,8.368 12.370,5.123 10.369,3.122 Z"/>
</svg>
