<svg width="16" height="16" viewBox="0 0 16 16" fill="none" xmlns="http://www.w3.org/2000/svg">
<path fill-rule="evenodd" clip-rule="evenodd" d="M11.6009 2.67683C11.7474 2.36708 11.9559 2.2122 12.2263 2.2122C12.4742 2.2122 12.6651 2.32987 12.7991 2.56522C12.933 2.80056 13 3.12243 13 3.53082C13 3.97383 12.9218 4.32944 12.7653 4.59766C12.6088 4.86589 12.3997 5 12.138 5C11.9014 5 11.7224 4.87541 11.6009 4.62622H11.5934V4.93511H11V1H11.5934V2.67683H11.6009ZM11.584 3.77742C11.584 3.94873 11.6197 4.09063 11.6911 4.20311C11.7624 4.3156 11.8538 4.37184 11.9653 4.37184C12.1005 4.37184 12.205 4.30002 12.2789 4.15639C12.354 4.01103 12.3915 3.80597 12.3915 3.54121C12.3915 3.32144 12.3571 3.15012 12.2883 3.02726C12.2207 2.90266 12.1236 2.84036 11.9972 2.84036C11.8782 2.84036 11.7793 2.9018 11.7005 3.02466C11.6228 3.14752 11.584 3.30759 11.584 3.50487V3.77742ZM4.11969 7.695L2 5.56781L2.66188 4.90594L3.66781 5.90625V4.39594C3.66695 4.21309 3.70219 4.03187 3.7715 3.86266C3.84082 3.69346 3.94286 3.53961 4.07176 3.40992C4.20066 3.28023 4.3539 3.17727 4.52268 3.10692C4.69146 3.03658 4.87246 3.00024 5.05531 3H7.39906V3.90469H5.05531C4.92856 3.91026 4.8089 3.96476 4.72149 4.05672C4.63408 4.14868 4.58571 4.27094 4.58656 4.39781L4.59406 5.89781L5.54281 4.95375L6.19906 5.61L4.11969 7.695ZM9.3556 4.93017H10V3.22067C10 2.40689 9.68534 2 9.05603 2C8.92098 2 8.77083 2.02421 8.6056 2.07263C8.44181 2.12104 8.3125 2.17691 8.21767 2.24022V2.90503C8.45474 2.70205 8.70474 2.60056 8.96767 2.60056C9.22917 2.60056 9.35991 2.75698 9.35991 3.06983L8.76078 3.17318C8.25359 3.25885 8 3.57914 8 4.13408C8 4.39665 8.06106 4.60708 8.18319 4.76536C8.30675 4.92179 8.47557 5 8.68966 5C8.97989 5 9.19899 4.83985 9.34698 4.51955H9.3556V4.93017ZM9.35991 3.57542V3.76816C9.35991 3.9432 9.31968 4.08845 9.23922 4.20391C9.15876 4.3175 9.0546 4.3743 8.92672 4.3743C8.83477 4.3743 8.76149 4.34264 8.7069 4.27933C8.65374 4.21415 8.62716 4.13128 8.62716 4.03073C8.62716 3.80912 8.73779 3.6797 8.95905 3.64246L9.35991 3.57542ZM7 12.9302H6.3556V12.5196H6.34698C6.19899 12.8399 5.97989 13 5.68966 13C5.47557 13 5.30675 12.9218 5.18319 12.7654C5.06106 12.6071 5 12.3966 5 12.1341C5 11.5791 5.25359 11.2588 5.76078 11.1732L6.35991 11.0698C6.35991 10.757 6.22917 10.6006 5.96767 10.6006C5.70474 10.6006 5.45474 10.702 5.21767 10.905V10.2402C5.3125 10.1769 5.44181 10.121 5.6056 10.0726C5.77083 10.0242 5.92098 10 6.05603 10C6.68534 10 7 10.4069 7 11.2207V12.9302ZM6.35991 11.7682V11.5754L5.95905 11.6425C5.73779 11.6797 5.62716 11.8091 5.62716 12.0307C5.62716 12.1313 5.65374 12.2142 5.7069 12.2793C5.76149 12.3426 5.83477 12.3743 5.92672 12.3743C6.0546 12.3743 6.15876 12.3175 6.23922 12.2039C6.31968 12.0885 6.35991 11.9432 6.35991 11.7682ZM9.26165 13C9.58343 13 9.82955 12.9423 10 12.8268V12.1173C9.81999 12.2551 9.636 12.324 9.44803 12.324C9.23616 12.324 9.06969 12.2523 8.94863 12.1089C8.82756 11.9637 8.76702 11.7644 8.76702 11.5112C8.76702 11.2505 8.82995 11.0466 8.95579 10.8994C9.08323 10.7505 9.25528 10.676 9.47192 10.676C9.66627 10.676 9.84229 10.7449 10 10.8827V10.1341C9.87097 10.0447 9.66229 10 9.37395 10C8.95659 10 8.62286 10.1406 8.37276 10.4218C8.12425 10.7011 8 11.0838 8 11.5698C8 11.9907 8.11629 12.3343 8.34887 12.6006C8.58144 12.8669 8.8857 13 9.26165 13ZM2 9L3 8H12L13 9V14L12 15H3L2 14V9ZM3 9V14H12V9H3ZM6 7L7 6H14L15 7V12L14 13V12V7H7H6Z" fill="#C5C5C5"/>
</svg>
