<svg width="16" height="16" viewBox="0 0 16 16" fill="none" xmlns="http://www.w3.org/2000/svg">
<path d="M5.48199 6.008L3.22099 3.739L3.92699 3.033L4.99999 4.1V2.489C4.99907 2.29396 5.03666 2.10066 5.1106 1.92018C5.18454 1.73969 5.29338 1.57558 5.43087 1.43725C5.56837 1.29892 5.73182 1.18908 5.91185 1.11405C6.09188 1.03902 6.28495 1.00026 6.47999 1L7.99999 1V1.965H6.47999C6.34479 1.97095 6.21716 2.02908 6.12391 2.12716C6.03067 2.22525 5.97909 2.35567 5.97999 2.491L5.98799 4.091L6.99999 3.084L7.69999 3.784L5.48199 6.008Z" fill="#424242"/>
<path d="M3 7V14.979H12.021V7H3ZM11 14H4V8H11V14Z" fill="#424242"/>
<path d="M9.90141 5.53277H9.89014V5.91888H9V1H9.89014V3.09604H9.90141C10.1211 2.70885 10.4338 2.51525 10.8394 2.51525C11.2113 2.51525 11.4977 2.66234 11.6986 2.95652C11.8995 3.2507 12 3.65304 12 4.16353C12 4.71728 11.8826 5.1618 11.6479 5.49708C11.4131 5.83236 11.0995 6 10.707 6C10.3521 6 10.0836 5.84426 9.90141 5.53277ZM9.87606 4.13108V4.47177C9.87606 4.68592 9.92958 4.86329 10.0366 5.00389C10.1437 5.14449 10.2808 5.2148 10.4479 5.2148C10.6507 5.2148 10.8075 5.12503 10.9183 4.94549C11.031 4.76379 11.0873 4.50746 11.0873 4.17651C11.0873 3.9018 11.0357 3.68765 10.9324 3.53407C10.831 3.37833 10.6854 3.30045 10.4958 3.30045C10.3174 3.30045 10.169 3.37724 10.0507 3.53082C9.93427 3.6844 9.87606 3.88449 9.87606 4.13108Z" fill="#424242"/>
<path d="M9 12.7691C8.74433 12.923 8.37515 13 7.89247 13C7.32855 13 6.87216 12.8225 6.5233 12.4674C6.17443 12.1124 6 11.6543 6 11.0931C6 10.4451 6.18638 9.93484 6.55914 9.5624C6.93429 9.18747 7.43489 9.00001 8.06093 9.00001C8.49343 9.00001 8.80645 9.0596 9 9.17878V10.1769C8.76344 9.99318 8.4994 9.90132 8.20789 9.90132C7.88292 9.90132 7.62485 10.0006 7.43369 10.1993C7.24492 10.3954 7.15054 10.6673 7.15054 11.0149C7.15054 11.3526 7.24134 11.6183 7.42294 11.8119C7.60454 12.0031 7.85424 12.0987 8.17204 12.0987C8.454 12.0987 8.72999 12.0068 9 11.8231V12.7691Z" fill="#424242"/>
</svg>
