<svg width="16" height="16" viewBox="0 0 16 16" fill="none" xmlns="http://www.w3.org/2000/svg">
<path d="M3.48199 7.043L1.22099 4.774L1.92699 4.068L2.99999 5.138V3.524C2.9992 3.329 3.03688 3.13576 3.11087 2.95533C3.18485 2.77491 3.2937 2.61085 3.43117 2.47254C3.56864 2.33424 3.73203 2.2244 3.91201 2.14932C4.09198 2.07424 4.28499 2.0354 4.47999 2.035H6.97999V3H4.47999C4.34487 3.0062 4.21739 3.0644 4.1242 3.16244C4.03101 3.26047 3.97934 3.39075 3.97999 3.526L3.98799 5.126L4.99999 4.119L5.69999 4.819L3.48199 7.043Z" fill="#C5C5C5"/>
<path d="M1 8V14.979H11.021V8H1ZM10 14H2V9H10V14Z" fill="#C5C5C5"/>
<path d="M5.94 6L4.94 7H12V12V12.979H13.021V6H5.94Z" fill="#C5C5C5"/>
<path d="M9.017 12.915C8.74757 13.0062 8.46441 13.0502 8.18 13.045C7.90073 13.0522 7.62396 12.9908 7.374 12.866C7.15447 12.7534 6.97448 12.5765 6.858 12.359C6.73537 12.1251 6.6738 11.864 6.679 11.6C6.67389 11.3127 6.74276 11.029 6.879 10.776C7.0088 10.5392 7.20478 10.3453 7.443 10.218C7.70187 10.0821 7.99068 10.0134 8.283 10.018C8.53065 10.0173 8.77735 10.0486 9.017 10.111V10.924C8.92666 10.8708 8.82843 10.8323 8.726 10.81C8.61376 10.7824 8.49858 10.7686 8.383 10.769C8.27977 10.7632 8.17643 10.7784 8.07929 10.8138C7.98215 10.8492 7.89324 10.9041 7.818 10.975C7.74722 11.0492 7.69234 11.137 7.65675 11.2331C7.62115 11.3293 7.60558 11.4316 7.611 11.534C7.60564 11.6355 7.62125 11.7369 7.65687 11.8321C7.69248 11.9272 7.74734 12.014 7.818 12.087C7.89211 12.1556 7.97924 12.2087 8.07423 12.2431C8.16922 12.2774 8.27013 12.2924 8.371 12.287C8.59616 12.2843 8.81749 12.2284 9.017 12.124V12.915Z" fill="#C5C5C5"/>
<path d="M9.029 4.489L8.913 5H8L8.729 2H10.015L10.708 5H9.808L9.689 4.489H9.029ZM9.19 3.789H9.524L9.359 3.056L9.19 3.789Z" fill="#C5C5C5"/>
<path d="M13.457 5.01899H12.024V2.01899H13.115C13.3036 2.00994 13.4923 2.03327 13.673 2.08799C13.8007 2.14095 13.9065 2.23583 13.973 2.35699C14.0551 2.50587 14.0959 2.67403 14.091 2.84399C14.0973 2.97556 14.0761 3.107 14.029 3.22999C13.9804 3.33235 13.9125 3.42436 13.829 3.50099C13.9295 3.58106 14.0132 3.68032 14.075 3.79299C14.1312 3.92104 14.1572 4.06029 14.151 4.19999C14.162 4.41417 14.0952 4.62511 13.963 4.79399C13.9017 4.86797 13.8242 4.92677 13.7364 4.9658C13.6486 5.00483 13.553 5.02304 13.457 5.01899ZM12.95 2.62399H12.926V3.20799H12.95C12.9873 3.2115 13.0248 3.20755 13.0605 3.19639C13.0962 3.18523 13.1294 3.16708 13.158 3.14299C13.2062 3.08189 13.2288 3.00444 13.221 2.92699C13.2294 2.84372 13.2081 2.76016 13.161 2.69099C13.1323 2.66597 13.0988 2.64711 13.0625 2.63558C13.0262 2.62406 12.9879 2.62011 12.95 2.62399ZM12.942 3.71499H12.926V4.35899H12.954C12.9936 4.36305 13.0336 4.35902 13.0716 4.34716C13.1096 4.3353 13.1448 4.31585 13.175 4.28999C13.2256 4.22194 13.2488 4.13735 13.24 4.05299C13.2498 3.9601 13.2268 3.8667 13.175 3.78899C13.1435 3.76099 13.1065 3.73993 13.0664 3.72718C13.0262 3.71443 12.9839 3.71028 12.942 3.71499Z" fill="#C5C5C5"/>
<path d="M4.015 12.507L3.9 13.013H3L3.722 10.043H4.992L5.678 13.013H4.778L4.66 12.507H4.015ZM4.174 11.807H4.505L4.342 11.081L4.174 11.807Z" fill="#C5C5C5"/>
</svg>
