<svg version="1.1" xmlns="http://www.w3.org/2000/svg" xmlns:xlink="http://www.w3.org/1999/xlink" x="0px" y="0px" width="16px"
	 height="16px" viewBox="0 0 16 16" enable-background="new 0 0 16 16" xml:space="preserve">
<g id="icon_x5F_bg">
	<path fill="#424242" d="M11,15V9H1v6H11z M2,14v-2h1v-1H2v-1h3v4H2z M10,11H8v2h2v1H7v-4h3V11z M3,13v-1h1v1H3z M13,7v6h-1V8H5V7
		H13z M13,2V1h-1v5h3V2H13z M14,5h-1V3h1V5z M11,2v4H8V4h1v1h1V4H9V3H8V2H11z"/>
</g>
<g id="color_x5F_action">
	<path fill="#00539C" d="M1.979,3.5L2,6L1,5v1.5L2.5,8L4,6.5V5L3,6L2.979,3.5c0-0.275,0.225-0.5,0.5-0.5H7V2H3.479
		C2.651,2,1.979,2.673,1.979,3.5z"/>
</g>
</svg>
