<svg width="24" height="24" viewBox="0 0 24 24" fill="none" xmlns="http://www.w3.org/2000/svg">
<path fill-rule="evenodd" clip-rule="evenodd" d="M22.5 8.25C22.5 11.9779 19.4779 15 15.75 15C12.0221 15 9 11.9779 9 8.25C9 4.52208 12.0221 1.5 15.75 1.5C19.4779 1.5 22.5 4.52208 22.5 8.25ZM24 8.25C24 12.8063 20.3063 16.5 15.75 16.5C13.8323 16.5 12.0674 15.8457 10.6664 14.7481L2.62509 23.8677L1.5 22.8756L9.57353 13.7195C8.28334 12.2636 7.5 10.3483 7.5 8.25C7.5 3.69365 11.1937 0 15.75 0C20.3063 0 24 3.69365 24 8.25Z" fill="white"/>
</svg>
