<svg width="24" height="24" viewBox="0 0 24 24" fill="none" xmlns="http://www.w3.org/2000/svg">
<path fill-rule="evenodd" clip-rule="evenodd" d="M22 8.25C22 11.9779 18.9779 15 15.25 15C11.5221 15 8.5 11.9779 8.5 8.25C8.5 4.52208 11.5221 1.5 15.25 1.5C18.9779 1.5 22 4.52208 22 8.25ZM23.5 8.25C23.5 12.8063 19.8063 16.5 15.25 16.5C13.3323 16.5 11.5674 15.8457 10.1664 14.7481L2.12509 23.8677L1 22.8756L9.07353 13.7195C7.78334 12.2636 7 10.3483 7 8.25C7 3.69365 10.6937 0 15.25 0C19.8063 0 23.5 3.69365 23.5 8.25Z" fill="white"/>
</svg>
