<svg width="16" height="16" viewBox="0 0 16 16" fill="none" xmlns="http://www.w3.org/2000/svg">
<path fill-rule="evenodd" clip-rule="evenodd" d="M13.4167 6.5C13.4167 6.54043 13.4162 6.58073 13.4151 6.6209C13.7562 6.80943 14.073 7.03667 14.3594 7.29667C14.3972 7.03657 14.4167 6.77057 14.4167 6.5C14.4167 3.46243 11.9543 1 8.9167 1C5.87913 1 3.41669 3.46243 3.41669 6.5C3.41669 7.89885 3.93892 9.17573 4.79905 10.1463L1 13.8386L1.75006 14.5L5.52761 10.8321C5.67974 10.9512 5.8383 11.0626 6.00269 11.1655C6.0009 11.1105 6 11.0554 6 11C6 10.6605 6.03384 10.3288 6.09834 10.0083C5.07293 9.18351 4.41669 7.91839 4.41669 6.5C4.41669 4.01472 6.43141 2 8.9167 2C11.402 2 13.4167 4.01472 13.4167 6.5ZM11 14C11.6479 14 12.2478 13.7946 12.7382 13.4454L8.55459 9.26177C8.20537 9.75217 7.99999 10.3521 7.99999 11C7.99999 12.6569 9.34313 14 11 14ZM9.26168 8.55465L13.4453 12.7383C13.7946 12.2479 14 11.6479 14 11C14 9.34315 12.6568 8 11 8C10.3521 8 9.7521 8.20541 9.26168 8.55465ZM11 15C13.2091 15 15 13.2091 15 11C15 8.79086 13.2091 7 11 7C8.79085 7 6.99999 8.79086 6.99999 11C6.99999 13.2091 8.79085 15 11 15Z" fill="white"/>
</svg>
