<svg width="16" height="16" viewBox="0 0 16 16" fill="none" xmlns="http://www.w3.org/2000/svg">
<path d="M11.4998 8C10.69 8.00006 9.90534 8.28088 9.27944 8.79462C8.65354 9.30835 8.22513 10.0232 8.06721 10.8174C7.90929 11.6116 8.03163 12.436 8.41339 13.1501C8.79514 13.8642 9.41269 14.4238 10.1608 14.7337C10.9089 15.0435 11.7413 15.0843 12.5162 14.8492C13.2911 14.6141 13.9604 14.1176 14.4103 13.4443C14.8601 12.771 15.0625 11.9626 14.9831 11.1568C14.9037 10.3509 14.5474 9.59754 13.9748 9.025C13.6497 8.7 13.2639 8.44221 12.8392 8.26634C12.4145 8.09047 11.9594 7.99997 11.4998 8ZM8.99975 12V11H13.9998V12H8.99975Z" fill="white"/>
<path fill-rule="evenodd" clip-rule="evenodd" d="M6.10195 3.41434L6.58826 1H9.41174L9.89805 3.41434L11.9624 2.04783L13.9446 4.01601L12.5683 6.06585L15 6.54874V8.67133C14.7135 8.31729 14.3744 8.00758 13.9945 7.75412V7.36699L11.6136 6.89418L11.3437 6.09013L12.6509 4.14318L11.8343 3.33234L9.87354 4.63026L9.0636 4.36219L8.58742 1.99814H7.41258L6.9364 4.36219L6.12646 4.63026L4.16571 3.33234L3.34909 4.14318L4.65631 6.09013L4.38639 6.89418L2.00547 7.36699V8.54944L4.3904 9.11777L4.65631 9.90987L3.34909 11.8568L4.16571 12.6677L6.12646 11.3697L6.9364 11.6378L7.41258 14.0019H7.75902C8.01157 14.3787 8.31956 14.7153 8.67133 15H6.58826L6.10195 12.5857L4.03758 13.9522L2.05537 11.984L3.44228 9.91833L1 9.33633V6.54874L3.43166 6.06585L2.05537 4.01601L4.03758 2.04783L6.10195 3.41434ZM10.3511 7.148C10.0027 6.18677 9.08153 5.5 8 5.5C6.61929 5.5 5.5 6.61929 5.5 8C5.5 9.08153 6.18677 10.0027 7.148 10.3511C7.23412 10.024 7.35613 9.71148 7.50957 9.41799C6.92198 9.2148 6.5 8.65668 6.5 8C6.5 7.17157 7.17157 6.5 8 6.5C8.65668 6.5 9.2148 6.92198 9.41799 7.50957C9.71148 7.35613 10.024 7.23412 10.3511 7.148Z" fill="white"/>
</svg>
