<svg width="16" height="16" viewBox="0 0 16 16" fill="none" xmlns="http://www.w3.org/2000/svg">
<path fill-rule="evenodd" clip-rule="evenodd" d="M6.58826 1L6.10195 3.41434L4.03758 2.04783L2.05537 4.01601L3.43166 6.06585L1 6.54874V9.33633L3.44228 9.91833L2.05537 11.984L4.03758 13.9522L6.10195 12.5857L6.58826 15H8.67133C8.31956 14.7153 8.01157 14.3787 7.75902 14.0019H7.41258L6.9364 11.6378L6.12646 11.3697L4.16571 12.6677L3.34909 11.8568L4.65631 9.90987L4.3904 9.11777L2.00547 8.54944V7.36699L4.38639 6.89418L4.65631 6.09013L3.34909 4.14318L4.16571 3.33234L6.12646 4.63026L6.9364 4.36219L7.41258 1.99814H8.58742L9.0636 4.36219L9.87354 4.63026L11.8343 3.33234L12.6509 4.14318L11.3437 6.09013L11.6136 6.89418L13.9945 7.36699V7.75412C14.3744 8.00758 14.7135 8.31729 15 8.67133V6.54874L12.5683 6.06585L13.9446 4.01601L11.9624 2.04783L9.89805 3.41434L9.41174 1H6.58826ZM8 5.5C9.08153 5.5 10.0027 6.18677 10.3511 7.148C10.024 7.23412 9.71148 7.35613 9.41799 7.50957C9.2148 6.92198 8.65668 6.5 8 6.5C7.17157 6.5 6.5 7.17157 6.5 8C6.5 8.65668 6.92198 9.2148 7.50957 9.41799C7.35613 9.71148 7.23412 10.024 7.148 10.3511C6.18677 10.0027 5.5 9.08153 5.5 8C5.5 6.61929 6.61929 5.5 8 5.5ZM9.27944 8.79462C9.90534 8.28088 10.69 8.00006 11.4998 8C11.9594 7.99997 12.4145 8.09047 12.8392 8.26634C13.2639 8.44221 13.6497 8.7 13.9748 9.025C14.5474 9.59754 14.9037 10.3509 14.9831 11.1568C15.0625 11.9626 14.8601 12.771 14.4103 13.4443C13.9604 14.1176 13.2911 14.6141 12.5162 14.8492C11.7413 15.0843 10.9089 15.0435 10.1608 14.7337C9.41269 14.4238 8.79514 13.8642 8.41339 13.1501C8.03163 12.436 7.90929 11.6116 8.06721 10.8174C8.22513 10.0232 8.65354 9.30836 9.27944 8.79462ZM8.99975 11V12H13.9998V11H8.99975Z" fill="#424242"/>
</svg>
