<svg xmlns="http://www.w3.org/2000/svg" viewBox="0 0 386 197"><defs><style>.cls-1{fill:#f6f6f6}.cls-2,.cls-6{fill:#fff}.cls-2{stroke:#94c5e6}.cls-2,.cls-4{stroke-miterlimit:10}.cls-3{fill:#6c6c6c}.cls-4{fill:none;stroke:#6c6c6c}.cls-5{fill:#dff0ff}.cls-6{opacity:.52}</style></defs><title>Asset 9</title><g id="Layer_2" data-name="Layer 2"><g id="Layer_1-2" data-name="Layer 1"><rect width="386" height="197" class="cls-1"/><rect width="374" height="23" x="5.25" y="8" class="cls-2"/><path d="M17.22,21.27l-7.14,3.59V23.62L15.42,21v0l-5.35-3V16.78l7.14,4Z" class="cls-3"/><line x1="18.75" x2="18.75" y1="12" y2="28" class="cls-4"/><rect width="385.75" height="20.5" y="38.5" class="cls-5"/><path d="M17.65,53.69a5.34,5.34,0,0,1-2.51.53A4.06,4.06,0,0,1,12,53a4.61,4.61,0,0,1-1.17-3.28,4.83,4.83,0,0,1,1.31-3.53,4.46,4.46,0,0,1,3.33-1.35,5.36,5.36,0,0,1,2.15.37v1.14a4.35,4.35,0,0,0-2.16-.55,3.31,3.31,0,0,0-2.54,1,3.94,3.94,0,0,0-1,2.8,3.76,3.76,0,0,0,.91,2.65,3.1,3.1,0,0,0,2.39,1,4.48,4.48,0,0,0,2.37-.61Z" class="cls-3"/><path d="M24.76,54.07h-1V50.33q0-2-1.51-2a1.65,1.65,0,0,0-1.28.59,2.19,2.19,0,0,0-.52,1.51v3.68h-1V44.45h1v4.2h0a2.36,2.36,0,0,1,2.13-1.23q2.2,0,2.2,2.65Z" class="cls-3"/><path d="M31.37,54.07h-1v-1h0a2.18,2.18,0,0,1-2,1.17,2.14,2.14,0,0,1-1.52-.51,1.78,1.78,0,0,1-.55-1.37q0-1.82,2.14-2.12L30.33,50q0-1.66-1.34-1.66a3.2,3.2,0,0,0-2.12.8V48a4,4,0,0,1,2.21-.61q2.29,0,2.29,2.42Zm-1-3.29L28.76,51a2.55,2.55,0,0,0-1.09.36,1,1,0,0,0-.37.91,1,1,0,0,0,.34.78,1.31,1.31,0,0,0,.9.3,1.67,1.67,0,0,0,1.28-.54,1.94,1.94,0,0,0,.5-1.37Z" class="cls-3"/><path d="M38.73,54.07h-1V50.37q0-2.07-1.51-2.07a1.64,1.64,0,0,0-1.29.59,2.18,2.18,0,0,0-.51,1.48v3.71h-1v-6.5h1v1.08h0a2.35,2.35,0,0,1,2.13-1.23,2,2,0,0,1,1.63.69,3.07,3.07,0,0,1,.57,2Z" class="cls-3"/><path d="M46.24,53.55q0,3.58-3.43,3.58a4.6,4.6,0,0,1-2.11-.46v-1a4.33,4.33,0,0,0,2.09.61q2.4,0,2.4-2.55V53h0a2.63,2.63,0,0,1-4.19.38A3.47,3.47,0,0,1,40.25,51,4,4,0,0,1,41,48.4a2.66,2.66,0,0,1,2.18-1,2.12,2.12,0,0,1,1.95,1.05h0v-.9h1Zm-1-2.42v-1a1.86,1.86,0,0,0-.52-1.33,1.73,1.73,0,0,0-1.3-.55,1.81,1.81,0,0,0-1.51.7,3.14,3.14,0,0,0-.55,2,2.69,2.69,0,0,0,.52,1.74,1.69,1.69,0,0,0,1.39.65,1.81,1.81,0,0,0,1.42-.62A2.32,2.32,0,0,0,45.2,51.13Z" class="cls-3"/><path d="M53.57,51.08H49a2.43,2.43,0,0,0,.58,1.68,2,2,0,0,0,1.54.59,3.19,3.19,0,0,0,2-.72v1a3.77,3.77,0,0,1-2.27.62,2.75,2.75,0,0,1-2.16-.89,3.62,3.62,0,0,1-.79-2.49,3.55,3.55,0,0,1,.86-2.47,2.76,2.76,0,0,1,2.14-1,2.45,2.45,0,0,1,2,.83,3.44,3.44,0,0,1,.7,2.29ZM52.5,50.2a2.12,2.12,0,0,0-.43-1.4,1.48,1.48,0,0,0-1.19-.5,1.68,1.68,0,0,0-1.25.53A2.39,2.39,0,0,0,49,50.2Z" class="cls-3"/><path d="M63.67,54.07H58.84V45h4.62v1H59.91v3H63.2v1H59.91v3.19h3.76Z" class="cls-3"/><path d="M70.68,54.07h-1V50.37q0-2.07-1.51-2.07a1.64,1.64,0,0,0-1.29.59,2.18,2.18,0,0,0-.51,1.48v3.71h-1v-6.5h1v1.08h0a2.35,2.35,0,0,1,2.13-1.23,2,2,0,0,1,1.63.69,3.07,3.07,0,0,1,.56,2Z" class="cls-3"/><path d="M78.19,54.07h-1V53h0a2.62,2.62,0,0,1-4.19.38A3.58,3.58,0,0,1,72.19,51,3.9,3.9,0,0,1,73,48.39a2.68,2.68,0,0,1,2.16-1,2.09,2.09,0,0,1,1.95,1.05h0v-4h1Zm-1-2.94v-1a1.86,1.86,0,0,0-.52-1.33,1.74,1.74,0,0,0-1.32-.55,1.8,1.8,0,0,0-1.5.7,3.06,3.06,0,0,0-.54,1.93,2.75,2.75,0,0,0,.52,1.77,1.71,1.71,0,0,0,1.41.65,1.78,1.78,0,0,0,1.41-.63A2.35,2.35,0,0,0,77.14,51.13Z" class="cls-3"/><path d="M86.57,54.23a3,3,0,0,1-2.3-.91,3.37,3.37,0,0,1-.86-2.42,3.51,3.51,0,0,1,.9-2.56,3.22,3.22,0,0,1,2.42-.92,2.92,2.92,0,0,1,2.27.89,3.56,3.56,0,0,1,.82,2.48,3.49,3.49,0,0,1-.88,2.49A3.08,3.08,0,0,1,86.57,54.23Zm.08-5.93a2,2,0,0,0-1.59.68,2.8,2.8,0,0,0-.58,1.88,2.64,2.64,0,0,0,.59,1.82,2,2,0,0,0,1.58.67,1.9,1.9,0,0,0,1.55-.65,2.84,2.84,0,0,0,.54-1.86A2.88,2.88,0,0,0,88.2,49,1.89,1.89,0,0,0,86.65,48.3Z" class="cls-3"/><path d="M94.45,45.37a1.39,1.39,0,0,0-.69-.17q-1.09,0-1.09,1.38v1h1.52v.89H92.66v5.61h-1V48.46H90.52v-.89h1.11V46.52a2.19,2.19,0,0,1,.59-1.62,2,2,0,0,1,1.47-.59,2,2,0,0,1,.75.11Z" class="cls-3"/><path d="M103.73,54.07H99V45h1.07v8.14h3.66Z" class="cls-3"/><path d="M105.52,45.92a.66.66,0,0,1-.48-.19.64.64,0,0,1-.2-.48.67.67,0,0,1,.67-.68.67.67,0,0,1,.49.19.68.68,0,0,1,0,1A.66.66,0,0,1,105.52,45.92Zm.51,8.15h-1v-6.5h1Z" class="cls-3"/><path d="M113.53,54.07h-1V50.37q0-2.07-1.51-2.07a1.64,1.64,0,0,0-1.29.59,2.18,2.18,0,0,0-.51,1.48v3.71h-1v-6.5h1v1.08h0a2.35,2.35,0,0,1,2.13-1.23,2,2,0,0,1,1.63.69,3.07,3.07,0,0,1,.57,2Z" class="cls-3"/><path d="M120.71,51.08h-4.59a2.43,2.43,0,0,0,.58,1.68,2,2,0,0,0,1.54.59,3.19,3.19,0,0,0,2-.72v1a3.77,3.77,0,0,1-2.27.62,2.75,2.75,0,0,1-2.17-.89,3.63,3.63,0,0,1-.79-2.49,3.55,3.55,0,0,1,.86-2.47,2.76,2.76,0,0,1,2.14-1,2.44,2.44,0,0,1,2,.83,3.44,3.44,0,0,1,.7,2.29Zm-1.07-.88a2.12,2.12,0,0,0-.44-1.4,1.48,1.48,0,0,0-1.19-.5,1.68,1.68,0,0,0-1.25.53,2.4,2.4,0,0,0-.63,1.38Z" class="cls-3"/><path d="M125.56,53.71V52.45a2.45,2.45,0,0,0,.52.34,4.17,4.17,0,0,0,.63.26,5,5,0,0,0,.67.16,3.72,3.72,0,0,0,.62.06,2.44,2.44,0,0,0,1.47-.36,1.37,1.37,0,0,0,.32-1.69,1.82,1.82,0,0,0-.45-.5,4.46,4.46,0,0,0-.68-.43l-.84-.43c-.32-.16-.61-.32-.89-.49a3.85,3.85,0,0,1-.72-.54,2.28,2.28,0,0,1-.48-.68,2.3,2.3,0,0,1,.1-2,2.33,2.33,0,0,1,.72-.76,3.27,3.27,0,0,1,1-.45,4.67,4.67,0,0,1,1.16-.15,4.45,4.45,0,0,1,2,.32v1.2a3.56,3.56,0,0,0-2.07-.56,3.39,3.39,0,0,0-.7.07,2,2,0,0,0-.62.24,1.36,1.36,0,0,0-.44.42,1.13,1.13,0,0,0-.17.63,1.3,1.3,0,0,0,.13.6,1.46,1.46,0,0,0,.38.46,3.8,3.8,0,0,0,.62.41l.84.43q.49.24.93.51a4.22,4.22,0,0,1,.77.59,2.6,2.6,0,0,1,.52.72,2,2,0,0,1,.19.9,2.29,2.29,0,0,1-.26,1.14,2.16,2.16,0,0,1-.71.76,3.1,3.1,0,0,1-1,.42,5.63,5.63,0,0,1-1.23.13l-.53,0c-.21,0-.43-.06-.65-.1a5.16,5.16,0,0,1-.62-.17A1.94,1.94,0,0,1,125.56,53.71Z" class="cls-3"/><path d="M138,51.08h-4.59a2.43,2.43,0,0,0,.58,1.68,2,2,0,0,0,1.54.59,3.19,3.19,0,0,0,2-.72v1a3.77,3.77,0,0,1-2.27.62,2.75,2.75,0,0,1-2.17-.89,3.63,3.63,0,0,1-.79-2.49,3.55,3.55,0,0,1,.86-2.47,2.76,2.76,0,0,1,2.14-1,2.44,2.44,0,0,1,2,.83,3.44,3.44,0,0,1,.7,2.29Zm-1.07-.88a2.12,2.12,0,0,0-.44-1.4,1.48,1.48,0,0,0-1.19-.5,1.68,1.68,0,0,0-1.25.53,2.4,2.4,0,0,0-.63,1.38Z" class="cls-3"/><path d="M145.1,57.06h-1V53h0a2.33,2.33,0,0,1-2.22,1.27,2.44,2.44,0,0,1-2-.87,3.56,3.56,0,0,1-.74-2.38,3.9,3.9,0,0,1,.81-2.59,2.7,2.7,0,0,1,2.18-1A2,2,0,0,1,144,48.48h0v-.9h1Zm-1-5.92V50.2a1.89,1.89,0,0,0-.52-1.35,1.76,1.76,0,0,0-1.33-.55,1.78,1.78,0,0,0-1.48.7,3.1,3.1,0,0,0-.55,2,2.69,2.69,0,0,0,.53,1.76,1.68,1.68,0,0,0,1.36.64,1.83,1.83,0,0,0,1.46-.62A2.31,2.31,0,0,0,144.06,51.15Z" class="cls-3"/><path d="M152.46,54.07h-1V53h0a2.14,2.14,0,0,1-2,1.18q-2.32,0-2.32-2.77V47.57h1v3.72q0,2.06,1.57,2.06a1.59,1.59,0,0,0,1.25-.56,2.15,2.15,0,0,0,.49-1.47V47.57h1Z" class="cls-3"/><path d="M159.79,51.08H155.2a2.43,2.43,0,0,0,.58,1.68,2,2,0,0,0,1.54.59,3.19,3.19,0,0,0,2-.72v1a3.77,3.77,0,0,1-2.27.62,2.75,2.75,0,0,1-2.17-.89,3.63,3.63,0,0,1-.79-2.49,3.55,3.55,0,0,1,.86-2.47,2.76,2.76,0,0,1,2.14-1,2.44,2.44,0,0,1,2,.83,3.44,3.44,0,0,1,.7,2.29Zm-1.07-.88a2.12,2.12,0,0,0-.44-1.4,1.48,1.48,0,0,0-1.19-.5,1.68,1.68,0,0,0-1.25.53,2.4,2.4,0,0,0-.63,1.38Z" class="cls-3"/><path d="M166.76,54.07h-1V50.37q0-2.07-1.51-2.07a1.64,1.64,0,0,0-1.29.59,2.18,2.18,0,0,0-.51,1.48v3.71h-1v-6.5h1v1.08h0a2.34,2.34,0,0,1,2.13-1.23,2,2,0,0,1,1.63.69,3.07,3.07,0,0,1,.56,2Z" class="cls-3"/><path d="M173.15,53.78a3.38,3.38,0,0,1-1.78.45,2.94,2.94,0,0,1-2.24-.9,3.28,3.28,0,0,1-.85-2.35,3.6,3.6,0,0,1,.92-2.58,3.22,3.22,0,0,1,2.46-1,3.42,3.42,0,0,1,1.51.32v1.07a2.65,2.65,0,0,0-1.55-.51A2.09,2.09,0,0,0,170,49a2.71,2.71,0,0,0-.64,1.88,2.58,2.58,0,0,0,.6,1.8,2.07,2.07,0,0,0,1.61.66,2.61,2.61,0,0,0,1.6-.57Z" class="cls-3"/><path d="M180,51.08h-4.59a2.43,2.43,0,0,0,.58,1.68,2,2,0,0,0,1.54.59,3.19,3.19,0,0,0,2-.72v1a3.77,3.77,0,0,1-2.27.62,2.75,2.75,0,0,1-2.17-.89,3.63,3.63,0,0,1-.79-2.49,3.55,3.55,0,0,1,.86-2.47,2.76,2.76,0,0,1,2.14-1,2.44,2.44,0,0,1,2,.83,3.44,3.44,0,0,1,.7,2.29Zm-1.07-.88a2.12,2.12,0,0,0-.44-1.4,1.48,1.48,0,0,0-1.19-.5,1.68,1.68,0,0,0-1.25.53,2.4,2.4,0,0,0-.63,1.38Z" class="cls-3"/><path d="M17.65,75.69a5.34,5.34,0,0,1-2.51.53A4.06,4.06,0,0,1,12,75a4.61,4.61,0,0,1-1.17-3.28,4.83,4.83,0,0,1,1.31-3.53,4.46,4.46,0,0,1,3.33-1.35,5.36,5.36,0,0,1,2.15.37v1.14a4.35,4.35,0,0,0-2.16-.55,3.31,3.31,0,0,0-2.54,1,3.94,3.94,0,0,0-1,2.8,3.76,3.76,0,0,0,.91,2.65,3.1,3.1,0,0,0,2.39,1,4.48,4.48,0,0,0,2.37-.61Z" class="cls-3"/><path d="M24.76,76.07h-1V72.33q0-2-1.51-2a1.65,1.65,0,0,0-1.28.59,2.19,2.19,0,0,0-.52,1.51v3.68h-1V66.45h1v4.2h0a2.36,2.36,0,0,1,2.13-1.23q2.2,0,2.2,2.65Z" class="cls-3"/><path d="M31.37,76.07h-1v-1h0a2.18,2.18,0,0,1-2,1.17,2.14,2.14,0,0,1-1.52-.51,1.78,1.78,0,0,1-.55-1.37q0-1.82,2.14-2.12L30.33,72q0-1.66-1.34-1.66a3.2,3.2,0,0,0-2.12.8V70a4,4,0,0,1,2.21-.61q2.29,0,2.29,2.42Zm-1-3.29L28.76,73a2.55,2.55,0,0,0-1.09.36,1,1,0,0,0-.37.91,1,1,0,0,0,.34.78,1.31,1.31,0,0,0,.9.3,1.67,1.67,0,0,0,1.28-.54,1.94,1.94,0,0,0,.5-1.37Z" class="cls-3"/><path d="M38.73,76.07h-1V72.37q0-2.07-1.51-2.07a1.64,1.64,0,0,0-1.29.59,2.18,2.18,0,0,0-.51,1.48v3.71h-1v-6.5h1v1.08h0a2.35,2.35,0,0,1,2.13-1.23,2,2,0,0,1,1.63.69,3.07,3.07,0,0,1,.57,2Z" class="cls-3"/><path d="M46.24,75.55q0,3.58-3.43,3.58a4.6,4.6,0,0,1-2.11-.46v-1a4.33,4.33,0,0,0,2.09.61q2.4,0,2.4-2.55V75h0a2.63,2.63,0,0,1-4.19.38A3.47,3.47,0,0,1,40.25,73,4,4,0,0,1,41,70.4a2.66,2.66,0,0,1,2.18-1,2.12,2.12,0,0,1,1.95,1.05h0v-.9h1Zm-1-2.42v-1a1.86,1.86,0,0,0-.52-1.33,1.73,1.73,0,0,0-1.3-.55,1.81,1.81,0,0,0-1.51.7,3.14,3.14,0,0,0-.55,2,2.69,2.69,0,0,0,.52,1.74,1.69,1.69,0,0,0,1.39.65,1.81,1.81,0,0,0,1.42-.62A2.32,2.32,0,0,0,45.2,73.13Z" class="cls-3"/><path d="M53.57,73.08H49a2.43,2.43,0,0,0,.58,1.68,2,2,0,0,0,1.54.59,3.19,3.19,0,0,0,2-.72v1a3.77,3.77,0,0,1-2.27.62,2.75,2.75,0,0,1-2.16-.89,3.62,3.62,0,0,1-.79-2.49,3.55,3.55,0,0,1,.86-2.47,2.76,2.76,0,0,1,2.14-1,2.45,2.45,0,0,1,2,.83,3.44,3.44,0,0,1,.7,2.29ZM52.5,72.2a2.12,2.12,0,0,0-.43-1.4,1.48,1.48,0,0,0-1.19-.5,1.68,1.68,0,0,0-1.25.53A2.39,2.39,0,0,0,49,72.2Z" class="cls-3"/><path d="M63.46,67.94H59.91v3.15H63.2v1H59.91v4H58.84V67h4.62Z" class="cls-3"/><path d="M65.58,67.92a.66.66,0,0,1-.48-.19.64.64,0,0,1-.2-.48.67.67,0,0,1,.67-.68.67.67,0,0,1,.49.19.68.68,0,0,1,0,1A.66.66,0,0,1,65.58,67.92Zm.51,8.15h-1v-6.5h1Z" class="cls-3"/><path d="M69.24,76.07h-1V66.45h1Z" class="cls-3"/><path d="M76.57,73.08H72a2.43,2.43,0,0,0,.58,1.68,2,2,0,0,0,1.54.59,3.19,3.19,0,0,0,2-.72v1a3.77,3.77,0,0,1-2.27.62,2.75,2.75,0,0,1-2.16-.89,3.62,3.62,0,0,1-.79-2.49,3.55,3.55,0,0,1,.86-2.47,2.76,2.76,0,0,1,2.14-1,2.45,2.45,0,0,1,2,.83,3.44,3.44,0,0,1,.7,2.29Zm-1.07-.88a2.12,2.12,0,0,0-.43-1.4,1.48,1.48,0,0,0-1.19-.5,1.68,1.68,0,0,0-1.25.53A2.39,2.39,0,0,0,72,72.2Z" class="cls-3"/><path d="M86.67,76.07H81.85V67h4.62v1H82.91v3H86.2v1H82.91v3.19h3.76Z" class="cls-3"/><path d="M93.68,76.07h-1V72.37q0-2.07-1.51-2.07a1.64,1.64,0,0,0-1.29.59,2.18,2.18,0,0,0-.51,1.48v3.71h-1v-6.5h1v1.08h0a2.35,2.35,0,0,1,2.13-1.23,2,2,0,0,1,1.63.69,3.07,3.07,0,0,1,.56,2Z" class="cls-3"/><path d="M100.07,75.78a3.38,3.38,0,0,1-1.78.45,2.94,2.94,0,0,1-2.24-.9A3.28,3.28,0,0,1,95.2,73a3.6,3.6,0,0,1,.92-2.58,3.22,3.22,0,0,1,2.46-1,3.41,3.41,0,0,1,1.51.32v1.07a2.64,2.64,0,0,0-1.55-.51A2.1,2.1,0,0,0,96.9,71a2.72,2.72,0,0,0-.64,1.88,2.58,2.58,0,0,0,.6,1.8,2.07,2.07,0,0,0,1.61.66,2.61,2.61,0,0,0,1.6-.57Z" class="cls-3"/><path d="M104.36,76.23a3,3,0,0,1-2.3-.91,3.37,3.37,0,0,1-.86-2.42,3.52,3.52,0,0,1,.9-2.56,3.22,3.22,0,0,1,2.42-.92,2.92,2.92,0,0,1,2.27.89,3.56,3.56,0,0,1,.81,2.48,3.49,3.49,0,0,1-.88,2.49A3.08,3.08,0,0,1,104.36,76.23Zm.08-5.93a2,2,0,0,0-1.59.68,2.81,2.81,0,0,0-.58,1.88,2.65,2.65,0,0,0,.59,1.82,2,2,0,0,0,1.58.67A1.9,1.9,0,0,0,106,74.7a2.83,2.83,0,0,0,.54-1.86A2.88,2.88,0,0,0,106,71,1.89,1.89,0,0,0,104.44,70.3Z" class="cls-3"/><path d="M114.81,76.07h-1V75h0a2.62,2.62,0,0,1-4.19.38,3.57,3.57,0,0,1-.73-2.38,3.9,3.9,0,0,1,.81-2.58,2.68,2.68,0,0,1,2.17-1,2.08,2.08,0,0,1,1.95,1.05h0v-4h1Zm-1-2.94v-1a1.86,1.86,0,0,0-.52-1.33,1.75,1.75,0,0,0-1.32-.55,1.8,1.8,0,0,0-1.5.7,3.06,3.06,0,0,0-.55,1.93,2.76,2.76,0,0,0,.52,1.77,1.71,1.71,0,0,0,1.41.65,1.78,1.78,0,0,0,1.41-.63A2.34,2.34,0,0,0,113.77,73.13Z" class="cls-3"/><path d="M117.45,67.92a.66.66,0,0,1-.48-.19.64.64,0,0,1-.2-.48.67.67,0,0,1,.67-.68.67.67,0,0,1,.49.19.68.68,0,0,1,0,1A.66.66,0,0,1,117.45,67.92Zm.51,8.15h-1v-6.5h1Z" class="cls-3"/><path d="M125.46,76.07h-1V72.37q0-2.07-1.51-2.07a1.64,1.64,0,0,0-1.29.59,2.18,2.18,0,0,0-.51,1.48v3.71h-1v-6.5h1v1.08h0a2.35,2.35,0,0,1,2.13-1.23,2,2,0,0,1,1.63.69,3.07,3.07,0,0,1,.57,2Z" class="cls-3"/><path d="M133,75.55q0,3.58-3.43,3.58a4.6,4.6,0,0,1-2.11-.46v-1a4.33,4.33,0,0,0,2.09.61q2.4,0,2.4-2.55V75h0a2.63,2.63,0,0,1-4.19.38A3.47,3.47,0,0,1,127,73a4,4,0,0,1,.8-2.63,2.66,2.66,0,0,1,2.18-1,2.12,2.12,0,0,1,1.95,1.05h0v-.9h1Zm-1-2.42v-1a1.86,1.86,0,0,0-.52-1.33,1.73,1.73,0,0,0-1.3-.55,1.81,1.81,0,0,0-1.51.7,3.14,3.14,0,0,0-.55,2,2.69,2.69,0,0,0,.52,1.74,1.69,1.69,0,0,0,1.39.65,1.81,1.81,0,0,0,1.42-.62A2.32,2.32,0,0,0,131.93,73.13Z" class="cls-3"/><path d="M17.65,97.69a5.34,5.34,0,0,1-2.51.53A4.06,4.06,0,0,1,12,97a4.61,4.61,0,0,1-1.17-3.28,4.83,4.83,0,0,1,1.31-3.53,4.46,4.46,0,0,1,3.33-1.35,5.36,5.36,0,0,1,2.15.37v1.14a4.35,4.35,0,0,0-2.16-.55,3.31,3.31,0,0,0-2.54,1,3.94,3.94,0,0,0-1,2.8,3.76,3.76,0,0,0,.91,2.65,3.1,3.1,0,0,0,2.39,1,4.48,4.48,0,0,0,2.37-.61Z" class="cls-3"/><path d="M24.76,98.07h-1V94.33q0-2-1.51-2a1.65,1.65,0,0,0-1.28.59,2.19,2.19,0,0,0-.52,1.51v3.68h-1V88.45h1v4.2h0a2.36,2.36,0,0,1,2.13-1.23q2.2,0,2.2,2.65Z" class="cls-3"/><path d="M31.37,98.07h-1v-1h0a2.18,2.18,0,0,1-2,1.17,2.14,2.14,0,0,1-1.52-.51,1.78,1.78,0,0,1-.55-1.37q0-1.82,2.14-2.12L30.33,94q0-1.66-1.34-1.66a3.2,3.2,0,0,0-2.12.8V92a4,4,0,0,1,2.21-.61q2.29,0,2.29,2.42Zm-1-3.29L28.76,95a2.55,2.55,0,0,0-1.09.36,1,1,0,0,0-.37.91,1,1,0,0,0,.34.78,1.31,1.31,0,0,0,.9.3,1.67,1.67,0,0,0,1.28-.54,1.94,1.94,0,0,0,.5-1.37Z" class="cls-3"/><path d="M38.73,98.07h-1V94.37q0-2.07-1.51-2.07a1.64,1.64,0,0,0-1.29.59,2.18,2.18,0,0,0-.51,1.48v3.71h-1v-6.5h1v1.08h0a2.35,2.35,0,0,1,2.13-1.23,2,2,0,0,1,1.63.69,3.07,3.07,0,0,1,.57,2Z" class="cls-3"/><path d="M46.24,97.55q0,3.58-3.43,3.58a4.6,4.6,0,0,1-2.11-.46v-1a4.33,4.33,0,0,0,2.09.61q2.4,0,2.4-2.55V97h0a2.63,2.63,0,0,1-4.19.38A3.47,3.47,0,0,1,40.25,95,4,4,0,0,1,41,92.4a2.66,2.66,0,0,1,2.18-1,2.12,2.12,0,0,1,1.95,1.05h0v-.9h1Zm-1-2.42v-1a1.86,1.86,0,0,0-.52-1.33,1.73,1.73,0,0,0-1.3-.55,1.81,1.81,0,0,0-1.51.7,3.14,3.14,0,0,0-.55,2,2.69,2.69,0,0,0,.52,1.74,1.69,1.69,0,0,0,1.39.65,1.81,1.81,0,0,0,1.42-.62A2.32,2.32,0,0,0,45.2,95.13Z" class="cls-3"/><path d="M53.57,95.08H49a2.43,2.43,0,0,0,.58,1.68,2,2,0,0,0,1.54.59,3.19,3.19,0,0,0,2-.72v1a3.77,3.77,0,0,1-2.27.62,2.75,2.75,0,0,1-2.16-.89,3.62,3.62,0,0,1-.79-2.49,3.55,3.55,0,0,1,.86-2.47,2.76,2.76,0,0,1,2.14-1,2.45,2.45,0,0,1,2,.83,3.44,3.44,0,0,1,.7,2.29ZM52.5,94.2a2.12,2.12,0,0,0-.43-1.4,1.48,1.48,0,0,0-1.19-.5,1.68,1.68,0,0,0-1.25.53A2.39,2.39,0,0,0,49,94.2Z" class="cls-3"/><path d="M63.57,98.07H58.84V89h1.07v8.14h3.66Z" class="cls-3"/><path d="M69.48,98.07h-1v-1h0a2.18,2.18,0,0,1-2,1.17,2.14,2.14,0,0,1-1.52-.51,1.78,1.78,0,0,1-.55-1.37q0-1.82,2.15-2.12L68.44,94q0-1.66-1.34-1.66a3.2,3.2,0,0,0-2.12.8V92a4,4,0,0,1,2.21-.61q2.29,0,2.29,2.42Zm-1-3.29L66.87,95a2.55,2.55,0,0,0-1.09.36,1,1,0,0,0-.37.91,1,1,0,0,0,.34.78,1.31,1.31,0,0,0,.9.3,1.67,1.67,0,0,0,1.28-.54,1.94,1.94,0,0,0,.5-1.37Z" class="cls-3"/><path d="M76.83,98.07h-1V94.37q0-2.07-1.51-2.07a1.64,1.64,0,0,0-1.29.59,2.18,2.18,0,0,0-.51,1.48v3.71h-1v-6.5h1v1.08h0a2.34,2.34,0,0,1,2.13-1.23,2,2,0,0,1,1.63.69,3.07,3.07,0,0,1,.57,2Z" class="cls-3"/><path d="M84.34,97.55q0,3.58-3.43,3.58a4.61,4.61,0,0,1-2.11-.46v-1a4.33,4.33,0,0,0,2.1.61q2.4,0,2.4-2.55V97h0a2.63,2.63,0,0,1-4.19.38A3.47,3.47,0,0,1,78.35,95a4,4,0,0,1,.8-2.63,2.66,2.66,0,0,1,2.18-1,2.12,2.12,0,0,1,1.95,1.05h0v-.9h1Zm-1-2.42v-1a1.86,1.86,0,0,0-.52-1.33,1.73,1.73,0,0,0-1.3-.55A1.81,1.81,0,0,0,80,93a3.13,3.13,0,0,0-.55,2,2.7,2.7,0,0,0,.52,1.74,1.69,1.69,0,0,0,1.39.65,1.81,1.81,0,0,0,1.42-.62A2.32,2.32,0,0,0,83.3,95.13Z" class="cls-3"/><path d="M91.71,98.07h-1V97h0a2.14,2.14,0,0,1-2,1.18q-2.32,0-2.32-2.77V91.57h1v3.72q0,2.06,1.57,2.06a1.59,1.59,0,0,0,1.25-.56,2.15,2.15,0,0,0,.49-1.47V91.57h1Z" class="cls-3"/><path d="M98.46,98.07h-1v-1h0a2.18,2.18,0,0,1-2,1.17,2.14,2.14,0,0,1-1.52-.51,1.79,1.79,0,0,1-.55-1.37q0-1.82,2.15-2.12L97.42,94q0-1.66-1.34-1.66a3.2,3.2,0,0,0-2.12.8V92a4,4,0,0,1,2.21-.61q2.29,0,2.29,2.42Zm-1-3.29L95.85,95a2.55,2.55,0,0,0-1.09.36,1,1,0,0,0-.37.91,1,1,0,0,0,.34.78,1.31,1.31,0,0,0,.9.3,1.67,1.67,0,0,0,1.28-.54,1.94,1.94,0,0,0,.5-1.37Z" class="cls-3"/><path d="M106,97.55q0,3.58-3.43,3.58a4.6,4.6,0,0,1-2.11-.46v-1a4.33,4.33,0,0,0,2.09.61q2.4,0,2.4-2.55V97h0a2.63,2.63,0,0,1-4.19.38A3.46,3.46,0,0,1,100,95a4,4,0,0,1,.8-2.63,2.66,2.66,0,0,1,2.18-1,2.12,2.12,0,0,1,1.95,1.05h0v-.9h1Zm-1-2.42v-1a1.86,1.86,0,0,0-.52-1.33,1.73,1.73,0,0,0-1.3-.55,1.81,1.81,0,0,0-1.51.7,3.13,3.13,0,0,0-.55,2,2.69,2.69,0,0,0,.52,1.74,1.69,1.69,0,0,0,1.39.65,1.81,1.81,0,0,0,1.43-.62A2.32,2.32,0,0,0,104.93,95.13Z" class="cls-3"/><path d="M113.3,95.08h-4.59a2.43,2.43,0,0,0,.58,1.68,2,2,0,0,0,1.54.59,3.19,3.19,0,0,0,2-.72v1a3.77,3.77,0,0,1-2.27.62,2.75,2.75,0,0,1-2.17-.89,3.63,3.63,0,0,1-.79-2.49,3.55,3.55,0,0,1,.86-2.47,2.76,2.76,0,0,1,2.14-1,2.44,2.44,0,0,1,2,.83,3.44,3.44,0,0,1,.7,2.29Zm-1.07-.88a2.12,2.12,0,0,0-.44-1.4,1.48,1.48,0,0,0-1.19-.5,1.68,1.68,0,0,0-1.25.53,2.4,2.4,0,0,0-.63,1.38Z" class="cls-3"/><path d="M127.86,98.07h-1.06V92q0-.72.09-1.77h0a5.69,5.69,0,0,1-.27.88l-3.11,7H123l-3.1-6.94a5.42,5.42,0,0,1-.27-.93h0q0,.54.05,1.78v6.09h-1V89H120l2.79,6.35a8.11,8.11,0,0,1,.42,1.09h0q.27-.75.44-1.12L126.52,89h1.33Z" class="cls-3"/><path d="M132.83,98.23a3,3,0,0,1-2.3-.91,3.37,3.37,0,0,1-.86-2.42,3.52,3.52,0,0,1,.9-2.56,3.22,3.22,0,0,1,2.42-.92,2.92,2.92,0,0,1,2.27.89,3.56,3.56,0,0,1,.81,2.48,3.49,3.49,0,0,1-.88,2.49A3.08,3.08,0,0,1,132.83,98.23Zm.08-5.93a2,2,0,0,0-1.59.68,2.81,2.81,0,0,0-.58,1.88,2.65,2.65,0,0,0,.59,1.82,2,2,0,0,0,1.58.67,1.9,1.9,0,0,0,1.55-.65,2.83,2.83,0,0,0,.54-1.86,2.88,2.88,0,0,0-.54-1.88A1.89,1.89,0,0,0,132.9,92.3Z" class="cls-3"/><path d="M143.27,98.07h-1V97h0a2.62,2.62,0,0,1-4.19.38,3.57,3.57,0,0,1-.73-2.38,3.9,3.9,0,0,1,.81-2.58,2.68,2.68,0,0,1,2.17-1,2.08,2.08,0,0,1,1.95,1.05h0v-4h1Zm-1-2.94v-1a1.86,1.86,0,0,0-.52-1.33,1.75,1.75,0,0,0-1.32-.55,1.8,1.8,0,0,0-1.5.7,3.06,3.06,0,0,0-.55,1.93,2.76,2.76,0,0,0,.52,1.77,1.71,1.71,0,0,0,1.41.65,1.78,1.78,0,0,0,1.41-.63A2.34,2.34,0,0,0,142.23,95.13Z" class="cls-3"/><path d="M150.61,95.08H146a2.43,2.43,0,0,0,.58,1.68,2,2,0,0,0,1.54.59,3.19,3.19,0,0,0,2-.72v1a3.77,3.77,0,0,1-2.27.62,2.74,2.74,0,0,1-2.16-.89,3.62,3.62,0,0,1-.79-2.49,3.55,3.55,0,0,1,.86-2.47,2.76,2.76,0,0,1,2.14-1,2.45,2.45,0,0,1,2,.83,3.44,3.44,0,0,1,.7,2.29Zm-1.07-.88a2.11,2.11,0,0,0-.44-1.4,1.48,1.48,0,0,0-1.19-.5,1.68,1.68,0,0,0-1.25.53A2.38,2.38,0,0,0,146,94.2Z" class="cls-3"/><path d="M17.65,119.69a5.34,5.34,0,0,1-2.51.53A4.06,4.06,0,0,1,12,119a4.61,4.61,0,0,1-1.17-3.28,4.83,4.83,0,0,1,1.31-3.53,4.46,4.46,0,0,1,3.33-1.35,5.36,5.36,0,0,1,2.15.37v1.14a4.35,4.35,0,0,0-2.16-.55,3.31,3.31,0,0,0-2.54,1,3.94,3.94,0,0,0-1,2.8,3.76,3.76,0,0,0,.91,2.65,3.1,3.1,0,0,0,2.39,1,4.48,4.48,0,0,0,2.37-.61Z" class="cls-3"/><path d="M20.4,120.07h-1v-9.62h1Z" class="cls-3"/><path d="M27.73,117.08H23.14a2.43,2.43,0,0,0,.58,1.68,2,2,0,0,0,1.54.59,3.19,3.19,0,0,0,2-.72v1a3.77,3.77,0,0,1-2.27.62,2.75,2.75,0,0,1-2.17-.89,3.63,3.63,0,0,1-.79-2.49,3.55,3.55,0,0,1,.86-2.47,2.76,2.76,0,0,1,2.14-1,2.44,2.44,0,0,1,2,.83,3.44,3.44,0,0,1,.7,2.29Zm-1.07-.88a2.12,2.12,0,0,0-.44-1.4,1.48,1.48,0,0,0-1.19-.5,1.68,1.68,0,0,0-1.25.53,2.4,2.4,0,0,0-.63,1.38Z" class="cls-3"/><path d="M34,120.07h-1v-1h0a2.18,2.18,0,0,1-2,1.17,2.14,2.14,0,0,1-1.52-.51,1.78,1.78,0,0,1-.55-1.37q0-1.82,2.14-2.12l1.95-.27q0-1.66-1.34-1.66a3.2,3.2,0,0,0-2.12.8V114a4,4,0,0,1,2.21-.61q2.29,0,2.29,2.42Zm-1-3.29-1.57.22a2.55,2.55,0,0,0-1.09.36,1,1,0,0,0-.37.91,1,1,0,0,0,.34.78,1.31,1.31,0,0,0,.9.3,1.67,1.67,0,0,0,1.28-.54,1.94,1.94,0,0,0,.5-1.37Z" class="cls-3"/><path d="M39.31,114.63a1.28,1.28,0,0,0-.79-.21,1.33,1.33,0,0,0-1.12.63,2.92,2.92,0,0,0-.45,1.71v3.31h-1v-6.5h1v1.34h0a2.27,2.27,0,0,1,.68-1.07,1.55,1.55,0,0,1,1-.38,1.7,1.7,0,0,1,.62.09Z" class="cls-3"/><path d="M49,120.07H44.14V111h4.62v1H45.21v3H48.5v1H45.21v3.19H49Z" class="cls-3"/><path d="M56.13,120.07h-1V119h0a2.4,2.4,0,0,1-2.23,1.26,2.43,2.43,0,0,1-2-.87,3.58,3.58,0,0,1-.73-2.38,3.9,3.9,0,0,1,.81-2.58,2.68,2.68,0,0,1,2.16-1,2.08,2.08,0,0,1,1.95,1.05h0v-4h1Zm-1-2.94v-1a1.86,1.86,0,0,0-.52-1.33,1.74,1.74,0,0,0-1.32-.55,1.8,1.8,0,0,0-1.5.7,3.06,3.06,0,0,0-.55,1.93,2.76,2.76,0,0,0,.52,1.77,1.71,1.71,0,0,0,1.41.65,1.78,1.78,0,0,0,1.41-.63A2.34,2.34,0,0,0,55.09,117.13Z" class="cls-3"/><path d="M58.77,111.92a.66.66,0,0,1-.48-.19.64.64,0,0,1-.2-.48.67.67,0,0,1,.67-.68.67.67,0,0,1,.49.19.68.68,0,0,1,0,1A.66.66,0,0,1,58.77,111.92Zm.51,8.15h-1v-6.5h1Z" class="cls-3"/><path d="M64.4,120a2,2,0,0,1-1,.2q-1.71,0-1.71-1.9v-3.85H60.6v-.89h1.12V112l1-.34v1.92H64.4v.89H62.76v3.66a1.52,1.52,0,0,0,.22.93.89.89,0,0,0,.74.28,1.1,1.1,0,0,0,.68-.22Z" class="cls-3"/><path d="M68.4,120.23a3,3,0,0,1-2.3-.91,3.37,3.37,0,0,1-.86-2.42,3.52,3.52,0,0,1,.89-2.56,3.22,3.22,0,0,1,2.42-.92,2.92,2.92,0,0,1,2.27.89,3.55,3.55,0,0,1,.82,2.48,3.49,3.49,0,0,1-.88,2.49A3.08,3.08,0,0,1,68.4,120.23Zm.08-5.93a2,2,0,0,0-1.59.68,2.81,2.81,0,0,0-.58,1.88,2.65,2.65,0,0,0,.59,1.82,2,2,0,0,0,1.58.67A1.9,1.9,0,0,0,70,118.7a2.84,2.84,0,0,0,.54-1.86A2.88,2.88,0,0,0,70,115,1.89,1.89,0,0,0,68.48,114.3Z" class="cls-3"/><path d="M76.69,114.63a1.27,1.27,0,0,0-.79-.21,1.33,1.33,0,0,0-1.11.63,2.91,2.91,0,0,0-.45,1.71v3.31h-1v-6.5h1v1.34h0a2.27,2.27,0,0,1,.68-1.07,1.55,1.55,0,0,1,1-.38,1.7,1.7,0,0,1,.62.09Z" class="cls-3"/><path d="M88.37,120.07H87.3v-4.15H82.59v4.15H81.52V111h1.07v4H87.3v-4h1.07Z" class="cls-3"/><path d="M91.15,111.92a.66.66,0,0,1-.48-.19.64.64,0,0,1-.2-.48.67.67,0,0,1,.67-.68.67.67,0,0,1,.49.19.68.68,0,0,1,0,1A.66.66,0,0,1,91.15,111.92Zm.51,8.15h-1v-6.5h1Z" class="cls-3"/><path d="M93.37,119.84v-1.12a3.09,3.09,0,0,0,1.87.63q1.37,0,1.37-.91a.79.79,0,0,0-.12-.44,1.17,1.17,0,0,0-.32-.32,2.44,2.44,0,0,0-.47-.25l-.58-.23a7.45,7.45,0,0,1-.76-.35,2.3,2.3,0,0,1-.55-.39,1.47,1.47,0,0,1-.33-.5,1.76,1.76,0,0,1-.11-.65,1.56,1.56,0,0,1,.21-.81,1.85,1.85,0,0,1,.56-.59,2.6,2.6,0,0,1,.8-.36,3.52,3.52,0,0,1,.92-.12,3.74,3.74,0,0,1,1.51.29v1.05a2.94,2.94,0,0,0-1.65-.47,2,2,0,0,0-.53.07,1.3,1.3,0,0,0-.4.19.87.87,0,0,0-.26.29.77.77,0,0,0-.09.37.9.9,0,0,0,.09.42.94.94,0,0,0,.27.3,2,2,0,0,0,.43.24l.58.23a8.15,8.15,0,0,1,.78.34,2.64,2.64,0,0,1,.58.39,1.53,1.53,0,0,1,.37.5,1.63,1.63,0,0,1,.13.68,1.61,1.61,0,0,1-.21.84,1.84,1.84,0,0,1-.57.59,2.61,2.61,0,0,1-.82.35,4,4,0,0,1-1,.11A3.69,3.69,0,0,1,93.37,119.84Z" class="cls-3"/><path d="M102.29,120a2,2,0,0,1-1,.2q-1.71,0-1.71-1.9v-3.85H98.5v-.89h1.12V112l1-.34v1.92h1.64v.89h-1.64v3.66a1.52,1.52,0,0,0,.22.93.88.88,0,0,0,.74.28,1.09,1.09,0,0,0,.68-.22Z" class="cls-3"/><path d="M106.3,120.23a3,3,0,0,1-2.3-.91,3.37,3.37,0,0,1-.86-2.42,3.51,3.51,0,0,1,.9-2.56,3.22,3.22,0,0,1,2.42-.92,2.92,2.92,0,0,1,2.27.89,3.56,3.56,0,0,1,.82,2.48,3.49,3.49,0,0,1-.88,2.49A3.08,3.08,0,0,1,106.3,120.23Zm.08-5.93a2,2,0,0,0-1.59.68,2.8,2.8,0,0,0-.58,1.88,2.64,2.64,0,0,0,.59,1.82,2,2,0,0,0,1.58.67,1.9,1.9,0,0,0,1.55-.65,2.84,2.84,0,0,0,.54-1.86,2.88,2.88,0,0,0-.54-1.88A1.89,1.89,0,0,0,106.38,114.3Z" class="cls-3"/><path d="M114.59,114.63a1.27,1.27,0,0,0-.79-.21,1.33,1.33,0,0,0-1.11.63,2.91,2.91,0,0,0-.45,1.71v3.31h-1v-6.5h1v1.34h0a2.27,2.27,0,0,1,.68-1.07,1.55,1.55,0,0,1,1-.38,1.69,1.69,0,0,1,.62.09Z" class="cls-3"/><path d="M121.41,113.57l-3,7.54q-.8,2-2.25,2a2.36,2.36,0,0,1-.68-.08v-.93a1.93,1.93,0,0,0,.62.11,1.28,1.28,0,0,0,1.18-.94l.52-1.23-2.54-6.49h1.16l1.76,5q0,.1.13.5h0q0-.15.13-.48l1.85-5Z" class="cls-3"/><path d="M17.65,141.69a5.34,5.34,0,0,1-2.51.53A4.06,4.06,0,0,1,12,141a4.61,4.61,0,0,1-1.17-3.28,4.83,4.83,0,0,1,1.31-3.53,4.46,4.46,0,0,1,3.33-1.35,5.36,5.36,0,0,1,2.15.37v1.14a4.35,4.35,0,0,0-2.16-.55,3.31,3.31,0,0,0-2.54,1,3.94,3.94,0,0,0-1,2.8,3.76,3.76,0,0,0,.91,2.65,3.1,3.1,0,0,0,2.39,1,4.48,4.48,0,0,0,2.37-.61Z" class="cls-3"/><path d="M20.4,142.07h-1v-9.62h1Z" class="cls-3"/><path d="M25.23,142.23a3,3,0,0,1-2.3-.91,3.37,3.37,0,0,1-.86-2.42,3.51,3.51,0,0,1,.9-2.56,3.22,3.22,0,0,1,2.42-.92,2.92,2.92,0,0,1,2.27.89,3.56,3.56,0,0,1,.82,2.48,3.49,3.49,0,0,1-.88,2.49A3.08,3.08,0,0,1,25.23,142.23Zm.08-5.93a2,2,0,0,0-1.59.68,2.8,2.8,0,0,0-.58,1.88,2.64,2.64,0,0,0,.59,1.82,2,2,0,0,0,1.58.67,1.9,1.9,0,0,0,1.55-.65,2.84,2.84,0,0,0,.54-1.86,2.88,2.88,0,0,0-.54-1.88A1.89,1.89,0,0,0,25.3,136.3Z" class="cls-3"/><path d="M29.73,141.84v-1.12a3.09,3.09,0,0,0,1.87.63q1.37,0,1.37-.91a.8.8,0,0,0-.12-.44,1.16,1.16,0,0,0-.32-.32,2.46,2.46,0,0,0-.47-.25l-.58-.23a7.47,7.47,0,0,1-.76-.35,2.29,2.29,0,0,1-.55-.39,1.47,1.47,0,0,1-.33-.5,1.76,1.76,0,0,1-.11-.65,1.56,1.56,0,0,1,.21-.81,1.87,1.87,0,0,1,.56-.59,2.6,2.6,0,0,1,.8-.36,3.51,3.51,0,0,1,.92-.12,3.74,3.74,0,0,1,1.51.29v1.05a2.94,2.94,0,0,0-1.65-.47,1.94,1.94,0,0,0-.53.07,1.3,1.3,0,0,0-.4.19.86.86,0,0,0-.26.29.77.77,0,0,0-.09.37.9.9,0,0,0,.09.42.92.92,0,0,0,.27.3,2.06,2.06,0,0,0,.43.24l.58.23a8.23,8.23,0,0,1,.77.34,2.64,2.64,0,0,1,.58.39,1.52,1.52,0,0,1,.37.5,1.8,1.8,0,0,1-.08,1.52,1.82,1.82,0,0,1-.57.59,2.61,2.61,0,0,1-.82.35,4,4,0,0,1-1,.11A3.69,3.69,0,0,1,29.73,141.84Z" class="cls-3"/><path d="M40.87,139.08H36.28a2.43,2.43,0,0,0,.58,1.68,2,2,0,0,0,1.54.59,3.19,3.19,0,0,0,2-.72v1a3.77,3.77,0,0,1-2.27.62,2.74,2.74,0,0,1-2.16-.89,3.62,3.62,0,0,1-.79-2.49,3.55,3.55,0,0,1,.86-2.47,2.76,2.76,0,0,1,2.14-1,2.45,2.45,0,0,1,2,.83,3.44,3.44,0,0,1,.7,2.29Zm-1.07-.88a2.11,2.11,0,0,0-.44-1.4,1.48,1.48,0,0,0-1.19-.5,1.68,1.68,0,0,0-1.25.53,2.38,2.38,0,0,0-.63,1.38Z" class="cls-3"/><path d="M53.48,142.07H52.17l-4.68-7.26a3,3,0,0,1-.29-.57h0a9.48,9.48,0,0,1,.05,1.25v6.58H46.14V133h1.38l4.56,7.14c.19.3.31.5.37.61h0a9.73,9.73,0,0,1-.06-1.34V133h1.07Z" class="cls-3"/><path d="M58.44,142.23a3,3,0,0,1-2.3-.91,3.37,3.37,0,0,1-.86-2.42,3.52,3.52,0,0,1,.89-2.56,3.22,3.22,0,0,1,2.42-.92,2.92,2.92,0,0,1,2.27.89,3.55,3.55,0,0,1,.82,2.48,3.49,3.49,0,0,1-.88,2.49A3.08,3.08,0,0,1,58.44,142.23Zm.08-5.93a2,2,0,0,0-1.59.68,2.8,2.8,0,0,0-.58,1.88,2.65,2.65,0,0,0,.59,1.82,2,2,0,0,0,1.58.67,1.9,1.9,0,0,0,1.55-.65,2.84,2.84,0,0,0,.54-1.86,2.89,2.89,0,0,0-.54-1.88A1.89,1.89,0,0,0,58.52,136.3Z" class="cls-3"/><path d="M66.36,142a2,2,0,0,1-1,.2q-1.71,0-1.71-1.9v-3.85H62.56v-.89h1.12V134l1-.34v1.92h1.64v.89H64.72v3.66a1.52,1.52,0,0,0,.22.93.89.89,0,0,0,.74.28,1.1,1.1,0,0,0,.68-.22Z" class="cls-3"/><path d="M68.28,133.92a.66.66,0,0,1-.48-.19.64.64,0,0,1-.2-.48.67.67,0,0,1,.67-.68.67.67,0,0,1,.48.19.67.67,0,0,1,0,1A.66.66,0,0,1,68.28,133.92Zm.51,8.15h-1v-6.5h1Z" class="cls-3"/><path d="M74.11,133.37a1.39,1.39,0,0,0-.69-.17q-1.09,0-1.09,1.38v1h1.52v.89H72.33v5.61h-1v-5.61H70.18v-.89h1.11v-1.05a2.19,2.19,0,0,1,.59-1.62,2,2,0,0,1,1.47-.59,2,2,0,0,1,.75.11Z" class="cls-3"/><path d="M75.5,133.92a.66.66,0,0,1-.48-.19.64.64,0,0,1-.2-.48.67.67,0,0,1,.67-.68.67.67,0,0,1,.49.19.68.68,0,0,1,0,1A.66.66,0,0,1,75.5,133.92Zm.51,8.15H75v-6.5h1Z" class="cls-3"/><path d="M82.55,141.78a3.38,3.38,0,0,1-1.78.45,2.94,2.94,0,0,1-2.24-.9,3.28,3.28,0,0,1-.85-2.35,3.6,3.6,0,0,1,.92-2.58,3.22,3.22,0,0,1,2.46-1,3.41,3.41,0,0,1,1.51.32v1.07A2.64,2.64,0,0,0,81,136.3a2.1,2.1,0,0,0-1.63.71,2.71,2.71,0,0,0-.64,1.88,2.58,2.58,0,0,0,.6,1.8,2.07,2.07,0,0,0,1.61.66,2.61,2.61,0,0,0,1.6-.57Z" class="cls-3"/><path d="M88.77,142.07h-1v-1h0a2.18,2.18,0,0,1-2,1.17,2.14,2.14,0,0,1-1.52-.51,1.78,1.78,0,0,1-.55-1.37q0-1.82,2.15-2.12l1.95-.27q0-1.66-1.34-1.66a3.2,3.2,0,0,0-2.12.8V136a4,4,0,0,1,2.21-.61q2.29,0,2.29,2.42Zm-1-3.29-1.57.22a2.55,2.55,0,0,0-1.09.36,1,1,0,0,0-.37.91A1,1,0,0,0,85,141a1.31,1.31,0,0,0,.9.3,1.67,1.67,0,0,0,1.28-.54,1.94,1.94,0,0,0,.5-1.37Z" class="cls-3"/><path d="M93.75,142a2,2,0,0,1-1,.2q-1.71,0-1.71-1.9v-3.85H90v-.89h1.12V134l1-.34v1.92h1.64v.89H92.11v3.66a1.52,1.52,0,0,0,.22.93.89.89,0,0,0,.74.28,1.1,1.1,0,0,0,.68-.22Z" class="cls-3"/><path d="M95.67,133.92a.66.66,0,0,1-.48-.19.64.64,0,0,1-.2-.48.67.67,0,0,1,.67-.68.67.67,0,0,1,.49.19.68.68,0,0,1,0,1A.66.66,0,0,1,95.67,133.92Zm.51,8.15h-1v-6.5h1Z" class="cls-3"/><path d="M101,142.23a3,3,0,0,1-2.3-.91,3.37,3.37,0,0,1-.86-2.42,3.52,3.52,0,0,1,.89-2.56,3.22,3.22,0,0,1,2.42-.92,2.92,2.92,0,0,1,2.27.89,3.55,3.55,0,0,1,.82,2.48,3.49,3.49,0,0,1-.88,2.49A3.08,3.08,0,0,1,101,142.23Zm.08-5.93a2,2,0,0,0-1.59.68,2.81,2.81,0,0,0-.58,1.88,2.65,2.65,0,0,0,.59,1.82,2,2,0,0,0,1.58.67,1.9,1.9,0,0,0,1.55-.65,2.84,2.84,0,0,0,.54-1.86,2.88,2.88,0,0,0-.54-1.88A1.89,1.89,0,0,0,101.08,136.3Z" class="cls-3"/><path d="M111.3,142.07h-1v-3.71q0-2.07-1.51-2.07a1.64,1.64,0,0,0-1.29.59,2.18,2.18,0,0,0-.51,1.48v3.71h-1v-6.5h1v1.08h0a2.35,2.35,0,0,1,2.13-1.23,2,2,0,0,1,1.63.69,3.07,3.07,0,0,1,.56,2Z" class="cls-3"/><path d="M126.24,142.07h-1.06V136q0-.72.09-1.77h0a5.6,5.6,0,0,1-.27.88l-3.11,7h-.52l-3.1-6.94a5.53,5.53,0,0,1-.27-.93h0q.05.54.05,1.78v6.09h-1V133h1.41l2.79,6.35a8.11,8.11,0,0,1,.42,1.09h0q.27-.75.44-1.12l2.85-6.32h1.33Z" class="cls-3"/><path d="M133.72,139.08h-4.59a2.43,2.43,0,0,0,.58,1.68,2,2,0,0,0,1.54.59,3.19,3.19,0,0,0,2-.72v1a3.77,3.77,0,0,1-2.27.62,2.74,2.74,0,0,1-2.16-.89,3.62,3.62,0,0,1-.79-2.49,3.55,3.55,0,0,1,.86-2.47,2.76,2.76,0,0,1,2.14-1,2.45,2.45,0,0,1,2,.83,3.44,3.44,0,0,1,.7,2.29Zm-1.07-.88a2.11,2.11,0,0,0-.44-1.4,1.48,1.48,0,0,0-1.19-.5,1.68,1.68,0,0,0-1.25.53,2.38,2.38,0,0,0-.63,1.38Z" class="cls-3"/><path d="M134.9,141.84v-1.12a3.09,3.09,0,0,0,1.87.63q1.37,0,1.37-.91A.8.8,0,0,0,138,140a1.16,1.16,0,0,0-.32-.32,2.46,2.46,0,0,0-.47-.25l-.58-.23a7.47,7.47,0,0,1-.76-.35,2.29,2.29,0,0,1-.55-.39,1.47,1.47,0,0,1-.33-.5,1.76,1.76,0,0,1-.11-.65,1.56,1.56,0,0,1,.21-.81,1.87,1.87,0,0,1,.56-.59,2.6,2.6,0,0,1,.8-.36,3.51,3.51,0,0,1,.92-.12,3.74,3.74,0,0,1,1.51.29v1.05a2.94,2.94,0,0,0-1.65-.47,1.94,1.94,0,0,0-.53.07,1.3,1.3,0,0,0-.4.19.86.86,0,0,0-.26.29.77.77,0,0,0-.09.37.9.9,0,0,0,.09.42.92.92,0,0,0,.27.3,2.06,2.06,0,0,0,.43.24l.58.23a8.23,8.23,0,0,1,.77.34,2.64,2.64,0,0,1,.58.39,1.52,1.52,0,0,1,.37.5,1.8,1.8,0,0,1-.08,1.52,1.82,1.82,0,0,1-.57.59,2.61,2.61,0,0,1-.82.35,4,4,0,0,1-1,.11A3.69,3.69,0,0,1,134.9,141.84Z" class="cls-3"/><path d="M140.42,141.84v-1.12a3.09,3.09,0,0,0,1.87.63q1.37,0,1.37-.91a.79.79,0,0,0-.12-.44,1.17,1.17,0,0,0-.32-.32,2.44,2.44,0,0,0-.47-.25l-.58-.23a7.45,7.45,0,0,1-.76-.35,2.3,2.3,0,0,1-.55-.39,1.47,1.47,0,0,1-.33-.5,1.76,1.76,0,0,1-.11-.65,1.56,1.56,0,0,1,.21-.81,1.85,1.85,0,0,1,.56-.59,2.6,2.6,0,0,1,.8-.36,3.52,3.52,0,0,1,.92-.12,3.74,3.74,0,0,1,1.51.29v1.05a2.94,2.94,0,0,0-1.65-.47,2,2,0,0,0-.53.07,1.3,1.3,0,0,0-.4.19.87.87,0,0,0-.26.29.77.77,0,0,0-.09.37.9.9,0,0,0,.09.42.94.94,0,0,0,.27.3,2,2,0,0,0,.43.24l.58.23a8.15,8.15,0,0,1,.78.34,2.64,2.64,0,0,1,.58.39,1.53,1.53,0,0,1,.37.5,1.63,1.63,0,0,1,.13.68,1.61,1.61,0,0,1-.21.84,1.84,1.84,0,0,1-.57.59,2.61,2.61,0,0,1-.82.35,4,4,0,0,1-1,.11A3.69,3.69,0,0,1,140.42,141.84Z" class="cls-3"/><path d="M151,142.07h-1v-1h0a2.18,2.18,0,0,1-2,1.17,2.14,2.14,0,0,1-1.52-.51,1.78,1.78,0,0,1-.55-1.37q0-1.82,2.15-2.12l1.95-.27q0-1.66-1.34-1.66a3.2,3.2,0,0,0-2.12.8V136a4,4,0,0,1,2.21-.61q2.29,0,2.29,2.42Zm-1-3.29-1.57.22a2.55,2.55,0,0,0-1.09.36,1,1,0,0,0-.37.91,1,1,0,0,0,.34.78,1.31,1.31,0,0,0,.9.3,1.67,1.67,0,0,0,1.28-.54,1.94,1.94,0,0,0,.5-1.37Z" class="cls-3"/><path d="M158.49,141.55q0,3.58-3.43,3.58a4.6,4.6,0,0,1-2.11-.46v-1a4.33,4.33,0,0,0,2.09.61q2.4,0,2.4-2.55V141h0a2.63,2.63,0,0,1-4.19.38,3.47,3.47,0,0,1-.74-2.33,4,4,0,0,1,.8-2.63,2.66,2.66,0,0,1,2.18-1,2.12,2.12,0,0,1,1.95,1.05h0v-.9h1Zm-1-2.42v-1a1.86,1.86,0,0,0-.52-1.33,1.73,1.73,0,0,0-1.3-.55,1.81,1.81,0,0,0-1.51.7,3.14,3.14,0,0,0-.55,2,2.69,2.69,0,0,0,.52,1.74,1.69,1.69,0,0,0,1.39.65,1.81,1.81,0,0,0,1.42-.62A2.32,2.32,0,0,0,157.45,139.13Z" class="cls-3"/><path d="M165.82,139.08h-4.59a2.43,2.43,0,0,0,.58,1.68,2,2,0,0,0,1.54.59,3.19,3.19,0,0,0,2-.72v1a3.77,3.77,0,0,1-2.27.62,2.75,2.75,0,0,1-2.16-.89,3.62,3.62,0,0,1-.79-2.49,3.55,3.55,0,0,1,.86-2.47,2.76,2.76,0,0,1,2.14-1,2.45,2.45,0,0,1,2,.83,3.44,3.44,0,0,1,.7,2.29Zm-1.07-.88a2.12,2.12,0,0,0-.43-1.4,1.48,1.48,0,0,0-1.19-.5,1.68,1.68,0,0,0-1.25.53,2.39,2.39,0,0,0-.63,1.38Z" class="cls-3"/><path d="M167,141.84v-1.12a3.09,3.09,0,0,0,1.87.63q1.37,0,1.37-.91a.79.79,0,0,0-.12-.44,1.17,1.17,0,0,0-.32-.32,2.44,2.44,0,0,0-.47-.25l-.58-.23a7.45,7.45,0,0,1-.76-.35,2.3,2.3,0,0,1-.55-.39,1.47,1.47,0,0,1-.33-.5,1.76,1.76,0,0,1-.11-.65,1.56,1.56,0,0,1,.21-.81,1.85,1.85,0,0,1,.56-.59,2.6,2.6,0,0,1,.8-.36,3.52,3.52,0,0,1,.92-.12,3.74,3.74,0,0,1,1.51.29v1.05a2.94,2.94,0,0,0-1.65-.47,2,2,0,0,0-.53.07,1.3,1.3,0,0,0-.4.19.87.87,0,0,0-.26.29.77.77,0,0,0-.09.37.9.9,0,0,0,.09.42.94.94,0,0,0,.27.3,2,2,0,0,0,.43.24l.58.23a8.15,8.15,0,0,1,.78.34,2.64,2.64,0,0,1,.58.39,1.53,1.53,0,0,1,.37.5,1.63,1.63,0,0,1,.13.68,1.61,1.61,0,0,1-.21.84,1.84,1.84,0,0,1-.57.59,2.61,2.61,0,0,1-.82.35,4,4,0,0,1-1,.11A3.69,3.69,0,0,1,167,141.84Z" class="cls-3"/><path d="M17.65,163.69a5.34,5.34,0,0,1-2.51.53A4.06,4.06,0,0,1,12,163a4.61,4.61,0,0,1-1.17-3.28,4.83,4.83,0,0,1,1.31-3.53,4.46,4.46,0,0,1,3.33-1.35,5.36,5.36,0,0,1,2.15.37v1.14a4.35,4.35,0,0,0-2.16-.55,3.31,3.31,0,0,0-2.54,1,3.94,3.94,0,0,0-1,2.8,3.76,3.76,0,0,0,.91,2.65,3.1,3.1,0,0,0,2.39,1,4.48,4.48,0,0,0,2.37-.61Z" class="cls-3"/><path d="M20.4,164.07h-1v-9.62h1Z" class="cls-3"/><path d="M25.23,164.23a3,3,0,0,1-2.3-.91,3.37,3.37,0,0,1-.86-2.42,3.51,3.51,0,0,1,.9-2.56,3.22,3.22,0,0,1,2.42-.92,2.92,2.92,0,0,1,2.27.89,3.56,3.56,0,0,1,.82,2.48,3.49,3.49,0,0,1-.88,2.49A3.08,3.08,0,0,1,25.23,164.23Zm.08-5.93a2,2,0,0,0-1.59.68,2.8,2.8,0,0,0-.58,1.88,2.64,2.64,0,0,0,.59,1.82,2,2,0,0,0,1.58.67,1.9,1.9,0,0,0,1.55-.65,2.84,2.84,0,0,0,.54-1.86,2.88,2.88,0,0,0-.54-1.88A1.89,1.89,0,0,0,25.3,158.3Z" class="cls-3"/><path d="M29.73,163.84v-1.12a3.09,3.09,0,0,0,1.87.63q1.37,0,1.37-.91a.8.8,0,0,0-.12-.44,1.16,1.16,0,0,0-.32-.32,2.46,2.46,0,0,0-.47-.25l-.58-.23a7.47,7.47,0,0,1-.76-.35,2.29,2.29,0,0,1-.55-.39,1.47,1.47,0,0,1-.33-.5,1.76,1.76,0,0,1-.11-.65,1.56,1.56,0,0,1,.21-.81,1.87,1.87,0,0,1,.56-.59,2.6,2.6,0,0,1,.8-.36,3.51,3.51,0,0,1,.92-.12,3.74,3.74,0,0,1,1.51.29v1.05a2.94,2.94,0,0,0-1.65-.47,1.94,1.94,0,0,0-.53.07,1.3,1.3,0,0,0-.4.19.86.86,0,0,0-.26.29.77.77,0,0,0-.09.37.9.9,0,0,0,.09.42.92.92,0,0,0,.27.3,2.06,2.06,0,0,0,.43.24l.58.23a8.23,8.23,0,0,1,.77.34,2.64,2.64,0,0,1,.58.39,1.52,1.52,0,0,1,.37.5,1.8,1.8,0,0,1-.08,1.52,1.82,1.82,0,0,1-.57.59,2.61,2.61,0,0,1-.82.35,4,4,0,0,1-1,.11A3.69,3.69,0,0,1,29.73,163.84Z" class="cls-3"/><path d="M40.87,161.08H36.28a2.43,2.43,0,0,0,.58,1.68,2,2,0,0,0,1.54.59,3.19,3.19,0,0,0,2-.72v1a3.77,3.77,0,0,1-2.27.62,2.74,2.74,0,0,1-2.16-.89,3.62,3.62,0,0,1-.79-2.49,3.55,3.55,0,0,1,.86-2.47,2.76,2.76,0,0,1,2.14-1,2.45,2.45,0,0,1,2,.83,3.44,3.44,0,0,1,.7,2.29Zm-1.07-.88a2.11,2.11,0,0,0-.44-1.4,1.48,1.48,0,0,0-1.19-.5,1.68,1.68,0,0,0-1.25.53,2.38,2.38,0,0,0-.63,1.38Z" class="cls-3"/><path d="M56.93,155l-2.57,9.1H53.11l-1.87-6.65a4.11,4.11,0,0,1-.15-.93h0a4.67,4.67,0,0,1-.17.91L49,164.07H47.78L45.11,155h1.17l1.94,7a4.63,4.63,0,0,1,.15.91h0a5.39,5.39,0,0,1,.2-.91l2-7h1l1.93,7a5,5,0,0,1,.15.85h0a5.15,5.15,0,0,1,.17-.88l1.86-7Z" class="cls-3"/><path d="M58.68,155.92a.66.66,0,0,1-.48-.19.64.64,0,0,1-.2-.48.67.67,0,0,1,.67-.68.67.67,0,0,1,.49.19.68.68,0,0,1,0,1A.66.66,0,0,1,58.68,155.92Zm.51,8.15h-1v-6.5h1Z" class="cls-3"/><path d="M66.69,164.07h-1v-3.71q0-2.07-1.51-2.07a1.64,1.64,0,0,0-1.29.59,2.18,2.18,0,0,0-.51,1.48v3.71h-1v-6.5h1v1.08h0a2.35,2.35,0,0,1,2.13-1.23,2,2,0,0,1,1.63.69,3.07,3.07,0,0,1,.56,2Z" class="cls-3"/><path d="M74.2,164.07h-1V163h0a2.62,2.62,0,0,1-4.19.38,3.58,3.58,0,0,1-.73-2.38,3.9,3.9,0,0,1,.81-2.58,2.68,2.68,0,0,1,2.16-1,2.09,2.09,0,0,1,1.95,1.05h0v-4h1Zm-1-2.94v-1a1.86,1.86,0,0,0-.52-1.33,1.74,1.74,0,0,0-1.32-.55,1.8,1.8,0,0,0-1.5.7,3.06,3.06,0,0,0-.54,1.93,2.75,2.75,0,0,0,.52,1.77,1.71,1.71,0,0,0,1.41.65,1.78,1.78,0,0,0,1.41-.63A2.35,2.35,0,0,0,73.16,161.13Z" class="cls-3"/><path d="M79,164.23a3,3,0,0,1-2.3-.91,3.37,3.37,0,0,1-.86-2.42,3.52,3.52,0,0,1,.9-2.56,3.22,3.22,0,0,1,2.42-.92,2.92,2.92,0,0,1,2.27.89,3.56,3.56,0,0,1,.81,2.48,3.49,3.49,0,0,1-.88,2.49A3.08,3.08,0,0,1,79,164.23Zm.08-5.93a2,2,0,0,0-1.59.68,2.81,2.81,0,0,0-.58,1.88,2.65,2.65,0,0,0,.59,1.82,2,2,0,0,0,1.58.67,1.9,1.9,0,0,0,1.55-.65,2.83,2.83,0,0,0,.54-1.86,2.88,2.88,0,0,0-.54-1.88A1.89,1.89,0,0,0,79.1,158.3Z" class="cls-3"/><path d="M92.11,157.57l-1.95,6.5H89.08l-1.34-4.65a3.08,3.08,0,0,1-.1-.6h0a2.76,2.76,0,0,1-.13.59L86,164.07H85l-2-6.5h1.09l1.35,4.89a2.94,2.94,0,0,1,.09.58h.05a2.73,2.73,0,0,1,.11-.6l1.5-4.87h1l1.35,4.9a3.47,3.47,0,0,1,.09.58h.05a2.67,2.67,0,0,1,.11-.58l1.32-4.9Z" class="cls-3"/><path d="M17.65,185.69a5.34,5.34,0,0,1-2.51.53A4.06,4.06,0,0,1,12,185a4.61,4.61,0,0,1-1.17-3.28,4.83,4.83,0,0,1,1.31-3.53,4.46,4.46,0,0,1,3.33-1.35,5.36,5.36,0,0,1,2.15.37v1.14a4.35,4.35,0,0,0-2.16-.55,3.31,3.31,0,0,0-2.54,1,3.94,3.94,0,0,0-1,2.8,3.76,3.76,0,0,0,.91,2.65,3.1,3.1,0,0,0,2.39,1,4.48,4.48,0,0,0,2.37-.61Z" class="cls-3"/><path d="M22.08,186.23a3,3,0,0,1-2.3-.91,3.37,3.37,0,0,1-.86-2.42,3.51,3.51,0,0,1,.9-2.56,3.22,3.22,0,0,1,2.42-.92,2.92,2.92,0,0,1,2.27.89,3.56,3.56,0,0,1,.82,2.48,3.49,3.49,0,0,1-.88,2.49A3.08,3.08,0,0,1,22.08,186.23Zm.08-5.93a2,2,0,0,0-1.59.68,2.8,2.8,0,0,0-.58,1.88,2.64,2.64,0,0,0,.59,1.82,2,2,0,0,0,1.58.67,1.9,1.9,0,0,0,1.55-.65,2.84,2.84,0,0,0,.54-1.86,2.88,2.88,0,0,0-.54-1.88A1.89,1.89,0,0,0,22.15,180.3Z" class="cls-3"/><path d="M32.37,186.07h-1v-3.71q0-2.07-1.51-2.07a1.64,1.64,0,0,0-1.29.59,2.18,2.18,0,0,0-.51,1.48v3.71H27v-6.5h1v1.08h0a2.34,2.34,0,0,1,2.13-1.23,2,2,0,0,1,1.63.69,3.07,3.07,0,0,1,.57,2Z" class="cls-3"/><path d="M37.55,177.37a1.39,1.39,0,0,0-.69-.17q-1.09,0-1.09,1.38v1h1.52v.89H35.76v5.61h-1v-5.61H33.62v-.89h1.11v-1.05a2.19,2.19,0,0,1,.59-1.62,2,2,0,0,1,1.47-.59,2,2,0,0,1,.75.11Z" class="cls-3"/><path d="M38.94,177.92a.66.66,0,0,1-.48-.19.64.64,0,0,1-.2-.48.67.67,0,0,1,.67-.68.67.67,0,0,1,.49.19.68.68,0,0,1,0,1A.66.66,0,0,1,38.94,177.92Zm.51,8.15h-1v-6.5h1Z" class="cls-3"/><path d="M47.1,185.55q0,3.58-3.43,3.58a4.6,4.6,0,0,1-2.11-.46v-1a4.33,4.33,0,0,0,2.09.61q2.4,0,2.4-2.55V185h0a2.63,2.63,0,0,1-4.19.38,3.47,3.47,0,0,1-.74-2.33,4,4,0,0,1,.8-2.63,2.66,2.66,0,0,1,2.18-1A2.12,2.12,0,0,1,46,180.48h0v-.9h1Zm-1-2.42v-1a1.86,1.86,0,0,0-.52-1.33,1.73,1.73,0,0,0-1.3-.55,1.81,1.81,0,0,0-1.51.7,3.14,3.14,0,0,0-.55,2,2.69,2.69,0,0,0,.52,1.74,1.69,1.69,0,0,0,1.39.65,1.81,1.81,0,0,0,1.42-.62A2.32,2.32,0,0,0,46.06,183.13Z" class="cls-3"/><path d="M54.46,186.07h-1v-1h0a2.14,2.14,0,0,1-2,1.18q-2.32,0-2.32-2.77v-3.88h1v3.72q0,2.06,1.57,2.06a1.59,1.59,0,0,0,1.25-.56,2.15,2.15,0,0,0,.49-1.47v-3.75h1Z" class="cls-3"/><path d="M60,180.63a1.28,1.28,0,0,0-.79-.21,1.33,1.33,0,0,0-1.12.63,2.92,2.92,0,0,0-.45,1.71v3.31h-1v-6.5h1v1.34h0a2.27,2.27,0,0,1,.68-1.07,1.55,1.55,0,0,1,1-.38,1.7,1.7,0,0,1,.62.09Z" class="cls-3"/><path d="M66.14,183.08H61.55a2.43,2.43,0,0,0,.58,1.68,2,2,0,0,0,1.54.59,3.19,3.19,0,0,0,2-.72v1a3.77,3.77,0,0,1-2.27.62,2.75,2.75,0,0,1-2.16-.89,3.62,3.62,0,0,1-.79-2.49,3.55,3.55,0,0,1,.86-2.47,2.76,2.76,0,0,1,2.14-1,2.45,2.45,0,0,1,2,.83,3.44,3.44,0,0,1,.7,2.29Zm-1.07-.88a2.12,2.12,0,0,0-.43-1.4,1.48,1.48,0,0,0-1.19-.5,1.68,1.68,0,0,0-1.25.53,2.39,2.39,0,0,0-.63,1.38Z" class="cls-3"/><path d="M76.13,186.07H71.41V177h1.07v8.14h3.66Z" class="cls-3"/><path d="M82,186.07H81v-1h0a2.18,2.18,0,0,1-2,1.17,2.14,2.14,0,0,1-1.52-.51,1.78,1.78,0,0,1-.55-1.37q0-1.82,2.15-2.12L81,182q0-1.66-1.34-1.66a3.2,3.2,0,0,0-2.12.8V180a4,4,0,0,1,2.21-.61q2.29,0,2.29,2.42Zm-1-3.29-1.57.22a2.55,2.55,0,0,0-1.09.36,1,1,0,0,0-.37.91,1,1,0,0,0,.34.78,1.31,1.31,0,0,0,.9.3,1.67,1.67,0,0,0,1.28-.54,1.94,1.94,0,0,0,.5-1.37Z" class="cls-3"/><path d="M89.4,186.07h-1v-3.71q0-2.07-1.51-2.07a1.64,1.64,0,0,0-1.29.59,2.18,2.18,0,0,0-.51,1.48v3.71H84v-6.5h1v1.08h0a2.34,2.34,0,0,1,2.13-1.23,2,2,0,0,1,1.63.69,3.07,3.07,0,0,1,.57,2Z" class="cls-3"/><path d="M96.91,185.55q0,3.58-3.43,3.58a4.61,4.61,0,0,1-2.11-.46v-1a4.33,4.33,0,0,0,2.1.61q2.4,0,2.4-2.55V185h0a2.63,2.63,0,0,1-4.19.38,3.47,3.47,0,0,1-.74-2.33,4,4,0,0,1,.8-2.63,2.66,2.66,0,0,1,2.18-1,2.12,2.12,0,0,1,1.95,1.05h0v-.9h1Zm-1-2.42v-1a1.86,1.86,0,0,0-.52-1.33,1.73,1.73,0,0,0-1.3-.55,1.81,1.81,0,0,0-1.51.7,3.13,3.13,0,0,0-.55,2,2.7,2.7,0,0,0,.52,1.74,1.69,1.69,0,0,0,1.39.65,1.81,1.81,0,0,0,1.42-.62A2.32,2.32,0,0,0,95.87,183.13Z" class="cls-3"/><path d="M104.27,186.07h-1v-1h0a2.14,2.14,0,0,1-2,1.18q-2.32,0-2.32-2.77v-3.88h1v3.72q0,2.06,1.57,2.06a1.59,1.59,0,0,0,1.25-.56,2.15,2.15,0,0,0,.49-1.47v-3.75h1Z" class="cls-3"/><path d="M111,186.07h-1v-1h0a2.18,2.18,0,0,1-2,1.17,2.14,2.14,0,0,1-1.52-.51,1.79,1.79,0,0,1-.55-1.37q0-1.82,2.15-2.12L110,182q0-1.66-1.34-1.66a3.2,3.2,0,0,0-2.12.8V180a4,4,0,0,1,2.21-.61q2.29,0,2.29,2.42Zm-1-3.29-1.57.22a2.55,2.55,0,0,0-1.09.36,1,1,0,0,0-.37.91,1,1,0,0,0,.34.78,1.31,1.31,0,0,0,.9.3,1.67,1.67,0,0,0,1.28-.54,1.94,1.94,0,0,0,.5-1.37Z" class="cls-3"/><path d="M118.54,185.55q0,3.58-3.43,3.58a4.6,4.6,0,0,1-2.11-.46v-1a4.33,4.33,0,0,0,2.09.61q2.4,0,2.4-2.55V185h0a2.63,2.63,0,0,1-4.19.38,3.46,3.46,0,0,1-.74-2.33,4,4,0,0,1,.8-2.63,2.66,2.66,0,0,1,2.18-1,2.12,2.12,0,0,1,1.95,1.05h0v-.9h1Zm-1-2.42v-1a1.86,1.86,0,0,0-.52-1.33,1.73,1.73,0,0,0-1.3-.55,1.81,1.81,0,0,0-1.51.7,3.13,3.13,0,0,0-.55,2,2.69,2.69,0,0,0,.52,1.74,1.69,1.69,0,0,0,1.39.65,1.81,1.81,0,0,0,1.43-.62A2.32,2.32,0,0,0,117.5,183.13Z" class="cls-3"/><path d="M125.87,183.08h-4.59a2.43,2.43,0,0,0,.58,1.68,2,2,0,0,0,1.54.59,3.19,3.19,0,0,0,2-.72v1a3.77,3.77,0,0,1-2.27.62,2.75,2.75,0,0,1-2.17-.89,3.63,3.63,0,0,1-.79-2.49,3.55,3.55,0,0,1,.86-2.47,2.76,2.76,0,0,1,2.14-1,2.44,2.44,0,0,1,2,.83,3.44,3.44,0,0,1,.7,2.29Zm-1.07-.88a2.12,2.12,0,0,0-.44-1.4,1.48,1.48,0,0,0-1.19-.5,1.68,1.68,0,0,0-1.25.53,2.4,2.4,0,0,0-.63,1.38Z" class="cls-3"/><rect width="386" height="197" class="cls-6"/></g></g></svg>