<svg width="16" height="16" viewBox="0 0 16 16" fill="none" xmlns="http://www.w3.org/2000/svg">
<g opacity="0.5">
<path fill-rule="evenodd" clip-rule="evenodd" d="M9.59454 6.25211L8 1L6.40546 6.25211H1L5.37311 9.65247L3.7496 15L8 11.695L12.2504 15L10.6269 9.65247L15 6.25211H9.59454ZM2.34804 6.72168H6.72044L8 2.50706L8.00002 2.50708L6.72046 6.7217H2.34805L2.34804 6.72168ZM5.88539 9.4722L4.57848 13.7769L4.57851 13.7769L5.8854 9.47221L5.88539 9.4722ZM13.6519 6.7217L13.652 6.72168H9.27956L9.27958 6.7217H13.6519ZM4.90113 7.6229H7.26847L8.00002 5.21332L8.73156 7.6229H11.0989L9.18369 9.1121L9.91523 11.5217L8.00002 10.0325L6.0848 11.5217L6.81635 9.1121L4.90113 7.6229Z" fill="#C5C5C5"/>
</g>
</svg>
