<?xml version="1.0" encoding="UTF-8"?>
<svg width="10px" height="16px" viewBox="0 0 10 16" version="1.1" xmlns="http://www.w3.org/2000/svg" xmlns:xlink="http://www.w3.org/1999/xlink">
    <!-- Generator: Sketch 40.3 (33839) - http://www.bohemiancoding.com/sketch -->
    <title>repo-forked</title>
    <desc>Created with Sketch.</desc>
    <defs></defs>
    <g id="Octicons" stroke="none" stroke-width="1" fill="none" fill-rule="evenodd">
        <g id="repo-forked" fill="#424242">
            <path d="M8,1 C6.89,1 6,1.89 6,3 C6,3.73 6.41,4.38 7,4.72 L7,6 L5,8 L3,6 L3,4.72 C3.59,4.38 4,3.74 4,3 C4,1.89 3.11,1 2,1 C0.89,1 0,1.89 0,3 C0,3.73 0.41,4.38 1,4.72 L1,6.5 L4,9.5 L4,11.28 C3.41,11.62 3,12.26 3,13 C3,14.11 3.89,15 5,15 C6.11,15 7,14.11 7,13 C7,12.27 6.59,11.62 6,11.28 L6,9.5 L9,6.5 L9,4.72 C9.59,4.38 10,3.74 10,3 C10,1.89 9.11,1 8,1 L8,1 Z M2,4.2 C1.34,4.2 0.8,3.65 0.8,3 C0.8,2.35 1.35,1.8 2,1.8 C2.65,1.8 3.2,2.35 3.2,3 C3.2,3.65 2.65,4.2 2,4.2 L2,4.2 Z M5,14.2 C4.34,14.2 3.8,13.65 3.8,13 C3.8,12.35 4.35,11.8 5,11.8 C5.65,11.8 6.2,12.35 6.2,13 C6.2,13.65 5.65,14.2 5,14.2 L5,14.2 Z M8,4.2 C7.34,4.2 6.8,3.65 6.8,3 C6.8,2.35 7.35,1.8 8,1.8 C8.65,1.8 9.2,2.35 9.2,3 C9.2,3.65 8.65,4.2 8,4.2 L8,4.2 Z" id="Shape"></path>
        </g>
    </g>
</svg>