<svg xmlns="http://www.w3.org/2000/svg" viewBox="0 0 38 38"><style>.st0{fill:#fff}</style><title>repo-forked</title><g id="Octicons"><g id="repo-forked"><path id="Shape" class="st0" d="M22.9 10c-1.4 0-2.6 1.1-2.6 2.6 0 .9.5 1.8 1.3 2.2v1.6L19 19l-2.6-2.6v-1.6c.8-.4 1.3-1.3 1.3-2.2 0-1.4-1.1-2.6-2.6-2.6s-2.6 1.1-2.6 2.6c0 .9.5 1.8 1.3 2.2v2.3l3.9 3.9v2.3c-.8.4-1.3 1.3-1.3 2.2 0 1.4 1.1 2.6 2.6 2.6s2.6-1.1 2.6-2.6c0-.9-.5-1.8-1.3-2.2V21l3.9-3.9v-2.3c.8-.4 1.3-1.3 1.3-2.2-.1-1.5-1.2-2.6-2.6-2.6zm-7.8 4.1c-.8 0-1.5-.7-1.5-1.5s.7-1.5 1.5-1.5 1.5.7 1.5 1.5-.6 1.5-1.5 1.5zM19 27c-.8 0-1.5-.7-1.5-1.5S18.2 24 19 24s1.5.7 1.5 1.5S19.8 27 19 27zm3.9-12.9c-.8 0-1.5-.7-1.5-1.5S22 11 22.9 11c.8 0 1.5.7 1.5 1.5s-.7 1.6-1.5 1.6z"/></g></g></svg>