<svg xmlns="http://www.w3.org/2000/svg" viewBox="0 0 40 40"><path d="M24.1 10.5c-1.5 0-2.7 1.2-2.7 2.7 0 .9.5 1.9 1.4 2.3v1.7L20 19.9l-2.7-2.7v-1.7c.8-.4 1.4-1.4 1.4-2.3 0-1.5-1.2-2.7-2.7-2.7-1.6 0-2.7 1.2-2.7 2.7 0 .9.5 1.9 1.4 2.3V18l4.1 4.1v2.4c-.8.4-1.4 1.4-1.4 2.3 0 1.5 1.2 2.7 2.7 2.7 1.6 0 2.7-1.2 2.7-2.7 0-.9-.5-1.9-1.4-2.3V22l4.1-4.1v-2.4c.8-.4 1.4-1.4 1.4-2.3-.2-1.5-1.3-2.7-2.8-2.7zm-8.2 4.3c-.8 0-1.6-.7-1.6-1.6 0-.8.7-1.6 1.6-1.6.8 0 1.6.7 1.6 1.6 0 .9-.6 1.6-1.6 1.6zM20 28.3c-.8 0-1.6-.7-1.6-1.6 0-.8.7-1.6 1.6-1.6.8 0 1.6.7 1.6 1.6 0 .9-.8 1.6-1.6 1.6zm4.1-13.5c-.8 0-1.6-.7-1.6-1.6 0-.8.6-1.7 1.6-1.7.8 0 1.6.7 1.6 1.6 0 .9-.8 1.7-1.6 1.7z" fill="#fff"/></svg>