<svg width="16" height="16" viewBox="0 0 16 16" fill="none" xmlns="http://www.w3.org/2000/svg">
<path fill-rule="evenodd" clip-rule="evenodd" d="M9.56374 0L10.1335 2.84911L12.5511 1.23741L14.7626 3.44888L13.1509 5.86644L16 6.43626V9.56376L13.1509 10.1336L14.7626 12.5511L12.5511 14.7626L10.1336 13.1509L9.56373 16H6.43624L5.86642 13.1509L3.44889 14.7626L1.23742 12.5511L2.84911 10.1336L0 9.56376V6.43626L2.84911 5.86644L1.23741 3.4489L3.44888 1.23743L5.86643 2.84913L6.43624 2.37822e-05L9.56374 0ZM7.25605 1.00002L6.70717 3.74444L5.905 4.07669L3.5763 2.52422L2.52421 3.57632L4.07668 5.90503L3.7444 6.70719L1 7.25607V8.74395L3.7444 9.29283L4.07669 10.095L2.52421 12.4237L3.57631 13.4758L5.90501 11.9233L6.70716 12.2556L7.25605 15H8.74393L9.29281 12.2556L10.095 11.9233L12.4237 13.4758L13.4758 12.4237L11.9233 10.095L12.2556 9.29283L15 8.74395V7.25607L12.2556 6.70719L11.9233 5.90501L13.4758 3.5763L12.4237 2.52421L10.095 4.07667L9.2928 3.74442L8.74393 1.00001L7.25605 1.00002ZM7.99998 5.6154C6.683 5.6154 5.61537 6.68303 5.61537 8.00002C5.61537 9.317 6.683 10.3846 7.99998 10.3846C9.31697 10.3846 10.3846 9.317 10.3846 8.00002C10.3846 6.68303 9.31697 5.6154 7.99998 5.6154ZM4.61537 8.00002C4.61537 6.13075 6.13071 4.6154 7.99998 4.6154C9.86925 4.6154 11.3846 6.13075 11.3846 8.00002C11.3846 9.86928 9.86925 11.3846 7.99998 11.3846C6.13071 11.3846 4.61537 9.86928 4.61537 8.00002Z" fill="#424242"/>
</svg>
