<svg width="16" height="16" viewBox="0 0 16 16" fill="none" xmlns="http://www.w3.org/2000/svg">
<path fill-rule="evenodd" clip-rule="evenodd" d="M8.58318 2.02842C9.96435 2.16331 11.2561 2.77279 12.2383 3.75307C13.3643 4.87923 13.9978 6.40584 14 7.99829C14.0004 9.38617 13.5196 10.7313 12.6396 11.8045C11.7595 12.8778 10.5345 13.6127 9.17333 13.8841C7.81215 14.1556 6.39895 13.9467 5.1745 13.2931C3.95005 12.6394 2.99008 11.5815 2.45814 10.2995C1.92619 9.0175 1.85517 7.59072 2.25717 6.26222C2.65917 4.93373 3.50933 3.7857 4.66282 3.0137C5.8163 2.24171 7.20177 1.89351 8.58318 2.02842ZM8.68038 1.03316C10.292 1.19055 11.7993 1.90184 12.9453 3.04585C14.2587 4.35938 14.9976 6.14013 15 7.99764C15.0005 9.61695 14.4396 11.1864 13.4129 12.4385C12.3861 13.6907 10.9569 14.5482 9.36889 14.8648C7.78084 15.1815 6.13211 14.9378 4.70359 14.1752C3.27506 13.4127 2.1551 12.1784 1.53449 10.6828C0.913887 9.18708 0.831027 7.52251 1.30003 5.97259C1.76903 4.42268 2.76089 3.08331 4.10662 2.18265C5.45236 1.28199 7.06873 0.875761 8.68038 1.03316ZM5.52498 5L8.00004 7.47506L10.4751 5L11.1822 5.70711L8.70714 8.18217L11.1818 10.6569L10.4747 11.364L8.00004 8.88927L5.52535 11.364L4.81824 10.6569L7.29293 8.18217L4.81787 5.70711L5.52498 5Z" fill="#A1260D"/>
</svg>
