<?xml version="1.0" encoding="utf-8"?>
<!-- Generator: Adobe Illustrator 22.0.1, SVG Export Plug-In . SVG Version: 6.00 Build 0)  -->
<svg version="1.1" id="Layer_1" xmlns="http://www.w3.org/2000/svg" xmlns:xlink="http://www.w3.org/1999/xlink" x="0px" y="0px"
	 viewBox="0 0 16 16" style="enable-background:new 0 0 16 16;" xml:space="preserve">
<style type="text/css">
	.st0{fill:#CACACC;}
	.st1{fill:#E51400;}
	.st2{fill:#FFFFFF;}
	.st3{fill:#F6F6F6;fill-opacity:0;}
	.st4{fill:#1A1A1A;}
</style>
<path id="outline_2_" class="st0" d="M-169.7-71.2c0,1.4-1.2,2.6-2.6,2.6c-1.4,0-2.6-1.2-2.6-2.6s1.2-2.6,2.6-2.6
	C-170.9-73.8-169.7-72.6-169.7-71.2z"/>
<path id="iconBg_2_" class="st1" d="M-172.3-73.5c-1.3,0-2.3,1-2.3,2.3s1,2.3,2.3,2.3s2.3-1,2.3-2.3S-171.1-73.5-172.3-73.5z
	 M-170.9-70.2l-0.5,0.5l-1-1l-1,1l-0.5-0.5l1-1l-1-1l0.5-0.5l1,1l1-1l0.5,0.5l-1,1L-170.9-70.2z"/>
<g id="iconFg_2_">
	<path class="st2" d="M-171.9-71.2l1,1l-0.5,0.5l-1-1l-1,1l-0.5-0.5l1-1l-1-1l0.5-0.5l1,1l1-1l0.5,0.5L-171.9-71.2z"/>
</g>
<path id="canvas_1_" class="st3" d="M16,16H0V0h16V16z"/>
<path id="outline_1_" class="st4" d="M16,8c0,4.4-3.6,8-8,8s-8-3.6-8-8s3.6-8,8-8S16,3.6,16,8z"/>
<path id="iconBg_1_" class="st1" d="M8,1C4.1,1,1,4.1,1,8c0,3.9,3.1,7,7,7s7-3.1,7-7S11.9,1,8,1z M12.4,11L11,12.4l-3-3l-3,3L3.6,11
	l3-3l-3-3L5,3.6l3,3l3-3L12.4,5l-3,3L12.4,11z"/>
<g id="iconFg_1_">
	<path class="st2" d="M9.4,8l3,3L11,12.4l-3-3l-3,3L3.6,11l3-3l-3-3L5,3.6l3,3l3-3L12.4,5L9.4,8z"/>
</g>
</svg>
