<svg xmlns="http://www.w3.org/2000/svg" width="16" height="16" viewBox="0 0 16 16" enable-background="new 0 0 16 16"><style>.icon-canvas-transparent{opacity:0;fill:#f6f6f6}.icon-vs-out{fill:#f6f6f6}.icon-vs-bg{fill:#424242}.icon-vs-fg{fill:#f0eff1}</style><path class="icon-canvas-transparent" d="M16 16H0V0h16v16z" id="canvas"/><path class="icon-vs-out" d="M16 15H0V0h16v15z" id="outline" style="display: none;"/><path class="icon-vs-fg" d="M14 13H2v-2h12v2zM2 6h12V4H2v2zm0 7h12v-2H2v2zm0-9v2h12V4H2z" id="iconFg" style="display: none;"/><path class="icon-vs-bg" d="M1 1v6h14V1H1zm13 5H2V4h12v2zM1 14h14V8H1v6zm1-3h12v2H2v-2z" id="iconBg"/></svg>