<svg xmlns="http://www.w3.org/2000/svg" viewBox="0 0 272.96 114.01">
 <path fill="#362701" d="m163.59,38.806c-5.985,0-10.442,2.9389-10.442,10.012,0,5.3291,2.9375,9.0284,10.12,9.0284,6.0875,0,10.222-3.5869,10.222-9.2485,0-6.416-3.7-9.7915-9.9-9.7915zm-11.97,49.94c-1.4162,1.7382-2.8275,3.585-2.8275,5.7646,0,4.3482,5.545,5.6568,13.162,5.6568,6.31,0,14.905-0.44188,14.905-6.3085,0-3.4869-4.135-3.7028-9.36-4.0304l-15.88-1.0825zm32.201-49.611c1.955,2.5029,4.025,5.9848,4.025,10.989,0,12.075-9.465,19.146-23.169,19.146-3.485,0-6.64-0.43412-8.5962-0.97712l-3.5912,5.7648,10.66,0.65125c18.822,1.1992,29.915,1.7442,29.915,16.208,0,12.514-10.985,19.581-29.915,19.581-19.69,0-27.196-5.0049-27.196-13.598,0-4.8975,2.1762-7.5025,5.9838-11.098-3.5912-1.518-4.7862-4.2362-4.7862-7.1748,0-2.395,1.195-4.5702,3.1562-6.6386,1.9575-2.065,4.1325-4.1348,6.7438-6.5274-5.33-2.6104-9.3562-8.2676-9.3562-16.319,0-12.509,8.2688-21.1,24.91-21.1,4.6788,0,7.5088,0.43062,10.011,1.0874h21.215v9.2446l-10.01,0.76175"/>
 <path fill="#362701" d="m212.98,19.366c-6.2025,0-9.7912-3.5932-9.7912-9.7964,0-6.1954,3.5888-9.5704,9.7912-9.5704,6.31,0,9.9,3.375,9.9,9.5704,0,6.2031-3.59,9.7964-9.9,9.7964zm-14.036,65.376,0-8.5899,5.55-0.75925c1.5238-0.22075,1.74-0.5445,1.74-2.1802v-31.983c0-1.1942-0.325-1.959-1.4162-2.2828l-5.8738-2.0688,1.1962-8.8086h22.521v45.144c0,1.7438,0.105,1.9595,1.7412,2.1802l5.5488,0.75925v8.5899h-31.008"/>
 <path fill="#362701" d="m272.97,80.526c-4.68,2.2818-11.532,4.3491-17.736,4.3491-12.945,0-17.839-5.2168-17.839-17.515v-28.5c0-0.65138,0-1.0884-0.87375-1.0884h-7.6138v-9.6816c9.5762-1.0908,13.381-5.8784,14.578-17.736h10.336v15.453c0,0.75875,0,1.0874,0.87125,1.0874h15.338v10.877h-16.209v25.999c0,6.4194,1.525,8.9194,7.3962,8.9194,3.05,0,6.2012-0.75925,8.8125-1.7392l2.94,9.5761"/>
 <path fill="#f03c2e" d="M111.78,51.977,62.035,2.2381c-2.8622-2.8648-7.5082-2.8648-10.374,0l-10.329,10.33,13.102,13.102c3.0459-1.0284,6.5371-0.33888,8.9639,2.0884,2.4394,2.4424,3.124,5.9634,2.0698,9.0195l12.628,12.628c3.0551-1.0528,6.58-0.37262,9.0195,2.0712,3.4106,3.4096,3.4106,8.9345,0,12.345-3.4111,3.4116-8.936,3.4116-12.349,0-2.5645-2.5665-3.1988-6.3345-1.8999-9.4942l-11.777-11.777-0.001,30.991c0.8315,0.41162,1.6162,0.961,2.3091,1.6509,3.4096,3.4092,3.4096,8.9331,0,12.348-3.4106,3.4091-8.938,3.4091-12.345,0-3.4101-3.4146-3.4101-8.9385,0-12.348,0.84275-0.84125,1.8179-1.478,2.8584-1.9048v-31.279c-1.041-0.425-2.015-1.057-2.859-1.905-2.583-2.581-3.2051-6.372-1.8804-9.5439l-12.916-12.918-34.106,34.105c-2.8657,2.867-2.8657,7.513,0,10.378l49.742,49.739c2.8638,2.8648,7.5082,2.8648,10.376,0l49.512-49.504c2.8648-2.8662,2.8648-7.5136,0-10.379"/>
</svg>
